<?xml version="1.0" encoding="utf-8"?>
<!-- Generator: Adobe Illustrator 25.2.1, SVG Export Plug-In . SVG Version: 6.00 Build 0)  -->
<svg version="1.1" id="Camada_1" xmlns="http://www.w3.org/2000/svg" xmlns:xlink="http://www.w3.org/1999/xlink" x="0px" y="0px"
	 viewBox="0 0 247.2 202.1" style="enable-background:new 0 0 247.2 202.1;" xml:space="preserve">
<style type="text/css">
	.st0{fill:#7B293C;}
</style>
<g>
	<path class="st0" d="M144.5,99.4c4.1-0.3,7.4-3.6,7.7-7.7c0-0.2,0-0.4,0-0.5c0-2.2-0.9-4.3-2.4-5.8l-4.2-4.2l4.1-4.1
		c0.1-0.1,0.1-0.1,0.2-0.2c1.5-1.6,2.3-3.6,2.3-5.8c0-0.2,0-0.3,0-0.5c-0.2-3-2-5.6-4.6-6.9c-1-0.5-2-0.8-3.1-0.8
		c-0.8-0.1-1.5,0-2.1,0.1L142,63l0.1-0.3c0.1-0.5,0.2-1,0.2-1.6c0-0.2,0-0.4,0-0.5c-0.1-1.1-0.4-2.2-0.8-3.1
		c-0.8-1.6-2.1-2.9-3.7-3.7c-1-0.5-2-0.8-3.1-0.8c-0.2,0-0.4,0-0.5,0c-2.2,0-4.2,0.8-5.8,2.4l-0.1,0.1l-4.1,4.1l-4.1-4.1
		c-1.6-1.6-3.6-2.4-5.8-2.4c-0.2,0-0.4,0-0.5,0c-1.1,0.1-2.2,0.4-3.1,0.9c-1.6,0.8-2.9,2.1-3.7,3.7c-0.5,1-0.8,2-0.9,3.1
		c0,0.2,0,0.4,0,0.6c0,0.5,0.1,1.1,0.2,1.6l0.1,0.3l-0.3-0.1c-0.7-0.1-1.4-0.2-2.1-0.1c-3,0.2-5.6,2-6.9,4.6c-0.5,1-0.8,2-0.8,3.1
		c0,0.2,0,0.4,0,0.5c0,2.2,0.9,4.3,2.4,5.9l4.1,4.1l-4.1,4.1c-1.6,1.6-2.4,3.7-2.4,5.9c0,0.2,0,0.4,0,0.5c0.2,2.9,1.9,5.5,4.6,6.9
		c1,0.5,2,0.8,3.1,0.8c0.7,0,1.4,0,2.1-0.1l0.3-0.1l-0.1,0.3c-0.1,0.5-0.2,1.1-0.2,1.6c0,0.2,0,0.3,0,0.5c0.1,1.1,0.3,2.2,0.8,3.2
		c0.8,1.6,2.1,3,3.8,3.8c1,0.5,2,0.8,3.1,0.8c0.2,0,0.4,0,0.5,0c2.2,0,4.3-0.9,5.9-2.4l4.1-4.1l4.1,4.1c0.1,0.1,0.1,0.1,0.2,0.2
		c1.6,1.5,3.6,2.3,5.8,2.3c0.2,0,0.3,0,0.5,0c1.1-0.1,2.2-0.3,3.2-0.8c2.7-1.3,4.4-4,4.6-6.9c0-0.2,0-0.4,0-0.5
		c0-0.5-0.1-1.1-0.2-1.6l-0.1-0.3l0.3,0.1C143.1,99.4,143.8,99.4,144.5,99.4z M129.9,57.1c1.1-1.1,2.5-1.7,4.1-1.7
		c0.5,0,1.1,0.1,1.6,0.2c1.9,0.5,3.4,2.1,3.9,3.9c0.2,0.5,0.2,1.1,0.2,1.6c0,1.5-0.6,3-1.7,4.1l-4.2,4.2l-8.2-8.2L129.9,57.1z
		 M100,75.3c-1.1-1.1-1.7-2.6-1.7-4.1c0-0.5,0.1-1.1,0.2-1.6c0.7-2.5,3-4.2,5.6-4.2c1.5,0,3,0.6,4.1,1.7l4.1,4.1l-8.2,8.2H104
		l-0.1-0.1L100,75.3z M108.1,95.2c-1.1,1.1-2.5,1.7-4.1,1.7c-0.5,0-1.1-0.1-1.6-0.2c-2.5-0.7-4.2-3-4.2-5.6c0-0.1,0-0.2,0-0.3
		C98.4,89.3,99,88,100,87l4.1-4.1l5.8,5.8l1.8-1.8l-1.7-1.7c0,0,0,0-0.1-0.1l-4.1-4.1l3.5-3.5c0.5-0.4,0.9-0.8,1.2-1.2l11.1-11.1
		l-1.8-1.8l-5.8,5.9l-4.1-4.1c-1.1-1.1-1.7-2.5-1.7-4.1c0-0.5,0.1-1.1,0.2-1.6c0.5-1.9,2.1-3.4,3.9-3.9c0.5-0.2,1.1-0.2,1.6-0.2
		c1.5,0,3,0.6,4.1,1.7l14,14l-8.2,8.2l-5.9-5.9l-1.7,1.8l5.8,5.8L108.1,95.2z M140.2,95.5c-0.1-0.1-0.2-0.2-0.3-0.3
		c0,0-0.1-0.1-0.1-0.1l-0.1-0.1l-11.6-11.6l-1.8,1.8l5.9,5.9l-5.9,5.9l1.8,1.8l5.9-5.9l4.1,4.1c0,0,0,0,0.1,0c0,0,0,0,0.1,0.1
		c1.1,1.1,1.6,2.5,1.6,4.1c0,2.6-1.7,4.9-4.2,5.6c-0.5,0.1-1.1,0.2-1.6,0.2c-1.6,0-3-0.6-4.1-1.7l-4.5-4.5h-0.1l0-0.1l-4.9-4.8
		c-0.4-0.4-0.7-0.8-1.2-1.2h0l-0.1-0.1l-1.2-1.2l-1.8,1.8l5.9,5.9l-4,4c-0.1,0.1-0.1,0.1-0.2,0.2l0,0c-1.1,1-2.5,1.6-4,1.6
		c-0.5,0-1.1-0.1-1.6-0.2c-1.9-0.5-3.5-2.1-4-4c-0.1-0.5-0.2-1.1-0.2-1.6c0-1.6,0.6-3,1.7-4.1l23.9-24h0.2l0.1,0.1l5.8,5.8l1.8-1.8
		l-5.8-5.8v-0.2l0.1-0.1l4.1-4.1c1.1-1,2.5-1.6,4-1.6c0.5,0,1.1,0.1,1.6,0.2c2.5,0.7,4.2,3,4.2,5.6c0,0.5-0.1,0.9-0.2,1.3
		c-0.2,1-0.7,1.9-1.5,2.7c0,0-0.1,0.1-0.1,0.1l0,0L136.3,87l1.8,1.8l5.9-5.9l4.2,4.2c1.1,1.1,1.7,2.5,1.7,4.1c0,3.2-2.6,5.8-5.8,5.8
		C142.6,96.9,141.2,96.4,140.2,95.5z"/>
	<g>
		<path class="st0" d="M0,149.1V132h7.4c1.9,0,3.4,0.4,4.4,1.1c1.1,0.8,1.6,1.8,1.6,3.3c0,0.9-0.2,1.7-0.6,2.3
			c-0.4,0.6-1,1.1-1.8,1.4c-0.7,0.3-1.6,0.5-2.4,0.5l0.4-0.6c1.1,0,2,0.2,2.8,0.5c0.8,0.3,1.4,0.8,1.8,1.5c0.4,0.7,0.7,1.5,0.7,2.5
			c0,1.4-0.5,2.6-1.6,3.4c-1.1,0.8-2.7,1.2-4.8,1.2H0z M1.8,147.6h6c1.5,0,2.6-0.3,3.4-0.8c0.8-0.5,1.2-1.3,1.2-2.5
			c0-1.1-0.4-1.9-1.2-2.4c-0.8-0.5-1.9-0.8-3.4-0.8H1.6v-1.5h5.6c1.4,0,2.4-0.3,3.2-0.8c0.8-0.5,1.1-1.3,1.1-2.3
			c0-1-0.4-1.8-1.1-2.3c-0.8-0.5-1.8-0.8-3.2-0.8H1.8V147.6z"/>
		<path class="st0" d="M19.5,149.1l7.8-17.1h1.8l7.8,17.1H35L27.9,133h0.7l-7.2,16.1H19.5z M22.6,144.5l0.5-1.5h9.9l0.5,1.5H22.6z
			 M26.7,130.6l3.3-3h2.3l-4,3H26.7z"/>
		<path class="st0" d="M43.6,149.1V132H50c1.4,0,2.7,0.2,3.7,0.7c1,0.5,1.8,1.1,2.4,2c0.6,0.9,0.8,1.9,0.8,3.2
			c0,1.2-0.3,2.2-0.8,3.1c-0.6,0.9-1.4,1.5-2.4,2c-1,0.5-2.3,0.7-3.7,0.7h-5.4l0.8-0.8v6.3H43.6z M45.4,143l-0.8-0.9H50
			c1.7,0,3-0.4,3.9-1.1c0.9-0.7,1.3-1.8,1.3-3.2c0-1.4-0.4-2.4-1.3-3.2c-0.9-0.7-2.2-1.1-3.9-1.1h-5.4l0.8-0.9V143z M55.3,149.1
			l-4.4-6.2h2l4.4,6.2H55.3z"/>
		<path class="st0" d="M65.1,149.1V132h7.4c1.9,0,3.4,0.4,4.4,1.1c1.1,0.8,1.6,1.8,1.6,3.3c0,0.9-0.2,1.7-0.6,2.3
			c-0.4,0.6-1,1.1-1.8,1.4c-0.7,0.3-1.6,0.5-2.4,0.5l0.4-0.6c1.1,0,2,0.2,2.8,0.5c0.8,0.3,1.4,0.8,1.8,1.5c0.4,0.7,0.7,1.5,0.7,2.5
			c0,1.4-0.5,2.6-1.6,3.4c-1.1,0.8-2.7,1.2-4.8,1.2H65.1z M66.9,147.6h6c1.5,0,2.6-0.3,3.4-0.8c0.8-0.5,1.2-1.3,1.2-2.5
			c0-1.1-0.4-1.9-1.2-2.4c-0.8-0.5-1.9-0.8-3.4-0.8h-6.2v-1.5h5.6c1.4,0,2.4-0.3,3.2-0.8c0.8-0.5,1.1-1.3,1.1-2.3
			c0-1-0.4-1.8-1.1-2.3c-0.8-0.5-1.8-0.8-3.2-0.8h-5.4V147.6z"/>
		<path class="st0" d="M84.6,149.1l7.8-17.1h1.8l7.8,17.1h-1.9L93,133h0.7l-7.2,16.1H84.6z M87.7,144.5l0.5-1.5h9.9l0.5,1.5H87.7z"
			/>
		<path class="st0" d="M108.7,149.1V132h6.4c1.4,0,2.7,0.2,3.7,0.7c1,0.5,1.8,1.1,2.4,2c0.6,0.9,0.8,1.9,0.8,3.2
			c0,1.2-0.3,2.2-0.8,3.1c-0.6,0.9-1.4,1.5-2.4,2c-1,0.5-2.3,0.7-3.7,0.7h-5.4l0.8-0.8v6.3H108.7z M110.6,143l-0.8-0.9h5.4
			c1.7,0,3-0.4,3.9-1.1c0.9-0.7,1.3-1.8,1.3-3.2c0-1.4-0.4-2.4-1.3-3.2c-0.9-0.7-2.2-1.1-3.9-1.1h-5.4l0.8-0.9V143z M120.4,149.1
			l-4.4-6.2h2l4.4,6.2H120.4z"/>
		<path class="st0" d="M127.5,149.1l7.8-17.1h1.8l7.8,17.1H143l-7.2-16.1h0.7l-7.2,16.1H127.5z M130.6,144.5l0.5-1.5h9.9l0.5,1.5
			H130.6z"/>
		<path class="st0" d="M159.1,149.1l7.8-17.1h1.8l7.8,17.1h-1.9l-7.2-16.1h0.7l-7.2,16.1H159.1z M162.2,144.5l0.5-1.5h9.9l0.5,1.5
			H162.2z"/>
		<path class="st0" d="M183.2,149.1V132h1.8v17.1H183.2z"/>
		<path class="st0" d="M194.4,149.1V132h6.4c1.4,0,2.7,0.2,3.7,0.7c1,0.5,1.8,1.1,2.4,2c0.6,0.9,0.8,1.9,0.8,3.2
			c0,1.2-0.3,2.2-0.8,3.1c-0.6,0.9-1.4,1.5-2.4,2c-1,0.5-2.3,0.7-3.7,0.7h-5.4l0.8-0.8v6.3H194.4z M196.2,143l-0.8-0.9h5.4
			c1.7,0,3-0.4,3.9-1.1c0.9-0.7,1.3-1.8,1.3-3.2c0-1.4-0.4-2.4-1.3-3.2c-0.9-0.7-2.2-1.1-3.9-1.1h-5.4l0.8-0.9V143z M206.1,149.1
			l-4.4-6.2h2l4.4,6.2H206.1z"/>
		<path class="st0" d="M217.7,147.5H228v1.6h-12.1V132h11.7v1.6h-9.9V147.5z M217.5,139.6h9v1.5h-9V139.6z"/>
		<path class="st0" d="M240.8,149.2c-1.3,0-2.5-0.2-3.7-0.6c-1.2-0.4-2.1-0.9-2.7-1.6l0.7-1.4c0.6,0.6,1.4,1.1,2.4,1.5
			c1,0.4,2.1,0.6,3.2,0.6c1.1,0,2-0.1,2.6-0.4s1.2-0.6,1.5-1.1c0.3-0.5,0.5-1,0.5-1.5c0-0.7-0.2-1.2-0.6-1.6c-0.4-0.4-0.9-0.7-1.5-1
			c-0.6-0.2-1.3-0.4-2.1-0.6c-0.8-0.2-1.5-0.4-2.2-0.6c-0.7-0.2-1.4-0.5-2.1-0.8c-0.6-0.3-1.1-0.8-1.5-1.4c-0.4-0.6-0.6-1.3-0.6-2.2
			c0-0.8,0.2-1.6,0.7-2.3s1.1-1.3,2.1-1.7c0.9-0.4,2.1-0.6,3.6-0.6c1,0,1.9,0.1,2.9,0.4c0.9,0.3,1.8,0.6,2.4,1.1l-0.6,1.4
			c-0.7-0.5-1.5-0.8-2.3-1.1s-1.6-0.3-2.4-0.3c-1,0-1.9,0.1-2.5,0.4c-0.7,0.3-1.2,0.6-1.5,1.1c-0.3,0.5-0.5,1-0.5,1.6
			c0,0.7,0.2,1.2,0.6,1.6c0.4,0.4,0.9,0.7,1.5,1c0.6,0.2,1.3,0.4,2.1,0.6c0.7,0.2,1.5,0.4,2.2,0.6c0.7,0.2,1.4,0.5,2.1,0.8
			c0.6,0.3,1.1,0.8,1.5,1.3c0.4,0.6,0.6,1.3,0.6,2.2c0,0.8-0.2,1.6-0.7,2.3c-0.5,0.7-1.2,1.3-2.1,1.7
			C243.5,149,242.3,149.2,240.8,149.2z"/>
	</g>
</g>
</svg>
