<?xml version="1.0" encoding="utf-8"?>
<!-- Generator: Adobe Illustrator 25.2.1, SVG Export Plug-In . SVG Version: 6.00 Build 0)  -->
<svg version="1.1" id="Camada_1" xmlns="http://www.w3.org/2000/svg" xmlns:xlink="http://www.w3.org/1999/xlink" x="0px" y="0px"
	 viewBox="0 0 253.8 187.2" style="enable-background:new 0 0 253.8 187.2;" xml:space="preserve">
<style type="text/css">
	.st0{fill:#663061;}
	.st1{fill:#C49DC9;}
	.st2{fill:#652D60;}
	.st3{fill:#C19AC5;}
	.st4{fill:#63245E;}
	.st5{fill:#64275F;}
	.st6{fill:#A57DA6;}
	.st7{fill:#580C52;}
	.st8{fill:#E3D5E5;}
	.st9{fill:#F7F4F8;}
	.st10{fill:#EAE3EA;}
</style>
<g>
	<path class="st0" d="M211.1,105.1c-3.6-2.7-7.9-4.5-12.4-7c16.6-10.1,23.5-24.4,18.7-42.8c-4.7-18.5-19.3-25.3-36.7-28.1
		c-13.5-2.2-27.1-1.6-40.6-0.5c-4.8,0.4-12.4-3-13.6,6.2c-0.2,1.2-1.3,0.4-1.9,0.2c-13.7-3.8-24,3.5-34.4,10.4
		c-1.3,1.6-5,1.9-2.8,5.3c4,1.1,6.4-1.9,9.3-3.5c7.5-4.1,15.3-7.3,24.2-5.7c1.7,2.6-0.8,3.8-2,5.2c-3.5,3.9-7.4,7.5-11.2,11.2
		c-4.8,7.7-11,13.1-20.9,12.5c-4-0.2-4.8,2.3-3.9,5.7c5.8,6.3,6.1,13.5,3.8,21.3c-0.5,1.6,0,3.5-1.2,5.1c-3.3-5.3-7.9-9-11.9-13.3
		c-1-1.1-2.2-2.9-3.9-2.1c-2.2,1.1-1.1,3.2-0.6,4.9c1.7,6.3,7.7,9.3,11.3,14.1c3,4.1,4.4,8.1,1,12.9c-2.2,3.1-1.7,7.2-1.6,10.9
		c0.9,19,8.8,34.4,24.8,44.9c22.1,14.6,46.4,17,71.9,11.7c17.2-3.6,32.3-10.6,42-26.2C229.8,140.3,226.5,116.5,211.1,105.1z
		 M149.3,69.1c0.1,0,0.1,0,0.2,0c0-5.6-0.1-11.1,0-16.7c0.3-10.4,2.1-12.2,12.6-13.2c19-1.9,31.5,5.4,35.3,20.7
		c3.3,13.1-3.1,26.1-15.7,31c-8.2,3.2-17,3.9-25.8,4.2c-4.8,0.2-6.6-2.4-6.6-6.9C149.3,81.8,149.3,75.4,149.3,69.1z M197.5,153.1
		c-8,12.1-20.1,18.2-33.9,20.3c-26.8,4.2-50.8-1.3-68.7-23.5c-4.4-5.5-6.8-12-7.8-18.9c-0.4-2.9-1.5-7,4.6-4.9
		c4.8,1.7,7.6-1.6,9.1-5.6c1.7-4.4,0-8.7-4-10c-6.9-2.1-5.8-6.5-4.4-11.1c1.9-6.1,3.6-12.2,2.8-18.7c-0.3-2.8,0.9-3.6,3.5-3.9
		c4.6-0.6,7.7-3.5,9.7-7.5c4.3-8.5,11.1-14.9,18.5-23.2c0,23.4,0,45.1,0,66.8c0,13.3,0.2,26.6,0,39.9c-0.1,5.5,2.4,6.3,6.9,5.4
		c13.6-2.7,16.4-6.2,16-19.8c-0.3-9-0.2-18.1-0.5-27.1c-0.2-4.9,2.1-6.8,6.6-6.9c9.6-0.1,19.2,0.6,28.2,3.9
		C202.5,115.2,208.7,136.2,197.5,153.1z"/>
	<path class="st1" d="M86.9,48.4c7.6-3.4,14.1-9.2,22.6-10.5c4.8-0.8,9.6-2.3,14.2,0.7c-1.4,5.2-5.9,7.8-9.2,11.5
		c-1.9,2.1-4.4,3.8-5.2,6.7c-5.2,9.7-12.4,15.6-24.3,13.1c-1.7-0.4-0.7,2.1-1.3,3.1c6.1,6.8,4.4,15.1,4.6,23.1
		c0.4,3-0.7,5.7-2.3,9.1C82.8,96.6,74.5,93,69.8,85.2c-0.5,9.3,9,11.8,10.8,18.9c-6.2-2.7-10.5-7-12.3-13.6c-0.5-2.1-1-4.2-3.9-4.1
		c-8.3,3-16.7,5-25.6,5.2c-2-6,2.3-10,4.9-14.3c1.6-2.7,3.8-5,4.6-8.2c1.4-2.4,4.5-2.7,7.4-5.6c-12.5-3-13-12.1-12.6-21.9
		c0.2-4.3-1.5-8.3-2.2-12.5c-0.6-3.8-1.9-7.9,1.5-11.2c12.3,8.4,22.2,19,29.5,31.9c2.5,4.5,4.8,5.9,8.7,1.8
		C83.2,51.4,84.3,48.4,86.9,48.4z"/>
	<path class="st2" d="M39.1,91.4c7.8-4.3,17.6-1.5,25-7.2c0.1,0.7,0.2,1.5,0.3,2.2c-9.9,6-21.8,7.5-31.6,13.7
		c-1.5,1-3.1,0.5-4.4-0.6c-1.8-1.5-1.3-3.7-0.3-5.1c5.7-7.7,7.1-17.6,12.6-25.3c0.8-1.4,1.8-3.2,0.6-4.4c-5.1-5.6-4.1-12.4-3.8-18.9
		c0.2-7-1.3-13.6-2.6-20.3c-0.6-3.1-1.4-6.3,1.2-8.9c2.1-4.8,5.6-6.5,10.8-5.3C58,13.8,70.1,28.2,71.1,42
		c-5.3-10.3-11-18.4-19.5-23.8c-2.7-1.7-5.9-5.6-9.1-0.4c-0.5,12.2,3.9,23.9,3.4,36.2c-0.2,4.2,4.9,4.9,8.2,6.4
		c2.2,1,5.9,0.5,5.7,4.3c-0.2,3.4-3.5,2.5-5.6,3c-2.1,0.6-4.1,1.2-5.5,3c-3.1,5.6-7.9,10.3-9.7,16.7C38.6,88.7,37.4,90.1,39.1,91.4z
		"/>
	<path class="st3" d="M36.2,16.5c0.7,12.6,4,25.1,2.7,37.9c-0.3,2.7,0.8,5.4,3,7.1c4.5,3.4,2,5.5-1.1,7.6
		c-4.9-6.9-5.5-14.7-4.9-22.7c0.4-6.7-1.1-13.1-2.5-19.6C32.5,23,30.8,18.7,36.2,16.5z"/>
	<path class="st4" d="M77.2,26.1c-1.4-5.3-2.9-10.6-4.3-15.9c-0.6-2.3-2.1-4.3-4.4-3.4C65,8.2,70.4,8.2,69.3,10
		c-0.9,1.4-1.9,1.6-3.2,1.7c-2.3,0.1-4.2-0.6-4.7-3.2c-0.5-2.8,0-5.2,2.6-6.9c3.1-1.9,5.7-0.8,7.8,1.5c5.2,5.5,6.4,12.5,6.8,19.7
		C77.9,23.7,78.6,25.4,77.2,26.1z"/>
	<path class="st5" d="M116.9,17.3c-12.8,5-26,9.2-32.6,22.9C85.7,27.9,102.8,15.7,116.9,17.3z"/>
	<path class="st6" d="M86.9,48.4c-1.7,1.9-2.4,5.9-6.3,3c3-2.9,5-7,9.6-7.9C89.1,45.1,88,46.8,86.9,48.4z"/>
	<path class="st7" d="M77.2,26.1c0.5-1.1,0.9-2.3,1.4-3.4c0,5.7,0,11.5,0,17.2c-0.5,0-0.9,0-1.4,0.1C77.2,35.4,77.2,30.8,77.2,26.1z
		"/>
	<path class="st8" d="M88.5,96.1C85.7,88.6,88,80.2,83.8,73C91.8,79.4,91.4,87.5,88.5,96.1z"/>
	<path class="st9" d="M109.4,56.8c1.7-8.6,10.3-11.6,14.4-18.2C123.1,47.9,114.5,51,109.4,56.8z"/>
	<path class="st10" d="M39.1,91.4c-1.6,1.1-4.7,3.5-2.7-1.2c3-7.1,5.5-14.8,12.3-19.6c2.8,2.4,0.1,3.7-1.1,5
		C43.4,80.2,40.6,85.5,39.1,91.4z"/>
</g>
</svg>
