<?xml version="1.0" encoding="utf-8"?>
<!-- Generator: Adobe Illustrator 25.2.1, SVG Export Plug-In . SVG Version: 6.00 Build 0)  -->
<svg version="1.1" id="Camada_1" xmlns="http://www.w3.org/2000/svg" xmlns:xlink="http://www.w3.org/1999/xlink" x="0px" y="0px"
	 viewBox="0 0 247.2 202.1" style="enable-background:new 0 0 247.2 202.1;" xml:space="preserve">
<g>
	<g>
		<path d="M93.6,75.6c9,0,16.1,6.9,16.1,15.7c0,8.8-7.1,15.8-16.1,15.8c-8.9,0-16.1-7-16.1-15.8C77.5,82.5,84.5,75.6,93.6,75.6z
			 M93.6,102.5c6,0,11-5.1,11-11.2c0-6.2-4.9-11.2-10.9-11.2c-6,0-10.9,5-11,11.2C82.6,97.4,87.6,102.5,93.6,102.5z"/>
		<path d="M38.9,75.6c9,0,16,6.9,16,15.7c0,8.7-7.2,15.8-16.1,15.8c-8.9,0-16-7-16.1-15.7C22.7,82.5,29.8,75.6,38.9,75.6z
			 M27.9,91.4c0,6.2,4.9,11.1,11,11.1c6.1,0,10.9-5.1,10.8-11.4c0-6-5-11-10.8-11C32.8,80.1,27.9,85.2,27.9,91.4z"/>
		<path d="M14.1,90.4c3.8,1.6,5.3,4,5.1,8c-0.2,3.5-2.3,6.5-5.3,7.4c-0.6,0.2-1.3,0.4-2,0.4c-3.9,0-7.9,0-11.9,0
			c0-9.9,0-19.8,0-30.1c4.2,0.2,8.3,0.1,12.4,0.6c2.9,0.3,4.9,2.9,5.4,5.9c0.5,3.6-0.4,5.8-3.3,7.5C14.3,90.2,14.2,90.2,14.1,90.4z
			 M4.8,102.3c2-0.1,3.9-0.2,5.7-0.4c1.9-0.3,3.3-1.9,3.5-3.8c0.2-2.3-0.7-4.4-2.6-4.9c-2.1-0.5-4.3-0.5-6.6-0.8
			C4.8,96,4.8,99,4.8,102.3z M4.9,89c1.9-0.2,3.7-0.2,5.5-0.6c1.8-0.4,2.6-1.7,2.6-3.7c0-2.2-0.8-3.5-2.6-3.9
			c-1.7-0.3-3.5-0.4-5.4-0.6C4.9,83.3,4.9,86,4.9,89z"/>
		<path d="M203.9,107.5c-7.5-7.2-14.8-14.3-22.1-21.4c0,6.6,0,13.2,0,20c-1.6,0-3,0-4.6,0c0-10.3,0-20.5,0-31.1
			c7.5,7.3,14.8,14.4,22.2,21.5c0-6.7,0-13.5,0-20.2c1.6,0,3,0,4.5,0C203.9,86.6,203.9,96.9,203.9,107.5z"/>
		<path d="M139.4,83.4c-8.5-4.5-14.1-4.3-18,0.8c-3.2,4.1-3,10.9,0.4,14.8c4,4.6,9.6,4.6,17.6-0.2c0,1.8,0.1,3.4,0,5
			c0,0.4-0.5,0.8-0.9,1c-8.5,5.2-23.5,1.8-24.5-12.3c-0.4-6.4,1.9-11.6,7.5-14.8c5.7-3.3,11.5-3,17.2,0.3c0.7,0.4,1,0.9,0.9,1.7
			C139.5,80.9,139.5,82.1,139.4,83.4z"/>
		<path d="M247,83.6c-3.7-2.9-7.7-4.1-12.1-3.2c-2.5,0.5-4.6,1.9-6.1,3.9c-3.3,4.4-2.8,11.3,1,15.2c3.6,3.8,10.5,4.5,17.1-0.7
			c0,1.9,0,3.5,0,5.2c0,0.3-0.5,0.7-0.8,0.9c-5.7,3.1-11.5,3.2-17.1-0.1c-5.6-3.2-7.9-8.5-7.4-14.7c1.1-13.4,15.1-17.9,24.6-12.2
			c0.8,0.5,1.2,1,1.1,1.9C247,81,247,82.2,247,83.6z"/>
		<path d="M76.6,76.3c0,1.4,0,2.6,0,4.1c-2.6,0-5.1,0-7.8,0c0,8.7,0,17.2,0,25.8c-1.7,0-3.2,0-4.9,0c0-8.5,0-17,0-25.7
			c-2.7,0-5.3,0-8,0c0-1.5,0-2.8,0-4.2C62.8,76.3,69.6,76.3,76.6,76.3z"/>
		<path d="M161.1,101.9c0,1.6,0,2.9,0,4.3c-5.2,0-10.4,0-15.7,0c0-9.9,0-19.9,0-29.9c1.6,0,3.1,0,4.8,0c0,8.5,0,16.9,0,25.5
			C153.9,101.9,157.4,101.9,161.1,101.9z"/>
		<path d="M170.1,106.2c-1.6,0-3.2,0-4.8,0c0-10,0-19.9,0-29.9c1.6,0,3.2,0,4.8,0C170.1,86.3,170.1,96.2,170.1,106.2z"/>
		<path d="M211,76.3c1.6,0,3.2,0,4.8,0c0,10,0,19.9,0,29.9c-1.6,0-3.1,0-4.8,0C211,96.3,211,86.4,211,76.3z"/>
	</g>
	<g>
		<path d="M47.7,124.4c-0.6,0-1.2-0.1-1.7-0.2c-0.5-0.2-1-0.3-1.3-0.6l0.6-1.3c0.3,0.2,0.7,0.4,1.2,0.5c0.4,0.1,0.9,0.2,1.4,0.2
			c0.5,0,0.9-0.1,1.1-0.2c0.2-0.1,0.4-0.3,0.4-0.6c0-0.2-0.1-0.3-0.2-0.4c-0.2-0.1-0.4-0.2-0.6-0.2c-0.3-0.1-0.5-0.1-0.9-0.1
			c-0.3,0-0.6-0.1-1-0.2c-0.3-0.1-0.6-0.2-0.9-0.3c-0.3-0.1-0.5-0.3-0.6-0.6c-0.2-0.3-0.2-0.6-0.2-1c0-0.4,0.1-0.8,0.4-1.2
			c0.3-0.3,0.6-0.6,1.1-0.8c0.5-0.2,1-0.3,1.7-0.3c0.5,0,1,0.1,1.5,0.2c0.5,0.1,0.9,0.3,1.2,0.5l-0.7,1.3c-0.3-0.2-0.7-0.3-1-0.4
			c-0.3-0.1-0.7-0.1-1-0.1c-0.5,0-0.9,0.1-1.1,0.2c-0.3,0.1-0.4,0.3-0.4,0.6c0,0.2,0.1,0.4,0.2,0.5c0.2,0.1,0.4,0.2,0.6,0.2
			c0.3,0.1,0.5,0.1,0.9,0.2c0.3,0,0.6,0.1,0.9,0.2c0.3,0.1,0.6,0.2,0.9,0.3c0.3,0.1,0.5,0.3,0.6,0.6c0.2,0.3,0.2,0.6,0.2,1
			c0,0.5-0.1,0.8-0.4,1.2c-0.3,0.3-0.6,0.6-1.1,0.8S48.4,124.4,47.7,124.4z"/>
		<path d="M59.2,117.1c0.6,0,1.1,0.1,1.5,0.3c0.4,0.2,0.8,0.6,1.1,1c0.3,0.5,0.4,1.1,0.4,1.8v4.1h-1.7v-3.9c0-0.6-0.1-1.1-0.4-1.4
			c-0.3-0.3-0.7-0.5-1.3-0.5c-0.4,0-0.7,0.1-1,0.2c-0.3,0.2-0.5,0.4-0.7,0.7c-0.2,0.3-0.2,0.7-0.2,1.2v3.6h-1.7v-10h1.7v4.7
			l-0.3-0.6c0.2-0.5,0.6-0.8,1.1-1.1C58,117.2,58.6,117.1,59.2,117.1z"/>
		<path d="M70.2,124.4c-0.7,0-1.4-0.2-2-0.5c-0.6-0.3-1-0.8-1.4-1.3c-0.3-0.6-0.5-1.2-0.5-1.9c0-0.7,0.2-1.4,0.5-1.9
			c0.3-0.5,0.8-1,1.4-1.3c0.6-0.3,1.2-0.5,2-0.5c0.7,0,1.4,0.2,2,0.5c0.6,0.3,1,0.7,1.4,1.3c0.3,0.5,0.5,1.2,0.5,1.9
			c0,0.7-0.2,1.3-0.5,1.9c-0.3,0.6-0.8,1-1.4,1.3C71.6,124.3,71,124.4,70.2,124.4z M70.2,123c0.4,0,0.8-0.1,1.1-0.3
			c0.3-0.2,0.6-0.4,0.8-0.8c0.2-0.3,0.3-0.7,0.3-1.2c0-0.5-0.1-0.9-0.3-1.2c-0.2-0.3-0.4-0.6-0.8-0.8c-0.3-0.2-0.7-0.3-1.1-0.3
			c-0.4,0-0.8,0.1-1.1,0.3c-0.3,0.2-0.6,0.4-0.8,0.8c-0.2,0.3-0.3,0.7-0.3,1.2c0,0.4,0.1,0.8,0.3,1.2s0.4,0.6,0.8,0.8
			C69.5,122.9,69.8,123,70.2,123z"/>
		<path d="M78.4,127v-9.8h1.6v1.7l-0.1,1.9l0.1,1.9v4.3H78.4z M82.3,124.4c-0.6,0-1.1-0.1-1.6-0.4c-0.5-0.3-0.8-0.7-1.1-1.2
			s-0.4-1.2-0.4-2.1c0-0.8,0.1-1.5,0.4-2.1c0.3-0.5,0.6-0.9,1.1-1.2c0.5-0.3,1-0.4,1.6-0.4c0.7,0,1.3,0.2,1.9,0.5
			c0.5,0.3,1,0.7,1.3,1.3c0.3,0.6,0.5,1.2,0.5,1.9c0,0.7-0.2,1.4-0.5,1.9c-0.3,0.6-0.7,1-1.3,1.3C83.6,124.3,83,124.4,82.3,124.4z
			 M82.1,123c0.4,0,0.8-0.1,1.1-0.3c0.3-0.2,0.6-0.5,0.8-0.8c0.2-0.3,0.3-0.7,0.3-1.2c0-0.5-0.1-0.9-0.3-1.2
			c-0.2-0.3-0.4-0.6-0.8-0.8c-0.3-0.2-0.7-0.3-1.1-0.3c-0.4,0-0.8,0.1-1.1,0.3c-0.3,0.2-0.6,0.4-0.8,0.8c-0.2,0.3-0.3,0.7-0.3,1.2
			c0,0.4,0.1,0.8,0.3,1.2c0.2,0.3,0.4,0.6,0.8,0.8C81.4,122.9,81.7,123,82.1,123z"/>
		<path d="M90.2,127v-9.8h1.6v1.7l-0.1,1.9l0.1,1.9v4.3H90.2z M94.2,124.4c-0.6,0-1.1-0.1-1.6-0.4c-0.5-0.3-0.8-0.7-1.1-1.2
			s-0.4-1.2-0.4-2.1c0-0.8,0.1-1.5,0.4-2.1c0.3-0.5,0.6-0.9,1.1-1.2c0.5-0.3,1-0.4,1.6-0.4c0.7,0,1.3,0.2,1.9,0.5
			c0.5,0.3,1,0.7,1.3,1.3c0.3,0.6,0.5,1.2,0.5,1.9c0,0.7-0.2,1.4-0.5,1.9c-0.3,0.6-0.7,1-1.3,1.3C95.5,124.3,94.9,124.4,94.2,124.4z
			 M94,123c0.4,0,0.8-0.1,1.1-0.3c0.3-0.2,0.6-0.5,0.8-0.8c0.2-0.3,0.3-0.7,0.3-1.2c0-0.5-0.1-0.9-0.3-1.2c-0.2-0.3-0.4-0.6-0.8-0.8
			c-0.3-0.2-0.7-0.3-1.1-0.3c-0.4,0-0.8,0.1-1.1,0.3c-0.3,0.2-0.6,0.4-0.8,0.8c-0.2,0.3-0.3,0.7-0.3,1.2c0,0.4,0.1,0.8,0.3,1.2
			c0.2,0.3,0.4,0.6,0.8,0.8C93.2,122.9,93.6,123,94,123z"/>
		<path d="M103,116c-0.3,0-0.6-0.1-0.8-0.3c-0.2-0.2-0.3-0.4-0.3-0.7c0-0.3,0.1-0.5,0.3-0.7c0.2-0.2,0.5-0.3,0.8-0.3
			s0.6,0.1,0.8,0.3c0.2,0.2,0.3,0.4,0.3,0.7c0,0.3-0.1,0.5-0.3,0.7C103.5,115.9,103.3,116,103,116z M102.1,124.4v-7.2h1.7v7.2H102.1
			z"/>
		<path d="M112.7,117.1c0.6,0,1.1,0.1,1.5,0.3c0.4,0.2,0.8,0.6,1.1,1c0.3,0.5,0.4,1.1,0.4,1.8v4.1h-1.7v-3.9c0-0.6-0.1-1.1-0.4-1.4
			c-0.3-0.3-0.7-0.5-1.3-0.5c-0.4,0-0.7,0.1-1,0.2c-0.3,0.2-0.5,0.4-0.7,0.7c-0.2,0.3-0.2,0.7-0.2,1.2v3.6h-1.7v-7.2h1.6v1.9
			l-0.3-0.6c0.2-0.5,0.6-0.8,1.1-1.1C111.6,117.2,112.1,117.1,112.7,117.1z"/>
		<path d="M123.6,124c-0.7,0-1.3-0.1-1.9-0.4c-0.5-0.3-1-0.7-1.3-1.2c-0.3-0.5-0.5-1.1-0.5-1.8c0-0.7,0.2-1.3,0.5-1.8
			c0.3-0.5,0.7-0.9,1.3-1.2c0.5-0.3,1.2-0.4,1.9-0.4c0.6,0,1.2,0.1,1.6,0.4c0.5,0.2,0.9,0.6,1.2,1.1c0.3,0.5,0.4,1.2,0.4,2
			c0,0.8-0.1,1.4-0.4,1.9c-0.3,0.5-0.7,0.9-1.2,1.1C124.7,123.9,124.2,124,123.6,124z M123.8,127.1c-0.7,0-1.3-0.1-1.9-0.3
			c-0.6-0.2-1.1-0.4-1.5-0.8l0.8-1.2c0.3,0.3,0.7,0.5,1.2,0.6c0.5,0.2,1,0.2,1.5,0.2c0.8,0,1.4-0.2,1.7-0.5c0.4-0.4,0.6-0.9,0.6-1.6
			v-1.3l0.1-1.6l-0.1-1.6v-1.8h1.6v6.1c0,1.3-0.3,2.3-1,2.9C126,126.7,125.1,127.1,123.8,127.1z M123.8,122.6c0.4,0,0.8-0.1,1.1-0.3
			c0.3-0.2,0.6-0.4,0.8-0.7c0.2-0.3,0.3-0.7,0.3-1.1c0-0.4-0.1-0.8-0.3-1.1c-0.2-0.3-0.4-0.5-0.8-0.7c-0.3-0.2-0.7-0.3-1.1-0.3
			c-0.4,0-0.8,0.1-1.1,0.3c-0.3,0.2-0.6,0.4-0.8,0.7c-0.2,0.3-0.3,0.7-0.3,1.1c0,0.4,0.1,0.7,0.3,1.1c0.2,0.3,0.4,0.5,0.8,0.7
			C123,122.5,123.4,122.6,123.8,122.6z"/>
		<path d="M142,124.4c-0.7,0-1.3-0.2-1.9-0.5c-0.6-0.3-1-0.7-1.3-1.3c-0.3-0.5-0.5-1.2-0.5-1.9c0-0.7,0.2-1.4,0.5-1.9
			c0.3-0.6,0.7-1,1.3-1.3c0.6-0.3,1.2-0.5,1.9-0.5c0.6,0,1.1,0.1,1.6,0.4c0.5,0.3,0.8,0.7,1.1,1.2c0.3,0.5,0.4,1.2,0.4,2.1
			c0,0.8-0.1,1.5-0.4,2.1c-0.3,0.5-0.6,1-1.1,1.2C143.1,124.3,142.6,124.4,142,124.4z M142.2,123c0.4,0,0.8-0.1,1.1-0.3
			c0.3-0.2,0.6-0.4,0.8-0.8c0.2-0.3,0.3-0.7,0.3-1.2c0-0.5-0.1-0.9-0.3-1.2c-0.2-0.3-0.4-0.6-0.8-0.8c-0.3-0.2-0.7-0.3-1.1-0.3
			s-0.8,0.1-1.1,0.3c-0.3,0.2-0.6,0.4-0.8,0.8c-0.2,0.3-0.3,0.7-0.3,1.2c0,0.4,0.1,0.8,0.3,1.2c0.2,0.3,0.4,0.6,0.8,0.8
			C141.4,122.9,141.8,123,142.2,123z M144.4,124.4v-1.7l0-1.9l-0.1-1.9v-4.5h1.7v10H144.4z"/>
		<path d="M153,124.4c-0.5,0-1-0.1-1.4-0.3s-0.7-0.4-0.9-0.8c-0.2-0.3-0.3-0.7-0.3-1.1c0-0.4,0.1-0.8,0.3-1.1
			c0.2-0.3,0.5-0.6,0.9-0.8c0.4-0.2,1-0.3,1.7-0.3h2.1v1.1h-2c-0.6,0-0.9,0.1-1.1,0.3c-0.2,0.2-0.3,0.4-0.3,0.7
			c0,0.3,0.1,0.5,0.4,0.7c0.2,0.2,0.6,0.3,1,0.3c0.4,0,0.8-0.1,1.1-0.3c0.3-0.2,0.6-0.5,0.7-0.8l0.3,1c-0.2,0.4-0.4,0.7-0.9,1
			C154.2,124.3,153.6,124.4,153,124.4z M155.3,124.4v-1.5l-0.1-0.3v-2.5c0-0.5-0.1-0.9-0.4-1.1c-0.3-0.3-0.8-0.4-1.4-0.4
			c-0.4,0-0.8,0.1-1.2,0.2c-0.4,0.1-0.7,0.3-1,0.5l-0.7-1.2c0.4-0.3,0.9-0.5,1.4-0.7c0.5-0.2,1.1-0.2,1.7-0.2c1,0,1.9,0.3,2.4,0.8
			c0.6,0.5,0.8,1.3,0.8,2.3v4.2H155.3z"/>
		<path d="M168.9,116c-0.3,0-0.6-0.1-0.8-0.3c-0.2-0.2-0.3-0.4-0.3-0.7c0-0.3,0.1-0.5,0.3-0.7c0.2-0.2,0.5-0.3,0.8-0.3
			s0.6,0.1,0.8,0.3c0.2,0.2,0.3,0.4,0.3,0.7c0,0.3-0.1,0.5-0.3,0.7C169.5,115.9,169.2,116,168.9,116z M168.1,124.4v-7.2h1.7v7.2
			H168.1z"/>
		<path d="M174.6,124.4v-10h1.7v10H174.6z"/>
		<path d="M185.2,117.1c0.6,0,1.1,0.1,1.5,0.3c0.4,0.2,0.8,0.6,1.1,1c0.3,0.5,0.4,1.1,0.4,1.8v4.1h-1.7v-3.9c0-0.6-0.1-1.1-0.4-1.4
			c-0.3-0.3-0.7-0.5-1.3-0.5c-0.4,0-0.7,0.1-1,0.2c-0.3,0.2-0.5,0.4-0.7,0.7c-0.2,0.3-0.2,0.7-0.2,1.2v3.6h-1.7v-10h1.7v4.7
			l-0.3-0.6c0.2-0.5,0.6-0.8,1.1-1.1C184.1,117.2,184.6,117.1,185.2,117.1z"/>
		<path d="M195.2,124.4c-0.5,0-1-0.1-1.4-0.3s-0.7-0.4-0.9-0.8c-0.2-0.3-0.3-0.7-0.3-1.1c0-0.4,0.1-0.8,0.3-1.1
			c0.2-0.3,0.5-0.6,0.9-0.8c0.4-0.2,1-0.3,1.7-0.3h2.1v1.1h-2c-0.6,0-0.9,0.1-1.1,0.3c-0.2,0.2-0.3,0.4-0.3,0.7
			c0,0.3,0.1,0.5,0.4,0.7c0.2,0.2,0.6,0.3,1,0.3c0.4,0,0.8-0.1,1.1-0.3c0.3-0.2,0.6-0.5,0.7-0.8l0.3,1c-0.2,0.4-0.4,0.7-0.9,1
			C196.4,124.3,195.9,124.4,195.2,124.4z M197.5,124.4v-1.5l-0.1-0.3v-2.5c0-0.5-0.1-0.9-0.4-1.1c-0.3-0.3-0.8-0.4-1.4-0.4
			c-0.4,0-0.8,0.1-1.2,0.2c-0.4,0.1-0.7,0.3-1,0.5l-0.7-1.2c0.4-0.3,0.9-0.5,1.4-0.7c0.5-0.2,1.1-0.2,1.7-0.2c1,0,1.9,0.3,2.4,0.8
			c0.6,0.5,0.8,1.3,0.8,2.3v4.2H197.5z"/>
	</g>
</g>
</svg>
