<?xml version="1.0" encoding="utf-8"?>
<!-- Generator: Adobe Illustrator 25.2.1, SVG Export Plug-In . SVG Version: 6.00 Build 0)  -->
<svg version="1.1" id="Camada_1" xmlns="http://www.w3.org/2000/svg" xmlns:xlink="http://www.w3.org/1999/xlink" x="0px" y="0px"
	 viewBox="0 0 247.2 202.1" style="enable-background:new 0 0 247.2 202.1;" xml:space="preserve">
<style type="text/css">
	.st0{fill:#349BCD;}
	.st1{fill:#3FDE94;}
</style>
<g>
	<path class="st0" d="M146.3,85.2c-2.5,2.2-4.7,4.3-7,6.3c-3.7,3.3-7.6,6.6-11.4,10.1c-0.5,0.4-0.9,0.4-1.4,0
		c-10.6-9.4-21.4-18.7-31.1-29.1c-6.7-7.3-13-15-17-24.2c-1.8-4.1-2.9-8.2-3.2-12.6c-0.5-8.7,3.1-15.5,10.3-20.1
		c9.3-5.9,19.2-6.4,29-1.6c3.9,1.8,6.6,5.1,9.2,8.6c0.3,0.4,0.3,0.9,0.3,1.4c0,3,0,6.1,0,9.1c0,1-0.3,1.2-1.2,1.2
		c-6.1,0-12.2,0-18.3,0c-2.7,0-3.6,1-3.6,3.6c0,6.9,0,13.7,0,20.6c0,2.6,1.1,3.5,3.6,3.5c6.1,0,12.2,0,18.3,0c1.1,0,1.3,0.3,1.3,1.3
		c0,6.1,0,12.2,0,18.4c0,2.5,1.1,3.6,3.5,3.6C133.8,85.3,139.9,85.2,146.3,85.2z"/>
	<path class="st0" d="M167.9,62c-4.8,6.5-10.3,12.2-16.1,18c0-1.4,0-2.4,0-3.3c0-4.5,0-9,0-13.5c0-0.6-0.1-1.2,0.9-1.2
		C157.7,62,162.7,62,167.9,62z"/>
	<path class="st0" d="M229,180.3c0-3.1,0-6.2,0-9.4c0-0.7,0.1-1.2,1.1-1.2c5,0,10,0,15,0c0.7,0,1,0.2,1,1c-0.1,1.3,0.4,2.9-0.2,3.7
		c-0.6,0.9-2.4,0.2-3.5,0.3c-2.1,0-4.2,0-6.3,0c-0.7,0-1.2,0.2-1.1,1.1c0.1,2.7-0.3,2.1,2.1,2.2c2.2,0,4.5,0.1,6.9,0
		c1,0,1.3,0.3,1.2,1.3c-0.1,0.7-0.1,1.5,0,2.1c0.1,1.1-0.3,1.3-1.3,1.3c-2.6-0.1-5,0-7.6,0c-0.9,0-1.3,0.1-1.3,1.2
		c0.1,2.6-0.3,2.1,2.1,2.1c2.7,0,5.4,0,8,0c1,0,1.2,0.3,1.2,1.2c-0.1,0.9-0.1,1.8,0,2.7c0,0.7-0.1,1.2-1.1,1.1c-5,0-10.1,0-15.1,0
		c-0.7,0-1.1-0.2-1.1-1C229,186.7,229,183.5,229,180.3z"/>
	<path class="st0" d="M182.7,176.9c0-1.9,0-4,0-5.9c0-0.7,0.2-1.2,1.1-1.1c1.3,0.1,2.6,0.1,3.9,0c0.9,0,1.1,0.2,1.1,1.1
		c0,3.4,0,7,0,10.4c0,0.5,0,1.1,0.1,1.6c0.5,2.2,1.9,3.3,4.3,3.1c1.9-0.2,3.2-1.5,3.3-3.7c0.1-2.2,0-4.5,0-6.9c0-1.6,0-3.2,0-4.7
		c0-0.7,0.2-1,1-1c1.4,0,2.8,0,4.3,0c0.5,0,0.9,0.1,0.9,0.7c-0.1,4.1,0.1,8-0.1,12.1c-0.2,5.1-3.3,8.5-9.1,8.7
		c-3.1,0.1-6-0.3-8.2-2.8c-1.5-1.6-2.1-3.6-2.2-5.9C182.7,180.7,182.8,178.8,182.7,176.9L182.7,176.9z"/>
	<path class="st0" d="M148.6,169.5c2.7,0,5.2,0.6,7.5,2.1c0.6,0.4,1,0.7,0.3,1.5c-0.6,0.7-1.3,1.6-1.8,2.5c-0.4,0.6-0.7,0.7-1.4,0.3
		c-1.7-1.1-3.6-1.8-5.7-1.5c-0.7,0.1-1.4,0.3-1.5,1.2c-0.1,0.9,0.4,1.3,1.2,1.5c1.7,0.5,3.4,1,5.1,1.5c0.4,0.1,0.9,0.3,1.3,0.4
		c2.8,1.3,3.9,2.9,3.7,5.8c-0.1,2.9-1.5,4.8-4.2,5.8c-4.8,1.7-9.4,0.7-13.6-2.1c-0.5-0.4-0.6-0.7-0.1-1.2c0.1-0.1,0.2-0.2,0.2-0.3
		c0.7-0.9,1.3-2.1,2.2-2.6c1.1-0.5,1.8,0.9,2.8,1.3c1.6,0.5,3.2,1.1,5,0.9c0.7-0.1,1.5-0.3,1.6-1.2c0.1-1-0.5-1.3-1.2-1.5
		c-1.4-0.4-2.8-0.7-4.2-1.2c-0.9-0.3-1.8-0.5-2.7-1c-4.9-2.1-4-8.5-0.6-10.5C144.6,169.8,146.4,169.5,148.6,169.5z"/>
	<path class="st0" d="M11.9,169.4c3.6,0.1,6.5,1.2,8.7,3.7c0.4,0.5,0.4,0.9-0.1,1.2c-1,0.7-1.9,1.4-2.8,2.2c-0.6,0.5-1,0.6-1.6-0.1
		c-1.7-1.8-4-2.1-6-1.2s-3.1,3.2-2.9,5.9c0.2,2.4,1.6,4.2,3.7,4.7c2.1,0.5,3.9-0.1,5.4-1.7c0.5-0.6,1-0.6,1.5-0.1
		c0.7,0.6,1.5,1.2,2.4,1.7c1,0.5,1.1,1.1,0.3,1.9c-3.1,3.5-8.6,4.7-13.1,2.7c-4.3-1.9-7-6.6-6.3-11.1c0.7-5.2,4.2-9,9.1-9.7
		C11,169.5,11.6,169.4,11.9,169.4z"/>
	<path class="st0" d="M77.3,169.8c2.8,0,5.6,0,8.4,0c0.7,0,1.1,0.2,1.1,1.1c-0.1,1.1,0,2.1,0,3.2c0,0.7-0.2,1-1,1
		c-1.5,0-2.9,0-4.4,0c-0.9,0-1.1,0.2-1.1,1.1c0,4.5,0,9.1,0,13.6c0,1.1-0.3,1.4-1.4,1.3c-1.1-0.1-2.2-0.1-3.3,0
		c-1.1,0.1-1.3-0.3-1.3-1.3c0-4.5,0-8.9,0-13.4c0-1.1-0.2-1.5-1.3-1.4c-1.3,0.1-2.7,0-4,0c-0.7,0-1.1-0.3-1-1.1c0-1.1,0.1-2,0-3.1
		c-0.1-0.9,0.3-1.1,1.1-1.1C72,169.8,74.7,169.8,77.3,169.8z"/>
	<path class="st0" d="M93.9,163.1c1.5,0.1,2.7,0.5,3.9,1c1,0.3,1.8,0.4,2.6-0.6c0.6-1,1.6,0,2.5,0.2c0.7,0.1,0.3,0.7,0.2,1.2
		c-0.7,3-2.4,3.9-5.4,3.1c-0.7-0.2-1.5-0.4-2.2-0.6c-1-0.2-1.7-0.2-2.4,0.7c-0.7,1-1.6,0-2.4-0.1c-0.7-0.1-0.4-0.7-0.2-1.3
		C91.2,164.1,92.3,163,93.9,163.1z"/>
	<path class="st0" d="M198.9,165.1c-2.5,2.1-4.8,4.2-8.5,3c1-1.4,1.8-2.8,2.8-4.3c0.2-0.4,0.5-0.3,0.9-0.2
		C195.8,164.1,197.3,164.6,198.9,165.1z"/>
	<g>
		<path class="st1" d="M175.2,49.7c0-4,0-7.9,0-11.9c0-2.4-1.1-3.5-3.4-3.5c-6.2,0-12.4,0-18.6,0c-1,0-1.3-0.2-1.3-1.3
			c0-6.1,0-12.2,0-18.2c0-1.4-0.2-2.7-1.7-3.5c2.4-0.5,4.6-0.3,6.7,0c8.4,1.2,15.2,4.9,19.7,12.4c2.8,4.7,3.2,9.7,2.4,15
			c-0.5,3.6-1.7,7.2-3.2,10.5c-0.1,0.2-0.2,0.4-0.3,0.6C175.3,49.7,175.2,49.7,175.2,49.7z"/>
		<path class="st1" d="M112.4,145c0.6-2.5,1.3-4.6,1.8-6.7c1.5-5.6,3-11.1,4.4-16.7c0.2-0.9,0.5-1.2,1.5-1.2c2.5,0.1,4.9,0.1,7.3,0
			c1,0,1.3,0.2,1.3,1.2c0,3,0,6,0,9c0.1,8.6,0.1,17,0.2,25.6c0,1-0.2,1.4-1.3,1.3c-1.7-0.1-3.3-0.1-5,0c-1,0-1.2-0.2-1.3-1.2
			c-0.1-6.7-0.2-13.4-0.3-20.1c0-0.2,0-0.4-0.3-0.6c-0.4,1.8-1,3.6-1.4,5.5c-1,3.6-1.8,7.4-2.7,11.1c-0.2,0.9-0.5,1.3-1.5,1.2
			c-1.9-0.1-3.9-0.1-5.8,0c-1,0-1.3-0.2-1.6-1.2c-1.3-5.4-2.6-10.8-4-16.2c0-0.1-0.1-0.3-0.5-0.4c0,3.2,0,6.4,0,9.5
			c0,3.7-0.1,7.5-0.2,11.2c0,0.9-0.2,1.2-1.1,1.1c-1.7-0.1-3.4-0.1-5.1,0c-1.2,0.1-1.3-0.3-1.3-1.4c0.1-10.4,0.2-20.7,0.3-31.1
			c0-1.3,0-2.5,0-3.7c0-0.6,0.2-0.9,0.9-0.9c2.8,0,5.6,0,8.4,0c0.6,0,0.7,0.3,0.9,0.9c1.9,7.4,4,14.9,5.9,22.3
			C112,143.9,112.1,144.2,112.4,145z"/>
		<path class="st1" d="M11.8,120.3c3.2,0,6.3,0,9.5,0c0.9,0,1.2,0.2,1.1,1.1c-0.1,1.7-0.1,3.5,0,5.2c0,0.9-0.3,1.1-1.1,1.1
			c-3.6,0-7.4,0-11,0c-1.1,0-1.3,0.3-1.3,1.3c0.1,1.6,0.1,3.2,0,4.9c0,0.9,0.2,1.1,1.1,1.1c2.6,0,5,0,7.6,0c0.9,0,1.2,0.2,1.2,1.2
			c-0.1,1.7-0.1,3.4,0,5.1c0,0.9-0.2,1.1-1.1,1.1c-2.6,0-5,0-7.6,0c-1,0-1.2,0.3-1.2,1.2c0,4.3,0,8.5,0,12.7c0,1-0.3,1.3-1.2,1.2
			c-1.9-0.1-3.7,0-5.7,0c-0.7,0-1.2-0.1-1.2-1.1c0-11.7,0-23.2,0-34.9c0-0.9,0.3-1.1,1.2-1.1C5.4,120.3,8.6,120.3,11.8,120.3z"/>
		<path class="st1" d="M171,138.1c0.1-2.5-0.2-5.7,0.1-8.9c0.6-6.6,4.7-9,10.3-9.4c3.4-0.3,6.9,0.2,10.3,0.7
			c0.6,0.1,0.9,0.4,0.9,1.1c0,1.7-0.1,3.4,0,5.1c0,1.1-0.4,1.1-1.2,1c-2.5-0.4-4.9-0.9-7.5-0.7c-3.3,0.1-4.8,1.5-4.8,4.8
			c-0.1,4.6-0.1,9.2,0,13.8c0,3.6,1.4,4.8,5,5c2.5,0.1,4.8-0.2,7.1-0.7c1-0.2,1.5-0.1,1.4,1.1c-0.1,1.7,0,3.4,0,5.1
			c0,0.5,0,1-0.6,1.1c-4.6,0.7-9.1,1.5-13.7,0.3c-4.1-1.1-6.4-3.9-7-8.4c-0.1-0.5-0.2-1.1-0.2-1.6C170.9,144.5,171,141.8,171,138.1z
			"/>
		<path class="st1" d="M208.7,138.9c0,5.7,0,11.4,0,17c0,1.1-0.2,1.5-1.3,1.4c-1.9-0.1-3.7-0.1-5.7,0c-0.7,0-1.1-0.2-1.1-1.1
			c0-11.7,0-23.2,0-34.9c0-0.9,0.2-1.2,1.1-1.1c1.9,0,4,0,5.9,0c0.7,0,1,0.2,1,1C208.7,127.2,208.7,133.1,208.7,138.9z"/>
		<path class="st1" d="M146.2,117.5c1.5-2.7,2.9-5.2,4.3-7.7c0.2-0.3,0.3-0.5,0.7-0.5c2.4,0,4.7,0,7.4,0c-2,2.7-4,5.2-5.9,7.8
			c-0.2,0.3-0.5,0.4-1,0.4C149.9,117.5,148.2,117.5,146.2,117.5z"/>
		<path class="st1" d="M89,156.1c-2.5-4.6-5-9.2-7.6-13.8c-0.5-0.9-0.6-1.4,0.4-2c4.8-3.1,6.3-10.7,3.2-15.5c-1.9-3-4.9-4.2-8.2-4.6
			c-4.6-0.6-9.3,0-13.9,0c-0.7,0-0.7,0.5-0.7,1.1c0,11.7,0,23.5,0,35.1c0,1,0.3,1.2,1.2,1.2c1.8,0,3.6-0.1,5.5,0
			c1.2,0.1,1.4-0.3,1.4-1.4c-0.1-3.9,0-7.7,0-11.6c0-0.4-0.2-0.9,0.3-1.2c0.9-0.5,2.9,0.2,3.4,1.1c2.1,4.1,4.3,8.1,6.4,12.1
			c0.2,0.5,0.5,1,1.2,1c2.6,0,5.2,0,8,0C89.3,156.9,89.1,156.4,89,156.1z M78.5,132.3c-0.2,2-1.5,3.5-3.6,3.9
			c-1.3,0.2-2.6,0.1-3.9,0.1c-0.6,0-0.7-0.4-0.7-1c0-1.3,0-2.6,0-3.9s0-2.5,0-3.7c0-0.4,0-0.7,0.5-0.9c1.7-0.2,3.4-0.3,5,0.2
			C78,127.9,78.7,129.4,78.5,132.3z"/>
		<path class="st1" d="M165.3,155c-3.2-11.1-6.5-22.3-9.7-33.5c-0.2-0.9-0.6-1.3-1.6-1.2c-2.4,0.1-4.6,0.1-7,0
			c-0.9,0-1.3,0.3-1.5,1.2c-0.9,3.2-1.8,6.4-2.8,9.6c-2.5,8.4-4.8,16.7-7.3,25.1c-0.3,1-0.1,1.3,1,1.2c1.9-0.1,4-0.1,5.9,0
			c0.9,0,1.2-0.2,1.4-1.1c0.3-1.7,0.9-3.5,1.2-5.2c0.1-0.7,0.5-1,1.2-1c2.8,0,5.7,0.1,8.5,0c1,0,1.3,0.3,1.4,1.2
			c0.3,1.7,0.7,3.4,1.2,5.1c0.1,0.7,0.4,1,1.2,1c1.1-0.1,2.1,0,3.2,0c0.6,0,1.3,0,1.9,0C166,157.4,166,157.4,165.3,155z
			 M153.4,143.5c-1.9,0-4,0-5.9,0c-0.7,0-0.9-0.2-0.7-1c1.2-5,2.4-10.1,3.5-15.1c0.1,0,0.2,0,0.2,0c0.4,1.7,0.9,3.4,1.2,5.1
			c0.7,3.3,1.5,6.6,2.4,10C154.2,143.3,154.1,143.5,153.4,143.5z"/>
		<path class="st1" d="M55.5,156.2c-3.4-11.7-6.7-23.3-10.2-34.9c-0.2-0.6-0.5-1-1.3-1c-2.5,0-4.9,0-7.3,0c-0.7,0-1.2,0.2-1.3,1
			c-0.7,2.7-1.5,5.4-2.4,8c-2.6,9-5.1,17.9-7.8,26.8c-0.3,1.1-0.1,1.3,1,1.2c2-0.1,4.1-0.1,6,0c0.7,0,1.1-0.2,1.2-1
			c0.3-1.7,0.7-3.3,1.2-5c0.2-1,0.5-1.3,1.6-1.3c2.7,0.1,5.4,0.1,8,0c1,0,1.4,0.3,1.5,1.2c0.3,1.6,0.7,3.2,1.1,4.9
			c0.2,0.9,0.4,1.3,1.4,1.2c1-0.1,2,0,3.1,0s2.1,0,3.2,0C55.6,157.4,55.7,157.2,55.5,156.2z M43.3,143.5c-2,0-4.1,0-6,0
			c-0.7,0-0.9-0.2-0.6-1c1.2-5,2.4-10.2,3.5-15.2c0.1,0,0.2,0,0.2,0c1,4,1.8,7.9,2.8,11.8c0.2,1.1,0.4,2.2,0.7,3.3
			C44.1,143.3,44,143.5,43.3,143.5z"/>
		<path class="st1" d="M245.8,156.3c-3.1-10.5-6.1-21-9.1-31.5c-0.4-1.4-0.4-3.3-1.4-4.2c-1.1-1-3-0.1-4.2-0.3c-1.5,0-2.7,0-3.9,0
			c-0.9,0-1.2,0.2-1.4,1.1c-1.4,5.1-3,10.2-4.4,15.3c-1.9,6.5-3.7,13.1-5.7,19.6c-0.2,0.9-0.2,1.2,0.9,1.2c2-0.1,4.1-0.1,6,0
			c0.9,0,1.2-0.3,1.3-1.2c0.3-1.7,0.9-3.4,1.2-5.1c0.1-0.7,0.4-1,1.2-1c2.9,0,5.8,0,8.7,0c0.6,0,1,0.2,1.2,0.9
			c0.4,1.8,0.9,3.6,1.3,5.5c0.1,0.7,0.4,0.9,1.1,0.9c2.1,0,4.4-0.1,6.5,0C246,157.4,246.1,157.1,245.8,156.3z M233.6,143.5
			c-2,0-4.1,0-6,0c-0.4,0-1,0.1-0.7-0.6c1.2-5.1,2.5-10.3,3.6-15.4c0.1,0,0.2,0,0.2,0c1.2,5,2.4,10.2,3.5,15.2
			C234.4,143.3,234.3,143.5,233.6,143.5z"/>
	</g>
	<path class="st0" d="M217,170.1c-3.3-0.5-6.6-0.1-10-0.3c-1.1,0-1.2,0.3-1.2,1.3c0,3.1,0,6.2,0,9.3c0,3.2,0,6.3,0,9.5
		c0,0.5-0.1,1.1,0.7,1.1c3.5-0.1,7.1,0.3,10.6-0.3c5.5-1,8.8-5,8.8-10.6C225.9,174.8,222.3,170.9,217,170.1z M214.9,185.8
		c-3.2,0.3-3.2,0.3-3.2-2.9c0-0.9,0-1.7,0-2.6c0-1.5,0-3,0-4.5c0-0.5,0.1-0.9,0.7-0.9c1,0.1,1.9-0.1,2.9,0.1c3,0.6,4.6,2.6,4.5,5.6
		C219.9,183.6,217.9,185.5,214.9,185.8z"/>
	<path class="st0" d="M120,169.4c-6.4,0-11.5,4.7-11.5,11c0,6.2,4.8,11,11.2,11s11.5-4.8,11.5-11S126.3,169.4,120,169.4z
		 M119.9,186.1c-3,0-5.4-2.5-5.4-5.7c0-3.3,2.2-5.7,5.4-5.7s5.5,2.5,5.5,5.8C125.2,183.7,122.9,186.1,119.9,186.1z"/>
	<path class="st0" d="M64.7,187.6c-0.7-1.1-1.4-2.1-2.1-3.2c-0.4-0.6-0.3-0.9,0.3-1.2c2.9-1.7,4-4.3,3.4-7.6
		c-0.5-2.9-2.6-4.9-5.7-5.5c-4.1-0.6-8.1-0.1-12.2-0.3c-0.6,0-0.7,0.3-0.7,0.7c0,6.5,0,13,0,19.5c0,0.6,0.2,0.9,0.9,0.9
		c1.4,0,2.8,0,4.1,0c0.6,0,0.9-0.2,0.9-0.9c0-1.5,0-3,0-4.5c0-0.3-0.1-0.7,0.2-1c0.5-0.3,2.4,0,2.8,0.5c1.1,1.7,2.2,3.3,3.3,5
		c0.2,0.4,0.5,0.7,1.1,0.7c1.9,0,4,0,6.1,0C66.2,189.6,65.5,188.6,64.7,187.6z M58.3,179.9c-1.4,0.1-2.8,0.1-4.2,0.1
		c-0.6,0-0.6-0.4-0.6-0.9c0-1.1,0-2.2,0-3.3c0-0.6,0.1-1,0.9-0.9c0.5,0.1,1.2,0,1.8,0c0,0,0,0,0,0.1c0.6,0,1.4-0.1,2,0
		c1.5,0.1,2.4,1.1,2.4,2.4C60.5,178.6,59.7,179.8,58.3,179.9z"/>
	<path class="st0" d="M173.1,170.4c-0.2-0.5-0.5-0.6-1.1-0.6c-1.2,0-2.4,0.1-3.6,0c-1-0.1-1.4,0.3-1.8,1.2c-1.5,3.6-3.1,7.3-4.6,11
		c-1.3,3-2.5,6-3.9,9.1c1.2,0,2.1,0,3.1,0c3,0,3,0,4.2-2.8c0.3-0.7,0.7-1,1.5-1c1.3,0.1,2.6,0.2,3.9,0c2.4-0.3,4,0.3,4.4,2.9
		c0.1,0.5,0.4,0.9,1.1,0.9c1.8,0,3.5,0,5.6,0C178.9,184,176,177.1,173.1,170.4z M171.6,182.7c-1.1,0-2.1,0-3.2,0
		c-0.4,0-0.9,0-0.5-0.6c0.6-1.7,1.4-3.4,2.1-5.5c0.7,2,1.4,3.7,2.1,5.5C172.3,182.7,172,182.7,171.6,182.7z"/>
	<path class="st0" d="M45.1,189.7c-2.2-5.4-4.5-10.7-6.9-16.1c-0.5-1.3-0.7-3-1.7-3.7c-1.1-0.9-2.8-0.1-4.2-0.3
		c-1.1-0.1-1.5,0.3-1.9,1.3c-2.6,6.3-5.4,12.6-7.9,18.8c-0.1,0.3-0.4,0.6-0.3,1.2c1.8,0,3.5,0,5.4,0c0.5,0,0.9-0.3,0.9-0.7
		c0.4-2.9,2.4-3.5,4.8-3.1c0.4,0.1,0.9,0,1.3,0c3.2,0,3.2,0,4.4,2.9c0.3,0.7,0.6,0.9,1.3,0.9c1.4,0,2.8-0.1,4.1,0
		C45.5,191,45.4,190.6,45.1,189.7z M35.3,182.7L35.3,182.7c-4.1,0.2-4.1,0.2-2.6-3.3c0.3-0.7,0.6-1.6,1.1-2.7c0.7,1.9,1.4,3.5,2,5.2
		C36,182.5,35.9,182.7,35.3,182.7z"/>
	<path class="st0" d="M108.1,189.8c-2.8-6.4-5.5-12.8-8.1-19.4c-0.3-0.6-0.5-1-1.3-0.9c-1.3,0.1-2.5,0-3.7,0c-0.6,0-1.1,0.2-1.4,0.9
		c-2.8,6.5-5.5,13.1-8.2,19.6c-0.3,0.6-0.2,1,0.5,0.9c0.7,0,1.5,0,2.1,0c3,0,3.1,0,4.2-2.8c0.3-0.7,0.7-1,1.5-1c1.9,0.1,4,0.1,5.9,0
		c0.9,0,1.3,0.2,1.5,1c0.5,2.2,1.7,3.5,4.3,2.8c0.6,0,1.4,0,2,0C108.3,191,108.4,190.8,108.1,189.8z M98.1,182.7c-1.1,0-2,0-3.1,0
		c-0.6,0-0.7-0.2-0.5-0.7c0.6-1.6,1.3-3.3,2.1-5.2c0.7,1.9,1.4,3.5,2,5.1C98.9,182.3,98.9,182.7,98.1,182.7z"/>
</g>
</svg>
