<?xml version="1.0" encoding="utf-8"?>
<!-- Generator: Adobe Illustrator 25.2.1, SVG Export Plug-In . SVG Version: 6.00 Build 0)  -->
<svg version="1.1" id="Camada_1" xmlns="http://www.w3.org/2000/svg" xmlns:xlink="http://www.w3.org/1999/xlink" x="0px" y="0px"
	 viewBox="0 0 247.2 202.1" style="enable-background:new 0 0 247.2 202.1;" xml:space="preserve">
<style type="text/css">
	.st0{fill:#B22934;}
	.st1{fill:#325FA3;}
</style>
<g>
	<g>
		<g>
			<g>
				<polygon class="st0" points="63.5,109.1 71.9,109.1 71.9,101.1 82.4,101.1 82.4,94.8 71.9,94.8 71.9,90.5 83.8,90.5 83.8,84.2 
					63.5,84.2 				"/>
				<path class="st0" d="M102.8,91.5c-1.8-1.5-4.4-2.2-7.8-2.2c-1.5,0-3.1,0.2-4.7,0.6c-1.6,0.4-3,0.9-4.1,1.6l2.6,5.3
					c0.6-0.5,1.4-0.8,2.3-1.1c0.9-0.3,1.8-0.4,2.7-0.4c1.3,0,2.3,0.2,2.8,0.7c0.4,0.4,0.7,0.9,0.8,1.5h-3.2c-2,0-3.7,0.2-5,0.7
					c-1.3,0.5-2.3,1.1-2.9,2c-0.6,0.9-1,1.9-1,3.2c0,1.1,0.3,2.1,0.8,3c0.5,0.9,1.4,1.6,2.4,2.2c1.1,0.5,2.4,0.8,4,0.8
					c1.7,0,3-0.4,4-1.1c0.7-0.5,1.1-1.1,1.5-1.9v2.6h7.5V98.6C105.5,95.4,104.6,93,102.8,91.5z M96.4,104.2c-0.5,0.3-1,0.4-1.5,0.4
					c-0.6,0-1.1-0.1-1.4-0.4c-0.3-0.3-0.5-0.7-0.5-1.1c0-0.5,0.2-1,0.6-1.2c0.4-0.3,1-0.4,1.9-0.4h2v1.4
					C97.2,103.4,96.9,103.9,96.4,104.2z"/>
				<path class="st0" d="M117,91.7v-2.1h-7.7v19.5h8.1v-8.7c0-1.5,0.4-2.6,1.2-3.3c0.8-0.6,1.8-0.9,3-0.9c0.3,0,0.6,0,0.8,0
					c0.3,0,0.6,0.1,0.9,0.1v-7.1c-1.8,0-3.4,0.4-4.7,1.1C118,90.8,117.5,91.2,117,91.7z"/>
				<path class="st0" d="M155.7,90.2c-1.2-0.6-2.5-0.9-4-0.9c-1.8,0-3.4,0.5-4.8,1.4c-0.7,0.4-1.2,1-1.7,1.6
					c-0.4-0.6-0.9-1.2-1.6-1.6c-1.3-0.9-2.8-1.3-4.5-1.3c-1.5,0-2.9,0.4-4.1,1.1c-0.5,0.3-1,0.7-1.4,1.1v-1.8H126v19.5h8.1v-9.5
					c0-0.9,0.1-1.6,0.3-2.1s0.5-0.9,0.9-1.1c0.4-0.2,0.8-0.4,1.3-0.4c0.7,0,1.2,0.3,1.6,0.8c0.4,0.5,0.6,1.4,0.6,2.6v9.7h8.1v-9.5
					c0-0.9,0.1-1.6,0.3-2.1c0.2-0.5,0.5-0.9,0.9-1.1c0.4-0.2,0.8-0.4,1.3-0.4c0.6,0,1.2,0.3,1.6,0.8s0.6,1.4,0.6,2.6v9.7h8.1V98
					c0-2-0.3-3.7-1-5C157.8,91.7,156.9,90.8,155.7,90.2z"/>
				<path class="st0" d="M179.9,91.5c-1.8-1.5-4.4-2.2-7.8-2.2c-1.5,0-3.1,0.2-4.7,0.6c-1.6,0.4-3,0.9-4.1,1.6l2.6,5.3
					c0.6-0.5,1.4-0.8,2.3-1.1c0.9-0.3,1.8-0.4,2.7-0.4c1.3,0,2.3,0.2,2.8,0.7c0.4,0.4,0.7,0.9,0.8,1.5h-3.2c-2,0-3.7,0.2-5,0.7
					c-1.3,0.5-2.3,1.1-2.9,2c-0.6,0.9-1,1.9-1,3.2c0,1.1,0.3,2.1,0.8,3c0.5,0.9,1.4,1.6,2.4,2.2c1.1,0.5,2.4,0.8,4,0.8
					c1.7,0,3-0.4,4-1.1c0.7-0.5,1.1-1.1,1.5-1.9v2.6h7.5V98.6C182.7,95.4,181.7,93,179.9,91.5z M173.6,104.2c-0.5,0.3-1,0.4-1.5,0.4
					c-0.6,0-1.1-0.1-1.4-0.4c-0.3-0.3-0.5-0.7-0.5-1.1c0-0.5,0.2-1,0.6-1.2c0.4-0.3,1-0.4,1.9-0.4h2v1.4
					C174.4,103.4,174.1,103.9,173.6,104.2z"/>
				<polygon class="st0" points="181.7,81.8 174,81.8 169.3,87.5 174.6,87.5 				"/>
				<path class="st0" d="M195.6,96c0.5-0.3,1.1-0.4,1.7-0.4c0.7,0,1.3,0.2,1.9,0.6c0.6,0.4,1.1,1.1,1.5,2l6.2-3.1
					c-0.6-1.8-1.8-3.2-3.5-4.2c-1.7-1-3.7-1.5-6.1-1.5c-2.2,0-4.2,0.4-6,1.3c-1.7,0.9-3.1,2-4.1,3.6c-1,1.5-1.5,3.3-1.5,5.2
					c0,2,0.5,3.7,1.5,5.3c1,1.5,2.3,2.7,4.1,3.6c1.7,0.9,3.7,1.3,6,1.3c2.4,0,4.4-0.5,6.1-1.5c1.7-1,2.9-2.4,3.5-4.2l-6.2-3.1
					c-0.4,0.9-0.9,1.6-1.5,2c-0.6,0.4-1.2,0.6-1.9,0.6c-0.6,0-1.1-0.1-1.7-0.4c-0.5-0.3-0.9-0.7-1.2-1.3c-0.3-0.6-0.4-1.3-0.4-2.1
					c0-0.9,0.1-1.6,0.4-2.1C194.7,96.7,195.1,96.3,195.6,96z"/>
				<path class="st0" d="M213.2,79.9c-1.5,0-2.6,0.4-3.5,1.2c-0.9,0.8-1.3,1.8-1.3,2.9s0.4,2.1,1.3,2.9c0.9,0.8,2.1,1.2,3.5,1.2
					c1.5,0,2.6-0.4,3.5-1.2c0.9-0.8,1.3-1.8,1.3-3c0-1.2-0.4-2.1-1.3-2.9C215.8,80.2,214.6,79.9,213.2,79.9z"/>
				<rect x="209.1" y="89.6" class="st0" width="8.1" height="19.5"/>
				<path class="st0" d="M237.6,91.5c-1.8-1.5-4.4-2.2-7.8-2.2c-1.5,0-3.1,0.2-4.7,0.6c-1.6,0.4-3,0.9-4.1,1.6l2.6,5.3
					c0.6-0.5,1.4-0.8,2.3-1.1c0.9-0.3,1.8-0.4,2.7-0.4c1.3,0,2.3,0.2,2.8,0.7c0.4,0.4,0.7,0.9,0.8,1.5h-3.2c-2,0-3.7,0.2-5,0.7
					c-1.3,0.5-2.3,1.1-2.9,2c-0.6,0.9-1,1.9-1,3.2c0,1.1,0.3,2.1,0.8,3c0.5,0.9,1.4,1.6,2.4,2.2c1.1,0.5,2.4,0.8,4,0.8
					c1.7,0,3-0.4,4-1.1c0.7-0.5,1.1-1.1,1.5-1.9v2.6h7.5V98.6C240.4,95.4,239.5,93,237.6,91.5z M231.3,104.2c-0.5,0.3-1,0.4-1.5,0.4
					c-0.6,0-1.1-0.1-1.4-0.4c-0.3-0.3-0.5-0.7-0.5-1.1c0-0.5,0.2-1,0.6-1.2c0.4-0.3,1-0.4,1.9-0.4h2v1.4
					C232.1,103.4,231.8,103.9,231.3,104.2z"/>
			</g>
			<g>
				<path class="st0" d="M65.8,116.3c0.4-0.2,0.9-0.3,1.3-0.3c0.4,0,0.8,0.1,1.2,0.3c0.4,0.2,0.7,0.4,0.9,0.8l0.7-0.5
					c-0.3-0.5-0.7-0.8-1.1-1c-0.5-0.2-1-0.3-1.6-0.3c-0.7,0-1.3,0.2-1.9,0.5c-0.5,0.3-1,0.7-1.3,1.3c-0.3,0.5-0.5,1.2-0.5,1.9
					c0,0.7,0.2,1.3,0.5,1.9c0.3,0.5,0.7,1,1.3,1.3c0.5,0.3,1.2,0.5,1.9,0.5c0.6,0,1.1-0.1,1.6-0.4c0.5-0.2,0.9-0.6,1.1-1l-0.7-0.5
					c-0.2,0.3-0.5,0.6-0.9,0.8c-0.4,0.2-0.7,0.3-1.2,0.3c-0.5,0-0.9-0.1-1.3-0.3c-0.4-0.2-0.7-0.5-0.9-1c-0.2-0.4-0.3-0.9-0.3-1.4
					c0-0.6,0.1-1,0.3-1.4C65.1,116.8,65.4,116.5,65.8,116.3z"/>
				<path class="st0" d="M74.6,115.1c-0.6,0-1.1,0.1-1.6,0.2c-0.5,0.2-0.9,0.4-1.3,0.7l0.4,0.7c0.3-0.2,0.6-0.5,1-0.6
					c0.4-0.2,0.8-0.2,1.3-0.2c0.7,0,1.2,0.2,1.5,0.5c0.3,0.3,0.5,0.8,0.5,1.4v0.4h-2.2c-0.7,0-1.2,0.1-1.6,0.3
					c-0.4,0.2-0.7,0.4-0.9,0.7c-0.2,0.3-0.3,0.6-0.3,1c0,0.4,0.1,0.8,0.3,1.1c0.2,0.3,0.5,0.5,0.9,0.7c0.4,0.2,0.8,0.3,1.4,0.3
					c0.7,0,1.2-0.1,1.7-0.4c0.3-0.2,0.6-0.5,0.8-0.8v1.2h0.9v-4.4c0-0.9-0.2-1.6-0.7-2.1C76.2,115.3,75.5,115.1,74.6,115.1z
					 M75.6,121.1c-0.4,0.2-0.8,0.4-1.4,0.4c-0.6,0-1-0.1-1.3-0.4c-0.3-0.2-0.5-0.6-0.5-1c0-0.4,0.1-0.7,0.4-0.9
					c0.3-0.2,0.7-0.4,1.4-0.4h2.2v1.1C76.3,120.5,76,120.9,75.6,121.1z"/>
				<path class="st0" d="M81.2,116.6v-1.4h-0.9v7h0.9v-3.6c0-0.8,0.2-1.5,0.6-1.9c0.4-0.5,1-0.7,1.7-0.7c0,0,0.1,0,0.1,0
					c0,0,0.1,0,0.1,0v-0.9c-0.7,0-1.3,0.1-1.7,0.4C81.7,115.8,81.4,116.1,81.2,116.6z"/>
				<path class="st0" d="M88.5,121.4c-0.4,0-0.7-0.1-0.9-0.3c-0.2-0.2-0.3-0.5-0.3-0.9v-4.2h2.1v-0.8h-2.1v-1.6h-0.9v1.6h-1.3v0.8
					h1.3v4.2c0,0.7,0.2,1.2,0.5,1.5c0.4,0.4,0.9,0.5,1.5,0.5c0.3,0,0.5,0,0.8-0.1c0.3-0.1,0.5-0.2,0.7-0.4l-0.3-0.7
					C89.3,121.3,89,121.4,88.5,121.4z"/>
				<path class="st0" d="M93.1,113.3c0.1-0.2,0.3-0.2,0.5-0.2c0.1,0,0.3,0,0.4,0.1c0.1,0.1,0.3,0.2,0.4,0.3c0.1,0.1,0.3,0.2,0.4,0.3
					c0.2,0.1,0.3,0.1,0.5,0.1c0.3,0,0.6-0.1,0.9-0.4c0.2-0.3,0.3-0.6,0.3-1H96c0,0.3-0.1,0.5-0.2,0.6c-0.1,0.1-0.3,0.2-0.5,0.2
					c-0.1,0-0.3,0-0.4-0.1c-0.1-0.1-0.2-0.2-0.4-0.3c-0.1-0.1-0.3-0.2-0.4-0.3c-0.2-0.1-0.3-0.1-0.6-0.1c-0.3,0-0.6,0.1-0.8,0.4
					c-0.2,0.3-0.3,0.6-0.4,1.1h0.6C92.9,113.7,93,113.4,93.1,113.3z"/>
				<path class="st0" d="M94.4,115.1c-0.6,0-1.1,0.1-1.6,0.2c-0.5,0.2-0.9,0.4-1.3,0.7l0.4,0.7c0.3-0.2,0.6-0.5,1-0.6
					c0.4-0.2,0.8-0.2,1.3-0.2c0.7,0,1.2,0.2,1.5,0.5c0.3,0.3,0.5,0.8,0.5,1.4v0.4h-2.2c-0.7,0-1.2,0.1-1.6,0.3
					c-0.4,0.2-0.7,0.4-0.9,0.7c-0.2,0.3-0.3,0.6-0.3,1c0,0.4,0.1,0.8,0.3,1.1c0.2,0.3,0.5,0.5,0.9,0.7c0.4,0.2,0.8,0.3,1.4,0.3
					c0.7,0,1.2-0.1,1.7-0.4c0.3-0.2,0.6-0.5,0.8-0.8v1.2h0.9v-4.4c0-0.9-0.2-1.6-0.7-2.1C96,115.3,95.3,115.1,94.4,115.1z
					 M95.5,121.1c-0.4,0.2-0.8,0.4-1.4,0.4c-0.6,0-1-0.1-1.3-0.4c-0.3-0.2-0.5-0.6-0.5-1c0-0.4,0.1-0.7,0.4-0.9
					c0.3-0.2,0.7-0.4,1.4-0.4h2.2v1.1C96.2,120.5,95.9,120.9,95.5,121.1z"/>
				<path class="st0" d="M104.9,115.5c-0.5-0.3-1.2-0.5-1.9-0.5c-0.7,0-1.3,0.2-1.8,0.5c-0.5,0.3-1,0.7-1.3,1.3
					c-0.3,0.5-0.5,1.2-0.5,1.9c0,0.7,0.2,1.3,0.5,1.8c0.3,0.5,0.7,1,1.3,1.3c0.5,0.3,1.1,0.5,1.8,0.5c0.7,0,1.3-0.2,1.8-0.5
					c0.5-0.3,1-0.7,1.3-1.3c0.3-0.5,0.5-1.2,0.5-1.9c0-0.7-0.2-1.3-0.5-1.9C105.9,116.3,105.4,115.9,104.9,115.5z M105.3,120.1
					c-0.2,0.4-0.5,0.7-0.9,1c-0.4,0.2-0.8,0.3-1.3,0.3c-0.5,0-0.9-0.1-1.3-0.3c-0.4-0.2-0.7-0.5-0.9-1s-0.3-0.9-0.3-1.4
					c0-0.6,0.1-1,0.3-1.4c0.2-0.4,0.5-0.7,0.9-1c0.4-0.2,0.8-0.3,1.3-0.3c0.5,0,0.9,0.1,1.3,0.3c0.4,0.2,0.7,0.5,0.9,1
					c0.2,0.4,0.3,0.9,0.3,1.4C105.7,119.2,105.6,119.7,105.3,120.1z"/>
				<path class="st0" d="M116.6,118.8c-0.3-0.1-0.6-0.2-0.9-0.3c-0.3-0.1-0.7-0.1-1-0.2c-0.3-0.1-0.6-0.1-0.9-0.2
					c-0.3-0.1-0.5-0.2-0.7-0.4c-0.2-0.2-0.2-0.4-0.2-0.6c0-0.3,0.1-0.6,0.4-0.8c0.3-0.2,0.8-0.3,1.4-0.3c0.4,0,0.7,0,1.1,0.1
					c0.4,0.1,0.7,0.2,1,0.5l0.4-0.8c-0.3-0.2-0.7-0.4-1.1-0.5c-0.5-0.1-0.9-0.2-1.4-0.2c-0.6,0-1.1,0.1-1.5,0.3
					c-0.4,0.2-0.7,0.4-0.9,0.7c-0.2,0.3-0.3,0.6-0.3,1c0,0.4,0.1,0.7,0.2,1c0.2,0.2,0.4,0.4,0.6,0.6c0.3,0.1,0.6,0.2,0.9,0.3
					c0.3,0.1,0.7,0.1,1,0.2c0.3,0.1,0.6,0.1,0.9,0.2c0.3,0.1,0.5,0.2,0.6,0.3c0.2,0.1,0.2,0.3,0.2,0.6c0,0.3-0.1,0.6-0.4,0.8
					c-0.3,0.2-0.8,0.3-1.4,0.3c-0.5,0-1-0.1-1.4-0.2c-0.4-0.2-0.8-0.3-1.1-0.6l-0.4,0.7c0.3,0.2,0.7,0.5,1.2,0.6
					c0.5,0.2,1.1,0.2,1.6,0.2c0.6,0,1.1-0.1,1.6-0.2c0.4-0.2,0.8-0.4,1-0.7c0.2-0.3,0.3-0.7,0.3-1.1c0-0.4-0.1-0.7-0.2-0.9
					C117.1,119.1,116.9,118.9,116.6,118.8z"/>
				<path class="st0" d="M122.1,115.1c-0.6,0-1.1,0.1-1.6,0.2c-0.5,0.2-0.9,0.4-1.3,0.7l0.4,0.7c0.3-0.2,0.6-0.5,1-0.6
					c0.4-0.2,0.8-0.2,1.3-0.2c0.7,0,1.2,0.2,1.5,0.5c0.3,0.3,0.5,0.8,0.5,1.4v0.4h-2.2c-0.7,0-1.2,0.1-1.6,0.3
					c-0.4,0.2-0.7,0.4-0.9,0.7c-0.2,0.3-0.3,0.6-0.3,1c0,0.4,0.1,0.8,0.3,1.1c0.2,0.3,0.5,0.5,0.9,0.7c0.4,0.2,0.8,0.3,1.4,0.3
					c0.7,0,1.2-0.1,1.7-0.4c0.3-0.2,0.6-0.5,0.8-0.8v1.2h0.9v-4.4c0-0.9-0.2-1.6-0.7-2.1C123.7,115.3,123,115.1,122.1,115.1z
					 M123.1,121.1c-0.4,0.2-0.8,0.4-1.4,0.4c-0.6,0-1-0.1-1.3-0.4c-0.3-0.2-0.5-0.6-0.5-1c0-0.4,0.1-0.7,0.4-0.9
					c0.3-0.2,0.7-0.4,1.4-0.4h2.2v1.1C123.8,120.5,123.5,120.9,123.1,121.1z"/>
				<path class="st0" d="M133.2,118.8c0,0.5-0.1,1-0.3,1.4c-0.2,0.4-0.5,0.7-0.8,0.9c-0.4,0.2-0.8,0.3-1.3,0.3
					c-0.7,0-1.2-0.2-1.6-0.6c-0.4-0.4-0.6-0.9-0.6-1.7v-4h-0.9v4.1c0,0.7,0.1,1.2,0.4,1.7c0.2,0.4,0.6,0.8,1,1
					c0.4,0.2,1,0.3,1.6,0.3c0.6,0,1.2-0.1,1.6-0.4c0.4-0.2,0.7-0.6,0.9-1v1.3h0.9v-7h-0.9V118.8z"/>
				<polygon class="st0" points="133.2,112.4 131.9,112.4 130.1,114.1 131,114.1 				"/>
				<path class="st0" d="M142.6,116.5c-0.3-0.4-0.6-0.8-1-1c-0.5-0.3-1-0.4-1.7-0.4c-0.7,0-1.3,0.1-1.8,0.4
					c-0.5,0.3-0.9,0.7-1.2,1.2c-0.3,0.5-0.5,1.2-0.5,1.9c0,0.7,0.2,1.3,0.5,1.9c0.3,0.5,0.7,1,1.2,1.3c0.5,0.3,1.1,0.5,1.8,0.5
					c0.6,0,1.2-0.1,1.7-0.4c0.4-0.3,0.8-0.6,1-1.1v1.4h0.9v-9.9h-0.9V116.5z M142.3,120.1c-0.2,0.4-0.5,0.7-0.9,1
					c-0.4,0.2-0.8,0.3-1.3,0.3c-0.5,0-0.9-0.1-1.3-0.3s-0.7-0.5-0.9-1s-0.3-0.9-0.3-1.4c0-0.6,0.1-1,0.3-1.4c0.2-0.4,0.5-0.7,0.9-1
					c0.4-0.2,0.8-0.3,1.3-0.3c0.5,0,0.9,0.1,1.3,0.3c0.4,0.2,0.7,0.5,0.9,1c0.2,0.4,0.3,0.9,0.3,1.4
					C142.6,119.2,142.5,119.7,142.3,120.1z"/>
				<path class="st0" d="M152.2,116.8c-0.3-0.5-0.7-1-1.2-1.3c-0.5-0.3-1.1-0.4-1.8-0.4c-0.7,0-1.2,0.2-1.8,0.5
					c-0.5,0.3-0.9,0.7-1.2,1.3c-0.3,0.5-0.4,1.1-0.4,1.8s0.2,1.3,0.5,1.9c0.3,0.5,0.7,1,1.3,1.3c0.6,0.3,1.2,0.5,1.9,0.5
					c0.6,0,1.1-0.1,1.5-0.3c0.5-0.2,0.9-0.5,1.2-0.9l-0.5-0.6c-0.3,0.3-0.6,0.5-1,0.7c-0.4,0.2-0.8,0.2-1.2,0.2
					c-0.5,0-1-0.1-1.4-0.3c-0.4-0.2-0.8-0.5-1-0.9c-0.2-0.3-0.3-0.7-0.3-1.2h5.9c0-0.1,0-0.1,0-0.2s0-0.1,0-0.1
					C152.6,118,152.5,117.3,152.2,116.8z M147.1,117.2c0.2-0.4,0.5-0.7,0.9-0.9c0.4-0.2,0.8-0.3,1.3-0.3c0.5,0,0.9,0.1,1.3,0.3
					c0.4,0.2,0.7,0.5,0.9,0.9c0.2,0.3,0.3,0.7,0.3,1.1h-5C146.8,117.9,146.9,117.5,147.1,117.2z"/>
			</g>
		</g>
	</g>
	<g>
		<g>
			<path class="st1" d="M29.6,98.8h17.2c0.6,0,1.1-0.3,1.3-0.8c0.2-0.5,0.5-1,0.7-1.6c0-0.1,0.1-0.2,0.1-0.3
				c0.5-1.5,0.8-3.1,0.7-4.9c-0.3-6-5.1-10.8-11-11.4c-4-0.4-7.6,1.2-10.1,3.9c-0.2,0.3-0.4,0.6-0.4,1v12.6
				C28.2,98.2,28.8,98.8,29.6,98.8z"/>
			<path class="st0" d="M7.6,96.7c0.2,0.5,0.4,1,0.7,1.5c0.2,0.4,0.5,0.6,0.9,0.6h15.7c0.6,0,1-0.5,1-1V86.2c0-0.2-0.1-0.5-0.3-0.7
				c-2.8-3.1-7.3-4.6-12.1-2.9c-2.9,1.1-5.2,3.4-6.1,6.4c-0.9,2.6-0.8,5.2,0,7.4C7.5,96.5,7.5,96.6,7.6,96.7z"/>
			<path class="st0" d="M28.2,102.2l0,18.6c0,1.3,1.5,1.9,2.4,1.1c5.8-5,13.1-11.7,18.3-18.8c0.7-1,0-2.3-1.2-2.3H29.6
				C28.8,100.8,28.2,101.4,28.2,102.2z"/>
			<path class="st0" d="M24.4,100.8H12.2c-1.2,0-1.9,1.4-1.2,2.3c3.7,4.8,8.5,9.3,12.5,12.8c0.9,0.8,2.4,0.1,2.4-1.1l0-12.6
				C25.9,101.4,25.3,100.8,24.4,100.8z"/>
		</g>
	</g>
</g>
</svg>
