<?xml version="1.0" encoding="utf-8"?>
<!-- Generator: Adobe Illustrator 25.2.1, SVG Export Plug-In . SVG Version: 6.00 Build 0)  -->
<svg version="1.1" id="Camada_1" xmlns="http://www.w3.org/2000/svg" xmlns:xlink="http://www.w3.org/1999/xlink" x="0px" y="0px"
	 viewBox="0 0 247.2 202.1" style="enable-background:new 0 0 247.2 202.1;" xml:space="preserve">
<style type="text/css">
	.st0{display:none;}
	.st1{display:inline;fill:#FFBA26;}
	.st2{display:inline;fill:#EDD3A3;}
	.st3{display:inline;fill:#EDEAF1;}
	.st4{display:inline;fill:#EBF1EC;}
	.st5{display:inline;fill:#F6E8E3;}
	.st6{display:inline;fill:#29BF92;}
	.st7{display:inline;fill:#896CA1;}
	.st8{display:inline;fill:#FF1D37;}
	.st9{display:inline;fill:#FEFEFE;}
	.st10{display:inline;fill:#FDFEFD;}
	.st11{display:inline;fill:#FDFDFD;}
	.st12{fill:#833683;}
	.st13{fill:#843684;}
</style>
<g class="st0">
	<path class="st1" d="M0,99.1c0.5-1,0.4-2.1,0.6-3.1c2.5-12.1,12-21,24.2-22.6c0.9-0.1,1.8-0.2,2.7-0.2c11.1,0,22.2,0,33.2,0
		c1.7,0,3,0.8,3.8,2.3c0.7,1.4,0.5,2.9-0.4,4.2c-0.9,1.2-2.2,1.6-3.7,1.7c-1.7,0-3.4,0-5,0c-9.1,0-18.2-0.1-27.2,0
		c-9.4,0-17.2,6.3-19.4,15.5c-3,12.3,6.4,24.6,19.1,24.8c10.8,0.1,21.6,0,32.4,0c2.6,0,4.2,1.2,4.7,3.4c0.4,2.2-1.2,4.4-3.4,4.7
		c-0.4,0-0.7,0-1.1,0c-10.6,0-21.1,0-31.7,0c-14.9-0.1-26.6-10.4-28.5-25.2c0-0.3,0.1-0.6-0.3-0.7c0-0.2,0-0.3,0-0.5
		c0.2-1.3,0.2-2.6,0-3.8C0,99.4,0,99.3,0,99.1z"/>
	<path class="st2" d="M0,99.6c0.4,1.3,0.4,2.6,0,3.8C0,102.1,0,100.9,0,99.6z"/>
	<path class="st3" d="M100.3,0.2c0-0.1,0-0.1,0-0.2c0.8,0,1.6,0,2.4,0c0,0.1,0,0.1,0,0.2C101.9,0.8,101.1,0.8,100.3,0.2z"/>
	<path class="st4" d="M247.2,100.5c0.1,0,0.1,0,0.2,0c0,0.7,0,1.4,0,2.2h-0.1h-0.1C246.6,102,246.6,101.3,247.2,100.5z"/>
	<path class="st5" d="M102.5,202.8c0,0.1,0,0.1,0,0.2c-0.7,0-1.4,0-2.2,0c0-0.1,0-0.1,0-0.2C101,202.2,101.7,202.2,102.5,202.8z"/>
	<path class="st6" d="M247.2,100.5c0,0.7,0,1.4,0,2.2c-0.8,8.8-4.3,16.1-11.4,21.6c-3.7,2.9-8,4.2-12.5,5c-4,0.8-8,0.7-12.1,0.7
		c-44.3,0-88.6,0-132.9,0c-3.4,0-5.1-1.7-5.1-5.1c0-8.4,0-16.8,0-25.2c0-7.1,0-14.2-0.1-21.3c-0.1-3,1.8-5.3,5.3-5.3
		c29.8,0.1,59.7,0,89.5,0c14.3,0,28.6,0,42.8,0c3,0,5.9,0,8.9,0.1c13.8,0.2,25.8,11,27.4,24.7C247,98.8,247.1,99.7,247.2,100.5z"/>
	<path class="st7" d="M100.3,0.2c0.8,0,1.6,0,2.4,0c13.4,1,23.6,9.7,26.5,22.6c0.4,1.8,0.6,3.6,0.6,5.5c0,10.8,0,21.5,0,32.3
		c0,1.8-0.7,3.3-2.4,4.1c-1.5,0.7-3,0.5-4.3-0.6c-1.1-0.9-1.5-2.1-1.5-3.5c0-10.7,0.1-21.4,0-32.1c-0.1-8.2-4-14.3-11.3-18
		c-12.5-6.3-27.5,2-29,15.9c-0.1,1.1-0.2,2.2-0.2,3.2c0,10.4,0,20.9,0,31.3c0,1.9-1,3.3-2.8,3.9c-1.6,0.6-3.3,0-4.4-1.3
		c-0.7-0.8-0.9-1.8-0.9-2.9c0-10.8-0.1-21.6,0-32.4C73.2,14.3,83.2,2.8,97,0.5C98.1,0.4,99.2,0.3,100.3,0.2z"/>
	<path class="st8" d="M102.5,202.8c-0.7,0-1.4,0-2.2,0c-13.8-0.7-23.8-10.4-26.5-21.9c-0.5-2.1-0.8-4.3-0.8-6.4c0-10.7,0-21.4,0-32
		c0-3.3,2.8-5.4,5.6-4.2c1.6,0.7,2.5,2.1,2.5,4.1c0,10.6-0.1,21.2,0,31.8c0.1,8.5,4,14.9,11.7,18.6c12.3,5.9,26.9-2.2,28.6-15.7
		c0.1-1.1,0.2-2.2,0.2-3.3c0-10.5,0-21,0-31.4c0-3.2,2.9-5.2,5.6-4c1.7,0.8,2.5,2.2,2.5,4c0,3.8,0,7.5,0,11.3c0,7.1,0.1,14.2,0,21.2
		c-0.2,12.8-8.8,23.8-21.2,27.1C106.6,202.4,104.5,202.7,102.5,202.8z"/>
	<path class="st6" d="M17.8,52c1.1,0,2.2,0.3,3.2,1c0.3,0.2,0.8,0.4,0.5,0.9s-0.7,0.3-1.1,0c-2.5-1.8-5.6-0.5-6.8,1.6
		c-1.1,2-0.9,4.4,0.7,6.1c1.6,1.7,3.9,2,5.9,0.8c0.1-0.1,0.2-0.1,0.3-0.2c0.3-0.2,0.7-0.5,1,0c0.4,0.5-0.1,0.8-0.4,1.1
		c-1.2,0.9-2.6,1.2-4.1,1c-3.2-0.4-5.6-3.4-5.4-6.6C11.8,54.4,14.4,52,17.8,52z"/>
	<path class="st6" d="M63.8,62.7c-2.2,1.8-4.7,1.8-6.2,0c-1.5-1.7-1.4-4.4,0.3-6c1.3-1.2,2.9-1.4,4.5-0.9c1.5,0.5,2.4,1.6,2.7,3.2
		c0.2,1.2,0.1,2.5,0.1,3.7c0,0.5,0.1,1.2-0.5,1.3C63.8,64.1,63.9,63.3,63.8,62.7z"/>
	<path class="st6" d="M32.7,59.8c0-1.1,0-2.2,0-3.2c0-0.4,0-0.8,0.4-0.9c0.4-0.1,0.7,0.1,0.8,0.5c0.1,0.5,0.4,0.2,0.6,0.1
		c3.4-1.7,6.1-0.1,6.1,3.7c0,1.1,0,2.2,0,3.2c0,0.4-0.1,0.8-0.7,0.8c-0.5,0-0.5-0.4-0.5-0.8c0-1.3,0-2.6,0-3.8c0-1.1-0.4-2-1.4-2.4
		c-1.1-0.5-2.2-0.4-3.2,0.3c-0.6,0.4-0.9,1.1-0.9,1.9c0,1.3,0,2.6,0,4c0,0.5,0,1-0.6,0.9c-0.5,0-0.6-0.5-0.6-0.9
		C32.7,62,32.7,60.9,32.7,59.8z"/>
	<path class="st6" d="M51.4,55.6c1-0.1,1.9,0.3,2.7,1.1c0.3,0.3,0.6,0.6,0.2,1c-0.3,0.3-0.6,0-0.9-0.2c-1.5-1.1-2.9-1.2-4-0.2
		c-1.1,0.9-1.3,2.9-0.5,4.2c0.8,1.4,2.7,1.9,4.3,1c0.4-0.2,0.8-0.6,1.1-0.1c0.4,0.6-0.2,0.8-0.5,1c-1.4,1-3.5,0.8-4.9-0.2
		c-1.4-1.1-1.9-3.1-1.3-4.9C48,56.6,49.5,55.6,51.4,55.6z"/>
	<path class="st6" d="M23.7,57.3c0-1.5,0-3,0-4.4c0-0.4,0-0.9,0.6-0.9s0.5,0.5,0.5,0.9c0,2.7,0,5.4,0,8c0,1,0.1,1.9,1.4,1.9
		c0.3,0,0.5,0.3,0.5,0.6c0,0.4-0.3,0.5-0.7,0.6c-1.1,0.2-2.2-0.8-2.2-2.2C23.6,60.4,23.7,58.9,23.7,57.3L23.7,57.3z"/>
	<path class="st6" d="M28.5,59.7c0-1.1,0-2.2,0-3.3c0-0.4,0.1-0.7,0.6-0.7s0.6,0.3,0.6,0.7c0,2.3,0,4.6,0,6.9c0,0.4-0.1,0.8-0.6,0.8
		s-0.6-0.4-0.6-0.8C28.5,62,28.5,60.9,28.5,59.7z"/>
	<path class="st6" d="M44.7,59.9c0,1.1,0,2.2,0,3.2c0,0.4,0,0.9-0.5,0.9s-0.7-0.4-0.7-0.8c0-2.2,0-4.5,0-6.7c0-0.4,0.1-0.8,0.6-0.8
		c0.6,0,0.6,0.5,0.6,0.9C44.7,57.6,44.7,58.7,44.7,59.9z"/>
	<path class="st6" d="M31.2,52.1c0,0.4-1.8,2.3-2.2,2.3c-0.3,0-0.4-0.1-0.6-0.4c-0.1-0.2-0.1-0.5,0.1-0.7c0.6-0.6,1.1-1.2,1.8-1.8
		C30.7,51.3,31.2,51.6,31.2,52.1z"/>
	<path class="st6" d="M45.1,53.2C45,53.6,44.8,54,44.2,54c-0.5,0-0.8-0.3-0.8-0.8s0.3-0.8,0.8-0.9C44.7,52.3,45,52.7,45.1,53.2z"/>
	<path class="st9" d="M143.8,93.8c-0.3-3.3-3.2-6.2-6.7-6.7c-3.6-0.5-7.1,1.7-8.4,5c-0.4,1-0.5,2-0.5,3.1c0,3.8,0,7.5,0,11.3
		c0,0.3,0,0.6,0,0.8c-0.1,1.2-0.8,2.1-1.9,2c-1,0-1.7-0.8-1.7-2.1c0-3,0-6.1,0-9.1c0-1.4,0.2-2.8-0.2-4.2l0,0c-0.2-3.2-2.7-6-6-6.8
		c-3.4-0.8-6.9,0.8-8.6,3.8c-0.7,1.3-1,2.7-1,4.1c0,3.8,0,7.7,0,11.5c0,0.4,0,0.7,0,1.1c-0.2,1-1,1.7-1.9,1.6
		c-1-0.1-1.6-0.7-1.6-1.7c0-4.8-0.2-9.5,0.1-14.3c0.3-4.3,3.8-8.3,8.2-9.4c4.8-1.3,8.9,0.1,12.1,3.9c0.6,0.7,0.8,0.8,1.5,0
		c4.2-5.5,13.5-6.5,18.8,0.9c2.4-3.3,5.5-5.3,9.7-5.2c4.1,0,7.4,1.8,9.8,5.2c0.6-0.6,1-1.2,1.6-1.7c3.2-3.1,7-4.2,11.3-3
		c4.4,1.2,7.1,4.3,8.2,8.7c0.2,0.9,0.2,1.7,0.2,2.6c0,3.9,0,7.8,0,11.6c0,1.6-0.6,2.5-1.8,2.5s-1.8-0.9-1.8-2.6c0-4,0-8,0-12
		c-0.1-3.9-2.9-7.1-6.8-7.7c-3.8-0.6-7.5,1.8-8.7,5.5c-0.1,0.4-0.2,0.8-0.2,1.2c0.1,0.1,0.1,0.1,0.1,0.1l-0.1,0.1
		c-0.3,0.5-0.2,1-0.2,1.5c0,3.8,0,7.7,0,11.5c0,1.5-0.7,2.4-1.8,2.3c-1.1,0-1.8-0.9-1.8-2.4c0-3.9,0-7.8,0-11.8
		c0-4.6-3.5-8.2-7.9-8.1c-4.5,0-7.9,3.6-7.9,8.2c0,3.9,0,7.8,0,11.8c0,1.5-0.7,2.3-1.8,2.3s-1.8-0.9-1.8-2.3c0-3.9,0-7.8,0-11.6
		C143.9,94.9,144.1,94.3,143.8,93.8L143.8,93.8z"/>
	<path class="st9" d="M214.3,95c-0.3-3.3-3.1-6.5-6.5-7.5c-3.7-1.1-7.7,0.2-10,3.2c-2.7,3.4-2.7,8-0.1,11.5c2.6,3.5,7,4.6,11.2,3
		c0.3-0.1,0.5-0.2,0.8-0.3c1.1-0.4,2-0.1,2.5,0.8c0.4,0.9,0.1,2-1,2.5c-4.2,1.9-8.4,2.1-12.4-0.3c-3.8-2.2-6-5.6-6.5-10
		c0-0.2-0.1-0.5-0.2-0.7c-0.2-0.4-0.2-0.7,0-1.1c0.3-1.7,0.7-3.3,1.4-4.9c2.3-5.8,9-8.1,13.4-7.6c5.4,0.6,10.1,5,11.2,10.4
		c0.3,1.5,0.2,2.9,0.2,4.4c0,2.9,0,5.8,0,8.8c0,1.6-0.6,2.4-1.9,2.4c-1.2,0-1.8-0.8-1.8-2.3c0-3.4,0-6.9,0-10.3
		c0-0.6,0.1-1.1-0.2-1.6C214.2,95.2,214.2,95.1,214.3,95C214.2,95,214.3,95,214.3,95z"/>
	<path class="st10" d="M95,96.6c0-3.4,0-6.9,0-10.3c0-1.6,0.6-2.4,1.8-2.4c1.2,0,1.8,0.8,1.8,2.3c0,6.9,0,13.9,0,20.8
		c0,1.7-1.2,2.7-2.6,2c-0.8-0.4-1.1-1.1-1-2C95,103.7,95,100.1,95,96.6z"/>
	<path class="st10" d="M109.8,124.1c-1.7,1.5-3.5,1.9-5.4,0.9c-1.6-0.8-2.6-2.7-2.4-4.5c0.2-2,1.4-3.5,3.3-4.1
		c2.9-0.9,5.9,1.2,6,4.2c0,1.2,0,2.3,0,3.5c0,0.6,0.3,1.3-0.6,1.4S110,124.7,109.8,124.1z"/>
	<path class="st10" d="M148.7,121.2c-1,0-1.9,0-2.9,0c-0.7,0-0.7,0.2-0.5,0.8c0.5,1.8,2.7,2.7,4.6,1.9c0.2-0.1,0.4-0.2,0.5-0.3
		c0.4-0.3,0.9-0.6,1.2,0c0.4,0.7-0.2,0.9-0.7,1.1c-1.7,1-3.9,0.9-5.4-0.2s-2.2-3.2-1.6-5.3c0.5-1.8,2.1-3.1,3.9-3.2
		c2-0.1,3.6,0.8,4.3,2.6c0.1,0.4,0.2,0.8,0.3,1.2c0.2,0.9-0.1,1.4-1.1,1.3C150.5,121.1,149.6,121.2,148.7,121.2z"/>
	<path class="st10" d="M212.2,120.8c0,2.8-1.9,4.7-4.6,4.7c-2.7,0-4.7-2-4.7-4.7s2-4.7,4.7-4.7C210.2,116.1,212.2,118.1,212.2,120.8
		z"/>
	<path class="st11" d="M168.2,125.5c-1.2,0-2.4-0.3-3.3-1.1c-0.4-0.3-0.7-0.6-0.3-1.1c0.4-0.4,0.8-0.4,1.1,0c1,0.9,2.2,1,3.4,0.8
		c0.7-0.1,1.2-0.4,1.3-1.2c0.1-0.7-0.5-1.1-1.1-1.3c-0.9-0.3-1.8-0.4-2.7-0.7c-1.1-0.4-1.9-1-1.9-2.3s0.8-1.9,2-2.3
		c1.6-0.5,3.1-0.3,4.4,0.9c0.3,0.3,0.7,0.7,0.3,1.1s-0.8,0.3-1.2-0.1c-0.8-0.8-1.8-0.8-2.8-0.7c-0.6,0.1-1.2,0.3-1.3,1.1
		c-0.1,0.7,0.4,1,1,1.2c0.5,0.2,1.1,0.3,1.6,0.4c2.2,0.5,3.2,1.4,3,2.9C171.7,124.5,170.2,125.5,168.2,125.5z"/>
	<path class="st11" d="M187.6,125.5c-1.5,0-2.7-0.3-3.6-1.1c-0.4-0.3-0.6-0.7-0.2-1.1c0.4-0.4,0.8-0.3,1.1,0c1,0.9,2.2,0.9,3.4,0.8
		c0.7-0.1,1.2-0.5,1.3-1.2c0-0.7-0.5-1.1-1.1-1.2c-0.8-0.2-1.7-0.4-2.5-0.7c-1.4-0.4-2-1.2-2-2.4c0-1.1,0.7-2,2.1-2.3
		c1.6-0.4,3.1-0.2,4.3,1c0.3,0.3,0.6,0.6,0.2,1c-0.3,0.3-0.8,0.3-1.1,0c-0.9-0.9-1.9-0.9-3-0.8c-0.6,0.1-1.1,0.4-1.1,1
		s0.3,1,0.9,1.1c0.6,0.2,1.1,0.4,1.7,0.5c0.6,0.1,1.1,0.3,1.6,0.5c0.9,0.4,1.4,1,1.4,2s-0.5,1.7-1.3,2.2
		C189,125.4,188.2,125.6,187.6,125.5z"/>
	<path class="st11" d="M128.3,125.5c-2,0-3.8-1.2-4.4-3.1c-0.7-2,0-4.2,1.6-5.4c1.5-1.1,3.6-1.2,5.2-0.1c0.2,0.2,0.4,0.3,0.6,0.5
		c0.3,0.3,0.6,0.7,0.2,1.1c-0.4,0.4-0.7,0.2-1-0.1c-0.5-0.5-1.1-0.8-1.8-0.9c-1.5-0.2-2.6,0.4-3.2,1.6c-0.7,1.4-0.5,3.1,0.6,4.1
		c0.9,0.9,2.5,1.2,3.8,0.6c0.2-0.1,0.4-0.2,0.5-0.3c0.4-0.2,0.8-0.4,1.1,0c0.4,0.5,0,0.8-0.4,1.1
		C130.2,125.2,129.3,125.5,128.3,125.5z"/>
	<path class="st11" d="M96.8,82.9c-1,0-1.9-0.8-1.9-1.9c0-1,0.8-1.8,1.8-1.8s1.9,0.8,1.9,1.9C98.6,82.1,97.8,82.9,96.8,82.9z"/>
	<path class="st6" d="M94.7,85.7c0,7.3,0,14.6,0,21.9h-0.1C94.6,100.3,94.6,93,94.7,85.7L94.7,85.7z"/>
	<path class="st6" d="M186.7,107.9c0-4.9,0-9.7,0-14.6h0.1c0,4.9,0,9.7,0,14.6C186.8,107.9,186.8,107.9,186.7,107.9z"/>
	<path class="st6" d="M124.3,94c0,4.6,0,9.2,0,13.9c-0.4-0.2-0.2-0.5-0.2-0.7c0-4,0-8.1,0-12.1C124.1,94.8,123.9,94.3,124.3,94
		L124.3,94z"/>
	<path class="st6" d="M167.2,94c0-0.1,0-0.1,0-0.2c0.3,0.2,0.2,0.6,0.2,0.9c0,4.2,0,8.4,0,12.6c0,0.2,0,0.3-0.3,0.4
		C167.2,103.1,167.2,98.6,167.2,94z"/>
	<path class="st6" d="M143.8,93.8c0,4.6,0,9.3,0,13.9c-0.4-0.2-0.3-0.5-0.3-0.7c0-4,0-8.1,0-12.1C143.5,94.5,143.4,94.1,143.8,93.8
		L143.8,93.8z"/>
	<path class="st6" d="M214.3,95c0,0.1,0.1,0.1,0,0.2c0,4.3,0,8.5,0,12.8c-0.1,0-0.2,0-0.3,0c0-2.5,0-5,0-7.5c0-1.4,0-2.9,0-4.3
		C214,95.7,213.9,95.3,214.3,95z"/>
	<path class="st6" d="M192,96c0,0.4,0,0.7,0,1.1c0,0.3-0.1,0.5-0.1,0.8h-0.1c0-0.8,0-1.6,0-2.3h0.1C191.9,95.7,192,95.9,192,96z"/>
	<path class="st9" d="M63.9,59.9c0,1.8-1.3,3.1-3.1,3.1s-3.2-1.5-3.1-3.3c0.1-1.7,1.5-3.1,3.2-3.1C62.6,56.6,63.9,58,63.9,59.9z"/>
	<path class="st6" d="M109.9,120.8c0,2-1.3,3.3-3.3,3.3c-1.8,0-3.2-1.4-3.2-3.3s1.4-3.4,3.3-3.4C108.7,117.5,110,118.9,109.9,120.8z
		"/>
	<path class="st6" d="M145.3,120c0.3-1.5,1.1-2.3,2.4-2.5c1.6-0.2,2.7,0.4,3.2,1.7c0.2,0.5,0.3,0.8-0.5,0.8
		C148.8,119.9,147.1,120,145.3,120z"/>
	<path class="st6" d="M210.7,120.9c0,2-1.3,3.3-3.3,3.3c-1.9,0-3.2-1.4-3.2-3.3c0-2,1.4-3.3,3.3-3.3
		C209.5,117.5,210.7,118.8,210.7,120.9z"/>
</g>
<g>
	<g>
		<path class="st12" d="M16.4,73.3c0.4-0.4,0.5-1,0.6-1.4c1.1-3.4,5.4-6.8,10.4-6.4c2.6,0.2,5.2-0.4,7.8-0.3
			c3.1,0.2,6.1,0.4,8.9,1.9c3,1.6,4.5,4.2,4.7,7.6c0.1,2-0.1,4,0.4,6c0.2,0.8,0,1.7-0.2,2.6s-0.7,1.5-1.7,1.4
			c-2.4-0.1-4.9,0.6-7.3-0.6C39.7,84,39.4,84,39,84c-2.5,0-2.5,0-2.5-2.6c0-2.2-0.1-4.4,0-6.6c0.1-1.6-0.7-2.2-1.8-2.8
			c-1.1-0.6-2.2-0.3-3.2,0.3c-0.7,0.4-0.8,1.1-0.8,1.8c0,1.9,0,3.8,0,5.7c0,11,0,21.9,0,32.9c0,2,0.7,3.2,2.2,3.5
			c2.2,0.4,3.6-0.8,3.7-3.3c0.1-3.3,0-6.7,0-10c0-2.3,0-2.3,2.4-2.3c2.7,0,5.4,0,8.1,0c1.1,0,1.6,0.2,1.5,1.4
			c-0.1,4.4-0.1,8.7-0.2,13.1c0,2.3-1.2,4-3.2,5c-4.9,2.6-10.2,2.7-15.6,2.5c-3.6-0.1-6.8-1.2-9.7-3.3c-1.5-1.1-2.4-2.8-3.5-4.2
			C16.4,101.2,16.4,87.3,16.4,73.3z"/>
		<path class="st13" d="M44.6,202.1c-2.9-2.5-5.8-5-8.2-8c-1.5-1.8-2.5-3.9-3.5-6c-3-5.6-3.5-11.5-3.1-17.7
			c0.5-6.8,1.7-13.5,3.3-20.1c1.4-6,3-11.9,4.5-17.9c0.2-0.9,0.7-1.5,1.7-1.5c1.9,0,3.8,0,5.7,0c1,0,1.4,0.6,1,1.5
			c-1.4,3.3-2.1,6.8-3,10.2c-2.2,7.5-4.2,14.9-5.2,22.7c-1.3,10.4-0.9,20.6,4.1,30.1c0.9,1.8,2.1,3.5,3.2,5.2
			c0.3,0.4,0.9,0.8,0.3,1.4C45,202.1,44.8,202.1,44.6,202.1z"/>
		<path class="st12" d="M210.6,34.7c0.1,7.5-1.2,15.1-3,22.6c-0.9,3.7-2.2,7.3-3.2,11c-0.3,0.9-0.9,1.3-1.9,1.5
			c-2.3,0.4-4.6-0.3-6.9-0.1c-1.2,0.1-0.9-0.9-0.7-1.7c1-3.4,2-6.8,2.9-10.3c1.9-7.3,2.5-14.7,1.8-22.1c-0.4-3.8-0.9-7.5-2.5-11.1
			c-3-6.6-8-10.2-15-11.5c-6.1-1.1-11.9,0.1-17.7,1.8c-10.3,3-19.5,8.3-28.5,14c-3.4,2.1-6.8,4.2-9.9,6.7c-6,4.7-11.9,9.5-17.5,14.7
			c-6.1,5.6-12.4,11.1-17.7,17.5c-2.3,2.7-5.1,3.2-8.3,2.4c-1.2-0.3-1-1-0.3-1.8C85.8,64,89.6,60,93.4,56c5.4-5.6,10.8-11.2,16.9-16
			c3.8-3,7.6-6,11.4-9c5.5-4.3,11.3-8.1,17.2-11.8c0.6-0.4,1.2-0.7,1.4-1.4c0.1-0.4,0.5-0.7,0.9-0.9c4.2-2,8.2-4.4,12.5-6.4
			c10-4.5,20.3-7.8,31.4-6.8c7,0.6,13.2,3.3,18.2,8.7c5.3,5.7,6.7,12.7,7.2,20.1C210.5,33.1,210.5,33.8,210.6,34.7z"/>
		<path class="st12" d="M76.2,197.1c-5.7,0.2-11.1-1-15.9-4c-3.2-2-5.8-4.7-7.5-8.1c-3.2-6.5-4.7-13.2-4.4-20.6
			c0.3-8.4,1.5-16.6,3.7-24.7c0.6-2.2,1.4-4.4,2-6.6c0.3-1.2,1-1.8,2.2-1.9c1.9-0.2,3.9-0.4,5.8-0.4c2.2,0.1,2.8,0.8,2,2.9
			c-1.7,4.6-2.8,9.3-3.8,14c-1.7,8-2.2,16.1-0.5,24.1c2,9.9,9.6,16.2,19.7,16.7c6.1,0.3,12-0.7,17.6-2.9c2.8-1.1,5.7-2.2,8.5-3.5
			c5.7-2.6,11-5.7,16.2-9c5.1-3.2,9.9-6.8,14.6-10.4c10.7-8.3,20.4-17.7,29.9-27.3c0.8-0.8,1.7-1.6,2.4-2.4c1.9-2.3,4.4-2.4,7.1-2.2
			c1.5,0.2,1.7,0.8,0.9,2.1c-1.4,2.3-3.5,4.1-5.3,6.1c-9.1,10.1-19,19.5-29.5,28.2c-1.3,1-2.9,1.2-4.2,2.2
			c-7.3,5.9-15,11.2-23.3,15.7c-10,5.5-20.3,10-31.7,11.7c-1.1,0.2-2.2,0.3-3.4,0.4C78.3,197.2,77.3,197.1,76.2,197.1z"/>
		<path class="st12" d="M140.6,98.6c0-7,0-13.9,0-20.9c0-2.1,0.1-2.2,2.2-2.3c2.6-0.1,5.3-0.1,7.9-0.1c1,0,2,0.1,2.8,1
			c0.5,0.6,1.3,0.4,2,0c2.9-1.6,6.1-1.5,9.2-1.1c2.4,0.3,4.6,1.4,6.3,3.3c0.6,0.7,0.9,1.4,0.9,2.4c0,13,0,26,0,39.1
			c0,1.4-0.5,2.1-2,2.1c-2.5,0-5,0-7.5-0.1c-2.7-0.1-3.1-0.7-3.1-3.3c0-5.2-0.1-10.4-0.1-15.6c0-5.3,0.1-10.6,0.1-15.9
			c0-0.9,0-1.7-0.2-2.6c-0.3-1.7-1.5-2.6-3.2-2.6c-1.6,0.1-2.3,0.8-2.4,2.8c-0.3,4-0.1,8.1-0.1,12.1c0,7.7,0.1,15.3,0.1,23
			c0,1.3-0.5,2-1.9,2c-3.2-0.1-6.4,0.1-9.5-0.3c-1.3-0.1-1.4-0.9-1.4-1.9C140.6,112.7,140.6,105.7,140.6,98.6z"/>
		<path class="st12" d="M66.6,153.1c0-5.7,1.1-10.8,2.5-15.9c0.4-1.5,0.5-3.1,1.3-4.5c0.4-0.8,0.9-1.1,1.7-1c1.5,0,2.9,0,4.4,0
			c1.8,0,2.1,0.3,1.4,2c-1.3,3.7-2.6,7.3-3.4,11.1c-0.8,3.9-0.8,7.9-0.3,11.9c0.9,6.9,7.1,10.2,11.9,11.1c3.3,0.6,6.5,0.1,9.6-0.7
			c5.4-1.3,10.5-3.5,15.2-6.2c4.4-2.5,8.6-5.4,12.5-8.7c1.3-1.1,2.6-2.1,4.2-2.7c0.6-0.3,1.2-0.6,1.6-1.1c2.3-2.5,5-4.5,7.3-7
			c1.7-1.8,3.6-3.4,5-5.6c1.1-1.8,3.1-3,4.8-3.9c1.9-1,4.3-0.5,6.5-0.2c1.2,0.2,0.4,1.1,0.1,1.5c-0.8,1-1.8,2-2.8,2.9
			c-9.8,10.1-20.2,19.5-32.2,27c-8.1,5.1-16.7,9.5-26.3,11.2c-3.8,0.7-7.6,0.9-11.4,0c-6.5-1.5-10.2-5.9-12.4-11.9
			C66.9,159.3,66.6,156.1,66.6,153.1z"/>
		<path class="st12" d="M171.6,26.6c12-0.3,19,7.5,20.6,16.6c1.1,5.9,0,11.6-1.1,17.3c-0.6,2.9-1.6,5.6-2.5,8.4
			c-0.3,0.9-0.8,1.2-1.8,1.2c-1.8-0.1-3.4-1-5.3-0.5c-0.5,0.1-0.8-0.3-0.7-0.8c0.1-0.9,0.1-1.8,0.5-2.5c1.5-2.8,2.4-5.8,2.9-8.8
			c0.7-3.8,1.3-7.6,0.6-11.4c-1.7-8.6-6.5-12.6-16.1-12.4c-8.2,0.2-15.4,3.7-22.4,7.8c-9.2,5.3-17.1,12.2-24.7,19.6
			c-2.6,2.5-5.2,5-7.5,7.9c-1,1.2-2.2,1.8-3.8,1.5c-1.2-0.2-2.4-0.2-3.5-0.4c-1.3-0.2-1.4-0.7-0.5-1.6c5-5,9.9-10.1,15.2-14.8
			c2.7-2.4,5.4-5,8.3-7.1c9.1-6.6,18.6-12.7,29.2-16.8C163.5,27.9,168,26.9,171.6,26.6z"/>
		<path class="st13" d="M124.2,98.3c0-7.1,0-12.9,0-18.6c0-0.7,0.1-1.4,0.1-2.1c-0.1-1.3,0.6-1.7,1.7-1.9c2.8-0.5,5.7-0.5,8.6-0.3
			c1.6,0.1,2.2,1.1,2.5,2.7c0.3,2.2-0.7,4.1-0.7,6.2c0.1,11.7,0,23.3,0,35c0,2.5-0.2,2.7-2.7,2.7c-2,0-4,0-6,0
			c-2.7-0.1-3.3-0.8-3.4-3.4C124,111.4,124.3,104.2,124.2,98.3z"/>
		<path class="st13" d="M215,0.3c1.6,1.1,2.9,2.2,4.2,3.4c8,7.7,10.7,17.2,9.8,28.1c-0.7,8.3-2.9,16.3-4.8,24.4
			c-0.9,3.7-2.1,7.3-2.6,11.1c-0.3,2.7-1.4,3.1-4,2.7c-0.9-0.1-1.9,0-2.9,0c-1.9,0.1-2.3-0.4-2-2.2c0.7-3.6,1.9-7,2.8-10.4
			c0.9-3.2,1.5-6.5,2.7-9.6c2.4-6.5,3.1-13.2,3.4-20c0.4-8.8-1.7-17.1-6.1-24.8C215.1,2.3,215,1.4,215,0.3z"/>
		<path class="st13" d="M130.4,65.2c1.3,0,2.6,0.1,3.9,0c1.5-0.2,2.1,0.6,2.4,1.9c0.1,0.6,0.2,1.2,0.2,1.8c0.1,2.8-0.5,3.4-3.2,3.5
			c-2.9,0.1-5.7,0.3-8.5-0.6c-0.6-0.2-0.8-0.4-0.8-0.9c0-1.5,0-2.9,0-4.4c0-0.9,0.5-1.2,1.3-1.2C127.3,65.2,128.8,65.2,130.4,65.2z"
			/>
		<path class="st12" d="M117.5,76.2c-2.4,0-4.7,0-7,0c-0.6,0-1.4-0.1-1.8,0.4c-1.2,1.5-2.6,1.2-4.2,0.5c-2.7-1.2-5.5-1.7-8.4-1.1
			c-6.5,1.3-7.1,2.9-7,7.9c0.1,5,0,9.9,0,14.9c0,5.4,0.1,10.9,0.1,16.4c0,3.3,2.5,6.4,5.6,6.9c3.7,0.6,7.2,0.8,10.7-0.5
			c0.4-0.2,0.9-0.6,1.3-0.1c0.4,0.4,0.2,1,0,1.5c-0.8,1.6-2.2,2.4-3.8,2.4c-3.2,0-6.3,0.6-9.4,0.8c-2.1,0.1-2.2,0.2-2.2,2.3
			c0,0.3,0,0.5,0,0.8c0,2.4,0.1,2.5,2.4,2.5c4.9,0,9.7,0,14.6,0c2.4,0,4.7-0.2,6.9-0.9c2.8-0.9,4.1-2.9,4.7-5.8
			c0.5-2.9-0.1-5.7-0.1-8.5c0.2-12.5-0.4-25.1,0.3-37.7C120.3,76.5,119.9,76.2,117.5,76.2z M107.9,113.3c0,3-2.8,4.6-5.3,3.2
			c-1.2-0.7-1.5-1.7-1.5-3c-0.1-4.9-0.1-9.8-0.1-14.7c0-4.8,0-9.5,0-14.3c0-1.2,0.2-2.4,1.4-2.9c1.4-0.6,2.8-0.7,4.2,0.1
			c0.7,0.4,0.9,1.1,1,1.9c0.4,4,0.2,8,0.3,12C107.9,101.5,107.9,107.4,107.9,113.3z"/>
		<path class="st12" d="M84.9,105.5c0.1-0.8-0.4-1.2-1.3-1.3c-3.2-0.5-6.5-0.5-9.7-0.1c-2.1,0.3-2.2,0.4-2.2,2.7
			c0,2.2,0,4.4-0.1,6.6c-0.1,1.2-0.7,1.9-1.8,2.3c-1.1,0.5-1.9,0.1-2.6-0.7s-1.1-1.7-1.1-2.9c0-2.3,0-4.5,0-6.8c0-3.6,0-3.6,3.7-3.6
			c4.3,0,8.7,0,13.1,0c1.1,0,1.9-0.3,1.9-1.6c-0.1-5.7,0.4-11.5-0.3-17.3c-0.2-1.3-0.5-2.7-1.6-3.6c-1.6-1.3-3.2-2.6-5.3-3
			c-5.8-1.1-11.5-1.3-17.3,0.3c-4.3,1.2-6.6,4-6.6,8.4c0,4.6,0,9.3,0,13.9c0,4.8,0,9.6,0.1,14.3c0,3.8,2.1,6.7,5.7,7.9
			c4.5,1.5,9.1,1.6,13.8,1.3c2.7-0.2,5.3-0.7,7.6-2.1c2.1-1.2,3.4-2.9,3.8-5.3C85.3,111.7,84.7,108.6,84.9,105.5z M65.5,94.9V84.4
			c0.1-2.6,2.3-4.1,4.7-3.1c1.7,0.7,1.8,2.2,1.9,3.6c0.2,1.7,0.1,3.3,0.1,4.9c0,1.7,0,3.3,0,5c0,1.1-0.4,1.5-1.5,1.5
			c-1.2-0.1-2.5-0.1-3.7,0C66,96.3,65.5,96,65.5,94.9z"/>
		<path class="st12" d="M207.2,106.6c-0.2-1.5-0.7-1.7-2-1.7c-2.3,0.1-4.5,0-6.8,0c-4,0-4,0-4,3.9c0,2.1,0.2,4.2-0.5,6.3
			c-0.4,1.1-1.1,1.5-2.2,1.5c-1.4,0-2.6-1.3-2.6-3c-0.1-3-0.1-6.1,0.1-9.2c0.1-2.6,0.6-3,3.2-2.8c4.3,0.3,8.5,0.2,12.8,0.3
			c1.5,0.1,2.1-0.5,2.2-1.9c0-0.4,0.1-0.9,0.1-1.3c0.3-5.2-0.3-10.3-0.3-15.4c0-0.4-0.1-0.8-0.3-1.1c-1.3-2.8-3.5-4.6-6.6-5.4
			c-3.5-1-7-1.1-10.6-1c-4,0.1-7.9,0.8-11.1,3.4c-1.2,1-1.9,2.3-2,3.8c-0.2,2.5-0.1,5.1,0,7.7c0.2,6-0.2,12-0.3,18
			c0,1.7-0.1,3.4,0.2,5.3c0,2.2,0.9,4.5,2.6,5.4c2.2,1.1,4.4,2.3,6.9,2.7c4.7,0.7,9.3,0.7,13.9-0.1c4.3-0.8,8.1-4,7.9-8.8
			C207.8,110.9,207.4,108.8,207.2,106.6z M188.2,95c0.1-1.9,0.1-3.7,0.1-5.5c0-1.8,0-3.6,0-5.3c0.1-1.9,1.3-3,3.2-3.1
			c1.9-0.1,3.2,0.9,3.2,2.8c0.1,3.8,0.1,7.5,0.1,11.3c0,0.8-0.5,1.1-1.3,1.1c-1.3,0-2.7-0.1-4,0C188.5,96.3,188.2,95.9,188.2,95z"/>
	</g>
</g>
</svg>
