<?xml version="1.0" encoding="utf-8"?>
<!-- Generator: Adobe Illustrator 25.2.1, SVG Export Plug-In . SVG Version: 6.00 Build 0)  -->
<svg version="1.1" id="Camada_1" xmlns="http://www.w3.org/2000/svg" xmlns:xlink="http://www.w3.org/1999/xlink" x="0px" y="0px"
	 viewBox="0 0 247.2 202.1" style="enable-background:new 0 0 247.2 202.1;" xml:space="preserve">
<style type="text/css">
	.st0{fill:#10A4DE;}
	.st1{fill:#F9FC08;}
	.st2{fill:#0984C0;}
	.st3{fill:#07C7F1;}
	.st4{fill:#F5F6F6;}
	.st5{fill:#0EBE9D;}
	.st6{enable-background:new    ;}
</style>
<g>
	<g>
		<path class="st0" d="M31.7,95.2c-10-12.5-16.4-27.3-24.6-40.9c-3.7-6.2-2.3-8.1,5.5-9c26.4-3.1,52.9-6.1,79.3-9.1l1.1-0.1l1.1,0.1
			c0,2.8-0.1,5.5-0.1,8.3c-2.5,1.1-3.5,3.2-3.5,5.7c0,18.3,0.1,36.7-0.1,55c-0.1,6.1,3.1,7.1,8.1,7c11.1-0.3,22.2-0.5,33.3-0.7
			c1.6,4,5.2,3.3,8.5,3.6c8.3,0.6,16.5,2.1,24.1,5.8c-15.9,4.7-32.4,4.9-48.6,7.5c-17.7,2.9-35.5,4.6-53.2,7.1
			c-6.2,0.9-9.9-0.8-12.7-6.5c-4.1-8.2-9.8-15.6-12.9-24.3c0.7-0.6,1.4-1.2,2-1.9c3.3,2,6.5,4.3,9.9,6c9.2,4.5,18.6,4.8,28.3,1.7
			c6.1-2,7.2-6.6,5.7-11.5c-2.1-7.1-5.9-0.2-8.9-0.4c-0.4,0-0.9,0.4-1.3,0.5c-9.7,2.6-19.4-0.8-24.4-8.5c-4.9-7.5-4.8-17.4,0.3-24.8
			c5.2-7.5,15.2-10.8,24.6-8c1.8,0.5,3.6,1.5,5.3,2.5c2.2,1.2,3.7,0.9,3.8-1.8c0.2-4.8,1-9.3-5.3-11.9c-19.3-8-42.5,5.1-45.1,25.8
			c-0.9,7.3,0.5,14.5,1.1,21.8C32.5,94.6,32.1,94.9,31.7,95.2z"/>
		<path class="st1" d="M131.7,12c0.1-3.3,1.4-5.2,5.2-5.5c32.6-1.9,65.2-3.9,97.7-6.2c7.7-0.5,9.1,2.4,8.2,9.3
			c-3.9,30.4-7.6,60.8-11.3,91.2c-1.4,11.5-1.2,11.5-13.3,10.6c-1.5-0.1-2.9-0.4-4.4-0.5c-0.4-0.7-1-1.3-1.8-1.6
			c2.2-6.7,1.1-13.7,1.6-20.5c8.5-4.2,17.8-7.3,18.4-19.4c0.6-12.8-2.8-18.3-16.8-25c1.8-7.5-4.5-7.3-8.6-8.6
			c-24.8-7.7-49.6-15.1-74.5-22.7L131.7,12z"/>
		<path class="st2" d="M94,44.6c0-2.8,0.1-5.5,0.1-8.3c12.6-0.4,24.9-4.4,37.6-3.6c1.1,0.1,2.2-1.6,3.3-2.5c4.2,0,8.5,0,12.7,0
			c12.4,0.2,12.5,0.3,13.5,13.9c-1.9,0.3-3.9,0.4-5.7,0.9c-10.4,2.9-17,10.1-17.4,18.9c-0.4,8.9,3.9,14.4,15.1,18.9
			c3.1,1.3,6.5,2.1,9.5,3.6c3.2,1.6,5.6,4.1,4.7,8.1c-0.9,3.9-4.1,5.2-7.6,5.7c-4.4,0.5-8.6-0.1-12.8-1.9c-1.8-0.8-4.2-3.9-6.1-0.9
			c-1.1,1.8-0.9,4.6-0.8,7c0.2,4.9,4.1,6.2,7.9,7.2c7.2,1.8,14.5,0.7,21.8,0.3c0.1,2.9,0.1,5.8,0.2,8.7c-1.9,0.1-3.9,0.2-5.8,0.3
			c-7.6-3.7-15.7-5.2-24.1-5.8c-3.3-0.2-6.8,0.4-8.5-3.6c-0.2-12.9-0.2-12.9-12.1-13.1c-2.9,0-5.8-0.1-8.8,0c-4.4,0.1-7.4-1-7.6-6.4
			c-0.1-5.4,2.5-6.7,7.2-6.5c3.9,0.1,7.8-0.1,11.7,0c4.5,0.2,7.4-0.7,7.4-6.3c0.1-5.6-1.9-8.1-7.6-7.6c-3.4,0.3-6.8,0-10.2,0.1
			c-4.8,0.1-8.7-0.3-8.4-6.8c0.2-5.7,3.6-6,7.8-6c4.4,0,8.8-0.2,13.2,0c5.4,0.3,8-1.4,7.8-7.4c-0.2-5.3-2.7-6.5-7.3-6.5
			C114.4,45,104.2,44.8,94,44.6z"/>
		<path class="st3" d="M135.1,30.2c-1.1,0.9-2.3,2.5-3.3,2.5c-12.7-0.8-25,3.2-37.6,3.6L93,36.2l-1.1,0.1c-0.6-9.6-0.5-19.4-2-28.8
			c-1.3-7.9,2.4-7,7.2-5.6c11.5,3.3,23,6.8,34.6,10.2l0.6,1.1C131,19.2,136.2,24.2,135.1,30.2z"/>
		<path class="st3" d="M170.1,120.6c-0.1-2.9-0.1-5.8-0.2-8.7c2.8-2.1,5.7-4.1,8.5-6.2c3.1,0.2,6.1,0.3,9.2,0.5
			c3.3,9.9,5.4,10.3,12.2,2.7c4.1,0.1,8.2,0.2,12.3,0.3c0.8,0.3,1.4,0.8,1.8,1.6c-3.7,17.3-3.7,17.3-20.9,13.9
			C185.3,123.4,177.7,122,170.1,120.6z"/>
		<path class="st0" d="M34.9,100.9c-2.5-1.1-2.8-3.4-3.2-5.7c0.4-0.3,0.8-0.6,1.2-1c2.5,1,2.7,3.4,3.1,5.6
			C35.7,100.2,35.3,100.6,34.9,100.9z"/>
		<path class="st0" d="M36.8,104.8c-0.6-1.3-1.3-2.6-1.9-3.8c0.4-0.4,0.8-0.7,1.2-1.1c1.7,0.3,2.4,1.6,2.7,3.1
			C38.2,103.6,37.5,104.2,36.8,104.8z"/>
		<path class="st4" d="M94,44.6c10.2,0.2,20.4,0.5,30.7,0.5c4.6,0,7.1,1.2,7.3,6.5c0.2,6-2.3,7.7-7.8,7.4c-4.4-0.3-8.8,0-13.2,0
			c-4.2,0-7.6,0.3-7.8,6c-0.2,6.5,3.7,7,8.4,6.8c3.4-0.1,6.8,0.2,10.2-0.1c5.7-0.5,7.7,2,7.6,7.6c-0.1,5.5-3,6.4-7.4,6.3
			c-3.9-0.2-7.8,0.1-11.7,0c-4.6-0.1-7.3,1.2-7.2,6.5c0.1,5.4,3.2,6.5,7.6,6.4c2.9-0.1,5.8,0,8.8,0c11.9,0.2,11.9,0.2,12.1,13.1
			c-11.1,0.2-22.2,0.3-33.3,0.7c-5,0.2-8.2-0.8-8.1-7c0.3-18.3,0.1-36.7,0.1-55C90.5,47.7,91.4,45.6,94,44.6z"/>
		<path class="st4" d="M38.8,102.9c-0.4-1.5-1.1-2.7-2.7-3.1c-0.4-2.2-0.6-4.5-3.1-5.6c-0.7-7.2-2-14.5-1.1-21.8
			c2.6-20.8,25.8-33.8,45.1-25.8c6.3,2.6,5.4,7.1,5.3,11.9c-0.1,2.7-1.5,3-3.8,1.8c-1.7-0.9-3.4-1.9-5.3-2.5
			c-9.5-2.8-19.5,0.5-24.6,8c-5.1,7.4-5.2,17.2-0.3,24.8c5,7.7,14.6,11.1,24.4,8.5c0.5-0.1,0.9-0.6,1.3-0.5c3,0.3,6.9-6.7,8.9,0.4
			c1.4,4.9,0.4,9.6-5.7,11.5c-9.7,3.1-19.2,2.8-28.3-1.7C45.3,107.2,42.1,104.9,38.8,102.9z"/>
		<path class="st5" d="M187.6,106.3c-3.1-0.2-6.1-0.3-9.2-0.5c6.8-18.1,3.9-25.1-14.2-34.2c0-4.8,0-9.6,0.1-14.5
			c3.6-0.8,6.3,1.5,9.3,2.9c3.8,1.7,4.9,0.7,4.9-3.3c0-4.7-1-8.4-6.2-9.7c-3.6-0.9-7.3-1.9-10.9-2.9c-1-13.6-1.1-13.7-13.5-13.9
			c-4.2-0.1-8.5,0-12.7,0c1.1-6-4.1-11-2.8-17.1c24.8,7.5,49.7,15,74.5,22.7c4.1,1.3,10.4,1.1,8.6,8.6c-5.8-0.1-11.7,0.2-17.5-0.3
			c-7.5-0.7-10.2,1.8-10,9.7C188.3,71.2,187.7,88.8,187.6,106.3z"/>
		<path class="st4" d="M187.6,106.3c0.1-17.5,0.7-35,0.2-52.5c-0.2-7.9,2.5-10.4,10-9.7c5.8,0.5,11.7,0.3,17.5,0.3
			c14,6.7,17.3,12.2,16.8,25c-0.5,12.1-9.9,15.2-18.4,19.4c-14.3-0.3-14.4-0.3-14.4,13c0,2.4,0.3,4.8,0.4,7.2
			C193,116.6,190.8,116.1,187.6,106.3z M217.2,65.9c-0.1-9.2-2.5-11.9-10.1-12.5c-10-0.9-7.3,6.3-7.7,11.5c-0.1,2.4,0.2,4.8-0.1,7.2
			c-0.7,7.6,4.3,7.8,9.3,6.7C215.4,77.5,217.5,72.4,217.2,65.9z"/>
		<path class="st5" d="M199.8,109c-0.2-2.4-0.4-4.8-0.4-7.2c0-13.4,0-13.4,14.4-13c-0.5,6.8,0.5,13.8-1.6,20.5
			C208,109.2,203.9,109.1,199.8,109z"/>
		<path class="st4" d="M164.1,71.6c18.1,9.1,21,16.1,14.2,34.2c-2.8,2.1-5.7,4.1-8.5,6.2c-7.3,0.4-14.6,1.5-21.8-0.3
			c-3.8-0.9-7.7-2.3-7.9-7.2c-0.1-2.3-0.3-5.2,0.8-7c1.9-2.9,4.3,0.1,6.1,0.9c4.2,1.8,8.4,2.4,12.8,1.9c3.5-0.4,6.7-1.8,7.6-5.7
			c0.9-4-1.6-6.5-4.7-8.1c-3-1.5-6.4-2.3-9.5-3.6c-11.1-4.5-15.5-10.1-15.1-18.9c0.4-8.8,7-16,17.4-18.9c1.9-0.5,3.8-0.6,5.7-0.9
			c3.6,1,7.2,2,10.9,2.9c5.2,1.3,6.2,5,6.2,9.7c0,4-1.1,5-4.9,3.3c-2.9-1.3-5.6-3.7-9.3-2.9c-5-1.2-9.9-0.7-11.4,4.9
			c-1.4,5.3,3.7,6.9,7.2,8.9C161.1,71.6,162.7,71.4,164.1,71.6z"/>
		<path class="st2" d="M164.1,71.6c-1.4-0.2-3,0-4.1-0.6c-3.5-2.1-8.6-3.6-7.2-8.9c1.5-5.6,6.3-6.1,11.4-4.9
			C164.2,61.9,164.2,66.7,164.1,71.6z"/>
		<path class="st5" d="M217.2,65.9c0.4,6.5-1.8,11.6-8.5,13c-5,1-10,0.8-9.3-6.7c0.2-2.4-0.1-4.8,0.1-7.2c0.3-5.3-2.3-12.4,7.7-11.5
			C214.6,54,217,56.7,217.2,65.9z"/>
	</g>
	<g class="st6">
		<path d="M40.7,170.1c-0.9,0.4-2.1,0.6-3.6,0.6c-1.9,0-3.4-0.5-4.5-1.5c-1.1-1-1.6-2.3-1.6-4c0-1.8,0.6-3.2,1.8-4.3
			c1.2-1.1,2.8-1.6,4.8-1.6c1.2,0,2.2,0.1,3.1,0.4v2.4c-0.8-0.4-1.8-0.7-2.9-0.7c-1.2,0-2.1,0.3-2.8,1c-0.7,0.6-1.1,1.5-1.1,2.6
			c0,1.1,0.3,1.9,1,2.5c0.7,0.6,1.6,0.9,2.7,0.9c1.1,0,2.1-0.2,3-0.7V170.1z"/>
		<path d="M50.3,170.5h-7.5v-11H50v2h-4.4v2.4h4.1v2h-4.1v2.5h4.7V170.5z"/>
		<path d="M63.5,170.5h-2.8l-5.1-6.9c-0.3-0.4-0.5-0.7-0.6-0.9h0c0,0.4,0.1,1,0.1,1.8v6h-2.7v-11h3l5,6.7c0.2,0.3,0.4,0.6,0.6,0.9h0
			c0-0.3-0.1-0.8-0.1-1.5v-6.1h2.7V170.5z"/>
		<path d="M75.2,161.5h-3.6v9h-2.8v-9h-3.5v-2h9.9V161.5z"/>
		<path d="M87.3,170.5h-3.2l-1.9-2.8c-0.1-0.2-0.3-0.4-0.4-0.6c-0.1-0.2-0.3-0.3-0.4-0.4c-0.1-0.1-0.3-0.2-0.4-0.3
			c-0.1-0.1-0.3-0.1-0.5-0.1h-0.8v4.2h-2.8v-11h4.5c3,0,4.5,1,4.5,3c0,0.4-0.1,0.7-0.2,1.1c-0.1,0.3-0.3,0.6-0.6,0.9
			c-0.2,0.3-0.5,0.5-0.9,0.7c-0.3,0.2-0.7,0.3-1.2,0.4v0c0.2,0.1,0.4,0.1,0.5,0.2c0.2,0.1,0.3,0.2,0.5,0.4c0.2,0.2,0.3,0.3,0.5,0.5
			c0.1,0.2,0.3,0.3,0.4,0.5L87.3,170.5z M79.6,161.4v3.1h1.2c0.6,0,1.1-0.2,1.5-0.5c0.4-0.3,0.6-0.7,0.6-1.2c0-1-0.7-1.4-2-1.4H79.6
			z"/>
		<path d="M93.7,170.7c-1.8,0-3.2-0.5-4.4-1.5c-1.1-1-1.7-2.4-1.7-4c0-1.7,0.6-3.1,1.7-4.2c1.1-1.1,2.7-1.6,4.5-1.6
			c1.8,0,3.2,0.5,4.3,1.5c1.1,1,1.6,2.4,1.6,4.1c0,1.7-0.6,3.1-1.7,4.2C97.1,170.2,95.6,170.7,93.7,170.7z M93.9,161.5
			c-1,0-1.8,0.3-2.3,1c-0.6,0.7-0.9,1.5-0.9,2.6c0,1.1,0.3,2,0.9,2.6c0.6,0.6,1.3,1,2.3,1c1,0,1.7-0.3,2.3-0.9
			c0.6-0.6,0.9-1.5,0.9-2.6c0-1.1-0.3-2-0.8-2.7S94.8,161.5,93.9,161.5z"/>
		<path d="M114.4,170.5h-7.5v-11h7.2v2h-4.4v2.4h4.1v2h-4.1v2.5h4.7V170.5z"/>
		<path d="M116.4,170.5v-11h4.4c4.4,0,6.6,1.8,6.6,5.4c0,1.7-0.6,3.1-1.8,4.1s-2.8,1.5-4.8,1.5H116.4z M119.2,161.5v7h1.4
			c1.2,0,2.2-0.3,2.9-1c0.7-0.6,1-1.5,1-2.6c0-1-0.3-1.9-1-2.5c-0.7-0.6-1.7-0.9-2.9-0.9H119.2z"/>
		<path d="M139.7,165.8c0,3.3-1.7,5-5.2,5c-3.4,0-5.1-1.6-5.1-4.8v-6.3h2.8v6.4c0,1.8,0.8,2.7,2.4,2.7c1.5,0,2.3-0.9,2.3-2.6v-6.5
			h2.8V165.8z"/>
		<path d="M151.4,170.1c-0.9,0.4-2.1,0.6-3.6,0.6c-1.9,0-3.4-0.5-4.5-1.5c-1.1-1-1.6-2.3-1.6-4c0-1.8,0.6-3.2,1.8-4.3
			c1.2-1.1,2.8-1.6,4.8-1.6c1.2,0,2.2,0.1,3.1,0.4v2.4c-0.8-0.4-1.8-0.7-2.9-0.7c-1.2,0-2.1,0.3-2.8,1c-0.7,0.6-1.1,1.5-1.1,2.6
			c0,1.1,0.3,1.9,1,2.5c0.7,0.6,1.6,0.9,2.7,0.9c1.1,0,2.1-0.2,3-0.7V170.1z"/>
		<path d="M164.5,170.5h-3.1l-0.9-2.4h-4.4l-0.9,2.4h-3l4.5-11h3.3L164.5,170.5z M159.9,166.2l-1.3-3.7c-0.1-0.3-0.2-0.6-0.2-1h-0.1
			c0,0.3-0.1,0.6-0.2,1l-1.4,3.7H159.9z"/>
		<path d="M175,170.1c-0.9,0.4-2.1,0.6-3.6,0.6c-1.9,0-3.4-0.5-4.5-1.5c-1.1-1-1.6-2.3-1.6-4c0-1.8,0.6-3.2,1.8-4.3
			c1.2-1.1,2.8-1.6,4.8-1.6c1.2,0,2.2,0.1,3.1,0.4v2.4c-0.8-0.4-1.8-0.7-2.9-0.7c-1.2,0-2.1,0.3-2.8,1c-0.7,0.6-1.1,1.5-1.1,2.6
			c0,1.1,0.3,1.9,1,2.5c0.7,0.6,1.6,0.9,2.7,0.9c1.1,0,2.1-0.2,3-0.7V170.1z"/>
		<path d="M181,159.5v1.9h-1v7.2h1v1.9h-4.9v-1.9h1v-7.2h-1v-1.9H181z"/>
		<path d="M188.1,170.7c-1.8,0-3.2-0.5-4.4-1.5c-1.1-1-1.7-2.4-1.7-4c0-1.7,0.6-3.1,1.7-4.2c1.1-1.1,2.7-1.6,4.5-1.6
			c1.8,0,3.2,0.5,4.3,1.5c1.1,1,1.6,2.4,1.6,4.1c0,1.7-0.6,3.1-1.7,4.2S189.9,170.7,188.1,170.7z M188.2,161.5c-1,0-1.8,0.3-2.3,1
			c-0.6,0.7-0.9,1.5-0.9,2.6c0,1.1,0.3,2,0.9,2.6c0.6,0.6,1.3,1,2.3,1c1,0,1.7-0.3,2.3-0.9c0.6-0.6,0.9-1.5,0.9-2.6
			c0-1.1-0.3-2-0.8-2.7C189.9,161.8,189.2,161.5,188.2,161.5z"/>
		<path d="M207.6,170.5h-2.8l-5.1-6.9c-0.3-0.4-0.5-0.7-0.6-0.9h0c0,0.4,0.1,1,0.1,1.8v6h-2.7v-11h3l5,6.7c0.2,0.3,0.4,0.6,0.6,0.9
			h0c0-0.3-0.1-0.8-0.1-1.5v-6.1h2.7V170.5z"/>
		<path d="M221.4,170.5h-3.1l-0.9-2.4H213l-0.9,2.4h-3l4.5-11h3.3L221.4,170.5z M216.8,166.2l-1.3-3.7c-0.1-0.3-0.2-0.6-0.2-1h-0.1
			c0,0.3-0.1,0.6-0.2,1l-1.4,3.7H216.8z"/>
		<path d="M230.4,170.5H223v-11h2.8v9h4.6V170.5z"/>
	</g>
	<g class="st6">
		<path d="M31.7,200.8v-4c0.8,0.6,1.7,1.1,2.7,1.4c1,0.3,2,0.5,2.9,0.5c0.6,0,1.1,0,1.5-0.1c0.4-0.1,0.8-0.2,1.1-0.4
			c0.3-0.2,0.5-0.4,0.7-0.6c0.1-0.2,0.2-0.5,0.2-0.7c0-0.4-0.1-0.7-0.3-0.9c-0.2-0.3-0.5-0.5-0.9-0.8c-0.4-0.2-0.9-0.5-1.4-0.7
			s-1.1-0.4-1.8-0.7c-1.6-0.6-2.8-1.3-3.6-2.2c-0.8-0.8-1.2-1.9-1.2-3.1c0-0.9,0.2-1.7,0.6-2.4c0.4-0.7,1-1.2,1.8-1.7
			c0.7-0.4,1.6-0.8,2.6-1c1-0.2,2-0.3,3.1-0.3c1.1,0,2,0.1,2.8,0.2c0.8,0.1,1.6,0.3,2.3,0.5v3.8c-0.3-0.2-0.7-0.4-1.1-0.6
			c-0.4-0.2-0.8-0.3-1.3-0.4c-0.4-0.1-0.9-0.2-1.3-0.2c-0.4-0.1-0.8-0.1-1.2-0.1c-0.5,0-1,0-1.4,0.1c-0.4,0.1-0.8,0.2-1.1,0.4
			c-0.3,0.2-0.5,0.4-0.7,0.6c-0.2,0.2-0.2,0.5-0.2,0.7c0,0.3,0.1,0.6,0.3,0.8c0.2,0.2,0.4,0.5,0.8,0.7c0.3,0.2,0.7,0.4,1.2,0.6
			c0.5,0.2,1,0.4,1.6,0.6c0.8,0.3,1.6,0.6,2.2,1c0.7,0.3,1.2,0.7,1.7,1.2s0.8,0.9,1.1,1.5c0.2,0.6,0.4,1.2,0.4,1.9
			c0,1-0.2,1.9-0.7,2.5c-0.4,0.7-1,1.2-1.8,1.7c-0.7,0.4-1.6,0.7-2.6,0.9c-1,0.2-2,0.3-3.1,0.3c-1.1,0-2.2-0.1-3.2-0.3
			C33.3,201.4,32.4,201.1,31.7,200.8z"/>
		<path d="M67.1,201.5h-5l-1.5-4h-7.3l-1.4,4h-5l7.5-18.1h5.5L67.1,201.5z M62.1,177.8c0,1.2-0.3,2.1-0.8,2.7c-0.5,0.6-1.3,1-2.2,1
			c-0.8,0-1.6-0.2-2.4-0.5c-0.8-0.4-1.4-0.6-1.8-0.6c-0.8,0-1.1,0.5-1.1,1.4h-2c0-1.2,0.3-2.1,0.8-2.7c0.5-0.6,1.3-1,2.2-1
			c0.8,0,1.6,0.2,2.4,0.6c0.8,0.4,1.3,0.6,1.7,0.6c0.7,0,1.1-0.5,1.1-1.4H62.1z M59.5,194.3l-2.2-6.1c-0.2-0.5-0.3-1-0.3-1.6h-0.1
			c0,0.5-0.2,1.1-0.4,1.6l-2.2,6.1H59.5z"/>
		<path d="M78.3,201.8c-2.9,0-5.3-0.8-7.2-2.5c-1.8-1.7-2.8-3.9-2.8-6.6c0-2.9,0.9-5.2,2.8-6.9c1.9-1.8,4.4-2.6,7.5-2.6
			c2.9,0,5.3,0.8,7.1,2.5c1.8,1.7,2.7,3.9,2.7,6.7c0,2.8-0.9,5.1-2.8,6.9S81.3,201.8,78.3,201.8z M78.5,186.6
			c-1.6,0-2.9,0.5-3.9,1.6c-1,1.1-1.4,2.5-1.4,4.3c0,1.8,0.5,3.2,1.4,4.2c1,1,2.2,1.6,3.7,1.6c1.6,0,2.9-0.5,3.8-1.5
			c0.9-1,1.4-2.4,1.4-4.2c0-1.9-0.5-3.3-1.4-4.4C81.3,187.1,80.1,186.6,78.5,186.6z"/>
		<path d="M104.5,195.2v6.2h-4.6v-18.1h7.2c5.2,0,7.7,1.9,7.7,5.8c0,1.8-0.7,3.3-2.2,4.4c-1.5,1.1-3.5,1.7-5.9,1.7H104.5z
			 M104.5,186.5v5.6h1.8c2.5,0,3.7-0.9,3.7-2.8c0-1.9-1.2-2.8-3.7-2.8H104.5z"/>
		<path d="M135.9,201.5h-5l-1.5-4h-7.3l-1.4,4h-5l7.5-18.1h5.5L135.9,201.5z M128.4,194.3l-2.2-6.1c-0.2-0.5-0.3-1-0.3-1.6h-0.1
			c0,0.5-0.2,1.1-0.4,1.6l-2.2,6.1H128.4z"/>
		<path d="M152.9,186.7H147v14.8h-4.6v-14.8h-5.8v-3.3h16.3V186.7z"/>
		<path d="M172.8,201.5h-5.3l-3.2-4.6c-0.2-0.4-0.5-0.7-0.7-0.9c-0.2-0.3-0.4-0.5-0.7-0.7c-0.2-0.2-0.5-0.3-0.7-0.5
			c-0.2-0.1-0.5-0.2-0.8-0.2h-1.2v6.9h-4.6v-18.1h7.3c5,0,7.5,1.6,7.5,4.9c0,0.6-0.1,1.2-0.3,1.7c-0.2,0.5-0.5,1-0.9,1.4
			c-0.4,0.4-0.9,0.8-1.5,1.1c-0.6,0.3-1.2,0.6-1.9,0.7v0.1c0.3,0.1,0.6,0.2,0.9,0.4c0.3,0.2,0.6,0.4,0.8,0.7
			c0.3,0.3,0.5,0.5,0.8,0.8c0.2,0.3,0.5,0.6,0.7,0.9L172.8,201.5z M160.2,186.5v5h2c1,0,1.8-0.3,2.4-0.8c0.6-0.5,0.9-1.1,0.9-1.9
			c0-1.6-1.1-2.4-3.2-2.4H160.2z"/>
		<path d="M181.1,183.4v3.1h-1.7v11.8h1.7v3.1h-8v-3.1h1.7v-11.8H173v-3.1H181.1z M181.7,177.7l-4.5,4.1H174l3.7-4.1H181.7z"/>
		<path d="M198.7,200.8c-1.5,0.6-3.5,1-5.9,1c-3.1,0-5.6-0.8-7.4-2.4c-1.8-1.6-2.7-3.8-2.7-6.5c0-2.9,1-5.2,3-7
			c2-1.8,4.7-2.7,7.9-2.7c2,0,3.7,0.2,5.1,0.7v3.9c-1.4-0.7-2.9-1.1-4.7-1.1c-1.9,0-3.5,0.5-4.7,1.6c-1.2,1.1-1.8,2.5-1.8,4.3
			c0,1.7,0.6,3.1,1.7,4.2c1.1,1,2.6,1.6,4.5,1.6c1.8,0,3.5-0.4,4.9-1.2V200.8z"/>
		<path d="M208.6,183.4v3.1h-1.7v11.8h1.7v3.1h-8v-3.1h1.7v-11.8h-1.7v-3.1H208.6z"/>
		<path d="M220.2,201.8c-2.9,0-5.3-0.8-7.2-2.5c-1.8-1.7-2.8-3.9-2.8-6.6c0-2.9,0.9-5.2,2.8-6.9c1.9-1.8,4.4-2.6,7.5-2.6
			c2.9,0,5.3,0.8,7.1,2.5c1.8,1.7,2.7,3.9,2.7,6.7c0,2.8-0.9,5.1-2.8,6.9S223.2,201.8,220.2,201.8z M220.4,186.6
			c-1.6,0-2.9,0.5-3.9,1.6c-1,1.1-1.4,2.5-1.4,4.3c0,1.8,0.5,3.2,1.4,4.2s2.2,1.6,3.7,1.6c1.6,0,2.9-0.5,3.8-1.5
			c0.9-1,1.4-2.4,1.4-4.2c0-1.9-0.5-3.3-1.4-4.4C223.2,187.1,222,186.6,220.4,186.6z"/>
	</g>
</g>
</svg>
