<?xml version="1.0" encoding="utf-8"?>
<!-- Generator: Adobe Illustrator 25.2.1, SVG Export Plug-In . SVG Version: 6.00 Build 0)  -->
<svg version="1.1" id="Camada_1" xmlns="http://www.w3.org/2000/svg" xmlns:xlink="http://www.w3.org/1999/xlink" x="0px" y="0px"
	 viewBox="0 0 247.2 202.1" style="enable-background:new 0 0 247.2 202.1;" xml:space="preserve">
<style type="text/css">
	.st0{fill:#E80000;}
	.st1{fill:#2691C7;}
</style>
<g>
	<path class="st0" d="M57.7,78.8C51.9,85,45.9,89.7,40.5,94.5C38.2,94.9,38,92.6,36,92c-7.4,2-14.8,5.1-20.7,11
		c-7.3,7.4-5.4,15.2,4.3,18.9c2.4,0.9,5.3,0.8,7.9,2.8c-9.3,1.8-20.6-2.3-25.5-8.9c-2.9-3.9-2.8-8.4,0.4-13.1
		c3.9-5.9,9.6-9.7,15.6-12.9c4.7-2.5,9.7-4.4,14.8-6.8c1.6-1.2,0.1-3.2,2.1-4.3C42,78.7,49.3,78.2,57.7,78.8z"/>
	<path class="st1" d="M162.7,94.4c-1.1-5.8-5.5-8.4-10.6-9.9c-9.9-2.9-20-1.3-31-1.5c1.3,2.6,3.9,3,4.2,5.1c-0.9,8-1,16.1-3.5,22.9
		c-1.9,2.4-4.1,2.1-5.5,4.2c10.6-0.7,21.2,1.9,31.6-0.8c3.3-0.9,6.3-2.5,9-4.7C161.9,105.7,163.9,100.6,162.7,94.4z M151.7,107.4
		c-5.1,5.8-13.7,7.5-22,4c-0.6-8.9,1.6-17.1,2.8-25.2c10.4-2.1,17.6-0.1,21.1,5.8C156.4,96.7,155.7,102.9,151.7,107.4z"/>
	<path class="st1" d="M191.9,103.8c-2.6-4.3-6.5-5.2-11.1-4.9c-1.8,4.1-1.8,7.9-0.6,11.7c7.7,3.5,15.5,2.1,24.6-4.5
		c0.7,3.4-1.2,5.7-2.5,8.4c-7.1,0.1-13.9,0.3-20.8,0.3c-5,0-10-0.3-16.1-0.5c2.4-2.2,5-1.4,7-4.3c1.7-6.7,2.1-14.8,2-22.9
		c-0.2-2.3-3.4-1.9-3.8-4.5c11-0.2,21.9-0.4,32.6-0.5c2,2.7,1.7,5.2,1.5,9.6c-6.3-8.3-13.8-8-21.8-6.8c-2.7,3.2-2.1,7-2.2,10.9
		c5.3,1.4,9.4,0.1,13.5-5.1c-0.5,5.3-0.8,8.8-1.1,12.3C192.7,103.3,192.3,103.5,191.9,103.8z"/>
	<path class="st1" d="M89.8,84.3c-0.1,3.8,0.4,6.5-0.5,9.1c-2.6,0.5-3-1.6-4.1-2.7c-4.8-5-11.4-6.4-17.4-3.4
		c-5.9,2.9-9.3,10.1-7.9,16.7c1.7,8,11.4,12.3,20,8.8c3.1-1.2,5.6-3.4,8.4-5.9c0.6,3.6-1.6,4.6-3.2,5.6c-6.2,4-12.8,5.4-20.1,3.7
		c-6.6-1.6-12-4.6-13.3-12c-1.1-5.9,3-13.8,9.1-17.1c6.4-3.4,13.2-4.9,20.3-2.8C83.9,85.1,86.5,85.5,89.8,84.3z"/>
	<path class="st1" d="M247.1,88.1c-0.6-4-3.4-5.6-7.1-6.3c-8.6-1.7-17.2-0.3-25.9-0.4c0,3,3.5,2.4,3.7,4.8
		c-0.8,7.8-1.6,15.6-2.3,23.5c-1.1,1.8-4.2,1.1-4.2,3.9c5-0.1,9.9,0.4,15-0.6c-1-2.2-3.5-1.7-4.3-4.5c0.4-2.4-0.7-5.9,1.6-9.5
		c5.7,0.1,11.6-0.3,17.3-2.3C245,95.4,247.6,91.6,247.1,88.1z M224,96.1c-1.4-2,0-4.1,0-6.1c0.1-1.9-0.3-3.9,0.8-5.6
		c8.8-2.2,11.9-1.4,15.6,4.3C237.1,96,234.2,97.3,224,96.1z"/>
	<path class="st1" d="M97.8,83.6c4.7-0.9,9.5-0.2,14.7-0.5c-0.5,3.2-4,2.4-4.5,4.7c-1.9,7.7-2.2,15.6-1.9,23.4
		c0.3,2,2.9,1.8,3.5,3.9c-4.9,0.9-9.7,0.5-14.6,0.5c0-2.5,3.2-1.4,3.4-3.6C98.6,103,103.3,93.7,97.8,83.6z"/>
	<path class="st0" d="M22.9,84.6c-5.5,0-10-3.6-9.8-8c0.2-3.9,3.8-6.8,8.6-6.8c5.7,0,10.2,3.3,10.2,7.5
		C31.9,81.2,27.8,84.6,22.9,84.6z"/>
</g>
</svg>
