<?xml version="1.0" encoding="utf-8"?>
<!-- Generator: Adobe Illustrator 25.2.1, SVG Export Plug-In . SVG Version: 6.00 Build 0)  -->
<svg version="1.1" id="Camada_1" xmlns="http://www.w3.org/2000/svg" xmlns:xlink="http://www.w3.org/1999/xlink" x="0px" y="0px"
	 viewBox="0 0 247.2 202.1" style="enable-background:new 0 0 247.2 202.1;" xml:space="preserve">
<style type="text/css">
	.st0{fill:#28749D;}
	.st1{fill:#03863F;}
	.st2{fill:#DDDDDD;}
	.st3{fill:#EFEFEF;}
	.st4{fill:#FAFAFA;}
</style>
<g>
	<g>
		<path class="st0" d="M102.4,180c-11.2,8.5-20,7-28-5.8C64.1,157.9,59,139.4,54.1,121c-1.7-6.2-4.4-9.8-10.8-12
			c-21.7-7.7-29.4-29.4-17.4-47.7c0.8-1.3,2.2-3.2,3.2-3.1c2.4,0.3,1.1,2.3,0.9,3.8c-3.8,23,4.3,35.4,27.3,40.1
			c35.6,7.3,68.7-1.8,100.6-16.9c19.5-9.3,37.2-21.3,49.8-39.3c9.5-13.5,16.6-27.8,1.8-42.7c-0.6-0.6-0.4-2-0.6-3.1
			c1.8,0.3,4,0.1,5.4,1c11.4,7.8,16,19.8,10.6,31.4c-7.9,16.9-6.1,34.8-9.3,52.1c-6.5,36.3-16.6,71.4-37.6,102.2
			c-13.8,20.2-29.7,20.3-41.7,1.3c-3.4-2.9-4.6-6.9-4.9-11.1c-0.3-3.7-1.4-6.5-4-9.2c-6.1-6.1-7.3-6.3-12.2,0.7
			C111.7,173.3,108.1,177.8,102.4,180z"/>
		<path class="st1" d="M51.5,57.3c1.2,9.6,2.4,19.2,3.5,28.9c0.3,2.5,1.4,5.7-2.1,6.4c-3.3,0.7-5.8-1.5-6.4-4.7
			c-3.9-21.5-7-43,1.6-64.1c6.7-16.6,23-23.5,40-16.5c12.8,5.3,25.2,11.8,37.5,18.1c7.8,4,13.9,3.5,21-2.5
			c11.7-9.9,23.3-20.8,40.6-20.3c8.9,0.3,15.6,4,20.9,10.6c4.1,5,7.6,12.3,1.6,16.2c-5.1,3.3-4.9-5.4-7.2-8.5
			c-9.3-12.3-20.3-11.7-31.5-4.3c-9.7,6.4-18.4,14.2-27.8,21.2c-11.2,8.3-23.4,13.7-37.7,13.2c-1.4,0-2.7-1.2-4.1-1.8
			c1.2-0.8,2.3-2.1,3.6-2.5c7.5-2.3,16.2-1.8,21.8-8.8c-6.8-4.1-13.6-8.1-20.4-12.2c-0.3-0.2-0.6-0.3-0.8-0.5
			C68.7,4.8,51.7,14.9,51.5,57.3z"/>
		<path class="st2" d="M180.4,22.8c13.6,0.9,19,9,20,19.2c0.9,9.9-9.7,12.6-15.4,18.2c-1.7,1.6-4.3-0.8-5.3-2.9
			c-3.8-7.9-10.6-14.7-13.2-22.1C162.2,23,176.3,26.7,180.4,22.8z"/>
		<path class="st3" d="M102.4,180c4.4-7.5,8.8-15,13.2-22.6c1.6-2.7,2.4-7.3,5.8-7c4.2,0.4,5.7,4.7,6.7,8.6c2.7,9.6,5.3,19.3,8,28.9
			c-2.7-1.3-5.3-3-5.6-6.2c-1.6-15.5-8.4-13.5-17.4-5.4C110.2,179.1,106.5,180.1,102.4,180z"/>
		<path class="st4" d="M206.2,85.3c-4.9,31.6-14.4,61.8-30.9,89.4c-2,3.3-4.4,6.4-7,9.2c-12.5,13.7-20.5,12-26.7-5.7
			c-4.1-11.8-6.6-24-13-35.3c-4.1-7.2,6.3-13.5,9.7-20.4c2-4.1,10-8.2,6.3-11.1c-3.8-3-8.2,4.4-11.6,8c-13,13.8-21,31-31.5,46.5
			c-9.5,14-16.1,13.5-22.8-1.9c-5.8-13.3-10.4-27.2-15.4-40.9c-2.1-5.7-1.2-9.4,6.3-9c39.5,1.9,75.5-9.3,109.2-29.3
			c6.9-2.5,6.6,2.4,6.8,6.7c1.2,17.9-3.9,34.7-8.7,51.5c-0.4,1.3-1,2.3-1.4,3.5c0.4-1.1,0.9-2.3,1.3-3.4c8-21,16.4-41.8,19.1-64.4
			c0.5-4.5,4.9-7.3,6.1-11.6c0.6-0.7,1.2-1.4,1.8-2.1c3-0.1,4.1,1.9,3.7,4.2C206.5,74.7,208,80.1,206.2,85.3z"/>
		<path class="st2" d="M202,67.3c-2.2,32.9-12.9,63.1-29.2,91.4c-1.2,2.1-4.6,5.3-5.1,5c-3.6-2.4-0.1-5,0.6-7.3
			c6.6-20.4,12.1-40.9,12.5-62.5c0.1-3.1,1.2-6.6-2.1-8.9C186.5,79,194.2,73.1,202,67.3z"/>
		<path class="st2" d="M206.2,85.3c-1-6.7,1.3-13.8-2.4-20.1c1.5-1,2.9-2.1,4.4-3.1c0.4,1.4,1.4,2.9,1.2,4.3
			C208.5,72.6,207.3,78.9,206.2,85.3z"/>
	</g>
</g>
</svg>
