<?xml version="1.0" encoding="utf-8"?>
<!-- Generator: Adobe Illustrator 25.2.1, SVG Export Plug-In . SVG Version: 6.00 Build 0)  -->
<svg version="1.1" id="Camada_1" xmlns="http://www.w3.org/2000/svg" xmlns:xlink="http://www.w3.org/1999/xlink" x="0px" y="0px"
	 viewBox="0 0 247.2 202.1" style="enable-background:new 0 0 247.2 202.1;" xml:space="preserve">
<style type="text/css">
	.st0{fill:#FFFFFF;}
	.st1{enable-background:new    ;}
</style>
<g>
	<g>
		<g>
			<path d="M141.6,37.5c0.1,10.1-1.8,18.6-7.6,26c-2.5,3.2-4.8,6.6-7.2,9.9c-2,2.7-4.3,2.1-6.3,0c-5.3-5.8-9.6-12.1-12.5-19.4
				c-2.9-7.4-4.4-14.8-2.9-22.7c2.2-11.5,7.6-21.4,15.5-29.9c1.5-1.6,3.7-2,5.6,0.2c5.1,5.7,8.9,12.1,11.7,19.2
				C140.3,26.6,141.7,32.3,141.6,37.5z M123.3,4.8c-8.7,8.5-14.4,21.8-14.6,30.9c-0.2,12.2,6.1,28,13.3,31.1c0-10.5,0-20.7,0-31
				c3.8-0.2,4,1.9,4,4.2c0,8,0,16,0,23.9c0,1,0.2,1.9,0.4,3.4C145.4,46.8,137.4,17.5,123.3,4.8z"/>
			<path d="M76.7,103.5c-10.2-1.5-19.2-3.2-26.9-9.2c-3.2-2.5-6.8-4.6-9.9-7.3c-2.4-2.2-2-4.9,0.6-6.6c4.7-3.2,9.3-6.8,14.4-9.1
				c5-2.3,10.6-3.9,16.1-4.5c6.7-0.6,13.5-1,20.3,1.3c7,2.4,13.2,6,18.6,10.8c6,5.4,5.6,5.9-1.1,11.1c-5.4,4.2-10.9,8.2-17.5,10.2
				C86.3,101.6,81.1,102.5,76.7,103.5z M106,81.9c-5.3-6.2-11.9-9.8-19-11c-7.5-1.3-15.3-1.6-23.1,1.3C57.1,74.6,51,78,45,81.8
				c-2.6,1.6-2.3,2.7-0.1,4.3c6.9,5.3,14.2,9.2,22.7,11.7c7.5,2.1,14.4,1.4,21.1-0.9c6.3-2.1,12-6.2,18-9.4
				c-0.1-0.4-0.3-0.9-0.4-1.3c-1.2-0.1-2.3-0.2-3.5-0.2c-8.2,0-16.5,0-24.7-0.1c-1,0-2-1.2-2.9-1.8c1-0.7,2-2.1,3-2.1
				c5.7-0.2,11.5-0.1,17.2-0.1C98.9,81.9,102.5,81.9,106,81.9z"/>
			<path d="M131.7,84.8c22.7-26.9,58.6-22.7,77.2-0.3C192.3,103.5,157.2,113.6,131.7,84.8z M140.7,86.3c0.8,1.5,1.1,2.7,1.8,3.2
				c7,5.7,15.2,9.2,24,9.5c13.2,0.5,24.9-4.6,35.4-12.5c2.3-1.7,1.3-2.9-0.3-4c-4-2.7-7.8-5.8-12.1-7.9c-4.1-2-8.7-3.6-13.2-4
				c-6.6-0.6-13.3-1.6-19.7,1.9c-5.2,2.8-10.6,5.3-15.8,8c0.1,0.5,0.3,1,0.4,1.6c1.4,0.2,2.7,0.6,4.1,0.6c7.1,0,14.2-0.1,21.3,0
				c1.4,0,2.9,0.4,4.3,0.9c0.6,0.2,1,1.1,1.5,1.6c-0.7,0.4-1.4,1-2.1,1.1c-1.2,0.2-2.5,0-3.7,0C158.2,86.3,149.8,86.3,140.7,86.3z"
				/>
			<path d="M141.8,129.2c-0.2,10.8-2.3,19.2-7.6,26.6c-3,4.1-6.1,8.1-9.2,12.1c-1.6,2-3.2,1.5-4.6-0.3c-4-5.1-7.9-10.3-10.5-16.5
				c-3.1-7.6-5.7-15.2-5.2-23.4c0.6-9.8,4.2-18.7,10.2-26.4c1.6-2.1,3.6-3.9,5.1-6.1c1.8-2.6,3.7-2.3,5.4-0.3
				c3.9,4.8,8.6,9.4,11.2,15C139.7,116.3,142.7,123.2,141.8,129.2z M125.2,101.4c-0.5,0.1-0.9,0.2-1.4,0.3c0,10.3,0,20.7,0,31
				c-0.4,0-0.9,0-1.3,0c-3.9-4.5-1.6-10-2-15c-0.4-5.2-0.1-10.4-0.1-15.6c-8.8,8.2-15.4,22.4-9.7,41.2c2.3,7.7,6.1,15.1,12.2,20.8
				c11.7-11.5,18.1-29.6,14.1-42.2C134.6,114.4,132,106.5,125.2,101.4z"/>
			<path d="M66.4,148c-1.2,0.1-2.1,0.3-3,0.3c-3.8,0.2-5.5-1.9-4.6-5.6c1.5-6.1,2-12.5,5.1-18.3c2.9-5.5,7-10.1,12.3-13.1
				c6.7-3.8,14.1-5.8,21.8-6.1c4.1-0.2,4.8,0.4,4.6,4.6c-0.5,11.9-4.7,22.3-14.1,29.6C82.2,144.3,74.7,147.9,66.4,148z M94.4,110.2
				c-0.1-0.3-0.2-0.5-0.4-0.8c-1.2,0.1-2.4,0-3.4,0.4c-3,1-6.2,1.8-9,3.2c-4.7,2.4-8.9,5.4-12,10c-3.7,5.4-5.2,11.4-6.9,17.5
				c-0.6,2.1,0.1,3.3,2.5,3.5c5.8,0.4,10.9-2.1,15.7-4.6c6.8-3.6,12.1-9.2,15.1-16.5c1.2-2.8,1.6-6,2.4-9c-0.4-0.1-0.7-0.3-1.1-0.4
				c-4.6,4.4-9.2,8.9-13.9,13.2c-1,0.9-2.5,1.1-3.8,1.6c0.4-1.4,0.5-3.2,1.4-4.2C85.4,119.3,90,114.8,94.4,110.2z"/>
			<path d="M102.6,62.8c-13.2,1.7-25-1.6-33.9-11.6c-7.7-8.7-10.1-19.3-9.1-30.8C84.7,20.8,104,36.9,102.6,62.8z M94.7,59.3
				c-0.9-1.4-1.5-2.6-2.4-3.6c-3.8-3.9-7.8-7.8-11.6-11.7c-0.6-0.6-0.7-1.7-1-2.6c1.2,0.1,2.9-0.2,3.6,0.5
				c3.5,3.3,6.7,6.8,10.2,10.2c1.2,1.2,2.8,2.1,4.2,3.1c0.4-0.3,0.8-0.5,1.2-0.8c-1.7-4.3-3-8.7-5.2-12.7
				c-5.9-10.8-16.5-14.5-27.5-17.3c-2.5-0.6-3.2,1.2-3,3c0.8,8.9,4,16.9,10.5,23.2C79.3,56.1,86.6,58.3,94.7,59.3z"/>
			<path d="M187.9,142.1c0,0.7,0,1.5,0.1,2.2c0.5,3.2-0.5,4.3-4.1,4.1c-14.1-1.1-25.6-6.9-33.9-18.4c-1.1-1.6-2.3-3.4-2.6-5.2
				c-1.1-5.8-1.9-11.6-2.5-17.5c-0.1-0.7,1.6-2.2,2.4-2.2c15.4,0.5,28.5,5.7,36,20.1c2.7,5.1,3.7,11.1,5.4,16.7
				C188.5,141.9,188.2,142,187.9,142.1z M183.5,143.6c1.1-19-13.6-32.8-31-33.2c5.5,5.6,10.9,11.2,16.3,16.8
				c-0.4,0.6-0.9,1.1-1.3,1.7c-1.6-0.9-3.5-1.4-4.7-2.6c-4.3-4.2-8.3-8.7-13-13.6C147.6,128.2,167.3,145.3,183.5,143.6z"/>
			<path d="M152.8,63.8c-8.1-0.3-8.4-0.4-7.8-8.2c0.7-9.9,4.8-18,12.6-24.6c7.9-6.7,17-9.5,26.9-10.7c2.4-0.3,3.5,0.6,3.5,3
				c-0.1,8.9-1.9,17-7.1,24.6c-3.8,5.5-8.4,9.3-14.2,11.8C162.3,61.6,157.4,62.4,152.8,63.8z M152.4,57.1c0.3,0.4,0.6,0.8,0.9,1.2
				c15.3,2.7,33.3-17.7,30-33.8c-15.2-1.8-37.8,18.6-32.8,31.7c5.3-6,10.1-11.5,15-17c2.3,1.7,3.7,2.6,1.5,4.5
				C162.1,48.2,157.2,52.7,152.4,57.1z"/>
			<path d="M156.8,146.3c0.1,3.2-3.7,7-6.9,7c-2.5,0-6.5-4-6.4-6.3c0-3,3.7-6.8,6.7-6.9C153.1,140.1,156.8,143.5,156.8,146.3z
				 M150.9,150.2c0.5-1.8,1.6-3.6,1.1-4.3c-1.8-2.7-3.2-0.2-4.4,0.5C148.5,147.3,149.3,148.2,150.9,150.2z"/>
			<path d="M50.3,111.6c0-3.8,2.4-6.4,6-6.5c3.4-0.1,6.2,2.8,6.2,6.4c0,3.8-2.1,6.1-5.5,6.1C52.2,117.5,50.4,115.8,50.3,111.6z
				 M59.4,111.3c-1.6-1-2.5-2-3.1-1.8c-0.8,0.2-1.5,1.3-1.8,2.1c-0.1,0.4,1.2,1.6,1.8,1.5C57,113.1,57.8,112.3,59.4,111.3z"/>
			<path d="M101.2,17.8c0,4.1-1.8,6.2-5.5,6.3c-3.5,0.1-6.6-2.6-6.7-5.9c-0.1-3.8,2.5-6.3,6.4-6.4C99.4,11.8,101.2,13.7,101.2,17.8z
				 M93.5,16.5c-0.8,3.2,0.4,4,3.3,3.3c0-1.2,0-2.3,0-3.7C95.5,16.3,94.5,16.4,93.5,16.5z"/>
			<path d="M56.6,62.9c-4.5,0-6.2-1.6-6.2-5.8c0-4.3,1.9-6.3,6-6.3c4.2,0,6.2,2,6.3,6C62.7,60.9,60.7,62.9,56.6,62.9z M59.4,57.1
				c-1.7-1.1-2.4-1.9-3.2-1.9c-0.6,0-1.3,0.9-1.9,1.5c0.6,0.7,1.1,1.9,1.8,2.1C56.8,58.8,57.7,58,59.4,57.1z"/>
			<path d="M186.6,62.9c-4.5,0-6.6-1.7-6.6-5.6c-0.1-4.1,2.1-6.4,6.1-6.6c4.3-0.2,6,2.4,6.6,6.7C193,59.9,189.4,62.9,186.6,62.9z
				 M186.3,59.5c0.6-0.4,1.3-0.8,1.9-1.3c-0.6-1.1-1.2-2.3-1.8-3.4c-0.8,0.5-1.7,0.9-2.5,1.4C184.7,57.3,185.5,58.4,186.3,59.5z"/>
			<path d="M101.2,146.8c-0.1,3.8-2.4,6.4-5.7,6.5c-3.6,0-6.6-3.2-6.5-7c0.1-2.6,3.6-6.1,6.2-6.1
				C98.5,140.2,101.2,143.2,101.2,146.8z M97.2,144.8c-0.8-0.3-1.5-0.6-2.3-0.9c-0.6,1.3-1.4,2.5-1.6,3.8c-0.1,0.5,1.5,1.1,2.4,1.7
				C96.3,147.8,96.8,146.3,97.2,144.8z"/>
			<path d="M186.3,117.1c-5.1-0.1-6.5-1.4-6.3-6c0.1-3,3.4-6.2,6.2-6.1c3.5,0.1,6.3,3.5,6.1,7.4
				C192.2,116.1,190.8,117.2,186.3,117.1z M188.9,111.5c-1.4-1.1-2.2-2.2-2.9-2.1c-0.8,0.1-1.4,1.2-2.1,1.9c0.7,0.6,1.3,1.5,2.1,1.7
				C186.7,113.2,187.5,112.4,188.9,111.5z"/>
			<path d="M150.3,11.9c3.9,0.2,6.5,2.8,6.4,6.2c-0.1,3.2-3.7,6.2-7.2,6c-3-0.2-6.1-3.6-5.9-6.3C144,13.9,146.6,11.7,150.3,11.9z
				 M147.3,17.3c0.2,2.9,2,3.3,3.9,2.6c0.7-0.2,1.6-2.1,1.3-2.5C151.1,15.3,149.2,15.6,147.3,17.3z"/>
			<path class="st0" d="M150.9,150.2c-1.6-2-2.4-2.9-3.2-3.9c1.2-0.7,2.6-3.2,4.4-0.5C152.5,146.6,151.4,148.3,150.9,150.2z"/>
			<path class="st0" d="M59.4,111.3c-1.6,1-2.3,1.9-3.1,1.9c-0.6,0-1.9-1.2-1.8-1.5c0.2-0.8,1-1.9,1.8-2.1
				C56.8,109.3,57.8,110.3,59.4,111.3z"/>
			<path class="st0" d="M93.5,16.5c1-0.1,2-0.2,3.3-0.4c0,1.4,0,2.6,0,3.7C93.9,20.6,92.7,19.7,93.5,16.5z"/>
			<path class="st0" d="M59.4,57.1c-1.8,0.9-2.7,1.8-3.3,1.6c-0.7-0.2-1.2-1.3-1.8-2.1c0.6-0.5,1.3-1.5,1.9-1.5
				C57,55.2,57.8,56,59.4,57.1z"/>
			<path class="st0" d="M186.3,59.5c-0.8-1.1-1.6-2.2-2.4-3.3c0.8-0.5,1.7-0.9,2.5-1.4c0.6,1.1,1.2,2.3,1.8,3.4
				C187.6,58.7,186.9,59.1,186.3,59.5z"/>
			<path class="st0" d="M97.2,144.8c-0.5,1.5-1,3.1-1.4,4.6c-0.8-0.6-2.5-1.2-2.4-1.7c0.2-1.3,1-2.6,1.6-3.8
				C95.7,144.1,96.5,144.5,97.2,144.8z"/>
			<path class="st0" d="M188.9,111.5c-1.4,0.8-2.2,1.6-2.8,1.5c-0.8-0.2-1.4-1.1-2.1-1.7c0.7-0.7,1.3-1.8,2.1-1.9
				C186.7,109.4,187.5,110.5,188.9,111.5z"/>
			<path class="st0" d="M147.3,17.3c1.9-1.6,3.8-2,5.2,0.1c0.3,0.4-0.6,2.3-1.3,2.5C149.3,20.5,147.5,20.2,147.3,17.3z"/>
		</g>
	</g>
	<g class="st1">
		<path d="M70.1,201.8h-3.1l-6.7-11.2c-0.1-0.2-0.3-0.4-0.5-0.8c-0.1-0.2-0.3-0.4-0.5-0.8v12.8h-2.5v-17.5h3.5l6.1,10.3
			c0.1,0.1,0.4,0.7,1.1,1.9v-12.2h2.5V201.8z"/>
		<path d="M84.2,202.1c-1.9,0-3.4-0.7-4.4-2.1c-1-1.4-1.5-3-1.5-4.7c0-1.9,0.6-3.5,1.7-4.8c1.1-1.3,2.6-1.9,4.4-1.9
			c1.7,0,3.2,0.6,4.3,1.9s1.7,2.9,1.7,4.8c0,2-0.6,3.7-1.7,4.9C87.4,201.5,85.9,202.1,84.2,202.1z M84.3,199.7c2,0,3-1.5,3-4.4
			c0-1.3-0.2-2.4-0.7-3.1c-0.5-0.8-1.2-1.1-2.2-1.1c-1,0-1.8,0.4-2.2,1.2c-0.5,0.8-0.7,1.8-0.7,3.2c0,1.4,0.3,2.5,0.8,3.2
			C82.6,199.3,83.4,199.7,84.3,199.7z"/>
		<path d="M107.7,188.9l-4.4,13h-2.4l-4.5-13h3.1l3,8.8l3-8.8H107.7z"/>
		<path d="M125.6,201.8h-2.8c-0.2-0.8-0.4-1.7-0.4-2.6c-0.8,1.9-2.2,2.9-4.4,2.9c-1.3,0-2.3-0.4-3.1-1.1c-0.8-0.8-1.2-1.7-1.2-2.9
			c0-3,2.6-4.5,7.8-4.5c0.2,0,0.5,0,0.8,0v-1c0-1.3-0.9-2-2.7-2c-1.8,0-2.8,0.7-3,2l-2.5-0.4c0.1-1.1,0.7-2,1.7-2.7
			c1-0.7,2.4-1,4.2-1c1,0,1.8,0.1,2.5,0.3c0.6,0.2,1.2,0.4,1.6,0.8c0.4,0.4,0.7,0.8,0.9,1.3c0.2,0.5,0.3,1.3,0.3,2.4v5.9
			C125.3,200.1,125.4,200.9,125.6,201.8z M122.4,195.2c-3.8,0-5.7,0.9-5.7,2.7c0,0.5,0.2,1,0.6,1.4c0.4,0.4,1,0.6,1.7,0.6
			c1.1,0,2-0.4,2.5-1.1c0.6-0.7,0.9-1.5,0.9-2.4V195.2z"/>
		<path d="M157.4,201.8H146v-17.5h11.3v2.6h-8.1v4.8h6.5v2.5h-6.5v4.9h8.2V201.8z"/>
		<path d="M168.2,201.8h-2.9v-13h2.6v3.1c0.4-1.2,0.9-2.1,1.6-2.6c0.7-0.6,1.3-0.8,2-0.8c0.1,0,0.2,0,0.4,0v3.1
			c-1.5,0-2.5,0.5-3,1.4c-0.5,1-0.7,1.9-0.7,2.8V201.8z"/>
		<path d="M190.3,201.8h-2.8c-0.2-0.8-0.4-1.7-0.4-2.6c-0.8,1.9-2.2,2.9-4.4,2.9c-1.3,0-2.3-0.4-3.1-1.1c-0.8-0.8-1.2-1.7-1.2-2.9
			c0-3,2.6-4.5,7.8-4.5c0.2,0,0.5,0,0.8,0v-1c0-1.3-0.9-2-2.7-2c-1.8,0-2.8,0.7-3,2l-2.5-0.4c0.1-1.1,0.7-2,1.7-2.7
			c1-0.7,2.4-1,4.2-1c1,0,1.8,0.1,2.5,0.3c0.6,0.2,1.2,0.4,1.6,0.8c0.4,0.4,0.7,0.8,0.9,1.3c0.2,0.5,0.3,1.3,0.3,2.4v5.9
			C189.9,200.1,190,200.9,190.3,201.8z M187.1,195.2c-3.8,0-5.7,0.9-5.7,2.7c0,0.5,0.2,1,0.6,1.4c0.4,0.4,1,0.6,1.7,0.6
			c1.1,0,2-0.4,2.5-1.1c0.6-0.7,0.9-1.5,0.9-2.4V195.2z"/>
	</g>
</g>
</svg>
