<?xml version="1.0" encoding="utf-8"?>
<!-- Generator: Adobe Illustrator 25.2.1, SVG Export Plug-In . SVG Version: 6.00 Build 0)  -->
<svg version="1.1" id="Camada_1" xmlns="http://www.w3.org/2000/svg" xmlns:xlink="http://www.w3.org/1999/xlink" x="0px" y="0px"
	 viewBox="0 0 247.2 202.1" style="enable-background:new 0 0 247.2 202.1;" xml:space="preserve">
<style type="text/css">
	.st0{display:none;}
	.st1{display:inline;fill:#FFBA26;}
	.st2{display:inline;fill:#EDD3A3;}
	.st3{display:inline;fill:#EDEAF1;}
	.st4{display:inline;fill:#EBF1EC;}
	.st5{display:inline;fill:#F6E8E3;}
	.st6{display:inline;fill:#29BF92;}
	.st7{display:inline;fill:#896CA1;}
	.st8{display:inline;fill:#FF1D37;}
	.st9{display:inline;fill:#FEFEFE;}
	.st10{display:inline;fill:#FDFEFD;}
	.st11{display:inline;fill:#FDFDFD;}
	.st12{display:inline;fill:#428F8D;}
	.st13{display:inline;fill:#43908E;}
	.st14{display:inline;fill:#283865;}
	.st15{display:inline;fill:#418F8D;}
	.st16{display:inline;fill:#438F8E;}
	.st17{display:inline;fill:#273765;}
	.st18{display:inline;fill:#233D6A;}
	.st19{display:inline;fill:#1F5B8C;}
	.st20{display:inline;fill:#225282;}
	.st21{display:inline;fill:#234573;}
	.st22{display:inline;fill:#44908E;}
	.st23{display:inline;fill:#3A4265;}
	.st24{display:inline;fill:#404867;}
	.st25{display:inline;fill:#3A435E;}
	.st26{display:inline;fill:#39415E;}
	.st27{display:inline;fill:#384160;}
	.st28{display:inline;fill:#3D4560;}
	.st29{display:inline;fill:#39415D;}
	.st30{display:inline;fill:#384163;}
	.st31{display:inline;fill:#404A68;}
	.st32{display:inline;fill:#3B4161;}
	.st33{display:inline;fill:#3C4461;}
	.st34{display:inline;fill:#3C4560;}
	.st35{display:inline;fill:#454C71;}
	.st36{display:inline;fill:#434A6D;}
	.st37{display:inline;fill:#2C4164;}
	.st38{display:inline;fill:#43496A;}
	.st39{display:inline;fill:#3F4765;}
	.st40{display:inline;fill:#3F456D;}
	.st41{display:inline;fill:#374059;}
	.st42{display:inline;fill:#3B4B6C;}
	.st43{display:inline;fill:#41476F;}
	.st44{display:inline;fill:#3F496A;}
	.st45{display:inline;fill:#234472;}
	.st46{display:inline;fill:#5C6172;}
	.st47{display:inline;fill:#FAFBFB;}
	.st48{display:inline;fill:#FDFDFC;}
	.st49{display:inline;fill:#EBF2F3;}
	.st50{display:inline;fill:#F3F7F8;}
	.st51{display:inline;fill:#F3F4F7;}
	.st52{display:inline;fill:#234D7E;}
	.st53{display:inline;fill:#1F6294;}
	.st54{display:inline;fill:#FAFBF9;}
	.st55{display:inline;fill:#FBFBF9;}
	.st56{display:inline;fill:#F6F6F6;}
	.st57{display:inline;fill:#E8ECF4;}
	.st58{display:inline;fill:#E3E6EF;}
	.st59{display:inline;fill:#E2E7EF;}
	.st60{display:none;fill:#EEF5F6;}
	.st61{fill:#824D9A;}
	.st62{fill:#DCA13A;}
	.st63{fill:#6DBC93;}
	.st64{fill:#11756C;}
	.st65{fill:#A23F44;}
	.st66{fill:#EFCB61;}
	.st67{fill:#BB8A43;}
	.st68{fill:#9475AF;}
	.st69{fill:#E95551;}
	.st70{fill:#6A4683;}
	.st71{fill:#D23B3C;}
	.st72{fill:#D13B3C;}
	.st73{fill:#D03C3D;}
	.st74{fill:#D13B3B;}
	.st75{fill:#D13B3D;}
	.st76{fill:#D23B3B;}
	.st77{fill:#D03B3B;}
	.st78{fill:#D03C3C;}
	.st79{fill:#D23B3D;}
	.st80{fill:#CD3D3C;}
	.st81{fill:#2D8976;}
	.st82{fill:#B64A46;}
	.st83{fill:#CD3D3F;}
	.st84{fill:#2F9278;}
	.st85{fill:#CF3D3E;}
	.st86{fill:#CF3D3C;}
	.st87{fill:#B64B54;}
	.st88{fill:#59AD8D;}
	.st89{fill:#00A97A;}
	.st90{fill:#4AA784;}
	.st91{fill:#28A68F;}
	.st92{fill:#D4393A;}
	.st93{fill:#F9E8E8;}
	.st94{fill:#F8F6F5;}
	.st95{fill:#F3C8C3;}
	.st96{fill:#F8CDCA;}
	.st97{fill:#F6CDC5;}
	.st98{fill:#B9F0E9;}
	.st99{fill:#FDFEFE;}
	.st100{fill:#FEFEFE;}
	.st101{fill:#FAFDFD;}
	.st102{fill:#F8FCFD;}
	.st103{fill:#02A97B;}
</style>
<g class="st0">
	<path class="st1" d="M0,99.1c0.5-1,0.4-2.1,0.6-3.1c2.5-12.1,12-21,24.2-22.6c0.9-0.1,1.8-0.2,2.7-0.2c11.1,0,22.2,0,33.2,0
		c1.7,0,3,0.8,3.8,2.3c0.7,1.4,0.5,2.9-0.4,4.2c-0.9,1.2-2.2,1.6-3.7,1.7c-1.7,0-3.4,0-5,0c-9.1,0-18.2-0.1-27.2,0
		c-9.4,0-17.2,6.3-19.4,15.5c-3,12.3,6.4,24.6,19.1,24.8c10.8,0.1,21.6,0,32.4,0c2.6,0,4.2,1.2,4.7,3.4c0.4,2.2-1.2,4.4-3.4,4.7
		c-0.4,0-0.7,0-1.1,0c-10.6,0-21.1,0-31.7,0c-14.9-0.1-26.6-10.4-28.5-25.2c0-0.3,0.1-0.6-0.3-0.7c0-0.2,0-0.3,0-0.5
		c0.2-1.3,0.2-2.6,0-3.8C0,99.4,0,99.3,0,99.1z"/>
	<path class="st2" d="M0,99.6c0.4,1.3,0.4,2.6,0,3.8C0,102.1,0,100.9,0,99.6z"/>
	<path class="st3" d="M100.3,0.2c0-0.1,0-0.1,0-0.2c0.8,0,1.6,0,2.4,0c0,0.1,0,0.1,0,0.2C101.9,0.8,101.1,0.8,100.3,0.2z"/>
	<path class="st4" d="M247.2,100.5c0.1,0,0.1,0,0.2,0c0,0.7,0,1.4,0,2.2h-0.1h-0.1C246.6,102,246.6,101.3,247.2,100.5z"/>
	<path class="st5" d="M102.5,202.8c0,0.1,0,0.1,0,0.2c-0.7,0-1.4,0-2.2,0c0-0.1,0-0.1,0-0.2C101,202.2,101.7,202.2,102.5,202.8z"/>
	<path class="st6" d="M247.2,100.5c0,0.7,0,1.4,0,2.2c-0.8,8.8-4.3,16.1-11.4,21.6c-3.7,2.9-8,4.2-12.5,5c-4,0.8-8,0.7-12.1,0.7
		c-44.3,0-88.6,0-132.9,0c-3.4,0-5.1-1.7-5.1-5.1c0-8.4,0-16.8,0-25.2c0-7.1,0-14.2-0.1-21.3c-0.1-3,1.8-5.3,5.3-5.3
		c29.8,0.1,59.7,0,89.5,0c14.3,0,28.6,0,42.8,0c3,0,5.9,0,8.9,0.1c13.8,0.2,25.8,11,27.4,24.7C247,98.8,247.1,99.7,247.2,100.5z"/>
	<path class="st7" d="M100.3,0.2c0.8,0,1.6,0,2.4,0c13.4,1,23.6,9.7,26.5,22.6c0.4,1.8,0.6,3.6,0.6,5.5c0,10.8,0,21.5,0,32.3
		c0,1.8-0.7,3.3-2.4,4.1c-1.5,0.7-3,0.5-4.3-0.6c-1.1-0.9-1.5-2.1-1.5-3.5c0-10.7,0.1-21.4,0-32.1c-0.1-8.2-4-14.3-11.3-18
		c-12.5-6.3-27.5,2-29,15.9c-0.1,1.1-0.2,2.2-0.2,3.2c0,10.4,0,20.9,0,31.3c0,1.9-1,3.3-2.8,3.9c-1.6,0.6-3.3,0-4.4-1.3
		c-0.7-0.8-0.9-1.8-0.9-2.9c0-10.8-0.1-21.6,0-32.4C73.2,14.3,83.2,2.8,97,0.5C98.1,0.4,99.2,0.3,100.3,0.2z"/>
	<path class="st8" d="M102.5,202.8c-0.7,0-1.4,0-2.2,0c-13.8-0.7-23.8-10.4-26.5-21.9c-0.5-2.1-0.8-4.3-0.8-6.4c0-10.7,0-21.4,0-32
		c0-3.3,2.8-5.4,5.6-4.2c1.6,0.7,2.5,2.1,2.5,4.1c0,10.6-0.1,21.2,0,31.8c0.1,8.5,4,14.9,11.7,18.6c12.3,5.9,26.9-2.2,28.6-15.7
		c0.1-1.1,0.2-2.2,0.2-3.3c0-10.5,0-21,0-31.4c0-3.2,2.9-5.2,5.6-4c1.7,0.8,2.5,2.2,2.5,4c0,3.8,0,7.5,0,11.3c0,7.1,0.1,14.2,0,21.2
		c-0.2,12.8-8.8,23.8-21.2,27.1C106.6,202.4,104.5,202.7,102.5,202.8z"/>
	<path class="st6" d="M17.8,52c1.1,0,2.2,0.3,3.2,1c0.3,0.2,0.8,0.4,0.5,0.9s-0.7,0.3-1.1,0c-2.5-1.8-5.6-0.5-6.8,1.6
		c-1.1,2-0.9,4.4,0.7,6.1c1.6,1.7,3.9,2,5.9,0.8c0.1-0.1,0.2-0.1,0.3-0.2c0.3-0.2,0.7-0.5,1,0c0.4,0.5-0.1,0.8-0.4,1.1
		c-1.2,0.9-2.6,1.2-4.1,1c-3.2-0.4-5.6-3.4-5.4-6.6C11.8,54.4,14.4,52,17.8,52z"/>
	<path class="st6" d="M63.8,62.7c-2.2,1.8-4.7,1.8-6.2,0c-1.5-1.7-1.4-4.4,0.3-6c1.3-1.2,2.9-1.4,4.5-0.9c1.5,0.5,2.4,1.6,2.7,3.2
		c0.2,1.2,0.1,2.5,0.1,3.7c0,0.5,0.1,1.2-0.5,1.3C63.8,64.1,63.9,63.3,63.8,62.7z"/>
	<path class="st6" d="M32.7,59.8c0-1.1,0-2.2,0-3.2c0-0.4,0-0.8,0.4-0.9c0.4-0.1,0.7,0.1,0.8,0.5c0.1,0.5,0.4,0.2,0.6,0.1
		c3.4-1.7,6.1-0.1,6.1,3.7c0,1.1,0,2.2,0,3.2c0,0.4-0.1,0.8-0.7,0.8c-0.5,0-0.5-0.4-0.5-0.8c0-1.3,0-2.6,0-3.8c0-1.1-0.4-2-1.4-2.4
		c-1.1-0.5-2.2-0.4-3.2,0.3c-0.6,0.4-0.9,1.1-0.9,1.9c0,1.3,0,2.6,0,4c0,0.5,0,1-0.6,0.9c-0.5,0-0.6-0.5-0.6-0.9
		C32.7,62,32.7,60.9,32.7,59.8z"/>
	<path class="st6" d="M51.4,55.6c1-0.1,1.9,0.3,2.7,1.1c0.3,0.3,0.6,0.6,0.2,1c-0.3,0.3-0.6,0-0.9-0.2c-1.5-1.1-2.9-1.2-4-0.2
		c-1.1,0.9-1.3,2.9-0.5,4.2c0.8,1.4,2.7,1.9,4.3,1c0.4-0.2,0.8-0.6,1.1-0.1c0.4,0.6-0.2,0.8-0.5,1c-1.4,1-3.5,0.8-4.9-0.2
		c-1.4-1.1-1.9-3.1-1.3-4.9C48,56.6,49.5,55.6,51.4,55.6z"/>
	<path class="st6" d="M23.7,57.3c0-1.5,0-3,0-4.4c0-0.4,0-0.9,0.6-0.9s0.5,0.5,0.5,0.9c0,2.7,0,5.4,0,8c0,1,0.1,1.9,1.4,1.9
		c0.3,0,0.5,0.3,0.5,0.6c0,0.4-0.3,0.5-0.7,0.6c-1.1,0.2-2.2-0.8-2.2-2.2C23.6,60.4,23.7,58.9,23.7,57.3L23.7,57.3z"/>
	<path class="st6" d="M28.5,59.7c0-1.1,0-2.2,0-3.3c0-0.4,0.1-0.7,0.6-0.7s0.6,0.3,0.6,0.7c0,2.3,0,4.6,0,6.9c0,0.4-0.1,0.8-0.6,0.8
		s-0.6-0.4-0.6-0.8C28.5,62,28.5,60.9,28.5,59.7z"/>
	<path class="st6" d="M44.7,59.9c0,1.1,0,2.2,0,3.2c0,0.4,0,0.9-0.5,0.9s-0.7-0.4-0.7-0.8c0-2.2,0-4.5,0-6.7c0-0.4,0.1-0.8,0.6-0.8
		c0.6,0,0.6,0.5,0.6,0.9C44.7,57.6,44.7,58.7,44.7,59.9z"/>
	<path class="st6" d="M31.2,52.1c0,0.4-1.8,2.3-2.2,2.3c-0.3,0-0.4-0.1-0.6-0.4c-0.1-0.2-0.1-0.5,0.1-0.7c0.6-0.6,1.1-1.2,1.8-1.8
		C30.7,51.3,31.2,51.6,31.2,52.1z"/>
	<path class="st6" d="M45.1,53.2C45,53.6,44.8,54,44.2,54c-0.5,0-0.8-0.3-0.8-0.8s0.3-0.8,0.8-0.9C44.7,52.3,45,52.7,45.1,53.2z"/>
	<path class="st9" d="M143.8,93.8c-0.3-3.3-3.2-6.2-6.7-6.7c-3.6-0.5-7.1,1.7-8.4,5c-0.4,1-0.5,2-0.5,3.1c0,3.8,0,7.5,0,11.3
		c0,0.3,0,0.6,0,0.8c-0.1,1.2-0.8,2.1-1.9,2c-1,0-1.7-0.8-1.7-2.1c0-3,0-6.1,0-9.1c0-1.4,0.2-2.8-0.2-4.2l0,0c-0.2-3.2-2.7-6-6-6.8
		c-3.4-0.8-6.9,0.8-8.6,3.8c-0.7,1.3-1,2.7-1,4.1c0,3.8,0,7.7,0,11.5c0,0.4,0,0.7,0,1.1c-0.2,1-1,1.7-1.9,1.6
		c-1-0.1-1.6-0.7-1.6-1.7c0-4.8-0.2-9.5,0.1-14.3c0.3-4.3,3.8-8.3,8.2-9.4c4.8-1.3,8.9,0.1,12.1,3.9c0.6,0.7,0.8,0.8,1.5,0
		c4.2-5.5,13.5-6.5,18.8,0.9c2.4-3.3,5.5-5.3,9.7-5.2c4.1,0,7.4,1.8,9.8,5.2c0.6-0.6,1-1.2,1.6-1.7c3.2-3.1,7-4.2,11.3-3
		c4.4,1.2,7.1,4.3,8.2,8.7c0.2,0.9,0.2,1.7,0.2,2.6c0,3.9,0,7.8,0,11.6c0,1.6-0.6,2.5-1.8,2.5s-1.8-0.9-1.8-2.6c0-4,0-8,0-12
		c-0.1-3.9-2.9-7.1-6.8-7.7c-3.8-0.6-7.5,1.8-8.7,5.5c-0.1,0.4-0.2,0.8-0.2,1.2c0.1,0.1,0.1,0.1,0.1,0.1l-0.1,0.1
		c-0.3,0.5-0.2,1-0.2,1.5c0,3.8,0,7.7,0,11.5c0,1.5-0.7,2.4-1.8,2.3c-1.1,0-1.8-0.9-1.8-2.4c0-3.9,0-7.8,0-11.8
		c0-4.6-3.5-8.2-7.9-8.1c-4.5,0-7.9,3.6-7.9,8.2c0,3.9,0,7.8,0,11.8c0,1.5-0.7,2.3-1.8,2.3s-1.8-0.9-1.8-2.3c0-3.9,0-7.8,0-11.6
		C143.9,94.9,144.1,94.3,143.8,93.8L143.8,93.8z"/>
	<path class="st9" d="M214.3,95c-0.3-3.3-3.1-6.5-6.5-7.5c-3.7-1.1-7.7,0.2-10,3.2c-2.7,3.4-2.7,8-0.1,11.5c2.6,3.5,7,4.6,11.2,3
		c0.3-0.1,0.5-0.2,0.8-0.3c1.1-0.4,2-0.1,2.5,0.8c0.4,0.9,0.1,2-1,2.5c-4.2,1.9-8.4,2.1-12.4-0.3c-3.8-2.2-6-5.6-6.5-10
		c0-0.2-0.1-0.5-0.2-0.7c-0.2-0.4-0.2-0.7,0-1.1c0.3-1.7,0.7-3.3,1.4-4.9c2.3-5.8,9-8.1,13.4-7.6c5.4,0.6,10.1,5,11.2,10.4
		c0.3,1.5,0.2,2.9,0.2,4.4c0,2.9,0,5.8,0,8.8c0,1.6-0.6,2.4-1.9,2.4c-1.2,0-1.8-0.8-1.8-2.3c0-3.4,0-6.9,0-10.3
		c0-0.6,0.1-1.1-0.2-1.6C214.2,95.2,214.2,95.1,214.3,95C214.2,95,214.3,95,214.3,95z"/>
	<path class="st10" d="M95,96.6c0-3.4,0-6.9,0-10.3c0-1.6,0.6-2.4,1.8-2.4c1.2,0,1.8,0.8,1.8,2.3c0,6.9,0,13.9,0,20.8
		c0,1.7-1.2,2.7-2.6,2c-0.8-0.4-1.1-1.1-1-2C95,103.7,95,100.1,95,96.6z"/>
	<path class="st10" d="M109.8,124.1c-1.7,1.5-3.5,1.9-5.4,0.9c-1.6-0.8-2.6-2.7-2.4-4.5c0.2-2,1.4-3.5,3.3-4.1
		c2.9-0.9,5.9,1.2,6,4.2c0,1.2,0,2.3,0,3.5c0,0.6,0.3,1.3-0.6,1.4S110,124.7,109.8,124.1z"/>
	<path class="st10" d="M148.7,121.2c-1,0-1.9,0-2.9,0c-0.7,0-0.7,0.2-0.5,0.8c0.5,1.8,2.7,2.7,4.6,1.9c0.2-0.1,0.4-0.2,0.5-0.3
		c0.4-0.3,0.9-0.6,1.2,0c0.4,0.7-0.2,0.9-0.7,1.1c-1.7,1-3.9,0.9-5.4-0.2s-2.2-3.2-1.6-5.3c0.5-1.8,2.1-3.1,3.9-3.2
		c2-0.1,3.6,0.8,4.3,2.6c0.1,0.4,0.2,0.8,0.3,1.2c0.2,0.9-0.1,1.4-1.1,1.3C150.5,121.1,149.6,121.2,148.7,121.2z"/>
	<path class="st10" d="M212.2,120.8c0,2.8-1.9,4.7-4.6,4.7c-2.7,0-4.7-2-4.7-4.7s2-4.7,4.7-4.7C210.2,116.1,212.2,118.1,212.2,120.8
		z"/>
	<path class="st11" d="M168.2,125.5c-1.2,0-2.4-0.3-3.3-1.1c-0.4-0.3-0.7-0.6-0.3-1.1c0.4-0.4,0.8-0.4,1.1,0c1,0.9,2.2,1,3.4,0.8
		c0.7-0.1,1.2-0.4,1.3-1.2c0.1-0.7-0.5-1.1-1.1-1.3c-0.9-0.3-1.8-0.4-2.7-0.7c-1.1-0.4-1.9-1-1.9-2.3s0.8-1.9,2-2.3
		c1.6-0.5,3.1-0.3,4.4,0.9c0.3,0.3,0.7,0.7,0.3,1.1s-0.8,0.3-1.2-0.1c-0.8-0.8-1.8-0.8-2.8-0.7c-0.6,0.1-1.2,0.3-1.3,1.1
		c-0.1,0.7,0.4,1,1,1.2c0.5,0.2,1.1,0.3,1.6,0.4c2.2,0.5,3.2,1.4,3,2.9C171.7,124.5,170.2,125.5,168.2,125.5z"/>
	<path class="st11" d="M187.6,125.5c-1.5,0-2.7-0.3-3.6-1.1c-0.4-0.3-0.6-0.7-0.2-1.1c0.4-0.4,0.8-0.3,1.1,0c1,0.9,2.2,0.9,3.4,0.8
		c0.7-0.1,1.2-0.5,1.3-1.2c0-0.7-0.5-1.1-1.1-1.2c-0.8-0.2-1.7-0.4-2.5-0.7c-1.4-0.4-2-1.2-2-2.4c0-1.1,0.7-2,2.1-2.3
		c1.6-0.4,3.1-0.2,4.3,1c0.3,0.3,0.6,0.6,0.2,1c-0.3,0.3-0.8,0.3-1.1,0c-0.9-0.9-1.9-0.9-3-0.8c-0.6,0.1-1.1,0.4-1.1,1
		s0.3,1,0.9,1.1c0.6,0.2,1.1,0.4,1.7,0.5c0.6,0.1,1.1,0.3,1.6,0.5c0.9,0.4,1.4,1,1.4,2s-0.5,1.7-1.3,2.2
		C189,125.4,188.2,125.6,187.6,125.5z"/>
	<path class="st11" d="M128.3,125.5c-2,0-3.8-1.2-4.4-3.1c-0.7-2,0-4.2,1.6-5.4c1.5-1.1,3.6-1.2,5.2-0.1c0.2,0.2,0.4,0.3,0.6,0.5
		c0.3,0.3,0.6,0.7,0.2,1.1c-0.4,0.4-0.7,0.2-1-0.1c-0.5-0.5-1.1-0.8-1.8-0.9c-1.5-0.2-2.6,0.4-3.2,1.6c-0.7,1.4-0.5,3.1,0.6,4.1
		c0.9,0.9,2.5,1.2,3.8,0.6c0.2-0.1,0.4-0.2,0.5-0.3c0.4-0.2,0.8-0.4,1.1,0c0.4,0.5,0,0.8-0.4,1.1
		C130.2,125.2,129.3,125.5,128.3,125.5z"/>
	<path class="st11" d="M96.8,82.9c-1,0-1.9-0.8-1.9-1.9c0-1,0.8-1.8,1.8-1.8s1.9,0.8,1.9,1.9C98.6,82.1,97.8,82.9,96.8,82.9z"/>
	<path class="st6" d="M94.7,85.7c0,7.3,0,14.6,0,21.9h-0.1C94.6,100.3,94.6,93,94.7,85.7L94.7,85.7z"/>
	<path class="st6" d="M186.7,107.9c0-4.9,0-9.7,0-14.6h0.1c0,4.9,0,9.7,0,14.6C186.8,107.9,186.8,107.9,186.7,107.9z"/>
	<path class="st6" d="M124.3,94c0,4.6,0,9.2,0,13.9c-0.4-0.2-0.2-0.5-0.2-0.7c0-4,0-8.1,0-12.1C124.1,94.8,123.9,94.3,124.3,94
		L124.3,94z"/>
	<path class="st6" d="M167.2,94c0-0.1,0-0.1,0-0.2c0.3,0.2,0.2,0.6,0.2,0.9c0,4.2,0,8.4,0,12.6c0,0.2,0,0.3-0.3,0.4
		C167.2,103.1,167.2,98.6,167.2,94z"/>
	<path class="st6" d="M143.8,93.8c0,4.6,0,9.3,0,13.9c-0.4-0.2-0.3-0.5-0.3-0.7c0-4,0-8.1,0-12.1C143.5,94.5,143.4,94.1,143.8,93.8
		L143.8,93.8z"/>
	<path class="st6" d="M214.3,95c0,0.1,0.1,0.1,0,0.2c0,4.3,0,8.5,0,12.8c-0.1,0-0.2,0-0.3,0c0-2.5,0-5,0-7.5c0-1.4,0-2.9,0-4.3
		C214,95.7,213.9,95.3,214.3,95z"/>
	<path class="st6" d="M192,96c0,0.4,0,0.7,0,1.1c0,0.3-0.1,0.5-0.1,0.8h-0.1c0-0.8,0-1.6,0-2.3h0.1C191.9,95.7,192,95.9,192,96z"/>
	<path class="st9" d="M63.9,59.9c0,1.8-1.3,3.1-3.1,3.1s-3.2-1.5-3.1-3.3c0.1-1.7,1.5-3.1,3.2-3.1C62.6,56.6,63.9,58,63.9,59.9z"/>
	<path class="st6" d="M109.9,120.8c0,2-1.3,3.3-3.3,3.3c-1.8,0-3.2-1.4-3.2-3.3s1.4-3.4,3.3-3.4C108.7,117.5,110,118.9,109.9,120.8z
		"/>
	<path class="st6" d="M145.3,120c0.3-1.5,1.1-2.3,2.4-2.5c1.6-0.2,2.7,0.4,3.2,1.7c0.2,0.5,0.3,0.8-0.5,0.8
		C148.8,119.9,147.1,120,145.3,120z"/>
	<path class="st6" d="M210.7,120.9c0,2-1.3,3.3-3.3,3.3c-1.9,0-3.2-1.4-3.2-3.3c0-2,1.4-3.3,3.3-3.3
		C209.5,117.5,210.7,118.8,210.7,120.9z"/>
</g>
<g class="st0">
	<path class="st12" d="M115.1,44.1c-4.8-0.4-9.1,1.5-13.1,3.9c-4.6,2.7-8.6,6.3-13.1,9.3c-1.8,1.2-3.7,2.5-5.9,2.8
		c-0.7,0.1-1.6,0.5-2.1-0.3c-0.4-0.6,0.1-1.3,0.4-1.9c2.1-5,5.3-9.1,9.4-12.6c9-7.6,19.4-10.8,31.2-10c16.4,1.2,29.8,11.8,34.3,27.4
		c0.1,0.4,0.3,0.7,0,1.2c-2.4-1.5-4.9-3-7.3-4.6c-3.3-2-6.5-4.1-9.8-6.1c-5.7-3.6-11.8-3.9-18.2-2.3c-3.3,0.9-6.6,1.7-9.8,2.6
		c-1.5,0.4-3,0.4-4.5,0.1c-2.2-0.5-2.7-2-1.3-3.8c1.1-1.4,2.5-2.5,4.1-3.2C111.2,45.9,113.1,45.1,115.1,44.1z"/>
	<path class="st12" d="M81.1,84.8c4.4,2.8,8.7,5.4,12.9,8.1c3.4,2.1,6.7,4.3,10.6,5.3c4.7,1.2,9.4,0.3,14-0.9
		c2.7-0.7,5.4-1.6,8.2-2.3c1.3-0.3,2.6-0.2,3.9,0.1c2.4,0.6,2.9,2.1,1.3,4c-1.4,1.7-3.4,2.8-5.4,3.8c-1.4,0.7-2.8,1.3-4.2,2.1
		c2.9,0.4,5.7-0.1,8.3-1.2c4.4-1.9,8.2-4.9,12-7.8c3-2.2,5.9-4.6,9.3-6.1c1.4-0.7,3.3-1.7,4.4-0.6c0.9,0.9-0.5,2.5-1.1,3.7
		c-5.4,10.3-14.1,16.4-25,19.5c-11,3.1-21.7,1.8-31.6-3.8c-9-5-14.7-12.9-17.5-22.8C81,85.5,81.1,85.2,81.1,84.8z"/>
	<path class="st13" d="M221.4,135c0,4.3-0.1,8.7,0,13c0.1,1.7-0.8,2.5-2.2,2.7c-1.9,0.4-3.9,0.4-5.7-0.7c-0.6-0.4-1.1-0.5-1.9-0.1
		c-6.6,3-13-0.6-13.7-7.9c-0.4-3.7-0.3-7.5,2.4-10.5c2.2-2.5,5.2-3.5,8.4-3.8c3.3-0.3,3.3-0.2,3.3-3.4c0-4.6,0-4.6,4.6-4.6
		c4.7,0,4.7,0,4.7,4.6C221.4,127.9,221.4,131.4,221.4,135L221.4,135z"/>
	<path class="st14" d="M0,136.8c0.2-4.2,0.7-8.1,3.7-11c4.2-4,9.3-4.1,14.5-2.5c4.8,1.5,6.9,5.4,7.5,10.1c0.6,4,0.3,8-1.7,11.6
		c-2.6,4.8-8.9,7-15.1,5.4c-5.1-1.3-7.7-4.9-8.7-9.8C0.2,139.1,0.1,137.8,0,136.8z"/>
	<path class="st14" d="M51,129.9c2.6-1.8,5.1-2.6,8-2.2c3.5,0.4,5.6,2.5,5.7,5.9c0.1,5.1,0,10.2,0.1,15.3c0,0.8-0.3,1.3-1.1,1.5
		c-1.8,0.6-3.6,0.8-5.4,0.3c-1.7-0.5-2.8-1.5-2.8-3.5c0.1-2.9,0.1-5.8,0-8.7c-0.1-2.1-1.2-2.9-3.1-2.4c-1,0.3-1.4,0.7-1.4,1.8
		c0.1,3.5,0,7.1,0,10.6c0,1.1-0.4,1.7-1.5,2c-1.6,0.5-3.2,0.5-4.9,0.2c-2.1-0.4-3-1.5-3-3.8c0-8.5,0-17,0-25.5
		c0-0.9,0.2-1.3,1.2-1.4c2.3-0.3,4.5-0.3,6.8,0c1.1,0.1,1.3,0.6,1.3,1.6C51,124.3,51,126.9,51,129.9z"/>
	<path class="st15" d="M133.1,150.9c-2.8,0-5.4-0.3-7.7-1.4c-2.7-1.3-4-3.9-3.2-6.5c0.4-1.2,0.8-1.8,2.3-1c2.8,1.4,5.8,1.9,9,1.7
		c1-0.1,2-0.2,2.2-1.3c0.3-1.2-0.8-1.6-1.7-1.9c-1.9-0.7-3.8-1.3-5.7-2c-4.4-1.8-6-4.3-5.7-8.7c0.2-3.4,2.6-6,6.6-7.1
		c3.7-1,7.4-0.9,10.9,0.5c3.2,1.2,4.7,4,3.5,6.8c-0.5,1.2-1,1.7-2.4,0.9c-2.2-1.4-4.7-1.7-7.3-1.5c-0.9,0.1-2.1,0.2-2.2,1.3
		c-0.1,1,0.9,1.4,1.7,1.7c1.9,0.7,3.8,1.3,5.7,2c3.2,1.2,5.5,3.1,5.7,6.7c0.2,4-1.7,6.7-5.1,8.5C137.7,150.7,135.3,151,133.1,150.9z
		"/>
	<path class="st16" d="M195.2,139.2c0,3.2,0,6.4,0,9.6c0,1-0.3,1.4-1.3,1.8c-2.9,1-4.8,0.5-7-2.1c-0.7-0.7-1,0-1.4,0.2
		c-1.8,1.3-3.7,2.1-5.9,2.1c-4.2,0.1-6.7-2.1-7.2-6.3c-0.5-4.5-0.2-9.1-0.2-13.6c0-3.1,0-3.1,3.2-3.3c6.1-0.3,6.1-0.3,6.1,5.6
		c0,2.3,0,4.5,0,6.8c0,1.5,0.6,2.4,2.3,2.3c1.5-0.1,2.2-0.7,2.1-2.4c-0.2-3.5,0-6.9-0.1-10.4c0-1.3,0.4-2,1.8-1.9c1.9,0,3.9,0,5.9,0
		c1.2,0,1.8,0.5,1.7,1.8C195.2,132.8,195.2,136,195.2,139.2z"/>
	<path class="st13" d="M238.5,141.3c-1.3,0-2.6,0-4,0c-0.4,0-0.8-0.2-1,0.2c-0.2,0.5,0.2,0.8,0.6,1.1c2.1,1.6,4.6,1.5,7.1,1.2
		c1.2-0.1,2.5-0.5,3.6-0.9c1.2-0.4,1.6,0.1,1.9,1.1c0.5,2.1-0.6,4.7-2.9,5.5c-5.6,2.1-11.2,2.3-16.4-1.4c-3.6-2.6-4.8-8-3.3-13.1
		c1.2-4.1,4.8-6.9,9.3-7.3c4.6-0.4,8.8,0.1,12,3.9c1.6,1.9,2,4,1.7,6.4c-0.3,2-1.8,3.1-4.2,3.3C241.4,141.4,239.9,141.3,238.5,141.3
		L238.5,141.3z"/>
	<path class="st16" d="M160.2,147.5c-1.5,1.8-3.3,2.9-5.6,3.2c-3.6,0.5-6.8-1.3-7.6-4.3c-0.9-3.5,0.7-6.7,4.1-8.1
		c2.3-1,4.6-1.1,7-1.1c0.5,0,1.3,0.2,1.4-0.6c0.1-0.6-0.3-1.1-0.7-1.5c-0.6-0.6-1.4-0.8-2.3-0.9c-2.4-0.2-4.8,0-7,1.1
		c-1.6,0.8-2,0-2.4-1.2c-0.7-2.1,0.2-3.8,2.3-5c2-1.1,4.3-1.4,6.6-1.5c2.7-0.1,5.4,0,8,0.8c3,1,4.6,3.2,4.7,6.1
		c0.2,4.8,0.1,9.6,0.1,14.3c0,0.6-0.1,1.1-0.7,1.4C165,151.9,161.6,150.8,160.2,147.5z"/>
	<path class="st14" d="M80.8,147.4c-2.4,2.7-5.1,3.8-8.5,3.2c-2.7-0.5-4.4-2.3-4.9-4.9c-0.5-2.7,0.6-5.3,2.8-6.7
		c2.4-1.6,5.2-1.7,8-1.9c0.6,0,1.8,0.5,1.9-0.7c0.1-0.9-0.6-1.6-1.5-1.9c-2.9-0.9-5.8-0.5-8.4,0.8c-1.5,0.7-2,0-2.4-1.2
		c-0.6-1.8,0.1-3.6,1.8-4.7c1.3-0.9,2.8-1.3,4.2-1.5c3.3-0.5,6.5-0.5,9.8,0.2c3.6,0.9,5.7,3.3,5.8,7c0.1,4.6,0.1,9.2,0.1,13.8
		c0,0.5,0.1,0.9-0.5,1.3C86.1,152,82.1,150.7,80.8,147.4z"/>
	<path class="st17" d="M101.9,132.6c1.3-2.7,2.6-4.9,5.8-4.9c2.1,0,3.5,1,3.8,3.1c0.3,1.9-0.1,3.7-0.9,5.5c-0.3,0.7-0.7,0.8-1.5,0.7
		c-4.8-0.6-7,1.3-7.1,6.1c0,1.7-0.1,3.4,0,5.1c0,1.1-0.4,1.6-1.3,2c-1.8,0.7-3.7,0.7-5.5,0.1c-2-0.6-2.4-2.2-2.4-4c0-4,0-7.9,0-11.9
		c0-0.9,0-1.8,0-2.6c0-4,0-4,3.9-4c1.5,0,3.3-0.4,4.4,0.4C102.5,129.1,101.2,130.9,101.9,132.6z"/>
	<path class="st14" d="M38.2,135.1c0,4.3-0.1,8.7,0,13c0,1.3-0.4,1.9-1.6,2.3c-1.5,0.5-3,0.5-4.5,0.2c-2.1-0.4-3.2-1.6-3.2-3.6
		c-0.1-8.5,0-17.1-0.1-25.6c0-0.8,0.2-1.2,1.1-1.3c2.3-0.3,4.5-0.3,6.8,0c1.2,0.2,1.4,0.5,1.4,1.6C38.1,126.2,38.2,130.7,38.2,135.1
		L38.2,135.1z"/>
	<path class="st18" d="M110.4,61.3c-0.8-0.6-1.5-1.5-2.9-2c4.1-2.1,7.8-3.5,12.4-3.1c5.3,0.5,9.5,2.7,13,6.4
		c9.3,9.8,5,26.5-7.9,30.7c-8.4,2.8-17.4-0.1-22.4-7.3c-0.2-0.3-0.3-0.7-0.4-1c0.8-0.5,0.8-0.6,1.4-0.1c0.9,0.7,1.8,1.4,2.7,2.1
		c0.9,0.7,1.8,1.3,3,1.3c0.5,0,1,0.1,1.4,0.5c1.4,1.6,3.3,1.5,5.1,1.3c2.2-0.2,4.5-0.4,6.7-0.8c2.3-0.4,4.2-1.9,5.8-3.6
		c0.4-0.5,0.7-1,1.3-1.3c1.7-0.3,2.4-1.6,3-3c2.2-2.7,2.4-6.1,3.5-9.2c0.2-0.5-0.5-0.6-0.5-1.1c-0.1-0.4-0.3-0.9-0.4-1.3
		c0.1-1.7-0.4-3-2-4c-1.6-1.1-2.4-3.1-4-4.3c-1.8-1.2-3.4-3.2-5.7-3.1c-3.5,0.2-7.2-0.1-10.3,2.1c-0.4,0.2-0.8,0.3-1.2,0.4
		C111.3,60.7,111,61.5,110.4,61.3z"/>
	<path class="st19" d="M108.3,68.8c0.5-0.4,1-0.7,1.5-1.1c1.2-0.1,2.2-0.4,2.7-1.7c0.2-0.8,0.8-0.9,1.5-0.6c1,0.5,1.9,0.7,2.5-0.6
		c0.2-0.5,0.8-0.6,1.3-0.6c5-0.7,9.7,2.2,11.3,7c1.2,3.5-0.2,7.6-3.6,10.4c-1.6,1.3-3.4,2.2-5.3,2.8c-4.6,1.5-8.1-0.6-11.4-3.3
		c-1.4-1.2-1.8-2.9-1.7-4.8c0.1-1.1,0.4-2.2,0.4-3.4c0-0.4,0.1-1,0.5-1.2C110.2,70.9,109.1,69.9,108.3,68.8z"/>
	<path class="st20" d="M108.3,68.8c0.7,0,1,0.6,1.5,1c1.1,1,0.5,1.6-0.5,1.8c-1.3,0.2-1.5,0.9-1.4,2c0,0.5-0.1,1-0.2,1.5
		c-0.7,3.2,0.6,5.2,3.3,7.1c2.9,1.9,5.7,2.8,9,1.8c4.9-1.5,9-5,9.1-10.6c0-1.6-0.7-3.1-1.6-4.4c-1.7-2.2-3.3-4.6-6.8-4
		c-0.7,0.1-1.5-0.3-2.2-0.3c-0.9-0.1-1.7-0.2-1.9,1.2c-0.1,1.1-1.2,0.7-1.8,0.6c-0.5-0.1-0.9-0.6-1.5-1c-0.6,0.9-0.5,2.4-1.9,2.5
		c-0.5,0-1.2,0.8-1.5-0.3c0.4-0.5,0.7-1.1,1.1-1.6c1.2-0.2,0.5-1.5,1.1-2.1c1.2-1.5,3-1.8,4.7-1.9c1.2-0.1,2.5-0.2,3.7-0.1
		c7.3,0.3,12.7,5.8,11.1,13.9c-1.1,5.9-7.4,10.7-12.9,11.5s-11.8-2.8-13.9-8c-0.7-1.9-0.5-3.8-0.1-5.8c0.1-0.5,0.6-1-0.1-1.5
		c-0.9-1-0.2-1.7,0.5-2.4c0-0.1,0.1-0.3,0.2-0.4C106.3,69.1,107.3,69,108.3,68.8z"/>
	<path class="st21" d="M105.2,69.5c0.4,0.1,1.1,0.4,0.3,0.7c-1,0.3-1,0.9-1,1.6c0.4,0.5,0.1,0.8-0.2,1.2c-0.6,0.9-0.5,1.9-0.6,2.9
		c-0.3,4.2,1.8,7.3,4.7,9.8c1.7,1.4,4.1,2.4,6.5,2.2c2.3-0.2,4.5-0.3,6.8-0.5c2.3-0.3,4.2-1.4,5.6-3.2c1.5-1.8,3.5-3,4.6-5.2
		c1.7-3.4,1.4-6.9,0.5-10.3c-0.4-1.6-1.9-2.8-2.3-4.5c-0.1-0.7-0.9-0.5-1.5-0.6c-1.9-0.2-3.4-1.1-4.2-3c0.9-0.9,2-0.5,2.9-0.1
		c0.7,0.3,1.3,0.8,2.1,0.7c2,1.5,2.8,4.1,5.3,5.3c1.4,0.6,0.6,2.3,0.7,3.4c0.2,0.3-1,1.2,0.4,1.1c1.2,0.5,1,0.8,0.3,1.8
		s-0.5,2.5-0.8,3.8c-0.4,1.9-1.5,3.4-2.5,5c-0.9,1.1-1.7,2.3-3,3c-1.4,1.8-3,3.3-4.9,4.4c-1.4,0.8-2.8,0.9-4.3,1
		c-2.2,0.3-4.5,0.7-6.7,0.6c-1.3-0.1-2.7-0.1-3.4-1.5c-0.1-0.2-0.4-0.4-0.6-0.4c-3,0.2-4.6-2.1-6.6-3.7c-0.3-0.3-0.6-0.7-1.1-0.1
		c-1.4-2-2.1-4.3-2.5-6.7c0.7-0.7,0.4-1.5,0.4-2.3c0.1-0.8,0-1.6,0-2.4C100.1,69.2,100.8,68.6,105.2,69.5z"/>
	<path class="st22" d="M190,117.9c-0.2,1.3-0.6,2.4-1.6,3.2c-1.8,1.6-4,2.6-6.1,3.7c-1.2,0.6-1.7-0.3-2.3-1
		c-0.6-0.8-1.2-1.6-0.2-2.5c2.2-2.1,4.5-4.2,6.7-6.4c0.7-0.7,1.3-0.5,2,0.1C189.4,115.8,189.7,116.8,190,117.9z"/>
	<path class="st23" d="M176.4,165.3c0.9-2.6,1.8-4.7,2.5-6.9c0.3-0.7,0.5-1.3,1.4-1.1s0.5,0.9,0.6,1.3c0,2.3,0,4.7,0,7
		c0,0.4,0.1,1-0.5,1.1c-0.7,0.1-0.7-0.6-0.7-1.1c0-1.7,0-3.5-0.3-5.3c-0.7,1.8-1.3,3.6-2,5.4c-0.2,0.5-0.2,1-0.9,1.1s-0.9-0.5-1.1-1
		c-0.7-1.8-1.4-3.5-2.4-5.2c0,1.7,0,3.5,0,5.2c0,0.4,0.2,1-0.5,1c-0.6,0-0.7-0.5-0.7-1c0-2.5,0-5,0-7.5c0-0.5,0-0.9,0.7-0.9
		c0.6,0,1,0.1,1.3,0.8C174.5,160.3,175.4,162.6,176.4,165.3z"/>
	<path class="st24" d="M33.8,159.9c0,2,0,3.9,0,5.8c0,0.4,0.2,1-0.5,1c-0.6,0-0.7-0.4-0.7-0.9c0-2.6,0-5.2,0-7.7
		c0-0.4,0.1-0.7,0.6-0.8c0.6,0,0.9,0.4,1.2,0.8c1.2,2,2.4,4,3.9,6.5c0-2.4,0-4.2,0-6.1c0-0.4-0.2-1.1,0.5-1.2c1-0.1,0.7,0.7,0.7,1.2
		c0,2.2,0,4.4,0,6.6c0,0.5,0.3,1.3-0.4,1.5c-0.9,0.3-1.2-0.5-1.5-1.1c-1-1.6-1.9-3.1-2.8-4.7C34.5,160.5,34.5,160,33.8,159.9z"/>
	<path class="st25" d="M127.3,161.9c-0.1,1.8-0.2,3.4-1.8,4.4c-2,1.2-4.4,0.4-5.3-1.7c-0.5-1.3-0.6-2.7-0.3-4.1
		c0.5-2.3,1.7-3.4,3.9-3.3c2.1,0.1,3.3,1.3,3.5,3.6C127.2,161.2,127.3,161.6,127.3,161.9z"/>
	<path class="st25" d="M193.9,161.9c-0.1,1.8-0.2,3.4-1.8,4.4c-2,1.2-4.4,0.4-5.3-1.7c-0.5-1.3-0.6-2.7-0.3-4.1
		c0.5-2.3,1.7-3.4,3.9-3.3c2.1,0.1,3.3,1.3,3.5,3.6C193.8,161.2,193.9,161.6,193.9,161.9z"/>
	<path class="st26" d="M215.5,161.8c0,3.3-1.3,4.9-3.8,4.9c-1.6,0-2.8-0.6-3.4-2.2c-0.6-1.4-0.7-2.9-0.3-4.4c0.5-2.1,1.8-3.1,3.9-3
		c1.9,0.1,3.1,1.3,3.4,3.4C215.4,161,215.4,161.5,215.5,161.8z"/>
	<path class="st27" d="M92,161.6c0-0.4-0.1-0.9,0-1.3c0.2-1-0.5-2.2,0.5-3c0.9-0.7,4.1,0.1,5,0.9c1.3,1.2,1.7,4.2,0.8,6.2
		c-0.7,1.7-2.1,2.4-4.3,2.3c-1.4-0.1-2.1-0.7-1.9-2.1C92.1,163.6,92,162.6,92,161.6z"/>
	<path class="st28" d="M224.5,162.5c1-0.8,2-1.1,2.9-0.3c0.6,0.5,0,3.6-0.6,4c-1.4,1-4.2,0.5-5.4-0.8c-1.6-1.8-1.6-5.2,0-7
		c1.3-1.4,3.8-1.8,5.3-0.7c0.3,0.2,0.6,0.5,0.5,1c-0.7,0.5-1.1-0.3-1.6-0.4c-1.9-0.4-3.3,0.3-3.9,2c-0.7,1.9,0,4.4,1.4,5
		c1,0.4,2.4,1,3-0.3C226.7,163.9,226.4,162.6,224.5,162.5z"/>
	<path class="st29" d="M246.1,166c0,0.4,0,0.6-0.3,0.7c-0.4,0.1-0.8-0.1-0.9-0.5c-0.1-1.5-1.2-1.3-2.2-1.3s-2.1-0.2-2.2,1.3
		c0,0.4-0.4,0.6-0.9,0.5c-0.6-0.1-0.3-0.6-0.2-0.9c0.8-2.6,1.6-5.3,2.5-7.9c0.4-1.1,1.3-1,1.6-0.2
		C244.5,160.5,245.3,163.3,246.1,166z"/>
	<path class="st30" d="M69.8,166c0.1,0.3,0.1,0.6-0.4,0.7c-0.3,0-0.6-0.1-0.8-0.4c-1.5-2-3.3-2.1-4.5-0.1c-0.2,0.4-0.5,0.6-0.9,0.5
		c-0.8-0.2-0.3-0.7-0.2-1c0.8-2.5,1.5-5,2.3-7.5c0.1-0.4,0.2-0.9,0.8-0.9c0.5,0,0.9,0,1.1,0.5C68.1,160.5,68.9,163.3,69.8,166z"/>
	<path class="st31" d="M103.7,161.7c0-0.3,0-0.6,0-0.9c0-3.7,0.4-4.1,4.2-3.5c0.3,0,0.7,0,0.7,0.4c0,0.5-0.3,0.6-0.7,0.7
		c-0.4,0-0.8,0.1-1.1,0c-1.2-0.1-1.8,0-1.8,1.5s0.7,1.6,1.8,1.6c0.5,0,1.4-0.4,1.4,0.4c0,0.8-0.9,0.6-1.4,0.5
		c-1.6-0.2-1.8,0.5-1.9,1.9c0,1.7,1.1,1.3,2,1.4c0.4,0,0.8,0,1.1,0c0.3,0,0.5,0.1,0.5,0.4c0,0.4-0.2,0.6-0.5,0.6
		c-1.1,0-2.3,0.1-3.4,0c-0.8-0.1-0.9-0.8-0.9-1.4C103.7,164,103.7,162.8,103.7,161.7z"/>
	<path class="st32" d="M74,164.9c1.4,0.5,2.4,0.9,3.4,0.9c0.9,0,1.6-0.4,1.9-1.3c0.3-0.9-0.4-1.4-1.1-1.7c-0.8-0.4-1.7-0.7-2.6-1.2
		c-1-0.5-1.4-1.4-1.2-2.5c0.2-1.1,1-1.6,1.9-1.8c2-0.5,3.3,0,3.9,1.6c-1-0.3-1.9-0.6-2.8-0.7c-0.7-0.1-1.6,0.1-1.8,1
		c-0.3,0.9,0.3,1.4,1,1.8c0.8,0.4,1.6,0.6,2.4,1.1c1.2,0.6,1.8,1.6,1.3,2.9c-0.4,1.2-1.4,1.8-2.6,1.8C76.5,166.7,74.9,167,74,164.9z
		"/>
	<path class="st33" d="M10.9,159c-1.7-0.8-3.4-1.5-4.8,0.3c-1,1.2-0.9,4.1,0,5.3c1.4,1.8,3.1,0.9,5.2,0.1c-1,2.1-2.5,2-3.9,1.9
		c-2.1-0.2-3.3-2.2-3.3-5c0.1-2.4,1.4-4.2,3.5-4.5C9.6,157,10.6,157.5,10.9,159z"/>
	<path class="st34" d="M58.2,165.1c-0.4,1.4-1.4,1.9-3.5,1.6c-2-0.3-3.3-2.3-3.2-5c0-2.5,1.5-4.3,3.6-4.5c1.9-0.2,2.8,0.3,3.1,1.8
		c-1.7-0.8-3.3-1.5-4.7,0.3c-1,1.2-1,4.1,0,5.4C54.3,165.8,55.5,166,58.2,165.1z"/>
	<path class="st35" d="M143.9,162.4c0-0.6,0-1.3,0-1.9c0-1.2,0.2-2.5-1.7-2.2c-0.3,0.1-0.7-0.1-0.7-0.5c0-0.5,0.3-0.6,0.7-0.6
		c1.6,0,3.1,0,4.7,0c0.3,0,0.7,0,0.7,0.5s-0.4,0.7-0.8,0.6c-1.8-0.3-1.7,0.9-1.7,2.1c0,1.7,0,3.4,0,5.1c0,0.5,0.2,1.2-0.5,1.2
		c-0.8,0-0.8-0.7-0.8-1.2C143.9,164.4,143.9,163.4,143.9,162.4L143.9,162.4z"/>
	<path class="st36" d="M132.5,161.8c0-0.4,0-0.8,0-1.1c0-3.8,0-3.8,3.8-3.5c0.4,0,1-0.2,0.9,0.5c0,0.4-0.5,0.5-0.9,0.5
		s-0.8,0.1-1.1,0c-1.1-0.1-1.6,0.2-1.5,1.4c0,1.1,0.2,1.8,1.5,1.6c0.3-0.1,0.6,0,0.9,0c0.3,0,0.7,0.1,0.7,0.5s-0.3,0.6-0.6,0.6
		c-2.8-0.5-2.6,1.3-2.5,3.1c0,0.4,0.2,1-0.4,1.1c-0.7,0.1-0.8-0.5-0.8-1C132.5,164.4,132.5,163.1,132.5,161.8L132.5,161.8z"/>
	<path class="st37" d="M105.2,69.5c-4.6,0-4.5-0.5-4.5,4.7c0,1.1,0,2.3,0,3.4c0,0.7-0.2,1.1-1,0.7c-0.7-3.9-0.2-7.4,1.5-11.1
		c1.2,0.9,2.4,2,4,2.1C105.2,69.4,105.2,69.4,105.2,69.5z"/>
	<path class="st38" d="M17.5,161.4c0,0.6,0.1,1.3,0,1.9c-0.2,1.7,0.2,2.7,2.2,2.3c0.4-0.1,1.2-0.2,1.1,0.6c0,0.7-0.8,0.5-1.2,0.5
		c-3.3,0.2-3.3,0.1-3.3-3.1c0-1.8,0-3.5,0-5.3c0-0.5-0.2-1.1,0.6-1.1c0.8,0,0.6,0.7,0.6,1.1C17.6,159.4,17.5,160.4,17.5,161.4z"/>
	<path class="st39" d="M162.8,161.6c0-0.8-0.1-1.6,0-2.5c0.1-0.7-0.5-1.8,0.5-1.9c1.2-0.1,0.6,1.2,0.6,1.8c0.1,1.5,0.2,3,0,4.5
		c-0.1,1.5,0.3,2.2,1.9,2c0.5-0.1,1.4-0.3,1.4,0.5s-0.8,0.6-1.3,0.6c-3.2,0.1-3.2,0.1-3.2-3C162.7,163,162.7,162.3,162.8,161.6
		C162.7,161.6,162.7,161.6,162.8,161.6z"/>
	<path class="st39" d="M199.1,161.7c0-1.1,0-2.3,0-3.4c0-0.5-0.2-1.1,0.6-1.1s0.5,0.7,0.5,1.2c0,1.7,0.1,3.4,0,5.1
		c-0.1,1.6,0.2,2.4,2,2.1c0.5-0.1,1.4-0.3,1.3,0.6c0,0.7-0.9,0.5-1.4,0.5c-3.1,0.1-3.1,0.1-3.1-3.1
		C199.1,163,199.1,162.4,199.1,161.7L199.1,161.7z"/>
	<path class="st40" d="M152.6,161.4c0.3-1,0.5-1.9,0.8-2.9c0.2-0.5,0.1-1.3,1.1-1.3s1,0.8,1.2,1.4c0.4,1.4,0.8,2.9,1.3,4.3
		c-0.3,0.5-0.2,1.5-1.2,1c-0.5-1.1-0.7-2.2-1.1-3.4c-0.1-0.3-0.1-0.7-0.1-1.4c-0.1,2-0.5,3.5-1.2,5c-0.9,0.2-1-0.2-0.9-1
		C152.5,162.6,152.9,162,152.6,161.4z"/>
	<path class="st41" d="M155.9,164c0.4-0.4,0.7-0.7,1.1-1.1c0.3,1,0.6,1.9,0.9,2.9c0.1,0.3,0.4,0.8-0.2,0.9c-0.4,0.1-0.7-0.1-0.9-0.5
		c-1.1-1.9-3.3-1.9-4.4,0c-0.3,0.5-0.6,0.7-1,0.5c-0.5-0.2-0.1-0.6,0-1c0.4-1.4,0.9-2.9,1.3-4.3c0.5,0.6,0.4,1.2,0.1,1.8
		c-0.2,0.6,0,0.8,0.6,0.8C154.1,163.4,155,163.4,155.9,164z"/>
	<path class="st42" d="M25.8,161.9c0-1.2,0-2.4,0-3.6c0-0.5-0.1-1.1,0.7-1.1c0.7,0,0.6,0.5,0.6,1c0,2.5,0,5,0,7.5
		c0,0.4,0.1,1-0.6,0.9c-0.6-0.1-0.6-0.5-0.6-1C25.8,164.4,25.8,163.2,25.8,161.9z"/>
	<path class="st43" d="M46.3,162.1c0,1.3,0,2.5,0,3.8c0,0.4,0,0.8-0.5,0.8s-0.7-0.3-0.7-0.7c0-2.7,0-5.4,0-8.1
		c0-0.4,0.2-0.6,0.6-0.6c0.5,0,0.7,0.3,0.7,0.7C46.3,159.3,46.3,160.7,46.3,162.1L46.3,162.1z"/>
	<path class="st44" d="M234.4,162.1c0,1.2,0,2.4,0,3.6c0,0.4,0.1,1-0.6,0.9c-0.4,0-0.6-0.4-0.6-0.8c0-2.6,0-5.3,0-7.9
		c0-0.4,0.1-0.7,0.6-0.7s0.6,0.4,0.6,0.8C234.4,159.4,234.4,160.8,234.4,162.1L234.4,162.1z"/>
	<path class="st45" d="M112,64.2c0,0.5,0.1,1.1-0.1,1.6c-0.2,0.8-0.6,0.8-1.1,0.2c0.7-1.7,0.4-3.3-0.4-4.8c0.4-0.2,0.6-0.9,1.2-0.4
		C113,61.8,112.7,63,112,64.2z"/>
	<path class="st46" d="M26.4,156.5c-0.6,0.1-1-0.1-0.8-0.4c0.5-0.8,1.4-1.2,2.2-1.5c0.2-0.1,0.5,0.2,0.4,0.4
		C28.1,156.2,27,156.2,26.4,156.5z"/>
	<path class="st47" d="M212,139.2c0,1.2,0,2.4,0,3.6c0,1-0.5,1.3-1.4,1.2c-1.5-0.1-2.6-0.7-3.2-2.2c-1.4-3.2,0.1-6.8,3-7.3
		c1.1-0.2,1.8,0,1.7,1.4C212,137,212,138.1,212,139.2z"/>
	<path class="st48" d="M9.5,136.2c-0.1-1.5,0.3-3,0.8-4.5c0.4-1.2,1.1-2.1,2.5-2.2c1.5-0.1,2.4,0.7,2.9,2c1.2,3.2,1.2,6.4,0.2,9.6
		c-0.4,1.3-1.2,2.4-2.8,2.4c-1.7,0-2.4-1.2-2.9-2.6C9.6,139.5,9.5,137.9,9.5,136.2z"/>
	<path class="st49" d="M235.7,137.2c-0.8-0.5-2.3,0.7-2.6-0.9c-0.2-1.1,1.5-2.4,2.9-2.5c1.4,0,2.8,1.2,2.5,2.5
		C238.2,138,236.6,136.7,235.7,137.2z"/>
	<path class="st50" d="M157.9,141.3c0.7,0.2,1.9-0.5,1.8,1c-0.1,1.9-1.7,1.8-2.9,2c-0.9,0.2-2-0.2-1.9-1.3
		C155,140.9,156.8,141.5,157.9,141.3z"/>
	<path class="st51" d="M77.4,144.4c-1-0.2-2-0.2-2-1.4c-0.1-1.1,0.7-1.5,1.7-1.6c0.6-0.1,1.1-0.1,1.7-0.1c0.5,0,1.3-0.5,1.5,0.5
		c0.1,0.7,0.1,1.5-0.8,1.9C78.7,143.9,78,144.2,77.4,144.4z"/>
	<path class="st52" d="M112,64.2c-0.1-1.1,0.2-2.3-0.4-3.4c0.3-0.4,0.7-0.4,1.1-0.4c0.8-0.5,1,0.4,1.8,0.6c0-0.7-0.3-1.8,0.9-1.6
		c2.8,0.4,5.6-0.1,8.4,0.7c0.2,0.1,0.5,0.2,0.6,0.4c1.4,1.4,2.7,3,5.1,2.6c0.9-0.1,1.2,0.8,1.3,1.5c0.1,0.9,0.5,1.6,1.1,2.2
		c1.6,1.8,1.3,4.2,1.5,6.3c0.2,3.8-1,7.3-4.3,9.7c-1.2,0.9-1.9,2.3-3.1,3.2c-2,1.6-4.3,2.1-6.7,2c-2.4-0.1-4.7,0.7-7.1,0.1
		c-3.9-1-6.5-3.7-8.3-6.9c-1.2-2.2-1-5.1-0.7-7.7c0.1-0.8,1.1-0.8,1.1-1.7c1.1,0,1.6-0.1,0.9,1.4c-1.3,3-0.6,5.9,1.3,8.6
		c2.1,3.1,5.2,4,8.6,4.7c4.3,0.9,7.7-0.7,11-3.4c3.5-2.8,5.1-6.3,5.1-10.8c0-6.5-7.4-11.1-12.3-9.8c-1.5,0.4-3.2,0-4.8,0.5
		C113.4,63.4,112.9,64.2,112,64.2z"/>
	<path class="st45" d="M124.5,60.5c-3.1-0.6-6.4-0.1-9.8-0.9c0.5,0.9,1.7,1.5,0.3,2.2c-1,0.5-1.3-0.2-1.6-1
		c-0.1-0.2-0.4-0.2-0.6-0.3c1.2-1.8,3.2-1.6,4.9-2.2c1.6-0.6,3.5,0.3,5.3-0.6c0.6-0.3,2,0.3,2.7,0.9c1.1,1,2.6,1.5,3.7,2.6
		c-0.4,0.5-0.9,0.7-1.4,0.2C127,60.5,125.8,60.4,124.5,60.5z"/>
	<path class="st45" d="M129.8,84.7c0.9-1.2,1.9-2.2,3-3C132.2,83,131.7,84.6,129.8,84.7z"/>
	<path class="st45" d="M135.9,71.1c-0.6,0.2-0.1,1.1-0.9,1.3c-0.4-1-0.2-1.8,0.6-2.5C135.6,70.3,135.7,70.7,135.9,71.1z"/>
	<path class="st53" d="M111.7,75.6c0-4.7,4.9-8.7,9.3-7.5c2.4,0.7,4.1,2.6,4.5,5.3c0.3,2.1-0.5,3.9-2.2,5.2c-1.6,1.2-3.5,1.4-5.3,2
		c-2.7,1-3.9-0.4-5.5-1.8C111.4,77.9,111.7,76.7,111.7,75.6z"/>
	<path class="st54" d="M126,161.9c-0.1,0.8,0,1.5-0.3,2.1c-0.4,1.1-1.3,1.7-2.4,1.7c-1.2,0-1.8-0.8-2.1-1.8c-0.4-1.2-0.4-2.5,0-3.7
		c0.3-1.1,1-1.9,2.3-1.9c1.2,0,1.9,0.6,2.4,1.7C126,160.6,126,161.3,126,161.9z"/>
	<path class="st54" d="M192.6,161.9c0.1,1,0,1.9-0.6,2.7c-1,1.4-3.1,1.5-3.9,0c-0.9-1.7-0.9-3.5,0-5.2c0.8-1.6,3.1-1.5,4,0
		C192.6,160.2,192.7,161,192.6,161.9z"/>
	<path class="st55" d="M214.2,161.9c0,0.8-0.1,1.5-0.4,2.3c-0.5,1.1-1.3,1.6-2.4,1.5c-1,0-1.8-0.7-2.1-1.6c-0.4-1.2-0.4-2.3-0.2-3.5
		c0.3-1.4,1-2.4,2.5-2.3c1.5,0,2.2,1.1,2.4,2.4C214.2,161.1,214.2,161.6,214.2,161.9z"/>
	<path class="st56" d="M93.2,162c0-0.6,0-1.3,0-1.9c0-1.9,0.8-2.4,2.5-1.6c1.6,0.7,1.8,2.2,1.7,3.7c-0.1,1.6-0.4,3-2.3,3.5
		c-1.3,0.3-2.1,0.2-2-1.4C93.3,163.5,93.2,162.7,93.2,162L93.2,162z"/>
	<path class="st57" d="M242.7,158.7c0.5,1.6,0.9,2.8,1.2,4c0.1,0.4,0.4,1,0,1.2c-0.7,0.4-1.6,0.3-2.4,0c-0.6-0.2-0.1-0.8-0.1-1.1
		C241.8,161.5,242.2,160.3,242.7,158.7z"/>
	<path class="st58" d="M66.4,158.6c0.4,1.4,0.7,2.5,1,3.5c0.6,1.9,0.4,2.1-1.7,1.9c-0.9-0.1-0.9-0.4-0.7-1.1
		C65.5,161.6,65.9,160.3,66.4,158.6z"/>
	<path class="st59" d="M155.9,164c-0.9,0-1.7,0-2.6,0c-0.3-1.8,0.8-3.3,1.2-5C155,160.7,155.9,162.2,155.9,164z"/>
</g>
<rect x="-2720.6" y="-1255.6" class="st60" width="5669.3" height="2834.6"/>
<g>
	<path class="st61" d="M130.9,35.2c0,6.8,0,13.6,0,20.3c-0.2,1.6-0.2,3.2-0.2,4.9c0,2.1-0.6,4.2-0.7,6.3c0,1-0.5,1.3-1.5,1.1
		c-0.6-0.1-1.3-0.1-1.9-0.1c-12.9,0-25.8,0-38.7,0c-2.4,0-2.9,0.1-2.9-3c0-1.6-0.6-3.1-0.7-4.7c-0.1-2.6,0-5.2,0-7.8c0-5,0-10,0-15
		c0-0.6,0-1.1,0.5-1.5c0.6-0.5,0.6-1.3,0.8-2c1.3-5.4,5.3-8.9,10.8-9.6c1.2-0.1,2.4-0.2,3.6-0.2c9.1,0,18.2,0,27.2,0
		c2.3,0,2.7,0.4,2.8,2.7c0.1,2.4,0,4.7,0,7.1c0,0.5-0.1,1,0.1,1.5C130.3,35.6,130.6,35.1,130.9,35.2z"/>
	<path class="st62" d="M81,89.2c0,0.7,0,1.4,0,2.1c-0.1,1.9-0.1,3.8-0.1,5.7c0,2.8,0.3,5.6-0.6,8.3c-0.2,0.6-0.2,1.2-0.2,1.8
		c0,2.4,0,4.9,0,7.3c0,1.6-0.4,2-2,2c-13.6,0-27.3,0-40.9,0c-1.5,0-1.7-0.3-1.8-1.7c0-1.3,0-2.6,0-3.9c0-2.5-0.1-5-0.5-7.5
		c-0.6-3.5-0.6-6.9-0.5-10.4c0-1.6,0-3.2,0-4.8c-0.1-2,0.1-4,0.9-5.9c1.4-3.2,3.1-6.1,6.3-7.9c1.9-1.1,4-1.6,6.1-1.6
		c10.1,0,20.3,0,30.4,0c1.6,0,1.8,0.2,1.8,1.9c0,1.8,0,3.5,0,5.3c0,1.2,0,2.3,0.6,3.4c0.3,0.7,0.3,1.5,0.3,2.3
		C81,86.7,80.8,87.9,81,89.2z"/>
	<path class="st63" d="M84,100.6c0-7.9,0-15.8,0-23.8c0-1.4,0.1-2.7,0-4.1c0-0.9,0.3-1.2,1.2-1.1c0.8,0.1,1.5,0,2.3,0
		c45.9,0,91.8,0,137.7,0c0.5,0,1,0,1.5,0c0.6,0,0.8,0.2,0.8,0.8c0,8.9,0,17.7,0,26.6c-0.2,0-0.3,0-0.4-0.2c-0.2-0.5-0.2-1-0.2-1.5
		c0-3,0-6,0-9c0-3.5,0-7,0-10.5c0-0.5,0-0.9-0.3-1.3c-0.4-0.5-0.7-1.1-0.6-1.6c-0.1-0.4-0.3-0.2-0.2-0.3c0,0,0.1,0,0.1,0
		c0.1,0.6,0.3,1.2,0.3,1.9c0,0.6-0.1,0.7-0.7,0.8c-0.4-0.8-0.2-1.6-0.2-2.5c0-1.5-0.1-1.6-1.7-1.6c-0.3,0-0.5,0-0.8,0
		c-44.9,0-89.7,0-134.6,0c-0.6,0-1.3-0.1-1.9,0.1c-0.5,0.3-0.4,0.8-0.4,1.2c0,1.2-0.2,2.3-0.7,3.3c-0.5,1-0.7,2.1-0.7,3.3
		c0,3.3,0,6.5,0,9.8c0,2.7,0,5.4,0,8.1C84.6,99.7,84.7,100.3,84,100.6z"/>
	<path class="st64" d="M223.8,114.1c-2,2.1-4.5,3.1-7.4,3.1c-1.7,0-3.4,0-5.1,0c-41.7,0-83.4,0-125.1,0c-0.6,0-1.3,0.1-1.9-0.1
		c-0.1-3.7-0.4-7.5,0.3-11.2c0.1-0.6,0-1.7,1.1-1.6c0.4,0.5,0.3,1.1,0.3,1.6c0,2.7,0,5.4,0,8.1c0,0.5-0.1,1.2,0.5,1.5
		c0.4,0.2,0.9,0.1,1.4,0.1c42.6,0,85.1,0,127.7,0c1.3,0,2.6-0.2,3.8-0.6c1-0.3,1.8-1,2.8-1.5C222.7,113.5,223.5,113.3,223.8,114.1z"
		/>
	<path class="st65" d="M130.9,124.4c0,8,0.1,15.9,0,23.9c0,2.5,0.2,5-0.2,7.5c-1,5.5-6,9.8-11.5,9.8c-11.4,0-22.9,0-34.3,0
		c-0.2,0-0.4-0.1-0.7-0.1c-0.1-0.2-0.1-0.4-0.1-0.7c0-5.8,0-11.6,0-17.5c0-0.3,0-0.5,0.1-0.9c0.5,0.3,0.5,0.7,0.5,1.2
		c0,0.8,0.2,1.5,0.1,2.3c-0.3,2.2,0.7,4.4,0.4,6.6c-0.3,1.9,0.5,3.8,0.4,5.7c0.2,1.4,0.3,1.5,1.7,1.6c10.3,0,20.6,0.1,31-0.1
		c4.7-0.1,8.2-2.6,10.2-7c0.7-1.5,0.7-3.1,0.8-4.7c0.5-4.6,0.5-9.2,0.8-13.8c0.1-1.7,0.2-3.4,0.2-5.1c0.1-2.5-0.1-4.9,0-7.4
		C130.4,125.3,130.2,124.7,130.9,124.4z"/>
	<path class="st66" d="M81,89.2c-0.4-0.9-0.2-1.9-0.2-2.8c0-1.3-0.1-2.6-0.9-3.8c-0.3-0.4-0.2-1.2-0.2-1.8c0-2.2,0-4.5,0-6.7
		c0-0.8-0.2-1.1-1.1-1.1c-10.4,0-20.8-0.1-31.2,0.1c-5,0.1-8.6,2.6-10.8,7.2c-0.5,1.1-0.9,2.3-1.5,3.3c-0.4,0.7-0.6,1.5-0.5,2.3
		c0.1,2.3,0,4.6,0,6.9c-0.3,1.9-0.2,3.7-0.1,5.6c0.2,3,0.2,5.9,0.2,8.9c0,2.8,0,5.6,0,8.3c0,0.6,0.1,1.2-0.4,1.6
		c-0.3-0.3-0.2-0.7-0.2-1.1c0-10.3,0-20.6,0-31c0-4.9,1.9-8.9,6.2-11.5c1.8-1.1,3.9-1.8,6-1.8c11.2,0,22.4,0,33.6,0
		c0.6,0,1.1,0,1,0.8C81,78,81,83.6,81,89.2z"/>
	<path class="st67" d="M34.3,117c0-7.7,0-15.4,0.1-23.1c0-0.4-0.2-0.9,0.2-1.3c0.1,2.5,0,5,0.3,7.5c0.2,1.3,0.2,2.7,0.4,3.9
		c0.8,3.6,0.2,7.3,0.4,10.9c0,0.7,0.2,1.1,1,1.1c13.9,0,27.8,0,41.8,0c0.9,0,1.2-0.3,1.2-1.2c0-1.6,0.1-3.2,0-4.8
		c-0.2-2.8,0.5-5.4,0.8-8.1c0.2-1.8,0.4-3.6,0.2-5.4c-0.2-1.7,0.1-3.5,0.4-5.2c0,5.7,0.1,11.3,0.1,17c0,2.6,0,5.2,0,7.8
		c0,0.9-0.3,1.2-1.2,1.2c-1.3,0-2.6-0.1-3.9-0.1c-13.2,0-26.5,0-39.7,0C35.7,117.1,35,117.3,34.3,117z"/>
	<path class="st68" d="M130.9,35.2c-0.2,0.1-0.4,0.3-0.4,0.5c-0.1,0.3-0.1,0.7-0.5,0.7c-0.4-0.1-0.5-0.5-0.5-0.9c0-2.7,0-5.4,0-8.1
		c0-2.9,0-2.9-2.8-2.9c-9.5,0-19,0-28.5,0c-4.3,0-8,1.5-10.6,5.2c-1.2,1.7-1.8,3.7-2.2,5.7c-0.1,0.3-0.1,0.7-0.3,0.8
		c-1.1,0.3-0.8,1.2-0.8,1.9c0,7.4,0,14.7,0,22.1c0.4,0.9,0.3,1.9,0.3,2.9c0.1,1.5,0,3,0,4.5c0,0.5,0,0.9-0.4,1.3
		c-0.4-0.2-0.2-0.6-0.2-0.9c0-10.7,0-21.4,0-32.1c0-7.2,6.2-12.8,13.4-12.6c7.5,0.2,14.9,0,22.4,0c3.5,0,6.9,0,10.4,0
		c0.6,0,0.7,0.2,0.7,0.7C130.9,27.7,130.9,31.5,130.9,35.2z"/>
	<path class="st69" d="M130.9,124.4c-0.3,0.4-0.2,0.9-0.2,1.3c0,2.5,0,5.1,0,7.6c-0.8-0.2-0.6-0.8-0.8-1.3c-0.9-2.9-0.6-5.9-0.7-8.8
		c0-1.2-0.3-1.3-1.5-1.4c-1.4,0-2.7,0-4.1,0c-11.8,0-23.6,0-35.4,0c-0.3,0-0.7,0-1,0c-1.2,0-1.3,0.1-1.3,1.3c0,1.9,0.1,3.7,0,5.6
		c-0.1,1.1,0.1,2.3-0.7,3.2c-0.7,0-0.5-0.6-0.5-0.9c-0.2-1.8-0.1-3.7-0.2-5.5c-0.1-0.1-0.3,0-0.1,0c0,0,0,0,0.1,0
		c0.2,0.3,0.1,0.6,0.1,1c0,1.7,0.1,3.5,0.1,5.2c0,0.4,0.2,0.9-0.4,1.1c0-4,0-8-0.1-12c0-0.7,0.3-0.8,0.9-0.8c1.9,0,3.9,0,5.8,0
		c11.8,0,23.5,0,35.3,0c1.3,0,2.6,0,3.9-0.1c0.7,0,1.1,0.3,1,1.1C130.9,122.1,130.9,123.2,130.9,124.4z"/>
	<path class="st70" d="M84.2,68.8c0-2.9,0-5.8,0-8.7c0.1,0,0.2,0.1,0.2,0.1c0,1.4,1.2,2.6,0.8,4.1c-0.3,0.9,0.3,1.7,0.2,2.6
		c0,0.3,0.3,0.5,0.6,0.5c0.3,0,0.7,0,1,0c13.4,0,26.9,0,40.3,0c0.4,0,0.8-0.1,1.1,0c1,0.6,1.1-0.2,1.2-0.8c0.1-0.5,0-1.1,0.1-1.6
		c0.3-2.6,0.8-5.2,0.8-7.8c0-0.6-0.4-1.3,0.3-1.8c0,4.2,0,8.4,0.1,12.6c0,0.5-0.2,0.8-0.7,0.7c-0.5,0-1,0-1.5,0c-14.5,0-29,0-43.5,0
		C84.9,68.9,84.6,68.8,84.2,68.8z"/>
	<path class="st71" d="M197.6,133.3c-0.5,0-0.7,0-0.9,0c-1.8,0.3-3.2-0.1-3.7-2.1c-0.1-0.2-0.2-0.5-0.4-0.7
		c-0.2-0.2-0.5-0.2-0.7-0.1c-0.3,0.1-0.2,0.3-0.3,0.6c0,0.1,0,0.2,0,0.2c-0.1,2.2-0.1,2.2-2.2,2.2c-0.7,0-1-0.2-1-1c0.1-2,0-4,0-6
		c0-0.7,0.2-0.9,0.9-0.9c1.9,0,3.8,0,5.7,0.1c1.5,0.1,2.5,1,2.6,2.1c0,0.8-0.2,1.5-0.9,1.8c-0.9,0.4-0.7,0.8-0.3,1.4
		C196.7,131.6,197.1,132.3,197.6,133.3z"/>
	<path class="st72" d="M176.3,62.6c0,1.2-0.1,2.2,0,3.1c0.1,1.2-0.3,1.5-1.4,1.3c-0.4-0.1-1.2,0.4-1.2-0.6c0-2.2,0-4.5,0-6.7
		c0-0.2,0-0.4,0.2-0.5c0.5-0.3,2.9,0,3.3,0.5c0.9,1,1.7,2.1,2.7,3.2c0-1.1,0-2.1,0-3c0-0.6,0.1-0.9,0.8-0.9c0.3,0,0.6,0,0.9,0
		c0.7-0.1,0.9,0.2,0.9,0.9c0,2.1,0,4.1,0,6.2c0,0.6-0.2,0.8-0.8,0.9c-1.2,0.1-2.2-0.2-2.9-1.3C178.2,64.7,177.3,63.8,176.3,62.6z"/>
	<path class="st73" d="M158.4,129.3c0-1.1,0-2.1,0-3.2c0-0.5,0.2-0.8,0.7-0.8c0.2,0,0.5,0,0.7,0c1.8,0,1.8,0,1.8,1.8
		c0,0.9,0.2,1.2,1.1,1.1c0.8,0,1.4,0,1.3-1.1c-0.1-0.6-0.3-1.4,0.3-1.7c0.8-0.3,1.7-0.1,2.5,0c0.4,0,0.3,0.4,0.3,0.6
		c0,2.2,0,4.3,0,6.5c0,0.6-0.2,0.8-0.7,0.7c-0.1,0-0.2,0-0.2,0c-2.1,0.1-2.2,0.1-2.2-2.1c0-1-0.5-1-1.2-1c-0.7,0-1.3-0.1-1.2,1
		c0.1,0.7,0.3,1.6-0.2,1.9c-0.7,0.4-1.7,0.1-2.6,0.1c-0.6,0-0.4-0.4-0.4-0.7C158.4,131.5,158.4,130.4,158.4,129.3z"/>
	<path class="st74" d="M151.3,133.4c-2.7,0-4.4-1.1-4.9-3.1c-0.5-2.1,0.7-4.1,2.7-4.8c1.2-0.4,2.5-0.4,3.7-0.1
		c2.1,0.5,3.4,2.1,3.3,3.9c-0.1,2-1.6,3.6-3.7,3.9C152,133.4,151.5,133.4,151.3,133.4z"/>
	<path class="st75" d="M209,133.3c-0.8,0-1.5-0.1-2.2,0c-0.8,0.1-1.3-0.2-1.4-0.9c-0.2-0.7-0.7-0.7-1.3-0.6c-0.7,0.1-1.5-0.4-2,0.6
		c-0.3,0.8-2,1.3-2.7,0.9c-0.3-0.2-0.2-0.4-0.1-0.6c0.9-2.3,1.8-4.5,2.7-6.8c0.2-0.4,0.5-0.5,0.9-0.6c2.5-0.2,2.6-0.2,3.6,2.1
		C207.4,129.4,208.2,131.3,209,133.3z"/>
	<path class="st76" d="M178.8,133.3c-0.9,0-1.6,0-2.3,0c-0.7,0-1.1-0.1-1.2-0.8c-0.2-1-1-0.7-1.7-0.7c-0.6,0-1.4-0.3-1.7,0.7
		c-0.2,0.7-1.9,1.2-2.6,0.8c-0.3-0.2-0.2-0.4-0.1-0.6c0.9-2.3,1.8-4.5,2.7-6.8c0.1-0.4,0.4-0.5,0.8-0.5c2.6-0.3,2.7-0.2,3.8,2.2
		C177.2,129.4,177.9,131.3,178.8,133.3z"/>
	<path class="st77" d="M209.7,67c1-2.6,2-4.9,2.9-7.3c0.2-0.5,0.5-0.6,1-0.6c2.6-0.1,2.6-0.1,3.6,2.3c0.7,1.5,1.3,3.1,1.9,4.6
		c0.3,0.7,0.3,1.1-0.6,1c-0.4,0-0.8,0-1.3,0c-0.7,0.1-1.1-0.1-1.4-0.9c-0.2-0.8-2.8-1.1-3.1-0.3C212.3,67.6,211,66.9,209.7,67z"/>
	<path class="st78" d="M201.4,67.1c-3.1,0-4.9-1.6-4.8-4.3c0.1-1.6,0.9-2.8,2.5-3.4c2.3-0.9,5.2-0.2,6.1,1.5
		c0.6,1.1,0.4,1.3-0.8,1.3c-0.9,0-1.7,0.3-2.2-0.9c-0.3-0.8-1.7-0.6-2.1,0.3c-0.4,0.9-0.4,1.9-0.1,2.9c0.2,0.5,0.6,0.7,1,0.8
		c0.6,0.1,1-0.2,1.3-0.7c0.3-0.5,2.4-0.8,2.9-0.5c0.3,0.3,0.1,0.6,0,0.8C204.5,66.6,203.1,67.1,201.4,67.1z"/>
	<path class="st79" d="M143.5,67.1c-3.3,0-5.1-1.6-5-4.2c0.1-1.9,1.2-3.3,3.1-3.7c1.4-0.3,2.7-0.3,4,0.3c0.6,0.3,1,0.7,1.4,1.2
		c0.3,0.4,0.6,0.9,0.4,1.4c-0.2,0.4-0.8,0.2-1.2,0.2c-0.8,0-1.6,0.3-2-0.9c-0.3-0.9-1.7-0.7-2.1,0.2c-0.5,1-0.4,2,0,3
		c0.2,0.5,0.6,0.7,1.1,0.7c0.6,0,1-0.2,1.3-0.7c0.3-0.5,2.5-0.8,2.9-0.4c0.3,0.4,0,0.8-0.2,1.1C146.1,66.7,144.7,67.1,143.5,67.1z"
		/>
	<path class="st80" d="M140.4,133.4c-3.7,0-5.6-2.3-4.7-5.4c0.6-2,3.1-3.1,5.7-2.6c1.3,0.3,2.4,0.8,2.9,2.1c0.2,0.6,0.2,1-0.6,1
		c-0.5,0-0.9,0-1.4,0c-0.5,0-0.8,0-0.9-0.6c-0.2-0.6-0.7-0.9-1.3-0.8c-0.6,0.1-0.9,0.5-1.1,1c-0.2,0.8-0.3,1.6-0.1,2.4
		c0.2,0.6,0.5,1,1.2,1.1c0.6,0.1,1-0.2,1.3-0.7c0.3-0.5,2.4-0.8,2.8-0.4c0.4,0.4,0.1,0.8-0.1,1.1C143.1,133,141.7,133.4,140.4,133.4
		z"/>
	<path class="st78" d="M214.6,133.4c-3.5,0-5.6-2.5-4.4-5.5c0.7-1.8,2.1-2.5,3.9-2.6c1.8-0.1,3.5,0.2,4.5,2c0.4,0.8,0.3,1.2-0.7,1.2
		c-0.9,0-1.9,0.3-2.4-1c-0.4-0.8-1.8-0.5-2.1,0.4c-0.3,0.8-0.3,1.6-0.1,2.5c0.1,0.6,0.5,1.1,1.1,1.2c0.6,0.1,1.1-0.2,1.4-0.7
		c0.3-0.5,2.5-0.8,2.9-0.3c0.3,0.3,0.1,0.6-0.1,0.9C217.7,133,216.2,133.4,214.6,133.4z"/>
	<path class="st81" d="M223.8,114.1c-0.6-0.3-1.2-0.3-1.8-0.4c-0.1,0-0.3,0-0.3-0.1c0-0.3,0.2-0.4,0.4-0.5c1.3,0.2,1.3,0.2,1.4-1.5
		c0.1-0.8,0.4-1.5,0.9-2c0.6-0.6,0.5-1.3,0.6-2c0.1-0.7,0.2-1.3,0.4-2c0.1-5.1,0-10.1,0.1-15.2c0-0.5,0-1,0-1.5c0-0.4,0.1-0.9,0.6-1
		c0.5-0.1,0.8,0,1.1,0.4c0,3.6,0,7.1,0,10.7c0.2,2.5,0.1,5.1,0,7.6C227,109.5,226,112,223.8,114.1z"/>
	<path class="st82" d="M84.1,132.8c0.3-1.8,0.1-3.6,0.1-5.3c0-0.7,0-1.4,0.1-2.1c0.2,1.8,0,3.7,0.4,5.5c0.1,0.4-0.1,0.8,0.2,1.1
		c0.6,0.7,0.6,1.6,0.6,2.5c0,5.1,0.4,10.3,0.2,15.4c-0.1,3.7,0.4,7.3,0.2,10.9c0,0.6,0.2,1.3-0.6,1.5c0.1-1.6-0.4-3.1-0.5-4.6
		c-0.1-1.7,0.2-3.4-0.3-5.2c-0.4-1.3-0.1-2.9-0.1-4.4c0-0.4,0.1-0.9-0.2-1.6c0,6.5,0,12.8,0,19c-0.3-0.2-0.2-0.5-0.2-0.7
		c0-10.5,0-20.9,0-31.4C84.1,133.1,84.1,132.9,84.1,132.8z"/>
	<path class="st83" d="M183,125.4c0.8,0,1.7,0,2.5,0c0.7,0,1.1,0.1,1.1,1c0,0.8-0.3,1.1-1.1,1c-0.8-0.1-1.1,0.2-1.1,1.1
		c0.1,1.3,0,2.7,0,4c0,0.6-0.1,0.9-0.8,0.9c-2.3,0.1-2.3,0.1-2.3-2.2c0-0.7,0-1.4,0-2.1c0.1-1.1,0-2-1.5-1.7
		c-0.7,0.1-0.6-0.5-0.6-0.9c0-0.5-0.1-1,0.7-1C180.9,125.4,181.9,125.4,183,125.4C183,125.4,183,125.4,183,125.4z"/>
	<path class="st83" d="M152.4,63.1c0-1.1,0-2.1,0-3.2c0-0.5,0.2-0.7,0.7-0.8c2.3-0.3,2.5-0.1,2.5,2.2c0,1,0,2,0,3
		c0,0.6,0.2,0.8,0.8,0.8c0.8,0,1.7,0,2.5,0c0.8,0,0.8,0.5,0.8,1.1c0,0.6-0.2,0.9-0.8,0.9c-1.9,0-3.8,0-5.7,0c-0.6,0-0.7-0.2-0.7-0.7
		C152.4,65.2,152.4,64.1,152.4,63.1C152.4,63.1,152.4,63.1,152.4,63.1z"/>
	<path class="st84" d="M85.6,104.3c-0.5,0-0.5,0.5-0.6,0.8c-0.3,1.7-0.9,3.4-0.8,5.2c0.1,2.2,0,4.5,0,6.7c-0.2-0.1-0.2-0.3-0.2-0.5
		c0-5.3,0-10.7,0-16c0.3-0.4,0.2-0.8,0.2-1.2c0-2.8,0-5.6,0-8.4c0.3-1.8,1-3.6,1-5.4c0-2,0-4,0-6c0-0.4-0.2-1.1,0.7-1
		c0.3,0.5,0.3,1,0.3,1.6c0,6.4,0,12.7,0,19.1c0,1.4-0.3,2.8-0.3,4.2C86,103.7,85.9,104,85.6,104.3z"/>
	<path class="st85" d="M188.1,63.1c0-1,0-2.1,0-3.1c0-0.7,0.2-0.9,0.9-0.9c2.9,0,2.2-0.3,2.3,2.1c0,1.7,0,3.3,0,5
		c0,0.6-0.2,0.8-0.8,0.8c-2.4,0.1-2.4,0.1-2.4-2.3C188.1,64.2,188.1,63.6,188.1,63.1C188.1,63.1,188.1,63.1,188.1,63.1z"/>
	<path class="st86" d="M164.8,63c0-1.1,0-2.1,0-3.2c0-0.5,0.2-0.7,0.7-0.7c2.5,0,2.5-0.1,2.5,2.4c0,1.6,0,3.1,0,4.7
		c0,0.6-0.1,0.8-0.8,0.8c-2.4,0.1-2.4,0.1-2.4-2.3C164.8,64.1,164.8,63.6,164.8,63z"/>
	<path class="st87" d="M165.6,58.4c-0.4,0.1-0.6-0.1-0.7-0.4c-0.1-0.4,0.3-0.5,0.5-0.6c0.7-0.3,1.4-0.5,2.1-0.8
		c0.6-0.3,0.8,0.1,1,0.5c0.3,0.7-0.4,0.5-0.6,0.6C167.2,58,166.4,58.2,165.6,58.4z"/>
	<path class="st88" d="M227.3,106.6c0-2.5,0-5.1,0-7.6c0.1,0,0.1,0,0.2,0C227.4,101.5,227.7,104.1,227.3,106.6z"/>
	<path class="st89" d="M85.6,104.3c0.4-8.6,0.2-17.2,0.2-25.8c-0.2-0.2-0.3-0.4-0.3-0.6c0.3-1.6,0.1-3.3,0.3-4.9
		c14.3,0,28.6,0,42.9,0c31.7,0,63.5,0,95.2,0c2,0,1.7-0.2,1.7,1.7c0,1,0,1.9,0,2.9c0.4,0.5,0.3,1.1,0.3,1.6c0,2.4,0.2,4.8,0,7.2
		c-0.5,6.3-0.1,12.6-0.2,18.9c0,0.2,0,0.4-0.1,0.6c-0.1,1-0.3,2-0.4,3.1c0,0.3-0.1,0.5-0.4,0.7c-0.7,0.5-0.8,1.3-1.1,2.1
		c-0.4,0.6-0.6,1.5-1.6,1.6c-0.2,0.1-0.5,0.2-0.2,0.5c-0.7,0.5-1.3,1.2-2.3,1.3c-1.6,0.5-3.2,0.8-4.8,0.8c-42.5,0-85,0-127.4,0
		c-0.5,0-1-0.1-1.5,0.1c-0.6-0.3-0.5-0.8-0.5-1.3C85.6,111.2,85.6,107.7,85.6,104.3z"/>
	<path class="st88" d="M225.7,105.8c0-9.4,0-18.9,0-28.3c0.5-1,0-2.1,0.3-3.3c0.4,0.2,0.4,0.4,0.3,0.7c-0.2,0.4-0.1,0.8,0.3,1
		c0.8,0.4,0.7,1.1,0.7,1.9c0,3.5,0,7,0,10.5c-1.2-0.4-1.3-0.4-1.3,0.8c0,5.2,0,10.3,0,15.5C225.9,105,226,105.5,225.7,105.8z"/>
	<path class="st90" d="M85.8,72.9c0,1.8,0,3.7,0,5.5c-0.4,0.5-0.2,1.1-0.2,1.7c0,1.6-0.2,3.1,0,4.7c0.2,1.9-0.8,3.6-0.8,5.4
		c0,0.3-0.2,0.6-0.6,0.8c0-3.6,0-7.2,0-10.8c0-0.8,0.3-1.6,0.6-2.2c0.8-1.3,0.8-2.7,0.8-4.2C85.6,73.6,85.5,73.2,85.8,72.9z"/>
	<path class="st91" d="M86.1,115.9c0.5-0.4,1.1-0.2,1.6-0.2c39.5,0,79,0,118.4,0c4.5,0,9.1,0.4,13.6-0.7c-1.2,0.9-2.6,0.9-4,0.9
		c-22.6,0-45.1,0-67.7,0C127.4,115.9,106.7,115.9,86.1,115.9z"/>
	<path class="st92" d="M85.4,162.3c0.3-0.3,0.2-0.7,0.2-1.1c-0.1-6.7-0.2-13.4-0.3-20c-0.1-3.1,0.1-6.2-0.4-9.3
		c0.3-1.3,0.5-2.5,0.5-3.8c0-1.9,0.1-3.7,0-5.6c0-1.1,0.5-1.1,1.3-1.1c9.9,0,19.9,0,29.8,0c3.9,0,7.8,0,11.7,0
		c1.1,0,1.4,0.5,1.4,1.4c0,1.9,0,3.9,0,5.8c0,0.5,0,1,0.4,1.4c0.5,0.5,0.2,1.1,0.3,1.6c0,0.6-0.1,1.2,0.4,1.7
		c0.1,4.5-0.4,9-0.5,13.5c-0.1,3.2-0.3,6.4-1.1,9.4c-0.8,3-2.9,5.1-5.7,6.6c-2.2,1.2-4.6,1.3-7.1,1.3c-9.7,0-19.4,0-29.1,0
		C85.6,164.1,85.4,164,85.4,162.3z"/>
	<path class="st93" d="M192.7,127c0.4,0,0.7,0.1,1,0.1c0.3,0.1,0.5,0.3,0.5,0.6c0,0.3-0.2,0.6-0.5,0.7c-0.7,0.2-1.4,0.4-2.1,0
		c-0.3-0.2-0.2-0.7-0.1-1.1C191.8,126.8,192.4,127.2,192.7,127z"/>
	<path class="st94" d="M152.6,129.4c-0.1,0.3-0.1,0.7-0.2,1c-0.1,0.8-0.6,1.2-1.3,1.2c-0.7,0-1.2-0.4-1.4-1.1
		c-0.2-0.7-0.2-1.4,0-2.1c0.2-0.7,0.5-1.2,1.4-1.2c0.9,0,1.2,0.6,1.3,1.3C152.6,128.7,152.6,129.1,152.6,129.4z"/>
	<path class="st95" d="M203.7,128.1c0.3,0.6,1,1.1,0.5,1.8c-0.2,0.3-0.9,0.3-1,0C202.9,129.3,203.4,128.7,203.7,128.1z"/>
	<path class="st96" d="M173.5,128.1c0.4,0.6,0.9,1.1,0.6,1.8c-0.1,0.3-0.8,0.3-0.9,0.1C172.5,129.3,173.3,128.8,173.5,128.1z"/>
	<path class="st97" d="M214.3,61.9c0.2,0.6,1,1.1,0.4,1.8c-0.2,0.2-0.8,0.2-0.9,0C213.3,63,214,62.5,214.3,61.9z"/>
	<path class="st98" d="M222.2,113.2c0.5-0.5,1.1-1,1.6-1.6c0,0.3,0,0.5,0,0.8c-0.1,0.4,0.2,0.9-0.3,1.1
		C223.1,113.6,222.6,113.7,222.2,113.2z"/>
	<path class="st99" d="M103.6,98.3c0-3.2,0-6.4,0-9.6c0-1.5,0.6-2,2.1-2.1c0.7,0,1.4,0,2.1,0c0.8,0,1.5,0,1.6,1.1
		c0.1,0.9,0.7,0.2,1,0.1c2.6-1.4,5.4-1.9,8.3-1.3c1.9,0.4,3.6,1,5,2.4c0.6,0.6,0.9,0.5,1.5,0c3.5-3.2,12-3.8,15.7,0.1
		c1.8,1.8,2.7,4.1,2.8,6.6c0.2,4,0.1,7.9,0.1,11.9c0,1.4-0.5,1.9-1.9,2c-1.3,0.1-2.5,0-3.8,0.1c-0.8,0-1-0.3-1-1.1
		c0-3.7,0-7.5,0-11.2c0-0.8,0-1.7-0.2-2.5c-0.5-2.5-1.8-3.6-4.3-3.7c-0.6,0-1.2,0-1.8,0.1c-2.5,0.3-3.7,1.7-3.8,4.2
		c0,3.8,0,7.7,0,11.5c0,2.1-0.5,2.6-2.6,2.7c-0.9,0-1.8-0.1-2.7,0c-1.1,0.1-1.3-0.4-1.3-1.3c0-3.7,0-7.3,0-11c0-1.1-0.1-2.1-0.3-3.2
		c-0.4-1.6-1.5-2.7-3.1-2.9c-1.5-0.2-3-0.2-4.5,0.3c-1.8,0.7-2.1,1.2-2.1,3.1c0,4.1,0,8.2,0,12.2c0,1.9-0.8,2.7-2.7,2.7
		c-0.9,0-1.8-0.1-2.7,0c-1,0.1-1.3-0.3-1.3-1.3C103.6,104.9,103.5,101.6,103.6,98.3C103.6,98.3,103.6,98.3,103.6,98.3z"/>
	<path class="st100" d="M149.5,98.5c0-3.2,0-6.5,0-9.7c0-1.5,0.6-2.1,2.1-2.1c0.8,0,1.5,0,2.3,0c0.8-0.1,1.3,0.1,1.3,1
		c0,0.8,0.5,0.6,0.9,0.3c1.7-1,3.6-1.6,5.5-1.6c3-0.1,5.7,0.6,8,2.7c0.3,0.3,0.6,0.7,1.1,0.2c2.8-2.6,6.2-3.1,9.8-2.8
		c3.3,0.2,5.9,1.6,7.7,4.4c1.2,1.9,1.5,4.1,1.5,6.4c0,3.4,0,6.7,0,10.1c0,1.6-0.5,2.2-2.2,2.3c-1.1,0-2.3,0-3.4,0c-0.8,0-1-0.2-1-1
		c0-3.7,0-7.3,0-11c0-1.3-0.1-2.6-0.5-3.8c-0.5-1.3-1.3-2.2-2.7-2.5c-1.4-0.3-2.8-0.3-4.2,0.1c-1.9,0.5-2.7,1.8-2.8,4.1
		c0,3.8,0,7.7,0,11.5c0,2-0.5,2.5-2.5,2.5c-1,0-2-0.1-3,0c-1,0.1-1.2-0.3-1.1-1.2c0-3.4,0-6.8,0.1-10.2c0-1.2,0-2.4-0.3-3.6
		c-0.4-2.1-1.4-3.1-3.4-3.4c-1.9-0.3-3.8-0.1-5.5,1c-0.7,0.5-1,1-1,1.9c0,4.4,0,8.8,0,13.1c0,1.6-0.7,2.4-2.4,2.4
		c-1.1,0-2.2,0-3.3,0c-0.8,0-1-0.2-1-1C149.5,105.2,149.5,101.8,149.5,98.5z"/>
	<path class="st99" d="M207.3,86.1c1,0,2.2,0.1,3.4,0.3c3.6,0.8,5.7,3.3,6.1,6.9c0.3,2.6,0.1,5.2,0.2,7.8c0,0.7,0,1.4,0,2.2
		c0.1,1.2,0.6,1.7,1.8,1.7c1.1-0.1,1.3,0.4,1.2,1.3c-0.3,3.2-1.2,3.9-4.4,3.4c-1.5-0.3-3-0.7-4-1.9c-0.4-0.5-0.7-0.3-1.1,0
		c-3.2,2-6.6,2.6-10.3,1.7c-2.7-0.7-4.5-2.6-4.9-5.4c-0.4-2.8,0.8-4.8,3.1-6.2c2.7-1.7,5.8-2.3,9-2.7c0.6-0.1,1.3-0.2,1.9-0.2
		c0.8,0,0.8-0.4,0.7-1c-0.3-1.4-1.2-2.2-2.6-2.5c-2.1-0.5-4.1-0.2-6.1,0.4c-0.8,0.2-1.7,0.5-2.5,0.8c-0.7,0.3-0.9,0.1-0.9-0.6
		c0-0.7-0.2-1.4-0.2-2c-0.1-1.5,0.1-1.9,1.5-2.4C201.8,86.5,204.4,86.1,207.3,86.1z"/>
	<path class="st101" d="M99.2,97.7c0,3.3,0,6.5,0,9.8c0,1-0.4,1.5-1.3,1.7c-1.5,0.3-3.1,0.1-4.7,0.1c-0.5,0-0.6-0.3-0.6-0.8
		c0-0.6,0-1.2,0-1.8c0-6,0-12,0.1-18c0-1.8,0.4-2.1,2.2-2.2c1.1,0,2.2,0.1,3.3,0c0.9-0.1,1.1,0.3,1.1,1.1
		C99.2,91,99.2,94.4,99.2,97.7C99.2,97.7,99.2,97.7,99.2,97.7z"/>
	<path class="st102" d="M97.1,78.9c2.7,0,2.7,0,2.7,2.6c0,0.5,0,0.9,0,1.4c0,0.9-0.5,1.4-1.4,1.5c-1.6,0.3-3.1,0.1-4.7,0.1
		c-0.5,0-0.6-0.3-0.6-0.7c0-1.1,0-2.3,0-3.4c0-1,0.7-1.5,1.6-1.6C95.6,78.8,96.4,78.9,97.1,78.9z"/>
	<path class="st103" d="M210.2,101.2c0,2.9-0.1,3-2.9,3.8c-1,0.3-2,0.4-3,0.1c-0.9-0.2-1.7-0.6-1.9-1.5c-0.3-1.1-0.2-2,0.7-2.8
		c1.3-1.3,3-1.7,4.6-2c2.7-0.4,2.6-0.9,2.5,2.1C210.2,101,210.2,101.1,210.2,101.2z"/>
</g>
</svg>
