<?xml version="1.0" encoding="utf-8"?>
<!-- Generator: Adobe Illustrator 25.2.1, SVG Export Plug-In . SVG Version: 6.00 Build 0)  -->
<svg version="1.1" id="Camada_1" xmlns="http://www.w3.org/2000/svg" xmlns:xlink="http://www.w3.org/1999/xlink" x="0px" y="0px"
	 viewBox="0 0 247.2 202.1" style="enable-background:new 0 0 247.2 202.1;" xml:space="preserve">
<style type="text/css">
	.st0{fill:#2D8B81;}
	.st1{fill:#2B7C6E;}
	.st2{fill:#4DB6A5;}
	.st3{fill:#359A8E;}
	.st4{fill:#389A8E;}
	.st5{fill:#4BB7A7;}
	.st6{fill:#3A9485;}
	.st7{fill:#41A798;}
	.st8{fill:#41A799;}
	.st9{fill:#328677;}
	.st10{fill:#3C9686;}
	.st11{fill:#4BA795;}
	.st12{fill:#48AA99;}
	.st13{fill:#F18432;}
	.st14{fill:#FEFEFE;}
	.st15{fill:#107768;}
	.st16{fill:#0F7D6D;}
	.st17{fill:#128171;}
	.st18{fill:#0F7C6C;}
	.st19{fill:#136457;}
	.st20{fill:#19786A;}
	.st21{fill:#175E52;}
	.st22{fill:#18544A;}
	.st23{fill:#297D71;}
	.st24{fill:#187566;}
	.st25{fill:#138171;}
	.st26{fill:#185045;}
	.st27{fill:#107F6E;}
	.st28{fill:#1E7A6C;}
	.st29{fill:#168877;}
	.st30{fill:#1C564A;}
	.st31{fill:#168272;}
	.st32{fill:#157062;}
	.st33{fill:#EE8A3F;}
	.st34{fill:#2C8375;}
	.st35{fill:#197D6E;}
	.st36{fill:#136056;}
	.st37{fill:#14584E;}
	.st38{fill:#158372;}
	.st39{fill:#EE8E46;}
	.st40{fill:#14665B;}
	.st41{fill:#125C4F;}
	.st42{fill:#185A4F;}
	.st43{fill:#1F8171;}
	.st44{fill:#185D54;}
	.st45{fill:#EA8B43;}
	.st46{fill:#16816F;}
	.st47{fill:#155F52;}
	.st48{fill:#166256;}
	.st49{fill:#126155;}
	.st50{fill:#2E7067;}
	.st51{fill:#3A8376;}
	.st52{fill:#F8FAFA;}
	.st53{fill:#D0E7E4;}
	.st54{fill:#F7FAFA;}
	.st55{fill:#F9FBFB;}
</style>
<g>
	<path class="st0" d="M41.8,45.5C57.5,21.9,79.5,7.8,107.2,2.7c19.2-3.5,37.9-1.6,55.9,6.4c-0.6,2.1,1.5,4.1,0.2,6.2
		c-3.8-0.2-7.1-2.1-10.6-3.1c-22.2-6.7-43.9-5.8-65.3,3.5c-15.1,6.6-27.5,16.5-37.5,29.5c-1,1.3-1.9,2.9-3.7,3.4
		c-1-0.1-1.2-0.7-1.1-1.5c0-0.6,0.4-1.1,0.5-1.6c-0.4,0.4-0.5,1-1,1.4C42.8,48.3,41.5,48.7,41.8,45.5z"/>
	<path class="st1" d="M207.2,157.5c-23.1,32.6-54.7,46.7-94.4,43c-1.9-0.2-4,0.5-5.8-0.8c-1-4.5,2.2-4.8,5.3-5.3
		c9.9-0.2,19.8,0.6,29.7-1.5c21-4.3,38.6-14.1,52.8-30.1c1.7-1.9,3.2-4.2,5.7-5.4C202.7,157.2,205,155.6,207.2,157.5z"/>
	<path class="st2" d="M216.3,61.4c6.3,13.3,8.9,27.3,8.3,42c-1,1.5-1.7,3.7-4,3c-2.2-0.6-1.8-2.9-1.9-4.7c-0.3-3.3,0.5-6.7-0.6-10
		c-2.3-9.2-3.5-18.6-7.5-27.3c-0.5-1.1-0.8-2.4,0.3-3.5C212.8,60,214.6,60.1,216.3,61.4z"/>
	<path class="st3" d="M41.8,45.5c0.5,2.4,1.5,2,2.6,0.5c0.9-1.2,0.9-3.3,3.5-3.7c-0.9,2.3-1.7,4.2-2.4,6.1c1.2,1.6,0.1,3-0.7,4.2
		c-6,9.3-9,19.8-12.6,30c-0.7,1.6-1.6,3.2-3.7,2.6c-1.8-0.5-2.3-1.8-1.7-3.6C28.9,68.4,34,56.4,41.8,45.5z"/>
	<path class="st4" d="M164,14.8c-2-1.7-2.7-3.5-0.9-5.7c10.5,4,20.1,9.5,27.8,18c1.8,2,4.6,2.7,5.9,5.1c0.3,2.4,0.5,4.7-0.1,7
		c-2,0.3-3.1-1.2-4.2-2.4c-7.5-7.7-15.8-14.3-25.5-18.9C165.6,17.3,163.7,16.9,164,14.8z"/>
	<path class="st5" d="M41.6,156.6c-8.3-11.8-13.5-24.9-15.5-39.2c3.8-2,5.4,0.4,6.7,3.4c0.9,1.5,1.2,3.2,1.6,4.8
		c1.9,7.9,4.9,15.2,9.2,22.1c1,1.6,1.9,3.2,2.2,5.1C46.2,155.9,45.2,157.7,41.6,156.6z"/>
	<path class="st6" d="M207.2,157.5c-2.3,0.3-4.5,0.6-6.8,0.9c-0.8-1.8,0.5-3,1.3-4.2c5.3-7.9,9.3-16.4,12.2-25.4
		c0.5-1.6,1.1-3.3,2.9-3.9c2.1,0,4.7-0.9,4,2.9C218.4,138.6,213.9,148.6,207.2,157.5z"/>
	<path class="st7" d="M31.7,121.1c-0.5-3.3-3.4-3-5.6-3.7c-2-12-2.2-23.9,0.7-35.7c0.2,1.4,0.5,2.7,2.2,2.9c1.9,0.2,1.3-2.1,2.6-2.6
		c1.6,1.7,1.3,3.7,0.9,5.7c-1.5,9.2-1.6,18.5,0,27.7C32.9,117.3,33.3,119.3,31.7,121.1z"/>
	<path class="st8" d="M196.6,39.2c-1.3-2.4-1.1-4.7,0.2-7c8.6,8.4,15.1,18.1,19.5,29.2c-1.8,0-3.6,0-5.4,0
		C205.4,54.4,200.2,47.3,196.6,39.2z"/>
	<path class="st9" d="M113,195.6c-3,0-5.5,0.6-6,4.1c-9.8-1.7-19.3-4.5-27.9-9.4c-0.6-2.6,0.8-3.9,3-4.7c1.5-0.2,2.7,0.4,4,0.9
		c7,3,14.3,5.1,21.9,6.5C109.7,193.4,112.1,193,113,195.6z"/>
	<path class="st10" d="M82.2,186.2c-1.9,0.7-2.3,2.5-3.2,4c-8.3-4.1-15.8-9.3-22.4-15.9c-0.5-2,0.7-3.4,1.8-4.9
		c1.4-0.5,2.4,0.4,3.3,1.2c5.9,4.8,12,9.4,18.7,13C81.4,184.2,82.3,184.9,82.2,186.2z"/>
	<path class="st11" d="M220.9,127.8c-0.5-2.9-2.9-1.8-4.6-2c-1.3-1.3-1-2.9-0.6-4.4c1.9-8.1,1.9-16.3,1.8-24.5c0-2-0.2-4.1,1.4-5.7
		c1.9,3.1,0.4,6.6,0.9,9.8c0.2,1.6-0.9,3.8,0.9,4.6c1.5,0.6,2.2-1.8,3.7-2.2C224.8,111.7,223.7,119.9,220.9,127.8z"/>
	<path class="st12" d="M58.6,169.6c0.4,2-1.1,3.2-2,4.7c-6.1-5.1-11.1-11-15.1-17.8c2.4-0.2,4-1.2,3.2-4c3.8,0.6,4.4,4.4,6.5,6.7
		C54.1,162.4,57.4,165.3,58.6,169.6z"/>
	<path class="st13" d="M58.6,169.6c-4.6-5.7-9.3-11.3-13.9-17c-1.2-2.3-2.3-4.7-3.7-6.9c-4.9-7.6-6.5-16.4-9.4-24.7
		c-0.9-9.7-2.7-19.3-1.2-29c0.5-3.3,0.7-6.7,1.1-10.1c2.6-10.2,6.3-20,11.7-29.1c0.9-1.5,1.5-3,2.3-4.5c6.6-7.8,12.8-15.8,21.2-22
		C96,4.9,127.6,0.9,161.4,14c0.9,0.3,1.8,0.6,2.6,0.8c12.3,6.2,23.1,14.4,32.6,24.4c5.2,7.1,10.3,14.4,14.3,22.3
		c4,9.6,6.6,19.6,8.2,29.8c0.4,11.6,0,23.1-2.7,34.5c-3.7,11.7-8.9,22.6-15.9,32.6c-14.3,17.5-32,29.7-54.3,35.1
		c-11,2.6-22.1,2.4-33.2,2.1c-10.5-2.2-21-4.7-30.7-9.3C73.8,181.4,66.1,175.8,58.6,169.6z"/>
	<path class="st14" d="M124.6,11.8c49.1-0.1,89.4,39.9,89.6,88.9c0.1,49.6-40,90-89.5,90.1c-49.1,0-89.3-40-89.5-89.1
		C35.1,51.9,74.8,12,124.6,11.8z"/>
	<path class="st15" d="M92.1,112.7c0.1,5.7,0,11.4,0.3,17.2c0.1,2.9-1.4,2.9-3.5,2.8c-2-0.1-4.2,0.4-4-2.9c0.2-3.2,0-6.5,0-11.1
		c-4,4.5-7.8,7.8-11.4,0.2c-1.5,4.1-0.9,7.3-0.8,10.3c0.1,3-1.1,3.6-3.8,3.6c-2.4-0.1-3.7-0.5-3.6-3.3c0.1-7.6,0-15.2,0-22.7
		c0-0.8-0.8-3,1.6-1.5c0,0.9,0.4,1.8,0.3,2.7c-0.3,3.3,0.4,5.4,4.4,4.7c1.7-0.3,3.2,0.7,4.9,1c3.7,2.5,4.7-2,7.1-2.7
		C86.7,110.8,89.9,109.8,92.1,112.7z"/>
	<path class="st16" d="M121,127.8c-2.9-3.9-2.4-7.8,0-11.6c2.6-4,6.6-5.4,11.2-5.1c1.5,0.1,3,0.3,4.6,0.5c1.9-1.3,3.9-1.5,5.8,0.1
		c0,4.7,1.1,9.6-0.7,14.2c-2.1,0-4.2,0.6-5.9-1.1c-0.3-0.7-0.2-1.5-0.3-2.2c-0.5-2.7-2-4.7-4.8-4.5c-2.6,0.1-4,2-4.3,4.6
		c-0.1,0.8,0,1.5-0.3,2.3C124.8,126.7,123.1,127.6,121,127.8z"/>
	<path class="st17" d="M158.2,123.9c-1.9-6.1,3.8-11.7,8.5-12.6c5.7-1.1,11.4,2.1,13.2,7.6c0.9,2.7,0.6,4.1-2.7,3.9
		c-3.2-0.2-6.5-0.1-9.7,0c-1.3,0-2.9-0.5-3.7,1.1C162,125.7,160.1,126.1,158.2,123.9z"/>
	<path class="st18" d="M95.7,127.7c-2.8-4.3-2.3-8.5,0.7-12.4c2.9-3.8,8.6-5.2,13.4-3.6c4.8,1.6,7.6,5.3,7.7,10.3
		c0,0.9-0.1,1.8-0.2,2.8c-1.7,2.9-3.9,3.2-6.6,1.3c-0.9-1.1-0.6-2.3-0.7-3.5c-0.2-2.7-1.7-4.5-4.3-4.5c-2.9-0.1-4.2,2.1-4.5,4.8
		c-0.1,1.2,0.3,2.5-0.3,3.6C99.4,128,97.8,128.8,95.7,127.7z"/>
	<path class="st19" d="M110.5,125.6c2.4,1.1,4.7,0.8,6.8-0.7c0.1,0.9,0.1,1.9,0.2,2.8c0.7,4-0.7,5.8-4.9,5c-1.6-0.3-3,0.2-4.6,0.4
		c-5.1,0.7-9.5-0.5-12.4-5.3c1.8-0.5,3.8-0.6,5.1-2.3C104,126.3,107.2,126.4,110.5,125.6z"/>
	<path class="st20" d="M51.6,96.7c10.6,5.4,20.3,1.5,30.2-1.7c4.9-1.6,9.7-1.5,13.8,2.4C88,95.2,81,97.9,74,100.5
		C65.9,103.5,58.2,103.8,51.6,96.7z"/>
	<path class="st21" d="M136.2,124.8c1.8,0.5,4-0.4,5.6,1.2c-1.7,4.7-5.3,7-10.1,7.2c-4.4,0.2-8.5-1-10.7-5.4c1.1-1.7,3.1-1.9,4.6-3
		C129.1,126.5,132.7,126.5,136.2,124.8z"/>
	<path class="st22" d="M158.2,123.9c1.9,1.3,3.8-0.2,5.6,0c1.4,3.2,4,4.6,7,3.3c3.3-1.4,4.1,0.9,4.7,2.7c0.8,2.4-1.9,2.4-3.3,2.8
		C165.8,134.8,159.6,130.8,158.2,123.9z"/>
	<path class="st23" d="M123.7,91c0,2.5,0,5,0,7.5c0,1.5-0.6,2.3-2.2,2.3c-1.6,0-2.1-0.8-2.1-2.3c0-5,0-9.9,0-14.9
		c0-1.7,0.6-2.6,2.4-2.5c1.8,0.1,2,1.1,2,2.5C123.7,86,123.7,88.5,123.7,91C123.7,91,123.7,91,123.7,91z"/>
	<path class="st24" d="M102.5,87.5c0,1.8-0.5,3.8,0.1,5.5c1.2,3.3,3.8,5,7.3,3.1c1.8-0.9,2.7-0.1,3.4,1.1c1.1,2-0.8,2.4-1.9,2.9
		c-3.9,1.7-7.5,1.1-10.5-2.1c-3.2-3.4-3.6-7.4-1.2-12.2C101.1,85.6,101.9,86.4,102.5,87.5z"/>
	<path class="st25" d="M146.3,123.9c-0.7-8.4,1.3-11.9,7.2-12.7c1.1-0.1,2.4-0.6,2.8,0.8c0.4,1.4,0.9,4-0.4,4.2c-5,1-3.3,4.8-4,7.7
		C149.9,125.3,148.1,126.5,146.3,123.9z"/>
	<path class="st26" d="M199.7,123.7c1.6,3.6,0.4,6.3-2.8,8.3c-3.1,2-9.8,1.5-12-0.5c-1-0.9-0.8-1.6-0.2-2.4c0.9-1.1,1.3-2.7,3.5-1.7
		c2.3,1.1,5.1,2.4,6.3-1.6C195.4,122.9,197.4,123,199.7,123.7z"/>
	<path class="st27" d="M138.7,100.4c-1.5-3.5-0.9-7.2-0.1-10.7c0.8-3.2,3.6-3.6,6.3-3.4c2.8,0.2,4.7,1.6,5,4.5
		c0.2,1.4,0,2.8-0.1,4.2c-1,1-2.1,1.5-3.5,0.9c-0.9-2,1.4-6-2.4-5.8c-3.1,0.2-1.3,3.7-1.8,5.8c-0.3,1.4,0.6,3.1-0.6,4.4
		C140.6,97.8,139.7,98.6,138.7,100.4z"/>
	<path class="st28" d="M69.6,69.4c6.8,6.3,8.3,14.9,3.8,23.3C74,84.1,68,77.9,69.6,69.4z"/>
	<path class="st29" d="M185.3,120.4c-1.7-3.3-0.6-6.1,2.2-8c3.4-2.2,7-1.8,10.5,0.3c0.7,0.4,1.4,1,0.6,1.8c-1,1.1-1.7,2.5-3.8,2
		c-1.9-0.5-4.1-1.2-4.8,1.8C189.1,120.4,187.2,120.4,185.3,120.4z"/>
	<path class="st30" d="M196.8,100.4c-2.6,0.1-5.2,0.5-7.8,0.4c-4.6-0.1-7.1-2.9-7.2-7.6c1.3-0.7,2.5-0.1,3.8,0.3
		c3.7,4.5,6.3,1,9-1.3c1.7-0.5,2.6,0,2.5,1.9C196.9,96.2,197.4,98.3,196.8,100.4z"/>
	<path class="st31" d="M185.4,94.1c-1.2-0.3-2.4-0.6-3.6-0.9c0.9-4.8,3.5-7.1,8-6.9c4.4,0.2,7.5,3,7.6,7.6c0.1,2.2,1.1,4.5-0.6,6.6
		c0-1.7-0.3-3.4-0.1-5c0.3-2.7-1.2-2.7-3-2.2C190.6,91.3,187.7,90.4,185.4,94.1z"/>
	<path class="st32" d="M185.3,120.4c1.1-1.8,3.4-0.9,4.8-2.1c1.9,1.4,4.3,1.3,6.3,2.1c1.5,0.6,3.2,1.3,3.3,3.3
		c-1.8,0.5-3.7,0.7-5,2.2c-1.8-1.3-4-1.4-6-2.2C187.1,123.1,185.5,122.5,185.3,120.4z"/>
	<path class="st33" d="M59.5,75.3c6.7,3.3,11.3,7.3,12,15.4C67.5,85.1,60.5,83.2,59.5,75.3z"/>
	<path class="st34" d="M128.8,93.7c0-1.1-0.1-2.2,0-3.2c0.1-1.1-0.7-2.9,1.1-2.9c1.5,0,3,0.9,3,2.8c0.1,2.8,0.1,5.5,0.1,8.3
		c0,1.3-0.5,2-1.9,2c-1.4,0-2.5-0.2-2.5-1.9C128.8,97.1,128.8,95.4,128.8,93.7C128.8,93.7,128.8,93.7,128.8,93.7z"/>
	<path class="st35" d="M82.4,74.8c2.7,6.1,0.4,12.7-6.3,17.7C78.6,86.4,78.2,80.2,82.4,74.8z"/>
	<path class="st36" d="M76.7,113.5c-1.5,0-3.1,0.3-4.6,0c-1.9-0.4-4.5,2.2-5.5,0c-1-2.5-1.3-5.7,0.4-8.4
		C70.3,107.9,73.5,110.7,76.7,113.5z"/>
	<path class="st37" d="M102.5,87.5c-1-0.6-1.9-1.2-2.9-1.8c3.3-4.8,8-6.3,12.2-3.9c1,0.6,2.6,1.1,1.5,2.7c-0.6,0.9-1.5,2.1-3,1.2
		C107.1,83.7,104.8,85.6,102.5,87.5z"/>
	<path class="st38" d="M165.8,96.8c-1.9-2.9-1-5.6,0.9-8.1c2.1-2.6,5-2.8,8-2.3c1,0.2,2.4,0.3,2.2,1.8c-0.2,1.3-1,2.1-2.7,1.6
		c-3-1-4.6,0.8-5.6,3.4C167.7,94.4,167.2,95.9,165.8,96.8z"/>
	<path class="st39" d="M54.8,87c6.8-2.2,12.1-0.1,15.1,6.2C64.9,90.4,59.4,90.7,54.8,87z"/>
	<path class="st40" d="M142.5,111.8c-1.9,0-3.8,0-5.8-0.1c0-1.8,0.1-3.7-0.1-5.5c-0.2-2.4,1.1-2.7,3.1-2.7c2.1,0,3.2,0.5,3,2.8
		C142.6,108.1,142.6,109.9,142.5,111.8z"/>
	<path class="st41" d="M146.3,123.9c1.8,1.5,3.7-0.3,5.5,0c0.1,1.8,0,3.7,0.2,5.5c0.3,2.4-0.5,3.2-3,3.2c-2.5,0-3.3-0.8-3-3.2
		C146.2,127.6,146.2,125.7,146.3,123.9z"/>
	<path class="st42" d="M165.8,96.8c-0.2-2.1,1.1-3,2.8-3.6c0.8,3.1,2.3,5.1,6,3.9c1.4-0.5,2.1,0.4,2.5,1.4c0.6,1.6-0.9,1.9-1.8,2
		C171.4,101.2,167.8,101,165.8,96.8z"/>
	<path class="st43" d="M90.5,83.4c-2,5.9-5.9,8.4-11.2,9.4C82.5,89.4,84.4,84.6,90.5,83.4z"/>
	<path class="st44" d="M92.1,112.7c-2.6-1.4-5.9,0-8.4-1.9c2.5-2.1,5.1-4.3,8-6.7C92.8,107.1,92.3,109.9,92.1,112.7z"/>
	<path class="st45" d="M68,95.3c-4.7,0.8-9.3,1-14.1-1.7C59.4,91.7,63.8,92.6,68,95.3z"/>
	<path class="st46" d="M155.8,95c0-2.5,0-4.9,0-7.5c4.7,0.5,4,3.6,3.6,6.5C158.3,94.9,157.3,96.2,155.8,95z"/>
	<path class="st47" d="M155.8,95c1.2-0.3,2.4-0.6,3.6-0.9c0.1,0.3,0.2,0.7,0.2,0.9c-0.7,1.9,2,5.7-2.1,5.5
		C153.7,100.3,156.3,96.9,155.8,95z"/>
	<path class="st48" d="M146.4,95.9c1.1-0.7,2.2-1,3.5-0.9c0.1,0.8,0.3,1.5,0.2,2.3c-0.2,1.3,1,3.3-1.7,3.4c-2.8,0.2-2.2-1.8-2.2-3.4
		C146.3,96.8,146.4,96.3,146.4,95.9z"/>
	<path class="st49" d="M138.7,100.4c0.5-1.7-1-4.9,1.4-5c2.6,0,0.9,3.2,1.5,4.8C140.7,100.8,139.7,100.7,138.7,100.4z"/>
	<path class="st50" d="M159.5,82.9c-0.1,0.9-0.9,1.7-2.1,1.6c-1.2-0.1-1.9-0.9-1.9-2.2c0.1-1.3,0.9-2,2.1-1.9
		C158.9,80.5,159.6,81.3,159.5,82.9z"/>
	<path class="st51" d="M135.9,81.2c-1.5,2.1-2.6,3.7-4.9,4C131.6,83.2,131.4,80.4,135.9,81.2z"/>
	<path class="st52" d="M136.2,124.8c-4.4,4-6.2,4-10.6,0c-0.8-2.9-0.5-5.5,2.2-7.3c2-1.3,4-1.3,6.1,0
		C136.7,119.4,137.1,121.9,136.2,124.8z"/>
	<path class="st53" d="M173.6,118.7c-3.5,0.7-5.6,0.7-8.4,0C167.9,115.8,170.1,116.1,173.6,118.7z"/>
	<path class="st54" d="M110.5,125.6c-3.3,2.9-6.6,2.7-9.8-0.2c-1.3-3.2-1.1-6.1,2.2-8c2.5-1.5,4.8-0.8,6.8,1
		C112.1,120.5,111.6,123,110.5,125.6z"/>
	<path class="st55" d="M185.4,94.1c0.3-2.1,1.2-3.9,3.4-4.2c2.5-0.4,3.8,1.4,4.8,3.3c-0.6,2-1.4,3.9-3.8,4.1
		C187.5,97.5,186.2,96.1,185.4,94.1z"/>
</g>
</svg>
