<?xml version="1.0" encoding="utf-8"?>
<!-- Generator: Adobe Illustrator 25.2.1, SVG Export Plug-In . SVG Version: 6.00 Build 0)  -->
<svg version="1.1" id="Camada_1" xmlns="http://www.w3.org/2000/svg" xmlns:xlink="http://www.w3.org/1999/xlink" x="0px" y="0px"
	 viewBox="0 0 247.2 202.1" style="enable-background:new 0 0 247.2 202.1;" xml:space="preserve">
<style type="text/css">
	.st0{fill:#071E39;}
	.st1{fill:#07121D;}
	.st2{fill:#3F0C13;}
	.st3{fill:#0C2E40;}
	.st4{fill:#E0F3F6;}
	.st5{fill:#212B36;}
	.st6{fill:#1C2B48;}
	.st7{fill:#CEF1EE;}
	.st8{fill:#C7F2F2;}
	.st9{fill:#0F060E;}
	.st10{fill:#060607;}
	.st11{fill:#0F1720;}
	.st12{fill:#040F1A;}
	.st13{fill:#35222E;}
	.st14{fill:#0C4448;}
	.st15{fill:#0C1A4A;}
	.st16{fill:#0E3A2B;}
	.st17{fill:#320A33;}
	.st18{fill:#312D6E;}
	.st19{fill:#1B4068;}
	.st20{fill:#27266D;}
	.st21{fill:#C22A35;}
	.st22{fill:#4F1116;}
	.st23{fill:#840C3E;}
	.st24{fill:#AF4767;}
	.st25{fill:#3D2720;}
	.st26{fill:#241510;}
	.st27{fill:#39320C;}
	.st28{fill:#763027;}
	.st29{fill:#622937;}
	.st30{fill:#1B7D4E;}
	.st31{fill:#226970;}
	.st32{fill:#4F6EA0;}
	.st33{fill:#566940;}
	.st34{fill:#47196F;}
	.st35{fill:#661B5D;}
	.st36{fill:#774180;}
	.st37{fill:#4C5773;}
	.st38{fill:#472F49;}
	.st39{fill:#BF2C4D;}
	.st40{fill:#A51F28;}
	.st41{fill:#BB5048;}
	.st42{fill:#821C1B;}
	.st43{fill:#DB505E;}
	.st44{fill:#E8545A;}
	.st45{fill:#4C2810;}
	.st46{fill:#895E44;}
	.st47{fill:#465F17;}
	.st48{fill:#3E4612;}
	.st49{fill:#6A5517;}
	.st50{fill:#B3555F;}
	.st51{fill:#3D8F7C;}
	.st52{fill:#58D9A4;}
	.st53{fill:#1F4C58;}
	.st54{fill:#84216A;}
	.st55{fill:#BA467E;}
	.st56{fill:#7D363B;}
	.st57{fill:#3F6B33;}
	.st58{fill:#7F5C5D;}
	.st59{fill:#A33238;}
	.st60{fill:#B97459;}
	.st61{fill:#8A1D12;}
	.st62{fill:#0D7740;}
	.st63{font-family:'MyriadPro-Regular';}
	.st64{font-size:14.36px;}
	.st65{letter-spacing:-1;}
</style>
<g>
	<g>
		<path class="st0" d="M111.8,87.3c-10.7,0.7-13.6-5.6-13.9-15c-0.1-3,0.7-7.4-4.4-8.5c-1.7-0.4-1.1-2.3-0.2-3.5
			c1.8-2.6,3.6-5.2,5.4-7.8c2.8-0.1,5.7,0.3,7.9-2c2.9-0.1,4,1.8,4.5,4.2c0,2.3-1.5,2.9-3.4,2.9c-1.6,0-3.1,0-4.5,1
			c0.5,6.3-0.1,12.7,3.2,18.5c0.9,1.5,2.4,2.5,3.9,2.7c6.8,0.5,9.4,4.7,10,10.8c1.4,2.8,3.7,5.2,3.7,8.7c0,2.4,2.3,2.8,4,3.7
			c2.7,1.4,6.1,0.7,8.3,3.1c0.3,0.5,0.4,1,0.2,1.6c-0.4,0.4-0.8,0.7-1.4,0.9c-3,0.9-6,1.2-9,1.8c-6,0.8-6.2,0.7-7.6-5
			c-1.2-5-3.1-9.8-3.6-14.9C114.8,88.2,113.2,87.9,111.8,87.3z"/>
		<path class="st1" d="M127.9,17.7c12.4-0.5,23.3,2.6,29.9,13.9c6.5,11,6.2,22.3-0.9,33.1c-1.2,1.8-2.3,3.6-3.4,5.4
			c-2.7-0.3-1.3-2-1.2-3.3c-0.7-3.2,1-5.9,1.8-8.8c1.4-3.6,1.5-7.4,1.7-11.2c0.1-0.5,0.2-0.9,0.4-1.4c1.9-4.2,2.4-8.1-1.6-11.5
			c-1.4-1.1-2.7-2.4-4.4-3c-0.6-0.4-1-0.9-1.2-1.6c0.1-1.5-0.6-2.5-1.8-3.3c-4.1-4-9.9-2.9-14.6-5.2C130.8,20,127.8,21.3,127.9,17.7
			z"/>
		<path class="st2" d="M127.9,17.7c0.5,2.6,3,1.2,4.3,2.1c1,1.3,0.4,2.3-0.7,3.2c-0.4,0.2-0.9,0.4-1.4,0.5c-1.9-0.3-3.8,0.5-5.7,0.2
			c-3.3-1-5.8,1.5-8.9,1.7c-1.7,1.4-5.7-0.6-5.5,3.6c-0.1,0.5-0.3,0.9-0.6,1.3c-2.8,2.3-4.8,5-4.6,8.9c0.1,2.5-1.1,3.2-3.3,2
			c-1.2-1.4-1-2.9-0.5-4.5C103.7,24.4,113.8,17.2,127.9,17.7z"/>
		<path class="st3" d="M151.6,74.8c0,2.4-0.1,4.7-0.1,7.1c0.7,6.6,2.5,12.8,5.3,18.8c0.6,1.4,1.8,2.5,2.6,3.8
			c0.9,1.5,2.5,3.4-0.5,4.7c-0.5,0.1-1,0-1.5-0.1c-2.4-1.1-5.8-0.3-7.4-3.3c0.1-4.1-0.8-8-3-11.6c-0.8-4.4-0.3-8.8-0.2-13.2
			c0.1-2.7,1.2-5.2,3.2-7.1C150.9,72.9,152,73,151.6,74.8z"/>
		<path class="st4" d="M135.4,107.6l0.2-0.3l0.3,0.1c7.5-2.7,14.7-0.8,22,1.2l0,0c0.2,1-0.2,1.5-1.2,1.2c-11-0.4-22,0.1-32.9,2.1
			c-4.2,0.8-6-1.7-6.4-5.2c-0.6-5.6-3.6-10.7-3.5-16.5c0-1.5-1.5-1.9-2.1-2.9c2.8-0.3,4.2,0.8,4.7,3.7c0.8,4.4,2.5,8.6,3,12.9
			c0.5,4.7,2.3,6.6,6.9,5.7C129.4,109,132.6,109.1,135.4,107.6z"/>
		<path class="st5" d="M151.6,74.8c-2.3,1.8-3.5,4.2-3.4,7.2c0.1,4.6,0,9.2,0,13.8c-0.3,2.6-2,1.9-3.6,1.4c-1.6-1.2-2.4-3-1.8-4.7
			c2.7-7.7,0.8-15.8,2.3-23.7c2.2-3.3,5.1-3.5,8.4-2c-0.2,1.1-1.7,2.1,0,3.2C152.9,71.7,152.3,73.2,151.6,74.8z"/>
		<path class="st6" d="M106.5,51c-1,2.9-3.6,3.4-7.8,1.5c0.7-1.6,1.7-3.2,0.5-5c0.8-1.3-0.4-3.2,1-4.4
			C102.5,45.6,106.7,46.6,106.5,51z"/>
		<path class="st7" d="M156.5,101.2c-3.2-6-5.7-12.3-5-19.3c2.1,6.4,4.2,12.8,6.3,19.2C157.5,101.8,157,101.8,156.5,101.2z"/>
		<path class="st8" d="M156.5,101.2c0.4,0,0.9-0.1,1.3-0.1c4.6,4.9,4.8,7.5,0.8,9.8c-1.6,0.9-1.7-0.2-2-1.2c0.4-0.4,0.8-0.8,1.2-1.2
			c1.3-0.1,2.6-0.1,1.5-2C158.5,104.8,157.5,103,156.5,101.2z"/>
		<path class="st9" d="M100.1,43.4c-0.3,1.4,0.4,2.9-0.9,4.1c-1-3.9-0.2-7.4,1.8-10.8c0,1.6,0.3,3.2,1.2,4.6
			c0.3,0.2,0.4,0.5,0.4,0.7c0,0.3-0.1,0.4-0.1,0.4C101.9,43.2,100.8,42.7,100.1,43.4z"/>
		<path class="st10" d="M103.3,58.3c0.6-2.7,3-2,4.5-1.9c1.5,0.1,2.3,0,2.9-1.3c0.1-1.3,0.6-2.3,2-2.6c5.9-1.8,6.5-1.5,8.8,4.9
			c-0.2,8.3,3.1,16.4,2.1,24.8c-0.2,2.1,0,4.2-1.1,6.2c-0.3,0.5-0.7,0.9-1.1,1.2c-1.1,0-1.9-0.6-1.8-1.5c0.3-5.1-2.8-8-6.3-11.1
			c-4-3.6-6.2-8.6-9.7-12.7C102.3,62.7,102,60.4,103.3,58.3z"/>
		<path class="st11" d="M145,96.8c1.2,0,2.5,0.2,3.2-1.1c0.7,0,1.9,0,1.9,0.1c0.3,2.8,0.3,5.5,2.1,8c0.6,0.9-1.2,1.4-2.2,1.7
			c-4.4,1.4-8.9,1.2-13.5,1c-1.5-0.4-3.1-0.7-4.6-1.1c-4.6-1.4-10.5-1-9.6-8.7c0.3-2.3-3.9-3.2-3.1-6.3c0.5-0.9,1.5-0.5,2.1-1.1l0,0
			c6-0.4,9.3,3.2,10.2,8.4c1.1,6,5.3,3.7,8.5,4.1c4.2,0.5,2.8-3,3.4-5C144.1,96.5,144.5,96.5,145,96.8z"/>
		<path class="st12" d="M121.4,89.4c-0.5,0.9-1.3,1-2.1,1.1c-1.2-0.9-1-2.2-1.1-3.4c0-3.5-1.8-4.9-5.3-5.2c-6.8-0.7-11.3-7-10-13.5
			c0.6-3-1-5.5-2-8.1c-0.5-1.3-0.6-2.4,0.7-3.1c0.2-0.1,1,0.8,1.6,1.2c0.1,7.1,5.8,11.4,9.7,15.9C117,78.9,120.8,83.1,121.4,89.4z"
			/>
		<path class="st13" d="M112.8,53.1c-0.7,0.7-1.4,1.4-2.1,2.1c-1.2-1.6-1.8-3.8-4.2-4.2c-1.4-3.2-5.7-3.8-6.4-7.6
			c0.4-0.9,1.2-1.1,2.1-1.1c1.2,0,2.5,0,3.4,0.9c1.3,2.1,2.6,4.1,5.1,4.8c1.3,0.8,2.1,2,3,3.2C114,52.2,114.8,53.3,112.8,53.1z"/>
		<path class="st8" d="M136.6,106.6c4.4-1.1,9-0.9,13.5-1c2.4,1.5,5.7,0.9,7.9,3c-7.3-1.7-14.7-0.4-22-1.2
			C136.1,107.1,136.3,106.8,136.6,106.6z"/>
		<path class="st8" d="M135.4,107.6c-2.5,2.8-5.8,2.1-9,2C129.4,108.9,132.4,108.3,135.4,107.6z"/>
		<path class="st14" d="M156.8,46.6c-0.1,4,0.6,8.2-2.1,11.7c-0.4,0.3-0.9,0.4-1.4,0.4c-3.4-1.7-8.1-2.5-4.9-8.2
			c0.5-0.6,3.3,1,1.6-1.8c-0.6-1-0.5-2.3,0.2-3.4C152.8,43.3,155,43.8,156.8,46.6z"/>
		<path class="st15" d="M154.5,32.8c5.1,3,5.8,6.9,2.5,12.8c-2.6-1.4-4.5-3.8-7-5.3c-0.6-0.9-0.6-1.9-0.3-2.9
			C151,35.4,152.3,33.6,154.5,32.8z"/>
		<path class="st16" d="M153.7,58.3c0.3,0,0.7,0,1,0c0.2,0.3,0.7,0.7,0.6,0.8c-1.8,2.4-1.8,5.1-1.8,7.9c-2.5,0.4-4.9,0.7-7.4,1.1
			c-1.2,0.6-1.9-0.1-2.5-1c-0.1-0.5-0.1-1,0.1-1.5C146.7,62.6,148.4,58,153.7,58.3z"/>
		<path class="st17" d="M131.1,22.7c0.4-1,0.7-1.9,1.1-2.9c5.5,1.3,11.7,0.5,16,5.4c-0.4,1-1.1,1.5-2.2,1.5
			c-1.8-0.6-3.6,0.3-5.4-0.2c-2.6-1.8-6-1.1-8.6-2.8C131.5,23.6,131.2,23.2,131.1,22.7z"/>
		<path class="st18" d="M149.7,29.3c0.3,0.4,0.6,0.7,0.9,1.1c-0.6,2.1,0.4,4.4-0.8,6.4c-1,1.5-2,2.9-3.6,3.8
			c-2.2,0.5-3.5-0.7-4.7-2.2c-0.2-0.5-0.4-1-0.4-1.5c0-1.1,0.4-2,1.2-2.7c1.8-1,2.5-3,3.9-4.5C147.2,28.8,148.4,28.4,149.7,29.3z"/>
		<path class="st19" d="M150.5,40.1c4-0.4,4.5,3.5,6.5,5.5c-0.1,0.3-0.2,0.7-0.2,1c-2-0.8-4-1.8-6.3-1c-1.9,0-3.3-0.8-4.6-2.1
			c-0.4-0.6-0.5-1.3-0.3-2.1C146.8,39.5,148.5,39.2,150.5,40.1z"/>
		<path class="st20" d="M149.3,36.7c1.2-2-3-5,1.2-6.3c2.6-1.4,2.7,1.5,4,2.4c-1.3,1.5-1.6,3.9-4,4.2
			C150,37.3,149.6,37.3,149.3,36.7z"/>
		<path class="st20" d="M149.7,29.3c-1.1,0.4-2.3,0.8-3.4,1.2c-1.5-1.3-0.9-2.7-0.2-4.1c0.7-0.4,1.4-0.7,2.1-1.1
			C149.2,26.4,152.8,26.6,149.7,29.3z"/>
		<path class="st21" d="M115.3,24.2c3.2,0.5,5.9-3.9,9.4-1.2c-0.2,0.6-0.5,1.2-0.7,1.8c-0.2,1.1,0.2,2.2,0,3.3
			c-0.3,0.7-0.6,1.4-1.3,1.6c-4.6,1.7-1.4,3.2,0.1,4.7c-1.1,1.9,0,4.1-0.8,6.1c-2.2,1-4,0.3-5.8-0.9c-1.1-1.5-2.6-2.7-4.4-3.5
			c-0.3-1.7-1.1-1.7-2.2-0.7c-0.7,0.1-1.4,0-2.1-0.4c-2.4-3.1,1.6-3.8,2.2-5.7l0,0C110.8,26.9,113,25.5,115.3,24.2z"/>
		<path class="st22" d="M109.7,29.5c1,2.5-3.1,2.9-2.2,5.4c1.3,3-1,5.4-1.6,8c-0.2,0.2-0.4,0.3-0.6,0.5c-1.2,0-2.4,0.1-3.1-1.1
			c0-0.4,0-0.7,0-1.1c0.9-0.1,1.9-0.3,1.7-1.5C103.2,35.3,105.7,30.9,109.7,29.5z"/>
		<path class="st23" d="M123.6,27.3c-1.3-0.9-1.1-2.2-1-3.5c2.5-0.3,5-0.7,7.6-0.9c0.3,0,0.6-0.1,0.9-0.2c0,0,0.1,0.2,0.1,0.2
			c1.8,1.2,1.4,2.6,0.1,3.9C128.9,29.2,126.3,29.5,123.6,27.3z"/>
		<path class="st22" d="M115.3,24.2c-1.9,1.7-3.7,3.5-5.6,5.2c-1.4-2.8-1-3.4,1.8-3.9C112.8,25.3,113.7,23.8,115.3,24.2z"/>
		<path class="st24" d="M130.2,22.9c-2.3,2.3-5,0.8-7.6,0.9c0.7-0.3,1.3-0.5,2-0.8C126.5,23.1,128.3,20.8,130.2,22.9z"/>
		<path class="st25" d="M144.1,67c0.7,0.3,1.3,0.7,2,1c-0.7,8.1,1.5,16.4-2.1,24.2c-0.7,1.5,0.1,3.1,0.9,4.6c-0.4,0-0.7,0-1.1,0.1
			c-1.2,1.8-2,4.6-4.9,3.8c-3.2-0.9-5.4-3.4-6-6.7c-0.5-3.1-0.6-6.3-0.6-9.5c0.2-0.7,0.5-1.4,1-2c1.2-1.7,2.2-3.6,2.9-5.7
			c0.9-2.6,3-4.3,4.7-6.3C142.3,69.6,142.6,67.8,144.1,67z"/>
		<path class="st26" d="M133.1,84.1c0.4,3.3,0.5,6.6,1.1,9.9c1.1,5.9,4.4,6.8,9.7,2.9c2.6,6.3,2.6,6.4-4.7,6.4c-1.6,0-3.2,0-4.8,0
			c-2.5,0-3.9,0.3-3.8-3.6c0.1-3.1-0.7-7.9-6-8.4c-1.1-0.1-2.1-1.2-3.2-1.9c0.7-7.7,1.5-15.4-0.9-23.1c-1-3.1-0.2-6.7-0.2-10
			c2.1-1.3,3.7-0.1,5.2,1.2c1.4,1.2,2.8,2.2,4.5,2.6c1.5,1,2.8,2.3,4.3,3.4c0.7,2-1.6,2.6-1.8,4.2C132.6,73.1,132.4,78.7,133.1,84.1
			z"/>
		<path class="st27" d="M130,60.5c-1.3,0.7-2.4,1.1-3.5-0.6c-1.4-2.1-3.5-3.3-6.1-3.6c-1.7-1.2-1.9-7.1-5.7-1.8
			c-0.3,0.5-1.4-0.5-1.7-1.4c0.7-0.4,0.9-0.8,0.1-1.2c-1.2-2.2,0.5-2.7,1.9-3.2c1.8-0.6,3.8-0.4,5.6-0.1c3.3,1,6.6,1.9,8.8,4.9
			c0.9,1.7,1.7,3.4,2.7,5C133.3,60.5,132.4,61.6,130,60.5z"/>
		<path class="st28" d="M121.6,49.8c-2.8,0.9-6.6-2.1-8.7,2.1c-1.4-0.7-1.4-2.3-2.2-3.4c-0.4-0.4-0.7-0.8-0.8-1.3
			c-0.3-2.1,0.6-3.4,2.5-4.2c2.2-0.4,4.1,1,6.2,1c1.4,1.4,3.3,2.2,4.4,3.9C123.1,48.9,123.1,50,121.6,49.8z"/>
		<path class="st29" d="M110.7,47.4c0,0.4,0.1,0.7,0.1,1.1c-3.9,0.6-5.3-1.6-5.5-5.1c0,0,0.1-0.1,0.1-0.1c0.9-0.8,1.9-0.9,2.9-0.5
			C110.2,43.8,109.2,46.2,110.7,47.4z"/>
		<path class="st30" d="M153.7,58.3c-4.2,1.2-5.8,5.8-9.6,7.5c-2-0.1-3.2,2.8-5.6,1.5c-1.2-0.8-1.8-1.8-1.4-3.3
			c2.5-2.6,5.7-4.6,6.7-8.4c0.6-1.1,1.1-2.2,1.7-3.3c0.8-0.9,1.2-2.4,2.9-1.5C146.3,56.2,152.6,55.4,153.7,58.3z"/>
		<path class="st31" d="M148.4,51c-0.8,0.7-1.6,1.3-2.4,2c-0.9-0.5-0.2-2.7-2.6-2c-1.1,0.3-0.7-1.8-0.5-3c0.7-1.5,1-3.3,2.4-4.4
			c0.2-0.1,0.5-0.2,0.7-0.2c1.7,0.2,3.2,0.8,4.4,2.2C149.3,47.2,155.1,51.5,148.4,51z"/>
		<path class="st32" d="M149.3,36.7c0.4,0.1,0.8,0.2,1.2,0.3c0,1,0,2.1,0,3.1c-1.5,0.4-2.9,0.7-4.4,1.1c-0.3-0.2-0.4-0.5-0.3-0.7
			c0.1-0.2,0.2-0.4,0.3-0.4C146.9,38.8,147.1,36.8,149.3,36.7z"/>
		<path class="st33" d="M138.5,66.8c2.1,0.9,3.5-2.3,5.6-0.9c0,0.4,0,0.7,0,1.1c-0.2,1.6-0.1,3.5-2.2,4.1c-2.1-0.7-4.7-0.1-5.9-2.6
			C136.1,66.8,136.7,65.9,138.5,66.8z"/>
		<path class="st34" d="M146,26.4c1.1,1.3-0.1,2.7,0.2,4.1c-0.7,1.8-0.8,4-3.3,4.3c-1.9-1.6-5.9-1.2-5-5.4c0-0.5,0.2-0.9,0.4-1.3
			c0.7-0.9,1.4-1.8,2.5-2.1C142.6,26,144.6,23,146,26.4z"/>
		<path class="st35" d="M140.9,25.9c-0.2,1.4-0.8,2.4-2.4,2.5c-1.4,1.6-1.9-2.6-3.4-0.5c-1,0.4-1.9,0.4-2.9-0.1
			c-0.7-0.4-1.1-1-1.1-1.8c0.9-1,0.5-2,0.1-3.1C134.3,24.4,138.4,22.6,140.9,25.9z"/>
		<path class="st36" d="M138.7,29.4c-0.6,3.4,4.4,2.4,4.3,5.4c-1,0.5-1,1.5-1.2,2.4c-1.9,0.9-3.7,0.3-5.6-0.1
			c-0.9-0.6-1.5-1.3-1.7-2.4c-0.1-0.8-0.1-1.6,0.1-2.3C135.6,30.9,136.3,29,138.7,29.4z"/>
		<path class="st37" d="M146.1,40.2c0,0.3,0,0.7,0,1c0,0.7,0,1.4,0,2.2c0,0,0,0,0,0c-1.9,0.3-2.5,2.7-4.5,3c-1,0.2-1.9,0.1-2.8-0.4
			c-0.4-0.3-0.6-0.8-0.6-1.3c0.7-2.5,0.9-5.3,3.7-6.8C143.3,38.5,144.1,40.4,146.1,40.2z"/>
		<path class="st38" d="M141.8,37.9c-1.2,2.1-1.4,4.8-3.2,6.6c-3.3-1.4-1.9-4.5-2.4-6.9c0.1-0.2,0.2-0.4,0.3-0.7
			c1.8-1.6,3.6-0.5,5.3,0.2C141.8,37.4,141.8,37.7,141.8,37.9z"/>
		<path class="st39" d="M131.1,26c0.4,0.4,0.7,0.8,1.1,1.2c1.5,2.9-2,3.9-2.4,6.1c-0.3,0.4-0.6,0.8-1,1.1c-1.3,0.9-2.6,1.4-4.2,1.4
			c-0.8-0.1-1.5-0.3-2-0.9c-1-0.4-1.9-0.8-2.9-1.1c-1-0.2-2.2-0.2-2.3-1.6c-0.1-1.3,1-1.7,2-2.2c1.5-0.7,3.5-0.7,4.3-2.7
			C126.1,27.1,128.9,28.2,131.1,26z"/>
		<path class="st40" d="M118.3,44.3c-2.2,2.3-3.6-0.8-5.4-0.9c-2.5,0-4.2-0.7-4.2-3.6c0.2-1.9,2.3-2.4,2.9-4
			c2.2,0.1,4.7-0.3,4.4,3.2C117.5,40.5,118.5,42.1,118.3,44.3z"/>
		<path class="st41" d="M118.3,44.3c-0.7-1.8-1.5-3.5-2.2-5.3c2.1,0.4,4.1,1.5,6.4,1.2c0.1,0.2,0.2,0.4,0.3,0.6
			c0,0.5-0.2,0.9-0.5,1.2c-0.4,3.8,2.8,0.5,3.6,1.9c0.8,0.4,1.2,1,1.1,1.9c-1,1.8-2.3,3.1-4.6,2.4C120.6,47.3,119.1,46.2,118.3,44.3
			z"/>
		<path class="st42" d="M108.5,43.3c-1,0-2.1,0-3.1,0c-0.8-3.2,1.2-5.7,2.1-8.4c0.8,0,1.6,0,2.4-0.1c0.4,1.7-0.9,3.1-0.8,4.7
			C108.9,40.8,109.7,42.2,108.5,43.3z"/>
		<path class="st43" d="M122.6,34.9c0.7,0,1.5,0,2.2,0c0.9,0.9-0.9,2.7,1,3.3c0.2,0.4,0.1,0.9-0.1,1.3c-0.9,0.8-1.9,1.4-3.2,0.8
			c0,0-0.1-0.1-0.1-0.1C119.5,38.3,119.4,36.5,122.6,34.9z"/>
		<path class="st44" d="M108.9,39c-1-1.7,0.4-2.9,1-4.2c1.3-0.5,0.4-2.5,2.2-3c-0.2,1.4-0.3,2.7-0.5,3.9c0.8,2.1-1.2,2.4-2.3,3.2
			L108.9,39z"/>
		<path class="st45" d="M136.4,69c1.9,0.5,4.4-0.7,5.5,2c-0.9,2.4-4,3.3-4.3,6.2c-2,1.9-2.5,0.5-3.1-1.7c0.2,2.9,1.2,5.3-0.2,7.7
			c-0.4,0.3-0.8,0.6-1.1,0.9c-1.9-2.7-2.6-5.8-1.9-8.9c0.7-2.9-0.7-5.6-0.1-8.4C133.9,65.2,135.2,66.9,136.4,69z"/>
		<path class="st46" d="M134.3,83.2c0.2-3.3-1.9-6.8,0.6-10c1.5,1-1,4.5,2.7,4C136.5,79.2,136.1,81.6,134.3,83.2z"/>
		<path class="st47" d="M130,60.5c0.7-0.3,2.7-0.8,1.2-1.4c-3-1.1-1.9-3.2-2.3-5c1.1-3.3,2.9-5.8,6.9-5.3c1.7,1.7,1.9,3.8,1.9,6
			c-0.7,2.7,0,5.4-0.4,8.1c-0.6,1.5-1.8,1.3-3,0.8C131.8,64.1,130.7,62.5,130,60.5z"/>
		<path class="st48" d="M134.3,63.6c0.7-1.1,1.4,0,2.1,0.1c0.2-0.1,0.4-0.2,0.6-0.3c0.2,0.2,0.3,0.4,0.5,0.5c0.3,1,0.6,2,0.9,2.9
			c-1.3,0.1-2,0.9-2.1,2.2c-1.6-1-3-2.5-5.3-2.1C131.5,65.1,133.7,65.1,134.3,63.6z"/>
		<path class="st49" d="M135.3,48.8c-2.7,1.1-4.1,3.7-6.4,5.2c-2.4-1.4-4.9-2.9-7.3-4.3c0.3-0.6,0.6-1.1,0.9-1.7
			c1.8-0.4,2.9-1.8,4.3-2.8c1.6-1.2,3.1-2.9,5.5-1.7c1.1,0.8,2.2,1.6,3.5,2.1c0.4,0.2,0.7,0.6,1,1C136.8,47.8,136.3,48.5,135.3,48.8
			z"/>
		<path class="st50" d="M108.9,39c0,0,0.5,0,0.5,0c-0.5,2.7,2,3.1,3.5,4.4c-1.2,1.1-2.5,2.1-2.2,4c-3.3,0-1.3-2.7-2.2-4
			C108.7,41.9,108.8,40.5,108.9,39z"/>
		<path class="st51" d="M143.9,47.7c-2.5,3.1,3.6,2.7,2.1,5.3c-0.4,1.1-0.8,2.2-1.1,3.3c-1.5,0.4-2-1-2.9-1.7c-1-1.1-2.4-1.7-3-3.1
			c-0.5-1.8,0.2-3,1.9-3.8C141.9,47.4,142.9,47,143.9,47.7z"/>
		<path class="st52" d="M143,54.2c0.6,0.7,1.3,1.4,1.9,2.1c-1.6,3.3-3.3,6.6-7.3,7.6c0,0-0.2-0.2-0.2-0.2c-1.2-2.6,3-4.5,0.9-7.1
			c0.2-0.4,0.5-0.8,0.9-1C140.5,55,141.7,54.5,143,54.2z"/>
		<path class="st53" d="M143.9,47.7c-0.7,0.4-1.5,0.7-2.2,1.1c-0.8-1.1-0.8-2.1,0.1-3.2c1.6-0.5,1.4-4.2,4.3-2.3
			C145.3,44.8,144.6,46.2,143.9,47.7z"/>
		<path class="st54" d="M138.7,29.4c-1.1,1.1-2.2,2.2-3.3,3.3c-1.8,1-2.6,0.1-2.9-1.5c-0.4-2.1,1-3.2,2.8-3.7c1.6-1.5,2,0.9,3.2,1
			C138.5,28.7,138.6,29.1,138.7,29.4z"/>
		<path class="st55" d="M135.3,27.4c-1.6,1.8-4,3.5,0.1,5.2c0,0.7,0,1.5-0.1,2.2c-2.8,3.6-4.2-0.9-6.4-1.1c-1.1-3.3,3-3.9,3.2-6.5
			C133.2,27.3,134.3,27.4,135.3,27.4z"/>
		<path class="st56" d="M129,33.8c2.4-1.3,3.9,2.7,6.4,1.1c0.4,0.7,0.8,1.4,1.1,2.1c0,0,0,0,0,0c-1.6,3,0.6,6.6-1.5,9.6
			c-1.3,0.1-2-0.8-2.8-1.6c-1.9-2.5-5.2-4.3-3.5-8.3C128.6,35.7,128.4,34.7,129,33.8L129,33.8z"/>
		<path class="st57" d="M141.8,45.6c0,1.1,0,2.1-0.1,3.2c-2.3,0-2.1,1.6-2,3.1c1,1.4,1.1,2.8-0.2,4.2c-0.2,0.1-0.5,0.2-0.7,0.2
			c-1.3,0.7-1.7-0.3-2.2-1.1c-0.4-2.1-0.8-4.2-1.3-6.4c0.4-0.7,0.8-1.4,1.2-2.1c-0.2-2,0.8-1.8,2.1-1.3
			C139.6,45.5,140.7,45.6,141.8,45.6z"/>
		<path class="st58" d="M138.6,45.4c-0.9,0.1-1.7,0.3-2.1,1.3c-0.5-0.1-1-0.1-1.5-0.2c-0.2-3.3-2.1-6.9,1.5-9.6
			c2.5,2,0.3,5.4,2.1,7.6C138.6,44.8,138.6,45.1,138.6,45.4z"/>
		<path class="st59" d="M129,33.8c0.3,0.7,0.7,1.4,1,2.2c-1,1.6-0.9,4.7-4.2,3.1c-0.8-1.4-2.4-0.9-3.7-1.5c1.2-0.9,2.8-1.1,2.8-2.8
			C126.2,34.5,127.6,34.2,129,33.8z"/>
		<path class="st60" d="M125.7,39.1c2.4,0.3,2.7-2.2,4.2-3.1c-1.6,3.6,1.2,6,2.2,9c-2-2.3-3.5,2.1-5.4,0.3c-0.3-0.3-0.6-0.6-0.9-0.8
			c-0.4-0.3-0.6-0.7-0.6-1.2C125.4,41.9,125,40.4,125.7,39.1L125.7,39.1z"/>
		<path class="st61" d="M125.6,43.3c0.1,0.4,0.1,0.7,0.2,1.1c-1.8-0.6-4.3,3.2-5.6-1c-0.8-2.6,1-2,2.3-2
			C124.1,41.3,125.1,41.9,125.6,43.3z"/>
		<path class="st59" d="M125.6,43.3c-1-0.6-2.1-1.3-3.1-1.9c0-0.4,0-0.8,0-1.2c1.1-0.4,2.1-0.8,3.2-1.2
			C126.2,40.5,127.9,42,125.6,43.3z"/>
		<path class="st30" d="M136.6,55.2c0.7,0.4,1.5,0.8,2.2,1.1c2,1.3,3.2,2.7,0.6,4.6c-1,0.7-2,1.4-2,2.8c0,0-0.5,0-0.5,0
			s-0.5,0-0.5,0C136.7,60.9,135,58,136.6,55.2z"/>
		<path class="st62" d="M139.5,56.1c0.1-1.4,0.1-2.8,0.2-4.2c1.6,0.1,2.6,0.9,3.3,2.2C142.8,56.5,141.4,56.6,139.5,56.1z"/>
	</g>
	<g>
		<g>
			<path d="M7.1,147.1c-1,0-2-0.2-2.8-0.5c-0.9-0.3-1.6-0.8-2.2-1.4c-0.6-0.6-1.1-1.3-1.5-2.2c-0.4-0.8-0.5-1.7-0.5-2.7
				s0.2-1.9,0.5-2.7c0.4-0.8,0.8-1.6,1.5-2.2c0.6-0.6,1.4-1.1,2.2-1.4c0.9-0.3,1.8-0.5,2.8-0.5c1,0,1.9,0.2,2.8,0.5s1.6,0.8,2.2,1.5
				l-0.9,0.9c-0.6-0.6-1.2-1-1.8-1.2c-0.7-0.3-1.4-0.4-2.2-0.4c-0.8,0-1.6,0.1-2.3,0.4c-0.7,0.3-1.3,0.7-1.8,1.2
				c-0.5,0.5-0.9,1.1-1.2,1.8c-0.3,0.7-0.4,1.4-0.4,2.2s0.1,1.6,0.4,2.2c0.3,0.7,0.7,1.3,1.2,1.8c0.5,0.5,1.1,0.9,1.8,1.2
				c0.7,0.3,1.4,0.4,2.3,0.4c0.8,0,1.5-0.1,2.2-0.4c0.7-0.3,1.3-0.7,1.8-1.2l0.9,0.9c-0.6,0.7-1.3,1.2-2.2,1.5
				C9,147,8.1,147.1,7.1,147.1z"/>
			<path d="M17.1,147v-13.5h1.4v12.3h7.6v1.2H17.1z"/>
			<path d="M29.8,132.4l2.6-2.4h1.8l-3.1,2.4H29.8z M30.4,147v-13.5h1.4V147H30.4z"/>
			<path d="M38.1,147v-13.5h1.2l9.3,11.7H48v-11.7h1.4V147h-1.2l-9.3-11.7h0.6V147H38.1z"/>
			<path d="M55.7,147v-13.5h1.4V147H55.7z"/>
			<path d="M69.3,147.1c-1,0-2-0.2-2.8-0.5c-0.9-0.3-1.6-0.8-2.2-1.4c-0.6-0.6-1.1-1.3-1.5-2.2c-0.4-0.8-0.5-1.7-0.5-2.7
				s0.2-1.9,0.5-2.7c0.4-0.8,0.8-1.6,1.5-2.2c0.6-0.6,1.4-1.1,2.2-1.4c0.9-0.3,1.8-0.5,2.8-0.5c1,0,1.9,0.2,2.8,0.5s1.6,0.8,2.2,1.5
				l-0.9,0.9c-0.6-0.6-1.2-1-1.8-1.2c-0.7-0.3-1.4-0.4-2.2-0.4c-0.8,0-1.6,0.1-2.3,0.4c-0.7,0.3-1.3,0.7-1.8,1.2
				c-0.5,0.5-0.9,1.1-1.2,1.8c-0.3,0.7-0.4,1.4-0.4,2.2s0.1,1.6,0.4,2.2c0.3,0.7,0.7,1.3,1.2,1.8c0.5,0.5,1.1,0.9,1.8,1.2
				c0.7,0.3,1.4,0.4,2.3,0.4c0.8,0,1.5-0.1,2.2-0.4c0.7-0.3,1.3-0.7,1.8-1.2l0.9,0.9c-0.6,0.7-1.3,1.2-2.2,1.5
				C71.3,147,70.3,147.1,69.3,147.1z"/>
			<path d="M77.1,147l6.2-13.5h1.4l6.2,13.5h-1.5l-5.7-12.7h0.6L78.6,147H77.1z M79.5,143.4l0.4-1.2h7.9l0.4,1.2H79.5z"/>
			<path d="M99.9,147l6.2-13.5h1.4l6.2,13.5h-1.5l-5.7-12.7h0.6l-5.7,12.7H99.9z M102.3,143.4l0.4-1.2h7.9l0.4,1.2H102.3z"/>
			<path d="M120.4,147v-12.3h-4.7v-1.2h10.9v1.2h-4.7V147H120.4z"/>
			<path d="M130.8,147v-13.5h1.4V147H130.8z"/>
			<path d="M142.4,147l-6-13.5h1.5l5.6,12.7h-0.8l5.6-12.7h1.4l-6,13.5H142.4z"/>
			<path d="M151.8,147l6.2-13.5h1.4l6.2,13.5H164l-5.7-12.7h0.6l-5.7,12.7H151.8z M154.2,143.4l0.4-1.2h7.9l0.4,1.2H154.2z"/>
			<path d="M169.7,147v-13.5h1.2L177,144h-0.6l6.1-10.5h1.2V147h-1.4v-11.4h0.3l-5.6,9.6h-0.7l-5.7-9.6h0.4V147H169.7z"/>
			<path d="M191.5,145.8h8.1v1.2H190v-13.5h9.3v1.2h-7.8V145.8z M191.3,139.5h7.1v1.2h-7.1V139.5z"/>
			<path d="M204.9,147v-13.5h1.2l9.3,11.7h-0.6v-11.7h1.4V147H215l-9.3-11.7h0.6V147H204.9z"/>
			<path d="M225.1,147v-12.3h-4.7v-1.2h10.9v1.2h-4.7V147H225.1z"/>
			<path d="M236.9,145.8h8.1v1.2h-9.5v-13.5h9.3v1.2h-7.8V145.8z M236.8,139.5h7.1v1.2h-7.1V139.5z"/>
		</g>
	</g>
	<text transform="matrix(1 0 0 1 52.854 180.8529)" class="st63 st64 st65">psiquiatria e psicologia</text>
</g>
</svg>
