<?xml version="1.0" encoding="utf-8"?>
<!-- Generator: Adobe Illustrator 25.2.1, SVG Export Plug-In . SVG Version: 6.00 Build 0)  -->
<svg version="1.1" id="Camada_1" xmlns="http://www.w3.org/2000/svg" xmlns:xlink="http://www.w3.org/1999/xlink" x="0px" y="0px"
	 viewBox="0 0 247.2 202.1" style="enable-background:new 0 0 247.2 202.1;" xml:space="preserve">
<style type="text/css">
	.st0{fill:#5AAF9C;}
	.st1{fill:#5CAD9C;}
	.st2{fill:#5BAF9C;}
	.st3{fill:#5EAD9C;}
	.st4{fill:#556066;}
	.st5{fill:#71AB9D;}
	.st6{fill:#71AD9F;}
	.st7{fill:#87B1A7;}
	.st8{fill:#C0CFCC;}
	.st9{fill:#505E64;}
	.st10{fill:#525E64;}
</style>
<g>
	<path class="st0" d="M37.3,103c0-0.3,0-0.7,0-1c0.3-10.8,0.5-10.9,11-11.2c3.1-0.1,6.1-0.2,9.1-0.5c2.8-0.3,2.9,0.7,2.1,3
		c-1.7,5.2-3.2,10.6-4.8,15.8c-0.9,2.7,0.2,3,2.4,2.3c5.5-1.6,9.4-4.6,10.6-10.5c0.9-4.3,2-8.5,3.1-12.8c0.3-1.1,0.5-2.4,2.2-1.8
		c7.1,2.5,13.1,6.6,15.3,14.1c3.4,11.7-0.7,26.5-18,29.6c-10.1,1.8-19.4,0.2-26.6-7.9C38.9,116.6,37.1,110.1,37.3,103z"/>
	<path class="st1" d="M40.9,75.1c-18.4,21.5-11.8,55.2,18,61.7c24.3,5.3,41.7-15.2,36.2-36.5c-2.6-9.9-10.4-15.5-19.2-19.8
		c-1.1-0.5-3-0.5-2.6-2.8c0.6-3.9,1-4.2,4.6-2.6c10.8,4.7,19.3,11.8,22.7,23.6c5.6,19.3-4.8,40.4-29.7,44.4
		c-18.9,3.1-33.7-8.1-40-19.7c-8.5-15.7-6.9-30.8,3.7-45c1.2-1.6,2.2-3.4,4.1-4.4C40.7,73.3,41,73.5,40.9,75.1z"/>
	<path class="st2" d="M41.7,84.7C51,74.1,60.3,63.4,72.1,55.5c1.1,0.9,0.7,1.5,0.4,2.1c-3,8.3-6,16.5-9,24.8c-0.4,1-0.5,2.3-2,2.3
		C55.1,84.7,48.5,84.7,41.7,84.7z"/>
	<path class="st3" d="M105.5,128c5.2-12.6,5.5-25.2-0.8-37.5c-5.5-11-14.4-18.1-26.2-21.5c-1.6-0.5-3.3-0.4-2.6-3.1
		c0.8-2.9,2.5-1.6,4-1.4c16.3,3.2,30.4,18.7,32.5,35.1c1.3,10.4,0.2,20.2-5.4,29.3C106,129.3,105.4,129.2,105.5,128z"/>
	<path class="st4" d="M176.9,94.1c-0.4,0.2-0.7,0.5-1.1,0.6c-4.6,0.7-4.7,0.7-4.7,5.5c0,2.1,0,4.3,0,6.4c0,5.4,0.4,5.8,5.5,6.1
		c-1.3,1.3-3.3,1.8-5.5,1.1c-2-0.6-3.3-1.9-3.7-4c-0.8-4.1-0.3-8.3-0.4-12.5c0-1.4,0.1-2.7-2-2.7c-1.6,0-1.5-1.1-0.7-2.1
		c1.4-1.7,2.9-3.5,4.4-5.1c0.8-0.9,2.3-1.1,2.1,0.3c-0.6,4.6,1.8,5.7,5.7,5.6C176.6,93.4,176.7,93.8,176.9,94.1z"/>
	<path class="st5" d="M105.5,128c0.3,0.6,0.8,0.8,1.5,0.9c-1.4,4.2-4.6,7.1-7.7,10.1c-0.5,0-1,0-0.6-0.8
		C100.9,134.8,103.2,131.4,105.5,128z"/>
	<path class="st6" d="M40.9,75.1c-0.2-1.3-1.2-1.1-2.1-1.2c2.4-2.6,5.2-4.7,8.3-6.1C45,70.2,43,72.7,40.9,75.1z"/>
	<path class="st7" d="M98.7,138.2c0.2,0.3,0.4,0.5,0.6,0.8c-1.1,1.9-3.1,2.8-4.6,4.2c-0.7,0.2-0.9-0.1-0.7-0.7
		C95.5,141,97.1,139.6,98.7,138.2z"/>
	<path class="st8" d="M94,142.4c0.2,0.2,0.5,0.5,0.7,0.7c-1.2,1.1-2.5,2.1-4.7,2.6C91.1,143.9,92.7,143.3,94,142.4z"/>
	<path class="st9" d="M156.2,83c-3.8-4.6-8.7-6.9-14.7-6c-8.1,1.2-14,8.3-14.6,17.2c-0.6,9.7,4.7,18.2,12.9,20.4
		c1.2,0.3,2.4,0.5,3,0.6c4.2,0,7.4-1.1,10.2-3.2C161.4,105.3,163.1,91.5,156.2,83z M151.5,108.6c-4,6.6-12.4,6.5-15.9-0.4
		c-4-8-4-16.4-0.1-24.5c3.3-6.6,11.7-6.9,15.8-0.7c2.6,3.9,3.2,8.4,3.2,12.9C154.5,100.4,153.8,104.7,151.5,108.6z"/>
	<path class="st9" d="M222.1,102.9c0-0.9,0.1-2.1-1.2-1.9c-3.5,0.5-3.1-1.8-3-4c0-2.7,0-5.4,0-8.1c0-3.2,0.1-6.3,0-9.5
		c0-0.9,0.7-2.2-0.9-2.5c-1.2-0.3-2.1,0.3-2.8,1.4c-4.6,7.4-9.3,14.7-13.8,22.1c-1.9,3.2-1.1,4.5,2.5,4.5c1.1,0,2.3,0,3.4,0
		c7,0,7,0,7.4,7.1c0,0.1,0,0.2,0,0.3c-0.2,1.6,0.7,2.1,2.2,2.2c1.8,0.1,2-0.9,2-2.3c-0.1-1.2,0.1-2.5,0-3.7c-0.1-2.2-0.2-4.2,3-3.7
		C222.2,104.9,222.1,103.8,222.1,102.9z M211.4,100.8c-2.7,0-5.4,0-8.9,0c3.7-6,7.1-11.5,10.5-17c0.2,0.1,0.5,0.2,0.7,0.2
		c0,4.9,0,9.8,0,14.7C213.8,100.5,212.9,100.9,211.4,100.8z"/>
	<path class="st10" d="M187.6,92.1c-5.8,0-10.1,4.8-10.1,11.3c0,6.2,4.4,11,10,11.1c5.7,0.1,10.4-5.5,10.3-12
		C197.8,96.5,193.4,92.1,187.6,92.1z M192.2,110.1c-1.9,3.3-5.3,3.6-7.8,0.7c-2.7-3.1-3.5-10.3-1.6-14.1c2-3.9,6.1-4.2,8.6-0.6
		c1.2,1.7,1.9,4.5,1.9,8.3C193.6,106.3,193.3,108.3,192.2,110.1z"/>
</g>
</svg>
