<?xml version="1.0" encoding="utf-8"?>
<!-- Generator: Adobe Illustrator 25.2.1, SVG Export Plug-In . SVG Version: 6.00 Build 0)  -->
<svg version="1.1" id="Camada_1" xmlns="http://www.w3.org/2000/svg" xmlns:xlink="http://www.w3.org/1999/xlink" x="0px" y="0px"
	 viewBox="0 0 247.2 202.1" style="enable-background:new 0 0 247.2 202.1;" xml:space="preserve">
<style type="text/css">
	.st0{fill:#FFFFFF;}
</style>
<g>
	<g>
		<g>
			<path class="st0" d="M218.6,54.8L218.6,54.8c-1.3,1.1-2.5,2.4-3.9,3.5c-7.1,5.7-14,11.6-20.3,18.2c-7.7,8.1-15.5,16.2-23,24.6
				c-4.8,5.3-9.2,11-13.4,16.8c-5.1,6.9-9.7,14.2-12.4,22.6c-0.7,2.2-0.9,4.2-0.6,6.3c0.3,3.1,2.7,5.6,5.9,5.7
				c2.4,0.1,5.1-0.2,7.3-1.1c7.2-3,13.3-7.8,19.2-12.9c1.1-1,1.1-1.9,0.4-3.5c-1.1,0.9-2,1.6-2.9,2.3c-6.7,4.8-13,10.4-21.3,12.6
				c-2.7,0.7-4.2-0.1-4.4-2.8c-0.2-2.8,1.2-5,2.5-7.2c5.2-8.9,11.6-16.9,18-24.8c4.9-6.1,10-12,15.1-18c6.6-7.8,13.1-15.8,20-23.3
				c7.9-8.5,16.3-16.5,24.5-24.7c-1.3-1.2-1.3-1.2-2.1-0.9c-9,2.7-17.1,7.1-24.7,12.6c-2.6,1.9-4.9,4.2-7.5,6
				c-6.2,4.3-11.4,9.8-16.7,15c-6.3,6.1-12.1,12.7-18.1,19.1c-2.7,2.8-5.4,5.6-7.7,8.8c-1.8,2.4-3.9,4.4-5.8,6.6
				c-2.7,3-5,6.3-7.5,9.4c-4.1,4.9-8.3,9.6-12.4,14.5c-2.8,3.4-6,6.3-9.5,8.9c-1.1,0.8-2.3,1.3-3.6-0.2
				c24.5-35.7,52.2-68.9,83.4-99.8c-1.1-0.1-2-0.3-2.8-0.1c-1.9,0.5-3.9,1.2-5.7,2c-7.8,3.2-14.8,7.7-21.6,12.5
				c-3.4,2.4-6.7,4.9-9.8,7.7c-4.9,4.6-9.8,9.3-14.4,14.2c-7,7.5-13.8,15.1-20.5,22.8c-5.2,5.9-10,12.2-15.2,18.1
				c-4.8,5.3-9.9,10.2-15.8,14.3c-5,3.5-10.2,6.5-15.9,8.6c-1,0.4-2.1,0.5-3.4-0.2c2.9-1.3,5.5-2.4,8.1-3.6
				c6.1-3.1,11.6-6.8,16.3-12c3.5-3.8,4.8-8,4.3-13c-0.2-2.3-1.4-3.9-3.1-5.3c-2.7-2.2-6.1-2.5-9.1-2.2c-3.1,0.3-6.3,0.5-9.4,1.6
				c-4,1.5-8,3-11.7,5.2c-4.2,2.5-8.2,5.2-12.1,8.1c-4.3,3.3-7.8,7.3-10.7,11.8c-0.6,1-1,2.1,0.5,3.1c1.9-2.5,3.6-4.9,5.6-7.1
				c5.9-6.5,13.1-11.4,20.9-15.4c5.8-2.9,11.8-5.1,18.5-4.9c2.3,0.1,4.2,0.9,6,2.1c2,1.5,3.6,5,2.6,6.9c-1.9,3.5-3.4,7.3-6.7,9.8
				c-2.7,2.1-5.3,4.4-8.2,6.3c-2.5,1.7-5.3,3.1-8,4.3c-2.2,1-4.7,1.7-7,2.4c-2.8,0.8-5.7,1.7-8.6,2.1c-3.7,0.4-7.3,0.5-11.1,0.3
				c-5.2-0.4-8.5-2.9-11.1-7.2c-1-1.6-1-3.3-0.7-4.8c0.5-2,1.4-4,2.2-5.9c2.4-5.5,6.2-10,10.1-14.4c4-4.5,8.3-8.6,12.4-13
				c1.8-2,3.9-2.8,6.6-3.1c4.6-0.4,9.3-1.1,13.9-1.9c2.5-0.4,4.9-1.1,7.3-1.8c5.2-1.6,10.5-3.1,15.6-5c4.7-1.6,9.3-3.5,13.8-5.4
				c5.4-2.3,10.4-5.2,15.2-8.6c5.4-3.8,10.3-7.9,13-14.1c1.2-2.8,0.9-5.8-1.3-7.9c-2.6-2.4-5.8-3.2-9.2-3
				c-5.7,0.3-11.1,1.7-16.5,3.4c-8.9,2.9-17.3,6.9-25.2,11.9c-6.9,4.4-13.8,8.8-20.5,13.5c-6.7,4.8-12.8,10.4-18.6,16.2
				c-1.3,1.3-2.7,2-4.4,1.8c-3.8-0.4-7.7-0.4-11.4-1.2c-3.8-0.8-7.6-2.2-10.5-5c-3.3-3.3-6.3-6.8-5.6-11.9c0.3-2.2,1.3-4.2,2.1-6.3
				c1.6-4,4.5-7.1,7.5-10.3c5.2-5.6,11.5-9.6,18.7-11.7c6-1.8,12.2-3.5,18.6-3.2c4,0.2,7.9,0,11.9,0c1,0,2-0.2,2.9-0.3
				c0.3-2.1-0.7-2.4-2-2.5c-9-0.5-18.1-0.2-26.9,1.7C48.2,51,40,53.9,33,59.4c-7.5,5.9-12.4,12.9-12.2,22.9
				c0.1,3.9,1.3,7.2,3.6,10.2c4.9,6.5,11.9,9,19.6,9.7c2.3,0.2,4.6,0.2,7.5,0.3c-0.9,1.1-1.3,1.6-1.7,2.1c-4.6,5-8.7,10.4-12.1,16.3
				c-2.5,4.1-4.3,8.4-3.9,13.4c0.1,1.6,0,3.1,0.1,4.7c0.2,4.8,2.6,8.2,6.5,10.6c3,1.8,6.3,2.7,9.9,2.7c5.4,0.1,10.8,0.3,16.2,0.4
				c4.1,0.1,8.2-0.7,12-2.2c7.3-2.9,13.8-7.3,19.8-12.3c1.6-1.4,3.5-2.6,4.9-4.2c8.1-9.3,16.1-18.7,24.2-28.1
				c7.1-8.3,14-16.7,22.1-24.1c5.8-5.3,11.9-10.2,17.7-15.4c5.4-4.7,11.5-8.2,17.9-11.5c0.4-0.2,1,0,1.7,0c-4,3.4-7.7,6.5-11.4,9.7
				c-3.7,3.3-7.5,6.6-11,10.1c-3,3-5.6,6.4-8.6,9.5c-8.5,8.9-16.7,17.9-24.4,27.5c-6.7,8.3-13.5,16.6-18.3,26.2
				c-1.6,3.3-2.8,6.5-2.6,10.1c0.2,3.5,2.8,5.5,6.1,4.2c2-0.8,4.1-1.9,5.5-3.5c6.7-7.3,13.4-14.6,19.7-22.3
				c8.4-10.3,17.2-20.3,26.1-30.2c1.4-1.6,2.7-3.3,4.3-4.8c3.3-3.3,6.6-6.5,10-9.6c4.7-4.5,9.4-9,14.3-13.3
				c6.1-5.2,12.6-9.9,19.8-13.5C216.7,54.8,217.7,54.9,218.6,54.8z M32.8,136.4l0.1-0.3l-0.2,0L32.8,136.4z"/>
			<path d="M218.6,54.8c-0.9,0.1-1.9,0-2.7,0.4c-7.2,3.6-13.7,8.3-19.8,13.5c-4.9,4.2-9.6,8.8-14.3,13.3c-3.4,3.2-6.7,6.4-10,9.6
				c-1.5,1.5-2.8,3.2-4.3,4.8c-8.9,9.9-17.7,19.9-26.1,30.2c-6.3,7.7-13,15-19.7,22.3c-1.4,1.5-3.5,2.7-5.5,3.5
				c-3.3,1.3-5.9-0.7-6.1-4.2c-0.2-3.7,1-6.9,2.6-10.1c4.9-9.6,11.7-17.9,18.3-26.2c7.7-9.6,15.9-18.7,24.4-27.5
				c2.9-3.1,5.5-6.5,8.6-9.5c3.5-3.5,7.3-6.8,11-10.1c3.6-3.2,7.4-6.3,11.4-9.7c-0.8,0-1.4-0.2-1.7,0c-6.3,3.3-12.5,6.8-17.9,11.5
				c-5.9,5.2-11.9,10.2-17.7,15.4c-8.1,7.3-15,15.8-22.1,24.1c-8.1,9.4-16.1,18.8-24.2,28.1c-1.4,1.6-3.2,2.8-4.9,4.2
				c-6,5-12.5,9.4-19.8,12.3c-3.8,1.5-7.8,2.3-12,2.2c-5.4-0.1-10.8-0.3-16.2-0.4c-3.5-0.1-6.9-0.9-9.9-2.7
				c-3.9-2.4-6.4-5.8-6.5-10.6c-0.1-1.6,0-3.1-0.1-4.7c-0.3-5,1.5-9.2,3.9-13.4c3.5-5.9,7.6-11.3,12.1-16.3c0.5-0.5,0.9-1.1,1.7-2.1
				c-2.8-0.1-5.2,0-7.5-0.3c-7.7-0.8-14.7-3.2-19.6-9.7c-2.2-3-3.5-6.3-3.6-10.2c-0.2-9.9,4.7-17,12.2-22.9
				C40,53.9,48.2,51,56.8,49.2c8.8-1.8,17.9-2.2,26.9-1.7c1.4,0.1,2.4,0.4,2,2.5c-0.9,0.1-1.9,0.3-2.9,0.3c-4,0-7.9,0.2-11.9,0
				c-6.5-0.3-12.6,1.4-18.6,3.2c-7.2,2.1-13.5,6.1-18.7,11.7c-2.9,3.2-5.8,6.2-7.5,10.3c-0.8,2.1-1.8,4.1-2.1,6.3
				c-0.8,5.1,2.3,8.7,5.6,11.9c2.9,2.9,6.6,4.2,10.5,5c3.7,0.8,7.6,0.9,11.4,1.2c1.8,0.2,3.1-0.4,4.4-1.8
				c5.8-5.8,11.8-11.5,18.6-16.2c6.7-4.7,13.6-9.1,20.5-13.5c7.9-5,16.3-9,25.2-11.9c5.4-1.7,10.8-3.1,16.5-3.4
				c3.4-0.2,6.7,0.6,9.2,3c2.2,2,2.5,5,1.3,7.9c-2.7,6.2-7.6,10.3-13,14.1c-4.8,3.4-9.8,6.3-15.2,8.6c-4.5,2-9.2,3.8-13.8,5.4
				c-5.2,1.8-10.4,3.4-15.6,5c-2.4,0.7-4.8,1.4-7.3,1.8c-4.6,0.8-9.2,1.5-13.9,1.9c-2.7,0.3-4.8,1.1-6.6,3.1
				c-4.1,4.4-8.4,8.5-12.4,13c-3.9,4.4-7.7,8.9-10.1,14.4c-0.8,1.9-1.8,3.9-2.2,5.9c-0.4,1.6-0.3,3.2,0.7,4.8
				c2.5,4.3,5.8,6.8,11.1,7.2c3.7,0.3,7.4,0.2,11.1-0.3c2.9-0.3,5.7-1.3,8.6-2.1c2.4-0.7,4.8-1.4,7-2.4c2.8-1.3,5.5-2.7,8-4.3
				c2.8-1.9,5.4-4.2,8.2-6.3c3.3-2.5,4.8-6.3,6.7-9.8c1-1.9-0.5-5.4-2.6-6.9c-1.7-1.3-3.7-2.1-6-2.1c-6.7-0.2-12.7,2-18.5,4.9
				c-7.8,3.9-15,8.8-20.9,15.4c-2,2.2-3.7,4.7-5.6,7.1c-1.5-1-1.1-2.1-0.5-3.1c2.9-4.5,6.5-8.5,10.7-11.8c3.8-2.9,7.9-5.7,12.1-8.1
				c3.7-2.2,7.6-3.7,11.7-5.2c3.1-1.2,6.3-1.3,9.4-1.6c3.1-0.3,6.5,0.1,9.1,2.2c1.7,1.4,2.9,2.9,3.1,5.3c0.5,5-0.9,9.2-4.3,13
				c-4.6,5.1-10.2,8.9-16.3,12c-2.5,1.3-5.2,2.3-8.1,3.6c1.2,0.7,2.4,0.5,3.4,0.2c5.7-2.1,11-5.1,15.9-8.6c5.8-4.1,11-9,15.8-14.3
				c5.3-5.8,10.1-12.1,15.2-18.1c6.7-7.7,13.6-15.3,20.5-22.8c4.6-4.9,9.4-9.6,14.4-14.2c3-2.8,6.4-5.3,9.8-7.7
				c6.8-4.8,13.8-9.4,21.6-12.5c1.9-0.8,3.8-1.4,5.7-2c0.8-0.2,1.7,0.1,2.8,0.1c-31.2,30.9-58.9,64.1-83.4,99.8
				c1.3,1.6,2.6,1,3.6,0.2c3.5-2.6,6.7-5.5,9.5-8.9c4.1-4.9,8.3-9.7,12.4-14.5c2.6-3.1,4.9-6.4,7.5-9.4c2-2.2,4.1-4.2,5.8-6.6
				c2.3-3.1,5.1-5.9,7.7-8.8c6-6.4,11.9-12.9,18.1-19.1c5.4-5.2,10.5-10.7,16.7-15c2.6-1.8,4.9-4.1,7.5-6
				c7.6-5.5,15.7-9.8,24.7-12.6c0.8-0.2,0.8-0.2,2.1,0.9c-8.2,8.2-16.6,16.2-24.5,24.7c-7,7.5-13.4,15.5-20,23.3
				c-5.1,6-10.2,11.9-15.1,18c-6.4,8-12.8,16-18,24.8c-1.3,2.2-2.8,4.4-2.5,7.2c0.2,2.7,1.7,3.5,4.4,2.8c8.3-2.2,14.6-7.8,21.3-12.6
				c0.9-0.7,1.8-1.4,2.9-2.3c0.7,1.5,0.7,2.5-0.4,3.5c-5.9,5-11.9,9.9-19.2,12.9c-2.2,0.9-4.9,1.3-7.3,1.1c-3.2-0.2-5.5-2.6-5.9-5.7
				c-0.2-2.1-0.1-4.1,0.6-6.3c2.7-8.4,7.2-15.7,12.4-22.6c4.3-5.8,8.7-11.4,13.4-16.8c7.5-8.4,15.3-16.4,23-24.6
				c6.3-6.6,13.1-12.5,20.3-18.2C216.1,57.2,217.3,55.9,218.6,54.8c0.3-0.4,0.6-0.7,1-1c-0.2-0.1-0.3-0.2-0.5-0.4
				C219,53.9,218.8,54.3,218.6,54.8z M68.3,98.3c8.5-0.7,16.1-2.4,23.6-4.6c5.3-1.5,10.6-3.3,15.9-5.3c8.9-3.3,17.5-7.1,25.1-12.9
				c4.3-3.3,8.3-7,11.1-11.9c2.5-4.3-0.5-7-3.8-7.4c-5.5-0.7-11.1-0.1-16.3,1.8c-8.1,2.9-15.3,7.4-22.4,12.2
				c-11.1,7.5-20.9,16.6-30.9,25.4C69.8,96.3,69.3,97.1,68.3,98.3z M68.5,150.1c0,0.1,0,0.2,0,0.2c0.5,0,1,0,1.5,0
				c0-0.1,0-0.2,0-0.2C69.5,150.1,69,150.1,68.5,150.1z M187.8,53.6c-0.1,0-0.2-0.1-0.3-0.1c0.1,0.1,0.1,0.2,0.2,0.3
				C187.7,53.8,187.8,53.7,187.8,53.6z"/>
			<polygon points="32.8,136.4 32.7,136.1 33,136.1 			"/>
			<path class="st0" d="M68.5,150.1c0.5,0,1,0,1.5,0c0,0.1,0,0.2,0,0.2c-0.5,0-1,0-1.5,0C68.4,150.2,68.4,150.2,68.5,150.1z"/>
			<path class="st0" d="M218.6,54.8c0.2-0.4,0.3-0.9,0.5-1.3c0.2,0.1,0.3,0.2,0.5,0.4C219.3,54.1,218.9,54.4,218.6,54.8
				C218.6,54.7,218.6,54.8,218.6,54.8z"/>
			<path class="st0" d="M187.8,53.6c0,0.1-0.1,0.1-0.1,0.2c-0.1-0.1-0.1-0.2-0.2-0.3C187.6,53.6,187.7,53.6,187.8,53.6z"/>
		</g>
	</g>
</g>
</svg>
