<?xml version="1.0" encoding="utf-8"?>
<!-- Generator: Adobe Illustrator 25.2.1, SVG Export Plug-In . SVG Version: 6.00 Build 0)  -->
<svg version="1.1" id="Camada_1" xmlns="http://www.w3.org/2000/svg" xmlns:xlink="http://www.w3.org/1999/xlink" x="0px" y="0px"
	 viewBox="0 0 247.2 202.1" style="enable-background:new 0 0 247.2 202.1;" xml:space="preserve">
<style type="text/css">
	.st0{fill:#9C6AA1;}
	.st1{fill:#3A3A3A;}
</style>
<g>
	<path class="st0" d="M67.4,86.4c-5.7,0-11.5,0-17.2,0c-1.4,0-2.2-0.3-2.7-1.8c-1.5-4-5.7-6.4-9.7-5.9c-4.6,0.5-7.7,3.5-8.5,8
		c-0.1,0.7-0.3,1.5-0.5,2.4C28.4,89,28.2,89,28,88.9C18.3,83,11.7,74.6,8.6,63.6c-0.3-1.2-0.7-2.3-2.2-2.4c-1.3-0.1-2,0.8-2.3,1.9
		c-4.3,14.2-2.1,27.2,6.8,39.1c0.9,1.1,2,2,2.7,3.5c-1,0.8-1.9,1.7-2.8,2.5c-8.6,7.6-11.3,20.6-6.4,31c0.5,1.1,1.2,2,2.4,1.8
		c1.3-0.1,1.7-1.1,1.9-2.3c1.5-8,5.3-11.9,13.3-13.5c14.3-3,20.5-20.3,11.3-31.7c-0.5-0.6-1-1.2-0.8-2c0.3-1.6,0.6-3.3,1.1-4.8
		c0.7-2.2,3-3.7,5.2-3.7c2.3,0,4.2,1.5,5,3.7c0.4,1,0.3,1.7-0.8,2.4c-1.8,1.2-3.2,2.9-4.1,4.8c-0.6,1.2-0.5,2.5,0.9,3.2
		c1.4,0.6,2.2-0.2,2.8-1.3c1.7-3.6,4.6-5.1,8.5-5c5.5,0,10.9,0,16.4,0c1.5,0,2.9-0.2,2.9-2.1C70.3,86.6,68.9,86.4,67.4,86.4z
		 M9,91.3c-2.8-6.5-3.6-13.2-2.7-20.1c0-0.2,0.2-0.3,0.4-0.6c4.4,9.8,11.4,17.3,20.7,22.5c-1.9,4.4-4.9,7.5-8.7,9.9
		c-1.2,0.7-1.8,0-2.5-0.7C13.3,99,10.8,95.4,9,91.3z M33.5,107.6C32.8,114,28.2,119.3,22,121c-9.5,2.6-9.7,2.7-15.7,10.7
		c-1.1-8.7,1.5-15.8,8.1-21.3c2.4-2.1,2.5-2,5.1-0.1c1.2,0.8,2.4,1.5,3.7,2.2c1,0.6,2.1,0.4,2.7-0.6s0.3-2-0.6-2.5
		c-1-0.6-1.6-1.7-2.9-2c-1.4-0.4-0.9-1.4-0.3-1.8c3.4-2.4,6-5.4,8.2-9.1C33.2,99.8,33.9,103.5,33.5,107.6z"/>
	<path class="st1" d="M58.1,102.5c-2.8-0.1-5.7,0-8.5,0c-0.7,0-1.6-0.2-1.8,1.2c3.1,0.1,2.4,2.4,2.4,4.3c0,6.6,0.1,13.1,0,19.7
		c0,2.5,1.2,5.6-2.2,7.2h10.3c-0.1-1-0.7-0.9-1.3-1c-1.6-0.2-2.2-1.1-2.2-2.7c0-2.5,0.1-5,0-7.4c0-1.4,0.6-1.9,1.8-1.9
		c0.6,0,1.2,0,1.9,0c5.8-0.4,8.7-4.2,8.7-11.1C67.2,106.2,62.7,102.6,58.1,102.5z M60.9,118c-0.5,1.3-1.5,2.1-2.8,2.5
		c-2.4,0.7-3.3,0-3.3-2.5v-5.8c0-2,0-4,0-6c0-1.7,0.6-2.3,2.3-2.3c2.2,0.1,3.5,1,4.2,3C62.7,110.7,62.4,114.4,60.9,118z"/>
	<path class="st1" d="M152.7,134.9c1.8-1.2,1.4-3.1,1.4-4.7c0-4.1,0-8.1,0-12.2c0-1.5-0.1-3.1-1.9-3.5c-1.7-0.3-2.8,1-3.4,2.5
		c-0.7,1.6-1.1,3.2-1.1,5c0.1,3,0,5.9,0,8.9c0,1.4-0.2,2.8,1.2,4c-2.4,0-4.8,0-7.6,0c2-1.5,1.6-3.4,1.6-5.2c0-4.1,0-8.3,0-12.4
		c0-1.4,0.2-2.9-1.4-3.8c3.1-1.8,5.6-0.7,6,2.5c0.7-0.8,1.3-1.5,1.9-2.2c1.7-1.9,3.9-1.8,5.9-1.2c2,0.7,3.1,2.4,3.1,4.6
		c0,3.9,0,7.9,0,11.8c0,2-0.5,4.1,2.2,5.8C157.7,134.9,155.2,134.9,152.7,134.9z"/>
	<path class="st1" d="M179.9,133c-0.6-0.6-1.3,0.4-1.9-0.5c0-4.3,0-8.9,0-13.4c0-3.6-1.1-5.3-4.5-6.4c-2-0.6-4.1-0.6-6.1,0
		c-2.8,0.8-4.5,3.8-4,6.4c0.2,1.3,0.8,2.2,2.1,2.4c0.9,0.1,1.6-0.3,2-1.1c0.8-1.3,0-2.1-0.9-2.8c-1-1-1-2,0.1-2.8
		c1.4-1.1,3-1.4,4.6-0.6c1.5,0.7,2.1,1.9,2.1,3.5c0,1.2-0.1,2.5,0,3.7c0.1,1.3-0.5,1.9-1.8,1.8c-1.6-0.1-3.2,0.3-4.6,0.9
		c-3.5,1.3-4.8,4.2-3.8,7.8c0.7,2.6,3.5,4.1,6.6,3.7c1.5-0.2,2.5-1.3,3.8-2.2c2.3,2.4,4.3,2.8,5.8,1.3
		C180,134.1,180.4,133.6,179.9,133z M173.5,127.2c0.2,1.8-0.1,3.2-0.7,4.5c-0.7,1.3-1.7,1.9-3.2,1.8c-1.6-0.1-1.8-1.2-2-2.4
		c-0.6-2.6,0.3-5.1,2.1-6.2c1.1-0.6,2.3-0.9,3.3-0.4C174.1,125.1,173.3,126.5,173.5,127.2z"/>
	<path class="st1" d="M138.1,118c-1.1-3.6-4.1-6-7.8-6c-3.3,0-5.4,2-6.7,4.9c-2.3,5.1-2,10.1,0.8,15c2.1,3.7,7.1,4.7,10.5,2.2
		c3.5-2.6,3.9-6.4,4.2-10.2C139.2,121.9,138.7,119.9,138.1,118z M133.3,132c-0.6,1.1-1.2,2.1-2.5,2.2c-1.4,0.1-2.2-0.9-2.8-2.1
		c-0.7-1.3-0.9-2.8-1-4.2c-0.3-3.7-0.5-7.4,0.6-11.1c0.5-1.6,1.2-3.1,3.1-3.2c1.8-0.1,2.4,1.5,3.1,2.9c1.2,2.7,0.1,5.6,0.9,8.3
		C134,127.3,134.4,129.7,133.3,132z"/>
	<path class="st1" d="M112.3,112.4c4.6,0,7.1,2.7,6.5,6.8c-0.1,1-0.8,1.4-1.5,1.8c-0.8,0.3-1.5,0-2.1-0.5c-0.7-0.6-0.6-1.5-0.3-2.3
		c0.5-1,1.9-1.9,0.6-3.2c-1.4-1.3-3.1-1.1-4.7-0.7c-2.6,0.8-3.1,4-1,5.7c1.5,1.3,3.4,2.1,5.2,3c3.8,2,5.1,4.7,3.9,8.2
		c-1.1,3.1-4.8,4.9-8.5,4.3c-4.5-0.8-6-4.1-5.5-6.7c0.2-1.2,1-2,2.2-2.2c1.1-0.1,1.6,0.7,2,1.5c0.4,0.9-0.3,1.6-0.7,2.3
		c-1.1,1.9-0.9,2.4,1.1,3.2c1.3,0.5,2.5,0.7,3.8,0.1c2.6-1.2,3.1-3.9,1-5.9c-1.4-1.4-3.3-1.9-5-2.9c-3.5-1.9-4.8-4.6-3.9-7.9
		C106.3,113.8,108.5,112.3,112.3,112.4z"/>
	<path class="st1" d="M237.8,123.9c2.3,0,4.7-0.1,7,0c2,0.1,2.6-0.8,2.3-2.6c-0.2-1.8-0.5-3.6-1.3-5.2c-1.1-2.1-2.8-3.6-5.3-3.8
		c-2.8-0.3-5.5,0.3-7.2,2.7c-3,4.1-3.3,12.7-0.1,17.1c3.1,4.3,9.2,4.6,12.2,0.3c0.8-1.1,1.9-2.5,0.5-4.6c-0.8,1.6-1.4,2.8-2,3.9
		c-0.8,1.5-2.1,2.2-3.7,2.1c-1.6-0.1-2.8-1.1-3.4-2.6c-0.8-1.7-0.9-3.6-0.9-5.5C235.9,124.4,236.5,123.9,237.8,123.9z M235.6,120.7
		c0.1-1.9,0.5-3.8,1.4-5.5c1-2,3.2-2.1,4.4-0.2c1.3,2.1,1.3,4.5,1.3,6.9c0,0.6-0.5,0.8-1,0.8c-0.8,0-1.6,0-2.5,0l0,0
		c-0.5,0-1.1,0-1.6,0C236,122.8,235.5,122.1,235.6,120.7z"/>
	<path class="st1" d="M74.7,124c1.7,0,3.4,0,5.2,0c5,0,4.9,0.5,4.2-4.9c-0.5-3.2-3-6.3-5.7-6.7c-3.4-0.5-6.9,0.5-8.7,4.3
		c-1.8,3.6-1.6,7.4-1,11.1c0.9,5.2,4.4,7.8,8.8,7.6c3.7-0.2,6.9-4,6-7.4c-1.1,0.6-1.2,1.7-1.6,2.5c-0.9,1.7-2.1,3.2-4.2,3.2
		c-2.1-0.1-3.3-1.5-3.8-3.4c-0.4-1.4-0.6-2.8-0.9-4.2C72.7,124.7,73.3,124,74.7,124z M72.9,119c0.1-1.5,0.6-2.8,1.4-4
		c1.2-1.8,3.3-1.7,4.3,0.2c1,2,1.4,4.2,1.3,6.4c0,0.9-0.5,1.2-1.3,1.2s-1.5,0-2.3,0C72.6,122.7,72.6,122.7,72.9,119z"/>
	<path class="st1" d="M189.9,134.9c-2.5,0-5,0-8.3,0c2.9-1.8,2.2-4.1,2.3-6.2c0-7.4,0.1-14.9,0-22.3c0-2.3,1-5-1.9-6.8
		c2.1-0.8,3.8-0.5,5.4-0.4c1.3,0.1,1,1.3,1,2.1c0,8.1,0,16.3,0,24.4c0,1.7,0,3.4,0,5.2c0,1.5-0.1,2.9,1.9,3.5
		C190.1,134.5,190,134.7,189.9,134.9z"/>
	<path class="st1" d="M95.6,135c-2.9,0.2-5.7,0.2-8.9,0c2.1-2.2,1.8-4.5,1.7-6.8c-0.2-3.6-0.1-7.3-0.1-10.9c0-1.4,0.4-3-1.6-4
		c2-0.7,3.7-0.4,5.3-0.3c0.8,0.9,0,2,0.9,3c0.5-0.6,0.9-1.1,1.3-1.6c1.5-1.8,4.1-2.4,6.1-1.4c1.6,0.9,2.5,3.3,1.9,5.5
		c-0.3,1.2-1.3,1.8-2.4,2.1c-1,0.3-1.8-0.4-2.2-1.1c-0.6-1-0.4-2,0.4-2.8c0.6-0.7,1-1.4,0.2-2.2c-0.7-0.7-1.5-0.2-2.1,0.2
		c-1,0.7-1.8,1.7-2.2,2.9c-1.3,4.9-0.7,10-0.9,15c0,0.7,0.4,0.9,0.9,1.2c0.5,0.2,1.1,0.1,1.4,0.7C95.5,134.4,95.5,134.5,95.6,135z"
		/>
	<path class="st1" d="M228.9,130.2c-0.1,1.8-0.4,3.4-1.9,4.3c-2.2,1.3-5,1.3-6.6-0.1c-1.3-1.1-2.1-2.5-2.1-4.3c0-4.3-0.1-8.5,0-12.8
		c0-1.6,0-3-1.6-3.7c0-0.6,0.2-1,0.5-1c3.1-0.4,3.7-2.6,4-5.2c0.1-0.6-0.1-1.6,0.9-1.5c0.8,0.1,0.6,0.9,0.6,1.5c0,0.9,0.1,1.8,0,2.7
		c-0.3,2.1,0.8,2.7,2.7,2.6c1,0,2.2-0.3,3.3,0.5c-1.1,1.2-2.4,0.7-3.5,0.7c-1.9-0.1-2.5,0.6-2.5,2.5c0.1,4.5,0,9,0,13.4
		c0,1,0.1,1.9,0.8,2.6c1.3,1.3,2.5,1.2,3.5-0.5C227.5,131.4,227.3,130.3,228.9,130.2z"/>
	<path class="st1" d="M214.2,130.3c0.3,2.3-0.9,4.1-3.4,4.9c-2.2,0.8-4.9-0.1-6.1-2.1c-0.6-1-0.9-2.1-0.9-3.3c0-4.2,0-8.4,0-12.6
		c0-1.4-0.1-2.9-2.1-3.9c3.8-1.3,5.8-3.5,5-7.1c1-0.5,1.3-0.1,1.5,0.5c0.1,0.2,0,0.4,0.1,0.6c0.2,1.7-0.7,3.7,0.5,5s3.1,0.3,4.7,0.6
		c0.4,0.1,0.6,0.3,0.8,0.8c-1.3,0.8-2.7,0.4-4.1,0.4c-1.4,0-2,0.5-2,1.9c0.1,4.7,0,9.4,0,14.1c0,1.6,0.4,3.1,2,3.4
		c1.6,0.3,2.3-0.9,2.7-2.3C213.1,130.6,213.4,130.2,214.2,130.3z"/>
	<path class="st1" d="M191.6,113.3c2.3-0.8,4-0.5,5.7-0.4c1.1,0.1,1,1.1,1,1.9c0,5.1,0,10.2,0,15.3c0,1.7-0.6,3.6,2.1,4.3
		c-0.2,0.1-0.3,0.3-0.5,0.5c-2.5,0-5,0-7.5,0c0-0.1-0.1-0.3-0.1-0.3c2-1.5,1.5-3.6,1.5-5.6c0-3.8,0-7.6,0-11.4
		C193.8,115.9,193.9,114.4,191.6,113.3z"/>
	<path class="st1" d="M235.2,109.3c0.4-1.3,1.6-1.4,2.5-1.9c1.5-0.9,3-1.7,4.5-2.4c0.8-0.3,2-0.4,2.4,0.9c0.3,1.2-0.3,1.7-1.4,2
		c-2.3,0.6-4.5,1.2-6.7,1.8C236.1,109.8,235.7,109.9,235.2,109.3z"/>
	<path class="st1" d="M196.1,107.3c-1.2,0-2.8-1.5-2.6-2.7c0.2-1.3,1-2.3,2.4-2.4c1.5-0.1,2.4,1,2.7,2.3
		C198.9,105.6,197.3,107.2,196.1,107.3z"/>
</g>
</svg>
