<?xml version="1.0" encoding="utf-8"?>
<!-- Generator: Adobe Illustrator 25.2.1, SVG Export Plug-In . SVG Version: 6.00 Build 0)  -->
<svg version="1.1" xmlns="http://www.w3.org/2000/svg" xmlns:xlink="http://www.w3.org/1999/xlink" x="0px" y="0px"
	 viewBox="0 0 253.2 209.2" style="enable-background:new 0 0 253.2 209.2;" xml:space="preserve">
<style type="text/css">
	.st0{fill:#29BF92;}
	.st1{fill:#FF1735;}
	.st2{fill:#946CA4;}
	.st3{fill:#FFBB00;}
	.st4{fill:#FEFEFE;}
</style>
<g id="Camada_2">
</g>
<g id="Camada_3">
</g>
<g id="Camada_4">
</g>
<g id="Camada_5">
</g>
<g id="Camada_1">
	<path class="st0" d="M221.4,133.5H79.9c-2,0-3.6-1.6-3.6-3.6V80.2c0-2,1.6-3.6,3.6-3.6h141.5c15.7,0,28.5,12.7,28.5,28.5v0
		C249.9,120.7,237.1,133.5,221.4,133.5z"/>
	<g>
		<path class="st0" d="M20.8,67.5c-0.8,0-1.6-0.2-2.4-0.5s-1.4-0.8-1.9-1.3c-0.6-0.6-1-1.2-1.3-2c-0.3-0.8-0.5-1.6-0.5-2.5
			c0-0.9,0.2-1.7,0.5-2.4c0.3-0.8,0.7-1.4,1.3-2c0.6-0.6,1.2-1,1.9-1.3c0.7-0.3,1.5-0.5,2.4-0.5c0.8,0,1.4,0.1,2.1,0.3
			s1.2,0.6,1.8,1c0.1,0.1,0.2,0.2,0.2,0.2c0,0.1,0,0.2,0,0.3c0,0.1-0.1,0.2-0.1,0.2c0,0.1-0.1,0.2-0.2,0.3c-0.1,0.1-0.2,0.1-0.4,0.1
			s-0.3-0.1-0.4-0.2c-0.4-0.4-0.8-0.6-1.3-0.8c-0.5-0.2-1-0.3-1.7-0.3c-0.7,0-1.3,0.1-1.9,0.4s-1.1,0.6-1.5,1.1s-0.8,1-1,1.6
			S16,60.6,16,61.2c0,0.7,0.1,1.4,0.4,2c0.2,0.6,0.6,1.1,1,1.6s0.9,0.8,1.5,1.1s1.2,0.4,1.9,0.4c0.6,0,1.1-0.1,1.6-0.3
			c0.5-0.2,1-0.5,1.4-0.8c0.1-0.1,0.3-0.2,0.4-0.1c0.2,0,0.3,0.1,0.4,0.2c0.1,0.1,0.2,0.3,0.2,0.4c0,0.1,0,0.2,0,0.3
			c0,0.1-0.1,0.2-0.1,0.2c-0.5,0.5-1.1,0.8-1.8,1C22.2,67.4,21.5,67.5,20.8,67.5z"/>
		<path class="st0" d="M28.9,67.4c-0.4,0-0.8-0.1-1.2-0.4c-0.3-0.2-0.6-0.6-0.8-1c-0.2-0.4-0.3-0.9-0.3-1.4v-8.8
			c0-0.2,0.1-0.4,0.2-0.5c0.1-0.1,0.3-0.2,0.5-0.2c0.2,0,0.3,0.1,0.5,0.2s0.2,0.3,0.2,0.5v8.8c0,0.4,0.1,0.8,0.3,1.1
			c0.2,0.3,0.4,0.4,0.7,0.4h0.4c0.2,0,0.3,0.1,0.4,0.2c0.1,0.1,0.2,0.3,0.2,0.5c0,0.2-0.1,0.4-0.2,0.5s-0.3,0.2-0.6,0.2H28.9z"/>
		<path class="st0" d="M32.2,57.5c-0.2,0-0.3-0.1-0.5-0.2c-0.1-0.1-0.2-0.3-0.2-0.5c0-0.2,0-0.3,0.1-0.5l1.7-1.7
			c0.1-0.1,0.3-0.2,0.5-0.2s0.3,0.1,0.5,0.2c0.1,0.1,0.2,0.3,0.2,0.5c0,0.1,0,0.2,0,0.2c0,0.1-0.1,0.1-0.1,0.2l-1.7,1.7
			C32.5,57.4,32.4,57.5,32.2,57.5z M32.3,67.4c-0.2,0-0.4-0.1-0.5-0.2s-0.2-0.3-0.2-0.5v-7.2c0-0.2,0.1-0.4,0.2-0.5s0.3-0.2,0.5-0.2
			c0.2,0,0.4,0.1,0.5,0.2c0.1,0.1,0.2,0.3,0.2,0.5v7.2c0,0.2-0.1,0.4-0.2,0.5C32.6,67.3,32.5,67.4,32.3,67.4z"/>
		<path class="st0" d="M36.5,67.4c-0.2,0-0.4-0.1-0.5-0.2c-0.1-0.1-0.2-0.3-0.2-0.5v-7.2c0-0.2,0.1-0.4,0.2-0.5
			c0.1-0.1,0.3-0.2,0.5-0.2c0.2,0,0.4,0.1,0.5,0.2s0.2,0.3,0.2,0.5v7.2c0,0.2-0.1,0.4-0.2,0.5S36.7,67.4,36.5,67.4z M43.2,67.4
			c-0.2,0-0.4-0.1-0.5-0.2c-0.1-0.1-0.2-0.3-0.2-0.5v-4c0-0.6-0.1-1.2-0.4-1.6c-0.2-0.4-0.6-0.7-1-0.9c-0.4-0.2-0.9-0.3-1.4-0.3
			c-0.5,0-0.9,0.1-1.3,0.3s-0.7,0.5-0.9,0.8c-0.2,0.3-0.3,0.7-0.3,1.1h-0.9c0-0.7,0.2-1.2,0.5-1.8c0.3-0.5,0.8-0.9,1.3-1.2
			c0.6-0.3,1.2-0.5,1.8-0.5c0.7,0,1.4,0.2,2,0.5c0.6,0.3,1,0.8,1.4,1.4c0.3,0.6,0.5,1.3,0.5,2.2v4c0,0.2-0.1,0.3-0.2,0.5
			S43.3,67.4,43.2,67.4z"/>
		<path class="st0" d="M47.2,57.2c-0.3,0-0.5-0.1-0.6-0.3c-0.2-0.2-0.3-0.4-0.3-0.7c0-0.3,0.1-0.5,0.3-0.6c0.2-0.2,0.4-0.3,0.6-0.3
			c0.2,0,0.5,0.1,0.6,0.3c0.2,0.2,0.3,0.4,0.3,0.6c0,0.3-0.1,0.5-0.3,0.7C47.7,57.2,47.4,57.2,47.2,57.2z M47.2,67.4
			c-0.2,0-0.4-0.1-0.5-0.2s-0.2-0.3-0.2-0.5v-7.2c0-0.2,0.1-0.4,0.2-0.5s0.3-0.2,0.5-0.2c0.2,0,0.4,0.1,0.5,0.2
			c0.1,0.1,0.2,0.3,0.2,0.5v7.2c0,0.2-0.1,0.4-0.2,0.5C47.6,67.3,47.4,67.4,47.2,67.4z"/>
		<path class="st0" d="M54.6,67.4c-0.8,0-1.6-0.2-2.2-0.6s-1.2-0.9-1.5-1.6c-0.4-0.7-0.6-1.4-0.6-2.2c0-0.8,0.2-1.6,0.5-2.2
			c0.4-0.7,0.9-1.2,1.5-1.6c0.6-0.4,1.3-0.6,2.2-0.6c0.6,0,1.2,0.1,1.7,0.4c0.5,0.2,1,0.6,1.4,1.1c0.1,0.1,0.2,0.3,0.1,0.4
			c0,0.2-0.1,0.3-0.3,0.4c-0.1,0.1-0.3,0.1-0.4,0.1c-0.2,0-0.3-0.1-0.4-0.2c-0.6-0.6-1.3-1-2.2-1c-0.6,0-1.1,0.1-1.5,0.4
			c-0.4,0.3-0.8,0.6-1,1.1c-0.2,0.5-0.4,1-0.4,1.7c0,0.6,0.1,1.1,0.4,1.6c0.3,0.5,0.6,0.9,1.1,1.1s1,0.4,1.6,0.4
			c0.4,0,0.8-0.1,1.1-0.2c0.3-0.1,0.6-0.3,0.9-0.5c0.1-0.1,0.3-0.2,0.4-0.2s0.3,0,0.4,0.1c0.1,0.1,0.2,0.3,0.2,0.4
			c0,0.2,0,0.3-0.2,0.4C56.7,67.1,55.7,67.4,54.6,67.4z"/>
		<path class="st0" d="M63.7,67.4c-0.8,0-1.5-0.2-2.1-0.6s-1.1-0.9-1.5-1.6c-0.4-0.7-0.5-1.4-0.5-2.2c0-0.8,0.2-1.6,0.6-2.2
			c0.4-0.7,0.9-1.2,1.6-1.6c0.7-0.4,1.4-0.6,2.2-0.6c0.8,0,1.5,0.2,2.2,0.6c0.7,0.4,1.2,0.9,1.6,1.6c0.4,0.7,0.6,1.4,0.6,2.2
			l-0.5,0.3c0,0.8-0.2,1.5-0.5,2.1c-0.4,0.6-0.8,1.1-1.4,1.5C65.1,67.3,64.4,67.4,63.7,67.4z M63.9,66.3c0.6,0,1.1-0.1,1.6-0.4
			s0.8-0.7,1.1-1.1c0.3-0.5,0.4-1,0.4-1.6c0-0.6-0.1-1.1-0.4-1.6c-0.3-0.5-0.6-0.9-1.1-1.1s-1-0.4-1.6-0.4c-0.6,0-1.1,0.1-1.6,0.4
			s-0.8,0.7-1.1,1.1c-0.3,0.5-0.4,1-0.4,1.6c0,0.6,0.1,1.1,0.4,1.6c0.3,0.5,0.6,0.9,1.1,1.1S63.3,66.3,63.9,66.3z M67.5,67.4
			c-0.2,0-0.3-0.1-0.5-0.2s-0.2-0.3-0.2-0.5v-2.6l0.3-1.4l1.1,0.3v3.6c0,0.2-0.1,0.4-0.2,0.5S67.7,67.4,67.5,67.4z"/>
	</g>
	<path class="st1" d="M84.5,177.1v-19.4V145c0-2.3-1.8-4.1-4.1-4.1h0c-2.3,0-4.1,1.8-4.1,4.1v32.6c0,7.8,3.1,14.8,8.2,20
		c5.2,5.2,12.3,8.5,20.3,8.5c7.9,0,15.1-3.2,20.3-8.5c5.1-5.1,8.2-12.2,8.2-20V145c0-2.3-1.8-4.1-4.1-4.1h0c-2.3,0-4.1,1.8-4.1,4.1
		v12.7v20c0,11.4-9.4,20.6-21,20.2C93,197.5,84.5,188.1,84.5,177.1z"/>
	<path class="st2" d="M125,32.1l0,19.4l0,12.7c0,2.3,1.8,4.1,4.1,4.1h0c2.3,0,4.1-1.8,4.1-4.1V31.6c0-7.8-3.1-14.8-8.2-20
		c-5.2-5.2-12.3-8.5-20.3-8.5c-7.9,0-15.1,3.2-20.3,8.5c-5.1,5.1-8.2,12.2-8.2,20l0,32.6c0,2.3,1.8,4.1,4.1,4.1h0
		c2.3,0,4.1-1.8,4.1-4.1V51.5l0-20c0-11.4,9.4-20.6,21-20.2C116.4,11.7,125,21.1,125,32.1z"/>
	<path class="st3" d="M32.3,84.4h19.4h12.7c2.3,0,4.1-1.8,4.1-4.1v0c0-2.3-1.8-4.1-4.1-4.1H31.8c-7.8,0-14.8,3.1-20,8.2
		c-5.2,5.2-8.5,12.3-8.5,20.3c0,7.9,3.2,15.1,8.5,20.3c5.1,5.1,12.2,8.2,20,8.2h32.6c2.3,0,4.1-1.8,4.1-4.1l0,0
		c0-2.3-1.8-4.1-4.1-4.1H51.7h-20c-11.4,0-20.6-9.4-20.2-21C11.9,93,21.3,84.4,32.3,84.4z"/>
	<g>
		<path class="st4" d="M92.7,86.6c-0.5,0-0.9-0.2-1.3-0.5c-0.4-0.4-0.5-0.8-0.5-1.3c0-0.6,0.2-1,0.6-1.3c0.4-0.3,0.8-0.5,1.3-0.5
			c0.5,0,0.9,0.2,1.3,0.5c0.4,0.3,0.6,0.8,0.6,1.3c0,0.5-0.2,1-0.5,1.3C93.6,86.4,93.2,86.6,92.7,86.6z M92.7,113.3
			c-0.6,0-1-0.2-1.3-0.5s-0.5-0.8-0.5-1.3V89.9c0-0.6,0.2-1,0.5-1.3c0.3-0.3,0.8-0.5,1.3-0.5c0.5,0,0.9,0.2,1.3,0.5
			c0.3,0.3,0.5,0.8,0.5,1.3v21.6c0,0.6-0.2,1-0.5,1.3S93.2,113.3,92.7,113.3z"/>
		<path class="st4" d="M212.5,93.4c-1.2-2-2.7-3.5-4.7-4.7c-2-1.1-4.2-1.7-6.7-1.7c-2.5,0-4.7,0.6-6.7,1.7c-2,1.1-3.5,2.7-4.7,4.7
			c-1.1,2-1.7,4.2-1.7,6.8c0,2.5,0.6,4.7,1.7,6.7c1.1,2,2.6,3.5,4.6,4.7c1.9,1.2,4.1,1.7,6.5,1.7c2.3,0,4.4-0.5,6.2-1.6
			c0.1,0,0.7-0.4,0.8-0.5l0,0c0.7-0.4,0.9-1.3,0.5-2c-0.2-0.4-0.6-0.7-1-0.8c-0.3-0.1-0.7,0-1,0.1c0,0,0,0-0.1,0c0,0,0,0,0,0
			c-1.4,0.8-3.1,1.3-4.9,1.3c-1.8,0-3.4-0.4-4.9-1.3c-1.4-0.8-2.6-2-3.4-3.5c-0.8-1.5-1.3-3.2-1.3-5c0-1.9,0.4-3.6,1.3-5.1
			c0.9-1.5,2-2.7,3.4-3.5c1.4-0.9,3.1-1.3,4.9-1.3c1.8,0,3.5,0.4,4.9,1.3c1.4,0.9,2.6,2,3.4,3.5c0.6,1.1,1,2.3,1.2,3.6v9.7v2.9
			c0,0.2,0,0.4,0.1,0.6c0.1,0.3,0.2,0.5,0.4,0.7c0.3,0.3,0.8,0.5,1.3,0.5c0.5,0,1-0.2,1.3-0.5c0.3-0.3,0.5-0.8,0.5-1.3v-11.1
			C214.3,97.7,213.7,95.4,212.5,93.4z"/>
		<path class="st4" d="M178.5,90.3c-2-1.9-4.8-3.2-7.9-3.2s-5.8,1.2-7.9,3.2c-0.7,0.6-1.3,1.4-1.8,2.2c-0.5-0.8-1.1-1.5-1.8-2.2
			c-2-2-4.8-3.2-7.9-3.2c-3.1,0-5.8,1.2-7.9,3.2c-0.7,0.6-1.3,1.4-1.8,2.2c-0.5-0.8-1.1-1.5-1.8-2.2c-2-2-4.8-3.2-7.9-3.2
			s-5.8,1.2-7.9,3.2c-0.7,0.6-1.3,1.4-1.8,2.2c-0.5-0.8-1.1-1.5-1.8-2.2c-2-2-4.8-3.2-7.9-3.2s-5.8,1.2-7.9,3.2
			c-2.2,2.1-3.5,5-3.5,8.3v13c0,0.6,0.2,1,0.5,1.3s0.8,0.5,1.3,0.5c0.5,0,0.9-0.2,1.3-0.5s0.5-0.8,0.5-1.3v-4.8v-8.3
			c0-4.3,3.5-7.9,7.9-7.9s7.9,3.5,7.9,7.9v8.3v4.8c0,0.6,0.2,1,0.5,1.3s0.8,0.5,1.3,0.5c0.5,0,0.9-0.2,1.3-0.5s0.5-0.8,0.5-1.3v-4.8
			v-7.3v-0.9v-0.9c0.5-3.9,3.8-7,7.8-7c4.4,0,7.9,3.5,7.9,7.9v8.3v4.8c0,0.6,0.2,1,0.5,1.3s0.8,0.5,1.3,0.5c0.5,0,0.9-0.2,1.3-0.5
			s0.5-0.8,0.5-1.3v-4.8v-7.3v-0.9v-0.9c0.5-3.9,3.8-7,7.8-7c4.4,0,7.9,3.5,7.9,7.9v8.3v4.8c0,0.6,0.2,1,0.5,1.3s0.8,0.5,1.3,0.5
			c0.5,0,0.9-0.2,1.3-0.5s0.5-0.8,0.5-1.3v-4.8v-7.3v-0.9v-0.9c0.5-3.9,3.8-7,7.8-7c4.4,0,7.9,3.5,7.9,7.9v8.2v4.8
			c0,0.6,0.2,1,0.5,1.3s0.8,0.5,1.3,0.5c0.5,0,0.9-0.2,1.3-0.5s0.5-0.8,0.5-1.3v-13C182,95.3,180.6,92.3,178.5,90.3z"/>
	</g>
	<g>
		<path class="st4" d="M91.4,127.3c-0.2,0-0.3-0.1-0.5-0.2c-0.1-0.1-0.2-0.3-0.2-0.4v-7.5c0-0.2,0.1-0.3,0.2-0.4
			c0.1-0.1,0.3-0.2,0.5-0.2c0.2,0,0.3,0.1,0.4,0.2c0.1,0.1,0.2,0.3,0.2,0.4v7.5c0,0.2-0.1,0.3-0.2,0.4
			C91.8,127.2,91.6,127.3,91.4,127.3z M97,127.3c-0.2,0-0.3-0.1-0.4-0.2c-0.1-0.1-0.2-0.3-0.2-0.4v-4.6c0-0.8-0.2-1.4-0.6-1.8
			c-0.4-0.4-0.9-0.7-1.5-0.7c-0.7,0-1.2,0.2-1.6,0.6c-0.4,0.4-0.6,1-0.6,1.7h-0.9c0-0.7,0.2-1.3,0.5-1.8c0.3-0.5,0.7-0.9,1.2-1.2
			c0.5-0.3,1-0.4,1.7-0.4c0.6,0,1.2,0.1,1.7,0.4c0.5,0.3,0.9,0.7,1.1,1.3s0.4,1.2,0.4,1.9v4.6c0,0.2-0.1,0.3-0.2,0.4
			C97.4,127.2,97.2,127.3,97,127.3z M102.6,127.3c-0.2,0-0.3-0.1-0.4-0.2s-0.2-0.3-0.2-0.4v-4.6c0-0.8-0.2-1.4-0.6-1.8
			c-0.4-0.4-0.9-0.7-1.5-0.7c-0.7,0-1.2,0.2-1.6,0.7c-0.4,0.4-0.6,1-0.6,1.8h-1.1c0-0.7,0.2-1.3,0.5-1.9c0.3-0.5,0.7-1,1.2-1.3
			c0.5-0.3,1.1-0.4,1.8-0.4c0.6,0,1.2,0.1,1.7,0.4c0.5,0.3,0.9,0.7,1.1,1.3s0.4,1.2,0.4,1.9v4.6c0,0.2-0.1,0.3-0.2,0.4
			C103,127.2,102.8,127.3,102.6,127.3z"/>
		<path class="st4" d="M110.7,127.4c-0.9,0-1.6-0.2-2.3-0.6c-0.7-0.4-1.2-0.9-1.6-1.6c-0.4-0.7-0.6-1.4-0.6-2.3
			c0-0.9,0.2-1.6,0.6-2.3c0.4-0.7,0.9-1.2,1.6-1.6c0.7-0.4,1.4-0.6,2.3-0.6s1.6,0.2,2.3,0.6c0.7,0.4,1.2,0.9,1.6,1.6
			c0.4,0.7,0.6,1.4,0.6,2.3c0,0.9-0.2,1.6-0.6,2.3c-0.4,0.7-0.9,1.2-1.6,1.6C112.3,127.2,111.6,127.4,110.7,127.4z M110.7,126.2
			c0.6,0,1.2-0.1,1.7-0.4s0.9-0.7,1.2-1.2c0.3-0.5,0.4-1.1,0.4-1.7c0-0.6-0.1-1.2-0.4-1.7c-0.3-0.5-0.7-0.9-1.2-1.2s-1-0.4-1.7-0.4
			s-1.2,0.1-1.7,0.4s-0.9,0.7-1.2,1.2c-0.3,0.5-0.4,1.1-0.4,1.7c0,0.6,0.1,1.2,0.4,1.7c0.3,0.5,0.7,0.9,1.2,1.2
			S110.1,126.2,110.7,126.2z"/>
		<path class="st4" d="M118.9,127.3c-0.2,0-0.3-0.1-0.5-0.2c-0.1-0.1-0.2-0.3-0.2-0.4v-7.5c0-0.2,0.1-0.3,0.2-0.5
			c0.1-0.1,0.3-0.2,0.5-0.2c0.2,0,0.3,0.1,0.4,0.2c0.1,0.1,0.2,0.3,0.2,0.5v7.5c0,0.2-0.1,0.3-0.2,0.4
			C119.3,127.2,119.1,127.3,118.9,127.3z M125.8,127.3c-0.2,0-0.3-0.1-0.4-0.2c-0.1-0.1-0.2-0.3-0.2-0.4v-4.2c0-0.7-0.1-1.2-0.4-1.6
			c-0.3-0.4-0.6-0.7-1-1c-0.4-0.2-0.9-0.3-1.5-0.3c-0.5,0-1,0.1-1.4,0.3c-0.4,0.2-0.8,0.5-1,0.8c-0.2,0.4-0.4,0.8-0.4,1.2h-0.9
			c0-0.7,0.2-1.3,0.5-1.8c0.3-0.5,0.8-0.9,1.4-1.2c0.6-0.3,1.2-0.5,1.9-0.5c0.8,0,1.4,0.2,2,0.5c0.6,0.3,1.1,0.8,1.4,1.4
			c0.3,0.6,0.5,1.3,0.5,2.2v4.2c0,0.2-0.1,0.3-0.2,0.4C126.1,127.2,126,127.3,125.8,127.3z"/>
		<path class="st4" d="M129.4,119.9c-0.2,0-0.3,0-0.4-0.2s-0.2-0.2-0.2-0.4c0-0.2,0.1-0.3,0.2-0.4c0.1-0.1,0.2-0.2,0.4-0.2h4.1
			c0.2,0,0.3,0.1,0.4,0.2c0.1,0.1,0.2,0.2,0.2,0.4c0,0.1-0.1,0.3-0.2,0.4s-0.2,0.2-0.4,0.2H129.4z M133.3,127.3
			c-0.6,0-1.1-0.1-1.5-0.4c-0.4-0.3-0.8-0.6-1-1.1s-0.4-1-0.4-1.6v-7.8c0-0.2,0.1-0.3,0.2-0.4c0.1-0.1,0.3-0.2,0.4-0.2
			c0.2,0,0.3,0.1,0.4,0.2c0.1,0.1,0.2,0.3,0.2,0.4v7.8c0,0.5,0.2,1,0.5,1.3s0.7,0.5,1.2,0.5h0.4c0.2,0,0.3,0.1,0.4,0.2
			s0.2,0.3,0.2,0.4c0,0.2-0.1,0.3-0.2,0.4s-0.3,0.2-0.5,0.2H133.3z"/>
		<path class="st4" d="M141.1,127.4c-0.9,0-1.6-0.2-2.3-0.6c-0.7-0.4-1.2-0.9-1.6-1.6c-0.4-0.7-0.6-1.4-0.6-2.3
			c0-0.9,0.2-1.6,0.5-2.3c0.4-0.7,0.8-1.2,1.5-1.6c0.6-0.4,1.4-0.6,2.2-0.6c0.8,0,1.5,0.2,2.1,0.6s1.1,0.9,1.4,1.5
			c0.3,0.7,0.5,1.4,0.5,2.2c0,0.2-0.1,0.3-0.2,0.4s-0.2,0.2-0.4,0.2h-6.8v-1h6.9l-0.7,0.5c0-0.6-0.1-1.2-0.3-1.7
			c-0.2-0.5-0.6-0.9-1-1.2c-0.4-0.3-0.9-0.4-1.5-0.4c-0.6,0-1.1,0.1-1.6,0.4c-0.5,0.3-0.8,0.7-1.1,1.2c-0.2,0.5-0.4,1.1-0.4,1.7
			c0,0.7,0.1,1.2,0.4,1.7c0.3,0.5,0.7,0.9,1.2,1.2c0.5,0.3,1.1,0.4,1.7,0.4c0.4,0,0.8-0.1,1.2-0.2c0.4-0.1,0.7-0.3,0.9-0.5
			c0.1-0.1,0.3-0.1,0.4-0.2c0.1,0,0.3,0,0.4,0.1c0.1,0.1,0.2,0.3,0.2,0.4c0,0.1-0.1,0.3-0.2,0.4c-0.4,0.3-0.8,0.5-1.3,0.7
			S141.6,127.4,141.1,127.4z"/>
		<path class="st4" d="M157.1,127.4c-0.8,0-1.6-0.2-2.2-0.6c-0.7-0.4-1.2-0.9-1.6-1.6s-0.6-1.4-0.6-2.3c0-0.9,0.2-1.6,0.5-2.3
			c0.4-0.7,0.9-1.2,1.5-1.6c0.6-0.4,1.4-0.6,2.2-0.6c0.7,0,1.3,0.1,1.8,0.4c0.5,0.3,1,0.6,1.4,1.2c0.1,0.1,0.2,0.3,0.1,0.4
			c0,0.1-0.1,0.3-0.3,0.4c-0.1,0.1-0.2,0.1-0.4,0.1c-0.1,0-0.3-0.1-0.4-0.2c-0.6-0.7-1.4-1.1-2.3-1.1c-0.6,0-1.1,0.1-1.6,0.4
			c-0.5,0.3-0.8,0.7-1.1,1.2c-0.3,0.5-0.4,1.1-0.4,1.7c0,0.6,0.1,1.2,0.4,1.7c0.3,0.5,0.6,0.9,1.1,1.2c0.5,0.3,1,0.4,1.6,0.4
			c0.4,0,0.8-0.1,1.1-0.2s0.7-0.3,0.9-0.5c0.1-0.1,0.3-0.2,0.4-0.2c0.1,0,0.3,0,0.4,0.1c0.1,0.1,0.2,0.3,0.2,0.4
			c0,0.1,0,0.3-0.2,0.4C159.2,127,158.2,127.4,157.1,127.4z"/>
		<path class="st4" d="M167.3,127.4c-0.8,0-1.6-0.2-2.2-0.6s-1.2-0.9-1.5-1.6s-0.6-1.4-0.6-2.3c0-0.9,0.2-1.6,0.6-2.3
			c0.4-0.7,0.9-1.2,1.6-1.6s1.4-0.6,2.3-0.6s1.6,0.2,2.3,0.6c0.7,0.4,1.2,0.9,1.6,1.6c0.4,0.7,0.6,1.4,0.6,2.3l-0.5,0.4
			c0,0.8-0.2,1.5-0.5,2.1s-0.8,1.1-1.5,1.5S168.1,127.4,167.3,127.4z M167.4,126.2c0.6,0,1.2-0.1,1.7-0.4s0.9-0.7,1.2-1.2
			c0.3-0.5,0.4-1.1,0.4-1.7c0-0.6-0.1-1.2-0.4-1.7c-0.3-0.5-0.7-0.9-1.2-1.2c-0.5-0.3-1-0.4-1.7-0.4c-0.6,0-1.2,0.1-1.6,0.4
			c-0.5,0.3-0.9,0.7-1.2,1.2c-0.3,0.5-0.4,1.1-0.4,1.7c0,0.6,0.1,1.2,0.4,1.7s0.7,0.9,1.2,1.2C166.3,126.1,166.8,126.2,167.4,126.2z
			 M171.3,127.3c-0.2,0-0.3-0.1-0.4-0.2s-0.2-0.3-0.2-0.4v-2.7l0.3-1.3l0.9,0.2v3.8c0,0.2-0.1,0.3-0.2,0.4
			C171.6,127.2,171.4,127.3,171.3,127.3z"/>
		<path class="st4" d="M178.1,127.4c-0.6,0-1.3-0.1-1.9-0.3c-0.6-0.2-1.1-0.5-1.5-1c-0.1-0.1-0.2-0.3-0.1-0.4s0.1-0.3,0.2-0.4
			c0.1-0.1,0.3-0.1,0.5-0.1s0.3,0.1,0.4,0.2c0.3,0.3,0.6,0.5,1,0.7c0.4,0.2,0.9,0.2,1.4,0.2c0.8,0,1.4-0.1,1.7-0.4
			c0.4-0.3,0.5-0.6,0.5-1c0-0.4-0.2-0.7-0.5-1s-1-0.4-1.8-0.6c-1.1-0.2-1.9-0.5-2.4-0.9c-0.5-0.4-0.8-0.9-0.8-1.5
			c0-0.5,0.1-1,0.4-1.4c0.3-0.4,0.7-0.6,1.2-0.8c0.5-0.2,1-0.3,1.6-0.3c0.7,0,1.3,0.1,1.8,0.4c0.5,0.2,0.9,0.6,1.3,1
			c0.1,0.1,0.1,0.3,0.1,0.4c0,0.1-0.1,0.3-0.3,0.4c-0.1,0.1-0.3,0.1-0.4,0.1c-0.2,0-0.3-0.1-0.4-0.2c-0.3-0.3-0.6-0.5-0.9-0.7
			c-0.4-0.1-0.8-0.2-1.2-0.2c-0.6,0-1.1,0.1-1.4,0.4c-0.4,0.2-0.5,0.5-0.5,0.9c0,0.2,0.1,0.5,0.2,0.6c0.1,0.2,0.4,0.3,0.7,0.5
			s0.8,0.3,1.4,0.4c0.8,0.1,1.4,0.3,1.9,0.6c0.5,0.3,0.8,0.5,1,0.9s0.3,0.7,0.3,1.1c0,0.5-0.1,0.9-0.4,1.3c-0.3,0.4-0.7,0.7-1.2,0.9
			C179.4,127.3,178.8,127.4,178.1,127.4z"/>
		<path class="st4" d="M183.9,119.9c-0.2,0-0.3,0-0.4-0.2c-0.1-0.1-0.2-0.2-0.2-0.4c0-0.2,0.1-0.3,0.2-0.4c0.1-0.1,0.2-0.2,0.4-0.2
			h4.1c0.2,0,0.3,0.1,0.4,0.2c0.1,0.1,0.2,0.2,0.2,0.4c0,0.1-0.1,0.3-0.2,0.4c-0.1,0.1-0.2,0.2-0.4,0.2H183.9z M187.9,127.3
			c-0.6,0-1.1-0.1-1.5-0.4c-0.4-0.3-0.8-0.6-1-1.1s-0.4-1-0.4-1.6v-7.8c0-0.2,0.1-0.3,0.2-0.4c0.1-0.1,0.3-0.2,0.4-0.2
			c0.2,0,0.3,0.1,0.4,0.2c0.1,0.1,0.2,0.3,0.2,0.4v7.8c0,0.5,0.2,1,0.5,1.3s0.7,0.5,1.2,0.5h0.4c0.2,0,0.3,0.1,0.4,0.2
			s0.2,0.3,0.2,0.4c0,0.2-0.1,0.3-0.2,0.4s-0.3,0.2-0.5,0.2H187.9z"/>
		<path class="st4" d="M195.6,127.4c-0.9,0-1.6-0.2-2.3-0.6c-0.7-0.4-1.2-0.9-1.6-1.6c-0.4-0.7-0.6-1.4-0.6-2.3
			c0-0.9,0.2-1.6,0.5-2.3c0.4-0.7,0.9-1.2,1.5-1.6c0.6-0.4,1.4-0.6,2.2-0.6c0.8,0,1.5,0.2,2.1,0.6s1.1,0.9,1.4,1.5
			c0.3,0.7,0.5,1.4,0.5,2.2c0,0.2-0.1,0.3-0.2,0.4c-0.1,0.1-0.2,0.2-0.4,0.2H192v-1h6.9l-0.7,0.5c0-0.6-0.1-1.2-0.3-1.7
			c-0.2-0.5-0.6-0.9-1-1.2s-0.9-0.4-1.5-0.4c-0.6,0-1.1,0.1-1.6,0.4c-0.5,0.3-0.8,0.7-1.1,1.2c-0.3,0.5-0.4,1.1-0.4,1.7
			c0,0.7,0.1,1.2,0.4,1.7c0.3,0.5,0.7,0.9,1.2,1.2s1.1,0.4,1.7,0.4c0.4,0,0.8-0.1,1.2-0.2c0.4-0.1,0.7-0.3,0.9-0.5
			c0.1-0.1,0.3-0.1,0.4-0.2c0.1,0,0.3,0,0.4,0.1c0.1,0.1,0.2,0.3,0.2,0.4c0,0.1-0.1,0.3-0.2,0.4c-0.4,0.3-0.8,0.5-1.3,0.7
			S196.1,127.4,195.6,127.4z"/>
		<path class="st4" d="M204.1,127.3c-0.4,0-0.8-0.1-1.1-0.4c-0.3-0.2-0.6-0.6-0.8-1c-0.2-0.4-0.3-0.9-0.3-1.4v-9.1
			c0-0.2,0.1-0.3,0.2-0.4s0.3-0.2,0.4-0.2c0.2,0,0.3,0.1,0.4,0.2s0.2,0.3,0.2,0.4v9.1c0,0.5,0.1,0.8,0.3,1.1
			c0.2,0.3,0.4,0.4,0.7,0.4h0.4c0.2,0,0.3,0.1,0.4,0.2c0.1,0.1,0.1,0.3,0.1,0.4c0,0.2-0.1,0.3-0.2,0.4c-0.1,0.1-0.3,0.2-0.5,0.2
			H204.1z"/>
		<path class="st4" d="M211,127.4c-0.9,0-1.6-0.2-2.3-0.6s-1.2-0.9-1.6-1.6s-0.6-1.4-0.6-2.3c0-0.9,0.2-1.6,0.6-2.3s0.9-1.2,1.6-1.6
			s1.4-0.6,2.3-0.6s1.6,0.2,2.3,0.6c0.7,0.4,1.2,0.9,1.6,1.6s0.6,1.4,0.6,2.3c0,0.9-0.2,1.6-0.6,2.3s-0.9,1.2-1.6,1.6
			C212.6,127.2,211.9,127.4,211,127.4z M211,126.2c0.6,0,1.2-0.1,1.7-0.4s0.9-0.7,1.2-1.2c0.3-0.5,0.4-1.1,0.4-1.7
			c0-0.6-0.1-1.2-0.4-1.7s-0.7-0.9-1.2-1.2s-1-0.4-1.7-0.4c-0.6,0-1.2,0.1-1.7,0.4c-0.5,0.3-0.9,0.7-1.2,1.2
			c-0.3,0.5-0.4,1.1-0.4,1.7c0,0.6,0.1,1.2,0.4,1.7c0.3,0.5,0.7,0.9,1.2,1.2C209.9,126.1,210.4,126.2,211,126.2z"/>
	</g>
</g>
</svg>
