<?xml version="1.0" encoding="utf-8"?>
<!-- Generator: Adobe Illustrator 25.2.1, SVG Export Plug-In . SVG Version: 6.00 Build 0)  -->
<svg version="1.1" id="Camada_1" xmlns="http://www.w3.org/2000/svg" xmlns:xlink="http://www.w3.org/1999/xlink" x="0px" y="0px"
	 viewBox="0 0 247.2 202.1" style="enable-background:new 0 0 247.2 202.1;" xml:space="preserve">
<style type="text/css">
	.st0{fill:#F79234;}
	.st1{fill:#6F7174;}
	.st2{font-family:'MyriadPro-Regular';}
	.st3{font-size:19.8013px;}
</style>
<g>
	<path class="st0" d="M128.7,2.2c12.1,0,24.2-0.1,36.3,0c5.6,0.1,10.8,1.4,15,5.8c2.8,3,4.3,6.4,4.3,10.5c0.1,5.9-0.3,11.9,0.1,17.8
		c0.3,4.5-1.5,7.8-4.2,11.1c-10.8,13.1-24.6,22-41.3,24.4C120.1,74.6,102.3,71,87,58.3c-5-4.1-9.2-8.6-12.8-13.9
		c-1.4-2-2-3.9-1.9-6.3c0.1-5.5,0.2-11.1,0-16.6C72,11.1,77.9,2.3,91.8,2.2C104.1,2.1,116.4,2.2,128.7,2.2z"/>
	<path class="st0" d="M72.3,62.3C101.9,90.4,146.6,96,183.7,63c0.2,0.3,0.5,0.7,0.5,1c0,14.3,0.2,28.7,0,43
		c-0.1,7.4-6.8,13.9-14.2,14.5c-1.4,0.1-2.9,0.1-4.3,0.1c-25,0-50,0-75,0c-12.2,0-18.4-6.2-18.4-18.5c0-11.9,0-23.8,0-35.7
		C72.3,66.1,72.3,64.6,72.3,62.3z"/>
	<path class="st1" d="M81.7,161c3.5-0.1,6.9-0.1,10.4-0.1c6.2,0,6.2,0,4.8-6c-2-9-10-12.3-17.7-7.4c-4.5,2.8-7,9.8-5.4,15.1
		c1.7,5.3,7.5,9.9,12.4,9.4c2.9,0.2,5.5-0.7,7.8-2.7c2.1-1.7,1.8-3.2-0.4-4.9c-1.5-1.1-2.1,0.3-3.1,0.8c-4.7,2.6-7.8,2.2-10.1-1.4
		C79.4,162.2,79.8,161.1,81.7,161z M82.8,150.8c2.5-1.3,4.5-1.2,6.7,0.8c1,0.9,2.5,2,1.9,3.5c-0.4,1.3-2.1,0.8-3.3,0.9
		c-0.8,0-1.6,0-2.4,0c-0.6,0-1.2,0.1-1.8,0c-1.3-0.2-3.3,0.7-3.8-1C79.6,153.2,81,151.7,82.8,150.8z"/>
	<path class="st1" d="M34.3,145.3c-6.5,0-12.8,4.2-12.9,13.3c0,7.9,5,13.4,12.6,13.4c7.7,0.1,12.5-5.2,12.5-13.5
		C47.4,150,40.2,145.3,34.3,145.3z M41.3,158.9c-0.2,4.1-3.5,7.2-7.5,7.1c-4-0.1-7.1-3.5-7-7.6c0.1-4,3.7-7.4,7.5-7.2
		C38.1,151.3,41.6,155,41.3,158.9z"/>
	<path class="st1" d="M152.3,137c0-0.4,0-0.8-0.1-1.2c-0.1-1.2-0.7-1.9-1.9-1.8c-0.9,0.1-1.5,0.6-1.6,1.5c-0.1,1.2-0.1,2.5-0.1,3.7
		c0,3.7,0,7.3,0,11.8c-3.4-2.4-6-4.1-9.2-3.5c-5.3,1.1-8.7,4.1-9.8,9.6c-1,4.9,0.3,9,3.8,12.2c4.3,3.8,8.5,3.8,12.9,0.7
		c0.7-0.5,1-1.4,2.4-0.6c3.3,1.9,3.6,1.7,3.6-1.7C152.4,157.5,152.3,147.2,152.3,137z M148.3,162.9c-1.2,3.9-4.3,6-8.3,5.5
		c-3.9-0.5-6.2-3.6-6.3-8.3c-0.8-6.9,5.9-11,11.1-7.8C148,154.2,149.6,158.6,148.3,162.9z"/>
	<path class="st1" d="M62.3,161c0-1.8-0.1-3.7,0-5.5c0.1-2.5-0.1-4.5-3.4-4.5c-1.3,0-1.5-1.1-1.5-2.2c0-1.4,0.3-2.6,1.9-2.6
		c3.1,0.1,3-2,3-4.1c0-1.4-0.1-2.9,0.1-4.3c0.6-5.2,6.3-8.4,11.1-6.3c1.1,0.5,1.1,1.6,1.1,2.6c0,1.2-0.5,2-1.7,2.1
		c-1.6,0.2-3.4,0.1-4.1,2c-0.7,2-0.5,4-0.3,6.1c0.1,1.6,1.4,1.7,2.7,1.8c1.5,0.1,2.2,0.7,2.3,2.3c0,1.7-0.5,2.8-2.4,2.8
		c-2.2,0-2.7,1.3-2.7,3.2c0,4.5,0.1,9,0,13.5c-0.1,2.6-0.8,3.1-3.4,3.1c-2.3,0-2.7-1.3-2.7-3.2C62.3,165.5,62.3,163.3,62.3,161
		C62.3,161,62.3,161,62.3,161z"/>
	<path class="st1" d="M14.3,165.9c0.4-0.1,1.3-0.4,2.3-0.7c2.1-0.6,2.9,1.1,3.6,2.4c0.8,1.4-0.5,2.2-1.5,2.8
		c-4.3,2.6-10.6,2.1-14.2-1.6c-3.8-3.8-5.5-8.2-4-13.8c1.5-6.1,5.7-8.7,11.2-9.8c2.4-0.5,4.8,0.8,7,1.7c1.1,0.5,2.7,1.1,2.4,2.3
		c-0.3,1.6-1.9,2.6-3.2,3.5c-0.9,0.6-1.4-0.5-2-0.8c-3.5-1.5-5.7-1.3-7.7,1c-2.1,2.5-3.3,5.4-1.7,8.5
		C8.1,164.9,9.7,166.3,14.3,165.9z"/>
	<path class="st1" d="M236.1,147.4c-6.2-0.1-12.2,5.9-12.2,12.2c-0.1,6.6,5.4,12.3,11.9,12.4c6.4,0.1,11.3-4.9,11.4-11.8
		C247.3,152.9,242.6,147.5,236.1,147.4z M243.1,162.9c-1.3,3.9-4.4,5.9-8.4,5.4c-3.8-0.5-6.2-3.7-6.2-8.9c-0.4-2.8,0.8-5.5,3.6-7.3
		c2.5-1.6,5-1.3,7.5,0.1C242.9,154.1,244.4,158.8,243.1,162.9z"/>
	<path class="st1" d="M114.2,147.4c-4.8-0.4-11.6,4.7-11.3,12c0.3,7.3,4.7,12.6,11.4,12.6c6.5,0,12-5.6,12-12.2
		C126.3,153.5,120.4,147.4,114.2,147.4z M116.6,168.2c-3.1,1-6.6-0.2-8.7-3c-2.4-3.2-1.7-9.8,1.5-12.3c2.4-1.8,5.1-2.5,8-1.2
		c2.9,1.4,4.2,4.1,4.2,8.2C121.6,163.9,119.6,167.2,116.6,168.2z"/>
	<path class="st1" d="M169,147.4c-6.7-0.2-11.8,4.9-11.9,11.9c-0.1,7.2,4.6,12.6,11.1,12.7c6.7,0.1,12.4-5.7,12.2-12.5
		C180.3,153.2,175,147.6,169,147.4z M176.7,160c-0.3,4.3-4.5,9-8.2,8.3c-4.8-0.1-7.9-3.8-7.6-9.1c0.2-5,3.5-8.2,8.1-8.1
		C172.9,151.2,177,155.8,176.7,160z"/>
	<path class="st1" d="M185.5,161.1c-0.3-3.9,0.3-7.1-0.6-10.4c-0.5-1.7,1.1-2.9,2.5-1.6c1.2,1.1,1.8,1.8,3.2,0.4
		c0.5-0.6,1.4-0.9,2.1-1.2c5.4-2.3,10.8,0.7,11.3,6.5c0.4,4.7,0.1,9.4,0.1,14.1c0,1.1-0.6,2-1.8,2c-1.3,0-1.7-0.9-1.8-2
		c0-3.7,0-7.4-0.1-11.1c-0.1-4-1.5-6.1-4.2-6.5c-3.1-0.5-5.9,1.7-7,5.3c-0.8,2.8-1,5.6-1,8.5c0,1.6-0.1,3.3-0.3,4.9
		c0,0.3-0.5,0.6-0.9,0.7c-0.7,0.3-1.1-0.4-1.4-0.9c-0.1-0.1-0.1-0.4-0.1-0.6C185.5,166.2,185.5,163.4,185.5,161.1z"/>
	<path class="st1" d="M218.2,172c-3.5,0-5-1.2-6.1-4.7c-1.1-3.6-0.4-7.3-0.5-10.9c-0.1-2.6,0.5-5.6-3.7-5.5c-0.5,0-1.1-0.6-0.8-1.4
		c0.1-0.3,0.5-0.8,0.8-0.8c3.6,0.1,3.9-2.1,3.7-4.9c-0.1-1.3,0.2-2.5,1.9-2.5c1.3,0,1.5,1,1.7,2.1c0.8,4.2,0.8,4.2,4.9,5
		c0.8,0.2,1.7,0.2,1.8,1.2c0.1,1.1-0.8,1.3-1.6,1.4c-0.8,0.1-1.6,0.1-2.4,0.1c-1.7,0-2.7,0.7-2.7,2.5c0,3.5-0.1,6.9,0.1,10.4
		c0.2,2.4,1,4.4,4.1,4.3c1.2-0.1,2.8-0.2,2.7,1.5c-0.1,1.3-1.4,1.9-2.7,2.1C219,172,218.6,172,218.2,172z"/>
	<path class="st1" d="M56.1,158.3c0,3.3,0,6.5,0,9.8c0,2.1-1.1,2.8-3,2.8c-2,0-3.1-0.6-3-2.8c0-6.5,0-13.1,0-19.6
		c0-1.9,1-2.5,2.7-2.4c1.7,0,3.4,0,3.4,2.4C56.2,151.8,56.2,155.1,56.1,158.3C56.2,158.3,56.1,158.3,56.1,158.3z"/>
	<path class="st1" d="M52.9,141.2c-1.8-0.1-3.9-2.3-3.9-4.1c0-2,2-3.5,4.3-3.2c2,0.3,3.1,1.6,3,3.8
		C56.2,139.8,54.7,141.3,52.9,141.2z"/>
	<text transform="matrix(1 0 0 1 26.8252 194.9922)" class="st1 st2 st3">Clínicas Odontológicas</text>
</g>
</svg>
