<?xml version="1.0" encoding="utf-8"?>
<!-- Generator: Adobe Illustrator 25.2.1, SVG Export Plug-In . SVG Version: 6.00 Build 0)  -->
<svg version="1.1" id="Camada_1" xmlns="http://www.w3.org/2000/svg" xmlns:xlink="http://www.w3.org/1999/xlink" x="0px" y="0px"
	 viewBox="0 0 247.2 202.1" style="enable-background:new 0 0 247.2 202.1;" xml:space="preserve">
<style type="text/css">
	.st0{fill:#113D9B;}
	.st1{fill:#2DA9A6;}
	.st2{fill:#113A9A;}
	.st3{fill:#909090;}
	.st4{fill:#949494;}
	.st5{fill:#919191;}
	.st6{fill:#9A9A9A;}
	.st7{fill:#959595;}
	.st8{fill:#979797;}
	.st9{fill:#8D8D8D;}
	.st10{fill:#8F8F8F;}
	.st11{fill:#8E8E8E;}
	.st12{fill:#969696;}
	.st13{fill:#8B8B8B;}
	.st14{fill:#929292;}
	.st15{fill:none;}
	.st16{fill:#FAFAFA;}
	.st17{fill:#F6F6F6;}
	.st18{fill:#FCFCFC;}
</style>
<g>
	<path class="st0" d="M102.6,117.4c6.2-9,21-7.7,25.4,1.8c1.5-2.2,2.6-4.3,4.8-5.7c10.1-6.2,22.3-0.1,22.9,11.7
		c0.3,5.7,0.1,11.4,0.1,17.1c0,2,0.3,3.5,2.4,4.6c2.5,1.3,1.1,3.9,1,6c-0.1,1.8-1.9,1.4-3.2,1.5c-6.3,0.3-9.3-2.2-9.6-8.4
		c-0.3-4.9-0.1-9.9-0.2-14.8c0-1.4-0.1-2.9-0.3-4.3c-0.6-3.6-2.8-6.1-5.9-6.7c-3.4-0.7-6.8,0.9-8.7,4c-1.1,1.7-1.5,3.7-1.6,5.6
		c-0.1,4.4-0.1,8.8,0,13.2c0,1.3,0.3,2.6,1.6,3.4c1.8,1.2,2.9,5.2,1.9,7c-0.3,0.5-0.8,0.7-1.3,0.8c-6.3,1.7-11.5-2.2-11.7-8.7
		c-0.1-5.6,0.1-11.2-0.1-16.8c-0.1-6.1-4.6-9.8-9.9-8.4c-3.9,1-5.8,3.9-6.5,7.5c-0.9,4.8-0.3,9.6-0.4,14.4c-0.1,1.6,0,3.3,0,4.9
		c0,6.7,0,6.6-6.6,6.8c-2.3,0.1-3-0.5-3-2.9c0.1-8.9,0-17.8,0.1-26.6c0-2.3,0.1-4.3-2.7-5.6c-2-1-1-3.8-0.8-5.8
		c0.1-1.6,1.7-1.4,2.9-1.5C97.9,111.1,99.9,112.3,102.6,117.4z"/>
	<path class="st0" d="M207.7,146.8c-2.1-1.1-2.3-2.6-2.3-4.6c0-9.2,0-18.4-0.1-27.6c0-0.9,0.4-2.4-0.8-2.6c-2.3-0.3-4.6-0.4-6.8,0
		c-1.8,0.4-0.2,2.6-1.4,4c-0.9-0.7-1.7-1.3-2.5-1.9c-9.2-6.3-21.7-2.3-25.3,8.3c-2.4,7.1-2.4,14.2,0.2,21.3c2,5.4,5.7,9.2,11.4,10.4
		c6.4,1.3,12.2-0.3,16.2-6c2.7,5.4,4.3,6.5,9.3,6.2c1.2-0.1,3.1,0.3,3.1-1.5C208.7,150.8,210.2,148.1,207.7,146.8z M195.7,133.1
		c-0.2,1.8,0.3,3.8-0.4,5.9c-1.3,4.1-4.5,6.7-8.7,6.8c-4.2,0.1-7.6-2.1-9.1-6.1c-1.5-4.1-1.6-8.4-0.3-12.6c1.5-5.2,5.6-7.8,10.7-7
		c4.7,0.7,7.7,4.5,7.8,9.8C195.7,130.8,195.7,131.8,195.7,133.1z"/>
	<path class="st0" d="M82.1,126.6c-1.7-8.7-7.9-14.6-16.2-15.1c-10.5-0.7-17.4,3.6-20.4,12.7c-0.9,2.8-1.2,5.8-1.1,8.9
		c-0.2,2.5,0.2,5.1,0.8,7.6c2,8.2,8.3,13.2,17,13.8c9.1,0.5,15.9-3.6,18.8-11.7C83,137.5,83.2,132,82.1,126.6z M72.2,139.7
		c-1.5,4.3-4.2,6.1-8.7,6.1c-4.2,0-7-1.8-8.5-5.9c-1.7-4.7-1.7-9.5,0.1-14.1c1.6-4,4.5-5.8,8.7-5.8c4,0.1,7,2.2,8.4,6.2
		C73.7,130.6,73.7,135.2,72.2,139.7z"/>
	<path class="st0" d="M31.6,141.2c0.3,0.2,0.5,0.2,0.7,0.4c5.1,4.5,5.1,6.4-0.9,9.9c-11.5,6.7-30.3,3.3-31.2-16.3
		c-0.2-4.7,0-9.4,2-13.8c2.1-4.6,5.5-7.7,10.3-9c5.6-1.6,11.3-1.7,16.6,1c5,2.6,7.7,8.3,6.7,13.8c-0.3,1.6-0.9,2.6-2.8,2.4
		c-0.7-0.1-1.6-0.1-2.3,0c-2.7,0.6-3.8,0-3.5-3.1c0.3-2.7-1-5-3.7-5.9c-3.6-1.2-7.2-1.1-10.2,1.5c-4.6,3.9-5.2,14.8-1.1,19.8
		c3.9,4.9,11.9,5.3,17.5,0.9C30.4,142.3,31,141.7,31.6,141.2z"/>
	<path class="st0" d="M228.5,117.4c6.1-6.3,11.8-7.8,18.6-4.5c-1,2.2-2,4.5-3,6.7c-0.5,1.2-1.3,1.1-2.4,1
		c-7.8-1.3-12.1,2.3-12.2,10.2c-0.1,6.7-0.1,13.4,0,20c0.1,2.4-0.6,3.2-3.1,3.1c-6.3-0.2-6.3-0.1-6.3-6.4c0-7.8,0-15.5,0-23.3
		c0-2.2-0.1-4.1-2.7-5.4c-2.2-1.1-0.9-3.7-0.9-5.7c0-1.6,1.6-1.5,2.8-1.7C223.7,111,226.2,112.6,228.5,117.4z"/>
	<path class="st1" d="M78.8,61.3c-0.6,3.2-1.9,4.5-5.3,4.9c-0.3-0.2-0.6-0.3-0.9-0.5c0.2-0.1,0.5-0.3,0.7-0.4
		c-0.2-1.5-1.6-1.7-2.6-2.3c-9.5-5.2-19.6-6.8-30.2-4.5c-5.4,1.2-10.9,2.6-15,6.8c0.3,0.2,0.7,0.4,1,0.6c-0.1,0.1-0.1,0.1-0.2,0.2
		c-1.3,1.5-3.3,1.8-4.9,2.6c-1.6,0-2.5,1.1-3.5,2.1C10.3,78.7,6.1,88.2,5.3,99.2c-0.2,2.5-1.3,2.8-3.3,2.7c-2.6-0.1-1.9-1.9-1.8-3.3
		c1-12.6,6.1-23.4,15-32.3c0.5-0.5,0.8-1,1.2-1.5c0.7-2.1,1.8-3.6,4.4-3.1c7.3-5.2,15.6-7.9,24.4-9.3c1-2,2.9-1.5,4.5-1.6
		c1.2-0.1,2.3,0,3.5,0c1.3,0.3,2.6,0.5,3.8,0.8c-1,0.3-2,0.6-3.1,0.9c0.5,0.2,1,0.4,1.6,0.5c8.3,0.9,15.9,3.8,22.7,8.8
		c0.2-0.2,0.4-0.4,0.6-0.5C78.7,61.2,78.8,61.2,78.8,61.3z"/>
	<path class="st2" d="M247.2,30.7c-0.9,13.5-6.4,24.9-16.4,34c-0.2,3.4-3.3,3-5.3,4c-6.9,5-14.8,7.2-23.1,8.5
		c-3,2.8-6.5,1.4-9.8,1.2c-0.5,0-0.9-0.4-1.4-0.5c0.4-0.1,0.7-0.2,1.1-0.4c-0.8-0.4-1.3-0.6-1.8-0.9c-7.7-0.9-14.5-3.9-20.9-8.1
		c-0.3,0.1-0.6,0.2-0.9,0.3c0.1-3.4,2.2-5.1,5.7-4.6c0,0,0.1,0,0.1,0c-0.2,0.3-0.3,0.6-0.3,1.1c15.8,9.1,31.5,9.1,47.3,0
		c0-0.6-0.3-1-0.6-1.3c1.7-1.4,3.7-2.3,5.9-2.7c9.2-8.3,14.6-18.5,15.2-31c0.1-2.3,1.1-2.6,3-2.7C247.4,27.7,247.3,29.1,247.2,30.7z
		"/>
	<path class="st1" d="M220.8,101.8c-1.6,0-3.3,0.5-3.5-2.2c-0.1-1.6-0.6-3.2-1.2-4.8c-2.9-7.8-10.4-12.8-18.9-12.5
		c-8.5,0.2-15.7,5.8-18.3,14c-0.5,1.7,0,4.5-1.7,5c-2.8,0.8-5.9,1.6-8.9,0.2c1.2-1.3,2.8-2.3,3-4.3c0.4-1.1,0.8-2.2,1.2-3.3
		c0.2,1.2,0.3,2.3,0.4,3.5c0.7-1,0.9-2.2,1.3-3.3c2.3-6.8,6.8-11.8,13.3-14.9c1.2-0.6,2.4-1,3.7-1.4h0c0.4-0.1,0.7-0.2,1.1-0.4
		c-0.8-0.4-1.3-0.6-1.8-0.9c4,0.3,7.9,0.8,11.9,0.6c6.4,2,12.1,5,15.9,10.8c2.2,3.3,3.6,7,4,11C222.5,100.4,223,101.8,220.8,101.8z"
		/>
	<path class="st1" d="M74.1,101.7c-4.8,0.9-4.8,0.1-5.4-3.9C67.3,89,58.6,82.2,49.6,82.2c-9.4-0.1-17.7,7.1-19.4,16.8
		c-0.2,1,0.1,2.3-1.3,2.8c-1.2,0.4-2.4,0.6-3.5-0.1c-0.9-0.7-0.6-1.8-0.4-2.8c1.5-10.6,8.5-18.3,19-21.1c0.4-0.1,0.8-0.3,1.2-0.5
		c2.1-2.7,5.1-1.2,7.8-1.6c1.4,0.3,2.8,0.7,4.2,1.1c-1.1,0.2-2.1,0.4-3.2,0.5c9.9,2.5,16.8,8.2,19.7,18.3c0.3,1,0.8,0.3,1.2,0
		c0-0.4,0.1-0.8,0.1-1.1c0.3,0.6,0.7,1.1,1.2,1.5C76.5,98.3,76.2,100.3,74.1,101.7z"/>
	<path class="st1" d="M149.9,30.8c-0.2,1.4-0.6,3-1.1,4.5c-0.2-1.3-0.4-2.6-0.5-3.9c-0.1,0.3-0.3,0.6-0.4,0.9
		c-2,9.7-7.7,16.1-17,19.2c-0.8,0.3-1.7,0.5-2.1,1.4c0.7,0,1.4,0.1,2.1,0.2c-0.6,0.5-1.1,1-1.8,1.2c-3.5,0.3-7,0.1-10.4,0
		c-0.9-0.4-1.8-0.8-2.7-1.2c0.9-0.1,1.8-0.2,2.8-0.3c-0.4-0.5-0.9-0.9-1.6-1.1c-8.6-2.4-14.1-8.1-17.1-16.4c-0.3-0.8-0.4-1.7-1.4-2
		c-0.1,0.7-0.1,1.3-0.2,2c-0.4-0.8-0.8-1.5-1.2-2.2c-0.3-2.1,0.3-3.8,1.9-5.1c4.5-0.3,4.5-0.3,5.4,4c1.7,8.6,9.9,15.3,18.8,15.6
		c9.1,0.2,17.4-6.2,19.6-15.4c1.1-4.5,1.1-4.5,5.7-4.3C149.4,28.7,149.9,29.6,149.9,30.8z"/>
	<path class="st1" d="M226.7,61.4c-1.4,1.7-3.3,3-5.3,4c0-0.6-0.3-1-0.6-1.3c-0.4-0.3-0.8-0.6-1.3-0.8c-14.4-7.7-28.8-7.8-43.3-0.2
		c-0.6,0.3-1.3,0.6-1.8,1.2c-0.2,0.3-0.3,0.6-0.3,1.1c-2.3-0.1-3.7,1.2-4.6,3.2c-0.3,0.1-0.6,0.2-0.9,0.3c-2,0.9-3.2,2.7-4.5,4.5
		c0.1,0.2,0.3,0.4,0.4,0.6c-0.2,0.1-0.3,0.1-0.5,0.2c-2.9-0.5-4.1-2.6-4.6-5.3c0.1-0.2,0.2-0.4,0.3-0.7c0.2,0.1,0.3,0.3,0.5,0.5
		c2.1-0.6,2.9-2.8,4.5-3.9c-0.3-0.3-0.6-0.6-0.9-0.9c0,0,0.1-0.1,0.1-0.1c1.1-1.3,2.5-2.2,3.8-3.2c0.3,0.3,0.6,0.7,1,1
		c4.9-3.1,10.1-5.8,15.7-7.3c2.8-0.8,5.7-1.3,8.6-1.9l-2.5-0.7c1.1-0.4,2.1-0.9,3.3-0.8c1.9-0.1,3.7-0.1,5.6,0
		c1.2,0.1,2.4,0.2,3,1.6c6.5,1.4,13,2.6,18.9,6.1C223.1,59.4,224.9,60.4,226.7,61.4z"/>
	<path class="st2" d="M149.8,97.5c0.1,1.5,0.1,3-1.3,4.1c-0.9,0.1-1.7,0.1-2.6,0.2c-2,0.3-2.5-0.5-2.8-2.5
		c-1.8-12.4-13.7-20-25.4-16.2c-7.6,2.5-12.1,7.9-13.4,15.8c-0.1,0.9-0.3,1.7-0.5,2.6c-5,0.7-5.5,0.5-6.3-3.3c0.2-1.6,0.5-3.1,1-4.6
		c0.2,1.2,0.4,2.5,0.6,3.8c0.3-0.9,0.5-1.9,0.8-2.8c3.1-8.9,8.9-14.8,18.2-16.9c-0.5-0.7-1.1-0.9-1.8-1.1c0.6-0.4,1.2-0.7,1.9-0.8
		c3.5-0.4,7.1-0.6,10.6,0c0.5,0.3,1.1,0.5,1.7,0.7c-0.7,0.1-1.2,0.4-1.6,1c9.7,1.7,17.7,10,19,19.7c0.3-0.7,0.6-1.4,0.7-2.1
		c0-0.2,0.1-0.5,0.1-0.7C149.4,95.5,150,96.4,149.8,97.5z"/>
	<path class="st2" d="M222.3,30.9c-1.6,9.8-6.8,16.6-16.1,20.2c-1.2,0.5-2.5,0.8-3.7,1.2c-3.1,0-6.2,0-9.3,0l-2.5-0.7
		c-9.3-3.1-15.2-9.4-17.3-19.5c-0.3,1.2-0.5,2.3-0.8,3.5c-0.6-1.1-1.1-2.2-1.1-3.5c0.1-1.5-0.2-3,1.4-4c0.7-0.1,1.3-0.1,2-0.2
		c2.2-0.3,3.1,0.3,3.5,2.8c1.6,9.9,9.7,16.9,19.2,16.9c9.5,0.1,17.6-6.8,19.6-16.6c0.3-1.3-0.3-3.2,2.2-3.2
		C221.8,27.7,222.8,28.3,222.3,30.9z"/>
	<path class="st2" d="M75.1,33.1c-0.1,0.4-0.3,0.8-0.4,1.2c0-0.1,0-0.1,0-0.2c-0.1-0.7-0.4-1-1.1-0.9c-0.3,2.4-1.3,4.6-2.5,6.7
		C67.9,45.8,63,49.5,57,51.5c0,0,0,0,0,0c-1,0.3-2,0.6-3.1,0.9l-8.8-0.1c-10.5-1.7-19.1-10.9-20.2-21.7c-0.1-1.2-0.6-2.8,1.6-2.8
		c1.7,0,3.3-0.4,3.7,2.3c1.3,9.1,7.2,15.2,15.9,16.9c10.2,2,20.5-4.8,22.7-15.1c0.9-4.3,0.9-4.3,5.3-4.1
		C75.8,29.4,75.9,31.2,75.1,33.1z"/>
	<path class="st2" d="M87,61.2c0,0.1,0,0.2,0,0.3c-0.3-0.1-0.7-0.1-1-0.1c-1.1,1.1-2.2,2.2-3.3,3.3c0.2,0.3,0.5,0.7,0.8,1
		c-1.2,1.4-2.9,2.2-4.3,3.4c-0.5-0.2-1.1-0.4-1.7-0.4c-6.2,4.4-13.1,6.8-20.4,8.1c-1.1,0.2-2.1,0.4-3.2,0.5c-2.9,0-5.8,0-8.7,0
		c-8.5-1.1-16.5-3.8-23.6-8.7c0.5-2.2,2.3-2.8,4.1-3.4c0.3,0.2,0.7,0.4,1,0.6c15.3,8.5,30.6,8.6,46-0.1c0.2-0.1,0.5-0.3,0.7-0.4
		c2-0.7,3.5-2.1,4.8-3.7c0.2-0.2,0.4-0.4,0.6-0.5c1.5-1.4,3-2.8,4.6-4.2c-0.1-0.2-0.1-0.5-0.2-0.6c0,0,0,0,0-0.1
		c0.2-0.1,0.4-0.1,0.6-0.1C86,57,87.5,58.4,87,61.2z"/>
	<path class="st1" d="M103.8,101.7c-2.9,1.2-5.8,0.2-8.7,0.2c-1.6,0-1.1-1.6-1.2-2.6c-0.6-7.8-2.7-15-7.3-21.4c-2-0.4-2.9-2-4-3.5
		c0.2-0.4,0.5-0.7,0.7-1.1c-1.4-1.4-2.4-3.3-4.2-4.2c-0.5-0.2-1.1-0.4-1.7-0.4c1.4-1.7,3.4-2.7,5.2-4c0.2,0.3,0.5,0.7,0.8,1
		c1,1.2,2.1,2.2,3.3,3.1c0.3-0.3,0.6-0.6,0.9-0.9c1.4,1.1,2.1,2.8,3.3,4.1c-0.2,0.2-0.5,0.5-0.7,0.7c4,6.6,7,13.5,8.4,21
		c0.2,1.2,0.4,2.5,0.6,3.8C99.2,101.5,99.2,101.5,103.8,101.7z"/>
	<path class="st1" d="M95.9,61.9c-1,2.2-2.4,3.9-5.1,4c-0.3-0.1-0.5-0.3-0.8-0.4c0.2-0.2,0.4-0.4,0.6-0.6c-1.3-1.1-2-2.9-3.7-3.3
		c-0.3-0.1-0.7-0.1-1-0.1c0.1-2.1-1.6-3.1-2.6-4.6c-0.1-0.2-0.1-0.5-0.2-0.6c0,0,0,0,0-0.1c-4.4-6.6-7.5-13.8-8.3-21.8
		c0-0.1,0-0.1,0-0.2c-0.1-0.7-0.4-1-1.1-0.9c0.2-1.8,0.3-3.6,0.5-5.3c0.7,0,1.3,0,2-0.1c2.3-0.3,3.3,0.6,3.4,3.1
		c0.3,6.2,1.9,12.1,4.9,17.6c0.7,1.2,1,2.7,2.7,3c2,0.4,2.4,2.5,3.7,3.5c-0.3,0.4-0.6,0.8-0.9,1.3c1.4,2.1,3,3.9,5.2,5.2
		c0.2-0.1,0.4-0.2,0.5-0.4C95.8,61.3,95.9,61.6,95.9,61.9z"/>
	<path class="st1" d="M225.5,68.8c1.6-1.6,3.4-2.9,5.3-4c3.8,4.1,7.6,8.2,10.3,13.1c3.6,6.5,5.4,13.4,6,20.6
		c0.1,1.5,0.3,3.1-2.1,3.3c-2.3,0.2-3-0.5-3.2-2.8c-0.6-11.2-5.1-20.7-13-28.6C227.9,69.5,227,68.5,225.5,68.8z"/>
	<path class="st2" d="M20.7,61.6c-1.5,1-2.5,2.6-4.4,3.1C6.7,55.5,1.1,44.4,0.2,31c-0.1-2.1,0.2-3.3,2.7-3.2
		c1.7,0.1,2.1,0.8,2.3,2.4c0.6,8,2.9,15.4,7.3,22.1C14.9,55.7,17.7,58.8,20.7,61.6z"/>
	<path class="st2" d="M168.8,61.5c-1.3,1.1-2.7,2.2-4,3.3c-0.3-0.3-0.6-0.6-0.9-0.9c-1-1-2-2-3-3c-0.3,0.3-0.7,0.5-1,0.8
		c-0.2-0.2-0.5-0.5-0.7-0.7c-0.7-0.8-1.3-1.7-2-2.6c-0.2-0.3-0.4-0.5-0.7-0.8c0.3-0.4,0.4-0.8,0.5-1.4c-4.4-6.4-7.1-13.3-8.3-20.8
		c-0.2-1.3-0.4-2.6-0.5-3.9c0-1.1,0.1-2.3,0.1-3.4c0.9,0,1.8,0,2.6-0.1c1.6-0.2,2.2,0.4,2.3,2.2c0.5,7.8,2.6,15,6.9,21.6
		c2.1,0.7,3,2.8,4.5,4.1c-0.2,0.4-0.4,0.8-0.6,1.2c1.2,1.2,2.4,2.4,3.6,3.7C168.2,60.9,168.5,61.2,168.8,61.5z"/>
	<path class="st2" d="M172.9,97.5c-0.2,4-0.2,4-4.6,4c-0.7-8.4-2.5-16.5-7.3-23.6c-2.4-0.2-2.7-2.8-4.2-4c0.2-0.4,0.2-0.9,0.3-1.3
		c-1.3-1.3-2.6-2.6-3.9-4c-0.3,0-0.6,0-0.9,0c0,0,0,0,0,0c0-0.1-0.1-0.3-0.1-0.5c0.3-2.9,2-3.9,4.7-3.9h0.1c0.2,0.1,0.3,0.1,0.5,0.2
		c-0.1,0.3-0.2,0.6-0.3,0.9c0.9,0.9,1.9,1.9,2.8,2.8c0.2,0.1,0.3,0.3,0.5,0.5c1.1,1.7,2.3,3.3,3.9,4.7c0.1,0.2,0.3,0.4,0.4,0.6
		c4,6.2,6.9,12.8,7.9,20.1C172.7,95.2,172.8,96.4,172.9,97.5z"/>
	<path class="st1" d="M161,78c-4.4,5.4-6.2,11.8-7.2,18.5c0,0.3,0,0.6-0.1,1c-0.3,4.8-0.3,4.8-5.2,4.2c-0.2-1.4-0.4-2.8-0.6-4.1
		c0.3-0.7,0.6-1.4,0.7-2.1c0-0.2,0.1-0.5,0.1-0.7c1.1-7.4,3.8-14.1,7.8-20.4c0-0.1,0.1-0.1,0.1-0.2c0.2-0.4,0.2-0.9,0.3-1.3
		C159,74,160.1,75.9,161,78z"/>
	<path class="st1" d="M173.3,32.1c-0.3,1.2-0.5,2.3-0.8,3.5c-0.8,3.8-1.6,7.7-3.2,11.2c-1.4,3-3,6-4.5,9c-0.2,0.4-0.4,0.8-0.6,1.2
		c-1.7-1.4-3.2-3.1-3.9-5.3c2-0.9,2.5-2.9,3.3-4.6c2.3-4.7,3.6-9.7,4.2-15c0.4-4.3,0.5-4.3,5.1-4C173,29.3,173.2,30.7,173.3,32.1z"
		/>
	<path class="st2" d="M86.6,77.8c-4.2,5.9-6.2,12.6-7.1,19.7c-0.6,4.8-0.4,4.8-5.4,4.2c0.2-2,0.9-4,0.6-6.1c0-0.4,0.1-0.8,0.1-1.1
		c0.9-7.4,3.6-14,7.8-20.1c0.2-0.4,0.5-0.7,0.7-1.1C84.7,74.6,85.9,76,86.6,77.8z"/>
	<path class="st2" d="M99.1,28c-0.2,1.8-0.3,3.5-0.5,5.3c-0.1,0.7-0.1,1.3-0.2,2C97.5,42.5,94.9,49,90.9,55
		c-0.3,0.4-0.6,0.8-0.9,1.3c-1.1-1.5-3.2-2.4-2.8-4.8c4-6.6,6.4-13.7,6.6-21.5c0.1-1.8,0.8-2.3,2.4-2.2C97.1,27.9,98.1,27.9,99.1,28
		z"/>
	<path class="st3" d="M148.4,168c-0.9,2.1,0.1,3.8-1.4,5.9c-1-3.4-0.6-6.3-0.4-9.2c0-0.5,0.5-0.7,0.9-0.8c0.8,0,1.2,0.5,1.5,1.1
		c0.7,1.7,1.4,3.4,2.3,5.4c1.5-1.6,1.8-3.4,2.6-4.8c0.4-0.7,0.7-1.8,1.8-1.6c1.4,0.2,1.2,1.4,1.2,2.3c-0.1,2.4,0.5,4.9-0.5,7.6
		c-2.1-1.4-0.8-3.3-1.6-4.9c-1.2,0.4-1.2,1.6-1.6,2.5c-0.4,0.7-0.5,1.5-1.4,1.6c-1.2,0.1-1.3-1-1.7-1.7
		C149.5,170.5,149.1,169.5,148.4,168z"/>
	<path class="st3" d="M194.8,169.5c1-2.1-0.3-4.1,1.9-6.1c0.9,3.5,0.8,6.6,0.2,9.5c-0.3,1.4-1.5,0.5-2.2-0.2c-1-1.2-1.5-2.9-3-4.1
		c-1.2,1.4,0.1,3.7-1.9,5.2c-1-3.2-0.7-6.1-0.4-9c0.2-1.6,1.4-1,2.1-0.2C192.5,166.2,193.5,167.7,194.8,169.5z"/>
	<path class="st4" d="M47.3,167.5c0.7-1,0-2.2-0.9-2.9c-1.5-1.1-3.3-1.3-5-0.8c-1.8,0.5-1.3,2.3-1.4,3.6c-0.1,1.6,0,3.3,0.1,4.9
		c0,0.7,0.3,1.3,1.3,0.9c0.1-0.2,0.3-0.5,0.4-0.8c0.3-0.8-0.1-1.9,1-2.2c1.3-0.3,1.6,0.9,2.1,1.6c0.5,0.8,0.7,1.9,2.9,1.7
		C46.1,171.5,45.8,169.6,47.3,167.5z M44,168c-0.9,0-1.8,0.1-1.9-1.2c-0.1-1,0.6-1.3,1.4-1.3c0.9,0,1.9,0.1,2,1.2
		C45.6,167.7,44.8,168,44,168z"/>
	<path class="st5" d="M94.4,163.7c-2.9,0-5.2,2.3-5.1,5.2c0,2.9,2.4,5.1,5.3,5.1c2.9-0.1,5.1-2.4,5-5.3
		C99.5,166,97,163.7,94.4,163.7z M94.3,172.1c-2.1-0.1-3.1-1.4-3.1-3.6c0.2-1.9,1.2-3.1,3.3-3c2.1,0.1,3.2,1.5,3.1,3.4
		C97.6,170.9,96.5,172.2,94.3,172.1z"/>
	<path class="st6" d="M247.1,173.3c-2.5,0.9-4.7,1.2-6.7-0.1c-0.9-0.5-0.8-8.3,0.1-8.9c2.1-1.3,4.2-1,6.4-0.1
		c-0.4,1.6-1.6,1.1-2.5,1.2c-0.9,0.2-2.2-0.2-2.3,1.2c-0.1,1.5,1.1,1.3,2.1,1.4c0.7,0.1,1.6-0.1,1.9,0.9c-0.5,1.2-1.7,0.8-2.6,1
		c-0.6,0.1-1.4,0.2-1.4,1.1c0,1,0.8,1.2,1.6,1.2C244.7,172.4,245.9,171.8,247.1,173.3z"/>
	<path class="st5" d="M27.8,163.5c0.5,3.4,0.5,6.4,0.1,9.3c-0.2,1.5-1.5,0.8-2.1,0c-1.1-1.5-2.1-3.2-3.3-4.9c-1,2.1,0.3,4.2-1.7,6.3
		c-1-3.3-0.7-6.3-0.4-9.2c0.1-1.4,1.4-1.1,2.1-0.1c1,1.3,1.8,2.7,2.8,4.2C27.6,167.8,25.6,165.2,27.8,163.5z"/>
	<path class="st4" d="M68.6,163.7c-4.1,0.1-2.2,3.4-2.8,5c0,4.8,0.2,5.2,2.8,5.2c3.3,0.1,5.5-2,5.5-5.1
		C74,165.8,71.8,163.6,68.6,163.7z M69.5,172c-2.2,0-1.7-1.8-1.9-3.2c0.4-1.1-0.7-3.1,1.7-3.1c2,0,2.9,1.3,2.9,3.3
		C72.1,170.6,71.5,171.9,69.5,172z"/>
	<path class="st7" d="M200.9,163.9c1.7,1.1-0.1,4.1,3,4.2c3.2,0.1,1.8-2.9,3-4.2c1.8,2.3,1.8,7.3,0.1,9.7c-1.2-1-0.1-3.6-2.8-3.7
		c-2.9-0.1-1.9,2.7-3,3.9C199.4,171.6,199.3,166.6,200.9,163.9z"/>
	<path class="st5" d="M54.4,163.7c-2.8,0.1-5.1,2.4-5.1,5.1c0,2.9,2.4,5.2,5.3,5.2c2.7-0.1,5-2.3,5-5.1
		C59.6,166.1,57.2,163.6,54.4,163.7z M54.4,172.1c-2.2-0.1-3.1-1.4-3.1-3.4c0-2.1,1.2-3.3,3.3-3.2c2.1,0.1,3.1,1.3,3.1,3.5
		C57.5,171,56.5,172.2,54.4,172.1z"/>
	<path class="st8" d="M83,173c-2.3,1.3-5.6,1.3-6.5,0c-0.7-1-0.5-8.3,0.3-8.9c1-0.9,4.6-0.6,6.2,0.6c-0.6,1.1-1.7,0.7-2.6,0.8
		c-0.9,0.1-2.2-0.1-2.1,1.4c0.1,1.2,1.1,1.1,2,1.2c0.6,0.1,1.3-0.1,1.7,0.6c-0.1,0.9-0.9,0.7-1.5,0.8c-0.9,0.2-2.2-0.1-2.1,1.4
		c0.1,1.4,1.4,1,2.3,1.2C81.5,172.3,82.5,172,83,173z"/>
	<path class="st9" d="M222.7,168c-1.3,1.9,0.1,4.1-1.3,5.5c-1.1-1.2-1.8-7.7-0.9-8.8c0.9-1.1,1.7-0.4,2.4,0.4c1,1.4,2,2.8,3.1,4.5
		c1.5-1.7,0.1-3.8,1.2-5.3c0.9,1.1,1.5,7.9,0.7,8.8c-0.9,1-1.6,0.3-2.1-0.4C224.8,171.2,223.8,169.7,222.7,168z"/>
	<path class="st10" d="M125.8,163.7c-2.8,0-4.9,2.2-5,5c0,3,2.2,5.3,5.1,5.2c2.9,0,5.2-2.5,5.1-5.3
		C130.9,166.1,128.4,163.7,125.8,163.7z M125.9,172.3c-2.2,0.1-3.1-1.3-3.2-3.1c0.1-2.3,0.9-3.6,3.1-3.7c2.2,0,3.2,1.4,3.3,3.4
		C129.1,170.8,128,172.2,125.9,172.3z"/>
	<path class="st5" d="M217.8,164.4c-0.9,1.4-2,0.9-2.9,1.1c-0.9,0.1-1.9,0-1.9,1.3c0,1.2,0.9,1.3,1.8,1.4c0.6,0.1,1.3,0.1,1.8,0.7
		c-0.2,0.3-0.4,0.6-0.6,0.8c-0.9,0.7-3.2-0.3-2.9,1.8c0.2,1.6,1.9,0.9,3.1,0.9c0.5,0,1.1,0,1.4,0.6c-1.9,1.3-5.5,1.4-6.4,0.2
		c-0.6-0.8-0.6-8.6,0.2-8.9C213.5,163.5,215.6,163.4,217.8,164.4z"/>
	<path class="st11" d="M176.7,167.1c0.4-1.8-0.7-3-2.5-3.1c-1.6-0.1-3.9-1.2-4.5,1.1c-0.6,2.6-0.5,5.5,0.1,8.2c1,0,1.1-0.6,1.3-1.1
		c0.3-0.8,0.2-1.9,1.3-2c1.1-0.1,1.4,0.8,1.9,1.6c0.5,0.8,0.7,1.9,2.6,1.6C175.2,171.3,176.2,169.2,176.7,167.1z M173.1,168.1
		c-0.9,0-1.8,0-1.9-1.2c-0.1-1.1,0.5-1.6,1.6-1.5c1,0.1,2,0.1,2.2,1.3C174.9,168,174,168.1,173.1,168.1z"/>
	<path class="st12" d="M18,173.5c-2.6,0.4-4.8,1.2-6.8-0.5c-0.6-0.6-0.4-8.1,0-8.7c0.7-0.9,3.8-0.8,6.2,0.2c-0.8,1.3-2.1,0.8-3.2,1
		c-0.8,0.1-1.6,0.2-1.6,1.2c0,1,0.7,1.2,1.5,1.3c0.8,0.1,1.7,0,2.4,0.6c0.1,1.1-0.7,1.1-1.3,1.2c-1,0.2-2.6-0.2-2.5,1.3
		c0.1,1.8,1.8,1,2.9,1.1C16.4,172.3,17.2,172.2,18,173.5z"/>
	<path class="st13" d="M117.7,164.3c0.7,3,0.7,6,0.2,9.7c-1.5-1.8-0.8-4.3-3.7-4.2c-2.7,0.1-1.5,2.9-3.4,3.9
		c-0.7-3.3-0.7-6.3,0.1-9.8c1.8,1.6,0.7,4.9,3.9,4.2C116.1,167.8,116.2,167.9,117.7,164.3z"/>
	<path class="st14" d="M164.2,164.4c-0.5-1.1-1.6-0.8-2,0.2c-1.3,2.8-2.8,5.6-3,9.5c3.6-3.3,3.6-3.3,8.5-0.1
		C166.8,170.3,165.6,167.3,164.2,164.4z M162.8,169.6c-0.9-1-0.4-1.9,0.5-2.8c0.8,0.9,1.4,1.8,0.4,2.8
		C163.5,169.8,162.9,169.7,162.8,169.6z"/>
	<path class="st5" d="M132.9,172.9c1.1-1.1,1.8-0.6,2.6-0.6c0.9,0.1,1.9,0,2.2-0.9c0.4-1.2-0.8-1.4-1.6-1.6
		c-1.9-0.7-3.9-1.4-3.1-4.1c0.6-2,3.1-2.4,5.8-1c-0.2,1.1-1.1,0.7-1.8,0.8c-0.8,0.1-1.9-0.2-2.1,1.1c-0.1,0.9,0.8,1.2,1.5,1.4
		c1.6,0.5,3.2,1,3.4,3c0.1,1.2-0.5,2.1-1.7,2.6C136.4,174.3,134.7,174.3,132.9,172.9z"/>
	<path class="st5" d="M230.9,172.6c1.6-1.1,4.1,0.9,4.6-1.1c0.5-2.1-2.3-1.7-3.5-2.6c-1-0.8-1.4-1.7-1.2-2.9
		c0.2-1.2,1.1-1.9,2.2-2.2c1.4-0.4,2.7-0.2,3.9,0.8c-0.2,0.3-0.3,0.6-0.4,0.7c-1.1,0.6-3.1-0.6-3.4,1.1c-0.3,1.7,1.8,1.6,2.9,2.1
		c1.3,0.7,2.2,1.5,1.9,3c-0.3,1.5-1.4,2.2-2.8,2.4C233.5,174.1,232,174.1,230.9,172.6z"/>
	<path class="st3" d="M184,164.6c-0.5-1.2-1.7-1.3-2.2-0.1c-1.2,2.8-2.6,5.6-2.6,9.1c2.8-4,5.2-2.2,8,0.8
		C186.7,170.3,185.1,167.5,184,164.6z M183.3,169.7c-0.2,0.2-1,0.1-1.2-0.1c-0.8-1.1,0-1.9,0.7-3.4
		C183.5,167.9,184.5,168.7,183.3,169.7z"/>
	<path class="st14" d="M8.7,165.3c-3,0.4-6.1-0.5-6.4,3.3c-0.3,4.2,3.3,3.4,5.9,4c-2.3,1.8-4.5,1.7-6.4-0.1
		c-1.7-1.6-1.9-4.7-0.5-6.6C3,163.6,5.6,163.2,8.7,165.3z"/>
	<path class="st5" d="M29.8,164.3c3-1,5.4-0.9,8.2,0.2c-5.8,1.4-1.1,6.5-3.7,9.1c-1.6-0.8-1-2.3-1-3.4
		C33.2,166.2,33.2,166.2,29.8,164.3z"/>
	<path class="st8" d="M101.7,163.6c2.5,1.1,2,2.6,1.9,3.8c-0.1,2.7,0,5.1,3.7,5c0.3,0,0.5,0.3,0.9,0.6c-4.4,2.3-6.5,1.3-6.5-3.1
		C101.7,168,101.7,166,101.7,163.6z"/>
	<path class="st15" d="M164.6,73.9c-0.1-0.2-0.3-0.4-0.4-0.6"/>
	<path class="st2" d="M146.8,65.4c0.3,0.1,0.7,0.3,1,0.4c2.6-0.6,5.1-1.2,5.6-4.4c0,0,0-0.1,0-0.1c-0.1-0.1-0.1-0.1-0.2-0.2
		c-0.1,0.1-0.1,0.2-0.2,0.4c-1.7-0.1-2.9-1.4-4.3-2.2c-5.6-3.2-11.5-5.5-17.9-6.3c-0.7-0.1-1.4-0.1-2.1-0.2c-3.4-0.2-6.8-0.4-10.1,0
		c-0.9,0.1-1.9,0.2-2.8,0.3c-7.4,1-14.1,3.8-20.2,8c-0.2,0.1-0.4,0.2-0.5,0.4c-1.5,1.2-2.7,2.7-4.5,3.3c-0.2,0.2-0.4,0.4-0.6,0.6
		c-0.8,0.9-1.7,1.7-2.5,2.6c-0.3,0.3-0.6,0.6-0.9,0.9c1,1.4,1.8,3,3.4,3.9c0.2-0.2,0.5-0.5,0.7-0.7c1.5-1.3,2.9-2.7,4.4-4
		c0.3,0.3,0.7,0.5,1,0.8c1-1.5,3-1.8,4.2-3c0.1,0,0.1-0.1,0.2-0.1c-0.4-0.3-0.9-0.6-1.3-0.8c16.1-9.9,32.3-10,48.4-0.1L146.8,65.4z"
		/>
	<path class="st16" d="M157.2,58.3c-0.3,1.7-1.5,2.6-3.8,3.1c-0.1,0-0.3,0.1-0.4,0.1c0.1-0.1,0.1-0.3,0.2-0.4
		c0.9-1.4,2.4-2.2,3.3-3.6c0.3-0.4,0.4-0.8,0.5-1.4C157.3,57,157.3,57.7,157.2,58.3z"/>
	<path class="st17" d="M160.9,60.9c-0.3,0.3-0.7,0.5-1,0.8c-1,0.8-2,1.6-2.6,2.9c-0.1,0.3-0.2,0.6-0.3,0.9c-0.1-0.4-0.2-0.7-0.2-1.1
		c-0.3-1.9,0.6-3.1,2.4-3.4C159.7,60.9,160.3,60.8,160.9,60.9z"/>
	<path class="st1" d="M160.9,60.9c-0.3,0.3-0.7,0.5-1,0.8c-1,0.8-2,1.6-2.6,2.9c-0.1,0.3-0.2,0.6-0.3,0.9c-1.9,0.4-3.5,1.2-4,3.3
		c-0.3,0-0.6,0-0.9,0c0,0,0,0,0,0c-0.7,0.1-1.3,0.4-1.9,0.8c-6,3.8-12.4,6.4-19.5,7.2c-0.1,0-0.2,0-0.3,0.1h0
		c-0.7,0.1-1.2,0.4-1.6,1c-3.6-0.9-7.2-0.5-10.8,0c-0.5-0.7-1.1-0.9-1.8-1.1c-0.3-0.1-0.7-0.1-1.1-0.2c-6.9-1.3-13.3-3.6-19-7.7
		c-0.3-0.3-0.7-0.5-1-0.8c1-1.6,2.4-2.6,4.1-3.2c0.4,0.3,0.9,0.6,1.3,0.8c2.5,1.6,5.2,2.9,8.1,3.8c13.4,4.4,26.2,3.6,38.1-4.1
		l0.9-0.6c1.8-1.1,3.5-2.2,5.3-3.3c0.1-0.1,0.1-0.3,0.2-0.4c0.9-1.4,2.4-2.2,3.3-3.6c0.3-0.4,0.4-0.8,0.5-1.4
		C158.7,57.5,159.8,59.2,160.9,60.9z"/>
	<path class="st18" d="M147.8,64.8c-0.3,0.2-0.6,0.4-0.9,0.6L147.8,64.8z"/>
</g>
</svg>
