<?xml version="1.0" encoding="utf-8"?>
<!-- Generator: Adobe Illustrator 25.2.1, SVG Export Plug-In . SVG Version: 6.00 Build 0)  -->
<svg version="1.1" id="Camada_1" xmlns="http://www.w3.org/2000/svg" xmlns:xlink="http://www.w3.org/1999/xlink" x="0px" y="0px"
	 viewBox="0 0 247.2 202.1" style="enable-background:new 0 0 247.2 202.1;" xml:space="preserve">
<style type="text/css">
	.st0{fill:#04948D;}
	.st1{fill:#5B366B;}
	.st2{fill:#5B376A;}
	.st3{fill:#5A3869;}
	.st4{fill:#07948C;}
	.st5{fill:#07948D;}
	.st6{fill:#08948C;}
	.st7{fill:#06948C;}
	.st8{fill:#08938C;}
	.st9{fill:#59396B;}
	.st10{fill:#5C3869;}
	.st11{fill:#5B3868;}
	.st12{fill:#5B386A;}
	.st13{fill:#5A3969;}
	.st14{fill:#05958B;}
	.st15{fill:#5B3869;}
	.st16{fill:#07948B;}
	.st17{fill:#5A3868;}
	.st18{fill:#9C7EAC;}
	.st19{fill:#5A3A69;}
	.st20{fill:#593969;}
	.st21{fill:#07948A;}
	.st22{fill:#9F84AB;}
	.st23{fill:#5A3A67;}
	.st24{fill:#5A396A;}
	.st25{fill:#593968;}
	.st26{fill:#A487B0;}
	.st27{fill:#5B3967;}
	.st28{fill:#5A3A6A;}
	.st29{fill:#5B396A;}
	.st30{fill:#5B3B6A;}
	.st31{fill:#593A69;}
	.st32{fill:#583B68;}
	.st33{fill:#5A3B68;}
	.st34{fill:#593B6A;}
	.st35{fill:#A383AD;}
	.st36{fill:#5A3968;}
	.st37{fill:#5B3A68;}
	.st38{fill:#5B3A69;}
	.st39{fill:#5D396B;}
	.st40{fill:#F9FAFC;}
	.st41{fill:#593B67;}
	.st42{fill:#06948F;}
	.st43{fill:#5A3A68;}
	.st44{fill:#358192;}
	.st45{fill:#5A3B69;}
	.st46{fill:#9D7FAC;}
	.st47{fill:#5C3A6C;}
	.st48{fill:#5C3A6B;}
	.st49{fill:#5A3C69;}
	.st50{fill:#5B3A6B;}
	.st51{fill:#5D3A6A;}
	.st52{fill:#5B3B6B;}
	.st53{fill:#5D3B6C;}
	.st54{fill:#5D3B69;}
	.st55{fill:#0F958B;}
	.st56{fill:#0C948A;}
	.st57{fill:#249597;}
	.st58{fill:#9A84B0;}
	.st59{fill:#9B79AE;}
	.st60{fill:#9D84B2;}
	.st61{fill:#189592;}
	.st62{fill:#10938E;}
	.st63{fill:#10948E;}
	.st64{fill:#0F928B;}
	.st65{fill:#12948F;}
	.st66{fill:#139292;}
	.st67{fill:#977AAD;}
	.st68{fill:#0E9592;}
	.st69{fill:#0B958E;}
	.st70{fill:#0C948E;}
	.st71{fill:#987BAF;}
	.st72{fill:#A686B0;}
	.st73{fill:#9C86AB;}
	.st74{fill:#9785AF;}
	.st75{fill:#19948D;}
	.st76{fill:#1E968B;}
	.st77{fill:#1A9387;}
	.st78{fill:#19938B;}
	.st79{fill:#1A938D;}
	.st80{fill:#15958B;}
	.st81{fill:#1B928D;}
	.st82{fill:#10938A;}
	.st83{fill:#1A938B;}
	.st84{fill:#1C9A90;}
	.st85{fill:#239892;}
	.st86{fill:#1C958A;}
	.st87{fill:#1D958F;}
	.st88{fill:#1D998F;}
	.st89{fill:#19988D;}
	.st90{fill:#17978A;}
	.st91{fill:#17948E;}
	.st92{fill:#12938B;}
	.st93{fill:#9A94B4;}
	.st94{fill:#16988D;}
	.st95{fill:#9F9BBC;}
	.st96{fill:#988FB4;}
	.st97{fill:#9D84AF;}
	.st98{fill:#5D4467;}
	.st99{fill:#5E4269;}
	.st100{fill:#2C9694;}
	.st101{fill:#A48BB1;}
	.st102{fill:#20968E;}
	.st103{fill:#209991;}
	.st104{fill:#1C988D;}
	.st105{fill:#22968F;}
	.st106{fill:#1E9289;}
	.st107{fill:#18998C;}
	.st108{fill:#1E988B;}
	.st109{fill:#189487;}
	.st110{fill:#958CAE;}
	.st111{fill:#A68AAE;}
	.st112{fill:#15978F;}
	.st113{fill:#558E9B;}
	.st114{fill:#22958A;}
	.st115{fill:#7987A5;}
	.st116{fill:#1C968B;}
	.st117{fill:#249285;}
	.st118{fill:#907FA7;}
	.st119{fill:#A7A2BC;}
	.st120{fill:#A685AF;}
	.st121{fill:#B090B5;}
	.st122{fill:#A39DB7;}
	.st123{fill:#A298B1;}
	.st124{fill:#A3A0B7;}
	.st125{fill:#A48BB8;}
	.st126{fill:#9F93AB;}
	.st127{fill:#A29DBB;}
	.st128{fill:#AC91B1;}
	.st129{fill:#9B97B5;}
	.st130{fill:#808AA6;}
	.st131{fill:#A993AE;}
	.st132{fill:#B097B5;}
	.st133{fill:#B491B0;}
	.st134{fill:#A591AE;}
	.st135{fill:#918EAE;}
	.st136{fill:#AA93B0;}
	.st137{fill:#8F93AB;}
	.st138{fill:#9499B4;}
	.st139{fill:#8F95AD;}
	.st140{fill:#55A391;}
	.st141{fill:#8E97A8;}
	.st142{fill:#3EA298;}
	.st143{fill:#528E8A;}
	.st144{fill:#498A89;}
	.st145{fill:#498580;}
	.st146{fill:#259081;}
	.st147{fill:#AC9FAE;}
	.st148{fill:#02948D;}
	.st149{fill:#FBFBFB;}
	.st150{fill:#FAFAFC;}
	.st151{fill:#FAFBFB;}
	.st152{fill:#FBFAFC;}
	.st153{fill:#F9FBFC;}
	.st154{fill:#F6F5F8;}
	.st155{fill:#F8F8FB;}
	.st156{fill:#EEF3F7;}
	.st157{fill:#F8F9FB;}
	.st158{fill:#E6F5F9;}
	.st159{fill:#9FA3BF;}
	.st160{fill:#8C86A8;}
	.st161{fill:#E0F1F6;}
	.st162{fill:#E2F0F7;}
	.st163{fill:#807AA5;}
	.st164{fill:#8F7DA6;}
	.st165{fill:#8F8AAA;}
	.st166{fill:#8D90AC;}
	.st167{fill:#9D92B2;}
	.st168{fill:#A29DB3;}
	.st169{fill:#D7EBF0;}
	.st170{fill:#E6EAF8;}
	.st171{fill:#F8FBFA;}
	.st172{fill:#F9FBFB;}
	.st173{fill:#F7FBFC;}
	.st174{fill:#FDFDFD;}
	.st175{fill:#0D958F;}
	.st176{fill:#FDFCFC;}
	.st177{fill:#FDFBFC;}
	.st178{fill:#FCFCFB;}
	.st179{fill:#EFE5F0;}
	.st180{fill:#EBE1EF;}
	.st181{fill:#F6EEF6;}
	.st182{fill:#F5ECF4;}
	.st183{fill:#0B928D;}
	.st184{fill:#A488AE;}
	.st185{fill:#A085A7;}
	.st186{fill:#EFF7FA;}
	.st187{fill:#A489AF;}
	.st188{fill:#AAA0B5;}
</style>
<g>
	<path class="st0" d="M81.5,58.6c-0.3-0.8-0.8-1.4-1.3-2.1c-0.5-0.6-1.1-1.1-2-1.1c-0.7,0-1.5-0.2-1.8-1c-0.1-0.2,0-0.4,0-0.6
		c0-0.3,0.2-0.6,0.4-0.6c1.2,0.2,1.1-1.6,2.3-1.5c0.6,0.1,1.2,0.5,1.1,1.1c-0.5,2,1.1,2.9,2,4.4c0.2-1.6,0.4-3.1,0.8-4.5
		c0.1-0.4-0.1-0.6-0.2-0.9c-0.2-0.5-0.5-0.9-0.7-1.4c-0.2-0.6,0-1.2,0.6-1.5c0.5-0.3,1-0.2,1.4,0.3c0.2,0.3,0.5,0.3,0.8,0.3
		c0.6-0.1,1,0,1.2,0.7c0.2,0.6,0,1.1-0.5,1.5c0,0-0.1,0.1-0.1,0.1c-2.1,0.5-2.1,2.2-2.3,3.8c-0.3,2.3-0.7,4.6-0.3,7
		c0.6-0.2,0.9-0.6,1.1-1c0.2-0.5,0.6-0.9,1.2-1c1.3-0.9,2.1-1.9,1.5-3.5c-0.2-0.6-0.5-0.9-0.9-1.3c-0.5-0.5-1-1-0.7-1.8
		c0.2-0.5,0.8-1,1-0.8c0.9,0.9,2.5-0.9,3,0.9c0.3,0.9-0.4,1.6-1,2c-0.9,0.6-0.8,1.3-0.7,2.2c0.1,0.5,0.3,0.6,0.7,0.3
		c0.8-0.5,1.4-1.2,2.3-1.5c0.3-0.1,0.2-0.5,0.2-0.7c0-0.5,0-1,0.1-1.5c0.1-0.6,0.6-1,1.3-1c0.6,0,1,0.4,1,1c0,0.4,0.2,0.5,0.5,0.6
		c0.5,0.1,0.8,0.5,0.8,1c0,0.6-0.4,1-0.9,1.2c-0.2,0.1-0.5,0.2-0.7,0.1c-1.6-0.5-2.7,0.4-3.9,1.2c-0.5,1-1.6,1.2-2.3,2
		c-1,0.8-2,1.5-2.7,2.7c0,0.1-0.1,0.2-0.2,0.3c-0.4,0.6-0.5,1.3-0.4,2.1c0.2,1.6,0,3.3,0.5,4.9c0.6,0.4,1.1-0.3,1.6-0.1
		c1.1,0.6,2,0.1,2.9-0.5c0.8-0.6,1.6-1,2.5-1.4c0.5-0.2,0.9-0.5,1.3-0.8c0.2-0.2,0.3-0.3,0.5-0.5c0.2-0.8,1-1.4,0.3-2.3
		c-0.5-0.6-1.2-1.2-0.8-2.1c0.5-0.7,1-1.1,1.8-0.5c0.2,0.1,0.4,0.3,0.5,0c0.5-0.9,1-0.2,1.4,0c0.5,0.3,0.7,0.9,0.4,1.5
		c-0.2,0.5-0.6,0.8-1,1.2c-0.4,0.6-0.6,1.2-0.8,1.9c0.8,0.1,1.3-0.5,2.1-0.6c0.6-0.5,1.1-1.1,1.5-1.7c0.6-0.8,0.9-1.7,0.4-2.7
		c-0.2-0.4-0.2-0.8-0.2-1.2c0.1-0.6,0.5-0.9,1-1.1c0.5-0.1,0.9,0.1,1.1,0.6c0.1,0.3,0.2,0.5,0.7,0.4c0.6-0.1,1,0.2,1.1,0.8
		c0.1,0.6-0.1,1.3-0.6,1.4c-2,0.3-2.1,2.1-3.3,3.5c1.8-0.4,3.4-0.7,5-0.8c0.3,0,0.4-0.3,0.6-0.5c0.4-0.4,0.8-0.9,1.3-1.2
		c0.5-0.4,1.1-0.3,1.5,0.1c0.4,0.4,0.5,0.8,0.2,1.3c-0.3,0.3-0.2,0.6,0,0.9c0.3,0.4,0.3,0.9-0.1,1.2c-0.4,0.4-0.8,0.6-1.3,0.4
		c-0.3-0.1-0.6-0.2-0.8-0.5c-0.8-1.2-1.8-1-2.9-0.8c-2.5,0.4-4.9,1.1-7.3,1.9c-0.3,0.1-0.5,0.2-0.8,0.5c1.5,0.7,3,1.5,4.5,2.3
		c0.2,0.1,0.5,0,0.7-0.1c1.2-0.5,2.4-1.1,3.3-2.1c0.4-0.4,0.7-0.7,1.3-0.7c0.2,0,0.4,0,0.6,0.1c0.3,0.2,0.8,0.6,0.5,0.9
		c-0.8,0.9,0.8,2.2-0.5,2.9c-0.8,0.5-1.4,0-2-0.5c-1.2-1.1-1.8-1.1-3.2,0c0.9,0.7,1.8,1.4,2.6,2.2c0.4,0.3,0.7,0.2,1.1,0.1
		c0.4-0.2,0.8-0.3,1.3-0.4c0.7-0.1,1.2,0.2,1.4,0.8c0.2,0.6,0,1.1-0.6,1.4c-0.3,0.1-0.4,0.3-0.3,0.6c0.1,0.6-0.2,1.1-0.8,1.2
		c-0.7,0.2-1.2-0.2-1.5-0.7c-0.2-0.3-0.3-0.6-0.3-1c-0.1-0.7-0.4-1.3-1.1-1.7c-0.1,0-0.1,0-0.1-0.1c-0.7-0.6-1.5-1.2-2.3-1.6
		c-0.3-0.1-0.6-0.3-0.9-0.5c-0.3-0.2-0.7-0.5-1.1-0.7c-0.6-0.3-1.2-0.6-1.8-0.9c-1.5-0.9-2.9-0.5-4.2,0.3c-0.4,0.2-0.8,0.4-1.2,0.6
		c-1.2,0.4-2,1.1-2.1,2.4c-0.1,0.2-0.2,0.4-0.3,0.5c-0.5,0.5-0.5,0.8,0.1,1.2c1.3,1.1,2.5,2.4,3.7,3.6c0.4,0.5,0.7,1,1.4,1.1
		c0.2,0.1,0.4,0.1,0.7,0.1c0.2,0,0.4,0,0.6,0c0.4,0,0.9,0,1.3-0.2c0.8-0.3,0.9-1.1,1.3-1.7c0.5-0.8,1.2-1,2-0.8c1,0.7,1,0.9,0.5,1.8
		c-0.1,0.1,0,0.3,0.1,0.4c0.6,0.4,0.7,1,0.3,1.6c-0.5,0.6-1.2,0.7-1.8,0.3c-0.9-0.6-1.8-0.5-2.7-0.4c-0.2,0.1-0.4,0-0.6,0
		c-0.2,0-0.4,0.1-0.4,0.2c-0.1,0.2,0.1,0.4,0.3,0.5c0.7,0.5,1.2,1.1,1.8,1.6c0.6,0.2,1.2,0.4,1.8,0.6c1,0.3,2,0.4,2.8-0.5
		c0.3-0.3,0.7-0.5,1.2-0.5c0.5,0,0.9,0.1,1.2,0.6c0.3,0.5,0.2,0.9-0.2,1.2c-0.3,0.3-0.4,0.5-0.2,0.9c0.2,0.5,0,0.9-0.4,1.2
		c-0.4,0.3-0.8,0.4-1.3,0.1c-0.2-0.1-0.3-0.2-0.4-0.3c-0.4-0.5-0.6-1.1-1-1.6c-0.5-0.6-1.2-0.1-1.8-0.3c-0.6-0.2-1.2-0.2-1.9-0.4
		c1,1.6,2,3.1,2.8,4.8c0.3,0.6,1.1,0.6,1.6,0.9c0.6,0.4,1.1,0.8,0.9,1.7c-0.1,0.4-0.4,0.8-0.7,0.7c-1.1-0.5-1.7,1.2-2.8,0.6
		c-0.8-0.5-0.9-1.3-0.4-1.9c1-1.3,0.4-2.4-0.3-3.6c-0.8-1.2-1.6-2.4-2.4-3.6c-0.6-0.3-0.9-0.9-1.2-1.4c-0.3-0.5-0.7-0.9-1.3-1.4
		c-0.1,1.7-0.6,3.4-0.3,4.9c0.2,1.3,1.5,2.3,2.7,3c0.3,0.2,0.7,0.3,1,0.5c0.5,0.3,0.7,0.8,0.6,1.4c-0.2,0.6-0.7,0.9-1.3,0.7
		c-0.4-0.1-0.5,0-0.8,0.3c-0.3,0.4-0.8,0.6-1.3,0.3c-0.5-0.3-0.7-0.7-0.7-1.3c0.1-0.5,0.2-0.9,0.5-1.3c0.8-0.9,0.5-1.7-0.3-2.4
		c-0.2-0.2-0.4-0.4-0.7-0.6c-0.5,1.4-1,2.7-1.5,4c-0.1,0.4,0.1,0.6,0.3,0.8c0.3,0.4,0.6,0.7,0.8,1.2c0.2,0.6,0.1,1.2-0.4,1.6
		c-0.5,0.4-1,0.3-1.4-0.2c-0.2-0.3-0.4-0.2-0.7-0.1c-0.5,0.3-1,0.2-1.3-0.3c-0.3-0.5-0.4-1-0.1-1.5c0.1-0.1,0.2-0.3,0.3-0.4
		c2-0.8,2.3-2.7,2.8-4.5c0.3-1,0.5-1.9,0.7-2.9c-0.1-0.6-0.1-1.1,0.3-1.7c0.3-1.7,0-3.1-1.4-4.3c-1-0.9-1.9-2-2.8-3
		c-0.8-0.8-1-0.8-1.6,0.3c-0.3,0.4-0.3,0.9-0.2,1.4c0.3,2.7,0.2,5.4,0.1,8.1c0,0.4-0.2,0.7-0.6,0.7c-1-0.2-0.6-1-0.7-1.6
		c-0.2,0.3-0.5,0.5-0.9,0.5c-0.4-0.1-0.6-0.3-0.8-0.6c-0.6-1.2-0.6-1.6,0.6-2.1c0.8-0.3,0.9-0.8,0.8-1.5c-0.1-0.6,0-1.3-0.1-2.1
		c-0.9,1.5-1.8,3-2.4,4.5c-0.3,0.8,0,1.6,0.4,2.4c0.3,0.4,0.7,0.5,1.1,0.5c0.5,0.1,0.9,0.2,1.3,0.6c0.3,0.3,0.6,0.6,0.5,1.1
		C82.9,88.3,82.8,89,82,89c-0.2,0-0.5-0.1-0.6,0.2c-0.2,0.7-0.7,1-1.5,0.7c-0.7-0.3-1-0.9-0.7-1.5c0.5-1.3,0.1-2.4-0.4-3.6
		c-0.7,0.2-0.6,0.9-0.9,1.3c-0.2,0.4-0.3,0.8-0.7,1.1c-0.1,0.9-0.1,1.8,0.1,2.7c0.5,0.1,1,0.1,1.3,0.7c0.6,0.4,1.1,0.9,0.9,1.7
		c-0.1,0.3-0.4,0.8-0.6,0.7c-1.1-0.5-1.7,1.3-2.8,0.5c-0.6-0.4-0.7-1.1-0.4-1.6c0.9-1.3,0.5-2.7,0.5-4.4c-0.9,1-1.6,1.8-2.5,2.5
		c-0.6,0.6-1.1,1.1-0.9,2c0.1,0.4,0,0.8-0.1,1.2c-0.1,0.6-0.6,0.8-1.2,0.9c-0.5,0-0.9-0.2-1-0.7c-0.1-0.4-0.2-0.7-0.7-0.7
		c-0.5-0.1-0.7-0.4-0.7-0.9c0-0.5,0.2-1,0.7-1.2c0.5-0.2,1-0.3,1.4-0.2c0.9,0.2,1.5-0.2,2-0.8c0.7-0.9,2-1.4,2.2-2.8
		c0-0.1,0.9-0.4,1.1-0.8c0.4-0.5,0.5-1.2,1.2-1.5c0.1-0.5,0.6-0.8,0.6-1.4c-1.5,0.3-3.1,0.3-4.5,0.7c-1.1,0.3-1.4,1.7-1.6,2.8
		c-0.1,0.4,0,0.9,0,1.4c0,0.7-0.4,1.2-1.1,1.3c-0.7,0.1-1.1-0.3-1.2-1c0-0.4-0.3-0.4-0.5-0.5c-0.5-0.1-0.9-0.4-0.9-1
		c0-0.6,0.3-1,0.8-1.2c0.4-0.2,0.9-0.2,1.3-0.1c1.1,0.2,1.5-0.6,1.9-1.3c0.2-0.4,0.1-0.6-0.4-0.7c-0.5,0-1-0.1-1.5-0.1
		c-1.1-0.2-2.1,0-2.7,1.1c-0.4,0.7-1.1,1.1-2,0.5c-0.3-0.2-0.6-0.5-0.4-0.7c0.7-1-0.7-2,0.1-2.8c0.5-0.6,1.2-0.5,1.8-0.1
		c0.4,0.1,0.8,0.3,0.9,0.8c0.2,0.2,0.3,0.4,0.5,0.5c1.8,0.4,3.7,0.4,5.6,0.3c0.3,0,0.4-0.3,0.4-0.4c0-0.5-0.5,0.2-0.6-0.3
		c0.4-0.2,0.8-0.9,1.1,0.2c0.1,0.3,0.3,0.4,0.6,0.4c1.6-0.2,3.2-0.4,4-2.1c0.5-1,1.2-2,1.8-3c1-1.6,0.9-1.8-0.5-3
		c-0.3-0.2-0.6-0.3-0.9-0.5c-0.4-0.4-0.9-0.5-1.5-0.6c-1.4-0.2-2.9-0.5-4.2-0.9c-0.6-0.2-1.3-0.2-1.9-0.1c-0.4,0.2-0.8,0.3-1,0.7
		c-1,0.1-1.2,0.4-0.9,1.3c0.2,0.6,0.1,1.2,0,1.8c-0.1,0.5-0.5,0.8-1,0.9c-0.5,0.1-0.9-0.1-1.1-0.6c-0.1-0.3-0.2-0.5-0.6-0.5
		c-0.6,0-1.1-0.3-1.1-1c0-0.7,0.4-1.2,1.1-1.3c1-0.2,1.9-0.5,2.6-1.2c0.1-0.1,0.1-0.3,0.2-0.4c0.2-0.2,0.7-0.4,0-0.6
		c-0.2-0.1-0.4-0.1-0.6-0.1c-0.8-0.2-1.5-0.1-2.3-0.2c-1.1,0.1-2,0.5-2.7,1.3c0,0.5,0.2,1-0.2,1.4c-0.2,0.5-0.4,1-1,1.2
		c-0.6,0.2-1.3,0.1-1.4-0.5c-0.1-0.7-0.5-1.2-1-1.6c-0.3-0.3-0.2-0.7-0.1-1.1c0.3-0.5,0.8-0.9,1.3-0.7c1.5,0.6,2.6-0.5,3.8-0.9
		c0.2-0.1,0.4-0.1,0.4-0.4c0-0.3-0.2-0.3-0.4-0.4c-0.8-0.4-1.7-0.8-2.5-1.3c-0.6-0.3-1.1-0.4-1.7-0.2c-0.6,0.2-1.2,0.3-1.8,0.3
		c-0.6,0-1-0.3-1.1-0.9c-0.2-0.6,0-1.1,0.6-1.3c0.4-0.1,0.5-0.3,0.5-0.7c0-0.6,0.3-1,0.9-1c0.6,0,1.2,0.2,1.3,0.8
		c0.1,1.9,1.6,2.3,2.9,3c2,1,4.1,1.9,6.3,2.4c0.3,0.1,0.5,0.1,0.9,0c-0.9-1.4-1.6-2.8-2.2-4.3c-0.2-0.5-0.6-0.5-1-0.6
		c-1.2-0.2-2.3-0.3-3.5,0.1c-1,0.3-2-0.2-1.8-1c0.2-1,0.9-1.8,1.5-2.7c0.4-0.5,1.2-0.2,1.7,0.5c0.3,0.4,0.3,0.8,0.4,1.3
		c0.1,0.4,0.1,0.8,0.5,0.9c0.6,0.1,1.2,0.6,1.7,0.2c0.4-0.3-0.2-0.9-0.2-1.3c0-0.3-0.2-0.6-0.2-0.9c-0.1-1.1-0.7-1.5-1.7-1.7
		c-1-0.2-1.6-1-1.3-1.8c0.1-0.3,0.3-0.7,0.5-0.6c1.2,0.4,1.5-1.4,2.6-1c0.7,0.2,0.9,0.8,0.9,1.5c-0.1,0.6-0.1,1.4-0.3,1.9
		c-0.4,1.2,0.3,2.1,0.4,3.2c0.3,0.3,0.4,0.7,0.6,1c0.3,0.6,0.5,1.2,0.7,1.8c0.3,0.6,0.6,1.1,0.8,1.7c0.7,1.6,1.9,2.5,3.7,2.7
		c0.5,0,0.9,0.2,1.4,0.3c1.4,0.3,1.4,0.3,1.9-0.9c0.2-0.3,0.5-0.6,0.8-0.8c1.4-0.5,1.4-0.5,1.1-1.9c-0.2-1.5-0.3-3-0.5-4.5
		c-0.1-1.1-0.7-1.8-1.7-2.1c-0.6-0.3-1-0.1-1.5,0.2c-0.7,0.5-1.7,0.3-2.3-0.2c-0.6-0.6-0.7-1.3-0.1-1.9c0.1-0.1,0.1-0.1,0.2-0.2
		c0.2-0.2,0.3-0.4,0.2-0.6c-0.1-0.4,0.1-0.6,0.4-0.7c1-0.7,1.7-0.5,2.3,0.5c0.3,0.5,0.2,1.1,0.8,1.4c0.6,0,0.9,0.4,1.3,0.7
		c0.2,0.1,0.3,0.3,0.5,0.4c0.1-0.3,0-0.7,0-1C81.6,59.8,81.5,59.2,81.5,58.6z"/>
	<path class="st1" d="M215.7,98.7c0,0.4,0,0.9,0,1.4c0,0.5,0.1,1-0.8,1c-0.8,0-0.7-0.4-0.7-0.9c-0.6-23.8-9.3-44.4-25.7-61.6
		c-1.8-1.8-3.6-3.6-5.6-5.2c-0.8-0.6-0.3-1,0-1.5c0.5-0.6,0.7,0.1,0.9,0.3c15.8,13.8,25.8,31,30.1,51.5c0.4,2.1,0.8,4.3,1,6.5
		C215.4,93,215.6,95.7,215.7,98.7z"/>
	<path class="st2" d="M31.8,95.3c0.7-9.1,2.6-17.9,5.9-26.4C42.9,55.1,51.1,43.3,62,33.4c0.3-0.2,0.6-0.4,0.8-0.7
		c0.5-0.5,0.7-0.3,1.1,0.1c0.5,0.5,0.2,0.7-0.2,1C51.3,44.9,42.4,58.3,37.3,74.2c-2.3,7-3.6,14.3-4.1,21.6c0,0.7-0.4,0.7-0.9,0.7
		c-0.7,0-0.6-0.3-0.6-0.8C31.7,95.6,31.7,95.4,31.8,95.3z"/>
	<path class="st3" d="M209.7,122.9c1.7,0.4,3.4,0.8,5.1,1.2c0.4,0.1,1,0,0.8,0.8c-0.2,0.7-0.6,0.4-1,0.3c-2.1-0.5-4.3-1-6.4-1.5
		c-0.3-0.1-0.9,0-0.9-0.5c0-0.5,0.3-0.8,0.8-1c2.3-0.9,4.5-1.8,7-2.9c-1.9-0.5-3.7-0.9-5.4-1.3c-0.9-0.2-1.1-0.4-0.9-1.4
		c0.3-1.3,0.4-2.7,0.5-4c0-0.4-0.1-0.8,0.6-0.7c0.6,0.1,0.4,0.5,0.3,0.8c-0.2,1,0,1.4,1.1,1.4c1.8,0.1,3.6,0.4,5.4,0.6
		c0.4,0.1,0.9,0,0.7,0.7c-0.1,0.7-0.6,0.4-0.9,0.3c-2-0.2-3.9-0.4-5.9-0.7c-0.8-0.1-0.8,0.4-0.9,0.9c-0.1,0.5-0.2,1,0.6,1.2
		c1.9,0.4,3.8,0.9,5.7,1.3c0.3,0.1,0.8,0,0.8,0.4c0,0.5-0.1,0.9-0.7,1.2c-2.1,0.8-4.1,1.7-6.2,2.5
		C210,122.6,209.8,122.6,209.7,122.9z"/>
	<path class="st4" d="M86.3,23.9c-0.8,0.8-1.5,0.7-2.2,0.2c-0.6-0.4-1.3-0.8-1.9-1.2c-0.5-0.3-0.9-0.1-1.2,0.2
		c-0.5,0.3,0,0.6,0.1,0.9c0.2,0.5,0.5,1.1,0.8,1.6c0.2,0.4,0.3,0.6-0.2,0.9c-0.5,0.3-0.7,0.1-1-0.3c-1.3-2.6-2.6-5.2-4-7.8
		c-0.3-0.5-0.2-0.7,0.3-1c0.7-0.3,1.3-0.7,2-1c1.4-0.6,2.9-0.2,3.8,0.8c1,1.2,1.2,2.5,0.5,3.9c-0.4,0.8-0.2,1.1,0.5,1.4
		C84.6,22.8,85.4,23.4,86.3,23.9z"/>
	<path class="st5" d="M175.1,30.4c0-0.6,0-1.1,0-1.7c0-0.5-0.4-0.7-0.7-0.8c-0.4-0.2-0.5,0.2-0.7,0.4c-0.4,0.5-0.7,1-1.1,1.5
		c-0.3,0.4-0.5,0.5-0.9,0.2c-0.4-0.3-0.5-0.5-0.2-0.9c1.7-2.4,3.5-4.9,5.2-7.3c0.2-0.3,0.5-0.4,0.8-0.1c0.6,0.4,1.2,0.8,1.8,1.3
		c1,0.8,1.5,2.4,1.2,3.7c-0.4,1.3-1.6,2.4-3.1,2.4c-1,0-1.2,0.4-1.2,1.3c0,0.6,0,1.2-0.1,1.8c0,0.3,0.2,0.9-0.2,0.9
		c-0.4,0-1-0.3-1-1c0-0.5,0-1,0-1.6C175,30.4,175.1,30.4,175.1,30.4z"/>
	<path class="st6" d="M131.1,15.6c-1,0.3-1.6,0-2-0.8c-0.4-0.7-0.8-1.4-1.2-2.1c-0.3-0.5-0.7-0.5-1.1-0.5c-0.5,0.1-0.3,0.6-0.3,0.9
		c-0.1,0.6-0.1,1.2-0.1,1.8c0,0.5-0.2,0.7-0.7,0.7c-0.5,0-0.6-0.2-0.6-0.7c0.1-2.9,0.2-5.8,0.2-8.8c0-0.6,0.3-0.8,0.8-0.7
		c0.6,0.1,1.2,0.1,1.8,0.1c1.6,0.1,2.8,1,3.3,2.5c0.4,1.4-0.1,2.9-1.4,3.7c-0.7,0.4-0.7,0.7-0.3,1.3
		C130.1,13.8,130.6,14.6,131.1,15.6z"/>
	<path class="st7" d="M171.2,23.3c-0.2,0.3-0.2,1-0.9,0.5c-0.9-0.5-1.8-1-2.7-1.6c-0.4-0.2-0.6-0.2-0.8,0.2c0,0.1-0.1,0.1-0.1,0.2
		c-0.4,0.8-1.2,1.6-1.1,2.3c0.1,0.5,1.3,0.9,2,1.3c0.3,0.2,0.7,0.4,1,0.6c0.4,0.2,0.4,0.4,0.2,0.8c-0.2,0.3-0.4,0.5-0.7,0.2
		c-1.3-0.8-2.6-1.5-3.9-2.3c-0.4-0.2-0.4-0.5-0.2-0.8c1.5-2.5,3-5.1,4.4-7.7c0.3-0.5,0.5-0.5,1-0.3c1.2,0.7,2.5,1.4,3.7,2.1
		c0.3,0.2,0.5,0.3,0.3,0.7c-0.2,0.4-0.4,0.5-0.8,0.3c-0.8-0.5-1.7-0.9-2.5-1.5c-0.6-0.4-0.8-0.2-1.1,0.3c-1.3,2.2-1.3,2.2,0.9,3.5
		c0.4,0.3,0.9,0.5,1.3,0.8C171.2,23.1,171.2,23.2,171.2,23.3z"/>
	<path class="st8" d="M90.5,12c0,0.4-0.3,0.4-0.5,0.5c-0.8,0.3-1.6,0.7-2.4,0.9c-0.6,0.2-0.9,0.5-0.6,1.2c1,2.3,0.9,2.3,3.3,1.4
		c0.4-0.1,0.7-0.3,1.1-0.4c0.3-0.1,0.6-0.2,0.7,0.3c0.1,0.4,0.2,0.6-0.3,0.8C90.9,17,90,17.5,89,17.8c-0.5,0.2-0.6,0.4-0.4,0.9
		c0.9,2.6,0.9,2.6,3.5,1.5c0.4-0.1,0.7-0.3,1.1-0.4c0.4-0.2,0.5,0.1,0.7,0.4c0.2,0.3,0.1,0.5-0.2,0.7c-1.5,0.6-2.9,1.1-4.4,1.7
		c-0.4,0.1-0.5-0.1-0.6-0.3c-1.1-2.8-2.2-5.6-3.3-8.4c-0.2-0.5,0-0.6,0.4-0.8c1.4-0.5,2.7-1,4.1-1.6C90.4,11.1,90.4,11.6,90.5,12z"
		/>
	<path class="st7" d="M143.5,11.7c-0.1,0.4,0.2,0.4,0.6,0.5c0.9,0.2,1.9,0.4,2.8,0.7c0.4,0.1,0.7,0.3,0.5,0.8
		c-0.1,0.6-0.5,0.4-0.8,0.3c-0.9-0.2-1.9-0.4-2.8-0.6c-0.5-0.1-0.7,0-0.8,0.5c-0.7,2.7-0.8,2.7,2,3.3c0.4,0.1,0.7,0.2,1.1,0.2
		c0.4,0.1,0.4,0.3,0.4,0.6c-0.1,0.4-0.2,0.6-0.6,0.5c-1.5-0.3-3-0.7-4.5-1c-0.5-0.1-0.4-0.4-0.3-0.7c0.7-2.9,1.3-5.8,2-8.7
		c0.1-0.5,0.3-0.6,0.8-0.5c1.4,0.3,2.8,0.6,4.2,0.9c0.4,0.1,0.6,0.3,0.5,0.7c-0.1,0.5-0.4,0.5-0.8,0.4c-0.9-0.2-1.9-0.4-2.8-0.7
		c-0.5-0.1-0.8,0-0.8,0.5C143.9,10.1,143.7,10.9,143.5,11.7z"/>
	<path class="st9" d="M182.4,167.3c0.1,1.5,0.2,2.7,0.3,3.8c0,0.6-0.1,0.7-0.7,0.6c-1.1-0.3-2.3-0.5-3.7-0.8
		c1.4,1.6,2.7,3.1,3.9,4.5c0.2,0.3,0.7,0.5,0.2,1c-0.5,0.5-0.7,0-1-0.3c-1.5-1.7-2.9-3.4-4.4-5c-0.2-0.2-0.7-0.4-0.4-0.8
		c0.3-0.4,0.6-0.6,1.2-0.5c1,0.2,2.1,0.4,3.1,0.7c0.8,0.2,0.8-0.1,0.7-0.7c-0.1-1-0.1-2-0.2-3c-0.1-0.5,0.2-0.9,0.6-1.1
		c0.5-0.3,0.6,0.3,0.8,0.5c1.5,1.7,2.9,3.4,4.4,5c0.3,0.3,0.6,0.6,0.1,1c-0.5,0.4-0.7-0.1-0.9-0.3
		C185.1,170.5,183.9,169,182.4,167.3z"/>
	<path class="st10" d="M188.7,162c1.4,1.2,2.8,2.4,4.2,3.6c0.3,0.3,0.6,0.4,0.2,0.9c-0.4,0.5-0.6,0.1-0.9-0.1
		c-1.7-1.5-3.4-2.9-5.1-4.4c-0.2-0.2-0.8-0.3-0.5-0.8c0.2-0.4,0.6-0.6,1.1-0.5c2.4,0.3,4.8,0.5,7.5,0.7c-1.3-1.2-2.5-2.2-3.6-3.2
		c-0.3-0.3-0.7-0.6-1-0.9c-0.3-0.2-0.4-0.4-0.1-0.7c0.2-0.2,0.4-0.4,0.8-0.1c1.8,1.6,3.7,3.2,5.5,4.8c0.2,0.1,0.4,0.3,0.3,0.6
		c-0.3,0.4-0.5,0.7-1.1,0.6c-2-0.2-4.1-0.4-6.1-0.6C189.5,161.9,189.1,161.8,188.7,162z"/>
	<path class="st11" d="M83.2,180.1c-1.3,0.5-2.4,0.9-3.4,1.4c-0.6,0.3-0.8,0.3-0.9-0.5c-0.1-1.1-0.3-2.3-0.5-3.7
		c-0.7,1.1-1.2,2.1-1.8,3c-0.4,0.8-0.9,1.5-1.3,2.3c-0.2,0.4-0.4,0.6-0.9,0.3c-0.5-0.3-0.2-0.5-0.1-0.8c1.1-2,2.3-4,3.5-5.9
		c0.1-0.2,0.2-0.8,0.7-0.6c0.4,0.2,0.7,0.3,0.8,0.9c0.1,1,0.3,2.1,0.4,3.1c0,0.8,0.3,0.8,0.9,0.5c0.9-0.4,1.9-0.7,2.8-1.2
		c0.5-0.3,0.9-0.1,1.2,0.2c0.4,0.3,0,0.6-0.2,0.9c-1.1,2-2.2,3.9-3.4,5.9c-0.2,0.3-0.3,0.7-0.8,0.4c-0.5-0.3-0.2-0.6-0.1-0.9
		C81.1,183.7,82.1,182,83.2,180.1z"/>
	<path class="st12" d="M36.4,117.3c-1.8,0.3-3.6,0.6-5.4,1c-0.4,0.1-0.7,0.1-0.8-0.4c-0.1-0.6,0.3-0.6,0.6-0.6
		c2.4-0.4,4.7-0.9,7.1-1.3c0.2,0,0.5-0.1,0.6,0.2c0.1,0.4,0.1,0.8-0.3,1.1c-1.5,1.6-3.1,3.1-4.6,4.7c-0.2,0.2-0.4,0.4-0.7,0.8
		c2.1-0.4,4-0.7,5.9-1.1c0.4-0.1,0.7-0.1,0.8,0.5c0,0.5-0.2,0.5-0.6,0.6c-2.3,0.4-4.5,0.8-6.8,1.2c-0.3,0.1-0.7,0.3-0.9-0.2
		c-0.2-0.4-0.2-0.8,0.2-1.2c1.5-1.5,3-3,4.4-4.6C36.1,117.9,36.4,117.7,36.4,117.3z"/>
	<path class="st13" d="M147.5,187.1c0.6,1.9,1.2,3.6,1.8,5.3c0.1,0.4,0.5,0.7-0.2,1c-0.7,0.3-0.7-0.3-0.8-0.6
		c-0.7-2.1-1.5-4.3-2.2-6.4c-0.1-0.2-0.5-0.6,0-0.8c0.4-0.3,0.8-0.3,1.2,0.1c1.7,1.3,3.4,2.5,5.2,3.7c0.3,0.2,0.5,0.3,1,0.7
		c-0.7-2-1.3-3.7-1.8-5.4c-0.1-0.3-0.2-0.5-0.2-0.8c0-0.3,0.4-0.2,0.6-0.3c0.4-0.2,0.4,0.2,0.4,0.4c0.8,2.3,1.6,4.6,2.4,6.9
		c0.1,0.2,0.2,0.5-0.1,0.6c-0.4,0.2-0.8,0.3-1.3,0c-1.7-1.2-3.4-2.4-5.1-3.6C148.2,187.6,148,187.4,147.5,187.1z"/>
	<path class="st14" d="M116.3,10.4c0-1.4,0-2.8,0-4.3c0-0.5,0.1-0.7,0.7-0.7c1.4,0,2.7-0.1,4.1-0.1c0.4,0,0.8,0,0.8,0.5
		c0,0.6-0.4,0.6-0.8,0.6c-0.8,0-1.7,0-2.5,0.1c-0.2,0-0.5-0.1-0.6,0c-0.8,0.8-0.2,1.7-0.3,2.6c0,0.4,0,0.8,0.6,0.8
		c1-0.1,1.9-0.1,2.9-0.1c0.4,0,0.7,0,0.7,0.6c0,0.5-0.3,0.5-0.7,0.5c-0.9,0-1.8,0.1-2.7,0.1c-0.6,0-0.8,0.2-0.8,0.8
		c0,2.7,0,2.7,2.6,2.6c0.4,0,0.8,0,1.1,0c0.5,0,0.6,0.3,0.6,0.7c0,0.4-0.2,0.4-0.5,0.5c-1.5,0-3,0-4.5,0.1c-0.6,0-0.5-0.3-0.5-0.7
		c0-1.5,0-3,0-4.5C116.4,10.4,116.4,10.4,116.3,10.4z"/>
	<path class="st15" d="M93.2,189.9c0.8-2,1.5-3.7,2.2-5.4c0.1-0.4,0.1-0.8,0.8-0.6c0.6,0.3,0.3,0.6,0.2,0.9
		c-0.8,2.1-1.7,4.2-2.5,6.3c-0.1,0.3-0.1,0.8-0.6,0.7c-0.5-0.1-0.9-0.3-1-0.9c-0.4-1.8-0.8-3.6-1.3-5.4c-0.1-0.5-0.3-1.1-0.5-1.8
		c-0.8,1.9-1.4,3.6-2.1,5.2c-0.2,0.4-0.2,0.9-0.8,0.6c-0.6-0.3-0.3-0.6-0.1-0.9c0.8-2.1,1.6-4.1,2.5-6.2c0.1-0.3,0.1-0.8,0.7-0.8
		c0.5,0.1,0.7,0.4,0.8,0.9c0.5,2.1,1,4.1,1.5,6.2C93,189.1,93.1,189.4,93.2,189.9z"/>
	<path class="st4" d="M109.4,6.3c0.8-0.1,1.5,0.2,2.3,0.6c0.3,0.1,0.6,0.2,0.4,0.7c-0.2,0.4-0.4,0.6-0.9,0.4
		c-0.7-0.4-1.4-0.5-2.2-0.5c-1.8,0.1-3.3,1.4-3.7,3.2c-0.4,1.6,0.5,3.6,1.9,4.4c1.6,0.9,3.4,0.7,4.8-0.6c0.2-0.2,0.3-0.4,0.5-0.5
		c0.3-0.1,0.6,0.2,0.8,0.4c0.3,0.3-0.1,0.5-0.2,0.7c-1.6,1.8-4.3,2.3-6.4,1.2c-2.1-1.2-3.2-3.6-2.7-5.8
		C104.7,7.9,106.8,6.3,109.4,6.3z"/>
	<path class="st16" d="M72.4,31.2c-2.8,0-5.2-2.3-5.2-5.2c0-2.9,2.4-5.3,5.2-5.3c0.3,0,0.9-0.3,1,0.4c0,0.6-0.3,0.8-0.9,0.8
		c-1.6,0-2.8,0.6-3.5,2c-1.1,2-0.2,4.6,1.8,5.6c2.1,1.1,4.5,0.1,5.4-2.1c0.1-0.2,0.1-0.4,0.2-0.6c0.2-0.5,0.6-0.3,0.9-0.2
		c0.5,0.1,0.3,0.5,0.2,0.7C76.9,29.6,74.8,31.2,72.4,31.2z"/>
	<path class="st17" d="M203.5,140.4c1.6,0.7,3.3,1.5,4.9,2.2c0.4,0.2,0.8,0.2,0.6,0.9c-0.3,0.7-0.7,0.2-1,0.1
		c-2.1-0.9-4.1-1.8-6.2-2.8c-0.2-0.1-0.7-0.1-0.6-0.5c0.1-0.4,0.3-0.7,0.8-0.8c2-0.4,3.9-0.8,5.9-1.2c0.5-0.1,0.9-0.2,1.6-0.4
		c-2-0.9-3.7-1.6-5.4-2.4c-0.2-0.1-0.7-0.1-0.5-0.6c0.1-0.4,0.2-0.7,0.8-0.5c2.2,1,4.4,2,6.6,3c0.2,0.1,0.5,0.1,0.4,0.5
		c-0.2,0.5-0.4,0.9-1,1c-1.8,0.3-3.6,0.7-5.4,1.1c-0.5,0.1-1,0.2-1.5,0.3C203.5,140.3,203.5,140.3,203.5,140.4z"/>
	<path class="st18" d="M85.4,70.5c-0.7-0.2-1.1,0.8-1.9,0.3c0.7-1.2,1.3-2.5,1.9-3.8c0.6-1.4,0.4-1.9-1-2.5c-0.7-0.3-1-0.7-0.6-1.5
		l0,0c0.4-0.5,0.9-0.7,1.4-1.1c0.7-0.5,1.5-0.1,1.5,0.8c0,0.6-0.2,1.3,0,2c1.2-1.1,1.3-2.8,0.3-4c-0.2-0.2-0.4-0.3-0.4-0.6
		c0.8-0.6,1.6-1.2,2.4-1.8c0,0.1,0,0.3,0,0.4c0.1,0.6-0.4,1-0.4,1.6c-0.2,0.9,0.2,1.7,0.1,2.6c0.9-0.8,1.6-1.5,2.5-2.2
		c0.4-0.4,0.2-1,0.4-1.5c0.1-0.5,0.3-0.9,0.9-0.9c0.5,0,0.7,0.3,0.7,0.7c0,0.2,0.1,0.3,0.3,0.4c0.5,0.2,0.6,0.5,0.4,1
		c-0.2,0.5-0.7,0.7-1.1,0.5c-0.9-0.3-1.4,0.2-2,0.7c-1.1,1.1-2.1,2.2-3,3.4c-0.3,0.4-0.6,0.8-0.7,1.4c1-0.1,1.9-0.3,2.9-0.4
		c0.4,0,0.2-0.5,0.5-0.6c0.3,0.3,0.3,0.6,0.1,0.9c-0.7,0.7-1.7,0.5-2.5,0.7C86.4,67.6,85.3,69.1,85.4,70.5z"/>
	<path class="st19" d="M168.7,182.8c0,2.4-2,4.4-4.4,4.3c-2.4,0-4.4-2-4.3-4.3c0.1-2.4,2.1-4.4,4.4-4.4
		C166.8,178.4,168.7,180.4,168.7,182.8z"/>
	<path class="st16" d="M98.4,19.1c-0.8,0-1.7-0.5-2.3-1.4c-0.3-0.4-0.2-0.7,0.2-1c0.5-0.4,0.6-0.1,0.8,0.3c0.5,0.7,1.2,1.2,2.1,0.9
		c0.8-0.2,1.4-0.8,1.4-1.7c0.1-1-0.4-1.7-1.3-2.1c-0.7-0.3-1.4-0.3-2.1-0.5c-1.4-0.3-2.2-1.1-2.2-2.2c0-1.2,0.6-2,1.8-2.4
		c0.8-0.3,1.5,0,2.1,0.5c0.2,0.1,0.6,0.4,0.3,0.7c-0.3,0.3-0.6,0.7-1,0.3c-0.4-0.4-0.9-0.5-1.4-0.2c-0.4,0.2-0.5,0.6-0.5,1.1
		c0.1,0.6,0.5,1,1,1.2c0.8,0.3,1.6,0.2,2.4,0.5c1.6,0.6,2.5,2,2.2,3.6C101.6,18,100.2,19.1,98.4,19.1z"/>
	<path class="st20" d="M204.1,150.9c0,2.4-1.9,4.4-4.4,4.4c-2.3,0-4.3-1.9-4.3-4.3c0-2.4,2-4.4,4.4-4.4
		C202.2,146.6,204.1,148.5,204.1,150.9z"/>
	<path class="st21" d="M157.9,19.8c0,0.9,0.2,1.5,0.9,1.9c0.7,0.4,1.4,0.3,2.1-0.1c0.7-0.5,0.9-1.2,0.8-2c-0.1-0.7-0.5-1.3-1-1.8
		c-0.4-0.4-0.8-0.9-1-1.4c-0.6-1.3,0-2.7,1.4-3.1c1.3-0.4,2.8,0.3,3.1,1.6c0.1,0.3,0.4,0.9-0.3,1c-0.5,0.1-0.9,0-0.9-0.7
		c0-0.7-0.5-1-1.1-0.9c-0.7,0.1-1,0.5-1,1.2c0,0.8,0.5,1.3,1,1.8c1.3,1.3,1.6,3,0.9,4.3c-0.7,1.3-2.1,1.8-3.5,1.5
		c-1.5-0.4-2.5-1.6-2.5-3.1c0-0.5-0.1-1,0.7-1C158.1,18.9,158,19.4,157.9,19.8z"/>
	<path class="st22" d="M92.9,80.4c-0.2,0-0.4,0-0.6,0c-0.7-1-0.9-2.1-1.4-3.2c-0.7-1.5-1.5-2.6-3.2-2.7c-0.4,0-1-0.1-1.3-0.6
		c0-0.2,0.1-0.3,0.3-0.3c0.8-0.5,1.5,0,2.3,0.1c0.7,0.1,1.4,0.3,2.1-0.2c0.6-0.4,1-0.9,0.8-1.6c-0.1-0.6,0-1.1,0.5-1.5
		c0.4-0.3,0.9-0.4,1.3,0c0.2,0.2,0.4,0.4,0.6,0.6c0.4,0.3,0.8,0.5,0.6,1.1c-0.1,0.5-0.5,0.8-1,0.9c-0.8,0.1-1.4,0.6-1.9,1.3
		c1.3,0.2,2.4,0.1,3.5-0.4c0.5-0.3,0.7-0.7,0.8-1.1c0.2-0.5,0.4-1,1.1-0.9c0.3,0.2,0.7,0.1,0.8,0.6c0,0.1-0.1,0.3-0.1,0.4
		c-0.8,0.3-0.9,1.2-1.4,1.6c-0.2-0.2-0.3-0.4-0.7-0.2c-0.5,0.4-1.1,0.7-2,1.1c1.8,0.3,2.9,1.8,4.7,1.6c0.5-0.1,1-0.2,1.3,0.4
		c0.3,0.5-0.1,0.8-0.5,1.1c-0.1,0.1-0.2,0.3-0.2,0.4c-0.1,0.7-0.6,0.7-1.2,0.5c0.3-0.7,0-1.2-0.5-1.6c-2-1.1-4.1-2-6.5-2.6
		c0.5,1,1,1.8,1.4,2.6c0.2,0.5,0,1.1,0.4,1.6C93,79.7,93.2,80,92.9,80.4z"/>
	<path class="st23" d="M69.5,171.5c0,3-3.4,5-6.3,3.4c-2.3-1.3-2.3-1.4-0.7-3.4c1.1-1.4,2.2-2.8,3.3-4.3c0.3-0.4,0.5-0.5,1-0.1
		C68.2,168.2,69.6,169.2,69.5,171.5z"/>
	<path class="st24" d="M43.5,148.8c-1.9,0-4.1-1.8-4.5-3.7c-0.1-0.4,0.2-0.5,0.4-0.6c2-1.2,4.1-2.4,6.1-3.5c0.2-0.1,0.5-0.4,0.7,0
		c0.9,1.5,1.9,3,1.3,5C47,147.6,45.4,148.8,43.5,148.8z"/>
	<path class="st25" d="M123.6,192.5c0-1.2,0-2.4,0-3.5c0-0.4,0.1-0.6,0.6-0.6c0.7,0,1.5,0,2.2,0c2.1,0.2,3.6,2,3.6,4.2
		c0,2.2-1.5,3.9-3.9,4.2c-2.3,0.3-2.2,0.3-2.3-2C123.7,194,123.7,193.3,123.6,192.5C123.6,192.5,123.6,192.5,123.6,192.5z"/>
	<path class="st26" d="M80.8,74.2c0.3,0.1,0.5,0.2,0.6,0.5c-1.5,0.4-2.9,1.2-4.3,1.8c-1.3,0.6-1.4,1.9-0.4,3
		c0.4,0.4,0.6,0.8,0.3,1.3c-0.3,0.5-0.7,0.5-1.2,0.1c-0.1-0.1-0.3,0-0.4,0c-0.4,0.3-0.8,0.3-1-0.1c-0.3-0.4-0.2-0.9,0.2-1.2
		c0.7-0.5,0.7-1.3,1-2c0.3-0.6-0.1-0.6-0.5-0.5c-1.4,0.5-2.4,1.3-2.8,2.8c-0.5,0.7-1.2,1.2-1.4,2c-0.4,0-0.9-0.1-1-0.6
		c-0.1-0.4,0.2-0.8,0.6-0.9c1.2-0.4,1.3-1.7,2-2.6c-1.5,0.4-3.2-0.2-4.2,1.4c-0.2,0.4-0.7,0.5-1.1,0.4c-0.4-0.2-0.5-0.5-0.4-0.9
		c0.5-0.6,0.5-1.4,1.1-1.9c0.7,0.9,1.6,1,2.7,0.8c1.5-0.3,3-0.6,4.5-1.1c0.3-0.1,0.8-0.1,0.8-0.5c0-0.4-0.5-0.4-0.8-0.5
		c-0.1-0.1-0.3-0.1-0.5-0.1c-0.2-0.3-0.1-0.5,0.2-0.7c2,1.2,3.8,0.2,5.6-0.6C80.5,74.3,80.7,74.3,80.8,74.2z"/>
	<path class="st27" d="M59.9,171.3c-1,0-1.9-0.6-2.4-1.6c-0.5-1-0.5-2.1,0.3-3c1.2-1.3,2.4-2.6,3.6-3.9c0.3-0.3,0.4-0.3,0.8,0
		c0.4,0.3,0.2,0.6,0,0.8c-1.2,1.2-2.3,2.4-3.5,3.6c-0.6,0.7-0.8,1.5-0.3,2.3c0.5,0.8,1.2,0.9,2.1,0.8c0.4-0.1,0.7-0.4,1-0.7
		c1.1-1.1,2.2-2.3,3.2-3.4c0.3-0.3,0.5-0.5,0.9-0.1c0.4,0.4,0.1,0.6-0.1,0.8c-1.2,1.2-2.3,2.4-3.5,3.6
		C61.5,171,60.8,171.2,59.9,171.3z"/>
	<path class="st28" d="M213.2,132.7c-2.2-1.6-4.5-3.3-6.7-4.9c-0.2-0.2-0.4-0.3-0.3-0.7c0.1-0.4,0.3-0.5,0.6-0.5
		c2.6-0.2,5.2-0.3,7.8-0.5c0.2,0,0.6-0.1,0.5,0.3c0,0.4-0.1,0.8-0.7,0.8c-0.9,0-1.7,0.1-2.6,0.1c-1.1,0-0.8,1.1-1.1,1.6
		c-0.3,0.5,0,0.8,0.4,1.1c0.6,0.4,1.2,0.9,1.8,1.3C213.7,131.7,213.7,132.1,213.2,132.7z"/>
	<path class="st29" d="M34.9,134.7c2.7,0,5.5,0,8.2,0c0.3,0,0.6,0,0.7,0.4c0.2,0.4,0,0.6-0.3,0.9c-1.9,1.7-3.7,3.3-5.6,5
		c-0.2,0.1-0.4,0.7-0.7,0.2c-0.2-0.3-0.4-0.6,0-1c0.7-0.5,1.3-1.2,2-1.7c0.5-0.4,0.5-0.8,0.2-1.2c-0.3-0.5-0.1-1.4-1.2-1.3
		c-0.8,0.1-1.5,0-2.3,0.1C35.2,136,34.9,135.7,34.9,134.7z"/>
	<path class="st29" d="M106.4,194.8c0,0.2,0.1,0.5-0.2,0.4c-0.4-0.1-0.8-0.1-0.8-0.6c-0.1-0.9-0.3-1.7-0.3-2.6
		c0-0.6-0.3-0.8-0.8-0.8c-0.6,0-1.3-0.8-1.8,0.1c-0.4,0.7-0.9,1.4-1.4,2.1c-0.3,0.5-0.8,0.6-1.1,0.3c-0.4-0.3,0.1-0.6,0.2-0.9
		c1.3-2,2.6-4,3.9-6c0.2-0.3,0.4-0.7,0.9-0.6c0.5,0.1,0.5,0.5,0.5,0.9C105.8,189.7,106.1,192.2,106.4,194.8z"/>
	<path class="st13" d="M55.5,167.8c-0.8-0.4-0.8-0.9-0.4-1.5c0.3-0.4,0.4-0.8,0.7-1.2c0.7-0.9,0.7-1.6-0.2-2.5
		c-0.5-0.4-0.8-0.6-1.3-0.3c-0.7,0.3-1.4,0.5-2.1,0.8c-0.5,0.2-0.8,0-1-0.4c-0.2-0.6,0.3-0.5,0.6-0.6c2.3-0.9,4.5-1.7,6.8-2.6
		c0.4-0.1,0.7-0.3,1,0.1c0.4,0.4,0.1,0.7-0.1,1C58.1,163.1,56.8,165.5,55.5,167.8z"/>
	<path class="st30" d="M186.2,166.8c0.3-0.3,0.5-0.5,0.8-0.7c0.5-0.4,0.9-0.8,1.4-1.3c0.2-0.2,0.4-0.3,0.7,0c0.3,0.3,0.2,0.5,0,0.7
		c-0.6,0.5-1.1,1.1-1.7,1.6c-0.4,0.3-0.4,0.5,0,0.9c1.5,1.6,1.5,1.7,3,0.2c0.2-0.2,0.5-0.4,0.7-0.6c0.2-0.2,0.4-0.3,0.7,0
		c0.3,0.3,0.2,0.4,0,0.7c-0.9,0.8-1.7,1.6-2.6,2.4c-0.3,0.3-0.6,0.3-0.8,0c-1.6-1.7-3.3-3.5-4.9-5.2c-0.4-0.4-0.3-0.6,0-0.9
		c0.8-0.7,1.6-1.5,2.4-2.3c0.2-0.2,0.4-0.4,0.8-0.1c0.3,0.3,0.2,0.5-0.1,0.8c-0.3,0.2-0.5,0.4-0.8,0.7c-0.4,0.5-1.3,0.9-1.2,1.3
		c0.2,0.7,1,1.2,1.5,1.8C186,166.7,186.1,166.7,186.2,166.8z"/>
	<path class="st31" d="M49.4,148.1c-0.2,0-2.2,1.3-2.2,1.4c-0.1,0.2,0.1,0.4,0.2,0.6c0.4,0.6,0.8,1.3,1.2,1.9c0.1,0.2,0.4,0.4,0,0.7
		c-0.3,0.2-0.5,0.2-0.7-0.2c-0.4-0.7-0.9-1.3-1.3-2c-0.2-0.4-0.4-0.4-0.8-0.2c-2,1.1-2,1.1-0.8,3c0.2,0.3,0.3,0.5,0.5,0.8
		c0.2,0.3,0.2,0.5-0.1,0.7c-0.3,0.2-0.5,0.2-0.7-0.1c-0.6-1-1.3-2-1.9-3c-0.3-0.4-0.2-0.6,0.2-0.8c2-1.3,4-2.6,6-3.9
		c0.3-0.2,0.6-0.4,0.8,0.1c0.6,1,1.2,2,1.9,3c0.2,0.3,0.2,0.5-0.1,0.7c-0.3,0.2-0.5,0.1-0.7-0.2c-0.4-0.7-0.9-1.3-1.3-2
		C49.6,148.3,49.6,148.1,49.4,148.1z"/>
	<path class="st32" d="M87.8,184.8c-0.2,0.3-0.2,0.8-0.7,0.5c-0.7-0.4-1.5-0.7-2.3-1c-0.4-0.2-0.6-0.1-0.8,0.3c-1,2-1,2,1,2.9
		c0.4,0.2,1.4,0.1,1.1,0.9c-0.4,1-1,0-1.4-0.1c-0.8-0.3-1.6-0.7-2.4-1c-0.4-0.2-0.5-0.4-0.3-0.8c1-2.2,2-4.4,2.9-6.5
		c0.2-0.5,0.4-0.5,0.9-0.3c1,0.5,2,0.9,3,1.4c0.3,0.1,0.6,0.2,0.4,0.7c-0.2,0.4-0.5,0.3-0.8,0.2c-0.7-0.3-1.4-0.6-2.1-1
		c-0.4-0.2-0.6-0.2-0.8,0.3c-1.1,2-1.1,2,1,3C87,184.3,87.5,184.3,87.8,184.8z"/>
	<path class="st33" d="M131.7,196.4c-0.5,0.2-0.6-0.1-0.7-0.6c-0.3-2.4-0.6-4.8-0.9-7.2c0-0.3,0-0.5,0.3-0.5
		c1.3-0.2,2.5-0.3,3.8-0.5c0.4,0,0.4,0.2,0.4,0.4c0,0.4-0.2,0.5-0.5,0.5c-0.8,0.1-1.5,0.2-2.3,0.2c-0.5,0-0.6,0.2-0.6,0.7
		c0.1,2.1,0.1,2.2,2.1,2c0.4,0,0.8-0.1,1.1-0.2c0.3,0,0.5,0,0.6,0.4c0,0.4-0.1,0.5-0.5,0.5c-0.8,0.1-1.5,0.2-2.3,0.3
		c-0.6,0-0.7,0.3-0.6,0.8c0.1,2.1,0.1,2.1,2.2,1.9c0.3,0,0.7-0.1,1-0.2c0.3-0.1,0.5,0,0.6,0.4c0.1,0.4-0.1,0.5-0.4,0.5
		C134,196.1,132.9,196.3,131.7,196.4z"/>
	<path class="st31" d="M144.9,185.6c0.3-0.1,0.5,0.1,0.6,0.4c0.1,0.4-0.2,0.4-0.5,0.5c-0.8,0.2-1.5,0.4-2.3,0.6
		c-0.5,0.1-0.6,0.3-0.4,0.7c0,0,0,0.1,0,0.1c0.4,2.1,0.4,2.1,2.5,1.6c0.3-0.1,0.5-0.1,0.8-0.2c0.4-0.1,0.6-0.1,0.7,0.3
		c0.1,0.5-0.2,0.5-0.5,0.6c-0.7,0.2-1.5,0.3-2.2,0.5c-0.4,0.1-0.6,0.2-0.5,0.7c0.4,2.2,0.4,2.2,2.6,1.8c0.5-0.1,1.2-0.8,1.4,0.2
		c0.2,0.8-0.8,0.5-1.2,0.7c-0.8,0.3-1.6,0.4-2.4,0.6c-0.5,0.1-0.7,0-0.9-0.6c-0.5-2.3-1-4.6-1.6-6.9c-0.1-0.3-0.2-0.6,0.3-0.7
		C142.5,186.2,143.7,185.9,144.9,185.6z"/>
	<path class="st34" d="M116.5,190.2c-0.1,1.7-0.1,1.7,1.3,1.7c0.5,0,1,0.1,1.6,0.1c0.3,0,0.5,0.1,0.5,0.5c0,0.4-0.3,0.4-0.6,0.4
		c-0.8-0.1-1.6-0.1-2.4-0.2c-0.4,0-0.6,0.1-0.6,0.5c-0.3,2.3-0.3,2.3,2,2.4c0.1,0,0.2,0,0.3,0c0.4,0.1,1-0.2,1,0.6
		c-0.1,0.8-0.7,0.4-1.1,0.4c-0.9,0-1.9-0.2-2.8-0.2c-0.5,0-0.7-0.2-0.7-0.8c0.2-2.4,0.4-4.7,0.5-7.1c0-0.4,0.2-0.6,0.6-0.6
		c1.1,0.1,2.2,0.2,3.3,0.3c0.3,0,0.6,0,0.6,0.5c0,0.6-0.4,0.4-0.7,0.4c-0.6,0-1.2-0.1-1.8-0.2c-0.8-0.1-1.2,0.1-1.1,0.9
		C116.5,190.1,116.5,190.3,116.5,190.2z"/>
	<path class="st35" d="M81,70.6c-0.2,0.2-0.4,0.4-0.6,0.6c-0.7-0.6-1.2-1.3-1.8-2c-0.5-0.5-1-1-1.7-1c-0.6,0-1.1,0.1-1.4,0.6
		c-0.3,0.5-0.7,0.9-1.4,0.8c-1.1-0.2-0.7-1.3-1.1-1.9c-0.2-0.4,0.1-0.8,0.5-1c0.4-0.2,0.8-0.2,1.2,0C75.3,67,76,67,76.9,67
		c-0.4-1.1-1.4-1.3-2.2-1.9c-0.2-0.3-0.4-0.6-0.3-1c0.4,0.1,0.9,0.2,1.5,0.4c-0.5-1.1-1-2-1.3-2.9c-0.2-0.5-0.9-0.5-1.2-0.9
		c-0.3-0.3-0.6-0.6-0.5-1.1c0.2-0.5,0.6-0.7,1.1-0.4c0.5,0.4,1,0.6,1.6,0.7c-0.6,2,0.7,3.4,1.5,5c0.4,0.8,0.9,1.4,1.5,2.2
		c0,0,0.1-0.2,0-0.2c0,0-0.1,0-0.1-0.1c0.1-0.9-0.1-1.8,0.7-2.5c0.4,0.1,0.8,0.2,1.1,0.5c-0.2,0.5-0.9,0.7-1,1.5
		c-0.1,1,0,1.9,0.7,2.7C80.4,69.6,80.9,70,81,70.6z"/>
	<path class="st36" d="M73.2,176.8c-0.1,0.1-0.2,0.3-0.3,0.4c-0.2,0.2-0.4,0.1-0.5,0c-0.3-0.2-0.6-0.5-0.9-0.7
		c-0.5-0.3-1.1-1.2-1.5-0.9c-0.6,0.4-1,1.2-1.5,1.8c-0.3,0.4,0.1,0.5,0.3,0.6c0.6,0.5,1.2,0.9,1.8,1.4c0.2,0.2,0.6,0.3,0.3,0.7
		c-0.3,0.4-0.5,0.3-0.8,0c-0.9-0.7-1.8-1.3-2.7-1.9c-0.4-0.3-0.4-0.5-0.1-0.9c1.4-1.9,2.8-3.8,4.1-5.8c0.3-0.4,0.5-0.5,0.9-0.2
		c0.9,0.7,1.9,1.4,2.8,2c0.3,0.2,0.4,0.3,0.2,0.7c-0.3,0.4-0.4,0.3-0.8,0.1c-0.6-0.5-1.3-0.9-1.9-1.4c-0.4-0.3-0.5-0.2-0.8,0.1
		c-1.4,1.8-1.4,1.8,0.4,3.1C72.5,176.1,73,176.3,73.2,176.8z"/>
	<path class="st37" d="M33.3,130.2c0.2-1.7,0.9-3.1,2.6-3.9c1.7-0.7,3.2-0.4,4.6,0.8c1.4,1.2,1.8,2.8,1.3,4.6
		c-0.1,0.2-0.1,0.7-0.6,0.5c-0.5-0.2-0.4-0.5-0.3-0.9c0.5-2-0.5-3.6-2.4-4.1c-1.5-0.4-3.1,0.3-3.8,1.7c-0.8,1.4-0.5,3,0.8,4
		c0.1,0.1,0.2,0.2,0.3,0.2c0.5,0.2,0.3,0.6,0.1,0.9c-0.2,0.5-0.5,0.1-0.7-0.1C34,133,33.4,131.8,33.3,130.2z"/>
	<path class="st38" d="M28.8,105.7c0-1.9,1.1-3.5,2.8-4.2c1.7-0.6,3.7-0.1,4.8,1.4c1.1,1.4,1.2,3.4,0.2,5c-0.2,0.2-0.2,0.9-0.8,0.5
		c-0.4-0.3-0.3-0.6,0-1c1-1.7,0.6-3.6-1-4.6c-1.6-1-3.6-0.5-4.6,1.1c-0.8,1.2-0.7,2.4,0.2,3.6c0.3,0.4,0.5,0.7,0,1
		c-0.5,0.4-0.6-0.2-0.8-0.5C29.1,107.4,28.8,106.5,28.8,105.7z"/>
	<path class="st39" d="M158,187.8c0-1.8,0-3.7,0-5.5c0-0.3,0-0.6,0-0.8c0.1-0.4,0.4-0.4,0.7-0.5c0.4,0,0.3,0.3,0.3,0.6
		c0.1,2.6,0.1,5.1,0.2,7.7c0,0.3,0,0.5-0.3,0.7c-0.4,0.2-0.6-0.1-0.8-0.4c-1.6-1.9-3.3-3.8-4.9-5.7c-0.2-0.2-0.7-0.4-0.2-0.7
		c0.3-0.2,0.7-0.3,1,0.1c1.1,1.3,2.2,2.5,3.3,3.8C157.5,187.3,157.6,187.7,158,187.8z"/>
	<path class="st40" d="M80.8,74.2c-1.4,1.5-3.9,1.8-6,0.8c-0.8-0.6-1.8-0.8-2.5-1.6c-0.1,0-0.3-0.1-0.4-0.1
		c-0.1-0.6,0.5-0.6,0.8-0.8c0.7,0.5,1.4,0.2,2.1,0c1.6,0.3,3.1,0.6,4.7,0.9C80.1,73.4,80.6,73.6,80.8,74.2z"/>
	<path class="st28" d="M175.5,178.6c-0.5-1.9-1.1-3.8-1.6-5.7c-0.1-0.3-0.3-0.6,0-0.8c0.3-0.3,0.6-0.6,0.8,0.2
		c0.7,2.4,1.4,4.9,2.1,7.3c0.1,0.3,0.3,0.6-0.2,0.9c-0.4,0.2-0.6-0.1-0.8-0.2c-2-1.4-3.9-2.7-5.9-4.1c-0.3-0.2-0.9-0.3-0.6-0.7
		c0.3-0.5,0.8-0.4,1.3,0c1.4,1,2.8,2,4.2,2.9C175,178.5,175.2,178.7,175.5,178.6z"/>
	<path class="st41" d="M139.8,188.1c-0.4,0.3-0.6,0.8-1.2,0.2c-0.4-0.4-0.9-0.4-1.3,0c-0.4,0.5-0.3,1.1,0.2,1.5
		c0.4,0.3,0.9,0.4,1.5,0.5c2.3,0.5,3.1,2.7,1.8,4.4c-1.1,1.3-3.3,1.2-4.2-0.2c-0.2-0.3-0.4-0.6,0-1c0.5-0.3,0.6,0,0.8,0.3
		c0.3,0.7,0.9,1,1.6,0.8c0.7-0.1,1.1-0.6,1.3-1.2c0.2-0.8-0.1-1.4-0.7-1.8c-0.3-0.2-0.7-0.4-1.1-0.5c-0.3,0-0.5-0.1-0.8-0.2
		c-0.9-0.3-1.6-0.9-1.6-1.9c0-0.9,0.5-1.5,1.3-1.8C138.4,186.8,139.3,187.1,139.8,188.1z"/>
	<path class="st41" d="M55.1,156.4c0.1-0.6-0.1-1.1-0.7-1.1c-0.6-0.1-1.1,0.3-1.2,0.9c-0.1,0.7,0.2,1.3,0.3,1.9
		c0.3,2-1.2,3.6-3.1,3.2c-1.7-0.3-2.6-2.5-1.7-3.9c0.2-0.3,0.4-0.6,0.8-0.3c0.4,0.3,0.4,0.5,0.1,0.8c-0.5,0.7-0.5,1.4,0.1,2
		c0.4,0.5,1,0.7,1.7,0.4c0.8-0.3,1.1-0.8,1.2-1.7c0-0.7-0.3-1.4-0.4-2c-0.1-0.8,0.1-1.5,0.8-2c0.7-0.4,1.4-0.5,2.1,0
		c0.7,0.4,1,1,1,1.8c0,0.3,0.1,1-0.6,0.9C55.1,157.2,54.8,156.8,55.1,156.4z"/>
	<path class="st37" d="M206.4,130c-0.3,0.7-0.5,1.3-0.8,1.9c-0.2,0.5-0.2,0.7,0.3,0.9c2,0.8,2,0.9,2.8-1.2c0.1-0.2,0.1-0.3,0.2-0.5
		c0.1-0.3,0.3-0.3,0.6-0.2c0.3,0.1,0.4,0.2,0.3,0.5c-0.1,0.2-0.1,0.4-0.2,0.6c-0.8,1.9-0.8,1.9,1.2,2.6c0.4,0.1,0.7,0.3,1.1,0.4
		c0.3,0.1,0.5,0.3,0.3,0.7c-0.2,0.4-0.3,0.5-0.7,0.3c-2.3-0.9-4.6-1.8-6.8-2.7c-0.4-0.2-0.4-0.3-0.3-0.7c0.4-0.9,0.7-1.9,1.1-2.8
		c0.1-0.3,0.2-0.5,0.6-0.3C206.2,129.7,206.5,129.7,206.4,130z"/>
	<path class="st42" d="M131.7,61.4c-0.7,0.4-0.8-0.2-1-0.8c-0.1-0.6-0.3-1.1-0.4-1.7c-0.1-0.8,0.2-1.5,1-1.7
		c0.8-0.2,1.3,0.1,1.5,0.9c0.1,0.4,0.4,0.4,0.6,0.3c0.8,0,1.2,0.4,1.3,1.1c0.1,0.7-0.3,1.2-0.9,1.5
		C133.2,61.3,132.5,61.4,131.7,61.4z"/>
	<path class="st43" d="M193.2,154.9c-0.5,0.1-0.6,0.6-0.9,0.8c-0.2,0.2-0.4,0.7-0.9,0.3c-0.5-0.4-0.1-0.6,0.1-0.9
		c0.7-1,1.5-1.9,2.3-2.9c0.2-0.3,0.4-0.6,0.8-0.2c0.4,0.3,0.1,0.5,0,0.8c-0.8,1.1-0.8,1.1,0.3,2c1.4,1.1,2.8,2.2,4.2,3.3
		c0.3,0.2,0.6,0.4,0.2,0.9c-0.4,0.5-0.6,0.1-0.9-0.1c-1.5-1.2-3.1-2.4-4.6-3.6C193.6,155.2,193.4,155.1,193.2,154.9z"/>
	<path class="st44" d="M83.3,86.1c0.5,0,0.7-0.2,0.7-0.7c0-2.5,0-5,0-7.5c0-0.7-0.8-1.5,0.4-1.9c0,0.6,0,1.2,0,1.8
		c0,1.4,0.3,2.7,0.1,4.1c-0.1,0.5,0.1,1,0.1,1.5c0.1,0.4,0,0.8-0.2,1.2c0.1,2,0.5,4,0.4,6c-0.6-0.5-1.3-0.3-1.9-0.8
		c-0.4-0.3-0.6,0.4-1,0.3c0.2-0.4,0.3-0.8,0.2-1.3c0.5-0.3,0.6-0.9,1.1-1.1C83.4,87.3,82.7,86.6,83.3,86.1z"/>
	<path class="st45" d="M101.4,186.3c0,0-0.1,0-0.1,0c-0.5-0.1-1.1-0.4-1.4-0.2c-0.5,0.3-0.4,1.1-0.6,1.6c-0.4,1.6-0.9,3.1-1.3,4.7
		c-0.1,0.4-0.1,0.8-0.7,0.6c-0.6-0.2-0.4-0.5-0.3-0.9c0.5-1.9,1-3.8,1.6-5.6c0.2-0.7,0.1-1-0.6-1.1c-0.2,0-0.5-0.1-0.7-0.2
		c-0.3-0.1-0.3-0.3-0.2-0.6c0.1-0.3,0.2-0.4,0.5-0.3c1.3,0.4,2.7,0.8,4,1.1c0.3,0.1,0.4,0.2,0.3,0.5
		C101.9,186.2,101.7,186.4,101.4,186.3z"/>
	<path class="st46" d="M84.4,84.6c0-2.3,0-4.5,0-6.8c0.3,0.5,0.2,1.2,0.2,1.7c0,0.8,0.3,1.4,0.9,1.9c0.5,0.4,0.9,0.7,1.6,0.3
		c0.2-0.1,0.4-0.2,0.7-0.2c0.4-0.1,0.7,0.1,0.9,0.4c0.2,0.3,0.1,0.6-0.1,0.8c-0.2,0.2-0.3,0.3-0.3,0.6c0,0.4-0.2,0.7-0.6,0.8
		c-0.5,0.1-0.9-0.2-1-0.7c-0.2-0.8-0.8-1.1-1.3-1.6c-0.4-0.3-0.7-0.3-0.6,0.3c0,1.2,0.5,2.2,1.2,3c0.3,0.4,0.8,0.3,1.2,0.2
		c0.7-0.2,1.2,0,1.4,0.7c-0.2,0.3-0.6,0.2-0.9,0.2c-0.2,0-0.5-0.1-0.7,0.2c-0.2,0.3,0.1,0.4,0.2,0.6c0.2,0.3,0.5,0.6,0.1,1
		c-0.9,0-1.2-0.5-1.3-1.3C85.7,85.8,85.2,85.1,84.4,84.6z"/>
	<path class="st47" d="M29.2,110.4c-0.2-0.5,0.1-0.5,0.4-0.6c2.4-0.3,4.9-0.6,7.3-0.9c0.5-0.1,0.5,0.2,0.6,0.5
		c0.1,0.6-0.3,0.5-0.6,0.6c-1.9,0.3-3.9,0.5-5.8,0.7c-0.8,0.1-1,0.3-0.8,1.1c0.1,0.5,0.1,1,0.2,1.5c0,0.3,0,0.5-0.4,0.6
		c-0.3,0-0.5-0.1-0.6-0.4C29.4,112.4,29.3,111.3,29.2,110.4z"/>
	<path class="st48" d="M174.4,181.8c0,0.3-0.3,0.4-0.4,0.5c-1,0.5-2,1.6-2.9,1.5c-0.9-0.2-1.2-1.7-1.8-2.6c-0.7-1.2-1.5-2.5-2.2-3.8
		c-0.2-0.4-0.4-0.6,0.2-0.9c0.5-0.3,0.6,0.1,0.8,0.4c1,1.7,2,3.5,3,5.2c0.3,0.6,0.6,0.6,1.1,0.3c0.5-0.3,1-0.6,1.5-0.9
		C174.1,181.1,174.2,181.5,174.4,181.8z"/>
	<path class="st49" d="M217,109.4c-2.2-0.2-4.3-0.3-6.4-0.5c-0.4,0-0.9,0-0.8-0.6c0.1-0.8,0.6-0.4,0.9-0.4c1.9,0.1,3.8,0.3,5.7,0.4
		c0.8,0.1,1-0.2,1-0.9c0-0.6,0.1-1.1,0.1-1.7c0-0.3,0.2-0.4,0.5-0.4c0.3,0,0.4,0.1,0.4,0.4c-0.1,1.1-0.1,2.2-0.3,3.2
		C218,109.9,217.2,109.2,217,109.4z"/>
	<path class="st50" d="M110.6,195.9c-1-0.2-2-0.4-3-0.6c-0.5-0.1-0.5-0.4-0.4-0.7c0.4-2.3,0.8-4.6,1.3-6.9c0.1-0.4,0.1-0.8,0.7-0.7
		c0.7,0.2,0.3,0.5,0.3,0.9c-0.4,1.9-0.7,3.8-1.1,5.7c-0.1,0.6-0.1,1,0.7,1c0.5,0,1,0.2,1.5,0.3c0.3,0.1,0.6,0.1,0.5,0.6
		C111.1,195.9,110.9,195.9,110.6,195.9z"/>
	<path class="st8" d="M126.7,91.7c0,0.4-0.1,0.7-0.4,0.9c-0.7,0.6-1.7,1.1-2.5,1c-0.6-0.1-0.8-1.2-1-2c-0.2-0.7-0.1-1.3,0.6-1.7
		c0.6-0.3,1.1-0.1,1.4,0.6c0.2,0.4,0.5,0.2,0.7,0.1C126.4,90.6,126.6,91.1,126.7,91.7z"/>
	<path class="st51" d="M40,123.5c0.1,0.6-0.2,0.7-0.4,0.7c-2.3,0.7-4.7,1.3-7,2c-0.4,0.1-0.5,0-0.7-0.3c-0.1-0.4-0.1-0.6,0.3-0.7
		c2.4-0.7,4.7-1.3,7.1-2C39.8,123,39.9,123.3,40,123.5z"/>
	<path class="st50" d="M208,145.3c-0.2,0.3-0.2,0.8-0.8,0.5c-2.2-1.1-4.4-2.3-6.6-3.4c-0.3-0.2-0.4-0.3-0.2-0.6
		c0.2-0.3,0.3-0.5,0.7-0.3c2.2,1.1,4.4,2.3,6.6,3.4C207.8,144.9,208,145,208,145.3z"/>
	<path class="st52" d="M175.5,171c0.3,0,0.4,0.2,0.5,0.4c1.4,1.8,2.9,3.6,4.3,5.5c0.2,0.3,0.5,0.6,0,0.9c-0.5,0.4-0.6,0-0.9-0.3
		c-1.4-1.8-2.9-3.7-4.3-5.5C174.7,171.5,175,171.3,175.5,171z"/>
	<path class="st53" d="M217.1,111.9c-2.3-0.2-4.6-0.4-6.8-0.6c-0.4,0-0.8,0-0.7-0.6c0-0.6,0.5-0.5,0.8-0.5c2.3,0.2,4.5,0.4,6.8,0.5
		c0.4,0,0.9-0.1,0.8,0.6C217.9,112.2,217.4,111.8,217.1,111.9z"/>
	<path class="st54" d="M30.2,116c-0.3,0.1-0.4-0.2-0.5-0.6c-0.1-0.5,0.3-0.5,0.6-0.5c2.3-0.3,4.6-0.6,6.9-0.8c0.4,0,0.9-0.2,0.9,0.5
		c0.1,0.7-0.5,0.5-0.8,0.6C35,115.4,32.7,115.7,30.2,116z"/>
	<path class="st55" d="M123.6,66.3c0.7,0.1,0.9,0.9,1.4,1.5c0.3,0.3-0.1,0.4-0.2,0.5c-0.6,0.5-1.1,1.1-1.9,0.8
		c-0.4-0.1-0.6-0.6-0.4-0.8C123.2,67.7,122.1,66.4,123.6,66.3z"/>
	<path class="st56" d="M154.6,86.1c-0.1,0-0.5,0-0.8-0.2c-0.4-0.2-0.5-0.5-0.5-0.9c0-0.3,1.6-1.5,1.9-1.5c0.5,0,0.7,0.4,0.8,0.8
		C156.2,85.4,155.8,86.1,154.6,86.1z"/>
	<path class="st57" d="M72.3,73.4c0.4,0.2,0.6,0.5,1.2,0.4c0.7-0.1,0.9,0.8,1.4,1.2c-0.1,0.2-0.1,0.4-0.2,0.5
		c-0.7,0.7-1.7,0.8-2.3,0.2c-0.3-0.3-0.4-0.7-0.1-1C72.6,74.3,72.5,73.9,72.3,73.4z"/>
	<path class="st58" d="M124.7,75.6c0.4,0,0.7,0.1,0.9,0.4c0.2,0.4,0.1,0.7-0.3,0.9c-0.2,0.1-0.2,0.3-0.2,0.5c0,0.4-0.2,0.7-0.6,0.7
		c-0.5,0-0.8-0.2-1-0.6C122.9,76.3,123.3,75.6,124.7,75.6z"/>
	<path class="st59" d="M113,71.7c-0.1,0.2-0.2,0.6-0.3,0.9c-0.2,0.4-0.7,0.7-0.9,0.4c-0.5-0.5-0.9-1.2-1.1-1.8
		c-0.1-0.3,0.3-0.6,0.8-0.7C112.1,70.4,113,71,113,71.7z"/>
	<path class="st60" d="M118,62.6c0.2-0.4,0-1.4,0.9-1.4c0.6,0,1.5,0.2,1.6,1.1c0.1,0.4-1.3,1.3-1.9,1.2
		C118.1,63.5,118,63.1,118,62.6z"/>
	<path class="st61" d="M88.5,60.6c-0.7-0.7,0.1-1.1,0.4-1.6c0.5-0.3,0.9-0.4,1.5,0c0.3,0.3,0.5,0.4,0.2,0.8
		c-0.1,0.1-0.1,0.2-0.2,0.3C89.9,61.5,89.8,61.5,88.5,60.6z"/>
	<path class="st62" d="M96.6,74.3c0.3-0.7,0.2-1.7,1.4-1.6c0.2,0.3,0.5,0.4,0.8,0.7c0.3,0.3,0.4,0.6,0.3,0.9
		c-0.2,0.3-0.4,0.6-0.8,0.4c-0.4-0.2-0.6,0.2-0.9,0.2C97,75,96.7,74.8,96.6,74.3z"/>
	<path class="st63" d="M67.9,76.9c-0.3,0.7-0.2,1.6-1.1,1.9c-0.5-0.2-1.4-1.4-1.3-1.9c0.1-0.6,0.6-0.7,1-0.6
		C67.1,76.4,67.5,76.6,67.9,76.9z"/>
	<path class="st64" d="M75.4,60c-0.8,0.3-1.3,0.1-1.5-0.7c0.1-0.7,0.8-1,1.1-1.6c0.2-0.3,0.8-0.1,1,0.4c0.2,0.5,0.6,1,0.2,1.6l0,0
		C76,59.9,75.8,60.1,75.4,60z"/>
	<path class="st65" d="M101.3,79.6c-0.7,0.3,0.4,1.7-0.9,1.8c-0.4,0-1.5-1.2-1.3-1.5c0.3-0.6,0.9-1,1.6-1
		C100.9,78.8,101.3,79,101.3,79.6z"/>
	<path class="st66" d="M74.3,64.2c0.1,0.3,0.5,0.4,0.3,0.8c-0.1,0.9-0.9,0.9-1.5,1.1c-0.6,0.1-0.8-0.3-1-0.7C72,65,72,64.6,72,64.2
		c0.1-0.9,0.4-1,1.3-0.7C73.5,64,73.9,64.2,74.3,64.2z"/>
	<path class="st67" d="M81.5,58.6c0.3,0.5,0.4,1.2,0.4,1.8c-0.3,0.2-0.5,0.6-0.9,0.6c-0.4-0.3-0.7-0.5-1.1-0.8
		c0.2-0.3,0-0.5-0.1-0.7c-0.1-0.4-0.1-0.7,0.2-0.9c0.3-0.2,0.6-0.2,0.9,0C81.1,58.8,81.3,59,81.5,58.6z"/>
	<path class="st0" d="M90.2,66.6c0-0.3,0-0.7,0-1c0.4-0.3,1-0.3,1.2-0.9c0.2-0.1,0.4-0.2,0.6-0.1c0.9,0.7,1,1.6,0.3,2.4
		C91.5,67.3,90.8,67.3,90.2,66.6z"/>
	<path class="st68" d="M87.2,88c0.1-0.4-0.1-0.6-0.4-0.9c-0.3-0.2-0.5-0.5-0.3-0.9c0.2-0.3,0.6-0.4,0.9-0.3c0.3,0.1,0.7,0.1,1,0.2
		c0.9,0.6,0.2,1.3-0.1,1.9C88.2,88.4,87.6,88.5,87.2,88z"/>
	<path class="st69" d="M71,82.1c-0.1-0.8,0.4-1.6,1.4-2c0.5,0.4,1,1.8,0.6,2.1C72.4,82.5,71.6,82.6,71,82.1z"/>
	<path class="st70" d="M94.1,59.5c0-0.3,0.1-0.6,0.4-0.8c0.3-0.2,0.6-0.1,0.8,0.2c0.1,0.2,0.2,0.4,0.5,0.3c0.4,0,0.7,0.1,0.8,0.6
		c0,0.5-0.3,0.7-0.7,0.9C94.7,61.2,94.1,60.8,94.1,59.5z"/>
	<path class="st71" d="M96.4,66.1c-0.6,0.7-1.6,0.6-2.3,1.1c-0.1,0.1-0.4-0.1-0.3-0.2c0.6-0.6,0.3-1.8,1.3-2.1
		C95.9,65,96.3,65.4,96.4,66.1z"/>
	<path class="st72" d="M71,72.5c0,0.1-0.1,0.2-0.2,0.2c-0.4-0.7-0.9-0.2-1.4-0.1c-1,0.3-1.4,0-1.3-1.1c0.8-0.5,1.6-0.1,2.5,0
		C70.9,71.7,71.1,72,71,72.5z"/>
	<path class="st73" d="M73.3,63.5c-1.1,0-1.2,0.2-0.9,1.8c-0.3,0.3-0.6,0.3-1,0.2c-0.3-0.3-0.4-0.6-0.3-1c0.2-0.3,0.6-0.4,0.6-0.8
		c-0.1-0.5-0.1-0.9,0.5-1C72.7,62.5,73.1,62.9,73.3,63.5z"/>
	<path class="st74" d="M95,83.5c-1-0.3-1.5-1.2-2.3-1.7c-0.2-0.1-0.4-0.3-0.3-0.6c0.1-0.3,0.4-0.1,0.6-0.2c0.3,0,0.6,0,0.9,0
		c-0.2,0.2-0.6,0-0.7,0.4C94.2,81.8,95.3,82.1,95,83.5z"/>
	<path class="st75" d="M91.8,49c-0.2,0.6-0.7,1-1.2,1c-0.5,0-0.8-0.6-0.9-1.1c-0.1-0.4,0.3-0.7,0.5-0.6C90.8,48.6,91.7,48,91.8,49z"
		/>
	<path class="st76" d="M108.2,55.1c-0.1,0.5-0.4,0.8-0.7,0.6c-0.4-0.1-1.2-0.2-1.1-0.8c0.1-0.5,0.3-1.1,0.9-1.1
		C108.1,53.8,107.6,54.9,108.2,55.1z"/>
	<path class="st77" d="M186.5,111.3c0.4,0.2,1.1,0.1,1.2,0.8c0,0.9-0.9,0.7-1.3,1c-0.3,0.2-0.6-0.3-0.6-0.6
		C185.9,112,185.9,111.4,186.5,111.3z"/>
	<path class="st78" d="M142.2,78.8c0.1-0.6,0.5-1.1,0.9-1.1c0.5,0,1.1,0.4,1.1,1c0,1-0.9,0.4-1.4,0.7
		C142.5,79.5,142.3,79.1,142.2,78.8z"/>
	<path class="st79" d="M109.8,72.6c0,0.4-0.3,0.7-0.7,0.6c-0.5-0.1-1.1-0.4-1-1c0-0.5,0.5-1.1,1.1-1
		C110.1,71.3,109.4,72.3,109.8,72.6z"/>
	<path class="st80" d="M64.8,88.9c0,0.6-0.1,1.2-0.7,1.1c-0.5-0.1-1-0.7-1.1-1.2c-0.1-0.6,0.5-0.6,1-0.6
		C64.6,88.2,65,88.4,64.8,88.9z"/>
	<path class="st81" d="M92.6,98c-0.5,0-0.8-0.3-0.7-0.7c0.1-0.5,0.1-1.1,0.7-1.1c0.5,0,1.1,0.2,1.2,0.8C93.9,97.9,92.8,97.5,92.6,98
		z"/>
	<path class="st82" d="M179.3,81.8c0.4,0,0.8,0.1,0.7,0.5c-0.2,0.5-0.1,1.3-0.8,1.4c-0.7,0.1-0.9-0.6-0.9-1.1
		C178.2,81.9,178.9,82,179.3,81.8z"/>
	<path class="st83" d="M63.8,59.5c-0.1,0.6-0.7,0.5-1.1,0.6c-0.4,0.1-0.8-0.2-0.7-0.6c0.2-0.5,0.3-1.3,1.1-1.3
		C63.7,58.3,63.7,59,63.8,59.5z"/>
	<path class="st84" d="M103.8,60.4c0-0.5,0.2-0.9,0.5-0.8c0.5,0.2,1.3,0.2,1.3,0.9c0,0.7-0.7,0.8-1.2,0.8
		C103.7,61.4,104,60.6,103.8,60.4z"/>
	<path class="st85" d="M78.3,49.9c-0.4,0-0.9-0.1-0.9-0.5c0.1-0.5,0.5-1.1,1-1.2c0.6-0.1,0.7,0.5,0.7,1
		C79.2,49.9,78.7,49.9,78.3,49.9z"/>
	<path class="st86" d="M59.5,70.2c0.3,0.2,1,0.1,1,0.7c0,0.5-0.1,1.1-0.8,1.1c-0.8,0-0.6-0.8-0.9-1.2C58.6,70.6,59.1,70.3,59.5,70.2
		z"/>
	<path class="st87" d="M74.6,96.9c-0.4,0-0.7-0.2-0.6-0.6c0.1-0.5,0.3-1.1,0.9-1.1c0.4,0,1,0.3,1,1C75.8,97.1,74.9,96.5,74.6,96.9z"
		/>
	<path class="st88" d="M102.7,90.2c-0.6-0.1-1-0.6-1-1.1c0-0.5,0.6-0.8,1-0.9c0.4-0.1,0.8,0.3,0.6,0.6
		C103,89.3,103.5,90.1,102.7,90.2z"/>
	<path class="st89" d="M80.6,51.8c-0.4,0-1,0-0.9-0.6c0.1-0.5,0.5-1.1,1-1.1c0.7-0.1,0.6,0.6,0.7,1C81.5,51.9,81,51.8,80.6,51.8z"/>
	<path class="st90" d="M103,62.2c0.2,0.5,1.2,0.2,1.2,0.9c0,0.6-0.6,0.7-1.1,0.8c-0.8,0.1-0.7-0.6-0.7-1
		C102.2,62.6,102.4,62.3,103,62.2z"/>
	<path class="st91" d="M99.7,87.7c0.4,0,0.8,0.3,0.6,0.5c-0.3,0.4,0.3,1.3-0.6,1.3c-0.7,0-1-0.6-1-1.1
		C98.7,88.1,99.3,87.8,99.7,87.7z"/>
	<path class="st92" d="M74.3,92.1c0.5,0.3,1.1,0.5,1.1,1.1c-0.1,0.9-1,0.3-1.4,0.6c-0.2,0.2-0.5-0.2-0.4-0.6
		C73.6,92.7,73.9,92.4,74.3,92.1z"/>
	<path class="st93" d="M167.9,69.4c0-0.4,0.1-0.7,0.5-0.6c0.5,0.1,1,0.3,1.1,0.8c0,0.5-0.4,1-0.9,1
		C167.7,70.6,168.3,69.7,167.9,69.4z"/>
	<path class="st94" d="M63.4,69.7c-0.3,0.5-0.2,1.3-0.9,1.3c-0.7,0-0.6-0.8-0.9-1.3c-0.2-0.3,0.2-0.6,0.5-0.6
		C62.6,69.1,63.1,69.2,63.4,69.7z"/>
	<path class="st95" d="M155.5,72.8c0,0.3-0.1,0.7-0.5,0.7c-0.3,0.1-1.3-0.8-1.2-1.1c0.1-0.5,0.6-0.6,1-0.6
		C155.3,71.9,155.5,72.1,155.5,72.8z"/>
	<path class="st96" d="M77.3,87.3c0.3-1,0.6-1.9,1.3-2.6c0.3-0.4,0.4-0.2,0.3,0.2c-0.2,0.2-0.2,0.4-0.2,0.7
		C78.7,86.5,78.3,87.1,77.3,87.3z"/>
	<path class="st97" d="M118,65.9c0.1,0.4,0.3,0.9-0.4,0.9c-0.5,0-1-0.4-0.9-0.9c0-0.4,0.5-0.8,0.9-0.8C118.3,65,118.2,65.5,118,65.9
		z"/>
	<path class="st98" d="M63.8,163.2c1.1-0.2,2.1-0.3,2.7,1C65.6,163.9,64.5,164.3,63.8,163.2z"/>
	<path class="st99" d="M38.7,113.5c1,0.5,1.9,1,1.5,2.4C39.6,115.2,38.7,114.8,38.7,113.5z"/>
	<path class="st100" d="M87.2,95.3c0.4,0,0.7,0.1,0.7,0.6c0,0.4-0.1,0.9-0.6,0.8c-0.5-0.1-0.8-0.5-0.9-1
		C86.4,95.3,86.8,95.2,87.2,95.3z"/>
	<path class="st101" d="M86.4,79c0.7,0.1,0.4,0.7,0.6,1c0.2,0.4-0.1,0.6-0.5,0.6c-0.4,0-0.9-0.2-0.9-0.7
		C85.6,79.5,85.9,79.1,86.4,79z"/>
	<path class="st102" d="M68.9,57.2c-0.1,0.5-0.6,0.7-1,0.7c-0.4,0-0.6-0.5-0.6-1c0-0.3,0.2-0.7,0.6-0.4C68.3,56.7,69,56.4,68.9,57.2
		z"/>
	<path class="st103" d="M94.1,52.4c0.4,0.2,0.9,0.2,0.9,0.7c0,0.7-0.7,0.5-1.1,0.7c-0.3,0.1-0.5-0.2-0.5-0.5
		C93.5,52.9,93.6,52.4,94.1,52.4z"/>
	<path class="st104" d="M106.9,70.1c0.1,0.4-0.1,0.6-0.5,0.6c-0.4,0-0.9-0.3-0.9-0.7c0-0.4,0.4-0.8,0.8-0.8
		C107,69,106.7,69.7,106.9,70.1z"/>
	<path class="st105" d="M87.2,50.2c0.5,0.2,1.2-0.1,1.1,0.7c-0.1,0.5-0.5,0.8-0.9,0.7c-0.4,0-0.7-0.5-0.7-0.9
		C86.7,50.4,86.9,50.1,87.2,50.2z"/>
	<path class="st106" d="M64.3,83.5c-0.1,0.5-0.6,0.5-1,0.5c-0.3,0-0.7-0.2-0.5-0.5c0.2-0.4,0.2-1.1,0.8-1
		C64.1,82.5,64.1,83.1,64.3,83.5z"/>
	<path class="st107" d="M67.7,88.5c0.3,0,0.6,0.1,0.6,0.6c0,0.4,0,0.9-0.5,0.8c-0.5-0.1-0.8-0.5-0.9-1
		C66.8,88.6,67.3,88.6,67.7,88.5z"/>
	<path class="st108" d="M107,77.2c-0.1,0.6-0.7,0.5-1.1,0.7c-0.3,0.1-0.5-0.3-0.4-0.5c0.1-0.3,0-0.9,0.5-0.9
		C106.4,76.5,106.9,76.7,107,77.2z"/>
	<path class="st109" d="M63.6,63.5c-0.4,0-0.8-0.1-0.7-0.4c0.1-0.4,0.3-1,0.8-1c0.5-0.1,0.6,0.5,0.6,0.9
		C64.4,63.5,63.9,63.4,63.6,63.5z"/>
	<path class="st110" d="M90.2,83.1c0.1,0.6,0,1.1-0.3,1.7c-0.1-0.5-0.8,0-0.9-0.6C88.7,83.4,89,83.1,90.2,83.1z"/>
	<path class="st111" d="M77.2,78.5c0.1-0.5,0.2-0.9,0.8-0.7c0.3,0.1,0.8,0.2,0.7,0.6c-0.1,0.5-0.6,0.7-1.1,0.8
		C77.2,79.1,77.2,78.7,77.2,78.5z"/>
	<path class="st112" d="M95,93.8c-0.2,0.4-0.7,0.5-1.1,0.6c-0.4,0.1-0.4-0.4-0.4-0.7c0.1-0.3,0.1-0.8,0.6-0.7
		C94.5,93.1,95,93.1,95,93.8z"/>
	<path class="st108" d="M70.1,68.1c0.3,0.1,0.8,0.3,0.8,0.6c0,0.4-0.2,0.8-0.7,0.9c-0.7,0-0.4-0.6-0.5-0.9
		C69.5,68.4,69.7,68.1,70.1,68.1z"/>
	<path class="st113" d="M75.3,85.7c-0.4,0.1-0.8,0.1-0.8-0.4c0-0.5,0.4-0.8,0.8-0.8c0.4,0,0.8,0.4,0.7,0.9
		C76,85.9,75.6,85.9,75.3,85.7z"/>
	<path class="st114" d="M97.7,68.1c0.2,0.3,0.8,0.3,0.8,0.9c0,0.4-0.5,0.4-0.8,0.4c-0.6,0-0.5-0.4-0.5-0.8
		C97.1,68.3,97.2,68.1,97.7,68.1z"/>
	<path class="st115" d="M92.1,64.8c-0.2,0-0.4,0-0.6,0c0.2-0.7,0.4-1.4,0.7-2.1c-0.2,1,0.8,1.4,1,2.1C92.8,65.1,92.4,64.8,92.1,64.8
		z"/>
	<path class="st116" d="M93.1,85c-0.3,0.2,0,1-0.7,1c-0.4,0-0.5-0.4-0.6-0.8c-0.1-0.6,0.4-0.6,0.7-0.7C92.9,84.5,93.1,84.6,93.1,85z
		"/>
	<path class="st117" d="M84.6,58.2c0.1,0.4-0.2,0.6-0.7,0.6c-0.3,0-0.7-0.1-0.6-0.5c0.1-0.5,0.5-0.8,0.9-0.8
		C84.6,57.4,84.6,57.8,84.6,58.2z"/>
	<path class="st113" d="M77.7,84.6c-0.5,0.4-0.4,1.3-1.2,1.5C76,85,76.2,84.7,77.7,84.6z"/>
	<path class="st118" d="M85.2,60.4c-0.4,0.3-0.7,0.8-1.2,1c-0.3-0.2-0.7-0.6-0.4-0.9C84,60.2,84.6,60,85.2,60.4z"/>
	<path class="st119" d="M68.4,82.3c-0.4-0.1-0.7-0.5-0.9-0.8c0.2-0.1,0.3-0.2,0.5-0.2c0.3-0.1,0.7-0.4,0.9,0
		C69,81.8,69,82.2,68.4,82.3z"/>
	<path class="st120" d="M97.4,62.9c-0.4,0-0.7,0-0.7-0.5c0-0.3,0.1-0.7,0.5-0.6c0.4,0.1,0.6,0.5,0.7,0.8
		C97.9,62.9,97.6,62.9,97.4,62.9z"/>
	<path class="st121" d="M77.6,55.8c0.4,0,0.5,0.2,0.4,0.5C78,56.6,78,57,77.6,57c-0.3,0-0.7-0.1-0.7-0.5
		C76.8,56.1,77.4,56.1,77.6,55.8z"/>
	<path class="st122" d="M141,77.5c0,0.4-0.2,0.4-0.5,0.4c-0.3,0-0.7-0.1-0.6-0.5c0-0.3,0.1-0.7,0.5-0.7
		C140.9,76.7,140.8,77.3,141,77.5z"/>
	<path class="st123" d="M128,81.7c0,0.3-0.2,0.6-0.6,0.6c-0.4,0-0.6-0.3-0.6-0.6c-0.1-0.3,0.2-0.5,0.5-0.5
		C127.6,81.3,128,81.2,128,81.7z"/>
	<path class="st124" d="M138.9,86.8c-0.3,0-0.5-0.2-0.4-0.4c0-0.3,0.1-0.7,0.5-0.6c0.3,0,0.7,0.1,0.7,0.5
		C139.6,86.7,139.1,86.6,138.9,86.8z"/>
	<path class="st125" d="M98,83.9c-0.5,0-0.5-0.3-0.6-0.6c-0.1-0.5,0.3-0.6,0.6-0.6c0.2,0,0.5,0,0.4,0.3C98.4,83.3,98.1,83.6,98,83.9
		z"/>
	<path class="st126" d="M115.7,86.6c-0.4-0.1-0.5-0.4-0.5-0.7c0-0.4,0.4-0.4,0.7-0.5c0.3,0,0.4,0.2,0.3,0.5
		C116,86.2,116.1,86.6,115.7,86.6z"/>
	<path class="st127" d="M144,90.8c-0.4-0.1-0.4-0.5-0.5-0.8c-0.1-0.3,0.2-0.4,0.5-0.4c0.3,0,0.6,0.2,0.5,0.6
		C144.5,90.6,144.3,90.8,144,90.8z"/>
	<path class="st128" d="M98.5,75c0.4,0.1,0.4,0.5,0.5,0.8c0.1,0.3-0.2,0.4-0.4,0.4c-0.3-0.1-0.6-0.2-0.5-0.6
		C98,75.3,98.1,75,98.5,75z"/>
	<path class="st129" d="M164.7,98.5c-0.4-0.1-0.5-0.4-0.5-0.7c0-0.4,0.3-0.5,0.6-0.5c0.3,0,0.4,0.2,0.3,0.5
		C165.1,98.1,165.1,98.5,164.7,98.5z"/>
	<path class="st130" d="M92.3,82.7c0.6,0.3,0.9,0.9,1.2,1.4C92.6,84.2,92.1,83.7,92.3,82.7z"/>
	<path class="st131" d="M72.4,61.1c0.3,0.1,0.6,0.3,0.6,0.6c0,0.3-0.3,0.5-0.5,0.5C72,62.3,72,62,72,61.7
		C72,61.4,71.9,61.1,72.4,61.1z"/>
	<path class="st132" d="M87.1,90.4c-0.4,0-0.4-0.2-0.5-0.5c0-0.4,0.1-0.6,0.5-0.6c0.3,0,0.6,0,0.6,0.4
		C87.7,90.1,87.4,90.3,87.1,90.4z"/>
	<path class="st133" d="M70.1,80c-0.1,0.3-0.2,0.5-0.5,0.3c-0.3-0.1-0.7-0.2-0.6-0.6c0-0.3,0.3-0.4,0.6-0.4C70,79.4,70,79.7,70.1,80
		z"/>
	<path class="st134" d="M100.5,74c0,0,0.1,0.1,0.1,0.1c-0.1,0.4,0.5,0.8,0,1.1c-0.2,0.1-0.6,0.1-0.7-0.2
		C99.7,74.4,100.2,74.2,100.5,74z"/>
	<path class="st135" d="M65.1,74.1c0.1-0.5-0.1-1,0.2-1.4c0.2,0.3,0.8,0.3,0.6,0.8C65.9,73.9,65.6,74.1,65.1,74.1z"/>
	<path class="st136" d="M86.3,88.2c-0.2,0.3-0.4,0.6-0.7,0.7c-0.3,0.1-0.4-0.2-0.4-0.4c0-0.4,0.2-0.6,0.5-0.5
		C86,87.9,86.2,87.9,86.3,88.2z"/>
	<path class="st137" d="M172.3,106.5c-0.1,0.3-0.1,0.6-0.5,0.6c-0.3,0-0.7-0.1-0.6-0.5c0-0.4,0.5-0.3,0.8-0.4
		C172.2,106.1,172.4,106.3,172.3,106.5z"/>
	<path class="st138" d="M179.9,100.5c-0.4,0-0.4-0.2-0.4-0.5c0-0.3,0.1-0.6,0.5-0.5c0.3,0,0.6,0.1,0.6,0.5
		C180.6,100.4,180.2,100.4,179.9,100.5z"/>
	<path class="st139" d="M78.7,90.7c-0.5-0.1-0.9-0.4-1.3-0.7C78.5,89.5,78.5,89.5,78.7,90.7z"/>
	<path class="st140" d="M116.5,80.1c0,0.2-0.1,0.5-0.3,0.4c-0.3,0-0.6-0.2-0.6-0.6c0-0.2,0.2-0.3,0.4-0.4
		C116.3,79.5,116.4,79.8,116.5,80.1z"/>
	<path class="st35" d="M76.2,59.7c-0.1-0.5-0.1-1.1-0.2-1.6c0.2,0.2,0.5,0.2,0.7,0.2c-0.3,0.3-0.3,0.6-0.1,1
		C77,59.8,76.6,59.8,76.2,59.7z"/>
	<path class="st141" d="M188.4,94.5c0,0.3-0.2,0.5-0.5,0.6c-0.3,0-0.4-0.2-0.5-0.5c-0.1-0.4,0.2-0.4,0.4-0.4
		C188,94.2,188.3,94.1,188.4,94.5z"/>
	<path class="st142" d="M157.3,108.3c-0.3,0-0.4-0.2-0.3-0.4c0-0.2,0-0.5,0.3-0.6c0.3,0,0.5,0.2,0.5,0.5
		C157.9,108.2,157.6,108.2,157.3,108.3z"/>
	<path class="st143" d="M120.2,80.3c0.3,0.1,0.5,0.3,0.5,0.5c0,0.3-0.2,0.4-0.4,0.5c-0.3,0.1-0.4-0.1-0.4-0.3
		C119.9,80.7,119.9,80.4,120.2,80.3z"/>
	<path class="st144" d="M150.9,98c-0.3,0.1-0.4-0.1-0.4-0.3c0-0.3,0.1-0.5,0.3-0.6c0.2,0,0.5,0.1,0.5,0.4
		C151.5,98,151.1,97.9,150.9,98z"/>
	<path class="st145" d="M170.9,85.5c-0.1,0.3-0.2,0.4-0.5,0.5c-0.4,0.1-0.3-0.2-0.3-0.5c0-0.2,0-0.5,0.3-0.5
		C170.7,85,170.8,85.3,170.9,85.5z"/>
	<path class="st146" d="M139.1,68.9c0.2,0.2,0.6,0.2,0.6,0.6c0,0.2-0.3,0.3-0.5,0.3c-0.3,0-0.4-0.2-0.4-0.5
		C138.7,69.1,138.9,69,139.1,68.9z"/>
	<path class="st147" d="M89.9,64.7c-0.2,0.5-0.4,0.8-0.8,0.5C89,65.2,88.9,65,89,64.8C89.3,64.4,89.6,64.8,89.9,64.7z"/>
	<path class="st148" d="M165.3,122c-0.2,0-0.4,0-0.5,0.1c-0.4,0.1-0.8,0.3-0.8,0.7c0.1,0.5,0.6,0.4,1,0.3c1.7-0.4,3.2-1.1,4.4-2.4
		c1.5-1.7,1.7-3.9,0.6-5.9c-1.3-2.1-3.3-3.2-5.6-3.6c-5.3-1-10.6-0.5-15.7,1.3c-3,1.1-5.5,2.9-7.3,5.6c-2,3-1.7,6.4,0.8,9
		c1.8,1.9,4.2,3,6.6,4.1c3,1.4,6.2,2.5,9.1,4.2c4.7,2.8,6,7.5,3.6,12.4c-1.2,2.4-2.9,4.4-5,5.9c-6.8,5.1-14.4,6.4-22.6,5.1
		c-3.5-0.5-6.8-1.8-9.1-4.6c-2.1-2.5-3.8-5.3-1.9-8.8c0,0,0-0.1,0-0.1c0.1-0.3,0.2-0.6,0-0.8c-0.2-0.2-0.4,0.2-0.8,0.1
		c0.7-4.8,2.5-8.9,6.3-12.1c0.5-0.4,1.5-0.8,1.1-1.3c-0.3-0.5-1.3,0.1-1.9,0.5c-2.8,1.6-4.9,4-6.5,6.8c-2,3.5-3,7.1-1.8,11.1
		c0.1,0.4,0,0.7-0.2,1c-1.4,2-3.1,3.7-5.2,5.1c-5.2,3.3-10.9,4.4-17,3.4c-2.8-0.4-5.4-1.4-7.3-3.6c-2.1-2.3-2.8-5.1-3-8.1
		c-0.2-4.7,0.8-9.2,2.5-13.6c0.6-1.5,1.1-3,2.1-4.5c0.2,0.4,0.4,0.7,0.6,1.1c1.8,3.1,4.4,5.4,7.8,6.8c3.8,1.5,7.7,2,11.7,1.6
		c5.2-0.5,9.7-2.6,12.9-7c2.3-3.1,3.3-6.6,2.2-10.4c-1.2-4-4.2-6.4-8-7.5c-9.5-2.7-17.8-0.4-24.9,6.5c-0.6,0.6-1.1,1.2-1.8,1.9
		c-0.1-0.3-0.1-0.4-0.2-0.5c-2.5-7.6-4.4-15.3-5.6-23.2c-0.4-2.6-0.7-5.2-1-7.7c-1-1.1-2.1-1.3-2.9-0.4c-0.4,0.4-0.6,0.8-0.3,1.3
		c0.3,0.5,0.7,0.2,1.2,0.1c0.5-0.1,1.1-0.2,1.2,0.8c0.2,2.5,0.5,5,0.9,7.4c1.2,8.2,2.7,16.3,4.7,24.3c0.1,0.5,0,0.8-0.3,1.2
		c-4.5,6.3-6.8,13.2-6.2,20.9c0.4,5.4,2.7,9.9,7.7,12.5c7.5,4,14.9,3.3,22-1c2.8-1.6,5.1-3.8,6.9-6.6c0.6,0.9,1,1.8,1.6,2.5
		c2.7,3.6,6.4,5.3,10.6,6.2c6.1,1.3,12.1,0.9,18-1c6.1-2,11.1-5.5,14.8-10.7c3.6-5.1,2.8-10.2-2.2-13.9c-2.3-1.7-4.9-2.8-7.4-4
		c-2.7-1.3-5.5-2.3-7.9-4.1c-1.9-1.4-3.3-3.1-3-5.6c0.2-2,1.3-3.5,2.9-4.5c4.8-3.4,10.1-4.6,15.9-3.6c2.2,0.4,4,1.6,5.1,3.6
		C169.6,118.8,168.3,121.5,165.3,122z M92.8,126.7c3.6-5.1,8-9.3,14.1-11.2c4.5-1.4,8.9-1.3,13.1,1.3c3.5,2.1,5.1,6.4,3.9,10.3
		c-1.8,5.9-6.1,8.8-11.9,9.9c-1.2,0.2-2.4,0.3-3.6,0.3c-3.9-0.1-7.7-0.8-10.9-3.1c-2.2-1.6-3.7-3.8-4.8-6.3
		C92.4,127.4,92.5,127.1,92.8,126.7z"/>
	<path class="st149" d="M71.4,65.5c0.3-0.3,0.7-0.1,1-0.2c0.5,0.8,1.4,0.6,2.3-0.4c1.3,0.4,2.3,1.1,2.9,2.5c-1.1-0.3-2.1,0-2.9-0.7
		c-0.4-0.3-0.8-0.3-1.1,0.1c-0.4,0.3-0.4,0.7,0,1.1c0.1,0.1,0.2,0.3,0.1,0.5c-0.2,0.4-0.1,0.8,0.4,0.9c0.4,0.1,0.9,0,1.1-0.4
		c0.4-0.7,0.8-1.2,1.8-1.1c1,0.1,1.6,0.6,2.1,1.3c0.5,0.7,1.3,1.2,1.5,2.1c0,0.1-0.1,0.1-0.1,0.2c-0.4,0.4,0.1,1.2-0.6,1.3
		c-0.4,0.1-0.9-0.1-1.4-0.3c-0.7-0.2-1.3-0.4-2-0.5c-1.8-0.2-2.8-1.3-3.5-2.9c0.2-0.7-0.2-1.2-0.7-1.6
		C71.8,66.9,71.6,66.2,71.4,65.5z"/>
	<path class="st150" d="M97.4,71.7c-0.3,0.2-0.7,0.5-0.8,0.9c-0.2,1.3-1.3,1.7-2.3,1.9c-1,0.2-2,0.3-3.1-0.3
		c1.1-0.6,1.6-1.6,2.9-1.6c0.4,0,0.7-0.3,0.7-0.8c0-0.4-0.2-0.6-0.6-0.7c-0.2,0-0.3-0.1-0.4-0.3c-0.2-0.5-0.5-0.8-1-0.5
		c-0.6,0.3-0.7,0.8-0.6,1.3c0.2,1.3-0.8,2.5-2.1,2.4c-0.5,0-1-0.2-1.4-0.3c-0.6-0.1-1.3-0.2-1.9-0.3c-0.1-1.5,0.8-2.2,2-2.6
		c0.6-0.2,1.3-0.6,1.9-0.9c1.4-0.8,2.7-0.7,4,0.1c0.3,0.8,1,0.8,1.6,0.9C96.7,71.1,97,71.4,97.4,71.7z"/>
	<path class="st151" d="M81,70.6c-1.3-1.3-2.5-2.5-1.9-4.7c0.2-0.7,0.7-0.7,1.1-0.9c0.1-0.5,0.3-0.9,0.8-1.2c0.3-0.1,0.6-0.2,0.9,0
		c0.3,2.2,0.6,4.5,0.9,6.8C82.1,70.3,81.5,70.3,81,70.6z"/>
	<path class="st152" d="M90.2,66.6c0.7,0.2,1.3,0.6,2.1,0.2c0.4-0.2,0.6-0.1,0.4,0.4c-0.1,0.2-0.2,0.3-0.4,0.4
		c-0.8-0.3-1.2,0.1-1.4,0.9c-1.3,0.8-2.7,1.6-4,2.4c-0.7,0.5-1-0.6-1.5-0.4c-0.5-0.1-0.5-0.3-0.3-0.8C85.9,67.1,88,66.8,90.2,66.6z"
		/>
	<path class="st153" d="M86.5,73.9c0.8,0.2,1.6,0.4,2.4,0.5c0.6,0.1,1,0.4,1.3,0.9c1,1.6,1.7,3.2,2.1,5c-0.2,0-0.5-0.1-0.7-0.1
		c-0.2-0.7-0.6-1.3-1.4-1.2c-1.4-1.3-2.8-2.8-4.2-4.1C85.4,74.4,86.3,74.2,86.5,73.9z"/>
	<path class="st154" d="M75.4,60c0.3-0.1,0.5-0.2,0.8-0.2c-0.4,0.6-0.8,1.4,0.1,1.9c0.7,0.5,1.5,0.7,2.2-0.1c0.5-0.5,1-0.4,1.5,0
		c0.1,0.2,0.2,0.5-0.1,0.7c-0.3,0.2-0.8-0.1-0.9,0.4c-0.2,0.4,0,0.7,0.1,1c0.1,0.3,0.3,0.7-0.1,0.9c-0.2,0.9-0.4,1.8-0.6,2.7
		c-0.5-0.1-0.7-0.6-0.9-0.9c-0.7-1.1-1.4-2.3-2-3.5C75,61.9,74.7,61,75.4,60z"/>
	<path class="st155" d="M83.7,63.1c0,0.7,0.2,1.2,1,1.3c1,0.2,1.5,1,1.2,2c-0.5,1.5-1.3,2.9-1.9,4.3c0,0.1-0.3,0.1-0.5,0.2
		c-0.5-2.1-0.4-4.3-0.6-6.4C82.9,63.9,83.2,63.4,83.7,63.1z"/>
	<path class="st156" d="M80.2,85.9c-0.5-1.1-0.8-2.1-0.1-3.4c0.8-1.5,1.7-2.8,2.4-4.3c0.1,1.4,0.3,2.7,0.2,4.1
		c0,0.3-0.1,0.2-0.3,0.2c-0.2,0-0.3,0-0.5,0.1c-1.3,0.5-1.3,0.7-0.8,1.9C81.5,85.5,81.3,85.9,80.2,85.9z"/>
	<path class="st157" d="M92.3,77.7c-0.7-0.8-1.1-1.8-1.7-2.9c2.1,0.2,3.8,1.1,5.5,1.8c0.5,0.2,1.3,0.3,1.4,1
		c-0.8-0.1-1.5,0.1-1.9,0.8c-0.3,0.3-0.6,0.3-0.9,0.2c-0.5-0.5-1.3-0.8-1.5-1.5c-0.1-0.2,0-0.5-0.2-0.5c-0.1,0-0.1,0.3-0.2,0.4
		C92.7,77.3,92.6,77.6,92.3,77.7z"/>
	<path class="st155" d="M86.5,60.3c1.9,1.1,1.9,3.6,0.1,5.2c-0.5-0.8-0.3-1.6-0.2-2.4c0-0.4,0.1-0.9-0.4-1c-0.4-0.1-0.8-0.1-0.9,0.4
		c-0.2,0.5-0.9,0.3-1.2,0.6C84.3,61.9,85.5,61.2,86.5,60.3z"/>
	<path class="st158" d="M83.3,86.1c-0.1,0.6,0.3,1.2-0.2,1.8c0-0.4-0.2-0.7-0.5-1c-0.3-0.3-0.7-0.6-0.9-1c-0.2-0.3-0.6-0.7,0.1-0.9
		c0.8,0.1,0.8-0.5,0.8-1.2C83.4,84.6,82.9,85.4,83.3,86.1z"/>
	<path class="st159" d="M79.8,62.3c0.2-0.2,0.2-0.4,0.2-0.7c1.1,0.3,1.7,1,1.8,2.1c-0.3,0.1-0.5,0.2-0.8,0.2
		c-0.4-0.8-1.3-0.8-1.9-1.2C79.1,62.1,79.6,62.4,79.8,62.3z"/>
	<path class="st160" d="M81.9,85c-0.4,0.4,0,0.6,0.2,0.9c0.2,0.4,0.4,0.7,0.6,1c-0.5-0.3-1-0.4-1.5-0.5c-0.3-0.1-0.8,0-0.9-0.5
		c0.7-0.2,1.2-0.6,1-1.4C81.5,84.6,81.7,84.8,81.9,85z"/>
	<path class="st161" d="M92.7,67.2c0-0.3-0.2-0.4-0.4-0.4c0.1-0.7,0.5-1.4-0.2-2.1c0.3-0.4,0.7,0.1,1,0c0.4,0.2,0.6,0.5,0.3,0.9
		C93.2,66.2,93.2,66.9,92.7,67.2z"/>
	<path class="st162" d="M92.9,80.4c-0.1-0.3-0.1-0.7-0.2-1C93.1,79,93.6,79,94,79c0.6,0.3,0.7,0.6,0.4,1.2
		C93.9,80.5,93.4,80.5,92.9,80.4z"/>
	<path class="st163" d="M94.4,80.2c0-0.4,0.1-0.8-0.4-1.1c-0.1-0.5,0.2-0.6,0.6-0.6c0.3,0,0.7,0,1,0C95.4,79.2,95.2,79.9,94.4,80.2z
		"/>
	<path class="st164" d="M90.9,68.5c0-0.4-0.4-1,0.2-1.2c0.3-0.1,1-0.4,1.2,0.3C92.1,68.3,91.4,68.3,90.9,68.5z"/>
	<path class="st165" d="M90.2,79c1.3-0.4,1.4-0.3,1.4,1.2C90.9,80.1,90.6,79.5,90.2,79z"/>
	<path class="st166" d="M74.7,72.5c-0.1,0-0.2,0-0.2,0.1c-0.7,0.9-1.3,0.7-1.9-0.1C73.4,72.2,74,72.2,74.7,72.5z"/>
	<path class="st167" d="M96.2,71c-1.2,0.4-1.6,0.2-1.6-0.9C95.1,70.4,95.8,70.5,96.2,71z"/>
	<path class="st168" d="M72.2,67.5c1.1,0.3,1.2,0.7,0.7,1.6C72.6,68.5,72.4,68,72.2,67.5z"/>
	<path class="st169" d="M71,72.5c-0.2-0.3-0.5-0.6-0.5-1c0.5-0.1,1,0.2,1.4,0.5C71.7,72.3,71.3,72.3,71,72.5z"/>
	<path class="st170" d="M80.9,61c0.3-0.3,0.5-0.6,0.9-0.6c0,0.4,0,0.9,0,1.4C81.4,61.6,81.2,61.3,80.9,61z"/>
	<path class="st171" d="M80.1,17.2c1.3,0,2.3,1,2.4,2.3c0.1,1.1-1,2.4-2.1,2.6c-0.4,0-0.4-0.2-0.5-0.4c-0.5-1-1.1-2.1-1.6-3.1
		c-0.1-0.2-0.3-0.4,0.1-0.6C78.9,17.6,79.5,17.3,80.1,17.2z"/>
	<path class="st172" d="M179.4,25.6c0,1.1-0.6,1.9-1.7,2.2c-0.8,0.2-2.2-0.2-2.6-0.9c-0.2-0.3-0.1-0.4,0.1-0.6
		c0.7-0.9,1.3-1.9,2-2.8c0.1-0.2,0.3-0.4,0.7-0.3C178.7,23.6,179.4,24.6,179.4,25.6z"/>
	<path class="st173" d="M126.5,8.8c0-0.2,0-0.5,0-0.7c0.1-0.5-0.3-1.3,0.3-1.5c0.8-0.3,1.6-0.2,2.3,0.4c0.8,0.7,1.1,1.9,0.5,2.9
		c-0.5,0.9-1.8,1.5-2.9,1.2c-0.4-0.1-0.3-0.4-0.3-0.7C126.5,9.9,126.5,9.4,126.5,8.8C126.5,8.8,126.5,8.8,126.5,8.8z"/>
	<path class="st174" d="M167.7,182.8c0,1.8-1.4,3.3-3.2,3.3c-1.9,0-3.5-1.5-3.5-3.4c0-1.8,1.5-3.3,3.3-3.3
		C166.1,179.4,167.7,180.9,167.7,182.8z"/>
	<path class="st174" d="M196.4,150.9c0-1.8,1.4-3.2,3.2-3.3c1.9,0,3.5,1.5,3.5,3.4c0,1.8-1.5,3.3-3.3,3.3
		C197.9,154.3,196.4,152.7,196.4,150.9z"/>
	<path class="st175" d="M94.6,78.5c-0.2,0.2-0.4,0.4-0.6,0.6c-0.4,0.2-0.9,0.1-1.3,0.2c-0.8-0.4-0.2-1.1-0.4-1.7
		c0-0.3,0.2-0.5,0.5-0.6c0.2-0.2,0.4-0.2,0.6,0C93.4,77.8,94.6,77.7,94.6,78.5z"/>
	<path class="st176" d="M68.5,171.5c-0.1,1.1-0.7,2.2-2,2.7c-1.3,0.6-2.5,0.2-3.6-0.7c-0.3-0.2-0.3-0.4-0.1-0.8
		c1.1-1.4,2.3-2.9,3.4-4.3c0.2-0.3,0.4-0.4,0.7-0.1C67.8,169.1,68.6,169.9,68.5,171.5z"/>
	<path class="st177" d="M43.8,147.7c-1.6,0-2.8-0.8-3.3-2c-0.2-0.3-0.1-0.5,0.2-0.7c1.6-0.9,3.2-1.8,4.8-2.8
		c0.3-0.2,0.5-0.2,0.7,0.2c0.6,1.1,0.9,2.2,0.3,3.4C45.9,147,44.9,147.7,43.8,147.7z"/>
	<path class="st178" d="M124.7,192.4c0-0.9,0-1.7,0-2.6c0-0.3,0-0.6,0.5-0.6c1.3,0,2.4,0.2,3.2,1.4c0.7,1.1,0.8,2.3,0.2,3.5
		c-0.7,1.3-1.8,1.6-3.1,1.7c-0.5,0-0.5-0.2-0.5-0.6C124.8,194.3,124.8,193.4,124.7,192.4C124.7,192.4,124.7,192.4,124.7,192.4z"/>
	<path class="st179" d="M208,127.6c0.6-0.1,1-0.1,1.4-0.1c0.3,0,0.7-0.2,0.8,0.1c0.1,0.3-0.1,0.7-0.2,1.1c-0.1,0.3-0.3,0.1-0.5,0
		C209,128.4,208.6,128.1,208,127.6z"/>
	<path class="st180" d="M42.2,135.8c-0.5,0.5-0.9,0.7-1.2,1.1c-0.5,0.6-0.7,0.4-1-0.3c-0.3-0.6-0.2-0.9,0.5-0.8
		C41.1,135.8,41.6,135.8,42.2,135.8z"/>
	<path class="st181" d="M104.6,188.2c0.1,0.5,0.1,0.9,0.2,1.3c0.2,0.7-0.1,0.8-0.7,0.7c-0.5-0.1-0.9-0.3-0.4-0.8
		C104,189,104.1,188.5,104.6,188.2z"/>
	<path class="st182" d="M58.2,160.9c-0.3,0.5-0.5,0.9-0.7,1.2c-0.2,0.2-0.2,0.7-0.6,0.6c-0.3-0.1-0.5-0.5-0.8-0.8
		c-0.2-0.3,0.1-0.3,0.3-0.4C57,161.4,57.5,161.2,58.2,160.9z"/>
	<path class="st183" d="M79.2,62.7c0.8,0.1,1.9-0.1,1.9,1.2c-0.3,0.4-0.4,0.9-0.8,1.1c-0.4,0-0.8-0.1-1.1-0.4
		c0.3-0.7-0.4-1.1-0.5-1.7c0-0.4,0.2-0.2,0.3-0.3C79,62.6,79.1,62.6,79.2,62.7z"/>
	<path class="st184" d="M77.2,70c-0.2-0.4-1-0.3-1-0.8c0-0.5,0.5-0.6,1-0.6c0.6,0,0.5,0.5,0.6,0.9C77.9,69.8,77.7,70,77.2,70z"/>
	<path class="st185" d="M90.7,71.7c0.3,0,0.8-0.3,0.8,0.4c0,0.4-0.4,0.8-0.8,0.8c-0.5,0-0.8-0.4-0.8-0.8
		C89.8,71.5,90.3,71.6,90.7,71.7z"/>
	<path class="st186" d="M79.2,62.7c-0.1,0-0.1,0-0.2,0c-0.1-1,0.4-0.7,0.9-0.4C79.6,62.4,79.4,62.5,79.2,62.7z"/>
	<path class="st187" d="M84.6,65c0.6,0.1,0.7,0.6,0.7,0.9c0,0.6-0.6,0.6-1,0.6c-0.2,0-0.6-0.2-0.5-0.4C84.1,65.8,84,65.1,84.6,65z"
		/>
	<path class="st188" d="M93.3,77.1c-0.2,0-0.4,0-0.6,0c-0.2-0.3-0.2-0.6,0.1-0.9c0.1-0.1,0.3-0.1,0.4,0
		C93.4,76.4,93.3,76.7,93.3,77.1z"/>
</g>
</svg>
