<?xml version="1.0" encoding="utf-8"?>
<!-- Generator: Adobe Illustrator 25.2.1, SVG Export Plug-In . SVG Version: 6.00 Build 0)  -->
<svg version="1.1" id="Camada_1" xmlns="http://www.w3.org/2000/svg" xmlns:xlink="http://www.w3.org/1999/xlink" x="0px" y="0px"
	 viewBox="0 0 247.2 202.1" style="enable-background:new 0 0 247.2 202.1;" xml:space="preserve">
<style type="text/css">
	.st0{fill:#166982;}
	.st1{fill:#EBAD00;}
	.st2{fill:#EA6C49;}
	.st3{fill:#E76347;}
	.st4{fill:#1E6E88;}
	.st5{fill:#E05B42;}
	.st6{fill:#EAA119;}
	.st7{fill:#E77442;}
	.st8{fill:#E58037;}
	.st9{fill:#D7563F;}
	.st10{fill:#28A090;}
	.st11{fill:#E49422;}
	.st12{fill:#B6AE52;}
	.st13{fill:#42A291;}
	.st14{fill:#5BA18D;}
	.st15{fill:#CAAE3B;}
	.st16{fill:#739F87;}
	.st17{fill:#A1AE61;}
	.st18{fill:#8FAD6E;}
	.st19{fill:#C57354;}
	.st20{fill:#4FA68A;}
	.st21{fill:#D7AF29;}
	.st22{fill:#A78B69;}
	.st23{fill:#76AA79;}
	.st24{fill:#8E987C;}
	.st25{fill:#64A982;}
	.st26{fill:#3A6E7F;}
	.st27{fill:#37727C;}
	.st28{fill:#306979;}
	.st29{fill:#336876;}
	.st30{fill:#2D6873;}
	.st31{fill:#346876;}
	.st32{fill:#356779;}
	.st33{fill:#417989;}
	.st34{fill:#3D6E7F;}
	.st35{fill:#3C6F7C;}
	.st36{fill:#366776;}
	.st37{fill:#326D78;}
	.st38{fill:#366B79;}
	.st39{fill:#34677A;}
	.st40{fill:#35697C;}
	.st41{fill:#457682;}
	.st42{fill:#517D8D;}
	.st43{fill:#336577;}
	.st44{fill:#CA8652;}
	.st45{fill:#6A8F9A;}
	.st46{fill:#34A38F;}
	.st47{fill:#F1D8C6;}
	.st48{fill:#CCF3F8;}
	.st49{fill:#E4BD4C;}
	.st50{fill:#DFAE19;}
	.st51{fill:#CF8268;}
	.st52{fill:#4B7674;}
	.st53{fill:#EFCF74;}
	.st54{fill:#E1C468;}
	.st55{fill:#C2E8F3;}
	.st56{fill:#A0D5DB;}
	.st57{fill:#F7EFB8;}
	.st58{fill:#FAEAC4;}
	.st59{fill:#F4E6A0;}
	.st60{fill:#EDC05A;}
	.st61{fill:#B0DDE4;}
	.st62{fill:#7AAA9C;}
	.st63{fill:#F3DC91;}
	.st64{fill:#D8A69A;}
	.st65{fill:#E1C755;}
	.st66{fill:#FAFBF8;}
	.st67{fill:#E6B944;}
	.st68{fill:#DA7857;}
	.st69{fill:#E8922D;}
	.st70{fill:#E0A642;}
	.st71{fill:#01A59B;}
	.st72{fill:#1BA494;}
	.st73{fill:#F4E27C;}
	.st74{fill:#E6BCAD;}
	.st75{fill:#27637A;}
	.st76{fill:#A1A178;}
	.st77{fill:#8DA283;}
	.st78{fill:#C58F69;}
	.st79{fill:#B09572;}
	.st80{fill:#EAAC03;}
	.st81{fill:#BA9C69;}
	.st82{fill:#ED8543;}
	.st83{fill:#E6A720;}
	.st84{fill:#72A789;}
	.st85{fill:#C98461;}
	.st86{fill:#5CA88F;}
	.st87{fill:#EB784C;}
	.st88{fill:#41A893;}
	.st89{fill:#D7A938;}
	.st90{fill:#E08553;}
	.st91{fill:#CFA152;}
	.st92{fill:#0AA797;}
	.st93{fill:#24A797;}
	.st94{fill:#D1B363;}
	.st95{fill:#DC9E53;}
	.st96{fill:#DDA341;}
	.st97{fill:#E6C56A;}
	.st98{fill:#D3935A;}
	.st99{fill:#DD9948;}
	.st100{fill:#EC9335;}
</style>
<g>
	<path class="st0" d="M181.3,155.5c-0.6-1-0.5-1.6,0.4-2.3c3.6-2.9,6-6.6,7.3-11.1c3.7-13.3-5.9-26.7-19.7-27.2
		c-7.5-0.3-15.1-0.1-22.6-0.1c-1.9,0-2.7,0.7-3.2,2.5c-0.8,2.8-1.5,5.5-2.3,8.3c-0.9,3.3-0.7,3.7,2.7,3.6c1.4,0,1.6,0.5,1.6,1.7
		c-0.1,6.5,0,13,0,19.5c0,6.7,0,13.3,0,20c0,1.8,0.7,2.5,2.5,2.6c3.2,0,6.3,0,9.5,0c2,0,2.6-0.6,2.6-2.6c0-2.6,0-5.2,0-7.8
		c0-1.4-0.6-3.3,0.3-4.2c1-1,2.8-0.2,4.3-0.3c1.1-0.1,1.7,0.3,2.2,1.3c1.8,3.7,3.8,7.3,5.6,10.9c0.9,1.8,2.2,2.8,4.3,2.7
		c3.5-0.1,7,0,10.5,0c2.4,0,2.7-0.5,1.6-2.6C186.5,165.4,184,160.4,181.3,155.5z M168.6,143.5c-2.4,0.1-4.9,0-7.3,0
		c-0.9,0-1.1-0.5-1.1-1.2c0-2,0-4,0-6h0c0-1.9,0-3.9,0-5.8c0-0.9,0.3-1.3,1.2-1.3c2.3,0.1,4.7,0,7,0c3.7,0.1,6.8,3.2,6.8,6.8
		C175.3,140,172.5,143.3,168.6,143.5z"/>
	<path class="st0" d="M124.8,150.6c0,6.5,0,13,0,19.5c0,2.2-0.6,2.9-2.9,2.9c-2.9,0-5.8,0-8.7,0c-2.5,0-3-0.5-3-3
		c0-12.9,0-25.7,0-38.6c0-2.4,0.2-2.1-2.2-2.1c-3.3,0-6.7,0-10,0c-1.9,0-2.5-0.6-2-2.4c0.8-3.3,1.7-6.6,2.7-9.9
		c0.4-1.5,1.4-2.1,3.1-2.2c4.1,0,8.2,0,12.3,0c7.9,0,15.8,0,23.6,0c2.3,0,2.8,0.5,2.3,2.8c-0.8,3.3-1.7,6.5-2.6,9.8
		c-0.4,1.4-1.5,2-2.9,2c-2.7,0-5.3,0.1-8,0c-1.3,0-1.8,0.3-1.8,1.7C124.9,137.5,124.8,144.1,124.8,150.6
		C124.8,150.6,124.8,150.6,124.8,150.6z"/>
	<path class="st0" d="M77.6,155.3c2.7,2.3,5.8,3.1,9.2,3.2c1,0,2,0,3,0c1.6,0,2.3,0.6,2.3,2.2c0.1,3.4,0,6.8,0,10.2
		c0,1.3-0.7,2-2.1,2.1c-9.8,0.6-18.3-2.2-25-9.5c-5.7-6.3-8.4-13.8-7.4-22.3c1.4-12.4,8.2-20.6,19.9-24.9c3.1-1.1,6.4-1.5,9.7-1.5
		c2.1,0,4.2,0,6.3,0c1.9,0,2.4,0.7,1.9,2.5c-0.8,3.2-1.7,6.4-2.6,9.6c-0.5,1.8-1.3,2.3-3.1,2.4c-2,0.1-4-0.1-6,0.3
		c-10.8,2.3-15.5,15.2-8.4,23.4C76,153.8,76.7,154.6,77.6,155.3z"/>
	<path class="st1" d="M101.2,91.1c-1.2-0.5-2.3-1.2-3.3-2c-0.5-0.9-1-1.7-2.1-1.8c-0.4-0.2-0.7-0.5-0.7-0.9c0.2-1.5,1.4-0.8,2.3-1.2
		c-0.9-2.7,0.8-4.6,1.9-6.7c0.4-0.8,1.3-0.9,2.1-0.7c2.3,0.5,4.5-0.3,6.8-0.1c0.6,0,0.6-0.4,0.6-0.8c0-0.8,0.4-1.1,1.2-0.8
		c0.4,0.2,0.7,0.5,0.9,0.7c0.4,0.5,1,0.5,1.4,0.7c1.1,0.7,2,1.8,3,2.6c2.8,2.3,6,3.4,9.5,3c2.5-0.3,4.8-1.1,7-2.4
		c1.9-0.6,3.3-1.8,3.8-3.9c0.7-1.8,1.1-3.8,2.4-5.3c1.4,0,2.5,0.9,3.7,1.3c0.6,0.2,0.8,0.8,0.9,1.3c0.5,2.4,1.2,4.7,1.4,7.1
		c0.1,1.1-0.1,2.1-0.4,3.1c-0.5,1.5-1.2,3-1.2,4.6c0.1,1.1-1.3,0.8-1.5,1.5c-0.3,0.8,1.4,0.8,1.1,1.8c-0.1,0.3-0.3,0.6-0.6,0.8
		c-0.8,0.6-1.5,0.1-2.2-0.3c-0.4,0.5-0.1,1.2-0.6,1.6l0,0c-0.8,0.5-1.9,0-2.6,0.7h0c-0.8,0.5-1.9,0-2.7,0.6
		c-5.3,1.1-10.6,1.2-16,0.6c-1.1-0.5-2.3,0-3.3-0.6c-1.8-0.3-3.6-0.8-5.3-1.4c-0.9-0.9-2.2-0.9-3.3-1.3c-0.5,0-0.9-0.3-1.4-0.6
		c-0.4-0.4-1-0.3-1.4-0.7h0C102.2,91.2,101.6,91.4,101.2,91.1z"/>
	<path class="st2" d="M163.8,21.8c1.9,2,2.7,4.6,4,7c0.3,0.5,0.2,1.2,0.7,1.7c1.7,3.9,2.7,8.1,3.2,12.3c0.4,4.3,0.4,8.6-0.2,12.9
		c0,0.3-0.2,0.5-0.3,0.8c-0.9-0.4-1.1-1.2-1.2-2c-0.2-1-0.4-1.9-1.5-2.4c-1-0.5-1.2-1.4-1.1-2.4c0.1-1.4-0.5-2.3-1.6-3.3
		c-1.7-1.6-4-2.7-4.8-5.1c-0.3-0.9-1.1-1-1.9-0.8c-0.7,0.1-1.2,0.5-1.8,0.9c-1.6-0.6-2.3-2-3.1-3.4c-0.1-0.4-0.2-0.8-0.7-1
		c-1.9-1-3.9-1.9-5.9-2.7c-2.1-0.8-4.4-1.8-5.3-4.5c-0.5-1.7-1.5-3.3-3.1-4.4c-1.1-0.8-1.5-2-1.3-3.3c1.9-0.5,3.3,0.7,4.5,1.9
		c1.5,1.5,3.3,2.4,4.7,3.9c2,2.1,4.5,1.8,7,1.3c2.8-0.6,2.8-0.7,3.1-3.6c0-0.2,0-0.3,0.1-0.5c0.2-0.8,0.2-1.7,1.3-1.9
		c1.1-0.2,1.7,0.4,1.8,0.9c-1-1.8,1.1-3,1.6-4.6C162.8,19.8,163.4,20.7,163.8,21.8c-0.1,0.1-0.3,0.2-0.4,0.1
		c-0.6-0.2-0.7,0.1-0.7,0.6c0,0,0.1,0.2,0.1,0.1c0-0.3-0.1-0.7,0.4-0.7C163.5,22,163.7,22,163.8,21.8z"/>
	<path class="st3" d="M161.9,19.1c0,1-0.1,1.9-0.9,2.7c-0.8,0.7-0.7,1.5,0.2,2.2c0.3,0.2,0.9,0.6,0.3,1c-0.4,0.3-0.8,0-1.1-0.4
		c-0.1-0.1-0.1-0.2-0.2-0.3c-0.4-0.7-0.6-1.5-1.7-1.2c-1,0.3-0.7,1.2-1,1.9c-0.2,0.5,0,1.1-0.1,1.6c-0.2,1.1-0.6,1.9-1.9,2.2
		c-1.3,0.3-2.7,0.5-4,0.7c-2.7,0.2-4.5-1-6.1-2.9c-0.3-0.3-0.6-0.7-1-0.8c-0.9-0.2-1.4-0.8-1.9-1.4c-1.2-1.5-2.8-2.2-4.7-2.6
		c-1.2-0.7-1.5-2-2.3-2.9c-0.4-0.5-0.8-1.1-1.3-1.7c-0.4-1.3,0-1.9,1.2-1.9c0.3,0,0.7,0.1,1,0.2c1.9,0.7,3.8,1.5,5.9,0.7
		c0.5-0.2,1.2,0.1,1.8,0.3c0.7,0.2,1.3,0.2,1.9-0.2c0.9-0.8,2-0.8,3.1-0.6c1.1,0.2,2.3,0.4,2.6-1.3c0.3-1.2,1.5-0.8,2.5-0.8
		c0-0.6-0.3-1.3,0.5-1.7c0.9,0,1.2,1.1,2,1.4c2,1.5,3.3,3.6,5,5.4C161.8,18.7,161.8,18.9,161.9,19.1z"/>
	<path class="st4" d="M123.7,184.3c-21.4,0-42.8,0-64.2,0c-0.7,0-2,0.4-2-0.8c0-1.3,1.3-0.9,2.1-0.9c42.7,0,85.3,0,128,0
		c0.8,0,2.1-0.4,2.2,0.8c0.1,1.4-1.3,0.8-2.1,0.8C166.3,184.3,145,184.3,123.7,184.3z"/>
	<path class="st5" d="M154.9,11.8c-0.2,0.4-0.6,0.9,0,1.3c0.3,0.3,0.5,0.7,0.2,1c-0.4,0.5-0.6-0.1-1-0.2c-1.3-0.5-1.8-0.2-1.9,1.2
		c-0.1,0.7-0.4,1-1.1,1c-0.8,0-1.5,0.1-2.3-0.2c-1-0.3-1.8-0.2-2.5,0.6c-0.5,0.6-1.1,0.7-1.8,0.4c-1.3-0.6-2.5-0.6-3.8,0
		c-0.8,0.3-1.5,0.3-2.1-0.3c-0.8-0.7-1.9-0.7-2.9-1c-0.9-0.3-1.6,0.4-1,1.5c-0.7,0.4-1.1,0-1.3-0.5c-0.6-1.1-1.7-1.5-2.7-2
		c-1-0.8-2.1-1.3-3.1-2c-1.2-0.9-2.5-2.1-3.4-3.4c-0.2-0.3-0.2-0.8,0.1-1.2c2-0.9,3.9-1.5,5.9,0c1,0.8,2.1,0.7,2.9-0.4
		c0.7-0.9,1.5-1,2.5-0.7c0.6,0.2,1.2,0.3,1.7,0.5c1.2,0.5,2.1,1,2.9-0.7c0.5-1,1.7-0.6,2.5,0c1.2,0.8,2.3,1.6,3.8,0.6
		c0.8-0.6,1.7,0.5,2.7,0.3c0.8,0.2,1.5,0.7,2,1.3c0.2,0.6,0.9,0.6,1.3,0.9l0,0c0.2,0.1,0.4,0.3,0.4,0.5c-0.4,1.5,0.5-0.3,0.5,0.2
		C153.9,10.9,154.4,11.3,154.9,11.8z"/>
	<path class="st6" d="M141.2,93c0.1-0.5,1.2-1.2-0.3-1.4c-0.5-0.1-1.1-0.6-0.9-1.4c0.2-0.7,0.8-0.4,1.3-0.5c0.3-0.1,0.9,0.1,0.7-0.5
		c-0.3-1.7,0.5-3.3,1.1-4.8c0.8-2.1,0.2-4-0.1-6c-0.1-0.7-0.4-1.3-0.5-2.1c-0.2-1.8-0.5-3.6-2.9-3.8c-0.6,0-1-0.9-1.8-0.8
		c-0.2-0.3-0.2-0.6-0.1-0.9c0.6-1.7,0.2-3.4,0.3-5c0.1-2.2,0.3-2.5,2.6-2.6c1.3,0,2.5,0,3.8,0c0.5,0,1.1,0.1,1.6,0.1
		c0.8,0,1.7,0,2.2,0.8c0.4,0.9-0.8,1.1-0.9,1.7c0.4,0.8,1.4,0.6,1.9,1.1c-1.2,1.7-0.8,3.1,0.7,4.5c0.6,0.6,0.4,1.6,0.3,2.4
		c-0.2,1.3-0.1,2.5-0.1,3.8c-0.2,3.1,0.3,6.4-2.2,9c-0.7,0.8-1.3,1.8-1.2,3c0.1,0.7-0.4,1.1-1,0.9c-1.3-0.4-0.8,0.7-1.1,1.1
		c-0.1,0.4-0.5,0.4-0.7,0.6c-0.3,0.4-0.9,0.4-1.3,0.6l0,0c-0.4,0.4-0.7,0.4-1.2,0.2C141.3,93.1,141.2,93,141.2,93z"/>
	<path class="st7" d="M157.2,41.1c0.6-1.3,1.7-1.4,2.9-1.3c1.1,0,1.2,1,1.5,1.7c0.2,0.6,0.6,1.3,1.1,1.6c1.6,0.9,2.5,2.7,4.3,3.4
		c0.8,0.3,0.9,1.1,0.8,1.8c-0.1,1.6-0.3,3.1,1.8,3.7c0.8,0.2,0.7,1.3,0.8,1.9c0.1,0.9,0.4,1.7,0.8,2.4c0,0.2,0,0.4-0.1,0.6
		c-0.3,0.3-0.4,0.8-0.4,1.2c0,0.6-0.2,1-1,1c-1.4-0.1-1,0.7-0.5,1.3c0.5,0.6,1,1,0.5,1.8c0,0.7-0.2,1.4-0.6,2.1
		c-0.9,1-1.1,2.2-1.3,3.4c-1.5,3.6-3.4,7-6,10c-0.7-0.7-0.3-1.3,0.1-1.9c1.1-1.3,1.4-2.8,1.4-4.5c-0.1-1.5,0.2-3,0.7-4.5
		c0.5-1.4,1.1-3.3-0.7-4.7c-0.8-0.6-0.8-1.7-0.7-2.6c0.3-1.8-0.3-3.3-1.3-4.7c-0.8-1-1.6-1.9-2.1-3.1c-0.1-0.2-0.4,0.1-0.2,0
		c0.1,0,0.1,0,0.1,0.1c0.3,1.4-0.3,2.4-1.6,2.5c-0.2-0.3-0.3-0.7-0.2-1.1c1.1-2.9,1-5.9,0.4-8.9c0-0.4,0.1-0.9,0.3-1.3
		c0.1-0.4,0.6-0.8,0.1-1.2c-0.3-0.2-0.6,0.4-1,0.2C157.1,41.9,156.8,41.5,157.2,41.1z"/>
	<path class="st8" d="M157.8,54.4c1.2-0.6,1.3-1.9,1.6-3.1c1,2.3,3.4,3.7,3.8,6.5c0.1,0.6,0.1,1,0,1.6c-0.2,1.3-0.2,2.6,1.3,3.2
		c0.2,0.1,0.5,0.3,0.5,0.4c-0.2,1.5,0.3,3.1-0.5,4.4c-0.5,0.8-0.7,1.5-0.7,2.4c0,2,0.4,4-0.9,5.7c-0.5,0.7-1.4,1.2-1,2.3
		c0,0.3-0.1,0.5-0.4,0.6c-1.7,1.3-3,3-4.6,4.4c-0.5,0.4-0.8,1.1-1.6,1.1c-0.2,0-0.3-0.1-0.4-0.2c-0.3-0.5-0.5-1.1-0.7-1.7
		c-0.2-0.5-0.2-1.1,0.2-1.5c0.5-0.5,0.9,0,1.3,0.3c0.3,0.2,0.6,0.4,0.9,0.1c0.4-0.3,0.2-0.7,0-1c-0.2-0.3-0.4-0.7-0.4-1.1
		c0.5-2.1,0.8-4.3,1.3-6.5c0.6-2.4,0.6-4.8-0.1-7.2c-0.6-2.1-0.4-4.3-0.4-6.4c0-0.4,0.2-0.9,0-1.3c-0.2-0.4-0.3-0.8-0.2-1.2
		c0-0.2,0.1-0.3,0.2-0.4c0.3-0.3,0.4-0.8,0.6-1.2C157.7,54.5,157.8,54.4,157.8,54.4z"/>
	<path class="st9" d="M149.2,7.5c-0.4,0.4-0.9,0.2-1.4,0.1c-0.7-0.1-1.4-0.3-1.9,0.3c-0.7,0.8-1.4,0.7-2.1,0c-0.6-0.5-1.2-1-1.9-1.2
		c-1.3-0.4-1.8-0.1-2,1.2c-0.1,0.4,0.1,0.8-0.3,1c-0.5,0.2-0.7-0.3-1.1-0.6c-1.2-0.9-2.7-1.1-4.2-1.3c-0.5-0.1-0.7,0.3-1,0.7
		c-0.6,1.1-2.2,1.6-3.1,0.8c-1.6-1.4-3.2-1.3-5.1-0.7c-0.3,0.1-0.6,0.1-1,0.2c-0.9-0.2-1.6-0.7-1.9-1.5c-0.4-1-0.9-1.8-1.8-2.5
		c-0.7-0.6-0.3-2-1.4-2.5c-0.2-0.1,0.1-0.6,0.4-0.7c0.6-0.2,1.1-0.5,1.7-0.5c2.4,0,4.9-0.2,7.3,0.1c4.4,0.2,8.6,1.3,12.6,2.9
		c1.5,0.6,3,1.1,4.3,2c0.3,0.5,0.8,0.5,1.2,0.7C147.6,6.6,148.4,7.1,149.2,7.5z"/>
	<path class="st10" d="M77.9,33c1.3-4.7,3.8-8.9,6.6-12.9c1.4-2,3-3.9,4.8-5.6c0.5-0.3,0.9-0.8,1.4-1c2-1.7,4.4-2.5,6.8-3.2
		c2.2-0.6,3.4,0.4,3.3,2.7c0,0.5-0.1,0.9,0.3,1.2c1.1,1.1,1,2.4,0.8,3.7c-0.3,2.4-0.4,4.8-0.2,7.1c0.1,2-0.6,3.9-0.5,5.9
		c0.1,0.9-0.5,2.4-1.9,3c-1.6-1.6-1.5-3.5-1-5.4c0.4-1.5,0.6-3,0-4.5c-0.2-0.5-0.1-1.1-0.1-1.6c0.2-1.9-0.5-3.6-1.8-5
		c-0.9-1-3.6-0.7-5.3,0c-2.3,1-4,2.7-5.7,4.3c-1.3,1.2-2.2,3-3.3,4.5c-0.7,0.2-0.6,0.8-0.7,1.2c0,0.1-0.1,0.3-0.2,0.4
		c-0.4,0.5-1,0.9-1.1,1.5c-0.3,0.8-0.6,1.6-0.8,2.3c-0.3,0.4-0.5,1-0.5,1.5c-0.1,0.3-0.2,0.5-0.4,0.6c-0.3,0.1-0.5,0.1-0.7-0.1
		C77.8,33.5,77.8,33.2,77.9,33z"/>
	<path class="st11" d="M156.5,79c0.2,0.2,0.5,0.5,0.7,0.7c0.5,0.6,0.3,1.1-0.2,1.6c-0.5,0.5-1,0.4-1.4-0.2c-0.2-0.2-0.5-0.4-0.8-0.7
		c-0.9,1.2,0.6,2.2,0.3,3.2c-0.8,0.4-1.8,0.7-1.9,1.9c-0.1,0.7-0.9,1.2-1.6,1.6c-0.9,0.5-1.7,1.2-2.5,1.9c-1.3,1.4-3,2-4.7,2.7
		c0-0.3-0.2-0.6-0.5-0.8c-0.3-0.3-0.4-0.7,0-1c0.3-0.3,0.6,0,0.9,0.1c1,0.4,0.8,0.4,1.1-0.7c0.3-1.3,0.8-2.6,1.9-3.4
		c1-0.9,1.2-1.9,1.4-3.2c0.4-2.6,0.3-5.2,0.3-7.8c0-0.4,0.2-0.9,0.3-1.3c0.1-0.8,0.1-1.6-0.6-2.3c-2.1-2.2-2-2.3-0.1-4.2
		c1.2-0.5,1.9,0.1,2.4,1c0.5,0.9,1.2,1.7,2,2.4c0.6,0.5,1,1.2,0.9,2C154.5,74.9,155,77.1,156.5,79z"/>
	<path class="st12" d="M87.9,80.8c-1.1-1-2.1-2-2.7-3.3c-1.7-2.2-0.9-4.3,0.4-6.2c0.7-1,1.3-2,1.9-2.9c1.2-1.9,2.3-2.2,4.5-1.6
		c4.2,1.1,8.4,1.3,12.1-1.6c1.3-1,2.9-1.3,4-2.6c1.5-0.2,1.9,0.7,1.9,1.9c0.1,2.8,0.1,5.6,0.1,8.4c-0.5,0.8-1.1,0.4-1.1-0.2
		c-0.1-1.6-1-3.1-0.8-4.6c-2,1.9-4.8,2.3-7.5,2.7c-1.4,0.3-3,0.2-4.5,0c-2.9-0.5-4.9,1-6.5,3.2c-0.7,0.9-1.1,2-1.6,3.1
		c-0.4,0.8-0.5,1.6-0.2,2.4C88.2,79.9,88.4,80.3,87.9,80.8z"/>
	<path class="st13" d="M99.3,33.8c0.4,0,0.6-0.2,0.7-0.6c0.1-1.4,0.9-2.6,0.9-4.2c0-1.7,0.5-3.5,0.4-5.2c-0.1-2.5,0.3-4.9,0.3-7.4
		c0-0.8,0-1.7-1-2c-0.7-0.2-0.3-0.8-0.2-1.3c0.2-0.7,0.6-1.4-0.2-2.1c-0.8-0.7-1.7-0.7-2.6-0.4c-2.3,0.8-4.6,1.4-6.4,3.1
		c-0.1,0.1-0.3,0-0.5,0c-0.2-0.2-0.2-0.4,0-0.6c1.8-1.8,3.7-3.4,5.9-4.7c0.9-0.2,1.7-0.8,2.5-1.3c2.8-1.7,5.6-0.1,5.7,3.1
		c0.2,6.9-0.5,13.7-0.4,20.5c0,1-0.2,2-0.8,2.8c-0.6,0.7-1.6,0.4-2.4,0.8c-0.6,0.2-1.2,0.5-1.8,0.2c-0.3-0.1-0.3-0.4-0.3-0.7
		C99.2,33.9,99.2,33.8,99.3,33.8z"/>
	<path class="st14" d="M103.2,33.8c0.6-1.6,0.7-3.3,0.7-5.1c-0.3-6.2,0.5-12.4,0.4-18.6c0-1.3-0.4-2.5-1.6-2.8
		C101.5,7,100,6.6,99,7.8c-0.7,0.8-1.6,0.7-2.4,0.7c1.7-1.4,3.7-2.4,5.7-3.3c0.8-0.4,1.7-0.3,2.5-0.8c0.6-0.4,1.5-0.1,1.9,0.6
		c1.2,1.8,2.3,3.8,1.2,6.1c-0.7,1.5-1,2.9-0.3,4.5c0.1,0.3,0.2,0.7,0.1,1c-0.4,2.6-0.7,5.1,0.2,7.7c0.2,0.6-0.2,1.2-0.3,1.8
		c-0.4,1.8-0.4,3.6,0.6,5.3c1,1.7,0.3,3-1.6,3C105.5,34.2,104.3,34.6,103.2,33.8z"/>
	<path class="st15" d="M87.9,80.8c-1.8-2.9,0.4-5.3,1.6-7.3c1.4-2.2,3.7-3.8,7-3.1c2.7,0.5,5.5,0.1,8.1-0.8c1.4-0.5,2.7-1.2,3.9-2.3
		c-0.2,2.1,1,3.7,0.7,5.6c0,0.2,0.3,0.3,0.5,0.4c1.2,0.8,1.2,2.2,1.7,3.3c0,0.3,0,0.5-0.2,0.7c-0.3,0.1-0.5,0.1-0.7,0
		c-0.3-0.1-0.5-0.4-0.7-0.7c-0.9-1.3-1.7-2.6-1.8-4.3c-0.6,0.5-0.7,1.3-1.6,1.2c-3.4,0.1-6.9,0.2-10.3,0.1c-0.5,0-1,0.2-1.3,0.6
		c-0.9,1.3-2.1,2.5-2.7,4c-0.5,1.2-1.2,2.1-2.6,2.2c1.5,0.1,1.7,0.8,1.2,3c-1,0.5-1.1-0.4-1.6-0.8l0,0c-0.5-0.3-1-0.8-1.3-1.3
		C87.9,81,87.9,80.9,87.9,80.8z"/>
	<path class="st16" d="M103.2,33.8c1.2,0,2.3,0,3.5,0c1.5,0,2.1-1,1.2-2.2c-1.4-2-1.3-4.1-0.6-6.3c0.3-0.7,0.3-1.4-0.1-2.1
		c-0.9-1.7-0.7-3.4-0.3-5.1c0.3-1.2,0.3-2.4-0.2-3.5c-0.4-0.9-0.3-1.8,0.2-2.7c1.1-1.8,1.2-3.6,0-5.6c-0.6-1-1.4-2.1-2.3-1.5
		c-0.9,0.5-1.6,0.3-2.4,0.5c2.1-1.2,4.3-2,6.6-2.7c1-0.4,1.3,0.1,1.4,1c0,0.7,0.1,1.3,0,2c-0.1,5.2,1,10.2,0.9,15.4
		c-1.1,2.9-1.1,6-1.1,9c0,1,0.1,2-0.1,3c-0.1,0.7-0.3,1.5-1.1,1.5c-2.7,0.3-5.4,0.7-8-0.2C101.6,33.4,102.5,33.9,103.2,33.8z"/>
	<path class="st17" d="M107.9,62.7c0.1,0.8-0.4,1.4-1,1.5c-2.1,0.4-3.4,2.1-5.3,2.9c-0.8,0.3-1.6,0.6-2.5,0.6c-1.4,0-2.8,0-4.1,0
		c-1.1,0-2.1,0-3.2-0.6c-1.6-0.8-2.6-0.6-3.4,0.8c-1,1.8-2.4,3.4-3.2,5.3c-0.5,1.2-0.7,2.2,0,3.3c0.2,0.3,0.1,0.6,0.1,1
		c-1.3-1.1-2.1-2.6-2.9-4.1c-1.2-5.3,4.4-11.1,10.2-9c3,1.1,6,1,8.9-0.8c1-0.6,2.3-0.9,3.6-1.2C106,62.3,107,62,107.9,62.7z"/>
	<path class="st18" d="M104.9,62.7c-1.1,0.4-2.4,0.6-3.1,1.1c-1.2,1-2.6,0.9-3.8,1.5c-0.9,0.4-1.8,0.3-2.7,0.1
		c-1.8-0.4-3.6-1.1-5.5-1.1c-2,0.1-3.6,0.8-5,2.4c-1.6,1.8-2.2,3.7-2.2,5.9c0,0.2-0.2,0.4-0.2,0.6c-1.1-1.6-2.1-3.4-2.7-5.3
		c1.3-1.1,1.8-2.7,2.5-4.2c1.1-2.4,3.2-3.5,5.7-3c2.2,0.4,4.4,0.9,6.6,1.2c1,0.1,2,0,2.9-0.5C99.9,61.8,102.5,62,104.9,62.7z"/>
	<path class="st19" d="M128.6,0.5c-1.1,0-2.2,0-3.3,0c-2,0-4-0.3-5.9,0.9c0.1,0.6,0.7,0.3,1,0.4c0.5,0.2,1,0.8,0.5,1.1
		c-1.5,0.9,0,0.8,0.3,1.1c0.5,0.6,1.3,1,1.3,2c-0.1,1.2,1.4,1.2,1.7,2.1c0,1.3,0.7,2.1,2,2.3c0.4,0.1,1,0.2,0.9,0.6
		c-0.5,1.5,0.5,1.3,1.5,1.5c1,0.2,1.6,1,2.1,1.9c-0.1,0.1-0.1,0.1-0.2,0.2c-0.3,0.2-0.7,0.2-1,0.1c-1.5-0.6-3.1-0.9-4.6-1.3
		c-1.3-0.5-2.6-0.5-3.9-0.5c-0.9,0-1.4-0.3-1.5-1.3c-0.1-1.4-1.3-2.4-1.9-3.6c-0.3-0.6-0.7-1.3-0.7-2c0-1.1,0-2.1-1.2-2.9
		c-0.9-0.6-0.7-1.4,0.3-1.9c0.4-0.2,0.9-0.3,1.3-0.6c3.3-0.6,6.7-0.5,10.1-0.4C127.8,0.2,128.2,0.2,128.6,0.5z"/>
	<path class="st20" d="M75.9,55.7c-0.9-4-0.7-8-0.5-12c0.1-0.9-0.1-1.9,0.4-2.7c0.2,0.2,0.4,0.4,0.4,0.7c0.1,0.8,0.1,1.6,0,2.4
		c-0.2,0.7-0.4,1.4-0.1,2.1c0,0.1,0.1,0.3,0.1,0.5c0.3,1.9-0.3,3.8,0.7,6.1c0.6-2.5,3-2.2,4.2-3.5c0.6-0.7,1.6-0.4,2.5,0.1
		c0.4,0.2,0.7,0.6,1,0.9c0.7,0.7,1.5,1,2.4,0.8c0.8-0.2,0.3-1.2,0.7-1.7c0.1-0.2,0.2-0.3,0.4-0.3c0.2,0,0.3,0.1,0.4,0.2
		c0.6,1.4,0.9,3,1.2,4.5c0,0.4,0,0.8,0,1.2c-0.2,1.4-0.5,1.6-1.9,1.1c-1.5-0.5-3-1.3-4.8-1.1c-2,0.3-2.8,1.7-3.6,3.3
		c-0.2,0.4-0.4,0.8-0.6,1.2c-0.2,0.4-0.6,0.7-1.1,0.6c-0.5,0-0.7-0.4-0.9-0.8C76.6,58,76.2,56.9,75.9,55.7z"/>
	<path class="st21" d="M90.6,83.4c0-0.9,0-1.9,0-2.7c-0.4-0.3-0.5,0-0.7,0.2c-0.3,0.5-0.7,0.1-1,0c-0.3-0.1-0.3-0.4-0.2-0.7
		c0.1-0.4,0.4-0.5,0.7-0.5c1.5,0.2,1.8-0.8,2.4-1.9c0.9-1.6,2.1-3.1,3.2-4.6c0.2-0.3,0.6-0.4,1-0.3c3.1,0.2,6.2,0.4,9.4-0.1
		c0.5-0.1,0.9,0.1,1.3,0.3c0.2,0.2,0.4,0.4,0.5,0.7c0.8,1.5,0.4,2.1-1.3,2.2c-2.3,0.1-4.5,0-6.8,0.3c-1.3,0.2-2.4,0.6-3,2
		c-0.2,0.6-0.8,1.1-1.1,1.6c-1.6,2.7-1.6,4,0.3,6.6c0.1,0.3,0.3,0.5,0.7,0.7c0.2,0.3,0.2,0.5,0,0.7c-0.6,0-0.9-0.4-1.3-0.7
		c-0.5-0.6-1.3-0.9-2-1.3c-0.7-0.7-1.3-1.3-2-2c-0.1-0.1-0.1-0.1-0.1-0.2C90.5,83.5,90.5,83.4,90.6,83.4z"/>
	<path class="st22" d="M117.2,0.5c0,0.7-0.8,0.5-1.1,0.9c-0.3,0.3-0.9,0.3-0.8,0.9c0.1,0.4,0.4,0.7,0.8,0.7c1.1,0.1,1.1,0.8,1,1.5
		c-0.4,2.3,1.1,3.8,2.1,5.5c0.2,0.4,0.7,0.7,0.5,1.2c-0.4,1.3,0.4,1.3,1.3,1.3c1.3,0,2.5,0,3.7,0.6c-0.2,0.4-0.6,0.5-1,0.5
		c-2.2,0-4.3,0.8-6.4,1.3c-0.3,0-0.5,0-0.8,0.1c-2,0.2-1.9,0.1-2.4-1.7c-0.8-2.7-0.5-5.6-2.3-8c-0.6-0.8-0.2-2.1-0.1-3.1
		c0.1-0.7,1.2-0.6,1.8-0.9C114.8,1,116,0.6,117.2,0.5z"/>
	<path class="st23" d="M97.3,61.7c-0.4,0.8-1,0.9-1.9,0.8c-2.7-0.2-5.4-0.9-8-1.4c-1.7-0.3-4,1-4.7,2.6c-0.4,1.1-0.9,2.2-1.4,3.3
		c-0.3,0.7-0.8,1-1.6,0.9c-1.3-1.9-1.8-4.1-2.4-6.3c1.3-0.3,1.5,0.9,2.1,1.6c0.3-0.4,0.2-0.7,0.2-1c0-0.3,0-0.7,0-1
		c0.1-1.8,1.9-2,2.8-3.1c1-1.1,2.1-1.9,3.7-0.8c0.8,0.5,1.8,0.7,2.7,0.8c1.1,0.2,2.3,0.5,3.2,1.2c0.6,0.4,1.2,0.5,1.9,0.1
		C95.3,59.7,96.2,60.8,97.3,61.7z"/>
	<path class="st24" d="M113.6,1.2c-0.3,0.2-0.7,0.4-1,0.6c-0.2,0.1-0.4,0.2-0.6,0.3c0.7,1-0.3,2.2,0.3,3.1c1,1.6,1.7,3.1,1.7,5.1
		c0,1.3,0.9,2.6,0.8,4c0,0.5,0.5,0.6,0.9,0.5c0.5-0.2,1.1-0.3,1.6-0.2c0.1,0.5-0.3,0.7-0.6,0.9c-1.9,1.3-3.6,2.7-4.8,4.8
		c-0.2,0.3-0.4,0.8-1,0.5c-0.3-0.8-0.3-1.6-0.3-2.4c-0.3-4.5-0.6-9-0.9-13.4c0-0.5,0.1-0.9,0.2-1.3c0.2-0.8-0.2-1.1-1-1.1
		C110.4,1.8,111.9,1.4,113.6,1.2z"/>
	<path class="st25" d="M93.9,59.8c-0.3,1-1.3,0.8-1.6,0.5c-1.7-1.7-4.1-1.4-6.1-2.2c-0.1,0-0.3,0-0.3-0.1c-1.4-1.5-2.3-0.3-3.2,0.6
		c-0.2,0.2-0.4,0.5-0.6,0.6c-1.8,0.8-2.4,2.2-2.1,4.1c0.1,0.4,0,0.9-0.5,0.9c-0.5,0.1-0.9-0.3-0.8-0.8c0-1-0.8-1.2-1.4-1.6
		c-0.7-1.9-1.1-4-1.3-6c0.4,1.1,0.9,2.2,1.3,3.3c0.1,0.4,0.2,0.7,0.7,0.7c0.4,0,0.6-0.2,0.6-0.6c0.1-1.3,1.3-2.1,1.6-3.3
		c0.2-0.7,3.8-1.9,4.5-1.4c1.1,0.8,2.7,0.3,3.7,1.4c0.5,0.5,0.9,0.2,0.9-0.5c0-0.5,0-1,0-1.5c0.2-0.1,0.5,0,0.6,0.2
		C90.9,56.1,92.7,57.7,93.9,59.8z"/>
	<path class="st26" d="M158.8,198.2c-0.1,0.1-0.2,0.1-0.2,0.2c-0.3,0.6-0.1,1.6-0.9,1.7c-1.2,0.1-1-1.1-1.4-1.8
		c-0.3-0.5-0.5-1.2-0.9-2c-0.1,1.7-0.3,3.2-0.4,4.7c0,0.3-0.1,0.7-0.5,0.7c-0.4,0-0.6-0.3-0.5-0.7c0.1-2.2,0.2-4.3,0.4-6.5
		c0-0.4,0.2-0.6,0.6-0.6c0.4,0,0.7,0.2,0.9,0.6c0.3,0.9,0.7,1.7,1,2.6c0.1,0.4,0.1,0.8,0.6,0.9c0.6,0.1,0.4-0.5,0.5-0.8
		c0.5-0.9,0.9-1.8,1.3-2.7c0.2-0.5,0.5-0.7,1-0.6c0.5,0.1,0.5,0.5,0.6,0.9c0.1,2,0.2,4.1,0.2,6.1c0,0.4,0,0.7-0.5,0.8
		c-0.5,0.1-0.6-0.3-0.7-0.7c0-0.7-0.1-1.4-0.1-2.2C159.4,198.7,160.2,196.9,158.8,198.2z"/>
	<path class="st27" d="M186.1,197.2c0.3-0.8,0.7-1.6,1-2.4c0.2-0.5,0.5-0.9,1.1-0.8c0.6,0.1,0.5,0.6,0.5,1.1
		c0.1,1.9,0.2,3.8,0.2,5.6c0,0.4,0.1,1-0.5,1c-0.7,0-0.7-0.6-0.7-1.1c0-1.3,0-2.5,0-4.1c-1,0.7-1,1.8-1.5,2.5
		c-0.3,0.4-0.2,1.1-0.9,1.1c-0.7,0-0.8-0.7-1-1.2c-0.3-0.7-0.6-1.5-0.9-2.2c-0.2,0-0.3,0.1-0.5,0.1c0,1.3,0,2.6,0,3.9
		c0,0.4,0,1-0.6,1c-0.6,0-0.6-0.5-0.6-1c0.1-1.9,0.2-3.9,0.3-5.8c0-0.5,0.1-0.9,0.6-1c0.5-0.1,0.8,0.3,1,0.7c0.4,1,0.8,1.9,1.2,2.9
		C185.6,198,185.9,197.6,186.1,197.2z"/>
	<path class="st28" d="M93.8,194.2c-2.5-1.1-4.6,0.6-4.6,3.8c0,2.3,1,3.7,2.8,3.9c1.9,0.2,3.1-0.6,3.6-2.5
		C96.2,197.1,95.5,194.9,93.8,194.2z M94.1,199.9c-0.8,1.4-2.5,1.4-3.2,0c-0.7-1.3-0.7-2.7,0-4c0.7-1.4,2.4-1.4,3.2,0
		c0.4,0.6,0.4,1.4,0.4,2.2C94.6,198.7,94.5,199.3,94.1,199.9z"/>
	<path class="st28" d="M138.6,194.2c-2.5-1.1-4.6,0.6-4.6,3.8c0,2.3,1,3.7,2.8,3.9c1.9,0.2,3.1-0.6,3.6-2.5
		C141,197.1,140.3,194.9,138.6,194.2z M138.9,199.9c-0.8,1.4-2.5,1.4-3.2,0c-0.7-1.3-0.7-2.7,0-4c0.7-1.4,2.4-1.4,3.2,0
		c0.4,0.6,0.4,1.4,0.4,2.2C139.4,198.7,139.3,199.3,138.9,199.9z"/>
	<path class="st29" d="M59.5,193.9c-1,0.1-1.2,0.4-1.2,1.3c0.1,0.9,0,1.8,0,2.7c0,0,0,0,0,0c0,1,0,2,0,3c0,0.4,0,0.8,0.4,1
		c1.5,0.7,4.4-0.3,5.1-1.8C65.4,196.6,63.2,193.6,59.5,193.9z M62.9,198.9c-0.3,1.1-0.9,1.8-2.1,2c-1,0.1-1.6-0.1-1.4-1.3
		c0.1-0.6,0-1.2,0-1.8c0-0.3,0-0.7,0-1c0-2,0.7-2.4,2.4-1.4C62.8,195.9,63.3,197.4,62.9,198.9z"/>
	<path class="st30" d="M86.6,199.1c0-1.4,0-2.8,0-4.3c0-0.4-0.1-0.8,0.5-0.9c0.7,0,0.6,0.5,0.6,0.9c0,1.9,0,3.9,0,5.8
		c0,0.4,0.1,1-0.5,1.1c-0.5,0.1-0.7-0.3-1-0.7c-0.8-1.4-1.7-2.8-2.5-4.3c-0.1,0-0.2,0-0.4,0.1c0,1.3,0,2.7,0,4c0,0.4,0.1,1-0.6,0.9
		c-0.5-0.1-0.5-0.5-0.5-0.9c0-2,0-4,0-6c0-0.4,0-0.7,0.4-0.8c0.5-0.2,0.7,0.1,0.9,0.5c0.9,1.5,1.8,3.1,2.7,4.6
		C86.4,199.1,86.5,199.1,86.6,199.1z"/>
	<path class="st31" d="M122.2,194.1c-2.4-1-4.6,0.8-4.5,3.8c0.1,2.5,0.9,3.7,2.7,3.9c1.9,0.2,3.1-0.6,3.6-2.4
		C124.7,197,124,194.9,122.2,194.1z M123,199c-0.3,0.9-0.5,1.8-1.7,1.9c-1.2,0.1-1.8-0.6-2.1-1.6c-0.2-0.4-0.2-0.9-0.2-1.4
		c0-0.4,0.1-0.9,0.3-1.5c0.4-0.9,1-1.5,2-1.4c0.9,0.1,1.6,0.7,1.7,1.7C123,197.4,123.2,198.2,123,199z"/>
	<path class="st32" d="M146.9,201.7c-0.4,0.2-0.8,0-1-0.3c-0.5-0.6-0.9-1.2-1.4-1.9c-0.5-0.8-0.9-1.5,0.4-1.9
		c0.2-0.1,0.4-0.3,0.5-0.5c0.3-0.6,0.3-1.2-0.1-1.7c-0.4-0.5-1-0.7-1.7-0.5c-0.7,0.2-0.3,0.9-0.4,1.3c0,1.5,0,3,0,4.5
		c0,0.8-0.2,1.2-1,1.1c0-2.3,0-4.5-0.1-6.8c0-0.8,0.3-1.1,1.1-1.1c1.2,0,2.4,0,3.2,1c0.7,1,0.6,2.1-0.2,2.9c-0.9,0.8-0.6,1.4,0,2
		c0.2,0.3,0.5,0.6,0.7,0.9C147,201.1,147.5,201.4,146.9,201.7z"/>
	<path class="st33" d="M176.3,197.8c0-0.3,0-0.6,0-0.8c0-3.1,0.7-3.6,3.7-3c0.3,0.1,0.7,0.2,0.7,0.6c0,0.4-0.4,0.4-0.7,0.5
		c-0.4,0-0.8,0.1-1.2,0c-0.8-0.1-1.3,0-1.3,1c0,0.9,0.3,1.2,1.2,1.1c0.2,0,0.3,0,0.5,0c0.3,0,0.7-0.1,0.8,0.4c0,0.5-0.3,0.6-0.8,0.6
		c-0.9,0-1.8-0.2-1.7,1.3c0,1,0.3,1.3,1.3,1.3c0.6,0,1.8-0.5,1.8,0.5c0,1-1.1,0.5-1.8,0.5c-2.8,0-2.6,0.5-2.6-2.7
		C176.3,198.7,176.3,198.3,176.3,197.8C176.3,197.8,176.3,197.8,176.3,197.8z"/>
	<path class="st34" d="M133,195.5c-0.4-1.3-1.9-1.9-3.7-1.7c-1.5,0.2-0.8,1.3-0.9,2.1c-0.1,0.6,0,1.3,0,2h0c0,0.9,0,1.8,0,2.7
		c0,0.5-0.1,1.1,0.6,1.1c0.8,0,0.6-0.7,0.6-1.1c-0.1-1.1,0.3-1.7,1.4-1.7c0.3,0,0.6-0.1,0.8-0.2C132.9,198.2,133.4,196.9,133,195.5z
		 M130.2,198c-1.3,0-0.5-1.1-0.8-1.6c0.2-0.7-0.3-1.7,1-1.5c0.9,0.1,1.5,0.5,1.5,1.5C131.9,197.5,131.2,198,130.2,198z"/>
	<path class="st35" d="M168,200.9c-0.7-2.1-1.3-4.1-2-6.2c-0.1-0.4-0.3-0.7-0.8-0.8c-0.5,0-0.8,0.3-1,0.7c-0.7,2.1-1.4,4.2-2.1,6.3
		c-0.1,0.4-0.1,0.8,0.4,0.8c0.5,0,0.7-0.3,0.8-0.7c0.1-1.1,0.8-1.1,1.7-1.1c1,0,1.6,0.2,1.8,1.2c0.1,0.4,0.4,0.7,0.8,0.6
		C168.3,201.7,168.2,201.2,168,200.9z M165.8,198.9c-0.4,0.1-0.9,0.1-1.3,0c-0.5-0.1-0.3-0.6-0.2-1c0.2-0.7,0.4-1.5,0.7-2.4
		c0.6,0.9,0.7,1.6,0.9,2.4C166,198.2,166.3,198.7,165.8,198.9z"/>
	<path class="st36" d="M80.8,199.6c-0.3,0.8,0.4,1.8-0.7,2.1c-1.4,0.4-2.9,0.4-4.1-0.6c-1.2-1-1.6-3.2-0.9-4.9
		c0.6-1.6,2.1-2.4,3.9-2.3c0.5,0,1.3,0,1.2,0.8c-0.1,0.8-0.8,0.3-1.2,0.2c-1.6-0.1-2.7,0.9-2.9,2.5c-0.2,1.9,0.6,3.2,2.1,3.4
		c0.9,0.1,1.5,0,1.5-1.2c0-0.6-0.5-1.8,0.5-1.8C81.3,197.8,80.2,199.1,80.8,199.6z"/>
	<path class="st37" d="M174.6,199.8c0,2,0,2.1-2.1,2.1c-2.5,0-3.8-1.6-3.6-4.3c0.1-2.4,1.8-3.9,4.1-3.7c0.5,0.1,1.3,0,1.2,0.7
		c-0.1,0.8-0.8,0.3-1.2,0.3c-1.8-0.1-2.8,0.9-3,2.8c-0.1,1.6,0.7,2.9,2.1,3.1c0.9,0.1,1.6,0,1.4-1.2c0-0.3,0-0.6,0-0.8
		c0-0.4-0.1-1,0.6-1c0.7,0,0.5,0.6,0.5,1C174.6,199.2,174.6,199.5,174.6,199.8z"/>
	<path class="st38" d="M74,201c-0.7-2.1-1.4-4.3-2.2-6.6c-0.1-0.4-0.5-0.4-0.8-0.4c-0.5,0-0.7,0.3-0.8,0.7c-0.7,2.1-1.3,4.1-2,6.1
		c-0.1,0.4-0.3,0.8,0.2,0.9c0.5,0.1,0.7-0.2,0.8-0.6c0.1-0.8,0.6-1.2,1.5-1.2c1,0,2-0.1,2.2,1.4c0,0.4,0.4,0.5,0.8,0.5
		C74,201.7,74,201.5,74,201z M71.7,198.9c-0.4,0.2-1,0.2-1.4-0.1c-0.5-0.3-0.1-0.7,0-1c0.2-0.7,0.4-1.3,0.8-2.5
		c0.3,1,0.6,1.7,0.8,2.4C72,198.1,72.2,198.7,71.7,198.9z"/>
	<path class="st39" d="M99.2,196.9c1,0.6,2.5,0.8,2.4,2.5c0,1-0.3,1.7-1.2,2.1c-1.1,0.5-2.2,0.4-3.2,0c-0.2-0.1-0.3-0.3-0.2-0.6
		c0.1-0.3,0.3-0.4,0.6-0.3c0.5,0,1.1,0.1,1.6,0.1c0.6,0,1-0.4,1.2-1c0.2-0.7-0.2-1-0.7-1.3c-0.4-0.2-0.9-0.4-1.4-0.6
		c-0.9-0.4-1.5-1-1.3-2.1c0.2-1.2,0.9-1.7,2-1.9c1.4-0.3,2.1,0.1,2.2,1.2c-0.5,0.2-1,0-1.4,0.1c-0.5,0.1-1.1-0.1-1.3,0.4
		C98.2,196.3,98.9,196.5,99.2,196.9z"/>
	<path class="st40" d="M115.5,194.9c-1.8-0.1-2.8,0.9-2.9,2.8c-0.1,2,0.9,3.1,2.8,3.1c0.5,0,1.3-0.5,1.4,0.3c0,0.8-0.9,0.6-1.4,0.7
		c-1.4,0.1-2.7-0.3-3.4-1.6c-0.8-1.6-0.8-3.3,0.2-4.9c0.8-1.2,2.1-1.6,3.5-1.4c0.4,0.1,1.2,0,1.1,0.7
		C116.6,195.4,116,194.9,115.5,194.9z"/>
	<path class="st41" d="M105,194c0.7,0,1.3,0,2,0c0.4,0,0.7,0.1,0.6,0.5c0,0.3-0.2,0.5-0.5,0.5c-1.7-0.2-1.5,1-1.5,2
		c0,1.3,0,2.5,0,3.8c0,0.4,0.1,0.9-0.6,0.9c-0.6,0-0.6-0.5-0.6-0.9c0-1.4,0-2.9,0-4.3c0-0.8,0-1.6-1.2-1.5c-0.4,0-0.8-0.1-0.8-0.6
		c0-0.4,0.4-0.5,0.8-0.5C103.8,194,104.4,194,105,194C105,194,105,194,105,194z"/>
	<path class="st42" d="M152.2,198c0,1,0,2,0,3c0,0.4,0,0.8-0.6,0.8c-0.5,0-0.7-0.3-0.7-0.7c0-2.1,0-4.2,0-6.3c0-0.4,0.1-0.8,0.6-0.8
		c0.6,0,0.7,0.4,0.7,0.9C152.3,195.9,152.3,197,152.2,198C152.3,198,152.2,198,152.2,198z"/>
	<path class="st43" d="M109.9,198c0,1,0,2,0,3c0,0.4-0.1,0.8-0.6,0.8c-0.4,0-0.5-0.4-0.5-0.7c0-2.1,0-4.1,0-6.1
		c0-0.4,0.1-0.8,0.6-0.8c0.5,0,0.6,0.4,0.6,0.8C109.9,195.9,109.9,196.9,109.9,198C109.9,198,109.9,198,109.9,198z"/>
	<path class="st8" d="M149.2,89.1c0.3-1.1,1.1-1.6,2-2.1c1-0.6,2.3-1.1,1.8-2.7c-0.1-0.5,0.2-0.6,0.5-0.6c0.5,0,1.1,0,1.6,0l0,0
		c0.5,0.8-0.5,1.2-0.6,1.8C152.9,86.9,151.3,88.3,149.2,89.1z"/>
	<path class="st44" d="M154.6,85.5c-0.4-0.8,0.6-1.1,0.6-1.8c1.4-0.8,2.3-2.1,3.4-3.2c0.9-0.8,1.5-2.1,2.9-2.2
		C159.6,81.1,157.2,83.4,154.6,85.5z"/>
	<path class="st2" d="M169.8,62.3c-0.1-0.4,0.3-1-0.5-1.1c-0.8-0.1-0.8-1-1-1.6c-0.1-0.6,0.4-1.2,0.8-1c1.4,0.7,1.4-0.1,1.4-1.1
		c0-0.3,0.3-0.4,0.6-0.5C170.8,58.9,170.7,60.7,169.8,62.3z"/>
	<path class="st45" d="M65.6,197.9c0-1,0-2.1,0-3.1c0-0.4,0.1-0.8,0.6-0.8c0.6,0,0.8,0.3,0.8,0.8c0,2.1,0,4.2,0,6.3
		c0,0.4-0.1,0.8-0.6,0.8c-0.6,0-0.7-0.3-0.7-0.8C65.6,200,65.6,198.9,65.6,197.9C65.6,197.9,65.6,197.9,65.6,197.9z"/>
	<path class="st46" d="M76,41.8c0-0.2,0-0.5-0.1-0.7c0.3-2.8,0.9-5.5,2-8.1c0,0.3,0,0.5,0,0.8c0.2,0.3,0.4,0.6,0.4,1
		c0,0.4-0.1,0.7-0.2,1.1c-0.6,1.4-0.6,3-1.1,4.5C76.8,40.9,76.9,41.7,76,41.8z"/>
	<path class="st6" d="M138.5,94.3c0-0.8,0-1.6,0-2.5c1.1,0.3,1.5,1.6,2.6,1.2l0.1,0.1c0,0.5-0.5,0.3-0.7,0.6
		C139.9,93.8,139.3,94.5,138.5,94.3z"/>
	<path class="st47" d="M161.8,18.5c-1.9-1.6-3.4-3.5-5-5.4c0.8-0.1,1.2,0.6,1.6,1.1C159.4,15.7,161.2,16.7,161.8,18.5z"/>
	<path class="st48" d="M99.2,196.9c-0.7-0.1-1.1-0.6-0.9-1.3c0.2-0.7,0.8-0.8,1.5-0.8c0.5,0,1,0.2,1.5,0.3c-0.3,0.6-0.8,0.4-1.3,0.4
		C98.5,195.4,98.6,196,99.2,196.9z"/>
	<path class="st49" d="M105.3,93c1.3,0.1,2.7-0.4,3.3,1.3C107.3,94.3,106.3,93.6,105.3,93z"/>
	<path class="st50" d="M95.9,87.8c0-0.2,0-0.5,0-0.7c1.4,0,2.1,0.6,2,2.1c-0.2,0-0.4-0.1-0.6-0.1c-0.5-0.3-0.9-0.6-1.4-1
		C95.9,87.9,95.9,87.9,95.9,87.8z"/>
	<path class="st51" d="M167.9,67.8c-0.1-1.4-0.2-2.7,1.3-3.4C169,65.6,168.5,66.7,167.9,67.8z"/>
	<path class="st52" d="M91.7,193.5c0.5-1.1,1.2-1.5,2.4-1.1C93.5,193,93,193.7,91.7,193.5z"/>
	<path class="st53" d="M113.9,95.7c1.1,0,2.4-0.3,3.3,0.6C116.1,96.3,114.9,96.6,113.9,95.7z"/>
	<path class="st54" d="M133.2,95.7c0.6-1.3,1.8-0.5,2.7-0.6C135.1,95.8,134.1,95.7,133.2,95.7z"/>
	<path class="st54" d="M135.9,95c0.6-1.3,1.8-0.4,2.6-0.7C137.8,95.1,136.8,95.1,135.9,95z"/>
	<path class="st3" d="M153.4,10.5c-0.4,0.3,0.4,1.1-0.5,1.2c-0.8-0.5-0.1-1.3-0.4-1.9C153,9.8,153.3,10.1,153.4,10.5z"/>
	<path class="st55" d="M158.8,198.2c0.2-0.5,0.4-1.1,0.7-2c0.5,1.2,0.4,1.9,0.3,2.7C159.4,198.7,159.6,197.7,158.8,198.2z"/>
	<path class="st56" d="M77.6,155.3c-1.1-0.5-1.8-1.3-2.4-2.3C76.2,153.5,77,154.4,77.6,155.3z"/>
	<path class="st57" d="M87.9,81.1c0.6,0.3,1,0.7,1.3,1.3C88.2,82.5,87.8,82.1,87.9,81.1z"/>
	<path class="st58" d="M140.6,93.7c0.2-0.2,0.5-0.4,0.7-0.6c0.4,0,0.8-0.1,1.3-0.1C142.2,94.2,141.2,93.5,140.6,93.7z"/>
	<path class="st57" d="M90.6,83.4c0,0.1,0,0.2,0,0.3c-1,0.1-1.4-0.3-1.3-1.3C89.9,82.5,90.1,83.2,90.6,83.4z"/>
	<path class="st59" d="M92.6,85.7c0.9,0.1,1.6,0.5,2,1.3C93.8,86.7,92.9,86.6,92.6,85.7z"/>
	<path class="st3" d="M152.5,9.8c-0.7,0-1.4,0.2-1.3-0.9C151.7,9.1,152.3,9.2,152.5,9.8z"/>
	<path class="st60" d="M101.2,91.1c0.5,0,1.3-0.4,1.4,0.6C102,91.7,101.4,91.8,101.2,91.1z"/>
	<path class="st61" d="M186.1,197.2c0,0.5-0.1,1.1-0.6,1.1c-0.4,0.1-0.3-0.5-0.4-0.8C185.4,197.5,185.8,197.3,186.1,197.2z"/>
	<path class="st62" d="M90.6,13.2c0,0.2,0,0.4,0,0.6c-0.4,0.2-0.7,0.8-1.3,0.7C89.6,13.9,90,13.4,90.6,13.2z"/>
	<path class="st63" d="M95.9,88c0.6,0.1,1.2,0.2,1.4,1C96.6,89,96.2,88.6,95.9,88z"/>
	<path class="st64" d="M168.5,30.4c-0.8-0.3-0.7-1-0.7-1.7C168.4,29.2,168.5,29.8,168.5,30.4z"/>
	<path class="st65" d="M102.5,91.7c0.6-0.1,1,0.2,1.4,0.7C103.3,92.4,102.7,92.5,102.5,91.7z"/>
	<path class="st58" d="M142.5,93c0.3-0.4,0.8-0.7,1.3-0.6C143.7,93.3,143.1,93,142.5,93z"/>
	<path class="st5" d="M146.8,6.1c-0.6,0-1.1-0.1-1.2-0.7C146,5.5,146.5,5.7,146.8,6.1z"/>
	<path class="st66" d="M93.9,59.8c-2-1.7-3.4-3.8-4.7-6.1c-0.3-1.5-0.7-3.1-1-4.6c-0.6-0.7-0.5-1.6-0.4-2.4c0.4-1.2,0.6-2.4,1-3.5
		c1.5-3.3,3.6-6,6.9-7.7c1.1-0.3,2.1-1.3,3.4-1c0.6,0,1.2,0.1,1.7-0.3c2.4,0,4.9,0,7.3,0c1,0,1.3-0.4,1.2-1.3c0-2.3-0.1-4.5,0-6.8
		c0.1-1.9,0.3-3.7,1.3-5.4c1.6-2.6,3.7-4.7,6.4-6.2c2.5-0.9,5-1.5,7.6-1.4c1.6,0.4,3.2,0.6,4.7,1.4c0.4,0.5,1.1,0.3,1.7,0.5
		c4.5,3,7.1,7,7.1,12.5c0,1.4,0,2.9,0,4.3c0,1.7,0.1,1.8,1.9,1.9c2.5,0,5-0.1,7.4,0.5c2.6,0.7,5,1.7,6.8,3.7
		c0.9,1.1,1.8,2.2,2.7,3.3c0,0.4,0.1,0.7,0.5,0.9c0.8,0.5,0.5,1.4,0.8,2.1c-0.2,1,0.3,1.8,0.4,2.7c0.5,2.6-0.5,5.1-1.1,7.5l0,0
		c-0.2,0.4-0.2,1-0.7,1.3l0,0c-0.3,0.5-0.4,1.2-0.8,1.6c-1,0.9-1.7,2-2.9,2.8c-2.1,1.3-4.2,2.6-6.7,2.8c-2.2,0-4.3,0.1-6.5,0.1
		c-2,0-2.1,0.2-2.1,2.1c0,1.5,0,3,0,4.5c0,0.5,0.1,1.1-0.4,1.6c0,0.2,0,0.4,0,0.7c-0.5,1.8-1.3,3.5-2,5.2c-0.8,1.8-2.2,3.1-3.9,4.1
		c-3,2-6.3,3-9.9,2.6c-3.4-0.4-6.3-1.9-8.7-4.4c-0.5-0.5-1-1-1.5-1.5c-0.1-0.1-0.2-0.2-0.3-0.3c-0.1-0.4-0.1-0.7-0.4-1
		c-0.8-1-0.8-2.3-1.5-3.3c-0.4-2.9-0.3-5.9-0.3-8.8c0-1.2-0.3-1.9-1.6-1.5c-1,0-2,0-3,0c-2.6,0.1-5.1-0.4-7.6-1
		C95.9,61.5,95.2,60.2,93.9,59.8z"/>
	<path class="st50" d="M95.3,86.4c-2.1-1.2-2.5-2.1-1.8-4.3c0.4-1.4,1.6-2.6,2-3.9c1-2.7,3.2-2.6,5.1-2.6c1.8,0,3.6-0.4,5.4-0.1
		c1.3,0.2,1.7,0,0.8-1.2c-0.3-0.3-0.1-0.7-0.2-1.1c1-0.2,0.6-1.7,1.9-1.8c-0.4,1.9,1.2,3.3,1.4,5.1c-0.4,0-1.2-0.5-0.9,0.7
		c0.3,1.2-0.2,1.6-1.3,1.2c-0.3-0.1-0.5-0.5-1-0.3c-1.8,0.8-3.6,0.5-5.5,0.2c-1-0.2-1.6,0.2-2,1c-0.6,1.3-1.2,2.6-1.8,3.9
		c-0.2,0.5-0.3,0.9,0.2,1.4c0.3,0.3,0.7,0.7,0.4,1.1c-0.3,0.5-0.9,0.2-1.4,0.2C96.2,85.7,95.4,85.4,95.3,86.4z"/>
	<path class="st67" d="M131.9,81c1.4-1.3,2.7-2.6,3.9-4.1C135.8,78.6,133.6,80.9,131.9,81z"/>
	<path class="st50" d="M111.9,77.4c0,0.1,0,0.2,0,0.3c-0.5-0.1-1.2,0.2-1.3-0.7c0.2,0,0.5,0,0.7,0C111.6,76.9,111.7,77.2,111.9,77.4
		z"/>
	<path class="st68" d="M154.5,37.8c-2.6-1.8-5.3-3.4-8.6-3.6c-1.9-0.1-3.9-0.1-5.8-0.1c-2.2,0-2.2,0-2.2-2.3c-0.1-2.5,0.3-5-0.3-7.5
		c-0.9-4-3.1-7.1-6.7-9.3c-0.1-0.2-0.4-0.3-0.3-0.6l0.1-0.1c1.1,0.2,2.2,0.4,2.8,1.7c0.2,0.4,0.6,0.9,1.2,1c1.5,0.5,1.6,2.2,2.5,3.2
		c0.3,0.3,0.7,0.9,0.8,1.5c0.5,1.3,1,2.5,2.2,3.6c1.3,1.2,2.5,2.8,2.8,4.8c0,0.3,0.1,0.7,0.4,0.9c1.4,0.7,2.6,2.3,3.9,2.6
		c2.4,0.5,4.4,1.7,6.5,2.8C154.5,36.7,154.6,37.1,154.5,37.8z"/>
	<path class="st3" d="M163.8,21.8c-0.1,0.5-1.3,0.6-0.5,1.5c0.2,0.2,0,0.4-0.3,0.5c-0.1,0-0.4-0.1-0.4-0.2c-0.3-0.6-0.3-1.3,0.1-1.9
		C163.2,21,163.4,22,163.8,21.8L163.8,21.8z"/>
	<path class="st3" d="M149.2,14.2c0.6-0.5,1-0.5,1.6-0.1C150.3,14.6,149.9,14.5,149.2,14.2z"/>
	<path class="st69" d="M147.2,62.4c2.3-0.4,4.3-1.7,6.3-2.7c1.4-0.4,2.9-0.9,3.5-2.5c0.1,0,0.1-0.1,0.2-0.1c0.6,0.1,0.6,0.4,0.5,0.9
		c-0.4,2.5-0.4,4.9,0.3,7.3c0.8,2.9,0.6,5.6-0.3,8.4c-0.2,0.7-0.5,1.5-0.4,2.3c0.1,1.1-0.3,2-0.7,3c-2.1-1.2-2.3-3.2-2.3-5.3
		c0-1.6-0.1-2.8-1.7-3.6c-0.5-0.2-0.7-0.7-0.8-1.2c-0.4-1.2-1.3-1.7-2.4-1.9c-0.6,0-1.1,0-1.6-0.3c-0.4-0.3-1.2-0.3-1.2-1
		c0-0.6,0.6-0.7,1.1-0.8c0.3,0,0.5-0.2,0.5-0.6c0-0.3-0.3-0.4-0.6-0.5c-0.9-0.3-1.8-0.1-2.6-0.2c-0.1-0.8,0.4-0.9,1-1
		C146.3,62.7,146.8,62.8,147.2,62.4z"/>
	<path class="st70" d="M147.2,62.4c0,0.6-0.5,0.7-1,0.6c-0.6,0-1.1,0-1.4,0.7c-1.5,0-3,0-4.5,0c-1.8,0-1.8,0-1.9,1.9
		c0,1.4,0,2.8,0,4.1c0,0.5,0.1,1.2-0.7,1.3c0-2.4,0-4.8,0-7.3c0-1,0.3-1.4,1.3-1.3C141.8,62.5,144.5,62.4,147.2,62.4z"/>
	<path class="st2" d="M158.5,44.1c-0.5-0.6-0.7-1.3-0.8-2.1c0.3-0.4,0.3-1.2,1.1-0.8c0.7,0.3,0.4,1,0.3,1.5
		C159,43.1,158.4,43.5,158.5,44.1z"/>
	<path class="st8" d="M167.2,68.2c-0.5-0.3-0.9-0.4-1.1-0.6c-0.3-0.4-0.2-0.8,0.1-1.2c0.2-0.2,0.5-0.5,0.7-0.4
		c0.5,0.1,0.4,0.6,0.4,0.9C167.2,67.2,167.2,67.6,167.2,68.2z"/>
	<path class="st2" d="M159.5,46.5c-0.5-0.7-0.4-1.2-0.2-1.9C160,45.1,159.9,45.7,159.5,46.5z"/>
	<path class="st8" d="M165.4,69.9c0.2,0,0.4,0.1,0.3,0.3c0,0.1-0.1,0.3-0.3,0.3c-0.2,0.1-0.3-0.1-0.2-0.3
		C165.2,70.1,165.3,70,165.4,69.9z"/>
	<path class="st7" d="M156.2,57.1c0.2-0.5,0.3-1.1,0.9-1.4c0,0.4,0,0.9,0,1.3l0,0C156.9,57.3,156.5,57.4,156.2,57.1z"/>
	<path class="st7" d="M157.1,55.7c0-0.5,0.2-1,0.7-1.3C157.8,54.9,158.1,55.6,157.1,55.7z"/>
	<path class="st71" d="M95.9,35.7c-3,1.7-5.2,4.2-6.7,7.4c-0.9,0.9-0.8,2.1-1.2,3.2c-0.1,0.1-0.2,0.2-0.4,0.3
		c-0.6-0.2-1.2-0.9-2-0.1c-0.4,0.4-0.8-0.3-0.8-0.7c0-1.3-0.8-2-1.7-2.7c-0.9-0.7-1.4-1.7-2.1-2.5c-0.7-0.8-1.4-1.5-2.5-1.9
		c-1.2-0.4-1.3-1.1-0.7-2.9c0-0.3,0-0.7,0-1c0.3-0.3,0.3-0.7,0.7-1c0-0.2,0-0.4,0-0.7c0.4-0.3,0.2-1,0.7-1.3c-0.3-1,0.4-1.8,0.7-2.7
		c0.4-0.5,1-0.8,1.3-1.3c0-0.1,0-0.2,0-0.3c0.3-0.3,0.3-0.8,0.7-1c0-0.6,0-1.1,0.5-1.5c1-0.9,1.7-2,2.2-3.2c0.4-0.9,1.7-1,2.4-1.8
		c0.3-0.4,0.8-0.6,1-1.2c0-0.2,0.2-0.4,0.4-0.5c2.3-0.8,4.4-2.3,7-2c1.6,0.2,2.3,1.6,2.8,3c0.4,1.2,1.4,2.3,0.4,3.7
		c-0.2,0.2-0.1,0.7,0.1,0.9c0.9,1.2,0.7,2.7,0.3,3.8c-0.7,2-0.8,3.8,0.1,5.7c0.1,0.1,0,0.3,0,0.5l0,0C98.3,34.6,96.9,34.8,95.9,35.7
		z"/>
	<path class="st72" d="M79.3,31.8c-0.1,0.5,0.2,1.2-0.7,1.3C78.7,32.6,78.4,31.9,79.3,31.8z"/>
	<path class="st72" d="M81.3,27.8c0,0.9-0.8,1-1.3,1.3C80.1,28.4,80.6,28,81.3,27.8z"/>
	<path class="st72" d="M81.9,26.4c0,0.5-0.2,0.8-0.7,1C81.5,27.1,80.7,26.1,81.9,26.4z"/>
	<path class="st72" d="M78.6,33.8c0,0.5-0.2,0.8-0.7,1c0-0.3,0-0.7,0-1C78.2,33.8,78.4,33.8,78.6,33.8z"/>
	<path class="st10" d="M95.9,35.7c0.6-1.4,2-1.7,3.3-2c0,0.2,0,0.5,0,0.7C98.2,34.9,97,35.3,95.9,35.7z"/>
	<path class="st73" d="M111.9,77.4c-0.2-0.1-0.4-0.2-0.6-0.4c0-0.2,0-0.5,0-0.7C111.9,76.4,111.9,76.9,111.9,77.4z"/>
	<path class="st74" d="M130.5,14.6c0.1,0.2,0.2,0.4,0.3,0.6c-0.5-0.1-1.1-0.1-1.3-0.7C129.9,14.5,130.2,14.5,130.5,14.6z"/>
	<path class="st46" d="M87.9,49.1c0,0.1,0,0.2,0,0.3c-0.2,0.8,0.5,2-0.5,2.2c-1,0.2-2.2,0-3-0.9c-2.1-2.2-3.4-2-4.8,0.8
		c-0.9-0.9-1.5-1-1.7,0.5c-0.1,0.5-0.2,1.2-0.9,1.2c-0.5-0.1-0.6-0.7-0.7-1.2c-0.6-1.8-0.1-3.7-0.3-5.6c0.3-0.8,0.2-1.6,0.4-2.4
		c0.2-0.7,0.5-1.3,1.3-1.3c0.7,0,0.7,0.8,0.8,1.3c0,0.2,0.1,0.3,0.3,0.6c0.6-1.4,1.7-1.2,2.5-0.5c1.5,1.3,3.5,1.8,4.7,3.5
		C86.4,48.2,87.5,48.2,87.9,49.1z"/>
	<path class="st72" d="M87.9,49.1c-0.8,0-1.3-1.1-2.3-0.8c-0.1,0-0.3-0.2-0.3-0.3c0.3-1.9-1.6-1.3-2.2-2c-0.8-0.9-1.7-1.6-2.7-2
		c-0.7-0.3-1.1-0.2-1.1,0.6c0,0.4-0.1,0.8-0.6,0.8C78.2,45.3,78,45,78,44.5c0-0.1,0-0.2,0-0.3c-0.1-0.4,0.3-1.2-0.4-1.3
		c-0.7,0-0.7,0.8-0.9,1.4C76.4,45,77.2,46,76,46.4l0,0c-0.3-0.7-0.2-1.3,0-2c0-0.9,0-1.8,0-2.7c0.8-1.4,0.9-3,1.3-4.6
		c0.1-0.5-0.3-1.3,0.7-1.4c0,0.5,0,1.1,0,1.6c0,0.4,0.2,1,0.6,0.9c1.7-0.3,2.1,1.1,2.9,1.9c1.1,1.1,1.8,2.6,3.2,3.4
		c0.5,0.3,0.6,0.7,0.6,1.2c0,0.5-0.2,1,0.3,1.4c0.9-1.5,1-1.5,1.9,0c0.1,0.1,0.3,0.1,0.5,0.2C88.2,47.3,88.2,48.2,87.9,49.1
		L87.9,49.1z"/>
	<path class="st46" d="M87.9,49.1c0-0.9,0-1.8,0-2.7l0,0c0.2-0.1,0.3-0.1,0.4,0.1c0,0.9-0.1,1.8-0.1,2.6
		C88.2,49.1,88.1,49.1,87.9,49.1z"/>
	<path class="st46" d="M76,44.4c0,0.7,0,1.3,0,2C75.4,45.7,75.5,45.1,76,44.4z"/>
	<path class="st75" d="M66.1,201.3c0-2.3,0-4.6,0-7c0.1,0,0.2,0,0.3,0c0,2.3,0,4.6,0,7C66.3,201.3,66.2,201.3,66.1,201.3z"/>
	<path class="st76" d="M115.5,59.3c-3.7,0.2-7.5,0.1-11.2,0c0.4-1.1,1.2-1.8,2.2-2.3c1-0.5,1.7-1.2,2.2-2.2c0.9-1.8,2.2-3.2,3.2-4.9
		c3.4-5.7,5.2-11.8,4.9-18.5c-0.1-2.1-0.6-4.1-1.3-6c-0.6-1.5-0.9-3.1-0.7-4.7c0.6-0.9,1.2-1.9,2.4-2.3c2.8,5,5.3,10.2,5.1,16.1
		c-0.2,5.5-1.1,11-3.9,16c-0.2,0.3-0.3,0.7-0.4,1.1c-0.9,2.3-3.1,3.6-4.4,5.6c-0.3,0.4-0.8,0.6-0.9,1.2
		C113.4,59.2,114.9,58,115.5,59.3z"/>
	<path class="st77" d="M114.9,20.8c0.1,0.1,0.3,0.3,0.3,0.4c-0.1,2.9,1.5,5.3,1.9,8c0.4,2.5,0.3,5.1,0,7.6
		c-0.4,3.7-1.9,7.1-3.2,10.6c-0.6,1.6-1.6,3-2.5,4.4c-0.5,0.7-1.1,1.4-1.5,2.2c-1,1.6-1.8,3.4-3.9,4c-0.6,0.2-0.8,1.3-1.6,1.5
		c-1.7,0.1-3.5,0.4-5.1-0.5c0.3-0.5,0.8-0.5,1.3-0.6c1.3-0.4,2.4-1.1,3-2.4c0.3-0.7,0.9-1.2,1.5-1.8c0.5-0.5,1-1,1.1-1.6
		c0.1-1.7,0.9-3,2-4.2c0.7-0.8,0.9-1.9,1.2-2.9c0.3-1.2,0.7-2.5,1.1-3.6c0.5-1.3,0.4-2.4-0.7-3.3c-0.2-0.2-0.5-0.4-0.3-0.8
		c0.4,0,0.9,0,1.3-0.1c1.4-0.1,2-0.7,2-2.1c0-2.8,0-5.5,0-8.3C112.6,24.6,113.3,22.5,114.9,20.8z"/>
	<path class="st78" d="M134.6,26.4c0.3,0.6,0.2,1.2,0.2,1.8c0,9.8,0,19.6,0,29.4c0,1.3-0.3,1.9-1.8,1.9c-4.5-0.1-9-0.1-13.5-0.2
		c0.3-0.9,1.2-0.7,1.8-0.7c2.2-0.1,4.4,0.1,6.6,0c1.4-0.1,2.8,0,4.1,0c1.2,0,1.8-0.6,1.8-1.8c0-1.5,0.1-3.1,0-4.6c0-1.9,0-3.8,0-5.6
		c0-0.4,0.1-0.9-0.1-1.3c-0.4-0.8-0.8-1.8-1.6-1.9c-0.7-0.1-1,0.9-1.3,1.6c-0.8,1.9-2.1,3.5-3.5,5c-0.5,0.5-0.9,1.4-1.9,0.8
		c-0.3-1.9,0.4-3.8,0.9-5.5c0.8-2.4,0.9-4.7,0.7-7.2c-0.2-1.8-0.4-3.6-0.3-5.5c0-0.5-0.1-1-0.5-1.4c-0.7-0.9-1.1-1.9-1.3-3
		c-0.3-2.2-0.8-4.4-2.2-6.3c-0.9-1.2-0.3-2.1,0.8-2.9c1-0.4,1.6,0.1,1.8,1.1c0.2,1,0.8,1.8,1.6,2.5c1.1,0.9,1.5,2.2,2.3,3.2
		c1.3,2,2,4.4,3.5,6.4c0.7,1,0,2.3,0.5,3.3c-0.6-2.9,0.6-5.6,0.7-8.4C134.2,26.8,134.3,26.5,134.6,26.4z"/>
	<path class="st79" d="M123.9,19.1c-1.2,1.1-0.9,2.1,0.1,3.3c1.3,1.7,1.5,3.9,1.9,5.9c0.2,1,0.5,1.7,1.1,2.5c0.3,1.7,0.3,3.4-0.3,5
		c-0.7,1.9-1.5,3.8-1.6,5.9c0,0.5-0.1,1-0.5,1.4c-2.1,2.4-3.4,5.3-5.4,7.7c-0.4,0.5-0.7,1.2-1.5,1c-0.1-0.9,0.5-1.6,0.8-2.3
		c1.4-3.3,3-6.6,2.9-10.4c-0.1-1.6,0.4-3.1,0.6-4.7c0.4-3.1-1.1-5.8-1.8-8.7c-0.3-1.4-1-2.7-1.7-3.9c-0.6-1-1.3-2-1.2-3.2
		c0.3-0.2,0.6-0.5,0.9-0.7c0.5-0.2,1-0.3,1.4-0.6c2.7-1.2,5.4-1.4,8,0c-0.8,0.8-1.9,0.4-2.8,0.5c-0.7,0.1-1.4-0.1-2.2,0.2
		C122.7,18.6,123.6,18.6,123.9,19.1z"/>
	<path class="st80" d="M127.9,79.7c-3.1,1.1-6.1,1.2-9.1-0.4c-0.5-0.3-1.4,0-1.6-0.9c-0.3-0.6-0.6-1.3-1.4-1.3
		c-0.2-0.2-0.4-0.4-0.6-0.6c-0.5-0.9-0.2-1.5,0.6-1.9c0.8-0.4,1.6-0.8,2.5-1c1.6-0.4,3.1-0.8,4.3-1.9c0.3-0.3,0.6-0.5,1-0.5
		c2.6-0.4,4.9-1.8,7.4-2.4c1-0.2,2.1-0.8,2.8,0.1c0.8,0.9,0.4,2.1,0.2,3.2c-0.6,2.7-2.1,4.7-4.1,6.5c-0.3,0.2-0.5,0.4-0.8,0.6
		C128.8,79.4,128.2,79.3,127.9,79.7z"/>
	<path class="st81" d="M117.6,51.7c1.8-2.1,3.6-4.3,4.9-6.8c0.1-0.2,0.1-0.5,0.2-0.6c2.7-1.6,1.6-4.8,2.9-7c1.2-2,1-4.3,1.4-6.5
		c0.5,0.4,0.7,1,0.7,1.6c0,2.9,0.3,5.8,0.6,8.7c0.1,0.7-0.1,1.6-0.4,2.2c-1,2.1-1,4.5-1.8,6.7c-0.1,0.2,0,0.4,0,0.7
		c0.2,0.6-0.2,0.9-0.5,1.2c-0.9,1.2-2,2.2-3.4,2.8c-1.1,0.6-1.7,1.7-2.6,2.5c-0.7,0.7,0.2,1.4-0.2,2c-1.2,0.2-2.5,0.2-3.7,0
		c-0.8-0.5-1.6-0.1-2.4-0.2c-0.4-0.1-0.9,0.1-1.1-0.4c-0.2-0.5,0.2-0.7,0.5-1.1c1.5-1.5,2.9-3.1,4.4-4.7
		C117.2,52.6,117.4,52.1,117.6,51.7z"/>
	<path class="st82" d="M155.2,51.7c-0.6,2.3-1.8,4.2-4,5.4c-0.1-0.1-0.1-0.1-0.2-0.2c-0.2-0.5-0.1-1,0.1-1.4
		c0.3-0.5,1.1-1.1,0.5-1.7c-0.7-0.6-1.4-1.6-2.5-1.3c-1.9,0.5-3.9,0.1-5.9,0.6c-1.6,0.4-3.4,0.1-4.9-0.7c-0.3-1-0.1-2-0.1-3
		c1.6-1.3,2.8-3.2,4.7-4.3c1.3-0.6,2.6-0.5,3.9-0.3c0.7,0.1,1.3,0.2,1.8-0.4c1.1-1.2,1.7-1.1,2.2,0.5c0.1,0.3,0.1,0.5,0.3,0.8
		c0.1,0,0.2,0,0.2-0.1c0.1-0.8-0.2-1.7,0.9-2.1c1.1-0.3,1.6,0.5,2.1,1.2c0.9,1.1,1.1,2.4,1,3.7C155.5,49.5,155.4,50.6,155.2,51.7z"
		/>
	<path class="st83" d="M129.9,78.3c0-0.2-0.1-0.6,0-0.6c1.4-0.7,1.7-2.3,2.7-3.4c0.1-0.1,0.5-0.3,0.5-0.4c-0.2-1.5,0.9-2.7,0.8-4.1
		c-0.1-1-0.6-1.3-1.4-1.1c-1.4,0.4-2.9,0.7-4.2,1.3c-1,0.5-2,0.9-3.1,1.1c-1.1,0.2-2.2,0.5-3.1,1.4c-0.7,0.7-1.7,0.9-2.7,1.2
		c-1.2,0.3-2.3,0.7-3.4,1.2c-0.8,0.4-0.8,0.9-0.9,1.5c-0.3-0.2-0.6-0.4-0.6-0.8c-0.4-1-0.6-2-0.9-3c-0.5-1.6,0.5-3.3,2.1-3.7
		c0.2,0,0.4-0.1,0.5,0c1.5,1.5,2.3-0.2,2.9-0.9c1-1,2.1-1.5,3.5-1.5c1,0,2.1-0.2,2.1-1.7c0-1,1.1-1.1,1.8-1.5
		c1.8-0.2,3.7-0.1,5.5-0.1c1,0,1.8,0.5,2.5,1.1c0,2.2,0.2,4.4,0,6.6C134.2,74.1,132.9,76.8,129.9,78.3z"/>
	<path class="st84" d="M109.2,37.4c0.4,0.4,0.8,0.7,1.2,1.1c0.7,0.7,0.9,1.5,0.5,2.6c-0.6,1.5-0.9,3-1.4,4.6
		c-0.3,0.8-0.3,1.6-0.8,2.3c-1.2,1.4-2.4,2.7-2.3,4.7c0,0.6-0.6,1-1,1.5c-0.8,0.7-1.4,1.6-2,2.6c-0.9,1.5-2.5,1.9-4.2,2.1
		c-1.3-0.2-2.4-0.8-3.3-1.7c3.1-1.1,4.7-3.6,6.3-6.3c1.8-3.2,3.1-6.6,3.8-10.2c0.4-1.7,0-2.2-1.7-2.4c-0.7-0.1-1.7,0.4-2-0.8
		C104.6,37.4,106.9,37.4,109.2,37.4z"/>
	<path class="st85" d="M123.9,19.1c-0.3,0-0.7,0.1-1-0.1c-0.5-0.4-1.3-0.8-1.2-1.5c0.1-0.8,1-0.4,1.5-0.4c1.4-0.1,2.9,0,4.3-0.1
		c3.7,1,6.9,5.3,7,9.3c0,3.5-1.2,7-0.9,10.6c-0.5-1.1-1.3-1.9-0.9-3.3c0.4-1.1-0.4-2.2-1.2-2.9c-0.7-0.7-1-1.4-1.3-2.3
		c-0.4-1.3-1.6-2.4-2-3.5c-0.7-2.1-3.4-2.8-3.2-5.2C125.2,18.9,124.4,19.2,123.9,19.1z"/>
	<path class="st86" d="M102.3,37.4c0.6,0.7,1.5,0.3,2.2,0.3c1.8,0.1,2.4,1,2.1,2.7c-0.9,4.6-2.8,8.8-5.2,12.7
		c-0.8,1.4-2.3,2.2-3.1,3.6c-0.4,0.7-1.6,0.2-2.4,0.3c-1.6-1.1-2.8-2.4-3.4-4.3c0.4-0.2,0.6,0.1,0.9,0.3c1.9,1.4,2,1.5,3.4-0.3
		c1.5-1.9,2.7-4,3.6-6.3c0.8-2.1,1.4-4.3,2-6.4c0.2-0.8,0.1-1-0.6-1.1c-0.5-0.1-1.5,0.1-1.1-1C101.1,37.3,101.7,37.3,102.3,37.4z"/>
	<path class="st87" d="M155.2,51.7c0-1.1-0.1-2.1,0-3.2c0.1-1.6-0.2-2.9-1.3-4.1c-0.5-0.5-0.7-1.2-1.6-0.7c-0.9,0.5-0.5,1.2-0.2,1.8
		c0.1,0.2,0.2,0.4,0.1,0.7c-1.1,0.3-1.9,0.3-1.8-1.3c0-0.5,0-1.1-0.7-1.2c-0.7-0.1-0.6,0.5-0.7,0.9c-0.2,1.1-1.1,0.8-1.6,0.6
		c-1.6-0.4-3.2-0.3-4.7,0c-0.7-1.5-0.8-3.1-1.5-4.6c-0.4-1,1.8-3.1,3.2-3.2c1.6-0.1,3.1,0.6,4.6,0.8c4.4,1.6,7.4,6.9,6.4,11.6
		C155.5,50.6,155.7,51.3,155.2,51.7z"/>
	<path class="st88" d="M100.6,37.8c0.2,0.9,0.9,0.6,1.5,0.6c1.3,0.1,1.6,0.5,0.8,1.5c-0.5,0.6-0.7,1.2-0.5,2c0.1,0.4,0,0.9-0.2,1.3
		c-1.8,3.7-3,7.6-5.9,10.8c-1.3,1.4-1.7,0.4-2.4,0c-0.5-0.3-0.9-0.8-1.3-1.2c-1.3-2.3-1.3-4.7-0.6-7.1c0.6,0.5,0.4,1.2,0.5,1.8
		c0.1,0.7-0.4,1.5,0.8,1.9c1.2,0.4,1.6-0.3,2.1-1.1c2.6-0.1,2.5-2.3,2.8-4c0.3-1.4,0.4-2.9,1.1-4.3c0.7-1.3-0.8-1.1-1.2-1.7
		C98.7,37.7,99.6,37.7,100.6,37.8z"/>
	<path class="st89" d="M126.2,63.7c-0.4,0.7-1.8,0.8-0.9,2.1c0.2,0.2-0.2,0.4-0.5,0.6c-0.8,0.5-1.7,0.8-2.7,0.7
		c-1.1-0.1-2,0.1-2.5,1.2c-0.2,0.4-0.6,0.7-1,0.8c-0.9,0.3-1.6,0.9-1.8,1.9c-0.2-0.2-0.3-0.3-0.3-0.4c-0.2-0.5,0.3-1.3-0.5-1.4
		c-0.6-0.1-0.8,0.9-1,1c-1.5,0.4-1.7,1.5-1.1,2.5c0.6,1,0.4,2,0.5,3c-0.7-0.7-1.1-1.6-1.4-2.6c-0.6-2.7-0.2-5.5-0.3-8.3
		c0-1.1,0.6-1.6,1.7-1.6c1.9,0,3.8-0.1,5.6,0c1.4,0,2.8,0,4.1,0C125,63.3,125.7,63.2,126.2,63.7z"/>
	<path class="st90" d="M149.2,38.4c-1.1,0-2.1,0.1-3.2-0.5c-1.1-0.6-4.1,1.3-4.4,2.6c-0.1,0.2-0.1,0.5,0.1,0.6
		c1.4,1.2,1.1,2.8,1.1,4.3c-1,1.1-2,2.1-3,3.2c-0.4,0.4-0.8,0.5-1.3,0.5c-0.2,0.2-0.4,0.2-0.6,0c0-3.5,0-7.1-0.1-10.6
		c0-0.6,0.1-1.2,0.8-1.2c3.5-0.1,7-0.4,10.3,0.9C149.1,38.2,149.2,38.3,149.2,38.4z"/>
	<path class="st91" d="M119.2,59.3c0.1-0.7-1.1-1-0.7-1.5c0.6-1,1.4-2,2.4-2.7c1.5-1.1,3.1-2,4.3-3.4c1.7,0.2,3.2,0.9,4.5,1.9
		c0.2,1-0.6,1.5-1.2,1.9c-0.9,0.6-1.8,1.2-2.5,2.1c2,0.5,2,0.5,2.2,1.4c-2.3,0-4.7,0-7,0c-0.5,0-1.1-0.2-1.6,0.2
		C119.5,59.3,119.4,59.3,119.2,59.3z"/>
	<path class="st92" d="M95.3,48.4c0,1.2-0.1,1.7-1.8,1.5c-1.9-0.2-1.5-1.1-1.5-2.1c0-0.7,0-1.4-0.1-2.1c0.3-1.8,1.2-3.3,2.4-4.6
		c0.8-0.4,1.2-1.4,2.2-1.6c1.5,0.1,2.1,0.8,1.4,1.7c-1.4,2-1.8,4.3-2.3,6.6C95.5,48.1,95.4,48.2,95.3,48.4z"/>
	<path class="st93" d="M95.3,48.4c0-2.5,0.7-4.8,1.9-6.9c0.8-1.4,0.8-1.5-0.9-1.7c-0.2-0.1-0.2-0.3-0.1-0.4c0.1-0.1,0.2-0.2,0.4-0.2
		c0.5-0.2,1-0.2,1.4-0.6l0,0c0.6,0.1,1.5-0.3,1.8,0.3c0.4,0.7,0,1.4-0.5,2.1c-0.5,0.6-0.8,1.4-0.7,2.2c0.3,1.6-0.7,2.8-0.8,4.3
		C97.8,48.4,96.7,48.8,95.3,48.4z"/>
	<path class="st94" d="M120.2,63.7c-1.7,0-3.4,0-5.1,0c-1.8,0-1.8,0-1.9,1.9c0,2.5,0,5,0,7.4c-0.5-0.6-0.6-1.3-0.6-2
		c0-2.5,0-5,0-7.5c0-0.7,0.2-1.1,1-1.1c6.9,0,13.7,0,20.6,0c0.1,0,0.3,0.2,0.4,0.2c-0.6,0.6-1.4,0.5-2.2,0.5
		c-3.6-0.1-7.1,0.2-10.7,0.2C121.1,63.4,120.6,63.4,120.2,63.7z"/>
	<path class="st95" d="M137.9,49.1c0.2,0,0.4,0,0.6,0c0,1.1,0,2.2,0,3.3c0.8,1.1,0.4,2.4,0.5,3.5c0.1,1.8,0.2,2,1.9,1.9
		c1.8,0,3.5,0.4,5.3,0.1c1.2-0.2,2.4-0.2,3.4-1c0.5-0.3,1-0.4,1.6,0l0.1,0.1c-1.4,1.6-3.3,2.2-5.3,2.3c-2.3,0.1-4.5,0-6.8,0.1
		c-0.9,0-1.3-0.3-1.3-1.2C137.9,55.2,137.9,52.1,137.9,49.1z"/>
	<path class="st96" d="M120.2,63.7c0.1-0.8,0.8-0.6,1.3-0.7c4.3-0.2,8.7-0.4,13-0.4c0.1,0.6,0.1,1.1,0,1.7c-2.7-1-5.6-0.6-8.4-0.7
		C124.2,63.7,122.2,63.7,120.2,63.7z"/>
	<path class="st8" d="M156.2,57.1c0.3,0,0.6,0,0.9,0c-0.2,1.9-1.2,2.7-3.7,2.7C154.5,58.9,155.1,57.8,156.2,57.1z"/>
	<path class="st72" d="M88.4,46.5c-0.1,0-0.3,0-0.4-0.1c0-1.3-0.1-2.6,1.3-3.3C89,44.2,88.7,45.3,88.4,46.5z"/>
	<path class="st83" d="M115.8,77.1c0.5,0,0.7-0.4,1.2-0.6c0.4,0.6,0.2,1.2,0.2,1.9C116.5,78.2,116.1,77.7,115.8,77.1z"/>
	<path class="st88" d="M96.2,39.3c0,0.1,0,0.3,0.1,0.4c-0.6,0.4-0.9,1.4-2,1.3C94.7,40.3,95.4,39.7,96.2,39.3z"/>
	<path class="st97" d="M127.9,79.7c0.1-0.8,0.7-0.6,1.2-0.7C128.9,79.5,128.4,79.7,127.9,79.7z"/>
	<path class="st88" d="M97.9,38.4c-0.1,0.9-0.8,0.6-1.4,0.6C96.9,38.7,97.4,38.5,97.9,38.4z"/>
	<path class="st76" d="M119.6,17.1c-0.3,0.6-0.8,0.7-1.4,0.6C118.6,17.4,119,17.1,119.6,17.1z"/>
	<path class="st98" d="M129.5,53.7c-1.4-0.7-3-1.1-4.3-2c0.2-0.3,0.4-0.7,0.7-1c1.8-1.4,3.2-3.2,4.3-5.2c0.5-1,1-2,1.7-2.9
		c0.5-0.7,1.1-0.8,1.4,0.2c0.1,0.4,0.1,0.9,0.6,1.1c0.8,0.2,0.7,0.8,0.7,1.4c0,2.1,0,4.2,0,6.3c-0.4,0.5-0.2,1-0.3,1.6
		c0,0.4-0.1,0.8-0.6,0.8c-0.4,0-0.6-0.3-0.7-0.6c-0.3-1.7-1-1.3-2-0.5C130.6,53.5,130.2,53.9,129.5,53.7z"/>
	<path class="st99" d="M129.5,53.7c0.5-0.4,1-0.8,1.5-1.3c0.5-0.5,1-0.9,1.7-0.6c0.7,0.3,0.4,0.9,0.5,1.4c0,0.2,0,0.6,0.4,0.6
		c0.8-0.5-0.4-1.9,0.9-2.1c0,1.8,0,3.7,0,5.5c0,1.2-0.6,1.8-1.8,1.8c-1.5,0-3,0-4.5,0c-0.3-1.1-1.3-0.5-2-0.6
		c-0.4-0.1-0.8,0.1-1-0.4c-0.1-0.4,0.2-0.7,0.6-0.9c0.9-0.7,1.9-1.4,2.8-2C129.1,54.7,129.5,54.4,129.5,53.7z"/>
	<path class="st100" d="M151.2,57c-2,1.1-4.2,1.4-6.4,1.9c-0.2,0-0.4,0.2-0.4,0.1c-1.5-1.1-3.2-0.4-4.8-0.5c-0.9-0.1-1-0.5-1-1.2
		c0-1.6,0-3.2,0-4.8c1,0,2.1,0,3.1,0.3c0.8,0.2,1.8,0.1,2.6-0.2c0.9-0.4,1.8-0.6,2.7-0.1c0.1,0.1,0.3,0.1,0.5,0.1
		c1.4-0.5,2.7-0.7,4,0.6c0.9,0.9,1.4,1.2,0.4,2.3C151.5,55.8,151.1,56.2,151.2,57z"/>
</g>
</svg>
