<?xml version="1.0" encoding="utf-8"?>
<!-- Generator: Adobe Illustrator 25.2.1, SVG Export Plug-In . SVG Version: 6.00 Build 0)  -->
<svg version="1.1" id="Camada_1" xmlns="http://www.w3.org/2000/svg" xmlns:xlink="http://www.w3.org/1999/xlink" x="0px" y="0px"
	 viewBox="0 0 247.2 202.1" style="enable-background:new 0 0 247.2 202.1;" xml:space="preserve">
<style type="text/css">
	.st0{display:none;}
	.st1{display:inline;fill:#FFBA26;}
	.st2{display:inline;fill:#EDD3A3;}
	.st3{display:inline;fill:#EDEAF1;}
	.st4{display:inline;fill:#EBF1EC;}
	.st5{display:inline;fill:#F6E8E3;}
	.st6{display:inline;fill:#29BF92;}
	.st7{display:inline;fill:#896CA1;}
	.st8{display:inline;fill:#FF1D37;}
	.st9{display:inline;fill:#FEFEFE;}
	.st10{display:inline;fill:#FDFEFD;}
	.st11{display:inline;fill:#FDFDFD;}
	.st12{fill:#D43B43;}
	.st13{fill:#D43B42;}
	.st14{fill:#F3CCCE;}
	.st15{fill:#D33941;}
	.st16{fill:#D33840;}
	.st17{fill:#D43A42;}
	.st18{fill:#D43D44;}
	.st19{fill:#D6454C;}
	.st20{fill:#D53E46;}
	.st21{fill:#D5424A;}
	.st22{fill:#D54048;}
	.st23{fill:#D43D45;}
	.st24{fill:#D6434A;}
	.st25{fill:#D54148;}
	.st26{fill:#D6464D;}
	.st27{fill:#D53F47;}
	.st28{fill:#D74950;}
	.st29{fill:#D6444B;}
	.st30{fill:#D6444C;}
	.st31{fill:#D43E45;}
	.st32{fill:#D74A52;}
	.st33{fill:#D7474F;}
	.st34{fill:#D54149;}
	.st35{fill:#D54047;}
	.st36{fill:#D53F46;}
	.st37{fill:#D84D54;}
	.st38{fill:#D5434A;}
	.st39{fill:#D74B52;}
	.st40{fill:#D84F56;}
	.st41{fill:#D43941;}
</style>
<g class="st0">
	<path class="st1" d="M0,99.1c0.5-1,0.4-2.1,0.6-3.1c2.5-12.1,12-21,24.2-22.6c0.9-0.1,1.8-0.2,2.7-0.2c11.1,0,22.2,0,33.2,0
		c1.7,0,3,0.8,3.8,2.3c0.7,1.4,0.5,2.9-0.4,4.2c-0.9,1.2-2.2,1.6-3.7,1.7c-1.7,0-3.4,0-5,0c-9.1,0-18.2-0.1-27.2,0
		c-9.4,0-17.2,6.3-19.4,15.5c-3,12.3,6.4,24.6,19.1,24.8c10.8,0.1,21.6,0,32.4,0c2.6,0,4.2,1.2,4.7,3.4c0.4,2.2-1.2,4.4-3.4,4.7
		c-0.4,0-0.7,0-1.1,0c-10.6,0-21.1,0-31.7,0c-14.9-0.1-26.6-10.4-28.5-25.2c0-0.3,0.1-0.6-0.3-0.7c0-0.2,0-0.3,0-0.5
		c0.2-1.3,0.2-2.6,0-3.8C0,99.4,0,99.3,0,99.1z"/>
	<path class="st2" d="M0,99.6c0.4,1.3,0.4,2.6,0,3.8C0,102.1,0,100.9,0,99.6z"/>
	<path class="st3" d="M100.3,0.2c0-0.1,0-0.1,0-0.2c0.8,0,1.6,0,2.4,0c0,0.1,0,0.1,0,0.2C101.9,0.8,101.1,0.8,100.3,0.2z"/>
	<path class="st4" d="M247.2,100.5c0.1,0,0.1,0,0.2,0c0,0.7,0,1.4,0,2.2h-0.1h-0.1C246.6,102,246.6,101.3,247.2,100.5z"/>
	<path class="st5" d="M102.5,202.8c0,0.1,0,0.1,0,0.2c-0.7,0-1.4,0-2.2,0c0-0.1,0-0.1,0-0.2C101,202.2,101.7,202.2,102.5,202.8z"/>
	<path class="st6" d="M247.2,100.5c0,0.7,0,1.4,0,2.2c-0.8,8.8-4.3,16.1-11.4,21.6c-3.7,2.9-8,4.2-12.5,5c-4,0.8-8,0.7-12.1,0.7
		c-44.3,0-88.6,0-132.9,0c-3.4,0-5.1-1.7-5.1-5.1c0-8.4,0-16.8,0-25.2c0-7.1,0-14.2-0.1-21.3c-0.1-3,1.8-5.3,5.3-5.3
		c29.8,0.1,59.7,0,89.5,0c14.3,0,28.6,0,42.8,0c3,0,5.9,0,8.9,0.1c13.8,0.2,25.8,11,27.4,24.7C247,98.8,247.1,99.7,247.2,100.5z"/>
	<path class="st7" d="M100.3,0.2c0.8,0,1.6,0,2.4,0c13.4,1,23.6,9.7,26.5,22.6c0.4,1.8,0.6,3.6,0.6,5.5c0,10.8,0,21.5,0,32.3
		c0,1.8-0.7,3.3-2.4,4.1c-1.5,0.7-3,0.5-4.3-0.6c-1.1-0.9-1.5-2.1-1.5-3.5c0-10.7,0.1-21.4,0-32.1c-0.1-8.2-4-14.3-11.3-18
		c-12.5-6.3-27.5,2-29,15.9c-0.1,1.1-0.2,2.2-0.2,3.2c0,10.4,0,20.9,0,31.3c0,1.9-1,3.3-2.8,3.9c-1.6,0.6-3.3,0-4.4-1.3
		c-0.7-0.8-0.9-1.8-0.9-2.9c0-10.8-0.1-21.6,0-32.4C73.2,14.3,83.2,2.8,97,0.5C98.1,0.4,99.2,0.3,100.3,0.2z"/>
	<path class="st8" d="M102.5,202.8c-0.7,0-1.4,0-2.2,0c-13.8-0.7-23.8-10.4-26.5-21.9c-0.5-2.1-0.8-4.3-0.8-6.4c0-10.7,0-21.4,0-32
		c0-3.3,2.8-5.4,5.6-4.2c1.6,0.7,2.5,2.1,2.5,4.1c0,10.6-0.1,21.2,0,31.8c0.1,8.5,4,14.9,11.7,18.6c12.3,5.9,26.9-2.2,28.6-15.7
		c0.1-1.1,0.2-2.2,0.2-3.3c0-10.5,0-21,0-31.4c0-3.2,2.9-5.2,5.6-4c1.7,0.8,2.5,2.2,2.5,4c0,3.8,0,7.5,0,11.3c0,7.1,0.1,14.2,0,21.2
		c-0.2,12.8-8.8,23.8-21.2,27.1C106.6,202.4,104.5,202.7,102.5,202.8z"/>
	<path class="st6" d="M17.8,52c1.1,0,2.2,0.3,3.2,1c0.3,0.2,0.8,0.4,0.5,0.9s-0.7,0.3-1.1,0c-2.5-1.8-5.6-0.5-6.8,1.6
		c-1.1,2-0.9,4.4,0.7,6.1c1.6,1.7,3.9,2,5.9,0.8c0.1-0.1,0.2-0.1,0.3-0.2c0.3-0.2,0.7-0.5,1,0c0.4,0.5-0.1,0.8-0.4,1.1
		c-1.2,0.9-2.6,1.2-4.1,1c-3.2-0.4-5.6-3.4-5.4-6.6C11.8,54.4,14.4,52,17.8,52z"/>
	<path class="st6" d="M63.8,62.7c-2.2,1.8-4.7,1.8-6.2,0c-1.5-1.7-1.4-4.4,0.3-6c1.3-1.2,2.9-1.4,4.5-0.9c1.5,0.5,2.4,1.6,2.7,3.2
		c0.2,1.2,0.1,2.5,0.1,3.7c0,0.5,0.1,1.2-0.5,1.3C63.8,64.1,63.9,63.3,63.8,62.7z"/>
	<path class="st6" d="M32.7,59.8c0-1.1,0-2.2,0-3.2c0-0.4,0-0.8,0.4-0.9c0.4-0.1,0.7,0.1,0.8,0.5c0.1,0.5,0.4,0.2,0.6,0.1
		c3.4-1.7,6.1-0.1,6.1,3.7c0,1.1,0,2.2,0,3.2c0,0.4-0.1,0.8-0.7,0.8c-0.5,0-0.5-0.4-0.5-0.8c0-1.3,0-2.6,0-3.8c0-1.1-0.4-2-1.4-2.4
		c-1.1-0.5-2.2-0.4-3.2,0.3c-0.6,0.4-0.9,1.1-0.9,1.9c0,1.3,0,2.6,0,4c0,0.5,0,1-0.6,0.9c-0.5,0-0.6-0.5-0.6-0.9
		C32.7,62,32.7,60.9,32.7,59.8z"/>
	<path class="st6" d="M51.4,55.6c1-0.1,1.9,0.3,2.7,1.1c0.3,0.3,0.6,0.6,0.2,1c-0.3,0.3-0.6,0-0.9-0.2c-1.5-1.1-2.9-1.2-4-0.2
		c-1.1,0.9-1.3,2.9-0.5,4.2c0.8,1.4,2.7,1.9,4.3,1c0.4-0.2,0.8-0.6,1.1-0.1c0.4,0.6-0.2,0.8-0.5,1c-1.4,1-3.5,0.8-4.9-0.2
		c-1.4-1.1-1.9-3.1-1.3-4.9C48,56.6,49.5,55.6,51.4,55.6z"/>
	<path class="st6" d="M23.7,57.3c0-1.5,0-3,0-4.4c0-0.4,0-0.9,0.6-0.9s0.5,0.5,0.5,0.9c0,2.7,0,5.4,0,8c0,1,0.1,1.9,1.4,1.9
		c0.3,0,0.5,0.3,0.5,0.6c0,0.4-0.3,0.5-0.7,0.6c-1.1,0.2-2.2-0.8-2.2-2.2C23.6,60.4,23.7,58.9,23.7,57.3L23.7,57.3z"/>
	<path class="st6" d="M28.5,59.7c0-1.1,0-2.2,0-3.3c0-0.4,0.1-0.7,0.6-0.7s0.6,0.3,0.6,0.7c0,2.3,0,4.6,0,6.9c0,0.4-0.1,0.8-0.6,0.8
		s-0.6-0.4-0.6-0.8C28.5,62,28.5,60.9,28.5,59.7z"/>
	<path class="st6" d="M44.7,59.9c0,1.1,0,2.2,0,3.2c0,0.4,0,0.9-0.5,0.9s-0.7-0.4-0.7-0.8c0-2.2,0-4.5,0-6.7c0-0.4,0.1-0.8,0.6-0.8
		c0.6,0,0.6,0.5,0.6,0.9C44.7,57.6,44.7,58.7,44.7,59.9z"/>
	<path class="st6" d="M31.2,52.1c0,0.4-1.8,2.3-2.2,2.3c-0.3,0-0.4-0.1-0.6-0.4c-0.1-0.2-0.1-0.5,0.1-0.7c0.6-0.6,1.1-1.2,1.8-1.8
		C30.7,51.3,31.2,51.6,31.2,52.1z"/>
	<path class="st6" d="M45.1,53.2C45,53.6,44.8,54,44.2,54c-0.5,0-0.8-0.3-0.8-0.8s0.3-0.8,0.8-0.9C44.7,52.3,45,52.7,45.1,53.2z"/>
	<path class="st9" d="M143.8,93.8c-0.3-3.3-3.2-6.2-6.7-6.7c-3.6-0.5-7.1,1.7-8.4,5c-0.4,1-0.5,2-0.5,3.1c0,3.8,0,7.5,0,11.3
		c0,0.3,0,0.6,0,0.8c-0.1,1.2-0.8,2.1-1.9,2c-1,0-1.7-0.8-1.7-2.1c0-3,0-6.1,0-9.1c0-1.4,0.2-2.8-0.2-4.2l0,0c-0.2-3.2-2.7-6-6-6.8
		c-3.4-0.8-6.9,0.8-8.6,3.8c-0.7,1.3-1,2.7-1,4.1c0,3.8,0,7.7,0,11.5c0,0.4,0,0.7,0,1.1c-0.2,1-1,1.7-1.9,1.6
		c-1-0.1-1.6-0.7-1.6-1.7c0-4.8-0.2-9.5,0.1-14.3c0.3-4.3,3.8-8.3,8.2-9.4c4.8-1.3,8.9,0.1,12.1,3.9c0.6,0.7,0.8,0.8,1.5,0
		c4.2-5.5,13.5-6.5,18.8,0.9c2.4-3.3,5.5-5.3,9.7-5.2c4.1,0,7.4,1.8,9.8,5.2c0.6-0.6,1-1.2,1.6-1.7c3.2-3.1,7-4.2,11.3-3
		c4.4,1.2,7.1,4.3,8.2,8.7c0.2,0.9,0.2,1.7,0.2,2.6c0,3.9,0,7.8,0,11.6c0,1.6-0.6,2.5-1.8,2.5s-1.8-0.9-1.8-2.6c0-4,0-8,0-12
		c-0.1-3.9-2.9-7.1-6.8-7.7c-3.8-0.6-7.5,1.8-8.7,5.5c-0.1,0.4-0.2,0.8-0.2,1.2c0.1,0.1,0.1,0.1,0.1,0.1l-0.1,0.1
		c-0.3,0.5-0.2,1-0.2,1.5c0,3.8,0,7.7,0,11.5c0,1.5-0.7,2.4-1.8,2.3c-1.1,0-1.8-0.9-1.8-2.4c0-3.9,0-7.8,0-11.8
		c0-4.6-3.5-8.2-7.9-8.1c-4.5,0-7.9,3.6-7.9,8.2c0,3.9,0,7.8,0,11.8c0,1.5-0.7,2.3-1.8,2.3s-1.8-0.9-1.8-2.3c0-3.9,0-7.8,0-11.6
		C143.9,94.9,144.1,94.3,143.8,93.8L143.8,93.8z"/>
	<path class="st9" d="M214.3,95c-0.3-3.3-3.1-6.5-6.5-7.5c-3.7-1.1-7.7,0.2-10,3.2c-2.7,3.4-2.7,8-0.1,11.5c2.6,3.5,7,4.6,11.2,3
		c0.3-0.1,0.5-0.2,0.8-0.3c1.1-0.4,2-0.1,2.5,0.8c0.4,0.9,0.1,2-1,2.5c-4.2,1.9-8.4,2.1-12.4-0.3c-3.8-2.2-6-5.6-6.5-10
		c0-0.2-0.1-0.5-0.2-0.7c-0.2-0.4-0.2-0.7,0-1.1c0.3-1.7,0.7-3.3,1.4-4.9c2.3-5.8,9-8.1,13.4-7.6c5.4,0.6,10.1,5,11.2,10.4
		c0.3,1.5,0.2,2.9,0.2,4.4c0,2.9,0,5.8,0,8.8c0,1.6-0.6,2.4-1.9,2.4c-1.2,0-1.8-0.8-1.8-2.3c0-3.4,0-6.9,0-10.3
		c0-0.6,0.1-1.1-0.2-1.6C214.2,95.2,214.2,95.1,214.3,95C214.2,95,214.3,95,214.3,95z"/>
	<path class="st10" d="M95,96.6c0-3.4,0-6.9,0-10.3c0-1.6,0.6-2.4,1.8-2.4c1.2,0,1.8,0.8,1.8,2.3c0,6.9,0,13.9,0,20.8
		c0,1.7-1.2,2.7-2.6,2c-0.8-0.4-1.1-1.1-1-2C95,103.7,95,100.1,95,96.6z"/>
	<path class="st10" d="M109.8,124.1c-1.7,1.5-3.5,1.9-5.4,0.9c-1.6-0.8-2.6-2.7-2.4-4.5c0.2-2,1.4-3.5,3.3-4.1
		c2.9-0.9,5.9,1.2,6,4.2c0,1.2,0,2.3,0,3.5c0,0.6,0.3,1.3-0.6,1.4S110,124.7,109.8,124.1z"/>
	<path class="st10" d="M148.7,121.2c-1,0-1.9,0-2.9,0c-0.7,0-0.7,0.2-0.5,0.8c0.5,1.8,2.7,2.7,4.6,1.9c0.2-0.1,0.4-0.2,0.5-0.3
		c0.4-0.3,0.9-0.6,1.2,0c0.4,0.7-0.2,0.9-0.7,1.1c-1.7,1-3.9,0.9-5.4-0.2s-2.2-3.2-1.6-5.3c0.5-1.8,2.1-3.1,3.9-3.2
		c2-0.1,3.6,0.8,4.3,2.6c0.1,0.4,0.2,0.8,0.3,1.2c0.2,0.9-0.1,1.4-1.1,1.3C150.5,121.1,149.6,121.2,148.7,121.2z"/>
	<path class="st10" d="M212.2,120.8c0,2.8-1.9,4.7-4.6,4.7c-2.7,0-4.7-2-4.7-4.7s2-4.7,4.7-4.7C210.2,116.1,212.2,118.1,212.2,120.8
		z"/>
	<path class="st11" d="M168.2,125.5c-1.2,0-2.4-0.3-3.3-1.1c-0.4-0.3-0.7-0.6-0.3-1.1c0.4-0.4,0.8-0.4,1.1,0c1,0.9,2.2,1,3.4,0.8
		c0.7-0.1,1.2-0.4,1.3-1.2c0.1-0.7-0.5-1.1-1.1-1.3c-0.9-0.3-1.8-0.4-2.7-0.7c-1.1-0.4-1.9-1-1.9-2.3s0.8-1.9,2-2.3
		c1.6-0.5,3.1-0.3,4.4,0.9c0.3,0.3,0.7,0.7,0.3,1.1s-0.8,0.3-1.2-0.1c-0.8-0.8-1.8-0.8-2.8-0.7c-0.6,0.1-1.2,0.3-1.3,1.1
		c-0.1,0.7,0.4,1,1,1.2c0.5,0.2,1.1,0.3,1.6,0.4c2.2,0.5,3.2,1.4,3,2.9C171.7,124.5,170.2,125.5,168.2,125.5z"/>
	<path class="st11" d="M187.6,125.5c-1.5,0-2.7-0.3-3.6-1.1c-0.4-0.3-0.6-0.7-0.2-1.1c0.4-0.4,0.8-0.3,1.1,0c1,0.9,2.2,0.9,3.4,0.8
		c0.7-0.1,1.2-0.5,1.3-1.2c0-0.7-0.5-1.1-1.1-1.2c-0.8-0.2-1.7-0.4-2.5-0.7c-1.4-0.4-2-1.2-2-2.4c0-1.1,0.7-2,2.1-2.3
		c1.6-0.4,3.1-0.2,4.3,1c0.3,0.3,0.6,0.6,0.2,1c-0.3,0.3-0.8,0.3-1.1,0c-0.9-0.9-1.9-0.9-3-0.8c-0.6,0.1-1.1,0.4-1.1,1
		s0.3,1,0.9,1.1c0.6,0.2,1.1,0.4,1.7,0.5c0.6,0.1,1.1,0.3,1.6,0.5c0.9,0.4,1.4,1,1.4,2s-0.5,1.7-1.3,2.2
		C189,125.4,188.2,125.6,187.6,125.5z"/>
	<path class="st11" d="M128.3,125.5c-2,0-3.8-1.2-4.4-3.1c-0.7-2,0-4.2,1.6-5.4c1.5-1.1,3.6-1.2,5.2-0.1c0.2,0.2,0.4,0.3,0.6,0.5
		c0.3,0.3,0.6,0.7,0.2,1.1c-0.4,0.4-0.7,0.2-1-0.1c-0.5-0.5-1.1-0.8-1.8-0.9c-1.5-0.2-2.6,0.4-3.2,1.6c-0.7,1.4-0.5,3.1,0.6,4.1
		c0.9,0.9,2.5,1.2,3.8,0.6c0.2-0.1,0.4-0.2,0.5-0.3c0.4-0.2,0.8-0.4,1.1,0c0.4,0.5,0,0.8-0.4,1.1
		C130.2,125.2,129.3,125.5,128.3,125.5z"/>
	<path class="st11" d="M96.8,82.9c-1,0-1.9-0.8-1.9-1.9c0-1,0.8-1.8,1.8-1.8s1.9,0.8,1.9,1.9C98.6,82.1,97.8,82.9,96.8,82.9z"/>
	<path class="st6" d="M94.7,85.7c0,7.3,0,14.6,0,21.9h-0.1C94.6,100.3,94.6,93,94.7,85.7L94.7,85.7z"/>
	<path class="st6" d="M186.7,107.9c0-4.9,0-9.7,0-14.6h0.1c0,4.9,0,9.7,0,14.6C186.8,107.9,186.8,107.9,186.7,107.9z"/>
	<path class="st6" d="M124.3,94c0,4.6,0,9.2,0,13.9c-0.4-0.2-0.2-0.5-0.2-0.7c0-4,0-8.1,0-12.1C124.1,94.8,123.9,94.3,124.3,94
		L124.3,94z"/>
	<path class="st6" d="M167.2,94c0-0.1,0-0.1,0-0.2c0.3,0.2,0.2,0.6,0.2,0.9c0,4.2,0,8.4,0,12.6c0,0.2,0,0.3-0.3,0.4
		C167.2,103.1,167.2,98.6,167.2,94z"/>
	<path class="st6" d="M143.8,93.8c0,4.6,0,9.3,0,13.9c-0.4-0.2-0.3-0.5-0.3-0.7c0-4,0-8.1,0-12.1C143.5,94.5,143.4,94.1,143.8,93.8
		L143.8,93.8z"/>
	<path class="st6" d="M214.3,95c0,0.1,0.1,0.1,0,0.2c0,4.3,0,8.5,0,12.8c-0.1,0-0.2,0-0.3,0c0-2.5,0-5,0-7.5c0-1.4,0-2.9,0-4.3
		C214,95.7,213.9,95.3,214.3,95z"/>
	<path class="st6" d="M192,96c0,0.4,0,0.7,0,1.1c0,0.3-0.1,0.5-0.1,0.8h-0.1c0-0.8,0-1.6,0-2.3h0.1C191.9,95.7,192,95.9,192,96z"/>
	<path class="st9" d="M63.9,59.9c0,1.8-1.3,3.1-3.1,3.1s-3.2-1.5-3.1-3.3c0.1-1.7,1.5-3.1,3.2-3.1C62.6,56.6,63.9,58,63.9,59.9z"/>
	<path class="st6" d="M109.9,120.8c0,2-1.3,3.3-3.3,3.3c-1.8,0-3.2-1.4-3.2-3.3s1.4-3.4,3.3-3.4C108.7,117.5,110,118.9,109.9,120.8z
		"/>
	<path class="st6" d="M145.3,120c0.3-1.5,1.1-2.3,2.4-2.5c1.6-0.2,2.7,0.4,3.2,1.7c0.2,0.5,0.3,0.8-0.5,0.8
		C148.8,119.9,147.1,120,145.3,120z"/>
	<path class="st6" d="M210.7,120.9c0,2-1.3,3.3-3.3,3.3c-1.9,0-3.2-1.4-3.2-3.3c0-2,1.4-3.3,3.3-3.3
		C209.5,117.5,210.7,118.8,210.7,120.9z"/>
</g>
<image style="display:none;overflow:visible;enable-background:new    ;" width="656" height="622" xlink:href="49DD68BE.png"  transform="matrix(0.3249 0 0 0.3249 16.3685 -1.464844e-05)">
</image>
<image style="display:none;overflow:visible;enable-background:new    ;" width="715" height="259" xlink:href="49DD68C2.png"  transform="matrix(0.3457 0 0 0.3457 0 55.4674)">
</image>
<image style="display:none;overflow:visible;enable-background:new    ;" width="671" height="415" xlink:href="49DD68C5.png"  transform="matrix(0.3684 0 0 0.3684 0 24.6059)">
</image>
<g>
	<g>
		<path class="st12" d="M36.1,159.7c-1.7-1-2.2-2.5-2.1-4.3c0.1-1.7-0.1-3.4,0.2-5.1c0.3-1.3,1.2-2,2.4-2.3s2,0.4,2.7,1.2
			c0.2,0.3,0.5,0.6,0.1,1s-0.7,0.2-1-0.1c-1.6-1.2-2.4-0.9-2.9,1.1c-0.5,1.8-0.1,3.5,0,5.3c0.1,1,0.7,1.9,1.7,2.2
			c0.5,0.1,1.1-0.5,1.1-1.1c0-1.1,0.7-2.3-0.7-3c-0.3-0.1-0.6-0.2-0.7-0.6c2.4-0.9,2.8-0.6,2.9,1.7c0.1,1.7,0,3.3-1.8,4.2
			C37.3,159.7,36.7,159.7,36.1,159.7z"/>
		<path class="st13" d="M216.4,159.7c-1.9-0.7-2.5-2.2-2.5-4c0-1.5,0-3,0.1-4.5s0.8-2.7,2.3-3.2c1.1-0.3,2,0.2,2.8,0.9
			c0.3,0.3,0.8,0.7,0.3,1.2c-0.4,0.5-0.8,0-1.1-0.2c-1.7-1-2.3-0.9-2.9,1c-0.7,2.1-0.5,4.2,0.1,6.3c0.2,0.7,0.7,1.5,1.6,1.3
			c1-0.2,1.1-1,1.2-1.9c0.1-1.4-0.3-2.3-2-2.5c1.1-0.8,2.2-0.8,3-0.5c0.8,0.4,0.6,1.5,0.5,2.3c-0.1,1.7-0.5,3.3-2.5,3.9
			C217,159.7,216.7,159.7,216.4,159.7z"/>
		<path class="st12" d="M75.2,159.7c-0.3-0.4-0.6-0.9-1.1-1.5c0.7,0,1.3-0.1,1.8,0c1.3,0.4,1.7-0.3,2.2-1.2c0.6-1.1-0.2-1.4-0.8-1.9
			c-0.8-0.7-1.7-1.3-2.4-1.9c-1.1-1-1.4-2.8-0.6-4c0.6-1,2.9-1.5,4-1c0.4,0.2,0.6,0.6,0.5,0.9c-0.1,0.5-0.6,0.2-0.9,0.2
			c-2-0.2-2.5,0.1-2.5,1.8c0,0.5,0.2,0.9,0.6,1.2c0.7,0.5,1.4,1,2.1,1.6c2.2,1.8,2,4.2-0.6,5.5c-0.2,0.1-0.3,0.2-0.5,0.3
			C76.4,159.7,75.8,159.7,75.2,159.7z"/>
		<path class="st14" d="M-0.2,81.4c0.1,0,0.2,0,0.3,0c0.6,0.6,0.5,1.3,0.5,2c0,13.6,0,27.3,0,40.9c0,0.7,0.1,1.5-0.5,2H0h-0.1
			C-0.2,111.3-0.2,96.4-0.2,81.4z"/>
		<path class="st15" d="M120.2,159.7c0-0.1,0-0.2,0-0.3c1.1-0.7,2.1-0.7,3.2,0.1c0,0.1,0,0.2,0,0.2
			C122.2,159.7,121.2,159.7,120.2,159.7z"/>
		<path class="st16" d="M150.5,116c0,3.3,0,6.7,0,10c0,2.1-0.9,3.4-2.6,3.8c-2.8,0.7-4.8-0.7-5-3.6c-0.1-1.6,0-3.1,0-4.7
			c0-4.2,0-8.4-0.1-12.6c-0.1-4.9-4.6-8.5-9.1-7.3c-2.3,0.6-3.4,2.3-4.1,4.3c-0.5,1.5-0.7,3-0.7,4.6c-0.1,4.8-0.2,9.7-0.3,14.5
			c0,0.7-0.1,1.3-0.2,2c-0.1,1.3-0.6,2.4-2.1,2.7s-2.8-0.1-3.8-1.2c-0.8-0.9-1.3-1.9-1.2-3.2c0.1-7.7,0.1-15.4,0-23.1
			c0-2.1,1.1-3.4,2.6-4.5c1.1-0.8,2.5-0.7,3.5,0.1c3,2.2,5.9,1.6,8.7-0.1c6.2-3.8,13.1,1.4,14.1,6c0.4,2,0.4,4,0.4,6.1
			C150.4,111.8,150.4,113.9,150.5,116C150.4,116,150.5,116,150.5,116z"/>
		<path class="st16" d="M55.7,114.2c0,4.1,0,8.1,0,12.2c0,1.7-1,2.7-2.7,2.7c-1.3,0-2.7,0.5-3.7-1c-0.4-0.7-0.6-1.3-0.7-2
			c0-3.5-0.4-6.9-0.1-10.4c0.1-1.5-0.1-3-0.2-4.5c0-3.3,0-6.7,0.4-10c0.2-2.3,1.5-3.1,4.1-2.9c1.6,0.1,2.7,1.3,2.7,3.4
			C55.7,105.8,55.6,110,55.7,114.2C55.6,114.2,55.6,114.2,55.7,114.2z"/>
		<path class="st16" d="M52.5,85.9c2.9,0.1,4.9,2.1,4.8,4.8c-0.1,2.6-2.2,4.7-4.9,4.6c-2.5-0.1-4.7-2.2-4.7-4.4
			C47.7,88,49.8,85.8,52.5,85.9z"/>
		<path class="st17" d="M242.9,156.7c0.5-2.6,0.9-5.1,1.4-7.6c0.1-0.5,0.2-1.1,0.8-1.1c0.8,0,0.6,0.8,0.6,1.2c0.4,3,0.8,6,1.2,8.9
			c0.1,0.4,0.3,1-0.5,1c-0.7,0.1-0.7-0.4-0.7-0.9c-0.2-2.2-0.5-4.4-0.7-6.8c-0.7,1.5-0.8,2.9-1.1,4.3c-0.2,0.8-0.2,1.5-0.4,2.3
			c-0.1,0.6-0.4,1.2-1,1.2s-0.4-0.7-0.5-1.2c-0.4-2.1-0.8-4.2-1.5-6.2c-0.3,2.1-0.7,4.3-1,6.4c-0.1,0.4,0.1,1-0.5,0.9
			c-0.4,0-0.7-0.5-0.6-0.9c0.4-3.1,0.8-6.2,1.3-9.2c0.1-0.4,0.3-1,0.8-1s0.6,0.6,0.7,1.1c0.4,2.1,0.8,4.3,1.2,6.4
			C242.4,155.8,242.4,156.2,242.9,156.7z"/>
		<path class="st17" d="M192.8,151.8c-0.6,2.2-1.1,4.2-1.7,6.2c-0.1,0.5-0.2,1.2-0.8,1.2c-0.7,0-0.4-0.7-0.4-1.1
			c-0.3-1.9-0.5-3.8-1.2-5.9c-0.9,2.4-0.7,4.9-1.8,7.1c-0.8-1.9,0.4-10.2,1.8-11.5c0.5,2.4,1,4.8,1.5,7.3c1.4-2.4,1.4-5,2.6-7.3
			c1.4,3.5,1.4,7.2,1.7,11.3C193,156.7,193.6,154.3,192.8,151.8z"/>
		<path class="st12" d="M48.6,152.4c0,1.9,0,3.8,0,5.7c0,0.6,0,1-0.8,1s-0.6-0.6-0.6-1c0-3,0.1-6,0.1-9c0-0.5,0.1-1.2,0.7-1.2
			c0.6-0.1,0.6,0.6,0.7,1c0.8,2,1.1,4.2,2.7,6.2c0.3-2,0.1-3.8,0.2-5.6c0-0.5-0.3-1.2,0.5-1.2c1,0,0.6,0.8,0.6,1.3
			c0,2.8,0,5.5,0,8.3c0,0.5,0.3,1.1-0.5,1.3s-0.8-0.6-1-1.1c-0.8-1.9-1.5-3.8-2.3-5.7C48.8,152.4,48.7,152.4,48.6,152.4z"/>
		<path class="st15" d="M231.4,153.7c-1.1,0.6-2.9-0.2-2.9,2.3c0,2.4,1.5,2.1,2.8,2.6c-1,0.8-3.2,1.1-4,0.5
			c-0.5-0.3-0.3-0.8-0.3-1.1c0-2.8,0.1-5.5,0-8.3c-0.1-1.2,0.4-1.7,1.5-1.7c0.5,0,1-0.1,1.6,0c0.5,0.1,1.2,0.2,1.2,0.7
			c0,0.7-0.8,0.5-1.2,0.5c-1,0-1.6,0.2-1.5,1.4c0.1,1-0.3,2.3,1.5,2.2C230.6,152.7,231.3,152.8,231.4,153.7z"/>
		<path class="st15" d="M87.4,153.7c0-0.8-0.1-1.7,0-2.5c0.1-0.9,0.1-1.7-0.9-2.2c-0.6-0.3-0.7-0.7,0.1-0.9c1.4-0.4,2.8-0.2,4.1,0.1
			c0.2,0,0.4,0.3,0.4,0.4c0,0.3-0.2,0.5-0.5,0.5c-1.5,0-1.3,1-1.3,2c0,2.3,0,4.6,0,6.8c0,0.5,0.2,1.2-0.7,1.3
			c-0.9,0.1-0.8-0.6-1-1.1C87.1,156.7,87.5,155.1,87.4,153.7z"/>
		<path class="st18" d="M111.6,158.5c-1.4,1.1-3,1-3.8-0.1c-1.3-1.8-1.4-7.2-0.2-9c0.7-1.1,1.8-1.6,3.1-1.5c0.5,0,1,0.3,1,0.8
			c0,0.7-0.6,0.5-0.9,0.4c-1.3-0.1-1.9,0.6-2.3,1.7c-0.7,1.9-0.6,3.8-0.3,5.7C108.5,158.2,110,158.3,111.6,158.5z"/>
		<path class="st19" d="M97.7,153.5c0-1.5,0-2.9,0-4.4c0-0.4-0.3-1.1,0.4-1.2c0.8-0.1,0.7,0.6,0.8,1.1c0.2,3.2,0.2,6.3,0,9.5
			c0,0.3,0.1,0.9-0.4,0.9c-0.4,0-0.7-0.5-0.7-0.9c0-1.3-0.1-2.7-0.1-4C97.7,154.1,97.7,153.8,97.7,153.5z"/>
		<path class="st16" d="M177.7,153.5c0-1.5,0-2.9,0-4.4c0-0.4-0.4-1.2,0.6-1.1c0.8,0.1,0.6,0.7,0.6,1.2c0,3,0,5.9,0,8.9
			c0,0.4,0.3,1.1-0.5,1.1s-0.6-0.7-0.6-1.1C177.7,156.5,177.7,155,177.7,153.5z"/>
		<path class="st20" d="M13.9,158.9c-0.8-3.3-0.7-6.6,0-9.9C14.7,152.2,14.4,155.5,13.9,158.9z"/>
		<path class="st20" d="M179.3,139.3c-0.2,0.6-0.5,1.4-1.2,1.4c-0.7,0.1-1.4-0.3-1.4-1.3c0-0.8,0.5-1.2,1.3-1.3
			C178.7,138.1,179.1,138.6,179.3,139.3z"/>
		<path class="st21" d="M199.9,138.3c0.9,0,1.4,0.5,1.3,1.3c0,0.8-0.7,1.1-1.3,1c-0.5-0.1-1.4-0.2-1.1-1.1
			C198.9,138.9,198.7,138,199.9,138.3z"/>
		<path class="st22" d="M209.6,140.3c0.3-1,0.1-2.3,1.6-2.1c0.5,0.1,1.1,0.3,0.9,1.1C211.8,140.9,210.7,140.3,209.6,140.3z"/>
		<path class="st23" d="M150.5,140.4c-0.6,0-1.1-0.2-1-0.9c0-0.8,0.6-1.4,1.3-1.5c0.6,0,1.2,0.7,1.2,1.3
			C152,140.1,151.4,140.4,150.5,140.4z"/>
		<path class="st20" d="M145.2,140.4c-0.8,0.1-1.4-0.3-1.4-1.1c0-0.7,0.4-1.1,1.2-1.1s1.3,0.4,1.3,1.2
			C146.4,140.2,146,140.5,145.2,140.4z"/>
		<path class="st24" d="M128.6,140.4c-0.9,0.2-1-0.4-1-1.1c-0.1-1.2,0.9-1,1.5-1.1c0.9-0.1,0.6,0.6,0.7,1.1
			C129.9,140.1,129.5,140.5,128.6,140.4z"/>
		<path class="st25" d="M206.5,139.3c0,0.8-0.3,1.1-1,1.1s-1.4-0.2-1.5-1c0-0.6,0.4-1.2,1.2-1.2C206,138.2,206.5,138.5,206.5,139.3z
			"/>
		<path class="st20" d="M195.5,139.4c0.1,1.1-0.8,1.4-1.3,1.4c-0.9-0.1-0.6-1.1-0.7-1.7c-0.3-0.8,0.6-0.6,1-0.7
			C195.2,138.2,195.5,138.7,195.5,139.4z"/>
		<path class="st26" d="M172.3,140.4c-1,0.2-0.9-0.6-0.9-1.1s-0.2-1,0.7-1c0.8,0,1.4,0.3,1.4,1.2
			C173.6,140.5,172.9,140.3,172.3,140.4z"/>
		<path class="st27" d="M168.3,139.1c-0.1,0.7-0.5,1.2-1.1,1.3c-0.6,0-1.2-0.4-1.3-1c-0.1-0.7,0.4-1.1,1.1-1.2
			C167.7,138.1,168.2,138.4,168.3,139.1z"/>
		<path class="st28" d="M160.5,139.2c-0.1-0.7,0.3-1.1,1-1c0.7,0,1.1,0.4,1.1,1.2c0,1.1-0.7,0.9-1.4,1
			C160.4,140.6,160.5,139.9,160.5,139.2z"/>
		<path class="st29" d="M238.2,140.3c-0.7,0.1-1.3,0-1.3-0.8c0-0.9,0.5-1.3,1.4-1.3c1,0,0.9,0.8,1,1.4
			C239.4,140.6,238.6,140.2,238.2,140.3z"/>
		<path class="st30" d="M139.7,140.3c-1,0.2-1.2-0.2-1.2-0.9c0-0.8,0.2-1.2,1.1-1.2c1,0,1,0.7,1.1,1.3
			C140.9,140.7,139.9,140.2,139.7,140.3z"/>
		<path class="st31" d="M122.7,140.4c-0.3-0.1-1,0.2-0.7-0.6c0.2-0.6-0.2-1.7,1.1-1.7c1.1,0,0.9,0.7,1,1.4
			C124.2,140.7,123.2,140.2,122.7,140.4z"/>
		<path class="st32" d="M243.8,140.4c-0.9,0.2-1.1-0.4-1.1-1.1c-0.1-0.8,0.4-1,1-1c0.7,0,1.1,0.2,1.1,1
			C244.8,140.1,244.6,140.5,243.8,140.4z"/>
		<path class="st22" d="M233.6,139.4c0.1,0.8-0.2,1.1-0.9,1c-0.6,0-1.4-0.1-1.3-0.9c0-0.5,0.1-1.3,1-1.3
			C233.1,138.3,233.8,138.4,233.6,139.4z"/>
		<path class="st33" d="M157,139.2c0,0.8,0.1,1.3-0.7,1.2c-0.6-0.1-1.4,0-1.4-1c-0.1-1,0.7-1,1.3-1.1C157,138.2,157,138.8,157,139.2
			z"/>
		<path class="st34" d="M228.3,139.3c0.1,0.6,0,1.1-0.9,1.1c-0.7,0-1.3-0.1-1.4-0.9c0-0.6,0.2-1.2,1.1-1.2
			C227.9,138.3,228.5,138.4,228.3,139.3z"/>
		<path class="st35" d="M215.9,140.4c-0.6,0.1-0.9-0.3-0.9-1c0-0.9,0.6-1.1,1.2-1.1c0.8-0.1,1.1,0.6,1.1,1.2
			C217.4,140.2,216.7,140.4,215.9,140.4z"/>
		<path class="st25" d="M184.5,139.2c0,0.6,0.2,1.2-0.8,1.2c-0.9,0-1.2-0.4-1.2-1.2c-0.1-0.8,0.5-0.9,1.1-1
			C184.4,138.2,184.6,138.6,184.5,139.2z"/>
		<path class="st18" d="M134.1,140.4c-0.5,0-0.9-0.4-0.8-1.2c0-0.7,0.5-1,1.1-1c0.9,0,0.9,0.8,0.9,1.4
			C135.4,140.3,134.9,140.4,134.1,140.4z"/>
		<path class="st36" d="M222.7,139.4c0.1,0.7-0.2,1-0.9,1c-0.9,0-1.1-0.3-1-1.1c0.1-0.4-0.3-1.2,0.7-1.1
			C222.1,138.3,222.9,138.4,222.7,139.4z"/>
		<path class="st27" d="M189.3,140.3c-1.1,0.3-1.4-0.1-1.4-0.8c0-0.9,0.6-1.3,1.3-1.2c0.7,0,0.6,0.9,0.7,1.5
			C190.1,140.7,189.3,140.2,189.3,140.3z"/>
		<path class="st37" d="M18.5,140.4c-0.6,0-1.1-0.3-1.1-0.9c0-0.6,0.5-1,1.2-1c0.6,0,0.9,0.4,0.9,1C19.5,140.3,19,140.4,18.5,140.4z
			"/>
		<path class="st31" d="M8.5,138.8c0.2,0,0.9-0.2,0.7,0.7c-0.1,0.5,0.2,1.3-0.8,1.2c-0.6-0.1-1.2-0.2-1.2-1.1
			C7.3,138.8,7.7,138.7,8.5,138.8z"/>
		<path class="st27" d="M13.4,140.4c-0.8,0.1-0.8-0.4-0.8-0.9c0-1,0.9-0.7,1.4-0.8c0.7-0.2,0.5,0.4,0.5,0.8
			C14.5,140.1,14.2,140.6,13.4,140.4z"/>
		<path class="st25" d="M39.4,140.3c-0.3-0.1-0.9,0.3-0.9-0.5c0-0.7,0.4-1.1,1.2-1.2c0.6,0,0.8,0.3,0.8,0.9
			C40.5,140.2,40.2,140.4,39.4,140.3z"/>
		<path class="st26" d="M81.4,140.4c-0.4-0.1-1.1,0.2-0.8-0.5c0.2-0.5,0-1.4,1-1.3c0.6,0.1,1.1,0.4,1.1,1.1
			C82.6,140.6,81.8,140.2,81.4,140.4z"/>
		<path class="st38" d="M34.4,138.6c0.6,0,0.9,0.3,0.8,1c0,0.4,0.1,0.9-0.6,0.8c-0.5-0.1-1.4,0.1-1.4-0.7
			C33.1,139,33.7,138.6,34.4,138.6z"/>
		<path class="st39" d="M56.4,139.5c0,0.7-0.4,0.9-1,0.9s-1-0.4-1-1s0.5-0.9,1.1-0.9C56,138.6,56.5,138.9,56.4,139.5z"/>
		<path class="st34" d="M29.9,139.6c0.1,0.6-0.2,0.8-0.8,0.9c-0.6,0-1.1-0.2-1.1-0.8s0.4-1,1-1C29.6,138.6,30,138.8,29.9,139.6z"/>
		<path class="st27" d="M61.9,147.1c0.5-0.6,1-1.1,1.4-1.6c0.4-0.6,0.7-0.3,1.1,0.1c0.5,0.5,0.3,0.7-0.2,1
			C63.6,147,63,147.6,61.9,147.1z"/>
		<path class="st25" d="M76.1,140.4c-0.6,0.1-0.8-0.3-0.7-0.9c0-0.3-0.2-1,0.5-0.8c0.5,0.1,1.3-0.1,1.4,0.7
			C77.4,140,76.9,140.3,76.1,140.4z"/>
		<path class="st17" d="M60.7,138.6c0.7,0,0.6,0.5,0.6,0.8c0.1,0.8-0.4,0.9-1.1,0.9c-0.7,0-0.6-0.5-0.7-0.9
			C59.4,138.5,60.3,138.9,60.7,138.6z"/>
		<path class="st27" d="M24.6,139.7c-0.1,0.3,0.2,0.9-0.6,0.7c-0.5-0.2-1.3,0-1.3-0.8c0-0.6,0.5-1,1.1-1
			C24.6,138.6,24.6,139.1,24.6,139.7z"/>
		<path class="st35" d="M86.7,138.4c0.5,0.4,1.3,0.4,1.2,1.1c-0.1,0.5-0.5,0.9-1.2,0.8c-0.4,0-1,0-0.9-0.6
			C85.9,139.3,86.2,138.8,86.7,138.4z"/>
		<path class="st37" d="M44.9,140.3c-0.8,0.1-0.8-0.4-0.8-1s0.3-0.8,0.8-0.8c0.7,0,0.8,0.5,0.8,1C45.8,140.3,45.5,140.4,44.9,140.3z
			"/>
		<path class="st40" d="M51.1,139.4c0.1,0.6-0.2,0.9-0.9,1c-0.6,0-0.9-0.1-0.9-0.7c0-0.6,0.1-1,0.8-0.9
			C50.6,138.8,51.1,138.7,51.1,139.4z"/>
		<path class="st35" d="M2.8,138.7c0.8-0.2,0.9,0.2,0.9,0.7s-0.1,0.9-0.8,0.9c-0.5,0-0.9-0.1-0.9-0.7C2,138.9,2.2,138.6,2.8,138.7z"
			/>
		<path class="st20" d="M65.8,138.6c0.6,0,0.8,0.4,0.8,0.9s-0.3,0.9-0.9,0.8c-0.5-0.1-0.8-0.4-0.8-0.9
			C64.9,138.9,65.3,138.7,65.8,138.6z"/>
		<path class="st16" d="M70.9,140.4c-0.6,0.1-0.8-0.2-0.8-0.8c0-0.7,0.3-0.8,0.9-0.8c0.7,0,0.7,0.4,0.7,0.9
			C71.8,140.3,71.5,140.4,70.9,140.4z"/>
		<path class="st17" d="M154,150.4c-0.4-1.7-1.6-2.7-3.1-2.6c-1.5,0.1-2.7,1.3-2.9,3c-0.2,1.3-0.1,2.7-0.2,4c-0.1,2,0.4,3.7,2.1,4.9
			c0.9,0,1.8,0,2.8-0.1C154.5,156.7,154.7,153.6,154,150.4z M153,154.2c-0.1,0.7,0,1.6-0.2,2.5c-0.3,1.1-1.1,1.4-2.1,1.5
			c-1.1,0.1-1.1-0.8-1.3-1.4c-0.7-2.2-0.4-4.3,0.1-6.4c0.2-0.8,0.7-1.1,1.4-1.2c0.8-0.1,1.4,0.3,1.6,1.1
			C152.9,151.5,153.1,152.8,153,154.2z"/>
		<path class="st12" d="M65.8,149.5c-0.4-1.2-1.5-1.5-2.5-1.5c-1-0.1-1.9,0.4-2.3,1.5c-1.3,3.7-1.5,7.1,1.3,10.2c0.9,0,1.7,0,2.4,0
			c0.2-0.3,0.4-0.6,0.6-0.9C67.1,155.8,66.9,152.7,65.8,149.5z M65.5,153.7c0,1.2-0.1,2.4-0.6,3.5c-0.3,0.7-0.9,1.4-1.5,1.4
			c-0.6,0-1.4-0.6-1.6-1.4c-0.5-2.3-0.9-4.6,0.1-6.9c0.3-0.6,0.4-1.2,1.3-1.1c0.8,0.1,1.5,0.3,1.8,1.2
			C65.3,151.6,65.6,152.6,65.5,153.7z"/>
		<path class="st16" d="M149.7,63.5c-1.1-7.1-4.8-12.8-11.4-16.6c-4-2.3-8.2-3.8-12.7-3.9c-7.1-0.2-14.3-0.1-21.5-0.1
			c-0.8,0-1.2,0.3-1.6,0.8c-1.2,1.5-0.8,3.1-0.2,4.7c0.5,1.4,0,2-1.3,2.3c-0.4,0.1-0.8,0.3-1.2,0.3c-1.4,0-2.1,0.8-2.5,2.1
			c-1.5,5.1-1.9,10.3-1.6,15.6c0,1.2,0.5,2.2,1.2,3.2c0.4,0.5,0.9,0.5,1.4,0.4c0.6-0.1,0.5-0.6,0.5-1c0-1.1,0.1-2.1-0.7-3
			c-0.4-0.4-0.4-0.8-0.3-1.3c0.5-2.8,1.1-5.6,1.6-8.4c0.7,2.6,1.1,5.1,0.4,7.7c-0.2,1.2-0.3,2.4-0.1,3.6c0.6,4.4,1.1,8.9,1.6,13.3
			c0.2,2.6,1.2,5.3-1.5,7.4c4.5,0.6,4.5,0.6,4.8-3.6c0-0.3-0.1-0.6,0-0.8c0.2-1,0.9-0.7,1.4-0.4c0.4,0.2,0.2,0.8,0.2,1.3
			c0.1,2.2,1.6,3.7,3.7,3.7c5.1-0.1,10.2-0.3,15.3-0.1c5.1,0.2,9.7-1.3,13.8-4.1C147.2,81.1,151.1,73.3,149.7,63.5z M104.5,44.3
			c0-1,0.8-0.9,1.1-0.6c0.6,0.7,0.9,1.7,0.6,2.7c-0.2,1-0.1,2.2-1.7,2.1C104.5,47.1,104.5,45.7,104.5,44.3z M106,51.9
			c0.3,0,0.6-0.1,0.9-0.1c3.5-0.2,4.5,0.8,4.3,4.4c0,0.7-0.4,0.6-0.8,0.6c-0.9,0-1.7,0-2.6,0c-3.3,0-3.3,0-3.3-3.3
			C104.5,52.3,104.8,51.8,106,51.9z M111.5,65.2c-0.4,0-0.9,0.1-1-0.5c-0.2-1.3-0.5-2.6-0.7-4c-0.1-0.7,0.5-0.5,0.9-0.5
			c0.5,0,1.2-0.3,1.2,0.7c0.1,0.6,0.1,1.2,0.1,1.8s0,1.1,0,1.7C112,64.7,112.1,65.2,111.5,65.2z M121.2,74.2c1.8,0,3.5-0.2,5.3-0.6
			c3.5-0.8,5.4-2.8,5.6-5.7c0.2-3.2-1.7-6.3-4.8-7.5c-2.5-1-5.2-0.7-7.9-0.8c-2-0.1-4,0-5.9,0.1c-0.9,0-1.2-0.3-1.2-1.2
			c0-0.9,0.6-1,1.2-1c4.4,0,8.7,0,13.1,0.2c3.5,0.2,6.9,3.7,7.8,7.7c0.8,3.8-1,7.7-4.6,9.7c-1.7,1-3.6,1.5-5.6,1.6
			c-2.5,0-4.9,0-7.3,0c-2.5,0-5.1,0-7.6,0c-0.5,0-1.4,0.4-1.2-0.6c0.1-0.8-0.1-1.9,1.4-1.9C113.4,74.3,117.3,74.2,121.2,74.2z
			 M112.8,67.1c0-0.7,0-1.3,1-1.3c3.3,0.1,6.6,0,10,0c1.1,0,1.8,0.6,1.8,1.5c0,0.8-0.9,1-1.8,1c-1.7-0.1-3.3,0-4.9,0
			c-1.7,0-3.4-0.1-5.1,0C112.8,68.3,112.7,67.8,112.8,67.1z M107.9,72.6c-0.1,0.7-0.3,1-1,1c-2.4,0.2-2.4,0.2-2.4-2.4
			c0-2.5,0-2.4,2.6-2.6c1.2-0.1,1.6,0.2,1.2,1.4C108.1,70.8,108,71.7,107.9,72.6z M110.9,71.9c-0.4,0.1-0.6-0.1-0.6-0.5
			c-0.2-0.4-0.2-1-0.3-1.4c0.3-0.9,0.3-1.4-0.8-1.6c-0.9-0.1-0.3-1.1-0.4-1.7c-0.1-0.5,0.3-0.7,0.8-0.8c0.8-0.2,0.8,0.5,0.9,0.9
			c0.3,0.8,0.3,1.5,1.3,1.9C112.4,69,111.6,71.7,110.9,71.9z M104.3,61.2c-0.2-0.6,0.1-1,0.9-1.1c2.5-0.1,2.5-0.1,2.5,2.7
			c0,0.1,0,0.2,0,0.3c0,2.2-0.6,2.9-2.7,2C103.4,64.4,104.7,62.5,104.3,61.2z M105.5,82.5c-1,0.1-0.9-0.6-1-1.2
			c-0.2-0.8-0.2-1.4-0.3-2.1c0-1.1-0.2-2,1.5-1.9c1.4,0.1,1.9,0.5,1.5,1.9c-0.2,0.6-0.2,1.3-0.2,2C107,82.2,106.4,82.4,105.5,82.5z
			 M143.5,67.6c-0.6,8.5-6,15.6-15.6,17.3c-4.4,0.8-8.8,0.2-13.2,0.3c-2,0.1-4.1,0-6.1,0c-0.7,0-1.6,0.5-1.6-0.9
			c0-1.3,0.5-1.6,1.7-1.6c4,0,8,0,12,0c2.8,0,5.6,0.2,8.4-0.6c8.1-2.1,13.5-10.5,11.5-18.2c-2-7.8-8.8-12.2-15.7-12.3
			c-5.6-0.1-11.1,0.2-16.7-0.7c-0.8-0.1-2.3,0.3-2.3-0.9c0-1.3,1.5-0.9,2.4-1c2.8-0.1,5.7-0.1,8.6-0.1c3.7,0,7.5-0.2,11.2,0.4
			C136.7,50.6,144.1,59,143.5,67.6z"/>
		<path class="st15" d="M124,148.8c-0.5-0.6-0.9-1.1-1.7-0.8c-1,0.4-2.3-0.3-2.9,1.2c-1.4,3.5-1.4,6.9,0.7,10.2
			c1.1,0.1,2.1,0.1,3.2,0.1c1.3-0.7,1.6-1.8,1.7-3C125.3,153.8,125.7,151.2,124,148.8z M123.5,156.7c-0.2,0.9-0.6,1.4-1.6,1.5
			c-1.1,0.1-1.2-0.6-1.5-1.4c-0.8-2.3-0.5-4.6,0.3-6.8c0.3-0.7,0.7-0.9,1.4-0.9c0.7-0.1,1,0.3,1.2,0.9c0.5,1.2,0.7,2.4,0.6,3.7
			C124,154.7,123.7,155.7,123.5,156.7z"/>
		<path class="st41" d="M166.6,158.2c-0.5-1-1-1.9-1.5-2.9c-0.3-0.6-0.3-0.9,0.3-1.4c1.7-1.4,1.9-3.2,0.6-4.9
			c-0.8-1.1-2.1-0.6-3.1-1c-0.7-0.3-0.9,0-1,0.8c-0.3,3.2-0.2,6.4-0.1,9.6c0,0.4-0.1,0.8,0.6,0.8c0.6-0.1,0.8-0.3,0.8-0.9
			c0-0.9,0-1.9,0-2.9c0.1-0.1,0.2-0.1,0.3,0.1c0.7,1,1.3,2.1,2,3.2c0.3,0.4,0.5,1,1.2,0.6C167.4,158.9,166.7,158.5,166.6,158.2z
			 M163.3,153c0-0.9,0-1.8,0-2.6c0-0.7,0.1-1.1,1-1.2c0.9-0.1,1.1,0.3,1.2,1C165.9,152.4,165.9,152.4,163.3,153z"/>
		<path class="st17" d="M1.5,148.1c-0.9,0-1.3,0.3-1.3,1.3c0,1.5,0,2.9,0,4.4c0,1.4,0,2.9,0,4.3c0,0.4-0.1,0.8,0.4,1.1
			c1.6,0.8,4.4-0.4,4.9-2.2c0.5-1.5,0.3-3,0.4-4.5C6.2,149.6,4.4,147.9,1.5,148.1z M4.5,152.1c0,1.2-0.1,2.4-0.1,3.6
			c0,0.8-0.3,1.3-0.8,1.7c-0.5,0.4-1.1,0.8-1.7,0.6c-0.6-0.2-0.2-0.9-0.2-1.4c0-0.9,0-1.9,0-2.9c0-1.1,0-2.2,0-3.3
			c0-0.4-0.3-1.2,0.5-1.3c0.7-0.1,1.5-0.1,1.8,0.8C4.3,150.6,4.6,151.4,4.5,152.1z"/>
		<path class="st13" d="M207.4,158.2c-0.3-1.9-0.7-3.7-1.1-5.6c-0.3-1.2-0.5-2.4-0.8-3.6c-0.1-0.5-0.5-0.8-1-0.9
			c-0.7-0.1-0.6,0.5-0.7,0.8c-0.9,2.9-1.6,6-2.1,9c0,0.5-0.1,1.1,0.5,1.3s0.5-0.6,0.8-0.9c0-0.1,0.1-0.2,0.1-0.3
			c0.4-1.3,1.4-0.7,2.2-0.8c0.8,0,0.8,0.6,0.8,1.2c0,0.5,0.2,1,0.8,0.9C207.6,159.2,207.5,158.6,207.4,158.2z M204.1,155.9
			c-0.8,0.1-0.6-0.4-0.5-0.9c0.2-1.2,0.2-2.5,1-4c0.6,1.5,0.8,2.9,0.9,4.2C205.6,156.2,204.6,155.8,204.1,155.9z"/>
		<path class="st17" d="M27.3,158.2c-0.4-2.9-0.9-5.9-1.6-8.9c-0.1-0.4-0.3-0.7-0.5-1c-0.2-0.2-0.3-0.5-0.7-0.5
			c-0.4,0.1-0.4,0.4-0.5,0.7c-0.9,3.1-1.7,6.3-2.3,9.6c-0.1,0.4-0.4,0.9,0.3,1c0.6,0.1,0.9-0.1,1-0.7c0.1-0.8,0.3-1.4,1.4-1.3
			c0.9,0.1,1.7,0,1.7,1.2c0,0.4,0.3,0.8,0.8,0.7C27.5,159,27.2,158.5,27.3,158.2z M23.9,154.1c0.2-1.2,0.4-2.3,0.9-3.4
			c0.3,1.7,0.6,3.4,1,5.1C23.5,156.1,23.5,156.1,23.9,154.1z"/>
		<path class="st16" d="M227.8,115.2c3.4-0.5,6.9-0.3,10.3,0c1.9,0.2,3.7,0.1,5.5-0.7c2.2-1,3.2-2.7,3.1-5.1c0-1.2-0.4-2.4-1-3.4
			c-2.9-4.9-6.8-8.6-12.7-9.2c-8-0.9-15.7,2.1-17.3,12.1c-0.4,2.3-0.3,4.5-0.5,6.9c-4.2-3.3-4.2-3.3-9.8-4.6
			c-3.3-0.6-6.5-1.5-9.2-3.6c-1-0.8-1.6-1.8-1.2-3.1c1.1-3.7,5.5-5.5,8.8-3.5c1.3,0.7,2.5,1.7,3.7,2.6c1.5,1.1,3.1,1.2,4.7,0.3
			c1.5-0.7,1.7-1.9,0.4-3c-2.4-1.9-5-3.5-8.2-3.7c-3.7-0.2-7.5-0.7-11,0.7c-4.3,1.7-7.2,4.7-7.4,9.8c-4.6-11.1-17.3-12.8-24.1-9.9
			c-8.8,3.8-12.1,12.4-10.7,19.4c1.7,8.4,9.5,14.4,18.3,14.1c5.3-0.2,10-2.1,13.5-6.4c3.4-4.1,4.6-9,4.1-14.4c1.3,2.2,3,3.6,5.4,4
			c2.3,0.4,4.6,0.9,6.9,1.4c2,0.5,4.1,1.2,5.6,2.8c1.3,1.4,1.8,3.1,1.1,4.9c-0.7,1.8-2,2.8-4,2.9c-3.3,0.2-6-0.8-8.4-3
			c-0.8-0.7-1.5-1.2-2.4-1.5c-1.4-0.4-2.8,0.3-3.4,1.6c-0.8,2-0.5,3.1,1.3,4.3c2.4,1.6,5.2,2.2,8,2.5c7.6,0.9,14.1-0.6,18.3-7.7
			c0.6-1.2,1.1-1.1,1.8,0.1c0.7,1.3,1.2,2.7,2.4,3.8c3.6,3.2,7.7,4.3,12.4,4.1c4.1-0.2,7.9-1.1,10.9-4.2c0.4-0.4,0.7-0.8,0.8-1.4
			c0.1-1.2-0.3-2.3-1.3-2.9c-1.1-0.6-2.3-0.4-3.3,0.2c-0.9,0.5-1.7,1.2-2.6,1.7c-3,1.6-6.3,2.2-9.6,1c-2.6-1-3.7-3.3-3.4-6.8
			C223.8,116.5,224.8,115.7,227.8,115.2z M224.3,105c1.4-2.8,4.9-4.6,7.7-4.1c3.6,0.6,6.5,3.5,6.9,6.8c0.2,1.6-0.8,3.1-2.4,3.5
			c-1.8,0.3-3.5,0.3-5.3,0.1c-1.1,0-2.3,0.1-3.4,0C224.2,111,222.7,108.3,224.3,105z M176.7,122.8c-3.8,5.6-10.2,6-14.6,1
			c-4.7-5.3-4.3-15.2,0.7-20.2c3.8-3.7,9.4-3.5,12.8,0.5c2.3,2.7,3.5,6.3,3.4,10C179,117.3,178.4,120.2,176.7,122.8z"/>
		<path class="st16" d="M120.9,103.8c0-1.7-0.5-3.3-1.6-4.6c-0.4-0.4-0.7-0.8-1.3-0.8c-1.7-0.1-3.4-0.3-4.8,0.5
			c-2.2,1.3-4.3,0.9-6.5,0c-6.7-2.8-12.4-1.3-17.1,4.2c-1.3,1.5-2,3.2-2.5,5c-0.2-0.4-0.2-0.8-0.2-1.1c-0.2-4.9-2.8-8.2-7.6-9.6
			c-1.6-0.4-3.2-0.8-4.9-0.8c-4.3-0.1-8.5,0.4-11.9,3.6c-1.1,1-1.6,2.9-0.7,4.1c1,1.3,2.3,0.7,3.4,0.3c0.5-0.2,1-0.6,1.5-1
			c2.7-2.2,5.7-2.3,8.8-1.1c0.5,0.2,1,0.5,1.4,0.9c2.5,2.1,1.7,5.9-1.3,7c-1.8,0.7-3.7,1.1-5.7,1.4c-2.8,0.4-5.7,0.7-8.2,2.2
			c-3.2,1.9-4.8,5.3-4.2,8.9c0.6,3.5,2.7,5.7,6.1,6.5c3.7,0.9,7.4,0.8,11-0.6c2.5-1,4.8-1.1,7.2,0.4c2.2,1.4,4.9-0.3,5-2.9
			c0-1.8,0-3.5,0-5.3c1.2,1.1,1.4,2.5,2.3,3.8c2.9,5.3,8,7.9,13.4,6.5c1.7-0.4,3.3-1.1,4.9-1.6c2.2-0.7,4.9,0.6,5.4,2.5
			c1.1,3.6-1.4,7.7-5.1,8.5c-3.9,0.8-7.3-0.5-10.7-2.3c-0.9-0.4-1.6-1-2.5-1.3c-1.8-0.7-3.1-0.3-4,1c-0.9,1.4-0.8,2.6,0.6,4.1
			c1.3,1.5,3.1,2.2,4.9,2.8c6,2,11.9,2.6,17.7-0.5c3.8-2,6.8-5,7-9.5C121.2,124.6,120.9,114.2,120.9,103.8z M70.7,126.2
			c-3.3-0.6-5-2.6-4.9-5.5c0-1,0.3-2,1-2.7c2-2.1,4.4-3.6,7.3-3.7c3-0.2,5.6,2.4,5.6,5.4C79.6,123.8,75.1,127,70.7,126.2z
			 M113.3,113.4c0,3.4-0.8,6.1-2.5,8.6c-4,5.8-11.8,3.9-14.5-0.6c-2.3-4-2.9-8.2-1.2-12.5c1.6-4,5.4-6.5,9.5-6.3
			c2.6,0.1,6,2.6,7,5.1C112.5,109.6,113.8,111.4,113.3,113.4z"/>
		<path class="st16" d="M47.3,100.8c0.2-3.5-0.7-6.8-2.5-9.8C39.8,82.9,32,79.4,23,78.7c-5.7-0.5-11.5,0-17.2-0.2
			c-2.6-0.1-4.5,0.6-5.7,2.9c0,5.7,0,11.4,0,17.1c0,9.2,0,18.5,0,27.8c0.5,2.7,1.6,3.6,4.5,3.7c6.5,0,13,0.1,19.5,0
			c10.2-0.2,20.5-8.7,22.8-18.6C47.6,107.9,47.2,104.3,47.3,100.8z M36.1,109.6c-1.2,5.9-4.7,10-10.3,12.4c-0.8,0.3-1.6,0.4-2.4,0.4
			c-3.5,0-7.1,0-10.6,0c-2.8,0-3.3-0.5-3.3-3.3c0-4.8,0-9.7,0-14.6c0-4.9,0-9.8,0-14.6c0-1.1,0.1-2.1,0.7-3c0.3-0.4,0.7-0.9,1.2-0.9
			c4.2,0,8.4-0.5,12.6,0.2c6.9,1.2,12,6.9,12.4,13.9C36.6,103.2,36.7,106.4,36.1,109.6z"/>
		<path class="st23" d="M141.3,150.6c-0.1-1.6-0.8-2.2-2.8-2.4c-0.4-0.1-0.8-0.1-1.1-0.2c-0.7-0.2-1,0-1,0.8c0,1.5,0,3,0,4.5
			c0,1.7,0,3.3,0,5.1c0,0.4,0,0.8,0.6,0.8c0.6,0.1,0.6-0.4,0.6-0.8c0-1,0.1-2,0-3c0-0.9,0.3-1.2,1.2-1.4
			C140.8,153.6,141.4,152.6,141.3,150.6z M137.7,152.9c0-0.9,0-1.8,0-2.6c0-0.8,0.3-1,1-1c0.8,0,0.9,0.3,1,1
			C139.8,152.3,139.7,152.5,137.7,152.9z"/>
	</g>
</g>
</svg>
