<?xml version="1.0" encoding="utf-8"?>
<!-- Generator: Adobe Illustrator 25.2.1, SVG Export Plug-In . SVG Version: 6.00 Build 0)  -->
<svg version="1.1" id="Camada_1" xmlns="http://www.w3.org/2000/svg" xmlns:xlink="http://www.w3.org/1999/xlink" x="0px" y="0px"
	 viewBox="0 0 247.2 202.1" style="enable-background:new 0 0 247.2 202.1;" xml:space="preserve">
<style type="text/css">
	.st0{fill:#595552;}
	.st1{fill:#8FC13D;}
	.st2{fill:#5A8E5E;}
	.st3{font-family:'Impact';}
	.st4{font-size:20.3479px;}
</style>
<g>
	<g>
		<path class="st0" d="M26.3,108.7c-6.5,0-13.1-0.1-19.6,0.1c-3.3,0.1-4.8-0.7-4.7-4.3c0.2-10.7,0.2-21.5,0-32.2
			c-0.1-3.7,1.5-4.4,4.8-4.3c12.9,0.1,25.8-0.1,38.6,0.1C53,68,56.8,71.4,57.4,78.7c0.5,6.1,0.6,12.2,0.3,18.2
			c-0.4,8.2-4.2,11.6-12.5,11.8C38.9,108.8,32.6,108.7,26.3,108.7C26.3,108.7,26.3,108.7,26.3,108.7z M29.5,98.6
			c18.1,0,18.1,0,17.7-16.4c0-0.2,0-0.4,0-0.6c0.3-3-1-4.5-4.2-4.4c-9,0.1-18,0.1-27,0c-2.4,0-3.5,0.5-3.8,3.3
			c-1.7,18.1-1.8,18.1,16,18.1C28.7,98.6,29.1,98.6,29.5,98.6z"/>
		<path class="st0" d="M201.3,109.1c-5.9,0-11.9-0.3-17.8,0.1c-4.6,0.3-3.7-2.7-3.6-5.1c0.1-2.5-1.3-5.9,3.7-5.7
			c9.4,0.4,18.8,0.3,28.2,0.4c1.6,0,3.3,0.1,4.9-0.2c1.8-0.3,4-0.5,3.9-3c-0.1-2.6-2.3-2.4-4.1-2.4c-8.8,0-17.6,0-26.4,0
			c-7.4,0-11-3-11.7-9.5c-0.9-8.8,2-13.8,9.3-15.1c7.9-1.4,15.9-1,23.8-0.9c4.3,0,2.5,3.3,2.7,5.3c0.2,2.1,0.7,4.6-3,4.5
			c-5.5-0.1-11.1,0-16.6,0.2c-2.6,0.1-6.3-0.5-6.4,2.9c-0.2,4,3.7,2.8,6.1,2.9c8,0.1,16-0.1,23.9,0.1c9.4,0.2,12.9,3.8,13,13.1
			c0.1,8.6-3.6,12.2-12.8,12.6c-2.9,0.1-5.7,0-8.6,0C207,109.2,204.1,109.2,201.3,109.1C201.3,109.2,201.3,109.1,201.3,109.1z"/>
		<path class="st0" d="M172.2,68.1c0,3.5,0,6.1,0,9.5c-11.2,0-22.4,0-33.6,0c-9.1,0-9.1,0.1-9,9.2c0.1,12,0.1,12,12,11.9
			c9-0.1,18,0,27-0.4c4.7-0.2,4.1,2.6,4.1,5.5c-0.1,2.7,0.9,5.6-4,5.4c-12.1-0.3-24.2,0.1-36.3-0.1c-9.7-0.2-12.9-3.7-12.9-13.6
			c0-5.7,0-11.4,0.1-17.1c0.1-6,3.3-9.4,9.3-10.1c1.4-0.2,2.9-0.2,4.3-0.2C146.3,68.1,159.1,68.1,172.2,68.1z"/>
		<path class="st1" d="M78.9,108.4c-18.3,1.4-18.3,1.4-18.3-16.6c0-4.1,0-8.1,0-12.2c0.2-8,3.7-11.8,11.5-11.9
			c12.5-0.2,25,0,37.5-0.1c2.9,0,4,0.8,3.9,3.8c-0.2,5.3-0.1,10.6-0.2,15.8c-2.8-3.8-4.5-8.6-10-9.5c-9.1-0.1-18.3,0-27.4-0.3
			c-4-0.1-5.5,1.7-5.4,5.4c0.1,5,0,10.1,0,15.1C70.5,103.6,75.2,105.6,78.9,108.4z"/>
		<path class="st2" d="M103.4,77.6c5.5,0.9,7.3,5.8,10,9.5c1.1,19.6-0.7,21.5-20.5,21.6c-4.7,0-9.3-0.2-14-0.3
			c-3.8-2.8-8.5-4.8-8.3-10.6c9.4,0.2,18.7,0.3,28.1,0.7c3.5,0.1,4.7-1.2,4.7-4.5C103.2,88.5,103.4,83,103.4,77.6z"/>
		<path class="st1" d="M226.6,77.7c-2.2,0-4.4,0-7.3,0c0-5.3-0.1-10.3,0-15.3c0.1-4,2.9-5.1,6.2-5.3c3.9-0.2,7.8-0.1,11.6-0.1
			c8.2,0,8.2,0,7.8,8.2c-1.6-0.9-2.6-2.8-4.7-2.6c-1.8-0.2-3.6-0.4-5.5-0.4c-10.5-0.1-10.5-0.1-10.5,10
			C223.8,74.7,226,75.9,226.6,77.7z"/>
		<path class="st2" d="M240.3,62.7c2.2-0.2,3.2,1.7,4.7,2.6c0.1,2.2,0.1,4.5,0.3,6.7c0.4,4.3-2.2,6-5.9,6.1
			c-4.3,0.2-8.5-0.2-12.8-0.4c-0.6-1.9-2.8-3-2.3-5.4c1.8,0.1,3.7,0.3,5.5,0.4C240.1,73,240.1,73,240.3,62.7z"/>
	</g>
	<text transform="matrix(1 0 0 1 12.8954 138.3376)" class="st1 st3 st4">RADIOLOGIA ODONTOLÓGICA</text>
</g>
</svg>
