<?xml version="1.0" encoding="utf-8"?>
<!-- Generator: Adobe Illustrator 25.2.1, SVG Export Plug-In . SVG Version: 6.00 Build 0)  -->
<svg version="1.1" id="Camada_1" xmlns="http://www.w3.org/2000/svg" xmlns:xlink="http://www.w3.org/1999/xlink" x="0px" y="0px"
	 viewBox="0 0 247.2 202.1" style="enable-background:new 0 0 247.2 202.1;" xml:space="preserve">
<style type="text/css">
	.st0{fill:#006DAF;}
</style>
<g>
	<g>
		<path class="st0" d="M100.1,26.1c-8-1.3-15.9-3.5-23.9-3.7c-18-0.6-31.6,9.7-33.9,27.4c-2,15-2.9,30.6-0.7,45.4
			c2.9,19.4,9,38.3,14.3,57.3c1.7,6,4.4,12.1,7.9,17.2c1.7,2.4,3.8,4.5,6.1,6.5c3.5,3.1,8.8,2.8,11.9-0.6c2.1-2.2,4-4.5,5.2-7.1
			c6.7-13.7,15.8-25.2,27-35.2c3.3-2.9,6.4-6,11.1-10.4c-12.7-5.7-24.2-10.9-35.6-16l0.8-3c2.5,0.3,5.2,0.1,7.5,1
			c11.1,4.4,21.8,12.1,33.1,12.8c11.1,0.7,22.7-5.5,34.1-8.6c2.8-0.7,5.7-0.9,9-0.1c-11.7,4.3-23.4,8.6-35.1,13
			c9,3.7,17.6,8.2,26.8,11.3c2,0.7,6.5-1.5,7.5-3.6c12.1-24.4,23.8-49,29-76c1.2-6,0.6-12.7-0.7-18.8c-2.4-11-9.5-16.9-20.7-16.5
			c-9.9,0.3-20.4,0.9-29.6,4.2c-19.8,7.1-36.8,2.5-54.4-7.1C84.7,8.8,71.2,4.7,60.8,0.4C69.2-1.3,80,1.6,90.4,6.7
			c5.7,2.8,11.3,5.6,17,8.6c13.1,6.8,26.3,7,39.9,1.6c8.3-3.3,16.8-6.3,25.4-8.6c5.7-1.5,11.8-2.4,17.6-2
			c23.7,1.5,35.8,16.7,31.5,40.1c-5.4,29.2-19.3,54.7-36.2,78.6c-9.6,13.6-10,13.4,5.7,19.7c9,3.6,18,7.1,26.9,11c0,0,0,0,0.1,0
			c2.9,1.3,1.6,5.7-1.5,5.5c-0.3,0-0.6-0.1-0.9-0.2c-9.4-3.6-18.6-7.7-27.8-11.6c-14.4-6-14.4-6-25.5,3.4c-0.2-0.6-0.8-1.5-0.6-1.9
			c5.2-10.7,5.3-10.7-5.5-15.1c-3.1-1.2-6.2-2.5-9.3-3.8c-14.7-6.1-16.3-6.6-25.9,6.7c-10.1,14.1-18.4,29.6-27.4,44.5
			c-2.3,3.8-3.9,8.1-6.3,11.8c-5.9,9.2-11.7,9.5-17.8,0.2c-5.1-7.7-9.5-16.1-13.3-24.5C38.5,131.1,23.9,90.4,24.7,46.1
			c0.2-8.9,3.1-18.5,7.3-26.4c5.7-10.5,15.4-15.5,28.3-13C75.2,9.8,88.1,16.5,100.1,26.1z"/>
	</g>
</g>
</svg>
