<?xml version="1.0" encoding="utf-8"?>
<!-- Generator: Adobe Illustrator 25.2.1, SVG Export Plug-In . SVG Version: 6.00 Build 0)  -->
<svg version="1.1" id="Camada_1" xmlns="http://www.w3.org/2000/svg" xmlns:xlink="http://www.w3.org/1999/xlink" x="0px" y="0px"
	 viewBox="0 0 247.2 202.1" style="enable-background:new 0 0 247.2 202.1;" xml:space="preserve">
<style type="text/css">
	.st0{fill:#21818E;}
	.st1{fill:#B7D5E6;}
	.st2{fill:#F6FAF8;}
	.st3{fill:#B7D4E3;}
	.st4{fill:#B3D5E8;}
	.st5{fill:#EBF6F4;}
	.st6{fill:#A1CFDE;}
	.st7{fill:#96B2C8;}
	.st8{fill:#DBECFA;}
	.st9{fill:#A5C5D5;}
	.st10{fill:#D2EFF5;}
	.st11{fill:#C6DEE8;}
	.st12{fill:#C2E1E0;}
	.st13{fill:#7CAAC6;}
	.st14{fill:#85ACC0;}
	.st15{fill:#CCDBEA;}
	.st16{fill:#BBD4E3;}
	.st17{fill:#A8C4D2;}
	.st18{fill:#DFF5F6;}
	.st19{fill:#EBFBF7;}
	.st20{fill:#EFF8F9;}
	.st21{fill:#EDF7FB;}
</style>
<g>
	<circle class="st0" cx="122.9" cy="101.3" r="100.8"/>
	<g>
		<g>
			<path class="st1" d="M191.9,163.2c-6.9-1.9-13.8-3.7-20.6-5.8c-9-2.7-15-8.3-16.9-17.9c-0.5-2.6-0.8-5.2-0.8-7.9
				c0-9.9,0-19.7,0-29.6c0-1,0.3-2.1-0.4-3.3c-1.8,1.2-3.7,2.4-5.4,3.7c-4.9,3.7-10.3,6.1-15.8,8.7c-0.9,0.4-1.9,0.4-2.9,0.4
				c-3.1,0-6.2-0.2-9.3,0c-5.1,0.5-9.6-1.2-13.8-3.8c-4.1-2.5-8-5.2-12.1-7.8c-0.7-0.4-1.4-1.5-2.3-0.8c-0.7,0.5-0.4,1.5-0.4,2.3
				c0,10.9,0,21.9,0,32.8c0,11.4-7,20.4-18.2,23.2c-6.6,1.7-13.2,3.4-19.7,5.2c-1,0.3-2.4,0.8-2.8-0.3c-0.6-1.4-0.4-3.1,0.7-4.5l0,0
				c0.8-0.7,1.9,0.1,2.6-0.6c5.6-1.5,11.2-3.3,16.9-4.5c8.3-1.7,15.6-9.7,15.3-19c-0.4-12.4-0.1-24.9-0.1-37.3c0-2.4-0.7-4-2.4-5.8
				c-7.2-7.6-12.8-16.3-16.9-25.9c-3.2-7.6-5.1-15.4-6.3-23.5c-0.3-2.1,0.9-2.4,2.4-2.7c1.5-0.3,2.6,0,2.8,1.9
				c1.1,10.5,4.6,20.1,9.5,29.4c5.7,10.9,13.8,19.7,23.6,27c4.3,3.2,8.9,6.1,13.8,8.3c2.1,1,4.2,1.2,6.4,1.5
				c11.6,1.5,20.4-4.4,29-10.7c6.7-4.9,12.4-10.8,17.2-17.6c5.1-7.1,9-14.8,11.6-23.2c1.2-4,2-8.1,2.8-12.1c0.1-0.8,0.1-2.4,1.5-1.9
				c1.4,0.5,4.1-0.3,3.7,2.6c-0.4,2.8-1,5.5-1.6,8.3c-0.1,0.8-0.4,1.5-0.6,2.3c-0.6,1.4-0.7,3-1.5,4.3c-3.9,11.5-9.8,21.8-18.2,30.6
				c-2.5,2.7-3.9,5.4-3.8,9.3c0.3,12,0.2,24,0.1,36c-0.1,7.3,5.9,15.8,13.4,17.6c7.4,1.8,14.7,3.9,22,6c0.9,0.2,2,0.4,2,1.7
				c-0.2,0.3-0.3,0.6-0.3,1C195.7,164.1,194.7,164.7,191.9,163.2z"/>
			<path class="st2" d="M127.9,119.7c2-0.9,4.1-1.3,6.4-1.4c5.5-0.2,9.3,5.8,8.3,10.6c-1.4,6.6-2.4,13.2-3.7,19.8
				c-0.5,2.7-2,4.9-4.7,6.1c-0.4,0.5-1.2,0.5-1.7,1c-2.5,0-4.9,0-7.4,0c-0.6-0.3-1.2-0.5-1.7-0.9c-0.2,0-0.3-0.1-0.5-0.1
				c-0.7-0.3-1.4-0.7-2.1,0.1l0,0c-0.4,0.5-1.1,0.5-1.6,0.9c-2.5,0.2-5,0.5-7.4-0.1c-3.5-0.9-5.5-3.7-6.2-7.1
				c-1.4-7-2.6-14.1-3.8-21.1c-0.6-3.9,3.3-8.8,7.3-9c1.8-0.1,3.5,0.1,5.3,0.1c2,1,4.5,1.1,6.4,2.7l0,0c0.8,0.4,1.7,0.1,2.6,0.2
				C125.1,121.2,126.8,121.1,127.9,119.7z"/>
			<path class="st3" d="M135.2,72.1c-2.7,0.2-5.2-0.7-7.6-1.2c-5.2-1.2-10,0-15,0.9c-2.5,0.4-5,0.7-7.3-0.4c-1-0.5-2.8-0.8-2-2.5
				c0.6-1.5,1.7-2.9,3.6-2.5c3.8,0.7,7.6,0.1,11.3-0.7c4.9-1.1,9.5,0.3,14.2,0.9c1.7,0.2,3.3,0.5,5,0c1.1-0.4,2,0,2.9,0.8
				c1.9,1.8,1.8,2.8-0.5,3.9C138.3,71.8,136.8,72.3,135.2,72.1z"/>
			<path class="st4" d="M122.5,73.1c1,0,1.9,0,2.9,0c1.6-0.1,2.8,0.5,2.3,2.2c-0.3,1.4-0.5,3.4-2.9,2.9c-1.6-0.4-3.2-0.3-4.8-0.2
				c-1.8,0.1-3.6-1.2-3.5-3c0.1-1.8,1.6-1.8,3-1.9C120.5,73.1,121.5,73.1,122.5,73.1L122.5,73.1z"/>
			<path class="st5" d="M196.6,42.8"/>
			<path class="st6" d="M51.1,158c0,0.8,0.1,1.6-0.1,2.4c-0.5,2,0.4,2.6,2.2,2.4c-1.2,0.6-2.7,1.5-3.5-0.4
				C49.1,160.8,48.3,158.8,51.1,158z"/>
			<path class="st7" d="M120.9,121.2c-2.2-0.7-4.4-1.4-6.4-2.7c1.8,0,3.5,0.7,5.2,1.2C120.5,120,120.8,120.5,120.9,121.2z"/>
			<path class="st8" d="M127.9,119.7c-0.6,2.6-2.7,1.9-4.4,1.9c-0.1-0.2-0.1-0.4,0.2-0.4C125.1,120.7,126.5,120.2,127.9,119.7z"/>
			<path class="st9" d="M180.7,58.8c0.4-1.5,0-3.2,1.5-4.3C182.5,56.2,181.8,57.6,180.7,58.8z"/>
			<path class="st10" d="M120.9,154.8c-0.3-0.2-0.6-0.4-0.7-0.7c-0.1-0.3,0.3-0.3,0.5-0.3c0.9,0,1.8,0.1,2.3,0.9
				C122.3,154.7,121.6,154.8,120.9,154.8z"/>
			<path class="st11" d="M132.6,155.8c-0.1-1.4,1-0.9,1.7-1C134,155.6,133.4,155.9,132.6,155.8z"/>
			<path class="st10" d="M119.3,155.8c0.3-0.8,0.9-1,1.6-0.9C120.7,155.6,120.1,155.9,119.3,155.8z"/>
			<path class="st7" d="M123.7,121.2c-0.1,0.1-0.1,0.3-0.2,0.4c-0.9,0-1.8,0.1-2.6-0.4C121.8,121.2,122.8,121.2,123.7,121.2z"/>
			<path class="st12" d="M123.6,154.8c0.7,0,1.2,0.4,1.7,0.9C124.4,155.9,123.8,155.7,123.6,154.8z"/>
			<path class="st6" d="M53.7,157.4c-0.8,0.7-1.7,0.5-2.6,0.6C51.9,157.4,52.8,157.5,53.7,157.4z"/>
			<path class="st13" d="M115.2,124.9c0.7,0.2,1.4,0.2,2,0.6c3.3,2,6.6,2.3,9.9,0.2c0.3-0.2,0.8-0.2,1.3-0.3
				c0.5-0.3,1.2-0.5,1.7-0.9c0.5-0.1,1-0.2,1.5-0.4c4.1-1.7,6.1-0.3,5.7,4.1c-0.1,1.5-0.1,3-0.9,4.3c-0.5,2.5-1.3,5-1.7,7.6
				c-0.4,2.3-2.5,2.7-4.5,1.2c-1.2-1-4.1-0.5-4.8,0.8c-0.5,1-0.3,1.8,0.7,2.5c1.2,0.7,2.4,0.6,3.6,0.2c0.3,0,0.6-0.1,0.8-0.2
				c1.5-0.1,2.5,0.5,2.6,1.9c0.1,1.3-0.5,2.7-1.8,3.2c-1.8,0.8-3.9,1-5.5-0.3c-1.4-1.1-2.8-1.4-4.4-1.3c-1.4,0.1-2.5-0.2-2.8-1.8
				c-0.1-1.9,1.4-3.9-0.6-5.6c-1.9-1.5-3.3-1.1-4.5,1.1c-0.7,1.2-0.4,3.3-2.6,3.4l0,0c-0.6-2.1-0.2-4.4-1.1-6.4l0,0
				c-0.7-3.7-0.8-7.5-1.5-11.2c-0.6-3.3,1-4.3,4.2-3.5C113.3,124.3,114.2,124.6,115.2,124.9z"/>
			<path class="st14" d="M130,145.7c-1.4,2.2-3.3,0.6-4.7,0.2c-1.6-0.4-1.2-2.3-1.2-3.7c0-1.8,1.3-2,2.7-2.6c1.8-0.6,2.9-0.8,4.2,1
				c0.8,1.3,3.2,0.1,3.2-1.9c0-2.5,1-4.4,2.2-6.3c0.2,3.2-1,6.1-1.4,9.2c-0.2,1.5-0.5,2.9-0.7,4.5c-0.3,3.9-4.6,6.1-8.1,4.2
				c-0.7-0.4-1.3-0.9-1.9-1.4c-1-0.8-2.1-0.9-3.2,0c-1.1,0.6-2,1.7-3.4,1.9c-4.4,0.8-6.3-0.7-6.8-5.6c0.7-2,1.2-4,3-5.4
				c1.8-1.5,4-1.4,5.5,0.2c-0.7,1.3-3.1,0.7-3.3,2.6c-0.2,2.2,2.3,1.5,3,2.7c0.1,0.1,0.2,0.3,0.3,0.4c0.1,0.3,0.2,0.9,0.3,0.9
				c3.5,0,6.1,2.9,9.6,2.7c1-0.1,1.8-0.5,2.5-1.3c0.5-0.6,0.6-1.2,0.3-1.9C131.5,145.3,130.8,145.4,130,145.7
				c-0.8-0.6-1.1-1.5-1.3-2.5c-0.1-0.6-0.4-1.2-1.2-1.1c-0.4,0-0.6,0.3-0.7,0.7c-0.1,0.7,0.1,1.2,0.8,1.5
				C128.5,144.6,129.4,144.9,130,145.7z"/>
			<path class="st14" d="M115.2,124.9c-1.1,0-2.3,0.1-3.4-0.2c-2.2-0.8-3.8,0.4-2.9,2.7c1.4,3.8,0.7,7.7,0.9,11.5
				c-1.2-3.5-1.9-7.1-2.1-10.8c-0.3-3.9,0.9-4.9,4.8-4.7c0.5,0.5,1.2,0.5,1.7,1C114.4,124.5,114.8,124.7,115.2,124.9z"/>
			<path class="st14" d="M109.7,138.8c1.5,1.9,1,4.2,1.1,6.4C110,143.2,109.5,141,109.7,138.8z"/>
			<path class="st15" d="M120.9,148.9c1.1-1.7,2.1-1.3,3.2,0C123,148.9,122,148.9,120.9,148.9z"/>
			<path class="st16" d="M114,124.3c-0.8,0.1-1.4-0.2-1.7-1C113.2,123.3,113.7,123.6,114,124.3z"/>
			<path class="st17" d="M130,124.4c-0.3,0.8-0.9,1.1-1.7,0.9C128.8,124.9,129.3,124.4,130,124.4z"/>
			<path class="st18" d="M119.3,145.8c-0.8,0-1.6,0-2.4,0c-0.9,0-2.2,0.3-2.3-1.1c-0.2-1.4-0.5-2.8,0.3-4.1c0.2-0.3,0.9-0.5,1.4-0.5
				c1-0.1,1.9,0,2.9,0C120.5,141.9,120.8,143.9,119.3,145.8z"/>
			<path class="st19" d="M117.1,130.2c1.9-0.3,2.8,0.2,2.8,2.3c0,1.9-0.7,2.6-2.7,2.6c-1.8,0-2.7-0.4-2.7-2.5
				C114.5,130.6,115.2,129.8,117.1,130.2z"/>
			<path class="st20" d="M127.4,135c-2.2,0.5-2.3-0.8-2.4-2.4c-0.1-2.4,1.2-2.5,3-2.5c1.8,0,2.2,0.8,2.2,2.4
				C130.2,134.7,129.4,135.5,127.4,135z"/>
			<path class="st21" d="M130,145.7c-0.7,0-1.4-0.1-2.1,0c-2.7,0.3-2.8-1.3-2.8-3.3c0-2.4,1.6-2.1,3.1-2.1c1.4,0,1.9,0.6,1.9,1.9
				C130.1,143.4,130,144.6,130,145.7L130,145.7z"/>
		</g>
	</g>
</g>
</svg>
