<?xml version="1.0" encoding="utf-8"?>
<!-- Generator: Adobe Illustrator 25.2.1, SVG Export Plug-In . SVG Version: 6.00 Build 0)  -->
<svg version="1.1" id="Camada_1" xmlns="http://www.w3.org/2000/svg" xmlns:xlink="http://www.w3.org/1999/xlink" x="0px" y="0px"
	 viewBox="0 0 247.2 202.1" style="enable-background:new 0 0 247.2 202.1;" xml:space="preserve">
<style type="text/css">
	.st0{fill:#0265AA;}
	.st1{fill:#628FBA;}
	.st2{fill:#F1F2F2;}
</style>
<g>
	<path class="st0" d="M28.8,100.9c5.9-2.3,11.4-4.1,17.2-1.3c3.8,1.8,3.6-0.9,3.6-3.3c-0.1-6.6-0.2-13.3-0.3-19.9
		c0-2-0.4-4.2,2.7-4.4c3.6-0.3,3.3,2.2,3.3,4.5c0,12.5,0.1,25-0.1,37.5c-0.1,10-6.7,16.4-16.2,16.4c-9.2,0-16.1-6.7-16.3-16.5
		c-0.2-8.4-0.1-16.8,0-25.2c0.1-5.9-1.9-10.4-8.4-10.3c-6.4,0-8.4,4.5-8.4,10.4c0.1,11.5,0.1,22.9,0,34.4c0,2.1,1.5,5.7-2.9,5.5
		c-4.2-0.2-2.8-3.6-2.8-5.8C0.1,111,0,99,0.2,87c0.2-9.6,5.9-15.7,14.2-15.7c8.7,0,14.4,6.3,14.5,16.1C28.9,91.7,28.8,96,28.8,100.9
		z"/>
	<path class="st1" d="M63,64.4c0,24.3,0,48.5,0,72.8c-0.4,0-0.9,0-1.3,0c0-24.3,0-48.6,0-72.9C62.1,64.3,62.6,64.4,63,64.4z"/>
	<path class="st2" d="M50.2,114.4c-0.1,6.1-5,11.1-11.1,11.1c-5.9,0-11.1-5.2-11.1-11.2c0-5.8,5.4-11.3,11.1-11.3
		C45.1,103.2,50.3,108.5,50.2,114.4z"/>
	<g>
		<path class="st0" d="M70.2,83.2H71c0.3,0,0.4-0.1,0.4-0.4v-11H73l5.8,8.3c0.5,0.7,1.1,1.8,1.1,1.8h0c0,0-0.1-1-0.1-1.8V73
			c0-0.8,0.4-1.2,1.2-1.2h1.8v1.6h-0.8c-0.3,0-0.4,0.1-0.4,0.4v11H80l-5.8-8.3c-0.5-0.7-1.1-1.8-1.1-1.8h0c0,0,0.1,1.1,0.1,1.8v7.1
			c0,0.8-0.4,1.2-1.2,1.2h-1.9V83.2z"/>
		<path class="st0" d="M85.1,77.4c0-0.3-0.1-0.4-0.4-0.4H84v-1.5h1.8c0.8,0,1.2,0.4,1.2,1.1v4.4c0,1.3,0.3,2.3,1.7,2.3
			c1.9,0,3-1.7,3-3.5v-4.4h1.8v7.4c0,0.3,0.1,0.4,0.4,0.4h0.8v1.5h-1.7c-0.8,0-1.2-0.4-1.2-1v-0.4c0-0.3,0-0.5,0-0.5h0
			c-0.4,0.9-1.6,2.1-3.4,2.1c-2.1,0-3.2-1.1-3.2-3.6V77.4z M89.8,71.8h1.8l-1.8,2.3h-1.4L89.8,71.8z"/>
		<path class="st0" d="M100.7,75.3c1.1,0,3.4,0.5,3.4,2v1h-1.6v-0.5c0-0.7-1.1-1-1.7-1c-1.8,0-3.2,1.4-3.2,3.3
			c0,2.1,1.6,3.3,3.3,3.3c1.8,0,2.9-1.3,2.9-1.3l0.8,1.3c0,0-1.3,1.6-3.8,1.6c-2.9,0-5-2.1-5-4.9C95.7,77.4,97.7,75.3,100.7,75.3z"
			/>
		<path class="st0" d="M106.4,73.7c0-0.3-0.1-0.4-0.4-0.4h-0.8v-1.5h1.8c0.8,0,1.2,0.4,1.2,1.2v9.9c0,0.3,0.1,0.4,0.4,0.4h0.8v1.5
			h-1.8c-0.8,0-1.2-0.4-1.2-1.2V73.7z"/>
		<path class="st0" d="M115.1,75.3c2.6,0,4,2,4,4.4c0,0.2-0.1,0.7-0.1,0.7h-6.8c0.1,2,1.6,3.1,3.2,3.1c1.6,0,2.7-1.1,2.7-1.1
			l0.8,1.3c0,0-1.4,1.4-3.6,1.4c-3,0-5-2.1-5-4.9C110.5,77.2,112.5,75.3,115.1,75.3z M117.3,79.1c-0.1-1.6-1-2.4-2.2-2.4
			c-1.4,0-2.5,0.8-2.8,2.4H117.3z"/>
		<path class="st0" d="M125.7,75.3c2.8,0,5,2,5,4.9c0,2.8-2.3,4.9-5,4.9s-5-2.1-5-4.9C120.7,77.3,122.9,75.3,125.7,75.3z
			 M125.7,83.5c1.8,0,3.2-1.4,3.2-3.4c0-1.9-1.4-3.3-3.2-3.3c-1.8,0-3.2,1.4-3.2,3.3C122.5,82.1,123.9,83.5,125.7,83.5z"/>
		<path class="st0" d="M141.3,75.3c2.2,0,2.9,1.4,2.9,1.4h0c0,0,0-0.3,0-0.6v-2.3c0-0.3-0.1-0.4-0.4-0.4H143v-1.5h1.8
			c0.8,0,1.2,0.4,1.2,1.2v9.9c0,0.3,0.1,0.4,0.4,0.4h0.8v1.5h-1.7c-0.8,0-1.1-0.4-1.1-1c0-0.3,0-0.5,0-0.5h0c0,0-0.8,1.7-3.1,1.7
			c-2.5,0-4.1-2-4.1-4.9C137,77.2,138.8,75.3,141.3,75.3z M144.2,80.1c0-1.7-0.9-3.3-2.7-3.3c-1.5,0-2.7,1.2-2.7,3.3
			c0,2,1.1,3.3,2.6,3.3C142.9,83.5,144.2,82.5,144.2,80.1z"/>
		<path class="st0" d="M152.9,75.3c2.6,0,4,2,4,4.4c0,0.2-0.1,0.7-0.1,0.7H150c0.1,2,1.6,3.1,3.2,3.1c1.6,0,2.7-1.1,2.7-1.1l0.8,1.3
			c0,0-1.4,1.4-3.6,1.4c-3,0-5-2.1-5-4.9C148.2,77.2,150.2,75.3,152.9,75.3z M155.1,79.1c-0.1-1.6-1-2.4-2.2-2.4
			c-1.4,0-2.5,0.8-2.8,2.4H155.1z"/>
		<path class="st0" d="M76.8,93.7c3.8,0,6.7,2.9,6.7,6.6c0,3.8-2.9,6.8-6.7,6.8c-3.8,0-6.7-3-6.7-6.8C70.1,96.6,73,93.7,76.8,93.7z
			 M76.8,105.5c2.6,0,4.8-2.2,4.8-5.1c0-2.8-2.1-4.9-4.8-4.9c-2.6,0-4.8,2.1-4.8,4.9C72,103.3,74.1,105.5,76.8,105.5z"/>
		<path class="st0" d="M85.7,99.1h-1.2v-1.4h1.3v-2.6h1.8v2.6h2.2v1.4h-2.2v4.3c0,1.9,1.3,2.1,2,2.1c0.3,0,0.4,0,0.4,0v1.6
			c0,0-0.2,0-0.6,0c-1.2,0-3.6-0.4-3.6-3.5V99.1z"/>
		<path class="st0" d="M96.1,97.4c2.8,0,5,2,5,4.9c0,2.8-2.3,4.9-5,4.9c-2.8,0-5-2.1-5-4.9C91.1,99.5,93.3,97.4,96.1,97.4z
			 M96.1,105.7c1.8,0,3.2-1.4,3.2-3.4c0-1.9-1.4-3.3-3.2-3.3c-1.8,0-3.2,1.4-3.2,3.3C92.9,104.3,94.4,105.7,96.1,105.7z"/>
		<path class="st0" d="M103.4,99.6c0-0.3-0.1-0.4-0.4-0.4h-0.8v-1.5h1.7c0.8,0,1.2,0.3,1.2,1.1v0.6c0,0.4,0,0.6,0,0.6h0
			c0.4-1.4,1.5-2.4,3-2.4c0.2,0,0.5,0,0.5,0v1.8c0,0-0.2-0.1-0.5-0.1c-1.1,0-2.2,0.8-2.6,2.2c-0.2,0.5-0.2,1.1-0.2,1.7v3.8h-1.8
			V99.6z"/>
		<path class="st0" d="M110.7,99.6c0-0.3-0.1-0.4-0.4-0.4h-0.8v-1.5h1.7c0.8,0,1.2,0.3,1.2,1.1v0.6c0,0.4,0,0.6,0,0.6h0
			c0.4-1.4,1.5-2.4,3-2.4c0.2,0,0.5,0,0.5,0v1.8c0,0-0.2-0.1-0.5-0.1c-1.1,0-2.2,0.8-2.6,2.2c-0.2,0.5-0.2,1.1-0.2,1.7v3.8h-1.8
			V99.6z"/>
		<path class="st0" d="M117.9,99.6c0-0.3-0.1-0.4-0.4-0.4h-0.8v-1.5h1.8c0.8,0,1.2,0.4,1.2,1.2v6.2c0,0.3,0.1,0.4,0.4,0.4h0.8v1.5
			h-1.8c-0.8,0-1.2-0.4-1.2-1.2V99.6z M118,94h1.6v1.9H118V94z"/>
		<path class="st0" d="M122.9,99.6c0-0.3-0.1-0.4-0.4-0.4h-0.8v-1.5h1.7c0.8,0,1.2,0.4,1.2,1V99c0,0.3,0,0.5,0,0.5h0
			c0.4-0.8,1.5-2.1,3.5-2.1c2.2,0,3.2,1.2,3.2,3.6v4c0,0.3,0.1,0.4,0.4,0.4h0.8v1.5h-1.8c-0.8,0-1.2-0.4-1.2-1.2v-4.4
			c0-1.3-0.3-2.3-1.8-2.3c-1.4,0-2.6,0.9-3,2.3c-0.1,0.4-0.2,0.8-0.2,1.3v4.4h-1.8V99.6z"/>
		<path class="st0" d="M138.6,97.4c2.8,0,5,2,5,4.9c0,2.8-2.3,4.9-5,4.9s-5-2.1-5-4.9C133.6,99.5,135.8,97.4,138.6,97.4z
			 M138.6,105.7c1.8,0,3.2-1.4,3.2-3.4c0-1.9-1.4-3.3-3.2-3.3c-1.8,0-3.2,1.4-3.2,3.3C135.4,104.3,136.8,105.7,138.6,105.7z"/>
		<path class="st0" d="M145.7,95.9c0-0.3-0.1-0.4-0.4-0.4h-0.8V94h1.8c0.8,0,1.2,0.4,1.2,1.2v9.9c0,0.3,0.1,0.4,0.4,0.4h0.8v1.5
			h-1.8c-0.8,0-1.2-0.4-1.2-1.2V95.9z"/>
		<path class="st0" d="M155.4,101.2h0.4v-0.1c0-1.6-0.6-2.2-2.1-2.2c-0.4,0-1.5,0.1-1.5,0.7v0.5h-1.7v-0.9c0-1.5,2.3-1.8,3.2-1.8
			c3,0,3.8,1.6,3.8,3.7v4c0,0.3,0.1,0.4,0.4,0.4h0.8v1.5h-1.7c-0.8,0-1.2-0.4-1.2-1.1c0-0.3,0-0.6,0-0.6h0c0,0-0.7,1.8-3,1.8
			c-1.6,0-3.2-1-3.2-2.8C149.8,101.4,153.8,101.2,155.4,101.2z M153.3,105.8c1.5,0,2.5-1.6,2.5-3v-0.3h-0.5c-1.3,0-3.8,0.1-3.8,1.8
			C151.6,105,152.1,105.8,153.3,105.8z"/>
		<path class="st0" d="M160.7,99.6c0-0.3-0.1-0.4-0.4-0.4h-0.8v-1.5h1.7c0.8,0,1.2,0.3,1.2,1.1v0.6c0,0.4,0,0.6,0,0.6h0
			c0.4-1.4,1.5-2.4,3-2.4c0.2,0,0.5,0,0.5,0v1.8c0,0-0.2-0.1-0.5-0.1c-1.1,0-2.2,0.8-2.6,2.2c-0.2,0.5-0.2,1.1-0.2,1.7v3.8h-1.8
			V99.6z"/>
		<path class="st0" d="M167.9,99.6c0-0.3-0.1-0.4-0.4-0.4h-0.8v-1.5h1.8c0.8,0,1.2,0.4,1.2,1.2v6.2c0,0.3,0.1,0.4,0.4,0.4h0.8v1.5
			h-1.8c-0.8,0-1.2-0.4-1.2-1.2V99.6z M168,94h1.6v1.9H168V94z"/>
		<path class="st0" d="M172.9,99.6c0-0.3-0.1-0.4-0.4-0.4h-0.8v-1.5h1.7c0.8,0,1.2,0.4,1.2,1V99c0,0.3,0,0.5,0,0.5h0
			c0.4-0.8,1.5-2.1,3.5-2.1c2.2,0,3.2,1.2,3.2,3.6v4c0,0.3,0.1,0.4,0.4,0.4h0.8v1.5h-1.8c-0.8,0-1.2-0.4-1.2-1.2v-4.4
			c0-1.3-0.3-2.3-1.8-2.3c-1.4,0-2.6,0.9-3,2.3c-0.1,0.4-0.2,0.8-0.2,1.3v4.4h-1.8V99.6z"/>
		<path class="st0" d="M187.7,97.4c2.3,0,3,1.5,3,1.5h0c0,0,0-0.1,0-0.3c0-0.6,0.3-0.9,1-0.9h1.7v1.5h-0.7c-0.2,0-0.4,0.1-0.4,0.4
			v7.1c0,3.1-2.3,4.3-4.7,4.3c-1.1,0-2.3-0.3-3.2-0.8l0.6-1.4c0,0,1.1,0.6,2.5,0.6c1.6,0,3-0.7,3-2.6V106c0-0.3,0-0.6,0-0.6h0
			c-0.6,0.9-1.4,1.4-2.8,1.4c-2.6,0-4.2-2.1-4.2-4.8C183.6,99.4,185.1,97.4,187.7,97.4z M190.6,102.1c0-2.4-1.2-3.1-2.6-3.1
			c-1.6,0-2.5,1.2-2.5,3.1c0,1.9,1,3.3,2.7,3.3C189.4,105.3,190.6,104.5,190.6,102.1z"/>
		<path class="st0" d="M199.6,97.4c2.8,0,5,2,5,4.9c0,2.8-2.3,4.9-5,4.9c-2.8,0-5-2.1-5-4.9C194.6,99.5,196.8,97.4,199.6,97.4z
			 M199.6,105.7c1.8,0,3.2-1.4,3.2-3.4c0-1.9-1.4-3.3-3.2-3.3c-1.8,0-3.2,1.4-3.2,3.3C196.4,104.3,197.8,105.7,199.6,105.7z"/>
		<path class="st0" d="M206.7,95.9c0-0.3-0.1-0.4-0.4-0.4h-0.8V94h1.8c0.8,0,1.2,0.4,1.2,1.2v9.9c0,0.3,0.1,0.4,0.4,0.4h0.8v1.5
			h-1.8c-0.8,0-1.2-0.4-1.2-1.2V95.9z"/>
		<path class="st0" d="M215.8,97.4c2.8,0,5,2,5,4.9c0,2.8-2.3,4.9-5,4.9c-2.8,0-5-2.1-5-4.9C210.7,99.5,213,97.4,215.8,97.4z
			 M215.8,105.7c1.8,0,3.2-1.4,3.2-3.4c0-1.9-1.4-3.3-3.2-3.3c-1.8,0-3.2,1.4-3.2,3.3C212.6,104.3,214,105.7,215.8,105.7z"/>
		<path class="st0" d="M226.2,97.4c2.3,0,3,1.5,3,1.5h0c0,0,0-0.1,0-0.3c0-0.6,0.3-0.9,1-0.9h1.7v1.5h-0.7c-0.2,0-0.4,0.1-0.4,0.4
			v7.1c0,3.1-2.3,4.3-4.7,4.3c-1.1,0-2.3-0.3-3.2-0.8l0.6-1.4c0,0,1.1,0.6,2.5,0.6c1.6,0,3-0.7,3-2.6V106c0-0.3,0-0.6,0-0.6h0
			c-0.6,0.9-1.4,1.4-2.8,1.4c-2.6,0-4.2-2.1-4.2-4.8C222.1,99.4,223.6,97.4,226.2,97.4z M229.2,102.1c0-2.4-1.2-3.1-2.6-3.1
			c-1.6,0-2.5,1.2-2.5,3.1c0,1.9,1,3.3,2.7,3.3C228,105.3,229.2,104.5,229.2,102.1z"/>
		<path class="st0" d="M234.1,99.6c0-0.3-0.1-0.4-0.4-0.4h-0.8v-1.5h1.8c0.8,0,1.2,0.4,1.2,1.2v6.2c0,0.3,0.1,0.4,0.4,0.4h0.8v1.5
			h-1.8c-0.8,0-1.2-0.4-1.2-1.2V99.6z M234.1,94h1.6v1.9h-1.6V94z"/>
		<path class="st0" d="M243.8,101.2h0.4v-0.1c0-1.6-0.6-2.2-2.1-2.2c-0.4,0-1.5,0.1-1.5,0.7v0.5H239v-0.9c0-1.5,2.3-1.8,3.2-1.8
			c3,0,3.8,1.6,3.8,3.7v4c0,0.3,0.1,0.4,0.4,0.4h0.8v1.5h-1.7c-0.8,0-1.2-0.4-1.2-1.1c0-0.3,0-0.6,0-0.6h0c0,0-0.7,1.8-3,1.8
			c-1.6,0-3.2-1-3.2-2.8C238.2,101.4,242.3,101.2,243.8,101.2z M241.8,105.8c1.5,0,2.5-1.6,2.5-3v-0.3h-0.5c-1.3,0-3.8,0.1-3.8,1.8
			C240,105,240.6,105.8,241.8,105.8z"/>
		<path class="st0" d="M74.4,119.6c2.2,0,2.9,1.4,2.9,1.4h0c0,0,0-0.3,0-0.6v-2.3c0-0.3-0.1-0.4-0.4-0.4h-0.8v-1.5h1.8
			c0.8,0,1.2,0.4,1.2,1.2v9.9c0,0.3,0.1,0.4,0.4,0.4h0.8v1.5h-1.7c-0.8,0-1.1-0.4-1.1-1c0-0.3,0-0.5,0-0.5h0c0,0-0.8,1.7-3.1,1.7
			c-2.5,0-4.1-2-4.1-4.9C70.1,121.5,71.9,119.6,74.4,119.6z M77.3,124.5c0-1.7-0.9-3.3-2.7-3.3c-1.5,0-2.7,1.2-2.7,3.3
			c0,2,1.1,3.3,2.6,3.3C76,127.8,77.3,126.8,77.3,124.5z"/>
		<path class="st0" d="M86,119.6c2.6,0,4,2,4,4.4c0,0.2-0.1,0.7-0.1,0.7h-6.8c0.1,2,1.6,3.1,3.2,3.1c1.6,0,2.7-1.1,2.7-1.1l0.8,1.3
			c0,0-1.4,1.4-3.6,1.4c-3,0-5-2.1-5-4.9C81.3,121.5,83.3,119.6,86,119.6z M88.2,123.4c-0.1-1.5-1-2.4-2.2-2.4
			c-1.4,0-2.5,0.8-2.8,2.4H88.2z"/>
		<path class="st0" d="M97.5,126.1c0,0,1.3,1.6,3.3,1.6c1.2,0,2.2-0.7,2.2-1.9c0-2.7-6.3-2.3-6.3-6.4c0-2,1.7-3.5,4.2-3.5
			c1.4,0,3.7,0.6,3.7,2.4v1.1h-1.7v-0.6c0-0.7-1-1.2-2-1.2c-1.4,0-2.3,0.8-2.3,1.8c0,2.6,6.3,2,6.3,6.3c0,2-1.6,3.7-4.1,3.7
			c-2.8,0-4.3-1.9-4.3-1.9L97.5,126.1z"/>
		<path class="st0" d="M111.9,123.3h0.4v-0.1c0-1.6-0.6-2.2-2.1-2.2c-0.4,0-1.5,0.1-1.5,0.7v0.5h-1.7v-0.9c0-1.5,2.3-1.8,3.2-1.8
			c3,0,3.8,1.6,3.8,3.7v4c0,0.3,0.1,0.4,0.4,0.4h0.8v1.5h-1.7c-0.8,0-1.2-0.4-1.2-1.1c0-0.3,0-0.6,0-0.6h0c0,0-0.7,1.8-3,1.8
			c-1.6,0-3.2-1-3.2-2.8C106.3,123.5,110.4,123.3,111.9,123.3z M109.3,116.1c1.3,0,1.6,1.3,2.4,1.3c0.6,0,0.7-0.7,0.7-1.2h1.2
			c0,1.5-0.6,2.3-1.9,2.3c-1.3,0-1.6-1.3-2.4-1.3c-0.6,0-0.7,0.6-0.7,1.2h-1.2C107.4,116.9,108.1,116.1,109.3,116.1z M109.9,127.9
			c1.5,0,2.5-1.6,2.5-3v-0.3h-0.5c-1.3,0-3.8,0.1-3.8,1.8C108.1,127.2,108.7,127.9,109.9,127.9z"/>
		<path class="st0" d="M121.4,119.6c2.8,0,5,2,5,4.9c0,2.8-2.3,4.9-5,4.9c-2.8,0-5-2.1-5-4.9C116.3,121.6,118.6,119.6,121.4,119.6z
			 M121.4,127.8c1.8,0,3.2-1.4,3.2-3.4c0-1.9-1.4-3.3-3.2-3.3c-1.8,0-3.2,1.4-3.2,3.3C118.2,126.4,119.6,127.8,121.4,127.8z"/>
		<path class="st0" d="M133.9,118.1c0-0.3-0.1-0.4-0.4-0.4h-0.8v-1.6h1.9c0.8,0,1.2,0.4,1.2,1.2v9.9c0,0.3,0.1,0.4,0.4,0.4h3.6
			c0.3,0,0.4-0.1,0.4-0.4v-0.8h1.7v1.6c0,0.8-0.4,1.2-1.2,1.2h-5.6c-0.8,0-1.2-0.4-1.2-1.2V118.1z"/>
		<path class="st0" d="M143.5,121.7c0-0.3-0.1-0.4-0.4-0.4h-0.8v-1.5h1.8c0.8,0,1.2,0.4,1.2,1.1v4.4c0,1.3,0.3,2.3,1.7,2.3
			c1.9,0,3-1.7,3-3.5v-4.4h1.8v7.4c0,0.3,0.1,0.4,0.4,0.4h0.8v1.5h-1.7c-0.8,0-1.2-0.4-1.2-1v-0.4c0-0.3,0-0.5,0-0.5h0
			c-0.4,0.9-1.6,2.1-3.4,2.1c-2.1,0-3.2-1.1-3.2-3.6V121.7z"/>
		<path class="st0" d="M155.1,121.7c0-0.3-0.1-0.4-0.4-0.4h-0.8v-1.5h1.8c0.8,0,1.2,0.4,1.2,1.2v6.2c0,0.3,0.1,0.4,0.4,0.4h0.8v1.5
			h-1.8c-0.8,0-1.2-0.4-1.2-1.2V121.7z M156.5,116.1h1.8l-1.8,2.3h-1.4L156.5,116.1z"/>
		<path class="st0" d="M160,126.5c0,0,1.1,1.4,2.8,1.4c0.9,0,1.6-0.4,1.6-1.2c0-1.7-5.1-1.5-5.1-4.5c0-1.8,1.6-2.6,3.5-2.6
			c1.1,0,3.1,0.4,3.1,1.8v0.9h-1.6v-0.5c0-0.6-0.8-0.8-1.4-0.8c-1.1,0-1.7,0.4-1.7,1.1c0,1.8,5.1,1.4,5.1,4.5c0,1.7-1.5,2.7-3.4,2.7
			c-2.5,0-3.7-1.6-3.7-1.6L160,126.5z"/>
	</g>
</g>
</svg>
