<?xml version="1.0" encoding="utf-8"?>
<!-- Generator: Adobe Illustrator 25.2.1, SVG Export Plug-In . SVG Version: 6.00 Build 0)  -->
<svg version="1.1" id="Camada_1" xmlns="http://www.w3.org/2000/svg" xmlns:xlink="http://www.w3.org/1999/xlink" x="0px" y="0px"
	 viewBox="0 0 247.2 202.1" style="enable-background:new 0 0 247.2 202.1;" xml:space="preserve">
<style type="text/css">
	.st0{fill:#18635E;}
	.st1{fill:#18625E;}
	.st2{fill:#1A625E;}
	.st3{fill:#19625E;}
	.st4{fill:#19625D;}
	.st5{fill:#1A615E;}
	.st6{fill:#17615D;}
	.st7{fill:#186966;}
	.st8{fill:#1C807C;}
	.st9{fill:#21C9C2;}
	.st10{fill:#22C1BC;}
	.st11{fill:#1C8B87;}
	.st12{fill:#1F9A96;}
	.st13{fill:#18706B;}
	.st14{fill:#21AEA8;}
	.st15{fill:#1EA29D;}
	.st16{fill:#24B6B0;}
	.st17{fill:#37CAC3;}
	.st18{fill:#35CBC5;}
	.st19{fill:#38CAC3;}
	.st20{fill:#39CAC3;}
	.st21{fill:#2CCBC5;}
	.st22{fill:#33CCC5;}
	.st23{fill:#28CAC3;}
	.st24{fill:#38CBC4;}
	.st25{fill:#3CCBC5;}
	.st26{fill:#6D8F8C;}
	.st27{fill:#37CBC5;}
	.st28{fill:#678987;}
	.st29{fill:#658986;}
	.st30{fill:#688A87;}
	.st31{fill:#688987;}
	.st32{fill:#6A8D8A;}
	.st33{fill:#678A88;}
	.st34{fill:#6A8C89;}
	.st35{fill:#2ECCC6;}
	.st36{fill:#688A88;}
	.st37{fill:#28C9C2;}
	.st38{fill:#81D2CC;}
	.st39{fill:#32CAC3;}
	.st40{fill:#32CAC4;}
	.st41{fill:#30CAC4;}
	.st42{fill:#35CAC4;}
	.st43{fill:#2CCBC4;}
	.st44{fill:#30CBC4;}
	.st45{fill:#33CBC4;}
	.st46{fill:#31CBC5;}
	.st47{fill:#2BCBC4;}
</style>
<g>
	<path class="st0" d="M114.1,5.9c-0.2,4.3,1.3,8.1,3.3,11.7c3.2,5.6,8,9.8,12.9,13.9c5.5,4.5,11.1,8.8,16.4,13.6
		c3.5,3.2,6.5,6.9,7.8,11.7c1.2,4.4,0.5,8.7-1.4,12.8c-2.7,6-7.1,10.6-12.2,14.6c-0.8,0.6-1.8,1-2.7,1.5c-0.3,0.1-0.7,0.4-1,0.1
		c-0.3-0.3,0-0.7,0.1-1c0.6-0.9,1.1-1.7,1.7-2.6c3.1-4.4,5.5-9.1,5.7-14.6c0.2-5.1-1.6-9.4-5.3-12.9c-4.2-4-9-7.4-13.7-10.9
		c-2.7-2-5.5-3.9-8-6.2c-8-7.3-10.5-17.5-6.6-27.8c0.5-1.3,1-2.5,1.4-3.8C113,5.9,113.5,5.9,114.1,5.9z"/>
	<path class="st1" d="M130.9,123.2c0,2.9,0.2,5.8,1.1,8.6c2.2,7.2,9.9,9.9,16.3,5.9c0.8-0.5,1.2-1.2,1.2-2.2c-0.1-1.7,0-3.3,0-5
		c0-2.5-0.9-3.7-3.3-4.5c-1-0.3-2-0.5-3-0.7c-0.6-0.1-1-0.2-0.9-0.9c0.1-0.8,0.6-0.7,1.1-0.7c3.7,0.2,7.5,0.5,11.2,0.8
		c1.7,0.1,3.3,0.3,5,0.4c0.4,0,1-0.1,1,0.7c0,0.6-0.2,0.9-0.8,1.1c-2.4,0.7-2.9,1.3-3,3.8c0,1-0.1,2.1,0,3.1c0.2,1.9-0.6,3.1-2,4.3
		c-6,4.9-15.8,5.9-22.6,2.2c-2.4-1.3-4.4-3.2-5.6-5.7c-3.2-6.3-3.6-12.9-1-19.5c3.5-8.8,12.7-12.6,22.7-9.7c5.1,1.5,8,4.9,8.8,10.1
		c0.4,2.6,0.2,2.8-2.4,2.4c-1.3-0.2-2.9-0.2-3.9-0.9c-1.1-0.7-0.6-2.5-0.9-3.7c-0.7-3.1-2.5-5-5.5-5.7c-5.4-1.2-9.9,1.2-11.9,6.4
		C131.1,116.9,131,120.1,130.9,123.2z"/>
	<path class="st1" d="M212.5,178.1c0.1,0.7,0.2,0.9,0.2,1.1c0.2,3.2-0.2,3.6-3.3,3.6c-7.7,0.1-15.3,0.3-23,0.1
		c-0.9,0-2.2,0.5-2.7-0.6c-0.5-1.2-0.4-2.7,0.4-3.9c1.2-1.8,2.4-3.5,3.6-5.3c5.2-7.6,10.4-15.1,15.6-22.7c0.2-0.4,0.8-0.7,0.4-1.2
		c-0.3-0.5-0.9-0.3-1.3-0.3c-4,0-8,0-12,0c-2.9,0-4,1-4.8,3.7c-0.1,0.5-0.2,0.9-0.3,1.4c-0.1,0.4-0.4,0.5-0.8,0.5
		c-0.5,0-0.6-0.3-0.6-0.7c-0.1-2.4,0.4-4.7,0.6-7c0.1-0.9,0.9-0.7,1.5-0.7c4,0,8-0.1,12-0.1c4.4,0,8.9,0.1,13.3,0.2
		c1.1,0,1.5,0.4,1.5,1.4c0,1.3-0.3,2.5-1.1,3.6c-6.2,8.9-12.4,17.9-18.5,26.9c-0.3,0.5-0.9,0.9-0.6,1.5c0.3,0.6,1,0.3,1.6,0.3
		c5,0,9.9,0,14.9,0C210.4,180,211.7,180,212.5,178.1z"/>
	<path class="st2" d="M174.1,141.6c-3.9,0-7.8,0-11.7,0c-0.4,0-1,0.2-1.2-0.5c-0.2-0.6,0.1-1,0.6-1.3c1.4-0.8,1.8-2,1.8-3.5
		c0-8.6,0-17.2,0-25.8c0-1.6-0.1-3.2-2-3.9c-0.5-0.2-0.4-0.7-0.4-1.1c0-0.6,0.5-0.6,0.9-0.6c0.2,0,0.4,0,0.6,0
		c7.6-0.1,15.1-0.2,22.7,0.1c1.4,0,2,0.5,2,1.9c0,1.6,0.3,3.2,0.4,4.8c0,0.6,0.5,1.5-0.6,1.7c-1,0.2-0.9-0.8-1.1-1.4
		c-0.1-0.4-0.2-0.8-0.3-1.2c-0.6-1.8-1.8-2.9-3.8-2.9c-3.3-0.1-6.7,0-10-0.1c-1,0-1.3,0.5-1.3,1.3c0,3.7,0,7.5,0,11.2
		c0,0.9,0.4,1.2,1.2,1.2c2.1,0,4.3,0,6.4-0.1c1.3,0,2.5-0.5,3-1.9c0.2-0.5,0.5-0.7,1.1-0.6c0.6,0.1,0.5,0.6,0.5,1c0,2,0,4.1,0,6.1
		c0,0.4,0.1,1-0.6,1.1c-0.6,0.1-0.8-0.3-1-0.7c-0.5-1.2-1.5-1.7-2.7-1.8c-2.2-0.3-4.5-0.1-6.7-0.2c-0.8,0-1.1,0.4-1.1,1.2
		c0,4,0,8,0,12c0,0.8,0.3,1.2,1.1,1.2c3.6,0,7.3,0,10.9-0.1c1.7,0,2.8-1,3.4-2.6c0.3-0.7,0.4-1.5,0.6-2.3c0.1-0.5,0.4-0.7,0.9-0.6
		c0.4,0.1,0.6,0.3,0.6,0.8c-0.2,2.3-0.3,4.7-0.6,7c-0.1,0.9-1.1,0.7-1.7,0.7c-4,0-7.9,0-11.9,0C174.1,141.7,174.1,141.7,174.1,141.6
		z"/>
	<path class="st3" d="M165.8,182.9c-3.9,0-7.8,0-11.7,0c-0.6,0-1.3,0.3-1.5-0.7c-0.2-0.8,0.4-1.1,1-1.3c0.7-0.3,1-1,1.2-1.7
		c0.2-1.1,0.3-2.2,0.3-3.3c0-7.6,0-15.2,0-22.8c0-1.1,0-2.3-0.4-3.4c-0.2-0.7-0.6-1.3-1.3-1.6c-0.6-0.2-0.9-0.7-0.8-1.3
		c0.2-0.7,0.8-0.6,1.3-0.6c4.5,0,9,0,13.5,0c3.3,0,6.6,0,9.9,0c0.9,0,1.4,0.2,1.5,1.3c0.1,2,0.4,4,0.5,6.1c0,0.4,0.2,1-0.5,1.1
		c-0.7,0.1-0.9-0.3-1.1-0.9c-0.1-0.6-0.2-1.1-0.4-1.7c-0.7-2.1-1.8-3-4-3c-3.2-0.1-6.5,0-9.7-0.1c-1,0-1.4,0.3-1.4,1.3
		c0,3.7,0,7.5,0,11.2c0,0.9,0.4,1.3,1.3,1.3c1.9,0,3.8,0,5.6,0c1.6,0,3-0.4,3.7-2.1c0.2-0.4,0.4-0.6,0.8-0.5
		c0.6,0.1,0.6,0.4,0.7,0.9c0.1,2.1,0.1,4.3,0,6.4c0,0.4-0.1,0.9-0.6,0.9c-0.4,0-0.7-0.2-0.8-0.6c-0.6-1.7-2-2-3.5-2.1
		c-2-0.1-4,0-5.9-0.1c-0.9,0-1.2,0.4-1.2,1.2c0,4,0,7.9,0,11.9c0,0.9,0.4,1.3,1.2,1.3c3.5,0,7.1,0.1,10.6-0.1
		c2.4-0.1,3.4-1.3,4.2-4.2c0.1-0.5-0.1-1.4,0.9-1.3c1.1,0.1,0.8,0.9,0.7,1.5c-0.2,1.8-0.4,3.6-0.5,5.4c-0.1,1.1-0.6,1.5-1.7,1.5
		C173.6,182.8,169.7,182.9,165.8,182.9z"/>
	<path class="st4" d="M63.2,150.4c-1.5,3.9-2.8,7.6-4.2,11.3c-1.8,4.9-3.6,9.9-5.4,14.8c-0.2,0.6-0.4,1.3-0.6,1.9
		c-0.3,1.4,0.2,2.2,1.6,2.5c0.6,0.1,1.6-0.2,1.6,1c-0.1,1.3-1.1,0.8-1.8,0.9c-2.6,0.2-5.1,0-7.7-0.1c-0.5,0-1,0-1-0.7
		c-0.1-0.5,0.1-0.9,0.7-1c2.5-0.6,3.6-2.5,4.4-4.7c1.6-4.2,3.1-8.5,4.7-12.7c1.5-4,2.9-8,4.4-12c0.9-2.5,0.6-3.1-1.9-3.8
		c-0.6-0.2-0.8-0.4-0.8-0.9c0-0.7,0.5-0.7,0.9-0.7c3.5,0,7.1,0,10.6,0c1,0,1.2,0.8,1.5,1.5c2.4,6.5,4.8,13.1,7.2,19.6
		c1.1,2.9,2.1,5.9,3.2,8.8c0.9,2.3,1.9,4.4,4.7,5c0.6,0.1,0.5,0.5,0.6,0.9c0,0.6-0.3,0.8-0.9,0.8c-0.9,0-1.8,0-2.7,0
		c-3.5,0-7,0-10.5,0c-0.6,0-1.3,0.1-1.3-0.9c0-0.9,0.6-0.8,1.1-0.9c2.2-0.5,2.5-1,2-3.1c-0.8-3.3-2.2-6.3-3.3-9.4
		c-2-5.4-4-10.8-6-16.2C64.1,151.7,63.9,151.1,63.2,150.4z"/>
	<path class="st5" d="M100.4,182.9c-3.9,0-7.7,0-11.6,0c-0.6,0-1.3,0.3-1.6-0.6c-0.2-0.8,0.3-1.1,0.9-1.4c0.7-0.3,1.1-0.8,1.2-1.6
		c0.1-0.7,0.3-1.3,0.3-2c0-8.5,0-17.1,0-25.6c0-1.6-0.2-3.2-2-3.9c-0.4-0.2-0.4-0.6-0.4-0.9c0-0.5,0.3-0.6,0.7-0.6
		c3.5-0.2,7-0.2,10.5,0c0.3,0,0.6,0.1,0.7,0.5c0.1,0.4,0.1,0.8-0.3,1c-2,0.7-2,2.5-2,4c-0.1,9,0,18-0.1,27c0,0.9,0.4,1.2,1.2,1.2
		c3.5,0,7,0,10.5,0c2,0,3.3-1.1,3.9-3c0.2-0.5,0.3-1.1,0.5-1.7c0.1-0.4,0.1-0.9,0.7-0.9c0.6,0.1,0.8,0.4,0.8,1
		c0,2.3-0.3,4.5-0.6,6.7c-0.2,1-0.9,0.8-1.6,0.8C108.2,182.9,104.3,182.9,100.4,182.9C100.4,182.9,100.4,182.9,100.4,182.9z"/>
	<path class="st6" d="M94,83.1c5.7,3.8,11.7,6.8,18.4,8.1c7.8,1.5,15.4,0.9,22.9-1.4c0.4-0.1,0.9-0.3,1.3-0.4c0.1,0,0.2,0,0.6,0.1
		c-1.4,0.6-2.5,1.2-3.7,1.6c-1.2,0.5-2.4,1-3.7,1.4c-8.4,2.7-16.9,4-25.7,1.9c-5.6-1.3-10.6-4-15.1-7.5c-0.2-0.2-0.3-0.4-0.5-0.6
		c0-0.9,0.7-1,1.3-1c1.6-0.1,2.9-0.6,3.7-2.1C93.7,83,93.9,83,94,83.1z"/>
	<path class="st7" d="M128.7,55.9c4.9,4.6,7.5,10.2,6.8,17c-0.4,4.1-1.5,8.1-4.8,11.1c0.5-6.7,0.7-13.2-3.4-19
		c0.6-0.6,0.8-1.2,0.7-2c-0.2-1.6,0-3.2-0.2-4.8C127.8,57.3,127.6,56.3,128.7,55.9z"/>
	<path class="st8" d="M128.7,55.9c-1,1.8-0.1,3.7-0.3,5.5c-0.1,0.9,0,1.9,0,2.8c0,0.8-0.4,1-1.1,0.8c-2.4-3.4-5.5-6.1-8.6-8.7
		c-0.3-0.2-0.4-0.5-0.3-0.8c0.4-2.1,0.2-4.2,0.3-6.4c0-0.3-0.2-0.8,0.5-0.7c2.6,1.6,5.1,3.4,7.5,5.4
		C127.4,54.4,128.2,54.9,128.7,55.9z"/>
	<path class="st9" d="M72.2,47.2c0.2-4.6,1.7-8.8,3.7-12.9c2.6-5.3,5.9-10.3,10.2-14.4c0.3-0.1,0.6-0.6,1-0.2
		c0.4,0.4-0.1,0.6-0.3,0.9c-4,5.1-7,10.7-8.6,17c-0.5,2-0.8,4-1.2,6.1c-0.3,0.3-0.1,0.7-0.1,1c0,1.7-0.9,2.6-2.6,2.7
		c-0.5,0-1,0-1.5,0.3C72.3,48,72.3,47.5,72.2,47.2z"/>
	<path class="st10" d="M101.8,42.1c-2.3-2.6-3.6-5.7-4.5-8.9c-1-3.8-1.2-7.7,0.4-11.5c0.4-1,1-1.8,1.9-2.6c0,5.4,0.8,10.6,3.8,15.2
		c-0.3,2.3,0.2,4.5,0.1,6.8C103.4,42.5,103.2,42.6,101.8,42.1z"/>
	<path class="st11" d="M80.8,77.5c-2.8-3.6-4.9-7.6-6.3-12c1.3,0.5,2.6,0.3,3.8-0.3c0.6-0.3,1.2-0.6,1.9-0.4c1.9,4.1,4.2,8,6.9,11.6
		c-0.8,0.2-1.6,0.4-2.4,0.9C83.6,78.1,82.2,77.9,80.8,77.5z"/>
	<path class="st12" d="M119.1,48.3c-0.1,2.6,0.1,5.3-0.4,7.9c-3.1-2.1-6.2-4.2-9.1-6.6c0.4-2.3,0.1-4.6,0-7c0-0.3-0.5-1.1,0.5-0.8
		c2.5,1.8,4.9,3.5,7.4,5.3C118.1,47.5,118.6,47.9,119.1,48.3z"/>
	<path class="st13" d="M80.8,77.5c0.3-0.4,0.6-0.2,0.9-0.2c1.3,0.2,2.7,0.2,3.7-0.9c0.6-0.6,1.2-0.3,1.8,0c2.3,2.2,4.5,4.4,6.8,6.6
		c-0.7,1.8-1.9,2.7-3.9,2.5c-0.6-0.1-1.1,0.2-1.5,0.7C85.6,83.7,82.9,80.9,80.8,77.5z"/>
	<path class="st14" d="M110.2,41.8c-0.3,1.9,0.2,3.9,0.1,5.8c0,0.8-0.2,1.4-0.7,2c-3-2.1-5.7-4.5-7.8-7.5c1,0,1.5-0.2,1.3-1.4
		c-0.2-1.1,0-2.1-0.3-3.3c-0.2-0.8,0.3-2.1,0.4-3.2c0.1,0,0.2,0.1,0.3,0.1C105.4,37,107.8,39.5,110.2,41.8z"/>
	<path class="st15" d="M80.3,64.9c-1.2,0.5-2.4,1-3.6,1.5c-1,0.4-1.5-0.3-2.2-0.8c-1.2-2.9-1.9-5.8-2.2-8.9
		c-0.1-0.4-0.2-0.7,0.1-1.1c1.3,1.2,2.5,0,3.7-0.3c0.5-0.1,0.7-0.8,1.3-0.7c0.6,2.9,1.4,5.8,2.4,8.7C80,63.8,80.2,64.4,80.3,64.9z"
		/>
	<path class="st16" d="M77.5,54.6c-0.8,0.7-1.3,1.9-2.8,1.4c-0.2-0.1-0.6,0.2-0.8,0.4c-0.9,0.7-1.3,0.5-1.4-0.6
		c0,0.3-0.1,0.5-0.1,0.8c-0.7-3.1-0.8-6.3-0.1-9.5c1.2-0.5,2.4,0.1,3.7-0.8c1.3-0.9,0.7-1.9,0.9-2.8c0,0,0-0.1,0.1-0.1
		c0.2-0.1,0.2,0.1,0.2,0.2C77,47.3,77.2,51,77.5,54.6z"/>
	<path class="st17" d="M65.5,191.2c0-0.1,0-0.2,0-0.3c0.1-1-0.5-2.5,0.5-3.1c1.2-0.7,2.7-0.4,4.1-0.2c0.4,0.1,0.7,0.2,0.7,0.7
		c0,0.6-0.4,0.7-0.8,0.7c-0.5,0-0.9,0-1.4,0c-0.6,0-1.3-0.1-1.3,0.7c0,0.8,0.7,0.8,1.2,0.8c0.4,0,0.8,0,1.2,0c0.5,0,0.8,0.1,0.9,0.7
		c0,0.6-0.4,0.8-0.9,0.8c-0.5,0-1,0-1.6,0c-0.4,0-0.9,0.1-0.9,0.7c0,0.6,0.4,0.9,0.9,0.9c0.7,0,1.4,0,2,0c0.4,0,0.7,0.2,0.7,0.7
		c0,0.5-0.3,0.6-0.7,0.6c-1.2,0-2.5,0-3.7,0c-0.7,0-0.8-0.5-0.8-1.1C65.5,193,65.5,192.1,65.5,191.2
		C65.5,191.2,65.5,191.2,65.5,191.2z"/>
	<path class="st18" d="M99.8,194.9c-2.4,0.1-2.4,0.1-2.4-2.3c0-0.9-0.1-1.9-0.1-2.8c0-2.2,0.1-2.3,2.3-2.3c0.8,0,1.6,0.1,2.3,0.1
		c0.4,0,0.7,0.3,0.6,0.7c0,0.5-0.4,0.6-0.8,0.6c-0.6,0-1.3,0-1.9,0.1c-0.5,0-0.8,0.2-0.8,0.8c0,0.5,0.4,0.7,0.8,0.7
		c0.6,0,1.1,0,1.7,0c0.4,0,0.7,0.2,0.7,0.6c0.1,0.5-0.3,0.8-0.7,0.8c-0.6,0.1-1.2,0.1-1.9,0.1c-0.4,0-0.7,0.2-0.7,0.7
		c0,0.5,0.2,0.8,0.7,0.9c0.7,0,1.5,0,2.2,0c0.4,0,0.7,0.1,0.8,0.6c0,0.5-0.3,0.7-0.7,0.7C101.3,195,100.5,194.9,99.8,194.9z"/>
	<path class="st19" d="M144.9,189c-0.5,0.1-1.4-0.3-1.5,0.5c-0.2,0.9,0.7,0.8,1.3,1.1c0,0,0.1,0,0.1,0c1.1,0.4,2.4,0.6,2.5,2.2
		c0.1,0.9-0.3,1.7-1.1,2c-1.4,0.6-2.8,0.7-4.2-0.1c-0.3-0.2-0.4-0.4-0.3-0.8c0.1-0.4,0.4-0.6,0.8-0.5c0.7,0.2,1.3,0.3,2,0.3
		c0.4,0,0.9-0.2,1-0.6c0.2-0.6-0.4-0.7-0.7-0.8c-0.7-0.3-1.5-0.4-2.2-0.9c-0.9-0.6-1.2-1.4-1-2.4c0.2-1,0.9-1.4,1.8-1.5
		c0.8-0.1,1.7-0.2,2.5,0.1c0.4,0.1,1,0.2,0.8,0.9c-0.1,0.5-0.6,0.7-1.1,0.6C145.4,189,145.1,189,144.9,189z"/>
	<path class="st20" d="M41.1,189c-0.5,0.1-1.4-0.4-1.5,0.6c-0.1,0.8,0.8,0.8,1.3,1.1c1.1,0.5,2.4,0.6,2.5,2.2
		c0.1,1.6-0.9,2.5-2.8,2.5c-0.3,0-0.6,0.1-0.8,0c-0.7-0.3-2.1-0.2-2-1.2c0.2-1.2,1.3-0.3,2-0.3c0.4,0,0.7,0,1.1,0
		c0.4,0,0.7-0.2,0.8-0.6c0.1-0.5-0.2-0.6-0.6-0.8c-0.7-0.3-1.4-0.5-2-0.8c-0.9-0.4-1.5-1.2-1.4-2.2c0.1-1.1,0.9-1.6,1.9-1.8
		c0.8-0.2,1.7-0.2,2.5,0.1c0.4,0.1,1,0.2,0.9,0.9c-0.1,0.6-0.6,0.6-1.1,0.6C41.6,189,41.3,189,41.1,189z"/>
	<path class="st21" d="M156.9,191.2c0-0.3,0-0.5,0-0.8c0.1-0.9-0.5-2.2,0.4-2.6c1.3-0.6,2.9-0.4,4.3-0.1c0.3,0.1,0.4,0.3,0.4,0.6
		c0,0.4-0.2,0.6-0.6,0.6c-0.7,0-1.4,0.1-2,0.1c-0.4,0-0.9,0.1-0.9,0.6c0,0.6,0.3,0.8,0.9,0.9c0.4,0,0.8,0,1.2,0
		c0.5,0,1.1-0.1,1.2,0.7c0.1,0.9-0.7,0.7-1.2,0.8c-0.4,0.1-0.8,0-1.2,0c-0.5,0-0.8,0.1-0.8,0.7c0,0.6,0.3,0.9,0.8,0.9
		c0.7,0,1.4,0,2,0c0.4,0,0.7,0.2,0.7,0.7c0,0.5-0.3,0.6-0.7,0.6c-1.2,0-2.5,0-3.7,0c-0.6,0-0.8-0.4-0.8-0.9
		C156.9,193.1,156.9,192.2,156.9,191.2C156.9,191.2,156.9,191.2,156.9,191.2z"/>
	<path class="st22" d="M111,190.7c0,0.6,0,1.1,0,1.7c-0.1,1.8-1.2,2.8-2.9,2.9c-1.6,0.1-3.1-0.8-3.3-2.5c-0.2-1.4-0.1-2.9-0.1-4.4
		c0-0.6,0.3-0.8,0.9-0.8c0.6,0,0.7,0.5,0.7,1c0,1.1,0,2.2,0,3.3c0,1,0.4,1.9,1.6,1.9c1.2,0,1.4-0.9,1.4-1.8c0-1.1,0-2.2,0.1-3.3
		c0-0.5,0.2-0.9,0.8-0.9c0.7,0,0.8,0.4,0.8,0.9C111,189.3,111,190,111,190.7C111,190.7,111,190.7,111,190.7z"/>
	<path class="st23" d="M27,191.2c-0.2-3.6,0.4-4.1,4.1-3.7c0.5,0.1,1,0.1,1,0.8c0,0.7-0.5,0.7-1,0.7c-0.6,0-1.1,0-1.7,0
		c-0.5,0-0.8,0.3-0.8,0.8c0,0.5,0.3,0.8,0.8,0.8c0.6,0,1.1,0,1.7,0c0.5,0,0.8,0.2,0.8,0.7c0,0.5-0.3,0.7-0.8,0.8c-0.3,0-0.6,0-0.9,0
		c-1.1-0.1-1.8,0.2-1.7,1.5c0,0.5,0.2,1.3-0.7,1.3c-1,0-0.7-0.8-0.8-1.4C26.9,192.8,27,192,27,191.2z"/>
	<path class="st24" d="M60.7,187.6c0.7,0,1.5,0,2.2,0c0.4,0,0.8,0.2,0.8,0.7c0,0.5-0.3,0.8-0.8,0.8c-1.5-0.1-1.6,0.8-1.5,1.9
		c0,0.9,0,1.9,0,2.8c0,0.6,0,1.3-0.9,1.3c-0.9,0-0.9-0.7-0.9-1.4c0-1.1,0-2.2,0-3.3c0-0.9-0.2-1.4-1.2-1.3c-0.5,0-1,0-1-0.7
		c0-0.7,0.5-0.8,1.1-0.8C59.2,187.5,60,187.5,60.7,187.6C60.7,187.5,60.7,187.6,60.7,187.6z"/>
	<path class="st18" d="M116,187.5c0.7,0,1.5,0,2.2,0c0.5,0,0.9,0.1,0.9,0.8c0,0.6-0.3,0.7-0.8,0.7c-1.4-0.1-1.5,0.8-1.4,1.8
		c0,1,0,2.1,0,3.1c0,0.6-0.1,1-0.8,1c-0.7,0-0.7-0.5-0.8-1c0-1.2-0.1-2.4-0.1-3.6c0-1-0.2-1.5-1.3-1.4c-0.5,0-1,0-1-0.7
		c0-0.7,0.5-0.7,1-0.8C114.5,187.5,115.3,187.5,116,187.5z"/>
	<path class="st25" d="M152,187.5c0.7,0,1.5,0,2.2,0c0.5,0,0.8,0.2,0.8,0.7c0,0.5-0.2,0.8-0.7,0.8c-1.6-0.1-1.6,0.8-1.6,2
		c0,1,0,2,0,3c0,0.5,0,1-0.7,1c-0.7,0-0.9-0.4-0.9-1c0-1.2,0-2.4,0-3.6c0-0.9-0.3-1.4-1.2-1.4c-0.6,0-1.1-0.1-1-0.8
		c0.1-0.7,0.7-0.7,1.2-0.7C150.6,187.5,151.3,187.5,152,187.5C152,187.5,152,187.5,152,187.5z"/>
	<path class="st26" d="M120.9,42.3c0,1.4-1.2,2.4-2.6,2.4c-1.3-0.1-2.4-1.1-2.4-2.4c0-1.3,1.1-2.4,2.5-2.4
		C119.9,39.9,120.9,40.9,120.9,42.3z"/>
	<path class="st27" d="M191,187.6c0.7,0,1.5,0,2.2,0c0.5,0,1,0.1,0.9,0.8c0,0.5-0.4,0.7-0.9,0.7c-1.4-0.1-1.5,0.7-1.5,1.7
		c0,1.1,0,2.2,0,3.3c0,0.6-0.2,1-0.9,1c-0.7,0-0.7-0.5-0.7-1c0-1.1,0-2.3,0-3.4c0-1-0.1-1.7-1.3-1.6c-0.5,0-0.9-0.1-0.9-0.7
		c0-0.7,0.4-0.8,0.9-0.8C189.5,187.5,190.2,187.5,191,187.6C191,187.5,191,187.6,191,187.6z"/>
	<path class="st28" d="M124.2,49.2c-1.3,0-2.4-1-2.4-2.3c0-1.4,1-2.6,2.4-2.6c1.3,0,2.4,1,2.5,2.3C126.7,48.1,125.6,49.2,124.2,49.2
		z"/>
	<path class="st29" d="M129.7,53.4c-1.4,0-2.5-1.2-2.4-2.5c0.1-1.4,1.2-2.3,2.6-2.3c1.3,0.1,2.3,1.1,2.3,2.4
		C132.2,52.4,131.1,53.4,129.7,53.4z"/>
	<path class="st30" d="M140.1,59.2c0,1.2-0.9,2.1-2,2c-1.2,0-2.1-0.9-2.1-2c0-1.2,0.9-2.1,2.2-2.1C139.3,57.1,140.1,58,140.1,59.2z"
		/>
	<path class="st28" d="M109.5,32.1c1.2,0,2.1,1,2,2.1c0,1.2-1,2-2.2,2c-1.2-0.1-1.9-0.8-1.9-2C107.4,32.9,108.3,32.1,109.5,32.1z"/>
	<path class="st30" d="M136.2,55c0,1.1-0.9,2.1-2,2.1c-1.2,0.1-2.1-0.9-2.1-2.1c0-1.2,0.8-2,2.1-2C135.3,53,136.2,53.8,136.2,55z"/>
	<path class="st31" d="M105,29.6c0-1.1,1-2.2,2.1-2c1.2,0.1,1.9,0.8,2,2c0.1,1.1-0.9,2.1-2,2.2C106,31.7,105,30.7,105,29.6z"/>
	<path class="st28" d="M106,17.8c-1.4,0-1.7-1-1.8-2c-0.1-1.1,1-2.1,2.2-2c1.2,0.1,1.9,0.9,2,2.1C108.4,17,107.4,17.8,106,17.8z"/>
	<path class="st32" d="M107.7,24.9c0,1.1-1,2-2.2,1.9c-1.2-0.1-1.9-0.8-1.9-2c0-1.2,0.9-2.1,2-2.1C106.8,22.9,107.8,23.9,107.7,24.9
		z"/>
	<path class="st33" d="M115.7,38.3c0,1.2-0.9,2-2.1,2c-1.2,0-2.1-1-2-2.1c0.1-1.2,0.9-1.9,2-1.9C114.8,36.2,115.7,37.2,115.7,38.3z"
		/>
	<path class="st34" d="M103.2,20.5c0-1.3,1-2.2,2.1-2.2c1.2,0.1,1.9,0.8,2,2c0.1,1.2-1.1,2.3-2.2,2.1
		C103.9,22.3,103.3,21.5,103.2,20.5z"/>
	<path class="st35" d="M46.8,191.4c0,0.9,0,1.8,0,2.6c0,0.4,0,0.9-0.6,0.9c-0.5,0-1-0.1-1-0.7c0-2,0-3.9,0-5.9
		c0-0.5,0.4-0.7,0.8-0.7c0.5,0,0.7,0.4,0.7,0.8C46.8,189.4,46.8,190.4,46.8,191.4C46.8,191.4,46.8,191.4,46.8,191.4z"/>
	<path class="st36" d="M142.5,69.5c-0.2,1.1-0.8,1.8-2,1.7c-1.1-0.1-1.8-0.7-1.7-1.8c0-1.1,0.7-1.9,1.9-1.8
		C141.9,67.6,142.5,68.3,142.5,69.5z"/>
	<path class="st31" d="M140.2,66.2c-1.2-0.2-1.9-0.8-1.8-2c0.1-1.1,0.8-1.7,1.8-1.7c1.2,0,1.9,0.8,1.9,1.9
		C142.1,65.5,141.3,66.1,140.2,66.2z"/>
	<path class="st37" d="M34.2,191.3c0-0.9,0-1.8,0-2.6c0-0.4,0-0.9,0.6-0.9c0.5,0,0.8,0.2,0.9,0.7c0.2,2,0.2,3.9,0,5.9
		c0,0.5-0.4,0.7-0.9,0.7c-0.5,0-0.6-0.4-0.6-0.7C34.2,193.2,34.2,192.2,34.2,191.3C34.2,191.3,34.2,191.3,34.2,191.3z"/>
	<path class="st30" d="M139.6,72.7c1.1,0.1,1.8,0.7,1.7,1.9c0,1.2-0.8,1.8-1.9,1.8c-1-0.1-1.7-0.8-1.7-1.9
		C137.7,73.4,138.3,72.7,139.6,72.7z"/>
	<path class="st38" d="M86.9,20.6c0.4-0.9,0-0.9-0.7-0.7c1-1.4,2.4-2.2,3.9-3C89.1,18.3,88.2,19.6,86.9,20.6z"/>
	<path class="st3" d="M52.4,105.7c-0.1-0.6-0.5-0.6-0.9-0.7c-3.4-0.2-6.9-0.2-10.3,0.1c-0.3,0-0.7,0-0.7,0.4c0,0.4-0.2,0.8,0.2,1
		c2.6,1.1,2.2,3.5,2.2,5.5c0.1,5.1,0,10.2,0,15.3c0,0,0,0,0,0c0,5,0,10,0,15c0,1.6-0.1,3.2-0.4,4.8c-0.1,0.6-0.3,1-1,0.6
		c-2.1-1.3-4.4-1.5-6.8-1.5c-5.7-0.1-11.5-0.1-17.2-0.1c-0.3,0-0.6,0-0.9,0c-0.4,0-0.7,0.2-0.7,0.6c0,0.4-0.1,0.8,0.3,1
		c2.3,0.9,2.1,2.9,2.1,4.7c0,8,0,15.9,0,23.9c0,0.9-0.1,1.8-0.2,2.6c-0.1,0.8-0.5,1.5-1.3,1.8c-0.7,0.3-1.1,0.7-0.9,1.4
		c0.2,0.8,0.9,0.6,1.4,0.6c5.8,0,11.7,0,17.5,0c2.1,0,4.2-0.4,6.1-1c2-0.7,3.6-2,4.4-4c1.4-3.6,1.3-7.2-0.5-10.7
		c-0.7-1.5-2.1-2.4-3.5-3.3c-0.4-0.3-1.2-0.6-0.3-1.2c3.3-2.1,4.1-5.3,3.7-9c-0.1-0.8,0.2-1.2,0.8-1.6c2-1.3,3.2-3.2,3.8-5.5
		c0.5-1.8,0.5-3.7,0.6-5.6c0-9.3,0-18.5,0-27.8c0-1.1,0.1-2.3,0.2-3.4c0.1-1.3,0.4-2.4,1.8-2.9C52.4,106.5,52.4,106.1,52.4,105.7z
		 M25.4,150.4c0-1,0.3-1.5,1.4-1.5c2.5,0.1,5-0.2,7.5,0.4c1.6,0.4,2.7,1.4,3.1,3c0.6,1.9,0.6,3.9,0,5.9c-0.6,2.1-2,3.2-4.4,3.4
		c-1.1,0.1-2.2,0-3.3,0c-4.3,0.2-4.4,0.2-4.4-4.1C25.3,155.1,25.4,152.8,25.4,150.4z M38.7,175.7c-0.7,2.3-2.4,3.6-4.7,4
		c-2.5,0.4-5.1,0.2-7.6,0.2c-0.9,0-1-0.7-1-1.3c0-2.1,0-4.3,0-6.4c0,0,0,0,0,0c0-2.1,0-4.2,0-6.2c0-1,0.2-1.4,1.3-1.4
		c2,0.1,4,0,5.9,0c3.6,0.1,5.7,1.9,6.4,5.4C39.3,172.1,39.2,173.9,38.7,175.7z"/>
	<path class="st3" d="M124.4,139.9c-1.9-0.3-3-1.5-3.8-3.2c-1-2.1-1.5-4.3-2.1-6.5c-0.8-2.8-2.1-5.3-4.4-7.2
		c-0.9-0.7-0.9-1.1,0.2-1.6c4-1.8,5.5-4.6,5.1-9c-0.4-3.8-2.6-6.1-6.8-7c-1.1-0.2-2.2-0.3-3.3-0.4c-2.5-0.1-5,0-7.5,0c0,0,0,0,0-0.1
		c-2.9,0-5.8,0-8.8,0c-0.5,0-1.1-0.1-1.2,0.7c-0.1,0.6,0.1,1,0.7,1.2c0.6,0.2,0.9,0.6,1.2,1.2c0.6,1.2,0.6,2.5,0.6,3.8
		c0,7.3,0,14.6,0,21.9c0,1.2-0.1,2.4-0.2,3.6c-0.1,1.1-0.4,2.2-1.6,2.6c-0.6,0.2-0.6,0.6-0.6,1.1c0,0.7,0.6,0.7,1,0.7
		c3.3,0,6.7,0,10,0c0.4,0,0.9-0.1,0.9-0.6c0-0.4,0.1-0.9-0.5-1.2c-1.4-0.5-1.8-1.7-1.8-3c-0.1-4.4-0.1-8.7-0.1-13.1
		c0-0.9,0.4-1.2,1.4-1.3c4.5-0.1,6.4,1.3,7.5,5.6c0.6,2.5,1,5.1,1.9,7.6c1,2.7,2.9,4.5,5.7,5.3c2.1,0.5,4.2,0.7,6.4,0.6
		c0.5,0,1.1,0.1,1.1-0.7C125.3,140.3,125,140,124.4,139.9z M107.1,119.6c-1.5,0.1-3,0-4.5,0c-1,0-1.3-0.4-1.3-1.3c0-1.6,0-3.1,0-4.7
		c0,0,0,0,0,0c0-1.5,0-3,0-4.5c0-0.9,0.3-1.3,1.2-1.3c1.6,0,3.1,0,4.7,0.1c3.4,0.2,5.2,2.4,5.1,6
		C112.2,117.5,110.5,119.4,107.1,119.6z"/>
	<path class="st0" d="M150.3,162.5c-0.7-10.6-6.7-16.4-17.3-16.4c-4.3,0-8.5,0-12.8,0c-0.6,0-1.3,0-1.9,0c-0.4,0-0.8,0.1-0.8,0.6
		c-0.1,0.4-0.1,0.9,0.4,1.1c1.8,0.7,1.9,2.3,1.9,3.8c0,8.7,0,17.4,0,26.1c0,1.4-0.4,2.7-1.8,3.4c-0.6,0.3-0.6,0.8-0.5,1.3
		c0.1,0.7,0.7,0.5,1.1,0.5c2.7,0,5.4,0,8.1,0c0,0,0,0,0-0.1c2.6,0,5.2,0.1,7.8,0c5.3-0.3,9.9-2.1,12.9-6.8
		C150,171.9,150.5,167.3,150.3,162.5z M142.1,172.9c-1.4,4.5-4.1,6.7-8.9,7c-1.3,0.1-2.6,0.1-3.9,0.1c-2.4,0-2.4-0.1-2.5-2.4
		c0-4.4,0-8.7,0-13.1c0,0,0.1,0,0.1,0c0-4.6,0-9.3,0-13.9c0-1.3,0.4-1.8,1.7-1.7c1.5,0.1,2.9,0,4.4,0.1c4.8,0.3,7.8,2.6,9.1,7.2
		C143.7,161.7,143.8,167.4,142.1,172.9z"/>
	<path class="st0" d="M74.3,104.5c-6.4-0.8-12.1,0.9-16,6.4c-4.3,6.1-4.7,12.8-2.6,19.7c3.6,11.9,19.2,15.8,28.2,7.3
		c4.2-4,5.5-9.1,5.5-13.1C89.5,112.6,84,105.6,74.3,104.5z M82.1,131.5c-1.2,5.9-5.9,8.9-11.7,7.6c-3-0.7-4.9-2.8-6.2-5.5
		c-1.7-3.4-2.6-8.2-2.6-13.3c-0.1-2.7,0.3-5.6,1.7-8.4c2.7-5.2,10.3-6.4,14.4-2.2c1.3,1.3,2.3,2.8,2.9,4.6
		C82.5,119.9,83.3,125.6,82.1,131.5z"/>
	<path class="st39" d="M52.5,187.4c-2.4,0-3.9,1.5-3.9,3.9c0,2.3,1.6,3.9,3.9,3.9c2.3,0,3.9-1.6,3.9-4
		C56.4,188.8,55,187.4,52.5,187.4z M52.5,193.7c-1.3,0-2.2-1-2.2-2.5c0-1.4,0.8-2.3,2.1-2.3c1.5,0,2.2,0.7,2.2,2.3
		C54.7,192.8,53.9,193.7,52.5,193.7z"/>
	<path class="st40" d="M167.8,187.4c-2.4,0-3.8,1.4-3.9,3.8c-0.1,2.4,1.5,4.1,3.9,4.1c2.4,0,3.9-1.5,3.9-4
		C171.7,188.9,170.2,187.4,167.8,187.4z M167.9,193.7c-1.4,0-2.2-0.8-2.2-2.4c0-1.6,0.8-2.5,2.2-2.5c1.3,0,2.2,1,2.2,2.5
		C170,192.7,169.2,193.7,167.9,193.7z"/>
	<path class="st41" d="M135.8,187.4c-2.4,0-3.9,1.5-3.9,3.9c0,2.3,1.7,3.9,4,3.9c2.3,0,3.9-1.6,3.8-4
		C139.7,188.8,138.3,187.4,135.8,187.4z M135.8,193.7c-1.3,0-2.2-1-2.2-2.5c0-1.4,0.9-2.3,2.4-2.3c1.3,0,2.2,1,2.1,2.3
		C138,192.8,137.2,193.7,135.8,193.7z"/>
	<path class="st42" d="M78,191.9c1.6-2.5,0.8-4-2.2-4.3c-0.4,0-0.7-0.1-1.1-0.1c-1.7-0.3-2.1,0.4-2,2c0.1,1.3,0,2.6,0,3.9
		c0,0.6-0.3,1.5,0.8,1.5c1,0,0.9-0.8,1-1.4c0-0.4-0.1-0.9,0.5-1c0.5-0.1,0.8,0.3,1,0.6c0.3,0.4,0.5,0.9,0.8,1.3
		c0.3,0.5,0.9,0.6,1.4,0.4c0.7-0.3,0-0.8-0.1-1.1C78.1,193.2,77.5,192.7,78,191.9z M75.4,191.2c-0.8,0.1-0.9-0.4-0.9-1.2
		c0-0.9,0.4-1.1,1.2-1c0.7,0,1.4,0.1,1.4,1.1C77.1,191,76.3,191.2,75.4,191.2z"/>
	<path class="st43" d="M201.3,194.3c-0.7-2.1-1.4-4.3-2.5-6.3c-0.4-0.7-1.6-0.5-2,0.4c-0.8,1.8-1.4,3.7-2.1,5.5
		c-0.1,0.3-0.5,0.8,0.1,1.1c0.4,0.2,0.8,0,1.1-0.3c1.6-1.4,2.6-1.4,4,0.2c0.3,0.3,0.5,0.5,0.9,0.3
		C201,194.9,201.4,194.9,201.3,194.3z M198,192.1c-0.4,0-0.7-0.1-0.7-0.6c0-0.5,0.1-1.1,0.6-1.1c0.6-0.1,0.4,0.7,0.7,0.9
		C198.6,191.9,198.5,192.1,198,192.1z"/>
	<path class="st40" d="M94.4,188.1c-1.4-0.8-3.1-0.9-4.5-0.3c-1,0.4-0.4,1.8-0.5,2.7c0,0.3,0,0.5,0,0.8c0,0,0,0,0,0
		c0,1,0.1,2,0.1,2.9c0,0.4,0.2,0.7,0.7,0.7c0.3,0,0.8,0,0.8-0.4c0-2,1.4-1.7,2.7-1.9c0.9-0.2,1.7-0.6,1.8-1.7
		C95.5,189.9,95.5,188.7,94.4,188.1z M92.2,191.3c-0.7,0.1-1.3-0.1-1.3-1c0-1,0.4-1.3,1.3-1.3c0.8,0.1,1.5,0.2,1.5,1.2
		C93.8,191.3,93,191.3,92.2,191.3z"/>
	<path class="st44" d="M178.6,188.2c-1.4-0.9-3.2-0.9-4.7-0.4c-1,0.3-0.3,1.8-0.5,2.7c0,0.3,0,0.5,0,0.8c0,0,0,0,0,0c0,1,0,2,0,3
		c0,0.4,0.2,0.7,0.6,0.7c0.4,0,0.9,0.1,0.9-0.4c-0.2-2.1,1.4-1.7,2.6-1.9c1.2-0.2,1.8-1,2-2.1C179.8,189.6,179.4,188.7,178.6,188.2z
		 M176.2,191.3c-0.8,0.1-1.1-0.2-1.1-1.1c0-0.9,0.5-1.2,1.3-1.1c0.8,0,1.5,0.3,1.5,1.2C177.9,191.3,177.1,191.3,176.2,191.3z"/>
	<path class="st45" d="M126.5,194.2c-0.8-1.9-1.6-4-2.5-6c-0.4-0.9-1.7-0.7-2.1,0.3c-0.8,1.8-1.5,3.6-2.2,5.5c-0.1,0.3-0.4,0.7,0,1
		c0.4,0.3,0.9,0.2,1.3-0.2c1.9-1.5,2.3-1.5,4,0c0.4,0.3,0.8,0.3,1.2,0.2C126.5,194.9,126.6,194.6,126.5,194.2z M123.5,192
		c-0.2,0.3-0.8,0.3-1,0.1c-0.5-0.7,0.1-1.2,0.2-2.3C123.3,190.7,124,191.2,123.5,192z"/>
	<path class="st46" d="M187.3,193.9c-0.7-1.6-1.4-3.4-2.2-5.3c-0.2-0.6-0.6-0.9-1.3-0.9c-0.7,0-1,0.5-1.2,1c-0.7,1.7-1.4,3.3-2,5
		c-0.2,0.4-0.5,0.9,0.2,1.2c0.4,0.2,0.9,0.1,1.3-0.4c1.3-1.4,2.5-1.4,3.8,0c0.3,0.4,0.7,0.4,1.1,0.4
		C187.3,194.9,187.3,194.5,187.3,193.9z M183.9,192.2c-0.4,0-0.7-0.2-0.7-0.7c0.1-0.4,0.1-1,0.6-1.1c0.7-0.1,0.6,0.6,0.7,1
		C184.7,192,184.4,192.2,183.9,192.2z"/>
	<path class="st47" d="M87.4,194.1c-0.6-1.8-1.4-3.8-2.3-5.7c-0.2-0.5-0.5-0.9-1.2-0.8c-0.7,0-0.9,0.5-1.1,1
		c-0.7,1.8-1.4,3.5-2.1,5.3c-0.1,0.3-0.5,0.8,0.1,1.1c0.4,0.2,0.9,0.2,1.3-0.3c1.5-1.5,2.4-1.5,3.9,0c0.3,0.3,0.7,0.4,1.1,0.3
		C87.5,194.8,87.5,194.6,87.4,194.1z M84.2,192.2c-0.5,0-0.9-0.1-0.9-0.8c0.1-0.5,0.1-1.1,0.7-1c0.6,0,0.6,0.7,0.8,1.1
		C84.9,192,84.6,192.2,84.2,192.2z"/>
</g>
</svg>
