<?xml version="1.0" encoding="utf-8"?>
<!-- Generator: Adobe Illustrator 25.2.1, SVG Export Plug-In . SVG Version: 6.00 Build 0)  -->
<svg version="1.1" id="Camada_1" xmlns="http://www.w3.org/2000/svg" xmlns:xlink="http://www.w3.org/1999/xlink" x="0px" y="0px"
	 viewBox="0 0 247.2 202.1" style="enable-background:new 0 0 247.2 202.1;" xml:space="preserve">
<style type="text/css">
	.st0{fill:#517C83;}
	.st1{fill:#FFFFFF;}
	.st2{fill:#8FD6F5;}
</style>
<g>
	<g>
		<path class="st0" d="M41.1,30c2.3,3.2,6.7,5.4,8.9,9.9c0.8,1.6-0.3,3.4-2.1,3.5c-4.5,0.2-8.7,0.4-13.1,0.6
			c-1.3,0.1-2.3,1.1-2.3,2.4v24.8c0,1.1,0.7,2.1,1.8,2.3c4.7,1.2,9.9-0.8,14.8,1.4c1.5,0.7,1.9,2.6,0.8,3.8c-1.6,1.8-3,3.4-4.5,5.1
			c-1.5,1.6-3,3.1-4.5,4.7c-0.9,1-0.9,2.5,0,3.4c6.2,6.1,12.1,12,18.1,17.8c0.9,0.9,2.2,0.9,3.2,0.2c3.9-2.9,6.5-7.1,10.5-9.4
			c1-0.6,2.4-0.4,3.1,0.5c2,2.5,1,5.3,1.2,7.8c0.2,2.2,0.1,4.4,0.1,7c0,1.3,1,2.4,2.3,2.5c3.4,0.2,6.5,0.4,9.8,0.6
			c0.7,0,1.4,0.4,1.8,1c4.1,5.5,6,11.8,6.6,18.5c1.1,11.4,1.3,22.8,2.9,34.1c0.9,6.4,3.8,12.5,5.9,18.6c0.5,1.3,1.4,2.6,2.2,3.8
			c3.3,4.7,7.6,7.7,13.7,6.5c5.1-1,8.5-6.2,9-12.8c0.5-8,0.3-16.1,1.6-24c1.1-6.9,3.6-13.6,5.7-20.2c1.2-3.8,4-6.4,8.2-7.6
			c0.2-0.1,0.5-0.1,0.8-0.1c5.3,0.2,7.4,4.4,9.2,8.6c5.1,11.8,7.3,24.1,6.8,37c-0.1,3.4-0.2,6.9,0.6,10.1c2.3,9.7,13.3,13,19.9,5.6
			c4.1-4.6,7.4-10.5,9-16.4c2.3-8.4,3.4-17.2,3.6-25.9c0.3-15.1,2.6-29.4,11.1-42.4c7-10.7,7.8-23,6.4-35.2
			c-1.5-12.6-9.5-20.5-21.2-24.8c-11-4.1-22.3-3.7-33.7-2.1c-1.2,0.2-2.4,0.4-3.8,0.6c-1.3,0.2-2.5-0.6-2.8-1.9
			c-0.3-1.4-0.5-2.6-0.8-3.9c-0.2-0.9-0.9-1.6-1.7-1.9c-4.6-1.3-9.9,0.8-14.9-1.4c-1.5-0.7-1.9-2.7-0.8-3.9c2.9-3.1,5.8-6.3,9-9.7
			c0.9-1,0.9-2.5-0.1-3.4c-5.8-5.7-11.6-11.5-17.5-17.4c-0.9-0.9-2.4-0.9-3.4-0.1c-3.3,3.1-6.4,5.9-9.8,8.9c-1.1,1-2.8,0.8-3.6-0.4
			c-3.2-4.6-0.3-10.3-1.9-15.1C107,0.7,106,0,104.9,0H79.6c-1.3,0-2.4,1.1-2.4,2.4v12.6c0,1.5-1.4,2.7-2.9,2.4
			c-5.8-1.2-7.9-6.9-12.2-9.3c-1-0.5-2.2-0.4-2.9,0.4c-5.8,5.9-11.7,12-17.8,18.2C40.5,27.7,40.4,29,41.1,30z M165.3,64.4
			c-1.5-1.4-0.7-3.9,1.3-4.2c11-1.5,20.9,0.1,30.1,6.3c4.9,3.3,7.3,8.4,7.7,14.3c0.8,11.2-1,21.8-7.3,31.4
			c-5.2,7.9-8.1,16.7-9.2,25.9c-0.7,6-0.9,12.1-1.1,18.2c-0.2,8.6-1,17-4,25.1c-1.3,3.3-2.4,6.8-5.3,9.2c-1.1,1-2.9,0.7-3.7-0.6
			c-1.4-2.4-0.7-5.2-0.6-7.7c0.5-15.3-1.8-30-8.9-43.8c-2.3-4.5-5.3-8.2-10.2-10.1c-8.8-3.6-19.1,0.6-23.9,10.4
			c-2.8,5.6-5.1,11.8-6,17.9c-1.3,8.6-1.1,17.4-1.7,26.1c-0.1,1.9-0.4,3.9-0.8,5.9c-0.3,1.9-2.5,2.7-4,1.5c-3.1-2.6-4-6.1-5.3-9.3
			c-4.2-10.9-4-22.5-4.3-33.9c-0.4-13-3.5-25-10.4-36c-5.1-8.2-6.8-16.9-7-26.4c-0.3-14.7,9.5-21.3,19-23.4
			c12.7-2.8,25.1-1.9,36.8,4.1c4.4,2.2,8.7,4.7,13.2,6.7c4.4,2,5.9,1.5,8-3.2c0.4-1,0.2-2.1-0.6-2.8C166.6,65.6,166,65,165.3,64.4z
			 M122.5,41.7c1,2.7-2.8,4.5-4.4,2.1c0,0,0,0,0-0.1c-7.9-11.9-19.6-16.4-34.1-12.7C70.7,34.3,62.8,45.4,62.7,59
			c-0.1,10.6,4.6,18.6,13.2,24.7c0.3,0.2,0.6,0.4,0.9,0.6c2.5,1.5,0.7,5.4-2.1,4.4l-2-0.7c-0.8-0.3-1.8-0.1-2.5,0.5
			c-2.6,2.4-5.1,4.6-7,6.3c-0.8,0.8-2.1,0.8-3,0.2c-1.5-1.1-2.9-2-4.2-2.9c-1.2-0.9-1.4-2.6-0.4-3.7c2.4-2.5,4.6-5,6.9-7.4
			c0.7-0.7,0.8-1.7,0.5-2.6c-1.9-4.4-3.6-8.5-5.3-12.6c-0.4-0.9-1.2-1.4-2.1-1.5c-3.5-0.2-6.9-0.4-10.7-0.6
			c-1.4-0.1-2.4-1.2-2.3-2.6c0.1-1.7,0.2-3.3,0.3-4.9c0.1-1.2,1.1-2.2,2.3-2.3c3.9-0.2,7.4-0.4,10.7-0.5c1,0,1.8-0.7,2.1-1.5
			c1.8-4.5,3.4-8.5,4.9-12.4c0.3-0.9,0.2-1.9-0.5-2.5c-2.4-2.6-4.8-5.2-7.2-7.8c-0.9-1-0.9-2.5,0.1-3.5c1.2-1.1,2.4-2.2,3.5-3.2
			c0.9-0.9,2.4-0.9,3.3,0c2.9,2.6,5.5,5,8.1,7.3c0.7,0.6,1.7,0.8,2.6,0.4c4.2-1.8,8.3-3.5,12.5-5.2c0.9-0.4,1.4-1.2,1.5-2.1
			c0.2-3.5,0.4-6.9,0.6-10.4c0.1-1.3,1.1-2.3,2.4-2.3h5.1c1.3,0,2.4,1,2.4,2.3c0.2,3.6,0.4,7,0.6,10.3c0.1,0.9,0.7,1.8,1.5,2.1
			c4.3,1.7,8.4,3.4,12.7,5.1c0.9,0.3,1.8,0.2,2.5-0.4c2.6-2.3,5.1-4.6,7.8-7c1-0.9,2.5-0.8,3.4,0.1c1.1,1.1,2,2.1,3,3.2
			c0.9,0.9,0.9,2.3,0.1,3.3c-2.5,2.9-4.7,5.6-6.8,8.1c-0.6,0.7-0.7,1.6-0.4,2.4C122,40.3,122.3,41,122.5,41.7z M107.3,51.8
			c-11.7,3-20,9.5-24.9,19.9c-0.7,1.5-2.7,1.8-3.9,0.7c-5.7-5.5-7.2-11.7-5-19.1c2.2-7.5,8.6-13,16.6-13.6
			c7.5-0.6,13.7,1.5,18.6,8.2C109.7,49.4,109,51.4,107.3,51.8z"/>
		<path class="st1" d="M161.7,61c2.7,2.5,4.8,4.4,6.7,6.2c-2.4,6.2-3.8,7-8.6,4.8c-4.5-2.1-8.8-4.5-13.2-6.7
			c-11.7-6-24.1-6.9-36.8-4.1c-9.5,2.1-19.3,8.7-19,23.4c0.2,9.5,1.9,18.2,7,26.4c6.9,11,10,23,10.4,36c0.3,11.4,0,22.9,4.3,33.9
			c1.6,4.2,2.8,8.8,8.7,11.4c0.5-3.5,1.1-6.5,1.3-9.5c0.6-8.7,0.4-17.5,1.7-26.1c0.9-6.1,3.2-12.3,6-17.9c4.8-9.9,15.2-14,23.9-10.4
			c4.8,2,7.9,5.7,10.2,10.1c7.1,13.8,9.5,28.5,8.9,43.8c-0.1,3.2-1.2,6.8,2.3,9.6c4.3-2.4,5.8-6.6,7.3-10.6c3-8.1,3.8-16.5,4-25.1
			c0.2-6.1,0.3-12.2,1.1-18.2c1.1-9.3,4.1-18.1,9.2-25.9c6.3-9.6,8.1-20.2,7.3-31.4c-0.4-5.9-2.8-11-7.7-14.3
			C186.2,59.4,174.6,58.3,161.7,61z"/>
		<path class="st2" d="M125.1,49c-1.4-3.9-2.5-7-3.8-10.8c2.8-3.3,5.7-6.8,9.1-10.8c-2-2.1-3.9-4.1-6.2-6.5
			c-3.8,3.5-7.2,6.5-10.7,9.6c-5.3-2.1-10.3-4.1-15.6-6.2c-0.3-4.6-0.5-9.2-0.8-14.2c-3.3,0-6.1,0-9.7,0c-0.3,4.7-0.6,9.5-0.9,14.2
			c-5.2,2.2-10.2,4.2-15.3,6.4c-3.5-3.1-6.9-6.3-10.9-9.9c-2.2,2.1-4.3,3.9-7,6.4c3.4,3.7,6.5,7,9.9,10.7c-1.9,4.8-3.8,9.7-6,15.3
			c-4.3,0.2-8.9,0.5-14.4,0.7c-0.2,3-0.4,5.9-0.6,9.5c5.4,0.3,10,0.6,14.7,0.8c2.1,5,4.2,9.9,6.5,15.4c-3.1,3.4-6.4,6.9-9.8,10.6
			c2.6,1.8,5,3.5,8.1,5.7c2.2-2,5.8-5.2,9.6-8.6c2.9,1,5.8,2.1,8.9,3.2c1.3-4.4-2.1-5.4-4.3-7C67.3,77.6,62.6,69.7,62.7,59
			c0.1-13.6,8-24.7,21.4-28.1c14.4-3.6,26.2,0.8,34.1,12.7C119.6,45.9,119.7,49.6,125.1,49z"/>
		<path class="st1" d="M110.6,51.1c-5.1-9.1-12-12-20.5-11.3c-8,0.6-14.4,6.1-16.6,13.6c-2.4,8.4-0.2,15.2,7.6,21.3
			C86.3,61.5,96,53.9,110.6,51.1z"/>
	</g>
</g>
</svg>
