<?xml version="1.0" encoding="utf-8"?>
<!-- Generator: Adobe Illustrator 25.2.1, SVG Export Plug-In . SVG Version: 6.00 Build 0)  -->
<svg version="1.1" id="Camada_1" xmlns="http://www.w3.org/2000/svg" xmlns:xlink="http://www.w3.org/1999/xlink" x="0px" y="0px"
	 viewBox="0 0 247.2 202.1" style="enable-background:new 0 0 247.2 202.1;" xml:space="preserve">
<style type="text/css">
	.st0{fill:#CDB957;}
	.st1{enable-background:new    ;}
</style>
<g>
	<g>
		<g>
			<path class="st0" d="M71.5,60.2c0,13.3-0.1,26.7-0.1,40c0,6.2,0,12.4,0,18.7c0,4.1-1.4,7.6-4.5,10.3
				c-6.2,5.2-12.4,10.4-18.7,15.6c-3.3,2.8-6.7,5.5-10,8.3c-2.5,2.1-2.5,2.1-5,0.1c-0.7-0.5-1.4-1.1-2.1-1.7c-3.6-2.8-5.1-6.4-5-11
				c0.2-11,0-22,0-33c0-0.9,0-1.8,0-2.7c0-3.1-2-4.5-4.9-3.3c-0.5,0.2-0.9,0.9-1,1.5c-0.2,0.9-0.1,1.8-0.1,2.7c0,10.9,0,21.8,0,32.7
				c0,1.1,0,2.2,0,3.9c-4.4-3.6-8.3-6.8-12.2-10c-0.3-0.3-0.6-0.6-1-0.9c-5.3-3.4-7-8.2-6.9-14.4C0.3,98,0.1,79.1,0.2,60.2
				c13.8,0,27.6,0,41.3,0c2.3,1.4,3.3,3.3,3.3,6c0,3.8,0.3,7.5,0.5,11.3c0.1,2.5-0.3,4.9-1.9,6.9c-0.6,0.7-0.8,1.3-0.1,2
				c1.9,1.8,2,4.1,2,6.5c0,7.4,0,14.9,0,22.3c0,0.9,0.2,1.8,0.3,3.3c1.6-1.3,2.6-2.2,3.8-3c2.2-1.5,2.8-3.4,2.7-6
				c-0.2-3.5,0-7.1,0-10.7c0-4.8,0-9.5-0.1-14.3c-0.1-7.5-0.2-15.1-0.3-22.6c0-0.5,0.2-1.1,0.4-1.6C58.6,60.2,65,60.2,71.5,60.2z
				 M13.9,127.6c0.1-1.8,0.2-3,0.2-4.2c0-7.8,0-15.6,0-23.3c0-0.8,0-1.6,0-2.3c-0.1-1.5,0.5-2.3,2.1-2.2c4.7,0.1,9.3,0.1,14,0.1
				c1.2,0,1.9,0.5,1.9,1.7c0,0.9,0,1.8,0,2.7c0,12.6,0,25.1,0,37.7c0,1.6,0.1,3.4,0.6,4.9c1,3.1,2.9,3.6,5.4,1.5
				c7.7-6.4,15.3-12.8,23-19.2c2.5-2.1,3.9-4.7,3.9-8.1c-0.1-15.8,0-31.6,0-47.3c0-3.2-0.2-3.3-3.4-3.3c-0.6,0-1.2-0.1-1.6,0.1
				c-0.7,0.4-1.4,1-1.7,1.7c-0.3,0.7-0.1,1.5-0.1,2.3c0,10.4,0,20.9,0,31.3c0,4-0.1,8,0,12c0,2.3-0.9,4-2.7,5.4
				c-2.5,2-5,4.1-7.4,6.2c-2.9,2.4-5.7,4.7-8.9,7.3c0-1,0-1.6,0-2.1c0-12.6,0-25.1,0-37.7c0-3.8-1.2-4.9-5-4.8
				C30.7,88,27.5,88,24.3,88c-3.6,0-7.2,0-11.1,0c2.2-4,4.8-6.2,9.5-5.8c4,0.4,8,0.2,12,0.1c3.4-0.1,4.3-1.1,4.3-4.5
				c0-2.4-0.2-4.9-0.5-7.3c-0.6-4.4-0.7-4.4-5.2-4.4c-6.7,0-13.3,0-20,0.1c-1.6,0-3.1,0.1-4.7,0.1c-1.7,0-2.4,0.8-2.4,2.5
				c0,0.9,0,1.8,0,2.7c0.1,6.3,0.4,12.6,0.4,19c0,8-0.2,16-0.5,24C5.8,120.2,8.6,124.1,13.9,127.6z"/>
		</g>
		<g>
			<path class="st0" d="M222.9,85.4c-1.1,0-2.1,0-3.3,0c0-6.1,0-12,0-18.1c2.7,0,5.4-0.1,8.2,0c2.2,0.1,3.8,1.3,4.3,3.5
				c0.5,2.2,0,4.2-2.1,5.5c-0.4,0.2-0.7,0.5-1.3,1c1.6,2.7,3.2,5.3,4.7,7.9c-3.4,0.6-3.9,0.4-5.5-2.4c-0.7-1.3-1.3-2.6-2.1-3.8
				c-0.4-0.5-1.3-0.8-1.9-0.8c-0.4,0-0.9,0.9-0.9,1.5C222.8,81.5,222.9,83.3,222.9,85.4z M224.8,68.8c-1.2-0.2-2,0.3-2,2
				c0,1.6,0,3.1,0,4.7c0,0.9,0.5,1.5,1.5,1.2c0.9-0.2,1.7-0.4,2.5-0.8c1.7-0.9,2.5-2.7,2-4.5C228.6,69.7,227.2,68.8,224.8,68.8z"/>
		</g>
		<g>
			<path class="st0" d="M110.7,85.3c-1,0-2.1,0-3.4,0c0-5.9,0-11.9,0-18.2c2.8-0.1,5.7-0.4,8.6,0.2c2.1,0.4,3.4,1.7,3.9,3.6
				c0.5,2-0.3,3.7-1.9,5c-0.5,0.4-1,0.8-1.7,1.3c1.6,2.7,3.1,5.2,4.6,7.8c-2.8,0.8-3.6,0.6-5-1.8c-0.8-1.3-1.4-2.8-2.3-4.1
				c-0.4-0.5-1.3-1.1-1.8-1c-0.5,0.1-1,1.1-1.1,1.7C110.6,81.7,110.7,83.5,110.7,85.3z M110.7,72.8
				C110.7,72.8,110.7,72.8,110.7,72.8c0,0.9-0.1,1.8,0.1,2.6c0.1,0.4,0.5,1.2,0.8,1.2c2.5,0.1,5.5-1.6,5.2-4.6
				c-0.2-2-1.9-3.3-4.3-3.2c-1.7,0.1-1.8,0.3-1.9,3C110.7,72.2,110.7,72.5,110.7,72.8z"/>
		</g>
		<g>
			<path class="st0" d="M141.4,77.3c1.6,2.7,3.2,5.3,4.8,8c-3.5,0.6-3.8,0.5-5.3-2.2c-0.7-1.2-1.3-2.6-2.1-3.7
				c-0.4-0.5-1.4-1.2-1.7-1.1c-0.6,0.4-1.2,1.2-1.4,1.9c-0.2,0.8,0,1.8,0.1,2.6c0.1,0.8,0.3,1.5,0.5,2.5c-1.3,0-2.6,0-3.7,0
				c0-6,0-11.9,0-18.1c2.8-0.1,5.7-0.4,8.6,0.2c2.2,0.4,3.5,1.9,4,4c0.5,2.1-0.5,3.6-2.2,4.8C142.5,76.5,142.1,76.8,141.4,77.3z
				 M138.1,68.8c-1.9,0-2.3,0.3-2.4,2.2c-0.1,1.4,0,2.9,0.1,4.3c0.1,1,0.6,1.7,1.7,1.3c0.8-0.3,1.7-0.4,2.5-0.8
				c1.5-0.8,2.4-2.8,2.1-4.2C141.7,70,140.1,68.9,138.1,68.8z"/>
		</g>
		<g>
			<path class="st0" d="M91.4,67.5c2.5,0,4.8-0.1,7.1,0c2,0.1,3.6,1,4.8,2.6c2.5,3.1,2.9,6.7,1.4,10.3c-1.5,3.5-4.4,5.1-8.2,5.1
				c-1.6,0-3.3,0-5.1,0C91.4,79.5,91.4,73.7,91.4,67.5z M102.4,76.3c-0.3-1.5-0.5-2.9-1-4.2c-0.7-1.9-2.3-3-4.3-3.2
				c-1.7-0.2-2.2,0.2-2.3,1.9c-0.1,3.4-0.1,6.9,0,10.3c0,2.4,0.7,2.9,3,2.5c1.6-0.3,2.9-1.2,3.5-2.8C101.7,79.4,102,77.9,102.4,76.3
				z"/>
		</g>
		<g>
			<path class="st0" d="M172.5,76.4c3.4-0.3,3.4-0.3,3.4,2.7c0,1.6,0,3.1,0.1,4.7c0.1,1.1-0.5,1.6-1.5,1.7c-2.2,0-4.5,0.3-6.6,0
				c-3.3-0.4-5.7-2.4-6.6-5.7c-0.9-3.6-0.8-7.1,1.9-10c2.7-2.9,6.2-3.2,9.8-2.4c1.7,0.4,1.7,0.4,1.7,3.1c-0.9-0.4-1.7-0.9-2.6-1.2
				c-3.2-1.2-6,0-7.3,3.2c-1.1,2.7-1,5.4,0.1,8.1c0.7,1.8,2,2.8,3.8,3.4c2.9,1,4.1,0.1,4.1-3C172.8,79.4,172.6,78,172.5,76.4z"/>
		</g>
		<g>
			<path class="st0" d="M191.1,82.4c1.9,0.6,3.4,1.2,5,1.6c1.8,0.3,3.5-0.5,4-1.7c0.5-1.3,0-2.6-1.8-3.8c-1.1-0.7-2.3-1.3-3.5-2
				c-1-0.7-2.1-1.3-2.9-2.2c-2-2.4-1.2-5.3,1.6-6.6c2.7-1.2,5.4-0.8,8.1-0.1c1.7,0.5,0.7,1.7,0.9,2.6c-1.7-0.5-3.3-1.2-4.9-1.4
				c-1.5-0.2-3,0.1-3.5,1.8c-0.5,1.6,0.8,2.4,2,3.1c1.4,0.8,3,1.5,4.3,2.4c0.9,0.6,1.8,1.4,2.3,2.3c1.6,2.6,0.6,5.4-2.2,6.6
				c-2.8,1.1-5.7,0.8-8.5,0.3C190.6,84.9,190.9,83.7,191.1,82.4z"/>
		</g>
		<g>
			<path class="st0" d="M148.1,67.6c3-0.1,6-0.1,9-0.1c0.4,0,1-0.1,1.3,0.2c0.4,0.3,0.5,0.8,0.8,1.2c-0.4,0.2-0.7,0.5-1.1,0.5
				c-1.4-0.1-2.8-0.3-4.3-0.4c-1.7-0.2-2.5,0.6-2.3,2.3c0.1,0.7,0,1.3,0,2c0,1.2,0.6,1.8,1.8,1.8c1.2,0,2.4,0,3.7,0.1
				c0.4,0,0.6,0.7,1,1c-0.3,0.3-0.7,0.7-1,0.9c-0.3,0.1-0.7-0.1-1-0.1c-1.4,0.1-2.8,0.3-4.1,0.5c-0.1,1.8-0.2,3.5-0.1,5.3
				c0,0.4,1.1,1,1.7,1c2.1,0,4.1-0.2,6.3-0.3c0.2,1.5-0.5,2.1-2,2.1c-0.4,0-0.9,0-1.3,0c-2.7,0-5.3,0-8.2,0
				C148.2,79.4,148.2,73.5,148.1,67.6L148.1,67.6z"/>
		</g>
		<g>
			<path class="st0" d="M189.5,83.4c0,1.1-0.1,2.1-1.7,2.1c-3.2-0.1-6.4,0-9.8,0c0-6,0-11.9,0-18c2.8,0,5.7,0,8.7,0
				c0.5,0,1.1,0.1,1.6,0.3c0.2,0.1,0.4,0.6,0.4,0.8c-0.1,0.3-0.6,0.7-0.8,0.7c-1.4-0.1-2.8-0.3-4.3-0.4c-1.6-0.1-2.3,0.6-2.1,2.1
				c0,0.3,0,0.7,0,1c0,2.9,0,2.9,2.9,3c0.8,0,1.6-0.1,2.3,0.1c0.4,0.1,0.7,0.6,1.1,0.9c-0.4,0.3-0.8,1-1.3,1
				c-1.1,0.1-2.2-0.1-3.3-0.1c-0.6,0-1.5,0.5-1.5,0.8c-0.1,1.8-0.1,3.5,0,5.3c0,0.3,1.1,0.7,1.6,0.7
				C185.4,83.7,187.4,83.5,189.5,83.4z"/>
		</g>
		<g>
			<path class="st0" d="M213.6,67.1c1.1,0,2.2,0,3.2,0c0,4.7,0,9.4,0,14c0,3.7-2.9,5.6-6.3,4.1c-0.3-0.1-0.6-0.4-0.7-0.7
				c-0.1-0.3-0.1-0.6-0.1-1.3c0.5,0.2,0.9,0.3,1.2,0.4c2.2,0.3,2.7,0,2.7-2.1C213.6,76.8,213.6,72,213.6,67.1z"/>
		</g>
		<g>
			<path class="st0" d="M126.1,84c-0.9,0.7-1.4,1.4-1.9,1.4c-0.6,0-1.1-0.7-1.7-1.1c0.5-0.6,0.9-1.4,1.6-1.7
				C124.4,82.4,125.1,83.3,126.1,84z"/>
		</g>
		<g>
			<polygon class="st0" points="148.2,67.5 148,67.4 148.1,67.6 			"/>
		</g>
	</g>
	<g class="st1">
		<path d="M96.5,101.2c-0.8,1.8-1.9,2.6-3.5,2.6c-1,0-1.7-0.3-2.3-1c-0.6-0.7-0.9-1.6-0.9-2.8c0-1.5,0.4-2.8,1.2-3.8
			c0.8-1.1,1.8-1.6,3-1.6c0.9,0,1.7,0.3,2.2,0.8c0.5,0.5,0.9,1.3,0.9,2.3l-1.4,0.3c-0.1-1.3-0.7-2-1.8-2c-0.9,0-1.5,0.5-1.8,1.5
			s-0.6,2-0.6,2.9c0,0.7,0.2,1.3,0.5,1.6c0.3,0.4,0.7,0.5,1.2,0.5c0.5,0,0.9-0.2,1.2-0.5c0.4-0.4,0.6-0.8,0.8-1.3L96.5,101.2z"/>
		<path d="M103.1,103.6h-5.7l1.5-8.8h5.6l-0.2,1.4h-4l-0.4,2.3h3.3l-0.2,1.3h-3.3l-0.4,2.5h4.1L103.1,103.6z"/>
		<path d="M111.1,103.6h-1.3l-3-6.6l-1.1,6.6h-1.3l1.5-8.8h1.6l2.7,6l1-6h1.3L111.1,103.6z"/>
		<path d="M119.4,96.2h-2.2l-1.2,7.4h-1.6l1.2-7.4h-2.2l0.2-1.4h6.1L119.4,96.2z"/>
		<path d="M125.9,103.6h-1.7l-0.9-3.6h-2.1l-0.6,3.6h-1.6l1.5-8.8h3.3c0.7,0,1.2,0.1,1.6,0.2c0.4,0.1,0.7,0.4,1,0.8
			c0.3,0.4,0.5,0.9,0.5,1.4c0,0.6-0.2,1.1-0.5,1.6c-0.3,0.5-0.9,0.8-1.6,1L125.9,103.6z M121.5,98.7h2.2c0.7,0,1.1-0.1,1.3-0.4
			s0.3-0.6,0.3-0.9c0-0.3-0.1-0.5-0.2-0.7c-0.1-0.2-0.3-0.3-0.5-0.4c-0.2-0.1-0.5-0.1-0.9-0.1h-1.7L121.5,98.7z"/>
		<path d="M127.7,99.8c0-1.3,0.4-2.6,1.1-3.7c0.8-1.1,1.8-1.6,3-1.6c1.1,0,1.9,0.4,2.5,1.1c0.6,0.7,0.9,1.7,0.9,2.9
			c0,1.4-0.4,2.6-1.2,3.7c-0.8,1.1-1.8,1.6-3.1,1.6c-0.9,0-1.7-0.4-2.4-1.1C128,102,127.7,101,127.7,99.8z M129.4,100.1
			c0,0.9,0.2,1.5,0.5,1.8c0.3,0.4,0.8,0.5,1.2,0.5c0.9,0,1.5-0.5,1.9-1.4c0.4-0.9,0.6-1.9,0.6-2.9c0-1.5-0.6-2.3-1.8-2.3
			c-0.8,0-1.4,0.5-1.8,1.5S129.4,99.2,129.4,100.1z"/>
		<path d="M139.3,103.6l1.5-8.8h2.6c0.6,0,1.1,0.1,1.4,0.2c0.4,0.1,0.7,0.3,1.1,0.6c0.3,0.3,0.6,0.7,0.8,1.3
			c0.2,0.5,0.3,1.2,0.3,1.9c0,0.8-0.2,1.6-0.5,2.3c-0.3,0.7-0.7,1.3-1.1,1.7s-0.9,0.6-1.3,0.8s-1,0.2-1.8,0.2H139.3z M141.1,102.3
			h1.4c0.5,0,0.8-0.1,1.1-0.2c0.3-0.1,0.6-0.3,0.8-0.6c0.3-0.3,0.5-0.7,0.6-1.3c0.2-0.6,0.2-1.1,0.2-1.7c0-0.5-0.1-0.9-0.2-1.3
			c-0.2-0.4-0.4-0.7-0.7-0.8c-0.3-0.2-0.7-0.2-1.3-0.2h-0.9L141.1,102.3z"/>
		<path d="M153.4,103.6h-5.7l1.5-8.8h5.6l-0.2,1.4h-4l-0.4,2.3h3.3l-0.2,1.3H150l-0.4,2.5h4.1L153.4,103.6z"/>
		<path d="M164.7,103.6h-1.3l-3-6.6l-1.1,6.6h-1.3l1.5-8.8h1.6l2.7,6l1-6h1.3L164.7,103.6z"/>
		<path d="M174.3,94.8l-1,5.7c-0.1,0.7-0.3,1.3-0.5,1.7c-0.2,0.4-0.5,0.8-1.1,1.1c-0.5,0.3-1.1,0.5-1.8,0.5c-0.4,0-0.9-0.1-1.3-0.2
			c-0.4-0.1-0.8-0.4-1.1-0.8c-0.3-0.4-0.5-0.9-0.5-1.6c0-0.3,0-0.8,0.1-1.2l0.9-5.1h1.6l-0.9,5.2c-0.1,0.6-0.1,0.9-0.1,1.1
			c0,0.5,0.2,0.8,0.5,1c0.3,0.2,0.7,0.3,1.1,0.3c0.3,0,0.7-0.1,0.9-0.2c0.3-0.1,0.5-0.3,0.6-0.6c0.1-0.3,0.3-0.8,0.4-1.5l0.9-5.3
			H174.3z"/>
		<path d="M181,96.2h-2.2l-1.2,7.4h-1.6l1.2-7.4h-2.2l0.2-1.4h6.1L181,96.2z"/>
		<path d="M187.6,103.6h-1.7L185,100h-2.1l-0.6,3.6h-1.6l1.5-8.8h3.3c0.7,0,1.2,0.1,1.6,0.2s0.7,0.4,1,0.8c0.3,0.4,0.5,0.9,0.5,1.4
			c0,0.6-0.2,1.1-0.5,1.6c-0.3,0.5-0.9,0.8-1.6,1L187.6,103.6z M183.2,98.7h2.2c0.7,0,1.1-0.1,1.3-0.4s0.3-0.6,0.3-0.9
			c0-0.3-0.1-0.5-0.2-0.7c-0.1-0.2-0.3-0.3-0.5-0.4c-0.2-0.1-0.5-0.1-0.9-0.1h-1.7L183.2,98.7z"/>
		<path d="M189.4,99.8c0-1.3,0.4-2.6,1.1-3.7c0.8-1.1,1.8-1.6,3-1.6c1.1,0,1.9,0.4,2.5,1.1c0.6,0.7,0.9,1.7,0.9,2.9
			c0,1.4-0.4,2.6-1.2,3.7c-0.8,1.1-1.8,1.6-3.1,1.6c-0.9,0-1.7-0.4-2.4-1.1C189.7,102,189.4,101,189.4,99.8z M191,100.1
			c0,0.9,0.2,1.5,0.5,1.8c0.3,0.4,0.8,0.5,1.2,0.5c0.9,0,1.5-0.5,1.9-1.4c0.4-0.9,0.6-1.9,0.6-2.9c0-1.5-0.6-2.3-1.8-2.3
			c-0.8,0-1.4,0.5-1.8,1.5S191,99.2,191,100.1z"/>
		<path d="M202.9,103.6h-5.3l1.5-8.8h1.7l-1.2,7.4h3.6L202.9,103.6z"/>
		<path d="M203.9,99.8c0-1.3,0.4-2.6,1.1-3.7c0.8-1.1,1.8-1.6,3-1.6c1.1,0,1.9,0.4,2.5,1.1c0.6,0.7,0.9,1.7,0.9,2.9
			c0,1.4-0.4,2.6-1.2,3.7c-0.8,1.1-1.8,1.6-3.1,1.6c-0.9,0-1.7-0.4-2.4-1.1C204.2,102,203.9,101,203.9,99.8z M205.6,100.1
			c0,0.9,0.2,1.5,0.5,1.8c0.3,0.4,0.8,0.5,1.2,0.5c0.9,0,1.5-0.5,1.9-1.4c0.4-0.9,0.6-1.9,0.6-2.9c0-1.5-0.6-2.3-1.8-2.3
			c-0.8,0-1.4,0.5-1.8,1.5S205.6,99.2,205.6,100.1z"/>
		<path d="M218.9,103.6h-0.7l-0.3-1.2c-0.5,0.9-1.3,1.3-2.4,1.3c-0.9,0-1.7-0.3-2.3-1c-0.6-0.7-0.9-1.6-0.9-2.8
			c0-1.5,0.4-2.8,1.2-3.8c0.8-1.1,1.8-1.6,3.1-1.6c1.7,0,2.8,0.9,3.2,2.6l-1.4,0.3c-0.3-1.1-0.9-1.6-1.8-1.6c-0.8,0-1.4,0.4-1.9,1.2
			c-0.5,0.8-0.7,1.8-0.7,2.8c0,0.8,0.2,1.4,0.5,1.8c0.3,0.4,0.8,0.6,1.3,0.6c1,0,1.7-0.7,2-2.1h-1.9l0.2-1.3h3.4L218.9,103.6z"/>
		<path d="M222.4,103.6h-1.6l1.5-8.8h1.6L222.4,103.6z"/>
		<path d="M231.3,103.6h-1.8l-0.4-2.1H226l-1,2.1h-1.5l4.2-8.8h2L231.3,103.6z M229,100.2l-0.7-3.9l-1.8,3.9H229z"/>
		<path d="M232.6,105.5H232l1.1-1.9h-0.7l0.3-1.6h1.5l-0.2,1.5L232.6,105.5z"/>
	</g>
	<g class="st1">
		<path d="M95.3,119.4h-5.7l1.5-8.8h5.6l-0.2,1.4h-4l-0.4,2.3h3.3l-0.2,1.3h-3.3l-0.4,2.5h4.1L95.3,119.4z"/>
		<path d="M103.4,112.3l-1.4,0.5c-0.3-0.7-0.9-1.1-1.7-1.1c-0.5,0-0.9,0.1-1.1,0.3c-0.3,0.2-0.4,0.5-0.4,0.9c0,0.3,0.1,0.5,0.3,0.6
			c0.2,0.2,0.5,0.3,0.9,0.4l1.2,0.4c0.3,0.1,0.7,0.3,1,0.5c0.3,0.2,0.5,0.5,0.7,0.8c0.2,0.3,0.2,0.7,0.2,1c0,0.8-0.3,1.5-0.9,2.1
			c-0.6,0.6-1.5,0.9-2.6,0.9c-1.8,0-2.9-0.7-3.4-2.2l1.4-0.5c0.3,0.9,1,1.4,2.1,1.4c0.6,0,1-0.1,1.3-0.4c0.3-0.3,0.4-0.6,0.4-0.9
			c0-0.2-0.1-0.4-0.2-0.5c-0.1-0.1-0.2-0.3-0.4-0.3c-0.2-0.1-0.5-0.2-1-0.3c-0.7-0.2-1.2-0.4-1.6-0.6c-0.3-0.2-0.6-0.4-0.8-0.8
			c-0.2-0.3-0.3-0.8-0.3-1.2c0-0.8,0.3-1.5,0.9-2c0.6-0.5,1.4-0.8,2.4-0.8C101.8,110.4,102.8,111,103.4,112.3z"/>
		<path d="M110.3,112h-2.2l-1.2,7.4h-1.6l1.2-7.4h-2.2l0.2-1.4h6.1L110.3,112z"/>
		<path d="M115.7,119.4H110l1.5-8.8h5.6l-0.2,1.4h-4l-0.4,2.3h3.3l-0.2,1.3h-3.3l-0.4,2.5h4.1L115.7,119.4z M116.2,107.8l0.4,0.9
			l-2.7,1.2l-0.3-0.7L116.2,107.8z"/>
		<path d="M123.5,112h-2.2l-1.2,7.4h-1.6l1.2-7.4h-2.2l0.2-1.4h6.1L123.5,112z"/>
		<path d="M124.8,119.4h-1.6l1.5-8.8h1.6L124.8,119.4z"/>
		<path d="M133.7,117c-0.8,1.8-1.9,2.6-3.5,2.6c-1,0-1.7-0.3-2.3-1c-0.6-0.7-0.9-1.6-0.9-2.8c0-1.5,0.4-2.8,1.2-3.8
			c0.8-1.1,1.8-1.6,3-1.6c0.9,0,1.7,0.3,2.2,0.8c0.5,0.5,0.9,1.3,0.9,2.3l-1.4,0.3c-0.1-1.3-0.7-2-1.8-2c-0.9,0-1.5,0.5-1.8,1.5
			c-0.4,1-0.6,2-0.6,2.9c0,0.7,0.2,1.3,0.5,1.6c0.3,0.4,0.7,0.5,1.2,0.5c0.5,0,0.9-0.2,1.2-0.5c0.4-0.3,0.6-0.8,0.8-1.3L133.7,117z"
			/>
		<path d="M141.5,119.4h-1.8l-0.4-2.1h-3.2l-1,2.1h-1.5l4.2-8.8h2L141.5,119.4z M139.2,116.1l-0.7-3.9l-1.8,3.9H139.2z"/>
		<path d="M151.4,119.4h-5.7l1.5-8.8h5.6l-0.2,1.4h-4l-0.4,2.3h3.3l-0.2,1.3h-3.3l-0.4,2.5h4.1L151.4,119.4z"/>
		<path d="M164.7,119.4h-1.6l1.3-8l-3.8,8h-0.9l-1.2-7.9l-1.3,7.9h-1.2l1.5-8.8h2.4l0.9,5.9l2.7-5.9h2.6L164.7,119.4z"/>
		<path d="M172.3,119.4h-5.7l1.5-8.8h5.6l-0.2,1.4h-4l-0.4,2.3h3.3l-0.2,1.3h-3.3l-0.4,2.5h4.1L172.3,119.4z"/>
		<path d="M173.7,119.4l1.5-8.8h2.6c0.6,0,1.1,0.1,1.4,0.2c0.4,0.1,0.7,0.3,1.1,0.6c0.3,0.3,0.6,0.7,0.8,1.3
			c0.2,0.5,0.3,1.2,0.3,1.9c0,0.8-0.2,1.6-0.5,2.3c-0.3,0.7-0.7,1.3-1.1,1.7s-0.9,0.6-1.3,0.8s-1,0.2-1.8,0.2H173.7z M175.5,118.1
			h1.4c0.5,0,0.8-0.1,1.1-0.2s0.6-0.3,0.8-0.6s0.5-0.7,0.6-1.3c0.2-0.6,0.2-1.1,0.2-1.7c0-0.5-0.1-0.9-0.2-1.3s-0.4-0.7-0.7-0.8
			c-0.3-0.2-0.7-0.2-1.3-0.2h-0.9L175.5,118.1z"/>
		<path d="M183.8,119.4h-1.6l1.5-8.8h1.6L183.8,119.4z"/>
		<path d="M192.7,117c-0.8,1.8-1.9,2.6-3.5,2.6c-1,0-1.7-0.3-2.3-1c-0.6-0.7-0.9-1.6-0.9-2.8c0-1.5,0.4-2.8,1.2-3.8
			c0.8-1.1,1.8-1.6,3-1.6c0.9,0,1.7,0.3,2.2,0.8c0.5,0.5,0.9,1.3,0.9,2.3l-1.4,0.3c-0.1-1.3-0.7-2-1.8-2c-0.9,0-1.5,0.5-1.8,1.5
			c-0.4,1-0.6,2-0.6,2.9c0,0.7,0.2,1.3,0.5,1.6s0.7,0.5,1.2,0.5c0.5,0,0.9-0.2,1.2-0.5c0.4-0.3,0.6-0.8,0.8-1.3L192.7,117z"/>
		<path d="M195.2,119.4h-1.6l1.5-8.8h1.6L195.2,119.4z"/>
		<path d="M203.7,119.4h-1.3l-3-6.6l-1.1,6.6h-1.3l1.5-8.8h1.6l2.7,6l1-6h1.3L203.7,119.4z"/>
		<path d="M212.6,119.4h-1.8l-0.4-2.1h-3.2l-1,2.1h-1.5l4.2-8.8h2L212.6,119.4z M210.3,116.1l-0.7-3.9l-1.8,3.9H210.3z"/>
	</g>
	<g class="st1">
		<path d="M91.2,135.3h-1.6l1.5-8.8h1.6L91.2,135.3z"/>
		<path d="M99.7,135.3h-1.3l-3-6.6l-1.1,6.6h-1.3l1.5-8.8h1.6l2.7,6l1-6h1.3L99.7,135.3z"/>
		<path d="M108.1,127.8h-2.2l-1.2,7.4H103l1.2-7.4H102l0.2-1.4h6.1L108.1,127.8z"/>
		<path d="M113.5,135.3h-5.7l1.5-8.8h5.6l-0.2,1.4h-4l-0.4,2.3h3.3l-0.2,1.3H110l-0.4,2.5h4.1L113.5,135.3z"/>
		<path d="M121.6,135.3h-0.7l-0.3-1.2c-0.5,0.9-1.3,1.3-2.4,1.3c-0.9,0-1.7-0.3-2.3-1c-0.6-0.7-0.9-1.6-0.9-2.8
			c0-1.5,0.4-2.8,1.2-3.8c0.8-1.1,1.8-1.6,3.1-1.6c1.7,0,2.8,0.9,3.2,2.6l-1.4,0.3c-0.3-1.1-0.9-1.6-1.8-1.6c-0.8,0-1.4,0.4-1.9,1.2
			c-0.5,0.8-0.7,1.8-0.7,2.8c0,0.8,0.2,1.4,0.5,1.8c0.3,0.4,0.8,0.6,1.3,0.6c1,0,1.7-0.7,2-2.1h-1.9l0.2-1.3h3.4L121.6,135.3z"/>
		<path d="M130.2,135.3h-1.7l-0.9-3.6h-2.1l-0.6,3.6h-1.6l1.5-8.8h3.3c0.7,0,1.2,0.1,1.6,0.2c0.4,0.1,0.7,0.4,1,0.8
			c0.3,0.4,0.5,0.9,0.5,1.4c0,0.6-0.2,1.1-0.5,1.6c-0.3,0.5-0.9,0.8-1.6,1L130.2,135.3z M125.8,130.4h2.2c0.7,0,1.1-0.1,1.3-0.4
			s0.3-0.6,0.3-0.9c0-0.3-0.1-0.5-0.2-0.7c-0.1-0.2-0.3-0.3-0.5-0.4c-0.2-0.1-0.5-0.1-0.9-0.1h-1.7L125.8,130.4z"/>
		<path d="M138.8,135.3h-1.8l-0.4-2.1h-3.2l-1,2.1H131l4.2-8.8h2L138.8,135.3z M136.6,131.9l-0.7-3.9l-1.8,3.9H136.6z"/>
		<path d="M139.8,135.3l1.5-8.8h2.6c0.6,0,1.1,0.1,1.4,0.2c0.4,0.1,0.7,0.3,1.1,0.6c0.3,0.3,0.6,0.7,0.8,1.3
			c0.2,0.5,0.3,1.2,0.3,1.9c0,0.8-0.2,1.6-0.5,2.3c-0.3,0.7-0.7,1.3-1.1,1.7s-0.9,0.6-1.3,0.8s-1,0.2-1.8,0.2H139.8z M141.6,133.9
			h1.4c0.5,0,0.8-0.1,1.1-0.2c0.3-0.1,0.6-0.3,0.8-0.6s0.5-0.7,0.6-1.3c0.2-0.6,0.2-1.1,0.2-1.7c0-0.5-0.1-0.9-0.2-1.3
			s-0.4-0.7-0.7-0.8c-0.3-0.2-0.7-0.2-1.3-0.2h-0.9L141.6,133.9z"/>
		<path d="M154.9,135.3h-1.8l-0.4-2.1h-3.2l-1,2.1h-1.5l4.2-8.8h2L154.9,135.3z M152.6,131.9L152,128l-1.8,3.9H152.6z"/>
		<path d="M159.2,135.3l1.5-8.8h2.6c0.6,0,1.1,0.1,1.4,0.2c0.4,0.1,0.7,0.3,1.1,0.6c0.3,0.3,0.6,0.7,0.8,1.3
			c0.2,0.5,0.3,1.2,0.3,1.9c0,0.8-0.2,1.6-0.5,2.3c-0.3,0.7-0.7,1.3-1.1,1.7s-0.9,0.6-1.3,0.8s-1,0.2-1.8,0.2H159.2z M161,133.9h1.4
			c0.5,0,0.8-0.1,1.1-0.2c0.3-0.1,0.6-0.3,0.8-0.6s0.5-0.7,0.6-1.3c0.2-0.6,0.2-1.1,0.2-1.7c0-0.5-0.1-0.9-0.2-1.3s-0.4-0.7-0.7-0.8
			c-0.3-0.2-0.7-0.2-1.3-0.2H162L161,133.9z"/>
		<path d="M167.9,131.5c0-1.3,0.4-2.6,1.1-3.7c0.8-1.1,1.8-1.6,3-1.6c1.1,0,1.9,0.4,2.5,1.1c0.6,0.7,0.9,1.7,0.9,2.9
			c0,1.4-0.4,2.6-1.2,3.7c-0.8,1.1-1.8,1.6-3.1,1.6c-0.9,0-1.7-0.4-2.4-1.1C168.2,133.7,167.9,132.7,167.9,131.5z M169.5,131.8
			c0,0.9,0.2,1.5,0.5,1.8c0.3,0.4,0.8,0.5,1.2,0.5c0.9,0,1.5-0.5,1.9-1.4s0.6-1.9,0.6-2.9c0-1.5-0.6-2.3-1.8-2.3
			c-0.8,0-1.4,0.5-1.8,1.5S169.5,130.9,169.5,131.8z"/>
		<path d="M188.1,135.3h-1.6l1.3-8l-3.8,8h-0.9l-1.2-7.9l-1.3,7.9h-1.2l1.5-8.8h2.4l0.9,5.9l2.7-5.9h2.6L188.1,135.3z"/>
		<path d="M197,135.3h-1.8l-0.4-2.1h-3.2l-1,2.1h-1.5l4.2-8.8h2L197,135.3z M194.7,131.9L194,128l-1.8,3.9H194.7z"/>
		<path d="M204.8,135.3h-1.7l-0.9-3.6h-2.1l-0.6,3.6h-1.6l1.5-8.8h3.3c0.7,0,1.2,0.1,1.6,0.2c0.4,0.1,0.7,0.4,1,0.8
			c0.3,0.4,0.5,0.9,0.5,1.4c0,0.6-0.2,1.1-0.5,1.6c-0.3,0.5-0.9,0.8-1.6,1L204.8,135.3z M200.3,130.4h2.2c0.7,0,1.1-0.1,1.3-0.4
			s0.3-0.6,0.3-0.9c0-0.3-0.1-0.5-0.2-0.7c-0.1-0.2-0.3-0.3-0.5-0.4c-0.2-0.1-0.5-0.1-0.9-0.1h-1.7L200.3,130.4z"/>
		<path d="M213.4,135.3h-1.8l-0.4-2.1H208l-1,2.1h-1.5l4.2-8.8h2L213.4,135.3z M211.1,131.9l-0.7-3.9l-1.8,3.9H211.1z"/>
		<path d="M221,135.3h-1.3l-3-6.6l-1.1,6.6h-1.3l1.5-8.8h1.6l2.7,6l1-6h1.3L221,135.3z"/>
		<path d="M229.5,135.3h-1.6l0.6-3.8h-3.4l-0.6,3.8h-1.6l1.5-8.8h1.6l-0.6,3.6h3.4l0.6-3.6h1.6L229.5,135.3z"/>
		<path d="M238.4,135.3h-1.8l-0.4-2.1h-3.2l-1,2.1h-1.5l4.2-8.8h2L238.4,135.3z M236.1,131.9l-0.7-3.9l-1.8,3.9H236.1z M237.9,124.1
			l0.3,0.6c-0.4,0.5-0.8,0.8-1.4,0.8c-0.3,0-0.6-0.1-1-0.3c-0.3-0.2-0.5-0.2-0.7-0.2c-0.2,0-0.5,0.2-0.9,0.5l-0.3-0.6
			c0.5-0.5,1-0.8,1.4-0.8c0.2,0,0.5,0.1,0.8,0.3c0.3,0.2,0.6,0.3,0.8,0.3C237.3,124.6,237.6,124.4,237.9,124.1z"/>
		<path d="M239.6,131.5c0-1.3,0.4-2.6,1.1-3.7c0.8-1.1,1.8-1.6,3-1.6c1.1,0,1.9,0.4,2.5,1.1c0.6,0.7,0.9,1.7,0.9,2.9
			c0,1.4-0.4,2.6-1.2,3.7c-0.8,1.1-1.8,1.6-3.1,1.6c-0.9,0-1.7-0.4-2.4-1.1C239.9,133.7,239.6,132.7,239.6,131.5z M241.3,131.8
			c0,0.9,0.2,1.5,0.5,1.8c0.3,0.4,0.8,0.5,1.2,0.5c0.9,0,1.5-0.5,1.9-1.4s0.6-1.9,0.6-2.9c0-1.5-0.6-2.3-1.8-2.3
			c-0.8,0-1.4,0.5-1.8,1.5C241.5,130,241.3,130.9,241.3,131.8z"/>
	</g>
</g>
</svg>
