<?xml version="1.0" encoding="utf-8"?>
<!-- Generator: Adobe Illustrator 25.2.1, SVG Export Plug-In . SVG Version: 6.00 Build 0)  -->
<svg version="1.1" id="Camada_1" xmlns="http://www.w3.org/2000/svg" xmlns:xlink="http://www.w3.org/1999/xlink" x="0px" y="0px"
	 viewBox="0 0 247.2 202.1" style="enable-background:new 0 0 247.2 202.1;" xml:space="preserve">
<style type="text/css">
	.st0{fill:#820223;}
</style>
<g>
	<path class="st0" d="M104,91.5c-14.3-9.2-28.1-18.8-36.6-34.3c-6.9-12.4-5.3-29.9,4.3-42.2C79.2,5.3,94,1,107.5,4.9
		c5.9,1.7,11.1,4.5,15.1,9.4c0.8,1,1.4,0.9,2.3,0c9-9.6,20.2-12.5,32.7-10c12.2,2.4,20.5,10.1,24.4,22c6.7,20.2-1.9,35.4-16.2,48.9
		c-12.1,11.4-26.8,18.5-40.8,26.7c-2.9,1.7-5.3-1.7-7.6-3c-1.3-0.7,0.7-2,1.1-3.1c1.3-4.2,2.6-8.5,3.9-12.8c1.4-4.7,3.8-5.6,7.7-2.5
		c2.1,1.7,3.9,3.9,6.2,5.4c4.6,2.9,9.5,1.9,12.5-3.3c8.2-14.4,14.4-29.4,13-46.5c-1-11.4-12.6-16.8-22-10.3
		c-7.7,5.4-15.7,10.3-24.9,12.6c-2.4,0.6-4.8,0.5-7.3-0.1c4.6-0.5,8.9-1.5,12.8-4.1c0.1-0.1,0.2-0.1,0.3-0.2c1.4-1,3.3-2,3.2-3.8
		c-0.1-1.5-2.3-1.2-3.5-1.6c-5.7-2-11.3-4.3-17.3-4.9c-7.7-0.8-11.9,3-13.9,10.5c-4.8,17.3,2.2,31.7,10.4,45.9
		c1.8,3.1,3.6,6.3,5.4,9.4c0.2,0.3,0.2,0.6,0.4,0.9c0.3,0.3,0.6,0.7,0.3,1.2C105,92,104.5,91.8,104,91.5z"/>
	<path class="st0" d="M26.4,138.2c1.4-2.8,2.3-5.5-1.6-7c-0.1-0.6-0.3-1.3-0.5-1.9c-0.4,0.4-0.9-0.3-0.8-1.5
		c0.1-0.4,0.1-0.9,0.2-1.3c0.3-0.6,0.7-1.1,1.1-1.7c0.1,0.1,0.2,0.3,0.3,0.4c0.1-0.1,0.3-0.3,0.4-0.4c-0.3-1.1-0.3-1.1-2.1-0.7
		c-1.3,1.5-2.2,1.7-3.3-0.4c-1.7-3-5.7-4.1-8-3.3c-3.7,1.3-7.7,3.1-10.4,6.6c-2,2.6-2.6,5-0.2,7.7c0.2,0.2,0.6,0.3,0.9,0.4
		c0.1,0,0.4-0.4,0.3-0.6c-0.5-4.9,2.9-7.4,6.2-10c0.4-0.3,0.9-0.3,1.3-0.5c0,0.5,0.2,1.1,0,1.6c-1.1,2.8-2.1,5.6-3.5,8.3
		c-1.2,2.4-1.4,5.4-3.9,7.2c-0.3,0.2-0.6,0.3-0.9,0.5c0.3,0.3,0.5,0.6,0.8,0.7c2,1,3.9,0.6,6.1,0.1c5.2-1.3,9.2-3.8,11.7-8.7
		c0.3-0.6,0.2-1.9,1.3-1.6c1.2,0.3,0.2,1.1,0.1,1.7c-0.1,0.7,0.4,0.5,0.7,0.2c0.4-0.2,0.7-1,1.4-0.4c0.6,0.6,0.4,1.2,0.2,1.8
		c-0.6,1.4-1.2,2.8-1.8,4.1c-0.9,2-0.2,3.2,1.9,3.3c1.7,0.1,2-0.2,1.3-1.7c-0.2-0.5-0.2-1,0.1-1.4C26.1,139.2,26.3,138.7,26.4,138.2
		z M9.7,139.4c-1.4,0.5-1.2-0.5-0.9-1.1c1.9-5,3.8-10.1,5.8-15.1c0.4-1,1.3-1,2.1-0.7c1.9,0.7,2.5,2.2,2.6,3.5
		C19.2,131,14,138,9.7,139.4z"/>
	<path class="st0" d="M172.7,133.3c2.2-3.5,4.3-7,6.5-10.5c0.4-0.6,0.2-2.2,1.6-1.5c1.2,0.6,2.5,1.6,2,3.3c-1.8,5.6-4.3,10.9-5,16.8
		c-0.1,1-1.1,0.9-1.8,0.7c-1.4-0.3-2.1-1.4-1.8-2.6c0.7-2.7,1.7-5.3,2.6-7.9c0.2-0.7,0.4-1.4,0-2.4c-2.3,3.9-4.6,7.8-6.8,11.7
		c-0.5,1-0.9,1.8-2.2,1.4c-1.3-0.4-1.7-1.5-1.3-2.7c1.1-4,2.4-7.9,3.5-11.8c0.1-0.5,0.2-0.9,0.2-1.4c-0.4,0.3-0.9,0.5-1.2,0.9
		c-2.8,4.4-5.9,8.7-9.8,12.3c-0.9,0.8-1.8,1.5-2.8,2c-1.4,0.7-3.4,1.1-4.1-0.3c-0.6-1.4,1.4-0.6,2.2-1.1
		c6.5-3.9,10.2-10.3,14.7-16.1c1.2-1.5,1.8-6.9,5.6-2.3c1.3,1.6-0.4,3.5-0.8,5.2c-0.5,2-1.2,4-1.8,6
		C172.3,133.1,172.5,133.2,172.7,133.3z"/>
	<path class="st0" d="M233.2,129.6c-1.5-0.8-2.1,0.5-2.9,1.3c-1.5,1.5-2.8,3.2-4.3,4.8c-0.2-0.2-0.2-0.3-0.2-0.3c0.3-1,0.6-2,1-3
		c0.5-1.3-0.1-2.1-1.2-2.5c-1.3-0.6-1.4,0.5-1.7,1.3c-0.3,0.9-0.7,1.7-1.1,2.6c-1.6,2-3.1,4-4.8,6c-0.3,0.4-0.9,0.5-1.3,0.7
		c0-0.5-0.1-1.1,0-1.6c0.7-2.2,1.5-4.3,2.4-6.4c0.6-1.4-0.4-2-1.3-2.5c-1.1-0.6-1.3,0.5-1.5,1.2c-1.3,3.2-3.4,5.8-5.7,8.4
		c-0.4,0.4-1,0.6-1.5,0.9c0-0.6-0.1-1.3,0.1-1.9c1-3.2,2.2-6.3,3.2-9.4c0,0,0-0.1,0-0.1c0,0,0-0.1-0.1-0.1c-0.2-0.1-0.3-0.2-0.4-0.2
		c-0.3,0-0.5,0.2-0.7,0.4c-0.3,0.3-0.6,0.6-0.8,0.9c0,0,0,0,0,0c-0.2,0.4-0.4,0.7-0.5,1.1c-0.1,0.2-0.1,0.4-0.2,0.7c0,0,0,0,0,0
		c-0.5,1.7-1,3.4-1.4,5.1c-0.4,1.5-0.9,1.6-2,0.6c0,0-0.1-0.1-0.1-0.1c-0.1,0-0.1-0.1-0.2-0.1c-0.2-0.1-0.4-0.3-0.7-0.3
		c-0.6,0.8-1.1,1.7-1.8,2.4c-0.6,0.6-1.3,1.1-1.9,1.7c-0.7-1,0.1-1.6,0.4-2.4c0.9-2.8,2.9-5.8-1.4-7.6c-0.2-0.7-0.1-1.6-0.9-1.8
		c-0.1,0.1-0.3,0.3-0.4,0.4c-0.1,0-0.2,0-0.3-0.1v-0.4h-0.1c-0.9,0.1-0.8-0.5-0.8-1.1c0-0.7,0.4-0.9,0.8-0.9v-0.5
		c0.3-0.6,0.7-1.1,1-1.7c0.1,0.1,0.2,0.2,0.3,0.3c0.1,0.1,0.2,0.2,0.3,0.3c0.1-0.1,0.1-0.1,0.2-0.2c0.5-0.3,1-0.6,0.7-1.3
		c-0.3-0.6-0.8-0.6-1.4-0.5c-0.5,0.1-1.1,0.2-1.5,0.6c-2.6,2.1-3.7,4.5-1.1,7.4c0.2,0.3,0.4,1,0.2,1.3c-1.7,2.4-3.5,4.7-5.4,7
		c-0.2,0.3-0.8,0.3-1.2,0.4c0-0.4,0-0.7,0.1-1.1c0.8-2.2,1.6-4.3,2.4-6.4c0.4-1,0.4-2-0.7-2.6c-0.4-0.3-1.1-0.3-1.7-0.2
		c-0.6,0.1-0.4,1.6-1.2,1c-5.1-4-5.9,0.9-7.8,3.7c0.4,0.7,0.9,0.5,1.3,0.1c0.6-0.5,1.1-1,1.6-1.6c0.1,0.9-1,1.8,0.1,2.5
		c-0.7-0.4-1,0.3-1.3,0.7c-0.4,0.5-0.5,1.2-1.1,1.6c-0.6-0.5-0.1-1.7-1.2-1.7c-1.1,1.6-1.7,3.3-0.2,4.8c1.5,1.5,3.1,1.6,4.6-0.2
		c0.4-0.5,0.8-0.5,1.3,0c1.9,2.1,3.9,1.7,5.6-0.2c1.6-1.8,3-3.8,4.6-5.7c0.6-0.7,0.9-2.1,1.9-1.8c1,0.3,0.3,1.6,0.4,2.4
		c-0.9,2.1-3.7,4.2-1.6,6.3c2.3,2.4,4.3,0.1,5.9-1.8c0.2-0.2,0.8-0.2,0.8-0.1c2,3.9,4.1,2.1,6.2,0.1c1.2-1.1,1.3-1.2,1.4-0.6
		c1.6,4.9,4,2.7,6.2,0.6c1-0.9,1.3-1.2,1.7,0.4c0.1,0.6,1.1,1.2,1.8,1.5c0.9,0.3,1-0.7,1.3-1.2c1.2-1.6,2.4-3.2,3.7-4.7
		c0.7-0.9,1.7-1.6,2.5-2.3c-0.4,1.1-0.7,2.2-1.1,3.2c-0.1,0.1-0.1,0.2-0.2,0.3c0,0,0,0,0,0c0,0.2,0,0.4,0,0.6c0,0.1,0,0.2,0.1,0.3
		c0,0,0,0,0,0c0.2,0.4,0.6,0.4,1,0.1c0.5-0.3,0.9-0.8,1.2-1.3c0.3-0.4,0.5-0.9,0.5-1.3c0,0.3,0.2,0.5,0.6,0.6c0,0,0.1,0,0.1,0
		c0,0,0,0,0,0c0.3-0.1,0.4-0.3,0.6-0.6c0.3-0.9,0.6-1.9,1-2.8C234.6,131.6,234.7,130.4,233.2,129.6z M187.5,137.4
		c-0.7,1.2-1.9,3.5-2.7,2.9c-1.4-1.1,0.8-2.8,0.8-4.4c0.1,0.1,0.2,0.1,0.3,0.2c-0.1-0.1-0.2-0.1-0.2-0.2c1.5-1.1,1.6-4.8,4-3.2
		C191,133.5,188.5,135.8,187.5,137.4z M200.4,136.1c0.3,0,0.7-0.2,1-0.3c-0.2,1.1-0.6,1.9-1.2,3.1
		C200.4,137.7,201.2,136.8,200.4,136.1z M223.7,137.7c-0.2,0.3-0.4,0.6-0.7,0.5c-0.5-0.1-0.4-0.6-0.3-1c0.1-0.7,0.4-1.3,0.7-1.9
		c0.2-0.4,0.2-0.7,0.2-0.9C224.2,135.4,224.3,136.7,223.7,137.7z M231.8,135.1c0,0.1,0,0.2-0.1,0.2c0.1-0.7,0.1-1.4,0.3-2.1
		C232.2,133.9,232,134.5,231.8,135.1z"/>
	<path class="st0" d="M70.4,144.6c-2.2,0.7-3.6-0.6-4.9-2.1c-2.3-2.7-3.8-6.1-3.7-9.5c0-1.7,3.4-1.2,4.8-2.5c0.6-0.6,1.4-0.9,2-1.5
		c1.6-1.7,3.1-3.6,2.1-6.1c-0.9-2.4-3-2.8-5.3-3c-5.3-0.4-9.5,1.7-13,5.4c-2.4,2.6-2.9,5.3-0.2,8.1c0.7,0.3,0.9,0,0.8-0.6
		c0,0,0-0.1,0-0.1c-0.1-0.6-0.1-1.2-0.1-1.7c0,0,0,0,0,0c0.1-0.5,0.2-1,0.4-1.5c0,0,0,0,0,0c0.1-0.3,0.2-0.5,0.3-0.8
		c1-1.3,2-2.7,3.1-3.9c0.3-0.4,0.9-0.6,1.3-0.9c0,0.5,0.1,1,0,1.5c-1.5,4.6-3.2,9.1-4.7,13.7c-0.4,1.3-0.2,2.5,1.4,2.8
		c1.6,0.4,1.6-0.8,1.8-1.9c0.2-0.8,0.4-1.5,0.7-2.2c0.3-0.8,0.8-1.6,1.2-2.5c0.4,0.8,0.9,1.6,1.3,2.4c0.9,1.8,1.6,3.8,2.8,5.3
		c1.9,2.4,4.3,4.4,7.7,2.6c0.3-0.2,0.5-0.6,0.7-0.9C70.9,144.8,70.6,144.6,70.4,144.6z M61.6,126.7c0.4-1.5,1.6-3,0-4.5
		c-0.1-0.1,0.3-0.8,0.5-0.9c1.5-0.4,3-0.9,4.4,0.4c2,1.9,1.4,3.8,0.1,5.8c-0.4,0.5-0.8,1.1-1.3,1.5c-1.4,1-3.2,2.4-4.6,1.5
		C59.6,129.7,61.3,128,61.6,126.7z"/>
	<path class="st0" d="M136.2,141.5c-1.2,1.1-2.6,2-3.8,0.5c-1.9-2.2,0.1-4.2,0.8-6.3c0.4-0.4,0.3-0.9,0.1-1.3c-0.8,0-0.9,0.8-1.4,1
		c-1.5,2-3.1,4.1-4.6,6.1c-1.2,1.6-2.3,0.5-2.7-0.5c-0.6-1.5-0.9-1.5-2-0.4c-1.2,1.2-2.4,3-4.5,1.5c-2.3-1.7-0.4-3.5,0-5.2
		c0.2-1,1.5-1.8,0.9-3c-0.8,0.7-1.6,1.3-2.3,2c-1.2,1.3-2.3,2.7-3.5,4c-0.1,0-0.1,0-0.2,0c-1.1-1.3-0.4-4.4,1.1-5.1
		c0.6,0.9,1.2,0.9,1.9,0c0.6-0.8,1.2-1.5,1.7-2.4c3.2-3.5,3.6-3.7,5.1-2c0,0.6-0.5,0.7-0.9,0.9c-0.5,0.2-0.9,0.6-0.9,1.1
		c0.1,1.8-0.9,3.2-1.7,4.6c-0.2,0.4-0.3,0.8-0.3,1.3c0.1-1.5,1.2-2.4,1.9-3.6c0.3-0.5,0.7-1,1.2-0.3c-0.1,0.5-0.1,1-0.3,1.5
		c-0.5,1.5-1.6,2.9-1.4,4.7c2-0.3,2.7-2.2,3.7-3.6c1.3-1.7,2.2-3.7,3.2-5.6c0.4-0.8,0.4-2.1,1.8-1.6c1.3,0.4,1.6,1.5,1.2,2.7
		c-0.3,0.9-0.7,1.9-1.5,4c2.1-2.4,3.4-4,4.7-5.4c0.9-1,1.7-2.5,3.4-1.4c1.7,1.1,1,2.4,0.4,3.8c-0.4,1.1-0.8,2.2-1.2,3.2
		c-0.6,0.9-0.7,2-1.1,2.9c-0.2,0.5-0.4,1.3,0.7,1.2C136.2,140.9,136.4,141.2,136.2,141.5z"/>
	<path class="st0" d="M107,130.2c-2.5,1.4-4.1-1-6-0.5c-0.9,0.2-1.7,1.2-2.3,2c-1.7,2.2-3.4,4.5-5,6.8c-0.1,0.4-0.7,0.6-0.2,1.1
		c0.2,0.2,0.4,0.1,0.5-0.1c0.5-0.5,0.7-1,1.1,0.2c0.9,2,2.5,3.7,4.7,2c1.4-1,2-1.2,3,0.2c0.7,0.3,1.4,0.6,2.2,0.5
		c1.4-0.3,1.5-0.5,0.8-1.7c-0.1-0.1-0.1-0.2-0.2-0.4c0,0,0,0,0,0c-0.1-0.3-0.1-0.6,0-0.9c0-0.1,0.1-0.2,0.2-0.3
		c0.3-0.6,0.4-1.2,0.7-1.8c0.5-1.2,0.9-2.4,1.4-3.5C108.5,132.2,108,129.7,107,130.2z M99.5,140.3c-0.6,0.7-0.8-0.5-0.7-0.9
		c0.9-2.4,1.7-4.8,3.6-6.7c0.3-0.3,1-0.4,1.5-0.4c0.2,0,0.5,0.5,1,1C103,135.7,101.4,138.1,99.5,140.3z"/>
	<path class="st0" d="M90.6,143.2c-2.4,3.2-3.4,7.3-6.4,10.1c-1.2,1.1-2.5,1.6-4,0.7c-0.1-0.1-0.2-0.2-0.3-0.3
		c-1.2-1.7-0.1-2.9,1.1-4c3.4-2.2,5.8-5.3,6.9-9.2c0.2-1,0.2-1.1-0.5-0.9c-0.3,0.1-0.6,0.3-0.9-0.1c-0.2-0.3,0.1-0.5,0.3-0.7
		c1.4-1.5,2.5-3.2,3.5-5c1.2-1.2,0.1-4.8,2.5-4.1c3.3,1,0.5,3.7,0.3,5.7c-0.1,1-0.7,1.9-1,2.8c-0.2,0.7-1.1,1.6,0.5,1.9
		c0.6,0.2,0.3,0.7,0,1C91.9,141.9,91.1,142.4,90.6,143.2z"/>
	<path class="st0" d="M84.8,136.7c0-0.1,0.1-0.1,0.2-0.2c0.6-1.4,1.3-2.8,1.8-4.3c0.4-1.1-0.1-2-1.2-2.4c-1.2-0.5-1.4,0.6-1.6,1.3
		c-0.7,2.3-2.1,4.2-3.6,6c-1,1.2-2.2,2.3-3.3,3.4c-1.1-1.5,0.9-2.6,0.5-4c0.9-1.8,2.4-3.6,1.5-5.6c-0.9-2-2.2-0.8-3.2,0.2
		c-0.1,0.1-0.6-0.3-0.9-0.6c-1.9-1.5-3.7-1.4-5,0.7c-1.3,2.2-2.5,4.5-3.5,6.8c-0.7,1.5,0,2.9,1.4,3.7c1.3,0.8,2.5,0.7,3.6-0.5
		c0.3-0.3,1.2-0.7,1.3-0.6c2.7,3.4,4.6,1.3,6.7-0.8c0.3-0.3,0.8-1.2,1.2,0c1.1,3.4,3.1,2.9,5.3,1.2c0.2-0.4,1-0.7,0.7-1.3
		c-0.2-0.4-0.7-0.1-1,0c-0.3,0.3-0.6,0.5-0.9,0.8c-1.2,0.4-1-0.6-0.8-1C84.2,138.6,84.2,137.6,84.8,136.7z M70.2,140.1
		c-1.1-0.8,0.5-2.9,1.2-4.3c0.5-1,1.1-2.1,1.8-2.9c0.4-0.4,1.1-0.5,1.7-0.7c0.2,0.5,0.3,1.1,0.5,1.6c-0.1,0.1-0.2,0.3-0.2,0.4
		c0.1,0.1,0.1,0.1,0.2,0.2c0.8,0.4,1.2-0.6,1.9-0.7c-0.4,1.9-0.5,2.1,0.2,2.8c-1-0.6-1.3,0.2-1.6,0.9c-0.2,0.4-0.2,1-0.4,1.4
		c-0.1,0.3-0.3,0.6-0.7,0.6c-0.4,0-0.5-0.3-0.6-0.7c-0.2-0.5,0-1.3-0.6-1.6c0,0-0.1,0-0.1-0.1c-0.1,0.1-0.2,0.3-0.2,0.4
		C71.9,138.2,71.3,140.9,70.2,140.1z"/>
	<path class="st0" d="M123,196.9c-0.1,0.2-0.3,1.2-0.5,1.2c-0.9,0-0.9-0.8-1-1.4c-0.2-1.4-0.4-2.8-0.6-4.1c-0.2-1-0.4-1.9-0.6-2.9
		c-0.6,0.9-1.3,1.7-1.8,2.7c-1.1,1.8-1.4,4.1-3.2,5.5c-1-1.8-2-3.5-3-5.3c-0.6-1-1.2-2-1.8-3c-0.3,1.1-0.6,2.2-0.9,3.3
		c-0.1,0.3-0.1,0.7-0.2,1c-0.3,1.5,0.2,3.2-1.2,4.3c-1.2-1.5-0.2-3.2-0.1-4.7c0.2-2.3,0.6-4.5,0.9-6.8c0.1-0.5,0.4-1,0.6-1.5
		c0.4,0.4,0.9,0.8,1.1,1.3c1.2,2.3,2.2,4.6,3.4,6.9c0.3,0.5,0.8,1,1.2,1.5c0.4-0.5,0.9-0.9,1.2-1.5c1.2-2.3,2.3-4.7,3.5-7.1
		c0.2-0.4,0.7-0.7,1-1c0.2,0.4,0.4,0.9,0.5,1.3C122,189.9,122.5,193.2,123,196.9z"/>
	<path class="st0" d="M148.1,130.5c-1.4-1.3-2.9-1.3-4.1,0.1c-1.8,2.1-3.4,4.3-5.1,6.5c0,0.2-0.1,0.3-0.3,0.5c0,0,0,0,0,0
		c-0.5,0.6-1.3,1.4,0.7,1.6c0.2,0,0.1,0.5,0.3,0.7c0,0.1,0,0.2,0.1,0.3c1.6,1.7,3.3,2.8,5.7,1.7c0.3-0.2,0.6-0.5,1-0.7
		c0.4-0.4,1.2-0.9,0-1.3c-0.4,0.3-0.9,0.5-1.3,0.8c-0.8,0.4-1.7,0.9-2.4,0.1c-0.2-0.2-0.3-0.5-0.3-0.7c0,0,0,0,0,0
		c0-0.2,0-0.3,0-0.5c0,0,0,0,0,0c0.2-0.9,0.9-1.8,1.8-1.7c2,0,3.4-1,4.6-2.5C150.3,133.4,149.5,131.9,148.1,130.5z M146.7,131.7
		c0,0,0.5,0.3,0.8,0.5c-0.6,1.4-1.2,2.5-2.5,2.9c-0.1,0-0.5-0.4-0.5-0.4C145.2,133.7,145.9,132.7,146.7,131.7z"/>
	<path class="st0" d="M243.7,137.2c-0.3,0.9-0.3,1.8-0.6,2.7c-0.7,1.4-1.8,2.4-3.2,3c-1,0.4-2.2,0.6-2.8-0.7
		c-0.6-1.2-0.1-2.4,0.9-2.9c2.1-1,2.3-2.3,1.3-4.1c-0.2-0.1-0.4-0.2-0.5-0.3c-1-0.8-1-2.2-1.6-3.2c0-0.1-0.1-0.2-0.1-0.2
		c-1.9-3.3-0.3-5.5,2.3-7.4c0.6-0.3,1.3-0.2,2-0.1c0.4,0,0.6,0.1,0.7,0.3c0,0,0,0,0,0c0,0,0.1,0.1,0.1,0.2c0,0,0,0,0,0
		c0.2,0.4,0,1.1,0,1.6c0,0.9-0.5,0.7-1,0.6c0-0.3,0-0.6,0.1-0.9c0.1-0.7-0.7-0.4-1.2-0.3c-0.7,1.4-1,2.8-0.7,4.3
		c0.4-0.2,0.7-0.4,0.9-0.7c0.1,0.1,0.1,0.2,0.2,0.3c0.3,0.9-0.3,1.9,0.2,2.8c0.8,1.2,1.6,2.5,2.3,3.7
		C243.6,136.1,243.9,136.5,243.7,137.2z"/>
	<path class="st0" d="M91.6,184.1c-4.2,0-7.3,3.1-7.2,7.3c0.1,4.5,2.6,6.9,7,7.2c4.3,0.2,7.5-2.9,7.5-7.2
		C98.9,187.3,95.8,184.2,91.6,184.1z M91.5,197.1c-3.6,0-5.5-2-5.7-5.6c0.2-3.7,2.1-5.9,5.7-5.9c3.6,0,5.8,2.1,5.8,5.8
		C97.3,195.1,95.2,197.1,91.5,197.1z"/>
	<path class="st0" d="M97.4,165.3c-2.5-1.1-4.6-0.5-6.3,1.5c-1.6,1.9-1.7,4-0.4,6.1c1.5,2.3,3.7,2.7,6.2,2.3c0.7-0.1,1.5-1.6,2-0.3
		c0.5,1.1-0.3,2.1-1.4,2.7c-1.5,0.8-3,0.8-4.5-0.1c-0.5-0.3-1-0.8-1.5-1.1c-0.7-0.5-1.2-0.2-1,0.5c0.4,1.2,1.4,1.8,2.6,2.1
		c5.3,1.4,7.2-0.8,7.3-8.2C100.5,166.7,100.5,166.7,97.4,165.3z M95,174c-2.4-0.1-3.6-1.5-3.7-4c0.3-2.4,1.7-3.9,4.2-3.8
		c2.5,0,3.8,1.7,3.7,4C99.1,172.8,97.5,174.1,95,174z"/>
	<path class="st0" d="M129.7,161.5c-5.6,0.3-1,4.9-2.9,6.6c1.1,3-2.2,8,4.6,7.3c5-0.5,7.6-2.5,7.5-7.1
		C138.7,163.6,135.7,161.2,129.7,161.5z M130.3,173.9c-4.1-0.4-0.7-3.9-2.3-5.6c1.7-1.6-1.9-5.1,2.5-5.4c3.8-0.2,6.8,1.1,6.8,5.6
		C137.2,173.3,133.9,174.3,130.3,173.9z"/>
	<path class="st0" d="M179.2,191.5c-0.7-0.6-0.5-1.1-0.1-1.7c1.2-1.7,1.1-3.4-0.6-4.7c-1.8-1.4-3.8-1.3-5.5,0.2
		c-1.5,1.3-1.7,2.9-0.3,4.6c0.5,0.6,0.7,1.1,0,1.7c-1.5,1.2-1.9,2.8-1.1,4.5c0.8,1.8,2.2,2.8,4.2,2.6c2,0.1,3.6-0.6,4.4-2.4
		C181,194.5,180.8,192.8,179.2,191.5z M176.1,185.6c1.4,0,2.4,0.8,2.4,2.2c0,1.5-1.1,2.2-2.5,2.4c-1.4-0.3-2.5-1-2.5-2.5
		C173.5,186.1,174.7,185.6,176.1,185.6z M176,197.2c-1.7-0.1-3.1-0.6-3.1-2.7c0-2.1,1.2-2.9,3.1-2.9c1.8,0,3.1,0.8,3.2,2.7
		C179.1,196.3,177.8,197.1,176,197.2z"/>
	<path class="st0" d="M79.7,191.4c1.4-0.3,2.2-1.6,2.2-3c0-1.4-0.5-2.6-1.7-3.2c-2-1-4.4-1.4-6.3-0.5c-1.6,0.7-0.5,2.8-0.7,4.3
		c-0.1,0.8,0,1.6,0,2.3c0,1.8,0,3.6,0,5.4c0,0.6-0.1,1.4,0.8,1.4c0.9,0,0.6-0.9,0.7-1.4c0.2-1.5,0.3-3,0.4-4.6c1,1.1,1.9,2.3,3,3.2
		c1.1,0.9,1.8,3.6,3,2.6c1.1-0.8-1.2-2.3-2-3.5C78.2,193.1,76.7,192,79.7,191.4z M76.7,190.5c-1.8,0.2-2.5-0.7-2.1-2.3
		c-0.2-1.6,0-2.6,1.9-2.5c1.8,0.1,3.8,0.1,3.7,2.5C80.3,190.5,78.4,190.4,76.7,190.5z"/>
	<path class="st0" d="M65.1,198.7c-4.3-0.1-6.9-1.6-8-5c-1.1-3.4-0.2-6.4,2.9-8.3c3-2,6.1-1.8,9.1,0.3c0.4,0.3,0.9,1.2,0.8,1.4
		c-0.6,0.7-1.1,0.1-1.7-0.2c-3-2-6-1.9-8.4,0.8c-2.1,2.3-2,5.2,0,7.5c2.3,2.6,5.3,2.7,8.3,1c0.6-0.3,1.2-1,1.7-0.3
		c0.5,0.7-0.4,1.1-0.9,1.5C67.5,198.2,66,198.8,65.1,198.7z"/>
	<path class="st0" d="M54.5,174.3c1.5,0,2.8-0.6,4-1.4c0.4-0.3,1.2-0.5,1.4-0.3c0.6,0.6,0,1-0.5,1.3c-3.6,2.4-7.3,2.6-10.4-0.5
		c-3.2-3.1-3.2-6.9-0.1-10.1c3-3.2,6.7-3.1,10.3-0.6c0.4,0.3,0.8,1.3,0.7,1.5c-0.8,0.8-1.3-0.1-1.8-0.5c-2.4-1.7-4.9-1.7-7.3,0
		c-2.4,1.8-2.9,4.2-2,6.8C49.9,173.1,51.9,174.2,54.5,174.3z"/>
	<path class="st0" d="M147.3,170.1c0.5-1.2,4.8,2.6,3.5-2.1c-0.6-2.4-2.9-3.4-5.3-3.1c-2.4,0.2-4.1,1.5-4.6,4
		c-0.5,2.7,0.1,5.2,2.9,6.3c2.2,0.9,4.5,0.7,6.3-1.2c0.3-0.3,0.2-1,0.3-1.4c-0.4,0.1-1,0.2-1.3,0.5c-1.5,1.5-3.2,2-5.2,0.8
		c-0.9-0.6-2-1.6-1.6-2.5C143.4,169.4,145.4,170.8,147.3,170.1z M146.1,166.2c1.5,0.1,3.4,0.6,3.2,2.2c-0.2,1.7-2.3,0.2-3.4,0.9
		c-1.1-0.6-3.1,0.7-3.1-1C142.8,166.9,144.5,166.1,146.1,166.2z"/>
	<path class="st0" d="M137.2,196.4c-1.6-3.5-3.3-7.1-5-10.6c-0.2-0.3-0.4-0.6-0.7-0.9c-0.3,0.3-0.8,0.5-1,0.8
		c-1.8,3.6-3.5,7.2-5.2,10.9c-0.2,0.5-0.5,1.2,0.5,1.6c0.3-0.4,0.8-0.8,0.9-1.2c0.8-3,2.9-3.2,5.5-3.2c2.4,0,2.9,1.6,3.6,3.2
		c0.2,0.4,0.8,0.7,1.3,1C137.2,197.5,137.4,196.9,137.2,196.4z M131.3,192.5c-0.6-0.4-2,0.5-1.7-0.8c0.2-1.2,1.2-2.4,1.8-3.5
		c0.7,1.2,1.7,2.3,1.9,3.5C133.4,193,132,192.2,131.3,192.5z"/>
	<path class="st0" d="M117.6,170.5c0-5-0.6-5.8-5.5-5.7c-3.2,0.1-5.1,2-5.4,5.3c-0.1,1.6,0.6,2.9,1.7,4.1c2.5,3,5.6,0.5,8.4,0.7
		C118.5,175,117,171.8,117.6,170.5z M112.1,174.3c-2.5-0.1-4-1.7-3.9-4.1c0-2.4,1.6-4,4.1-3.9c2.6,0.1,3.7,1.7,3.8,4.4
		C115.9,172.9,114.6,174.3,112.1,174.3z"/>
	<path class="st0" d="M200.1,170.4c1.8-5.3-2.2-5.3-5.1-5.5c-3.3-0.2-5.6,2-5.4,5.3c0.4,7,5.9,5.2,9.8,4.7
		C201.3,174.7,199.7,171.8,200.1,170.4z M194.9,174.3c-2.5,0-3.6-1.7-3.9-3.7c0.2-2.7,1.4-4.2,4-4.3c2.6,0,3.9,1.6,3.9,4
		C198.9,172.8,197.5,174.3,194.9,174.3z"/>
	<path class="st0" d="M156.1,184.5c0.4,0.2,2.2-0.8,2.1,0.7c0,1.2-1.7,0.6-2.6,0.6c-1.8-0.1-2.2,0.9-2.3,2.3
		c-0.2,1.6,1.1,1.2,1.9,1.3c2.2,0.4,3.5,1.7,3.7,3.9c0.2,2.5-0.9,4.3-3.2,5.1c-2.1,0.7-4,0.2-5.3-1.8c-0.2-0.4-0.3-1.3,0-1.5
		c0.7-0.5,1,0.3,1.4,0.8c1,1.4,2.4,1.5,3.7,0.9c1.5-0.7,2.2-2.1,1.9-3.8c-0.3-1.5-1.4-2-2.8-2.5c-1-0.3-3.4,1.9-2.9-1
		C152.1,187.5,151,183.5,156.1,184.5z"/>
	<path class="st0" d="M205.8,137.8c-0.1-0.3-0.3-0.5-0.4-0.8c0.8-1.5,1.9-2.9,2.4-4.5c0.5-1.5,3.2-4.1-1.4-4.2c-0.4,0-1.1-1.1-1-1.6
		c0-1,0.9-0.5,1.4-0.4c2.4,0.6,3.7-0.2,3.8-2.9c0-0.8-0.1-2.2,1.3-2c1.3,0.2,2.4,0.9,2.5,2.5c0,0.7-0.8,1.7,0.4,2
		c1,0.2,2.1,0.3,2.9-0.7c1-1.2,2-2.5,3.8-1.4c1,0.6,0.7,1.6,0.3,2.4c-0.8,1.7-2,2.1-4,1.6c-1.8-0.4-4-1.1-5.3,1.4l-0.1,0
		c-0.8-0.4-0.8-1-0.5-1.7c0.2-0.5,0.5-1,0.2-1.6c-0.7,0-0.8,0.6-0.8,0.9c-0.3,2.4-1.5,4.4-2.2,6.7
		C208.7,135.2,207.8,137,205.8,137.8z"/>
	<path class="st0" d="M164,198.4c0.1,0-2.2,0.2-2.4-0.4c-0.5-1.4,1.4-2.1,2.2-3.2c1.2-1.5,2.6-2.9,3.8-4.5c1.2-1.7,1-3.4-0.9-4.4
		c-1.8-0.9-3.4-0.2-4.2,1.7c-0.2,0.5-0.3,1.4-1.1,1c-0.8-0.3-0.4-1-0.1-1.6c1.2-2.8,3.6-3.6,6.1-2.5c2.6,1.2,3.2,3.6,1.8,6.2
		c-0.5,0.8-1.1,1.5-1.7,2.3c-1,1.2-1.9,2.4-2.9,3.6c1.4,0.1,2.8,0.2,4.2,0.4c0.4,0,0.7,0.4,1,0.6c-0.4,0.3-0.7,0.7-1.1,0.7
		C167.5,198.4,166.5,198.4,164,198.4z"/>
	<path class="st0" d="M114.3,135.2c-0.4,1.6-0.8,3.2-1.2,4.8c-0.2,0.4-0.4,0.9-0.6,1.3c-0.8,1.2-1.8,1.2-2.6-0.1
		c-0.5-0.8-0.5-1.9-1.4-2.6c-0.1-0.1,0.1-0.3,0.1-0.5c1.7-2.5,3.8-4.7,4.5-7.8c0.1-0.7,0.8-0.7,1.4-0.4c0.9,0.5,1.6,1.1,1.3,2.2
		c-0.3,0.8-0.7,1.6-1,2.4C114.5,134.6,114.8,135.1,114.3,135.2z"/>
	<path class="st0" d="M153.8,170.5c0-0.5,0-0.6,0-0.8c0.4-1.5-0.9-4.2,0.7-4.3c3.5-0.3,8.9-2.3,8.4,4.8c-0.1,1.6,1.1,4.4-0.8,4.6
		c-1.4,0.1-0.5-2.9-0.6-4.5c-0.2-1.9,0-4.1-2.7-4.1c-2.7-0.1-3.3,1.8-3.6,4.1c-0.2,1.6,0.5,4.7-0.7,4.6
		C152.7,174.6,154.3,171.8,153.8,170.5z"/>
	<path class="st0" d="M186,184.6c5.2-1.1,5.7,0.4,3.6,3.8c-1.8,2.8-3.2,5.9-4.8,8.8c-0.3,0.5-1.1,1.1-1.2,1.1
		c-0.7-0.5-0.3-1.2,0-1.7c1.5-2.9,3-5.8,4.6-8.7c0.9-1.6,0.4-2-1.3-2.1c-1.4-0.1-3.9,0.9-3.9-0.7C183.1,183.5,185.7,184.8,186,184.6
		z"/>
	<path class="st0" d="M81.6,168.9c-0.1,5.5-1.9,7.4-6,6.4c-1.5-0.4-2.4-1.4-2.7-2.9c-0.4-2.3-0.8-4.6-0.1-6.9c0-0.1,0.6-0.3,0.7-0.2
		c0.2,0.3,0.4,0.7,0.4,1c0.1,1.6,0,3.1,0.1,4.7c0.1,1.8,1,3.1,3,3.1c2,0,3-1,3.1-3c0-0.7-0.1-1.5,0.1-2.2c0.3-1.3-0.8-3.6,0.8-3.6
		C82.4,165.5,81.2,167.9,81.6,168.9z"/>
	<path class="st0" d="M38.5,126.7C38.5,126.7,38.5,126.6,38.5,126.7c-0.1-0.1-0.2-0.2-0.3-0.2c-0.5,0.2-1,0.6-1.4,0.5
		c-5.4-1.3-4.5,3-5.2,5.8c0.3,1.2,1.2,1,2,0.8c0.9-0.2,0.9-0.8,0.9-1.5c0,0.1,0,0.1,0,0.2c0.2,0.5,0.8,0.7,1.2,1
		c0.1,0.1,0.2,0.1,0.3,0.2c0.6,0.3,1.2,0.2,1.8,0c0.2-0.1,0.3-0.2,0.4-0.3c0.1-0.3-0.3-0.7-0.4-1.1c0-0.5,0.2-0.9,0.5-1.4
		c0-0.1,0-0.2,0.1-0.3c0-0.1,0.1-0.2,0.1-0.3c0,0,0,0,0,0c0.1-0.4,0.2-0.8,0.4-1.2C39.2,128.2,39.4,127.3,38.5,126.7z M34.4,131.9
		C34.4,131.9,34.4,131.9,34.4,131.9c-0.7,0.1-0.4-0.6-0.5-1.1c0.9-0.9,1.2-3.6,2.6-2.7c1.2,0.8-1.2,2.3-1.7,3.6
		C34.6,131.8,34.5,131.9,34.4,131.9z"/>
	<path class="st0" d="M229,138.2c1.8-1.3,2.2-3.1,1.9-5.2c-0.1-0.9-0.3-1.9,0.7-2.4c0.3-0.2,0.9-0.1,1.2,0.1
		c0.7,0.7,0.9,1.6,0.5,2.6c-0.4,0.9-0.6,1.9-0.9,2.9c0.5,1.2-0.6,2-0.7,3.1c-0.1,0.8-0.5,1.4,0.7,1.7c0.3,0.1,0.3,0.5,0,0.8
		c-1,0.4-1.8,1.8-3,0.5C227.7,140.8,227.7,139.7,229,138.2z"/>
	<path class="st0" d="M36.2,133.5c-0.1,0-0.2,0-0.2,0c-0.5,0-1,0.1-1.5,0.1c-3.6,0.4-3.8,4.8-6,7c-1.5,1.4-2.6,3.3-5,2.2
		c-1.6-0.7-2.3-1.8-0.9-3.4c-0.3,1.4-0.4,2.7,1.5,3c2.2,0.5,1.4-1.1,1.6-2.1c0.1-0.8,0.6-1.5,1-2.3c-0.1,0.9-0.2,1.7-0.3,2.6
		c0.7-0.7,1.5-1.3,2-2.1c1.2-1.9,2.2-3.9,3.3-5.9c3.2,2.1,1.4-1.5,2.3-2c0.1,0.5-0.1,1.2,0.5,1.1c0,0,0,0,0,0c0.1,0,0.3-0.1,0.4-0.1
		C35.4,132.8,35.8,133.3,36.2,133.5z"/>
	<path class="st0" d="M36.2,133.5c0.3,0,0.5,0,0.7-0.1C36.7,133.7,36.5,133.7,36.2,133.5z"/>
	<path class="st0" d="M41.2,129.5c-0.3,0.6-0.5,1.3-0.8,1.9c-0.6,1.1-1.4,1.6-2.3,1.9c-0.4,0.1-0.8,0.2-1.2,0.2
		c0.5-0.6,0.8-2.2,1.3-2.7c0,0.4,0,0.8,0,1.2c0.5-0.4,1-0.8,1.5-1.3C40.2,130.3,40.2,129.3,41.2,129.5z"/>
	<path class="st0" d="M122.2,134.5c-1.5,1.7-2,3.8-2.5,5.9c-0.1,0.7-0.6,1.3-1.4,1.1c-0.9-0.2-0.6-1-0.6-1.7c0.1-3,2.6-5.2,2.4-8.4
		c-0.1-1.4,1.5-1.3,2.7-1C124,132,122.9,133.2,122.2,134.5z"/>
	<path class="st0" d="M177.4,175.4c-0.4,0-2-0.1-1.8-1.2c0.2-1.5,1.4,0.1,2.1,0c0.8-0.1,1.6-0.1,1.9-1.1c0.4-1.3-0.5-1.9-1.5-2.4
		c-1.7-0.9-3.3-2.1-2.3-4.3c0.7-1.6,2.2-1.9,3.8-1.2c0.6,0.3,1.3,0.5,1,1.2c-0.3,0.8-0.9,0.2-1.4,0c-0.9-0.3-2-0.4-2.3,0.6
		c-0.5,1.7,1.2,2,2.2,2.7c1.4,0.9,2.4,1.9,1.9,3.7C180.7,174.8,179.6,175.6,177.4,175.4z"/>
	<path class="st0" d="M182.5,134.8c0.3-0.2,0.5-0.4,0.8-0.6c1.7-0.9,1.1-4,3.8-3.8c-0.5,1.8-1,3.6-1.5,5.4l0,0
		c-0.5,0.9-1.1,1.8-1.6,2.7c-0.4,0.8,0.3,2.5-1.3,2.2c-1.4-0.3-1.3-1.7-1-2.9c0.1-0.5,0-1,0-1.5
		C182.1,135.9,182.3,135.3,182.5,134.8z"/>
	<path class="st0" d="M166.7,170.6c-0.5-1.4,1-3.6-1.4-4.7c1.7-1,0.7-3.8,2-4.2c1.4-0.5,0.6,1.6,0.9,2.4c1.6,3.4-1.1,6.8-0.1,10.3
		c0.1,0.2-0.4,0.5-0.7,0.8c-0.3-0.3-0.7-0.6-0.7-0.9C166.6,173.1,166.7,171.9,166.7,170.6z"/>
	<path class="st0" d="M184.6,170.6c-0.6-1.4,1.2-3.6-1.4-4.6c0.7-1.5,1.4-3,2.2-4.5c0.2,0.3,0.5,0.6,0.6,0.9
		c0.1,0.5-0.1,1.1,0.1,1.5c2.2,3.5-1.4,7-0.1,10.5c0.1,0.2-0.4,0.5-0.7,0.8c-0.2-0.3-0.6-0.6-0.6-0.8
		C184.6,173.2,184.6,172,184.6,170.6z"/>
	<path class="st0" d="M84,169.7c-0.5-2.4-0.2-4.7,3.5-4.7c0.4,0,0.8,0.2,1.2,0.2c-0.1,0.3-0.1,0.8-0.2,0.8c-3.7,0.7-2.6,3.8-3,6.2
		c-0.2,1,0.6,2.8-0.8,2.8c-1.3,0-0.5-1.8-0.7-2.9C83.9,171.5,84,170.8,84,169.7z"/>
	<path class="st0" d="M66.4,169.5c-0.6-2.3-0.1-4.5,3.4-4.5c0.5,0,1.3,0.1,1.4,0.4c0.3,0.7-0.5,0.7-0.9,0.8
		c-3.2,1.1-2.1,3.9-2.4,6.1c-0.1,1,0.6,2.7-0.7,2.7c-1.5,0-0.6-1.8-0.8-2.8C66.3,171.5,66.4,170.8,66.4,169.5z"/>
	<path class="st0" d="M103,170.3c0.7-1.7-0.7-4.7,0.8-4.7c1.6,0,0.7,3,0.7,4.7c0,1.6,0.9,4.6-0.7,4.6
		C102.2,174.9,103.7,171.8,103,170.3z"/>
	<path class="st0" d="M232.3,141.8c-2.8-1.9,0.3-3.7,0.1-5.6c0.2-0.1,0.4-0.3,0.7-0.4c-0.1,1.6-1.6,2.8-1,4.5
		c1.7-0.7,2.3-2.3,3.3-3.6c1.2-1.5,3.1-2.9,1.7-5.3c0.8,1.2,1.5,2.5,2.3,3.7c-1.1-0.9-1.4,0.1-1.9,0.8
		C235.9,138,234.6,140.4,232.3,141.8z"/>
	<path class="st0" d="M64.4,170.1c-0.6,1.7,0.9,4.3-1,4.8c-0.9,0.2-0.6-3-0.5-4.6c0-1.7-0.8-4.8,0.6-4.7
		C65.3,165.7,63.7,168.6,64.4,170.1z"/>
	<path class="st0" d="M171.8,170.4c0.6-1.6-0.6-4.8,0.7-4.7c1.7,0.1,0.6,3,0.7,4.7c0,1.6,0.8,4.6-0.6,4.5
		C171.1,174.8,172.4,171.9,171.8,170.4z"/>
	<path class="st0" d="M146.3,141.2c0-0.4,0-0.9,0-1.3c1.9-1.8,3.7-3.7,5.6-5.5c0.2-0.2,0.6-0.3,1-0.4c0,0.3,0.1,0.6,0,0.7
		C151,137.2,149.2,139.7,146.3,141.2z"/>
	<path class="st0" d="M108.7,138.1c1.7,0.6,0.3,4.8,3.8,3.1c-0.2,0.4-0.6,1.1-0.7,1.1c-0.7-0.2-1.6-0.4-1.8-0.9
		c-0.9-2.3-1.8-1-2.8-0.1c-1.3,1.2-2.8,1.9-4.5,0.6c4.8,1.3,1.6-3.8,3.7-4.7c-0.2,1.1-0.3,2.1-0.5,3.2
		C106.8,139.6,107.8,138.9,108.7,138.1z"/>
	<path class="st0" d="M40.2,142.9c-0.8-0.1-1.8-0.3-1.7-1.2c0.1-1.3,1-2.1,2.3-2.2c0.8-0.1,1.5,0.2,1.4,1.2
		C42.1,142,41.4,142.7,40.2,142.9z"/>
	<path class="st0" d="M202.2,126.9c-0.4,1.4-0.9,2.8-1.4,4.2c-0.4-0.5-0.9-0.9-1.3-1.4c0.1-0.1,0.3-0.3,0.4-0.4
		c0.9-1.1,1.9-2.2,0.9-3.5c-0.1-0.1-0.2-0.2-0.3-0.3c-0.1-0.1-0.2-0.2-0.3-0.3c0.2-0.3,0.4-0.6,0.7-0.9c-0.7,0.1-1.4,0.1-2,0.2
		c0.8-0.9,1.8-1.2,2.8-0.6C202.7,124.6,202.5,125.8,202.2,126.9z"/>
	<path class="st0" d="M26.1,127.6c-0.3,1.2-0.9,2.4-1.3,3.5c-1.4-1.3-2.6-2.7-1.1-4.7c-0.1,0.4-0.1,0.9-0.2,1.3
		c-0.2,1.1,0.4,1.9,0.8,1.5c0,0,0.1-0.1,0.1-0.2c0.5-1.2,1.6-2.5,0.7-3.8c-0.1-0.1-0.2-0.3-0.3-0.4c0.1-1.3-1-0.3-1.4-0.7
		c0.8-0.5,1.7-0.8,2.4-0.1C26.8,125,26.4,126.4,26.1,127.6z"/>
	<path class="st0" d="M242.2,127.3c-0.4,1.6-1,3.2-1.5,4.9c-0.4-0.8-0.9-1.6-1.3-2.4c0.4-0.2,0.7-0.4,0.9-0.7
		c0.6-0.7,0.8-1.5,0.9-2.4c0-0.3,0-0.6,0.1-0.9c0.1-0.7-0.7-0.4-1.2-0.3c0.6-1.1,1.2-0.8,1.9,0.1c-0.2-1.9-1.6-1.4-2.6-1.5
		c0.8-0.5,1.7-0.7,2.5,0c0.1,0.1,0.2,0.2,0.2,0.2c0,0,0,0,0,0c0,0.1,0.1,0.1,0.1,0.2c0,0,0,0,0,0
		C242.7,125.3,242.4,126.3,242.2,127.3z"/>
	<path class="st0" d="M114.2,162.9c-1.9-0.2-3.1-0.3-4.4-0.4c-0.2,0-0.6-0.4-0.5-0.5c0.1-0.3,0.3-0.6,0.5-0.8
		c1.8-0.9,3.5,0.7,5.3,0.4c0,0.2,0.2,0.6,0.1,0.7C114.7,162.7,114.2,162.9,114.2,162.9z"/>
	<path class="st0" d="M138.9,137.1c-1,1.2,1.1,1.7,0.7,2.8c-2-1.2-1.9,1.7-3.4,1.6c-3-1.6-0.3-3.1,0-4.7c-0.2,1.2-0.5,2.4-0.7,3.6
		C136.7,139.3,137.8,138.2,138.9,137.1z"/>
	<path class="st0" d="M243.1,139.9c0-1.3,0-2.7,0-4c0.6-0.3,1.3-0.5,1.9-0.8c0.8-0.3,1.3-1.9,2.1-1c0.7,0.8-0.7,1.7-1.5,2
		C243.8,136.8,243.8,138.5,243.1,139.9z"/>
	<path class="st0" d="M103.2,194c-0.9-0.2-2.5,0.3-2.3-1c0.2-1.3,1.8-0.5,2.7-0.6c0.6-0.1,1.9-0.5,1.8,0.7
		C105.4,194.5,103.9,193.8,103.2,194z"/>
	<path class="st0" d="M122.3,170.9c-0.8-0.3-2.3,0.5-2.3-0.8c0-1.1,1.3-0.7,2.1-0.7c0.8,0.1,2.4-0.5,2.4,0.7
		C124.4,171.4,122.9,170.5,122.3,170.9z"/>
	<path class="st0" d="M85.9,141.1c0.1-0.5,0.5-1.1-0.3-1.3c1.6-2,3.2-4,4.7-6c-0.5,2.4-3.4,3.8-2.4,6.7
		C86.8,139.5,86.6,141.3,85.9,141.1z"/>
	<path class="st0" d="M145,140.6c-0.6,0.6-1.3,0.9-2.1,0.5c-0.8-0.5-0.7-1.3-0.6-2.1c0.1-0.8,0.5-1.4,1.4-1.4c2.1,0,3.5-1.2,5-2.4
		c-0.8,1.7-2.1,2.6-3.9,2.8c-1.4,0.1-2.4,0.3-2.2,1.9C142.9,141.7,144.2,140.4,145,140.6z"/>
	<path class="st0" d="M90.6,143.2c2.2-1.2,0-3.6,1.4-5c0.1,0.4,0.2,0.9,0.2,1.3c0.5-0.3,0.9-0.7,1.4-1c0.1,0.3,0.2,0.7,0.3,1
		C92.8,140.7,91.7,142,90.6,143.2z"/>
	<path class="st0" d="M141.4,190.2c-0.7-0.1-1.1-0.5-1-1.3c0-0.8,0.6-1.1,1.2-0.9c0.4,0.1,0.9,0.7,0.9,1.1
		C142.6,189.7,142,190.1,141.4,190.2z"/>
	<path class="st0" d="M141.4,198.5c-0.7-0.1-1.2-0.5-1.1-1.2c0.1-0.4,0.6-0.9,1-1.1c0.7-0.2,1.2,0.3,1.2,1
		C142.6,198.1,142.1,198.4,141.4,198.5z"/>
	<path class="st0" d="M63.6,160.4c0.5,0.7,1,1,1.1,1.4c0.1,0.7-0.5,1.2-1.1,1.1c-0.4-0.1-0.9-0.7-0.9-1.1
		C62.5,161.5,63.1,161.1,63.6,160.4z"/>
	<path class="st0" d="M104.9,162.1c-0.2,0.2-0.5,0.7-1,0.9c-0.7,0.2-1.2-0.4-1.1-1c0.1-0.4,0.6-0.9,1-1
		C104.4,160.7,104.8,161.2,104.9,162.1z"/>
	<path class="st0" d="M174,161.8c-0.6,0.5-1,1.1-1.3,1.1c-0.4,0-1-0.6-1-1c0-0.4,0.5-1,0.9-1.1C172.9,160.9,173.4,161.4,174,161.8z"
		/>
	<path class="st0" d="M52.3,133.5c0.5-1.6,0.9-3.1,1.4-4.7C52.7,130.2,54.6,132.5,52.3,133.5z"/>
	<path class="st0" d="M114.3,135.2c0.1-0.2,0.3-0.4,0.4-0.7c0.7,0.5,0.7,0.5,3-2.1c-0.4,1.6-1.5,2.6-2.8,3.5
		C115,135.9,114.6,135.4,114.3,135.2z"/>
	<path class="st0" d="M139.7,140.2c1.7,1.3,3.5,2.2,5.7,1.7C142.9,143.3,141.2,142.1,139.7,140.2z"/>
	<path class="st0" d="M131.8,135.4c0.7-0.6,1.3-1.2,2-1.9c0.5,0.9-0.2,1.5-0.6,2.2C133.1,134.1,132.3,135.5,131.8,135.4z"/>
	<path class="st0" d="M229,138.2c-1.1,1.4-0.8,2.8,0.2,4.1c-2.6-1.6-1.1-3.4-0.3-5.1C229,137.5,229,137.8,229,138.2z"/>
	<path class="st0" d="M84.6,140.6c-0.4,0.5-0.9,0.4-1-0.2c-0.2-1.5,0.4-2.8,1.3-3.9C85.2,137.9,82.8,139.1,84.6,140.6z"/>
	<path class="st0" d="M80.9,149.7c-0.9,1.2-1.6,2.4-1.1,4C78.4,151.8,79.3,150.7,80.9,149.7z"/>
	<path class="st0" d="M104,91.5c1.7-0.2,0.5-1.3,0.7-2c0.6,0.7,1.4,1.5,0.8,2.4C105.1,92.5,104.5,91.9,104,91.5z"/>
	<path class="st0" d="M38.3,130.5c-0.2-1.3,1.4-2.7-0.1-4.1C40.6,127.8,38.6,129.2,38.3,130.5z"/>
	<path class="st0" d="M80.2,154c1.4,0.3,2.8,0.1,4-0.7C83.1,154.7,81.7,155,80.2,154z"/>
	<path class="st0" d="M205.8,137.8c2.6-4,3.9-8.5,5.1-13c0.2-0.8,0.6-1.9,1.6-1.6c0.5,0.2,1,1.4,0.9,2.1c-0.1,1.3-0.6,2.5-0.9,3.7
		c-2.7,2.4-2.4,6-3.5,9c-0.4,1-0.7,2.5-1.9,2.4C205.8,140.4,206.1,138.8,205.8,137.8z"/>
	<path class="st0" d="M222.9,133.8c0.9-0.3,1.5-2.5,1.9-1.6c1,2.2,0.5,4.7-0.6,6.9c-0.3,0.6-1.2,1.8-2.2,1.3c-1-0.6-0.7-1.8-0.4-2.7
		C222,136.3,222.4,135,222.9,133.8C222.9,133.8,222.9,133.8,222.9,133.8z"/>
	<path class="st0" d="M188,138.4c0.8-1.5,2-3.5,3.2-5.4c0.1-0.2,0.8-0.2,1.2-0.1c0.1,0,0.2,0.7,0.1,1c-0.6,1.9-1.2,3.8-1.8,5.7
		c-0.2,0.7-0.3,1.5-1.3,1.4C188.4,140.8,188,140,188,138.4z"/>
	<path class="st0" d="M185.7,135.9C185.7,135.9,185.7,135.9,185.7,135.9L185.7,135.9L185.7,135.9z"/>
	<path class="st0" d="M186,136c-0.1,0-0.2-0.1-0.3-0.2c0,0,0,0,0,0C185.8,135.9,185.9,136,186,136z"/>
	<path class="st0" d="M200,135.8c0.2-0.3,0.4-0.6,0.7-0.9c0.5-0.6-0.9-2.4,0.8-2c1.3,0.3,1.3,2.1,0.8,3.2c-0.8,1.9-1,5.5-2.8,5
		C197.5,140.4,200.3,137.7,200,135.8C200,135.8,200,135.8,200,135.8z"/>
	<path class="st0" d="M199.2,132.2c-0.2,0.1-1.3-0.7-1.5-1.3c-0.4-1.6-0.9-3.3,0.5-4.7c0.6-0.6,0.8,0.1,0.9,0.6v0.5c0,0.7,0,1.3,0,2
		v0.4C198.9,130.6,200.3,131.4,199.2,132.2z"/>
	<path class="st0" d="M81.3,152.9c-0.4-0.7-0.7-1-0.7-1.3c0.3-1.3,1.4-1.9,2.5-2.4c0.1,0,0.5,0.5,0.5,0.6
		C83,150.7,82.2,151.6,81.3,152.9z"/>
	<path class="st0" d="M77.6,136.6C77.6,136.6,77.6,136.6,77.6,136.6C77.6,136.5,77.6,136.5,77.6,136.6L77.6,136.6z"/>
	<path class="st0" d="M77.6,136.5C77.6,136.5,77.6,136.5,77.6,136.5C77.5,136.6,77.5,136.6,77.6,136.5c-1,0.6-0.9,1.7-1.3,2.6
		c-0.4,0.9-0.3,2.8-1.7,2.4c-2-0.5-1.3-2.6-1.5-4.1c0.1-0.1,0.2-0.3,0.2-0.4c0.6-1,1.2-1.9,1.8-2.9c0.1-0.1,0.2-0.3,0.2-0.4
		c1.3-0.6,1.2-3.5,2.7-2.8c1.9,1-0.1,2.8-0.3,4.2C77.6,135.7,77.6,136.1,77.6,136.5z"/>
	<path class="st0" d="M67,138.2c0.8-2.2,2.2-5.1,4.5-7.4c0.6-0.6,1.5-0.7,2.1,0c0.7,0.8-0.3,1.1-0.7,1.6c-1.7,2.1-3,4.4-3.8,7
		c-0.2,0.7,0.1,1.8-1.1,1.7C66.9,140.9,66.9,139.9,67,138.2z"/>
	<path class="st0" d="M239.2,139.1c0.4,0.5,0.7,0.8,0.7,0.9c-0.3,0.6-0.8,1.1-1.2,1.6c-0.2-0.3-0.6-0.6-0.6-0.8
		C238.4,140.3,238.8,139.8,239.2,139.1z"/>
	<path class="st0" d="M221.8,125c-1.1,0.9-1.9,1.4-2.7,1.9c0,0-0.7-0.6-0.8-1c-0.1-1,0.6-1.7,1.6-1.7
		C220.4,124.3,220.9,124.7,221.8,125z"/>
</g>
</svg>
