<?xml version="1.0" encoding="utf-8"?>
<!-- Generator: Adobe Illustrator 25.2.1, SVG Export Plug-In . SVG Version: 6.00 Build 0)  -->
<svg version="1.1" id="Camada_1" xmlns="http://www.w3.org/2000/svg" xmlns:xlink="http://www.w3.org/1999/xlink" x="0px" y="0px"
	 viewBox="0 0 247.2 202.1" style="enable-background:new 0 0 247.2 202.1;" xml:space="preserve">
<style type="text/css">
	.st0{fill:#77CCD2;}
	.st1{fill:#155EC2;}
	.st2{fill:#1C67C1;}
	.st3{fill:#77CAD0;}
	.st4{fill:#267CC0;}
	.st5{fill:#B8D9DA;}
	.st6{fill:#2271C2;}
	.st7{fill:#1C62C4;}
	.st8{fill:#606878;}
	.st9{fill:#24A4C1;}
	.st10{fill:#78C7CD;}
	.st11{fill:#1F64C4;}
	.st12{fill:#2165C5;}
	.st13{fill:#1EA8BE;}
	.st14{fill:#2367C5;}
	.st15{fill:#0B3CA3;}
	.st16{fill:#546272;}
	.st17{fill:#1A60C3;}
	.st18{fill:#1C9BBB;}
	.st19{fill:#27AAC2;}
	.st20{fill:#1056C1;}
	.st21{fill:#249DC2;}
	.st22{fill:#0F54C2;}
	.st23{fill:#1874C2;}
	.st24{fill:#B2D0D3;}
	.st25{fill:#1F91C2;}
	.st26{fill:#566978;}
	.st27{fill:#197FC1;}
	.st28{fill:#198EB7;}
	.st29{fill:#115DC2;}
	.st30{fill:#0C4AC1;}
	.st31{fill:#156BC1;}
	.st32{fill:#1364C1;}
	.st33{fill:#F2F8FB;}
	.st34{fill:#2AB1C2;}
	.st35{fill:#EAEDEF;}
	.st36{fill:#2879C3;}
	.st37{fill:#85CDD8;}
	.st38{fill:#1D88C2;}
	.st39{fill:#636F7C;}
	.st40{fill:#25ABC1;}
	.st41{fill:#1C7CC2;}
	.st42{fill:#318AC3;}
	.st43{fill:#3C87C8;}
	.st44{fill:#0D45C2;}
	.st45{fill:#556574;}
	.st46{fill:#167CB3;}
	.st47{fill:#239DC2;}
	.st48{fill:#24A3C2;}
	.st49{fill:#3D94C4;}
	.st50{fill:#1787B5;}
	.st51{fill:#378BC4;}
	.st52{fill:#1782B4;}
	.st53{fill:#61B2BC;}
	.st54{fill:#195FC3;}
	.st55{fill:#1A7BC2;}
	.st56{fill:#0D47A5;}
	.st57{fill:#155BC2;}
	.st58{fill:#4B9FBB;}
	.st59{fill:#2871C5;}
	.st60{fill:#1D64C4;}
	.st61{fill:#2E7BC5;}
	.st62{fill:#2770C4;}
	.st63{fill:#566B7A;}
	.st64{fill:#68707D;}
	.st65{fill:#79C3C1;}
	.st66{fill:#606877;}
	.st67{fill:#1D81C2;}
	.st68{fill:#3E93C3;}
	.st69{fill:#DAEFF3;}
	.st70{fill:#5AA9BE;}
	.st71{fill:#2294C2;}
	.st72{fill:#545F6E;}
	.st73{fill:#636B7A;}
	.st74{fill:#1E6FC5;}
	.st75{fill:#D6F0F2;}
	.st76{fill:#6C7683;}
	.st77{fill:#CEE4F1;}
	.st78{fill:#5F6B79;}
	.st79{fill:#6C7583;}
	.st80{fill:#EFF6FA;}
	.st81{fill:#F1F7FB;}
	.st82{fill:#26B1C2;}
	.st83{fill:#DADBDF;}
	.st84{fill:#6F7885;}
	.st85{fill:#6E7B87;}
	.st86{fill:#5F6E7C;}
	.st87{fill:#697684;}
	.st88{fill:#3F7DCD;}
	.st89{fill:#4F5869;}
	.st90{fill:#727986;}
	.st91{fill:#757C89;}
	.st92{fill:#747C89;}
	.st93{fill:#3E7ACF;}
	.st94{fill:#61ACD2;}
	.st95{fill:#515D6D;}
	.st96{fill:#556978;}
	.st97{fill:#546776;}
	.st98{fill:#FDFDFD;}
	.st99{fill:#566D7B;}
	.st100{fill:#556977;}
	.st101{fill:#5C7F8B;}
	.st102{fill:#58717F;}
	.st103{fill:#FBFBFB;}
	.st104{fill:#FCFDFD;}
	.st105{fill:#566A79;}
	.st106{fill:#597582;}
	.st107{fill:#505B6B;}
	.st108{fill:#597482;}
	.st109{fill:#576F7D;}
	.st110{fill:#4F5968;}
	.st111{fill:#4F5868;}
	.st112{fill:#597481;}
	.st113{fill:#546473;}
	.st114{fill:#ADDCE1;}
	.st115{fill:#5E818D;}
	.st116{fill:#5B7A87;}
	.st117{fill:#556A79;}
	.st118{fill:#597280;}
	.st119{fill:#1672C0;}
	.st120{fill:#116AAE;}
	.st121{fill:#1271AF;}
	.st122{fill:#1064AC;}
	.st123{fill:#105DAB;}
	.st124{fill:#4196BB;}
	.st125{fill:#E0EEF5;}
	.st126{fill:#2B84C0;}
	.st127{fill:#338DC2;}
	.st128{fill:#2478C1;}
	.st129{fill:#2979C3;}
	.st130{fill:#1054C2;}
	.st131{fill:#BADCDD;}
	.st132{fill:#5E6A78;}
	.st133{fill:#687783;}
	.st134{fill:#626F7D;}
	.st135{fill:#6A7985;}
	.st136{fill:#505969;}
	.st137{fill:#505A69;}
	.st138{fill:#535C6C;}
	.st139{fill:#606E7B;}
	.st140{fill:#E0E1E4;}
	.st141{fill:#5E6776;}
	.st142{fill:#E1E2E5;}
	.st143{fill:#E2E3E6;}
	.st144{fill:#1F99C1;}
	.st145{fill:#1C89C1;}
	.st146{fill:#1E7FC3;}
	.st147{fill:#F1F8FA;}
	.st148{fill:#E3EFF7;}
	.st149{fill:#1476B1;}
	.st150{fill:#5E6B79;}
	.st151{fill:#5B6675;}
	.st152{fill:#5A6674;}
	.st153{fill:#505A6A;}
	.st154{fill:#E4F0F0;}
	.st155{fill:#F0F2F3;}
	.st156{fill:#EDF5F6;}
	.st157{fill:#EEF6F7;}
	.st158{fill:#E1EBED;}
	.st159{fill:#667481;}
	.st160{fill:#63717E;}
	.st161{fill:#5B6775;}
	.st162{fill:#EEF6F6;}
	.st163{fill:#525B6B;}
	.st164{fill:#525C6B;}
	.st165{fill:#63707D;}
	.st166{fill:#55606F;}
	.st167{fill:#657380;}
	.st168{fill:#677682;}
	.st169{fill:#64727F;}
	.st170{fill:#5E6B78;}
	.st171{fill:#657481;}
	.st172{fill:#515A6A;}
</style>
<g>
	<path class="st0" d="M86.9,111.1l-0.3,0.1l-0.3-0.1c-1.3-1.8-2.9-3.2-4.2-4.9c-2.9-4.4-4.2-9-0.8-13.8c1-1.6,2.5-2.2,4.3-2.1
		c2.1,0.2,4.1,2.1,6.6,0.3c0.5-0.2-0.5-0.9-0.2-0.2c0.1,0.3,0.1,0.4-0.2,0.5c-1.2,0.7-2.4,0.4-3.6,0.1c-2-0.9-3.9-2-5-4.1
		c-0.6-1.8-0.8-3.6-0.5-5.5c0.1-0.5,0.2-0.9,0.3-1.4c0.1-0.7-0.2-1.1,0-0.4c0.2,0.7-0.8-0.1-0.2,0.3c-0.9,2.9-0.4,5.6,0.5,8.3
		c0.1,1.8-1.3,2.8-2.1,4c-1.4,2.7-3.3,4.2-6.4,3.1c-0.5-0.1-0.9-0.4-1.2-0.8c-0.5-1.4-1.6-1.6-2.8-1.4c-0.5,0-1-0.2-1.4-0.4
		c-1.5-1.4-2.5-3.1-3.8-4.6c-0.5-1.2-1.3-2.3-1.5-3.7c-0.3-2.2-0.3-4.3-0.2-6.5c0-0.5,0.1-1.1,0.2-1.6c0.6-2.1,1.5-4,2.8-5.8
		c0.4-0.4,0.8-0.7,1.3-0.9c1.6-0.5,3.2-0.4,4.5,0.7c0.8,1,1.9,1.4,3.1,1.2c-1.4,0.1-2.5-0.4-3.3-1.5c-4.5-7.3-2.3-12.9,5.2-13.5
		c0.7-0.1-0.1-1.1,0.1-0.4c0.1,0.3,0,0.5-0.3,0.5c-9.2,0.6-10.8-1.1-10.4-10.8c0.4-2,1.3-3.7,2.5-5.4c1.1-1.2,1.9-2.6,3.1-3.7
		c4-1.9,8.1-5.5,12.2,0c0.3,0.4,1.1-1.8,2.3-2.2c1-0.6,2.2-0.4,3.2-0.8c-0.1-0.6-0.5-1-0.7-1.6c-0.9-2.4-3.4-4.3-1.9-7.3
		c1.2-2,3.2-3,5.2-4c4-1.5,8-2.3,11.9,0.4c1.5,1.2,2.8,2.4,3.2,4.4c0.4,4.9,0.6,9.9-0.1,14.8c-0.2,0.6-0.5,1.1-0.9,1.6
		c-1.1,0.8-2.3,0.8-3.5,0.7c-3.6-1.4-6.8-3.1-6.5-7.8c0-0.3,0.1-0.7,0.1-1c0.1-0.7,0.3,0.2,0.1-0.5c0-0.2-0.1,0.3-0.2,0.5
		c-0.6,4,1.2,6.6,4.8,8.2c1.6,1.3,3.8,0.3,5.4,1.7c0.4,0.5,0.7,1,0.9,1.6c0.6,5.3,0.5,10.6,0.1,15.8c-0.5,2.1-2,3-3.9,3.6
		c-0.8,0.1-1.7,0.1-2.6,0.1c-4.1-1.4-7.2-3.1-3.9-8.2c1-1.5,0.4-3.5,0.4-4.7c0.5,3.9-0.5,7.5-5.3,9c-1,0.2-1.9,0.6-3,0.5
		c-0.9-0.1-1.6-0.7-2.4-0.9c-0.3-0.1-0.7-0.2-1-0.3c0.2,0.6,0.8,0.3,1.2,0.5c2.1,1.5,4.2,0.6,6.3,0c2.8-0.2,3.5,3,5.8,3.5
		c2.3,1.4,4.8,0.2,7.2,0.6c0.5,0.4,0.9,0.9,1.1,1.4c0.9,9,0.7,18,0.1,27c-0.2,0.6-0.5,1.1-0.9,1.5c-8.3-0.2-8.3-0.2-11.4,5.2
		c1.2-2.8,2.5-4.5,5-5.2c1.7-0.1,3.5-0.2,5.2,0.4c1,0.3,1.6,0.9,2,1.9c1.1,9.5-3.9,15.3-13.2,15.6c-1.8,0.1-3.6,0.1-5.4-0.3
		C88.5,112.1,87.7,111.6,86.9,111.1z"/>
	<path class="st0" d="M68.6,166.1c5.7,5.5,11.6,10.5,20.6,10.7c-8.6,8-19.3,7.7-28.4-0.4c-3.8-3.4-7.4-7.1-10.9-10.8
		c-1.6-1.7-3.2-2.9-5.6-2.8c-1.5-1.5-2.3-3.6-4-4.9c-2-1.8-3.4-4.3-5.4-6.2c-0.9-0.8-1.6-1.8-2.5-2.7c-1.7-1.8-4-2.6-5.9-3.9
		c-0.8-0.5-1.6-1-2.4-1.3c-1.3-0.6-2.6-0.4-4-0.1c-0.5,0.1-1,0.1-1.4,0c-2.1-0.3-3.7,0.9-5.2,2.1c-3.8,1.7-4.3,4.9-4.1,8.5
		c0.1,2.1,1.4,4.2-0.1,6.2c-6.1-6.5-9.7-13.8-6.9-23c2.1,0.3,1.2-2.3,2.5-2.7c3.4-4.2,8.2-5.6,13.3-6.2c2,0,4-0.1,5.9,0.4
		c1.8,0.5,3.7,0.8,5.6,1.2c3.2,1.3,6.4,2.5,9.3,4.4c3.3,1.6,5.5,4.6,8.2,6.9c3.7,4.1,8.3,7.5,11.2,12.3
		C61.3,158.1,63.9,163,68.6,166.1z"/>
	<path class="st1" d="M118.1,159.5c2.1-0.3,2.4-4.6,5.6-2.4c0.4,5.6-1.9,8.6-7.2,9.4c-2.8,0.4-5.8,0.6-8.6-0.2
		c-6.3-2.7-8.6-8-8.3-14.4c0.3-6.2,2.8-11.7,8.7-14c5.3-2.1,11.1-2.8,15.5,2.5c0.5,2.9-0.2,4.6-3.6,3.8c-0.4-0.3-0.7-0.5-1.1-0.8
		c-5.4-2.4-9.8-0.6-11.1,4.9c-0.6,2.5-1.2,5.3,0.4,7.8c1.2,1.4,2.4,2.8,4.2,3.5C114.5,160.3,116.3,160.4,118.1,159.5z"/>
	<path class="st2" d="M137,158.4c0.3,1.2,0.8,2.4,0.9,3.7c0.2,1.9,2.1,4.7-1.9,4.8c-2.9,0.1-6.3,0.6-6.8-3.6
		c-0.9-7.8-1.2-15.7-0.6-23.5c0.4-5,4.4-3.3,7.1-2.6c1.5,0.4,2.7,1.8,4.4,0.5c4-2.9,7-0.6,10,1.8c0.5,0.7,0.7,1.5,0.5,2.4
		c-1.2,1.9-2.3,3.9-5.1,3.3c-0.3-0.3-0.6-0.6-1-1c-3.2-2.7-5.4-1.2-6.8,1.9C135.9,150.2,135.6,154.3,137,158.4z"/>
	<path class="st3" d="M88.4,25.6c-1.2,3,3.9,3.9,2.2,7c-0.4,1-1.2,1.3-2.2,1.3c-7-0.1-11.3,0-15.8,3.3c-0.7,1.1-1.5,2-2.4,2.9
		c-1.2,1.4-1.8,3.1-2.5,4.7c-0.8,2.6,0.8,5.5-1.3,7.9c-7.4-7.5-3.4-20.2,7.6-22.9c4.3-1.1,6.4-2.6,8-6.9c3.4-9.1,16.8-10.6,23-3.3
		c-4,0.8-8.4-0.6-12.2,1.6C91.1,22.4,88.5,22.7,88.4,25.6z"/>
	<path class="st4" d="M206.2,162.8c0.6,1.6,2.2,3.7-1,4.1c-2.6,0.4-6.5,1-7.2-2.3c-1.9-8.6-1.6-17.5-0.5-26.2c0.4-3.2,5-2.7,7.1-0.5
		c1.4,1.4,1.6,1.7,3.2,0.4c3.9-3.2,7.3-1.9,10.3,1.5c0.7,3.6-0.5,5.7-4.5,5.4c-0.3-0.3-0.7-0.7-1-1c-4.5-1.7-7.2,0.1-7.6,5.3
		C204.8,154,205,158.5,206.2,162.8z"/>
	<path class="st5" d="M159.8,73.7c8.5,7.9,5,21.6-6.7,25.7c-2.7,0.9-3.9,1.9-4.8,4.8c-3.4,10.7-10.9,15.5-21.5,14.6
		c-2.6-0.2-5.1-0.7-6.5-3.3c2.9-2.7,6.9-0.5,10.1-2.2c2.4-0.6,4.8-1.1,6.7-2.8c1-0.7,1.8-1.5,2.6-2.4c1.3-1.4,2.2-3.2,2.9-4.9
		c0.5-1.1,0.8-2.3,1.2-3.5c0.6-2.3,2.1-3.9,4.4-4.7c2-0.8,3.9-1.7,5.5-3.1c0.5-0.5,1.1-0.9,1.6-1.3c1.1-0.9,2-1.9,2.7-3.1
		c0.6-1,0.9-2.2,1.2-3.3c0.7-2.7,0.5-5.4,0-8.1C159.1,75.1,159.3,74.4,159.8,73.7z"/>
	<path class="st6" d="M153.3,137.5c0.4-0.3,0.8-0.6,1.2-1c1.8-1.4,3.6-1.8,5.4,0c1.7,1.8,1.5,4,1.3,6.2c-0.4,6.2,0,12.4,1.1,18.6
		c0.4,2.1,2.8,5.4-2,5.6c-3.6,0.2-7.3,0.3-7.5-4.8c-0.2-6-0.3-12.1-0.4-18.1C151.9,141.8,152.8,139.7,153.3,137.5z"/>
	<path class="st7" d="M171.1,105.8c1.7,0,2.6,0,3.5,0c1.4,0,2.6,0.4,2.6,2.1c0,1.5-1.1,1.6-2.3,1.8c-1.8,0.2-4.4-0.7-4.3,2.6
		c0.1,3.1,2.5,2,4.1,2.1c1.5,0.2,2.6,0.6,2.5,2.2c-0.1,1.8-1.6,1.7-2.9,1.7c-1.8,0.1-3.7-0.2-3.8,2.7c-0.1,3,1.6,3.2,3.9,3.1
		c1.3-0.1,2.8,0,2.8,1.8c0,1.9-1.5,1.6-2.8,1.8c-7.5,0.8-7.9,0.5-7.9-7.3c0-3.1,0.2-6.2,0-9.3C166.2,107,166.9,104.4,171.1,105.8z"
		/>
	<path class="st8" d="M114.8,106.8c-2.2-0.2-1.9-1.8-1.9-3.3c0-24.7,0-49.4,0-74.1c0-1.1-0.1-2.2,1-3c0.7-0.3,1.2-0.1,1.6,0.5
		c1.4,4.6,0.8,9.3,0.5,14c-0.8,2.3-1,4.6-0.1,6.9c0.5,3,0.5,6,0,9c-1,2.7-0.6,5.3,0.2,8c0.4,9.5,0.4,19,0,28.5
		c-0.4,1.8-0.8,3.6-0.1,5.4C116.2,101.4,117,104.3,114.8,106.8z"/>
	<path class="st9" d="M56.2,134.1c3.1-5.5,4.5-11.3,2.6-17.6c0.4-0.3,0.9-0.4,1.3-0.2c0.7,0.4,1.2,0.9,1.6,1.5c1,1.5,2,2.9,2.6,4.6
		c0.7,2.4,2,4.6,1,7.2c-1.4,3.1-0.7,6.5-0.7,9.7c0,3.8-0.6,7.2-2.7,10.4c-0.8,1-1.6,2.1-2.4,3.1c-0.5,0.4-1,0.4-1.5,0.1
		c-0.9-0.8-1.3-1.7-1.2-2.9C57.1,144.7,58.2,139.4,56.2,134.1z"/>
	<path class="st10" d="M62.9,85.8c-4.7-5.1-5.3-11.1-1.9-16.6c2.8-4.6,4.9-9.3,6.4-14.4c3.9,2.1,5.1,9.4,2.1,13.7
		c-0.5,0.7-1.3,1.2-2,1.9l0.1-0.1c-1.5,1.4-2.2,3.2-3,5c-0.8,3.1,0.1,6.3-0.6,9.4C63.7,85.2,63.3,85.6,62.9,85.8z"/>
	<path class="st11" d="M207.2,114.4c2.2-5.2,6.7-2.8,10.3-3c1.2-0.1,1,1.7,1,2.7c0.1,2.2,0.3,4.4,0,6.5c-0.3,2.3,1.7,5.8-1.5,6.7
		c-3.5,0.9-7.7,1.7-9.8-3.1C205,121,205.9,117.7,207.2,114.4z"/>
	<path class="st12" d="M235,113.3c3.1-2.9,6.3-3.8,9.5-0.4c3,3.1,3.1,10.4,0.1,13.3c-3.4,3.2-6.6,2.1-9.6-0.9
		C231.4,120.6,231.4,118.6,235,113.3z"/>
	<path class="st13" d="M3.6,174.8c0.4-3.2,2.5-5.4,4.4-7.8c4.2,4.8,5,11.1,7,16.9c-0.5,1.2-1.3,1.9-2.5,2c-2.6,0.8-5.3,0.8-7.9,0.1
		c-0.4-0.3-0.7-0.6-1.1-0.8C0.9,181.7,2.8,178.2,3.6,174.8z"/>
	<path class="st14" d="M225.9,129.8c-2.1-3.6-5.9-6.3-5.1-11.3c0.5-3.1,1-6.2,4.5-7.4c3.4-1.2,5.4,0.8,7.2,3.3
		c1.4,2.3,1,3.6-1.8,3.9c-1.4,0.2-3.9-2.6-4.1,0.9c-0.3,3.7,2.3,1,3.7,1.3c2.8,0.5,4.4,1.8,2.1,4.7c-1.2,0.9-1.9,2.5-3.7,2.5
		C227.4,128,227.9,130.6,225.9,129.8z"/>
	<path class="st7" d="M189.5,119c0.4,2,1.6,3.9,1.1,6c-1.9,4.2-5.1,3.9-8.6,2.4c-0.4-0.6-0.9-1.1-1.3-1.7c-0.7-1-1.7-2.2-0.3-3.3
		c1-0.7,2-0.1,2.7,1c1,1.4,2.4,2.1,3.4,0.4c1.1-1.8-0.4-2.5-1.9-3c-2.8-0.9-4.9-2.5-4.8-5.8c0-1.8,1.1-3.2,2.7-3.8
		c2.8-1,5.4-0.6,7.3,1.9c1,1.7,0.1,2.5-1.5,3c-0.3,0.1-0.7,0.1-0.9,0.3c0.1,0.1,0.2,0.1,0.3,0.2C188.7,117.2,189.3,118,189.5,119z"
		/>
	<path class="st15" d="M29,117.8c3.1-2.7,6.2-2.2,8.7,0.5c3.4,3.7,4.1,8,1,12.5c-2,0.9-3.5-0.1-5.1-1.1c-1.3-1-2.8-1.6-3.4-3.3
		C29.7,123.5,27.3,120.9,29,117.8z"/>
	<path class="st16" d="M107.1,96.7c-0.4-0.4-0.7-0.8-1.1-1.2c-0.1-0.2-0.3-0.4-0.4-0.6c0.1-0.2,0.3-0.4,0.4-0.5
		c0.4-0.1,0.8-0.1,1.1-0.2c0.4-0.4,0.7-0.9,0.9-1.4c0-9.2,0.7-18.4-0.4-27.5c-0.2-0.2-0.5-0.3-0.7-0.5l-0.5,0l-0.5,0
		c-1.1,0.5-2.3,1-2.2-1c1.3-0.4,2.7-0.8,3.2-2.3c0.4-0.4,0.7-0.8,0.9-1.4c0.3-5.3,0.3-10.6,0-15.8c-0.2-0.6-0.3-1.1-0.2-1.7
		c0.8-4,0.1-8,0.4-12c0.1-1.6-0.7-3.9,2-4.3c0.5,27.1,0.6,54.2-0.1,81.3c-2.4-0.2-2.1-2.1-2.1-3.7c0-2,0.2-4-0.1-5.9
		C107.8,97.6,107.5,97.1,107.1,96.7z"/>
	<path class="st17" d="M204,124c-1.4,1.8-2,5.1-5.5,3.4c-4.4-1.1-1.6,3.5-4.7,4.9c-0.3-7.3-0.7-14.1,0.3-21.1c4-0.3,7.9-0.5,10,3.9
		C205.5,118.2,206.1,121.1,204,124z"/>
	<path class="st18" d="M15,183.9c-2.7-0.8-2.3-3.3-3-5.3c-1.3-3.9-2.7-7.7-4-11.6c0.1-2.3,2.6-3.8,2.1-6.3c0.4-0.3,0.9-0.4,1.5-0.2
		c1.7,4.1,4,8,4.8,12.5c0.3,1.9,1.3,3.3,3,4.2C18.4,179.7,17,182,15,183.9z"/>
	<path class="st19" d="M62,149.7c1.6-5.3,0.8-10.8,1.1-16.3c0.1-1.8-0.9-4.3,2.2-4.8c1.5,1.1,0.9,2.9,1.5,3.8
		c0.5-2.8-2.5-6.7,1.3-9.6c5,3.9,1.9,8.7,1.6,13.2C68.2,141.3,65.9,145.9,62,149.7z"/>
	<path class="st20" d="M11.4,160.6c-0.4,0-0.8,0.1-1.3,0.1c-0.3,0-0.5-0.1-0.8-0.3c-0.7-3.2-2-6.3-1.2-9.5c0.7-2.8,0.8-6.4,5.4-5.8
		c1.9-0.6,3.1,0.3,4,1.8c0.3,0.7,0.3,1.5,0.1,2.3c-0.5,1.6-1.4,3-1.8,4.7c-0.1,0.4-0.3,0.9-0.5,1.3c-0.4,0.8-0.8,1.7-1.2,2.5
		C13.4,158.8,12.9,160.2,11.4,160.6z"/>
	<path class="st21" d="M56.2,134.1c0.8,0,2.3-0.8,2.3,0.4c-0.1,5.4,1.4,10.9-0.8,16.1c-4.2-2.1-7-5.3-7.8-10
		C51.9,138.5,54.1,136.3,56.2,134.1z"/>
	<path class="st22" d="M16.9,116.5c-1.8,0.9-3.1,2.9-5.5,2.3c-2.8-4.6-1.4-9.5-1.3-14.3c1.8-1.1,3.6-2.2,5.5-3.3
		c0.4-0.1,0.9-0.2,1,0C19.2,104.1,19.4,113,16.9,116.5z"/>
	<path class="st23" d="M34.5,110.9c-1.7,0.9-3.5,1.5-5.5,1.5c-0.4-2.9-0.2-5.8-0.3-8.7c-0.1-3-0.9-5.3-3.3-7.1
		c1.3-1.1,2.8-1.2,4.4-1.1c6.5-0.9,7.2-0.4,7.1,5.8C37,104.7,38.3,108.6,34.5,110.9z"/>
	<path class="st24" d="M156.8,42.7c5.1,5.9,5.8,11,1.4,16.7c-3.1,3.9,0.9,7.4-0.4,11c-1.5,0.5-2.1-0.8-3-1.5
		c-0.5-0.5-0.9-1.1-1.1-1.8c-0.5-1.8-0.2-3.8-0.7-5.6c-0.1-0.5-0.2-0.9-0.3-1.4c-0.3-1.8,0.3-3.4,1.1-4.9c0.2-0.4,0.5-0.9,0.8-1.3
		c1.8-2.3,2.5-4.8,1.6-7.6c-0.1-0.5-0.2-1-0.2-1.5C155.8,43.9,156,43.2,156.8,42.7z"/>
	<path class="st25" d="M46.6,95.4c1.5,0.1,3.2,0,4.4,1.2c2.3,1.7,2.7,4.2,2.7,6.8c0,1.6-0.5,3.4,1.5,4.3c0.9,0.6,1.8,1.2,1.5,2.5
		c-1.1,1-2.2,1.6-3.7,1c-4.6-1.3-9.3-1.5-14-1.2c0.1-2.7,2.3-2.2,3.9-2.6c3.1,0,3.2-2.2,3.4-4.5C46.4,100.4,45.2,97.8,46.6,95.4z"/>
	<path class="st26" d="M67.5,70.4c1.5-5.2,5.3-10.4-0.1-15.5c-0.3-0.7-0.6-1.4-0.9-2.1c0.2-3-0.9-6.2,0.9-9c0.7,0.1,0.8,0.8,1.2,1.3
		c0,0.9,0,1.8,0,2.7c-0.1,4.8,0.7,8.7,7.1,8.1c1.2-0.1,2.9-0.4,4.1,0.9c-8.2,1-9.3,3.3-6.7,13.7l0-0.1
		C71.2,70.3,69.3,70.4,67.5,70.4z"/>
	<path class="st27" d="M43.2,108.8c-1.5,0.2-3.3-0.5-4.4,1.2c-0.3,0.1-0.7,0.1-1,0.2c-2.4-5-0.6-10.4-1.1-15.5c1.8,0,3.7,0,5.5,0
		C45.6,98.4,45.9,103.2,43.2,108.8z"/>
	<path class="st28" d="M11.4,160.6c0.7-1.1,1.4-2.2,2.2-3.3c2.8-0.1,2.3,2.4,2.9,3.8c1.7,4.2,2.4,8.9,5,12.7c-0.2,1.4-0.9,2.5-2,3.4
		c-2.1,1-3.4-0.5-3.6-1.9C14.9,170.1,11.1,166,11.4,160.6z"/>
	<path class="st29" d="M16.9,116.5c0.2-5.2,0.9-10.4-1.3-15.4c1.2-1.3,2.7-2,4.4-2.2c1.7-0.4,2.3,0.9,2.5,2.1
		c0.5,4.5,1.6,9.1,0.1,13.7C20.8,115.8,19.1,116.8,16.9,116.5z"/>
	<path class="st30" d="M10.1,104.4c2.7,4.6,0.6,9.6,1.3,14.3c-2.6,0.7-5,2.9-8,1.3c3.2-3.4,1.8-6.8-0.1-10.2
		C4.8,107.1,8,106.4,10.1,104.4z"/>
	<path class="st31" d="M25.5,96.7c3.4-0.3,5.4,1.1,4.5,4.6c-0.9,3.7,3,7.7-1,11.1c-1.1,0.4-2.2,0.8-3.3,1.2
		c-1.6-2.6-1.4-5.6-1.4-8.5c0-2.6-0.6-5-2-7.3C23.2,97,24.3,96.6,25.5,96.7z"/>
	<path class="st32" d="M22.3,97.8c1.4,0.1,3.3,0,3.2,2c-0.2,4.6,1.1,9.2,0.2,13.8c-0.9,0.9-2.1,1-3.3,1c-1.1-3.3-1.3-6.7-1.2-10.2
		c0-1.9,0.7-4.1-1.3-5.6C20.5,97.9,21.4,97.8,22.3,97.8z"/>
	<path class="st33" d="M232.3,125.3c-0.1-1.2,0.8-2.6-0.6-3.5c-1.5-0.9-2.1,0.2-3,1.3c-2.5,3.1-3.6,1.3-4-1.5
		c-0.2-1.4-0.2-2.9,0.1-4.3c0.6-2.6,1.6-4.3,4.2-1.2c2.6,3.1,3.5,1.5,3.4-1.6c0.9-0.4,1.7-0.7,2.6-1.1c-1.5,4-1.5,7.9,0.1,11.9
		C234.2,125.3,233.2,125.3,232.3,125.3z"/>
	<path class="st34" d="M69.7,136.1c-0.6-4.3,1.6-9.2-2.2-13c-0.5-0.5-0.9-1-1.1-1.7c-0.2-4-1.7-8.2,1.3-11.9
		C73.3,118.1,73.7,126.9,69.7,136.1z"/>
	<path class="st35" d="M107.1,96.7c0.3,0,0.6,0,1,0.1c0.9,4.9,1.9,9.9-1,14.6c-0.2,0.2-0.5,0.5-0.7,0.7c-4.2,3.1-9,2.4-13.7,1.8
		c-1.4-0.6-3.2-0.6-3.2-2.8c0.9,0,1.8-0.1,2.7-0.1C103.5,111,106.6,108,107.1,96.7z"/>
	<path class="st36" d="M172.7,165.1c4.3,0,8.7-0.4,13-0.1c4.2,0.3,5.1-1.4,5.2-5.3c0.1-6-0.8-11.9-1.2-17.8
		c3.5,4.7,2.1,10.2,2.4,15.4c0.5,9.8,0.3,9.9-9.8,9.7C178.9,167.1,175.6,167,172.7,165.1z"/>
	<path class="st37" d="M229.5,159.2c-2.5-2.3-2.3-3.8,0.8-5c2.7-1.1,5.7-1.4,8.3-2.7c3.9-1.9,8-4,6.2-9.8c3.3,3.4,3.1,7-0.6,9.9
		c-2.7,2.1-6,2.6-9.1,3.6C233,156,229.8,155.6,229.5,159.2z"/>
	<path class="st38" d="M43.2,108.8c-0.4-4.7,1.1-9.5-1.1-14.1c1.5-0.2,3.1-0.4,4.4,0.7c1.5,3,0.8,6.3,1.1,9.4
		C48,108.3,46.3,109.2,43.2,108.8z"/>
	<path class="st39" d="M137.8,26.4c0.7,6.7,6.8,6.7,11.1,8.8c0.4,0.9-0.2,1.4-0.9,1.8c-0.5,0.2-1,0.3-1.5,0.3
		c-1.4,0.1-2.8-0.7-4.2-0.5c-2,1.4-0.8,5.8-4.5,5.3c-3-0.5-1.4-4.2-3-5.9c-0.4-0.4-0.5-1-0.6-1.5c0-0.8,0.2-1.5,0.5-2.2
		c0.8-1.6,0.6-3.4,1.2-5.1C136.4,26.7,136.9,26.1,137.8,26.4z"/>
	<path class="st40" d="M67.7,109.6c-0.1,4.2-0.1,8.3-0.2,12.5c-2.9,0-3.1-2.8-4.5-4.4c-0.8-1.3-1.2-2.8-1.3-4.3
		c0.1-3.2-1-6.5,1.6-9.3C65.2,105.5,66.9,107.2,67.7,109.6z"/>
	<path class="st41" d="M35.6,150.8c2.7,1.4,3.6,4.4,5.7,6.4c0.2,3.2,0.8,6.6-3.4,7.7c-3.7,2-7.8,1.2-11.8,1.4
		c-0.2-0.2-0.4-0.3-0.6-0.5c0-0.5,0.1-1,0.5-1.4c0.4-0.3,0.9-0.5,1.4-0.6c7.8-0.5,7.7-0.5,7.5-8.6C34.8,153.8,34.2,152.1,35.6,150.8
		z"/>
	<path class="st42" d="M18,129.8c-5,0.5-9.2,2.7-13.2,5.6c-0.4,0.3-0.8,0.3-1.1-0.1c2.3-5.1,6.6-7.7,11.9-8.9c0.5-0.2,1-0.6,1.5-0.4
		c1.9,0.5,5.1-1.5,5.5,1.5C22.9,130.4,19.2,128.4,18,129.8z"/>
	<path class="st43" d="M155.7,133.9c-1.3-1.6-3.8-3-1.7-5.4c1.6-1.8,4.1-1.8,6-0.8c2.5,1.3,3.6,3.5,2,6.3
		C159.9,135,157.8,136.1,155.7,133.9z"/>
	<path class="st44" d="M3.3,109.8c5.2,3.9,5.2,7.7,0.1,10.2C-1.1,117.9-1.1,115.3,3.3,109.8z"/>
	<path class="st45" d="M82,92.6c-2.6,4.8-0.8,9.4,1,13.9c0.5,0.5,0.5,0.9-0.1,1.3c-2.9-1.9-4-5.1-5.3-8c-1-2.1-2.2-3.8-4.5-4.4
		c-0.1-1,0.2-1.5,1.3-1.1c2.9,0.6,5-0.5,6.4-3.1C81.8,91.2,82.3,91.5,82,92.6z"/>
	<path class="st46" d="M14.7,154c0.2-1.7,0.8-3.3,2.2-4.4c4,0.6,3.8,4.3,4.9,7c1.4,3.1,1.1,6.9,3.8,9.5c0,0,0.4,0.3,0.4,0.3
		c-0.5,0.7-0.9,1.3-1.4,2c-3.1,2.8-3.8,0-4.6-2.1C18.4,162,17.3,157.7,14.7,154z"/>
	<path class="st47" d="M56.5,110c-0.5-0.9-1.3-1.1-2.2-1.1c-1.7-3.7-1.3-7.3,0-11c1.5,0,2.5,0.7,3.4,1.8c3.3,3.3,2.7,7.5,2.6,11.6
		C58.1,113.4,57.3,111.7,56.5,110z"/>
	<path class="st48" d="M59.8,112.2c-0.7-4.1-1.4-8.3-2.1-12.4c2.3,0.8,4.1,2.4,5.5,4.3c0,3.4-0.1,6.9-0.1,10.3
		c-0.4,0.4-0.8,0.5-1.3,0.5c-1.1-0.2-1.7-1-2-2C59.8,112.7,59.8,112.4,59.8,112.2z"/>
	<path class="st49" d="M228,166.2c2.2,0,4.3-0.1,6.5-0.1c6.3-0.1,9-2.2,11.3-8.6c2.8,4.9-0.6,7.6-4.2,9.3
		C237.2,168.7,232.4,169,228,166.2z"/>
	<path class="st50" d="M21.4,173.8c-2.1,1-2.3-0.5-2.8-1.9c-1.6-4.9-3.4-9.8-5.1-14.7c0.1-0.9,0.2-1.7,1.1-2.2
		c2.5-0.3,2.2,1.8,2.7,3.2c1.9,4.5,2.7,9.3,5.3,13.5C22.6,172.6,22.3,173.4,21.4,173.8z"/>
	<path class="st51" d="M206.2,162.8c-2.4-5.9-3.9-11.9-0.5-17.8c1.7-2.9,4.1-5.2,7-0.8c-5.2-1.2-6.4,2.4-6.7,6.1
		C205.7,154.5,206.1,158.7,206.2,162.8z"/>
	<path class="st52" d="M22.7,171.7c-4.3-2.6-4.1-7.5-5.6-11.4c-0.7-1.8-0.7-3.9-2.5-5.3c0-0.4,0-0.7,0.1-1.1c2-1.1,2.8,0.4,3,1.8
		c0.5,4,3.6,7.1,3.8,11.2c0.1,2,1.6,2.1,3.2,1.4C24.6,169.8,23.7,170.8,22.7,171.7z"/>
	<path class="st53" d="M49.8,140.7c2.6,3.3,5.2,6.7,7.8,10c0.4,0.7,0.7,1.4,1.1,2c0.5,1.3-0.1,1.5-1.2,1.3c-3.7-4-7.3-8.1-11-12.1
		c0-0.9,0.4-1.6,1.1-2.2C48.4,140,49.1,140.3,49.8,140.7z"/>
	<path class="st54" d="M76.9,165.2c4.5,1.1,9.1,1.5,13.4-0.4c2.4-1.1,6.5-2.3,3.2-6.6c0.4-1,0.9-2.5,2-2.3c1.4,0.2,1.6,1.8,1.6,3
		c-0.2,3.4-2.2,5.9-5.2,7.1C86.8,168.1,81.7,168.7,76.9,165.2z"/>
	<path class="st55" d="M36.7,94.6c2.2,5,0.5,10.4,1.1,15.5c-1,0.9-2.1,0.8-3.3,0.7c2.1-4.1,1-8.6,0.9-12.8c-0.1-3.8-3.6-1.9-5.5-2.5
		C32,94.2,34.3,94.4,36.7,94.6z"/>
	<path class="st56" d="M29,117.8c0.4,3,2.4,5.7,2.1,8.9c-0.9,0.8-2,0.8-3.1,0.6c-1.8-0.6-3.7-0.9-4.4-3.1
		C24.8,121.6,25.8,118.8,29,117.8z"/>
	<path class="st57" d="M81.9,154.2c1-1.8,2.8-2,4.6-2.5c7.5-1.9,8.5-3.2,8.5-10.8c3.7,3.5,2.5,6.8-0.9,9.5
		C90.5,153.1,86.3,154.2,81.9,154.2z"/>
	<path class="st58" d="M34.3,128.7c1.5,0.7,3,1.4,4.4,2.1c0.8,0.8,1.6,1.7,2.3,2.5c0.9,2.4-0.1,2.8-2.2,2c-3-1.4-6.3-2.2-8.9-4.4
		C31,129.3,31.8,127.5,34.3,128.7z"/>
	<path class="st59" d="M108.4,156.1c-2.4-4-2-8,0.3-11.8c2.6-4.1,6.6-4.4,10.4-1C111,141.9,107.5,146.1,108.4,156.1z"/>
	<path class="st60" d="M194.1,111.3c0,6.2,0,12.4,0,18.6c0,0.3,0.2,0.6,0.3,0.9c1.3-4.6,1.3-4.6,4-3.3c-3.1,0.2-1.6,2.7-2.1,4.1
		c-0.2,0.7-0.5,1.3-1.4,1.4c-1.1,0.1-1.9-0.4-1.9-1.5C193.5,124.8,191.7,117.9,194.1,111.3z"/>
	<path class="st61" d="M137,158.4c-2.6-4.7-1.7-9.6,0.5-14c1.6-3.1,4.6-4.3,7-0.1c-4.2-1.4-6.2,0.9-6.8,4.5
		C137.1,152,137.2,155.2,137,158.4z"/>
	<path class="st62" d="M107.9,166.2c2-0.1,4,0,6-0.2c5.9-0.4,8.6-2.9,9.8-9c1.6,5,0,8.6-4.8,9.8
		C115.2,167.8,111.4,168.4,107.9,166.2z"/>
	<path class="st63" d="M91.7,20.8c4.3-2.5,8.8-2.5,13.4-1.2c0.3,0.4,0.7,0.8,1,1.1c0.3,1.1-0.2,1.6-1.3,1.3c-3.9-1.9-7.8-0.9-11.7,0
		C91.7,22.5,91.5,21.9,91.7,20.8z"/>
	<path class="st64" d="M91.8,112.9c4.9,1,9.7,0.5,14.5-0.8c-3.1,3.8-8,4.6-14.6,2.3C91.3,113.9,91.3,113.4,91.8,112.9z"/>
	<path class="st65" d="M57.6,154c0.4-0.4,0.8-0.9,1.2-1.3c0.3,0,0.6,0.1,0.9,0.1c1.8,5.2,5.8,8.9,9,13.2
		C62.8,164,60.8,158.4,57.6,154z"/>
	<path class="st66" d="M119.3,19.9c6.9-2,11.4-1.1,14.2,3.1c-0.2,0.2-0.4,0.3-0.6,0.5c-1.3,0.4-2.6-0.1-3.9-0.4
		c-2.7-1.1-5.7-0.6-8.5-1.4C119.8,21.4,119.1,20.9,119.3,19.9z"/>
	<path class="st67" d="M37.8,164.9c3.6-1.5,0.9-5.8,3.4-7.7c1.9,1.3,3.8,2.7,3.1,5.5C42.3,164,40.3,165.2,37.8,164.9z"/>
	<path class="st68" d="M23.6,124.2c1.4,0.7,2.9,1.5,4.3,2.2c-1,1.3-2.1,2.4-3.4,3.4c-2.2,0-4.4-0.1-6.6-0.1c0.7-1.7,3.3-0.3,3.8-2.5
		c-1.9-1.6-4.2-0.4-6.2-0.9C17.9,124.3,21.4,126.6,23.6,124.2z"/>
	<path class="st69" d="M153.3,137.5c-0.3,2.2,0.1,4.5-1,6.6c-2,1.4-3.1,5.7-6.6,2c1.9-0.9,3.2-2.5,4.3-4.2c0-0.7,0-1.5,0-2.2
		C152.7,141.2,152,137.8,153.3,137.5z"/>
	<path class="st70" d="M38.8,135.3c1.3,0,2.1-0.6,2.2-2c3.5,0.8,3.7,5,6.6,6.4c0,0.9-0.2,1.7-1.1,2.2
		C44,139.7,41.4,137.5,38.8,135.3z"/>
	<path class="st71" d="M54.3,97.9c0,3.7,0,7.3,0,11c-2.7-0.3-2.4-2.4-2.1-4c0.6-3-0.2-5.6-1.2-8.3C52.3,96.6,53.4,97,54.3,97.9z"/>
	<path class="st72" d="M131.3,113.2c-0.5,3.3-3.2,2.1-5.1,2.3c-1.9,0.2-3.9,0-5.9-0.1c-0.4-0.4-0.7-0.7-1.1-1.1
		c0.2-0.9,0.8-1.6,1.7-2c3.3-0.7,6.5-1,9.7,0.2C130.9,112.8,131.1,113,131.3,113.2z"/>
	<path class="st73" d="M110.3,26.4c-2,3.2-0.6,6.8-0.9,10.2c-0.2,2.5,0.3,5.2-1.2,7.5c-0.3,0.3-0.6,0.4-1,0.3l0-0.5
		c-0.4-0.5-0.4-1,0-1.5c0.1-0.2,0.1-0.4,0-0.6c1.4-5.3,0.1-10.7,0.7-16.1c0.2-0.7,0.7-1,1.4-1.1C110.2,24.7,110.4,25.4,110.3,26.4z"
		/>
	<path class="st74" d="M56.5,110c1.1,0.7,2.2,1.5,3.3,2.2c0,0,0,0,0,0c0.8,1.5,1.2,2.9,0,4.4c-0.3,0-0.7,0-1,0
		c-2-1.8-3.9-3.6-5.9-5.4C54.1,110.8,55.3,110.4,56.5,110z"/>
	<path class="st73" d="M107.1,111.4c1.7-4.8,2-9.6,1-14.6c3.2,3.1-0.3,7.6,2.2,10.9C110,109.6,109.2,111.1,107.1,111.4z"/>
	<path class="st75" d="M207.2,114.4c0,3.3,0,6.6,0.1,9.9c-0.8-0.4-1.5-0.7-2.3-1.1c-0.7-2.2-0.8-4.4,0-6.6
		C205.8,115.8,206.5,115.1,207.2,114.4z"/>
	<path class="st76" d="M120.4,113c-0.4,0.4-0.8,0.9-1.2,1.3c-3-1.6-6.7-2.8-4.5-7.6c0.5,0,0.9,0.1,1.4,0.4c0.4,0.3,0.7,0.7,1,1
		c0.8,1.4,2.2,2.4,3.4,3.5C120.6,112.2,120.6,112.6,120.4,113z"/>
	<path class="st51" d="M213.7,145.3c2.5-1,4.2-2.6,4.5-5.4c1.9,2,1.3,4-0.4,5.7C216.5,147.1,215,146.9,213.7,145.3z"/>
	<path class="st77" d="M186.4,117.5c-1.5-0.3-3.3-0.6-2.7-2.5c0.5-1.5,2-0.9,3.1-0.1c2.2,1.6,2.9,0.5,2.8-1.7
		c1.3,0.8,1.2,2.1,1.1,3.3C189.5,117.9,187.8,116.6,186.4,117.5z"/>
	<path class="st78" d="M155.5,68.3c0.7,0.7,1.5,1.3,2.2,2c0.7,1.1,1.4,2.2,2.1,3.4c0,0.7,0.1,1.4,0.1,2.1c-0.2,0.2-0.4,0.3-0.6,0.5
		c-0.8,0.2-1.5,0.1-2.1-0.5c-1.3-1.9-2.6-3.7-3.2-6C154.1,69,154.7,68.5,155.5,68.3z"/>
	<path class="st79" d="M156.8,42.7c0,0.9-0.1,1.9-0.1,2.8c-4,0.2-4.3-2.8-4.8-5.6c0.2-0.6,0.6-0.9,1.2-1
		C155.4,39.2,155.4,41.7,156.8,42.7z"/>
	<path class="st80" d="M182,127.5c3.3,0.8,6.4,0.7,8.6-2.4C188.9,129.8,186.4,130.5,182,127.5z"/>
	<path class="st81" d="M155.7,133.9c2.1,0,4.2,0.1,6.4,0.1c-0.7,0.8-1.5,1.7-2.2,2.5c-1.8,0-3.6,0-5.4,0
		C154.9,135.6,155.3,134.7,155.7,133.9z"/>
	<path class="st82" d="M3.6,174.8c0.2,3.5-1.6,6.9-0.1,10.3C0.1,181.7,1.7,178.2,3.6,174.8z"/>
	<path class="st83" d="M115.9,107.9c-0.4-0.4-0.8-0.7-1.2-1.1c0,0,0.1-0.1,0.1-0.1c0-3,0-5.9-0.1-8.9c0.2-1.6,0.9-1.6,1.8-0.5
		C117.6,100.9,118.3,104.5,115.9,107.9z"/>
	<path class="st84" d="M153.1,39c-0.3,0.2-0.7,0.4-1,0.6c-2.3,0.1-4-0.7-4.4-3.3c0.4-0.4,0.8-0.8,1.2-1.1
		C150.8,35.9,152.7,36.6,153.1,39z"/>
	<path class="st85" d="M137.8,26.4c-0.4,0.5-0.8,0.9-1.2,1.4c-2.6-0.5-4.5-1.6-3.1-4.8c0,0,0,0,0,0C136.2,22.5,137,24.4,137.8,26.4z
		"/>
	<path class="st86" d="M66.5,87.8c1.1,1.4,2.2,2.8,3.4,4.2c0.3,0.5,0.3,1-0.2,1.4c-2.2-0.7-3.4-2.5-4.5-4.3
		C65.4,88.4,65.8,88,66.5,87.8z"/>
	<path class="st87" d="M109.2,24.6c-0.3,0.2-0.6,0.4-0.9,0.6c-0.5,0.6-0.9,0.6-1.1-0.2c-0.8-1-1.6-1.9-2.4-2.9
		c0.4-0.4,0.9-0.9,1.3-1.3C107.6,21.6,109.3,22.4,109.2,24.6z"/>
	<path class="st88" d="M225.9,129.8c1.2-0.4,1.3-2.1,2.8-2.1c0.5,1.5,0.9,2.9,0.1,4.4c-0.1,0.5-0.4,1-0.9,1.1c-0.6,0-0.8-0.4-0.7-1
		C226.8,131.4,226.3,130.6,225.9,129.8z"/>
	<path class="st89" d="M66.5,87.8c-0.4,0.4-0.8,0.8-1.3,1.2c-0.8-1.1-1.6-2.2-2.4-3.2c0.2,0.1,0.4,0,0.5-0.1
		c0.1-0.5,0.3-0.9,0.6-1.3c0.5-0.2,0.9-0.2,1.3,0.2C65.7,85.7,66.1,86.8,66.5,87.8z"/>
	<path class="st60" d="M205,116.6c0,2.2,0,4.4,0,6.6c-0.3,0.3-0.7,0.6-1,0.9c0-2.9,0.1-5.9,0.1-8.8
		C204.4,115.7,204.7,116.1,205,116.6z"/>
	<path class="st90" d="M91.8,112.9c0,0.5,0,1-0.1,1.5c-2.3,0-4.1-1-4.8-3.3c0.9,0,1.7,0,2.6,0.1C90.2,111.7,91,112.3,91.8,112.9z"/>
	<path class="st91" d="M114.6,26.3c-0.2,0.1-0.4,0.1-0.6,0.1c-0.8-2.2,0.5-3.4,2.1-4.4c1.1-0.4,1.4,0.4,1.6,1.2
		c0,1.4-0.5,2.6-1.7,3.5C115.4,26.9,114.9,26.7,114.6,26.3z"/>
	<path class="st59" d="M120.2,144.2c2.4-0.2,3.4-1.6,3.6-3.8c1.4,1.6,1,3.1-0.4,4.3C122.3,145.7,121.1,145.4,120.2,144.2z"/>
	<path class="st61" d="M150.1,141.9c-0.1,2.8-1.8,3.9-4.3,4.2c-0.1-0.3-0.2-0.5-0.3-0.8C146.9,144.2,148.5,143,150.1,141.9z"/>
	<path class="st92" d="M69.7,93.4c0.1-0.5,0.1-0.9,0.2-1.4c0.4,0.1,0.7,0.1,1.1,0.1c1.3,0,2.5,0.2,3.2,1.5c0.1,0.3,0.2,0.5,0.2,0.8
		c-0.4,0.4-0.9,0.7-1.3,1.1C71.7,95.1,70.4,94.9,69.7,93.4z"/>
	<path class="st93" d="M227.2,132.2c0.6,0.8,1,0.2,1.6-0.1c0.8,2.6-1,2-2.3,1.9c-0.8-0.1-1.8-0.5-1.1-1.6
		C225.5,132.1,226.5,132.3,227.2,132.2z"/>
	<path class="st82" d="M4.6,186c2.6,0,5.3,0,7.9-0.1C9.9,187.6,7.2,187.6,4.6,186z"/>
	<path class="st94" d="M3.7,135.3c0.4,0,0.7,0.1,1.1,0.1c-0.3,1.3-0.4,2.7-1.8,3.3c-0.2-0.5-0.4-0.9-0.6-1.4
		C2.8,136.7,3.3,136,3.7,135.3z"/>
	<path class="st90" d="M117.1,23.2c-0.3-0.4-0.7-0.8-1-1.2c0.7-1.2,1.8-1.9,3.3-2.1c0.5,0.4,1,0.8,1.4,1.2c0,0.5-0.1,0.9-0.4,1.3
		C119.3,23.1,118.3,23.7,117.1,23.2z"/>
	<path class="st95" d="M82.9,107.9c0-0.4,0.1-0.9,0.1-1.3c1.7,1.1,3.5,2,3.4,4.5C84.4,110.8,83.7,109.3,82.9,107.9z"/>
	<path class="st62" d="M118.1,159.5c-1.8,1.6-3.6,1.6-5.5,0.1C114.5,159.6,116.3,159.5,118.1,159.5z"/>
	<path class="st80" d="M186.4,117.5c1.2-1.4,2.9-0.6,4.3-0.9c-0.4,0.8-0.8,1.6-1.2,2.4C188.5,118.5,187.5,118,186.4,117.5z"/>
	<path class="st96" d="M71.8,37.3c0.6-1.5,2-2.1,3.3-2.7c8.1-3.7,8.1-3.7,11.7-8.1c1.2,2.1-2.9,7.8,3.8,6.1c0.7,0.1,1.4,0.3,2.2,0.4
		c-0.4,3-3.1,0.8-4.3,1.9c-3,1.2-1.6,4.5-2.9,6.6c-4.1-6.9-4.1-6.9-12.4-4.1C72.7,37.8,72.2,37.8,71.8,37.3z"/>
	<path class="st97" d="M99.3,64.9c-2.4-0.2-2.8-3.7-5.4-3.5c-0.5-0.4-1.2-0.4-1.3-1.2c5.2-3.8,5.2-3.8,4.2-12.9
		c3.7,2.6,3.7,6.4,2.1,9.1c-2.7,4.3-0.6,5.8,2.7,7.4C101.6,65.9,100.4,65.4,99.3,64.9z"/>
	<path class="st98" d="M108,94.5c-0.3-0.1-0.6-0.2-0.9-0.2c0-9.8-0.1-19.6-0.1-29.4c0,0,0-0.3,0-0.3c0.8,0,1.6,0.4,1.6,1.2
		C108.4,75.4,109.6,85,108,94.5z"/>
	<path class="st99" d="M100.5,95.7c-3.6,1.4-2.8,5.5-4.8,8.6c-1.9-4.1-0.3-6.9,2.1-9.1c2.4-2.3,5.3-2.9,8.3-0.7c0,0,0,0.1,0,0.1
		C104.3,95.8,102.1,94.3,100.5,95.7z"/>
	<path class="st100" d="M98.2,34c-0.3,4.1,2.1,6.4,5.6,7.9c0,2.1-1.2,1.5-2.3,1.1c-4.4-1.9-6-5.3-5.2-10
		C97.3,32.4,97.8,33.2,98.2,34z"/>
	<path class="st101" d="M83.9,80.2c0,2.2,0.1,4.4,0.1,6.6c0.5,1-0.1,1.2-1,1.1c-2.9-3.2-2.8-6.5-0.1-9.7
		C83.8,78.6,83.4,79.6,83.9,80.2z"/>
	<path class="st102" d="M83.1,87.9c0.3-0.4,0.6-0.7,1-1.1c1.5,1.1,3,2.2,4.5,3.3c-0.5,1-1.5,0.7-2.2,1c-1.7-0.1-3.1,0.5-4.4,1.5
		c-0.4-0.4-0.8-0.9-1.2-1.3C81.5,90.2,82.3,89,83.1,87.9z"/>
	<path class="st103" d="M107.1,44.3c0.3-0.1,0.7-0.2,1-0.3c0,0,0-0.1,0-0.1c0.9,5.8,1.2,11.7-0.1,17.5c-0.3,0-0.6,0-0.9,0.1
		C107.1,55.8,107.1,50,107.1,44.3z"/>
	<path class="st104" d="M107.1,25c0.4,0.1,0.8,0.2,1.1,0.2c-0.4,5.5,1.7,11.2-1.2,16.5C107.1,36.1,107.1,30.5,107.1,25z"/>
	<path class="st105" d="M102.6,79.1c1.8-2.6,1.2-5.5,0.6-9.8c3.1,4.2,4.3,7,0.8,9.9C103.5,79.6,103,79.6,102.6,79.1z"/>
	<path class="st106" d="M73,70.4c2.4,0.2,4.9-0.4,7.1,1.2C77.6,72.5,74.9,74.4,73,70.4C73,70.3,73,70.4,73,70.4z"/>
	<path class="st107" d="M86.3,91c0.7-0.3,1.5-0.7,2.2-1c1.6,0,3.2,0,5.7,0C91.1,93.1,88.8,92.4,86.3,91z"/>
	<path class="st108" d="M87.3,61.5c-2.2-0.2-3.6-1.4-4.3-3.9c2.8,0,4.5,2,6.6,2.8C89.1,61.3,88,60.9,87.3,61.5z"/>
	<path class="st107" d="M64.2,84.7c-0.3,0.4-0.5,0.7-0.8,1.1c-0.3-3.7-1.3-7.5,0.8-11.1c0.7,0.1,0.8,0.7,1,1.2c0,0.4,0,0.7,0,1.1
		C64,79.4,65.6,82.2,64.2,84.7z"/>
	<path class="st109" d="M91.7,20.8c0.4,0.4,0.9,0.8,1.3,1.2c-1.5,1.2-3.1,2.3-4.6,3.5C86.3,21.8,90.2,22.1,91.7,20.8z"/>
	<path class="st100" d="M68.5,45c-0.4-0.4-0.8-0.9-1.2-1.3c0.2-1.7,0.9-3.2,2.4-4.2c1-0.4,1.2,0.1,1,0.9C70,42,69.3,43.5,68.5,45z"
		/>
	<path class="st110" d="M65.2,75.8c-0.3-0.4-0.7-0.8-1-1.2c0.3-2.1,0.9-3.9,3.4-4.4C66.8,72.1,66,74,65.2,75.8z"/>
	<path class="st111" d="M87.3,61.5c0.5-0.9,1.4-1,2.3-1.1c1,0,2-0.1,2.9-0.1c0.4,0.4,0.9,0.8,1.3,1.2C91.7,62.3,89.5,62.9,87.3,61.5
		z"/>
	<path class="st112" d="M101.9,81.5c-0.8,0.9-1.9,1-3,1c-1-0.1-2.6,0.1-2.3-1.4c0.3-1.2,1.8-0.7,2.9-0.7
		C100.1,81.1,101.4,80.4,101.9,81.5z"/>
	<path class="st109" d="M101.4,42.9c0.9-0.1,1.8-0.2,2.3-1.1c1.1,0.1,2.2,0.3,3.4,0.4c0,0.5,0,1,0,1.5
		C105.1,44.1,103.1,44.4,101.4,42.9z"/>
	<path class="st102" d="M99.3,64.9c0.9-0.1,1.8-0.2,2.3-1.1c0.8,0,1.6,0,2.3,0c0.7,0.3,1.5,0.7,2.2,1
		C103.8,66.6,101.6,66.5,99.3,64.9z"/>
	<path class="st113" d="M98.2,34c-0.7-0.4-1.3-0.7-2-1.1c0.5-1.7,1.7-2.6,3.2-3.4C100.5,31.7,98.5,32.6,98.2,34z"/>
	<path class="st114" d="M74.1,93.6c-1.1-0.5-2.1-1-3.2-1.5c1.2-1.1,2.5-1.2,3.7-0.2C75.2,92.4,74.7,93.2,74.1,93.6z"/>
	<path class="st115" d="M64.2,84.7c0.4-2.6-0.9-5.4,1-7.8c0,2.6,0.1,5.2,0.1,7.7c0,0-0.5,0-0.5,0L64.2,84.7z"/>
	<path class="st111" d="M83.9,80.2c-0.9-0.4-1-1.2-1-2c0.6-0.8,1.1-2.4,2.2-1.4C86.7,78.2,84.1,78.9,83.9,80.2z"/>
	<path class="st116" d="M88.5,34.9c1.1-1.5,3.4-0.2,4.3-1.9C93.3,35.2,93.3,35.2,88.5,34.9z"/>
	<path class="st107" d="M70.7,40.5c-0.3-0.3-0.7-0.6-1-0.9c0.7-0.8,1.4-1.5,2-2.3c0.5,0,0.9,0.1,1.4,0.1
		C72.8,38.7,72.2,39.9,70.7,40.5z"/>
	<path class="st117" d="M101.9,81.5c-0.8-0.4-1.6-0.7-2.4-1.1c1-0.4,2.1-0.8,3.1-1.3c0.5,0,0.9,0.1,1.4,0.1
		C103.7,80.4,103.3,81.4,101.9,81.5z"/>
	<path class="st118" d="M100.5,95.7c1.5-1.9,3.6-0.9,5.5-1.1c0,0.3,0,0.6,0,1C104.2,95.6,102.3,95.7,100.5,95.7z"/>
	<path class="st119" d="M35.6,150.8c0.2,1.1,0.4,2.1,0.5,3.2c1.7,9.9,0.7,11.1-9.3,11.1c-0.7-0.9-0.2-1.8,0.1-2.7
		c0.4-1.1,0.8-2.2,1.2-3.3c0.7-1.6,1.7-2.9,2.3-4.5c1-2,1-4.5,3-6.1C34.2,149.2,34.9,150,35.6,150.8z"/>
	<path class="st120" d="M29,159.5c-0.4,1.1-0.7,2.2-1.1,3.3c-0.5,0.1-1.2,0.2-1.5-0.3c-3.7-6-6.4-12.4-6.3-19.7
		c1.6-1.5,3.1-1.1,4.5,0.1c0,3,1,5.7,2.3,8.3C28.3,153.9,28.9,156.6,29,159.5z"/>
	<path class="st121" d="M20.1,142.8c2.8,6.6,3.4,14,7.8,20c-0.4,0.7-0.7,1.5-1.1,2.2c-0.4,0-0.7,0-1.1,0c-2-0.5-2.2-2.3-2.6-3.8
		c-1.5-5.4-4.3-10.3-5.1-15.9c0.1-0.9,0.5-1.7,1.3-2.3C19.5,142.9,19.8,142.9,20.1,142.8z"/>
	<path class="st122" d="M29,159.5c-1.8-4.4-3.7-8.9-5.3-13.4c-0.4-1-1.7-2.9,1-3.2c0.8,0.3,1.5,0.7,2.3,1c1.9,3.5,2.7,7.5,4.3,11.1
		C31.3,157,29.6,158,29,159.5z"/>
	<path class="st123" d="M31.2,155.1c-4.1-2.7-3.7-7.1-4.3-11.1c2.2,1.5,5,1.9,6.5,4.3C33.3,150.8,32.8,153.1,31.2,155.1z"/>
	<path class="st124" d="M24.5,129.9c-0.2-2.5,0.9-3.6,3.4-3.4c1,0.1,2.1,0.1,3.1,0.2c0.7,1.3,2.7,0.5,3.2,2.1
		c-1.4,0.7-2.9,1.5-4.3,2.2C28.1,130.7,26.1,131.4,24.5,129.9z"/>
	<path class="st125" d="M19.2,143c-0.1,0.6-0.2,1.2-0.2,1.8c-0.7,0.7,0.2,2.9-2,2.4c-1.1-0.7-2.3-1.5-3.4-2.2
		C14.6,142.2,16.4,141.1,19.2,143z"/>
	<path class="st126" d="M242.7,157.7c-4,4.1-8.5,3.3-13.1,1.5c-0.5-3.1-0.5-3.1,2.3-4.2c3.3-1.4,7-1.7,10-3.9c4-2.8,4.9-5.5,3-9.3
		c-5.4-6.4-14-7.3-20.1-2.1c-8.5,7.3-6.8,21.3,3.2,26.6c2.8,0.7,5.7,1.2,8.6,0.9c5.7-0.5,9.1-4.1,9.2-9.7
		C244.7,157,243.5,156.9,242.7,157.7z M228.2,147.7c-0.8-2.5,1.5-4.1,3.8-5.1c2.1-0.9,4.2-1.1,6,0.6c2,4.6-2.8,3.6-4.3,5.2
		C231.7,149,229.1,150.2,228.2,147.7z"/>
	<path class="st127" d="M238,143.2c-1.6-0.4-3.1-0.7-4.7-0.2c-2.1,0.8-4.6,1.9-4.3,4.2c0.3,2.8,3.2,0.5,4.7,1.2
		c-2.5,1.7-5.4,2.2-7-0.5c-1.2-2,0.8-4.2,2.7-5.3C232.2,140.9,235.4,138.7,238,143.2z"/>
	<path class="st128" d="M189.6,142c-4.2-6.3-10.2-5.8-16.7-4.7c-2.4,0.4-4.4,1-5.2,3.2c-0.9,2.6,1.2,3.9,3.1,5.1
		c2.2,0.1,3.2-2,5-2.6c2-0.8,4-1.5,5.2,1.2c-1.3,3-5.6,2.2-6.9,5.3c-4.8,0.5-7,4-7.5,7.9c-0.4,3.8,2.1,6.6,5.9,7.8
		c4.8,1.2,9.7,1,14.6,0.9c2.4,0,4.3-0.5,4.1-3.7C190.9,155.6,192.2,148.6,189.6,142z M177.6,160.6c-3.1-1.7-3.7-4.3-1.2-6.6
		c2.3-2.1,5.3-3.9,7.6,0.3C183.4,160.9,182.4,161.9,177.6,160.6z"/>
	<path class="st36" d="M184.1,154.3c-2.5-2.9-5-1.5-7.1,0.3c-2.3,2-1.5,4.2,0.6,6c-3.3-0.3-3.7-2.6-3.2-5.1c0.7-3.1,3.3-4.2,6-4.7
		C182.8,150.4,184.1,151.7,184.1,154.3z"/>
	<path class="st129" d="M183.1,144c-2.3-1.7-5.1-1.8-7.8-2C178.6,139.8,181.2,140.4,183.1,144z"/>
	<path class="st130" d="M93.5,158.2c-2.1,2.3-5.3,2.4-7.9,3c-1.6,0.4-4.3-0.8-5.5-2.2c-1.9-2.1,0.5-3.5,1.8-4.9
		c2.3-1.6,5.1-1.6,7.7-2.5c5.7-2,7.1-4.8,5.4-10.8c-6.7-5.9-16.8-5.4-21.8,0.9c-4.6,5.7-5.2,19.4,3.7,23.4c0.9,0.2,1.7,0.7,2.5,1
		c5.2,1.6,12.6,0,15-3.4C95.5,161.1,97.5,159,93.5,158.2z M77.5,147.7c0.5-2.6,1.9-4.6,4.4-5.7c1.8-1.1,3.6-1.1,5.4,0c0,0,0,0-0.1,0
		l0.1,0c0,0,0,0,0,0c1.4,1,3.7,1.6,1.9,4.2c-1.6,1-3.1,2.4-5.2,2.5c-2.2,0.2-4.5,1.3-6.5-0.7L77.5,147.7z"/>
	<path class="st57" d="M81.9,142c-1.5,1.9-2.9,3.8-4.4,5.7C77.2,144.4,78.3,142.3,81.9,142z"/>
	<path class="st57" d="M77.5,148c2,1.4,4.3,0.2,6.5,0.7C81.7,149.9,79.4,150.7,77.5,148z"/>
	<path class="st57" d="M89.1,146.2c1.1-2.2-1.1-2.9-1.9-4.2C90,142.4,91.8,143.2,89.1,146.2z"/>
	<path class="st57" d="M87.3,142c-1.8,0-3.6,0-5.4,0C83.6,140.2,85.4,140.2,87.3,142z"/>
	<path class="st131" d="M133.6,23c-0.1,2.3,1.9,3.2,3.1,4.8c-0.1,1.8,1.2,3.8-0.9,5.2c0.2,1.2-2.9-1.2-1.4,1.3
		c3.2,1.4,3.5,4.1,2.6,7.6c3.1-0.9,3.2-2.8,2.8-4.6c-0.5-2.7,1.3-1.9,2.6-1.8c1.3,0.9,2.5,2,4.3,1c0.3-0.1,0.7-0.1,1-0.1
		c1.5,1.1,2.9,2.2,4.4,3.3c1.5,2,1.7,5,4.5,6c0,0,0,0,0,0c0.3,3.4-0.3,6.6-2.2,9.4l0.1-0.1c-1.5,2.5-3.6,2.7-5.3,1.7
		c1.5,0.4,3.2,1.7,4.2,3.8l0-0.1c0.5,1.8-0.2,3.6-0.1,5.3c0,0.5-0.2,1-0.3,1.5c-0.9,1.6-2,3-3.7,3.9c-0.7,0.2-1.4,0.2-2.1,0
		c-0.3-0.1-0.8-0.3-1-0.1c-0.4,0.4-0.1,0.6,0.1,0.1c0.3-0.6-0.1,0.2,0.6,0.1c2.9,1.3,4-1.8,6.2-2.4c0.5,0,0.9,0.2,1.2,0.7
		c1.4,2,3.4,3.7,3.6,6.4c1.9,2.3,1.5,5.1,1.2,7.7c-0.2,1.1-0.4,2.1-0.9,3.1c-0.8,1.5-1.8,2.9-2.5,4.4c-0.4,0.4-0.7,0.9-1.1,1.3
		c-1.7,1-3.4,1.8-5.4,2.2c-1.7,0.3-3.3-0.1-4.9-0.9c-1.9-2-5.4-3.1-3.9-7c1-2.1,1.4-4.2,0-6.2c-0.3-0.2-0.4-0.4-0.3-0.7
		c-0.2,0.7,0.5,0.8,0.7,1.3c0.7,1.5,0.6,3,0,4.5c-0.9,1.6-1.4,3.5-3.3,4.4c-2.3,1.2-4.8,1.7-6.2,1.1c1.2,0.1,3.6,0.6,5.8-0.8
		c5.2,0.4,8.3,4.2,7.1,9c-0.3,1.2-0.9,2.4-1.2,3.6c-0.9,1.9-1.8,3.8-3.3,5.3c-0.9,1-1.9,1.9-2.9,2.8c-1.9,1.5-4,2.2-6.4,1.8
		c-3.3-0.3-6.7,0.6-9.9-0.5c-2.1-0.3-3.5-1.4-4.2-3.4c0.8-3.9,0.2-7.9,0.4-11.9c1.2-3.1,4.1-1.5,6.2-2.2c1.5,0.3,2.4,1.4,3.4,2.4
		c0.7,0.8,1.2,1.7,1.4,2.8c0-1-0.5-1.7-0.9-2.4c-0.8-0.9-1.6-1.7-2.5-2.5c-2.3-1.5-5.6,1.5-7.6-1.6c-0.3-0.5-0.4-1-0.4-1.6
		c0.1-4.7-0.4-9.4,0.3-14.1c1.5-2,2.2-0.5,3,0.6c2.2,2.8,4.9,3.8,8.3,2.4c-0.1-0.1,0.4-0.2,0-0.1c-0.5,0.1-0.9,0.4-1.4,0.6
		c-2.2,0.5-4-0.5-5.8-1.6c-1-1.3-2.5-2.8-1.9-4.2c1.2-2.9-2-1-2.1-2.3c-0.8-2.4-0.3-4.8-0.4-7.2c0.1-1.4-0.3-2.7-0.6-4
		c0-0.5,0-1.1,0.1-1.6c0.6-4.7,1.2-9.5-0.1-14.2c-0.4-0.4-0.6-0.9-0.8-1.4c0-0.6,0.2-1,0.7-1.4c2.1-0.4,4.2-0.2,6.3-0.6
		c2.9-2,5.1-4.5,4.9-8.3c0.1,3.8-2.1,6.2-4.9,8.3c-1.8-0.2-3.8,1.3-5.2-1c-0.4-3.2-0.2-6.5-0.2-9.7c0.1-6.6,2.9-9.5,9.9-10.2
		c1.4-0.1,2.8,0.9,4.3,0.2C131.3,22.4,132.4,22.7,133.6,23z"/>
	<path class="st132" d="M136.8,89.1c1.1-1.1,2.2-2.3,3.3-3.4c0.7,0.1,0.8,0.7,1.1,1.2c-1.1,3,1.8,3.8,3,5.6c1.3,1.3,2.7,2.4,4.7,1
		c2,0.1,3.5-1.9,5.6-1.1c-0.7,2.7-3.4,2.5-5.3,3.4c-3,0-4.6,1.5-4.6,4.5c0,1.2,0.1,2.4-1.1,3.1c-0.4,0.4-0.9,0.3-1.3-0.1
		c-0.7-1.2,0-2.1,0.4-3.3c1.7-4.6-0.8-8.1-5.9-8.8C136.1,90.5,136.2,89.8,136.8,89.1z"/>
	<path class="st133" d="M159.9,75.9c1.8,3,1.5,6,0.2,9c-1.2-0.6-1.4-1.8-1.7-2.8C158.5,79.9,157.4,77.3,159.9,75.9L159.9,75.9z"/>
	<path class="st134" d="M131.5,112.3c1.8-0.7,3.5-1.5,5.3-2.2c0.4,0.2,0.7,0.5,0.8,0.9c-1.7,2.1-3.3,4.3-6.4,2.2c0,0,0,0.1,0,0.1
		C130.7,112.8,130.8,112.5,131.5,112.3z"/>
	<path class="st135" d="M142.3,103.4c0.4,0,0.8,0,1.3,0.1c-0.5,2.2-1.3,4.3-3.5,5.3c-0.5-0.2-0.8-0.5-1-0.9
		C139.8,106.1,140.5,104.3,142.3,103.4z"/>
	<path class="st136" d="M155.6,91.1c-1.5-2,0.9-2.8,1.3-4.2c1.2-0.7,2.1-0.7,1.9,1.1C158.3,89.5,157.8,91.1,155.6,91.1z"/>
	<path class="st137" d="M158.8,87.9c-0.4-0.8-1.1-1-1.9-1.1c0.3-0.6,0.6-1.3,0.9-1.9c0.5-0.8,0.2-1.9,1.1-2.5
		c0.4,0.8,0.8,1.6,1.2,2.4C159.9,86,160,87.2,158.8,87.9z"/>
	<path class="st138" d="M139,107.8c0.3,0.3,0.7,0.6,1,0.9c-0.3,1.2-1.1,2-2.3,2.2c-0.3-0.3-0.6-0.6-0.8-0.9
		C137.3,109,138,108.2,139,107.8z"/>
	<path class="st139" d="M144.6,100.3c-0.7-3.7,0.9-5.2,4.6-4.5C146.9,96.5,145.2,97.8,144.6,100.3z"/>
	<path class="st140" d="M115,94.5c0-10.2,0.1-20.4,0.1-30.6c1.6-0.1,1.3,1,1.4,2c0.5,9.1-0.5,18.3,0.3,27.4l0.3,0.3
		C117.1,95.4,116.1,95.2,115,94.5z"/>
	<path class="st141" d="M115,94.5c0.7-0.3,1.4-0.7,2.1-1c2.2,2.5,5.5-2,7.6,1.2c0.2,0.9,0,1.4-1.1,1c-2.2,0-4.6-1-6.6,0.9
		c-0.2,0.5-0.5,0.7-1,0.5c-0.4,0.3-0.8,0.5-1.2,0.8C113.4,96.6,113.5,95.5,115,94.5z"/>
	<path class="st142" d="M114.6,26.3c0.4-0.1,0.8-0.1,1.2-0.2c1.5,5.1,0.3,10.4,0.7,15.6c0,0.7-0.3,1.2-0.9,1.6
		c-0.8-0.2-1.1-0.6-1-1.4C114.5,36.6,114.5,31.5,114.6,26.3z"/>
	<path class="st143" d="M115,45c0.3,0,0.6,0,0.9,0c0.9,5.4,0.7,10.7,0.1,16.1l-0.1,0.4c-3-0.7-1.4-2.8-1.3-4.4c0-3.3,0-6.7,0-10
		C114.3,46.4,114.1,45.6,115,45z"/>
	<path class="st66" d="M114.6,57.2c0.6,1.4-0.6,3.4,1.3,4.4c0.7,1,1.5,2.1,1.1,3.5c-0.5,0.3-0.8,0.2-1.1-0.3
		c-0.3-0.3-0.6-0.6-0.9-0.9C113,61.8,113.3,59.5,114.6,57.2z"/>
	<path class="st66" d="M115,45c-0.1,0.7-0.3,1.4-0.4,2.2c-1.4-1.8-1.3-3.5-0.1-5.4c0.2,0.2,0.4,0.5,0.4,0.8c0.6,0.5,0.6,1,0,1.4
		C114.8,44.4,114.9,44.7,115,45z"/>
	<path class="st144" d="M64.2,117.7c1.1,1.5,2.2,2.9,3.3,4.4c0,0.4,0,0.7,0,1.1c0,3.9,0,7.8,0,11.8c-0.3,0.1-0.6,0.1-0.9,0.2
		c-0.5-2.2-0.9-4.3-1.4-6.5c-0.7-2.2-1.5-4.4-2.2-6.6C63.8,120.7,62.5,118.8,64.2,117.7z"/>
	<path class="st145" d="M64.2,117.7c-0.2,1.5,0.5,3.3-1.1,4.4c-0.6-1.5-2.3-2.5-2.2-4.4c0.1-1.2,0-2.5,1.1-3.3c0.4,0,0.7,0,1.1,0
		C63.5,115.5,63.8,116.6,64.2,117.7z"/>
	<path class="st146" d="M62,114.4c0,1.2,0.2,2.5-1.1,3.3c-0.4-0.4-0.7-0.7-1.1-1.1c0-1.5,0-2.9,0-4.4
		C60.5,112.9,61.2,113.7,62,114.4z"/>
	<path class="st147" d="M215.3,119.1c-0.3,2.4,0.4,5.3-2.9,5.1c-2.4-0.1-2.2-2.7-2.1-4.4c0-2.1-0.4-5,2.7-5.1
		C215.9,114.6,214.7,117.6,215.3,119.1z"/>
	<path class="st33" d="M243.2,119.4c-0.6,2,0.1,5-2.9,5.1c-3.1,0.1-2.7-2.9-2.8-4.9c-0.1-2.1-0.1-4.9,2.8-5
		C243.6,114.4,242.5,117.6,243.2,119.4z"/>
	<path class="st73" d="M108,94.5c1-9.3,0.2-18.6,0.4-27.8c0-1-0.3-1.8-1.4-2.1c1.3-1,2.2-0.4,2.2,1c0,9.3-0.1,18.5-0.2,27.8
		C109.1,93.8,108.4,94.1,108,94.5z"/>
	<path class="st73" d="M108,61.5c0.8-5.8,0.7-11.7,0.1-17.5C110.1,49.8,110.3,55.6,108,61.5z"/>
	<path class="st148" d="M196.3,119.8c0.4-2.4-0.1-5.3,2.9-5.2c2.6,0.1,2.5,2.7,2.4,4.6c0,2.1,0.1,4.8-2.9,4.8
		C195.8,124.1,196.8,121.3,196.3,119.8z"/>
	<path class="st149" d="M16.9,147.3c0.7-0.8,1.3-1.6,2-2.4c1.6,6.9,4,13.6,6.7,20.2c0,0.4,0,0.7-0.1,1c-3.4,1.3-2.7-1.9-3.3-3.3
		c-1.7-4.4-1.9-9.5-5.4-13.2C16.9,148.8,16.9,148,16.9,147.3z"/>
	<path class="st150" d="M153.4,60.5c-3.1-1.6-5.7-4.4-11-3.1c4.6-4.9,9,1,12.1-2.5C154.7,56.9,152.7,58.4,153.4,60.5z"/>
	<path class="st151" d="M154.4,55c0.4-3.2,0.6-6.5,2.2-9.4C158.2,49.2,158.2,52.5,154.4,55z"/>
	<path class="st152" d="M152.3,66c-0.2-2-0.3-3.9,1-5.6c1.8,2,0.9,4.4,0.9,6.6C153.1,67.6,152.8,66.6,152.3,66z"/>
	<path class="st152" d="M152.3,66c0.6,0.4,1.3,0.7,1.9,1.1c0.4,0.4,0.8,0.9,1.2,1.3c-0.4,0.4-0.9,0.7-1.3,1.1c-0.3,0-0.6,0-0.8-0.2
		c-0.8-0.6-1.9-1.1-1.2-2.4C152.1,66.5,152.1,66.2,152.3,66z"/>
	<path class="st153" d="M134.4,34.2c-1.2-0.1-2.4-0.1-4.2-0.2c2-2,3.7-2.2,5.5-1.1C135.3,33.4,134.8,33.8,134.4,34.2z"/>
	<path class="st154" d="M146.7,36.3c-1.8,1.3-3.4,1.9-4.3-1C143.8,35.7,145.3,36,146.7,36.3z"/>
	<path class="st155" d="M130.1,22.2c-0.9,1.1-2.1,0.8-3.2,0.8c-2-1.5-4.6,0.7-6.5-1c0.2-0.3,0.3-0.6,0.4-0.9
		C123.9,20.8,127.1,20.6,130.1,22.2z"/>
	<path class="st5" d="M131.5,112.3c-0.1,0.3-0.2,0.7-0.2,1.1c-3.7-0.1-7.3-0.2-11-0.3c0-0.3,0-0.6,0-0.9
		C124.1,112.2,127.8,112.2,131.5,112.3z"/>
	<path class="st156" d="M116,97c0.3-0.2,0.7-0.3,1-0.5c-0.4,4.1,1.1,8.2-0.8,12.2c-0.2-0.3-0.3-0.6-0.3-0.9
		C115.9,104.3,115.9,100.6,116,97z"/>
	<path class="st5" d="M158.9,82.5c-0.4,0.8-0.7,1.6-1.1,2.5c0-3.1-0.1-6.1-0.1-9.2c0.7,0,1.5,0,2.2,0
		C158.1,77.8,158.8,80.2,158.9,82.5z"/>
	<path class="st157" d="M120.3,21.9c2.2,0.3,4.6-0.9,6.5,1c-7.5,0.8-9.8,3.3-9.9,10.9c0,2.9,0,5.9-0.1,8.8c-0.3,0.5-0.7,0.5-1,0
		c-0.1-5.5-0.1-11-0.2-16.6c0.4-1,0.8-2,1.3-2.9C118.1,22.5,119,21.7,120.3,21.9z"/>
	<path class="st158" d="M115.9,64.8c0.4,0.1,0.8,0.2,1.1,0.3c0,2.9,0.1,5.8,0.1,8.8c0.8,0.9,0.8,1.9,0.1,2.8
		c-0.1,5.5-0.3,11.1-0.4,16.6c-2-7.2-0.4-14.6-0.8-21.9C115.8,69.2,115.9,67,115.9,64.8z"/>
	<path class="st159" d="M126.7,59.6c-4-5.9-3.8-9,1.6-13.6c-1.2,4.5-3.7,8.4-0.2,12.2C127.9,59,127.5,59.5,126.7,59.6z"/>
	<path class="st160" d="M121.5,42.9c1.4-3.8,5.5-6.7,2.6-12.7C129.2,35.8,127.6,40.5,121.5,42.9L121.5,42.9z"/>
	<path class="st161" d="M117.2,76.7c0-0.9-0.1-1.9-0.1-2.8c1-0.6,0.4-2.9,2-2.6c1.6,0.3,0.7,1.7,0.5,2.6c-0.6,1.9,0.5,3.4,1,5.1
		c-0.4,0.6-0.9,0.7-1.4,0.2C118.6,78.3,117.9,77.5,117.2,76.7z"/>
	<path class="st162" d="M116,61.2c0-5.4-0.1-10.7-0.1-16.1C117.7,50.4,117.6,55.8,116,61.2z"/>
	<path class="st163" d="M119.2,79.1c0.5-0.1,0.9-0.1,1.4-0.2c2.1,1.1,4.2,1.5,6.5,1.5c0.6-0.1,0.9,0.1,0.7,0.7
		C124.3,83.6,121.5,82.4,119.2,79.1z"/>
	<path class="st164" d="M136.8,89.1c0,0.7,0,1.4,0,2.1c-2.8,1.8-5.4,0.9-8.7-0.6C131.4,89.5,134.4,90.7,136.8,89.1z"/>
	<path class="st111" d="M141.2,86.9c-0.4-0.4-0.8-0.8-1.1-1.2c0-1.8,0-3.6,0.1-5.5c0,0-0.1,0.1-0.1,0.1
		C144.1,81.8,142.2,84.4,141.2,86.9z"/>
	<path class="st165" d="M134.5,60.3c1.9-1.2,3.8-2.3,6.3-3.8c-0.5,3.2-2.1,4.2-4.1,4.9C136.1,60.7,134.9,61.3,134.5,60.3z"/>
	<path class="st152" d="M152.1,66.8c0.4,0.8,0.8,1.6,1.2,2.4c-2.2,0.8-3.1,5.3-6.6,2.2c0.5-0.8,1.6-0.4,2.2-1
		C150,69.2,151.1,68,152.1,66.8z"/>
	<path class="st166" d="M126.7,59.6c0.5-0.5,0.9-1,1.4-1.4c1.1,0.7,2.3,1.4,3.4,2.1c-0.1,0.7-0.8,0.8-1.2,1.1
		c-0.7,0-1.5,0.1-2.2,0.1c-1.1,0.2-1.6-0.3-1.4-1.4L126.7,59.6z"/>
	<path class="st167" d="M148.9,70.4c-0.5,0.9-1.3,1-2.2,1c-1.6,1.1-3.2,1.7-4.5-1C144.6,70.4,146.8,70.4,148.9,70.4z"/>
	<path class="st111" d="M130.2,61.5c0.4-0.4,0.8-0.7,1.2-1.1c1,0,2,0,3,0c0.8,0.3,1.5,0.7,2.3,1C134.6,62.3,132.4,62.9,130.2,61.5z"
		/>
	<path class="st168" d="M126.7,60.1c0.5,0.5,0.9,1,1.4,1.4c-1,1.8-2,3.5-4.4,3.3l0,0.1C123.4,62.5,125.5,61.6,126.7,60.1z"/>
	<path class="st169" d="M123.6,64.8c-1.6,2.1-3.4,1.2-5.6,0.5C120,62.7,121.8,63.9,123.6,64.8C123.6,64.9,123.6,64.8,123.6,64.8z"/>
	<path class="st66" d="M115.9,42.7c0.3,0.1,0.7,0.1,1,0c1.6-0.8,3.1-1,4.5,0.3c0,0-0.1-0.1-0.1-0.1c-1.8,2.3-4.4,0.8-6.5,1.3
		c0-0.5,0-1,0-1.4C115.2,42.8,115.6,42.8,115.9,42.7z"/>
	<path class="st170" d="M127,96.7c1.8,1.8,1.7,3.9,1,7.8c-1-3.3-1.6-5-2.1-6.7C126,97.2,126.3,96.8,127,96.7z"/>
	<path class="st171" d="M127.9,81.2c-0.2-0.3-0.4-0.6-0.7-0.7c0.8-1.4,1.7-2.6,3.8-2.3C130.7,80.2,129.9,81.3,127.9,81.2z"/>
	<path class="st159" d="M140.2,80.2c-1.2-0.8-2.1-1.8-2-3.9c2.3,0.7,3.7,1.5,1.9,3.9C140,80.3,140.2,80.2,140.2,80.2z"/>
	<path class="st172" d="M127,96.7c-0.4,0.4-0.7,0.8-1.1,1.1c-0.8-0.7-1.5-1.4-2.3-2.2c0.4-0.3,0.7-0.7,1.1-1
		C125.9,94.9,126.5,95.6,127,96.7z"/>
	<path class="st5" d="M148.9,93.4c-1.9,1.4-3.6,1.8-4.7-1C145.8,92.8,147.3,93.1,148.9,93.4z"/>
</g>
</svg>
