<?xml version="1.0" encoding="utf-8"?>
<!-- Generator: Adobe Illustrator 25.2.1, SVG Export Plug-In . SVG Version: 6.00 Build 0)  -->
<svg version="1.1" id="Camada_1" xmlns="http://www.w3.org/2000/svg" xmlns:xlink="http://www.w3.org/1999/xlink" x="0px" y="0px"
	 viewBox="0 0 253.2 209.2" style="enable-background:new 0 0 253.2 209.2;" xml:space="preserve">
<style type="text/css">
	.st0{fill:#00ACAE;}
	.st1{fill:#01999C;}
	.st2{fill:#009A9D;}
	.st3{fill:#018F92;}
	.st4{fill:#04646C;}
	.st5{fill:#00B2B7;}
	.st6{fill:#01B0B5;}
	.st7{fill:#029EA2;}
	.st8{fill:#038087;}
	.st9{fill:#01ABAD;}
	.st10{fill:#035C63;}
	.st11{fill:#056F78;}
	.st12{fill:#387A8B;}
	.st13{fill:#056D76;}
	.st14{fill:#049496;}
	.st15{fill:#07B3B7;}
	.st16{fill:#E0FAFA;}
	.st17{fill:#06525A;}
	.st18{fill:#0C9799;}
	.st19{fill:#0A787F;}
	.st20{fill:#09696E;}
	.st21{fill:#09525E;}
	.st22{fill:#0E9094;}
	.st23{fill:#0A525A;}
	.st24{fill:#1F595A;}
	.st25{fill:#2B9390;}
	.st26{fill:#B2F0F4;}
	.st27{fill:#1D585A;}
	.st28{fill:#1F8F85;}
	.st29{fill:#01B8BB;}
	.st30{fill:#00B1B4;}
	.st31{fill:#E5F3FB;}
	.st32{fill:#056367;}
	.st33{fill:#046466;}
	.st34{fill:#27B1AF;}
	.st35{fill:#389E8C;}
	.st36{fill:#01A5A7;}
	.st37{fill:#F3FBFC;}
	.st38{fill:#E3F7DC;}
	.st39{fill:#E0F6C3;}
	.st40{fill:#A25857;}
	.st41{fill:#4E81AD;}
	.st42{fill:#0F6965;}
	.st43{fill:#45BE81;}
	.st44{fill:#B7D34D;}
	.st45{fill:#197877;}
	.st46{fill:#E0F3B2;}
	.st47{fill:#389052;}
	.st48{fill:#DFF5D4;}
	.st49{fill:#00B0B5;}
	.st50{fill:#A1F3FB;}
	.st51{fill:#01C4C7;}
	.st52{fill:#D9DDF4;}
	.st53{fill:#056365;}
	.st54{fill:#EBFBF9;}
	.st55{fill:#E9FBFA;}
	.st56{fill:#E5FBFC;}
	.st57{fill:#08686B;}
	.st58{fill:#DFE1D9;}
	.st59{fill:#D9EAE9;}
	.st60{fill:#47C1BB;}
	.st61{fill:#01C2C4;}
	.st62{fill:#BEF8FB;}
	.st63{fill:#056567;}
	.st64{fill:#873A92;}
	.st65{fill:#804C81;}
	.st66{fill:#BC9E74;}
	.st67{fill:#01B0B4;}
	.st68{fill:#C4F9F4;}
	.st69{fill:#046367;}
	.st70{fill:#056468;}
	.st71{fill:#E2F6CB;}
	.st72{fill:#1A6947;}
	.st73{fill:#EFB331;}
	.st74{fill:#E4BE3C;}
	.st75{fill:#CCF8FB;}
	.st76{fill:#EFFBFA;}
	.st77{fill:#E7FAFC;}
	.st78{fill:#E1FAFB;}
	.st79{fill:#FECE01;}
	.st80{fill:#F1B729;}
	.st81{fill:#186E50;}
	.st82{fill:#DFD64D;}
	.st83{fill:#F1322C;}
	.st84{fill:#B244A2;}
	.st85{fill:#7DC654;}
	.st86{fill:#F3CF0D;}
	.st87{fill:#046469;}
	.st88{fill:#EEF2F1;}
	.st89{fill:#046366;}
	.st90{fill:#066669;}
	.st91{fill:#066566;}
	.st92{fill:#E8F5FC;}
	.st93{fill:#E2F1F9;}
	.st94{fill:#9ACEE3;}
	.st95{fill:#039FD2;}
	.st96{fill:#ABF7EF;}
	.st97{fill:#046567;}
	.st98{fill:#E4E5DB;}
	.st99{fill:#01CCCD;}
	.st100{fill:#CF419F;}
	.st101{fill:#056465;}
	.st102{fill:#0A6669;}
	.st103{fill:#2FB3B2;}
	.st104{fill:#EE6044;}
	.st105{fill:#D57A60;}
	.st106{fill:#A6D75A;}
	.st107{fill:#066368;}
	.st108{fill:#0265AB;}
	.st109{fill:#B443A2;}
	.st110{fill:#DCEDF9;}
	.st111{fill:#FBE3FA;}
	.st112{fill:#F6D4F5;}
	.st113{fill:#F2ABEE;}
	.st114{fill:#F48B4B;}
	.st115{fill:#117171;}
	.st116{fill:#76DEED;}
	.st117{fill:#079F53;}
	.st118{fill:#0065AA;}
	.st119{fill:#10689A;}
	.st120{fill:#23AEA9;}
	.st121{fill:#28B0AF;}
	.st122{fill:#056368;}
	.st123{fill:#CC2822;}
	.st124{fill:#AD3E3A;}
	.st125{fill:#AC3E39;}
	.st126{fill:#863B91;}
	.st127{fill:#01B2E2;}
	.st128{fill:#0A9F52;}
	.st129{fill:#056467;}
	.st130{fill:#EB6143;}
	.st131{fill:#C4826C;}
	.st132{fill:#EC359E;}
	.st133{fill:#FBD3F7;}
	.st134{fill:#FCD1F8;}
	.st135{fill:#F7894A;}
	.st136{fill:#F8D6B2;}
	.st137{fill:#F3D10E;}
	.st138{fill:#0383C0;}
	.st139{fill:#0483C0;}
	.st140{fill:#70D2EF;}
	.st141{fill:#84DEFC;}
	.st142{fill:#03B8BB;}
	.st143{fill:#056364;}
	.st144{fill:#77C675;}
	.st145{fill:#FDF7AC;}
	.st146{fill:#0284C0;}
	.st147{fill:#AAE9F3;}
	.st148{fill:#C4EFF5;}
	.st149{fill:#F0322C;}
	.st150{fill:#ED332C;}
	.st151{fill:#E8E4E4;}
	.st152{fill:#F8D1CF;}
	.st153{fill:#FA9087;}
	.st154{fill:#FCE5DF;}
	.st155{fill:#F9A59C;}
	.st156{fill:#B144A0;}
	.st157{fill:#FBEAF9;}
	.st158{fill:#FDEAFC;}
	.st159{fill:#7CC658;}
	.st160{fill:#E0F9CD;}
	.st161{fill:#F4894E;}
	.st162{fill:#F5CCAD;}
	.st163{fill:#E9FBDB;}
	.st164{fill:#D1F7B5;}
	.st165{fill:#03BFC1;}
	.st166{fill:#066367;}
	.st167{fill:#04C1C3;}
	.st168{fill:#066567;}
	.st169{fill:#F4ADED;}
</style>
<g id="Camada_2_1_">
</g>
<g id="Camada_3">
</g>
<g id="Camada_4">
</g>
<g id="Camada_5">
</g>
<g>
	<path class="st0" d="M38.5,74.2c1.1-1.1,2.1-2.1,3.2-3.2c1.4-1.5,2.4-3.1,2.7-5.3c0.3-2.5,1.5-4.8,2.9-6.8
		c4.5-4.9,10.5-6.5,16.8-6.9c3.6-0.2,7,1.3,10.1,3.4c0.9,0.6,1.8,1.3,2.8,1.8c2.4,1.1,4.4,0.1,6.3-1.5c0.5-0.5,0.9-1.2,1.7-1.2
		c0.6,0.8-0.1,1.2-0.5,1.7c-0.6,0.7-1.4,1.2-2.2,1.7c-0.2,0.1-0.4,0.3-0.6,0.4c-0.7,0.6-1.6,0.8-2.5,0.5c-0.4-0.1-0.9-0.1-1.3,0
		c-0.3,0.1-0.6,0.2-0.6,0.5c0,0.4,0.4,0.4,0.6,0.4c1.1-0.1,1.9,0.5,2.5,1.3c0.8,1.1,2.4,1.3,3.1,2.4c2.1,2.2,3.9,4.6,5.1,7.4
		c0.2,0.5,0.5,1,0.1,1.6c-0.1,0.1-0.3,0.2-0.5,0.2c-0.9-0.3-1-1.1-1.4-1.8C83.7,64.1,78.6,60,71,60c-4.4,0-8.4,1.5-11.3,5.1
		c-1,1.2-1.3,1.2-2.1,0c-1.9-2.8-3.5-2.9-5.6-0.2c-0.2,0.3-0.4,0.5-0.7,0.7c-1.4,1-1.7,2.4-1.9,4c-0.2,1.6,0.1,3.1,0.4,4.7
		c0.9,5.5,1.5,11,2.4,16.5c0.1,0.8,0.3,1.6-0.1,2.3c-1,0.7-1.3-0.2-1.6-0.7c-0.5-0.8-0.7-1.8-0.7-2.8c0.1-2.2-1.1-4.2-1.4-6.3
		c-0.2,0.9-0.4,1.7-0.5,2.6c0,0.4,0,0.9-0.3,1.1c-1.2,0.9-1.7,2-1.9,3.6c-0.1,0.9-0.4,1.7,0.1,2.5c0.1,0.2,0.2,0.5,0.1,0.8
		c0,0-0.1,0.1-0.1,0.1c-1.8-1-3,0.3-4.4,1c-0.7,0.4-1.1,0.9-0.7,1.6c0.6,1.1-0.4,3,1.2,3.5c1.1,0.4,2.5-0.3,3.7,0.3
		c0.5,0.2,1-0.9,1.6-0.2c-0.1,1.7-0.6,2.2-2.3,2.5c-2,0.3-2.4,0.7-2.4,2.7c0,3.4-0.5,6.7-0.4,10.1c0.1,1.4,0,2.8,0.5,4.2
		c0.2,0.6,0.2,1.2,0,1.8c-0.4,0.9-0.6,1.6,0.3,2.4c0.6,0.5,0.2,1-0.4,1.3c-0.4,0.2-1,0.2-0.7,0.8c0.8,1.5,0.4,3.7,2.4,4.6
		c0.5,0.2,0.7,0.9,0.6,1.5c-0.1,2.9,0.7,5.4,2.2,7.8c0.8,1.4,0.9,3.1,1.6,4.6c0.7,1.6,1.8,3,1.9,4.8c0.1,0.7,0.6,1.2,1.1,1.6
		c1.7,1.6,2.9,3.6,3.6,5.8c0.3,0.8,0.3,1.5,0.2,2.3c0,0.3-0.1,0.6,0.3,0.7c0.4,0.1,0.6-0.2,0.8-0.5c0.2-0.4,0.2-0.9,0-1.3
		c-1.3-2.1-0.9-4.4-0.7-6.7c0.1-1.3,0.4-2.6,0.2-3.8c-0.3-1.8,0.7-3.5,0.7-5.3c0-0.5,0.4-1.2,1.3-0.9c0.5,0.9,0.3,1.8,0.2,2.8
		c-0.6,4.2-0.8,8.3,0,12.5c0.4,1.9,1.2,3.6,2.2,5.2c1.7,2.6,4.1,3.8,7.2,3.9c1.2,0,2.4-0.2,3.5,0.2c0.2,0.8,0.2,0.8-1.6,1.2
		c1.1,0.1,1.8-0.1,2.6,0c0.3,0,0.7,0.1,1,0.2c0.7,0.4,1.3,0.7,2.1,0.6c0.6-0.1,1.2-0.1,1.6,0.4c-0.2,0.9-1,0.9-1.7,1.1
		c-4.1,0.9-8.3,0.4-12.4,0.3c-4.4-0.1-8.6-1.5-12.7-2.9c-5.2-1.7-9.1-5.2-12-9.6c-2.5-3.8-4.6-7.9-5.2-12.5
		c-0.9-6.2,0-12.1,3.8-17.3c0.7-1,1.2-2.1,2-3.1c0.7-0.9,0.3-1.6-0.3-2.2c-2.2-2.5-4.1-5.2-5.5-8.2c-4.9-10.6-5.2-21.2,0.2-31.8
		c1.2-2.3,2.5-4.5,4.4-6.3C37.8,75.2,38.3,74.8,38.5,74.2z"/>
	<path class="st1" d="M220,88.2c-1.1,2.8-3,5-4.7,7.5c4.6,1,6.2,4.6,7.1,8.5c0.6,3,1,6.1,1.7,9.1c1,4.6-0.4,8.9-1.6,13.2
		c-2.5,9.1-7.9,16.2-15.3,21.9c-0.6,0.5-1,1-1.3,1.9c-1.3,4.2-3.4,7.9-6.2,11.3c-2.2,2.8-5,4.7-7.5,7.1c-0.3,0.3-0.8,0.4-1.2,0.6
		c-0.1,0.1-0.3,0.1-0.4,0c-0.2-2.1,1.4-3,2.8-3.7c1.5-0.7,2.4-1.5,2.5-3.2c0-0.8,0.5-1.5,1.3-1.9c1.2-0.5,1.9-1.5,2.8-2.3
		c0.8-0.7,1.2-1.5,1.6-2.5c0.3-1,0.5-1.7-0.3-2.6c-0.7-0.7-0.2-1.9,0.7-1.9c1.4,0,1.5-0.9,2.1-1.8c0.7-1.1,1.1-2.3,1.5-3.4
		c0.5-1.3,0.6-3,0.4-4.5c-0.2-0.8-0.2-1.7-0.3-2.5c-0.1-0.4-0.2-0.9,0-1.2c1.5-1.5,1.3-3.9,2.9-5.5c0.6-0.6,0.7-1.3,0.3-2.1
		c-0.3-0.6-0.4-1.3,0-2c0.7-1.3,0.8-2.7,0.7-4.1c0-0.2-0.1,0,0-0.2c1.2-2.4,0.7-5.1,1.3-7.5c0.4-1.8,0.3-3.6,0.6-5.4
		c0.1-0.6-0.2-1.1-0.6-1.5c-0.9-0.9-1-1.9-0.4-3.1c0.7-1.3,0.5-2.6-0.3-3.7c-0.8-1.1-0.8-2-0.2-3.1c0.3-0.4,0.5-1,0.3-1.5
		c-1.2-2.8,0.2-6.2-2-8.8c-0.3-0.3-0.3-0.8-0.4-1.3c0.8,2,0.1,4.1,0.7,6.1c0.1,0.3,0.1,0.6,0.1,0.8c-0.4,2.6-0.4,5.3-0.8,7.9
		c-0.2,1.2-0.8,2.2-1.3,3.2c-0.3,0.6-0.8,1-1.1,0c0.1-2,1-3.8,1.2-5.7c0.6-4,0.3-7.9-0.2-11.9c-0.6-4.8-1.3-9.6,0.2-14.4
		c0.4-1.2,0.7-2.5,1.6-3.4c1-0.6,1.8-1.3,2.2-2.5c0.5-1.3,1.6-2,2.9-2.3c1.2-0.3,2.2,0.4,2.3,1.6c0.1,1.1-0.4,1.6-1.9,1.6
		c0.1,0.1,0.1,0.2,0.3,0.2c3.3,1,4.6,3.4,4.9,6.7c0.2,2.5,0.7,5,2,7.2c0.4,0.6,0.5,1.3,0,1.9C220,86.1,219.9,87.1,220,88.2z"/>
	<path class="st0" d="M85.1,54.1c1.4-2.2,3.6-3.5,5.6-5c6.9-5.2,14.6-8.9,23.1-10.6c3.3-0.7,6.6-1.3,10-1.4c2.7-0.1,5.5-0.4,8.2-0.2
		c8.5,0.5,16.8,2.1,24.4,6c0.2,0.1,0.3,0.3,0.5,0.4c1.1,0.9,2.5,1.3,3.8,2c0.1,0,0.2,0,0.2,0c2.2-0.6,3.9-2.1,6.1-2.7
		c1.8-0.5,3.5-1.8,5.6-0.7c0.8,0.4,1.5,0.7,1.9,1.5c0.3,0.7,0.6,0.9,1.2,0.3c0.7-0.8,1.3-0.3,1.5,0.4c0.5,2.3,2.6,3.5,3.7,5.4
		c0.1,0.3,0.4,0.4,0.7,0.5c1.7,0.6,2.5,1.8,2.5,3.6c0,1.1,0.7,1.4,1.7,1.5c0.7,0,1.5,0.2,1.8,1c0.2,0.9-0.3,1.5-0.8,2.1
		c-0.4,0.5-1,0.8-1.5,1c-0.9,0.3-1.4,0.9-1.6,1.8c-1.2,2.4-1.8,5-2.2,7.7c-0.2,1.8,0.6,3.1,2.3,3.9c0.9,0.4,1.9,0.7,2.8,1.2
		c1.7,1.2,2.1,2.7,1,4.5c-0.4,0.8-1.1,1.4-1.5,2.2c-0.2,0.5-0.5,0.9-1,1.1c-0.2,0-0.3,0-0.5,0c-0.3-0.1-0.6-0.2-1-0.1
		c-0.5,0.1-1.2,0.5-1.4-0.3c-0.2-0.7,0.1-1.3,0.6-1.7c0.9-0.8,1.6-1.7,2.3-2.8c-0.8,1.7-2,1.3-3.2,0.6c-0.4-0.2-0.8-0.4-1.2-0.5
		c-2.1-0.3-2.3-2.2-3.2-3.5c-0.3-0.5,0.1-1.1,0.8-1.2c1.1-0.1,1.1-0.7,0.5-1.3c-0.7-0.8-1-1.7-1.2-2.7c-0.2-0.8-0.5-1.2-1.4-0.9
		c-1.7,0.7-2.4-2.5-4.3-1c-1.7-1-2.1-2.7-2.3-4.4c-0.2-1.4-0.5-1.6-1.7-1.1c-0.6,0.2-1.2,0.9-1.8,0c-0.4-0.6-0.3-2.6,0.3-3
		c0.5-0.4,1.4-0.5,1.2-1.4c-0.2-0.9-1-1.1-1.8-1.2c-0.4-0.1-0.8-0.2-1.1-0.4c-1.5-1-2.9-2-4.9-0.9c-0.9,0.5-1.8-0.6-1.4-1.6
		c0.5-1.3-0.1-1.7-1.2-1.9c-1.6-0.3-2.8-1-3.7-2.3c-1.2-1.6-2.8-2.3-4.8-2c-0.8,0.1-1.6,0-2.4,0c-1.3,0-2.6-0.1-3.4-1.4
		c-1.7,2.4-1,3.3,1.3,5.6c0.6,0.6,1.6,0.9,2.3,1.4c0.9,0.6,1.2,1.5,0.5,2.3c-1.4,1.7-1.9,3.8-2.4,5.8c-0.8,1.5-2.2,1.4-3.5,1
		c-1.2-0.3-2.4-0.5-3.6-0.5c-2.3,0-2.5-0.2-3.1-2.6c-0.1-1,0.5-2.1-0.2-3c-0.1-0.1-0.2-0.3-0.2-0.4c-0.8-2-0.6-3.1,1.2-4.2
		c1.4-0.8,2.5-1.9,3.8-2.7c0.4-0.2,1.6-3.4,1.3-3.7c-0.7-1-1.3-2.1-3-1.9c-1.5,0.2-2.9,0-4.1-1.5c-0.8-1.1-2.4-0.7-3.7-0.8
		c-2.2,0-4.4,0.2-6.5,0.3c-1.2,0.1-2.7,0.3-4,0.8c-0.3,0.1-0.6,0.3-0.8,0.2c-1.3-0.4-1.8,0.4-2.3,1.4c-0.3,0.2-0.6,0.2-0.8,0
		c-0.7-0.8-1.6-0.7-2.6-0.5c-0.8-0.5-1.5-0.5-2.4,0c-1.4,0.7-2.7,1.9-4.5,1.6c-0.1,0-0.3,0-0.3,0.1c-0.8,1.8-2.6,1.2-4,1.4
		c-1,0.2-1.8,0.8-2.7,1.3c-4.1,2.2-8,4.8-11.4,8C86.4,54.2,85.9,54.7,85.1,54.1z"/>
	<path class="st2" d="M183.2,60.8c0-1.1,0.6-1.7,1.5-2c0.7-0.3,1.3-0.6,1.8-1.1c0.4-0.5,0.9-1,0.6-1.6c-0.3-0.8-1-0.6-1.6-0.6
		c-1.4,0.1-2.1-0.5-2-2c0.1-1.6-0.6-2.7-2.2-3.1c-1.5-0.3-1.4-2.1-2.5-2.8c-1.4-0.9-1.9-2.5-2.2-4c-0.7-0.1-0.6,0.3-0.7,0.6
		c-0.1,0.4-0.5,0.8-1,0.7c-0.4-0.1-0.7-0.4-0.9-0.9c-0.5-1.7-3.1-2.7-4.5-1.7c-0.8,0.5-1.6,0.3-2.4,0.6c-1.7,0.6-3.3,1.3-4.8,2.2
		c-0.5,0.3-1,0.2-1.5,0.2c5.5-3.3,11.3-5.6,17.6-6.7c2.1,0.3,4.2-0.5,6.3-0.6c2.2-0.1,4.3-0.3,6.5,0.6c1.2,0.5,2.5,0.8,3.7,1
		c0.8,0.1,1.5,0.5,2,1.2c1.9,2.5,4.1,4.7,5.3,7.6c0.2,0.4,0.4,0.8,0.8,0.8c1.8,0,2.1,1.6,3,2.6c0.5,0.6,0.6,1.4,0.1,2
		c-0.6,0.7-1-0.2-1.6-0.5c0.1,1.5,1.6,2.5,1.2,4.1c-1.2,3.4-4,5.6-6,8.5c-0.3,0.5-0.8,0.8-1.4,0.6c-1-3.2-4-5.1-5.3-8.1
		c-0.3-0.8-0.9-1.7-2-1.1c-0.9,0.8-1.9,1.3-3.1,1.6c-1.6,0.4-3.2,0.9-4.4,2.2C183.5,61,183.4,60.9,183.2,60.8z"/>
	<path class="st3" d="M205.5,57.5c0.4-1.6-1-2.5-1.4-3.8c-0.1-0.6-0.5-1.1,0.2-1.4c0.7-0.4,0.8,0.3,0.9,0.8c0.1,0.3,0.3,0.7,0.7,0.6
		c0.5-0.2,0.4-0.9,0.2-1.2c-0.6-0.8-1.4-1.4-1.6-2.5c0-0.1-0.7-0.2-1.1-0.2c-0.8,0-1.4-0.3-1.6-1c-0.5-2.3-2.3-3.7-3.5-5.6
		c-0.4-0.7-1.2-1.2-1.6-2c-0.4-0.8-1.1-1.1-1.9-1.2c-1.9-0.2-3.5-1-5.3-1.5c-1.9-0.5-4-0.2-6-0.1c-1.7,0.1-3.3,1-5.1,0.3
		c2.1-0.1,4.2-0.9,6.3-0.8c2.4-0.2,4.9-0.2,7.3,0c3.4,0.1,6.7,0.8,9.9,1.8c5.2,1.6,10,4.2,13.8,8.2c7.3,7.5,10.1,16.4,8.6,26.8
		c-0.7,4.8-2.1,9.3-4.5,13.6c-0.6-1.1-0.9-2.1,0.4-3.1c0.6-0.4,0.5-1.1,0.1-1.7c-1.5-2.1-1.7-4.5-2-6.9c-0.2-1.5-0.4-2.9-1-4.2
		c-0.7-1.5-2.3-2.1-3.8-2.7c-0.4-0.2-1.2,0-1.1-0.7c0.1-0.6,0.8-0.3,1.3-0.3c0.4,0,0.9,0.5,1.3-0.2c0.3-0.6,0.1-1.1-0.1-1.6
		c-0.3-0.6-0.9-0.7-1.4-0.6c-1.3,0.4-2.5,0.9-2.9,2.4c-0.3,0.9-0.8,1.9-2,1.8c-0.4-1.3,0.6-2,1.2-2.8c2.3-2.9,4.5-5.9,6-9.3
		c0.6-1.3,0.9-2.5,0.9-3.9c-0.1-2.4-1.6-4-4-4.1c-0.8,0-1.6,0-2.4,0c-2.1,0.3-3,1.2-3.3,3.3C206.7,55.1,206.9,56.6,205.5,57.5z"/>
	<path class="st4" d="M38.5,74.2c-0.2,1.7-1.6,2.5-2.5,3.7c-3.7,5.6-6.1,11.6-6.4,18.4c-0.3,6.7,1.2,12.9,4.3,18.7
		c1.3,2.3,2.7,4.6,4.7,6.5c1.1,1.1,1.4,1.9,0.2,3.4c-5.3,6.5-7.3,14-4.9,22c2.4,8.1,6.7,15.3,15,18.8c5.3,2.2,10.8,3.4,16.6,3.5
		c3.3,0.1,6.6,0,9.8-0.4c0.6-0.1,1.2-0.2,1.7-0.7c1.5-0.7,3.1-1.2,4.7-1.6c0.4,0.1,0.7,0.1,0.7,0.6c-4.9,3-10.4,4.1-16,4.3
		c-6.3,0.2-12.4-0.7-18.4-2.8c-7-2.4-11.4-7.4-14.6-13.9c-4.8-10-3.8-19.2,3.1-27.8c0.8-1,0.9-1.9-0.1-2.8c-0.7-0.7-1.4-1.5-2-2.2
		c-2.2-2.1-3.5-4.9-4.9-7.6c-2.2-5.1-3.4-10.4-2.9-15.9c0.2-2.9,0.2-6,1.9-8.6c1.9-5.4,4.7-10.3,8.7-14.5C37.5,75,38,74.6,38.5,74.2
		z"/>
	<path class="st5" d="M85.1,54.1c0.4,0,0.9,0.1,1.3-0.3c3-3.2,6.7-5.5,10.4-7.7c2-1.2,4.1-2.8,6.8-2.2c0.2,0,0.6-0.1,0.6-0.2
		c0.1-1.9,1.4-1,2.3-1.2c1.3-0.3,2.4-1.1,3.6-1.8c1-0.6,1.8-0.6,2.4,0.5c0.1,1.2-0.9,1.5-1.7,1.9c-1.9,0.9-2,1-1.2,3
		c0.3,0.6,0.3,1.3,0.2,2c-0.2,1.7-0.1,1.8,1.6,1.8c0.8,0,1.6-0.1,2.3,0.2c0.3,0.1,0.5,0.3,0.5,0.6c-1.3,0.6-2.7,0.7-3.7,2
		c-0.5,0.7-1.3,0.2-1.6-0.7c-0.1-0.5,0.2-1.3-0.6-1.4c-0.6-0.1-0.7,0.8-1,1.2c-1.2,1.8-1.6,2-3.8,1.3c-0.9-0.3-1.6-0.2-2.3,0.5
		c-0.6,0.7-1.3,1.1-2.1,1.3c-2,0.5-3.8,1.6-5.9,1.7c-0.9,0-1.7,0.4-2.3,1.2c-0.8,1.2-2.2,1.2-3.3,1.5c-1.7,0.5-2.9,1.4-3.3,3.1
		c-0.1,0.4-0.2,1-0.9,1c-1.2-1.2-2.9-1.8-4-3.2c-0.3-0.5-0.9-0.6-1.5-0.3c-0.6,0.3-1,0-1.2-0.5c-0.2-0.7,0.2-1.1,0.8-1.2
		c0.5-0.1,1.2-0.2,1.7-0.1c1,0.4,1.7,0,2.5-0.4c0.4,0.2,0.7,0.9,1.3,0.5c0-0.7-0.8-0.4-1-0.8c1.1-1,2.7-1.4,3-3.1
		C85,54.3,85,54.2,85.1,54.1z"/>
	<path class="st6" d="M102.6,179c-0.5,0.1-0.4,0.6-0.5,1c-0.2,2.7-1.5,4.6-3.9,5.8c-3.5,3-9.6,2.4-12.8-1.9c-1.9-2.6-2-5.2,0-7.6
		c1.2-1,2.3-2.3,3.8-3c4.4-2.3,10.1-0.5,12.5,3.9c0.1,0.2,0.3,0.3,0.5,0.4C102.7,177.9,103,178.4,102.6,179z"/>
	<path class="st7" d="M19.9,93.6c0.8-2.1,1.6-2.5,4.6-2c1.2,0.5,1.3,1.6,1.2,2.7c-0.2,3.9,0.2,7.7,0.9,11.5c0.6,2.9,1.6,5.7,2.8,8.4
		c1,2.3,2.4,4.4,3.8,6.4c0.6,0.8,0.9,1.6,0.4,2.6c-0.6,1-1.5,1.5-2.6,1.8c-1.2,0.7-1.9-0.1-2.6-0.8c-2.7-3.1-4.9-6.5-6.3-10.4
		c-1.9-5.4-2.9-10.9-3.1-16.6C19.1,95.9,19.3,94.7,19.9,93.6z"/>
	<path class="st8" d="M82.3,167.1c-0.1-0.3-0.4-0.3-0.7-0.3c-0.1-0.6,0.4-0.8,0.8-1.1c2.3-1.5,4.8-1.6,7.4-0.7
		c6.4,2,13.1,1.9,19.7,1.5c1.6-0.1,3.3-0.5,4.5,1c4.3,7.6,13.4,10.2,21.4,8c2-0.5,3.8-1.5,5.4-2.7c2.2-1.7,4.3-2,6.7-0.7
		c2.1,1.1,4.6,1.4,6.6,2.8c0.1,0.2,0.1,0.3,0,0.5c-0.1,0.1-0.3,0.2-0.4,0.2c-2.8-0.3-5.7-0.5-8.3-1.7c-0.9-0.4-1.6-0.6-2.4-0.1
		c-1.5-0.2-2.7,0.3-3.9,1.2c-9.5,7.1-22.8,4-27.7-4.8c-0.7-1.2-1.8-1.4-3.1-1.3c-3.6,0.3-7.2,0.5-10.8,0.4
		c-3.8-0.1-7.5-0.6-11.1-1.8C85.1,167,83.7,166.8,82.3,167.1z"/>
	<path class="st9" d="M79.3,36.4c3.1,0,5.6,0.9,6.9,3.5c2.4,4.6-2,8.4-5.5,8.7c-2.5,0.2-4.6-0.7-6.6-2.1c-1.9-1.4-1.9-3.4-1.5-5.3
		c0.5-2.6,2.4-3.9,4.9-4.5C78.2,36.5,78.9,36.5,79.3,36.4z"/>
	<path class="st10" d="M19.9,93.6c0.4,1.1-0.4,2-0.4,3.1c0.4,9.9,2.5,19.1,9,26.9c0.7,0.8,1.4,1.5,2.5,1.4c-0.9,2.4-3.3,2.8-5,0.9
		c-4.1-4.6-6.5-10-7.8-15.9c-0.6-2.6-0.9-5.3-1.4-7.9c-0.3-2.2,0-4.4,0.5-6.5C17.7,94.2,18.6,93.6,19.9,93.6z"/>
	<path class="st11" d="M143,173.8c0-0.2-0.6-0.5-0.2-0.5c1-0.2,2.2-1,3.1,0.5c0.6,1,1.9,0.3,2.9,0.5c1.8,0.3,3.5,1.2,5.4,1
		c1.1-0.6,2.2-0.1,3.3,0c8.9,1.1,17.6,0.3,26-2.9c1.9-0.7,3.7-1.5,5.4-2.7c0.5-0.3,1-0.7,1.7-0.5c0.1,0,0.3,0,0.4,0
		c-0.7,1-1.7,1.6-2.6,2.2c-7.5,4.5-15.6,6.6-24.3,6.9C156.7,178.6,149.7,177.2,143,173.8z"/>
	<path class="st12" d="M234.2,48.2c-1.8-0.2-3.5-1.1-5.1-2.1c-0.9-0.6-1.6-0.7-2.6-0.3c-1.1,0.5-2.2,0.7-3.4,1
		c-3.6,0.8-6.1-1.6-5.6-4.5c0.6-3.5,0.1-6.4-1.9-9.4c-1.7-2.6-0.6-4.9,2.4-5.8c3.3-1,6-2.5,8.4-5.2c2.6-3,5.6-2.4,7.2,1.4
		c1.1,2.5,2.5,4,5.2,5c5.2,1.9,5.7,5.3,1.5,9c-1.3,1.2-1.9,2.3-1.6,4c0.2,1.4,0,2.9-0.5,4.3C237.4,47.2,236,48.2,234.2,48.2z"/>
	<path class="st13" d="M85.4,176.3c-1.6,2.5-1.5,5,0.3,7.2c2.2,2.9,5.2,4.1,8.9,3.5c1.3-0.2,2.4-1,3.6-1.3c-2.4,2.9-5.7,3.9-9.3,3.5
		c-3.4-0.4-5.7-2.5-7-5.6c-0.6-1.5-0.5-3.1,0.6-4.4C83.4,178.1,84.2,177,85.4,176.3z"/>
	<path class="st14" d="M197.1,178.9c0.4-0.4,0.9-0.8,1.3-1.3c1.6-1.7,4.6-1.9,6.3-0.5c1.6,1.4,1.6,3.6-0.1,4.9
		c-0.6,0.5-1.2,0.8-1.8,1.2C199.5,183.9,197.7,182.5,197.1,178.9z"/>
	<path class="st15" d="M104.9,174.2c1.5-2.2,2.4-2.6,4.6-2.1c1.4,0.4,2.3,1.1,2.4,2.6c0.1,1.5-0.4,2.6-1.9,3.1
		c-0.3,0.1-0.6,0.3-0.9,0.5c-1.8,0.8-3-0.3-4.1-1.4C104,176.1,104.3,175.1,104.9,174.2z"/>
	<path class="st16" d="M29.2,114.6c-3.1-6.2-4.3-12.7-3.7-19.6c0.1-1.2,0.2-2.5-1-3.4c1.2,0,1.3,1,1.4,1.9c0.1,0.7,0,1.4,0.2,2.2
		c0.8-1.9,0.1-4.4,2.3-5.8c-1.5,5.7-2,11.4-0.8,17.3c0.5,2.5,1.4,4.9,2.3,7.3C29.8,114.7,29.5,114.7,29.2,114.6z"/>
	<path class="st17" d="M197.1,178.9c0.2,0.1,0.5,0.2,0.5,0.4c1,3.4,1.2,3.5,4.8,3.8c0.1,0,0.3,0.2,0.4,0.2c-1.8,2.8-4.9,2.3-6.6,1.1
		C194.2,183.1,194.7,180.4,197.1,178.9z"/>
	<path class="st18" d="M11.8,127.2c0.5-0.2,1-0.5,1.3-1.1c0.7-1.3,3.1-1.7,4.3-0.8c1.5,1.1,1.3,3.1-0.3,4c-0.6,0.3-1.4,0.5-1.6,1.3
		C14.1,129.7,12.6,128.9,11.8,127.2z"/>
	<path class="st19" d="M104.9,174.2c-0.1,2.8,1,3.9,4.2,4.1c-0.7,1.7-3.1,2.6-4.8,1.8c-0.6-0.3-1.1-0.7-1.6-1.1
		c-0.1-0.5-0.2-1-0.4-1.5C102.3,175.8,103,174.6,104.9,174.2z"/>
	<path class="st20" d="M47.3,58.8c-0.1,0.3-0.2,0.6-0.3,0.8c-1,2.6-2.5,5-2.5,7.9c-0.1,1.7-1.5,2.6-2.8,3.5c0.6-2.6,0.7-5.3,2-7.7
		C44.6,61.5,45.7,59.9,47.3,58.8z"/>
	<path class="st21" d="M11.8,127.2c0.3,0.1,0.7,0.1,0.8,0.2c0.4,1.2,1.3,1.8,2.5,2.2c0.5,0.1,0.4,0.6,0.5,1c-0.9,1-1.9,1.6-3.2,1.2
		c-1-0.3-2.1-0.7-2.2-2C10,128.6,10.6,127.7,11.8,127.2z"/>
	<path class="st22" d="M15.2,75.6c0.1-0.2,0.2-0.4,0.4-0.5c0.5-0.8,0.7-2.3,1.8-2.2c0.8,0.1,1,1.5,1.2,2.4c0.7,2.7,0.6,2.8-2.4,3.9
		C14.8,78.3,14.8,77,15.2,75.6z"/>
	<path class="st23" d="M15.2,75.6c0.4,1.2,0.1,2.6,1,3.6c0.2,1.4-0.7,1.9-1.9,1.9c-1.2,0-1.5-0.8-1.6-1.9c-0.1-1.5,0.5-2.7,1.3-3.9
		C14.7,74.5,14.9,75,15.2,75.6z"/>
	<path class="st24" d="M40.5,62.7c-1.6-1.3-3.1-2.3-4.9-2.7c-0.3-0.1-0.6-0.3-0.5-0.7c0.1-0.4,0.5-0.4,0.8-0.4
		C37.9,58.5,39.9,60.1,40.5,62.7z"/>
	<path class="st25" d="M43.1,60.3c-1.5-1.1-3-2.1-4.7-2.5c-0.4-0.1-0.6-0.3-0.6-0.7c0.1-0.4,0.5-0.4,0.8-0.4
		C40.7,56.4,42.7,58,43.1,60.3z"/>
	<path class="st26" d="M29.2,114.6c0.3,0,0.5,0,0.8-0.1c1.5,2.5,2.9,4.9,4.4,7.4c-0.5,0.3-0.1,1.1-0.7,1.3c0.1-1.1-0.4-1.9-1-2.8
		C31.4,118.6,30.1,116.7,29.2,114.6z"/>
	<path class="st27" d="M24.4,71.5c0,0.7-0.4,1.2-1,1.1c-0.8-0.1-1.6-0.5-1.8-1.5c-0.1-0.7,0.3-1.1,1-1.1
		C23.5,70,24.2,70.5,24.4,71.5z"/>
	<path class="st28" d="M27,69.2c0,0.7-0.4,1.1-1,1.1c-0.8-0.1-1.6-0.5-1.7-1.3c-0.1-0.7,0.3-1.2,1.1-1.2
		C26.3,67.9,26.8,68.4,27,69.2z"/>
	<path class="st2" d="M160.7,45.3c-1.6,0-2.7-1-3.8-2C158.2,44,159.8,43.9,160.7,45.3z"/>
	<path class="st2" d="M192.1,37.9c-2.4,0-4.9,0-7.3,0C187.2,37.4,189.7,37.4,192.1,37.9z"/>
	<path class="st29" d="M83.3,63.6c0.8-3.3,3.1-4.8,6.3-5.1c0.3,0,0.7-0.3,0.8-0.5c0.4-1.4,1.6-1.6,2.6-1.7c2.3-0.1,4.2-1.3,6.3-1.8
		c0.7-0.2,1.2-0.5,1.6-1.1c0.5-1,1.4-1.1,2.3-0.8c2.7,0.8,2.9,0.7,4.2-1.8c0.2-0.4,0-1.3,0.8-1.1c0.6,0.2,1,0.8,1.1,1.5
		c0,0.5-0.6,1.2,0.2,1.5c0.8,0.3,1-0.5,1.3-1c0.8-1.3,2.1-0.8,3.2-0.9c0.2-0.1,0.3-0.1,0.5,0c0.8,0.8,0.3,1.4-0.5,2
		c0.9,0,1.4-0.7,2.1-0.6c1.7,0.2,2.4-0.7,2.8-2.2c0.1-0.5,0.1-1.3,0.8-1.3c0.8,0,0.9,0.7,0.9,1.3c0,0.8,0.6,1,1.2,1.1
		c1.2,0.1,2.5,0.9,3.4-0.5c0.5-0.7,0.9-1.3,1.9-1.1c0.9,0.2,1,1,1.1,1.7c0.2,1.2,1,1.5,2.1,1.5c1.4-0.1,2.7,0.2,3.5,1.5l0,0
		c1,0.9-0.1,2.1,0.3,3c0.3,1.7,1.1,2.7,3.1,2.4c1.1-0.2,2.3,0,3.4,0.5c1.1,0.4,2.4,0.5,3.2-0.8c2.8-0.9,5.5-0.4,7.9,1.3
		c0.4,0.3,0.6,0.7,0.7,1.1c0.3,1.3,1,1.9,2.4,1.9c1.1,0,2,0.6,2.9,1.2c0.5,0.4,1.2,0.9,0.6,1.6c-0.5,0.7-1.2,0.8-2,0.4
		c-0.5-0.3-0.9-0.7-1.5-0.8c-1.7-0.3-3.2-0.1-4.3,1.4c-0.6,0.8-1.2,0.8-1.8,0.1c-2-2.4-4.4-2-6.9-1.1c-1.2,0.4-2.2,0.4-3.1-0.5
		c-0.4-0.4-0.4-0.2-0.4,0.2c-0.4,0.3-0.9,0.3-1.4,0.2c-1.9-0.3-3.5,1-3.3,2.8c0.1,0.4,0.1,0.8,0,1.2c-0.1,1.1,0.8,1.4,1.4,1.9
		c0.5,0.4,1.1,0.6,1.5,1.1c0.5,0.6,0.7,1.2,0.1,1.8c-0.5,0.5-1.1,0.4-1.6-0.2c-0.2-0.2-0.3-0.4-0.5-0.6c-0.9-0.7-1.5,0-2,0.6
		c-0.4,0.3-0.7,0.8-1.2,1.1c-0.4,0.1-0.8,0-1.2,0c-0.8-0.1-1.7,1.2-2.4-0.2c0,0.2-0.1,0.5-0.4,0.4c-0.7-0.6-0.5-1.4-0.4-2.2
		c0.5-0.8,1.3-1.1,2.2-1.3c0.6-0.2,1.3-0.1,1.7-0.7c0-0.3-0.1-0.5-0.2-0.8c-0.4-0.4-0.8-0.3-1.3-0.4c-0.9-0.2-1.8-0.4-1.8-1.6
		c0-1.2,0.9-1.4,1.9-1.6c0.7-0.1,1.3-0.3,2-0.4c0.2,0,0.4-0.2,0.5-0.4c0-0.2-0.1-0.5-0.3-0.5c-1.8-0.5-3.6-1-5.5,0
		c1.1,2.3-0.4,4.3-0.6,6.5c-0.1,0.8-0.2,1.7-0.1,2.5c0.2,2.2,0.9,2.8,3.1,2.8c1,0.1,1.9,0,2.6-0.8c0.6-0.7,1.1-0.6,1.7,0
		c1.7,1.1,3.5,0.9,5.1-0.6c0.4-0.4,0.7-1,1.3-1.2c1.6-0.7,1.6-0.7,2.3,1.1c0.2,0.6,0.7,1.2,0.3,1.9c-0.1,0.1-0.3,0.1-0.5,0.1
		c-0.3,0-0.6-0.1-0.8-0.3c-0.8-0.9-1.4-1-1.8,0.3c-0.2,0.7-0.8,0.8-1.6,0.8c-2.7,0.1-5.5-0.2-8.2,0.2c-3.4,0.5-5.8-1.8-5.3-5.3
		c0.2-1.4,0.1-2.8-0.4-4.1c-0.2-0.7-0.5-1.3-1.3-0.6c-0.3,0.2-0.6,0.2-0.9,0.4c-1.2,0.5-1.4,1-0.5,2c0.8,0.9,1.2,2,1.8,3
		c0.7,1.2,0,2.2-0.7,3.1c-0.5,0.6-0.7,0.1-0.9-0.4c0-2.1-0.2-4.1-2.2-5.5c-2.4-2-6.5-1.8-9.1,1.9c-1.8,1.5-2.7,3.3-2,5.6
		c0.2,0.5,0.3,1.1-0.1,1.6c-0.4,0.3-0.9,0.2-1.2-0.1c-0.9-0.9-2.2-1.3-3.2-2c-2.8-1.7-6.8-0.9-9.1,1.1c-1,0.8-1.9,1.7-2.6,2.8
		c-0.3,0.4-0.6,0.7-1.2,0.7c-1.1-0.4-0.9-1.4-0.8-2.1c0.6-2.8,0-5.4-0.7-8.1c-0.1-0.4-0.2-0.8,0.1-1.1c-0.7-3-2.6-5.3-4.4-7.6
		C84,64.3,83.7,63.9,83.3,63.6z"/>
	<path class="st30" d="M45.9,93.9c-0.1-0.8-0.8-1.3-1-2.1c-0.2-0.5-0.4-1,0.3-1.2c0.9-0.3,0.6-0.8,0.3-1.2c-0.3-0.6-0.4-1.3,0.2-1.5
		c2.3-0.8,1.9-2.9,2.2-4.6c0.1-0.5,0.1-1,0.8-1.7c0.3,2.6,1.4,4.6,1.6,7c0.1,1.7-0.1,3.5,1.7,4.6c0.1,0.1,0.1,0.1,0.2,0.2
		c0.4,0.9,0.1,2.1,0.8,2.9c0.6,3,1,6.1,1.2,9.1c0.2,2.4,0.6,4.7,2,6.7c2,2.8,3.7,2.9,6.2,0.5c1.6-1.2,2.7-2.7,2.8-4.8
		c0.2-1.3,0.3-2.6-0.1-4c-0.1-2-0.6-3.9-0.9-5.9c-0.1-0.5-0.2-1,0.1-1.4c0.4-0.3,0.8-0.4,1.3-0.2c2.6,1.2,5.3,1.4,8.1,1.1
		c0.4,0,0.8,0.1,1.1,0.3c0.2,0.9-0.5,1-1,1.2c-1.6,0.6-3.3,0.7-5,0.8c-0.9,0.1-1.3-0.9-2.2-1c-0.3,1,0,1.9,0.1,2.8
		c0.4,2.5,0.1,5,0.1,7.5c0,2-1.5,3.9-3.6,4.9c0.6,0.6,1.2,0.4,1.8,0.3c5.8-0.6,11.6-0.2,17.4,0.4c0.2,0,0.3,0,0.5,0.1
		c0.4,0.1,1.1,0.1,1,0.7c0,0.5-0.7,0.5-1.1,0.6c-4.2-0.4-8.5-0.3-12.7-0.3c-2.1,0-4.1,0.2-6.2,0.4c-1.6,0.2-2.7,1-3.4,2.4
		c-0.3,0.3-0.7,0.5-1.1,0.8c-1.2,1.1-1.1,2.4,0.3,3.4c0.3,0.2,0.7,0.4,1.1,0.5c1.1,0.3,1.4,1.1,1.2,2.2c-0.4,3.2-1.4,6.2-2.1,9.4
		c-0.3,1.5-0.6,3-0.9,4.5c-0.1,0.7-0.1,1.5-1,1.8c-0.2,0.2-0.6,0.3-0.6,0.5c-0.4,1.7-1,3.4-0.9,5.1c0.1,1.7,0.1,3.3-0.3,5
		c-0.4,1.7,0.5,3.3,0,5c0,0.1,0.4,0.3,0.6,0.5c0.8,1,0.6,2.3-0.5,3c-0.3,0.2-0.6,0.6-1,0.3c-0.4-0.3-0.4-0.7-0.4-1.1
		c0.6-3.7-1.4-6.1-3.8-8.5c-0.4-0.4-0.8-0.9-0.9-1.4c-0.4-2.9-2.6-5.1-3-7.9c-0.3-2.1-1.9-3.4-2.4-5.5c-0.3-1.3-0.3-2.5-0.4-3.8
		c0-1-0.2-1.8-1.3-2.1c-0.6-0.2-1.1-0.6-1.1-1.2c0-1.2-0.3-2.3-0.9-3.3c-0.3-0.5-0.6-1.6,0.8-1.1c0.4,0.1,0.7,0.1,0.8-0.3
		c0.2-0.4-0.2-0.6-0.5-0.7c-1.4-0.3-1-1.1-0.4-1.9c0.5-0.7,0.6-1.5,0.3-2.2c-1.1-3.5-0.5-7-0.4-10.5c0.1-1.3,0.1-2.7,0.1-4
		c0.1-2.2,0.6-2.8,2.8-2.9c1.5-0.1,2.2-0.9,2.3-2.3c0-0.1,0-0.2,0-0.2c-0.1-0.7,0.2-1.4,0.5-2c0.8-1.5,0.6-3-0.3-4.5
		c0,0.7,0.3,1.6-0.9,1.6C46.1,94.7,45.7,94.5,45.9,93.9z"/>
	<path class="st31" d="M65.6,108c-0.4,1.9-1,3.7-2.9,4.8c-1.6,1-2.8,0.2-3.9-0.8c-2-1.7-3.1-4.1-3.2-6.7c-0.3-5.8-1.4-11.5-2.2-17.2
		c-0.9-6.3-1.8-12.6-2.8-19c-0.2-1.4-0.4-2.8,0.8-4c0.5-0.7,0.8-1.6,1.6-2.1c1.5-1.1,3.6-0.6,4.7,1.1c0.4,0.5,0.6,1.1,1,1.9
		c3.1-4.8,7.8-6.4,13.1-6.4c5.4,0,9.6,2.6,13,6.6c1.6,1.8,2.6,4,3.6,6.2c1.7,3.1,1.6,6.5,1.2,9.9c-0.6,5.1-3,9.1-7.3,11.9
		c-5.9,3.2-11.7,3.3-17.4-0.7c-0.6,1.1,0.2,2.2-0.2,3.1c0.3,2.5,0.7,5,1,7.5C65.6,105.4,65.6,106.7,65.6,108z"/>
	<path class="st32" d="M58.1,141.2c0.9-3.8,1.8-7.7,2.6-11.5c0.3-1.4,0.6-2.8,0.9-4.2c0.2-1,0-1.4-1-1.6c-1.2-0.3-2.4-0.9-2.5-2.3
		c-0.2-1.5,0.8-2.4,2-2.9c0.9,1.2,1.4,2.6,3.3,2.8c1.1,0.2,0.9,1.4,0.8,2.3c-0.3,1.7-0.7,3.4-1.1,5.1c-1.4,5.6-2.6,11.3-3.1,17
		c-0.4,4.4-0.2,8.7,2,12.8c2.2,4,6.1,5.8,10.6,5c2.6-0.5,5.1-1.4,7.4-2.6c0.7-0.3,1.3-0.9,2.2-0.6c0.7,1-0.2,1.4-0.8,2
		c-2.6,1.3-5.2,2.6-8,3.6c-0.6,0.2-1.3,0.5-2,0.3c-2.3-0.1-4.7,0.3-7-0.5c-2.7-1-4.3-2.9-5.5-5.4c-2.4-5.2-1.9-10.6-1.3-16
		C57.9,143.2,58,142.2,58.1,141.2z"/>
	<path class="st33" d="M51.3,65.2c-0.4,1.7-0.3,3.3-0.1,5c1.6,10.5,3.1,21,4.6,31.6c0.2,1.3,0.1,2.6,0.3,3.9
		c0.2,2.3,1.2,4.2,2.8,5.8c1,1.1,2.3,1.5,3.8,1.3c-2.2,2.8-4.4,2.8-6.6,0.2c-1.6-1.9-2.3-4.1-2.4-6.3c-0.2-3.5-0.8-6.9-1.2-10.3
		c-0.8-0.9-0.2-2.1-0.6-3c0,0,0,0,0,0c-0.3-4.5-1.3-8.9-1.8-13.4c-0.4-3.4-1.3-6.7-1.3-10.1c0-1.7,0.7-3.1,1.8-4.4
		C50.9,64.9,51.1,65,51.3,65.2z"/>
	<path class="st30" d="M71.5,166.1c3.4-1.1,6.5-2.8,9.8-4.1c0.4,1-0.1,1.8-0.8,2.5c-0.3,0.3-0.8,0.6-0.5,1.1
		c0.2,0.4,0.7,0.2,1.1,0.2c0.4,0,0.9-0.1,1.2,0.3c-0.2,0.2-0.5,0.4-0.7,0.7c-1.5,0.5-3,1.5-4.7,1.4c-1.2-0.4-2.8,1-3.8-0.7
		c-0.1-0.5-0.1-0.5-1,0c-0.7,0-1.3,0.2-2,0.1c-0.4-0.1-1.2,0.1-1.2-0.5c0-0.7,0.7-0.6,1.1-0.6C70.6,166.4,71.2,166.6,71.5,166.1z"/>
	<path class="st34" d="M82,93.9c6.7-4.2,9.1-13.9,6.5-20.7c-0.1-0.3-0.1-0.5-0.2-0.8c0.1,0,0.3,0,0.4-0.1c1,3,1.8,6.1,1.1,9.3
		c-0.1,0.6-0.5,1.5,0.6,1.8c0.2,0.2,0.3,0.6,0.1,0.8c-1.3,1.6-1.3,3.5-1.5,5.4c-1.6-0.3-2.1,1.1-2.9,1.9c-1.1,1.1-1.9,2.6-3.6,2.9
		C82.2,94.3,82,94.2,82,93.9z"/>
	<path class="st35" d="M45.9,93.9c0.2,0.2,0.4,0.5,0.7,0.7c2.2,0.9,2.3,1.4,1.1,3.5c-0.4,0.6,0,1.3-0.4,1.9c0,0,0,0,0,0
		c-0.8,0.8-1.6,1.3-2.8,0.5c-0.3-0.2-0.7-0.2-1.1,0c-1.3,0.6-2.1,0.1-2.5-1.2c-0.4-1.1,0-2.3-0.6-3.4c-0.2-0.3,0.1-0.7,0.3-0.9
		c1-0.8,2.3-1.3,3.4-2.1C44.7,92.4,45.2,93.6,45.9,93.9z"/>
	<path class="st30" d="M66.6,167.5c0,0.4-0.3,0.7-0.6,0.5c-0.8-0.4-2-0.2-2.5-1.2c-0.2-0.5,0.4-0.8,0.9-0.7
		C65.4,166.3,66,166.9,66.6,167.5z"/>
	<path class="st29" d="M82,57.5c0.6,0.2,1.7-0.7,1.7,0.8c0,0.5-0.4,0.7-0.8,0.7c-0.7,0-1.3-0.2-1.2-1.1C81.8,57.7,81.9,57.6,82,57.5
		z"/>
	<path class="st30" d="M39.6,99.3c0.4,0,0.6,0.2,0.7,0.5c0.3,0.5,0.3,1.1,0.1,1.6c0,0.1-0.3,0.2-0.4,0.1c-0.6-0.3-0.5-0.9-0.5-1.5
		C39.5,99.8,39.5,99.5,39.6,99.3z"/>
	<path class="st29" d="M72.2,167.5c0.2-0.4,0.5-0.8,0.9-0.9c0.4-0.2,0.9,0,0.9,0.4c0.1,0.6-0.5,0.4-0.9,0.5
		C72.9,167.5,72.5,167.5,72.2,167.5z"/>
	<path class="st36" d="M190.6,169.1c-11.3,7.1-23.6,8.1-36.4,6.1c0-0.1,0-0.2,0-0.3c0.4-0.4,0.9-0.4,1.4-0.4c2.5,0.4,5,0.1,7.5,0
		c2.4-0.1,4.7-0.2,7-0.7c1-0.2,1.8-0.3,1.6-1.6c-0.1-0.6,0.3-1.1,0.8-1.4c1.3-0.9,1.9-2.3,3-3.7c-2.3-0.1-3.7-1.9-5.8-2.3
		c-0.9-0.2-1.9-0.9-1.8-2.1c0.7-0.4,1.3,0.1,1.9,0.4c6.7,4.1,15,1.7,19.4-2.6c1.3-1.2,2.5-2.4,3.2-4.1c0.6-1.4,0.5-2.7-0.6-3.9
		c-1.1-1.2-2.4-1.3-3.9-0.8c-1.4,0.5-2.6,1.3-3.8,2.1c-3.1,1.9-6.5,1.8-9.2-0.5c-0.4-0.4-0.9-0.7-1-1.3c0.7-1.1,1.3-0.1,1.9,0.2
		c1.8,1.2,3.7,1.7,5.9,1.1c1.2-0.3,2-1.1,2.7-2.1c0.8-1.3,1.8-2.2,3.6-1.6c1.1,0.4,2.2,0,2.8-0.9c1-1.6,2.6-3.1,1.9-5.4
		c-0.2-0.8,0.2-1.5,0.6-2.2c1.1-2.1,0.9-2.6-1.4-3c-0.2,0-0.3-0.1-0.5-0.2c-0.2-1.2,1.1-1.4,1.4-2.4c0.2-0.1-0.1,0,0.1-0.1
		c4.4-2.9,2.6-6.9-0.9-8.7c-2.3-1.2-4.9-1.6-7.4-2.2c-1.5-0.2-3-0.3-4.5,0c-1.8,0.3-3.5,1.1-5.4,1.3c-1.1-0.9,0-1.2,0.5-1.3
		c2.6-0.9,5.3-1.8,8.2-1.5c1.1,0.1,2.1,0.2,3.2,0.3c1.8,0.3,2.6-0.4,2.4-2.2c-0.1-1.2,0.9-2.2,0.7-3.4c-0.1-0.9,0-1.9-0.2-2.9
		c-0.1-1.1,0.3-1.5,1.4-0.9c-0.4-0.9-0.8-1.7-1.3-2.4c-0.2-0.4-0.2-0.8,0.1-1.1c1.1-1.4,2.3-2.6,3.7-3.7c0.2-0.2,0.5-0.2,0.8,0
		c0.6,1,0.1,1.9-0.1,2.9c-0.8,3-2.1,5.9-2.6,9c-0.4,2.5,0.2,4.9,2.2,6.7c0.7,0.6,1.4,0.9,2.3,0.7c1.3,0.2,2.5,0.2,3.6-0.6
		c1.2-0.8,1.9-2.3,1.5-3.7c-0.8-2.3-0.6-4.4,0.2-6.6c1-2.6,2-5.3,3.1-7.8c0.2-0.4,0.3-1,1-1c1.6-1.6,2-3.7,2-5.7
		c0.1-1.8,0.7-3.6,0.4-5.3c-0.3-2,0.1-4.1-0.6-6.1c-0.3-0.9-0.5-1.9,1-2.7c-0.8,2.6,1.5,4,1.6,6.2c0,2,0.1,4.1,0.7,6.1
		c0.1,0.4-0.1,0.8-0.4,1.1c-0.7,0.9-0.8,1.6,0.1,2.6c1,1.1,1.3,2.8,0.4,4.2c-0.7,1-0.5,1.7,0.3,2.5c0.8,0.6,0.9,1.4,0.7,2.4
		c-0.4,2.1-0.1,4.3-1.1,6.2c-0.2,0.4,0.2,0.9,0.3,1.3c0.4,0.9,0.5,1.7-0.2,2.5c-0.8,0.9-1,2-0.9,3.1c0.1,1.2,0.1,2.4-0.7,3.5
		c-0.4,0.6-0.5,1.4,0.1,1.9c1,0.9,0.5,1.6-0.2,2.3c-0.9,0.8-1.4,1.7-1.5,2.9c-0.1,0.4-0.1,1-0.4,1.3c-1.9,1.4-0.9,3.2-0.6,4.8
		c0.3,1.7-0.8,3.4,0,5.1c-1.6,0.1-0.4,2.2-1.7,2.5c-0.6,0.2-0.6,0.8-0.5,1.3c0.3,1.2-0.3,1.4-1.3,1.1c-0.7-0.3-1.3-0.1-1.6,0.5
		c-0.4,0.7,0.3,1,0.7,1.3c0.7,0.5,0.9,0.9,0.2,1.6c-0.1,0.1-0.2,0.4-0.3,0.6c-0.5,2.6-2.3,4-4.6,5.1c-0.7,0.4-1.3,1-1.2,2
		c0.1,1.5-0.6,2.5-2.1,3C192.4,166.2,191.2,167.3,190.6,169.1z"/>
	<path class="st37" d="M208,139.3c-1-1.6-0.3-3,0.6-4.2c3.4-4.7,5.5-9.9,6.1-15.7c0.6-5.7-0.7-11.2-3.3-16.3c-1.2-2.4-1.2-2.4,0.9-4
		c4.4,8.1,6.7,16.5,4,25.7C214.6,131.2,210.7,137.6,208,139.3z"/>
	<path class="st38" d="M205.5,106.4c-1.5,3.5-3,7-4.1,10.6c-0.4,1.3-0.4,2.5,0.1,3.8c0.7,1.7,0.4,3.2-0.9,4.5
		c-1.2,1.2-2.7,1.7-4.5,1.1c-0.5-0.1-0.9-0.2-0.6-0.9c0.5-0.3,1-0.1,1.5-0.1c2.2,0.2,3.9-1.4,3.3-3.3c-1.4-4.6,0.9-8.3,2.4-12.3
		c1.1-2.9,2.3-5.7,2.8-8.8c0.6-3.5,0.4-7,0.1-10.5c-0.4-5.1-1.5-10.1-0.2-15.2c0.8-3.3,2.1-6.4,4.3-9c2.1-2.6,4-5.3,5.3-8.3
		c0.7-1.6,1.2-3.3,0.4-5c-0.6-1.5-2-1.7-3.3-1.8c-0.7-0.1-1.6,0.2-2.2-0.5c-0.1-0.3,0.1-0.5,0.4-0.6c0.3,0,0.7-0.1,1-0.1
		c4.6-0.2,6.8,2.6,5.5,7c-1,3.1-2.7,5.9-4.7,8.5c-1.2,1.6-2.8,3-3.5,5.1c-2.2,3.8-2.8,7.9-2.4,12.1c0.3,3.5,0.7,6.9,1.1,10.3
		C207.6,97.6,206.7,102,205.5,106.4z"/>
	<path class="st36" d="M212,125.7c0-1.7,0-3.3,0-5c0-0.4,0.4-0.7,0.8-0.7c0.4,0,0.5,0.4,0.5,0.8c0,0.8,0.3,1.7-0.4,2.4
		c-0.7,0.8,0.2,1.7-0.4,2.5C212.3,125.7,212.1,125.7,212,125.7z"/>
	<path class="st36" d="M212.1,107.6c0.4,0.2,0.7,0.4,0.7,0.7c0,0.4-0.4,0.6-0.7,0.5c-0.4,0-0.5-0.4-0.5-0.7
		C211.7,107.8,211.8,107.6,212.1,107.6z"/>
	<path class="st5" d="M141.7,78.1c0.1,0,0.2,0,0.3,0c1.1,0.1,1.7-0.5,1.6-1.6c-0.1-1.8,0.5-3.2,2.2-3.9c0.3-0.1,0.5-0.3,0.7-0.5
		c1.5-1.3,2.1-2.9,1.6-4.1c-0.6-1.2-2.7-1.9-4.5-1.5c-1,0.3-2.1,0.6-2.7,1.6c0.5,0.3,1.1-0.3,1.5,0.3c0.3,0.5,0.2,1,0.1,1.5
		c-0.4,2.2-0.4,4.4-1.2,6.5c-0.5-0.3-0.2-0.9-0.4-1.4c-0.5-0.4-0.7,0.9-1.3,0.3c-0.3-0.3-0.2-0.6-0.2-0.9c0.2-1.8-0.7-2.8-2.2-3.5
		c-0.3-0.1-0.6-0.2-0.9-0.4c-0.8-0.4-1.6-0.9-1.1-2c0.3-0.8,1.8-1.3,2.6-1c0.5,0.2,0.7,1.1,1.4,0.5c0.6-0.6-0.2-1.1-0.4-1.6
		c-0.1-0.2-0.1-0.3-0.1-0.5c-0.2-0.1-0.5-0.3-0.7-0.4c0.1-0.3,0.5-0.2,0.6-0.1c1.7,1.5,3.5,0.7,5.2,0.1c1.4-0.5,2.8,0.1,4.1,0.3
		c1,0.1,1.1,1.7,2.1,2c1.4-2.1,3.3-2.9,5.7-2.4c0.5,0.1,0.7,0.6,1,0.9c0.5,0.6,1.2,0.4,1.6-0.1c0.6-0.7-0.2-1-0.6-1.2
		c-0.9-0.5-1.7-1.3-2.9-1.1c-1.5,0.3-2.2-0.5-2.5-1.9c-0.2-1-3-3-3.9-2.8c-1.4,0.3-2.8-0.2-4.3,0c0.1-2.1,0.8-4,2.2-5.6
		c0.7-0.9,0.6-1.5-0.4-2c-2-0.9-3.5-2.3-4.6-4.2c-0.3-0.5-0.7-0.8-0.1-1.3c0.6-0.5,0.6-1.1,0.6-1.8c0-0.4,0.1-0.7,0.5-0.8
		c0.4-0.1,0.6,0.3,0.7,0.6c0.5,1.1,1.4,1.3,2.5,1.3c0.9,0,1.8,0.1,2.7,0c2.9-0.5,4.7,1,6.2,3.2c0.7,1.1,2,0.9,3,1.3
		c1.1,0.4,2.4,0.6,1.1,2.2c-0.3,0.4-0.3,0.9,0.1,1.2c0.5,0.3,1,0.3,1.4,0c1.3-1.1,2.3-0.7,3.5,0.4c0.7,0.6,1.5,1.2,2.7,1
		c0.8-0.1,1.5,0.8,1.7,1.6c0.2,0.7-0.4,1.2-1.1,1.5c-0.3,0.1-1,0.2-0.9,0.5c0.2,0.8,0,1.6,0.2,2.3c0.1,0.4,0.5,0.1,0.8-0.1
		c2-1.2,2.7-0.8,2.8,1.4c0,1.4,0.7,2.5,1.4,3.6c0.4,0.7,1.1,0.8,1.6,0c0.7-1,1.2-0.8,1.4,0.2c0.3,1.5,1.1,1.6,2.2,0.9
		c0.7-0.4,1.1-0.3,1.3,0.6c0.3,1.3,0.4,2.7,1.6,3.6c0.4,0.3,0.5,1,0.3,1.6c-0.3,0.6-0.8,0.1-1.2,0.1c-1-0.1-0.9,0.8-0.6,1.1
		c0.8,0.6,1.1,1.4,1.5,2.3c0.1,0.2,0.3,0.4,0.5,0.4c1.3-0.1,2.2,0.7,3.2,1.2c0.7,0.3,1.2,0.3,1.3-0.6c0.1-0.5,0.2-1,0.9-1.1
		c0.3,0,0.6,0.1,0.7,0.4c0.2,0.6-0.3,0.9-0.7,1.2c-0.8,0.7-1.1,1.9-2.2,2.4c-0.4,0.2-0.7,0.8-0.4,1.5c0.7,0.3,1.6-1.4,2.2,0.2
		c0.2,1-0.7,1.5-1.2,2.2c-0.7,1-1.7,1.9-2.2,3.1c-0.1,0.1-0.2,0.3-0.2,0.4c-1.8,2.1-3.2,4.4-4.4,6.9c-0.2,0.5-0.2,1.4-1.2,1.2
		c-0.8-1.8-0.8-3.8-1.6-5.7c-3-7.2-11-10.4-18-7.1c-0.8,0.4-1.3,1.3-2.3,1.2c-1.5-1.1-1.4-1.5,0-2.6c1.1-0.8,2.5-1.2,3-2.7
		c-0.8,0.3-1.5,0.7-2.3,1.1c-0.7,0.4-1.4,0.7-2.2,0.4c-0.7-0.2-1.3,0-1.9,0.4c-1.6,1-3,0.5-3.5-1.4c-0.2-0.7-0.1-1.3-0.2-2
		c0-0.6,0-1.2-0.7-1.6c-0.4,0.5-0.1,0.9-0.1,1.3c0.1,1.3-0.7,2.2-1.8,2.8C142.7,80.1,141.8,79.4,141.7,78.1z"/>
	<path class="st5" d="M134,54.1c-1.3-0.9-2.8-1.2-4.4-1c-1.3,0.1-1.6-0.8-1.7-1.9c-0.1-0.6,0-1.3-0.8-1.5c-0.9-0.2-1.2,0.4-1.4,1.1
		c-0.2,0.7-0.7,0.9-1.4,0.8c-1.1-0.1-2.2-0.2-3.3-0.4c-1-0.2-1-0.9-0.7-1.7c0.1-0.4,0-0.7-0.4-0.8c-0.5-0.1-0.4,0.4-0.5,0.7
		c-0.7,2.7-0.7,2.7-3.4,2.9c-0.6,0-0.9,0.6-1.4,0.8c-0.5,0.3-1.2,0.3-1.4-0.3c-0.2-0.6,0.3-0.8,0.8-0.8c1.1-0.2,0.7-0.8,0.4-1.3
		c1.7,0,2.2-1.1,2.3-2.6c0-0.6,0.3-1,0.7-1.5c1-1.3,0.8-1.8-0.6-2.6c-0.8-0.5-1.8-0.8-1.4-2.1c0-0.9,0.8-1.5,0.6-2.6
		c0.4,0.4,0.7,0.8,0.9,0.7c1.7-0.4,3.6,0,5.1-1.2c0.1-0.1,0.2-0.3,0.4-0.2c3,1.1,6-0.5,9,0.2c0.7,0.1,1.5,0,1.8,0.6
		c0.9,2,2.7,1.7,4.1,1.4c2-0.4,2.2,1.5,3.2,2.2c0.8,0.6-0.2,1.3-0.7,1.9c-0.1,0.1-0.2,0.2-0.2,0.3c-0.8,2-1.9,3.2-3.9,4.4
		C133.3,51.1,133.1,51.5,134,54.1z"/>
	<path class="st39" d="M184.9,81.4c0.2-0.3,0.4-0.5,0.7-0.8c0.3-0.6,0.6-1.2,1.4-1.2c0.2,0.2,0.2,0.4,0.2,0.7
		c-1.3,2.5-3.3,4.6-4.8,7c-1.7,1.9-3.1,4-3.9,6.4c-0.9,2.7,0.6,4.4,3.4,4.1c1.2-0.1,1.7-1,2-1.9c0.9-2.5,1.8-4.9,3.8-6.8
		c0.6-0.6,1.3-1.8,2.4-0.4c-0.1,0.6-0.5,0.9-0.9,1.2c-1.8,1.9-2.9,4.1-3.7,6.6c-0.8,2.5-2.3,3.4-5,3.1c-1.2-0.4-2.4-0.7-3.1-1.8
		c-1.1-1.6-1-3.2-0.2-4.9c1-2.1,2.2-4,3.7-5.7l0,0C181.9,84.8,183.7,83.3,184.9,81.4z"/>
	<path class="st40" d="M142,59.5c-0.1,0-0.1,0-0.2,0c-1.6-0.7-3.1-0.8-4.9-0.5c-1.4,0.3-2.2-1-1.9-2.6c0.2-1.1,0-1.9-0.5-2.7
		c-0.9-1.5-0.6-2.6,1.1-3.1c1.4-0.3,2.2-1.2,3.1-2.1c1.2-1.2,1.9-1,2.7,0.4c0.6,1,1.2,1.9,2.5,2.3c2,0.7,2.2,2,0.7,3.6
		c-0.8,0.8-1,1.7-0.9,2.7C143.8,58.7,143.4,59.6,142,59.5z"/>
	<path class="st41" d="M115.4,42c0.2,0.9,0.8,1.4,1.7,1.7c1.7,0.7,2,1.8,0.8,3.1c-0.6,0.6-0.7,1.3-0.8,2.1c-0.2,1.9-0.9,2.3-2.6,1.9
		c-0.1,0-0.2,0-0.3,0c-1-0.7-2.1-0.2-3.1-0.3c-1.7-0.1-2.1-0.6-1.8-2.2c0.2-0.9,0.2-1.6-0.4-2.4c-0.9-1.2-0.5-2.2,0.9-2.8
		c1-0.4,2.2-0.7,2.7-1.8C113.7,39.9,114.5,41.3,115.4,42z"/>
	<path class="st42" d="M186.9,79.2c-0.4,0.4-0.9,0.9-1.3,1.3c0-0.9,0.8-1.4,1.2-2.1c1.4-2.2,1.2-3.4-1.1-4.7
		c-0.2-0.1-0.4-0.3-0.6-0.3c-4.7-0.9-5-3.9-3.4-8.4c0.5-1.4,0.3-3,1.5-4.2c0.1,0,0.2,0,0.3,0c0.7,1.1,0,2.1-0.2,3.1
		c-0.2,1.1-0.6,2.1-0.8,3.3c-0.3,2.4,0.7,4.2,3,5.2c0.8,0.3,1.7,0.6,2.5,1.1C189.7,75.2,189.2,78.1,186.9,79.2z"/>
	<path class="st2" d="M165.7,49.4c-1.5-1.3-1.3-2.7,0.5-3.4c1.1-0.4,2.3-0.6,2.3-2.2c0-0.2,0.3-0.5,0.5-0.6c0.9-0.5,3.5,0.6,3.8,1.7
		c0.4,1.2,1,1.9,2.4,1.8c1.1-0.1,1.5,0.3,1,1.6c-0.7,1.8-2.2,3-2.3,5.2c0,1.2-1.4,1.4-2.4,0.4c1.3-0.2,1.9-1,2-2.3
		c0-0.7,0.2-1.3,0.7-1.8c0.8-0.9,0.8-1.7-0.4-2.2c-1-0.5-1.9-1.2-2.5-2.2c-0.4-0.9-1.1-0.8-1.6-0.2c-0.8,0.9-1.8,1.6-2.9,2
		C165.5,47.4,166.1,48.6,165.7,49.4z"/>
	<path class="st43" d="M165.7,49.4c-0.7-1.6-0.2-2.6,1.4-3c0.9-0.3,1.5-0.8,2.1-1.5c0.9-1.1,1.7-1,2.4,0.3c0.5,1,1.4,1.6,2.3,2
		c1.5,0.7,1.6,1.5,0.5,2.7c-0.6,0.7-0.6,1.3-0.7,2.1c-0.1,1.6-0.9,2.2-2.3,1.8c0,0,0,0,0,0c-0.9-0.2-1.7-0.6-2.7-0.3
		c-2.6,0-2.6,0-2.4-2.7C166.4,50.2,166.3,49.7,165.7,49.4z"/>
	<path class="st44" d="M172.7,63.9c-1.7,0-2.3-0.6-2.3-2.1c0.1-1.3,1.1-1.8,2.1-1.7c0.8,0.1,2.1,0.6,1.9,1.6
		C174.2,62.5,174.5,64.2,172.7,63.9z"/>
	<path class="st5" d="M179.7,73.1c0.9,0.2,1.6,0.4,2.3,0.6c0.5,0.1,1.3,0.1,1,0.9c-0.2,0.6-0.8,1.4-1.7,1c-0.7-0.4-1.3-1-2-1.5
		c-0.2-0.2-0.3-0.5-0.1-0.8C179.5,73.1,179.7,73.1,179.7,73.1z"/>
	<path class="st5" d="M149.6,42.4c-1,1.8-3.3,2.2-5.1,0.7C146.3,43.1,147.8,42,149.6,42.4z"/>
	<path class="st45" d="M184.9,81.4c-1,2.1-2.6,3.7-4,5.5c-0.1-1.4,1.3-2,1.9-3.1c0.5-0.9,1.2-1.6,1.8-2.4
		C184.7,81.4,184.8,81.4,184.9,81.4z"/>
	<path class="st5" d="M176.5,65c-0.6-0.2-1.5,0.2-1.6-0.8c-0.1-0.4,0.4-0.7,0.8-0.5c0.5,0.3,1.5-0.1,1.6,0.8
		C177.4,65.1,176.9,65.1,176.5,65z"/>
	<path class="st5" d="M173.9,58c-0.2,0.2-0.2,0.3-0.2,0.3c-0.7,0.2-1.5,0.5-2.1-0.2c-0.1-0.1,0-0.4,0.1-0.4
		C172.4,57.3,173.2,57.4,173.9,58z"/>
	<path class="st5" d="M135.4,38.4c-0.1,0.4-0.5,0.5-0.8,0.5c-0.5,0-0.8-0.3-0.7-0.7c0.1-0.5,0.5-0.3,0.8-0.3
		C135.1,37.9,135.4,38.1,135.4,38.4z"/>
	<path class="st5" d="M134.3,57.1c-0.9-0.9,0.3-2.1-0.3-3C135.3,55,134.4,56.1,134.3,57.1z"/>
	<path class="st5" d="M160.6,49.6c-0.3-0.1-0.3-0.4-0.3-0.7c0-0.3,0.2-0.5,0.5-0.5c0.4,0.1,0.4,0.3,0.3,0.6
		C161.1,49.3,161,49.6,160.6,49.6z"/>
	<path class="st2" d="M168.7,53.4c1-0.7,1.8-0.2,2.7,0.3C170.5,53.8,169.6,53.7,168.7,53.4z"/>
	<path class="st46" d="M187.9,73.8c-0.9-0.4-1.8-0.7-2.7-1.1c-2.4-1-3.5-3-3.1-5.5c0.3-2.2,1.3-4.2,1.4-6.4c0.9-1.8,2.7-2.1,4.4-2.5
		c1.2-0.3,2.2-0.7,3-1.5c0.3,0.1,0.4,0.2,0.4,0.5c-0.7,1.1-1.7,1.8-3,2.1c-1,0.2-1.9,0.5-2.7,1.1c-0.5,0.3-0.8,0.8-1,1.3
		c-0.5,1.8-1.1,3.5-1.3,5.4c-0.2,1.2-0.1,2.5,0.8,3.5c0.7,0.9,1.8,1.1,2.7,1.6C187.4,72.6,188.3,72.8,187.9,73.8z"/>
	<path class="st47" d="M210.2,50.1c-0.2,0.1-0.3,0.3-0.5,0.4c-0.8,0.9-1.9,3.5-2.3,5c-0.9,3-2.8,5.5-4.7,7.9
		c-0.9,1.1-1.8,2.3-2.8,3.3c-0.4,0.4-0.8,1-1.6,0.5c-0.2-0.4-0.2-0.7,0.2-0.9c2-0.8,2.6-3,4-4.3c1.3-1.2,2-3,3-4.5
		c0.5-1.2,1-2.4,1-3.8C206.6,51.5,207.9,50.2,210.2,50.1z"/>
	<path class="st48" d="M198.4,66.2c0,0.3,0,0.6,0,0.9c0.3,0.4,0,0.6-0.3,0.8c-0.3,0.2-0.5,0-0.7-0.3c-0.2-0.3-0.3-0.6-0.3-0.9
		c-0.1-2-1.3-3.4-2.6-4.8c-1.4-1.4-1.9-3.3-3.2-4.7c-0.1-0.1-0.3-0.3-0.4-0.4c1.4-1,2.2,0.1,2.5,1.1c0.6,1.6,1.6,2.9,2.8,4.1
		C197.5,63.2,198.1,64.7,198.4,66.2z"/>
	<path class="st29" d="M83.3,60.6c-1.4,1.4-1.9,1.3-2.4-0.4C81.6,60.5,82.3,60.5,83.3,60.6z"/>
	<path class="st29" d="M82.4,166.1c-0.6,0-1.1,0-1.6,0.2c-0.5,0.2-1,0.1-1.3-0.4c-0.2-0.5-0.2-1.1,0.3-1.3c1.2-0.5,1.2-1.6,1.6-2.6
		c0.3-0.6,1.1-0.9,1.1-1.6c-0.1-0.8,0.7-0.9,1.1-1.3c1.9-1.6,1.9-4.4,0.1-6.1c-1.2-1.1-2.3-1.2-3.9-0.3c-1.7,0.9-3.3,2-5,2.7
		c-3.5,1.5-5.4,0.3-5.7-3.5c-0.2-2.1-0.4-4.2-0.3-6.4c0-0.7-0.1-1.5,0.7-1.9c2.4-0.4,4.8-0.5,7.2-0.9c2-0.3,3.9-0.7,5.5-1.9
		c0.4-0.3-0.3-0.2-0.2-0.4c0.2-0.6,0.8-0.7,1.3-1c1.6-1.1,1.7-2.4,0.3-3.6c-1.7-1.4-3.8-1.6-5.9-1.4c-1.9,0.2-3.9,0.4-5.8,0.8
		c-1.8,0.3-2.3-0.2-2.4-2.1c-0.1-2.5,0.1-4.9,0.3-7.4c0.1-0.4,0.1-0.9,0.5-1.2c1.5-0.7,3.1-0.3,4.6-0.5c2.6-0.3,5.2-0.5,7.8-0.6
		c0.8,0.9-0.1,1.1-0.7,1.2c-1.3,0.2-2.5,0.4-3.8,0.5c-2.3,0.1-2.8,0.6-3.2,2.8c-0.1,0.5-0.1,1.3-0.8,1.2c-0.6,0-0.6-0.7-0.7-1.2
		c-0.1-0.5,0-1-0.2-1.5c-0.4,1.6-0.2,3.1,0.6,4.4c0.8,1.4,1.8,2.2,3.7,1.9c2.4-0.3,4.9-0.6,6.9,1.5c1.4,1.5,1.8,3.6,0.9,5.3
		c-1.1,2.1-2.5,4-5.3,4.8c1.7,0.1,2.9-0.5,4.2-0.7c0.8-0.1,1-0.8,1.3-1.4c0.3-0.6,0.5-1.5,1.5-1.2c0.6,0.7,0.3,1.5,0.1,2.2
		c-1.8,7,1.6,15.5,7.6,19.5c3.9,2.6,12.5,3.2,15.9-0.1c1.3-1.3,1.7-1,2.6,0.6c1.5,2.7,3.5,2.7,5.5-0.1c1.9-1.2,2.6-3,2.8-5.2
		c0.5-5.3,0.7-10.6,1.2-15.9c0.2-1.6,0-3.3,0.1-4.9c0-0.8,0.1-1.7,0.7-2.4c0.8-0.1,0.7,0.5,0.7,1c0.1,4.3-0.2,8.5-0.1,12.8
		c0,1.6-0.8,3.1-0.7,4.8c0.1,1.7,0.4,3.3,1.7,4.7c-0.1-0.8-0.5-1.5-0.7-2.1c-0.5-1.5-0.6-2.9-0.2-4.4c0.5-1.8,0.3-3.8,0.2-5.7
		c-0.3-4,0.2-8-0.3-11.9c-0.1-0.8,0.3-1.4,1.2-1.5c0.4,0.3,0.5,0.8,0.4,1.2c-0.7,4,0.2,7.9,0.1,11.9c-0.1,2.9,0.2,5.8,0.6,8.7
		c0.8,5.1,3.5,8.6,8.4,10.5c0.3,0.1,0.5,0.2,0.7,0.4c2,1.5,4.1,1.6,6.4,0.9c1.6-0.5,3.2-0.7,4.7-1.2c1.2-0.3,3.6,1.9,3.5,3.1
		c-0.1,0.9-0.5,1.9-1.5,1.6c-3-0.9-4.9,1.1-7.2,2.2c-1.8,0.9-2.9,2.7-4.7,3.4c-0.3,0.1-0.5,0.3-0.7,0.4c-0.8,0.3-1.6,0.2-2.1-0.5
		c-0.6-0.7-0.2-1.2,0.4-1.8c-0.9,0-1.1,0.5-1.4,1c-1.1,1.7-3,2.1-4.4,0.8c-0.8-0.7-1.4-0.8-2.4-0.5c-2.6,0.7-4.8,0.3-7.1-1.7
		c-1.8-1.6-3.7-3-5.2-4.9c-1.2-1.3-2.7-1.1-4.2-1c-7,0.7-13.9,0.7-20.6-1.6C86.6,164.4,84.6,165.2,82.4,166.1z"/>
	<path class="st49" d="M114,167.8c0.9,0.9,1.8,1.9,2.8,2.6c1.7,1.2,3.2,2.8,4.9,3.7c1.2,0.7,3.1,0.3,4.7-0.2
		c0.9-0.3,1.7-0.7,2.3,0.6c0.4,0.9,1.5,0.9,2.4,0.7c0.7-0.2,1.5-0.5,1.6-1.4c0.2-1.4,1.3-1.2,2.3-1.1c0.1,0,0.3,0.2,0.3,0.3
		c0,0.3-0.2,0.5-0.5,0.6c-0.5,0.2-1.1,0.2-0.8,1c0.3,0.7,1,1,1.7,0.7c0.7-0.2,1.4-0.6,1.9-1.1c1.7-1.8,4.1-2.7,5.9-4.2
		c1.9-1.6,3.3-1.1,5.1-0.9c0.4,0.1,0.8,0,1-0.4c0.2-0.5,0.6-1,0.1-1.7c-1.5-1.8-2.2-1.9-4.6-1.4c-2.4,0.5-4.7,1.8-7.3,0.9
		c-0.8-0.3-1.7-0.2-2.2-1c0.5-0.5,1-0.3,1.6-0.2c3,0.4,5.9-0.1,8.7-1.3c0.6-0.3,1.2-0.4,1.9-0.1c2.9,1.1,4,0.8,6.2-1.7
		c1.8-0.9,2.2-2.6,2.4-4.3c0.4-3,0.3-5.9,0.4-8.9c0-0.7,0-1.3,0.1-2c0.2-0.6,0.2-1.3,0.2-2c-0.2-3.3,0.3-6.6,0.3-9.9
		c0-0.6,0-1.2,0.3-1.7c1.1-0.3,0.9,0.6,1,1.1c0.1,1.9,0.2,3.8,0,5.7c-0.5,3.6-0.2,7.2-0.3,10.8c0,1.5,0.1,2.9-0.2,4.4
		c-0.1,0.4-0.1,0.8,0,1.2c1.4,3.3-1.6,5-2.3,7.4c2.2,0.4,1.9-2.3,3.1-3.3c0.2-0.1,0.2-0.4,0.3-0.6c0.6-1.4,1.5-1.6,2.9-0.7
		c0.1,0.2,0.2-0.2,0.1,0c0,0-0.1,0-0.1-0.1c-0.7-2.9-2.1-5.8-1.6-8.9c0.8,0.2,0.8,0.2,1,1.2c0.7,2.9,1.7,5.7,3.7,8
		c0.5,0.6,1.1,1.2,1.8,1.8c0.5,0.4,1.2,0.8,1.1,1.7c0.8,1.2,1.7,2,3.2,2.1c0.6,0,1.1,0.3,1.5,0.8c0.7,0.8,1.5,1.2,2.5,0.9
		c0.4-0.1,0.8,0,1,0.4c0.2,0.4-0.2,0.6-0.4,0.8c-1.2,1.2-1.6,3.1-3.4,3.8c-0.4,0.1-0.5,0.7-0.3,1.1c1,1.4-0.3,1.5-1,1.6
		c-2.4,0.3-4.7,1-7.1,0.8c-1.3-0.1-2.6,0.3-3.8,0.3c-2,0-4-0.2-5.9-0.3c-2.6-0.9-5.2-1.8-7.7-2.8c-1.6-0.7-3-0.6-4.4,0.4
		c-5,3.8-10.6,5.1-16.6,3.7C120.7,175,116.3,172.7,114,167.8z"/>
	<path class="st50" d="M234,47.4c-1.5-0.1-3.1-1-4.6-2.1c-1-0.7-1.9-0.8-3-0.3c-1.3,0.6-2.7,1.1-4.2,1.1c-2.8,0-4.9-1.9-4.1-4.6
		c0.9-3.2,0.4-5.7-1.6-8.4c-1.8-2.4-1-4.2,1.8-5.4c0.1,0,0.1-0.1,0.2-0.1c3.8-0.4,6.3-2.8,8.7-5.4c2.1-2.3,4.2-1.9,5.4,0.9
		c1.3,3,2.8,5.5,6.3,6c0.4,0,0.7,0.3,1,0.5c2.7,1.6,3,3.3,1.1,5.8c-0.1,0.2-0.2,0.4-0.4,0.5c-2.9,1.6-3.1,4.2-2.8,7
		c0.1,1-0.3,2-0.8,2.9C236.5,46.9,235.7,47.4,234,47.4z"/>
	<path class="st51" d="M141.7,78.1c0.2,1,0.8,1.6,1.8,1.2c1-0.5,1.8-1.3,1.7-2.6c0-0.3-0.3-0.6-0.4-0.9c-0.1-0.5,0.2-0.9,0.6-1.1
		c0.5-0.2,0.7,0.2,0.9,0.5c0.4,0.6,0.5,1.2,0.5,1.9c0,0.8-0.1,1.6,0.3,2.3c0.6,1.3,1.4,1.5,2.6,0.7c0.7-0.5,1.4-1.4,2.5-0.5
		c0.4,0.3,1,0.1,1.4-0.2c1-0.8,2.2-1.2,3.4-1.8c0,2.2-1.9,3-3.3,3.8c-1.3,0.8-0.9,1.3-0.4,2.1c-0.6,1.5-1.8,2.6-2.8,3.7
		c-0.7,0.2-0.9,0.9-1.4,1.4c-0.4,0.4-0.8,1-1.5,0.9c-0.1-0.1-0.2-0.3-0.2-0.4c0.2-3.2-0.5-4.4-3.6-5.6c-5.2-2-10.3-1.9-15.1,1.2
		c-1.6,1.1-2.7,2.6-4.1,4c-1.9,1.5-2.8,3.5-3.8,5.6c-0.3,0.6-0.2,1.9-1.5,1.3c-0.5-2.2-0.2-4.5-0.2-6.7c0-2.3-0.4-4.3-2.3-5.8
		c-0.2-1,0.7-1.5,1.2-2.2c1.1-1,2.3-1.9,2.7-3.4c0.1-0.2,0.3-0.3,0.5-0.2c0.6,0,1.5-1.6,1-2.2c-0.9-1.1-0.9-2.6-2.2-3.5
		c-1-0.8-0.6-1.9,0.7-2.4c0.5-0.2,1-0.2,1.4-0.4c0.4-0.2,0.7-0.5,1.1-0.8c0.8,2.1,1.4,4,1.1,6.3c-0.3,2.4,1.4,5.4,4.9,4.6
		c2.7-0.6,5.6-0.5,8.4-0.1c0.4,0.1,0.9-0.2,0.9-0.5c-0.1-1,0.9-1.4,1.2-2.4C140.3,76.9,140.7,77.8,141.7,78.1z"/>
	<path class="st52" d="M103.2,78.8c1.4,0.8,2.7,1.6,4.1,2.4c0.5,0.2,0.8,0.7,1.1,1c0.9,1.7,1.2,3.5,0.1,5.2
		c-0.5,0.7-1.2,1.2-2.1,1.2c-1.6,0.2-2.9-0.5-4.3-1c-0.6-0.2-1.2-0.3-1.7,0.2c-0.5,0.6-0.2,1.1,0.1,1.7c1.4,2,3.5,3.3,5.1,5
		c2.6,2.7,3.7,6,3.7,9.6c0,3.1-1.4,5.4-4.1,7.1c-5.7,2.9-11.4,3-16.9-0.3c-3.1-1.8-4.6-4.7-4.1-8.4c0.9-2.6,2.5-3.9,4.8-3.9
		c1.6,0,2.8,0.6,3.6,2c0.3,0.5,0.5,1.1,0.8,1.7c1.2,2.4,2.5,3,5.2,2.4c2.2-1.3,2.5-4.4,0.5-6.6c-1.8-1.9-3.7-3.7-5.6-5.6
		c-1.5-1.6-2.8-3.2-3.1-5.5c-0.2-1.4,0-2.8,0.8-4C93.9,78.5,98.3,76.9,103.2,78.8z"/>
	<path class="st53" d="M91.4,83.1c-1.3,3.2-0.5,5.9,1.7,8.3c1.9,2,3.9,3.9,5.8,5.8c1.4,1.4,2.1,3.1,1.9,5.2
		c-0.1,1.4-0.7,2.4-2.2,2.8c-0.1-0.1-0.2-0.2-0.2-0.3c0-3.9-2.6-6.1-5.2-8.3c-1.8-1.6-3.4-3.4-4.5-5.5c-0.2-0.3-0.4-0.7-0.1-1.1
		c-0.3-2.4,0.3-4.5,1.7-6.4c0.2-0.2,0.5-0.5,0.7-0.7C91.4,82.7,91.5,82.8,91.4,83.1z"/>
	<path class="st54" d="M141.4,76.4c0.1-2.4,0.5-4.8,1-7.2c0.2-1.1-0.3-0.8-0.9-0.6c-0.4,0.1-0.7,0.8-1.1,0.2c-0.4-0.5,0.1-1,0.4-1.3
		c1.5-1.8,5.3-2.1,7.1-0.7c1.1,0.8,1.2,1.8,0.9,3c-0.2,0.8-0.6,1.6-1.3,2.1c-2.1,1.3-3.9,2.6-3.4,5.6c0.2,1-1,1.3-1.9,0.6
		C141.8,77.5,141.6,76.9,141.4,76.4z"/>
	<path class="st55" d="M138.7,65.8c0.5,0.3,0.9,0.7,1.2,1.2c0.3,0.7,0.1,1.2-0.5,1.6c-0.6,0.3-1.1,0.4-1.2-0.4
		c-0.2-0.8-0.8-0.6-1.2-0.4c-0.6,0.2-1.5,0.3-1.6,1.2c-0.1,0.6,0.5,0.8,0.9,1c0.3,0.2,0.7,0.3,1.1,0.4c2.2,0.8,2.8,2.1,2.4,4.9
		c-0.9,1.4-2.2,2.4-3.9,2.9c-1.1,0.3-2.1,0.1-2.8-0.8c-0.6-0.8-1.2-1.7-0.3-2.7c0.4-1.2,1.1-1.7,2.4-1c0.2,0.2,0.2,0.5,0.2,0.8
		c0.1,0.4,0.2,0.9,0.8,0.9c0.5,0,0.8-0.3,1.1-0.7c0.3-0.4,0.2-0.8-0.1-1.2c-0.4-0.5-0.9-0.8-1.5-1.1c-0.9-0.5-1.8-0.9-2.1-2
		c0-0.5,0-0.9,0-1.4c0.4-1.9,1.7-2.7,3.5-3C137.5,65.9,138.1,65.8,138.7,65.8z"/>
	<path class="st56" d="M127.7,73.7c-0.1,0.8-0.3,1.6,0.2,2.3c1.1,0.8,1.8-0.5,2.7-0.6c0.3,0.2,0.6,0.4,1,0.4c0.7,1,0,1.5-0.7,2
		c-0.6,0.4-1.3,0.4-2,0.7c-3-0.1-4.4-2.1-3.5-5.7c0.3-1.1,0.4-2.3,0.8-3.4c0.2-0.7,0.8-1.6-0.3-2.4c-0.6-0.4,0.3-0.7,0.5-1
		c1.9-0.8,3.7-0.4,5.5,0c0.4,0.1,0.6,0.3,0.6,0.7c0,0.4-0.3,0.6-0.6,0.7c-0.8,0.1-1.5,0.3-2.3,0.3c-1.1,0-1.6,0.7-1.5,1.7
		c0,1.2,0.8,1.3,1.7,1.2c0.7-0.1,1.5-0.1,2,0.5c0,0.3,0,0.6,0,0.9c-0.5,0.6-1.3,0.6-2,0.7C128.8,72.8,128.1,72.9,127.7,73.7z"/>
	<path class="st57" d="M108,82.1c-0.2-0.3-0.5-0.7-0.7-1c-0.1-1.7-1.2-3.4-0.1-5.1c0.6-0.9,0.8-1.9,2-2.3c0.3,0.4,0.3,0.9,0.2,1.3
		c-0.6,4,3.4,7.7,8,5.9c0.3,0,0.5,0,0.7,0.3c-0.3,0.7-0.9,1.2-1.4,1.7c-1.4,0.3-2.7,1-4,1.6C110.7,84.6,109.3,83.4,108,82.1z"/>
	<path class="st58" d="M117.5,81.2c-2.2,1.1-4.4,0.8-6.3-0.7c-2.1-1.8-2.9-4.1-2-6.8c2.3-3.6,6.2-4.4,9.6-2.1
		c-0.1,0.3-0.3,0.4-0.5,0.5c-1.4-0.4-2.8-1-4.3-0.6c-1.7,0.4-3.2,1.2-3.8,3c-0.5,1.9-0.3,3.7,1.3,5c0.9,1,2.1,1.1,3.4,1.1
		c0.8,0,1.6-0.4,2.5,0.1C117.6,80.9,117.6,81.1,117.5,81.2z"/>
	<path class="st5" d="M115.8,60.1c0.5-0.8-0.1-2.4,1.2-2.7c1.4-0.3,3.1-0.5,4.2,1c0.9,1.2,0.3,2.3-0.1,3.5c-0.4,1.1-1.3,0.5-2,0.4
		c-0.6-0.1-1.3,0-1.8-0.1C116.4,61.8,115.7,61.3,115.8,60.1z"/>
	<path class="st5" d="M131.6,71.1c-0.7-0.3-1.5-0.4-2.3-0.2c-0.7,0.1-1.8,0.5-1.6-0.8c0.1-1-0.8-2.7,1.4-2.6c0.5,0,1,0,1.5-0.1
		c0.5-0.1,1.5,0.2,1.5-0.6c0-0.8-1-0.6-1.5-0.7c-1.4-0.1-2.9,0-4.3,0c-0.3-0.4,0.1-0.5,0.3-0.5c1.9-0.5,3.8-0.2,5.6,0.3
		c0.5,0.1,0.9,0.6,0.7,1.2c-0.1,0.5-0.5,0.6-1,0.7c-0.8,0.1-1.6,0.2-2.5,0.4c-0.6,0.1-1.2,0.4-1.2,1.2c0,0.8,0.6,1,1.2,1.1
		C130.2,70.4,131.2,69.9,131.6,71.1z"/>
	<path class="st34" d="M91.4,83.1c-0.1-0.1-0.2-0.2-0.3-0.3c2.1-4,7.7-6.2,11.7-4.5c0.2,0.1,0.3,0.3,0.4,0.5c-3-0.6-6-1-8.8,1
		C93.1,80.6,92.3,81.9,91.4,83.1z"/>
	<path class="st59" d="M117.5,81.2c0-0.1,0-0.3-0.1-0.4c0.2-1.3,1.9-1.4,2.1-2.6c0.8-1.8,0.7-3.5-0.5-5.1c-0.3-0.3-0.6-0.7-0.6-1.2
		c0.1-0.1,0.3-0.2,0.4-0.3c2.2,1.4,2.4,3.5,2.3,5.8c-0.5,1.6-1.5,2.8-3,3.7C117.9,81.2,117.7,81.2,117.5,81.2z"/>
	<path class="st5" d="M133.5,70.3c0.6,1.1,1.8,1.5,2.8,2c0.8,0.4,1.7,1,1.2,2.1c-0.3,0.7-0.9,1.5-1.7,1.3c-1.2-0.2-0.8-1.2-0.8-2
		c0.1,0.2,0.3,0.3,0.4,0.5c0.2,0.3,0.3,0.9,0.9,0.7c0.2-0.1,0.5-0.3,0.6-0.5c0.2-0.6-0.2-0.9-0.6-1.2c-0.7-0.5-1.5-1-2.2-1.5
		C133.6,71.4,133.1,71,133.5,70.3z"/>
	<path class="st5" d="M119.8,54.7c0.8,0.5,1.5,1.2,2.6,1c0.1,0,0.1,0.5,0,0.7c-0.2,0.5-0.4,1-1,1.1c-0.3,0.1-0.5-0.3-0.5-0.5
		c-0.1-0.8-0.7-1.1-1.3-1.4c-0.2-0.1-0.3-0.3-0.2-0.6C119.4,54.9,119.6,54.9,119.8,54.7z"/>
	<path class="st60" d="M128.9,78.4c1-0.8,3-0.5,2.7-2.7c0.2-0.5,0.4-1,1-1c-0.1,0.9,0,1.8,0.3,2.7c-0.4-0.2-0.8-0.7-1.3,0
		C131,78.4,130,78.5,128.9,78.4z"/>
	<path class="st5" d="M137,65.9c-1.4,0.7-2.8,1.5-3.5,3C133.2,67.2,135.3,65.4,137,65.9z"/>
	<path class="st5" d="M127.7,73.7c-0.3-0.9,0.3-1.1,1-1.2c1-0.1,2-0.4,3-0.5c0.3,0.6-0.2,0.6-0.5,0.7
		C129.9,72.9,128.7,73.1,127.7,73.7z"/>
	<path class="st5" d="M130.6,75.4c-1.7,1.3-1.7,1.3-2.7,0.6c0-0.2,0.1-0.4,0.1-0.6C128.9,76.8,129.7,75,130.6,75.4z"/>
	<path class="st61" d="M88.7,89.9c1.5,3.5,4.4,5.8,7.1,8.3c2,1.9,3.5,4,2.9,6.9c-2.7,0.9-4.5,0-5.7-2.8c-1.2-2.9-2.5-3.8-4.6-3.3
		c-1.8,0.4-3.1,1.4-3.6,3.3c-2.6,1.9-2,5.6-0.4,7.7c2.1,2.7,5,4.2,8.4,4.4c2.4,0.1,4.8,0.3,7.2-0.6c0.5-0.2,1.1-0.4,1.6,0
		c-0.6,1.6-2,2.2-3.5,2.4c-1.1,0.2-2.1,0.2-3.2,0c-1.5-0.3-3-0.3-4.4,0.4c-1,0.5-1.8-0.1-2.6-0.8c0.4,0.4,0.9,0.9,0.9,1.5
		c-0.2,2.3,1.5,3.5,3,4.8c0.9,0.8,1.3,1.5,1.2,2.6c-0.1,1.8,0.9,2.8,2.4,3.5c0.6,0.3,1.2,0.4,1.8,0c1.5-0.9,3.1-0.9,4.7-0.8
		c3.1,0.1,6.2,0.2,9.1,1.6c0.6,0.3,0.9,0,1.1-0.6c0.4-1.5,1.2-2.9,1-4.6c-0.1-0.5,0-1,0.2-1.5c0.3-0.5,0.6-1.1,1.4-0.6
		c0.1,2.1-0.3,4.2-0.6,6.3c-0.2,1.3,0.3,2.7-0.6,3.9c-0.7,0.5-1.3,0-1.8-0.4c-4.9-3.7-14.1-4-18.9,2.8c-0.3,0.5-0.7,0.9-1.1,1.3
		c-1.5,1.1-2.3,2.7-3.2,4.4c-0.3,0.5-0.4,1.2-1.2,1.2c-1.1,0.1-1.1,1-1.4,1.7c-0.3,0.8-0.8,1.3-1.7,1.3c-1.6,0.1-3.1,1.1-4.8,0.5
		c0.1-1,1-0.9,1.6-1.1c2.7-0.9,3.8-3.3,4.7-5.6c0.7-1.7-2.1-4.9-4.2-5c-1.6,0-3.2-0.3-4.8,0.3c-1.3,0.4-1.8-0.7-2.4-1.4
		c-1.6-1.5-2-4.6-1.1-6.8c1.4,0.9,0.5,2.5,1,3.7c0.8-0.2,0.5-0.8,0.5-1.2c0.1-2,1-2.9,3-3c1.5-0.1,3-0.2,4.5-0.3
		c0.4,0,0.7-0.3,0.9-0.6c0.4-1,1.8-1.1,2-2.4c0.8-0.8,2.3-1.1,1.9-2.6c-0.4-1.5-1.7-1.8-3-2c-0.4-0.1-0.9-0.1-0.9-0.7
		c0.2,0,0.4,0,0.9-0.1c-2.3-0.7-4.5-0.7-6.5-0.9c-3.2-0.3-6.5,0.3-9.7-0.4c-0.8-0.2-1.7,0.3-2.5,0.5c-0.4,0.1-0.8,0.2-1.1,0.1
		c-0.6-0.2-1.5,0-1.6-0.6c-0.1-0.8,0.7-0.9,1.4-1.1c1.2-0.3,1.3-1.6,2-2.3c1.7-1.7,0.3-3.7,0.7-5.6c0.4-2.1-0.2-4.3-0.4-6.5
		c-0.1-1,0.5-1.4,1-0.8c1.7,2.2,3.7,0.9,5.6,0.7c0.8-0.1,1.7-0.3,2.3-1c0-0.1,0.1-0.3,0.2-0.3c2.6-0.8,4.8-2.4,7.3-3.4
		c1.8-1.1,3.3-2.5,4.4-4.4C87.5,88.7,87.9,88.6,88.7,89.9z"/>
	<path class="st62" d="M83,115.9c0.5,0.4,1.1,0.2,1.6,0.4c1.3,0.4,2.6,0.9,2.8,2.5c0.2,1.7-1.2,2.2-2.4,2.8c-1.7,1.3-3.8,1-5.8,1.2
		c-2,0.2-4,0.1-6,0c-1.5-0.1-2.6,0.3-3,1.9c-0.1,3-0.2,5.9-0.4,8.9c-0.1,1.1,0.4,1.4,1.4,1.3c2-0.3,4-0.4,6-0.8
		c1.6-0.3,3.1,0,4.6,0.4c1.6,0.4,3,1.3,3.1,3.1c0.1,1.8-1.3,2.5-2.9,3c-0.4,0.6-1,0.6-1.6,0.8c-2.7,0.6-5.4,1-8.2,1.1
		c-1.3,0.1-2.2,0.4-2.8,1.6c-0.5,3.1-0.2,6.3,0.2,9.4c0.3,2.1,1.6,2.8,3.7,2.2c2-0.6,3.7-1.8,5.5-2.8c2.6-1.5,4.6-1.2,6,1
		c1.2,1.9,0.5,4.8-1.6,6.2c-0.3,0.2-0.5,0.4-0.8,0.5c-2.7,1.1-5.3,2.6-8.3,3.3c-7.2,1.7-12.5-1.7-14.1-8.9
		c-1.3-6.1-0.4-12.2,0.8-18.2c0.9-4.3,1.8-8.5,2.8-12.8c0.3-1.2,0.5-2.1-1.3-2.3c-1.5-0.2-2.1-1.5-2.2-3c1.5-3.2,4.5-2.8,7.1-2.9
		C72.5,115.3,77.7,115.4,83,115.9z"/>
	<path class="st63" d="M82.3,94.3c-2.2,1.8-4.7,3.1-7.4,3.7c-3.6,0.4-7,0.2-10.3-1.3C64,95.3,64.1,94,64,92.3
		c5.8,4.7,11.8,4.8,18,1.6C82.1,94,82.2,94.1,82.3,94.3z"/>
	<path class="st0" d="M47.2,100c0-0.9-0.1-1.8,0.7-2.6c0.6-0.6,0.4-1.3-0.3-1.9c-0.4-0.3-0.9-0.4-1.1-0.9c1.1-0.2,0.7-0.8,0.3-1.3
		c-0.2-0.2-0.6-0.5-0.2-0.8c0.4-0.4,0.7,0,1,0.3c0.9,0.7,1.6,3.8,0.8,4.8C47.8,98.3,47.8,99.2,47.2,100z"/>
	<path class="st61" d="M65.6,108c0-1.3,0-2.6,0-3.9C65.9,105.4,65.9,106.7,65.6,108z"/>
	<path class="st0" d="M52,93.2c0.6,0.9,0.2,2.1,0.6,3C51.4,95.5,52.2,94.3,52,93.2z"/>
	<path class="st64" d="M52.6,65.1c0.6-1.2,1.5-1.8,2.8-1.6c2.4,0.3,2.4,2.5,3.1,4c0.4,0.1,0.5-0.1,0.6-0.3
		c5.5-7.8,15.5-9.1,22.7-2.9c7.1,6,8.8,16.7,3.8,24.6c-3.4,5.4-12.7,8.5-19.9,3.8c-0.8-0.5-1.7-1.1-2.7-1.7
		c0.2,3.6,0.9,6.9,1.3,10.2c0.3,2.7,0.9,5.3,0.1,8c-0.8,2.8-3.2,3.4-5.2,1.2c-1.3-1.4-2.1-3.2-2-5.2c-0.2-1.1-0.1-2.2-0.2-3.3
		c0.2-0.4,0.5-0.3,0.9-0.2c1.6,0.3,2,0,2.2-1.6c0.1-1.5,0.1-3-0.2-4.5c-1.3-6.3-1.7-12.8-2.4-19.2c-0.3-2.5-0.7-4.9-1.2-7.3
		c-0.5-2.4-1-2.7-3.4-2.4c-0.2,0-0.3,0-0.5-0.1C52.3,66,52.5,65.6,52.6,65.1z"/>
	<path class="st65" d="M52.6,65.1c0,0.5,0,1,0.1,1.5c0.8,0.9,0.7,2.1,0.7,3.2c0.1,0.8,0,1.6,0.3,2.3c1.3,4.8,1.6,9.7,2.4,14.6
		c0,0.7,0,1.5,0.2,2.2c0.1,0.4,0.1,0.8,0.1,1.1c0.1,3,0.7,6,1.2,8.9c0.1,0.9,0.5,1.9-0.2,2.7c0,1.2,0,2.3-0.1,3.5
		c-0.7-2.9-0.8-5.9-1.2-8.8c-1.3-8.5-2.7-16.9-3.9-25.4C51.9,69,51.4,67,52.6,65.1z"/>
	<path class="st66" d="M45.4,100.3c-3.2,0-4.6-1.3-4.6-4.1c0-0.4,3-2.7,3.6-2.7c0.3,0,3.1,2.7,3.1,3
		C47.6,97.3,45.9,100.3,45.4,100.3z"/>
	<path class="st29" d="M160.6,149.9c0.2,3.3,0.8,6.4,2.1,9.5c0.2,0.4,0.4,0.9-0.1,1.1c-0.5,0.2-0.6-0.3-0.7-0.7
		c-0.1-0.5-0.2-1.1-0.9-0.8c-0.6,0.2-1.4-0.1-1.5,0.9c-0.1,0.8-0.4,1.6-1.2,2.1c-0.5,0.3-0.9,0.9-0.1,1.5c0.3,0.2,0.4,0.4,0.3,0.7
		c-0.2,0.3-0.5,0.2-0.7,0.1c-0.8-0.6-1.6-0.4-2.3,0.2c-0.3,0.3-0.7,0.5-1,0c-0.4-0.5,0-1,0.4-1.1c1.8-0.4,1.6-2.2,2.3-3.3
		c0.2-0.3,0.3-0.8,0.6-1.1c0.7-0.6,0.9-1.1,0-1.7c-0.6-0.5-0.4-1.3-0.2-1.9c0.4-1.6,0.3-3.2,0.3-4.8c-0.2-5.2,0.5-10.4,0.4-15.6
		c0-0.6,0.2-1.2-0.2-1.8c-0.8-0.6-0.6-1.4-0.5-2.1c0.3-1.2,0-2.3-0.3-3.4c-0.7-2.6-2.9-3.8-5.5-3.1c-0.5,0.1-1,0.4-1.6,0.4
		c-1.1-0.7-0.3-1.1,0.3-1.4c1.5-0.8,3.1-0.7,4.8-0.5c1.9,0.2,2.7,1.3,3.3,2.9c0.1,0.3,0.2,0.5,0.7,0.6c0.2-0.6,0-1.2,0-1.7
		c0-0.8,0-1.6,0.7-2.2c1.1-0.9,0.7-1.6-0.1-2.5c-0.6-0.7-1.9-1.1-1.2-2.3c0.7-1.2,1.7-0.4,2.5-0.1c0.4,0.1,0.8,0.1,1.2-0.4
		c-2-0.3-3.9-0.6-5.7-1.1c-1-0.3-2.3-0.5-2.4-1.9c0.8-0.5,1.5,0,2.2,0.2c4,1,7.6,0.4,10.7-2.6c1.4-1.3,3-2.5,4.1-4.1
		c0.2-0.2,0.5-0.4,0.8-0.5c1.5-0.5,1.9-1.9,2.1-3.2c0.2-2,1.8-3,2.8-4.4c0.2-0.3,0.6-0.3,0.9-0.1c0.4,0.3,0.7,0.6,0.5,1.1
		c-0.2,0.8-0.6,1.4-1.3,1.9c-0.7,0.5-0.9,1.2-0.5,2.1c0.7-0.2,0.7-0.9,1.1-1.3c0.8-0.7,2.1-0.8,2.5-0.1c0.6,1-0.2,1.4-0.8,1.9
		c-0.9,0.6-1.5,1.3-1.1,2.6c0.8-0.3,1-1,1.4-1.5c0.4-0.4,0.8-0.9,1.4-0.5c0.7,0.4,0.5,1,0.1,1.4c-0.4,0.5-0.2,1-0.3,1.5
		c-1,1.9-2,3.7-2.4,5.8c-0.2,1.2-0.2,2.4,0.5,3.4c0.7,1,1.6,1.7,3,1.2c0.4-0.1,0.9-0.1,1.3-0.1c2.1-0.1,3-0.8,3.7-2.8
		c0.4-1.1,0.6-2.2,1.2-3.1c0.4-0.7,0.8-1.4,1.7-1.5c1.6,0.3,1.2,2.1,2.1,2.9c0.1,0.1-0.1,0.5-0.4,0.7c-0.5,0.2-0.5-0.2-0.6-0.5
		c-0.1-0.3-0.4-0.6-0.7-0.4c-0.3,0.2-0.1,0.5-0.1,0.8c0.1,1.8,0.8,3.7-0.5,5.5c-0.1,0.2,0,0.6,0.1,1c0.3,1.8-0.7,3-2.5,2.7
		c-2-0.3-4-0.5-5.9-0.4c-2.2,0.2-4.4,0.8-6.5,1.7c0,0,0,0.3,0.1,0.4c0.1,0.5-0.3,0.7-0.6,0.9c-2.9,1.6-5.3,3.7-7.2,6.4
		c-0.1,0.2-0.3,0.3-0.5,0.4c-3.3,3.6-5,7.8-5.4,12.7C161,147.3,161.4,148.7,160.6,149.9z"/>
	<path class="st67" d="M191.3,137.8c0.3,0,0.6,0,0.8,0c2.2,0,3,1.3,1.7,3.2c-0.8,1.1-1.1,2.2-0.5,3.4c0.1,0.2,0.3,0.7,0.2,0.8
		c-1.4,1-1.3,3.1-2.7,4.2c-1.1,0.9-2.3,1.1-3.5,0.6c-0.9-0.4-1.5-0.2-2,0.6c-0.3,0.5-0.7,0.9-1,1.4c-1.1,1.7-3.2,2.5-5.1,2.1
		c-1.6-0.3-3.2-0.5-4.3-1.9c-0.2-0.2-0.5-0.5-0.9-0.1c-1.3-0.1-1.7-1.2-2-2.2c-1.7-4.4-1.1-8.2,2-12.2c0.1-0.2,0.3-0.3,0.5-0.4
		c2.6-1.3,5.3-1.7,8.2-1c1.9,2,4.6,1.6,6.9,2.6c0.7,0.3,0.9-0.6,1.4-1C191.2,137.9,191.2,137.8,191.3,137.8z"/>
	<path class="st68" d="M174.8,137.5c-4.3,4.4-4,10.9-0.7,14.4c2.6,3.5,7.6,3.3,10,1.4c1.3-1,2.7-1.9,4.4-2.3
		c1.5-0.4,2.8,0.1,3.8,1.2c1,1.1,1.3,2.4,0.8,3.9c-0.7,1.9-2,3.2-3.4,4.5c-3.7,2.9-8,3.7-12.6,3.1c-3.6-0.4-6.6-2.2-9.1-4.8
		c-6.5-6.6-7.9-16.8-2.4-25.2c0.2-0.3,0.4-0.7,0.8-0.8c2.1-3.2,5.1-5.5,8.4-7.4c1.8-0.6,3.6-1.2,5.4-1.5c1.5-0.1,3.1-0.1,4.6,0
		c2.7,0.5,5.5,1.1,7.9,2.4c1.2,0.6,2.1,1.5,2.7,2.7c1.3,2.7,0.5,4.7-2.4,6.5c-0.7,0.7-1.6,0.8-2.5,0.7c-1.2-0.2-2.4-0.4-3.6-0.9
		c-4.1-1.8-7.9-1.1-11.4,1.5C175.4,137.2,175.1,137.4,174.8,137.5z"/>
	<path class="st69" d="M166.4,133c-3.3,5.5-4.7,11.2-2.9,17.5c2.5,9,12.4,17.1,24.6,10.8c0.5-0.3,1-0.5,1.5-0.7
		c-2.6,2.8-5.9,4-9.5,4.8c-4.1,0.9-7.7-0.3-11.2-2.4c-0.3-0.2-0.6-0.2-0.9-0.4c-0.8-1.3-2.2-2-3.2-3.2c-2.1-2.7-3.4-5.7-3.9-9.1
		c0-0.2-0.2-0.4-0.3-0.6c-0.4-4.7,0.4-9.1,2.8-13.2C164.2,135.3,164.7,133.7,166.4,133z"/>
	<path class="st70" d="M174.8,137.5c3-3.1,6.5-4.2,10.7-3c1.2,0.4,2.4,0.8,3.7,1.2c1.3,0.4,2.6,0.5,4,0.1c-0.1,1-1.1,1.3-1.7,2
		c0,0,0,0,0,0c-0.5,0.6-1.2,0.9-1.9,0.7c-1.8-0.5-3.8-0.1-5.4-1.4c-0.3-0.3-0.8,0-1.1-0.3c-2.4-0.6-4.8-0.7-7.1,0.6
		C175.5,137.5,175.2,137.9,174.8,137.5z"/>
	<path class="st71" d="M189.8,111.4c-1.1,1-1.8,2.3-2.2,3.7c-1,3.6-2.1,4.3-5.8,4.1c-1.9-0.4-2.9-1.6-3.1-3.6
		c-0.2-2.1,0.3-4,1.3-5.8c0.5-0.8,0.8-1.7,1.4-2.4c1.3-1.5,2.5-3.1,3.9-4.6c0.6-0.5,0.9-1.2,1.4-1.8c0.3-0.4,0.5-1,1.3-0.6
		c0.3,0.7-0.1,1.2-0.5,1.7c-1.2,1.8-2.5,3.6-4.1,5.1c-2,2.1-3.2,4.6-3.2,7.5c-0.1,1.8,0.8,3.1,2.2,3.3c1.5,0.3,3.1-0.5,3.5-2.1
		c1.3-4.9,5.2-7.8,8.5-11.2c0.3-0.3,0.7-0.7,1.1-0.4c0.4,0.3,0.2,0.7,0.1,1.1c-0.3,0.6-0.7,1.2-1.4,1.4
		C192.7,108.2,191,109.6,189.8,111.4z"/>
	<path class="st72" d="M194.3,106.8c0.3-0.5,0.7-0.9,1-1.4c1.1,0.3,0.5,1.2,0.4,1.7c-0.5,2.5-1.3,4.9-2,7.4
		c-1.5,3.8-1.5,7.3,1.2,10.6c0.1,0.2,0.2,0.4,0.3,0.6c0.3,0.2,0.6,0.5,0.9,0.7c-1.5,0.3-3.2-0.6-4-2.4c-1.1-2.4-1.3-5-0.4-7.5
		c0.9-2.6,1.7-5.2,2.5-7.8C194.4,108.1,194.3,107.4,194.3,106.8z"/>
	<path class="st29" d="M184.9,124.2c-1.5,0-3.1,0-4.6,0C181.8,123.8,183.3,123.8,184.9,124.2z"/>
	<path class="st73" d="M195.2,125.7c-2.5-1.7-3.7-5.6-2.7-9.1c0.2-0.7,0.5-1.5,0.8-2.2c0.3,0.2,0.4,0.6,0.4,1
		c-0.2,1.4-0.7,2.7-0.6,4.1c0.1,1.4,0.5,2.7,1.4,3.9c1.4,1.7,2.2,1.9,4.2,0.8c1-0.5,1.1-1.4,0.9-2.3c-0.7-2.6-0.4-5,0.4-7.5
		c0.4-2.1,1.1-4,2.1-5.9c1.2-0.8,1-2.2,1.4-3.3c0-0.2,0.1-0.3,0.2-0.5c1.6-4.4,1.5-9,1.2-13.6c-0.3-3.8-1.1-7.5-0.8-11.4
		c0.1-2.4,0.4-4.8,1.3-7.1c0.1-0.2,0.1-0.3,0.2-0.5c0.6-1.1,1-2.3,1.3-3.5c0.8-1.9,2-3.5,3.3-5c2.5-2.9,3.6-6.2,4.2-9.9
		c0.1-0.5-0.2-0.8-0.5-1.2c-0.3-0.3-0.7-0.6-0.5-1.1c1.2-0.5,1.7,0.6,2.4,1.1c1.1,1.8,0.5,3.6-0.2,5.3c-1.3,3.1-3.1,5.8-5.3,8.4
		c-4.2,5-5.4,10.9-4.9,17.3c0.4,4.9,1.3,9.8,1,14.7c-0.3,3.9-1.6,7.5-3,11.1c-0.9,2.2-1.8,4.5-2.6,6.7c-0.6,1.5-0.5,3.1-0.1,4.6
		c0.9,3.6-0.8,5.4-4.5,4.8C195.8,125.7,195.5,125.7,195.2,125.7z"/>
	<path class="st74" d="M215.7,52.7c-0.9-0.1-1.4-1.2-2.5-1c-0.6,0.6-1.3,0.2-1.9,0.2c-2.3-0.2-3.3,0.6-3.3,2.9
		c-0.1,2.5-1.3,4.6-2.7,6.4c-1.9,2.4-3.7,4.8-5.9,6.9c-1.6,1.5-2.6,1.3-2.9-0.9c-0.3-1.9-1.2-3.5-2.6-4.8c-0.8-0.7-1.2-1.7-1.5-2.6
		c-0.4-1.1-1-1.2-2.1-0.7c-1.4,0.8-3,1.5-4.7,1c0.4-0.4,0.9-0.7,1.4-0.8c1.7-0.2,3.1-1.1,4.4-2.2c0.7,0,1.2,0.5,1.4,1
		c0.5,1.7,1.7,3,2.9,4.2c1.3,1.3,1.7,2.9,2,4.6c0.2,1.1,0.4,0.8,0.7,0c1.8-0.7,2.5-2.4,3.6-3.7c1.8-2,3.4-4.2,4.5-6.6
		c0.3-0.7,0.7-1.5,0.6-2.2c-0.4-2.2,0.9-3.3,2.7-4c0.7,0.5,1.5,0.2,2.3,0.2C213.5,50.9,215,51.1,215.7,52.7z"/>
	<path class="st75" d="M150.2,87.1c0.8-1.3,1.9-2.4,3-3.5c2.1-1.5,4.4-2.7,7-2.9c7.3-0.5,13.9,4.8,14.9,12.2
		c0.1,0.8,0.2,1.6,0.4,2.3c0.4,0.4,0.4,0.9,0.4,1.4c-0.3,1.9-0.4,3.7-1.4,5.4c-0.5,0.2-0.6-0.2-0.8-0.5c-0.2-0.8,0-1.7,0.1-2.5
		c0.4-4.3-0.4-8.4-3-12c-1.2-1.6-2.8-2.7-4.6-3.5c-8.7-3.5-15.3,1.6-17,9.8c-0.6,3.1-0.3,6.2,0.4,9.2c0.8,3.7,5.2,8.6,9.9,9.3
		c1.8,0.2,3.6,0.3,5.3-0.2c0.6-0.1,1.2-0.4,1.8-0.2c0.3,0.1,0.4,0.3,0.3,0.7c-2.1,2-4.6,2-7.1,1.5c-7.6-1.4-12.6-7.6-12.6-15.3
		c0-2.4-0.3-4.7,0.5-7C148.4,89.6,149,88.2,150.2,87.1z"/>
	<path class="st76" d="M170.8,71.8c0,2.9-1,4.8-3.3,6c-2,1-3.7,0-3.9-2.3c-0.2-2.9,0.7-5.4,2.3-7.7c0.4-0.6,0.4-1.9,1.5-1.8
		c1.2,0.1,1.9,1.2,2.4,2.1C170.6,69.4,170.9,70.8,170.8,71.8z"/>
	<path class="st77" d="M152.6,75.2c-0.4-0.4,0.6-1.4-0.2-1.4c-0.9-0.1-1.9,0.4-2.2,1.4c-0.3,1.1-0.5,2.3-0.8,3.4
		c-0.1,0.4,0,1.1-0.7,1c-0.5-0.1-0.8-0.6-0.8-1.1c0.2-1.7-0.5-3.4,0.6-5.2c0.9-1.4,1.2-3.2,2-4.8c0.3-0.5,0.6-1.1,1-1.6
		c1.1-1.3,2.6-1.2,3.2,0.4c0.7,1.6,1,3.3,0.5,5.1c-0.4,1.5-0.6,3.1-0.9,4.6c-0.1,0.5-0.1,1.2-0.9,1.3c-0.8,0-0.6-0.8-0.7-1.3
		C152.6,76.5,152.6,75.9,152.6,75.2z"/>
	<path class="st78" d="M158.4,72.4c0.1,0.8,0.1,1.7,0.2,2.5c0,0.6,0.3,1,0.8,1.2c0.6,0.2,0.9-0.4,1.2-0.8c0.2-0.2,0.3-0.5,0.4-0.7
		c0.3-0.5,0.4-1.4,1.2-1.1c0.8,0.3,0.5,1.1,0.4,1.8c-0.5,2-2,3-3.7,3.7c-0.2,0.1-0.8,0.2-0.6-0.2c0.5-1.1-0.5-1.4-0.9-2
		c-1.7-2.7-1.2-7.8,1.1-9.9c0.9-0.9,2.1-1.3,3.4-0.7c1.1,0.5,1.5,1.4,1.5,2.6c0,0.5,0,0.9-0.6,1.1c-0.5,0.1-0.6-0.4-0.8-0.7
		c-0.5-0.7-0.7-2-1.7-1.8c-1.2,0.2-1.4,1.5-1.5,2.6C158.5,70.8,158.5,71.6,158.4,72.4z"/>
	<path class="st45" d="M175.5,96.6c0-0.5,0-0.9,0-1.4c1.1-2.6,2.4-5,4-7.2c0.4-0.5,0.7-1,1.3-1.2c-0.9,1.5-1.9,3-2.8,4.6
		c-2.1,3.8-1.4,5.8,2.4,7.6c-0.1,0.8-0.8,0.7-1.3,0.7C177.6,99.6,176,98.3,175.5,96.6z"/>
	<path class="st51" d="M150.5,77.2c0-0.5,0.2-0.8,0.7-0.7c0.6,0.1,0.6,0.5,0.6,1c0,0.3-0.1,0.8-0.5,0.8
		C150.8,78.1,150.6,77.6,150.5,77.2z"/>
	<path class="st51" d="M137,68.6c0.4,0,0.8,0.1,0.9,0.5c0.1,0.5-0.4,0.4-0.7,0.4c-0.4,0-0.9,0-0.9-0.5
		C136.2,68.7,136.6,68.6,137,68.6z"/>
	<path class="st51" d="M141.3,71.3c-0.1,0.4-0.4,0.8-0.9,0.8c-0.3,0.1-0.4-0.2-0.3-0.4c0.1-0.5,0.3-0.8,0.8-0.9
		C141.1,70.8,141.2,71.1,141.3,71.3z"/>
	<path class="st79" d="M185.5,60.1c1.7-0.4,3.5-0.4,5-1.7c0.9-0.8,1.8-0.3,2.1,0.7c0.4,1.5,1.2,2.7,2.4,3.8c1.1,1,1.8,2.3,1.8,3.8
		c0,0.8,0.3,1.6,0.9,1.9c0.7,0.3,1.1-0.6,1.5-1c1.7-1.4,2.6-3.5,4.2-5c1.8-1.7,2.7-4,3.9-6.1c0.3-0.6,0.3-1.2,0.3-1.8
		c0-2.6,1.5-3.9,4.1-3.3c0.5,0.1,1.1,0.3,1.6,0.3c0.4,0.8,1.9,1,1.6,1.7c-0.7,1.4,0,2.8-0.8,4.1c-1.1,1.7-1.3,4-2.8,5.4
		c-1.3,1.3-2,3.1-3.3,4.3c-0.4,0.4-0.6,0.9-0.7,1.5c-0.7,1-0.9,2.3-1.3,3.4l0,0c-0.5,0.6-0.7,1.4-1,2.1c-0.1,0.4-0.3,0.8-0.8,0.7
		c-0.5-0.1-0.5-0.5-0.6-0.9c-0.1-0.8,0.4-1.7,0.2-2.5c-0.1-0.1-0.2-0.2-0.4-0.1c-0.9,1.7-1.4,3.4-1.4,5.3c0,2.2,0,4.4,0,6.6
		c0,0.9,0.2,1.7,0.4,2.5c0.1,0.5,0.4,0.8,0.9,0.3c0.9-0.8,1.4-0.6,1.5,0.6c0.4,5.2,1.2,10.3,0,15.5c-0.2,1-0.8,1.9-0.8,3l0,0
		c-0.6,1.1-0.7,2.3-1.4,3.4c-0.8,1.9-1.7,3.7-2,5.7c-1.2,2.3-1.5,4.7-0.6,7.2c0.4,1.2,0,2.2-1,2.9c-2.1,1.6-4.8,0.3-5.7-2.7
		c-0.6-2.1-0.6-4.3,0.3-6.4c0.9-3,1.6-6,2.5-9c0.1-0.3,0.2-0.6,0.2-1c-0.1-0.5,0.2-1.2-0.5-1.5c-0.7-0.2-0.9,0.4-1.1,0.8
		c-2,2.6-4.8,4.5-6.7,7.2c-0.9,1.4-1.1,2.9-1.7,4.4c-0.6,1.3-1.8,2-3.2,1.8c-1.4-0.1-2.2-1.1-2.4-2.2c-0.3-1.6,0-3.2,0.5-4.8
		c1-2.8,3.3-4.6,5-6.8c2.6-3.3,4.2-7.1,5.3-11.2c0.4-1.7-0.1-3.2-0.8-4.7c-0.4-0.8-0.9-0.9-1.6-0.4c-1.2,0.8-2.1,1.9-2.7,3.2
		c-0.6,1.4-1.3,2.7-1.8,4.2c-1,2.8-3.6,3.3-5.6,1.1c-0.9-1-0.7-2-0.2-3c0.7-1.7,1.5-3.5,2.7-5c0.4-0.5,0.9-1,1.1-1.7
		c1.6-2.2,3.2-4.5,4.7-6.7c0.7-1.2,1.9-2.1,2.1-3.7c0.2-1.9-0.5-3.4-2.3-4c-1-0.4-1.9-0.8-2.8-1.4c-1.2-0.9-1.1-2.3-1-3.5
		c0.2-2.1,0.9-4.1,1.5-6.2C184.6,60.7,184.9,60.2,185.5,60.1z"/>
	<path class="st5" d="M175.5,96.6c1.4,2.1,3.1,3,5,2.4c2.9,0,3.9-0.7,4.7-3.4c0.8-2.4,1.9-4.6,3.7-6.4c0.8,0.3,1,1,1.1,1.7
		c0.4,3.3-0.5,6.3-2.4,9c-0.7,1.1-1.6,2-2.1,3.2c-1.2,1.4-2.3,3-3.7,4.2c-0.6,0.1-0.6,1.1-1.3,1.1c0-0.6-0.4-1.3,0.5-1.8
		c0.2-0.1,0.3-0.5,0-0.7c-0.3-0.3-0.7-0.2-0.9,0.1c-0.4,0.6-0.8,1.2-1.2,1.8c-0.5,0.9-1,0.6-1.3-0.1c-0.5-1.3,0-2.3,1.2-2.9
		c0.6-0.3,1.2-0.4,1.2-1.2c0-0.4-0.4-0.5-0.8-0.5c-0.7-0.1-1.3,0.2-1.7,0.8c-0.3,0.6-0.2,1.5-1,1.6c-0.4,0.1-0.6-0.6-0.7-1
		c-0.2-0.9-0.1-1.9,0.7-2.2c0.8-0.3,0.8-1,1.2-1.5c0.5-0.6,0.2-1-0.3-1.2c-0.5-0.2-0.6,0.3-0.6,0.7c0,0.3,0.2,0.6-0.2,0.7
		c-2,0.3-1.7,2.1-2.2,3.4c-0.5,1.2-0.4,2.9-2.4,3.1c0.2-2.1,1.4-3.7,2.3-5.4C174.8,100.2,175.2,98.4,175.5,96.6z"/>
	<path class="st80" d="M182.2,86.8c0,0.7-0.4,1.3-0.8,1.8c-1.3,1.5-1.9,3.5-2.8,5.2c-0.6,1.2,0.5,3.3,1.8,3.8c1.2,0.4,3-0.7,3.6-2.2
		c0.8-1.9,1.4-4,2.6-5.7c0.8-1.1,1.7-2.5,3.1-2c1.5,0.5,1.8,2.2,2,3.6c0.2,2.4-0.9,4.6-1.6,6.8c-1,3-3.4,5.2-5,7.8
		c-1,1.6-2.6,2.5-3.4,4.3c-0.8,1.7-1.2,3.3-1.1,5.2c0.1,1.4,0.8,2.3,2.1,2.5c1.3,0.2,2.8-0.1,3-1.7c0.8-4.4,3.8-7.1,6.9-9.8
		c0.7-0.6,1.2-1.5,1.8-2.2c0.3-0.4,0.5-0.8,1-0.7c0.6,0.2,1,0.6,1,1.2c0,0.6,0.2,1.2,0,1.7c-1.2,2.7-1.4,5.7-2.5,8.5
		c-0.1,0.3-0.3,0.5-0.5,0.7c0-0.4,0-0.7-0.1-1.1c0.7-2.8,1.7-5.5,2.2-8.3c0-0.3,0.2-0.5-0.1-0.7c0.1-0.3,0.2-0.5,0.4-1.1
		c-1.8,1.1-2.7,2.6-4,3.7c-2.5,2.3-4.5,4.9-5.4,8.3c-0.4,1.6-2.2,2.4-3.9,2.1c-1.4-0.3-2.5-1.7-2.5-3.3c0-3.1,1-5.7,3.1-7.9
		c1.5-1.6,3-3.4,4.2-5.2c0.4-0.6,0.8-1.1,0.7-1.8c-0.1-0.7,0.3-1.2,0.6-1.7c1.6-3.1,2.7-6.3,1.5-9.9c-0.8-0.7-0.8-0.7-1.7,0.2
		c-1.9,1.9-3,4.3-3.8,6.8c-0.9,2.7-3.7,3.4-5.8,1.4c-1.1-1-1-2.3-0.6-3.4C178.9,91,180.2,88.7,182.2,86.8z"/>
	<path class="st81" d="M189.9,88.6c1.3,1.8,1.2,3.8,0.6,5.7c-0.6,2.1-1.5,4-2.7,5.8c-0.9,0.9-1.3,2.2-2.3,3c0.1-1.7,1.5-2.7,2.2-4.1
		c1.3-2.5,2.1-4.9,1.9-7.7c-0.1-0.8-0.2-1.5-0.7-2.2C189.3,89,189.6,88.8,189.9,88.6z"/>
	<path class="st82" d="M183.9,71c1.7,0.6,3.4,1.2,4.8,2.4c1,0.9,1.1,3.8,0.1,4.9c-0.6,0.7-1.1,1.4-2,1.8c0-0.3,0-0.6,0-0.8
		c0.6-0.9,1.2-1.9,1.7-2.8c0.6-1.1,0-1.9-0.7-2.6c-0.1-0.8-0.8-0.9-1.4-1.2C185.6,72.1,184.4,72.1,183.9,71z"/>
	<path class="st83" d="M140.2,48.7c0.7,0.1,0.9,0.6,1,1.1c0.3,1.2,1.2,1.8,2.3,2.2c1.5,0.5,1.8,1.7,0.5,2.6c-0.9,0.6-1,1.3-1,2.3
		c0.1,2-0.3,2.2-2.1,1.4c-1-0.5-2-0.6-3.1-0.2c-1.2,0.4-2,0-1.9-1.5c0.1-1.3,0-2.6-1-3.6c-0.3-0.3-0.4-0.8,0-1
		c1.7-0.8,3.5-1.6,4.7-3.1C139.9,48.8,140.1,48.8,140.2,48.7z"/>
	<path class="st84" d="M117.7,45.4c0,0.1-0.1,0.5-0.2,0.6c-1,0.8-1.1,1.8-1.2,3c-0.1,1.1-0.8,1.5-1.8,0.9c-0.9-0.6-1.7-0.6-2.7-0.3
		c-1.3,0.4-1.9-0.2-1.8-1.6c0-0.7,0.2-1.5-0.3-2.1c-1.2-1.4-0.6-2.1,0.9-2.4c0.9-0.2,1.5-0.7,2.1-1.4c0.6-0.7,1.3-0.7,1.8,0.1
		c0.7,1.1,1.4,2,2.8,2.2C117.6,44.5,117.7,44.9,117.7,45.4z"/>
	<path class="st85" d="M169.4,52.7c-0.7,0-1.3,0-1.8,0c-0.6,0-1.1-0.4-0.9-0.9c0.4-1.1,0.2-2-0.6-2.9c-0.4-0.5-0.4-1.5,0.5-1.8
		c1.1-0.4,1.9-1.1,2.9-1.7c0.8-0.5,1.4-0.6,1.9,0.4c0.6,1.2,2.6,1.5,2.7,2.8c0.1,1.1-1.3,2-1.2,3.5c0.1,0.9-0.6,1.2-1.4,0.9
		C170.9,52.7,170,52.8,169.4,52.7z"/>
	<path class="st86" d="M172.3,60.8c0.7,0.1,1.3,0.3,1.3,1c0,0.7-0.4,1.3-1.2,1.3c-0.7,0-1.2-0.3-1.3-1
		C171.1,61.4,171.6,61,172.3,60.8z"/>
	<path class="st51" d="M154.2,114.2c2,2.1,4.8,1.8,7.3,2.4c0.6,0.1,1.3-0.3,1.7,0.4c0.2,0.3-0.3,0.6-0.5,0.8c-0.6,0.6-1.3,0.7-2,0.3
		c-0.2-0.1-0.4-0.3-0.5-0.4c-0.5-0.5-1-0.3-1.3,0.1c-0.5,0.5,0,0.7,0.4,1c0.5,0.4,0.8,1,1.3,1.3c1.2,0.9,1.1,1.7-0.1,2.5
		c-1.3,0.8-0.6,2-0.7,3c0,0.5,0.7,1.4-0.1,1.6c-0.7,0.2-1.4-0.6-1.6-1.4c-0.2-0.9-0.5-1.7-1.3-2c-1.6-0.6-3.3-1-5-0.3
		c-0.6,0.2-1.9-0.3-1.6,1.2c0.2,1.1-0.7,1.6-1.3,2.2c-1.7,1.5-2.4,3.4-2.6,5.6c-0.4,5.7-0.7,11.4-0.6,17.1c0,1.2-0.4,2.3-0.6,3.5
		c-2.1,2.4-6,1.7-7.4-1.5c-0.8-1.7-0.9-3.6-1-5.4c-0.2-4.8,0.3-9.5,0.8-14.2c0.2-1.7-0.1-3.4-0.9-4.9c-0.9-1.8-2.6-2.2-4.4-1.4
		c-1.3,0.6-2.2,1.5-3.1,2.5c-1.6,1.1-2.4,2.9-3.6,4.3c-0.5,0.3-0.9,0.6-0.9,1.3c0.3,5.2,0.5,10.4,0.5,15.7c0,1.1,0,2.1-0.5,3.3
		c-0.6,1.4,0.4,2.8,0.8,4.2c0.1,0.4,0.4,0.8,0.4,1.3c0,0.5,0.2,1.4-0.5,1.4c-0.7,0.1-0.5-0.7-0.5-1.2c0-0.9-1.2-0.9-1.4-1.8
		c-0.3-2.3-0.8-4.5,0.2-6.7c0.5-1.1,0.1-2.4,0.2-3.6c0-3.2,0.2-6.4,0.3-9.6c0-0.6,0.2-1.2-0.3-1.8c-1-1.4-0.5-2.8-0.1-4.1
		c0.3-0.6,0.5-1.3,0.9-1.9c1.1,0.1,1.8-0.4,2.6-1.2c1.3-1.4,2.6-2.7,4.2-3.9c1.8-1.3,4.6-1.1,6,0.7c0.3,0.3,0.6,0.7,1,0.4
		c0.5-0.3,0-0.7-0.2-0.9c-0.7-0.8-0.6-1.5,0.2-2.2c0.9-0.8,0.9-1.8,0.1-2.7c-0.8-0.9-0.8-1.7,0.3-2.3c0.1-0.1,0.2-0.1,0.3-0.2
		c1.6-1.7,1.8-1.1,0-2.6c-0.3-0.8,0.4-0.9,0.8-1.2c0.6-0.5,1.2-0.9,1.5-1.7c1.3-0.9,2.6-1.8,3.2-3.3c0.5-1.2,0.6-2.4-0.4-3.4
		c-1-1-2.2-0.9-3.4-0.3c-0.7,0.3-1.2,0.7-1.9,1.2c-2.4,1.6-5,2-7.4,0.4c-2.8-1.8-4.1-4.6-3.6-7.9c0.3-2.1,0.9-4.3,3-5.6
		c3.1-1,6-0.5,9,0.5c1.9,0.6,3.8,0.3,5.1-1.4c0.7-0.7,1.3-1.6,2.5-1.6l0.1,0.1c0.5,0.6,0.1,1.2-0.1,1.7c-1.9,4.6-2.1,9.4-0.5,14.1
		c1.1,3.1,3,5.6,5.8,7.3C153.3,113.1,154.2,113.2,154.2,114.2z"/>
	<path class="st87" d="M125.5,132.4c0.5-1.9,1.6-3.3,3.1-4.4c0.2,0.3,0.2,0.7,0.1,1c-0.9,1.9-0.7,4-0.7,6c0,4.9,0,9.9,0.4,14.8
		c0.4,4.3,1.9,8.1,5.3,10.9c1.8,1.5,3.9,2.3,6.2,2.4c1.2,0.1,2.5,0,3.7,0c1.7,0,3.1-0.7,4.7-1.3c0.4-0.1,0.8-0.5,1.1-0.4
		c1.5,1.1,3.3,0.7,4.9,1.1c-2.1,2.5-3.8,3-6.6,1.6c-0.3-0.2-0.6-0.3-0.9-0.1c-3.5,2-7.2,2.1-11,1.5c-1.1-0.5-2.3-0.9-3.3-1.5
		c-4.1-2.6-6.1-6.5-6.4-11.2c-0.4-5.3-0.5-10.6-0.7-16C125.2,135.3,125.4,133.8,125.5,132.4z"/>
	<path class="st88" d="M124.2,130.3c-0.5,1.4-0.4,2.9-0.3,4.4c-0.6,2.9-0.4,5.9-0.6,8.9c-0.4,4.7-0.7,9.5-1,14.2
		c-0.2,2.4-0.8,4.7-3.4,5.7c-1.9,0.6-3.1,0.1-3.9-1.7c-0.3-0.7-0.5-1.3-1.4-0.6c-8.5,6-20,1.4-23.8-7.9c-1.8-4.5-2.5-9-0.9-13.6
		c0.5-1.6,1.3-3,2.4-4.1c2.3-3.3,5-5.9,9.1-6.5c4.2-0.6,8.2-0.2,11.7,2.7c0.2,0.2,0.6,0.3,0.9,0.4c0.7,0.1,1,0.7,1.9,1
		c0.2-4.7,0-9.5,1.6-14c0.8-1.7,1.8-3.5,4.1-3.4c2.3,0.1,3.3,1.8,4.1,3.6c0.2,0.6,0.5,1.1,0.6,1.7
		C125.6,124.1,124.8,127.2,124.2,130.3z"/>
	<path class="st89" d="M91.3,135.4c-4.7,8.7-3.2,18.2,3.7,24.3c4.8,4.2,14.4,5.3,19.3,0.3c0.1-0.1,0.3-0.1,0.4-0.2
		c1.1,3.5,1.4,3.7,4.2,3.8c-0.3,1.6-1.6,2-2.9,2.2c-1.6,0.2-2.6-1-3-2.3c-0.5-1.7-1.1-1.3-1.9-0.5c-5,4.5-16.3,2.9-20.8-3.7
		c-2.9-4.3-4.3-8.8-3.9-13.9c0.1-1.4,0.9-2.7,0.8-4.1c1-1.5,1.6-3.2,2.7-4.5C90.2,136.2,90.5,135.5,91.3,135.4z"/>
	<path class="st90" d="M70.2,124.6c-0.1-2.3-0.1-2.3,2.1-2.3c4.3,0,8.5,0.1,12.7-0.8c0.2,1.5-1.3,1.5-2.1,2.1
		C78.8,124.4,74.5,124.6,70.2,124.6z"/>
	<path class="st91" d="M69.4,143.9c-0.4-1.6,0.3-2.1,1.9-2.1c3.6,0,7.2-0.8,10.7-1.4c0.9,0.9-0.2,1.1-0.5,1.3
		c-1.3,0.9-2.8,1.1-4.3,1.3C74.6,143.4,72.1,143.9,69.4,143.9z"/>
	<path class="st92" d="M143.7,163.4c-9.4,1.3-15.2-5.2-15.8-13.2c-0.3-5-0.3-10.1-0.5-15.1c-0.1-2.4,0.2-4.8,1.2-7.1
		c0.7-1,1.6-1.9,2.6-2.5c3-1.7,5.7-0.5,6.4,3c0.4,2.1,0.1,4.2-0.1,6.3c-0.5,4.8-0.8,9.5-0.2,14.3c0.5,4.4,3.6,6.1,7.3,4
		c1.6-2.2,1.9-4.7,2-7.5c0.2-5.1,0.7-10.2,0.7-15.2c0-1.5,0.5-2.9,1.5-4c0.4-0.6,0.9-1.1,1.3-1.7c1.1-0.6,2.2-1,3.5-0.9
		c3.4,0.4,4.4,2.6,4.5,6.3c0,1,0,2-0.1,3c0,0.6-0.1,1.1-0.1,1.7c-0.6,0.1-0.8-0.4-1-0.9c-0.3-1.2-0.1-2.5-0.2-3.7
		c-0.1-1.1-0.2-2.1-0.9-3c-1.7-2.3-4.3-2-5.5,0.6c-0.9,1.9-1,3.9-1.1,5.9c-0.2,4.6-0.4,9.2-0.7,13.8c-0.2,3.2-1.4,5.8-4.4,7.3
		c-2.9,1.5-6.3,0.2-7.6-2.8c-0.5-1.1-0.7-2.2-0.8-3.4c-0.2-5.3,0.3-10.5,0.4-15.8c0-1.5,0-3-0.4-4.5c-0.7-2.3-2.3-2.8-4.2-1.5
		c-1.6,1.1-2.3,2.7-2.6,4.6c-0.7,4.1-0.5,8.3-0.2,12.4c0.1,2.1,0.2,4.3,0.4,6.4c0.5,4,2.2,7.4,5.3,10c2,1.8,4.5,2.2,7,2.4
		c0.7,0.1,1.4,0,2,0.3C143.8,163,143.8,163.2,143.7,163.4z"/>
	<path class="st93" d="M143.7,163.4c0-0.1,0-0.2,0-0.4c0-0.5,0.4-0.6,0.8-0.7c1.4-0.4,2.7-1,4-1.7c0.8-0.5,1.5-0.4,2.4,0
		c2.4,1.3,4.3,0.3,4.4-2.5c0.2-3.5,0.6-7,0.8-10.5c0.1-1.5-0.2-3.1,0.9-4.5c0.7,1.2,0.3,2.5,0.2,3.8c-0.1,4,0.1,8-0.6,12
		c-0.3,1.6-1,2.8-2.4,3.5c-1.7,0.2-3.4,0.8-4.9-0.8c-0.1-0.1-0.7,0.2-1,0.4C146.9,162.7,145.4,163.3,143.7,163.4z"/>
	<path class="st94" d="M157.2,146.9c-0.2-1.2,0.3-2.5-0.3-3.7c-0.6-0.4-0.6-1.1-0.6-1.7c0.2-2,0.3-4.1,0.3-6.2c0-0.5,0.1-1,0.6-1.3
		c0.2,0.2,0.4,0.4,0.6,0.7C157.6,138.8,157.8,142.9,157.2,146.9z"/>
	<path class="st95" d="M234,46.7c-1.4-0.1-2.9-1-4.3-2c-1.1-0.8-2.1-1-3.4-0.3c-1.1,0.6-2.4,0.9-3.7,1.1c-2.4,0.3-3.9-1-3.9-3.4
		c0-0.3,0-0.6,0.1-0.8c1-2.9,0.7-5.4-1.5-8c-2-2.4-1.4-3.8,1.4-5c0.4-0.2,0.8-0.5,1.2-0.5c3-0.1,4.7-1.9,6.5-4.1
		c2.7-3.3,4.6-2.9,6.2,1c0.9,2.4,2,4.1,4.7,4.5c0.7,0.1,1.4,0.6,2.1,1c2.5,1.4,3,3.3,0.7,5c-2.7,2.1-3.4,4.5-3.1,7.7
		C237.4,45.3,236.2,46.7,234,46.7z"/>
	<path class="st33" d="M154.2,114.2c-3-1.7-5.6-3.8-7.1-7.1c-2.3-5.3-2.3-10.6-0.1-15.9c0.2-0.5,0.5-1,0.5-1.6
		c0.7-0.5,1.2-1.1,1.7-1.8c0.2-0.3,0.4-1,1.1-0.7c-4.1,6-3.2,16.9,1.6,21.5c3.6,3.5,7.8,5.3,12.9,4.2c0.8-0.2,1.6-0.6,2.3-1
		c0.1-0.1,0.3-0.1,0.4,0c0.3,0.4-0.1,0.6-0.3,0.8c-3.5,2.7-7.4,3.4-11.6,1.9C155.1,114.3,154.7,114.1,154.2,114.2z"/>
	<path class="st96" d="M147.4,89.5c-0.7,0.6-1.3,1.1-2,1.7c-1,0.7-2,0.5-3.1,0.3c-0.6-0.1-1.2-0.2-1.8-0.5c-3.2-1.3-6.1-1.1-8.9,1.1
		c-0.2,0.2-0.5,0.3-0.8,0.2c-3.3,3.8-3.5,8.5-0.5,11.7c2.2,2.4,5.1,2.8,7.9,1.1c0.9-0.5,1.7-1.1,2.6-1.6c1.3-0.7,2.6-0.6,3.7,0.5
		c1.1,1.1,1.2,2.3,0.6,3.7c-0.7,1.8-2,2.9-3.7,3.7c-2.9,2.4-6.4,2.7-9.8,1.8c-9-2.3-11.9-11.6-10.7-17.5c0.5-2.6,1.4-5.2,3.4-7.2
		c3.2-4.4,7.6-6.8,13.1-6.7c2.7,0,5.3,0.7,7.8,1.9C147.3,84.8,148.2,86.9,147.4,89.5z"/>
	<path class="st97" d="M124.3,88.5c-2.7,4.5-4,9.3-2.4,14.6c2.1,6.9,9.7,12.9,18.7,8.7c0.3-0.1,0.6-0.3,0.9-0.4c0.5,1-0.7,0.9-1,1.4
		c-0.4,0.5-1,0.7-1.5,1c-0.1,0.1-0.1,0.2-0.2,0.2c-3.9,2-7.8,2.2-11.8,0.5c-3.9-1.8-6.1-5.1-7.8-8.8c-0.5-3-0.2-5.9-0.2-8.9
		c0-0.4,0.1-0.8,0.5-1c1.1-2,1.7-4.2,3.3-6C123.3,89.3,123.6,88.7,124.3,88.5z"/>
	<path class="st98" d="M119.6,95.8c-0.2,3.4-0.2,6.9,0.2,10.3c0.1,1.7,0.4,3.3-0.3,4.9c-0.6,1.2-1.3,2.2-2.8,2.1
		c-2-0.4-2.6-2-2.9-3.7c-0.7-3.9-1.1-7.9-1.4-11.9c-0.3-3.9-0.6-7.8-0.3-11.8c0.2-0.6,0.3-1.1,0.7-1.6c1.2-0.9,2.4-1.9,4-1.4
		c2,1.2,2.7,3,2.7,5.2C119.4,90.7,119.2,93.3,119.6,95.8z"/>
	<path class="st99" d="M116.8,112.9c2.1-0.4,2.4-2.1,2.6-3.8c0.1-1-0.1-2,0.3-3c1.7,3.2,3.8,6.2,7.1,8c2.7,2,5.9,1.4,8.8,1.5
		c1.3,0.1,2.4-0.9,3.3-1.8c0,0,0,0,0,0c0.4,0.2,0.8,0.3,1.2,0.5c0.9,0.4,1.6,0.9,0.1,1.6c-0.8,0.3-0.9,1.3-1.9,1.5
		c-0.6,0.1-0.2,0.7,0.1,1.1c1.5,1.8,1.5,2.2-0.1,3.7c-0.8,0.8-0.2,1.2,0.3,1.6c0.5,0.3,0.7,0.7,0.5,1.3c-0.1,0.4-0.4,0.5-0.8,0.3
		c-0.5-0.2-1.4,0.2-1.4-0.8c0-1-0.6-1-1.3-1c-0.5,0-1-0.1-1.5-0.3c-0.9-0.4-1.6-0.1-2.3,0.5c-1.9,1.5-3.7,3.3-5.3,5.1
		c-0.8,0.9-1.2,0.6-1.7-0.2c-0.7-1.2,0.1-2.3,0.1-3.5c-0.1-1.5,0.3-3-0.1-4.5c-0.5-1-0.9-2.1-1.5-3c-1.7-2.5-4.4-2.3-6,0.3
		c-0.2,0.3-0.3,0.6-0.5,0.8c-1.1,0.6-1.2,2.3-2.4,2.8c-0.5,0.2-1.1,0.6-1,1.2c0.3,2.1-0.6,4-1,6c-0.2,0.9-0.6,1.2-1.3,0.8
		c-3.2-1.8-6.7-1.6-10.1-1.8c-1.2-0.1-2.6-0.1-3.8,0.9c-1.3,1.2-4.9-0.9-4.6-2.8c0.3-2.7-1.6-3.6-3-5.1c-0.5-0.6-1.2-1-1.2-1.9
		c0-1.2,0.2-2.4-1.4-2.9c-0.4-0.1-0.3-0.5-0.1-0.9c0.3-0.4,0.7-0.4,1,0c1.1,1.6,2.3,1.4,3.7,0.6c0.8-0.5,1.7-0.2,2.6-0.1
		c2.7,0.4,5.3,0.5,7.3-1.9c0.9-1.4,2.7-1.8,3.8-2.9c4.6-3.8,4.8-10.8,0.3-15.7c-1.1-1.2-2.4-2.2-3.6-3.3c-0.7-0.6-1.6-1-1.8-2.1
		c0.2-0.6,0.7-0.3,1-0.2c2,0.9,3.7,0.5,5.1-1.1c2.2-0.9,3-2.7,2.2-5c-0.1-0.4-0.3-0.8-0.5-1.2c1.5,0.8,2.9,2,4.7,2.1
		c-0.1,0.4-0.2,0.8-0.3,1.2c-2.6,2.3-2.1,5.3-1.9,8.2c0.3,5.6,1.1,11.2,1.6,16.7c0.1,0.8,0.3,1.7,0.7,2.4c0.8,1.7,1.9,1.8,3.3,0.6
		C116.4,113.2,116.6,113.1,116.8,112.9z"/>
	<path class="st100" d="M96.9,112.2c-4-0.2-8.1-1.1-10.7-5.1c-1.8-2.8-1.2-5.9,1.3-7.1c1.8-0.8,3.3-0.3,4.1,1.5
		c0.2,0.5,0.4,1,0.6,1.6c1.1,2.9,4.1,4.1,6.9,2.8c2.7-1.3,3.4-4,1.9-6.8c-1-1.8-2.6-3.1-4.1-4.4c-1.3-1.2-2.7-2.4-3.7-3.9
		c-1.5-2.2-2.4-4.5-1.3-7.1c1.3-2.9,3.6-4.7,6.8-4.7c3.6-0.1,6.6,1.2,8.7,4.3c0.8,1.2,1.2,2.4,0.2,3.6c-1,1.2-2.3,1.3-3.6,0.5
		c-0.5-0.3-1.1-0.5-1.7-0.8c-1.1-0.5-2.1-0.5-2.9,0.6c-0.7,1-0.6,2.1,0.1,3.1c1,1.5,2.5,2.6,3.9,3.7c3.5,2.7,4.8,6.4,4.6,10.7
		c-0.1,3.9-3.8,7-8.5,7.5C98.9,112.2,98.1,112.2,96.9,112.2z"/>
	<path class="st101" d="M105.3,110.8c-0.9,1.4-2.4,2.1-3.8,2.9c-4.1,1.5-8.2,1.6-12.3,0.3c-3.8-1.2-7.5-5.2-6.5-9.5
		c0.3-1.1,0.6-2.2,2.1-2.3c-0.9,4.2,2.4,9,8.8,10.2C97.7,113.3,101.6,112.8,105.3,110.8z"/>
	<path class="st102" d="M106.4,88.3c-0.7,1.8-2,2.4-3.9,2c-0.7-0.2-1.4-0.8-2.2-0.6c-0.8-0.5-0.9-1.3-0.4-2c0.5-0.8,1.2-0.9,2.1-0.6
		C103.4,87.6,104.7,88.4,106.4,88.3z"/>
	<path class="st103" d="M144.4,71.1c-0.2-1.3-1-2.5,0.2-3.3c0.6-0.4,1.9-0.1,2,0.7C146.8,69.7,145.4,70.2,144.4,71.1z"/>
	<path class="st104" d="M119.8,78.5c-0.4,1.2-1.5,1.6-2.4,2.3c-2.2,0.5-4.3,0.9-6.1-0.9c0.1-0.5-1.1-1.3,0.2-1.6
		c1.2,0.6,2.5,1,3.8,0.1c1.2-0.8,1.9-1.8,1.6-3.2c-0.2-1.3-1.1-2.1-2.4-2.5c-0.4-0.1-1,0.1-1.3-0.5c0.9-1.2,3-1.3,4.5-0.3
		C120.3,73.5,120.7,75,119.8,78.5z"/>
	<path class="st105" d="M119.8,78.5c-0.1-0.6,0.1-1.1,0.2-1.7c0.7-3.1-2.9-5.9-5.4-5.5c-0.6,0.1-1.1,0.2-1.2,1
		c0,0.3-0.1,0.6-0.3,0.9c-2.2,1.8-2.3,2.3-1.3,5.1c0,0.1-0.1,0.1-0.1,0.2c-1,0.2,0,1-0.4,1.4c-1.9-1.9-2.3-4.3-1-6.4
		c1.2-2,4.2-3,6.7-2.2c0.5,0.2,1,0.4,1.5,0.7C120.7,74,121.1,76.2,119.8,78.5z"/>
	<path class="st106" d="M118.7,61.7c-0.8-0.1-2.1-1.5-1.8-2.5c0.3-0.9,1.3-1.7,2.1-1.6c1,0.1,2.1,1,2,2.1
		C120.9,60.5,120.8,62,118.7,61.7z"/>
	<path class="st107" d="M114.4,121.6c0.8-0.9,0.8-2.6,2.4-2.8c-1.6,4.9-1.2,10.1-1.8,15.5c-1-0.9-1.6-1.5-2.1-2.3
		c0.8-1.8,0.4-3.7,0.7-5.6C113.9,124.8,114.1,123.2,114.4,121.6z"/>
	<path class="st108" d="M69.3,127.7c-0.1,2.1-0.2,4.3-0.4,6.4c-0.1,1.4,0.4,1.7,1.7,1.5c3.4-0.5,6.9-1.2,10.4-0.7
		c0.7,0.1,1.3,0.2,1.9,0.7c0.7,0.5,1.3,1.1,1.2,2.1c-0.1,1.1-0.9,1.4-1.7,1.6c-2.9,0.9-5.9,1.1-8.9,1.5c-0.8,0.1-1.7,0.1-2.5,0.2
		c-2.3,0.3-2.3,0.3-2.4,2.7c-0.2,3.1-0.4,6.3,0.3,9.4c0.7,3.3,2.2,4.1,5.4,2.9c1.9-0.7,3.6-1.8,5.3-2.8c1.8-1.1,3.4-0.9,4.5,0.6
		c1,1.4,0.8,3.9-0.7,4.9c-3.8,2.4-7.8,4.4-12.3,4.6c-5.2,0.3-8.9-3.1-10.2-8.9c-1.1-5.1-0.4-10.1,0.4-15.2
		c0.9-5.6,2.6-11.1,3.4-16.8c0.2-1.2-0.2-1.5-1.2-1.5c-1.2,0-2.2-0.5-2.3-1.8c-0.1-1.5,1-1.9,2.1-2.2c1.4-0.3,2.8-0.5,4.2-0.5
		c5.5-0.2,11-0.5,16.4,0.6c1.2,0.2,2.8,0.3,2.8,1.9c0,1.7-1.7,1.8-2.9,2c-4.2,0.8-8.4,0.7-12.6,0.6c-1.3,0-2,0.1-1.8,1.7
		c0.2,1.5,0,3,0,4.5C69.3,127.7,69.3,127.7,69.3,127.7z"/>
	<path class="st109" d="M75.6,62.9c0-0.3-0.3-0.7,0.3-0.7c1.5-0.2,4.8,2.4,5.2,4c0.4,2-0.6,3.2-3,3c-1-0.1-2-0.6-3.1-0.8
		c-5.6-1.2-10.1,1.5-10.5,7.7c-0.2,2.8,0.8,5.3,2.1,7.6c0.7,1.2,1.1,2.4-0.1,3.5c-1.2,1.1-2.2,0.9-3.7-0.5c-4-3.8-4.5-8.5-3.5-13.6
		c0.1-0.3,0.1-1.2,0.8-0.4c0.3,0.2,0.2,0.5,0.2,0.8c1.5-8,7.6-11.5,16.2-9.4C76.3,63.5,75.5,63.6,75.6,62.9z"/>
	<path class="st84" d="M56,88.9c-0.6-0.6-0.3-1.3-0.4-2c1-0.4,0.3-1.1,0.3-1.6c-0.8-4.7-1.5-9.5-2.2-14.2c-0.1-0.8,0-1.5-0.1-2.2
		c-0.3,0.9,0.5,2.1-0.4,3.1c-0.5-1.8-0.2-3.6-0.6-5.4c2.3-1.5,3.2-1.3,3.9,1.3c0.8,2.7,1.1,5.6,1.4,8.4c0.5,4.6,1.1,9.2,1.5,13.8
		c0.3,3.1,1.5,6.1,1.2,9.3c0,0.2,0,0.5,0,0.7c-0.1,0.9-0.1,1.9-1.1,2.4c-1,0.5-1.5-0.4-2.2-0.7c-0.4-2.8-0.6-5.7-1.1-8.5
		C56,92.1,56.1,91,56,89.9C56.6,89.5,56.6,89.2,56,88.9z"/>
	<path class="st110" d="M81.6,77.6c0.1,3.8-3,7.1-6.8,7.2c-4.2,0.1-7.5-3.5-7.6-8.2c-0.1-3.5,3.3-7.1,6.7-7.2
		C77.6,69.2,81.6,73.4,81.6,77.6z"/>
	<path class="st111" d="M75.6,62.9c0.4,0.2,0.8,0.4,1.2,0.5c0.4,0.2,0.9,0.3,0.7,0.9c-0.2,0.6-0.7,0.3-1.2,0.2
		c-2.1-0.8-4.1-1.2-6.4-0.8c-4.2,0.7-6.8,3.3-8.5,7c-0.4,1-0.8,2-1.2,3.2c-0.1-0.6-0.1-1-0.2-1.3c1.1-5.3,4.1-8.8,9.6-9.9
		C71.6,62.3,73.6,62.5,75.6,62.9z"/>
	<path class="st112" d="M53.2,72c0.2-1.6-0.3-3.3,0.5-4.9c0.5,6.3,1.9,12.4,2.7,18.7c0.1,0.4,0.1,0.8,0.1,1.2c0,0.2,0,0.7-0.4,0.6
		c-0.2-0.1-0.3-0.4-0.4-0.7C54.9,81.9,54.4,76.9,53.2,72z"/>
	<path class="st113" d="M56,88.9c0.6-0.3,1-0.2,1,0.5c0,0.7-0.4,0.8-1,0.5C56,89.5,56,89.2,56,88.9z"/>
	<path class="st114" d="M41.9,98.2c0.4-1-0.9-1.8-0.1-2.4c0.8-0.5,1.6-1.1,2.4-1.4c0.3-0.1,2.8,2.2,2.7,2.4
		c-0.9,0.8-0.5,2.9-1.8,2.7C44.2,99.3,41.9,100.5,41.9,98.2z"/>
	<path class="st115" d="M180.5,108.4c0.5-0.3,0.5-1.3,1.3-1.1c-1.1,1.6-2,3.3-2.5,5.2c-0.8,3.1-0.2,4.8,2.5,6.7
		c-2.1,0.6-4-0.9-4-3.4C177.8,113.1,179,110.7,180.5,108.4z"/>
	<path class="st116" d="M174.4,102c-0.2,2-1.6,3.6-2.3,5.4c-0.2,0.1-0.5,0.2-0.7,0.3c0-0.1-0.1-0.1-0.1-0.2c0.7-2,1.7-3.8,2.2-5.9
		c0.1-0.2,0.3-0.3,0.5-0.3C174.2,101.5,174.3,101.7,174.4,102z"/>
	<path class="st116" d="M167.4,111.8c-0.1,0-0.3,0-0.4,0c-0.1-0.1-0.2-0.2-0.3-0.3c-0.1-0.3,0.1-0.5,0.3-0.7
		c1.2-0.7,2.2-1.6,3.2-2.6c0.3-0.3,0.6-0.6,1.1-0.5c0,0,0,0,0,0C170.7,109.7,169,110.6,167.4,111.8z"/>
	<path class="st36" d="M182.9,136.8c1.6-0.1,2.8,0.9,4.3,1.2c1.4,0.2,2.7,0.3,4.1-0.1c-0.8,2-0.8,2-2.7,1c-0.3-0.2-0.6-0.4-0.9-0.3
		C185.8,138.8,184.3,137.8,182.9,136.8z"/>
	<path class="st117" d="M183,125.2c2.9,0,5.7,0.4,8.3,1.8c1.2,0.6,2.2,1.5,3,2.7c1.6,2.5,0.2,5.3-2.8,5.4c-1.5,0.1-3-0.2-4.4-0.8
		c-9.3-3.9-17.3,4.5-16.3,12.6c0.8,6.3,6.5,11.1,13.4,7.4c1.1-0.6,2.1-1.2,3.2-1.8c1.8-1,3.4-0.7,4.4,0.6c0.9,1.2,0.8,3-0.4,4.5
		c-2,2.4-4.7,3.6-7.6,4.4c-13.2,3.7-22-10-20.1-19.6c1.2-5.8,3.4-10.8,8.4-14.3C175.4,125.9,179.2,125.4,183,125.2z"/>
	<path class="st80" d="M203.8,105.4c-0.3-1.2,0.5-2.1,0.7-3.2c0.8-4.2,0.5-8.5,0.1-12.8c-0.1-0.8-0.1-1.7-0.1-2.5
		c0-0.3,0-0.8-0.4-0.8c-0.4-0.1-0.5,0.3-0.6,0.6c-0.1,0.4-0.3,0.8-0.8,0.7c-0.4-0.1-0.7-0.4-0.8-0.8c-0.1-0.5-0.2-1-0.3-1.5
		c-0.2-3.7-0.5-7.4,0.2-11c0.2-0.9,0.4-1.7,0.8-2.5c0.2-0.4,0.5-1.1,1.2-0.5c-2,4.5-1.6,9.2-1.1,13.3c0.1-3-0.2-6.6,0.3-10.2
		c0.2-1.1,0.4-2.1,0.8-3c1,1.2-0.3,2.5,0.2,3.9c1.1-0.6,0.7-2.2,1.8-2.6c-1.8,5.1-1.3,10.3-0.8,15.6
		C205.6,93.7,206.5,99.7,203.8,105.4z"/>
	<path class="st80" d="M198.7,124.6c1-1.2,1-2.5,0.6-4c-0.6-2.2-0.3-4.3,1.1-6.1c0.1,0.9-0.6,1.5-0.7,2.4c-0.2,1.5-0.2,3,0.2,4.6
		C200.2,122.6,200.6,124.1,198.7,124.6z"/>
	<path class="st80" d="M202.4,108.8c-0.2-1.4,0.6-2.4,1.4-3.4C203.3,106.5,204,108.1,202.4,108.8z"/>
	<path class="st80" d="M205.8,72.3c0-1.3,0.5-2.4,1.3-3.4C206.8,70.1,206.7,71.4,205.8,72.3z"/>
	<path class="st118" d="M171.4,107.7c-1.4,1.5-2.9,2.8-4.7,3.7c-0.6,0.1-1.1,0.3-1.7,0.4c-0.7-0.1-1.4,0-2.1,0.1
		c-3,0.3-5.7-0.4-8.2-2.3c-1.2-0.9-2-2-2.9-3.2c-0.3-0.4-0.6-0.8-0.4-1.4c0.1-0.1,0.1-0.2,0.3-0.2c2.3-0.5,2.6-1.1,1.1-3
		c-2.4-3-2.5-8.3,0.7-12c1.6-1.9,4-1.8,6.1-1.6c2.2,0.2,3.5,1.9,4.2,3.9c0.5,1.4,1.1,2.7,1.7,4c0.5,1,1.1,1.8,2.3,1.7
		c1.2,0,1.9-0.9,2.3-2c1.4-3.5-1.5-9.6-5-10.8c-0.4-0.2-0.7-0.5-1-0.7c-0.7-0.5-1.5-0.1-2.2-0.6c-0.4-0.3-0.8-0.7-0.4-1.3
		c0.3-0.5,0.9-0.4,1.3-0.3c1.2,0.5,2.5,0.4,3.7,0.8c5.5,2.3,7.4,6.9,8,12.4c0.2,2-0.2,3.9-0.3,5.8
		C173.3,103.5,172.5,105.7,171.4,107.7z"/>
	<path class="st119" d="M166.4,83.1c-1.2-0.1-2.5,0.3-3.7-0.5c-0.3-0.2-0.8-0.2-1.1,0.1c-0.5,0.5,0.2,0.7,0.3,1.1
		c-0.1,0.1-0.1,0.1-0.2,0.2c-1.1,0.5-2.2,0.2-3.3,0.5c-4.9,1.3-7.3,4.7-8.2,9.5c-0.1,0.4-0.1,0.8-0.2,1.2c-0.3,2.9-0.2,5.7,1,8.4
		c0.2,0.5,0.5,1,0.4,1.6c1,1.4,1.7,2.9,3.2,4.1c2.6,2.1,5.4,3,8.7,2.4c0.6-0.1,1.3-0.3,1.7,0.4c-8.1,2.5-15.5-4.6-16.2-11.2
		c-0.6-4.7-0.3-9.3,2.4-13.4C154.5,82.2,160.9,80.4,166.4,83.1z"/>
	<path class="st120" d="M167.2,67.7c1.5,1.9,1.5,6.1,0.3,7.5c-0.2,0.3-0.4,0.6-0.8,0.4c-0.4-0.1-0.3-0.5-0.3-0.9
		C166.2,72.5,166.6,70.2,167.2,67.7z"/>
	<path class="st121" d="M150.9,72.7c0-1.6,0.7-2.9,1.2-4.3c0.1-0.3,0.3-0.8,0.8-0.7c0.5,0.1,0.4,0.6,0.4,1
		C153.4,71.9,153.3,72.2,150.9,72.7z"/>
	<path class="st29" d="M183.1,100.3c-1.1,1-2.1,1-3.2,0.2c-0.2-0.2-0.2-0.4,0-0.6C180.2,99.5,181.7,99.6,183.1,100.3z"/>
	<path class="st122" d="M148.8,126.3c-1.6,4.4-0.8,9.1-1.3,13.6c-0.3,2.6-0.2,5.3-0.3,7.9c-0.1,2.1-0.8,3.9-2.5,5.2
		c0.6-3.6,0.2-7.2,0.6-10.8c0.3-3.4,0.1-6.8,0.5-10.2C146.1,129.7,146.8,127.7,148.8,126.3z"/>
	<path class="st63" d="M130.9,92.3c2.6-2.6,5.7-3.2,9.1-2c1.8,0.6,3.5,1.1,5.4,0.8c-1.8,2.2-3.8,2.7-6.4,1.7
		c-2.4-0.9-4.9-1.6-7.5-0.4C131.3,92.6,131.1,92.6,130.9,92.3z"/>
	<path class="st29" d="M124.8,120.6c0.7-0.1,0.4,0.5,0.4,0.8c0,2.4,0.1,4.9-0.3,7.3c0,0.6-0.2,1.2-0.6,1.7c-0.2-2,0.3-3.9,0.5-5.8
		C124.9,123.2,124.8,121.9,124.8,120.6z"/>
	<path class="st123" d="M110.7,131.7c0.3,0.2,0.7,0.5,1,0.7c1,0.7,1.8,1.7,2.6,2.6c0.5,0.5,1,0.7,1.6,0.4c1,0,0.9,0.8,0.9,1.4
		c0.1,1.2-0.1,2.3,0.1,3.5c0.1,0.3,0.3,0.5,0.5,0.8c0.1,0.3,0,0.6-0.1,0.9c-0.3,0.6,0,1.3-0.1,1.9c0,0.3-0.1,0.7-0.1,1
		c0.1,0.3,0.2,0.7,0.6,0.8c0.5,0.1,0.7-0.2,0.9-0.6c0.8-1.2,0.8-2.7,0.9-4.1c0.6-5.1,1.1-10.2,1.9-15.3c0.3-1.5,0.3-3.1,0.5-4.7
		c0.1-0.6-0.1-1.3,0.6-1.6c1.1,1,1.2,2.4,1,3.7c-0.7,6-1.1,12-1.4,18c-0.1,1.4-0.4,2.9-0.3,4.3c-0.2,4-0.6,8-0.7,12
		c0,1.8-0.6,3.4-2.4,4.3c-1.4,0.7-2.2,0.5-2.9-1c-0.3-0.7-0.3-1.4-0.4-2.1c-0.2-0.8-0.6-1.2-1.4-0.5c-0.9,0.8-1.8,1.7-2.8,2.4
		c-2.2,1.4-4.7,1.3-7.2,1.4c-6.7,0.3-13.4-6.9-13.8-12c0.9-0.4,1.1,0.4,1.5,0.9c0.4,0.5,0.8,1.2,1.6,1.1c0.9-0.1,0.7-1,1-1.6
		c0.5-1.1,0.2-2.2-0.1-3.3c-0.8-3.2,0.5-5.9,2.7-8c2.5-2.5,5.6-3.1,9-1.6c1.1,0.5,2.2,1,3.3,1.7c1.5,0.9,2.4,0.9,3.3-0.1
		c0.9-1,0.9-2.6,0.1-3.7c-1.3-1.7-2.8-3-4.8-3.7c-0.3-0.1-0.5-0.2-0.6-0.5c0.2-1,1-0.5,1.5-0.5l0,0
		C109.2,131.2,110.1,131.2,110.7,131.7z"/>
	<path class="st124" d="M108.7,130.6c-0.5,0.2-1.3-0.2-1.4,0.7c0,0.1-0.1,0.1-0.1,0.2c-0.7,0.1-1,0.8-1.6,1.2
		c-1.8,0.4-3.7-0.2-5.4,0.6c-0.7,0.3-1.3,0.9-2.2,0.6c-0.6-0.9,0.4-1.1,0.8-1.4c1.4-0.9,3-0.9,4.6-1c-3.8-0.4-6.8,1.3-9.2,4.1
		c-2.5,3-3.5,6.4-2.9,10.3c0,0.3,0.1,0.7-0.1,1c-0.6,0.4-1,0.9-0.7,1.7c0.2,0.5,0.3,1-0.1,1.4c1.2,5.4,4.6,9.3,9.6,11.1
		c4.6,1.6,9.4,1.7,13.2-2.4c0.4-0.5,0.9-1.1,1.7-0.9c0.7,0.2,0.7,0.9,0.8,1.5c0.2,1.2,0.7,2.8,1.8,2.7c1.2-0.1,2.7-0.9,3.1-2.4
		c0.2-0.8,0.6-1.7,0.5-2.6c-0.2-3.2,0.3-6.3,0.3-9.5c0-0.5,0.2-1.1,0.3-1.6c0.1-0.2,0.2-0.1,0.3,0c-0.2,4-0.4,8.1-0.7,12.1
		c-0.1,1.3-0.4,2.6-1.3,3.6c-0.8,0.9-1.8,1.4-3,1c-1.2-0.4-1.8-1.3-1.8-2.6c0-0.6,0.1-1.2-0.4-1.8c-0.2,0.1-0.4,0.2-0.6,0.3
		c-7.6,6.5-17.6,4.8-22.7-3.8c-3.9-6.6-2.8-16,2.6-21.4C97.8,129.7,104.3,128.5,108.7,130.6z"/>
	<path class="st125" d="M122.1,145.9c-0.1,0-0.2,0-0.3,0c0.3-6.5,0.5-12.9,1.2-19.4c0.2-1.8,0.8-3.7,0.1-5.6c-0.2-0.5-0.3-1-0.7-1.3
		c-0.2,0-0.3-0.1-0.4-0.2c-1.6-1.5-1.8-1.4-2.6,0.6c-0.1,0.3-0.3,0.6-0.5,0.9c-0.9,1.1-0.9,2.4-1,3.7c-0.2,4.7-0.6,9.4-0.7,14.2
		c0,0.8,0.1,1.6-0.5,2.2c-0.7-1.4-0.2-2.8-0.3-4.2c-0.1-0.4,0.3-1.2-0.7-0.8c-0.2-0.2-0.2-0.5,0-0.7c0.3-4.4,0.7-8.7,1-13.1
		c0.1-1.2,0.5-2.3,1.1-3.3c1.3-2.3,3.7-2.4,5-0.1c0.9,1.4,1.2,3.1,1,4.7C122.9,130.8,122.7,138.3,122.1,145.9z"/>
	<path class="st124" d="M115.7,135c0,0.2,0,0.5,0,0.7c-1.6,0.3-2-1.3-3-1.9c-0.5-0.3-0.7-0.9-1.1-1.4c1.2,0.4,1.8,1.4,2.7,2.2
		C114.8,134.9,115,135.7,115.7,135z"/>
	<path class="st124" d="M110.7,131.7c-0.8-0.1-1.6-0.2-2-1.1C109.5,130.8,110.2,131,110.7,131.7z"/>
	<path class="st126" d="M157.3,134.1c-0.1,3-0.2,6.1-0.3,9.1c-0.4,4.9-0.8,9.8-1.1,14.7c-0.3,3.5-2.6,4.7-5.4,2.7
		c-0.6-0.4-0.9-0.3-1.3,0c-1.6,1.2-3.4,1.8-5.3,2.3c-10,0.7-14.3-6.5-14.9-13.2c-0.6-6.1-0.8-12.2-0.2-18.3c0.2-2.6,1.5-4.6,3.8-5.8
		c1.6-0.8,2.8-0.3,3.6,1.3c0.9,1.7,0.9,3.6,0.8,5.4c-0.2,5.4-0.6,10.8-0.5,16.2c0.1,4,2.6,6.7,6,6.3c2.3-0.2,4.8-2.7,5.4-5.4
		c0.5-2.4,0.5-4.8,0.7-7.2c0.3-3.9,0.4-7.8,0.7-11.8c0.1-1.3,0.5-2.5,1.1-3.7c1.3-2.3,3.8-2.5,5.6-0.6c0.9,1,1.3,2.2,1.3,3.5
		C157.2,131.3,157.3,132.7,157.3,134.1z"/>
	<path class="st127" d="M222.7,33.7c-0.2-2.7,1.5-4.1,3.4-5.2c3-1.7,5.8-0.9,8.3,1.1c0.2,0.1,0.5,0.3,0.5,0.5
		c-0.1,2.5,1.4,5-0.2,7.7c-1.2,2-3.1,2.5-4.9,2.7C225.7,41.1,222.7,38,222.7,33.7z"/>
	<path class="st128" d="M137.6,82.6c2.2,0.1,4.6,0.4,6.8,1.7c0.9,0.5,1.6,1.2,2.1,2.2c1,1.9-0.1,3.9-2.3,4c-1.2,0.1-2.4-0.2-3.5-0.6
		c-7.8-3.3-13.8,3.9-13.2,10.1c0.6,5.3,5.7,8.4,10.5,6c0.9-0.5,1.7-1,2.6-1.5c1.3-0.6,2.6-0.9,3.6,0.4c1,1.3,0.5,2.6-0.5,3.7
		c-1.1,1.4-2.6,2.2-4.3,2.9c-9.3,3.6-19-4.3-17.6-14.2c0.7-5.1,2.6-9.4,7-12.3C131.4,83.2,134.3,82.8,137.6,82.6z"/>
	<path class="st51" d="M139,113.8c-0.4,1.7-1.9,2.3-3.2,2.3c-2.1-0.1-4.1,0.1-6.2-0.5c-1.1-0.3-1.9-0.8-2.7-1.5
		C131,116,135,115.3,139,113.8z"/>
	<path class="st129" d="M116.8,112.9c-0.4,1-0.8,2-2.2,2c-1.3,0-1.9-1-2.4-2.1c-1.1-2.7-0.9-5.5-1.2-8.3c-0.6-5-1.2-10-1-15.1
		c0.1-1.8,0.3-3.4,2.4-4.1c-0.4,5.6,0.2,11.1,0.8,16.6c0.2,2.3,0.5,4.7,0.8,7C114.3,110.7,114.7,112.5,116.8,112.9z"/>
	<path class="st130" d="M116.5,83.8c1.8,0.7,2.2,2.2,2.2,3.8c0,7,0.3,14,0,21c-0.1,2-0.9,3.7-1.9,3.5c-1.8-0.4-1.8-2-2.1-3.4
		c0-0.2,0-0.3,0-0.5c-0.2-0.6-0.2-1.1,0-1.7c1.7-0.2,2-0.7,1.9-2.7c-0.3-3.2-0.7-6.4-0.5-9.5c0.1-2.2,0.2-4.3,0-6.5
		c-0.1-1.4-0.5-2.5-1.7-3.2C114.8,83.4,115.6,83.6,116.5,83.8z"/>
	<path class="st131" d="M114.7,106.4c0,0.6,0,1.2-0.1,1.7c-0.7-1.5-0.6-3.2-0.8-4.8c-0.5-5.3-1.2-10.6-1.2-15.9
		c0-0.9,0.2-1.7,0.5-2.4c0.6-1.4,1.8-1.8,3.3-1.3c-0.8,0.1-1.6,0-2.1,0.7c0,1-0.4,1.9-0.2,2.9c0,2.7,0,5.4,0,8.1
		c0,1.1,0,2.2,0.9,3.1c0.2,0.3,0.4,0.8,0.2,1.1c-0.9,1.6-0.5,3.4-0.3,5.1C115.1,105.3,115.2,105.9,114.7,106.4z"/>
	<path class="st61" d="M90.8,118.7c0,0.4,0,0.7-0.5,0.8c-0.5,0-0.5-0.3-0.5-0.7c0-0.4,0.3-0.6,0.6-0.7
		C90.8,118.1,90.7,118.5,90.8,118.7z"/>
	<path class="st132" d="M98.2,80.7c0.8-1.7,2.4-1,3.4-0.8c1.3,0.2,2.9,0.4,3.4,2.3c0.4,1.7-0.1,2.8-1.8,2.9c-1.4,0.1-2.7-0.5-4.1,0
		c-1.8,0.7-2.3,1.9-1.5,3.7c0.3,0.6,0.8,1.1,0.2,2c-0.9-1.2-1.9-2.3-2.3-3.7c-0.5-1.7,0.2-3.3,1.6-4.5c0.5-0.4,1.3-0.7,1.4-1.6
		C98.4,81,98.2,80.9,98.2,80.7z"/>
	<path class="st133" d="M98.2,80.7c0.1,0.1,0.2,0.2,0.3,0.4c-4.1,2.2-4.8,5.1-2.1,8.9c0.4,0.6,1.6,1.4,0.9,2
		c-0.6,0.5-1.3-0.8-1.7-1.4C92.4,86.6,93.4,82.9,98.2,80.7z"/>
	<path class="st134" d="M96.1,108.1c-3.3-0.1-5.1-2.3-6.7-4.7c-0.5-0.8-0.9-1.7-2.4-1c0.9-1.4,1.9-1.8,2.6-0.8
		C91.1,104.3,92.7,107.1,96.1,108.1z"/>
	<path class="st135" d="M113,72.9c0-0.2,0.1-0.4,0.4-0.5c1.6-0.3,3.2,0.5,3.9,2.1c0.6,1.4,0,3.1-1.3,4c-1.8,1.3-2.9,1.3-4.3,0
		c0,0,0.1-0.1,0.1-0.1c0.3-0.5,0.1-1,0-1.4c-0.3-1.5,0-2.7,1.4-3.5C113.8,73,112.7,73.1,113,72.9z"/>
	<path class="st136" d="M113,72.9c0.2,0.2,1.2,0,0.4,0.6c-1.7,1.2-1.7,2.7-1,4.4c0.5,1.2-0.4,0.4-0.7,0.5
		C110,76.2,110.4,74.4,113,72.9z"/>
	<path class="st137" d="M120.2,59.8c-0.1,0.7-0.4,1.3-1.2,1.2c-0.7-0.1-1.2-0.5-1.2-1.3c0-0.8,0.4-1.2,1.2-1.2
		C119.8,58.5,120.1,59,120.2,59.8z"/>
	<path class="st138" d="M65,157.7c-1.2-0.2-1.3-1.4-1.7-2.1c-1-1.9-1.4-4.1-1.1-6.3c0.1-0.9,1-1.3,1.9-1.4c1.3-0.1,2,0.8,2.3,1.8
		c0.6,1.6,0.9,3.2,1.4,4.8c0.8,2.5,2.3,3.4,4.8,3.5c0.9,0,2.3-0.7,2.5,1c0.2,1.4-0.7,2.4-2.4,3c-0.6-0.5-1.3,0-1.9-0.1
		c-2.7-0.4-4.4-2-5.4-4.4C64.9,156.2,65.4,158.4,65,157.7z"/>
	<path class="st139" d="M82.4,117.5c0.7,0,1.4,0.1,1.7,0.6c0.3,0.6,0.6,1.4-0.5,1.7c-0.6,0.2-1.2,0.4-1.8,0.3
		c-3.6-0.3-7.1,0.4-10.7-0.5c-1.5-0.4-3.3,0.2-5,0.2c-0.7,0-1.5,0-2.1-0.5c-0.3-0.3-1.2-0.1-0.9-0.8c0.2-0.5,0.7-0.9,1.3-1
		c2.2-0.1,4.5-0.3,6.7-0.3c0.9,0,1.8-0.1,2.6,0.3C76.5,118.1,79.5,117.7,82.4,117.5z"/>
	<path class="st140" d="M65,157.7c-0.1-0.6-0.5-1.1-0.2-1.8c0.7,0,0.6,0.6,0.7,1c1.2,3,3.1,4.9,6.6,4.9c0.3,0,0.6,0,0.7,0.3
		C69.2,162.7,67.1,161.5,65,157.7z"/>
	<path class="st141" d="M82.4,117.5c-0.1,0.1-0.1,0.2-0.2,0.2c-2.3,0.1-4.7,0.3-7,0.3c-0.5,0-1.1,0-1.5-0.6
		C76.5,117.6,79.5,117.6,82.4,117.5z"/>
	<path class="st142" d="M78.5,82.5c-3,2.2-6,2-8.5-0.6c-2.3-2.4-2.6-6.6-0.6-9.3c2-1.1,4.1-1.1,6,0.2C78.5,74.8,79.9,79.2,78.5,82.5
		z"/>
	<path class="st143" d="M78.5,82.5c-0.1-1.8,0.3-3.6-0.3-5.4c-1.4-3.9-4.1-5.4-8.1-4.4c-0.2,0.1-0.4,0.2-0.6,0
		c2.6-3.5,7.4-3.4,9.8,0.1C81.5,76.2,81.2,80.1,78.5,82.5z"/>
	<path class="st85" d="M175.4,128.6c4.1-2.2,8.2-2.3,12.4-0.5c1,0.4,2.1,1.1,1.8,2.4c-0.3,1.3-1.6,1.8-2.7,1.9
		c-1.3,0.1-2.6,0.1-3.9-0.1c-5.8-1.2-10.3,2.8-12.3,6.8c-2,4.2-2,8.5-0.3,12.7c0.2,0.6,0.3,1.2,0.3,1.8c0,0.6-0.2,1.1-0.8,1.3
		c-0.6,0.2-1.1,0.1-1.5-0.3c-1.4-1.2-2.4-2.7-2.4-4.6c-0.3-0.6-0.2-1.3-0.4-1.9c-0.3-0.9-0.1-1.6,1-1.9c0.4-5.3,1.8-10.1,5.7-14
		c1.4-1.4,3-2.1,4.8-2.7c0.7-0.2,1.4-0.3,2.1-0.8c-1.3-0.3-2.3,0.4-3.3,0.3C175.6,128.8,175.5,128.7,175.4,128.6z"/>
	<path class="st144" d="M167,146.5c-0.1,0.3-0.1,0.7-0.2,0.7c-1,0.3-1,0.2-0.8,1.5c0.1,0.4,0,0.8,0,1.2c-1.7-5.8-0.7-11.1,2.7-16
		c1.1-1.6,2.5-3.1,4.3-3.9c0.1,0.1,0.1,0.1,0.2,0.2c-0.1,1.1-1,1.6-1.7,2.2c-3.5,3.6-4.7,8-4.8,12.8
		C166.7,145.6,166.8,146.1,167,146.5z"/>
	<path class="st144" d="M173,129.9c0.7-0.7,1.5-1,2.4-1.4c0,0.1,0.1,0.1,0.1,0.2c-0.4,1.2-1.3,1.5-2.4,1.4
		C173.1,130.1,173.1,130,173,129.9z"/>
	<path class="st145" d="M203.8,71c-0.9,5.2-0.6,10.4-0.8,15.7c-0.7-0.5-0.8-1.1-0.8-1.7c-0.2-3.4-0.6-6.8,0-10.2
		C202.4,73.4,202.7,72,203.8,71C203.8,71,203.8,71,203.8,71z"/>
	<path class="st146" d="M151.5,105.1c-2-3.1-2.4-6.6-1.7-10.1c0.4-0.1,0.3-0.5,0.4-0.8c0.8-3.2,2.4-5.8,5-7.8c0.7-0.6,1.6-1,2.6-1
		c1.8,0.3,3.5-0.1,5.2-0.3c0.6-0.1,1.3,0.1,1.9-0.2c2.4,0.3,3.6,2,4.5,3.9c0.9,1.9,1.3,3.9,1.3,6c0,1.1-0.5,2.1-1.2,2.9
		c-1.7,1.8-3.7,0.6-4.4-1.1c-0.6-1.4-1.4-2.8-1.8-4.3c-0.6-2-2-3.7-4.1-3.7c-2.3,0-4.8,0-6.3,2.7c-1.5,2.9-1.8,5.7-0.8,8.7
		c0.3,0.9,1.2,1.4,1.5,2.4c0.3,0.9,0.9,1.6,0.2,2.5C153.1,105.8,152.3,105.2,151.5,105.1z"/>
	<path class="st147" d="M163.4,96.5c0,1.4-0.5,2.7-1.2,4c-1.8,3-5.4,3.5-8.1,1.2c-2.5-2.2-3-7.1-0.9-9.5c1.9-2.2,4.1-2.9,6.4-2
		C162.1,91.1,163.5,93.4,163.4,96.5z"/>
	<path class="st119" d="M163.4,85.4c-2,0.1-3.9,0.7-5.9,0.2c0.5-0.9,1.4-0.4,2-0.6c0.8-0.3,2,0.2,2.3-1.2c0,0,0.1-0.1,0.1-0.1
		c0.8,0.2,1.6-0.3,2.3,0.4C164,84.5,163.6,84.9,163.4,85.4z"/>
	<path class="st148" d="M163.4,85.4c-0.7-1.1,0.1-1.2,0.9-1.3c0.2,0.2,0.5,0.4,0.7,0.7C164.8,85.9,164.1,85.5,163.4,85.4z"/>
	<path class="st148" d="M161.9,83.9c0.2,0.3,0.8,0.3,0.7,0.8c-0.1,0.5-0.6,0.5-0.9,0.5c-1.4,0.2-2.7,0.3-4.1,0.5
		c-4.1,1.5-6,4.9-7.1,8.8c-0.2,0.7-0.2,0.8-0.7,0.4c0.5-5,2.7-8.8,7.7-10.6C158.9,83.8,160.4,83.8,161.9,83.9z"/>
	<path class="st149" d="M90.4,149.9c-0.1-0.6-0.2-1.3-0.4-1.9c-0.4-1,0.1-1.1,0.9-1.1c0.9-0.3,0.4-0.9,0.4-1.4c0-4.3,1.4-8,4.6-10.9
		c0.5-0.5,1-1.1,1.9-0.8c0.2,0,0.4,0.1,0.5,0c2.3-1.7,5.1-1.2,7.7-1.4c0.3-0.4,0.9-0.5,1.2-0.9c0,0,0.1-0.1,0.1-0.1
		c1.4-0.3,2.5,0.6,3.3,1.3c1.3,1.2,3.1,2.4,3.1,4.6c0,1.4-0.7,2.4-1.9,3c-1.1,0.6-2,0-2.9-0.7c-3.9-3.1-7.6-3.2-11.5-0.4
		c-2.1,1.5-3.4,5-2.8,7.5c0.4,1.6,0.5,3.1-0.1,4.7c-0.5,1.3-1,1.5-2.2,0.8C91.3,151.7,91.4,150.4,90.4,149.9z"/>
	<path class="st150" d="M119.1,120.2c0.3-2.2,0.9-2.8,2.2-2.2c0.6,0.3,0.9,1,1.2,1.6c-0.1,3.9-0.5,7.7-1.4,11.4
		c-0.2,1.1-0.2,2.2-0.3,3.3c-0.3,3.2-0.7,6.4-1.1,9.6c-0.1,0.5-0.3,1-0.6,1.4c-0.4,0.7-0.9,1.8-1.9,0.9c-0.7-0.6-1.5-1.7-0.2-2.7
		c0.2-0.6,0.2-1.2,0-1.8c0.1-0.2,0.2-0.4,0.3-0.5c-0.4-1.7,0.2-3.3,0.2-5c-0.1-4.3,0-8.6,0.5-12.9
		C118.2,122.2,118.5,121.1,119.1,120.2z"/>
	<path class="st151" d="M108.9,146.2c0,4-2.2,6.6-6,7.3c-1,0.2-1.9-0.1-2.8-0.4c-4.3-1.7-5.9-8.4-2.8-11.8c1.8-2,4.7-2.8,7.1-1.9
		C107.2,140.4,108.9,143,108.9,146.2z"/>
	<path class="st152" d="M119.1,120.2c-1.3,5.8-0.9,11.7-1.1,17.6c0,1.2,0.1,2.3-0.6,3.4c-0.2-0.1-0.5-0.3-0.7-0.4
		c0.1-6.1,0.3-12.2,1-18.3C117.9,121.6,118,120.6,119.1,120.2z"/>
	<path class="st153" d="M117.1,141.8c0.8,0.6,1,1.2,0,1.8C116.5,143,116.6,142.4,117.1,141.8z"/>
	<path class="st154" d="M97.8,133.7c-4.1,2.4-5.5,6.3-6.1,10.7c-0.1,0.8,0,1.7-0.1,2.5c-0.2,0.9-0.4,0.3-0.7,0
		c-0.6-4.2,0.1-8,2.8-11.4c2.1-2.6,4.8-4.4,8.2-4.7c0.7-0.1,1.4,0.1,2.2,0.2c0.3,0,0.6,0.2,0.6,0.5c0,0.3-0.3,0.4-0.6,0.4
		c-0.5,0-1,0-1.5,0C100.8,132,99.2,132.5,97.8,133.7z"/>
	<path class="st155" d="M107.2,131.4c0,0.9-0.6,1-1.2,0.9C105.3,130.6,106.7,131.5,107.2,131.4z"/>
	<path class="st84" d="M152.9,127.3c-0.2-0.2-0.5-0.4-0.8-0.6c2.1-0.9,3.9,0.2,3.8,2.4c-0.5,6-0.2,12-1.7,17.8
		c-0.9,3.3-2,6.6-5.6,8.1c-0.6,0.3-1.2,0.5-1.7,0c-0.5-0.5-0.1-1.1,0.2-1.5c1-1.6,1.9-3.2,2.2-5.2c0.1-0.7,1.4-1.2,0.3-2.2
		c0.7-0.7,0.6-1.7,0.6-2.6c0-3.5,0-7,0-10.5c0-0.6-0.2-1.3,0.3-1.8c0.5,0.5,0.5,1.1,0.5,1.7c0,4.3,0,8.6,0,12.9
		c0-3.8,0.1-7.5,0-11.3C151,132.1,151.2,129.6,152.9,127.3z"/>
	<path class="st156" d="M130.3,133.1c-0.3,0.1-0.6,0.3-0.7-0.3c-0.2-1.7,1.6-4.6,3.1-5.1c1.6-0.5,3.1,0.7,2.9,2.6
		c-0.3,2.4-0.7,4.9-1.2,7.2c-1,4.8-1,9.5,0,14.3c0.2,1.1,1.1,2.1,1.8,3.2c0.7,1.1,0.8,2.3-0.2,3c-1,0.8-2.3,0.4-3-0.6
		c-1.2-1.8-3.1-3.3-2.3-5.9c0.8,0.1,0.8,0.9,1.4,1.3c-1.5-3.7-0.8-7.5-0.9-11.2c-0.1-3.7-0.2-7.5,0.1-11
		C130.9,131.3,131.5,132.6,130.3,133.1z"/>
	<path class="st157" d="M130.3,133.1c0.6-1.2,0.4-2.8,1.4-3.7c-0.4,5.4-0.1,10.8-0.1,16.2c0,2.6-0.2,5.2,1.1,7.6
		c0.2,0.3,0.3,0.7-0.1,0.9c-0.5,0.3-0.7-0.1-0.9-0.4c-0.4-0.7-0.7-1.4-1.1-2.1C129.9,145.4,130.3,139.2,130.3,133.1z"/>
	<path class="st158" d="M152.9,127.3c0.2,0.1,0.3,0.4,0.2,0.6c-1.5,1.8-1.6,4-1.6,6.2c0,3.4,0.1,6.7,0.1,10.1c0,1.3,0.1,2.7-1.1,3.8
		c0-5.5,0-11.1,0-16.6C150.8,129.8,151.4,128.3,152.9,127.3z"/>
	<path class="st159" d="M132,85.1c3.1-1.7,6.2-1.4,9.3,0c0.7,0.3,1.5,0.8,1.4,1.7c-0.1,0.9-1.1,1.1-1.8,1.3
		c-0.7,0.2-1.5,0.4-2.3,0.3c-8.2-1.2-13.8,5.1-11.8,13.2c0.2,0.8,0.5,1.6,0.7,2.4c0.2,0.8,0.5,1.8-0.4,2.2c-1,0.4-1.5-0.4-2-1.1
		c-1.7-2.4-1.9-5.2-1.7-8c0.3-3.9,1.8-7.3,4.8-9.9c0.3-0.2,0.5-0.5,0.9-0.4c0.2,0.4-0.1,0.8-0.3,1c-3,3-4,6.8-4.2,10
		c0.6-5.2,2.4-10.6,9.6-12.3C133.2,85.2,132.4,85.7,132,85.1z"/>
	<path class="st160" d="M132,85.1c0.8-0.1,1.5-0.2,2.3-0.3c0.2,0,0.5,0.1,0.6,0.2c0.2,0.3-0.1,0.5-0.3,0.7c-0.4,0.2-0.8,0.4-1.2,0.5
		c-4.4,1-6.5,4.1-7.7,8c-0.6,1.7-0.9,3.6-1.2,5.6c-0.7-4.7,0.6-8.8,3.6-12c0.3-0.3,0.6-0.7,0.8-1C129.9,86.3,130.9,85.7,132,85.1z"
		/>
	<path class="st161" d="M113.7,87.2c-0.1-1-0.1-2,0.7-2.7c1.4-0.2,2,0.8,2,1.9c0,2.4,0.4,4.7,0.1,7.2c-0.4,3.4,0.2,6.8,0.5,10.2
		c0.1,0.8,0.1,1.6-0.2,2.3c-0.5,1.3-1,1.4-2.1,0.4c-0.1-0.9-0.1-1.9-0.4-2.8c-0.6-1.8,0.4-3.3,0.7-5c-0.7-1.2-0.8-2.5-0.8-3.9
		c0-2.3-0.1-4.7,0-7C114.3,87.3,114.3,87,113.7,87.2z"/>
	<path class="st162" d="M113.7,87.2c0.4-0.4,0.2-1.1,1-1.5c0.1,4.4-0.1,8.6,0.3,12.9c-0.9,0.6-1,0-1.1-0.7
		C113.5,94.4,113.7,90.8,113.7,87.2z"/>
	<path class="st163" d="M173.2,130.1c0.8-0.4,1.7-0.7,2.4-1.4c1.1-0.4,2.2-0.8,3.4-0.8c0.4,0,0.9-0.2,1,0.3c0.2,0.6-0.4,0.7-0.8,0.9
		c-0.2,0.1-0.5,0.3-0.8,0.3c-6.2,1.2-9,5.6-10.5,11.2c-0.5,1.9-0.9,3.8-0.9,5.8c-0.7-0.5-0.6-1.3-0.6-2c0-5.2,1.8-9.6,5.6-13.2
		C172.4,130.9,172.8,130.5,173.2,130.1z"/>
	<path class="st164" d="M183,128.2c-0.1,0.5-0.5,0.5-0.9,0.5c-0.3,0-0.8,0-0.8-0.4c0-0.6,0.5-0.6,0.9-0.7
		C182.7,127.7,183,127.8,183,128.2z"/>
	<path class="st165" d="M160.2,101.4c-3.4,2.3-7.6-1.2-7.4-4.5c0.1-1.6,0-3.2,1-4.6c2.4-0.6,4.4-0.1,5.9,2
		C161.3,96.6,161.5,98.9,160.2,101.4z"/>
	<path class="st166" d="M160.2,101.4c-0.1-1.3,0.6-2.6,0.4-3.9c-0.4-2.6-2.8-5.6-5.7-4.9c-0.4,0.1-0.8,0.1-1.1-0.2
		c1.3-2,3.3-2.3,5.3-1.7c2.1,0.6,3.2,2.2,3.4,4.3C162.8,97.4,162.7,99.9,160.2,101.4z"/>
	<path class="st167" d="M105.6,151.6c-3.6,2.3-7.4,1-8.7-3c-0.7-2.1-0.8-4.2,0.6-6.1c3.1-2.1,7.1-0.7,8.5,3
		C106.7,147.5,106.9,149.6,105.6,151.6z"/>
	<path class="st168" d="M105.6,151.6c0.4-2,0.7-4-0.1-5.9c-1.4-3.3-4.2-4.5-7.6-3.2c-0.1,0.1-0.3,0-0.5,0c1.3-2.1,4-3.2,6.4-2.6
		c2.4,0.6,4.1,2.8,4.4,5.6C108.4,148,107.8,150.2,105.6,151.6z"/>
	<path class="st169" d="M150.3,149.7c0.3,0.8,0.1,1.3-0.5,1.6c-0.2,0.1-0.5,0-0.5-0.2C149.3,150.4,149.8,150.1,150.3,149.7z"/>
</g>
</svg>
