<?xml version="1.0" encoding="utf-8"?>
<!-- Generator: Adobe Illustrator 25.2.1, SVG Export Plug-In . SVG Version: 6.00 Build 0)  -->
<svg version="1.1" id="Camada_1" xmlns="http://www.w3.org/2000/svg" xmlns:xlink="http://www.w3.org/1999/xlink" x="0px" y="0px"
	 viewBox="0 0 247.2 202.1" style="enable-background:new 0 0 247.2 202.1;" xml:space="preserve">
<style type="text/css">
	.st0{display:none;}
	.st1{display:inline;fill:#FFBA26;}
	.st2{display:inline;fill:#EDD3A3;}
	.st3{display:inline;fill:#EDEAF1;}
	.st4{display:inline;fill:#EBF1EC;}
	.st5{display:inline;fill:#F6E8E3;}
	.st6{display:inline;fill:#29BF92;}
	.st7{display:inline;fill:#896CA1;}
	.st8{display:inline;fill:#FF1D37;}
	.st9{display:inline;fill:#FEFEFE;}
	.st10{display:inline;fill:#FDFEFD;}
	.st11{display:inline;fill:#FDFDFD;}
	.st12{fill:#8BBD5F;}
	.st13{fill:#93C651;}
	.st14{fill:#4F78E0;}
	.st15{fill:#3C64CF;}
	.st16{fill:#6D99A0;}
	.st17{fill:#85B669;}
	.st18{fill:#91C43B;}
	.st19{fill:#6A93B5;}
	.st20{fill:#3C64D1;}
	.st21{fill:#81B271;}
	.st22{fill:#5680D6;}
	.st23{fill:#5D87CA;}
	.st24{fill:#98C94D;}
	.st25{fill:#6383B8;}
	.st26{fill:#91C33A;}
	.st27{fill:#5C84C6;}
	.st28{fill:#6585B8;}
	.st29{fill:#90C43A;}
	.st30{fill:#F2F9DF;}
	.st31{fill:#94BC6A;}
	.st32{fill:#5B7CBD;}
	.st33{fill:#DBEAF7;}
	.st34{fill:#A6BF82;}
	.st35{fill:#A5C2A7;}
	.st36{fill:#6685B3;}
	.st37{fill:#8AAE75;}
	.st38{fill:#F0F5F8;}
	.st39{fill:#E5ECF5;}
	.st40{fill:#E9F8C5;}
	.st41{fill:#EEFBD0;}
	.st42{fill:#DBECF6;}
	.st43{fill:#F4F5F6;}
	.st44{fill:#EEF3F7;}
	.st45{fill:#F2F5EB;}
	.st46{fill:#A5CBF1;}
	.st47{fill:#E3F1C3;}
</style>
<g class="st0">
	<path class="st1" d="M0,99.1c0.5-1,0.4-2.1,0.6-3.1c2.5-12.1,12-21,24.2-22.6c0.9-0.1,1.8-0.2,2.7-0.2c11.1,0,22.2,0,33.2,0
		c1.7,0,3,0.8,3.8,2.3c0.7,1.4,0.5,2.9-0.4,4.2c-0.9,1.2-2.2,1.6-3.7,1.7c-1.7,0-3.4,0-5,0c-9.1,0-18.2-0.1-27.2,0
		c-9.4,0-17.2,6.3-19.4,15.5c-3,12.3,6.4,24.6,19.1,24.8c10.8,0.1,21.6,0,32.4,0c2.6,0,4.2,1.2,4.7,3.4c0.4,2.2-1.2,4.4-3.4,4.7
		c-0.4,0-0.7,0-1.1,0c-10.6,0-21.1,0-31.7,0c-14.9-0.1-26.6-10.4-28.5-25.2c0-0.3,0.1-0.6-0.3-0.7c0-0.2,0-0.3,0-0.5
		c0.2-1.3,0.2-2.6,0-3.8C0,99.4,0,99.3,0,99.1z"/>
	<path class="st2" d="M0,99.6c0.4,1.3,0.4,2.6,0,3.8C0,102.1,0,100.9,0,99.6z"/>
	<path class="st3" d="M100.3,0.2c0-0.1,0-0.1,0-0.2c0.8,0,1.6,0,2.4,0c0,0.1,0,0.1,0,0.2C101.9,0.8,101.1,0.8,100.3,0.2z"/>
	<path class="st4" d="M247.2,100.5c0.1,0,0.1,0,0.2,0c0,0.7,0,1.4,0,2.2h-0.1h-0.1C246.6,102,246.6,101.3,247.2,100.5z"/>
	<path class="st5" d="M102.5,202.8c0,0.1,0,0.1,0,0.2c-0.7,0-1.4,0-2.2,0c0-0.1,0-0.1,0-0.2C101,202.2,101.7,202.2,102.5,202.8z"/>
	<path class="st6" d="M247.2,100.5c0,0.7,0,1.4,0,2.2c-0.8,8.8-4.3,16.1-11.4,21.6c-3.7,2.9-8,4.2-12.5,5c-4,0.8-8,0.7-12.1,0.7
		c-44.3,0-88.6,0-132.9,0c-3.4,0-5.1-1.7-5.1-5.1c0-8.4,0-16.8,0-25.2c0-7.1,0-14.2-0.1-21.3c-0.1-3,1.8-5.3,5.3-5.3
		c29.8,0.1,59.7,0,89.5,0c14.3,0,28.6,0,42.8,0c3,0,5.9,0,8.9,0.1c13.8,0.2,25.8,11,27.4,24.7C247,98.8,247.1,99.7,247.2,100.5z"/>
	<path class="st7" d="M100.3,0.2c0.8,0,1.6,0,2.4,0c13.4,1,23.6,9.7,26.5,22.6c0.4,1.8,0.6,3.6,0.6,5.5c0,10.8,0,21.5,0,32.3
		c0,1.8-0.7,3.3-2.4,4.1c-1.5,0.7-3,0.5-4.3-0.6c-1.1-0.9-1.5-2.1-1.5-3.5c0-10.7,0.1-21.4,0-32.1c-0.1-8.2-4-14.3-11.3-18
		c-12.5-6.3-27.5,2-29,15.9c-0.1,1.1-0.2,2.2-0.2,3.2c0,10.4,0,20.9,0,31.3c0,1.9-1,3.3-2.8,3.9c-1.6,0.6-3.3,0-4.4-1.3
		c-0.7-0.8-0.9-1.8-0.9-2.9c0-10.8-0.1-21.6,0-32.4C73.2,14.3,83.2,2.8,97,0.5C98.1,0.4,99.2,0.3,100.3,0.2z"/>
	<path class="st8" d="M102.5,202.8c-0.7,0-1.4,0-2.2,0c-13.8-0.7-23.8-10.4-26.5-21.9c-0.5-2.1-0.8-4.3-0.8-6.4c0-10.7,0-21.4,0-32
		c0-3.3,2.8-5.4,5.6-4.2c1.6,0.7,2.5,2.1,2.5,4.1c0,10.6-0.1,21.2,0,31.8c0.1,8.5,4,14.9,11.7,18.6c12.3,5.9,26.9-2.2,28.6-15.7
		c0.1-1.1,0.2-2.2,0.2-3.3c0-10.5,0-21,0-31.4c0-3.2,2.9-5.2,5.6-4c1.7,0.8,2.5,2.2,2.5,4c0,3.8,0,7.5,0,11.3c0,7.1,0.1,14.2,0,21.2
		c-0.2,12.8-8.8,23.8-21.2,27.1C106.6,202.4,104.5,202.7,102.5,202.8z"/>
	<path class="st6" d="M17.8,52c1.1,0,2.2,0.3,3.2,1c0.3,0.2,0.8,0.4,0.5,0.9s-0.7,0.3-1.1,0c-2.5-1.8-5.6-0.5-6.8,1.6
		c-1.1,2-0.9,4.4,0.7,6.1c1.6,1.7,3.9,2,5.9,0.8c0.1-0.1,0.2-0.1,0.3-0.2c0.3-0.2,0.7-0.5,1,0c0.4,0.5-0.1,0.8-0.4,1.1
		c-1.2,0.9-2.6,1.2-4.1,1c-3.2-0.4-5.6-3.4-5.4-6.6C11.8,54.4,14.4,52,17.8,52z"/>
	<path class="st6" d="M63.8,62.7c-2.2,1.8-4.7,1.8-6.2,0c-1.5-1.7-1.4-4.4,0.3-6c1.3-1.2,2.9-1.4,4.5-0.9c1.5,0.5,2.4,1.6,2.7,3.2
		c0.2,1.2,0.1,2.5,0.1,3.7c0,0.5,0.1,1.2-0.5,1.3C63.8,64.1,63.9,63.3,63.8,62.7z"/>
	<path class="st6" d="M32.7,59.8c0-1.1,0-2.2,0-3.2c0-0.4,0-0.8,0.4-0.9c0.4-0.1,0.7,0.1,0.8,0.5c0.1,0.5,0.4,0.2,0.6,0.1
		c3.4-1.7,6.1-0.1,6.1,3.7c0,1.1,0,2.2,0,3.2c0,0.4-0.1,0.8-0.7,0.8c-0.5,0-0.5-0.4-0.5-0.8c0-1.3,0-2.6,0-3.8c0-1.1-0.4-2-1.4-2.4
		c-1.1-0.5-2.2-0.4-3.2,0.3c-0.6,0.4-0.9,1.1-0.9,1.9c0,1.3,0,2.6,0,4c0,0.5,0,1-0.6,0.9c-0.5,0-0.6-0.5-0.6-0.9
		C32.7,62,32.7,60.9,32.7,59.8z"/>
	<path class="st6" d="M51.4,55.6c1-0.1,1.9,0.3,2.7,1.1c0.3,0.3,0.6,0.6,0.2,1c-0.3,0.3-0.6,0-0.9-0.2c-1.5-1.1-2.9-1.2-4-0.2
		c-1.1,0.9-1.3,2.9-0.5,4.2c0.8,1.4,2.7,1.9,4.3,1c0.4-0.2,0.8-0.6,1.1-0.1c0.4,0.6-0.2,0.8-0.5,1c-1.4,1-3.5,0.8-4.9-0.2
		c-1.4-1.1-1.9-3.1-1.3-4.9C48,56.6,49.5,55.6,51.4,55.6z"/>
	<path class="st6" d="M23.7,57.3c0-1.5,0-3,0-4.4c0-0.4,0-0.9,0.6-0.9s0.5,0.5,0.5,0.9c0,2.7,0,5.4,0,8c0,1,0.1,1.9,1.4,1.9
		c0.3,0,0.5,0.3,0.5,0.6c0,0.4-0.3,0.5-0.7,0.6c-1.1,0.2-2.2-0.8-2.2-2.2C23.6,60.4,23.7,58.9,23.7,57.3L23.7,57.3z"/>
	<path class="st6" d="M28.5,59.7c0-1.1,0-2.2,0-3.3c0-0.4,0.1-0.7,0.6-0.7s0.6,0.3,0.6,0.7c0,2.3,0,4.6,0,6.9c0,0.4-0.1,0.8-0.6,0.8
		s-0.6-0.4-0.6-0.8C28.5,62,28.5,60.9,28.5,59.7z"/>
	<path class="st6" d="M44.7,59.9c0,1.1,0,2.2,0,3.2c0,0.4,0,0.9-0.5,0.9s-0.7-0.4-0.7-0.8c0-2.2,0-4.5,0-6.7c0-0.4,0.1-0.8,0.6-0.8
		c0.6,0,0.6,0.5,0.6,0.9C44.7,57.6,44.7,58.7,44.7,59.9z"/>
	<path class="st6" d="M31.2,52.1c0,0.4-1.8,2.3-2.2,2.3c-0.3,0-0.4-0.1-0.6-0.4c-0.1-0.2-0.1-0.5,0.1-0.7c0.6-0.6,1.1-1.2,1.8-1.8
		C30.7,51.3,31.2,51.6,31.2,52.1z"/>
	<path class="st6" d="M45.1,53.2C45,53.6,44.8,54,44.2,54c-0.5,0-0.8-0.3-0.8-0.8s0.3-0.8,0.8-0.9C44.7,52.3,45,52.7,45.1,53.2z"/>
	<path class="st9" d="M143.8,93.8c-0.3-3.3-3.2-6.2-6.7-6.7c-3.6-0.5-7.1,1.7-8.4,5c-0.4,1-0.5,2-0.5,3.1c0,3.8,0,7.5,0,11.3
		c0,0.3,0,0.6,0,0.8c-0.1,1.2-0.8,2.1-1.9,2c-1,0-1.7-0.8-1.7-2.1c0-3,0-6.1,0-9.1c0-1.4,0.2-2.8-0.2-4.2l0,0c-0.2-3.2-2.7-6-6-6.8
		c-3.4-0.8-6.9,0.8-8.6,3.8c-0.7,1.3-1,2.7-1,4.1c0,3.8,0,7.7,0,11.5c0,0.4,0,0.7,0,1.1c-0.2,1-1,1.7-1.9,1.6
		c-1-0.1-1.6-0.7-1.6-1.7c0-4.8-0.2-9.5,0.1-14.3c0.3-4.3,3.8-8.3,8.2-9.4c4.8-1.3,8.9,0.1,12.1,3.9c0.6,0.7,0.8,0.8,1.5,0
		c4.2-5.5,13.5-6.5,18.8,0.9c2.4-3.3,5.5-5.3,9.7-5.2c4.1,0,7.4,1.8,9.8,5.2c0.6-0.6,1-1.2,1.6-1.7c3.2-3.1,7-4.2,11.3-3
		c4.4,1.2,7.1,4.3,8.2,8.7c0.2,0.9,0.2,1.7,0.2,2.6c0,3.9,0,7.8,0,11.6c0,1.6-0.6,2.5-1.8,2.5s-1.8-0.9-1.8-2.6c0-4,0-8,0-12
		c-0.1-3.9-2.9-7.1-6.8-7.7c-3.8-0.6-7.5,1.8-8.7,5.5c-0.1,0.4-0.2,0.8-0.2,1.2c0.1,0.1,0.1,0.1,0.1,0.1l-0.1,0.1
		c-0.3,0.5-0.2,1-0.2,1.5c0,3.8,0,7.7,0,11.5c0,1.5-0.7,2.4-1.8,2.3c-1.1,0-1.8-0.9-1.8-2.4c0-3.9,0-7.8,0-11.8
		c0-4.6-3.5-8.2-7.9-8.1c-4.5,0-7.9,3.6-7.9,8.2c0,3.9,0,7.8,0,11.8c0,1.5-0.7,2.3-1.8,2.3s-1.8-0.9-1.8-2.3c0-3.9,0-7.8,0-11.6
		C143.9,94.9,144.1,94.3,143.8,93.8L143.8,93.8z"/>
	<path class="st9" d="M214.3,95c-0.3-3.3-3.1-6.5-6.5-7.5c-3.7-1.1-7.7,0.2-10,3.2c-2.7,3.4-2.7,8-0.1,11.5c2.6,3.5,7,4.6,11.2,3
		c0.3-0.1,0.5-0.2,0.8-0.3c1.1-0.4,2-0.1,2.5,0.8c0.4,0.9,0.1,2-1,2.5c-4.2,1.9-8.4,2.1-12.4-0.3c-3.8-2.2-6-5.6-6.5-10
		c0-0.2-0.1-0.5-0.2-0.7c-0.2-0.4-0.2-0.7,0-1.1c0.3-1.7,0.7-3.3,1.4-4.9c2.3-5.8,9-8.1,13.4-7.6c5.4,0.6,10.1,5,11.2,10.4
		c0.3,1.5,0.2,2.9,0.2,4.4c0,2.9,0,5.8,0,8.8c0,1.6-0.6,2.4-1.9,2.4c-1.2,0-1.8-0.8-1.8-2.3c0-3.4,0-6.9,0-10.3
		c0-0.6,0.1-1.1-0.2-1.6C214.2,95.2,214.2,95.1,214.3,95C214.2,95,214.3,95,214.3,95z"/>
	<path class="st10" d="M95,96.6c0-3.4,0-6.9,0-10.3c0-1.6,0.6-2.4,1.8-2.4c1.2,0,1.8,0.8,1.8,2.3c0,6.9,0,13.9,0,20.8
		c0,1.7-1.2,2.7-2.6,2c-0.8-0.4-1.1-1.1-1-2C95,103.7,95,100.1,95,96.6z"/>
	<path class="st10" d="M109.8,124.1c-1.7,1.5-3.5,1.9-5.4,0.9c-1.6-0.8-2.6-2.7-2.4-4.5c0.2-2,1.4-3.5,3.3-4.1
		c2.9-0.9,5.9,1.2,6,4.2c0,1.2,0,2.3,0,3.5c0,0.6,0.3,1.3-0.6,1.4S110,124.7,109.8,124.1z"/>
	<path class="st10" d="M148.7,121.2c-1,0-1.9,0-2.9,0c-0.7,0-0.7,0.2-0.5,0.8c0.5,1.8,2.7,2.7,4.6,1.9c0.2-0.1,0.4-0.2,0.5-0.3
		c0.4-0.3,0.9-0.6,1.2,0c0.4,0.7-0.2,0.9-0.7,1.1c-1.7,1-3.9,0.9-5.4-0.2s-2.2-3.2-1.6-5.3c0.5-1.8,2.1-3.1,3.9-3.2
		c2-0.1,3.6,0.8,4.3,2.6c0.1,0.4,0.2,0.8,0.3,1.2c0.2,0.9-0.1,1.4-1.1,1.3C150.5,121.1,149.6,121.2,148.7,121.2z"/>
	<path class="st10" d="M212.2,120.8c0,2.8-1.9,4.7-4.6,4.7c-2.7,0-4.7-2-4.7-4.7s2-4.7,4.7-4.7C210.2,116.1,212.2,118.1,212.2,120.8
		z"/>
	<path class="st11" d="M168.2,125.5c-1.2,0-2.4-0.3-3.3-1.1c-0.4-0.3-0.7-0.6-0.3-1.1c0.4-0.4,0.8-0.4,1.1,0c1,0.9,2.2,1,3.4,0.8
		c0.7-0.1,1.2-0.4,1.3-1.2c0.1-0.7-0.5-1.1-1.1-1.3c-0.9-0.3-1.8-0.4-2.7-0.7c-1.1-0.4-1.9-1-1.9-2.3s0.8-1.9,2-2.3
		c1.6-0.5,3.1-0.3,4.4,0.9c0.3,0.3,0.7,0.7,0.3,1.1s-0.8,0.3-1.2-0.1c-0.8-0.8-1.8-0.8-2.8-0.7c-0.6,0.1-1.2,0.3-1.3,1.1
		c-0.1,0.7,0.4,1,1,1.2c0.5,0.2,1.1,0.3,1.6,0.4c2.2,0.5,3.2,1.4,3,2.9C171.7,124.5,170.2,125.5,168.2,125.5z"/>
	<path class="st11" d="M187.6,125.5c-1.5,0-2.7-0.3-3.6-1.1c-0.4-0.3-0.6-0.7-0.2-1.1c0.4-0.4,0.8-0.3,1.1,0c1,0.9,2.2,0.9,3.4,0.8
		c0.7-0.1,1.2-0.5,1.3-1.2c0-0.7-0.5-1.1-1.1-1.2c-0.8-0.2-1.7-0.4-2.5-0.7c-1.4-0.4-2-1.2-2-2.4c0-1.1,0.7-2,2.1-2.3
		c1.6-0.4,3.1-0.2,4.3,1c0.3,0.3,0.6,0.6,0.2,1c-0.3,0.3-0.8,0.3-1.1,0c-0.9-0.9-1.9-0.9-3-0.8c-0.6,0.1-1.1,0.4-1.1,1
		s0.3,1,0.9,1.1c0.6,0.2,1.1,0.4,1.7,0.5c0.6,0.1,1.1,0.3,1.6,0.5c0.9,0.4,1.4,1,1.4,2s-0.5,1.7-1.3,2.2
		C189,125.4,188.2,125.6,187.6,125.5z"/>
	<path class="st11" d="M128.3,125.5c-2,0-3.8-1.2-4.4-3.1c-0.7-2,0-4.2,1.6-5.4c1.5-1.1,3.6-1.2,5.2-0.1c0.2,0.2,0.4,0.3,0.6,0.5
		c0.3,0.3,0.6,0.7,0.2,1.1c-0.4,0.4-0.7,0.2-1-0.1c-0.5-0.5-1.1-0.8-1.8-0.9c-1.5-0.2-2.6,0.4-3.2,1.6c-0.7,1.4-0.5,3.1,0.6,4.1
		c0.9,0.9,2.5,1.2,3.8,0.6c0.2-0.1,0.4-0.2,0.5-0.3c0.4-0.2,0.8-0.4,1.1,0c0.4,0.5,0,0.8-0.4,1.1
		C130.2,125.2,129.3,125.5,128.3,125.5z"/>
	<path class="st11" d="M96.8,82.9c-1,0-1.9-0.8-1.9-1.9c0-1,0.8-1.8,1.8-1.8s1.9,0.8,1.9,1.9C98.6,82.1,97.8,82.9,96.8,82.9z"/>
	<path class="st6" d="M94.7,85.7c0,7.3,0,14.6,0,21.9h-0.1C94.6,100.3,94.6,93,94.7,85.7L94.7,85.7z"/>
	<path class="st6" d="M186.7,107.9c0-4.9,0-9.7,0-14.6h0.1c0,4.9,0,9.7,0,14.6C186.8,107.9,186.8,107.9,186.7,107.9z"/>
	<path class="st6" d="M124.3,94c0,4.6,0,9.2,0,13.9c-0.4-0.2-0.2-0.5-0.2-0.7c0-4,0-8.1,0-12.1C124.1,94.8,123.9,94.3,124.3,94
		L124.3,94z"/>
	<path class="st6" d="M167.2,94c0-0.1,0-0.1,0-0.2c0.3,0.2,0.2,0.6,0.2,0.9c0,4.2,0,8.4,0,12.6c0,0.2,0,0.3-0.3,0.4
		C167.2,103.1,167.2,98.6,167.2,94z"/>
	<path class="st6" d="M143.8,93.8c0,4.6,0,9.3,0,13.9c-0.4-0.2-0.3-0.5-0.3-0.7c0-4,0-8.1,0-12.1C143.5,94.5,143.4,94.1,143.8,93.8
		L143.8,93.8z"/>
	<path class="st6" d="M214.3,95c0,0.1,0.1,0.1,0,0.2c0,4.3,0,8.5,0,12.8c-0.1,0-0.2,0-0.3,0c0-2.5,0-5,0-7.5c0-1.4,0-2.9,0-4.3
		C214,95.7,213.9,95.3,214.3,95z"/>
	<path class="st6" d="M192,96c0,0.4,0,0.7,0,1.1c0,0.3-0.1,0.5-0.1,0.8h-0.1c0-0.8,0-1.6,0-2.3h0.1C191.9,95.7,192,95.9,192,96z"/>
	<path class="st9" d="M63.9,59.9c0,1.8-1.3,3.1-3.1,3.1s-3.2-1.5-3.1-3.3c0.1-1.7,1.5-3.1,3.2-3.1C62.6,56.6,63.9,58,63.9,59.9z"/>
	<path class="st6" d="M109.9,120.8c0,2-1.3,3.3-3.3,3.3c-1.8,0-3.2-1.4-3.2-3.3s1.4-3.4,3.3-3.4C108.7,117.5,110,118.9,109.9,120.8z
		"/>
	<path class="st6" d="M145.3,120c0.3-1.5,1.1-2.3,2.4-2.5c1.6-0.2,2.7,0.4,3.2,1.7c0.2,0.5,0.3,0.8-0.5,0.8
		C148.8,119.9,147.1,120,145.3,120z"/>
	<path class="st6" d="M210.7,120.9c0,2-1.3,3.3-3.3,3.3c-1.9,0-3.2-1.4-3.2-3.3c0-2,1.4-3.3,3.3-3.3
		C209.5,117.5,210.7,118.8,210.7,120.9z"/>
</g>
<g>
	<path class="st12" d="M192.4,70.3c1.6,3.1,3.1,6.2,4.8,9.2c1.3,2.5,0.8,4.3-1.6,5.6c-0.4,0.2-0.9,0.5-1.3,0.7
		c-3.5,1.5-5.1,3.9-4.4,7.9c0.3,1.8,0.6,4.1-2.2,4.6c-0.8-2.1,0.9-4.1,0.4-6.3c-0.3-1.1,0.3-2.5-0.8-3.5c-0.9,0.8-0.8,2.1-1.5,3
		c-0.5,0.7-0.9,1.7-1.7,1.7c-5.5,0-6.7,5.5-10.3,8c-5.1,3.6-8,9.6-13.7,12.6c-0.3,0.1-0.6,0.4-0.7,0.6c-0.7,4.7-5.9,6.2-7.5,10.4
		c-0.6,1.6-1.8,3.3-4,1.6c1.6-1.3,1.9-2.8,1.5-4.8c-2.2-11.1,0.9-20.6,8.5-28.8c1.7-1.9,3.3-3.9,5-5.8c2.2-1.6,3.2-4,4.3-6.3
		c1.5-3,3.1-6,5.1-8.8c0.7-1.1,1-2.2,1-3.5c-0.1-3.1,0.5-5.9,3.1-8c1.2-1,1.5-2.6,1.8-4.2c0.3-1.2,0.4-2.8,2-2.6
		c1.5,0.2,1.5,1.8,1.6,3c0,0.3,0,0.6-0.1,0.9c1-2.1,3.5-2.2,5.1-3.5c0.6-0.5,1.3,0.4,1.2,1.3c-0.6,4.5,2.6,8.2,2.8,12.5
		C190.7,69,192.1,69.3,192.4,70.3z"/>
	<path class="st13" d="M147.9,126.5c2.4,0.7,3-1.3,3.7-2.8c0.8-1.9,1.4-3.8,3.9-4.1c1.2-0.2,1.7-1.3,1.8-2.6c0.1-1.7,0.8-3,2.2-3.8
		c3.6-2,6.7-4.5,8.8-8.3c1.1-2,3.6-2.5,5.1-4.3c1.7-2.1,3.9-3.8,5.4-6.2c0.6-1,1.8-1.9,2.8-1.7c3.3,0.7,3.8-1.4,4.3-3.7
		c0.2-0.8,0.5-1.6,1.1-2.1c2.4,2.2,2.7,6.7,0.7,11.4c-1.1,1-0.8,2-0.1,3c1.4,1.9,1,3.5-0.8,4.7c-3.5,2.3-3.3,5.4-2.6,8.9
		c0.3,1.2,0.4,2.4,0.4,3.7c0.1,3-1.6,4.9-4.5,5.6c-3.4,0.8-6.8,0.4-10.1,0.4c-2.6,0-5.1,0-7.6,0.7c-3,0.8-4.9,2.5-5.7,5.7
		c-1.6,6.6-2.2,13.3-1.8,20.1c0.1,1.4,0.3,2.9-1.9,2.6c0.6-3.3-1-6.4-0.9-9.7c0.1-1.8-0.9-3.3-2-4.6c-1.1,0.9,0.8,2.9-1.4,3.2
		c-3.6-1.2-7.1-2.3-10.7-3.5c-0.1-0.7-1.5-0.3-1.2-1.4c0.4-1.3,1.8-0.6,2.5-1.2c2.4-0.7,4.9-1,7.2-2c2.3-1,2.1-1.8,0.1-2.8
		c-1.4-1.4-3.4-0.3-4.9-1.3l0,0c-0.7-2,0.8-2.4,2.1-2.9C145.2,127,146.8,127.7,147.9,126.5L147.9,126.5z"/>
	<path class="st14" d="M96,5.3c-10.6,9.1-17.7,20.4-20.9,34.1c-1.2,3.7-1.5,7.6-0.9,11.4c1.2,7.3-2,13.1-5.8,18.8
		c-0.3,0.2-0.6,0.2-0.9,0.1c-0.8-1-0.8-2.4-1.7-3.4c-0.6-1.9-1.4-3.7-1.4-5.8c-1.6-5-1.3-10.2-0.7-15.2c0.4-3.7,1.9-7.4,2.5-11.2
		C70.8,21.5,79.2,12,90.8,5.3c0.8-0.5,1.6-0.8,2.4-1.2C94.3,4.1,96.1,2.6,96,5.3z"/>
	<path class="st15" d="M171.9,199.4c-3.4,2.2-7.3,1.8-11.1,1.8c-2.7,0-5.4,0-8,0c-0.6,0-1.3,0.2-1.6-0.6c-0.3-0.7-0.1-1.3,0.6-1.8
		c0.9-0.8,1.5-9.6,0.9-10.7c-0.4-0.7-1.2-0.8-1.9-0.7c-1.1,0-1.4,0.7-1.4,1.7c0,2.3,0,4.5-0.1,6.8c-0.2,3.8-2.1,5.5-5.9,5.5
		c-4.3,0-6.4-1.8-6.6-5.6c-0.1-2.3,0-4.5,0-6.8c0-0.6-0.1-1.3-0.9-1.3c-0.7,0-0.8,0.5-0.9,1c0,1-0.2,1.9-1.5,1.9
		c-1.2,0-1.4-0.8-1.7-1.8c-0.5-2-2.2-1.4-3.2-0.9c-2.4,1.1-2.9,3.4-2.8,5.7c0.2,2.2,0.9,4.3,3.4,5c1.1,0.3,2.2,0.4,2.6-0.9
		c0.3-1.2,0.6-2.2,2.1-2c1,0.1,1.1,0.9,1,1.6c-0.1,1.2,0.5,2.6-1.2,3.5c-3.3,1.6-8.5,0.4-10.6-2.6c-2-2.8-2.5-5.8-0.8-9
		c1.6-3,4.3-4.6,7.6-4.3c3.6,0.4,7.2,0.2,10.8,0.3c1.9,0.1,2.4,0.6,1,2.3c-0.9,1-1,8.8-0.3,9.9c0.8,1.1,1.9,1,3.1,0.9
		c1.2-0.1,2.2-0.8,2-1.9c-0.4-3.2,1.7-6.6-1.3-9.5c-0.9-0.9,0-1.7,1.2-1.7c7.2,0,14.4-0.1,21.6,0.2c3.1,0.1,5.1,2.4,6,5.4
		c0.4,1.5,0.3,3,0.4,4.5C174.6,197.2,173.9,198.8,171.9,199.4z"/>
	<path class="st16" d="M104.6,119.2c-0.7,2.2-0.2,4.6-1.6,6.7c-0.8,1.3,0.5,1.8,1.8,2c5.5,1,11,2.1,16.5,3.5
		c-5.6,0.3-11.2,0.6-16.8,0.9c-0.1,0.3-0.1,0.5-0.2,0.8c5.1,2.4,10.2,4.7,15.3,7.1c0,0.2-0.1,0.4-0.1,0.6c-5.5,0.5-11,1-16.5,1.5
		c0,0.3-0.1,0.6-0.1,0.8c5.1,2.3,10.1,4.5,15.2,6.8c-3.3,4-7.2,5.7-12.2,5c-2.4-0.3-5-0.2-7.4,0.1c-2.9,0.3-3.3-1-2.9-3.4
		c1.1-5.8,1.2-11.6,1.2-17.5c0-6.5-1.4-12.8-2.6-19.2c-0.6-1.2-0.1-1.6,1-1.3c1.2,0.3,1.6,1.3,1.6,2.4c0.1,4.4,2.2,8.2,3,13.2
		c0-0.3,0.5-0.9,0.1-0.7c-0.1,0.1-0.2,0-0.2-0.3c0.4-2.1,0.8-4.2,1.6-6.2C101.9,120.6,102.6,119,104.6,119.2z"/>
	<path class="st17" d="M192.4,70.3c-3.7-1.1-1.7-5.1-3.6-7.2c-0.1-0.1,0.1-0.5,0-0.6c-2.8-1.8-1.3-4.4-1.2-6.7
		c0-0.5,0.1-1.1-0.6-1.3c-0.8-0.2-0.9,0.8-1.3,1c-0.7,0.3,0.2,3.9-2.2,1.1c-0.6-0.7-0.9,1.4-1.3,2.1c-0.4,0.6-0.5,1.6-1.4,1.3
		c-0.9-0.4-0.4-1.2-0.1-1.8c0.7-1.5,0.2-2.8-0.3-4.1c-1.2,0.1-1.3,1-1.3,1.8c-0.3,2.6-1.1,4.9-3.4,6.6c-0.9,0.6-1.9,1.7-1.6,3.1
		c1,3.8-0.6,7.1-2.8,9.8c-2.6,3-3.6,6.8-5.7,10c-0.7,1.1-1.3,1.7-2.6,1.7c3.2-5.4,6.5-10.9,8.6-16.9c2.7-7.7,3.7-15.7,3.7-23.8
		c-0.4-3.4-0.4-6.7-0.8-10.1c-0.2-2.3,4.8-8,7.1-8.6c1.3-0.4,1.5,0.8,2.2,1.3c2.1,3.9,3.8,8.1,3.7,12.5
		C187.1,51.4,188.8,61,192.4,70.3z"/>
	<path class="st18" d="M53.9,198.3c-0.1-0.4-0.1-0.8-0.2-1.2c1.5-1.3,2.2,0.9,3.6,0.8c0.1-1-0.1-2.1,0.5-3.1c0.8-1.6-0.9-1-1.3-1.5
		c0-1.9,0-3.7,0-5.6c0.2-0.6,1.3,0.1,1.2-0.6c-0.1-0.4-0.8,0.1-1.3,0.2c-0.6-0.1-1.3-0.3-1.1-1.1c0.2-1.2,1.2-1,2-1
		c3.4-0.1,6.8-0.1,10.2-0.1c3.9,0,7.8,0,11.7,0.1c1.7,0,2.6,0,1.3,2.4c-1.5,2.8-0.6,6.2-0.3,9.4c0.1,1.3,1.6,1.4,2.8,1.4
		c1.4,0,2.4-0.7,2.4-1.9c-0.2-3.2,1.7-6.6-1.3-9.5c-0.9-0.9-0.1-1.7,1.1-1.7c4.6-0.1,9.3-0.4,13.9,0.3c3.3,0.5,4.6,3.3,3.2,6.2
		c-1.3,2.7-0.5,5.5,2,7.1c0.5,0.3,1.2,0.4,1.1,1.2c-0.1,0.9-0.8,1.1-1.6,1.2c-2.3,0.3-4-0.5-5.1-2.6c-0.3-0.5-0.3-1.2-0.6-1.7
		c-0.4-0.8-0.8-2-1.9-1.5c-1,0.5-0.8,1.8-0.5,2.8c0.2,0.9,2.6,1.6,0.6,2.5c-1.9,0.8-4.2,0.9-6.2-0.2c-0.2-0.1-0.2-0.9,0-1.1
		c2.4-3.1,0.9-6.7,1.2-10.1c0.1-1,0-2.2-1.6-2.1c-1.4,0.1-1.2,1.2-1.2,2.1c0,1.9,0,3.7,0,5.6c-0.1,4.4-2.4,6.5-6.9,6.4
		c-4.2-0.1-6-2.2-6-6.5c0-2,0-3.9-0.1-5.9c0-0.7-0.2-1.3-0.9-1.5c-0.8-0.2-1.2,0.4-1.3,1c-0.2,1.3-1.8,1.3-2.2,2.4
		c-0.6,0.6-1.3,0.7-2.1,0.4c-0.4-2.6-0.4-2.6-3.2-2.9c-0.6-0.5-1.5-1.4-1.4,0.4c0.1,2.6,0.3,5.1,0,7.7c-0.1,1.2-0.3,3-2.4,1.6
		c-1.2-2.8,0-5.9-0.9-9.1c-1.1,1.2-0.8,2.4-0.8,3.5c-0.1,1.5,0,3.1,0,4.6c0,1.9-0.2,3.8-2.6,4.3C55.6,201.8,54.7,200.1,53.9,198.3z"
		/>
	<path class="st19" d="M104.6,119.2c-1.8,1.3-2.8,3-3.1,5.3c-0.3,1.7-0.3,3.7-2.6,4.9c-0.4-4.6-3-8.6-2.9-13.2
		c0.1-2.1-0.3-2.2-1.8-1.3C91.3,106.2,87,98.4,80.3,92c1.3-1.2,2.3-0.3,3.2,0.5c1.6,1.4,3.2,2.9,4.5,5.3c0-2.7,0-4.9,2.8-5.4
		c1-0.2,0.6-0.8,0.3-1.4c-0.6-1-1-2.1,0.2-3c7.3,7.6,12.8,16,13.5,26.9C104.8,116.3,104.6,117.7,104.6,119.2z"/>
	<path class="st20" d="M176.3,194c0.9-2.5,1.9-4.9,2.8-7.4c0.4-1.1,1.2-1.6,2.3-1.6c1.2,0,1.6,0.7,1.9,1.6c1.2,3.1,2.3,6.2,3.5,9.2
		c0.5,1.1,0.4,3.2,2.1,2.9c2-0.3,1.1-2.4,1-3.6c-0.3-2.8,1.3-5.9-1.2-8.5c-0.7-0.7,0.4-1.4,1.3-1.4c2.5,0,5-0.2,7.4,0.1
		c3.3,0.4,4.8,3.5,3.3,6.4c-1.3,2.5-0.4,5.7,2.2,7.1c0.7,0.4,1.3,0.6,1.1,1.5c-0.2,0.9-1,0.9-1.7,1c-2.4,0.1-4.2-0.7-5.1-3
		c-0.1-0.3-0.2-0.6-0.3-0.9c-0.4-0.9-0.5-2-1.7-2.4c-0.5-0.1-0.9,0.1-0.9,0.6c0,1.1-0.5,2.3,0.5,3.2c1.8,1.7,1,2.4-1.1,2.4
		c-3.1,0-6.2,0-9.3,0c-1.8,0-3.1-0.2-1.6-2.4c0.8-1.1,0.2-2.2-0.6-2.7c-1.1-0.6-2.5-0.6-3.5,0.1c-0.8,0.6-1.1,1.6-0.4,2.5
		c1.7,2.4,0.2,2.5-1.6,2.5c-0.9,0-1.9,0-2.8,0.1c-1.2-0.8-1.2-1.8-0.5-2.8C174.5,197,175.1,195.3,176.3,194z"/>
	<path class="st21" d="M183.7,28.9c-0.9-0.4-1.6-1-2.8,0c-3.6,2.9-6.6,5.8-5.7,11c0.4,2.1,0,4.3,0,6.4c-0.8-5.5-1.8-11-3.5-16.3
		c0.3-0.4,0.7-0.9,0.5-1.3c-0.1-0.3-0.4,0.2-0.7,0.2c-4.3-9.3-9.5-18-16.9-25.2C167.8,7.9,177.6,16.3,183.7,28.9z"/>
	<path class="st22" d="M67.6,69.7c3.5-5.9,7-11.8,6.2-19.2c-0.3-3.2-0.1-6.4,0-9.6c0-0.8-0.4-2.1,1.3-1.5c-1.8,12,0.8,23.1,6.2,33.8
		c0.2,1.1,0.7,2.1,0.8,3.3c0,1.3,0.1,2.9-1.3,3.5c-1.8,0.8-2.2,1.9-1.6,3.7c0.3,0.9,0.2,1.9-0.8,2.4c-0.9,0.4-1.8,0.2-2.6-0.5
		c-2.8-2.6-5-5.6-6.3-9.2c-0.5-1.4-1.2-2.6-1.8-3.9C67,71.5,66.6,70.6,67.6,69.7z"/>
	<path class="st23" d="M67.6,69.7c1.7,5.9,4.1,11.5,8.9,15.6c0.5,0.5,1.1,0.6,1.7,0.2c0.7-0.4,0.5-1.1,0.2-1.6
		c-1.1-2.2-1.8-4.2,1.8-4.4c0.9-0.1,0.9-0.9,1-1.7c0-1.5,0.1-3.1,0.1-4.6c3.3,4.9,6.6,9.9,9.9,14.8c-0.7,2.1,1.1,3.1,2,4.4
		c-0.2,0.9-0.9,0.8-1.5,0.8c-2.7-0.1-3.4,1.3-2.8,3.7c0.2,0.9,0.8,2-0.5,2.3c-1.1,0.3-1.4-1-1.9-1.7c-1.5-2.5-3.1-4.9-6.3-5.4
		c-9.1-8.4-14.6-18.7-16.4-31c0.4-0.4,0.8-0.4,1.2,0c0.4,1.9,0.8,3.7,1.3,5.6C67.3,67.4,66.5,68.9,67.6,69.7L67.6,69.7z"/>
	<path class="st24" d="M148.7,142.6c0.8-0.9,0.6-1.6-0.1-2.4c-0.9-0.9,0-1.5,0.6-2c0.9-0.7,1.7,0,2,0.7c0.7,2.1,2.3,3.8,1.8,6.3
		c-0.2,1.3-0.2,2.8,0.8,4.1c1.2,1.6-0.2,3-0.9,4.5c-10.2,1.9-18.7-2.2-26.9-7.6c1.2-1.1,2.5-0.9,3.8-0.9c5.2-0.1,10.4-1.4,15.6-1.3
		C146.5,143.8,147.8,143.7,148.7,142.6z"/>
	<path class="st25" d="M133.2,31.5c-0.8,1-2,1.3-3.2,1.7c-1.5,0.5-1.6,1.3-0.7,2.5c0.7,0.8,0.7,1.6,0,2.4c-0.3,4.5,1,9,0,13.5
		c-0.9,4.1-2.6,7.6-6.2,9.9c-5.1,3.3-12.6,0.1-13.5-5.9c-0.3-1.9-0.7-2.6-2.7-2.7c-2.4,0-4-1.3-4.9-3.6c-0.4-1-0.6-2,0.9-2.3
		c0.9,0.1,1.4,0.8,2,1.3c2.2,1.7,4.2,1.6,6.4-0.1c0.5-0.4,0.9-0.8,1.4-1.2c1-0.7,2-1.2,3.1-0.2c1.1,1.1,0.7,2.3,0,3.4
		c-0.2,0.3-0.5,0.6-0.8,0.9c-1.9,1.6-2.7,3.4-1.3,5.7c1.4,2.2,4.3,3.2,6.8,2.3c2.4-0.9,3.9-2.7,4.7-5c1.2-3.2,1.8-6.5,1.2-10
		c-0.4-2.1-0.5-4.3-0.4-6.4c1.9-2.2,1.3-5.1,2-7.6c1.3-0.5,2.7-0.6,4.1-0.4C132.9,30,133.6,30.5,133.2,31.5z"/>
	<path class="st26" d="M120.9,193.5c-0.1,4.7-3.7,8.1-8.3,8c-4.6-0.1-8.1-4-7.9-8.8c0.2-4.4,4-8,8.2-7.9
		C117.5,184.9,121,188.7,120.9,193.5z"/>
	<path class="st27" d="M128.2,30.1c1,2.4,0,6.7-1.8,7.4c-1.5,0.8-3,0.2-4.5,0c-3.8-0.7-7.3,0.1-10.9,1.1c-3.5,1-5.6,3.7-7.4,6.5
		c-1.3,0.5-1.9-0.2-2.1-1.4c-0.1-0.4,0-1-0.5-1.2c-1.9,0.4-2-0.5-1-1.6c0.8-0.9,1.6-1.7,2.2-2.8c5.3-4.9,11.9-5.8,18.6-6.8
		c1.8-0.2,4,1,5.2-1.4c0.1-1,0.3-2.2,1.4-2.5c0.9-0.2,1.2,0.6,1.3,1.3C128.7,29.3,128.6,29.7,128.2,30.1z"/>
	<path class="st28" d="M102.2,38.1c0.2,1.3-0.5,2.3-1.5,3c-1.1,0.7-0.8,1.2,0.3,1.5c-1.1,2.1-2.5,4-2.6,6.5c-0.1,3.6,1,6.4,4.4,8.1
		c1.5,0.8,2.9,1.6,4.1,2.6c1.5,1.1,1.8,2.8,1.3,4.5c-0.4,1.6-1.7,2.2-3.3,2.4c-0.5,0.1-1,0.2-1.5,0.3c-6.4,1.1-7.9,2.7-8.7,9.2
		c-0.1,0.4,0,0.8-0.1,1.2c-0.1,0.7-0.3,1.5-1.2,1.5c-0.9,0-1.1-0.8-1.2-1.5c-0.9-5.8,3.4-11.7,9.3-12.6c0.7-0.1,1.4-0.1,2.1-0.2
		c0.9-0.2,1.9-0.2,2.1-1.4c0.2-1-0.3-1.8-1.2-2.3c-0.6-0.4-1.2-0.8-1.9-1.1c-6.4-2.6-7.9-8.7-6-14.3c0.2-0.6,0.3-1.2,0.5-1.8
		C98.8,41.7,99.8,39.4,102.2,38.1z"/>
	<path class="st29" d="M56.4,193.3c1,0.1,1.2-0.9,1.7-1.6c1,1.4,0.9,2.6,0.3,3.9c-0.2,0.4-0.5,0.7-0.5,1c0,0.9,1.9,1.9,0.1,2.7
		c-1.4,0.6-2-1.1-2.9-1.7c-0.4-0.3-0.9-0.3-1.4-0.5c-1.6-1.2-1.8-3.6-4-4.8c-0.6,2.4-1.4,4.6,0.6,6.8c1.2,1.3,0.5,2-1,2.1
		c-0.9,0.1-1.8-0.1-2.8-0.1c-1.7-0.1-1.7-0.7-1-2.1c1.8-3.8,1.7-7.8,0.3-11.6c-0.7-1.8-0.2-1.9,1.1-2.1c2.3-0.3,4.1-0.1,5.3,2.4
		C53.2,189.8,54.1,192.2,56.4,193.3z"/>
	<path class="st29" d="M69,190.9c0.7,0,1.5,0,2.2,0c0.6,1.8-1.1,4.5,2.2,5.5c1.3,0.4,0.3,4.7-1.1,4.7c-3.8,0.2-7.7,0.3-11.5-0.4
		c-1-2,0.4-2.2,1.8-2.4c1.5-0.3,1.2-1.5,1.2-2.4c0-2.2-0.3-4.5-0.1-6.7c0.1-1-0.9-2.8,0.7-3.1c1.6-0.3,1.7,1.4,2,2.5
		C67.2,189.4,67.5,190.8,69,190.9z"/>
	<path class="st30" d="M62.7,198.3c-0.8,0.6-1.8,1.1-1.8,2.4c-0.8,0.4-1.6,0.8-2.4,1.1c-2.5,0.9-4.1-0.5-4.5-3.5
		c0.5,0.5,0.9,1.1,1.4,1.6c0.8,1.1,1.9,1.2,3,0.9c1.1-0.3,1.1-1.4,1.1-2.3c0-3,0-5.9,0-8.9c0-1.2,0.1-2.3,1.7-2.3
		c1.8,0,1.5,1.3,1.5,2.4C62.7,192.6,62.7,195.4,62.7,198.3z"/>
	<path class="st22" d="M65.1,61c-0.4,0-0.8,0-1.2,0c-1.6-9.1-1.3-18.1,2.4-26.8c0.3,3.7-0.7,7-1.8,10.6c-1.4,4.1-1.1,8.9,0.1,13.3
		C64.7,59.1,65.1,60,65.1,61z"/>
	<path class="st31" d="M147.9,126.5c-0.1,1.8-1.5,1.3-2.5,1.3c-1.9,0-3.1,0.8-3.6,2.5c-3-0.2-5.6-1.4-8.3-2.5
		C138.2,127,143.1,127.3,147.9,126.5z"/>
	<path class="st32" d="M96,5.3c-0.3-1.7-1.8-1-2.8-1.2c3.3-2.1,6.8-3.4,10.9-3.8C101.4,2,98.7,3.6,96,5.3z"/>
	<path class="st33" d="M176.3,194c-0.7,1.8-0.7,3.9-2.6,5.2c-0.9,0.6-0.2,1.4,0.2,2.2c-1.4,0.2-1.1-1.6-2-1.9
		c2.2-2.5,2.3-5.5,2.2-8.5c0.7,0.6,0.5,1.5,0.5,2.3C174.6,194.7,175.4,194.5,176.3,194z"/>
	<path class="st34" d="M139.3,136.5c-0.4,0.9-3.4,0.5-1.3,2.6c-2.4-0.1-4.6-1.2-6.8-1.8c0-0.3,0.1-0.5,0.1-0.8
		C133.9,136.5,136.6,136.5,139.3,136.5z"/>
	<path class="st28" d="M101.5,43.7c0.7,0.3,0.9,1.3,1.8,1.2c0.8,0.8,0.8,1.6,0.1,2.5c-1.3,0.1-1.2,1.1-1.3,2
		C100.8,47.6,100.6,45.7,101.5,43.7z"/>
	<path class="st29" d="M56.3,187.4c0.2-1.1,0.9-1.8,1.9-1.2c1.2,0.8,0.7,2,0.4,3.1c-1.2-0.1-1-1.7-2.1-1.5
		C56.3,187.7,56.3,187.5,56.3,187.4z"/>
	<path class="st35" d="M129.4,38.1c0-0.8,0-1.6,0-2.4c1.1,0.1,2.3,0.3,3.2,1.1c-0.7,0.4-0.7,1.2-0.6,1.9
		C131.1,38.5,130.2,38.3,129.4,38.1z"/>
	<path class="st17" d="M171.4,29c0.2-0.7-0.3-1.7,0.5-2.2c0.6-0.3,0.9,0.4,1,0.8c0.4,1.3-0.1,2.1-1.4,2.5
		C171.5,29.7,171.4,29.4,171.4,29z"/>
	<path class="st31" d="M141.7,130.3c1.6,0.5,3.9-1.4,4.9,1.3C144.9,131.6,143.2,131.6,141.7,130.3z"/>
	<path class="st36" d="M128.2,28.9c-1.9-2.2-1.4,0.9-2.2,1c-0.4-1.2,0.1-2.2,0.4-3.3c0.7-3,3-4.9,5.6-4.7c2.6,0.2,4.7,1.5,5.2,4
		c0.7,3-1.4,4.6-4,5.7c-0.3-0.7-0.7-1.2-1.4-1.5c-0.2-0.9,0.5-1.3,0.9-1.8c0.7-0.8,1.4-1.7,0.3-2.6c-1.2-0.9-2.2-0.4-3.1,0.7
		C129.3,27.3,129.8,28.8,128.2,28.9z"/>
	<path class="st37" d="M163.6,25.2c-1.4-0.6-2.5-1.4-3.1-2.9c-4.5-11-21.9-19.5-34.8-16.8c-1.5,0.3-2.8,0.3-4.2-0.3
		c-4.4-1.8-8.3-0.9-11.7,2.2c-0.8,0.7-1.6,1.1-2.7,0.9c-6.8-1.1-11.6,1.8-13.5,8.5c-0.5,1.8-1.4,2.9-3.3,3.5
		c-6.1,2-9.1,7.4-8.1,13.8c0.2,1.3,0.5,2.6,0,4c-2.7,7.2,2.2,15.9,8.8,19.8c0.9,0.5,2.2,1.1,2.8,0.2c0.8-1.3-0.8-1.5-1.6-2.1
		c-4.5-3.1-7.7-7.1-8.5-12.7c-0.1-0.8-0.5-2,0.5-2.5c0.9-0.4,1.3,0.7,1.9,1.2c2.9,2.6,6,4,9.7,1.5c2.6-3.2,3.3-6.4,0-10.2
		c5.4,1.3,8.1,0.3,9.5-3.5c0.7-1.8,1.1-2.2,3-1.2c2.4,1.3,5,1.1,7-1.2c2-2.3,1.7-4.7-0.2-7c-0.7-0.9-1.4-1.8-2.1-2.6
		c-2.2-2.2-1.8-5.2-1.9-7.8C111,8,116.2,6.2,119,7c1.3,0.4,2.1,0.7,0.8,2.2c-1.6,1.8-2.5,4.1-2.1,6.6c0.4,2.8,1.9,5.1,4.6,6
		c2.3,0.8,4.4,0.2,6.2-1.6c0,0,1.9-2.2,1.1-5.2c-0.9-3-2.4-5.2-2.4-5.2c-1.4-1.6-0.4-2,1-2.3c2.4-0.5,4.7-0.1,7,0.3
		c8.7,1.5,16.1,5.4,21.5,12.6c1.3,1.8,2.2,3.5-0.9,4.6c-0.9,0.3-1.6,1.3-2.2,2.1c-1.3,2-1.2,4.1-0.2,6.1c0.9,1.7,2.4,2.6,4.3,2.4
		c2.3-0.3,3.6-1.9,4.4-3.9c0.4-1.2,0.5-2.5,0.7-4.1c3.8,2.6,4.2,6.5,4.6,10.2c0.5,4.5-1.3,7.2-5.5,8.9c-8.6,3.7-15.9,2.2-22.6-4.3
		c-2.1-2.1-4.2-4.2-7-5.5c-1.5,0.2-1.1,1-0.6,1.9c2.3,2,4.7,4,6.9,6.2c6.5,6.6,14.3,7,22.6,4.6c2.4-0.7,4.4-1.9,6.3-3.6
		C172.6,41.1,169.3,27.6,163.6,25.2z M84.1,32.3c-0.5-2.9,2.8-8.5,5.7-9.5c1.5-0.5,2.3,0.2,2.2,1.6c-0.1,2.9,1,5.3,3.1,8.4
		c-3.8-1.1-6.7-1.1-9.4,0.6C84.5,34,84.3,33.2,84.1,32.3z M90,41.9c-0.7-0.4-1.4-0.8-2-1.4c-1-1.1-2.8-2-2.1-3.7
		c0,0,0.5-1.3,2.6-1.8c0.8-0.2,2.7-0.4,3.6-0.3c3.1,0.5,3.6,4.3,3.6,4.3C95.2,41.9,92.6,43.3,90,41.9z M99.8,31.8
		c0,0-2.3,0.1-3.9-2.6c-1.7-2.7,0.2-7.5,0.2-7.5c3.3-0.2,7.3,2.9,7.4,5.6C103.4,29.9,102,31.8,99.8,31.8z M105.3,23.8
		c-2.5-2.3-5.2-3.8-8.3-4.3c-0.9-0.1-1.6-0.3-1.5-1.5c0.2-2.8,4.4-7.3,7.3-7.6c1.6-0.1,3.7-0.7,4.5,1L105.3,23.8z M114.4,24.2
		c-0.4,1.8-1.6,2.8-3.3,2.9c0,0-1.9,0.5-2.9-2.6c-0.9-3.1,2.5-5.1,2.5-5.1C111.4,18.9,114.6,23,114.4,24.2z M127.6,16.6
		c-0.1,2.2-1.6,3-3.4,3c-2.4,0.1-4.2-2.3-3.9-5.2c0.2-2.2,1-4.3,3.3-5C124.6,9.2,127.6,14.7,127.6,16.6z M157.3,33
		c-1.7,0-2.1-1.3-2.1-2.7c0,0-0.3-2.3,2.1-3c2.4-0.7,2.9,2.4,2.9,2.4C160.4,31.7,159.3,33,157.3,33z"/>
	<path class="st22" d="M67.5,69.7c-1.9-0.4-1-2-1.2-3.1C68.2,67,67.3,68.6,67.5,69.7z"/>
	<path class="st38" d="M169.6,193.2c0.1,2.1-0.2,4.1-2.4,5.1c-1.6,0.7-2.8,0.6-2.7-1.7c0.1-2.1-0.1-4.3,0-6.4c0-0.8-0.5-2,0.7-2.4
		c1.1-0.4,2.2,0,3.1,0.8C169.6,189.9,169.7,191.5,169.6,193.2z"/>
	<path class="st39" d="M160.4,193.4c0,1.3,0,2.7,0,4c0,1.2-0.6,1.6-1.7,1.6c-1,0-1.9-0.3-1.9-1.5c0-2.9,0-5.7,0-8.6
		c0-1.5,1-1.5,2.1-1.6c1.2,0,1.6,0.7,1.5,1.8C160.3,190.5,160.3,191.9,160.4,193.4C160.4,193.4,160.4,193.4,160.4,193.4z"/>
	<path class="st12" d="M175.9,55.7c0.8,0.2,1.3,0.7,1.5,1.3c0.2,0.7-0.3,1.2-0.9,1.3c-0.9,0.2-1.3-0.4-1.3-1.2
		C175.2,56.6,175.1,55.9,175.9,55.7z"/>
	<path class="st40" d="M96.4,187.7c1.4,0.1,2.1,0.7,2.2,1.9c0.1,1.2-0.2,2.3-1.6,2.5c-1.6,0.2-1.4-1.1-1.5-2.1
		C95.4,189.1,95.1,188,96.4,187.7z"/>
	<path class="st41" d="M69,190.9c-3,1.7-2.4-0.7-2.6-2.3c1-1.2,2.3-1.6,3.5-0.6C71.5,189.4,68.9,189.8,69,190.9z"/>
	<path class="st42" d="M194.2,189.9c0.2-0.9-0.4-2.3,1.3-2.1c1.2,0.1,1.8,0.9,1.8,2c0,1.3-0.5,2.2-1.9,2.3
		C193.7,192.1,194.4,190.7,194.2,189.9z"/>
	<path class="st43" d="M113.9,58.6c-2.2-1.8-2.9-6,0.1-7.6c0.7-0.4,1.2-1.1,1.8-1.7c0.5-0.6,0.5-1.3-0.1-1.9
		c-0.6-0.6-1.3-0.4-1.9,0.1c-0.5,0.4-0.9,0.8-1.3,1.3c-3.3,3.2-6.6,2.8-9-1.2c0-0.8,0-1.7-0.1-2.5c1.2-4.9,5-6.8,9.4-7.8
		c4.6-1,9.2-1,13.7,0.4"/>
	<path class="st44" d="M131.8,30.1c-1.2,0.2-2.4,1.4-3.6,0c0-0.4,0-0.8,0-1.1c0.2-0.9,0.4-1.7,0.8-2.6c0.5-1.4,1.7-2.1,3.1-2.1
		c1.3,0,2.4,0.8,2.7,2"/>
	<path class="st45" d="M109.5,193.8c0-4.4,1.2-6.5,3.4-6.4c2.2,0.1,3.7,2.9,3.5,6.3c0,0.7-0.3,1.4-0.3,2.1c-0.2,2-1.5,3.1-3.2,3.1
		c-2,0-3-1.5-3.2-3.5C109.4,194.7,109.5,194,109.5,193.8z"/>
	<path class="st46" d="M122.4,34.2c1.1-0.6,2.1-1.5,3.3-0.6c0.2,0.1,0.2,0.7,0.1,0.8C124.7,35.2,123.6,34.1,122.4,34.2z"/>
	<path class="st47" d="M69.3,198.8c-2.3,0.1-3.1-0.6-2.9-2.3c0.1-1,0.2-2.7,1.3-2.2c1.3,0.6,3.2,1.3,3.4,3.1
		C71.3,199,69.8,198.8,69.3,198.8z"/>
	<g>
		<g>
			<path d="M98,165.9l0.1,2.1l-0.1,0c-0.1-0.4-0.1-0.6-0.3-0.9s-0.3-0.4-0.6-0.6c-0.2-0.1-0.4-0.3-0.7-0.3c-0.3-0.1-0.6-0.1-1.1-0.1
				h-1.5v3.8h0.4c0.4,0,0.7,0,0.9-0.1c0.2-0.1,0.4-0.1,0.5-0.3c0.1-0.1,0.2-0.3,0.3-0.4c0.1-0.2,0.1-0.4,0.1-0.7l0.1,0l0,3.4H96
				c0-0.3-0.1-0.6-0.2-0.8c-0.1-0.2-0.2-0.4-0.3-0.5c-0.1-0.1-0.3-0.2-0.5-0.3c-0.2-0.1-0.5-0.1-0.8-0.1h-0.4v1.5c0,0.6,0,1,0,1.3
				c0,0.3,0.1,0.5,0.2,0.7c0.1,0.3,0.4,0.5,0.7,0.7c0.3,0.1,0.7,0.2,1.2,0.2c0.5,0,0.9-0.1,1.3-0.2c0.3-0.1,0.6-0.3,0.8-0.6
				c0.2-0.2,0.3-0.4,0.4-0.6c0.1-0.2,0.2-0.5,0.3-0.9l0.1,0l-0.1,2.5h-7.6v-0.1c0.2,0,0.4,0,0.6-0.1c0.1-0.1,0.3-0.1,0.4-0.3
				c0.1-0.1,0.2-0.3,0.3-0.5c0-0.2,0.1-0.5,0.1-1v-4.7c0-0.4,0-0.8-0.1-1c0-0.2-0.1-0.4-0.3-0.5c-0.1-0.1-0.2-0.2-0.4-0.3
				c-0.2-0.1-0.3-0.1-0.6-0.1v-0.1H98z"/>
			<path d="M99.6,174.5v-1.8h0.1c0.1,0.4,0.3,0.8,0.4,1.1c0.3,0.5,0.7,0.7,1.1,0.7c0.3,0,0.5-0.1,0.7-0.2c0.2-0.2,0.3-0.4,0.3-0.8
				c0-0.3-0.1-0.5-0.2-0.7c-0.1-0.1-0.2-0.2-0.3-0.3c-0.1-0.1-0.3-0.2-0.6-0.4c-0.5-0.3-0.9-0.5-1.1-0.7c-0.3-0.3-0.4-0.6-0.4-0.9
				c0-0.4,0.1-0.7,0.4-1c0.3-0.3,0.7-0.5,1.2-0.5c0.2,0,0.4,0,0.6,0.1l0.2,0.1c0.1,0,0.1,0,0.2,0c0.1,0,0.2-0.1,0.2-0.2h0.1l0.1,1.4
				h-0.1c0-0.2-0.1-0.4-0.1-0.5c-0.1-0.1-0.1-0.2-0.2-0.4c-0.1-0.2-0.3-0.3-0.5-0.4c-0.2-0.1-0.3-0.1-0.5-0.1
				c-0.2,0-0.4,0.1-0.6,0.3c-0.2,0.2-0.2,0.4-0.2,0.6c0,0.2,0.1,0.4,0.2,0.6c0.1,0.2,0.4,0.3,0.7,0.5l0.7,0.3
				c0.4,0.2,0.7,0.4,0.9,0.7c0.2,0.3,0.3,0.6,0.3,1c0,0.4-0.1,0.8-0.4,1.1c-0.3,0.3-0.8,0.5-1.3,0.5c-0.3,0-0.6-0.1-0.9-0.2
				c-0.2-0.1-0.3-0.1-0.3-0.1c0,0-0.1,0-0.1,0c-0.1,0-0.3,0.1-0.3,0.2H99.6z"/>
			<path d="M105.7,174l0,1.2v0.4c0,0.3,0,0.5,0.1,0.6c0,0.1,0.1,0.2,0.2,0.3c0.1,0.1,0.3,0.2,0.7,0.3v0.1h-2.8v-0.1
				c0.3,0,0.4-0.1,0.5-0.1c0.1-0.1,0.2-0.2,0.3-0.3c0-0.1,0.1-0.2,0.1-0.4c0-0.2,0-0.5,0-0.8v-4.4c0-0.5-0.1-0.8-0.2-1
				c-0.2-0.2-0.4-0.3-0.8-0.3v-0.2l1.9-0.3c0,0.2,0.1,0.4,0.1,0.6v0.1c0.3-0.2,0.6-0.4,0.9-0.5c0.3-0.1,0.6-0.1,0.9-0.1
				c0.6,0,1.2,0.2,1.6,0.6c0.3,0.2,0.5,0.6,0.7,0.9c0.2,0.4,0.2,0.8,0.2,1.2c0,0.5-0.1,0.9-0.3,1.3c-0.2,0.4-0.4,0.7-0.7,1
				c-0.5,0.4-1.1,0.6-1.7,0.6c-0.3,0-0.6,0-0.8-0.1C106.2,174.4,106,174.3,105.7,174z M105.7,171.9c0,0.6,0,1,0.1,1.3
				c0.1,0.3,0.1,0.5,0.3,0.7c0.1,0.2,0.3,0.3,0.5,0.4c0.2,0.1,0.4,0.1,0.6,0.1c0.4,0,0.8-0.2,1.2-0.6c0.2-0.3,0.4-0.6,0.5-0.9
				s0.2-0.7,0.2-1.1c0-0.4-0.1-0.7-0.2-1.1c-0.1-0.3-0.2-0.6-0.4-0.9c-0.3-0.4-0.7-0.6-1.2-0.6c-0.2,0-0.4,0.1-0.6,0.2
				c-0.2,0.1-0.4,0.3-0.5,0.5c-0.1,0.2-0.2,0.5-0.3,0.8C105.7,170.9,105.7,171.3,105.7,171.9z"/>
			<path d="M116,173.9l0.1,0.1c-0.2,0.4-0.5,0.7-1,0.7c-0.3,0-0.6-0.1-0.7-0.2c-0.1-0.1-0.3-0.3-0.4-0.5c-0.3,0.3-0.5,0.4-0.6,0.5
				c-0.3,0.2-0.6,0.2-1,0.2c-0.5,0-0.8-0.1-1.1-0.3c-0.3-0.2-0.4-0.5-0.4-0.9c0-0.4,0.1-0.6,0.3-0.9c0.1-0.1,0.3-0.2,0.4-0.3
				c0.2-0.1,0.4-0.2,0.7-0.2c0.4-0.1,0.6-0.2,0.8-0.2c0.2-0.1,0.3-0.1,0.4-0.2c0.1-0.1,0.2-0.2,0.3-0.3c0.1-0.1,0.1-0.3,0.1-0.5
				c0-0.5-0.1-0.9-0.3-1.1c-0.1-0.1-0.2-0.2-0.3-0.3c-0.1-0.1-0.3-0.1-0.4-0.1c-0.2,0-0.3,0-0.5,0.1c-0.1,0.1-0.2,0.2-0.3,0.4
				l-0.2,0.4c-0.1,0.2-0.2,0.3-0.5,0.3c-0.1,0-0.3,0-0.4-0.1c-0.1-0.1-0.1-0.2-0.1-0.4c0-0.2,0.2-0.4,0.5-0.5
				c0.2-0.1,0.4-0.1,0.6-0.2c0.2,0,0.5-0.1,0.7-0.1c0.3,0,0.5,0,0.8,0.1s0.5,0.2,0.7,0.3c0.3,0.2,0.4,0.4,0.5,0.6
				c0,0.1,0.1,0.3,0.1,0.6v2.3c0,0.4,0,0.7,0.1,0.8c0.1,0.3,0.2,0.5,0.5,0.5c0.1,0,0.2,0,0.3-0.1C115.8,174.2,115.9,174.1,116,173.9
				z M113.9,171.4c-0.2,0.2-0.5,0.4-0.8,0.5c-0.3,0.2-0.5,0.3-0.6,0.4c-0.1,0.1-0.2,0.2-0.3,0.3c-0.2,0.2-0.3,0.5-0.3,0.9
				c0,0.3,0.1,0.5,0.2,0.7s0.3,0.3,0.6,0.3c0.2,0,0.4-0.1,0.6-0.2c0.2-0.1,0.3-0.3,0.4-0.5c0.1-0.3,0.2-0.7,0.2-1.2V171.4z"/>
			<path d="M119,174.7l-0.2,0.6c0.3,0,0.5,0.1,0.6,0.2c0.3,0.2,0.4,0.4,0.4,0.6c0,0.3-0.1,0.5-0.3,0.6c-0.2,0.2-0.5,0.2-0.8,0.2
				c-0.3,0-0.7-0.1-1.1-0.3l0.1-0.1c0.3,0.1,0.5,0.2,0.7,0.2c0.2,0,0.4-0.1,0.5-0.2c0.1-0.1,0.2-0.3,0.2-0.5c0-0.3-0.2-0.5-0.7-0.7
				l0.3-0.8c-0.5-0.1-0.9-0.2-1.3-0.4c-0.4-0.2-0.6-0.5-0.8-0.9c-0.2-0.4-0.3-0.8-0.3-1.3c0-0.4,0.1-0.8,0.2-1.2
				c0.2-0.6,0.6-1,1-1.3c0.5-0.3,1-0.5,1.7-0.5c0.6,0,1.1,0.1,1.4,0.4c0.2,0.2,0.3,0.4,0.3,0.6c0,0.1,0,0.2-0.1,0.3
				c-0.1,0.1-0.2,0.1-0.3,0.1c-0.3,0-0.5-0.2-0.6-0.6c-0.1-0.2-0.1-0.3-0.1-0.4s-0.1-0.1-0.2-0.2c-0.1-0.1-0.3-0.1-0.5-0.1
				c-0.2,0-0.5,0.1-0.7,0.2c-0.2,0.1-0.3,0.3-0.5,0.5c-0.1,0.2-0.2,0.4-0.3,0.7c-0.1,0.4-0.2,0.8-0.2,1.3c0,0.4,0.1,0.7,0.2,1.1
				c0.1,0.4,0.3,0.7,0.5,0.9c0.4,0.4,0.8,0.6,1.3,0.6c0.4,0,0.7-0.1,1-0.4c0.1-0.1,0.3-0.4,0.4-0.7l0.1,0.1c-0.1,0.4-0.4,0.8-0.7,1
				C120,174.6,119.5,174.7,119,174.7z"/>
			<path d="M121.7,171.9c0-0.7,0.3-1.3,0.8-1.8c0.6-0.7,1.4-1,2.2-1s1.6,0.3,2.2,1c0.5,0.5,0.8,1.2,0.8,1.8c0,0.7-0.2,1.3-0.7,1.8
				c-0.6,0.7-1.3,1-2.2,1s-1.7-0.3-2.3-1c-0.2-0.3-0.4-0.5-0.5-0.9C121.8,172.5,121.7,172.2,121.7,171.9z M122.8,171.8
				c0,0.7,0.2,1.4,0.5,1.9c0.4,0.6,0.8,0.9,1.4,0.9c0.2,0,0.5-0.1,0.7-0.2c0.2-0.1,0.4-0.3,0.6-0.5c0.2-0.2,0.3-0.5,0.4-0.9
				c0.1-0.4,0.2-0.7,0.2-1c0-0.3-0.1-0.7-0.2-1c-0.1-0.4-0.3-0.7-0.4-0.9c-0.3-0.5-0.8-0.7-1.3-0.7c-0.5,0-0.9,0.3-1.2,0.8
				C123,170.5,122.8,171.1,122.8,171.8z"/>
			<path d="M136.2,173.3l0.1,0c-0.1,0.4-0.4,0.8-0.7,1c-0.3,0.2-0.7,0.3-1.3,0.3c-0.9,0-1.5-0.3-2-0.8c-0.5-0.5-0.7-1.1-0.7-1.9
				c0-0.4,0.1-0.7,0.2-1.1c0.1-0.4,0.3-0.7,0.5-0.9c0.3-0.3,0.6-0.5,0.9-0.7c0.4-0.2,0.8-0.2,1.2-0.2c0.6,0,1.1,0.1,1.4,0.4
				c0.2,0.2,0.3,0.4,0.3,0.6c0,0.1,0,0.2-0.1,0.3c-0.1,0.1-0.2,0.1-0.3,0.1c-0.3,0-0.5-0.2-0.6-0.6c-0.1-0.2-0.1-0.3-0.1-0.4
				s-0.1-0.1-0.2-0.2c-0.1-0.1-0.3-0.1-0.5-0.1c-0.2,0-0.5,0.1-0.7,0.2c-0.2,0.1-0.3,0.3-0.5,0.5c-0.1,0.2-0.2,0.4-0.3,0.7
				c-0.1,0.4-0.2,0.8-0.2,1.3c0,0.4,0.1,0.7,0.2,1.1c0.1,0.4,0.3,0.7,0.6,0.9c0.4,0.4,0.8,0.6,1.3,0.6c0.4,0,0.7-0.1,1-0.4
				C135.9,173.9,136.1,173.7,136.2,173.3z"/>
			<path d="M136.9,165.9l1.8-0.2v7.1l0,0.5c0,0.3,0,0.5,0.1,0.6c0,0.1,0.1,0.2,0.2,0.3c0.1,0.1,0.3,0.2,0.7,0.3v0.1h-2.8v-0.1
				c0.3,0,0.4-0.1,0.5-0.1c0.1-0.1,0.2-0.2,0.3-0.3c0-0.1,0.1-0.2,0.1-0.4c0-0.2,0-0.5,0-0.9v-5c0-0.4,0-0.7,0-0.9
				c0-0.2-0.1-0.3-0.1-0.4c-0.1-0.1-0.2-0.2-0.3-0.3c-0.1-0.1-0.2-0.1-0.4-0.1V165.9z"/>
			<path d="M140.1,169.3l1.8-0.2v3.7l0,0.5c0,0.3,0,0.5,0.1,0.6c0,0.1,0.1,0.2,0.2,0.3c0.1,0.1,0.3,0.2,0.7,0.3v0.1H140v-0.1
				c0.3,0,0.4-0.1,0.5-0.1s0.2-0.2,0.3-0.3c0-0.1,0.1-0.2,0.1-0.4c0-0.2,0-0.5,0-0.9v-1.6c0-0.4,0-0.7,0-0.9c0-0.2-0.1-0.3-0.1-0.4
				c-0.1-0.1-0.2-0.2-0.3-0.3c-0.1-0.1-0.2-0.1-0.4-0.1V169.3z M140.7,168.2l1.2-1.7h1.2l-2,1.7H140.7z"/>
			<path d="M145,169.1c0.1,0.2,0.1,0.5,0.1,0.7v0.1c0.5-0.5,1.1-0.8,1.9-0.8c0.5,0,1,0.1,1.3,0.4c0.3,0.2,0.5,0.6,0.5,1.1v2.7
				c0,0.3,0,0.5,0.1,0.6c0,0.1,0.1,0.2,0.2,0.3c0.1,0.1,0.3,0.2,0.7,0.3v0.1h-2.8v-0.1c0.3,0,0.4-0.1,0.5-0.1
				c0.1-0.1,0.2-0.2,0.3-0.3c0-0.1,0.1-0.2,0.1-0.4c0-0.2,0-0.5,0-0.8v-1.3c0-0.5,0-0.8,0-1c0-0.2-0.1-0.4-0.2-0.5
				c-0.1-0.1-0.2-0.3-0.4-0.3c-0.2-0.1-0.4-0.1-0.6-0.1c-0.2,0-0.5,0-0.7,0.1s-0.4,0.2-0.5,0.4c-0.1,0.2-0.2,0.4-0.3,0.6
				c0,0.2-0.1,0.6-0.1,1.1v1.2l0,0.5c0,0.3,0,0.5,0.1,0.6c0,0.1,0.1,0.2,0.2,0.3c0.1,0.1,0.3,0.2,0.7,0.3v0.1h-2.8v-0.1
				c0.3,0,0.4-0.1,0.5-0.1c0.1-0.1,0.2-0.2,0.3-0.3c0-0.1,0.1-0.2,0.1-0.4c0-0.2,0-0.5,0-0.8v-1.6c0-0.4,0-0.7,0-0.9
				c0-0.2-0.1-0.3-0.1-0.4c-0.1-0.1-0.2-0.2-0.3-0.3c-0.1-0.1-0.2-0.1-0.4-0.1v-0.1L145,169.1z"/>
			<path d="M150,169.3l1.8-0.2v3.7l0,0.5c0,0.3,0,0.5,0.1,0.6c0,0.1,0.1,0.2,0.2,0.3c0.1,0.1,0.3,0.2,0.7,0.3v0.1h-2.8v-0.1
				c0.3,0,0.4-0.1,0.5-0.1c0.1-0.1,0.2-0.2,0.3-0.3c0-0.1,0.1-0.2,0.1-0.4c0-0.2,0-0.5,0-0.8v-1.6c0-0.4,0-0.7,0-0.9
				c0-0.2-0.1-0.3-0.1-0.4c-0.1-0.1-0.2-0.2-0.3-0.3c-0.1-0.1-0.2-0.1-0.4-0.1V169.3z M151.3,166.8c-0.2,0-0.3-0.1-0.4-0.2
				c-0.1-0.1-0.2-0.2-0.2-0.4c0-0.2,0.1-0.3,0.2-0.4c0.1-0.1,0.2-0.2,0.4-0.2c0.2,0,0.3,0.1,0.4,0.2c0.1,0.1,0.2,0.2,0.2,0.4
				c0,0.2-0.1,0.3-0.2,0.4C151.6,166.7,151.5,166.8,151.3,166.8z"/>
			<path d="M157.8,173.3l0.1,0c-0.1,0.4-0.4,0.8-0.7,1c-0.3,0.2-0.7,0.3-1.3,0.3c-0.9,0-1.5-0.3-2-0.8c-0.5-0.5-0.7-1.1-0.7-1.9
				c0-0.4,0.1-0.7,0.2-1.1s0.3-0.7,0.5-0.9c0.3-0.3,0.6-0.5,0.9-0.7c0.4-0.2,0.8-0.2,1.2-0.2c0.6,0,1.1,0.1,1.4,0.4
				c0.2,0.2,0.3,0.4,0.3,0.6c0,0.1,0,0.2-0.1,0.3c-0.1,0.1-0.2,0.1-0.3,0.1c-0.3,0-0.5-0.2-0.6-0.6c-0.1-0.2-0.1-0.3-0.1-0.4
				c0-0.1-0.1-0.1-0.2-0.2c-0.1-0.1-0.3-0.1-0.5-0.1c-0.2,0-0.5,0.1-0.7,0.2c-0.2,0.1-0.3,0.3-0.5,0.5c-0.1,0.2-0.2,0.4-0.3,0.7
				c-0.1,0.4-0.2,0.8-0.2,1.3c0,0.4,0.1,0.7,0.2,1.1s0.3,0.7,0.6,0.9c0.4,0.4,0.8,0.6,1.3,0.6c0.4,0,0.7-0.1,1-0.4
				C157.5,173.9,157.7,173.7,157.8,173.3z"/>
			<path d="M158.7,171.9c0-0.7,0.3-1.3,0.8-1.8c0.6-0.7,1.4-1,2.2-1c0.9,0,1.6,0.3,2.2,1c0.5,0.5,0.8,1.2,0.8,1.8
				c0,0.7-0.2,1.3-0.7,1.8c-0.6,0.7-1.3,1-2.2,1c-0.9,0-1.7-0.3-2.3-1c-0.2-0.3-0.4-0.5-0.5-0.9
				C158.7,172.5,158.7,172.2,158.7,171.9z M159.8,171.8c0,0.7,0.2,1.4,0.5,1.9c0.4,0.6,0.8,0.9,1.4,0.9c0.2,0,0.5-0.1,0.7-0.2
				c0.2-0.1,0.4-0.3,0.6-0.5c0.2-0.2,0.3-0.5,0.4-0.9c0.1-0.4,0.2-0.7,0.2-1c0-0.3-0.1-0.7-0.2-1c-0.1-0.4-0.3-0.7-0.4-0.9
				c-0.3-0.5-0.8-0.7-1.3-0.7c-0.5,0-0.9,0.3-1.2,0.8C160,170.5,159.8,171.1,159.8,171.8z"/>
		</g>
	</g>
</g>
</svg>
