<?xml version="1.0" encoding="utf-8"?>
<!-- Generator: Adobe Illustrator 25.2.1, SVG Export Plug-In . SVG Version: 6.00 Build 0)  -->
<svg version="1.1" id="Camada_1" xmlns="http://www.w3.org/2000/svg" xmlns:xlink="http://www.w3.org/1999/xlink" x="0px" y="0px"
	 viewBox="0 0 247.2 202.1" style="enable-background:new 0 0 247.2 202.1;" xml:space="preserve">
<style type="text/css">
	.st0{fill:#606060;}
	.st1{fill:#00A3A5;}
</style>
<g>
	<path class="st0" d="M85.7,91c-1.8-7.1-5.1-13.2-12.2-16.3c-12-5.2-23.6-3.2-35,2c-4.8,2.1-5.2,5.3-2.1,9.5
		c1.6,2.1,1.9,2.2,4.2,0.9c4.8-2.7,9.8-4.7,15.3-5.2c3.6-0.4,7.3-0.2,10.7,1c5.7,2,7.6,6.8,8.3,12.3c0.4,3.1,0.3,3.1-2.8,3
		c-9.8-0.1-19.4,0.5-28.4,4.9c-7.2,3.5-12.5,8.6-13.5,17.2c-1.4,12,8.4,21.2,20.2,18.7c3-0.6,5.9-1.9,8.9-2.8
		c6.6-2.1,13.2-4.2,20.2-2c1.6,0.5,1.9-0.8,2.4-1.8c3.9-9.3,5.2-19.1,5.3-27.8C87,99.1,86.7,95,85.7,91z M72,123.2
		c-3.3,8.5-9.9,11.1-18,10.2c-2-0.2-4-0.7-5.9-1.6c-7.9-3.9-8.9-13-2.1-18.7c4.3-3.5,9.3-5,14.7-5.7c1.9-0.2,3.8-0.2,5.7-0.3v0.1
		c1.3,0,2.6,0,3.9,0c3.7,0.1,3.7,0.1,3.7,3.9C74,115.3,73.5,119.3,72,123.2z"/>
	<path class="st0" d="M224,91.4c-1.6-7.6-5.3-13.7-12.8-17c-6.2-2.7-12.7-3.1-19.3-2.1c-5.6,0.8-11.2,1.9-16.2,4.9
		c-3.4,2.1-3.9,4.4-1.8,8.1c1.8,3,2.4,3.1,6.4,1c0.1-0.1,0.3-0.2,0.4-0.3c6.4-3.3,13.2-4.9,20.5-4c8.6,1.1,11.5,7.5,11.9,14.5
		c0.1,1.2-0.3,1.8-1.7,1.7c-2.1-0.1-4.1,0-6.2,0c-9.5,0.3-16.5,1.6-23.2,4.8c-7.3,3.5-12.7,8.7-13.7,17.3
		c-1.5,11.6,8,20.8,19.5,18.9c3.6-0.6,6.9-2.1,10.3-3.1c6-1.8,12-3.9,18.3-2c2.2,0.7,3.1-0.2,3.8-2.1
		C225.2,118.6,226.9,105.2,224,91.4z M208.1,127.4c-2.3,3.3-5.5,5.3-9.6,5.9c-4.1,0.6-8.1,0.3-11.8-1.4c-8.1-3.6-9.4-12.9-2.6-18.6
		c4.3-3.7,9.4-5.1,14.9-5.8c1.9-0.2,3.8-0.2,5.7-0.3c0,0.1,0,0.2,0,0.3c2,0,3.9,0,5.9,0c0.7,0,1.5,0.1,1.6,1.1
		C212.5,115.2,212,121.7,208.1,127.4z"/>
	<path class="st0" d="M0,99c0-10.8,0-21.6,0-32.3c0-4.8,0.4-9.5,1.7-14.2C4.5,41.9,12.3,35,23.2,33.8c4.4-0.5,8.7-0.6,13,0.5
		c5.4,1.4,7.7,5.5,5.8,10.4c-0.6,1.5-1.3,2-3,1.5c-3.2-1-6.5-1.6-9.9-1.6c-9.1-0.1-14.9,4.9-16.2,13.8c-0.6,3.7-0.2,7.6-0.4,11.3
		c-0.1,1.2,0.7,1.1,1.4,1.1c2.6,0,5.3,0,7.9,0c2.2,0,4.4,0,6.7,0c3.9,0,4.6,0.9,3.1,4.7c-1.7,4.4-5.6,5.5-9.7,5.9
		c-2.4,0.3-4.8,0.2-7.1,0.1c-1.8-0.1-2.2,0.5-2.2,2.2c0.1,5.3,0,10.7,0,16c0,11.7,0,23.4,0.1,35c0,2.4-0.9,3.6-3.1,4.4
		c-2.6,0.9-5.3,1-8,1.1c-1.3,0-1.5-0.6-1.5-1.6c0-2.1,0-4.1,0-6.2C0,121.4,0,110.2,0,99z"/>
	<path class="st0" d="M92.2,107.9c-0.1-9.6,1.1-16.3,4.9-22.5c4.8-7.8,11.9-12,20.7-13.5c7.7-1.3,15.1-0.4,21.8,3.8
		c0.6,0.4,1.2,0.8,1.8,1.3c4,3.4,3.7,6.6-0.3,10.9c-0.7,0.8-1.5,0.9-2.3,0c-0.6-0.6-1.2-1.1-1.8-1.6c-6.6-5.7-14.1-6.1-21.9-3.1
		c-5,1.9-7.8,6-9.3,10.9c-2.4,8-2.4,16.1,0.8,23.9c3.8,9.6,15.4,14,24.9,9.7c2.7-1.2,5.2-2.8,7.3-4.9c1-1,1.8-1,2.5,0.2
		c0.4,0.5,0.7,1.1,1.1,1.6c3,3.3,3.1,5.7-1.6,8.8c-7.6,5.1-16.1,6.5-25.2,4.9c-8.9-1.5-15.3-6.2-19.5-14.1
		C93,118.1,92.3,111.8,92.2,107.9z"/>
	<path class="st0" d="M230.4,84.3c0-14.8,0-29.6,0-44.4c0-2.6,0.2-2.7,2.8-2.6c5.7,0.2,8.6,3,8.8,8.7c0.1,4.2,0,8.4,0,12.6
		c0,22.7,0,45.4,0,68.1c0,0.7,0,1.5,0.1,2.2c0.2,2.5,1,4.5,3.8,5.1c1.7,0.3,1.4,1.3,0.5,2c-2.8,2.3-5.9,4-9.7,3.2
		c-3.2-0.6-5.4-3.1-5.9-6.7c-0.5-3.2-0.4-6.4-0.4-9.6C230.4,110,230.4,97.2,230.4,84.3z"/>
	<path class="st0" d="M149.5,101.5c0-9.1,0.1-18.3,0-27.4c0-1.9,0.6-2.4,2.4-2.4c4.5,0,9.1,1.8,9.3,8.2c0,1.7,0.1,3.5,0.1,5.2
		c0,13.4,0,26.8,0,40.2c0,1.5,0.1,3,0.2,4.4c0.2,2.1,1.3,3.6,3.5,4.2c1.7,0.5,1.8,1.1,0.4,2.2c-2.1,1.8-4.6,2.9-7.4,3.1
		c-4,0.4-7.4-2.5-8-6.7c-0.4-2.4-0.5-4.9-0.5-7.4C149.5,117.3,149.5,109.4,149.5,101.5z"/>
	<path class="st1" d="M145.3,63.4c5.4-1.2,9.7-4.2,13.6-7.8c0.8-0.7,1.4-1.6,0.6-2.6c-0.9-1.1-1.9-0.7-2.8,0.1
		c-2.9,2.4-5.7,4.9-9.4,6.1c-4.8,1.6-7.9-0.8-7.4-5.9c0.5-4.3,3.2-7.1,6.6-9.3c4.5-3,9.7-3.9,15-4.3c3-0.2,6.1-0.2,9.1,0.2
		c0.8,0.1,1.6,0.1,1.7,1.3c0.2,6.5-0.2,12.8-4,18.4c-1.6,2.4-3.6,4.1-6.2,5.1C156.3,67,150.7,66.4,145.3,63.4z"/>
	<path class="st1" d="M140.8,160.3c1.9-1.9,2.8-3.9,4-5.7c0.5-0.7,0.9-1.6,1.9-1.2c0.9,0.4,0.5,1.3,0.4,2c-0.2,2.7-0.5,5.4-0.8,8.1
		c-0.1,0.6-0.1,1.5-1,1.4c-1-0.1-0.7-1-0.6-1.5c0.3-1.9,0.3-3.7,0.4-6c-1.5,1.2-2.1,2.6-2.9,3.9c-0.4,0.6-0.9,1.2-1.7,1.2
		c-1.1,0-0.9-1-1.2-1.6c-0.5-1.1-0.5-2.4-1.4-3.6c-0.6,2.3-1.2,4.5-1.7,6.7c-0.2,0.7-0.5,1.3-1.3,1c-0.9-0.3-0.3-1-0.2-1.5
		c0.7-2.9,1.4-5.7,2.2-8.6c0.2-0.6,0.2-1.6,1.3-1.5c0.8,0.1,0.9,0.8,1.1,1.4C139.6,156.5,140.1,158.2,140.8,160.3z"/>
	<path class="st1" d="M126.6,157.8c-0.9,1.3-1.7,2.6-2.6,3.8c-1,1.2-1.9,1.1-2.4-0.4c-0.4-1.2-0.8-2.5-1.3-4.1
		c-1.1,2.3-1.3,4.5-1.9,6.5c-0.2,0.7-0.4,1.4-1.2,1.3c-1.1-0.2-0.5-1-0.3-1.6c0.7-2.9,1.5-5.9,2.3-8.8c0.1-0.5,0.2-1.2,1-1.2
		c0.9,0,1,0.6,1.2,1.3c0.6,1.8,1.1,3.7,1.7,5.7c1.9-1.8,2.8-3.9,4.1-5.8c0.5-0.7,0.9-1.5,1.9-1.2c1.1,0.4,0.4,1.3,0.3,1.9
		c-0.2,2.7-0.5,5.4-0.8,8.1c-0.1,0.6,0.1,1.8-1,1.5c-1-0.2-0.5-1.2-0.5-1.9c0.2-1.7,0.4-3.3,0.3-5
		C127,157.9,126.8,157.9,126.6,157.8z"/>
	<path class="st1" d="M167.1,161.4c0.4-2.3,0.9-4.7,1.3-7c0.1-0.5,0.2-1.1,0.8-1c0.7,0.1,0.8,0.6,0.7,1.3c-0.5,3-1.1,6-1.6,8.9
		c-0.1,0.5-0.2,1.2-0.9,1.3c-0.8,0.1-1.2-0.4-1.5-1c-1.2-2.2-2-4.6-3.5-6.9c-1.1,2.2-0.8,4.5-1.5,6.6c-0.2,0.6-0.1,1.5-1.1,1.3
		c-0.9-0.2-0.5-1.1-0.4-1.7c0.4-2.7,0.9-5.5,1.4-8.2c0.1-0.6,0.1-1.4,0.9-1.6c1-0.2,1.3,0.5,1.6,1.2c1.1,2.3,2.2,4.6,3.2,6.8
		C166.7,161.4,166.9,161.4,167.1,161.4z"/>
	<path class="st1" d="M241.1,153.2c-3.3,0.6-5.4,3.8-5.3,8.1c0.1,3.1,2.3,4.8,5.3,4.1c3.3-0.8,5.1-3.5,5.1-7.7
		C246.2,154.1,244.5,152.5,241.1,153.2z M242.9,162.6c-1.1,1.2-2.4,1.4-3.8,1c-1.4-0.4-1.5-1.8-1.5-2.6c0.1-2.3,0.3-4,1.7-5.4
		c1.1-1.1,2.3-1.2,3.6-0.8c1.3,0.4,1.5,1.6,1.5,2.8C244.5,159.5,244.1,161.2,242.9,162.6z"/>
	<path class="st1" d="M187.6,155.8c-0.2,1.4-0.5,3-0.8,4.6c-0.3,1.4-0.6,2.9,1.4,3.3c1.9,0.4,3.2-0.4,3.7-2.3c0.4-1.7,0.7-3.5,1-5.3
		c0-0.2,0-0.5,0.1-0.7c0.3-0.7,0.1-2.1,1.1-1.9c1.2,0.2,0.7,1.4,0.6,2.2c-0.4,2-0.7,4-1.1,6c-0.6,2.3-2,3.4-4.3,3.7
		c-2.9,0.3-4.3-0.9-4.1-3.8c0.1-2.1,0.6-4.2,0.9-6.3c0.1-0.7-0.1-2,1.2-1.7C188,153.8,187.5,154.8,187.6,155.8z"/>
	<path class="st1" d="M234.3,163.5c-0.5-2.9-1-5.8-1.5-8.7c-0.1-0.7-0.4-1.3-1.1-1.5c-0.9-0.2-1.3,0.4-1.7,1.1
		c-1.8,3.4-3.6,6.8-5.5,10.3c1.6,0.6,2-0.4,2.4-1.3c0.7-1.8,2.1-1.5,3.5-1.5c1.4,0,2.1,0.5,2.4,1.9c0.1,0.6,0.2,1.4,1.2,1.1
		C234.7,164.7,234.4,164,234.3,163.5z M228.4,160.4c0.8-1.5,1.6-3,2.4-4.5c0.7,0.7,0.5,1.3,0.6,1.8
		C232.1,160.9,232.1,160.9,228.4,160.4z"/>
	<path class="st1" d="M102.5,163.5c-0.6-3.1-1.2-6.1-1.8-9.2c-0.1-0.7-0.4-1-1.1-1.1c-0.5,0-0.9,0.2-1.2,0.7
		c-1.9,3.5-3.8,7-5.9,10.7c1.6,0.5,2.1-0.2,2.4-1.1c0.6-1.9,2.2-1.5,3.6-1.7c1.5-0.1,2,0.7,2.2,2c0.1,0.6,0.4,1.1,1.1,1
		C102.8,164.7,102.6,164,102.5,163.5z M96.6,160.4c0.9-1.6,1.6-3,2.5-4.5C100.7,160.8,100.5,161,96.6,160.4z"/>
	<path class="st1" d="M212.6,163.2c-0.5-2.8-1.1-5.6-1.6-8.4c-0.1-0.6-0.2-1.4-1-1.5c-1-0.2-1.3,0.5-1.6,1.2
		c-1.8,3.4-3.7,6.8-5.6,10.4c1.8,0.4,2.1-0.8,2.6-1.7c1-1.7,2.6-1.1,4-1.2c1.3-0.1,1.3,0.9,1.6,1.8c0.2,0.6,0.3,1.4,1.2,1.2
		C213,164.7,212.7,163.8,212.6,163.2z M206.9,160.4c0.2-1.4,0.9-2.3,1.5-3.3c0.2-0.4,0.3-1,1-1c0.5,0.3,0.3,0.9,0.4,1.3
		C210.5,160.9,210.5,160.9,206.9,160.4z"/>
	<path class="st1" d="M63,163c-0.5-2.8-1.1-5.6-1.6-8.4c-0.1-0.6-0.3-1.1-1-1.2c-0.8-0.1-1.1,0.3-1.5,0.9c-1.9,3.4-3.9,6.8-5.6,10.6
		c1.8,0.4,2.1-0.8,2.5-1.7c0.9-1.9,2.6-1,3.9-1.1c1.1-0.1,1.3,0.6,1.5,1.5c0.1,0.7,0.3,1.7,1.3,1.4C63.5,164.6,63.1,163.6,63,163z
		 M57.3,160.4c0.5-1.7,1.4-3,2.4-4.5C61.2,160.8,61.2,160.9,57.3,160.4z"/>
	<path class="st1" d="M157.4,163.5c-0.6-3-1.2-5.9-1.8-8.9c-0.1-0.6-0.3-1.1-1-1.2c-0.8-0.1-1.2,0.4-1.5,1
		c-1.9,3.4-3.7,6.9-5.7,10.5c1.8,0.4,2.1-0.7,2.5-1.5c0.8-1.7,2.2-1.3,3.6-1.3c1.3,0,1.9,0.7,2.1,1.9c0.1,0.7,0.4,1.4,1.3,1.1
		C157.7,164.7,157.5,164,157.4,163.5z M151.5,160.4c0.7-1.7,1.4-3.2,2.5-4.5C155.5,160.8,155.5,160.8,151.5,160.4z"/>
	<path class="st1" d="M222.4,153.1c0.3,0.1,1.1,0.2,1.7,0.5c0.7,0.3,1.1,0.8,0.8,1.6c-0.4,1-1,0.2-1.5,0c-2.3-1-4.3-0.3-5.3,1.9
		c-0.4,0.9-0.7,1.9-0.8,2.8c-0.4,3.3,1.3,4.6,4.5,3.7c0.5-0.2,1.2-1.1,1.7-0.1c0.4,0.9-0.6,1.2-1.3,1.5c-1.1,0.4-2.3,0.6-1.9,2.4
		c0.2,0.8-0.6,1.3-1.4,1.4c-0.2,0-0.5,0-0.7-0.2c-0.3-0.3-0.2-0.6,0.1-0.8c1.5-1.2,0.4-2-0.5-2.6c-2.3-1.9-2.9-4.1-1.8-7.2
		C217,154.7,219.1,153,222.4,153.1z"/>
	<path class="st1" d="M28,153.4c-1.7-0.3-3.5-0.8-5.1,0.4c-0.2,0.1-0.2,0.5-0.2,0.7c-0.5,2.9-1,5.8-1.5,8.7
		c-0.1,0.6-0.4,1.4,0.5,1.6c1,0.2,0.9-0.7,1.1-1.3c0.1-0.2,0.2-0.5,0.2-0.7c0-1.7,0.8-2.3,2.6-2.3c2.5-0.1,4.4-2.1,4.4-4.6
		C30.2,154.5,29.3,153.7,28,153.4z M25,159.1c-0.4-0.2-1.2,0.3-1.2-0.9c0-2.4,0.7-3.7,2.1-3.7c1.2,0,2.3,0.3,2.3,1.9
		C28.2,158.1,26.9,159.1,25,159.1z"/>
	<path class="st1" d="M14.7,165.4c-0.4-0.1-1.2-0.2-1.9-0.5c-0.5-0.2-1.1-0.5-0.8-1.3c0.3-0.7,0.8-0.8,1.4-0.4
		c0.9,0.5,1.8,0.7,2.8,0.5c1-0.2,1.6-0.8,1.8-1.7c0.2-1.1-0.5-1.6-1.3-2c-0.2-0.1-0.4-0.2-0.7-0.3c-1.4-0.5-2.7-1.1-2.6-2.8
		c0-1.6,0.9-2.8,2.4-3.4c1.5-0.7,3-0.5,4.5,0.2c0.5,0.3,0.6,0.8,0.4,1.3c-0.2,0.4-0.7,0.4-1.1,0.2c-0.8-0.6-1.7-0.6-2.6-0.5
		c-0.9,0.1-1.5,0.7-1.6,1.6c-0.2,0.9,0.4,1.3,1.1,1.6c0.1,0.1,0.3,0.2,0.4,0.2c2.9,1.3,3.3,2,2.9,4
		C19.2,164.2,17.6,165.4,14.7,165.4z"/>
	<path class="st1" d="M79.4,165.4c-0.3,0-0.8-0.1-1.2-0.2c-0.8-0.2-1.8-0.4-1.4-1.5c0.4-1.2,1.2-0.3,1.8-0.2
		c0.8,0.2,1.6,0.4,2.4,0.2c1-0.3,1.6-0.9,1.7-1.9c0.2-1-0.4-1.5-1.2-1.9c-0.2-0.1-0.4-0.2-0.7-0.3c-1.6-0.5-2.9-1.2-2.8-3.2
		c0.1-1.7,1.7-3.1,3.7-3.4c1.1-0.2,2.1,0.1,3.1,0.5c0.6,0.2,0.7,0.7,0.5,1.2c-0.2,0.4-0.6,0.5-1,0.3c-0.9-0.5-1.9-0.5-2.9-0.4
		c-0.8,0.1-1.3,0.6-1.5,1.4c-0.1,0.8,0.2,1.3,0.9,1.6c0.2,0.1,0.4,0.2,0.7,0.3c1.6,0.8,3.6,1.1,2.9,3.7
		C83.8,164.3,82.3,165.5,79.4,165.4z"/>
	<path class="st1" d="M7.2,165.1c-3.7,0-3.7,0-3-3.5c0.4-2.2,0.8-4.4,1.1-6.6c0.2-1.3,0.7-1.9,2.1-1.8c1.3,0.1,2.6,0,3.9,0
		c0.4,0,0.9-0.1,1,0.5c0.1,0.6-0.4,0.9-0.9,0.9c-1,0.1-2,0.1-3,0.1c-1.6-0.1-1.6,1.1-1.7,2.2c-0.1,1.2,0.7,1.3,1.5,1.3
		c0.4,0,0.8,0,1.2,0.1c0.4,0,0.6,0.2,0.6,0.6c0.1,0.5-0.3,0.7-0.7,0.8c-0.4,0-0.8,0-1.2,0c-1.7,0.1-2.6,1.3-2.4,3
		c0.2,1.2,1,0.8,1.7,0.9c1.1,0.2,3-0.7,3,1c0,1-2,0.3-3,0.5C7.4,165.1,7.3,165.1,7.2,165.1z"/>
	<path class="st1" d="M39.1,153.5c-0.3,1.2-1,1.2-1.8,1.2c-0.7,0-1.3,0-2,0c-1.4,0-1.8,0.8-1.9,2c-0.2,1.4,0.7,1.3,1.7,1.4
		c0.6,0.1,1.7-0.4,1.7,0.8c-0.1,1.1-1.1,0.6-1.8,0.7c-1,0.1-2.1-0.3-2.4,1.3c-0.4,2.2-0.2,2.5,2,2.6c0.9,0.1,2.6-0.6,2.5,0.9
		c0,1-1.6,0.6-2.5,0.6c-5.6,0-4.2,0.2-3.7-4.3c0.2-1.5,0.8-3,0.9-4.6c0.4-3.5,0.6-3,3.7-3C36.7,153.2,37.9,153,39.1,153.5z"/>
	<path class="st1" d="M113.5,153.2c0.6,0,1.2,0,1.7,0c0.5,0,1.3-0.3,1.3,0.6c0,0.6-0.7,0.8-1.3,0.8c-0.7,0-1.5,0.1-2.2,0
		c-1.6-0.1-1.9,0.9-2,2.1c-0.1,1.5,0.9,1.2,1.8,1.3c0.6,0.1,1.5-0.4,1.6,0.6c0.1,1.2-1,0.8-1.6,0.8c-1.2,0.1-2.3-0.1-2.6,1.5
		c-0.4,2.1-0.2,2.3,2,2.5c0.9,0.1,2.6-0.6,2.5,0.9c0,1-1.7,0.5-2.5,0.5c-4.2,0.1-4.2,0-3.6-4c0.3-2.1,0.7-4.2,1-6.3
		c0.2-1.1,0.7-1.6,1.8-1.5C112,153.3,112.8,153.2,113.5,153.2C113.5,153.2,113.5,153.2,113.5,153.2z"/>
	<path class="st1" d="M184,155.7c-0.1-1.8-1.4-2.6-4.2-2.6c-1.4,0.1-3-0.4-3.2,1.7c-0.3,2.7-0.9,5.3-1.3,8c-0.1,0.7-0.7,1.8,0.6,2
		c1.1,0.2,1-1,1.1-1.6c0.2-2,0.9-2.8,3-2.8C182.4,160.4,184.2,158,184,155.7z M179.1,159.1c-0.6-0.1-1.7,0.2-1.2-1
		c0.5-1.2-0.7-3.5,1.9-3.5c1.2,0,2.3,0.1,2.4,1.7C182.3,157.9,181,159.1,179.1,159.1z"/>
	<path class="st1" d="M39.8,160.8c0-4.4,2.4-7.5,6-7.7c1.1-0.1,2.1,0,3.1,0.7c0.4,0.3,0.6,0.8,0.4,1.3c-0.3,0.7-0.8,0.5-1.2,0.2
		c-1.7-0.9-3.4-1.1-4.7,0.4c-1.5,1.7-2.1,3.9-1.5,6.2c0.5,1.8,2,2.4,4.2,1.7c0.6-0.2,1.3-1.2,1.8-0.1c0.4,0.9-0.7,1.1-1.4,1.4
		C42.8,166.6,39.8,164.6,39.8,160.8z"/>
	<path class="st1" d="M86.9,154.4c0.1-0.9,0.7-1.2,1.5-1.2c2.1,0,4.3,0,6.4,0c0.4,0,1.1-0.1,1.1,0.6c0,0.5-0.5,0.9-1.1,0.8
		c-3-0.6-3,1.5-3.3,3.5c-0.3,1.9-0.6,3.7-1,5.6c-0.1,0.7-0.3,1.4-1.2,1.2c-1-0.2-0.6-1-0.5-1.6c0.3-2,0.7-4,1.1-6
		c0.5-2.5,0.5-2.5-1.9-2.6C87.6,154.7,87.2,154.8,86.9,154.4z"/>
	<path class="st1" d="M198.7,165.1c-0.3,0-0.7,0-1,0c-2.6,0-2.6-0.1-2.1-2.7c0.5-2.5,0.8-5,1.3-7.5c0.1-0.7,0.2-1.7,1.1-1.6
		c1,0.1,0.7,1.1,0.6,1.8c-0.4,2-0.7,4-1.1,6c-0.3,1.5-0.2,2.6,1.8,2.3c0.1,0,0.2,0,0.2,0c0.8,0.1,2.3-0.2,2.3,0.8
		c0,1.2-1.4,0.5-2.2,0.7C199.3,165.2,199,165.1,198.7,165.1z"/>
	<path class="st1" d="M68.4,165.1c-3.9-0.1-3.7,0.3-2.9-3.6c0.4-2.1,0.7-4.2,1.1-6.3c0.1-0.7,0-2,1.1-1.8c1.2,0.2,0.6,1.4,0.5,2.2
		c-0.4,1.8-0.6,3.7-1,5.5c-0.3,1.5-0.2,2.6,1.8,2.4c0.4-0.1,0.8,0,1.2,0c0.6,0,1.3,0.2,1.3,0.9c0,0.8-0.8,0.6-1.3,0.6
		C69.5,165.1,69,165.1,68.4,165.1z"/>
	<path class="st1" d="M73.4,163.7c0.5-3.1,1.1-6.2,1.6-9.4c0.1-0.5,0.3-1,0.9-1c0.8,0,0.9,0.7,0.8,1.2c-0.5,3.1-1.2,6.3-1.7,9.4
		c-0.1,0.7-0.4,1.1-1.1,0.9C73.1,164.8,73.5,164.2,73.4,163.7z"/>
	<path class="st1" d="M53.1,155c-0.5,2.9-1.1,5.9-1.7,9c-0.1,0.6-0.2,1.2-1,1.1c-0.9-0.2-0.6-0.9-0.5-1.4c0.5-3.1,1-6.1,1.5-9.2
		c0.1-0.6,0.3-1.2,1.1-1C53.1,153.5,53.1,154.2,53.1,155z"/>
	<path class="st1" d="M170.6,163.7c0.6-3.2,1.2-6.3,1.8-9.4c0.1-0.5,0.3-1,0.9-0.8c0.6,0.1,0.8,0.6,0.7,1.1
		c-0.5,3.1-1.1,6.3-1.7,9.4c-0.1,0.6-0.3,1.2-1.1,1C170.4,164.8,170.8,164.1,170.6,163.7z"/>
	<path class="st1" d="M234.4,150.3c-1.1,3.3-3.7,0.5-5.4,2c0.6-1.9,1-2.2,2.3-1.9C232.4,150.6,233.3,151,234.4,150.3z"/>
</g>
</svg>
