<?xml version="1.0" encoding="utf-8"?>
<!-- Generator: Adobe Illustrator 25.0.0, SVG Export Plug-In . SVG Version: 6.00 Build 0)  -->
<svg version="1.1" id="Camada_1" xmlns="http://www.w3.org/2000/svg" xmlns:xlink="http://www.w3.org/1999/xlink" x="0px" y="0px"
	 viewBox="0 0 253.8 187.2" style="enable-background:new 0 0 253.8 187.2;" xml:space="preserve">
<style type="text/css">
	.st0{fill:#349BCD;}
	.st1{fill:#3FDE94;}
</style>
<path class="st0" d="M148.2,78.8c-2.3,2.1-4.4,4-6.5,5.9c-3.5,3.1-7.1,6.2-10.6,9.4c-0.5,0.4-0.8,0.4-1.3,0
	c-9.9-8.8-20-17.5-29-27.2c-6.3-6.8-12.1-14-15.9-22.6c-1.7-3.8-2.7-7.7-3-11.8c-0.5-8.1,2.9-14.5,9.6-18.8c8.7-5.5,17.9-6,27.1-1.5
	c3.6,1.7,6.2,4.8,8.6,8c0.3,0.4,0.3,0.8,0.3,1.3c0,2.8,0,5.7,0,8.5c0,0.9-0.3,1.1-1.1,1.1c-5.7,0-11.4,0-17.1,0
	c-2.5,0-3.4,0.9-3.4,3.4c0,6.4,0,12.8,0,19.2c0,2.4,1,3.3,3.4,3.3c5.7,0,11.4,0,17.1,0c1,0,1.2,0.3,1.2,1.2c0,5.7,0,11.4,0,17.2
	c0,2.3,1,3.4,3.3,3.4C136.5,78.9,142.2,78.8,148.2,78.8z"/>
<path class="st0" d="M168.4,57.1c-4.5,6.1-9.6,11.4-15,16.8c0-1.3,0-2.2,0-3.1c0-4.2,0-8.4,0-12.6c0-0.6-0.1-1.1,0.8-1.1
	C158.8,57.1,163.5,57.1,168.4,57.1z"/>
<path class="st0" d="M225.4,167.6c0-2.9,0-5.8,0-8.8c0-0.7,0.1-1.1,1-1.1c4.7,0,9.3,0,14,0c0.7,0,0.9,0.2,0.9,0.9
	c-0.1,1.2,0.4,2.7-0.2,3.5c-0.6,0.8-2.2,0.2-3.3,0.3c-2,0-3.9,0-5.9,0c-0.7,0-1.1,0.2-1,1c0.1,2.5-0.3,2,2,2.1c2.1,0,4.2,0.1,6.4,0
	c0.9,0,1.2,0.3,1.1,1.2c-0.1,0.7-0.1,1.4,0,2c0.1,1-0.3,1.2-1.2,1.2c-2.4-0.1-4.7,0-7.1,0c-0.8,0-1.2,0.1-1.2,1.1c0.1,2.4-0.3,2,2,2
	c2.5,0,5,0,7.5,0c0.9,0,1.1,0.3,1.1,1.1c-0.1,0.8-0.1,1.7,0,2.5c0,0.7-0.1,1.1-1,1c-4.7,0-9.4,0-14.1,0c-0.7,0-1-0.2-1-0.9
	C225.4,173.6,225.4,170.6,225.4,167.6z"/>
<path class="st0" d="M182.2,164.4c0-1.8,0-3.7,0-5.5c0-0.7,0.2-1.1,1-1c1.2,0.1,2.4,0.1,3.6,0c0.8,0,1,0.2,1,1c0,3.2,0,6.5,0,9.7
	c0,0.5,0,1,0.1,1.5c0.5,2.1,1.8,3.1,4,2.9c1.8-0.2,3-1.4,3.1-3.5s0-4.2,0-6.4c0-1.5,0-3,0-4.4c0-0.7,0.2-0.9,0.9-0.9
	c1.3,0,2.6,0,4,0c0.5,0,0.8,0.1,0.8,0.7c-0.1,3.8,0.1,7.5-0.1,11.3c-0.2,4.8-3.1,7.9-8.5,8.1c-2.9,0.1-5.6-0.3-7.7-2.6
	c-1.4-1.5-2-3.4-2.1-5.5C182.2,168,182.3,166.2,182.2,164.4L182.2,164.4z"/>
<path class="st0" d="M150.3,157.5c2.5,0,4.9,0.6,7,2c0.6,0.4,0.9,0.7,0.3,1.4c-0.6,0.7-1.2,1.5-1.7,2.3c-0.4,0.6-0.7,0.7-1.3,0.3
	c-1.6-1-3.4-1.7-5.3-1.4c-0.7,0.1-1.3,0.3-1.4,1.1c-0.1,0.8,0.4,1.2,1.1,1.4c1.6,0.5,3.2,0.9,4.8,1.4c0.4,0.1,0.8,0.3,1.2,0.4
	c2.6,1.2,3.6,2.7,3.5,5.4s-1.4,4.5-3.9,5.4c-4.5,1.6-8.8,0.7-12.7-2c-0.5-0.4-0.6-0.7-0.1-1.1c0.1-0.1,0.2-0.2,0.2-0.3
	c0.7-0.8,1.2-2,2.1-2.4c1-0.5,1.7,0.8,2.6,1.2c1.5,0.5,3,1,4.7,0.8c0.7-0.1,1.4-0.3,1.5-1.1c0.1-0.9-0.5-1.2-1.1-1.4
	c-1.3-0.4-2.6-0.7-3.9-1.1c-0.8-0.3-1.7-0.5-2.5-0.9c-4.6-2-3.7-7.9-0.6-9.8C146.6,157.8,148.3,157.5,150.3,157.5z"/>
<path class="st0" d="M22.7,157.4c3.4,0.1,6.1,1.1,8.1,3.5c0.4,0.5,0.4,0.8-0.1,1.1c-0.9,0.7-1.8,1.3-2.6,2.1
	c-0.6,0.5-0.9,0.6-1.5-0.1c-1.6-1.7-3.7-2-5.6-1.1s-2.9,3-2.7,5.5c0.2,2.2,1.5,3.9,3.5,4.4s3.6-0.1,5-1.6c0.5-0.6,0.9-0.6,1.4-0.1
	c0.7,0.6,1.4,1.1,2.2,1.6c0.9,0.5,1,1,0.3,1.8c-2.9,3.3-8,4.4-12.2,2.5c-4-1.8-6.5-6.2-5.9-10.4c0.7-4.9,3.9-8.4,8.5-9.1
	C21.8,157.5,22.4,157.4,22.7,157.4z"/>
<path class="st0" d="M83.8,157.8c2.6,0,5.2,0,7.8,0c0.7,0,1,0.2,1,1c-0.1,1,0,2,0,3c0,0.7-0.2,0.9-0.9,0.9c-1.4,0-2.7,0-4.1,0
	c-0.8,0-1,0.2-1,1c0,4.2,0,8.5,0,12.7c0,1-0.3,1.3-1.3,1.2s-2.1-0.1-3.1,0s-1.2-0.3-1.2-1.2c0-4.2,0-8.3,0-12.5c0-1-0.2-1.4-1.2-1.3
	c-1.2,0.1-2.5,0-3.7,0c-0.7,0-1-0.3-0.9-1c0-1,0.1-1.9,0-2.9c-0.1-0.8,0.3-1,1-1C78.8,157.8,81.3,157.8,83.8,157.8z"/>
<path class="st0" d="M99.3,151.5c1.4,0.1,2.5,0.5,3.6,0.9c0.9,0.3,1.7,0.4,2.4-0.6c0.6-0.9,1.5,0,2.3,0.2c0.7,0.1,0.3,0.7,0.2,1.1
	c-0.7,2.8-2.2,3.6-5,2.9c-0.7-0.2-1.4-0.4-2.1-0.6c-0.9-0.2-1.6-0.2-2.2,0.7c-0.7,0.9-1.5,0-2.2-0.1s-0.4-0.7-0.2-1.2
	C96.7,152.5,97.8,151.4,99.3,151.5z"/>
<path class="st0" d="M197.3,153.4c-2.3,2-4.5,3.9-7.9,2.8c0.9-1.3,1.7-2.6,2.6-4c0.2-0.4,0.5-0.3,0.8-0.2
	C194.4,152.5,195.8,152.9,197.3,153.4z"/>
<g>
	<path class="st1" d="M175.2,45.6c0-3.7,0-7.4,0-11.1c0-2.2-1-3.3-3.2-3.3c-5.8,0-11.6,0-17.4,0c-0.9,0-1.2-0.2-1.2-1.2
		c0-5.7,0-11.4,0-17c0-1.3-0.2-2.5-1.6-3.3c2.2-0.5,4.3-0.3,6.3,0c7.8,1.1,14.2,4.6,18.4,11.6c2.6,4.4,3,9.1,2.2,14
		c-0.5,3.4-1.6,6.7-3,9.8c-0.1,0.2-0.2,0.4-0.3,0.6C175.3,45.6,175.2,45.6,175.2,45.6z"/>
	<path class="st1" d="M116.5,134.6c0.6-2.3,1.2-4.3,1.7-6.3c1.4-5.2,2.8-10.4,4.1-15.6c0.2-0.8,0.5-1.1,1.4-1.1
		c2.3,0.1,4.6,0.1,6.8,0c0.9,0,1.2,0.2,1.2,1.1c0,2.8,0,5.6,0,8.4c0.1,8,0.1,15.9,0.2,23.9c0,0.9-0.2,1.3-1.2,1.2
		c-1.6-0.1-3.1-0.1-4.7,0c-0.9,0-1.1-0.2-1.2-1.1c-0.1-6.3-0.2-12.5-0.3-18.8c0-0.2,0-0.4-0.3-0.6c-0.4,1.7-0.9,3.4-1.3,5.1
		c-0.9,3.4-1.7,6.9-2.5,10.4c-0.2,0.8-0.5,1.2-1.4,1.1c-1.8-0.1-3.6-0.1-5.4,0c-0.9,0-1.2-0.2-1.5-1.1c-1.2-5-2.4-10.1-3.7-15.1
		c0-0.1-0.1-0.3-0.5-0.4c0,3,0,6,0,8.9c0,3.5-0.1,7-0.2,10.5c0,0.8-0.2,1.1-1,1c-1.6-0.1-3.2-0.1-4.8,0c-1.1,0.1-1.2-0.3-1.2-1.3
		c0.1-9.7,0.2-19.3,0.3-29c0-1.2,0-2.3,0-3.5c0-0.6,0.2-0.8,0.8-0.8c2.6,0,5.2,0,7.8,0c0.6,0,0.7,0.3,0.8,0.8
		c1.8,6.9,3.7,13.9,5.5,20.8C116.2,133.6,116.3,133.9,116.5,134.6z"/>
	<path class="st1" d="M22.6,111.6c3,0,5.9,0,8.9,0c0.8,0,1.1,0.2,1,1c-0.1,1.6-0.1,3.3,0,4.9c0,0.8-0.3,1-1,1c-3.4,0-6.9,0-10.3,0
		c-1,0-1.2,0.3-1.2,1.2c0.1,1.5,0.1,3,0,4.6c0,0.8,0.2,1,1,1c2.4,0,4.7,0,7.1,0c0.8,0,1.1,0.2,1.1,1.1c-0.1,1.6-0.1,3.2,0,4.8
		c0,0.8-0.2,1-1,1c-2.4,0-4.7,0-7.1,0c-0.9,0-1.1,0.3-1.1,1.1c0,4,0,7.9,0,11.9c0,0.9-0.3,1.2-1.1,1.1c-1.8-0.1-3.5,0-5.3,0
		c-0.7,0-1.1-0.1-1.1-1c0-10.9,0-21.7,0-32.6c0-0.8,0.3-1,1.1-1C16.6,111.6,19.6,111.6,22.6,111.6z"/>
	<path class="st1" d="M171.3,128.2c0.1-2.3-0.2-5.3,0.1-8.3c0.6-6.2,4.4-8.4,9.6-8.8c3.2-0.3,6.4,0.2,9.6,0.7c0.6,0.1,0.8,0.4,0.8,1
		c0,1.6-0.1,3.2,0,4.8c0,1-0.4,1-1.1,0.9c-2.3-0.4-4.6-0.8-7-0.7c-3.1,0.1-4.5,1.4-4.5,4.5c-0.1,4.3-0.1,8.6,0,12.9
		c0,3.4,1.3,4.5,4.7,4.7c2.3,0.1,4.5-0.2,6.6-0.7c0.9-0.2,1.4-0.1,1.3,1c-0.1,1.6,0,3.2,0,4.8c0,0.5,0,0.9-0.6,1
		c-4.3,0.7-8.5,1.4-12.8,0.3c-3.8-1-6-3.6-6.5-7.8c-0.1-0.5-0.2-1-0.2-1.5C171.2,134.2,171.3,131.6,171.3,128.2z"/>
	<path class="st1" d="M206.5,128.9c0,5.3,0,10.6,0,15.9c0,1-0.2,1.4-1.2,1.3c-1.8-0.1-3.5-0.1-5.3,0c-0.7,0-1-0.2-1-1
		c0-10.9,0-21.7,0-32.6c0-0.8,0.2-1.1,1-1c1.8,0,3.7,0,5.5,0c0.7,0,0.9,0.2,0.9,0.9C206.5,118,206.5,123.5,206.5,128.9z"/>
	<path class="st1" d="M148.1,108.9c1.4-2.5,2.7-4.9,4-7.2c0.2-0.3,0.3-0.5,0.7-0.5c2.2,0,4.4,0,6.9,0c-1.9,2.5-3.7,4.9-5.5,7.3
		c-0.2,0.3-0.5,0.4-0.9,0.4C151.6,108.9,150,108.9,148.1,108.9z"/>
	<path class="st1" d="M94.7,145c-2.3-4.3-4.7-8.6-7.1-12.9c-0.5-0.8-0.6-1.3,0.4-1.9c4.5-2.9,5.9-10,3-14.5
		c-1.8-2.8-4.6-3.9-7.7-4.3c-4.3-0.6-8.7,0-13,0c-0.7,0-0.7,0.5-0.7,1c0,10.9,0,21.9,0,32.8c0,0.9,0.3,1.1,1.1,1.1
		c1.7,0,3.4-0.1,5.1,0c1.1,0.1,1.3-0.3,1.3-1.3c-0.1-3.6,0-7.2,0-10.8c0-0.4-0.2-0.8,0.3-1.1c0.8-0.5,2.7,0.2,3.2,1
		c2,3.8,4,7.6,6,11.3c0.2,0.5,0.5,0.9,1.1,0.9c2.4,0,4.9,0,7.5,0C95,145.7,94.8,145.3,94.7,145z M84.9,122.8
		c-0.2,1.9-1.4,3.3-3.4,3.6c-1.2,0.2-2.4,0.1-3.6,0.1c-0.6,0-0.7-0.4-0.7-0.9c0-1.2,0-2.4,0-3.6s0-2.3,0-3.5c0-0.4,0-0.7,0.5-0.8
		c1.6-0.2,3.2-0.3,4.7,0.2C84.4,118.7,85.1,120.1,84.9,122.8z"/>
	<path class="st1" d="M165.9,144c-3-10.4-6.1-20.8-9.1-31.3c-0.2-0.8-0.6-1.2-1.5-1.1c-2.2,0.1-4.3,0.1-6.5,0
		c-0.8,0-1.2,0.3-1.4,1.1c-0.8,3-1.7,6-2.6,9c-2.3,7.8-4.5,15.6-6.8,23.4c-0.3,0.9-0.1,1.2,0.9,1.1c1.8-0.1,3.7-0.1,5.5,0
		c0.8,0,1.1-0.2,1.3-1c0.3-1.6,0.8-3.3,1.1-4.9c0.1-0.7,0.5-0.9,1.1-0.9c2.6,0,5.3,0.1,7.9,0c0.9,0,1.2,0.3,1.3,1.1
		c0.3,1.6,0.7,3.2,1.1,4.8c0.1,0.7,0.4,0.9,1.1,0.9c1-0.1,2,0,3,0c0.6,0,1.2,0,1.8,0C166.6,146.2,166.6,146.2,165.9,144z
		 M154.8,133.2c-1.8,0-3.7,0-5.5,0c-0.7,0-0.8-0.2-0.7-0.9c1.1-4.7,2.2-9.4,3.3-14.1c0.1,0,0.2,0,0.2,0c0.4,1.6,0.8,3.2,1.1,4.8
		c0.7,3.1,1.4,6.2,2.2,9.3C155.6,133,155.5,133.2,154.8,133.2z"/>
	<path class="st1" d="M63.4,145.1c-3.2-10.9-6.3-21.8-9.5-32.6c-0.2-0.6-0.5-0.9-1.2-0.9c-2.3,0-4.6,0-6.8,0c-0.7,0-1.1,0.2-1.2,0.9
		c-0.7,2.5-1.4,5-2.2,7.5c-2.4,8.4-4.8,16.7-7.3,25c-0.3,1-0.1,1.2,0.9,1.1c1.9-0.1,3.8-0.1,5.6,0c0.7,0,1-0.2,1.1-0.9
		c0.3-1.6,0.7-3.1,1.1-4.7c0.2-0.9,0.5-1.2,1.5-1.2c2.5,0.1,5,0.1,7.5,0c0.9,0,1.3,0.3,1.4,1.1c0.3,1.5,0.7,3,1,4.6
		c0.2,0.8,0.4,1.2,1.3,1.1c0.9-0.1,1.9,0,2.9,0s2,0,3,0C63.5,146.2,63.6,146,63.4,145.1z M52,133.2c-1.9,0-3.8,0-5.6,0
		c-0.7,0-0.8-0.2-0.6-0.9c1.1-4.7,2.2-9.5,3.3-14.2c0.1,0,0.2,0,0.2,0c0.9,3.7,1.7,7.4,2.6,11c0.2,1,0.4,2.1,0.7,3.1
		C52.8,133,52.7,133.2,52,133.2z"/>
	<path class="st1" d="M241.1,145.2c-2.9-9.8-5.7-19.6-8.5-29.4c-0.4-1.3-0.4-3.1-1.3-3.9c-1-0.9-2.8-0.1-3.9-0.3c-1.4,0-2.5,0-3.6,0
		c-0.8,0-1.1,0.2-1.3,1c-1.3,4.8-2.8,9.5-4.1,14.3c-1.8,6.1-3.5,12.2-5.3,18.3c-0.2,0.8-0.2,1.1,0.8,1.1c1.9-0.1,3.8-0.1,5.6,0
		c0.8,0,1.1-0.3,1.2-1.1c0.3-1.6,0.8-3.2,1.1-4.8c0.1-0.7,0.4-0.9,1.1-0.9c2.7,0,5.4,0,8.1,0c0.6,0,0.9,0.2,1.1,0.8
		c0.4,1.7,0.8,3.4,1.2,5.1c0.1,0.7,0.4,0.8,1,0.8c2,0,4.1-0.1,6.1,0C241.3,146.2,241.4,145.9,241.1,145.2z M229.7,133.2
		c-1.9,0-3.8,0-5.6,0c-0.4,0-0.9,0.1-0.7-0.6c1.1-4.8,2.3-9.6,3.4-14.4c0.1,0,0.2,0,0.2,0c1.1,4.7,2.2,9.5,3.3,14.2
		C230.5,133,230.4,133.2,229.7,133.2z"/>
</g>
<path class="st0" d="M214.2,158.1c-3.1-0.5-6.2-0.1-9.3-0.3c-1,0-1.1,0.3-1.1,1.2c0,2.9,0,5.8,0,8.7c0,3,0,5.9,0,8.9
	c0,0.5-0.1,1,0.7,1c3.3-0.1,6.6,0.3,9.9-0.3c5.1-0.9,8.2-4.7,8.2-9.9C222.5,162.5,219.2,158.8,214.2,158.1z M212.3,172.7
	c-3,0.3-3,0.3-3-2.7c0-0.8,0-1.6,0-2.4c0-1.4,0-2.8,0-4.2c0-0.5,0.1-0.8,0.7-0.8c0.9,0.1,1.8-0.1,2.7,0.1c2.8,0.6,4.3,2.4,4.2,5.2
	C216.9,170.7,215.1,172.4,212.3,172.7z"/>
<path class="st0" d="M123.6,157.4c-6,0-10.7,4.4-10.7,10.3c0,5.8,4.5,10.3,10.5,10.3c6,0,10.7-4.5,10.7-10.3
	S129.5,157.4,123.6,157.4z M123.5,173c-2.8,0-5-2.3-5-5.3c0-3.1,2.1-5.3,5-5.3s5.1,2.3,5.1,5.4C128.5,170.8,126.3,173,123.5,173z"/>
<path class="st0" d="M72,174.4c-0.7-1-1.3-2-2-3c-0.4-0.6-0.3-0.8,0.3-1.1c2.7-1.6,3.7-4,3.2-7.1c-0.5-2.7-2.4-4.6-5.3-5.1
	c-3.8-0.6-7.6-0.1-11.4-0.3c-0.6,0-0.7,0.3-0.7,0.7c0,6.1,0,12.1,0,18.2c0,0.6,0.2,0.8,0.8,0.8c1.3,0,2.6,0,3.8,0
	c0.6,0,0.8-0.2,0.8-0.8c0-1.4,0-2.8,0-4.2c0-0.3-0.1-0.7,0.2-0.9c0.5-0.3,2.2,0,2.6,0.5c1,1.6,2.1,3.1,3.1,4.7
	c0.2,0.4,0.5,0.7,1,0.7c1.8,0,3.7,0,5.7,0C73.4,176.3,72.7,175.3,72,174.4z M66,167.2c-1.3,0.1-2.6,0.1-3.9,0.1
	c-0.6,0-0.6-0.4-0.6-0.8c0-1,0-2.1,0-3.1c0-0.6,0.1-0.9,0.8-0.8c0.5,0.1,1.1,0,1.7,0c0,0,0,0,0,0.1c0.6,0,1.3-0.1,1.9,0
	c1.4,0.1,2.2,1,2.2,2.2C68.1,166,67.3,167.1,66,167.2z"/>
<path class="st0" d="M173.2,158.3c-0.2-0.5-0.5-0.6-1-0.6c-1.1,0-2.2,0.1-3.4,0c-0.9-0.1-1.3,0.3-1.7,1.1c-1.4,3.4-2.9,6.8-4.3,10.3
	c-1.2,2.8-2.3,5.6-3.6,8.5c1.1,0,2,0,2.9,0c2.8,0,2.8,0,3.9-2.6c0.3-0.7,0.7-0.9,1.4-0.9c1.2,0.1,2.4,0.2,3.6,0
	c2.2-0.3,3.7,0.3,4.1,2.7c0.1,0.5,0.4,0.8,1,0.8c1.7,0,3.3,0,5.2,0C178.6,171,175.9,164.6,173.2,158.3z M171.8,169.8c-1,0-2,0-3,0
	c-0.4,0-0.8,0-0.5-0.6c0.6-1.6,1.3-3.2,2-5.1c0.7,1.9,1.3,3.5,2,5.1C172.5,169.8,172.2,169.8,171.8,169.8z"/>
<path class="st0" d="M53.7,176.4c-2.1-5-4.2-10-6.4-15c-0.5-1.2-0.7-2.8-1.6-3.5c-1-0.8-2.6-0.1-3.9-0.3c-1-0.1-1.4,0.3-1.8,1.2
	c-2.4,5.9-5,11.8-7.4,17.6c-0.1,0.3-0.4,0.6-0.3,1.1c1.7,0,3.3,0,5,0c0.5,0,0.8-0.3,0.8-0.7c0.4-2.7,2.2-3.3,4.5-2.9
	c0.4,0.1,0.8,0,1.2,0c3,0,3,0,4.1,2.7c0.3,0.7,0.6,0.8,1.2,0.8c1.3,0,2.6-0.1,3.8,0C54.1,177.6,54,177.2,53.7,176.4z M44.5,169.8
	L44.5,169.8c-3.8,0.2-3.8,0.2-2.4-3.1c0.3-0.7,0.6-1.5,1-2.5c0.7,1.8,1.3,3.3,1.9,4.9C45.2,169.6,45.1,169.8,44.5,169.8z"/>
<path class="st0" d="M112.5,176.5c-2.6-6-5.1-12-7.6-18.1c-0.3-0.6-0.5-0.9-1.2-0.8c-1.2,0.1-2.3,0-3.5,0c-0.6,0-1,0.2-1.3,0.8
	c-2.6,6.1-5.1,12.2-7.7,18.3c-0.3,0.6-0.2,0.9,0.5,0.8c0.7,0,1.4,0,2,0c2.8,0,2.9,0,3.9-2.6c0.3-0.7,0.7-0.9,1.4-0.9
	c1.8,0.1,3.7,0.1,5.5,0c0.8,0,1.2,0.2,1.4,0.9c0.5,2.1,1.6,3.3,4,2.6c0.6,0,1.3,0,1.9,0C112.7,177.6,112.8,177.4,112.5,176.5z
	 M103.2,169.8c-1,0-1.9,0-2.9,0c-0.6,0-0.7-0.2-0.5-0.7c0.6-1.5,1.2-3.1,2-4.9c0.7,1.8,1.3,3.3,1.9,4.8
	C103.9,169.5,103.9,169.8,103.2,169.8z"/>
</svg>
