<?xml version="1.0" encoding="utf-8"?>
<!-- Generator: Adobe Illustrator 25.2.1, SVG Export Plug-In . SVG Version: 6.00 Build 0)  -->
<svg version="1.1" id="Camada_1" xmlns="http://www.w3.org/2000/svg" xmlns:xlink="http://www.w3.org/1999/xlink" x="0px" y="0px"
	 viewBox="0 0 247.2 202.1" style="enable-background:new 0 0 247.2 202.1;" xml:space="preserve">
<style type="text/css">
	.st0{fill:#AED127;}
	.st1{fill:#17A9CB;}
	.st2{fill:#0EA9CF;}
	.st3{fill:#FEFEFD;}
	.st4{fill:#2EAAC6;}
	.st5{fill:#A5F0F8;}
</style>
<g>
	<g>
		<path class="st0" d="M185.3,27.5c-14.8,32.1-23.8,65.3-7.4,100.4c-8.2-32.9-2.1-63.2,16-92.9c14.3,22.7,18.9,45.3,8.2,69.2
			c-11.3,25.6-29.8,42.4-58.4,45.8c-2.6-3.8-0.2-6,1-8.1c8.5-14.7,12.6-30.7,16.7-47c6-24-3.1-43.5-15.9-62.2
			c-4.8-7-8.4-6.2-13.2,1.7c13.4,13.4,22,29.3,23.6,48.6c1.4,16.3-3.8,31.3-9,46.2c-2.1,6-4.4,12.1-8.1,17.5
			c-1.6,2.3-2.9,4.8-6.2,4.4c-9.5-1.1-19.1-1.8-28.2-6.2c1.6-2.9,2.9-5.6,5.8-6.7c2.5-1,4.4-2.8,4.5-5.3c0.3-9.2,6-16.4,8.4-24.7
			c1.9-6.7,0.5-14.3,3.9-20.9c5.5-10.7,0.2-22,1.9-32.8c2.1-13.1-5.1-24.6-5.1-37.2c0-3.8-4.3-5.5-4.9-10.6
			c12.1-5.2,24.1-2.8,36,1.1C166.7,11.6,177.7,16.6,185.3,27.5z M172.2,32.7c-0.1-5.6-3.5-8.5-7.9-9.1c-5-0.7-8.4,3.3-8.8,7.6
			c-0.5,5,3.2,8.9,8.2,9.2C168.5,40.7,171.2,37,172.2,32.7z"/>
		<path class="st1" d="M80.3,10.4c8.7,0,16.5-2.8,23.7-7.9c6.2-4.4,9.4-2.9,10.2,4.5c0.4,3.2,0.6,6.2,3.2,8.8
			c3.6,3.5,1.5,6.6-1.9,8.3c-4.5,2.3-9.4,3.9-14.3,5.4c-3.3,1.1-6.3,0.9-8.2-2.9c-2.4-4.9-5.2-3.8-7.8-0.1c-1.7,2.3-4,3.7-6.6,4.4
			c-3.9,1-7-0.3-8.2-4.4c-1.2-3.8-0.8-7,4.4-7.3C80.3,18.9,78.4,13.6,80.3,10.4z"/>
		<path class="st2" d="M104.3,55.5c-0.5,0-1.1,0-1.6-0.1c-0.8-3.5-2.3-6.4-5.8-7.8c-4.1-1.1-7,1.2-10.1,3.5
			c-5.3,3.9-10.7,0.9-11.2-5.7c-0.2-2.5,0.6-4.9,3.2-4.4c7,1.4,8-3.2,8.6-9.2c8.8,6.5,16,1,23.2-1.9c10-4.1,10.9-3.6,11.6,7.3
			c0.1,2.3,1,4.6,1.6,7c0.6,4.6-1,6.8-6.1,6.5C112.7,50.4,107.6,50.7,104.3,55.5z"/>
		<path class="st1" d="M84.4,117.9c-15.5-1.4-17.3-3.5-10.7-13.3c8.5,2.6,8.5,2.6,13.4-1.2c4.8,6.6,12.1,6.6,19.2,7.2
			c9,0.7,10,2.6,5.8,10.6c-0.2,0.5-0.4,1-0.8,1.4c-2.4,3.3,2.6,11.1-5.9,10.7C92.5,132.5,85.7,127.2,84.4,117.9z"/>
		<path class="st2" d="M92.4,94.4c-1.8,0.5-3.6,1.1-5.5,1.4c-3.4,0.5-7.3,1.6-9.6-2c-2.1-3.2-0.9-6.6,0.7-10.3
			c5.1,0.5,11.6,6.2,12.8-4.9c7.3,8.1,15.7,6.4,23.6,6c8.1-0.4,9.2,0.5,6.8,8.1c-1.4,4.3,0.2,8.6-0.9,12.8c-3.7,0-7.5,0.1-11.2,0.1
			l0.1,0c-4.1-2.9-8.9-1.9-13.4-2.8l0-0.1C95.7,99.5,98.7,95.1,92.4,94.4z"/>
		<path class="st2" d="M123.8,69.9c0.5,1.1,1,2.2,1.5,3.3c-7.1,6.7-20.8,6.8-26.1,0.1l0.1,0.2c-0.8-5.1-3.3-4.2-6.2-1.7l0.1-0.1
			c-4.2-0.7-7.8,1.4-11.7,2l-0.2,0.1c0.1-2.6-2.1-5-0.4-7.5c2.4-2.9,7.5,0.9,8.8-4l0.3-0.5c2.4,0,4-1.3,4.9-3.5
			c2.2,0.3,4.4,0.7,6.6,1c4.8,0.8,9.7,2.8,14.1-1.3l-0.1,0.1c4.4,0.5,9.7-0.1,8.5,7.1c0,0.5-0.1,1-0.3,1.5
			C122,68,122.1,69,123.8,69.9z"/>
		<path class="st2" d="M80.2,128.1c6.9,3.2,13.8,6.4,20.9,9.6c-0.7,5.6-5.2,9.4-5.6,14.8c-0.1,0.7-1.5,2-2.2,2
			c-6.3-0.2-10.3-5.2-15.6-7.5c-4.1-1.7-1.7-5.5-1-8.5c-1.1-6.8-6.3-2.8-9.6-3.7l0,0.1c-0.3-1-1-1.5-2-1.2l0.1-0.6l-0.1,0.6
			c0.1-1.2-0.4-1.8-1.6-1.6l0-0.3c0.1-1.5,0.2-2.9,0.3-4.4c-0.3-1.2,0-2.1,1.1-2.7c0.9-0.1,1.8-0.2,2.7-0.3l0.1-0.1
			c0.3,3.4,2.5,3.8,5.3,3.6c0.5,0,0.9,0,1.4,0c1.2,0,2.1-0.5,2.4-1.8l-0.2-0.1C77.7,126.8,79,127.4,80.2,128.1z"/>
		<path class="st1" d="M99.2,73.3c5.3,6.7,19,6.6,26.1-0.1c3.9,5.5,1.1,8-4.3,7.9c-5.3-0.1-10.5-0.2-15.8,0.2
			C99.5,81.7,99.1,77.5,99.2,73.3z"/>
		<path class="st1" d="M104.3,55.5c3.3-4.8,8.4-5.1,13.3-4.8c5,0.3,6.6-1.9,6.1-6.5c2.7,2,1.5,4.7,1.1,7.9
			C117.9,52.1,111,53.5,104.3,55.5z"/>
		<path class="st1" d="M89.5,62.4c-1.3,4.9-6.4,1.1-8.8,4c-1.7,2.4,0.5,4.9,0.4,7.5c-5.8-2.8-3.1-7.3-2.9-11.1
			C82.5,60.1,86,64.5,89.5,62.4z"/>
		<path class="st1" d="M123.8,65.3c1.2-7.2-4.1-6.6-8.5-7.1c3.3-2.3,6.8-3.9,9.9-0.3C127.6,60.5,125.2,63,123.8,65.3z"/>
		<path class="st1" d="M92.4,94.4c6.4,0.7,3.4,5.1,3.3,8.4C91.3,101.3,94.3,96.9,92.4,94.4z"/>
		<path class="st1" d="M95.7,102.9c4.5,0.9,9.4-0.1,13.4,2.8C104.7,104.4,99.3,107.9,95.7,102.9z"/>
		<path class="st1" d="M109.1,105.7c3.7,0,7.5-0.1,11.2-0.1C116.6,111.6,112.8,107.4,109.1,105.7z"/>
		<path class="st1" d="M115.4,58.1c-4.3,4.1-9.3,2.1-14.1,1.3C105.9,57.5,110.8,58.9,115.4,58.1z"/>
		<path class="st1" d="M81.4,73.7c3.9-0.6,7.6-2.8,11.7-2C89.6,74.5,85.9,76.4,81.4,73.7z"/>
		<path class="st1" d="M96.9,47.6c3.5,1.4,5.1,4.3,5.8,7.8C98.1,54.8,98.6,50.3,96.9,47.6z"/>
		<path class="st1" d="M94.8,58.4c-0.9,2.2-2.5,3.4-4.9,3.5c0.3-2,0.4-4.3,2.3-5.4C93.3,55.8,94.4,57,94.8,58.4z"/>
		<path class="st1" d="M67,134.8c3.3,0.9,8.6-3.1,9.6,3.7C74.2,135.2,69.6,137.5,67,134.8z"/>
		<path class="st1" d="M93.1,71.7c2.9-2.4,5.4-3.4,6.2,1.7C97.3,72.4,95.3,71.6,93.1,71.7z"/>
		<path class="st1" d="M80.2,128.1c-1.2-0.7-2.5-1.3-3.7-2c0.2-1.1,0.9-2,2-1.8C80.6,124.7,79.7,126.8,80.2,128.1z"/>
		<path class="st1" d="M72.8,127.9c-2.7,0.3-5-0.2-5.3-3.6C70.1,124.4,71.2,126.6,72.8,127.9z"/>
		<path class="st1" d="M123.8,69.9c-1.7-0.9-1.8-2-0.3-3.2C123.6,67.8,123.7,68.9,123.8,69.9z"/>
		<path class="st1" d="M63.6,127.3c-0.1,1.5-0.2,2.9-0.3,4.4C61.6,130.1,62.3,128.7,63.6,127.3z"/>
		<path class="st1" d="M67.5,124.4c-0.9,0.1-1.8,0.2-2.7,0.3C65.6,123.6,66.4,122.8,67.5,124.4z"/>
		<path class="st1" d="M76.6,126.2c-0.3,1.2-1.2,1.7-2.4,1.8C75,127.3,75.8,126.8,76.6,126.2z"/>
		<path class="st1" d="M63.3,132c1.2-0.1,1.8,0.4,1.6,1.6C64,133.5,63.4,133,63.3,132z"/>
		<path class="st1" d="M65,133.6c1.1-0.2,1.7,0.2,2,1.2C66,135,65.3,134.6,65,133.6z"/>
		<path class="st3" d="M172.2,32.7c-1,4.3-3.7,8-8.5,7.7c-5-0.3-8.7-4.2-8.2-9.2c0.4-4.3,3.8-8.2,8.8-7.6
			C168.7,24.2,172,27.2,172.2,32.7z"/>
	</g>
	<g>
		<path class="st4" d="M95.6,173.1c-5.8-0.1-10.1,4.2-10.3,10.6c-0.2,6.9,3.4,11.1,9.4,11.2c6.2,0,10-3.9,10.2-10.5
			C105.1,177.5,101.6,173.3,95.6,173.1z M94.7,191.5c-3.8-0.2-5.6-2.8-5.5-7.9c0.1-4.7,2.5-7.5,6.2-7.3c3.7,0.2,5.4,2.8,5.3,8
			C100.8,189.4,98.8,191.7,94.7,191.5z"/>
		<path class="st4" d="M133.9,170.7c-2.1-0.6-3.6-1.1-5-1.3c-2.1-0.3-4.4-0.3-5.2,2.2c-0.8,2.2,0,4.1,2.1,5.3c1.8,1,3.7,1.9,5.5,2.8
			c3.4,1.7,4.9,4.6,4.3,8.1c-0.5,3.4-2.6,5.9-6.3,6.8c-5,1.2-9.2-0.4-10.5-4.1c2.2-1.4,3.9,0.7,5.8,0.9c2.9,0.3,5.8,0.1,7.1-2.9
			c1.4-3.4-1.3-5.1-3.8-6.3c-2.2-1.1-4.5-1.7-6.3-3.5c-2.3-2.3-3-5.2-1.7-8.1c1.6-3.4,4.7-5,8.6-4.6
			C130.9,166.2,133.8,166.1,133.9,170.7z"/>
		<path class="st4" d="M162.7,184c0-1.6-0.2-3.1,0-4.7c0.4-2.6-1.8-8.1,4.7-4.2c0.5,0.3,1.8-0.7,2.8-1.1c4.5-1.9,8.8,0.1,9.4,4.8
			c0.6,4.4,0.2,9,0.3,13.5c0,1.2-0.5,2.1-1.7,2.1c-1.6,0.1-2-1.1-2-2.4c-0.1-3.5,0-6.9-0.1-10.4c-0.1-2.6-0.6-5.4-3.8-5.1
			c-2.8,0.3-5.3,2-5.6,5.2c-0.3,3.5-0.1,6.9-0.1,10.4c0,1.3-0.3,2.5-2,2.4c-1.3-0.1-1.7-1.1-1.7-2.2
			C162.7,189.5,162.7,186.8,162.7,184C162.7,184,162.7,184,162.7,184z"/>
		<path class="st4" d="M43.2,180.5c-2,2.6-4.4,1.6-6.5,1.5c-3.1-0.1-4.5,1-4.2,4.2c0.2,2.1,0.1,4.2,0,6.2c-0.1,1.1-0.7,2-1.9,2
			c-1.4,0-1.7-1-1.7-2.1c0-7.8,0-15.6,0-23.4c0-2,1.1-2.8,2.9-2.9c3.1,0,6.2,0,9.4,0c1.1,0,2.1,0.3,2.2,1.7c0.1,1.7-1.1,1.9-2.4,2
			c-1.2,0.1-2.4,0.2-3.6,0c-4.1-0.6-4.9,1.4-4.9,5.1c0,3.4,1.1,4.7,4.5,4.5C38.8,179.2,41,178.5,43.2,180.5z"/>
		<path class="st4" d="M151.6,191.5c-2.1,0.3-4.1,0.1-6.1-0.9c-1.8-0.9-2.4-2.5-2.1-4.4c0.3-2,2.1-1.5,3.3-1.5
			c2.2-0.1,4.5-0.2,6.8,0c3.6,0.3,4.1-1.7,3.6-4.5c-0.4-2.3-1.3-4.2-3.4-5.5c-3.8-2.4-7.3-2-10.6,0.5c-3.4,2.5-4.5,9.2-2.9,13.4
			c1.5,4.1,4.4,6.2,8.6,6.1c2.8-0.1,6.3,0.6,7.9-3.3C154.5,190.2,153.1,191.3,151.6,191.5z M148.6,176.3c3.4-0.3,4.4,2,5.1,5.3
			c-3.6,0.8-6.6,0.5-9.9,0.2C143.8,178.3,145.5,176.6,148.6,176.3z"/>
		<path class="st4" d="M211.1,187.6c1.9-4.6,1.8-10.1,6.1-13.9c2.2,2.3,0.7,4.1,0.2,5.7c-2,6.3-4.2,12.5-6.5,18.6
			c-0.7,2-1.2,5-5.6,3.8c5.9-8-1-14.1-2.4-21.1c-0.3-1.4-0.9-2.6-1.3-4c-0.3-0.9-1.2-2,0.2-2.7c1.4-0.7,2.3,0.3,2.8,1.5
			c1.5,4,3,8.1,4.5,12.2c0.1,0.7,0,1.5,1,1.4C210.9,189.1,211.2,188.4,211.1,187.6z"/>
		<path class="st4" d="M70.6,176.2c-2.4,1.4-3.7-0.2-5.3,0c-1.4,0.2-2.9,0.1-3.3,1.9c-0.4,1.6,0.3,2.7,1.6,3.5
			c1.5,0.8,3.1,1.6,4.6,2.4c2.2,1.2,3.5,2.8,3.1,5.4c-0.4,2.4-2.1,4-4.2,4.9c-4.3,1.8-8.4,0.2-8.9-3.6c2,0.4,4,0.9,6,1
			c1.4,0.1,2.8-0.4,3.2-2c0.3-1.5-0.3-2.7-1.7-3.4c-0.9-0.5-1.9-0.9-2.9-1.2c-3-0.9-4.7-2.8-4.8-6c-0.1-3.2,2.3-4.5,4.8-5.4
			C65.8,172.5,68.4,173.2,70.6,176.2z"/>
		<path class="st4" d="M197.5,176.4c-1.3,1.3-2.6-0.2-3.9-0.1c-1.6,0.1-3.7-0.6-4.4,1.7c-0.6,2.1,0.8,3.1,2.5,3.9
			c1.2,0.6,2.4,1.4,3.7,1.9c2.4,1,3.5,2.8,3.2,5.3c-0.4,2.9-1.9,4.9-4.9,5.4c-3.4,0.5-7.1,1.2-9-3.1c2.3-1.6,3.7,0.4,5.3,0.3
			c1.9-0.1,4.1,0.2,4.6-2.3c0.4-2-0.9-3.2-2.8-3.8c-1.1-0.4-2.3-0.8-3.3-1.5c-2-1.4-4-3-3.3-5.9c0.7-2.8,3-4.2,5.6-4.9
			C193.5,172.5,195.8,173.7,197.5,176.4z"/>
		<path class="st4" d="M48.7,184.1c0-2.6,0-5.2,0-7.8c0-1.3,0.2-2.5,1.9-2.5c1.2,0.1,1.9,0.8,1.9,2c0,5.6,0,11.1,0,16.6
			c0,1.2-0.7,1.9-2,2c-1.3,0-1.8-0.9-1.8-2C48.7,189.7,48.7,186.9,48.7,184.1C48.7,184.1,48.7,184.1,48.7,184.1z"/>
		<path class="st4" d="M80.1,184.5c0,2.2,0,4.5,0,6.7c0,1.4,0,3-2,3c-1.7,0-1.6-1.5-1.6-2.7c0-4.8-0.1-9.7,0-14.5
			c0-1.3-0.2-3.1,1.9-2.9c1.9,0.1,1.7,1.9,1.7,3.2C80.2,179.7,80.1,182.1,80.1,184.5z"/>
		<path class="st4" d="M78.5,169.9c-1.4-0.1-2.1-0.7-2.2-1.9c-0.1-1.5,0.7-2.3,2.2-2.2c1.2,0.1,2,0.6,2,1.9
			C80.6,169.2,79.7,169.8,78.5,169.9z"/>
		<path class="st4" d="M50.8,165.8c1.2,0.1,1.8,0.7,1.8,2c0,1.5-0.9,2.2-2.3,2.1c-1.5-0.1-2-1.2-1.8-2.5
			C48.7,166.1,49.6,165.7,50.8,165.8z"/>
		<path class="st5" d="M211.1,187.6c0,0.8-0.2,1.5-1,1.6c-0.9,0.1-0.9-0.7-1-1.4C209.8,187.7,210.5,187.7,211.1,187.6z"/>
	</g>
</g>
</svg>
