<?xml version="1.0" encoding="utf-8"?>
<!-- Generator: Adobe Illustrator 25.2.1, SVG Export Plug-In . SVG Version: 6.00 Build 0)  -->
<svg version="1.1" id="Camada_1" xmlns="http://www.w3.org/2000/svg" xmlns:xlink="http://www.w3.org/1999/xlink" x="0px" y="0px"
	 viewBox="0 0 247.2 202.1" style="enable-background:new 0 0 247.2 202.1;" xml:space="preserve">
<style type="text/css">
	.st0{fill:#F26B35;}
	.st1{fill:#A5BC4F;}
	.st2{fill:#DDDDDD;}
</style>
<g>
	<path class="st0" d="M25.6,150.5c4.3,1.2,8.7,1.2,13,0.3c3-0.6,3.9-1.9,4.1-4.9c0.1-1.5,0-3.1,0.1-4.6c0.1-1.3-0.5-1.8-1.8-1.8
		c-2.5,0-5.1,0-7.6,0c-1.6,0-2.3-0.7-2.2-2.2c0-1.9,0-3.7,0-5.6c0-1.3,0.6-1.8,1.8-1.8c5.1,0,10.2-0.1,15.2,0
		c2.9,0.1,4.8,2.2,4.8,5.1c0.1,5.1,0,10.1,0,15.2c0,1.8-0.4,3.6-1.4,5.1c-0.7,1.2-2,1.7-3,2.6c-3.2,1.5-6.7,1.8-10.1,2
		c-7.4,0.5-14.7,0.3-21.5-3.5c-10.4-5.9-16.6-17.2-14.1-29.6c2.6-12.7,13.2-21.9,25.8-22.8c7.1-0.5,13.6,1,19.5,5.1
		c0.4,0.2,0.7,0.5,1,0.8c1.9,1.7,1.9,2.2,0.2,4.1c-1,1.1-2.1,2.1-3.1,3.2c-1.1,1.1-1.9,1.1-3.1,0c-7.1-6-16.4-6.3-23.2-0.3
		c-6.2,5.4-8.1,12.4-6.2,20.3c0.2,0.8,0.4,1.5,0.7,2.3c0.4,1.6,1.2,2.9,2.3,4.1l0,0c0.9,1.5,2.3,2.6,3.6,3.8
		c0.3,0.2,0.6,0.5,0.8,0.7C22.5,149.2,23.9,150.2,25.6,150.5z"/>
	<path class="st0" d="M204.9,107.5c0-3,0-3-3-3c-1.2,0-2.5,0.1-3.7,0c-1.8-0.1-2.4,0.7-2.3,2.4c0.1,4.8,0.1,9.7,0,14.5
		c0,1,0.5,2.4-0.5,2.9c-0.8,0.4-1.6-0.9-2.4-1.5c-7-5.4-16-4.6-21.5,2.4c-5,6.3-5.7,13.4-3.4,20.9c1.9,6.4,5.7,11.4,12.5,13.3
		c10.9,2.9,24-2.5,24.2-17.2c0.1-5.6,0-11.3,0-16.9h0.1v-8.7C204.9,113.4,204.9,110.4,204.9,107.5z M192.8,149.3
		c-3,3.9-8.1,4.5-12,1.4c-6.3-5-7.1-16.3-1.7-22.3c3.4-3.8,9.1-3.6,12.8,0.3c1.4,1.5,2.3,3.2,3.2,5c1,3.7,1,7.4,0.1,11.2
		C194.7,146.6,193.8,148,192.8,149.3z"/>
	<path class="st0" d="M146.6,51.4c-5.3-3.7-9-3.4-13.6,1.2c-2.1,2.1-5.2,2.3-7.2,0.5c-2.1-1.9-2.4-5-0.4-7.3
		c7.6-9.1,19.7-9,27.2-2.8c8.2,6.8,9.5,19.1,2.5,27c-3.5,4-7.9,7.2-12,10.7c-4.5,3.9-9.1,7.6-13.4,11.7c-4.6,4.3-6.9,9.5-5,15.9
		c0.1,0.3,0.2,0.6-0.1,0.9c-5.4-3.5-7.7-12.1-5-18.6c1.8-4.4,5-7.7,8.6-10.7c5.9-5,11.8-10.1,17.7-15.1c1.6-1.3,2.5-3,3.2-4.9
		c0.5-1.5,0.5-3,0-4.5v0C148.8,53.8,147.9,52.5,146.6,51.4z"/>
	<path class="st0" d="M90.5,133.1c-0.1-7.8-5.4-13.2-13.2-13.8c-3.4-0.4-6.8-0.2-10.2-0.1c-1.2,0-2.4,0.4-3.6,0.7
		c-0.9,0.2-1.6,0.8-1.7,1.8c0,1.3-0.1,2.6,0,3.9c0,0.7,0.3,1.2,1.3,1c1.7-0.4,3.5-0.5,5.2-0.6c3.1-0.3,6.1,0.1,8.9,1.5
		c1.3,0.7,3,1.2,3.3,3.1c0.1,0.7,0.3,1.5,0.3,2.2c0.1,2.3-0.1,2.6-2.4,2.6c-1.9,0-3.8,0-5.8,0.1c-3.7,0.2-7.5,0.6-10.8,2.4
		c-3.9,2.1-6.4,5.4-6.4,9.9c0,4.5,1.8,8.4,6,10.3c5.9,2.7,12,3.2,18.1,0.1c0.5-0.2,1.3-1.2,1.6-0.1c0.3,1.5,1.3,1.4,2.4,1.4
		c1.6,0,3.2-0.1,4.8,0c1.8,0.1,2.2-0.6,2.2-2.3C90.5,149.2,90.6,141.2,90.5,133.1z M81,145.2c0.1,6.5-5,9.5-11.8,7.1
		c-2.2-0.8-3.8-2-4.1-4.5c-0.3-2.4,0.8-4.3,3-5.2c3.8-1.5,7.8-1.3,11.7-1.1c0.7,0,1.1,0.5,1.1,1.2C81,143.5,81,144.3,81,145.2z"/>
	<path class="st0" d="M243.1,129.9c-4.6-12.1-20.4-15.5-29.8-6.6c-6.6,6.3-8,19.3-3,28c1.2,1.5,2.5,3,3.8,4.6
		c0.3,0.2,0.5,0.3,0.8,0.5c9.9,7.5,24,3.7,28.3-7.8C245.4,142.5,245.4,136,243.1,129.9z M232.9,149.3c-3.4,4.5-9.3,4.6-12.9,0.3
		c-4.1-4.8-5-12.7-2.2-18.4c3.4-6.7,10.7-7.3,15-1.2c2.1,2.9,2.9,6.3,3,10.2C235.8,143.3,235.1,146.5,232.9,149.3z"/>
	<path class="st0" d="M95,68.8c-1.4-1.6-2.2-3.4-2.8-5.4c-0.4-1.2-0.1-1.8,1.2-1.8c0.4,0,0.9,0,1.3,0c16,0,32.1,0,48.1,0
		c0.9,0,1.7,0,2.6,0.1c0.9,0.1,1.1,0.6,0.5,1.2c-0.9,0.9-1.9,1.8-2.9,2.6c-5.8,5-11.6,9.9-17.4,14.9c-2.6,2.2-4.7,4.7-6.3,7.7
		c-1,1.9-1.1,1.9-2.8,0.4c-4.8-4.2-9.7-8.5-14.5-12.7c-1.3-1.6-2.8-2.9-4.5-4l0,0C97.1,70.6,95.8,70,95,68.8z"/>
	<path class="st0" d="M93.6,139c0-6.1,0-12.1,0-18.2c0-1.7,0.5-2.4,2.2-2.3c1.8,0.1,3.6,0.1,5.4,0c1.4,0,2.1,0.5,2,1.9
		c-0.1,1.7,0.6,1.8,2,1.2c4.5-2.1,9.2-2.9,14.1-1.6c1.7,0.4,2.4,1.3,2.1,3c-0.1,0.7-0.2,1.3-0.2,2c-0.1,1.3-0.8,1.8-2.2,1.5
		c-2.9-0.6-5.8-0.5-8.6,0.3c-4.5,1.2-7,4.1-7.1,8.8c-0.1,6.9-0.1,13.9-0.1,20.8c0,3.1,0,3.1-3,3.1c-1.5,0-3-0.1-4.5,0
		c-1.6,0.1-2.2-0.6-2.2-2.2C93.6,151.2,93.6,145.1,93.6,139z"/>
	<path class="st0" d="M124.4,139c0-6.1,0-12.1,0-18.2c0-1.7,0.6-2.4,2.3-2.3c1.8,0.1,3.6,0.1,5.4,0c1.4,0,2.1,0.5,2,2
		c-0.1,1.7,0.6,1.8,2,1.2c4.3-2.1,8.8-2.8,13.5-1.7c1,0.2,2.3,0.2,2.6,1.5c0.3,1.6,0.2,3.3-0.6,4.9c-0.3,0.7-1.1,0.3-1.7,0.2
		c-2.9-0.5-5.8-0.5-8.7,0.3c-4.7,1.3-7.1,4.3-7.1,9.2c-0.1,6,0,12,0,18c0,0.9,0,1.7,0,2.6c0,2.9,0,2.9-2.9,2.9c-1.5,0-3.1-0.1-4.6,0
		c-1.6,0.1-2.2-0.6-2.1-2.2C124.4,151.2,124.4,145.1,124.4,139z"/>
	<path class="st0" d="M164.5,139.2c0,6,0,12,0,18c0,1.7-0.5,2.4-2.2,2.3c-1.7-0.1-3.5-0.1-5.2,0c-1.8,0.1-2.3-0.7-2.3-2.4
		c0-9.9,0-19.8,0-29.7c0-2.3,0-4.6,0-6.9c0-1.4,0.6-2,2-2c1.9,0,3.7,0.1,5.6,0c1.8-0.1,2.2,0.8,2.2,2.4
		C164.5,127,164.5,133.1,164.5,139.2C164.5,139.2,164.5,139.2,164.5,139.2z"/>
	<path class="st1" d="M89.5,45.8c-1.5-0.1-0.7-0.8-0.3-1.3c3.1-3.7,6.9-6.2,11.7-7.1c8.1-1.5,16,2.1,20.2,9.1
		c0.7,1.2,1.2,2.5,1.6,3.7c0.1,0.3,0.3,0.8,0,1c-0.5,0.4-0.8-0.1-1.1-0.4c-1.8-1.9-3.8-3.5-6.1-4.8c-2.9-1.7-6.1-2.8-9.3-3.6
		c-1.4-0.7-2.6,0.4-3.8,0.5c-2.9,0.4-5.7,0.9-8.6,1.5C92.3,44.8,90.9,45.3,89.5,45.8z"/>
	<path class="st1" d="M109.6,44.3c4.7,1.7,8.6,4.5,12.1,8.1c1.2,1.3,0.6,1.8-0.6,2.2c-3.3,0.9-6.5,0.8-9.7-0.4
		c-2.3-0.8-4.5-2.1-6.2-4c-1.7-1.8-1.7-2.5,0.2-3.8C106.6,45.6,108,44.7,109.6,44.3z"/>
	<path class="st0" d="M159.8,104.5c5.3,0.1,4.7-0.7,4.8,4.7c0,5.1,0.6,4.7-4.7,4.7c-5.4,0-4.9,0.5-4.9-4.7
		C155,103.9,154.4,104.6,159.8,104.5z"/>
	<path class="st1" d="M109.6,44.3c-0.6,1.2-1.6,2-2.8,2.5c-1.5,0.6-2.6,1.6-1.6,3.4c-1.3-0.5-2.1-1.7-3.2-2.4
		c-3.3-2-6.7-2.9-10.6-2.2c-0.6,0.1-1.2,0.1-1.8,0.1c5.1-3.4,10.8-4.1,16.7-3.4c-0.4,0-0.7,0-1.4,0.1
		C106.6,43.2,108.1,43.7,109.6,44.3z"/>
	<path class="st1" d="M39.7,171.2c-1.3,1.1-1.5,2.4-2.1,3.7c-0.3,0.6-0.6,1.1-1.4,1.1c-0.7-0.1-0.9-0.6-1.1-1.1
		c-0.4-1.2-0.9-2.4-1.7-3.6c-0.1,1.1-0.1,2.2-0.2,3.4c0,0.6-0.1,1.2-0.8,1.2c-0.7,0-0.8-0.7-0.9-1.2c0-1.5,0-3.1,0-4.6
		c0-0.8,0.3-1.5,1.2-1.7c0.9-0.2,1.5,0.4,1.9,1.2c0.4,0.7,0.6,1.5,0.9,2.2c0.2,0.4,0.3,0.9,0.8,0.9c0.6,0,0.6-0.5,0.8-0.9
		c0.4-0.9,0.7-1.8,1.2-2.7c0.3-0.6,0.9-0.9,1.6-0.8c0.7,0.1,1.1,0.6,1.1,1.3c0,1.8,0,3.6,0,5.4c0,0.4-0.1,0.9-0.7,0.9
		c-0.5-0.1-0.6-0.6-0.6-1C39.7,173.5,39.7,172.4,39.7,171.2z"/>
	<path class="st1" d="M142.9,175c-0.2-0.4-0.3-0.8-0.2-1.4c0-0.7,0.5-1.9-1.1-1.3c-0.4,0.1-0.8,0.7-1.3,0.2c-0.5-0.6-0.1-1,0.3-1.5
		c0.6-0.7,1-1.5,0.3-2.3c-0.9-1-2-1.1-3.2-0.7c-1.1,0.4-1.5,1.3-1.3,2.4c0.2,0.8,0.1,1.5-0.3,2.3c-1.1,1.8-0.3,3.4,1.8,3.5
		c1.5,0.1,3-0.1,4.4-0.1C143,176,143.2,175.6,142.9,175z M138.8,169.2c0.4,0,0.6,0.2,0.6,0.6c0,0.4-0.2,0.6-0.6,0.6
		c-0.4,0-0.6-0.2-0.6-0.6C138.2,169.4,138.4,169.2,138.8,169.2z M138.7,174.9c-0.7-0.1-1.2-0.3-1.2-1.1c0-0.4,0.3-0.6,0.7-0.6
		c0.5,0,1.3,0.7,1.3,1.1C139.4,174.9,139.1,175,138.7,174.9z"/>
	<path class="st1" d="M152.6,171.2c-0.5,1.3-0.2,2.5-0.4,3.6c-0.1,0.4-0.1,0.9-0.7,0.9c-0.4,0-0.6-0.5-0.6-0.8
		c-0.2-1.8-0.2-3.6,0-5.4c0.1-0.6,0.4-1.1,1-1.2c0.8-0.2,1.3,0.2,1.7,0.8c0.7,1.1,1.2,2.5,2.5,3.7c0-1.3,0-2.4,0-3.4
		c0-0.5,0.2-1.1,0.8-1.1c0.7,0,0.8,0.6,0.8,1.1c0.1,1.7,0.1,3.3,0.1,5c0,0.7-0.3,1.4-1.1,1.5c-0.8,0.1-1.3-0.4-1.7-1
		C154.2,173.8,154,172.3,152.6,171.2z"/>
	<path class="st1" d="M58.5,172.3c0.8-1,0.4-2,0.6-2.9c0.1-0.4,0.1-0.9,0.7-0.9c0.5,0,0.7,0.4,0.8,0.9c0.3,1.8,0.4,3.7,0,5.5
		c-0.3,1.3-1.5,1.5-2.3,0.4c-0.5-0.7-0.8-1.5-1.3-2.3c-0.3-0.5-0.5-1.4-1.2-1.3c-0.8,0.1-0.4,1-0.5,1.6c-0.1,0.6-0.1,1.1-0.1,1.7
		c0,0.3-0.2,0.6-0.5,0.7c-0.5,0.1-0.7-0.3-0.7-0.7c-0.2-1.9-0.3-3.8,0-5.7c0.2-1.3,1.4-1.4,2.4-0.4
		C57.4,169.8,57.6,171.1,58.5,172.3z"/>
	<path class="st1" d="M110.3,170.6c-0.6-1.8-2.9-2.9-5.1-2.5c-2.2,0.4-1.4,2.2-1.6,3.6c0,0.1,0,0.2,0,0.4c0,0.4,0,0.7,0,1.1
		c0.1,1.2-0.2,2.6,1.5,2.9c1.2,0.2,2.4,0.1,3.4-0.5C110.2,174.7,111,172.5,110.3,170.6z M106.8,174.5c-1.7,0-1.2-1.6-1.3-2.6
		c0.2-1-0.4-2.5,1.4-2.5c1.4,0,1.9,1.2,1.9,2.5C108.7,173.3,108.4,174.6,106.8,174.5z"/>
	<path class="st1" d="M117,168c-2.6,0-3.7,1.2-3.7,4.2c0,2.9,1,4,3.5,4c2.5,0,4-1.6,4-4.3C120.7,169.2,119.5,168,117,168z
		 M117.1,174.8c-1.3,0.1-2.3-1.1-2.2-2.8c0-1.3,0.5-2.5,2-2.6c1.2-0.1,2.1,1,2.1,2.9C118.9,173.3,118.7,174.6,117.1,174.8z"/>
	<path class="st1" d="M192.4,173.6c-0.2-0.6-0.4-1.1-0.1-1.8c0.5-1.1,0.8-2.2-0.3-3c-1.1-0.9-2.4-1-3.7-0.6c-1.4,0.5-1,1.8-1.1,2.9
		c0,0.4,0,0.7,0,1.1c0,0.4,0,0.9,0,1.3c0.1,0.8-0.3,2,0.8,2.2c1.1,0.2,0.9-1,1.2-1.7c0.2-0.8,0.7-0.8,1.2-0.3
		c0.2,0.2,0.4,0.5,0.5,0.8c0.4,0.6,0.7,1.8,1.6,1.3C193.5,175.3,192.7,174.3,192.4,173.6z M189.9,171.5c-0.6,0-0.9-0.4-0.9-0.9
		c0-0.6,0.2-1,0.8-1.1c0.7-0.1,1,0.4,1,1C190.8,171,190.5,171.4,189.9,171.5z"/>
	<path class="st1" d="M83.9,171.4c0,0.5,0,1,0,1.5c-0.1,2.4-1,3.3-3.1,3.3c-2.3,0-3.4-1-3.6-3.3c-0.1-1.1,0-2.2,0-3.3
		c0-0.5,0.2-1.1,0.8-1.1c0.6,0,0.8,0.5,0.8,1c0.1,1,0.1,2.1,0.1,3.1c0.1,1,0.3,1.9,1.5,1.9c1.2,0,1.5-0.9,1.6-1.9
		c0.1-1,0.1-2.1,0.2-3.1c0-0.5,0.1-1.2,0.9-1.2c0.7,0.1,0.6,0.7,0.6,1.2C84,170.2,83.9,170.8,83.9,171.4
		C83.9,171.4,83.9,171.4,83.9,171.4z"/>
	<path class="st1" d="M50.8,174.4c-0.6-1.5-1.1-3.5-2-5.4c-0.5-1.2-2-1-2.6,0.3c-0.8,1.8-1.4,3.7-2,5.5c-0.1,0.4-0.1,0.8,0.2,1
		c0.5,0.3,0.8,0,1.1-0.3c1.4-1.5,2.7-1.4,4.1,0.1c0.2,0.3,0.6,0.5,1,0.3C51,175.6,50.9,175.2,50.8,174.4z M47.9,172.6
		c-0.2,0.3-0.6,0.3-0.8,0c-0.6-0.7-0.2-1.3,0.3-2.1C48,171.2,48.4,171.8,47.9,172.6z"/>
	<path class="st1" d="M167.3,174.4c-0.6-1.7-1.2-3.4-1.8-5c-0.2-0.6-0.7-1.1-1.4-1.1c-0.8,0-1.3,0.4-1.6,1.1
		c-0.7,1.7-1.2,3.5-1.8,5.2c-0.1,0.4-0.2,0.9,0.3,1.2c0.5,0.3,0.8-0.1,1.1-0.5c0.5-0.5,1.1-0.9,1.8-0.8c0.7,0,1.3,0.3,1.8,0.9
		c0.3,0.4,0.7,0.8,1.3,0.5C167.6,175.5,167.5,174.9,167.3,174.4z M164.2,172.7c-0.6,0.1-0.9-0.3-0.9-0.9c0-0.4,0.1-0.8,0.6-1
		c0.6,0,0.7,0.5,0.7,0.9C164.8,172.2,164.8,172.7,164.2,172.7z"/>
	<path class="st1" d="M100.7,174.6c-0.7-1.8-1.3-3.8-2.1-5.6c-0.5-1.2-1.9-1.1-2.5,0c-0.9,1.8-1.7,3.7-2.1,5.7
		c-0.1,0.4-0.3,0.9,0.3,1.1c0.5,0.2,0.8-0.1,1.1-0.4c1.2-1.5,2.5-1.5,3.7-0.1c0.3,0.3,0.6,0.6,1.1,0.4
		C100.8,175.6,100.8,175.2,100.7,174.6z M97.7,172.6c-0.2,0.3-0.6,0.3-0.8,0c-0.6-0.8-0.2-1.4,0.4-2.1
		C97.9,171.2,98.3,171.8,97.7,172.6z"/>
	<path class="st1" d="M202.6,174.7c-0.9-1.8-1.2-4.1-2.5-6c-0.6-0.8-1.5-0.7-2,0.1c-1.1,1.9-1.7,4.1-2.3,6.2c-0.1,0.3,0,0.6,0.3,0.8
		c0.3,0.2,0.6,0.1,0.8-0.2c1.5-2,2.9-1.6,4.4,0c0.3,0.3,0.6,0.4,1,0.2C202.6,175.6,202.6,175.3,202.6,174.7z M199.6,172.6
		c-0.2,0.3-0.6,0.3-0.8,0c-0.6-0.7-0.2-1.3,0.3-2.1C199.7,171.2,200,171.8,199.6,172.6z"/>
	<path class="st1" d="M183.9,171.5c0,3.7-1.2,5.1-4,4.7c-1.2-0.2-2.1-0.8-2.4-2c-0.4-1.6-0.3-3.2-0.1-4.8c0-0.4,0.2-0.9,0.8-0.9
		c0.6,0,0.8,0.5,0.9,1c0.1,1.1,0.1,2.2,0.1,3.3c0.1,1,0.2,2,1.5,2c1.2,0,1.7-0.9,1.8-2c0.1-1,0.1-2.1,0.1-3.1c0-0.5,0-1.1,0.7-1.1
		c0.7,0,0.7,0.6,0.7,1.1C183.9,170.2,183.9,170.9,183.9,171.5z"/>
	<path class="st1" d="M125.6,176.2c-0.2,0-0.7-0.1-1.2-0.2c-0.3-0.1-0.6-0.3-0.6-0.6c0-0.4,0.4-0.4,0.7-0.4c0.7,0,1.5,0.2,1.7-0.6
		c0.3-1-0.7-1.3-1.3-1.8c-1.2-0.8-1.9-1.9-1.2-3.3c0.6-1.2,1.8-1.5,3-1.1c0.4,0.1,0.9,0.2,0.9,0.7c0,0.6-0.6,0.5-1,0.5
		c-0.4,0-0.9,0-1.1,0.5c-0.2,0.6,0.2,0.9,0.6,1.2c0.4,0.3,0.8,0.6,1.2,0.9c0.9,0.8,1.3,1.7,0.9,2.8
		C127.8,175.8,126.9,176.1,125.6,176.2z"/>
	<path class="st1" d="M74.4,170.1c-0.2-1.4-1.8-2.2-3.5-2c-1.7,0.1-1.8,1.4-1.8,2.7c0,0.5,0,1,0,1.5h0.1c0,0.9,0,1.7,0,2.6
		c0,0.4,0.1,0.9,0.7,0.9c0.4,0,0.6-0.4,0.7-0.8c0.2-1,0.8-1.6,1.8-1.8C73.8,172.7,74.6,171.7,74.4,170.1z M72.5,170.8
		c-0.1,0.6-0.4,1-1.1,1c-0.7-0.1-0.8-0.6-0.8-1.2c0-0.6,0.2-1.1,0.9-1.1C72.3,169.6,72.6,170.1,72.5,170.8z"/>
	<path class="st1" d="M211.4,174.8c0.8,0.1,1.5,0.2,1.7-0.5c0.3-1-0.7-1.3-1.3-1.8c-1-0.7-2.1-1.4-1.5-2.8c0.5-1.3,1.7-1.7,3.1-1.5
		c0.5,0.1,1.1,0.2,1.1,0.8c0,0.6-0.6,0.4-1,0.4c-0.5,0-1.1,0-1.2,0.6c-0.2,0.6,0.3,0.9,0.7,1.2c0.4,0.3,0.9,0.5,1.2,0.8
		c1,0.9,1.2,2.5,0.3,3.5c-0.8,0.9-2.9,1.1-3.8,0.4c-0.2-0.2-0.5-0.5-0.3-0.8C210.7,174.5,211.2,174.8,211.4,174.8z"/>
	<path class="st0" d="M77.3,119.3c-2.7,0-5.3,0.1-8,0c-1.8,0-3.6,0.4-5.3,0.9c-1.8,0.5-2.8,3.8-1.7,5.3c0.5,0.7,1.2,0.5,1.9,0.5
		c3-0.1,6-0.6,9.1-0.1c2.4,0.4,4.5,1,6.4,2.6c0.7,0.6,1.2,1.1,0.9,2c-4-4.7-9.4-4.8-14.8-3.9c-4.4,0.7-4.2,0.5-4.1-3.6
		c0-3.1,0.3-3.4,3.3-3.7C69.1,118.9,73.2,118.3,77.3,119.3z"/>
	<path class="st1" d="M170.9,172.8c-0.1-1.4,0.4-2.9-1.5-3.8c-0.6-0.3,0-0.8,0.5-0.9c0.9-0.1,1.7-0.1,2.6-0.1c0.6,0,1.5-0.2,1.8,0.5
		c0.3,0.8-0.7,0.8-1.1,1.2c-1,1-0.6,2.3-0.8,3.5c-0.1,0.9,0.7,2.5-0.8,2.5c-1.3,0-0.5-1.6-0.7-2.5
		C170.9,173.2,170.9,173,170.9,172.8z"/>
	<path class="st1" d="M87.4,172c0-0.9,0-1.7,0-2.6c0-0.4,0.2-0.9,0.7-0.9c0.6-0.1,0.9,0.4,0.9,0.9c0.1,0.9,0.1,1.7,0.1,2.6
		c0,1.3,0,2.5,1.6,2.9c0.6,0.2,0.9,0.7,0.2,1.1c-0.8,0.5-1.8,0.4-2.7,0.1c-0.8-0.3-0.9-0.9-0.9-1.6C87.3,173.6,87.3,172.8,87.4,172
		C87.3,172,87.3,172,87.4,172z"/>
	<path class="st1" d="M65.6,172.1c0,0.9,0,1.9,0,2.8c0,0.4-0.2,0.9-0.7,1c-0.6,0.1-0.9-0.5-0.9-1c-0.2-1.8-0.2-3.7,0-5.5
		c0.1-0.4,0.3-0.9,0.8-0.9c0.5,0,0.7,0.4,0.8,0.9c0.1,0.9,0.1,1.8,0.1,2.8C65.7,172.1,65.7,172.1,65.6,172.1z"/>
	<path class="st1" d="M205.4,172.1c0.1-1,0.1-2,0.2-2.9c0-0.4,0.2-0.7,0.7-0.8c0.5-0.1,0.8,0.3,0.9,0.7c0.3,2,0.3,3.9-0.1,5.8
		c-0.1,0.4-0.3,0.7-0.7,0.7c-0.5,0-0.7-0.4-0.8-0.9c0-0.9,0-1.8,0-2.8C205.5,172.2,205.5,172.1,205.4,172.1z"/>
	<path class="st0" d="M210.2,151.3c1.5,1.3,3,2.6,3.8,4.6C212.3,154.7,211.1,153.2,210.2,151.3z"/>
	<path class="st0" d="M16.7,143.8c-1.6-0.9-2.2-2.3-2.3-4.1C15.2,141.1,15.9,142.5,16.7,143.8z"/>
	<path class="st2" d="M149,55.4c0.9,1.5,1,3,0,4.5C149,58.4,149,56.9,149,55.4z"/>
	<path class="st0" d="M25.6,150.5c-1.8-0.1-3.3-0.9-4.5-2.2C22.7,148.8,24.1,149.8,25.6,150.5z"/>
	<path class="st0" d="M20.2,147.6c-1.7-0.8-2.8-2.1-3.6-3.8C17.9,145.1,19,146.4,20.2,147.6z"/>
	<path class="st2" d="M146.6,51.4c1.6,0.9,2.4,2.2,2.3,4C148.2,54.1,147.4,52.7,146.6,51.4z"/>
	<path class="st0" d="M48.6,158c0.8-1.2,2-1.8,3-2.6C51,156.8,49.9,157.5,48.6,158z"/>
	<path class="st0" d="M195.1,145c0.9-3.7,1-7.4-0.1-11.2C196.5,137.5,196.6,141.3,195.1,145z"/>
	<path class="st0" d="M195.1,145c0.9-3.7,1-7.4-0.1-11.2C196.8,137.5,196.9,141.3,195.1,145z"/>
</g>
</svg>
