<?xml version="1.0" encoding="utf-8"?>
<!-- Generator: Adobe Illustrator 25.2.1, SVG Export Plug-In . SVG Version: 6.00 Build 0)  -->
<svg version="1.1" id="Camada_1" xmlns="http://www.w3.org/2000/svg" xmlns:xlink="http://www.w3.org/1999/xlink" x="0px" y="0px"
	 viewBox="0 0 1000 1000" style="enable-background:new 0 0 1000 1000;" xml:space="preserve">
<style type="text/css">
	.st0{fill:#0DB59E;}
	.st1{fill:#7BB5CF;}
	.st2{fill:#606062;}
	.st3{fill:#FEFEFE;}
</style>
<g>
	<path class="st0" d="M451.5,445.6c-6.2,0.7-8.2-5.4-12-8.1c-9.1-6.4-17.1-14.3-25.3-21.8c-19.8-18.3-39.7-36.5-57.1-57.2
		c-13.8-16.3-28.6-32-36.9-52.2c4.3-0.2,8.2-1.9,12-3.7c2.3-1.1,3.8-2.6,2.2-5.2c-7.1-11.5-6.4-23.8-3.9-36.4
		c5.2-7.8,13.6-11.1,21.5-15.1c9,0,18.1,0,27.1,0c21.1,6.5,41.2,15.1,58.8,28.7c10.4,8,21.2,15.2,26.2,28.9
		c3.4,9.4,10.8,17.6,20.6,22.4c0,0-0.1-0.1-0.1-0.1c8.5,9.3,20,14.1,31,19.1c13.6,6.1,22,15.8,25.9,29.8c5.8,20.7,0.8,42.2-19.2,54
		c-8.1,0.8-15.4,2.8-18,11.8c0,0,0.1-0.1,0.1-0.1c-1.8-0.3-3.5-0.4-4.7,1.2c-5.5-1-11-2-16.5-3c0-4.1,0-8.5-4.8-9.8
		c-5.2-1.4-21.8,9.1-23.8,14.6c0,0,0-0.1,0-0.1C452.9,443.1,451.9,443.9,451.5,445.6z"/>
	<path class="st1" d="M847.3,623c20.9-4.1,41.8-8.2,62.7-12.2v-16.6c-11.3-34.8-50.5-30.8-76.4-13c1.4-11.1,1.4-11.1-10.5-11.1h-1.5
		c-13.6,0-13.9-0.1-10.8-13.2c1.9-8.1,2.4-16.8,8.5-23.5c3-3.2,6.2-4.2,10.6-2.6c4.4,1.7,6.9,4.5,6.2,9c-1.2,7.9,2.2,10.4,9.5,9.2
		c2-0.3,4-0.1,6-0.1c11.5,0,13.3-3.2,7.8-13.8c-3.2-6.2-8.5-9.6-14.8-11.8c-5.5-1.9-11.3-1.5-17-1.9c-24.4-1.9-47.8,16.1-51.7,39.8
		c-1,6.1-2.9,10.4-10.2,8.8c-8.1-1.8-6.9,5.3-7.4,8.9c-0.7,5.7,4.6,2.8,7.2,3c3.7,0.3,6.6,0.5,5.8,5.3c-1.2,6.8-2.4,13.7-3.7,20.5
		c-3.8,20.4-7.6,40.9-11.2,61.4c-0.5,3-1.1,6.7,4.3,6.6c8.3-0.2,16.6-0.1,24.9-0.1c2.8,0,4.8-0.8,5.3-4c1.5-9.3,2.9-18.6,4.6-27.9
		c3.4-19,6.9-38,10.3-57c0.4-2.2,0-4.7,3.5-4.6c7.1,0.1,14.2,0,22.4,0c-1.6,2.7-2.2,4.4-3.4,5.5c-9.2,9.1-14.1,20.3-17.2,32.6
		c-5.5,22.2-0.4,39.8,13.8,49.7c18.4,13,51,10,67.8-1.7c6.9-4.8,5.4-11.4,5.8-18.1c-4.6,4.2-10,6.3-15.2,8.6
		c-9.8,4.4-20.2,5.8-29-1.5c-8.8-7.3-10.9-18-10.4-29.1C843.9,626.1,844.6,623.6,847.3,623z M861,582.1c5.4-5.4,11.7-6.1,18.5-3.8
		c6.6,2.2,6.9,8.5,7.8,14.1c1.4,8.2,0.2,14.2-10.6,15c-9.8,0.7-19.4,3.6-30.2,5.8C849.2,601.2,852.5,590.5,861,582.1z"/>
	<path class="st0" d="M67,603.3c3.4-12.7,6.8-25.4,13.8-36.7c10.8-17.6,23.9-33.2,44.7-39c19.4-5.4,38.6-4.4,56.4,6.4
		c4.1,2.5,7,6.2,9,10.7c4.6,10.4,1.9,14.9-9.2,14.9c-2,0-4,0-6,0c-7.5-0.1-14.7,2.7-16.5-10.5c-1.9-13.7-22-16.7-33.3-6.9
		c-10.7,9.3-14.1,22.3-17.9,35c-5.3,17.8-7.7,36.2-8.6,54.5c-0.3,6.7,0.1,14.2,3,21c5.2,12.1,16.3,14.6,31.8,9.9
		c11.9-3.6,15.2-10.8,16.1-21.8c0.7-9.3,3-18.4,4.3-27.7c1.1-8.2-3.8-11.9-11-12.9c-2.6-0.3-4.7-1-4.7-3.4c0-2.6,2.1-4.2,4.9-4.2
		c15.1,0,30.2,0,45.2,0c4.8,0,3.5,3.7,3.2,5.9c-3.1,17.7-6.5,35.3-9.7,52.9c-1.8,9.8-3.5,19.6-5.4,30c-5.9-4.3-11-8.4-17.5-10.5
		c-9.7-3.1-18.6,0.3-27.1,3.8c-16.7,6.8-32.2,4.1-46.1-5.6c-9.5-6.7-15.2-17.2-17.7-29c-0.3-1.4,0.5-3.1-1.5-3.8
		C67,625.4,67,614.3,67,603.3z"/>
	<path class="st2" d="M552.6,716.2c-4-6.7-10.3-5.8-16.5-6c-2.9-0.1-5.1,0.6-5.6,3.5c-1.9,12-6.2,23.5-6.6,35.8H542
		c5.8-4.2,11.4-9.2,8.5-16.9c-1.4-3.8-2.4-5.6,0.9-8.5C553.6,722.2,554.5,719.5,552.6,716.2z M534.9,743.2c-2.1,0.7-2.2-1.9-1.8-3
		c1.2-2.9-0.1-7.9,5.7-7.3c2.4,0.2,4.3,0.7,4.4,1.9C542.7,741.4,538.4,742.1,534.9,743.2z M544.9,722.2c-1.5,4.9-5.3,3.2-8.9,2.6
		c1.3-3.4,0.7-7.9,6.5-7C545.7,718.3,545.4,720.5,544.9,722.2z"/>
	<path class="st2" d="M341.3,728.9c-0.9,7-2.9,13.8-4.4,20.6h-7.5c1.5-5.9,3.1-11.8,4.3-17.7c0.3-1.6,1.5-4.5-1.7-4.7
		c-2.4-0.2-5,0.5-5.6,3.6c-1.1,6.3-2.1,12.5-3.1,18.8h-7.5c1-6,2.2-11.9,2.9-17.9c0.2-1.6,1.3-4.4-2-4.6c-2.3-0.2-3.5,1.3-4,3.5
		c-1.4,6.3-3,12.7-4.5,19h-7.5c1-5.3,2.1-10.5,3-15.7c2.4-13.5,8.4-16.8,21.1-11.2c2.2,0.9,3.3-0.5,4.9-1.2
		C336.3,718.5,342.2,722.1,341.3,728.9z"/>
	<path class="st2" d="M620.3,729.6c-1.2,6.7-2.9,13.3-4.4,19.9h-7.5c1.2-6,2.3-12,3.7-17.9c0.5-1.9,2-4-1.1-4.5
		c-2.2-0.4-5.2,0.9-5.3,2.9c-0.4,6.7-4.1,12.7-3.3,19.6h-7.5c-0.4-5.2,1.5-10.1,2.3-15.1c0.4-2.6,2.8-6.3-1.4-7.2
		c-3.7-0.8-4.5,3.4-5.2,6c-1.4,5.4-2.2,10.9-3.2,16.4h-7.5c1.6-8.1,3-16.3,4.7-24.4c0.7-3.6,12.3-6.8,16.5-4
		c3.2,2.1,5.2,1.7,8.3,0.1C615.1,718.3,621.5,723.2,620.3,729.6z"/>
	<path class="st2" d="M481.1,708.9c-3.4-0.9-5.7,0.3-6.1,4.2c-0.1,1.5-0.8,2.9-0.8,4.3c0,2.5-0.6,3.7-3.4,3.3
		c-7-1-11.5,2.7-14.4,8.5c-3.5,6.9-4,13.8,1.2,20.3h18.1c2.2-11.5,4.4-23.1,6.8-34.6C482.9,712.6,484.8,710,481.1,708.9z
		 M469.7,738.3c-0.3,3.2-1.1,5.3-4.7,5.2c-4.8-0.2-2.8-4-2.8-6.1c0.1-6,2.4-10.3,9.9-10.6C471.1,731.2,470.1,734.7,469.7,738.3z"/>
	<path class="st2" d="M635.5,749.5c2.5-11.9,5.2-23.8,7.4-35.8c0.6-3.2,2-3.4,4.4-3.4c6,0.1,12,0,18.1,0c-0.4,5.2-1.7,8.6-7.5,7.6
		c-6.6-1.1-10.2,1.3-9,9c3.5,0,7.6,0,12.1,0c-0.7,3.7-1.3,6.7-5.3,6c-7.9-1.4-11.3,1.9-10.2,10.4c2.7,3.7,13.4-5.9,12.6,6.3
		C650.6,749.5,643.1,749.5,635.5,749.5z"/>
	<path class="st2" d="M252.5,718.3c-0.4-5.5-4.4-7.6-8.5-7.7c-4.6-0.1-12.4-3.2-13.5,2.3c-2.4,12.2-7.2,23.9-6.7,36.6h7.5
		c0.2-7.4,0.6-13.8,10.6-15.5C249.3,732.8,253.2,726.5,252.5,718.3z M244.6,721.3c-1.3,2.7-0.2,7.8-5.5,7.1c-3.3,0.3-3.8-2-2.9-3.7
		c1.2-2.4-0.2-7,4.8-6.7C243.1,718,245.5,719.3,244.6,721.3z"/>
	<path class="st2" d="M724,720.7c-9.9-2.1-14.9,4.1-18.1,11c-2.6,5.8-2.9,12.9,3.5,17.8H726c1.2-6.4,1.9-13,3.8-19.3
		C731.5,724.3,730.2,722,724,720.7z M722.6,729.2c-2.7,4.5-0.1,11.3-5.8,14c-2.7,1.3-4.5-1.3-4.4-4.3c0.1-5.5,2.3-9.8,7.3-11.9
		C721.7,726.9,723.7,727.3,722.6,729.2z"/>
	<path class="st2" d="M497,720.6c-7.5,0.3-11.1,5.2-13.5,10.8c-2.9,6.6-2,13.2,4.3,18.1h10.6c6.1-3.6,8.4-9.9,10.3-16.1
		C510.5,726.8,503.8,720.3,497,720.6z M493.2,743.2c-4.1,0.8-2.1-3.5-2.4-5.5c-0.9-5.4,1.4-9.6,6.8-10.5c3.7-0.6,1.5,3.3,2.3,4.9
		C499.9,737.3,498.6,742.1,493.2,743.2z"/>
	<path class="st2" d="M450.2,730.8c-1.6,6.1-2.2,12.4-3.2,18.7h-7.5c1-5.5,2.2-11,2.9-16.5c0.2-1.9,1.5-5-1.4-5.8
		c-3.2-0.9-5.5,1.7-5.8,4.4c-0.9,6-4,11.7-3.2,18h-7.5c0.1-8.9,3.1-17.3,4.5-25.9c0.1-0.7,0.4-2,0.6-2c5.7-0.1,11.6-2.1,17.2-0.1
		C451.4,723.1,451.3,726.5,450.2,730.8z"/>
	<path class="st2" d="M296.3,722.7c-4.2-3.8-10.2-3.9-15.2,0.4c-9.2,8-10.1,16.4-3,26.4h12.1c2.5-3.3,5.6-6.3,7.4-9.9
		C300.5,733.9,301.3,727.2,296.3,722.7z M291.6,733.3c-1.4,3.4-0.7,9.2-6.7,10c-3.8,0.5-4.3-3-3.7-5.7c1-4.3,0.8-9.9,7-10.4
		C291.4,726.8,291.8,729.9,291.6,733.3z"/>
	<path class="st2" d="M365.6,721.9c-4.2-2.9-9.3-2.4-13.4,1c-9.7,8.1-10.6,16.2-3.2,26.6H361c2.8-4,6.9-7.2,8.3-12.1
		C371.1,731.6,370.9,725.7,365.6,721.9z M362.5,733.2c-1.3,3.4-0.7,9.1-6.5,10.1c-3.7,0.7-4.5-2.8-3.9-5.6c0.9-4.3,0.8-9.9,6.9-10.6
		C362.1,726.7,362.7,729.6,362.5,733.2z"/>
	<path class="st2" d="M579.1,726.1c-1-3.2-4.5-6.3-7.9-6c-6.8,0.6-12.7,3.7-15.3,10.8c-2.6,7.1-3.2,13.8,4.3,18.7h12.1
		c2.2-2.2,5.4-4.5,0.6-7.1c-1.1-0.6-3.1,0.8-4.8,1c-2.7,0.2-6,0.5-6.3-3.4c-0.3-3.9,3.1-1.9,4.9-2.6c2.9-1.1,5.9-1.7,8.7-3.6
		C578.5,731.8,579.9,728.7,579.1,726.1z M567.4,731.4c-1.4-0.1-2.6-0.1-2.6-1.4c0.1-2,1.5-3,3.4-3.1c1,0,2.2,0.1,2.1,1.3
		C570.3,730.3,568.9,731.2,567.4,731.4z"/>
	<path class="st2" d="M415.4,736.1c0.2-0.3,1,0,1.4-0.2c4.3-2.3,7.6-5.6,5.7-10.7c-1.6-4.3-5.3-5.3-10.1-4.5
		c-13.3,2.4-18.2,17.5-9.2,28.8h13.6c2.3-1.5,1.8-3.7,1.4-5.9c-0.2-1.2-0.9-1.7-2.1-1.4c-3.5,1-8.6,4.1-9.5-1.4
		C405.6,734.6,413.2,739.3,415.4,736.1z M414,727.1c1.2,0.2,1.6,1.2,0.9,2.2c-1.6,2.7-4.1,2.4-6.7,1.6
		C409.6,728.7,410.9,726.5,414,727.1z"/>
	<path class="st2" d="M377.6,749.5c-1.1-8.8-2.1-17.6-3.4-26.3c-0.2-1.6-0.5-2.3,1.2-2.2c2,0.1,4.1-0.8,5.6,2.2
		c2.2,4.4,0.2,8.9,1.5,13.5c8.3-1.9,4.4-18.7,17.8-15.1c-5.2,9.6-10.2,18.8-15.2,28C382.7,749.5,380.2,749.5,377.6,749.5z"/>
	<path class="st2" d="M665.7,749.5c0.6-2.5-6,0.1-3.1-4.5c1.6-2.5,3.1-4,5.9-2.4c1.9,1.1,3.8,1,6.1,0.3c-0.4-4-3.8-6.2-5.8-8.9
		c-3.7-5-2.1-8.7,1.8-11.6c4.8-3.6,10.1-2.5,15,0.1c1.8,0.9-0.2,2.1-0.4,3c-0.4,1.7-1.9,3.5-3.8,2.4c-2.2-1.2-4.1-1.3-7.1-0.2
		c4.6,6.7,13.7,13.1,3.4,21.7C673.7,749.5,669.7,749.5,665.7,749.5z"/>
	<path class="st2" d="M689.8,749.5c-1-4-1.7-7.7-0.4-12.2c1.1-3.6,1-8-0.1-12.6c-1-4.2,4.2-11.5,11.5-12.8c3.2,2.6-3.6,10.1,5.1,9.6
		c-0.7,1.7-0.9,4.1-2.2,5c-7.9,5.9-8.9,11.3-3.3,18.9c0.8,1.1,1,2.7,1.4,4.1C697.9,749.5,693.8,749.5,689.8,749.5z"/>
	<path class="st2" d="M252.5,749.5c1.5-8.4,3.1-16.8,4.6-25.2c0.5-2.8,2.3-3.4,4.8-3.5c1.7-0.1,2.8,1.4,4.9,0.5
		c2.4-1,6.7-2.9,7.5,0.6c0.7,2.7-2.5,5.4-6.6,5.2c-2.1-0.1-3.8,1.9-4.2,3.7c-1.4,6.2-2.3,12.5-3.4,18.7
		C257.5,749.5,255,749.5,252.5,749.5z"/>
	<path class="st2" d="M732,749.5c1.5-8.1,3-16.2,4.7-24.3c0.3-1.4,1.6-3.8,2-3.7c4.7,1.1,9.2-0.3,13.7-0.8c0.6-0.1,2.1,1.3,2,1.6
		c-0.6,1.5-1.4,4.1-2.3,4.2c-10.9,0.5-9.5,9.2-11,15.9c-0.5,2.4-1,4.7-1.5,7.1C737.1,749.5,734.6,749.5,732,749.5z"/>
	<path class="st0" d="M629.2,599.1c-1.2-7.9-5.2-15.5-11.9-20.8c-14.5-11.2-31.1-11.6-48.2-8.9c-13.7,2.2-24.2,10.2-35.1,21.4
		c1.3-7,2-11.9,3.1-16.8c1.1-4.8-0.2-7.1-5.5-7.1c-10.9,0.1-20.2,3.9-27.9,11.7l-2,1.4c-0.7-1.2-0.3-2.1,0.9-2.6
		c0.2-3.4,0.4-6.7,0.6-10.4c-1.4,0-2.9-0.2-4.4,0c-12.8,2.2-25.7,4.4-38.4,6.9c-2.3,0.4-5.8,1.3-6.3,0.1c-2.2-6.5-7.4-4.1-11.1-3.8
		c-7.2,0.7-7.2-3.2-6.4-8.1c1.1-6.2,3.7-12.2,2.5-18.5c-5.3,0.8-10.2,1.5-15,2.4c-6.3,1.1-13.4,1-18.4,4.2
		c-2.8,1.8-1.8,9.2-3.4,13.8c-0.7,2,1.1,6.3-2.7,5.9c-9.3-1-18.1,2.9-27.6,1.5c-20.2-3.2-39.8-2.2-57.7,9.9
		c-17.3,11.6-22.6,32.9-0.2,47.6c10,6.6,20.7,12.2,30.9,18.5c2.8,1.7,6.2,3.9,5.3,8.3c-0.8,4.2-3.7,5.8-7.7,6.7
		c-9.7,2.3-19,2.9-28.6-0.9c-7.9-3.2-14.2-8.6-21.2-14.7c0,7-6.1,13.1-1,19c3.2,3.7,8.3,6.2,13,8.2c20,8.6,40,5.5,58.5-3.7
		c11.5-5.7,21.1-15.4,20.1-30.5c-0.8-12.2-10.5-18-19.1-24.1c-9.2-6.5-19.2-11.9-28.3-18.5c-5.7-4.1-4.5-8.8,2-11.7
		c2-0.9,4.2-1.3,6.4-1.6c11.6-1.6,22.9,0.3,34,3.2c4,1.1,6,1.3,8.1-2.7c2.2-4.1,6.7-1.8,10.1-1.8c3.1,0,2.1,3.1,1.8,4.7
		c-3.2,18.1-6.3,36.3-10.1,54.3c-4.4,20.7,0.9,28.8,14.5,33.7c7.2,2.6,15.2,3.8,23.3,3.6c14.8-0.4,15.1-0.3,18.9-13.7
		c0.1-0.3-0.4-0.8-0.8-1.5h-8.8c-13,0-15.9-4.2-13.3-17.2c2.6-13,4.9-26.1,6.5-39.3c2.8-24.8,4-26.3,24.8-24.9
		c1.2,0.1,2.6,0,3.6,0.6c2.8,1.5,6.2,2.6,6.3,6.6c0.1,4.5,0.6,9.2-0.1,13.5c-4.2,24.1-8.8,48.1-13.4,72.8c9.4,0,18.2-0.4,26.9,0.1
		c6.3,0.4,8.4-2,9.4-8c3.2-19.1,6.7-38.2,10.5-57.2c2.5-12.8,14.2-21.9,26.5-20.8c4,0.4,10.6,0.8,6.4,7.5c-5,7.9-7.7,16.5-9.6,25.3
		c-3,14.5-3.1,28.8,7.5,41c15.6,18,43.2,18,62.5,10.4C622,661.4,633.9,629.9,629.2,599.1z M584.7,654.9c-5,8-15.4,11.6-24.1,8.3
		c-9.1-3.4-9.9-12.2-9.2-19.2c1.6-16.8,4.3-33.6,10.3-49.6c4.6-12.2,13.6-17.5,25.6-15.2c7.1,1.4,10.5,8.5,10.5,24.2
		C595,618.8,595.1,638.1,584.7,654.9z"/>
	<path class="st1" d="M575.3,535.3c-14.2-5.1-27.6-11.9-40.5-19.8c-18.4-11.2-36.7-22.6-54.1-35.3c-3.3-2.4-3.4-3.2-0.8-5.8
		c13-12.9,16.4-14.2,34.3-7.9c24,8.5,47.6,19,74,17.7c7.3-0.4,14.2-1.7,20.2-6.2c10-4.7,15.2-13.1,17.9-23.4
		c4.3-16.2,2.7-31.9-2.9-47.5c-5.6-15.4-5.3-15.5-20.6-9.3c-0.7,0.3-1.5,0.3-2.2,0.4c-14.1-23.2-32-42.3-57.2-53.5
		c-11-4.9-22.9-6.1-34.2-9.7c-4.9-1.5-10-2.6-14.1-6c1.3-3.6,3.8-6.3,6.5-8.9c1.4-1.3,3.6-3.3,1.1-4.8c-7.5-4.7-11.9-12.4-18.2-18.1
		c1.8-3.9,5.4-2.9,8.6-3c41.3-0.6,80.2,8.3,114.7,31.7c33.8,22.8,55.7,53.4,54.7,96c-0.6,24.9-11.4,46.4-26.6,65.9
		c-8.2,10.6-18.9,18.5-28.1,27.9c-1.2,1.2-2.4,1.7-4,1.8c-2,0-3.3,0.6-2.9,3c0,0,0.1-0.1,0.1-0.1c-9,2.2-19,2.7-22.7,13.6
		c0,0,0.1-0.1,0.1-0.1C576.9,533.5,575.9,533.9,575.3,535.3z"/>
	<path class="st1" d="M660.8,662.1c14.4,0,28.7,0,43,0c2.8,0,3.7-1,4.2-3.9c3.3-19.5,7.5-38.9,10.1-58.6c1.4-10,3-16.3-11.5-17.5
		c-2.1-0.2-3.2-0.9-3.1-3.2c0.1-3,2.6-3.8,4.6-4.1c12.4-2.2,24.9-4.4,37.4-6.1c4.1-0.6,9.4-4.1,12-0.8c1.8,2.2-0.6,7.8-1.3,11.8
		c-4.7,26.8-9.1,53.7-14.3,80.5c-3,15.5-3.5,15.4-19.3,15.4c-30.2,0-60.3-0.1-90.5,0.1c-6,0-9.3,0.5-7.6-8.2
		c7.2-36.7,13.3-73.6,19.8-110.4c1.3-7.2-2.9-12.7-10.9-14c-2.3-0.4-5.1-0.2-4.9-3.2c0.1-2.3,2.2-3.9,4.6-4.3
		c15.4-2.6,30.8-5,46.2-7.7c3.5-0.6,5-0.3,4.3,3.8c-7.5,40.7-14.9,81.3-22.2,122C660.8,656.2,661,658.9,660.8,662.1z"/>
	<path class="st0" d="M289.6,569c-8,1.7-19.1-2.6-23.8,8.8c-0.1,0.2-0.8,0.4-0.8,0.3c-0.3-0.4-0.4-1-0.7-1.3
		c-12.6-10.3-25.7-7.4-38.9-1.5c-23.2,10.4-40.7,41.4-35.1,71.9c5.3,28.6,41,39.5,56.3,26.1c0.7-0.6,2.4-1.2,2.4-1.2
		c4.4,8.8,12.3,0.4,16.7,3.6c18,0,18,0,19.7-9c0.7-3.9,1-7.8,1.7-11.7c4.4-24.7,8.8-49.3,13.5-73.9
		C303.3,567.2,303.3,566.2,289.6,569z M261.1,601.1c-1.4,14.6-3.4,29.3-7.5,43.3c-4.1,13.8-7.3,19.6-17.5,19.2
		c-6.3,0.8-10.1-3.2-11.3-8.9c-4.9-23.2-0.8-44.7,12.7-64.3c4-5.8,10.6-8.6,16.9-6.1C261.5,587,261.7,595.3,261.1,601.1z"/>
	<path class="st1" d="M600.7,398.3c0.7-0.1,1.5-0.1,2.2-0.4c15.3-6.2,15-6.1,20.6,9.3c5.6,15.6,7.2,31.3,2.9,47.5
		c-2.7,10.3-7.9,18.7-17.9,23.4C620.8,450,614.7,423.7,600.7,398.3z"/>
	<path class="st1" d="M762.2,542.4c-0.1,10.2-12.1,22-22.1,21.7c-9.1-0.2-16.8-7.9-16.8-16.6c0.1-10,11.6-21.1,21.7-21
		C754.6,526.5,762.3,533.6,762.2,542.4z"/>
	<path class="st0" d="M330.5,261c-2.5,12.5-3.2,24.9,3.9,36.4c1.6,2.6,0.1,4.1-2.2,5.2c-3.8,1.8-7.7,3.5-12,3.7
		C310.8,290.6,314.5,267.9,330.5,261z"/>
	<path class="st1" d="M484.5,297.2c6.3,5.7,10.7,13.5,18.2,18.1c2.5,1.6,0.3,3.5-1.1,4.8c-2.7,2.6-5.2,5.3-6.5,8.9
		c-3.8-0.2-6.2-4.9-10.6-3.2c0,0,0.1,0.1,0.1,0.1c0.2-5.1-4.7-6.6-7.2-9.7c-5.7-7.1-5.4-10.5,2.2-15.8
		C481.3,299.4,482.9,298.3,484.5,297.2z"/>
	<path class="st0" d="M454.6,443.6c2-5.5,18.6-16.1,23.8-14.6c4.7,1.3,4.8,5.7,4.8,9.8C473.3,438.1,463.8,440.1,454.6,443.6z"/>
	<path class="st1" d="M578.3,534c3.7-10.9,13.7-11.4,22.7-13.6C594.3,526.5,586.8,531.1,578.3,534z"/>
	<path class="st0" d="M504.4,440.6c2.6-9.1,10-11,18-11.8C517.6,434.5,512.3,439.6,504.4,440.6z"/>
	<path class="st0" d="M499.7,441.7c1.3-1.6,3-1.5,4.7-1.2C503.4,442.8,501.4,441.8,499.7,441.7z"/>
	<path class="st1" d="M600.9,520.5c-0.4-2.3,1-3,2.9-3C602.8,518.5,601.9,519.5,600.9,520.5z"/>
	<path class="st0" d="M451.5,445.6c0.4-1.7,1.4-2.5,3.2-2.1C454.4,445.4,452.4,444.8,451.5,445.6z"/>
	<path class="st1" d="M575.3,535.3c0.6-1.4,1.6-1.8,3-1.3C577.8,535.5,576.6,535.4,575.3,535.3z"/>
	<path class="st3" d="M503.8,578.7c-0.7,0.5-1.3,1-2,1.4c-0.7-1.2-0.4-2.1,0.9-2.6C503,577.9,503.4,578.3,503.8,578.7z"/>
</g>
</svg>
