<?xml version="1.0" encoding="utf-8"?>
<!-- Generator: Adobe Illustrator 25.2.1, SVG Export Plug-In . SVG Version: 6.00 Build 0)  -->
<svg version="1.1" id="Camada_1" xmlns="http://www.w3.org/2000/svg" xmlns:xlink="http://www.w3.org/1999/xlink" x="0px" y="0px"
	 viewBox="0 0 247.2 202.1" style="enable-background:new 0 0 247.2 202.1;" xml:space="preserve">
<style type="text/css">
	.st0{fill:#2C2C2C;}
	.st1{fill:#99BB39;}
	.st2{fill:#9ABB39;}
	.st3{fill:#9ABC3A;}
</style>
<g>
	<path class="st0" d="M209.9,79.7c1.7,2.6,3.6,4.7,6,6.3c3.4,2.4,7.3,3.7,11.5,4c0.7,0,0.8,0.3,0.8,0.8c0,10.1,0,20.1,0,30.2
		c0,0.6-0.3,0.9-0.8,1.1c-5.5,2.8-11.3,4.5-17.4,5.5c-5.1,0.8-10.2,1.1-15.3,0.6c-4.3-0.4-8.5-1.2-12.3-3.2
		c-6.1-3.2-9.4-8.4-10.4-15c-0.3-2-0.4-4-0.4-6c0-11.3,0-22.6,0-33.9c0-0.9,0.3-1.1,1.1-1.2c5.4-0.7,10.7-0.7,16.1,0
		c0.9,0.1,1.1,0.4,1.1,1.3c0,10.3,0,20.7,0,31c0,1.3,0.1,2.7,0.3,4c0.8,4.4,3,6.5,7.6,7.1c3.8,0.5,7.6,0.2,11.3-1.2
		c0.7-0.3,1-0.6,1-1.4C209.9,99.8,209.9,89.9,209.9,79.7z"/>
	<path class="st0" d="M67.2,100.9c0-8.1,0-16.1,0-24.2c0-0.8,0.3-1.4,0.9-1.9c4.9-3.9,10.6-6.2,16.7-7.3c6.9-1.3,13.8-1,20.7,0.7
		c0.6,0.2,0.9,0.4,0.9,1.1c-0.3,4.9-1.5,9.5-4.2,13.7c-0.6,0.9-1.1,1.1-2.2,0.9c-4.5-0.9-9-0.8-13.4,0.6c-0.9,0.3-1.2,0.7-1.2,1.7
		c0,13.1,0,26.1,0.1,39.2c0,0.8-0.2,1.1-1,1.2c-5.4,0.7-10.8,0.7-16.2,0c-0.8-0.1-1.1-0.4-1.1-1.3C67.2,117.1,67.2,109,67.2,100.9z"
		/>
	<path class="st1" d="M182.1,146.8c-0.4-3.5-0.3-7-0.2-10.5c0-1.2,0.1-1.1,1.7-1.1c0.9,0,1.1,0.4,1.1,1.2c0,4.7,0,9.3,0,14
		c0,0.7-0.2,0.9-0.9,1c-1.2,0.1-1.9-0.3-2.6-1.3c-1.4-2.3-3-4.5-4.5-6.7c-0.9-1.2-1.5-2.6-2.2-4c0.6,3.6,0.2,7.2,0.4,10.8
		c0,0.9-0.3,1.2-1.2,1.2c-0.8-0.1-1.7,0.2-1.7-1.1c0-4.7,0.1-9.3,0.1-14c0-0.8,0.3-1,1-1c1.2-0.1,1.9,0.3,2.6,1.3
		c1.5,2.5,3.2,4.8,4.9,7.2C181.1,144.7,181.6,145.8,182.1,146.8z"/>
	<path class="st2" d="M139.9,143.1c0-2.3,0-4.6,0-6.9c0-0.8,0.3-1.1,1.1-1.1c2.8,0,5.7,0,8.5,0c1.3,0,1,0.9,1.1,1.6
		c0.1,0.8-0.3,1.2-1.1,1.1c-1.8,0-3.7,0-5.5,0c-0.8,0-1.2,0.1-1,1c0.1,0.9-0.4,2.1,0.2,2.7c0.6,0.5,1.8,0.1,2.7,0.2
		c0.9,0,1.8,0,2.7,0c1.1-0.1,1.1,0.6,1.1,1.4c0,0.7,0,1.4-1.1,1.3c-1.6-0.1-3.1,0-4.7,0c-0.6,0-0.9,0.1-0.9,0.8
		c0.1,0.8,0.1,1.6,0,2.5c-0.1,0.7,0.3,0.8,0.9,0.8c2,0,4,0,6,0c1.1,0,1.1,0.6,1.1,1.4c0,0.8,0.1,1.4-1.1,1.4c-2.9-0.1-5.7,0-8.6,0
		c-0.9,0-1.2-0.3-1.2-1.2C139.9,147.8,139.9,145.4,139.9,143.1C139.9,143.1,139.9,143.1,139.9,143.1z"/>
	<path class="st1" d="M154.8,143.1c0-1.1-0.1-2.1,0-3.2c0.2-2.5,1.5-4.2,3.9-4.8c2.7-0.7,5.4-0.7,7.6,1.5c0.2,0.2,0.4,0.5,0.6,0.7
		c1.1,1.7,0.7,2.5-1.3,2.8c-0.5,0.1-0.7-0.2-0.8-0.6c-0.8-2.4-4.3-2.4-5.8-1.4c-0.8,0.5-1.2,1.2-1.2,2.2c0,1.9,0,3.8,0,5.7
		c0,1.5,0.9,2.5,2.4,2.8c2.2,0.5,3.5-0.1,4.6-2c0.2-0.4,0.5-0.6,1-0.5c0.4,0.1,0.8,0.3,1.2,0.4c0.6,0.2,0.8,0.7,0.5,1.3
		c-0.9,2.4-2.8,3.3-5.2,3.6c-1.1,0.1-2.2,0-3.3-0.2c-2.5-0.6-4-2.4-4.2-5C154.7,145.3,154.8,144.2,154.8,143.1
		C154.8,143.1,154.8,143.1,154.8,143.1z"/>
	<path class="st1" d="M200.8,143.3c0,1,0,1.9,0,2.9c0.1,1.3,0.8,2.2,2,2.6c2,0.6,4.4,0.1,5-1.9c0.2-0.5,0.5-0.6,1-0.5
		c2,0.4,2.2,1.1,1.1,2.8c-2.3,3.5-9.2,3.4-11.3-0.2c-0.5-0.8-0.7-1.6-0.8-2.5c-0.1-2.1-0.2-4.3,0-6.4c0.3-3,1.9-4.5,4.9-5
		c1.9-0.3,3.7-0.2,5.4,0.7c1.1,0.6,1.9,1.6,2.3,2.8c0.2,0.6,0.1,1.1-0.6,1.3c-0.3,0.1-0.6,0.2-1,0.3c-0.5,0.2-0.9,0.1-1.1-0.5
		c-0.8-2.4-4.3-2.4-5.8-1.4c-0.8,0.5-1.2,1.3-1.2,2.3C200.8,141.4,200.8,142.3,200.8,143.3z"/>
	<path class="st2" d="M131.2,144.4c0,1.9,0,3.8,0,5.7c0,0.8-0.3,1.2-1.1,1.1c-0.8-0.1-1.8,0.4-1.8-1.1c0-3.7,0-7.5,0-11.2
		c0-1-0.3-1.2-1.2-1.2c-0.8,0.1-1.7,0-2.6,0c-0.8,0-0.9-0.5-0.9-1.2c0.1-0.6-0.3-1.5,0.8-1.5c3.5,0,7.1-0.1,10.6,0
		c1.1,0,0.8,1,0.9,1.6c0.1,0.7-0.2,1.1-1,1.1c-0.8,0-1.5,0-2.3,0c-1.4,0-1.4,0-1.4,1.5C131.2,141,131.2,142.7,131.2,144.4z"/>
	<path class="st3" d="M190,143.3c0-2.3,0-4.6,0-6.9c0-1,0.3-1.3,1.3-1.3c1.7,0.1,1.7,0,1.7,1.7c0,4.3,0,8.5,0,12.8
		c0,0.5,0.2,1.3-0.4,1.5c-0.7,0.3-1.5,0.2-2.2,0c-0.5-0.1-0.4-0.7-0.4-1.1C190,147.8,190,145.6,190,143.3z"/>
	<path class="st3" d="M148.1,131.9c0,0.4-0.3,0.4-0.5,0.5c-1.2,0.5-2.5,1-3.7,1.5c-0.6,0.3-1.1,0-1.3-0.5c-0.3-0.6,0.2-0.8,0.6-1
		c1-0.6,2-1.2,3-1.8C146.9,130.3,148.1,131.1,148.1,131.9z"/>
	<path class="st0" d="M60.1,100.5c0-8.1,0-16.3,0-24.4c0-0.9-0.3-1.4-1-1.9c-11-7.2-22.9-9.4-35.7-6.4c-8.5,2-15.1,6.8-19.2,14.7
		C1.4,88.1,0.6,94,1.1,100.2c0.6,7.2,3.4,13.5,9.1,18c8.7,7,18.8,8.2,29.5,6.3c2.2-0.4,2.2-0.5,2.2,1.8c0,4.9-2.6,8.2-7.3,9.5
		c-3.8,1-7.7,0.9-11.6,0.1c-4.4-0.9-8-3.2-11.1-6.4c-0.3-0.4-0.5-1-1.4-0.7c-4.7,2-7.8,5.4-9.2,10.4c-0.2,0.6,0,1.1,0.5,1.6
		c2.9,2.9,6.2,5.1,10,6.7c7.2,3.1,14.7,3.9,22.4,3.2c5-0.4,9.7-1.7,14-4.3c8.2-5,11.6-12.7,11.9-22
		C60.3,116.5,60.1,108.5,60.1,100.5C60.1,100.5,60.1,100.5,60.1,100.5z M41.9,96.4c0,4,0,7.9,0,11.9c0,0.8-0.2,1.1-1,1.4
		c-4,1.3-8.1,1.6-12.2,0.3c-5.3-1.6-8.8-6.1-9.3-11.6c-0.3-3.2,0-6.4,1.6-9.2c2.6-4.8,6.8-6.9,12.1-7.2c2.7-0.1,5.3,0.3,7.9,1.2
		c0.7,0.2,1,0.6,1,1.4C41.9,88.5,41.9,92.4,41.9,96.4z"/>
	<path class="st0" d="M164.3,92.5c0-1.6,0-3.3-0.2-4.9c-1.2-9-5.6-15.5-14.3-18.5c-8.6-3-17.3-2.9-25.9-0.5
		c-4.5,1.3-8.7,3.2-12.4,6.2c-0.4,0.3-0.6,0.5-0.5,1.1c1,4.5,3.2,8.2,7.1,10.7c0.4,0.3,0.7,0.3,1.2,0c1.3-1,2.8-1.7,4.3-2.4
		c5.4-2.2,11-3,16.7-1.5c3.1,0.8,5.3,2.7,5.9,6c0.2,1.2,0.1,2.5,0.1,3.9c-0.4-0.1-0.6-0.1-0.9-0.2c-7.6-1.8-15.3-2.1-22.9,0.1
		c-3.9,1.1-7.4,3-10,6.2c-3.1,3.8-3.9,8.2-3.4,12.9c0.6,5.4,3,9.6,7.6,12.4c4.5,2.8,9.5,3.8,14.7,4.1c11,0.6,21.7-1.2,32.1-5.2
		c0.7-0.3,1-0.6,1-1.4C164.3,111.9,164.3,102.2,164.3,92.5z M146.2,109c0,1.5,0,3.1,0,4.6c0,0.4,0,0.7-0.4,0.8
		c-4.5,1.2-9.1,1.8-13.7,0.4c-2.4-0.7-4.2-2.2-4.8-4.8c-0.7-3,0.6-5.5,3.4-6.7c2.5-1.1,5.2-1.1,7.9-0.9c2.4,0.1,4.8,0.5,7.1,1.1
		c0.5,0.1,0.7,0.3,0.7,0.9C146.2,105.9,146.2,107.5,146.2,109z"/>
	<path class="st1" d="M228.3,50.7c-9.7,0-17.7,8-17.7,17.6c0,9.8,7.8,17.8,17.5,17.8c10,0,18-7.8,18-17.6
		C246.3,59.6,239.2,50.8,228.3,50.7z M228.4,81.5c-6.6,0.2-13.1-5.2-13.2-13c0-7.3,5.9-13.1,13.1-13.1c7.2,0,13,5.8,13,13.1
		C241.5,75.7,235.7,81.5,228.4,81.5z"/>
	<path class="st1" d="M227.6,140.3c-0.1-2.7-1.7-4.7-4.4-5.2c-0.9-0.2-1.9-0.3-2.9-0.2c-3.7,0.2-5.7,2.4-5.7,6.1c0,1.6,0,3.1,0,4.7
		c0,3.4,1.7,5.4,5,5.9c0.9,0.1,1.8,0.1,2.7,0c2.9-0.3,4.9-2.1,5.2-4.7c0.1-1.2,0-2.5,0-3.7c0,0,0,0,0.1,0
		C227.6,142.2,227.7,141.3,227.6,140.3z M224.7,146.1c-0.1,1.4-0.8,2.3-2.2,2.7c-0.7,0.2-1.3,0.2-2,0.1c-1.9-0.2-2.9-1.3-2.9-3.2
		c0-1.6,0-3.1,0-4.7c0-2.4,1.6-3.8,4-3.5c2.3,0.3,3.2,1.2,3.2,3.6c0,0.7,0,1.4,0,2.1c0,0,0,0,0,0
		C224.7,144.2,224.8,145.2,224.7,146.1z"/>
	<path class="st0" d="M228.7,59.4c2.2,0,4.5,0.1,6.7,0c0.8,0,1,0.3,1.1,1c0,0,0,0.1,0,0.1c0.1,1.2,0.4,2.5-0.3,3.4
		c-0.5,0.6-1.8,0.1-2.8,0.2c-2,0-2,0-2,2c0,3.6,0,7.2,0,10.8c0,0.8-0.3,1-1,1c-1.1,0.1-2.2,0.1-3.3,0c-0.7,0-0.9-0.3-0.9-1
		c0-3.9,0-7.9,0-11.8c0-0.9-0.3-1.1-1.1-1c-1.1,0.1-2.1,0-3.2,0c-0.5,0-0.8-0.1-0.8-0.7c0-0.1-0.1-0.3-0.1-0.4
		c-0.4-3.4-0.2-3.5,3.1-3.5C225.7,59.4,227.2,59.4,228.7,59.4z"/>
</g>
</svg>
