<?xml version="1.0" encoding="utf-8"?>
<!-- Generator: Adobe Illustrator 25.2.1, SVG Export Plug-In . SVG Version: 6.00 Build 0)  -->
<svg version="1.1" id="Camada_1" xmlns="http://www.w3.org/2000/svg" xmlns:xlink="http://www.w3.org/1999/xlink" x="0px" y="0px"
	 viewBox="0 0 247.2 202.1" style="enable-background:new 0 0 247.2 202.1;" xml:space="preserve">
<style type="text/css">
	.st0{fill:#2960FA;}
</style>
<g>
	<path class="st0" d="M132.2,92.8c-18.7,0-37.5,0-56.2,0c-0.4,0-0.8,0-1.2,0c-0.8,0-1.8,0.1-2-0.9c-0.2-0.9,0.7-1.2,1.3-1.4
		c14-6.8,27.8-14.3,43.1-18c12.8-3.1,25.8-3.4,38.8-2.9c7.9,0.3,15.8,1.1,23.5,3.5c1.9,0.6,3.7,1.4,5.5,2.3c4.6,2.3,7,6,6.9,11.3
		c-0.1,5.9,0,5.9-5.9,5.9c-17.9,0-35.9,0-53.8,0C132.2,92.6,132.2,92.7,132.2,92.8z"/>
	<path class="st0" d="M25.2,128.7c-4.3,0.6-8.6,0.6-12.8,0c-3.2-0.5-4.8-2.5-5.5-5.5c-2.3-10.4,3.3-21.8,13-26.2
		c8.9-4.1,18.5-6.2,28-8.2c15.5-3.2,30.2-8.7,44.2-15.8c15.2-7.6,31.3-10.6,48-11.3c23.2-0.9,45.3,3.4,66.3,13.4
		c1.4,0.7,2.9,1.2,4.3,2c7.5,4,15.4,5.6,23.9,5c4.6-0.3,6.1,1.2,6.2,5.8c0.1,10.2,0,20.5,0,30.7c0,4.2-2.2,6.8-5.9,8.3
		c-5.1,2.1-10.5,2-16,1.6c1.6-0.4,3.3-0.7,4.9-1.2c2.3-0.6,4.6-1.3,6.8-2.1c4.7-1.7,7.2-5.1,7.2-10.1c0.1-5.6,0-11.1,0-16.7
		c0-1.1-0.4-1.5-1.5-1.5c-2.2,0.1-4.4,0-6.7,0.1c-2,0.1-3-0.7-2.9-2.8c0.1-6.5-0.8-5.9,5.8-5.9c0.8,0,1.6,0,2.4,0
		c0.6,0,1.4,0.3,1.6-0.6c0.2-0.8-0.2-1.4-0.8-1.9c-0.6-0.5-1.3-0.6-2-0.6c-9.8,0.6-18.7-2.4-27.3-6.8c-23.4-11.9-48.3-15.4-74.3-13
		c-14.7,1.4-28.6,5-41.7,11.7C76,84.8,60.8,89.5,45,92.7c-6.5,1.3-13,2.7-19.3,5.1c-2.3,0.9-4.5,1.8-6.7,3.9c3.2,0,5.8,0.1,8.5,0
		c2.4-0.1,3,1.2,3,3.3c0,2-0.8,3.1-2.9,3.1c-4.5-0.1-9.1,0.1-13.6,0c-1.5,0-2.2,0.5-2.7,1.8c-1.5,4-2,8.2-1.6,12.4
		c0.2,2.3,1.6,3.7,3.7,4.4C17.3,127.9,21.2,128.3,25.2,128.7z"/>
	<path class="st0" d="M190.8,126.6c-4.4,0-8.9,0-13.3,0c-0.6,0-1.3,0.2-1.7-0.5c-0.4-0.7,0.3-1.1,0.6-1.7c0.1-0.1,0.2-0.2,0.3-0.4
		c1.8-3.4,4.5-4.5,8.4-4.2c5.2,0.4,10.5,0.1,15.7,0.1c0.6,0,1.3,0,1.9,0c1.5-0.1,2.6-0.9,2.5-2.6c0-1.6-1.2-2.1-2.5-2.3
		c-0.6-0.1-1.3,0-1.9-0.1c-5.3,0-10.6,0-16-0.1c-5.3-0.1-8.2-2-9.2-5.9c-1.4-5.5,2.5-10.4,8.9-10.5c8.3-0.2,16.7,0,25,0
		c1.6,0,2.1,0.6,1,2c-1,1.3-2.1,2.6-3,4c-0.7,0.9-1.5,1-2.5,1c-5.6,0-11.3,0-16.9,0c-0.6,0-1.1,0-1.7,0c-1.6,0-3,0.4-3,2.2
		c0,1.8,1.4,2.3,3,2.3c5.4,0,10.8,0.1,16.2,0.2c1.2,0,2.4,0,3.6,0.1c4.1,0.4,6.6,2.7,7.1,6.2c0.5,4.3-1.4,7.8-5.1,9.3
		c-1.6,0.6-3.2,0.9-4.9,0.9C199,126.6,194.9,126.6,190.8,126.6C190.8,126.6,190.8,126.6,190.8,126.6z"/>
	<path class="st0" d="M68.6,126.7c-4.4,0-8.9,0-13.3,0c-0.7,0-1.5,0.3-1.9-0.5c-0.3-0.7,0.5-1.1,0.7-1.6c1.8-3.7,4.6-5.3,8.8-4.5
		c1.8,0.3,3.6,0.1,5.5,0.1c0.6,0,1.4,0.2,1.7-0.5c0.3-0.6-0.3-1-0.6-1.4c-2.2-2.9-4.5-5.8-6.6-8.7c-1.1-1.5-1.7-1.1-2.6,0.1
		c-3.7,5.1-7.6,10.2-11.3,15.3c-0.9,1.3-1.9,1.9-3.5,1.8c-1.5-0.1-3,0-4.5-0.1c-0.7,0-1.7,0.4-2.1-0.5c-0.3-0.7,0.4-1.3,0.8-1.8
		c3.7-5.2,7.5-10.4,11.2-15.7c1.8-2.4,3.5-4.9,5.3-7.3c3.2-4.3,7.6-4.5,10.9-0.3c6,7.7,11.2,16,16.7,24c1.2,1.8-0.1,1.8-1.3,1.8
		c-4.6,0-9.2,0-13.8,0C68.6,126.8,68.6,126.7,68.6,126.7z"/>
	<path class="st0" d="M89.3,105.3c1.9-2.4,3.4-4.3,4.9-6.2c0.4-0.5,0.8-0.7,1.4-0.7c7.1,0.2,14.3-0.5,21.4,0.4
		c5.6,0.7,8.8,3.9,9.6,9c0.6,4.1-0.9,7.1-4.4,9.2c-2.6,1.5-5.5,2.2-8.4,2.2c-4.8,0.1-9.7,0.1-14.5,0c-1.7,0-2.2,0.6-2.2,2.2
		c-0.1,5.3-0.2,5.2-5.6,5.3c-2.3,0-2.9-0.7-2.7-2.8c0.2-2.8,0.2-5.6,0.1-8.3c-0.2-2.5,0.8-3.1,3.2-3c7,0.2,14,0.1,21,0.1
		c2.6,0,4.1-1.3,4.1-3.6c0-2.4-1.4-3.8-4.2-3.8c-7.1,0-14.3,0-21.4,0C90.9,105.3,90.4,105.3,89.3,105.3z"/>
	<path class="st0" d="M132.6,98.1c3.5-0.8,5.3,1.1,7,3.8c2.6,4.3,5.6,8.4,8.5,12.6c1.7,2.4,2.5,2.5,4.2,0.1
		c3.5-4.9,7.1-9.7,10.6-14.7c0.9-1.3,1.9-1.9,3.5-1.8c1.6,0.1,3.2,0,4.8,0.1c0.6,0,1.3-0.2,1.7,0.5c0.4,0.7-0.2,1.2-0.6,1.7
		c-3.3,4.6-6.6,9.1-9.8,13.7c-1.9,2.6-3.7,5.2-5.6,7.7c-0.6,0.8-1.1,1.5-1.8,2.2c-3.8,3.8-7.6,3.6-10.8-0.8
		c-2.7-3.7-5.2-7.6-7.9-11.3c-2.6-3.8-5.2-7.6-7.8-11.3c-0.4-0.6-1.1-1.1-0.7-1.9c0.4-0.9,1.3-0.6,2.1-0.6
		C130.8,98.1,131.7,98.1,132.6,98.1z"/>
	<path class="st0" d="M142.4,140.4c-1.3,0-2.5,0-3.8,0c-0.4,0-1.1,0.1-1.1-0.6c0-0.7,0.6-0.6,1.1-0.6c2,0,4,0,6,0
		c0.6,0,1.5,0,1.5-0.7c0-0.9-0.9-0.7-1.5-0.7c-1.7-0.1-3.5-0.1-5.2-0.2c-1.1-0.1-2.4-0.4-2.4-1.8c0-1.4,1.2-1.9,2.3-1.9
		c2.8-0.2,5.5-0.1,8.3-0.2c0.4,0,0.8,0,0.9,0.5c0,0.6-0.5,0.7-1,0.7c-1.7,0-3.3,0-5,0c-0.9,0-2.5-0.4-2.4,0.7c0,1.4,1.6,0.7,2.5,0.8
		c1.4,0.1,2.9,0,4.3,0.1c1,0.1,2.2,0.4,2.3,1.7c0.1,1.4-1,1.9-2.2,2c-1.5,0.1-3,0-4.5,0C142.4,140.3,142.4,140.4,142.4,140.4z"/>
	<path class="st0" d="M187.5,140.3c-2.4,0.2-4.7,0.5-7.1-0.3c-1.4-0.5-2.4-5.1-1.4-6.1c0.4-0.4,1.1-0.2,1.6-0.2
		c0.6-0.1,0.8,0.3,0.9,0.8c0.3,1.5-0.8,3.4,0.8,4.4c1.4,0.9,3.1,0.2,4.7,0.4c0.2,0,0.4,0.2,0.6,0.3
		C187.5,139.8,187.5,140,187.5,140.3z"/>
	<path class="st0" d="M165.2,137c0,0.8,0,1.6,0,2.4c0,1.1-0.7,1.1-1.4,1.1c-0.7,0-1.5,0.1-1.5-1c0-1.4,0-2.8,0-4.3
		c0-1.1,0.3-1.5,1.5-1.5c1.2,0,1.6,0.4,1.4,1.5C165.1,135.7,165.2,136.4,165.2,137z"/>
	<path class="st0" d="M75.4,135.4c0.3-0.2-0.5-1.2-1.3-1.4c-0.6-0.1-1.2-0.3-1.9-0.3c-1.6-0.1-3.2,0-4.8,0c-3.4,0-3.4,0-3.4,3.3
		c0,3.4,0,3.4,3.4,3.4c0.6,0,1.1,0,1.7,0c0,0,0,0,0,0.1c1.5-0.1,3-0.1,4.5-0.2C77.3,139.9,73.3,136.5,75.4,135.4z M69.5,134.8
		c1,0.3,2.7-0.3,2.7,0.7c0,1.5-1.7,0.9-2.7,0.8c-0.9,0-2.6,0.8-2.6-0.8C67,134.2,68.7,135.2,69.5,134.8z M71,139.3
		c-0.5,0-1.1,0-1.6,0c-0.5,0-1.1,0-1.6,0c-0.5,0-0.9-0.2-0.9-0.8c0-0.6,0.3-0.8,0.9-0.8c1.1,0,2.2,0,3.3,0c0.6,0,1.4,0,1.4,0.8
		C72.4,139.2,71.6,139.2,71,139.3z"/>
	<path class="st0" d="M97.7,137.8c1.1-0.6,2.6-0.9,2.2-2.4c-0.4-1.5-1.8-1.6-3.1-1.7c-1-0.1-2.1,0-3.1,0c-5.3,0-5.3,0-4.9,5.4
		c0.1,1,0.3,1.5,1.3,1.4c0.9,0,1.6-0.2,1.5-1.3c-0.2-1.3,0.7-1.3,1.6-1.3c1.3-0.1,2.1,0.4,2.9,1.3c1.1,1.3,2.4,1.6,4.2,1.1
		C99.4,139.3,98.6,138.6,97.7,137.8z M94.6,136.5c-0.6,0-0.9,0.1-1.2,0c-0.7-0.1-1.8,0.5-1.8-0.8c0-1.3,1.2-0.6,1.8-0.8
		c0.3-0.1,0.6-0.1,0.9,0c0.9,0.2,2.6-0.5,2.6,0.7C97,137.2,95.3,136.1,94.6,136.5z"/>
	<path class="st0" d="M120.9,134.8c-1.4-1.7-3.3-1.7-4.7,0c-1.4,1.7-2.7,3.4-4.3,5.4c1.5,0.3,2.6,0.4,3.5-0.8
		c0.8-1.1,2.2-0.5,3.3-0.5c1.1,0,2.4-0.5,3.2,0.8c0.8,1.2,2,0.7,3.3,0.5C123.7,138.2,122.3,136.5,120.9,134.8z M117,137.5
		c0.2-1,0.7-1.9,1.4-2c0.9-0.1,1,1.2,1.4,2C118.9,137.5,118,137.5,117,137.5z"/>
</g>
</svg>
