<?xml version="1.0" encoding="utf-8"?>
<!-- Generator: Adobe Illustrator 26.0.0, SVG Export Plug-In . SVG Version: 6.00 Build 0)  -->
<svg version="1.1" id="Camada_1" xmlns="http://www.w3.org/2000/svg" xmlns:xlink="http://www.w3.org/1999/xlink" x="0px" y="0px"
	 viewBox="0 0 1000 1000" style="enable-background:new 0 0 1000 1000;" xml:space="preserve">
<style type="text/css">
	.st0{fill:#BE723B;}
	.st1{fill:#FFFFFF;}
	.st2{fill:#3A2B22;}
	.st3{fill:#3C2B22;}
	.st4{fill:#3B2B21;}
	.st5{fill:#3F2B20;}
	.st6{fill:#3D2B20;}
	.st7{fill:#412D21;}
	.st8{fill:#3C2A21;}
	.st9{fill:#403027;}
	.st10{fill:#B57546;}
	.st11{fill:#BA7340;}
	.st12{fill:#493327;}
	.st13{fill:#B77345;}
	.st14{fill:#3C2C24;}
	.st15{fill:#B57448;}
	.st16{fill:#B77342;}
	.st17{fill:#7A3E17;}
	.st18{fill:#B97343;}
	.st19{fill:#B1774E;}
	.st20{fill:#B77447;}
	.st21{fill:#673D1D;}
	.st22{fill:#B77444;}
	.st23{fill:#5F391E;}
	.st24{fill:#B47345;}
	.st25{fill:#5A3622;}
	.st26{fill:#663A1F;}
	.st27{fill:#65381C;}
	.st28{fill:#4F220F;}
	.st29{fill:#623418;}
	.st30{fill:#5B351C;}
	.st31{fill:#6B3E21;}
	.st32{fill:#653819;}
	.st33{fill:#6E3E1F;}
	.st34{fill:#B0734A;}
	.st35{fill:#A5785D;}
	.st36{fill:#B17245;}
	.st37{fill:#A77C5F;}
	.st38{fill:#553621;}
	.st39{fill:#B37448;}
	.st40{fill:#B16F41;}
	.st41{fill:#734221;}
	.st42{fill:#B3714C;}
	.st43{fill:#B8744A;}
	.st44{fill:#AF734B;}
	.st45{fill:#B67549;}
	.st46{fill:#5B3318;}
	.st47{fill:#693B1B;}
	.st48{fill:#59280F;}
	.st49{fill:#B17146;}
	.st50{fill:#B87547;}
	.st51{fill:#A76940;}
	.st52{fill:#AD734D;}
	.st53{fill:#B27347;}
	.st54{fill:#6D3815;}
	.st55{fill:#B27449;}
	.st56{fill:#A9714B;}
	.st57{fill:#663E22;}
	.st58{fill:#B57446;}
	.st59{fill:#B57346;}
	.st60{fill:#AD7D57;}
	.st61{fill:#A6714B;}
	.st62{fill:#4C2713;}
	.st63{fill:#A36E4A;}
	.st64{fill:#56341E;}
	.st65{fill:#522A15;}
	.st66{fill:#AB7751;}
	.st67{fill:#5E2D12;}
	.st68{fill:#916649;}
	.st69{fill:#AD6E47;}
	.st70{fill:#B1754F;}
	.st71{fill:#AD764F;}
	.st72{fill:#B3764F;}
	.st73{fill:#7F461F;}
	.st74{fill:#A16842;}
	.st75{fill:#93674C;}
	.st76{fill:#A5704D;}
	.st77{fill:#A26D46;}
	.st78{fill:#92694D;}
	.st79{fill:#BE723C;}
	.st80{fill:#A17150;}
	.st81{fill:#BF713C;}
	.st82{fill:#B17145;}
	.st83{fill:#BB713E;}
	.st84{fill:#9E6E4B;}
	.st85{fill:#4F2713;}
	.st86{fill:#392B22;}
	.st87{fill:#4B2612;}
	.st88{fill:#6E3F21;}
	.st89{fill:#B07448;}
	.st90{fill:#AD7149;}
	.st91{fill:#AD754B;}
	.st92{fill:#9C6E4F;}
	.st93{fill:#AB7149;}
	.st94{fill:#7B4E2F;}
	.st95{fill:#A26F4D;}
	.st96{fill:#C37033;}
	.st97{fill:#C07238;}
</style>
<g>
	<path class="st0" d="M-10.3-22.32c340.87,0,681.74,0,1023.12,0c0,347.51,0,695.02,0,1042.53c-336.82,0-673.64,0.01-1010.46-0.04
		c-14.67,0-12.62,2.05-12.62-12.63C-10.31,664.26-10.3,320.97-10.3-22.32z M152.22,515.62c3.41-1.3,3.58-2.7,0.12-4.21
		c0.01-4.16,0.03-8.33,0.04-12.49c4.49-6.64,5.64-15.29,12.34-20.6c1.36,0,2.73,0.01,4.09,0.01c1.21,3.5,2.48,6.94,7.07,7.74
		c1.85-2.39,1.15-5.16,1.45-7.72c4.14,1.26,3.99,4.71,4.11,8.03c0.1,9.89,0.02,19.79,0.37,29.68c0.14,4,2.24,7.16,6.54,8.14
		c3.62,0.82,4.89-1.42,5.52-4.4l0.02-0.01c2.16-0.59,3.55-1.96,4.15-4.12l0.05-0.05c5.54,0.07,11.08-2.14,16.62,0.01l0.01,0.01
		c0.61,2.17,2,3.55,4.18,4.13c1.38,0.01,2.76,0.01,4.14,0.02c2.78,0,5.56,0,8.34,0c2.08,0,4.16,0.01,6.25,0.01
		c6.27,3.14,12.51-1.35,18.78-0.05c4.77,0.26,8.82-1.29,11.08-5.6c1.56-2.96,3.15-6.66-2.84-6.8l0.01,0.01
		c0.47-6.49-3.09-8.46-8.95-8.4c-10.75,0.11-21.51-0.03-32.27-0.07c0-1.36-0.01-2.73-0.01-4.09c5.57-4.1,7.78-9.83,8.01-16.52
		c7.89-0.06,15.78-0.1,23.66-0.19c4.61-0.06,9.52-0.09,9.24-6.65c-0.25-5.86-4.89-5.77-9.05-5.83c-10.63-0.17-21.26-0.23-31.89-0.33
		c-0.09-6.86,0.1-13.74-0.35-20.57c-0.41-6.24,1.91-8.62,8.21-8.35c8.9,0.38,17.85,0.48,26.74-0.07c7.13-0.44,8.65-3.66,2.59-8.62
		c-2.82-4.77-5.61-4.69-8.38,0.05c-2.09-0.01-4.17-0.02-6.26-0.03c-0.68-2.64-1.36-5.27-2.04-7.91c3.28-5.72,9.14-9.91,10.75-16.97
		c-10.72-0.86-16.75,6.62-14.95,17.61c-9.15,5.85-19.06,4.88-27.78-3.16c-2.5,10.39,2.35,24.45-13.7,27.46
		c-0.1-5.5-0.21-11-0.31-16.49c-2.04-4.93-6.61-5.23-10.59-6.51c-5.41,11.05-6.73,22.19-6.06,33.74c0.24,4.1,0.49,9.04-5.32,9.6
		c-5.13,0.49-10.39,0.35-15.53-0.11c-3.21-0.29-7.08-2.62-6.06-5.81c2.95-9.25-4.28-17.21-2.3-26.26c0.81-3.7-0.08-8.04-5.24-8.57
		c-5.69-0.59-10.37,2.56-10.53,7.77c-0.47,15.38-3.77,31.09,3.06,46.02c-7.79,10.73-2.71,22.67-3.01,34.09
		c-0.03,1.12,2.18,2.3,3.35,3.46l0,0c0.61,2.18,2,3.57,4.19,4.13c1.37,0,2.74,0,4.11,0C150.23,519.19,151.62,517.8,152.22,515.62
		L152.22,515.62z M264.84,561.38c-1.22-2.89-2.54-4.14-4.2-0.28c-0.66,0.19-1.32,0.35-1.99,0.48c-2.13,2.89-2.72,6.53,1.19,7.26
		c5.92,1.1,12.74,3.78,17.46-3.14c5.04-2.54,13-3.91,15.18-1.06c5.34,6.95,11.74,4.28,17.85,5.24c7.27,1.13,8.25-5.15,10.86-9.15
		c2.64-4.05,3.23-8.49-1.74-11.75c-0.32-0.59-0.5-1.22-0.55-1.89c-0.83-8.14-6.03-10.8-13.39-10.5
		c-7.83,0.31-11.64,4.57-11.61,12.36l0,0.04c-2.57,0.85-3.66,2.96-4.62,5.27c-0.84,2.02-2.31,3.76-4.65,3.49
		c-3.34-0.38-2.95-3.31-3.15-5.65c-0.14-1.73-0.07-3.47-0.09-5.2c-3.69-10.35-11.25-13.48-20.58-8.26c-2.89,1.62-6.79,2.95-7.02,6.9
		c-0.26,4.53,3.3,6.34,7.07,7.56c2.31,1.89,5.21,1.85,7.92,2.42c0.01,2.03,0.02,4.06,0.03,6.09c-1.37,0.08-2.74,0.15-4.11,0.23
		L264.84,561.38z M148.1,542.69c-0.67-1.74-2.17-1.81-3.69-1.83c-6.65,6.51-6.71,17.73-0.15,24.62c1.3,0,2.59,0,3.89,0
		c2.1-1.39,4.2-2.78,6.3-4.17c0.67,0.38,1.33,0.75,2,1.13c2.1,5.67,7.78-1.13,10.33,2.97c0.72,0.04,1.45,0.08,2.17,0.12
		c3.46-4.14,5.77-21.66,3.47-25.7c-0.97-1.7-2.44-2.35-4.21-2.21c-3.4,0.28-3.14,2.93-3.21,5.32l-0.05,0.11
		c-1.31-0.9-1.5-3.23-4.28-2.96c0,3.06,0,6.12,0,9.18c-1.33,3.67-2.6,7.44-6.46,1.7c-1.33-1.98-2.88-3.82-4.32-5.73
		C149.29,544.4,148.7,543.54,148.1,542.69z M397.69,465.26c3.65-0.75,4.6-3.28,4.35-6.61c5.52-10.36,14.49-18.59,19.53-30.33
		c-4.17,0-7.23,0-10.28,0c-3.61,0.59-4.79,2.99-4.71,6.33c-4.93,7.9-9.75,15.88-16.22,22.68c-7.65-4.4-5.02-9.77-0.73-14.37
		c4.45-4.77,2.75-8.7-0.35-12.81c-3.03-4.03-6.72-7.44-12.22-5.54c-5.17,1.79-3.86,6.73-4.01,10.68
		c-0.23,5.85-0.14,11.72-0.19,17.58c-4.54-1.61-6.87-4.78-8.15-9.51c-1.53-5.64-3-11.61-8.36-15.27c-2.65,0.02-5.29,0.04-7.94,0.06
		c-3,1-4.35,3.23-4.36,6.24c-0.03,11.28-0.02,22.56,0.05,33.85c0.02,2.6,1.34,4.53,3.7,5.69c0,1.38-0.01,2.75-0.01,4.13
		c-7.75,11.01-3.76,23.12-2.4,34.64c0.43,3.68,6.62,5.92,11.13,6.1c4.03,0.16,4.03-4.12,5.08-6.88c4.45-11.7,4.68-23.42,0.38-35.29
		c-4.75-13.09-1.26-19.04,10.95-19.24c0.03,15.95,0.01,31.9,0.1,47.85c0.03,5.23-0.4,11.21,7.27,11.27
		c7.66,0.06,9.67-4.65,9.61-11.69c-0.05-5.08-2.47-11.55,4.84-14.36c4.65,5.03,8.8,10.4,11.71,16.65c-0.2,3.97,0.71,7.49,3.96,10.12
		c2.64,2.14,22.82,2.05,25.48-0.15c4.67-3.86,3.89-9.18,3.79-14.31c3.53-12.81,3.53-12.81,20.93-11.78
		c1.01,1.95,2.55,3.56,4.76,3.46c9.75-0.45,14.88,3.43,17.1,13.61c1.6,7.37,7.99,9.94,15.32,5.22
		c-10.32-27.31-20.35-54.74-33.07-81.07c0.2-2.5,0.22-5.76-2.6-5.92c-3.12-0.18-3.05,4.14-5.06,5.94
		c-5.18,1.44-8.81,4.73-8.71,10.16c0.12,6.26-2.41,11.45-5.25,16.49c-2.86,5.08-3.78,10.25-3.13,15.88
		c-1.69,7.14-4.36,13.88-8.18,20.15c-5.76,2-4.3,6.84-4.35,11.09c0.14,0.44,0.05,0.82-0.27,1.15c-2.52-2.77-5.43-3.63-8.87-1.77
		c-0.53-0.59-1.05-1.17-1.58-1.76c-0.46-4.14-2.62-7.07-6.35-8.86c-3.17-3.51-6.25-7.1-8.15-11.51c1.1-6.61-4.97-11.47-4.35-17.96
		L397.69,465.26z M410.5,565.49l-0.07,0.06c3.6-0.01,7.2-0.01,10.8-0.02l-0.03-0.06c-0.79,5.19,2.82,4.29,5.72,3.97
		c2.16-0.24,3.86-1.55,3.61-3.95c-0.38-3.65-3.35-3.56-6.04-3.69c-3.65-3.3-0.62-6.12,0.53-9.19c1.48-3.97,0.39-7.71-2.86-10.17
		c-3.82-2.89-8.51-2.58-12.82-1.29c-3.96,1.18-2.82,5.03-2.89,7.93c-0.14,5.48,0.07,10.97,0.13,16.46c0.3,1.52,0.27,3.72,2.19,3.69
		C410.9,569.2,410.31,566.96,410.5,565.49z M339.47,544.89c1.02,6.88-1.47,14.18,2.42,20.72c8.19-5.41,2.55-13.66,4.19-20.42
		c1.81-1.43,5.82,0.45,5.88-4.63c-5.6,0.08-11.08-1.16-16.55,0.95C336.12,544.16,338,544.24,339.47,544.89z M227.36,553.12
		l-0.03-0.12c0.04,2.49,0.07,4.98,0.11,7.48c-0.87,0.33-1.75,0.65-2.62,0.98c-1.29-0.98-2.34-3.13-4.26-1.9
		c-1.76,1.12-1.2,3.15-0.26,4.61c4.98,7.67,12.68,6.25,19.69,4.97c6.5-1.18,8.85-6.72,7.91-12.72c-0.88-5.56,4.08-14.16-6.78-15.46
		c-5.88-0.92-11.54-1.04-15.82,4.14c-0.18-0.29-0.3-0.64-0.55-0.84c-0.21-0.16-0.79-0.24-0.81-0.19
		C222.25,548.15,222.89,551.37,227.36,553.12z M191.82,553.1c-0.82,1.37-1.64,2.74-2.45,4.11c-3.55,1.4-4.72,4.81-7.61,8.04
		c2.68,0.2,4.27,0.31,5.85,0.43c6.69-6.62,13.82-8.19,21.5-0.66c0.99-5.31-2-8.19-3.11-11.66c-0.46-1.27-0.7-2.68-1.41-3.79
		c-1.86-2.91-1.28-8.48-6.15-8.1c-4.34,0.34-4.21,5.57-6.02,8.66C191.93,550.95,192,552.1,191.82,553.1z M618.7,436.22
		c5.79-2.67,5.59-5.34-0.01-8c-13.85-0.08-27.71-0.04-41.55-0.29c-5.1-0.09-7.74,1.55-7.7,7.05c0.14,23.91,0.14,47.83,0.11,71.74
		c-0.01,4.7,1.87,6.99,6.78,6.95c12.12-0.11,24.24,0.04,36.37-0.01c2.78-0.01,5.83-0.14,5.96-4.08c0.13-4.02-2.92-4.21-5.71-4.29
		c-5.54-0.15-11.08-0.09-16.62-0.14c-21.13-0.18-16.62,2.26-18.1-17.62c-0.6-8.09,1.8-11.84,10.95-11.69
		c9.83,0.16,20.03,2.57,29.61-1.98c3.67-1.39,5.69-5.35,2.15-6.61c-5.31-1.88-2.21-7.57-6.1-9.8c-1.29,0.95-2.51,1.58-3.37,2.54
		c-4.34,4.88-19.54,8.04-25.5,4.55c-7.32-4.28-3.68-11.75-4.23-17.94c-0.52-5.83,6.58-5.61,8.12-9.87c1.37,0,2.73-0.01,4.1-0.01
		c5.27,7.01,16.88,6.75,24.96-0.55L618.7,436.22z M627.49,557.4c-4.59,1.76-4.96,4.53-1.93,8.11c0.65,0.16,1.28,0.39,1.87,0.71
		c6.9-0.06,13.79-0.12,20.69-0.18c1.39-6.21-3.43-10.8-4.27-16.43c-0.55-4.96,2.58-12.37-6.01-12.64c-8.38-0.27-10.6,6-10.5,13.32
		c0.03,2.39,0.06,4.78,0.08,7.17L627.49,557.4z M498.05,542.97c-4.04-8.34-9.33-8.95-16.47-1.89c0.54,7.7-1,15.58,1.35,23.83
		c4.61-5.88,4.61-5.88,8.66-6.94C501.91,555.3,503.01,552.75,498.05,542.97z M319.05,486.35c1.32-2.96,2.63-5.92,3.95-8.89
		c9.9-8.16,15.23-18.12,11.08-31.13c-5.05-15.82-20.17-22.65-45.83-17.88c-12.74,2.37-4.02,14.95-6.33,22.56
		c-0.68,2.23-0.11,4.83-0.11,7.26c0.02,15.96,0,31.93,0.08,47.89c0.02,3.07-0.25,6.78,4.24,6.95c4.74,0.18,4.21-3.71,4.31-6.68
		c0.19-5.55-0.09-11.12,0.25-16.65c0.19-3.19-1.36-7.5,3.1-8.97c4.65-1.53,7.88,1.09,10.48,4.77c6.2,8.75,12.45,17.46,18.69,26.19
		c3.67,8.13,10.12,4.43,14.41,2.05c4.13-2.29,2.77-7.61-0.25-10.84C331.52,497.01,326.57,490.26,319.05,486.35z M460.78,565.4
		c1.42-0.1,3.4-0.65,3.15-1.93c-1.49-7.42-4.53-14.37-8.44-20.74c-2.15-3.51-4.97-0.97-6.17,1.67c-2.54,5.6-4.79,11.34-6.92,17.12
		c-0.97,2.62,0.69,3.72,3.16,3.84C450.64,564.74,455.72,562.96,460.78,565.4z M385.61,561.63c0.03-2.67,0.05-5.33,0.08-8
		c-1.31-5.09-8.22-1.19-9.79-6.22c1.65-4.56,7.89-1.17,10.64-6.15c-6.43-0.27-13.26-4.58-15.59,4.43
		c-1.26,4.86-0.43,10.32-0.16,15.49c0.27,4.97,4.42,5.11,7.68,4.5C381,565.21,387.28,569.8,385.61,561.63z M523.56,546.88
		c1.9-4.73,8.11-0.43,10.74-5.53c-5.33-0.92-11.64-3.33-13.95,1.97c-2.66,6.11-3.18,14.38,0.33,20.14
		c2.87,4.71,9.55,2.81,15.04,1.36c-2.43-4.87-6.17-0.89-8.7-2.52c-3.69-9.89,10.28-4.79,10.08-11.99
		C532.98,547.62,527.58,549.82,523.56,546.88z M673.14,555.41c13.71,4.31,28.37,1.93,42.13,5.95c0.63,0.18,1.44,0.13,2.05-0.11
		c18.72-7.33,38.26-2.58,57.39-3.93c5.1-0.36,10.43,1.06,15.14-2.1c5.61-1.07,11.52,0.72,16.98-1.79c27.88,0,55.76,0,83.64,0
		c-0.01-0.72-0.02-1.45-0.03-2.17c-33.52,0-67.04,0-100.56,0c-36.9,0.11-73.79,0.19-110.69,0.4c-1.97,0.01-3.93,1.02-5.9,1.56
		C673.25,553.95,673.19,554.68,673.14,555.41z M519.24,428.72c0.02,24.95-0.01,49.9,0.1,74.85c0.02,4.25-1.27,9.88,5.67,10.07
		c9.34,0.26,18.7,0.05,28.05-0.02c2.73-0.02,4.75-1.14,4.71-4.25c-0.04-2.95-1.82-4.38-4.62-4.49c-4.15-0.16-8.36-0.65-12.45-0.16
		c-10,1.19-12.44-3.64-12.11-12.7c0.54-14.88,0.33-29.8,0.11-44.7c-0.1-6.49,1.48-13.18-1.5-19.47
		C523.89,422.32,521.29,422.97,519.24,428.72z M835.86,494.12c-0.36-3.07-0.19-6.74-4.55-6.84c-3.51-0.08-5.85,2.53-6.92,5.45
		c-2.64,7.22,0.36,11.98,7.33,14.55c12.89,8.22,26.62,9.52,40.81,4.29c9.75-3.6,15.16-11.72,15.06-21.58
		c-0.11-9.86-5.35-16.24-14.24-19.71c-4.83-1.88-9.87-3.25-14.83-4.8c-5.29-1.64-10.67-2.92-15.38-6.14
		c-4.34-2.96-7.38-6.76-6.67-12.06c0.75-5.57,4.44-9.12,9.83-11.01c6.21-2.18,12.28-1.74,18.38,0.23c2.67,2.98,4.35,7.05,8.8,8.08
		c2.91,0.01,6.77,2.15,8.25-1.6c1.23-3.1-1.44-5.87-3.71-8.04c-10.35-9.87-22.83-8.93-35.07-5.76
		c-9.91,2.57-15.06,10.35-15.55,19.78c-0.52,10.1,4.93,16.3,13.4,20.16c4.68,2.13,9.77,3.41,14.75,4.78
		c5.69,1.57,11.36,3.24,16.3,6.5c7.8,5.15,8.32,15.2,1.35,21.15C862.25,510.9,842.64,506.99,835.86,494.12z M660.14,478.13
		c4.43,11.13,8.87,22.26,13.3,33.39c0.12,2.07,0.59,4.52,2.87,4.5c2.31-0.02,2.64-2.53,2.78-4.57c2.27-5.56,4.55-11.12,6.82-16.67
		c10.92-7.21,11.08-18.77,12.13-29.97c0.15-2.35-0.09-4.92,3.99-5.85c2.57,11.43,5.17,22.76,7.62,34.12
		c0.65,3.02,0.83,6.14,1.22,9.21c-0.08,4.8-1.29,9.97,2.72,13.77c4.64,4.39,8.57,5.14,9.21-3.1c-6.07-28.37-12.15-56.73-18.22-85.1
		c-0.82-0.06-1.63-0.12-2.45-0.18c-9.65,20.94-15.21,43.67-26.19,66.07c-8.97-23.36-17.2-44.76-25.42-66.16
		c-2.73,2.71-3.67,4.95-4.17,7.28c-5.07,23.41-10.14,46.82-14.98,70.28c-0.59,2.87-3.17,7.51,2.69,8.13
		c4.57,0.48,5.2-3.37,5.98-6.95c2.67-12.2,5.57-24.35,8.39-36.52C652.32,472.57,656.23,475.35,660.14,478.13z M772.45,514.23
		c23.61-0.14,42.2-19.43,42.2-43.79c0-24.25-18.58-42.86-42.85-42.92c-23.95-0.05-42.6,18.83-42.57,43.11
		C729.26,495.71,747.76,514.37,772.45,514.23z M557.06,543.38c-0.92,7.32-4.06,15.28,3,20.91c3.7,2.96,8.96,2.43,12.27-1.31
		c5.51-6.24,3.01-13.37,2-20.21c-4.22,3.78-2.29,8.46-3.15,12.67c-0.58,2.83-1.28,5.39-4.76,5.83c-3.99,0.5-5.33-2.13-6.55-5.19
		C558.21,551.95,560.45,547.18,557.06,543.38z M602.33,565.44c3.61-8.78-2.27-19.15,10.21-24.08c-8.14-1.09-13.57-1.62-19.75,0.97
		C605.7,546.19,596.68,557.26,602.33,565.44z M252.64,536.01c2.31-0.36,3.76-2.02,3.87-4.66c0.09-2.11-1.37-2.9-3.27-2.72
		c-2.29,0.22-3.67,1.56-3.77,3.9C249.38,534.38,250.06,535.82,252.64,536.01z"/>
	<path class="st1" d="M-10.3-22.32c0,343.29-0.01,686.58,0.04,1029.87c0,14.68-2.05,12.63,12.62,12.63
		c336.82,0.05,673.64,0.04,1010.46,0.04c-0.45,0.64,1.05,2.17-1.04,2.11c-2.77-0.09-5.55-0.02-8.33-0.02
		c-338.44,0-676.88,0-1015.83,0c0-5.38,0-10.77,0-16.16c0-339.7-0.01-679.39,0.13-1019.09C-12.26-15.99-14.66-20.01-10.3-22.32z"/>
	<path class="st2" d="M710.86,502.29c-0.39-3.07-0.57-6.19-1.22-9.21c-2.45-11.36-5.05-22.69-7.62-34.12
		c-4.08,0.93-3.85,3.5-3.99,5.85c-6.11,9.15-8.76,19.71-12.13,29.97c-2.27,5.56-4.55,11.12-6.82,16.67
		c-1.87,0.81-3.75,1.06-5.64,0.07c-4.43-11.13-8.87-22.26-13.3-33.39c-1.88-4.93-3.77-9.85-5.65-14.78
		c-0.06-2.25-0.14-4.74-2.31-5.86c-1.58-0.82-1.84,0.89-1.89,2.16c-2.43,3.04-2.13,6.59-1.88,10.13
		c-2.81,12.17-5.71,24.32-8.39,36.52c-0.78,3.58-1.41,7.43-5.98,6.95c-5.86-0.61-3.28-5.26-2.69-8.13
		c4.84-23.46,9.91-46.87,14.98-70.28c0.5-2.33,1.44-4.57,4.17-7.28c8.22,21.4,16.45,42.8,25.42,66.16
		c10.98-22.4,16.54-45.13,26.19-66.07c0.82,0.06,1.63,0.12,2.45,0.18c6.07,28.37,12.15,56.73,18.22,85.1
		C713,515.91,713.48,507.36,710.86,502.29z"/>
	<path class="st3" d="M772.45,514.23c-24.68,0.14-43.19-18.53-43.22-43.6c-0.03-24.28,18.62-43.16,42.57-43.11
		c24.27,0.05,42.85,18.66,42.85,42.92C814.65,494.8,796.06,514.09,772.45,514.23z M760.79,503.17c17.71,5.14,32.72-0.62,40.74-15.64
		c7.87-14.73,4.44-33.15-8.05-43.28c-15.18-12.3-34.52-10.18-47.27,4.07c-11.22,12.53-11.67,38.05,5.84,50.6
		C754.71,500.84,757.06,503.43,760.79,503.17z"/>
	<path class="st4" d="M322.96,511.77c-6.23-8.73-12.49-17.44-18.69-26.19c-2.6-3.67-5.83-6.3-10.48-4.77
		c-4.46,1.47-2.91,5.78-3.1,8.97c-0.33,5.53-0.06,11.1-0.25,16.65c-0.1,2.98,0.43,6.86-4.31,6.68c-4.49-0.17-4.23-3.88-4.24-6.95
		c-0.08-15.96-0.06-31.93-0.08-47.89c0-2.43-0.57-5.03,0.11-7.26c2.31-7.61-6.41-20.19,6.33-22.56
		c25.66-4.77,40.78,2.06,45.83,17.88c4.15,13.01-1.18,22.96-11.08,31.13c-11.84,3.21-11.9,3.35-4.44,11.61
		c4.17,8.43,12.59,14.13,15.68,23.48C329.95,514.35,326.39,513.73,322.96,511.77z M319.44,440.35c-8.25-6.82-18.31-5.31-26.63-2.64
		c-5.47,1.76-1.42,10.65-2.4,16.25c-0.12,0.67-0.02,1.39-0.02,2.08c-0.02,16.27-0.02,16.27,16.56,15.78
		c0.35-0.01,0.69,0.01,1.04-0.01c15.85-0.74,22.72-13.14,15.18-27.4C322.91,442.15,321.83,440.64,319.44,440.35z"/>
	<path class="st5" d="M618.78,473.87c-9.58,4.55-19.78,2.13-29.61,1.98c-9.16-0.15-11.56,3.6-10.95,11.69
		c1.49,19.88-3.02,17.43,18.1,17.62c5.54,0.05,11.08-0.01,16.62,0.14c2.8,0.08,5.85,0.27,5.71,4.29c-0.13,3.94-3.18,4.07-5.96,4.08
		c-12.12,0.05-24.24-0.1-36.37,0.01c-4.91,0.04-6.78-2.25-6.78-6.95c0.03-23.91,0.02-47.83-0.11-71.74c-0.03-5.5,2.6-7.14,7.7-7.05
		c13.85,0.25,27.7,0.21,41.55,0.29c0,2.67,0.01,5.33,0.01,8l0.2-0.04c-8.32,0.18-16.64,0.37-24.96,0.55c-1.37,0-2.73,0.01-4.1,0.01
		c-8.85-2.11-12.13,1.93-11.69,10.4c0.22,4.15,0.18,8.32,0.03,12.47c-0.2,5.68,2.26,8.18,8.05,8.02c8.3-0.23,16.63,0.21,24.93-0.1
		C615.98,467.35,618.2,469.39,618.78,473.87z"/>
	<path class="st6" d="M864.67,436.52c-6.1-1.97-12.17-2.41-18.38-0.23c-5.39,1.89-9.08,5.45-9.83,11.01
		c-0.71,5.3,2.33,9.1,6.67,12.06c4.71,3.21,10.09,4.49,15.38,6.14c4.96,1.54,10,2.91,14.83,4.8c8.89,3.46,14.14,9.84,14.24,19.71
		c0.11,9.86-5.3,17.99-15.06,21.58c-14.19,5.24-27.92,3.94-40.81-4.29c-0.81-1.47-1.55-2.99-2.46-4.4c-1.65-2.56-4.02-5.3-1.85-8.26
		c2.23-3.04,5.56-1.2,8.45-0.51c6.77,12.86,26.39,16.77,37.33,7.45c6.98-5.95,6.45-16-1.35-21.15c-4.94-3.26-10.61-4.93-16.3-6.5
		c-4.98-1.38-10.08-2.65-14.75-4.78c-8.47-3.85-13.92-10.05-13.4-20.16c0.49-9.43,5.64-17.21,15.55-19.78
		c12.24-3.18,24.72-4.11,35.07,5.76c2.28,2.17,4.94,4.94,3.71,8.04c-1.48,3.75-5.35,1.61-8.25,1.6
		C872.54,439.72,869.7,436.92,864.67,436.52z"/>
	<path class="st7" d="M416.75,503.62c0.53,0.59,1.05,1.17,1.58,1.76c0.17,2.62,3.43,4.4,2.1,7.44c-7.94,0.46-7.94,0.46-13.96-5.7
		c-2.91-6.25-7.07-11.62-11.71-16.65c-2.51-4.58-4.36-9.71-10.82-13.49c0,10.25,0.17,18.84-0.08,27.42
		c-0.1,3.41,1.55,8.68-4.45,8.61c-5.15-0.06-4.05-4.8-4.07-7.99c-0.11-22.88-0.12-45.76,0.01-68.64c0.02-3.13-1.19-7.74,4.13-7.92
		c5.47-0.18,4.31,4.48,4.38,7.61c0.21,9.13,0.07,18.26,0.07,27.8c4.86-1.23,5.82-3.75,6.43-6.54c6.47-6.8,11.29-14.78,16.22-22.68
		c2.25-1.6,3.82-3.72,4.71-6.33c3.05,0,6.1,0,10.28,0c-5.04,11.74-14.01,19.97-19.53,30.33c-2.13,1.76-4.14,3.59-4.35,6.61l0.2,0.03
		c-8.97,8.51,1.25,12.37,4.35,17.96c1.91,4.41,4.98,8,8.15,11.51C411.26,498.61,413.72,501.32,416.75,503.62z"/>
	<path class="st8" d="M427.2,507.15c0.32-0.33,0.41-0.72,0.27-1.15c2.38-3.33,4.12-6.91,4.35-11.09c3.82-6.27,6.49-13.01,8.18-20.15
		c7.23-12.12,10.82-25.84,16.93-38.46c2.45-1.66,4.69-3.73,7.82-4.09c12.72,26.33,22.76,53.76,33.07,81.07
		c-9.93,2.18-11.61-5.51-13.41-11.96c-2.31-8.3-6.79-12.21-15.54-10.77c-2.7,0.44-5.49,0.31-8.23,0.45
		c-17.4-1.03-17.4-1.03-20.93,11.78c-1.3,2.43-2.72,4.8-3.86,7.3c-1.4,3.08-3.82,3.98-6.79,3.2
		C425.41,512.33,427.76,509.23,427.2,507.15z M464.83,452.99l0.04,0.05c-0.42-2.51-0.08-5.5-4.34-6.3
		c-1.27,3.56-2.52,7.06-3.77,10.56c-2.38,6.13-4.72,12.28-7.16,18.39c-1.72,4.31-0.67,6.78,4.27,6.6
		c6.84-0.26,13.77,0.93,20.93-0.99c0.05-6.65-3.06-12.05-5.78-17.57C468.99,459.61,467.43,456.1,464.83,452.99z"/>
	<path class="st9" d="M223.47,494.79c0,1.36,0.01,2.73,0.01,4.09c-1.17,6.61,3.45,5.97,7.63,6.33c11.18,0.97,22.63-2.36,33.58,2.14
		l-0.01-0.01c-0.48,6.3-4.97,6.36-9.66,6.35c-13.4-0.04-26.81,0.03-40.21,0.05c-0.09-25.93-0.02-51.87-0.38-77.79
		c-0.09-6.67,2.76-8.27,8.72-8.06c7.6,0.27,15.23-0.12,22.84-0.23c2.09,0.01,4.17,0.02,6.26,0.03c2.79-0.02,5.58-0.03,8.38-0.05
		c6.06,4.96,4.55,8.18-2.59,8.62c-8.88,0.55-17.84,0.45-26.74,0.07c-6.31-0.27-8.63,2.11-8.21,8.35c0.45,6.84,0.26,13.71,0.35,20.57
		c-0.04,0.75-0.08,1.49-0.12,2.24c9.52,5.37,20.67-0.49,31.7,4.21c-5.17,3.24-9.64,1.82-13.81,2.22
		c-6.01,0.58-12.38-1.59-17.97,2.29c-0.05,0.68,0.03,1.34,0.23,2C223.46,483.74,223.47,489.27,223.47,494.79z"/>
	<path class="st10" d="M139.39,478.07c-6.83-14.93-3.53-30.64-3.06-46.02c0.16-5.21,4.84-8.36,10.53-7.77
		c5.15,0.53,6.05,4.87,5.24,8.57c-1.98,9.05,5.26,17.02,2.3,26.26c-1.02,3.19,2.86,5.53,6.06,5.81c5.15,0.46,10.4,0.6,15.53,0.11
		c5.81-0.56,5.56-5.5,5.32-9.6c-0.68-11.55,0.64-22.69,6.06-33.74c3.97,1.27,8.55,1.57,10.59,6.51c-0.69,0.01-1.39,0.03-2.08,0.06
		c-0.69-0.11-1.38-0.07-2.05,0.14c-1.35,0-2.69,0.01-4.04,0.01c-5.04,12.05-1.48,24.56-1.97,36.85c-9.3,4.18-19.12,1.08-28.64,2.09
		c-7.45,0.79-9.76-2.78-9.44-9.77c0.36-7.97,0.08-15.97-0.04-23.95c-0.04-2.49-0.48-4.95-3.77-5.2c-4.02-0.31-4.59,2.54-4.59,5.41
		c-0.05,24.65-0.02,49.3,0.05,73.95c0.01,2.54,0.72,5.05,3.83,5.27c3.9,0.27,4.45-2.65,4.5-5.56c0.13-7.99,0.07-15.97,0.19-23.96
		c0.05-3.11-0.08-7.14,4.19-7.07c11.25,0.18,22.72-2.77,33.71,1.97c-0.12,9.51-0.39,19.02-0.32,28.52c0.05,7.12,3.41,8.31,9.04,4.4
		c0.49,0,0.97,0,1.46-0.01c0.04,1.42,0.08,2.85,0.13,4.27l-0.05,0.05c-2.17,0.57-3.55,1.96-4.15,4.12l-0.02,0.01
		c-5.57,0.22-8.39-2.33-8.32-8.05c0.07-6.25,0.1-12.5-0.13-18.74c-0.1-2.76,1.31-6.83-3.99-6.63c-0.12-3.32,0.03-6.77-4.11-8.03
		c-2.84-0.01-5.68-0.01-8.52-0.02c-1.36,0-2.73-0.01-4.09-0.01c-12.17,0.11-12.39,0.32-12.45,12.5c-0.01,2.7,0.07,5.4,0.11,8.1
		c-0.01,4.16-0.03,8.33-0.04,12.49c-0.04,1.4-0.08,2.81-0.12,4.21l0,0c-2.16,0.6-3.56,1.99-4.19,4.14c-1.37,0-2.74,0-4.11,0
		c-0.63-2.16-2.03-3.54-4.19-4.13l0,0C139.61,503.11,139.5,490.59,139.39,478.07z"/>
	<path class="st11" d="M198.11,515.61c-0.04-1.42-0.08-2.85-0.13-4.27c0.1-22.22,0.19-44.43,0.29-66.65
		c16.05-3,11.2-17.07,13.7-27.46c8.72,8.04,18.64,9.01,27.78,3.16c1.4-0.22,2.8-0.43,4.19-0.65c0.68,2.64,1.36,5.27,2.04,7.91
		c-7.62,0.11-15.24,0.49-22.84,0.23c-5.95-0.21-8.81,1.39-8.72,8.06c0.36,25.93,0.29,51.86,0.38,77.79
		c-0.04,0.63-0.07,1.25-0.08,1.88C209.19,513.47,203.65,515.69,198.11,515.61z M207.38,508.61c0.7,0,1.39,0.01,2.09,0.01
		c0-20.35,0-40.69,0-61.04c-0.7,0.01-1.39,0.01-2.09,0.02C207.38,467.94,207.38,488.27,207.38,508.61z"/>
	<path class="st12" d="M527.18,427.85c2.98,6.29,1.41,12.97,1.5,19.47c0.22,14.9,0.43,29.82-0.11,44.7
		c-0.33,9.06,2.11,13.89,12.11,12.7c4.09-0.49,8.3,0,12.45,0.16c2.8,0.11,4.57,1.54,4.62,4.49c0.05,3.12-1.97,4.23-4.71,4.25
		c-9.35,0.07-18.7,0.28-28.05,0.02c-6.94-0.19-5.65-5.82-5.67-10.07c-0.12-24.95-0.08-49.9-0.1-74.85
		C521.89,428.43,524.53,428.14,527.18,427.85z"/>
	<path class="st13" d="M356.36,428.1c5.37,3.66,6.84,9.62,8.36,15.27c1.28,4.72,3.61,7.9,8.15,9.51c0.02,1.51,0.04,3.02,0.06,4.53
		c-12.2,0.2-15.69,6.15-10.95,19.24c4.3,11.86,4.07,23.59-0.38,35.29c-1.05,2.76-1.05,7.03-5.08,6.88
		c-4.51-0.18-10.7-2.42-11.13-6.1c-1.36-11.52-5.35-23.63,2.4-34.64c0.14,9.31,0.23,18.62,0.44,27.93c0.07,2.99-0.54,6.83,3.93,7.12
		c5.66,0.36,4.41-4.33,4.41-7.39C356.61,479.85,356.46,453.98,356.36,428.1z"/>
	<path class="st14" d="M356.36,428.1c0.1,25.87,0.26,51.75,0.22,77.62c0,3.06,1.25,7.75-4.41,7.39c-4.47-0.28-3.86-4.13-3.93-7.12
		c-0.21-9.31-0.3-18.62-0.44-27.93c0-1.38,0.01-2.75,0.01-4.13c0.2-15.26,0.41-30.52,0.61-45.78
		C351.07,428.14,353.71,428.12,356.36,428.1z"/>
	<path class="st15" d="M372.93,457.41c-0.02-1.51-0.04-3.02-0.06-4.53c0.05-5.86-0.04-11.73,0.19-17.58
		c0.16-3.95-1.16-8.88,4.01-10.68c5.5-1.91,9.18,1.5,12.22,5.54c3.1,4.12,4.79,8.04,0.35,12.81c-4.29,4.6-6.92,9.97,0.73,14.37
		c-0.62,2.79-1.57,5.31-6.43,6.54c0-9.54,0.13-18.67-0.07-27.8c-0.07-3.13,1.09-7.79-4.38-7.61c-5.32,0.18-4.11,4.78-4.13,7.92
		c-0.13,22.88-0.12,45.76-0.01,68.64c0.02,3.19-1.09,7.93,4.07,7.99c6.01,0.07,4.36-5.2,4.45-8.61c0.25-8.58,0.08-17.17,0.08-27.42
		c6.46,3.78,8.31,8.91,10.82,13.49c-7.32,2.81-4.89,9.28-4.84,14.36c0.06,7.04-1.95,11.75-9.61,11.69
		c-7.67-0.06-7.24-6.04-7.27-11.27C372.94,489.31,372.96,473.36,372.93,457.41z"/>
	<path class="st16" d="M281.38,546.89c0.02,1.74-0.05,3.48,0.09,5.2c0.19,2.34-0.2,5.27,3.15,5.65c2.34,0.27,3.81-1.47,4.65-3.49
		c0.96-2.31,2.05-4.42,4.62-5.27c0.16,8.04,1.65,15.34,11.35,16.69c8.78,1.22,13.42-4.42,14.21-16.69
		c4.97,3.25,4.38,7.69,1.74,11.75c-2.61,4-3.59,10.28-10.86,9.15c-6.11-0.95-12.51,1.71-17.85-5.24
		c-2.19-2.85-10.14-1.47-15.18,1.06c-0.84-0.09-1.68-0.19-2.52-0.28c9.34-12.05-5.95-12.58-9.47-18.41
		c3.58-4.08,8.97-0.44,11.82-4.28C278.55,544.12,279.97,545.5,281.38,546.89z"/>
	<path class="st17" d="M673.31,553.22c1.97-0.54,3.93-1.55,5.9-1.56c36.89-0.2,73.79-0.29,110.69-0.4
		c5.37,2.93,11.38,0.81,16.95,2.17c-5.46,2.51-11.37,0.72-16.98,1.79c-22.31-0.09-44.63-0.18-66.94-0.28
		C706.48,551.3,689.82,554.3,673.31,553.22z"/>
	<path class="st18" d="M241.12,540.97c10.85,1.3,5.9,9.89,6.78,15.46c0.95,6-1.4,11.53-7.91,12.72c-7.01,1.28-14.71,2.7-19.69-4.97
		c-0.95-1.46-1.5-3.49,0.26-4.61c1.92-1.23,2.97,0.92,4.26,1.9c5.08,6.92,10.95,5.22,17,1.55c2.34-2.58,2.43-5.15,0-7.72
		c-2.14-4.55-9.23-2.9-10.8-7.64C232.78,541.93,241.03,548.32,241.12,540.97z"/>
	<path class="st19" d="M722.91,554.94c22.31,0.09,44.63,0.18,66.94,0.28c-4.71,3.16-10.05,1.74-15.14,2.1
		c-19.12,1.35-38.67-3.4-57.39,3.93c-0.61,0.24-1.43,0.29-2.05,0.11c-13.76-4.02-28.42-1.64-42.13-5.95
		C689.73,555.25,706.32,555.1,722.91,554.94z"/>
	<path class="st20" d="M618.78,473.87c-0.58-4.48-2.8-6.52-7.62-6.33c-8.3,0.31-16.62-0.13-24.93,0.1
		c-5.79,0.16-8.25-2.34-8.05-8.02c0.15-4.15,0.19-8.32-0.03-12.47c-0.44-8.46,2.85-12.5,11.69-10.4c-1.54,4.26-8.64,4.04-8.12,9.87
		c0.55,6.19-3.09,13.66,4.23,17.94c5.96,3.48,21.16,0.32,25.5-4.55c0.85-0.96,2.08-1.58,3.37-2.54c3.89,2.23,0.78,7.91,6.1,9.8
		C624.47,468.52,622.45,472.48,618.78,473.87z"/>
	<path class="st21" d="M319.45,548.98c-0.8,12.27-5.44,17.92-14.21,16.69c-9.69-1.35-11.19-8.65-11.35-16.69l0-0.04
		c8.88-11.08,13.92-11.46,25.01-1.86C318.95,547.75,319.13,548.38,319.45,548.98z M314.91,553.14c-0.61-5.05-2.85-8.53-8.42-8.25
		c-5.38,0.27-8.1,3.72-7.85,8.77c0.22,4.54,3.01,7.57,7.9,7.73C312.11,561.56,314.31,558.12,314.91,553.14z"/>
	<path class="st22" d="M264.69,507.36c-10.95-4.5-22.4-1.17-33.58-2.14c-4.19-0.36-8.8,0.28-7.63-6.33
		c10.76,0.04,21.51,0.18,32.27,0.07C261.61,498.89,265.17,500.86,264.69,507.36z"/>
	<path class="st23" d="M406.57,565.53c-0.06-5.49-0.26-10.98-0.13-16.46c0.07-2.89-1.07-6.74,2.89-7.93c4.31-1.29,9-1.6,12.82,1.29
		c3.25,2.46,4.34,6.2,2.86,10.17c-1.14,3.07-4.18,5.89-0.53,9.19c0.31,2.49-0.94,3.58-3.29,3.68l0.03,0.06
		c-1.57-3.31-2.71-7.46-7.34-7.11c-4.49,0.33-3.03,4.37-3.46,7.13l0.07-0.06C409.19,565.51,407.88,565.52,406.57,565.53z
		 M416.08,554.6c2.24-0.12,5.03-1.51,5.36-5.09c0.3-3.27-2-4.74-5.2-4.89c-3.19-0.15-5.26,0.86-5.47,4.42
		C410.6,552.1,411.13,554.52,416.08,554.6z"/>
	<path class="st24" d="M427.2,507.15c0.56,2.08-1.79,5.18,1.86,6.13c2.97,0.78,5.39-0.12,6.79-3.2c1.14-2.5,2.56-4.87,3.86-7.3
		c0.1,5.13,0.88,10.44-3.79,14.31c-2.66,2.2-22.84,2.29-25.48,0.15c-3.26-2.63-4.16-6.15-3.96-10.12c6.02,6.16,6.02,6.16,13.96,5.7
		c1.32-3.04-1.93-4.83-2.1-7.44C421.77,503.52,424.68,504.38,427.2,507.15z"/>
	<path class="st22" d="M214.73,515.63c0.01-0.63,0.04-1.25,0.08-1.88c13.4-0.02,26.81-0.09,40.21-0.05c4.7,0.01,9.18-0.05,9.66-6.35
		c5.98,0.14,4.39,3.84,2.84,6.8c-2.27,4.31-6.31,5.86-11.08,5.6c-6.28-7.6-12.53-3.63-18.78,0.05c-2.08,0-4.16-0.01-6.25-0.01
		c-2.78-1.56-5.56-4.9-8.34,0c-1.38-0.01-2.76-0.01-4.14-0.02c-0.63-2.15-2.02-3.54-4.18-4.13L214.73,515.63z"/>
	<path class="st25" d="M527.02,562.3c2.54,1.63,6.28-2.34,8.7,2.52c-5.49,1.45-12.17,3.35-15.04-1.36
		c-3.51-5.75-2.99-14.03-0.33-20.14c2.31-5.3,8.62-2.89,13.95-1.97c-2.64,5.09-8.84,0.8-10.74,5.53c-0.51,5.4,5.75,2.59,7.7,5.66
		C525.79,554.54,517.98,555.28,527.02,562.3z"/>
	<path class="st26" d="M385.61,561.63c1.66,8.17-4.62,3.58-7.14,4.05c-3.26,0.61-7.42,0.47-7.68-4.5
		c-0.28-5.17-1.1-10.63,0.16-15.49c2.33-9.01,9.16-4.7,15.59-4.43c-2.74,4.98-8.99,1.6-10.64,6.15c1.56,5.04,8.48,1.14,9.79,6.22
		c-1.37,0.05-2.74,0.05-4.1,0.17c-2.72,0.24-5.94,0.13-5.96,4c-0.02,3.84,3.14,3.89,5.89,4.04
		C382.88,561.92,384.25,561.71,385.61,561.63z"/>
	<path class="st27" d="M445.56,565.36c-2.46-0.13-4.13-1.22-3.16-3.84c2.14-5.77,4.38-11.52,6.92-17.12
		c1.2-2.64,4.01-5.18,6.17-1.67c3.9,6.37,6.95,13.32,8.44,20.74c0.26,1.27-1.73,1.83-3.15,1.93
		C455.59,557.68,450.68,557.67,445.56,565.36z M452.88,548.39c-1.58,2.75-4.41,4.63-1.91,7.91c0.5,0.66,2.96,0.79,3.62,0.18
		C457.72,553.61,455.36,551.33,452.88,548.39z"/>
	<path class="st13" d="M322.96,511.77c3.44,1.96,6.99,2.57,11.28,0.78c-3.09-9.34-11.51-15.05-15.68-23.48
		c0.17-0.91,0.33-1.82,0.5-2.73c7.51,3.91,12.46,10.67,18.06,16.64c3.03,3.23,4.39,8.55,0.25,10.84
		C333.07,516.2,326.62,519.9,322.96,511.77z"/>
	<path class="st28" d="M806.83,553.43c-5.57-1.36-11.58,0.76-16.95-2.17c33.52,0,67.04,0,100.56,0c0.01,0.72,0.02,1.45,0.03,2.17
		C862.59,553.43,834.71,553.43,806.83,553.43z"/>
	<path class="st29" d="M627.43,566.22c-0.59-0.32-1.22-0.55-1.87-0.71c0.64-2.7,1.29-5.41,1.93-8.11l-0.07,0.06
		c4.69-4.57,3.58-13.03,10.84-16.61c2.02,3.16,3.8,5.96,5.58,8.76c0.85,5.63,5.67,10.22,4.27,16.43
		C638.7,557.42,635.33,557.45,627.43,566.22z M637.06,547.93c-1.65,2.91-4.45,5-1.79,8.26c1.1,1.35,3.61,1.41,4.61-0.05
		C642.06,552.98,640.05,550.64,637.06,547.93z"/>
	<path class="st30" d="M498.05,542.97c4.96,9.78,3.86,12.33-6.46,15.01c-4.04,1.05-4.04,1.05-8.66,6.94
		c-2.35-8.25-0.81-16.13-1.35-23.83C487.22,540.44,492.88,539.51,498.05,542.97z M485.93,545.33c0.43,3.1-1.82,7.17,2.63,8.86
		c2.67,1.01,5.37,0.46,7.31-2.04c2.58-3.33,0.96-5.61-1.87-7.6C491.11,542.64,488.35,542.28,485.93,545.33z"/>
	<path class="st31" d="M277.14,542.73c-2.86,3.84-8.24,0.2-11.82,4.28c3.52,5.83,18.81,6.36,9.47,18.41
		c-0.67-0.09-1.35-0.19-2.02-0.29c-2.69-1.1-5.38-2.2-8.07-3.31c1.37-0.08,2.74-0.15,4.11-0.23c1.62-0.28,3.48-0.42,3.7-2.52
		c0.26-2.59-1.64-3.26-3.72-3.58c-2.71-0.57-5.61-0.53-7.92-2.42C260.47,540.57,264.16,538.23,277.14,542.73z"/>
	<path class="st32" d="M557.06,543.38c3.39,3.8,1.15,8.57,2.81,12.7c1.22,3.06,2.57,5.69,6.55,5.19c3.48-0.44,4.18-3,4.76-5.83
		c0.86-4.21-1.07-8.9,3.15-12.67c1,6.85,3.5,13.98-2,20.21c-3.3,3.74-8.56,4.27-12.27,1.31
		C552.99,558.66,556.14,550.7,557.06,543.38z"/>
	<path class="st33" d="M241.82,563.01c-6.05,3.67-11.92,5.37-17-1.55c0.87-0.33,1.75-0.65,2.62-0.98c4.03,1.58,8.12,3.64,11.59-1.8
		c-3.08-4.07-7.86-3.97-11.7-5.68l0.03,0.12c-0.69-2.67-1.38-5.35-2.06-8.02c4.28-5.17,9.95-5.06,15.82-4.14
		c-0.09,7.35-8.34,0.97-10.1,6.67c1.57,4.75,8.65,3.1,10.8,7.64C241.82,557.86,241.82,560.44,241.82,563.01z"/>
	<path class="st34" d="M460.64,491c2.75-0.13,5.54-0.01,8.23-0.45c8.75-1.43,13.22,2.47,15.54,10.77
		c1.8,6.45,3.48,14.15,13.41,11.96c-7.34,4.72-13.72,2.15-15.32-5.22c-2.21-10.18-7.34-14.05-17.1-13.61
		C463.19,494.56,461.65,492.95,460.64,491z"/>
	<path class="st13" d="M348.42,428.16c-0.2,15.26-0.41,30.52-0.61,45.78c-2.36-1.17-3.68-3.09-3.7-5.69
		c-0.07-11.28-0.08-22.56-0.05-33.85C344.07,431.39,345.42,429.16,348.42,428.16z"/>
	<path class="st11" d="M181.45,486.38c5.3-0.21,3.89,3.87,3.99,6.63c0.23,6.24,0.2,12.49,0.13,18.74c-0.07,5.72,2.75,8.26,8.32,8.05
		c-0.63,2.99-1.9,5.22-5.52,4.4c-4.3-0.98-6.4-4.13-6.54-8.14C181.47,506.17,181.55,496.27,181.45,486.38z"/>
	<path class="st35" d="M223.46,478.21c-0.2-0.65-0.28-1.32-0.23-2c10.72-0.09,21.45-0.12,32.17-0.29c2.96-0.05,6.82,0.62,6.87-4.09
		c0.04-4.73-3.78-4.12-6.78-4.15c-10.73-0.13-21.45-0.14-32.18-0.19c0.04-0.75,0.08-1.49,0.12-2.24c10.63,0.1,21.26,0.16,31.89,0.33
		c4.16,0.07,8.81-0.03,9.05,5.83c0.28,6.56-4.63,6.6-9.24,6.65c-7.89,0.1-15.78,0.13-23.66,0.19
		C228.81,478.25,226.14,478.23,223.46,478.21z"/>
	<path class="st36" d="M456.92,436.3c-6.1,12.62-9.69,26.34-16.93,38.46c-0.65-5.63,0.27-10.8,3.13-15.88
		c2.84-5.04,5.37-10.23,5.25-16.49c-0.1-5.43,3.53-8.72,8.71-10.16C457.04,433.59,456.98,434.95,456.92,436.3z"/>
	<path class="st18" d="M277.14,542.73c-12.98-4.5-16.67-2.16-16.29,10.35c-3.77-1.22-7.33-3.03-7.07-7.56
		c0.23-3.95,4.13-5.29,7.02-6.9c9.33-5.22,16.89-2.08,20.58,8.26C279.97,545.5,278.55,544.12,277.14,542.73z"/>
	<path class="st37" d="M198.27,444.7c-0.1,22.22-0.19,44.43-0.29,66.65c-0.49,0.01-0.97,0.01-1.46,0.01
		c-0.21-27.7-0.43-55.39-0.64-83.09c0.69-0.03,1.39-0.05,2.08-0.06C198.06,433.7,198.16,439.2,198.27,444.7z"/>
	<path class="st27" d="M602.33,565.44c-5.65-8.17,3.37-19.25-9.54-23.12c6.18-2.59,11.61-2.05,19.75-0.97
		C600.06,546.29,605.94,556.66,602.33,565.44z"/>
	<path class="st38" d="M243.95,419.76c-1.4,0.22-2.8,0.43-4.19,0.65c-1.81-11,4.23-18.47,14.95-17.61
		C253.09,409.85,247.23,414.04,243.95,419.76z"/>
	<path class="st11" d="M139.39,478.07c0.11,12.52,0.23,25.03,0.34,37.55c-1.17-1.15-3.38-2.34-3.35-3.46
		C136.68,500.75,131.59,488.81,139.39,478.07z"/>
	<path class="st39" d="M643.85,549.6c-1.78-2.8-3.57-5.59-5.58-8.76c-7.26,3.58-6.15,12.04-10.84,16.61
		c-0.03-2.39-0.05-4.78-0.08-7.17c-0.11-7.32,2.12-13.58,10.5-13.32C646.42,537.24,643.3,544.64,643.85,549.6z"/>
	<path class="st40" d="M165,542.95c0.07-2.39-0.18-5.04,3.21-5.32c1.76-0.14,3.24,0.51,4.21,2.21c2.3,4.04-0.02,21.56-3.47,25.7
		c0.05-6.41,0.1-12.82,0.16-19.24C169.13,543.45,168.46,541.51,165,542.95z"/>
	<path class="st41" d="M149.88,545.25c1.45,1.91,2.99,3.75,4.32,5.73c3.86,5.74,5.13,1.97,6.46-1.7c1.36-1.48,2.72-2.97,4.07-4.45
		c0.58,2.07,1.15,4.13,1.73,6.2c-4.61,2.69-4.76,9.3-10.02,11.42c-0.67-0.38-1.33-0.75-2-1.13c-1.25-3.88-3.22-7.31-6.19-10.13
		C148.8,549.2,149.34,547.23,149.88,545.25z"/>
	<path class="st42" d="M685.9,494.78c3.37-10.26,6.02-20.82,12.13-29.97C696.98,476.01,696.82,487.58,685.9,494.78z"/>
	<path class="st43" d="M318.9,547.08c-11.09-9.6-16.13-9.23-25.01,1.86c-0.03-7.79,3.79-12.04,11.61-12.36
		C312.87,536.29,318.07,538.94,318.9,547.08z"/>
	<path class="st39" d="M627.43,566.22c7.9-8.77,11.26-8.8,20.69-0.18C641.23,566.1,634.33,566.16,627.43,566.22z"/>
	<path class="st11" d="M152.39,498.92c-0.04-2.7-0.13-5.4-0.11-8.1c0.06-12.18,0.28-12.39,12.45-12.5
		C158.03,483.64,156.88,492.28,152.39,498.92z"/>
	<path class="st44" d="M835.86,494.12c-2.9-0.68-6.22-2.52-8.45,0.51c-2.17,2.96,0.2,5.69,1.85,8.26c0.91,1.41,1.64,2.93,2.46,4.4
		c-6.97-2.57-9.98-7.34-7.33-14.55c1.07-2.92,3.41-5.53,6.92-5.45C835.67,487.38,835.5,491.06,835.86,494.12z"/>
	<path class="st20" d="M593.95,436.74c8.32-0.18,16.64-0.37,24.96-0.55C610.83,443.49,599.22,443.75,593.95,436.74z"/>
	<path class="st22" d="M223.46,478.21c2.67,0.02,5.35,0.04,8.02,0.05c-0.23,6.69-2.44,12.43-8.01,16.52
		C223.47,489.27,223.46,483.74,223.46,478.21z"/>
	<path class="st45" d="M144.26,565.48c-6.56-6.89-6.49-18.11,0.15-24.62C144.36,549.07,144.31,557.27,144.26,565.48z"/>
	<path class="st46" d="M189.36,557.21c0.82-1.37,1.64-2.74,2.45-4.11c0.93,0.07,1.86,0.14,2.79,0.2c0.58,4.98,4.49,3.61,7.51,3.95
		c1.29-1.29,2.59-2.58,3.88-3.88c1.11,3.47,4.11,6.35,3.11,11.66c-7.68-7.54-14.81-5.96-21.5,0.66
		C188.19,562.86,188.78,560.03,189.36,557.21z"/>
	<path class="st47" d="M205.99,553.37c-1.29,1.29-2.59,2.58-3.88,3.88c0.34-3.18,0.08-6.82-2.76-8.16
		c-2.84-1.35-2.95,2.94-4.75,4.21c-0.93-0.07-1.86-0.14-2.79-0.2c0.18-1,0.11-2.14,0.59-2.96c1.81-3.09,1.69-8.32,6.02-8.66
		c4.88-0.38,4.29,5.19,6.15,8.1C205.29,550.69,205.54,552.1,205.99,553.37z"/>
	<path class="st48" d="M722.91,554.94c-16.59,0.15-33.18,0.31-49.77,0.46c0.06-0.73,0.11-1.46,0.17-2.19
		C689.82,554.3,706.48,551.3,722.91,554.94z"/>
	<path class="st49" d="M648.41,469.79c-0.24-3.54-0.55-7.09,1.88-10.13c1.4,1.23,2.79,2.46,4.19,3.7c1.88,4.93,3.77,9.85,5.65,14.78
		C656.23,475.35,652.32,472.57,648.41,469.79z"/>
	<path class="st50" d="M272.76,565.13c0.67,0.11,1.35,0.21,2.02,0.29c0.84,0.09,1.68,0.19,2.52,0.28
		c-4.72,6.92-11.54,4.24-17.46,3.14c-3.91-0.73-3.33-4.38-1.19-7.26C262.15,567.55,267.69,565.41,272.76,565.13z"/>
	<path class="st51" d="M527.02,562.3c-9.04-7.02-1.23-7.76,4.24-9.76c-1.95-3.07-8.2-0.26-7.7-5.66c4.02,2.94,9.42,0.74,13.54,3.43
		C537.31,557.51,523.33,552.41,527.02,562.3z"/>
	<path class="st52" d="M227.33,553c3.84,1.71,8.62,1.61,11.7,5.68c-3.47,5.43-7.57,3.37-11.59,1.8
		C227.41,557.98,227.37,555.49,227.33,553z"/>
	<path class="st53" d="M710.86,502.29c2.62,5.07,2.15,13.62,11.94,10.67c-0.64,8.24-4.57,7.49-9.21,3.1
		C709.57,512.26,710.77,507.09,710.86,502.29z"/>
	<path class="st54" d="M346.08,545.2c-1.64,6.76,4,15.01-4.19,20.42c-0.05-6.87-0.1-13.74-0.16-20.61
		C343.18,545.07,344.63,545.13,346.08,545.2z"/>
	<path class="st55" d="M385.61,561.63c-1.36,0.08-2.74,0.28-4.09,0.21c-2.75-0.15-5.91-0.2-5.89-4.04c0.02-3.87,3.24-3.76,5.96-4
		c1.36-0.12,2.73-0.12,4.1-0.17C385.67,556.3,385.64,558.96,385.61,561.63z"/>
	<path class="st56" d="M156.45,562.44c5.27-2.12,5.41-8.73,10.02-11.42c0.1,4.8,0.2,9.59,0.3,14.39
		C164.22,561.32,158.55,568.12,156.45,562.44z"/>
	<path class="st57" d="M346.08,545.2c-1.45-0.06-2.9-0.13-4.35-0.19c-0.75-0.04-1.51-0.08-2.26-0.11c-1.47-0.65-3.35-0.73-4.07-3.38
		c5.47-2.1,10.95-0.86,16.55-0.95C351.89,545.65,347.89,543.77,346.08,545.2z"/>
	<path class="st11" d="M237.66,519.8c6.25-3.68,12.5-7.65,18.78-0.05C250.17,518.45,243.93,522.93,237.66,519.8z"/>
	<path class="st58" d="M498.05,542.97c-5.17-3.46-10.83-2.54-16.47-1.89C488.72,534.02,494.01,534.63,498.05,542.97z"/>
	<path class="st59" d="M421.2,565.48c2.36-0.1,3.6-1.19,3.29-3.68c2.69,0.13,5.65,0.04,6.04,3.69c0.25,2.4-1.45,3.72-3.61,3.95
		C424.02,569.76,420.41,570.67,421.2,565.48z"/>
	<path class="st59" d="M410.43,565.55c0.43-2.76-1.03-6.8,3.46-7.13c4.63-0.34,5.77,3.81,7.34,7.11
		C417.63,565.54,414.03,565.54,410.43,565.55z"/>
	<path class="st60" d="M402.24,483.25c-3.09-5.59-13.32-9.45-4.35-17.96C397.27,471.78,403.35,476.65,402.24,483.25z"/>
	<path class="st61" d="M445.56,565.36c5.12-7.69,10.02-7.68,15.22,0.03C455.72,562.96,450.64,564.74,445.56,565.36z"/>
	<path class="st18" d="M252.64,536.01c-2.58-0.2-3.26-1.63-3.18-3.48c0.1-2.34,1.48-3.68,3.77-3.9c1.9-0.18,3.37,0.61,3.27,2.72
		C256.39,533.99,254.95,535.65,252.64,536.01z"/>
	<path class="st62" d="M166.78,565.41c-0.1-4.8-0.2-9.59-0.3-14.39c-0.58-2.07-1.15-4.13-1.73-6.2c0.21-0.57,0.28-1.17,0.21-1.77
		l0.05-0.11c3.45-1.44,4.13,0.5,4.11,3.35c-0.06,6.41-0.11,12.82-0.16,19.24C168.23,565.49,167.5,565.45,166.78,565.41z"/>
	<path class="st63" d="M319.05,486.35c-0.17,0.91-0.33,1.82-0.5,2.73c-7.45-8.27-7.4-8.4,4.44-11.61
		C321.68,480.42,320.37,483.39,319.05,486.35z"/>
	<path class="st41" d="M144.26,565.48c0.05-8.21,0.1-16.41,0.15-24.62c1.52,0.03,3.02,0.1,3.69,1.83
		c-3.27,6.81-2.94,13.66-0.27,20.55c0.11,0.74,0.21,1.49,0.32,2.23C146.85,565.48,145.56,565.48,144.26,565.48z"/>
	<path class="st11" d="M168.82,478.33c2.84,0.01,5.68,0.01,8.52,0.02c-0.29,2.56,0.4,5.33-1.45,7.72
		C171.3,485.28,170.03,481.83,168.82,478.33z"/>
	<path class="st56" d="M148.15,565.48c-0.11-0.74-0.21-1.49-0.32-2.23c0.14-4.02,0.28-8.04,0.43-12.06
		c2.97,2.82,4.94,6.25,6.19,10.13C152.35,562.7,150.25,564.09,148.15,565.48z"/>
	<path class="st64" d="M456.92,436.3c0.06-1.36,0.11-2.71,0.17-4.07c2-1.8,1.94-6.12,5.06-5.94c2.82,0.16,2.8,3.42,2.6,5.92
		C461.62,432.57,459.37,434.64,456.92,436.3z"/>
	<path class="st65" d="M148.26,551.18c-0.14,4.02-0.28,8.04-0.43,12.06c-2.66-6.89-3-13.74,0.27-20.55c0.59,0.85,1.19,1.7,1.78,2.55
		C149.34,547.23,148.8,549.2,148.26,551.18z"/>
	<path class="st66" d="M339.47,544.89c0.75,0.04,1.51,0.08,2.26,0.11c0.05,6.87,0.1,13.74,0.16,20.61
		C338,559.07,340.49,551.78,339.47,544.89z"/>
	<path class="st40" d="M189.36,557.21c-0.59,2.83-1.18,5.65-1.76,8.47c-1.58-0.12-3.16-0.23-5.85-0.43
		C184.65,562.02,185.82,558.61,189.36,557.21z"/>
	<path class="st67" d="M272.76,565.13c-5.07,0.28-10.61,2.42-14.11-3.55c0.67-0.13,1.33-0.29,1.99-0.48c1.4,0.09,2.8,0.19,4.2,0.28
		l-0.15,0.45C267.38,562.92,270.07,564.03,272.76,565.13z"/>
	<path class="st68" d="M864.67,436.52c5.03,0.41,7.87,3.2,8.8,8.08C869.01,443.56,867.34,439.5,864.67,436.52z"/>
	<path class="st69" d="M618.7,436.22c0-2.67-0.01-5.33-0.01-8C624.29,430.88,624.49,433.55,618.7,436.22z"/>
	<path class="st70" d="M527.18,427.85c-2.65,0.29-5.3,0.58-7.95,0.87C521.29,422.97,523.89,422.32,527.18,427.85z"/>
	<path class="st71" d="M260.63,427.65c-2.79,0.02-5.58,0.03-8.38,0.05C255.01,422.96,257.8,422.88,260.63,427.65z"/>
	<path class="st72" d="M225.3,545.1c0.69,2.67,1.38,5.35,2.06,8.02c-4.48-1.75-5.12-4.97-3.43-9.05c0.02-0.05,0.61,0.03,0.81,0.19
		C225,544.46,225.12,544.82,225.3,545.1z"/>
	<path class="st24" d="M431.82,494.91c-0.23,4.18-1.96,7.76-4.35,11.09C427.51,501.75,426.05,496.91,431.82,494.91z"/>
	<path class="st40" d="M164.95,543.05c0.07,0.61,0,1.2-0.21,1.77c-1.36,1.48-2.72,2.97-4.07,4.45c0-3.06,0-6.13,0-9.18
		C163.45,539.82,163.64,542.15,164.95,543.05z"/>
	<path class="st73" d="M673.44,511.53c1.89,0.99,3.77,0.74,5.64-0.07c-0.13,2.04-0.46,4.55-2.78,4.57
		C674.02,516.05,673.56,513.6,673.44,511.53z"/>
	<path class="st74" d="M268.78,555.5c2.09,0.32,3.99,0.98,3.72,3.58c-0.21,2.1-2.07,2.24-3.7,2.52
		C268.79,559.56,268.79,557.53,268.78,555.5z"/>
	<path class="st39" d="M627.49,557.4c-0.64,2.7-1.29,5.41-1.93,8.11C622.53,561.93,622.9,559.16,627.49,557.4z"/>
	<path class="st75" d="M416.75,503.62c-3.03-2.3-5.49-5.01-6.35-8.86C414.13,496.56,416.29,499.48,416.75,503.62z"/>
	<path class="st76" d="M411.3,428.32c-0.89,2.62-2.46,4.73-4.71,6.33C406.5,431.32,407.68,428.91,411.3,428.32z"/>
	<path class="st11" d="M223.07,519.79c2.78-4.9,5.56-1.56,8.34,0C228.63,519.79,225.85,519.79,223.07,519.79z"/>
	<path class="st77" d="M397.69,465.26c0.21-3.02,2.23-4.85,4.35-6.61C402.29,461.98,401.34,464.51,397.69,465.26z"/>
	<path class="st59" d="M406.57,565.53c1.31-0.01,2.62-0.03,3.93-0.04c-0.18,1.47,0.4,3.71-1.74,3.73
		C406.85,569.25,406.88,567.05,406.57,565.53z"/>
	<path class="st11" d="M148.03,519.76c0.63-2.16,2.02-3.54,4.19-4.14C151.62,517.8,150.23,519.19,148.03,519.76z"/>
	<path class="st11" d="M193.9,519.78c0.61-2.16,1.98-3.54,4.15-4.12C197.45,517.82,196.07,519.19,193.9,519.78z"/>
	<path class="st11" d="M214.74,515.64c2.17,0.59,3.56,1.98,4.18,4.13C216.74,519.19,215.35,517.8,214.74,515.64z"/>
	<path class="st11" d="M139.73,515.63c2.17,0.6,3.56,1.98,4.19,4.13C141.73,519.19,140.34,517.81,139.73,515.63z"/>
	<path class="st11" d="M152.22,515.62c0.04-1.4,0.08-2.81,0.12-4.21C155.81,512.92,155.63,514.32,152.22,515.62z"/>
	<path class="st74" d="M264.84,561.38c-1.4-0.09-2.8-0.19-4.2-0.28C262.3,557.24,263.62,558.48,264.84,561.38z"/>
	<path class="st78" d="M654.49,463.35c-1.4-1.23-2.79-2.46-4.19-3.7c0.05-1.27,0.3-2.98,1.89-2.16
		C654.34,458.62,654.42,461.11,654.49,463.35z"/>
	<path class="st79" d="M752.04,498.92c-17.5-12.55-17.05-38.07-5.84-50.6c12.75-14.24,32.09-16.37,47.27-4.07
		c12.49,10.13,15.92,28.55,8.05,43.28c-8.02,15.02-23.03,20.77-40.74,15.64C759.14,499.15,755.78,498.65,752.04,498.92z
		 M800.57,473.81c3.19-9.45-1-13.6-5.36-19.26C792.69,462.56,797.14,466.74,800.57,473.81z M796.71,484.48
		c1.46-0.52,2.14-1.7,2.15-3.11c0.01-1.62-0.99-2.5-2.58-1.93c-1.43,0.51-1.83,1.87-1.61,3.29
		C794.84,483.82,795.49,484.54,796.71,484.48z"/>
	<path class="st80" d="M752.04,498.92c3.73-0.27,7.09,0.23,8.75,4.25C757.06,503.43,754.71,500.84,752.04,498.92z"/>
	<path class="st81" d="M319.44,440.35c2.39,0.3,3.47,1.8,3.73,4.06c-0.4,16.93-0.4,16.93-15.95,21.36c-0.65,0.19-1.45,0.27-1.89,0.7
		c-7.13,6.95-8.98-0.62-10.56-4.59c-1.45-3.64-0.71-8.18-0.78-12.33c-0.05-2.49,1.05-1.81,2.62-4.08
		C302.85,436.47,312.14,443.19,319.44,440.35z"/>
	<path class="st82" d="M319.44,440.35c-7.3,2.84-16.59-3.88-22.83,5.1c-1.58,2.27-2.67,1.6-2.62,4.08
		c0.08,4.15-0.67,8.69,0.78,12.33c1.59,3.98,3.43,11.54,10.56,4.59c0.44-0.43,1.24-0.51,1.89-0.7c15.54-4.43,15.54-4.43,15.95-21.36
		c7.54,14.26,0.67,26.66-15.18,27.4c-0.35,0.02-0.69,0-1.04,0.01c-16.58,0.49-16.58,0.49-16.56-15.78c0-0.69-0.1-1.41,0.02-2.08
		c0.98-5.6-3.07-14.49,2.4-16.25C301.13,435.04,311.2,433.53,319.44,440.35z"/>
	<path class="st83" d="M469,463.72c2.72,5.52,5.82,10.92,5.78,17.57c-7.16,1.92-14.09,0.74-20.93,0.99
		c-4.93,0.18-5.99-2.29-4.27-6.6c2.44-6.11,4.78-12.26,7.16-18.39c2.71-1.42,5.41-2.84,8.12-4.26c0,0-0.04-0.05-0.04-0.05
		C464.47,457.25,465.28,461.05,469,463.72z"/>
	<path class="st84" d="M464.86,453.04c-2.71,1.42-5.41,2.84-8.12,4.26c1.25-3.5,2.5-6.99,3.77-10.56
		C464.78,447.55,464.45,450.53,464.86,453.04z"/>
	<path class="st84" d="M469,463.72c-3.73-2.67-4.53-6.47-4.17-10.73C467.43,456.1,468.99,459.61,469,463.72z"/>
	<path class="st85" d="M223.32,467.5c10.73,0.05,21.45,0.06,32.18,0.19c2.99,0.04,6.82-0.57,6.78,4.15
		c-0.04,4.71-3.9,4.04-6.87,4.09c-10.72,0.17-21.45,0.21-32.17,0.29c5.59-3.88,11.96-1.71,17.97-2.29c4.17-0.4,8.64,1.02,13.81-2.22
		C243.99,467.01,232.84,472.87,223.32,467.5z"/>
	<path class="st86" d="M189.79,428.41c1.35,0,2.69-0.01,4.04-0.01c0,26.77,0,53.54,0,80.3c-0.99-0.01-1.97-0.02-2.96-0.03
		c-3.4-9.8,1.49-20.57-3.07-30.24c-10.98-4.75-22.46-1.79-33.71-1.97c-4.27-0.07-4.15,3.96-4.19,7.07
		c-0.12,7.99-0.06,15.97-0.19,23.96c-0.05,2.91-0.6,5.83-4.5,5.56c-3.11-0.22-3.83-2.73-3.83-5.27c-0.07-24.65-0.1-49.3-0.05-73.95
		c0.01-2.87,0.58-5.72,4.59-5.41c3.29,0.26,3.73,2.72,3.77,5.2c0.12,7.98,0.4,15.99,0.04,23.95c-0.32,6.99,1.99,10.56,9.44,9.77
		c9.52-1.01,19.35,2.09,28.64-2.09C191.91,453.16,188.63,440.66,189.79,428.41z"/>
	<path class="st87" d="M187.8,478.43c4.56,9.67-0.32,20.43,3.07,30.24c0.99,0.01,1.97,0.02,2.96,0.03c0-26.77,0-53.54,0-80.3
		c0.67-0.21,1.36-0.25,2.05-0.14c0.21,27.7,0.43,55.39,0.64,83.09c-5.63,3.91-8.99,2.72-9.04-4.4
		C187.41,497.45,187.68,487.94,187.8,478.43z"/>
	<path class="st87" d="M189.79,428.41c-1.17,12.25,2.12,24.75-1.97,36.85C188.31,452.96,184.75,440.45,189.79,428.41z"/>
	<path class="st0" d="M207.38,508.61c0-20.34,0-40.67,0-61.01c0.7-0.01,1.39-0.01,2.09-0.02c0,20.35,0,40.69,0,61.04
		C208.77,508.62,208.07,508.61,207.38,508.61z"/>
	<path class="st88" d="M241.82,563.01c0-2.57,0-5.15,0-7.72C244.25,557.86,244.16,560.43,241.82,563.01z"/>
	<path class="st89" d="M314.91,553.14c-0.59,4.98-2.8,8.43-8.38,8.25c-4.89-0.15-7.67-3.19-7.9-7.73c-0.25-5.05,2.47-8.49,7.85-8.77
		C312.06,544.61,314.29,548.09,314.91,553.14z M309.8,553.23c0.01-2.03-1.08-3.21-3-3.46c-2.01-0.27-3.43,0.87-3.68,2.72
		c-0.32,2.36,0.89,4.01,3.45,3.97C308.53,556.43,309.64,555.22,309.8,553.23z"/>
	<path class="st90" d="M416.08,554.6c-4.95-0.08-5.48-2.5-5.31-5.57c0.2-3.56,2.27-4.57,5.47-4.42c3.2,0.15,5.49,1.62,5.2,4.89
		C421.11,553.09,418.32,554.48,416.08,554.6z"/>
	<path class="st91" d="M452.88,548.39c2.49,2.94,4.84,5.21,1.71,8.09c-0.66,0.61-3.12,0.48-3.62-0.18
		C448.47,553.02,451.3,551.15,452.88,548.39z"/>
	<path class="st92" d="M637.06,547.93c2.99,2.71,4.99,5.04,2.82,8.22c-1,1.46-3.51,1.4-4.61,0.05
		C632.62,552.93,635.41,550.84,637.06,547.93z"/>
	<path class="st93" d="M494.01,544.54c2.83,1.99,4.44,4.27,1.87,7.6c-1.94,2.5-4.64,3.05-7.31,2.04c-4.45-1.69-2.2-5.75-2.63-8.86
		C488.62,545.07,491.32,544.8,494.01,544.54z"/>
	<path class="st94" d="M494.01,544.54c-2.69,0.26-5.38,0.52-8.07,0.79C488.35,542.28,491.11,542.64,494.01,544.54z"/>
	<path class="st95" d="M194.61,553.3c1.8-1.28,1.92-5.56,4.75-4.21c2.83,1.34,3.1,4.98,2.76,8.16
		C199.09,556.91,195.18,558.28,194.61,553.3z"/>
	<path class="st96" d="M800.57,473.81c-3.43-7.07-7.88-11.25-5.36-19.26C799.58,460.21,803.77,464.36,800.57,473.81z"/>
	<path class="st96" d="M796.71,484.48c-1.23,0.06-1.87-0.65-2.04-1.74c-0.22-1.43,0.18-2.78,1.61-3.29
		c1.59-0.57,2.59,0.31,2.58,1.93C798.85,482.78,798.17,483.96,796.71,484.48z"/>
	<path class="st97" d="M309.8,553.22c-0.16,2-1.27,3.21-3.23,3.24c-2.57,0.04-3.78-1.6-3.45-3.97c0.25-1.86,1.67-2.99,3.68-2.72
		C308.72,550.03,309.81,551.2,309.8,553.22z"/>
</g>
</svg>
