<?xml version="1.0" encoding="utf-8"?>
<!-- Generator: Adobe Illustrator 25.2.1, SVG Export Plug-In . SVG Version: 6.00 Build 0)  -->
<svg version="1.1" id="Camada_1" xmlns="http://www.w3.org/2000/svg" xmlns:xlink="http://www.w3.org/1999/xlink" x="0px" y="0px"
	 viewBox="0 0 1000 1000" style="enable-background:new 0 0 1000 1000;" xml:space="preserve">
<style type="text/css">
	.st0{fill:#FFFFFF;}
	.st1{fill:#3A2B22;}
	.st2{fill:#3C2B22;}
	.st3{fill:#3B2B21;}
	.st4{fill:#3F2B20;}
	.st5{fill:#3D2B20;}
	.st6{fill:#412D21;}
	.st7{fill:#3C2A21;}
	.st8{fill:#403027;}
	.st9{fill:#493327;}
	.st10{fill:#3C2C24;}
	.st11{fill:#BE723B;}
	.st12{fill:#7A3E17;}
	.st13{fill:#673D1D;}
	.st14{fill:#5F391E;}
	.st15{fill:#5A3622;}
	.st16{fill:#663A1F;}
	.st17{fill:#65381C;}
	.st18{fill:#4F220F;}
	.st19{fill:#623418;}
	.st20{fill:#5B351C;}
	.st21{fill:#6B3E21;}
	.st22{fill:#653819;}
	.st23{fill:#6E3E1F;}
	.st24{fill:#B77345;}
	.st25{fill:#A5785D;}
	.st26{fill:#A77C5F;}
	.st27{fill:#553621;}
	.st28{fill:#734221;}
	.st29{fill:#B8744A;}
	.st30{fill:#AF734B;}
	.st31{fill:#B77447;}
	.st32{fill:#5B3318;}
	.st33{fill:#693B1B;}
	.st34{fill:#59280F;}
	.st35{fill:#A76940;}
	.st36{fill:#6D3815;}
	.st37{fill:#663E22;}
	.st38{fill:#4C2713;}
	.st39{fill:#56341E;}
	.st40{fill:#522A15;}
	.st41{fill:#AB7751;}
	.st42{fill:#5E2D12;}
	.st43{fill:#916649;}
	.st44{fill:#AD6E47;}
	.st45{fill:#B1754F;}
	.st46{fill:#AD764F;}
	.st47{fill:#B3764F;}
	.st48{fill:#B16F41;}
	.st49{fill:#7F461F;}
	.st50{fill:#A16842;}
	.st51{fill:#93674C;}
	.st52{fill:#A5704D;}
	.st53{fill:#A26D46;}
	.st54{fill:#B57346;}
	.st55{fill:#92694D;}
	.st56{fill:#BE723C;}
	.st57{fill:#A17150;}
	.st58{fill:#BF713C;}
	.st59{fill:#BB713E;}
	.st60{fill:#9E6E4B;}
	.st61{fill:#4F2713;}
	.st62{fill:#392B22;}
	.st63{fill:#4B2612;}
	.st64{fill:#6E3F21;}
	.st65{fill:#AD754B;}
	.st66{fill:#9C6E4F;}
	.st67{fill:#AB7149;}
	.st68{fill:#7B4E2F;}
	.st69{fill:#C37033;}
	.st70{fill:#C07238;}
</style>
<g>
	<path class="st0" d="M-10.3-22.3c0,343.3,0,686.6,0,1029.9c0,14.7-2.1,12.6,12.6,12.6c336.8,0,673.6,0,1010.5,0
		c-0.5,0.6,1,2.2-1,2.1c-2.8-0.1-5.5,0-8.3,0c-338.4,0-676.9,0-1015.8,0c0-5.4,0-10.8,0-16.2c0-339.7,0-679.4,0.1-1019.1
		C-12.3-16-14.7-20-10.3-22.3z"/>
	<path class="st1" d="M710.9,502.3c-0.4-3.1-0.6-6.2-1.2-9.2c-2.5-11.4-5-22.7-7.6-34.1c-4.1,0.9-3.8,3.5-4,5.9
		c-6.1,9.1-8.8,19.7-12.1,30c-2.3,5.6-4.5,11.1-6.8,16.7c-1.9,0.8-3.8,1.1-5.6,0.1c-4.4-11.1-8.9-22.3-13.3-33.4
		c-1.9-4.9-3.8-9.9-5.7-14.8c-0.1-2.2-0.1-4.7-2.3-5.9c-1.6-0.8-1.8,0.9-1.9,2.2c-2.4,3-2.1,6.6-1.9,10.1
		c-2.8,12.2-5.7,24.3-8.4,36.5c-0.8,3.6-1.4,7.4-6,6.9c-5.9-0.6-3.3-5.3-2.7-8.1c4.8-23.5,9.9-46.9,15-70.3c0.5-2.3,1.4-4.6,4.2-7.3
		c8.2,21.4,16.5,42.8,25.4,66.2c11-22.4,16.5-45.1,26.2-66.1c0.8,0.1,1.6,0.1,2.5,0.2c6.1,28.4,12.2,56.7,18.2,85.1
		C713,515.9,713.5,507.4,710.9,502.3z"/>
	<path class="st2" d="M772.5,514.2c-24.7,0.1-43.2-18.5-43.2-43.6c0-24.3,18.6-43.2,42.6-43.1c24.3,0,42.8,18.7,42.8,42.9
		C814.7,494.8,796.1,514.1,772.5,514.2z M760.8,503.2c17.7,5.1,32.7-0.6,40.7-15.6c7.9-14.7,4.4-33.1-8-43.3
		c-15.2-12.3-34.5-10.2-47.3,4.1c-11.2,12.5-11.7,38,5.8,50.6C754.7,500.8,757.1,503.4,760.8,503.2z"/>
	<path class="st3" d="M323,511.8c-6.2-8.7-12.5-17.4-18.7-26.2c-2.6-3.7-5.8-6.3-10.5-4.8c-4.5,1.5-2.9,5.8-3.1,9
		c-0.3,5.5-0.1,11.1-0.2,16.6c-0.1,3,0.4,6.9-4.3,6.7c-4.5-0.2-4.2-3.9-4.2-7c-0.1-16-0.1-31.9-0.1-47.9c0-2.4-0.6-5,0.1-7.3
		c2.3-7.6-6.4-20.2,6.3-22.6c25.7-4.8,40.8,2.1,45.8,17.9c4.1,13-1.2,23-11.1,31.1c-11.8,3.2-11.9,3.4-4.4,11.6
		c4.2,8.4,12.6,14.1,15.7,23.5C330,514.3,326.4,513.7,323,511.8z M319.4,440.4c-8.2-6.8-18.3-5.3-26.6-2.6
		c-5.5,1.8-1.4,10.6-2.4,16.2c-0.1,0.7,0,1.4,0,2.1c0,16.3,0,16.3,16.6,15.8c0.4,0,0.7,0,1,0c15.9-0.7,22.7-13.1,15.2-27.4
		C322.9,442.1,321.8,440.6,319.4,440.4z"/>
	<path class="st4" d="M618.8,473.9c-9.6,4.5-19.8,2.1-29.6,2c-9.2-0.1-11.6,3.6-11,11.7c1.5,19.9-3,17.4,18.1,17.6
		c5.5,0,11.1,0,16.6,0.1c2.8,0.1,5.8,0.3,5.7,4.3c-0.1,3.9-3.2,4.1-6,4.1c-12.1,0-24.2-0.1-36.4,0c-4.9,0-6.8-2.2-6.8-7
		c0-23.9,0-47.8-0.1-71.7c0-5.5,2.6-7.1,7.7-7c13.8,0.2,27.7,0.2,41.5,0.3c0,2.7,0,5.3,0,8l0.2,0c-8.3,0.2-16.6,0.4-25,0.5
		c-1.4,0-2.7,0-4.1,0c-8.8-2.1-12.1,1.9-11.7,10.4c0.2,4.1,0.2,8.3,0,12.5c-0.2,5.7,2.3,8.2,8,8c8.3-0.2,16.6,0.2,24.9-0.1
		C616,467.4,618.2,469.4,618.8,473.9z"/>
	<path class="st5" d="M864.7,436.5c-6.1-2-12.2-2.4-18.4-0.2c-5.4,1.9-9.1,5.5-9.8,11c-0.7,5.3,2.3,9.1,6.7,12.1
		c4.7,3.2,10.1,4.5,15.4,6.1c5,1.5,10,2.9,14.8,4.8c8.9,3.5,14.1,9.8,14.2,19.7c0.1,9.9-5.3,18-15.1,21.6
		c-14.2,5.2-27.9,3.9-40.8-4.3c-0.8-1.5-1.5-3-2.5-4.4c-1.7-2.6-4-5.3-1.8-8.3c2.2-3,5.6-1.2,8.5-0.5c6.8,12.9,26.4,16.8,37.3,7.5
		c7-6,6.5-16-1.3-21.1c-4.9-3.3-10.6-4.9-16.3-6.5c-5-1.4-10.1-2.6-14.8-4.8c-8.5-3.9-13.9-10-13.4-20.2c0.5-9.4,5.6-17.2,15.5-19.8
		c12.2-3.2,24.7-4.1,35.1,5.8c2.3,2.2,4.9,4.9,3.7,8c-1.5,3.8-5.3,1.6-8.2,1.6C872.5,439.7,869.7,436.9,864.7,436.5z"/>
	<path class="st6" d="M416.8,503.6c0.5,0.6,1,1.2,1.6,1.8c0.2,2.6,3.4,4.4,2.1,7.4c-7.9,0.5-7.9,0.5-14-5.7
		c-2.9-6.2-7.1-11.6-11.7-16.6c-2.5-4.6-4.4-9.7-10.8-13.5c0,10.2,0.2,18.8-0.1,27.4c-0.1,3.4,1.5,8.7-4.5,8.6c-5.1-0.1-4-4.8-4.1-8
		c-0.1-22.9-0.1-45.8,0-68.6c0-3.1-1.2-7.7,4.1-7.9c5.5-0.2,4.3,4.5,4.4,7.6c0.2,9.1,0.1,18.3,0.1,27.8c4.9-1.2,5.8-3.8,6.4-6.5
		c6.5-6.8,11.3-14.8,16.2-22.7c2.2-1.6,3.8-3.7,4.7-6.3c3,0,6.1,0,10.3,0c-5,11.7-14,20-19.5,30.3c-2.1,1.8-4.1,3.6-4.4,6.6l0.2,0
		c-9,8.5,1.2,12.4,4.4,18c1.9,4.4,5,8,8.1,11.5C411.3,498.6,413.7,501.3,416.8,503.6z"/>
	<path class="st7" d="M427.2,507.1c0.3-0.3,0.4-0.7,0.3-1.1c2.4-3.3,4.1-6.9,4.4-11.1c3.8-6.3,6.5-13,8.2-20.1
		c7.2-12.1,10.8-25.8,16.9-38.5c2.5-1.7,4.7-3.7,7.8-4.1c12.7,26.3,22.8,53.8,33.1,81.1c-9.9,2.2-11.6-5.5-13.4-12
		c-2.3-8.3-6.8-12.2-15.5-10.8c-2.7,0.4-5.5,0.3-8.2,0.5c-17.4-1-17.4-1-20.9,11.8c-1.3,2.4-2.7,4.8-3.9,7.3c-1.4,3.1-3.8,4-6.8,3.2
		C425.4,512.3,427.8,509.2,427.2,507.1z M464.8,453L464.8,453c-0.4-2.5,0-5.5-4.3-6.2c-1.3,3.6-2.5,7.1-3.8,10.6
		c-2.4,6.1-4.7,12.3-7.2,18.4c-1.7,4.3-0.7,6.8,4.3,6.6c6.8-0.3,13.8,0.9,20.9-1c0-6.6-3.1-12-5.8-17.6
		C469,459.6,467.4,456.1,464.8,453z"/>
	<path class="st8" d="M223.5,494.8c0,1.4,0,2.7,0,4.1c-1.2,6.6,3.4,6,7.6,6.3c11.2,1,22.6-2.4,33.6,2.1l0,0c-0.5,6.3-5,6.4-9.7,6.4
		c-13.4,0-26.8,0-40.2,0c-0.1-25.9,0-51.9-0.4-77.8c-0.1-6.7,2.8-8.3,8.7-8.1c7.6,0.3,15.2-0.1,22.8-0.2c2.1,0,4.2,0,6.3,0
		c2.8,0,5.6,0,8.4,0c6.1,5,4.5,8.2-2.6,8.6c-8.9,0.5-17.8,0.5-26.7,0.1c-6.3-0.3-8.6,2.1-8.2,8.4c0.4,6.8,0.3,13.7,0.4,20.6
		c0,0.8-0.1,1.5-0.1,2.2c9.5,5.4,20.7-0.5,31.7,4.2c-5.2,3.2-9.6,1.8-13.8,2.2c-6,0.6-12.4-1.6-18,2.3c-0.1,0.7,0,1.3,0.2,2
		C223.5,483.7,223.5,489.3,223.5,494.8z"/>
	<path class="st9" d="M527.2,427.9c3,6.3,1.4,13,1.5,19.5c0.2,14.9,0.4,29.8-0.1,44.7c-0.3,9.1,2.1,13.9,12.1,12.7
		c4.1-0.5,8.3,0,12.5,0.2c2.8,0.1,4.6,1.5,4.6,4.5c0,3.1-2,4.2-4.7,4.2c-9.3,0.1-18.7,0.3-28,0c-6.9-0.2-5.7-5.8-5.7-10.1
		c-0.1-25-0.1-49.9-0.1-74.9C521.9,428.4,524.5,428.1,527.2,427.9z"/>
	<path class="st10" d="M356.4,428.1c0.1,25.9,0.3,51.8,0.2,77.6c0,3.1,1.2,7.7-4.4,7.4c-4.5-0.3-3.9-4.1-3.9-7.1
		c-0.2-9.3-0.3-18.6-0.4-27.9c0-1.4,0-2.8,0-4.1c0.2-15.3,0.4-30.5,0.6-45.8C351.1,428.1,353.7,428.1,356.4,428.1z"/>
	<path class="st11" d="M281.4,546.9c0,1.7,0,3.5,0.1,5.2c0.2,2.3-0.2,5.3,3.1,5.7c2.3,0.3,3.8-1.5,4.6-3.5c1-2.3,2-4.4,4.6-5.3
		c0.2,8,1.6,15.3,11.4,16.7c8.8,1.2,13.4-4.4,14.2-16.7c5,3.2,4.4,7.7,1.7,11.8c-2.6,4-3.6,10.3-10.9,9.2c-6.1-1-12.5,1.7-17.9-5.2
		c-2.2-2.8-10.1-1.5-15.2,1.1c-0.8-0.1-1.7-0.2-2.5-0.3c9.3-12-6-12.6-9.5-18.4c3.6-4.1,9-0.4,11.8-4.3
		C278.5,544.1,280,545.5,281.4,546.9z"/>
	<path class="st12" d="M673.3,553.2c2-0.5,3.9-1.5,5.9-1.6c36.9-0.2,73.8-0.3,110.7-0.4c5.4,2.9,11.4,0.8,17,2.2
		c-5.5,2.5-11.4,0.7-17,1.8c-22.3-0.1-44.6-0.2-66.9-0.3C706.5,551.3,689.8,554.3,673.3,553.2z"/>
	<path class="st11" d="M241.1,541c10.9,1.3,5.9,9.9,6.8,15.5c0.9,6-1.4,11.5-7.9,12.7c-7,1.3-14.7,2.7-19.7-5
		c-0.9-1.5-1.5-3.5,0.3-4.6c1.9-1.2,3,0.9,4.3,1.9c5.1,6.9,10.9,5.2,17,1.5c2.3-2.6,2.4-5.2,0-7.7c-2.1-4.5-9.2-2.9-10.8-7.6
		C232.8,541.9,241,548.3,241.1,541z"/>
	<path class="st11" d="M722.9,554.9c22.3,0.1,44.6,0.2,66.9,0.3c-4.7,3.2-10,1.7-15.1,2.1c-19.1,1.3-38.7-3.4-57.4,3.9
		c-0.6,0.2-1.4,0.3-2,0.1c-13.8-4-28.4-1.6-42.1-6C689.7,555.2,706.3,555.1,722.9,554.9z"/>
	<path class="st13" d="M319.5,549c-0.8,12.3-5.4,17.9-14.2,16.7c-9.7-1.3-11.2-8.7-11.4-16.7v0c8.9-11.1,13.9-11.5,25-1.9
		C319,547.8,319.1,548.4,319.5,549z M314.9,553.1c-0.6-5-2.9-8.5-8.4-8.2c-5.4,0.3-8.1,3.7-7.9,8.8c0.2,4.5,3,7.6,7.9,7.7
		C312.1,561.6,314.3,558.1,314.9,553.1z"/>
	<path class="st11" d="M264.7,507.4c-10.9-4.5-22.4-1.2-33.6-2.1c-4.2-0.4-8.8,0.3-7.6-6.3c10.8,0,21.5,0.2,32.3,0.1
		C261.6,498.9,265.2,500.9,264.7,507.4z"/>
	<path class="st14" d="M406.6,565.5c-0.1-5.5-0.3-11-0.1-16.5c0.1-2.9-1.1-6.7,2.9-7.9c4.3-1.3,9-1.6,12.8,1.3
		c3.2,2.5,4.3,6.2,2.9,10.2c-1.1,3.1-4.2,5.9-0.5,9.2c0.3,2.5-0.9,3.6-3.3,3.7l0,0.1c-1.6-3.3-2.7-7.5-7.3-7.1
		c-4.5,0.3-3,4.4-3.5,7.1l0.1-0.1C409.2,565.5,407.9,565.5,406.6,565.5z M416.1,554.6c2.2-0.1,5-1.5,5.4-5.1c0.3-3.3-2-4.7-5.2-4.9
		c-3.2-0.2-5.3,0.9-5.5,4.4C410.6,552.1,411.1,554.5,416.1,554.6z"/>
	<path class="st15" d="M527,562.3c2.5,1.6,6.3-2.3,8.7,2.5c-5.5,1.5-12.2,3.3-15-1.4c-3.5-5.8-3-14-0.3-20.1c2.3-5.3,8.6-2.9,14-2
		c-2.6,5.1-8.8,0.8-10.7,5.5c-0.5,5.4,5.8,2.6,7.7,5.7C525.8,554.5,518,555.3,527,562.3z"/>
	<path class="st16" d="M385.6,561.6c1.7,8.2-4.6,3.6-7.1,4c-3.3,0.6-7.4,0.5-7.7-4.5c-0.3-5.2-1.1-10.6,0.2-15.5
		c2.3-9,9.2-4.7,15.6-4.4c-2.7,5-9,1.6-10.6,6.2c1.6,5,8.5,1.1,9.8,6.2c-1.4,0-2.7,0-4.1,0.2c-2.7,0.2-5.9,0.1-6,4
		c0,3.8,3.1,3.9,5.9,4C382.9,561.9,384.2,561.7,385.6,561.6z"/>
	<path class="st17" d="M445.6,565.4c-2.5-0.1-4.1-1.2-3.2-3.8c2.1-5.8,4.4-11.5,6.9-17.1c1.2-2.6,4-5.2,6.2-1.7
		c3.9,6.4,7,13.3,8.4,20.7c0.3,1.3-1.7,1.8-3.1,1.9C455.6,557.7,450.7,557.7,445.6,565.4z M452.9,548.4c-1.6,2.8-4.4,4.6-1.9,7.9
		c0.5,0.7,3,0.8,3.6,0.2C457.7,553.6,455.4,551.3,452.9,548.4z"/>
	<path class="st18" d="M806.8,553.4c-5.6-1.4-11.6,0.8-17-2.2c33.5,0,67,0,100.6,0c0,0.7,0,1.5,0,2.2
		C862.6,553.4,834.7,553.4,806.8,553.4z"/>
	<path class="st19" d="M627.4,566.2c-0.6-0.3-1.2-0.5-1.9-0.7c0.6-2.7,1.3-5.4,1.9-8.1l-0.1,0.1c4.7-4.6,3.6-13,10.8-16.6
		c2,3.2,3.8,6,5.6,8.8c0.8,5.6,5.7,10.2,4.3,16.4C638.7,557.4,635.3,557.5,627.4,566.2z M637.1,547.9c-1.7,2.9-4.5,5-1.8,8.3
		c1.1,1.3,3.6,1.4,4.6,0C642.1,553,640,550.6,637.1,547.9z"/>
	<path class="st20" d="M498,543c5,9.8,3.9,12.3-6.5,15c-4,1-4,1-8.7,6.9c-2.4-8.2-0.8-16.1-1.4-23.8
		C487.2,540.4,492.9,539.5,498,543z M485.9,545.3c0.4,3.1-1.8,7.2,2.6,8.9c2.7,1,5.4,0.5,7.3-2c2.6-3.3,1-5.6-1.9-7.6
		C491.1,542.6,488.4,542.3,485.9,545.3z"/>
	<path class="st21" d="M277.1,542.7c-2.9,3.8-8.2,0.2-11.8,4.3c3.5,5.8,18.8,6.4,9.5,18.4c-0.7-0.1-1.4-0.2-2-0.3
		c-2.7-1.1-5.4-2.2-8.1-3.3c1.4-0.1,2.7-0.2,4.1-0.2c1.6-0.3,3.5-0.4,3.7-2.5c0.3-2.6-1.6-3.3-3.7-3.6c-2.7-0.6-5.6-0.5-7.9-2.4
		C260.5,540.6,264.2,538.2,277.1,542.7z"/>
	<path class="st22" d="M557.1,543.4c3.4,3.8,1.2,8.6,2.8,12.7c1.2,3.1,2.6,5.7,6.5,5.2c3.5-0.4,4.2-3,4.8-5.8
		c0.9-4.2-1.1-8.9,3.2-12.7c1,6.8,3.5,14-2,20.2c-3.3,3.7-8.6,4.3-12.3,1.3C553,558.7,556.1,550.7,557.1,543.4z"/>
	<path class="st23" d="M241.8,563c-6.1,3.7-11.9,5.4-17-1.5c0.9-0.3,1.8-0.7,2.6-1c4,1.6,8.1,3.6,11.6-1.8c-3.1-4.1-7.9-4-11.7-5.7
		l0,0.1c-0.7-2.7-1.4-5.3-2.1-8c4.3-5.2,9.9-5.1,15.8-4.1c-0.1,7.3-8.3,1-10.1,6.7c1.6,4.8,8.6,3.1,10.8,7.6
		C241.8,557.9,241.8,560.4,241.8,563z"/>
	<path class="st24" d="M348.4,428.2c-0.2,15.3-0.4,30.5-0.6,45.8c-2.4-1.2-3.7-3.1-3.7-5.7c-0.1-11.3-0.1-22.6,0-33.9
		C344.1,431.4,345.4,429.2,348.4,428.2z"/>
	<path class="st11" d="M181.4,486.4c5.3-0.2,3.9,3.9,4,6.6c0.2,6.2,0.2,12.5,0.1,18.7c-0.1,5.7,2.8,8.3,8.3,8
		c-0.6,3-1.9,5.2-5.5,4.4c-4.3-1-6.4-4.1-6.5-8.1C181.5,506.2,181.6,496.3,181.4,486.4z"/>
	<path class="st25" d="M223.5,478.2c-0.2-0.6-0.3-1.3-0.2-2c10.7-0.1,21.4-0.1,32.2-0.3c3,0,6.8,0.6,6.9-4.1c0-4.7-3.8-4.1-6.8-4.1
		c-10.7-0.1-21.4-0.1-32.2-0.2c0-0.8,0.1-1.5,0.1-2.2c10.6,0.1,21.3,0.2,31.9,0.3c4.2,0.1,8.8,0,9.1,5.8c0.3,6.6-4.6,6.6-9.2,6.6
		c-7.9,0.1-15.8,0.1-23.7,0.2C228.8,478.2,226.1,478.2,223.5,478.2z"/>
	<path class="st11" d="M456.9,436.3c-6.1,12.6-9.7,26.3-16.9,38.5c-0.6-5.6,0.3-10.8,3.1-15.9c2.8-5,5.4-10.2,5.2-16.5
		c-0.1-5.4,3.5-8.7,8.7-10.2C457,433.6,457,435,456.9,436.3z"/>
	<path class="st11" d="M277.1,542.7c-13-4.5-16.7-2.2-16.3,10.3c-3.8-1.2-7.3-3-7.1-7.6c0.2-4,4.1-5.3,7-6.9
		c9.3-5.2,16.9-2.1,20.6,8.3C280,545.5,278.5,544.1,277.1,542.7z"/>
	<path class="st26" d="M198.3,444.7c-0.1,22.2-0.2,44.4-0.3,66.6c-0.5,0-1,0-1.5,0c-0.2-27.7-0.4-55.4-0.6-83.1c0.7,0,1.4,0,2.1-0.1
		C198.1,433.7,198.2,439.2,198.3,444.7z"/>
	<path class="st17" d="M602.3,565.4c-5.7-8.2,3.4-19.2-9.5-23.1c6.2-2.6,11.6-2,19.8-1C600.1,546.3,605.9,556.7,602.3,565.4z"/>
	<path class="st27" d="M243.9,419.8c-1.4,0.2-2.8,0.4-4.2,0.6c-1.8-11,4.2-18.5,14.9-17.6C253.1,409.9,247.2,414,243.9,419.8z"/>
	<path class="st11" d="M165,543c0.1-2.4-0.2-5,3.2-5.3c1.8-0.1,3.2,0.5,4.2,2.2c2.3,4,0,21.6-3.5,25.7c0.1-6.4,0.1-12.8,0.2-19.2
		C169.1,543.5,168.5,541.5,165,543z"/>
	<path class="st28" d="M149.9,545.2c1.4,1.9,3,3.8,4.3,5.7c3.9,5.7,5.1,2,6.5-1.7c1.4-1.5,2.7-3,4.1-4.5c0.6,2.1,1.1,4.1,1.7,6.2
		c-4.6,2.7-4.8,9.3-10,11.4c-0.7-0.4-1.3-0.8-2-1.1c-1.2-3.9-3.2-7.3-6.2-10.1C148.8,549.2,149.3,547.2,149.9,545.2z"/>
	<path class="st11" d="M685.9,494.8c3.4-10.3,6-20.8,12.1-30C697,476,696.8,487.6,685.9,494.8z"/>
	<path class="st29" d="M318.9,547.1c-11.1-9.6-16.1-9.2-25,1.9c0-7.8,3.8-12,11.6-12.4C312.9,536.3,318.1,538.9,318.9,547.1z"/>
	<path class="st30" d="M835.9,494.1c-2.9-0.7-6.2-2.5-8.5,0.5c-2.2,3,0.2,5.7,1.8,8.3c0.9,1.4,1.6,2.9,2.5,4.4
		c-7-2.6-10-7.3-7.3-14.5c1.1-2.9,3.4-5.5,6.9-5.5C835.7,487.4,835.5,491.1,835.9,494.1z"/>
	<path class="st31" d="M594,436.7c8.3-0.2,16.6-0.4,25-0.5C610.8,443.5,599.2,443.8,594,436.7z"/>
	<path class="st11" d="M223.5,478.2c2.7,0,5.4,0,8,0c-0.2,6.7-2.4,12.4-8,16.5C223.5,489.3,223.5,483.7,223.5,478.2z"/>
	<path class="st11" d="M144.3,565.5c-6.6-6.9-6.5-18.1,0.1-24.6C144.4,549.1,144.3,557.3,144.3,565.5z"/>
	<path class="st32" d="M189.4,557.2c0.8-1.4,1.6-2.7,2.4-4.1c0.9,0.1,1.9,0.1,2.8,0.2c0.6,5,4.5,3.6,7.5,4c1.3-1.3,2.6-2.6,3.9-3.9
		c1.1,3.5,4.1,6.3,3.1,11.7c-7.7-7.5-14.8-6-21.5,0.7C188.2,562.9,188.8,560,189.4,557.2z"/>
	<path class="st33" d="M206,553.4c-1.3,1.3-2.6,2.6-3.9,3.9c0.3-3.2,0.1-6.8-2.8-8.2c-2.8-1.3-2.9,2.9-4.8,4.2
		c-0.9-0.1-1.9-0.1-2.8-0.2c0.2-1,0.1-2.1,0.6-3c1.8-3.1,1.7-8.3,6-8.7c4.9-0.4,4.3,5.2,6.1,8.1C205.3,550.7,205.5,552.1,206,553.4z
		"/>
	<path class="st34" d="M722.9,554.9c-16.6,0.2-33.2,0.3-49.8,0.5c0.1-0.7,0.1-1.5,0.2-2.2C689.8,554.3,706.5,551.3,722.9,554.9z"/>
	<path class="st11" d="M648.4,469.8c-0.2-3.5-0.5-7.1,1.9-10.1c1.4,1.2,2.8,2.5,4.2,3.7c1.9,4.9,3.8,9.9,5.7,14.8
		C656.2,475.4,652.3,472.6,648.4,469.8z"/>
	<path class="st11" d="M272.8,565.1c0.7,0.1,1.4,0.2,2,0.3c0.8,0.1,1.7,0.2,2.5,0.3c-4.7,6.9-11.5,4.2-17.5,3.1
		c-3.9-0.7-3.3-4.4-1.2-7.3C262.1,567.5,267.7,565.4,272.8,565.1z"/>
	<path class="st35" d="M527,562.3c-9-7-1.2-7.8,4.2-9.8c-2-3.1-8.2-0.3-7.7-5.7c4,2.9,9.4,0.7,13.5,3.4
		C537.3,557.5,523.3,552.4,527,562.3z"/>
	<path class="st11" d="M227.3,553c3.8,1.7,8.6,1.6,11.7,5.7c-3.5,5.4-7.6,3.4-11.6,1.8C227.4,558,227.4,555.5,227.3,553z"/>
	<path class="st11" d="M710.9,502.3c2.6,5.1,2.2,13.6,11.9,10.7c-0.6,8.2-4.6,7.5-9.2,3.1C709.6,512.3,710.8,507.1,710.9,502.3z"/>
	<path class="st36" d="M346.1,545.2c-1.6,6.8,4,15-4.2,20.4c0-6.9-0.1-13.7-0.2-20.6C343.2,545.1,344.6,545.1,346.1,545.2z"/>
	<path class="st11" d="M385.6,561.6c-1.4,0.1-2.7,0.3-4.1,0.2c-2.8-0.2-5.9-0.2-5.9-4c0-3.9,3.2-3.8,6-4c1.4-0.1,2.7-0.1,4.1-0.2
		C385.7,556.3,385.6,559,385.6,561.6z"/>
	<path class="st37" d="M346.1,545.2c-1.5-0.1-2.9-0.1-4.4-0.2c-0.8,0-1.5-0.1-2.3-0.1c-1.5-0.7-3.4-0.7-4.1-3.4
		c5.5-2.1,11-0.9,16.5-1C351.9,545.7,347.9,543.8,346.1,545.2z"/>
	<path class="st11" d="M498,543c-5.2-3.5-10.8-2.5-16.5-1.9C488.7,534,494,534.6,498,543z"/>
	<path class="st11" d="M421.2,565.5c2.4-0.1,3.6-1.2,3.3-3.7c2.7,0.1,5.6,0,6,3.7c0.2,2.4-1.5,3.7-3.6,4
		C424,569.8,420.4,570.7,421.2,565.5z"/>
	<path class="st11" d="M410.4,565.5c0.4-2.8-1-6.8,3.5-7.1c4.6-0.3,5.8,3.8,7.3,7.1C417.6,565.5,414,565.5,410.4,565.5z"/>
	<path class="st11" d="M402.2,483.2c-3.1-5.6-13.3-9.5-4.4-18C397.3,471.8,403.4,476.6,402.2,483.2z"/>
	<path class="st11" d="M445.6,565.4c5.1-7.7,10-7.7,15.2,0C455.7,563,450.6,564.7,445.6,565.4z"/>
	<path class="st11" d="M252.6,536c-2.6-0.2-3.3-1.6-3.2-3.5c0.1-2.3,1.5-3.7,3.8-3.9c1.9-0.2,3.4,0.6,3.3,2.7
		C256.4,534,254.9,535.7,252.6,536z"/>
	<path class="st38" d="M166.8,565.4c-0.1-4.8-0.2-9.6-0.3-14.4c-0.6-2.1-1.1-4.1-1.7-6.2c0.2-0.6,0.3-1.2,0.2-1.8l0.1-0.1
		c3.4-1.4,4.1,0.5,4.1,3.3c-0.1,6.4-0.1,12.8-0.2,19.2C168.2,565.5,167.5,565.5,166.8,565.4z"/>
	<path class="st28" d="M144.3,565.5c0.1-8.2,0.1-16.4,0.1-24.6c1.5,0,3,0.1,3.7,1.8c-3.3,6.8-2.9,13.7-0.3,20.5
		c0.1,0.7,0.2,1.5,0.3,2.2C146.9,565.5,145.6,565.5,144.3,565.5z"/>
	<g>
		<path class="st11" d="M166.5,551c-4.6,2.7-4.8,9.3-10,11.4c2.1,5.7,7.8-1.1,10.3,3C166.7,560.6,166.6,555.8,166.5,551z"/>
		<path class="st11" d="M147.8,563.2c0.1,0.7,0.2,1.5,0.3,2.2c2.1-1.4,4.2-2.8,6.3-4.2c-1.2-3.9-3.2-7.3-6.2-10.1
			C148.1,555.2,148,559.2,147.8,563.2z"/>
	</g>
	<path class="st39" d="M456.9,436.3c0.1-1.4,0.1-2.7,0.2-4.1c2-1.8,1.9-6.1,5.1-5.9c2.8,0.2,2.8,3.4,2.6,5.9
		C461.6,432.6,459.4,434.6,456.9,436.3z"/>
	<path class="st40" d="M148.3,551.2c-0.1,4-0.3,8-0.4,12.1c-2.7-6.9-3-13.7,0.3-20.5c0.6,0.8,1.2,1.7,1.8,2.5
		C149.3,547.2,148.8,549.2,148.3,551.2z"/>
	<path class="st41" d="M339.5,544.9c0.8,0,1.5,0.1,2.3,0.1c0,6.9,0.1,13.7,0.2,20.6C338,559.1,340.5,551.8,339.5,544.9z"/>
	<path class="st11" d="M189.4,557.2c-0.6,2.8-1.2,5.7-1.8,8.5c-1.6-0.1-3.2-0.2-5.9-0.4C184.6,562,185.8,558.6,189.4,557.2z"/>
	<path class="st42" d="M272.8,565.1c-5.1,0.3-10.6,2.4-14.1-3.5c0.7-0.1,1.3-0.3,2-0.5c1.4,0.1,2.8,0.2,4.2,0.3l-0.1,0.5
		C267.4,562.9,270.1,564,272.8,565.1z"/>
	<path class="st43" d="M864.7,436.5c5,0.4,7.9,3.2,8.8,8.1C869,443.6,867.3,439.5,864.7,436.5z"/>
	<path class="st44" d="M618.7,436.2c0-2.7,0-5.3,0-8C624.3,430.9,624.5,433.5,618.7,436.2z"/>
	<path class="st45" d="M527.2,427.9c-2.7,0.3-5.3,0.6-8,0.9C521.3,423,523.9,422.3,527.2,427.9z"/>
	<path class="st46" d="M260.6,427.6c-2.8,0-5.6,0-8.4,0C255,423,257.8,422.9,260.6,427.6z"/>
	<path class="st47" d="M225.3,545.1c0.7,2.7,1.4,5.3,2.1,8c-4.5-1.8-5.1-5-3.4-9c0,0,0.6,0,0.8,0.2
		C225,544.5,225.1,544.8,225.3,545.1z"/>
	<path class="st11" d="M431.8,494.9c-0.2,4.2-2,7.8-4.4,11.1C427.5,501.8,426,496.9,431.8,494.9z"/>
	<path class="st48" d="M164.9,543c0.1,0.6,0,1.2-0.2,1.8c-1.4,1.5-2.7,3-4.1,4.5c0-3.1,0-6.1,0-9.2
		C163.4,539.8,163.6,542.2,164.9,543z"/>
	<path class="st49" d="M673.4,511.5c1.9,1,3.8,0.7,5.6-0.1c-0.1,2-0.5,4.6-2.8,4.6C674,516,673.6,513.6,673.4,511.5z"/>
	<path class="st50" d="M268.8,555.5c2.1,0.3,4,1,3.7,3.6c-0.2,2.1-2.1,2.2-3.7,2.5C268.8,559.6,268.8,557.5,268.8,555.5z"/>
	<path class="st51" d="M416.8,503.6c-3-2.3-5.5-5-6.4-8.9C414.1,496.6,416.3,499.5,416.8,503.6z"/>
	<path class="st52" d="M411.3,428.3c-0.9,2.6-2.5,4.7-4.7,6.3C406.5,431.3,407.7,428.9,411.3,428.3z"/>
	<path class="st53" d="M397.7,465.3c0.2-3,2.2-4.9,4.4-6.6C402.3,462,401.3,464.5,397.7,465.3z"/>
	<path class="st54" d="M406.6,565.5c1.3,0,2.6,0,3.9,0c-0.2,1.5,0.4,3.7-1.7,3.7C406.9,569.2,406.9,567,406.6,565.5z"/>
	<path class="st50" d="M264.8,561.4c-1.4-0.1-2.8-0.2-4.2-0.3C262.3,557.2,263.6,558.5,264.8,561.4z"/>
	<path class="st55" d="M654.5,463.4c-1.4-1.2-2.8-2.5-4.2-3.7c0-1.3,0.3-3,1.9-2.2C654.3,458.6,654.4,461.1,654.5,463.4z"/>
	<path class="st56" d="M752,498.9c-17.5-12.5-17-38.1-5.8-50.6c12.8-14.2,32.1-16.4,47.3-4.1c12.5,10.1,15.9,28.5,8,43.3
		c-8,15-23,20.8-40.7,15.6C759.1,499.1,755.8,498.6,752,498.9z M800.6,473.8c3.2-9.5-1-13.6-5.4-19.3
		C792.7,462.6,797.1,466.7,800.6,473.8z M796.7,484.5c1.5-0.5,2.1-1.7,2.2-3.1c0-1.6-1-2.5-2.6-1.9c-1.4,0.5-1.8,1.9-1.6,3.3
		C794.8,483.8,795.5,484.5,796.7,484.5z"/>
	<path class="st57" d="M752,498.9c3.7-0.3,7.1,0.2,8.8,4.2C757.1,503.4,754.7,500.8,752,498.9z"/>
	<path class="st58" d="M319.4,440.4c2.4,0.3,3.5,1.8,3.7,4.1c-0.4,16.9-0.4,16.9-16,21.4c-0.6,0.2-1.5,0.3-1.9,0.7
		c-7.1,7-9-0.6-10.6-4.6c-1.5-3.6-0.7-8.2-0.8-12.3c0-2.5,1-1.8,2.6-4.1C302.9,436.5,312.1,443.2,319.4,440.4z"/>
	<path class="st11" d="M319.4,440.4c-7.3,2.8-16.6-3.9-22.8,5.1c-1.6,2.3-2.7,1.6-2.6,4.1c0.1,4.1-0.7,8.7,0.8,12.3
		c1.6,4,3.4,11.5,10.6,4.6c0.4-0.4,1.2-0.5,1.9-0.7c15.5-4.4,15.5-4.4,16-21.4c7.5,14.3,0.7,26.7-15.2,27.4c-0.4,0-0.7,0-1,0
		c-16.6,0.5-16.6,0.5-16.6-15.8c0-0.7-0.1-1.4,0-2.1c1-5.6-3.1-14.5,2.4-16.2C301.1,435,311.2,433.5,319.4,440.4z"/>
	<path class="st59" d="M469,463.7c2.7,5.5,5.8,10.9,5.8,17.6c-7.2,1.9-14.1,0.7-20.9,1c-4.9,0.2-6-2.3-4.3-6.6
		c2.4-6.1,4.8-12.3,7.2-18.4c2.7-1.4,5.4-2.8,8.1-4.3l0,0C464.5,457.2,465.3,461,469,463.7z"/>
	<path class="st60" d="M464.9,453c-2.7,1.4-5.4,2.8-8.1,4.3c1.2-3.5,2.5-7,3.8-10.6C464.8,447.5,464.5,450.5,464.9,453z"/>
	<path class="st60" d="M469,463.7c-3.7-2.7-4.5-6.5-4.2-10.7C467.4,456.1,469,459.6,469,463.7z"/>
	<path class="st61" d="M223.3,467.5c10.7,0,21.4,0.1,32.2,0.2c3,0,6.8-0.6,6.8,4.1c0,4.7-3.9,4-6.9,4.1c-10.7,0.2-21.4,0.2-32.2,0.3
		c5.6-3.9,12-1.7,18-2.3c4.2-0.4,8.6,1,13.8-2.2C244,467,232.8,472.9,223.3,467.5z"/>
	<path class="st62" d="M189.8,428.4c1.4,0,2.7,0,4,0c0,26.8,0,53.5,0,80.3c-1,0-2,0-3,0c-3.4-9.8,1.5-20.6-3.1-30.2
		c-11-4.8-22.5-1.8-33.7-2c-4.3-0.1-4.1,4-4.2,7.1c-0.1,8-0.1,16-0.2,24c-0.1,2.9-0.6,5.8-4.5,5.6c-3.1-0.2-3.8-2.7-3.8-5.3
		c-0.1-24.6-0.1-49.3-0.1-73.9c0-2.9,0.6-5.7,4.6-5.4c3.3,0.3,3.7,2.7,3.8,5.2c0.1,8,0.4,16,0,24c-0.3,7,2,10.6,9.4,9.8
		c9.5-1,19.4,2.1,28.6-2.1C191.9,453.2,188.6,440.7,189.8,428.4z"/>
	<path class="st63" d="M187.8,478.4c4.6,9.7-0.3,20.4,3.1,30.2c1,0,2,0,3,0c0-26.8,0-53.5,0-80.3c0.7-0.2,1.4-0.2,2.1-0.1
		c0.2,27.7,0.4,55.4,0.6,83.1c-5.6,3.9-9,2.7-9-4.4C187.4,497.5,187.7,487.9,187.8,478.4z"/>
	<path class="st63" d="M189.8,428.4c-1.2,12.2,2.1,24.8-2,36.9C188.3,453,184.8,440.5,189.8,428.4z"/>
	<g>
		<path class="st11" d="M318.5,489.1c0.2-0.9,0.3-1.8,0.5-2.7c1.3-3,2.6-5.9,3.9-8.9C311.2,480.7,311.1,480.8,318.5,489.1z"/>
		<path class="st11" d="M627.4,566.2c6.9-0.1,13.8-0.1,20.7-0.2C638.7,557.4,635.3,557.4,627.4,566.2z"/>
		<path class="st11" d="M410.4,565.5C410.5,565.5,410.5,565.5,410.4,565.5C410.5,565.5,410.5,565.5,410.4,565.5L410.4,565.5z"/>
		<polygon class="st11" points="264.7,507.4 264.7,507.4 264.6,507.4 		"/>
		<path class="st11" d="M421.2,565.5C421.2,565.5,421.2,565.5,421.2,565.5C421.2,565.5,421.2,565.5,421.2,565.5L421.2,565.5z"/>
		<path class="st11" d="M-10.3-22.3c0,343.3,0,686.6,0,1029.9c0,14.7-2,12.6,12.6,12.6c336.8,0,673.6,0,1010.5,0
			c0-347.5,0-695,0-1042.5C671.4-22.3,330.6-22.3-10.3-22.3z M824.4,492.7c1.1-2.9,3.4-5.5,6.9-5.5c4.4,0.1,4.2,3.8,4.5,6.8
			c6.8,12.9,26.4,16.8,37.3,7.4c7-5.9,6.5-16-1.3-21.1c-4.9-3.3-10.6-4.9-16.3-6.5c-5-1.4-10.1-2.7-14.8-4.8
			c-8.5-3.9-13.9-10.1-13.4-20.2c0.5-9.4,5.6-17.2,15.5-19.8c12.2-3.2,24.7-4.1,35.1,5.8c2.3,2.2,4.9,4.9,3.7,8
			c-1.5,3.8-5.3,1.6-8.2,1.6c-4.5-1-6.1-5.1-8.8-8.1c-6.1-2-12.2-2.4-18.4-0.2c-5.4,1.9-9.1,5.4-9.8,11c-0.7,5.3,2.3,9.1,6.7,12.1
			c4.7,3.2,10.1,4.5,15.4,6.1c5,1.5,10,2.9,14.8,4.8c8.9,3.5,14.1,9.9,14.2,19.7c0.1,9.9-5.3,18-15.1,21.6
			c-14.2,5.2-27.9,3.9-40.8-4.3C824.8,504.7,821.8,500,824.4,492.7z M771.8,427.5c24.3,0.1,42.8,18.7,42.8,42.9
			c0,24.4-18.6,43.6-42.2,43.8c-24.7,0.1-43.2-18.5-43.2-43.6C729.2,446.3,747.9,427.5,771.8,427.5z M627.4,557.4
			C627.4,557.4,627.4,557.4,627.4,557.4c0-2.4-0.1-4.8-0.1-7.1c-0.1-5,1-9.6,4.3-11.8c-3.4,2.3-4.4,6.8-4.3,11.8
			C627.4,552.7,627.4,555,627.4,557.4z M337.1,503C337.1,503,337.1,503,337.1,503C337.1,503,337.1,503,337.1,503
			C337.1,503,337.1,502.9,337.1,503C337.1,502.9,337.1,503,337.1,503z M288.2,428.5c25.7-4.8,40.8,2.1,45.8,17.9
			c4.2,13-1.2,23-11.1,31.1c-1.3,3-2.6,5.9-4,8.9c0,0,0,0,0,0c-0.2,0.9-0.3,1.8-0.5,2.7c4.2,8.4,12.6,14.1,15.7,23.5
			c-4.3,1.8-7.8,1.2-11.3-0.8c-6.2-8.7-12.5-17.4-18.7-26.2c-2.6-3.7-5.8-6.3-10.5-4.8c-4.5,1.5-2.9,5.8-3.1,9
			c-0.3,5.5-0.1,11.1-0.2,16.6c-0.1,3,0.4,6.9-4.3,6.7c-4.5-0.2-4.2-3.9-4.2-7c-0.1-16-0.1-31.9-0.1-47.9c0-2.4-0.6-5,0.1-7.3
			C284.2,443.4,275.5,430.8,288.2,428.5z M254.7,402.8c-1.6,7-7.4,11.2-10.7,16.9c-1.4,0.2-2.8,0.4-4.2,0.6c0,0,0,0,0,0
			C237.9,409.4,243.9,402,254.7,402.8z M211.9,417.3C211.9,417.3,211.9,417.3,211.9,417.3c-2,8.5,0.8,19.3-6.7,24.7
			C212.7,436.6,209.9,425.7,211.9,417.3z M141.3,433.8c0-2.9,0.6-5.7,4.6-5.4c3.3,0.2,3.7,2.7,3.8,5.2c0.1,8,0.4,16,0,24
			c-0.3,7,2,10.6,9.4,9.8c9.5-1,19.3,2.1,28.6-2.1c0.5-12.3-3.1-24.8,2-36.8c1.3,0,2.7,0,4,0c0.7-0.2,1.4-0.2,2-0.1
			c0.7,0,1.4,0,2-0.1c0,0,0,0,0,0c0.1,5.5,0.2,11,0.3,16.5c0,0,0,0,0,0c-0.1,22.2-0.2,44.4-0.3,66.6c0,0,0,0,0,0c-0.5,0-1,0-1.5,0
			c-5.6,3.9-9,2.7-9-4.4c-0.1-9.5,0.2-19,0.3-28.5c-11-4.7-22.5-1.8-33.7-2c-4.3-0.1-4.1,4-4.2,7.1c-0.1,8-0.1,16-0.2,24
			c0,2.9-0.6,5.8-4.5,5.6c-3.1-0.2-3.8-2.7-3.8-5.3C141.3,483.1,141.3,458.5,141.3,433.8z M169,565.5c-0.7,0-1.5-0.1-2.2-0.1
			c-2.5-4.1-8.2,2.7-10.3-3c-0.7-0.4-1.3-0.8-2-1.1c-2.1,1.4-4.2,2.8-6.3,4.2c-1.3,0-2.6,0-3.9,0c-6.6-6.9-6.5-18.1,0.2-24.6
			c1.5,0,3,0.1,3.7,1.8c0.6,0.8,1.2,1.7,1.8,2.5c1.4,1.9,3,3.8,4.3,5.7c3.9,5.7,5.1,2,6.5-1.7c0-3.1,0-6.1,0-9.2
			c2.8-0.3,3,2.1,4.3,3l0-0.1c0.1-2.4-0.2-5,3.2-5.3c1.8-0.1,3.2,0.5,4.2,2.2C174.7,543.9,172.4,561.4,169,565.5z M209.1,565
			c-7.7-7.5-14.8-6-21.5,0.7c-1.6-0.1-3.2-0.2-5.9-0.4c2.9-3.2,4.1-6.6,7.6-8c0.8-1.4,1.6-2.7,2.5-4.1c0.2-1,0.1-2.1,0.6-3
			c1.8-3.1,1.7-8.3,6-8.7c4.9-0.4,4.3,5.2,6.2,8.1c0.7,1.1,1,2.5,1.4,3.8C207.1,556.8,210.1,559.7,209.1,565z M214.7,515.6
			L214.7,515.6c-5.5-2.2-11.1,0-16.6,0c0,0,0,0,0,0C203.7,515.7,209.2,513.5,214.7,515.6c0-0.7,0-1.3,0.1-1.9
			c-0.1-25.9,0-51.9-0.4-77.8c-0.1-6.7,2.8-8.3,8.7-8.1c7.6,0.3,15.2-0.1,22.8-0.2c0,0,0,0,0,0c2.1,0,4.2,0,6.3,0
			c2.8-4.7,5.6-4.8,8.4,0c6.1,5,4.5,8.2-2.6,8.6c-8.9,0.5-17.8,0.5-26.7,0.1c-6.3-0.3-8.6,2.1-8.2,8.3c0.5,6.8,0.3,13.7,0.3,20.6
			c10.6,0.1,21.3,0.2,31.9,0.3c4.2,0.1,8.8,0,9,5.8c0.3,6.6-4.6,6.6-9.2,6.7c-7.9,0.1-15.8,0.1-23.7,0.2c-0.2,6.7-2.4,12.4-8,16.5
			c0,1.4,0,2.7,0,4.1c10.8,0,21.5,0.2,32.3,0.1c5.9-0.1,9.4,1.9,9,8.4c0,0,0,0,0,0c-0.5,6.3-5,6.4-9.7,6.3c-13.4,0-26.8,0-40.2,0
			C214.8,514.4,214.7,515,214.7,515.6L214.7,515.6c2.2,0.6,3.6,2,4.2,4.1c1.4,0,2.8,0,4.1,0c2.8,0,5.6,0,8.3,0c2.1,0,4.2,0,6.2,0
			c2.7,1.4,5.5,1.3,8.2,0.9c-2.7,0.4-5.5,0.5-8.2-0.9c-2.1,0-4.2,0-6.2,0c-2.8,0-5.6,0-8.3,0c-1.4,0-2.8,0-4.1,0
			C216.7,519.2,215.3,517.8,214.7,515.6z M257.3,519.8c-0.3,0-0.6,0-0.9,0c-0.8-0.2-1.6-0.2-2.3-0.2c0.8,0,1.6,0.1,2.4,0.2
			C256.7,519.8,257,519.8,257.3,519.8z M247.9,556.4c0.9,6-1.4,11.5-7.9,12.7c-7,1.3-14.7,2.7-19.7-5c-0.9-1.5-1.5-3.5,0.3-4.6
			c1.9-1.2,3,0.9,4.3,1.9c0.9-0.3,1.8-0.6,2.6-1c0-2.5-0.1-4.9-0.1-7.4c-4.4-1.8-5.1-5-3.4-9c0,0,0.6,0,0.8,0.2
			c0.2,0.2,0.4,0.6,0.6,0.8c4.3-5.2,9.9-5.1,15.8-4.1C252,542.3,247,550.9,247.9,556.4z M249.5,532.5c0.1-2.3,1.5-3.7,3.8-3.9
			c1.9-0.2,3.4,0.6,3.3,2.7c-0.1,2.6-1.6,4.3-3.9,4.7C250.1,535.8,249.4,534.4,249.5,532.5z M321.2,560.7c-2.6,4-3.6,10.3-10.9,9.2
			c-6.1-1-12.5,1.7-17.9-5.2c-2.2-2.8-10.1-1.5-15.2,1.1c-4.7,6.9-11.5,4.2-17.5,3.1c-3.9-0.7-3.3-4.4-1.2-7.3
			c0.7-0.1,1.3-0.3,2-0.5c1.7-3.9,3-2.6,4.2,0.3l-0.1,0.5c1.4-0.1,2.7-0.1,4.1-0.2c0-2,0-4.1,0-6.1c-2.7-0.6-5.6-0.5-7.9-2.4
			c-3.8-1.2-7.3-3-7.1-7.6c0.2-4,4.1-5.3,7-6.9c9.3-5.2,16.9-2.1,20.6,8.3c0,1.7,0,3.5,0.1,5.2c0.2,2.3-0.2,5.3,3.1,5.7
			c2.3,0.3,3.8-1.5,4.7-3.5c1-2.3,2-4.4,4.6-5.3v0c0-7.8,3.8-12,11.6-12.4c7.4-0.3,12.6,2.4,13.4,10.5c0,0.7,0.2,1.3,0.5,1.9
			C324.4,552.2,323.8,556.7,321.2,560.7z M337.4,513.8C337.4,513.8,337.4,513.8,337.4,513.8C337.4,513.8,337.4,513.8,337.4,513.8
			c-2.3,1.3-5.2,2.9-7.9,2.9C332.2,516.7,335.1,515.1,337.4,513.8z M346.1,545.2c-1.6,6.8,4,15-4.2,20.4c-3.9-6.5-1.4-13.8-2.4-20.7
			c-1.5-0.7-3.4-0.7-4.1-3.4c5.5-2.1,11-0.9,16.5-1C351.9,545.6,347.9,543.8,346.1,545.2z M356.6,505.7c0,3.1,1.2,7.8-4.4,7.4
			c-4.5-0.3-3.9-4.1-3.9-7.1c-0.2-9.3-0.3-18.6-0.4-27.9c-3.6,5.2-4.7,10.6-4.6,16c0-5.5,1-10.9,4.6-16c0-1.4,0-2.8,0-4.1
			c-2.4-1.2-3.7-3.1-3.7-5.7c-0.1-11.3-0.1-22.6,0-33.8c0-3,1.4-5.2,4.4-6.2c2.6,0,5.3,0,7.9-0.1c0.3,0.2,0.7,0.5,1,0.7
			c-0.3-0.2-0.6-0.5-1-0.7C356.5,454,356.6,479.9,356.6,505.7z M362,476.7c-0.8-2.1-1.3-4-1.6-5.8
			C360.7,472.6,361.2,474.5,362,476.7c2.2,5.9,3.2,11.8,3.1,17.7C365.1,488.5,364.1,482.6,362,476.7z M372.9,452.9
			c0-5.9,0-11.7,0.2-17.6c0.2-4-1.2-8.9,4-10.7c2.4-0.8,4.4-0.6,6.2,0.1c-1.8-0.8-3.8-0.9-6.2-0.1c-5.2,1.8-3.8,6.7-4,10.7
			C372.8,441.2,372.9,447,372.9,452.9c-1.5-0.5-2.7-1.2-3.7-2.1C370.2,451.6,371.4,452.4,372.9,452.9z M375.2,514.9
			c-2.4-2.1-2.2-6.1-2.2-9.7c-0.1-15.7-0.1-31.4-0.1-47c0,15.7,0,31.4,0.1,47.1C373.1,508.8,372.9,512.8,375.2,514.9z M385.7,553.6
			c0,2.7,0,5.3-0.1,8c1.7,8.2-4.6,3.6-7.1,4c-3.3,0.6-7.4,0.5-7.7-4.5c-0.3-5.2-1.1-10.6,0.2-15.5c2.3-9,9.2-4.7,15.6-4.4
			c-2.8,5-9,1.6-10.6,6.2C377.5,552.4,384.4,548.5,385.7,553.6z M384,477c0,10.2,0.2,18.8-0.1,27.4c-0.1,3.4,1.6,8.7-4.5,8.6
			c-5.2-0.1-4.1-4.8-4.1-8c-0.1-22.9-0.1-45.8,0-68.6c0-3.1-1.2-7.7,4.1-7.9c5.5-0.2,4.3,4.5,4.4,7.6c0.2,9.1,0.1,18.3,0.1,27.8
			c4.9-1.2,5.8-3.8,6.4-6.5c-1.2-0.7-2.1-1.4-2.9-2.1c0.7,0.7,1.7,1.4,2.9,2.1c6.5-6.8,11.3-14.8,16.2-22.7
			c-0.1-3.3,1.1-5.7,4.7-6.3c3,0,6.1,0,10.3,0c-5,11.7-14,20-19.5,30.3c0.2,3.3-0.7,5.9-4.4,6.6l0.2,0c-0.6,6.5,5.5,11.3,4.3,18
			c1.9,4.4,5,8,8.2,11.5c3.7,1.8,5.9,4.7,6.3,8.9c0.5,0.6,1,1.2,1.6,1.8c1.3-0.7,2.5-1,3.7-1c-1.1,0-2.4,0.3-3.6,1
			c0.2,2.6,3.4,4.4,2.1,7.4c-7.9,0.5-7.9,0.5-14-5.7c-0.2,4,0.7,7.5,4,10.1c0.1,0.1,0.2,0.1,0.3,0.2c-0.1-0.1-0.2-0.1-0.3-0.2
			c-3.2-2.6-4.2-6.2-4-10.1c-2.9-6.2-7-11.6-11.7-16.6c0,0,0,0,0,0C392.3,485.9,390.4,480.8,384,477z M426.9,569.4
			c-2.9,0.3-6.5,1.2-5.7-3.9c-3.6,0-7.1,0-10.7,0c-0.2,1.5,0.4,3.7-1.7,3.7c-1.9,0-1.9-2.2-2.2-3.7c-0.1-5.5-0.3-11-0.1-16.5
			c0.1-2.9-1.1-6.8,2.9-7.9c4.3-1.3,9-1.6,12.8,1.3c3.2,2.5,4.3,6.2,2.9,10.2c-1.1,3.1-4.2,5.9-0.5,9.2c2.7,0.1,5.7,0,6,3.7
			C430.8,567.9,429.1,569.2,426.9,569.4z M460.8,565.4c-5.1-2.4-10.1-0.7-15.2,0c-2.5-0.1-4.1-1.2-3.2-3.8
			c2.1-5.8,4.4-11.5,6.9-17.1c1.2-2.6,4-5.2,6.2-1.7c3.9,6.4,7,13.3,8.4,20.7C464.2,564.8,462.2,565.3,460.8,565.4z M465.4,494.5
			c-0.1,0-0.1,0-0.2,0C465.2,494.4,465.3,494.5,465.4,494.5C465.4,494.5,465.4,494.4,465.4,494.5z M460.6,491
			c0.8,1.5,1.8,2.7,3.2,3.2C462.4,493.7,461.4,492.5,460.6,491c-17.4-1-17.4-1-21,11.8c0,0,0,0,0,0c-1.3,2.4-2.7,4.8-3.8,7.3
			c-1.4,3.1-3.8,4-6.8,3.2c-3.6-0.9-1.3-4-1.9-6.1c0,0,0,0,0,0c0.3-0.3,0.4-0.7,0.3-1.1c0.1-4.2-1.4-9.1,4.4-11.1
			c3.8-6.3,6.5-13,8.2-20.2c-0.7-5.6,0.3-10.8,3.1-15.9c2.8-5,5.4-10.2,5.2-16.5c-0.1-5.4,3.5-8.7,8.7-10.2c2-1.8,1.9-6.1,5.1-5.9
			c2.8,0.2,2.8,3.4,2.6,5.9c12.7,26.3,22.8,53.8,33.1,81.1c0,0,0,0,0,0c-9.9,2.2-11.6-5.5-13.4-12c-2.3-8.3-6.8-12.2-15.5-10.8
			C466.2,491,463.4,490.9,460.6,491z M470.4,494.7c6.6,1,10.3,5.1,12.1,13.4c1,4.6,3.9,7.3,7.7,7.6c-3.8-0.2-6.7-3-7.7-7.6
			C480.7,499.8,477,495.7,470.4,494.7z M491.6,558c-4.1,1.1-4.1,1.1-8.7,6.9c-2.3-8.2-0.8-16.1-1.3-23.8c7.1-7.1,12.4-6.5,16.5,1.9
			C503,552.8,501.9,555.3,491.6,558z M527,562.3c2.5,1.6,6.3-2.3,8.7,2.5c-5.5,1.5-12.2,3.4-15-1.4c-3.5-5.8-3-14-0.3-20.1
			c2.3-5.3,8.6-2.9,14-2c-2.6,5.1-8.8,0.8-10.7,5.5c4,2.9,9.4,0.7,13.5,3.4C537.3,557.5,523.3,552.4,527,562.3z M525,513.6
			c-6.9-0.2-5.6-5.8-5.7-10.1c-0.1-25-0.1-49.9-0.1-74.8c2-5.8,4.7-6.4,8-0.9c3,6.3,1.4,13,1.5,19.5c0.2,14.9,0.4,29.8-0.1,44.7
			c-0.3,9.1,2.1,13.9,12.1,12.7c4.1-0.5,8.3,0,12.5,0.2c2.8,0.1,4.6,1.5,4.6,4.5c0,3.1-2,4.2-4.7,4.2
			C543.7,513.7,534.3,513.9,525,513.6z M572.3,563c-3.3,3.7-8.6,4.3-12.3,1.3c-7.1-5.6-3.9-13.6-3-20.9c3.4,3.8,1.2,8.6,2.8,12.7
			c1.2,3.1,2.6,5.7,6.5,5.2c3.5-0.4,4.2-3,4.8-5.8c0.9-4.2-1.1-8.9,3.2-12.7C575.3,549.6,577.8,556.7,572.3,563z M602.3,565.4
			c-5.7-8.2,3.4-19.2-9.5-23.1c6.2-2.6,11.6-2.1,19.8-1C600.1,546.3,605.9,556.7,602.3,565.4z M621.6,472c1.6-1.7,1.7-3.8-0.7-4.7
			c-5.3-1.9-2.2-7.6-6.1-9.8c-1,0.7-1.9,1.2-2.7,1.9c0.8-0.6,1.7-1.2,2.7-1.9c3.9,2.2,0.8,7.9,6.1,9.8
			C623.4,468.1,623.2,470.3,621.6,472z M618.7,436.2l0.2-0.1c-8.1,7.3-19.7,7.6-25,0.5c-1.4,0-2.7,0-4.1,0c-0.3,0.8-0.8,1.4-1.4,2
			c0.6-0.5,1.1-1.2,1.4-2c-8.8-2.1-12.1,1.9-11.7,10.4c0.2,4.2,0.2,8.3,0,12.5c-0.2,5.7,2.3,8.2,8,8c8.3-0.2,16.6,0.2,24.9-0.1
			c4.8-0.2,7,1.8,7.6,6.3c-9.6,4.5-19.8,2.1-29.6,2c-9.2-0.1-11.5,3.6-11,11.7c1.5,19.9-3,17.4,18.1,17.6c5.5,0.1,11.1,0,16.6,0.1
			c2.8,0.1,5.8,0.3,5.7,4.3c-0.1,3.9-3.2,4.1-6,4.1c-12.1,0-24.2-0.1-36.4,0c-4.9,0-6.8-2.2-6.8-7c0-23.9,0-47.8-0.1-71.7
			c0-5.5,2.6-7.1,7.7-7c13.8,0.2,27.7,0.2,41.5,0.3C624.3,430.9,624.5,433.5,618.7,436.2z M611.8,459.7c-0.1,0.1-0.2,0.2-0.3,0.3
			c0,0,0,0,0,0C611.6,459.9,611.7,459.8,611.8,459.7z M581.7,446.6c-0.2-1.8,0.4-3.1,1.4-4C582.2,443.6,581.6,444.8,581.7,446.6
			c0.6,6.2-3.1,13.6,4.3,17.9c5.8,3.4,20.2,0.5,25.1-4.1c-4.8,4.6-19.3,7.5-25.1,4.1C578.6,460.3,582.3,452.8,581.7,446.6z
			 M648.1,566c-6.9,0.1-13.8,0.1-20.7,0.2c-0.6-0.3-1.2-0.6-1.9-0.7c0.6-2.7,1.3-5.4,1.9-8.1c0,0,0,0,0,0c4.6-4.6,3.6-13,10.8-16.6
			c2,3.2,3.8,6,5.6,8.8c0,0,0,0,0,0C644.7,555.2,649.5,559.8,648.1,566z M643.5,540.2c0.8,2.3,0.2,5.5,0.2,8.3
			C643.7,545.7,644.4,542.5,643.5,540.2z M648.4,469.8c-2.8,12.2-5.7,24.3-8.4,36.5c-0.8,3.6-1.4,7.4-6,7c-5.9-0.6-3.3-5.3-2.7-8.1
			c4.8-23.5,9.9-46.9,15-70.3c0.5-2.3,1.4-4.6,4.2-7.3c8.2,21.4,16.5,42.8,25.4,66.2c11-22.4,16.5-45.1,26.2-66.1
			c0.8,0.1,1.6,0.1,2.5,0.2c6.1,28.4,12.1,56.7,18.2,85.1c-0.6,8.2-4.6,7.5-9.2,3.1c-4-3.8-2.8-9-2.7-13.8c-0.4-3.1-0.6-6.2-1.2-9.2
			c-2.5-11.4-5-22.7-7.6-34.1c-4.1,0.9-3.8,3.5-4,5.8c-1,11.2-1.2,22.8-12.1,30c-2.3,5.5-4.5,11.1-6.8,16.7c-0.1,2-0.5,4.5-2.8,4.6
			c-2.3,0-2.8-2.4-2.9-4.5c-4.4-11.1-8.9-22.3-13.3-33.4C656.2,475.4,652.3,472.6,648.4,469.8z M806.8,553.4
			c-5.5,2.5-11.4,0.7-17,1.8c-4.7,3.2-10,1.7-15.1,2.1c-19.1,1.3-38.7-3.4-57.4,3.9c-0.6,0.2-1.4,0.3-2,0.1c-13.8-4-28.4-1.6-42.1-6
			c0-0.7,0.1-1.5,0.1-2.2c2-0.5,3.9-1.5,5.9-1.6c36.9-0.2,73.8-0.3,110.7-0.4c33.5,0,67,0,100.6,0c0,0.7,0,1.5,0,2.2
			C862.6,553.4,834.7,553.4,806.8,553.4z"/>
		<path class="st11" d="M227.3,553c0,0,0,0.1,0,0.1c0,0,0,0,0,0L227.3,553z"/>
		<path class="st11" d="M214.7,515.6c0.6,2.2,2,3.5,4.2,4.1C218.3,517.6,216.9,516.2,214.7,515.6z"/>
	</g>
	<path class="st64" d="M241.8,563c0-2.6,0-5.2,0-7.7C244.2,557.9,244.2,560.4,241.8,563z"/>
	<path class="st11" d="M314.9,553.1c-0.6,5-2.8,8.4-8.4,8.2c-4.9-0.2-7.7-3.2-7.9-7.7c-0.2-5,2.5-8.5,7.9-8.8
		C312.1,544.6,314.3,548.1,314.9,553.1z M309.8,553.2c0-2-1.1-3.2-3-3.5c-2-0.3-3.4,0.9-3.7,2.7c-0.3,2.4,0.9,4,3.5,4
		C308.5,556.4,309.6,555.2,309.8,553.2z"/>
	<path class="st11" d="M416.1,554.6c-5-0.1-5.5-2.5-5.3-5.6c0.2-3.6,2.3-4.6,5.5-4.4s5.5,1.6,5.2,4.9
		C421.1,553.1,418.3,554.5,416.1,554.6z"/>
	<path class="st65" d="M452.9,548.4c2.5,2.9,4.8,5.2,1.7,8.1c-0.7,0.6-3.1,0.5-3.6-0.2C448.5,553,451.3,551.2,452.9,548.4z"/>
	<path class="st66" d="M637.1,547.9c3,2.7,5,5,2.8,8.2c-1,1.5-3.5,1.4-4.6,0C632.6,552.9,635.4,550.8,637.1,547.9z"/>
	<path class="st67" d="M494,544.5c2.8,2,4.4,4.3,1.9,7.6c-1.9,2.5-4.6,3-7.3,2c-4.5-1.7-2.2-5.8-2.6-8.9
		C488.6,545.1,491.3,544.8,494,544.5z"/>
	<path class="st68" d="M494,544.5c-2.7,0.3-5.4,0.5-8.1,0.8C488.4,542.3,491.1,542.6,494,544.5z"/>
	<path class="st11" d="M194.6,553.3c1.8-1.3,1.9-5.6,4.8-4.2c2.8,1.3,3.1,5,2.8,8.2C199.1,556.9,195.2,558.3,194.6,553.3z"/>
	<path class="st69" d="M800.6,473.8c-3.4-7.1-7.9-11.2-5.4-19.3C799.6,460.2,803.8,464.4,800.6,473.8z"/>
	<path class="st69" d="M796.7,484.5c-1.2,0.1-1.9-0.6-2-1.7c-0.2-1.4,0.2-2.8,1.6-3.3c1.6-0.6,2.6,0.3,2.6,1.9
		C798.8,482.8,798.2,484,796.7,484.5z"/>
	<path class="st70" d="M309.8,553.2c-0.2,2-1.3,3.2-3.2,3.2c-2.6,0-3.8-1.6-3.5-4c0.2-1.9,1.7-3,3.7-2.7
		C308.7,550,309.8,551.2,309.8,553.2z"/>
</g>
</svg>
