<?xml version="1.0" encoding="utf-8"?>
<!-- Generator: Adobe Illustrator 25.2.1, SVG Export Plug-In . SVG Version: 6.00 Build 0)  -->
<svg version="1.1" id="Camada_1" xmlns="http://www.w3.org/2000/svg" xmlns:xlink="http://www.w3.org/1999/xlink" x="0px" y="0px"
	 viewBox="0 0 247.2 202.1" style="enable-background:new 0 0 247.2 202.1;" xml:space="preserve">
<style type="text/css">
	.st0{fill:#00ACEE;}
	.st1{fill:#18193C;}
	.st2{fill:#121336;}
	.st3{fill:#131437;}
	.st4{fill:#141437;}
	.st5{fill:#161639;}
	.st6{fill:#06ACEE;}
	.st7{fill:#05ABEE;}
	.st8{fill:#04ABEE;}
	.st9{fill:#1A1B3D;}
	.st10{fill:#18183A;}
	.st11{fill:#191A3B;}
	.st12{fill:#17183A;}
	.st13{fill:#18193B;}
	.st14{fill:#151638;}
	.st15{fill:#1F203F;}
	.st16{fill:#1EAFEF;}
	.st17{fill:#F9FAFA;}
	.st18{fill:#EDEDF0;}
</style>
<g>
	<g>
		<path class="st0" d="M141.9,63.5c-3.9,6-6.4,12.1-6.8,18.9c-0.1,2-0.5,2.6-2.6,2c-5.9-1.6-11.8-1.6-17.7,0
			c-1.9,0.5-2.6,0.3-2.7-1.9c-0.3-6.8-2.8-12.9-6.7-18.9c7.2-2.7,13.3-6.9,18.3-13.4C128.5,56.5,134.5,60.9,141.9,63.5z"/>
		<path class="st1" d="M125.4,86.1c0.1,0,1.5,0.1,3,0.2c4.3,0.4,7.5,1.5,7.7,6.8c0.1,2.7,1.9,5.2,2.6,7.9c0.4,1.7,4,3.1,0.8,5.3
			c-2.5,1.6-4.2,4.7-8.2,1.2c-4.7-4.1-11.3-3.7-16.5,0.7c-3.7,3.1-4.8-0.8-6.9-1.7c-2.9-1.2-0.8-2.8-0.2-4.3
			c1.1-2.6,2.4-5.1,3.1-7.8c2.2-7.5,2.6-8,10.5-8.3C122.3,86.1,123.1,86.1,125.4,86.1z"/>
		<path class="st1" d="M121.8,47.7c-0.6,0.8-1.1,1.6-1.7,2.4c-2.2,2.7-4.8,5.1-7.7,7c-6.9,4.6-7.8,4.5-14.3-0.6
			c-1.8-1.4-4-2.4-5.8-3.8c-1.3-1-4.7-0.3-3.4-3.6c1-2.6,0.7-6,5.6-5.8c6.6,0.3,11.5-3.7,13.2-10c1.2-4.5,4.3-2.5,6.7-2.8
			c2.9-0.4,2.4,2,2.6,3.7c0.4,3.8,1.7,7.4,3.3,10.9C120.8,45.8,121.3,46.7,121.8,47.7z"/>
		<path class="st1" d="M134.7,30.4c2.6-0.6,3.9,0.2,4.8,3.2c1.8,6.1,6.9,10,13.5,9.7c4.4-0.2,4,2.9,5.1,5.2c1.3,2.9-1.1,3.2-2.8,4
			c-3.2,1.5-6.2,3.3-8.5,6c-2.3,2.7-4.5,2.8-7.3,1.2c-2.3-1.3-4.7-2.5-6.8-4.1c-7.1-5.3-7.3-6.3-4.5-14.3c0.8-2.3,1.7-4.8,1.7-7.2
			C130,30.4,131.7,29.9,134.7,30.4z"/>
		<path class="st1" d="M137.9,82.6c0.1-3.6,1.1-7,2.3-10.2c2.7-6.9,3.5-7.4,11-7.1c2.5,0.1,5-0.2,7.4-0.4c1.9-0.1,4.3-2.1,5.2,1.4
			c0.7,2.6,2.8,5-1.2,7.5c-5.5,3.4-7.2,9.5-4.8,15.8c1.6,4.3-2.1,4.5-3.7,6.2c-2,2.2-3,0.1-4.2-1.2c-2.8-2.9-5.8-5.5-9.5-7.1
			C137.9,86.5,137.1,84.9,137.9,82.6z"/>
		<path class="st1" d="M109.4,83.3c0.5,2-0.3,3.2-2.3,4.1c-3.3,1.5-6.1,3.9-8.9,6.3c-1.4,1.2-2.1,4.8-5.3,2.1
			c-2.2-1.9-5.4-2.6-3.3-7.1c2.4-5.2,0-11.7-5.4-15.1c-3.8-2.5-1.3-4.7-0.9-7.1c0.5-3.2,2.7-2.1,4.6-1.7c3.4,0.8,7.1,1.1,10.3,0.2
			c3.9-1.1,5.4,0.8,6.9,3.6C107.6,73.1,109.2,77.9,109.4,83.3z"/>
		<path class="st2" d="M91.4,153.9c0,1.8,0,3.6,0,5.5c0,1.5-0.2,2.5-2.1,2.5c-1.8,0-2.8-0.4-2.8-2.4c0.1-3.5,0.1-7,0-10.4
			c0-2.8-1-5.2-4.1-5.2c-3.5-0.1-4.2,2.5-4.1,5.5c0,0.8,0.1,1.7,0,2.5c-0.1,1.5,0.7,3.4-2.1,3.5c-2.9,0-1.9-2-2.1-3.5
			c-0.3-3.2,1.2-8-4.1-7.9c-5,0.1-4,4.8-4.1,8.1c-0.1,2.5-0.1,5,0,7.4c0.1,2.1-1,2.4-2.8,2.4c-2,0-2.1-1.1-2.1-2.6
			c0-3.8-0.2-7.6,0.1-11.4c0.6-7,6.7-10.3,13-7.2c1.1,0.5,1.6,1.5,3.4,0.7c8.2-4,13.6-0.5,13.7,8.5
			C91.4,151.2,91.4,152.5,91.4,153.9z"/>
		<path class="st2" d="M118.3,150.9c0-0.7-0.2-1.4,0-2c1.3-2.9-3.2-8,2.5-8.9c9.5-1.6,15,1.2,16.8,7.4c1.6,5.5-0.8,11-5.8,13.3
			c-1,0.5-2.2,0.8-3.3,1C118.4,163.2,118.3,163.1,118.3,150.9z"/>
		<path class="st3" d="M190.8,154.2c0,1.7-0.1,3.3,0,5c0.1,1.8-0.4,2.7-2.4,2.7c-2.1,0-2.7-1-2.4-2.7c0.6-3.4-0.9-4.2-4.1-4.1
			c-2.6,0.1-4.1,0.5-3.7,3.6c0.2,1.6,0.4,3.3-2.3,3.3c-2.6,0-2.5-1.5-2.4-3.2c0.1-3.6-0.1-7.3,0.1-10.9c0.4-5.1,3.5-8,8.2-8.2
			c4.7-0.1,8.1,2.7,8.8,7.6c0.3,2.3,0.1,4.6,0.1,6.9C190.8,154.2,190.8,154.2,190.8,154.2z"/>
		<path class="st2" d="M108.1,139.9c0.8,0,1.7-0.1,2.5,0c1,0.1,2.6-0.5,2.4,1.5c-0.2,1.3-0.6,2.7-2.4,2.6c-1,0-2,0-3,0
			c-4.8,0.2-7.5,2.6-7.5,6.7c0,4,2.9,6.6,7.4,7.1c1.9,0.2,5.4-1.7,5.6,1.8c0.2,4.3-3.8,2-5.7,2.1c-7.4,0.2-12.1-4.2-12.1-10.8
			C95.2,143.8,99.7,139.9,108.1,139.9z"/>
		<path class="st4" d="M163.3,139.9c0.8,0,1.7-0.1,2.5,0c1,0.1,2.6-0.5,2.4,1.5c-0.1,1.4-0.5,2.6-2.3,2.6c-1.3,0-2.7,0-4,0
			c-4.2,0.2-6.5,2.6-6.5,6.7c-0.1,4,2.3,6.4,6.3,7.1c0.3,0.1,0.7-0.1,1,0.1c1.8,1,5.8-2.2,5.6,2.3c-0.2,3.5-3.7,1.7-5.6,1.7
			c-7.3,0.1-12.1-4.3-12.2-10.8C150.3,143.9,155,139.9,163.3,139.9z"/>
		<path class="st5" d="M195.8,150.7c0-2.8,0-5.6,0-8.4c0-1.5,0.2-2.5,2.1-2.5c1.8,0,2.8,0.4,2.8,2.4c-0.1,3.6,0.2,7.3-0.1,10.9
			c-0.2,3.2,0.5,5,4.2,4.6c1.4-0.2,4-1.4,4.2,1.8c0.2,3.5-2.6,2.2-4.3,2.3c-8.9,0.2-8.9,0.1-8.9-8.6
			C195.8,152.4,195.8,151.5,195.8,150.7z"/>
		<path class="st6" d="M123.6,44.9c-2.8-5-3.9-9.7-4.2-14.7c-0.2-3.1,1.3-5.4,4.5-5.3c3,0.1,4.2,2.4,4,5.3
			C127.5,35.1,126.6,40,123.6,44.9z"/>
		<path class="st7" d="M147.1,62c4-4.4,8.4-6.9,13.2-8.7c2.7-1,4.7-0.2,5.6,2.3c1,2.8-0.4,4.7-3.3,5.6C157.8,62.6,153,62.8,147.1,62
			z"/>
		<path class="st8" d="M109.1,89.5c-0.8,5.7-2.7,10.1-5.5,14.3c-1.6,2.4-3.7,3.6-6.2,1.8c-2.5-1.8-2.3-4.1-0.4-6.5
			C100.2,95.2,103.8,91.9,109.1,89.5z"/>
		<path class="st8" d="M138.1,89.5c5.3,2.4,8.9,5.8,12.1,9.6c1.9,2.3,2.1,4.7-0.4,6.5c-2.5,1.8-4.7,0.6-6.2-1.8
			C140.8,99.6,138.9,95.2,138.1,89.5z"/>
		<path class="st7" d="M100.1,62c-5.6,0.8-10.2,0.6-14.9-0.6c-2.9-0.8-5.1-2.2-4-5.5c1-3.3,3.6-3.4,6.4-2.3
			C92.1,55.4,96.2,57.7,100.1,62z"/>
		<path class="st9" d="M141.9,150.6c0-2.8,0.1-5.6,0-8.4c-0.1-1.7,0.6-2.4,2.3-2.3c1.5,0,2.6,0.3,2.6,2.1c0,6,0,11.9,0,17.9
			c0,1.8-1.1,2-2.6,2.1c-1.8,0.1-2.3-0.8-2.2-2.4C141.9,156.5,141.9,153.5,141.9,150.6z"/>
		<path class="st10" d="M123.4,107.8c3.1,0,6.2,0.7,8,3.1c1.2,1.7-1.3,2.3-2.3,2.9c-2.7,1.8-5.1,5.9-9,1.5c-1.3-1.5-4.9-2.3-4.3-4
			c0.9-2.7,4.3-3.2,7.1-3.5C123,107.8,123.2,107.8,123.4,107.8z"/>
		<path class="st11" d="M87.6,85c-0.3,1.6,0.4,4.3-1.8,5c-1.6,0.5-3.1-1.6-4.2-3c-2.8-3.4-2.8-7.3-1.2-11.2c0.4-1.1,1.2-1.1,1.9-0.6
			C85.6,77.5,87.5,80.7,87.6,85z"/>
		<path class="st12" d="M154.9,40.1c-5.9,0.7-10-1.3-12.3-6c-1.3-2.7-1.5-4.3,2.4-3.9C150.5,30.8,153.6,33.7,154.9,40.1z"/>
		<path class="st13" d="M159.6,85.4c0.2-1.4,0.2-2.6,0.6-3.7c1-3,3.1-7.3,5.7-6.4c2.8,0.9,2.7,5.5,1.4,8.8c-0.4,1.1-1,2.1-1.7,3
			c-1.2,1.3-2.6,3.4-4.3,2.9C159.4,89.5,160.1,86.8,159.6,85.4z"/>
		<path class="st14" d="M92.3,40.1c1.3-6.2,4.2-9.2,9.4-9.7c1.2-0.1,2.8-0.8,3.6,0.6c0.6,1-0.3,2.2-0.8,3.2
			C102.2,39,98.2,40.9,92.3,40.1z"/>
		<path class="st9" d="M43.1,154.8c0,1.7,0,3.3,0,5c0,1.8-1,2.1-2.6,2.1c-1.7,0-2.3-0.7-2.3-2.3c0.1-3.5,0.1-7,0-10.4
			c0-1.6,0.5-2.4,2.2-2.4c1.9,0,2.8,0.6,2.7,2.6C43,151.1,43.1,153,43.1,154.8z"/>
		<path class="st15" d="M107.9,152.9c-1.9,0-4.3,0.3-4.1-2.2c0.2-2.8,2.9-1.9,4.7-2c1.6-0.1,3.5-0.5,3.3,2.2
			C111.7,154,109.3,152.6,107.9,152.9z"/>
		<path class="st16" d="M52.3,154.8c-1.5-0.2-2.5-1-2.6-2.5c-0.1-1.5,1-2.4,2.5-2.5c1.6-0.1,2.5,0.9,2.6,2.4
			C54.8,153.7,53.8,154.6,52.3,154.8z"/>
		<path class="st12" d="M40.2,139.9c1.7-0.1,2.8,0.1,2.9,2c0.1,2.1-1,2.4-2.7,2.4c-1.7,0-2.3-0.6-2.3-2.3
			C38.2,140.4,38.8,139.5,40.2,139.9z"/>
		<path class="st17" d="M122.7,150.7c2-2-2.6-6.5,3-6.8c4.4-0.2,7.4,2.7,7.3,6.9c0,3.9-2.9,6.9-6.9,6.9
			C120.1,157.7,124.6,152.9,122.7,150.7z"/>
		<path class="st18" d="M182.1,151c-1.5-0.4-4,1-3.8-2.2c0.1-2.5,1-4.7,3.9-4.7c2.6,0,3.6,1.9,3.9,4.3
			C186.5,151.8,183.9,150.7,182.1,151z"/>
	</g>
	<g>
		<path class="st2" d="M38.9,177.1v-7.2h1v7.2H38.9z"/>
		<path class="st2" d="M44.1,177.1v-7.2H45l3.2,5.4h-0.5l3.2-5.4h0.8l0,7.2h-1l0-5.6H51l-2.8,4.8h-0.5l-2.8-4.8h0.3v5.6H44.1z"/>
		<path class="st2" d="M54.9,177.1l3.2-7.2h1l3.3,7.2h-1.1l-2.9-6.6h0.4l-2.9,6.6H54.9z M56.3,175.3l0.3-0.8h4l0.3,0.8H56.3z"/>
		<path class="st2" d="M68.7,177.2c-0.6,0-1.1-0.1-1.5-0.3c-0.5-0.2-0.9-0.4-1.2-0.8c-0.3-0.3-0.6-0.7-0.8-1.2
			c-0.2-0.4-0.3-0.9-0.3-1.5s0.1-1,0.3-1.5c0.2-0.4,0.5-0.8,0.8-1.2c0.3-0.3,0.7-0.6,1.2-0.8c0.5-0.2,1-0.3,1.5-0.3
			c0.6,0,1.1,0.1,1.6,0.3c0.5,0.2,0.9,0.5,1.2,0.8l-0.6,0.6c-0.3-0.3-0.6-0.5-1-0.6c-0.3-0.1-0.7-0.2-1.1-0.2
			c-0.4,0-0.8,0.1-1.1,0.2c-0.4,0.1-0.7,0.3-0.9,0.6s-0.5,0.5-0.6,0.9c-0.1,0.3-0.2,0.7-0.2,1.1c0,0.4,0.1,0.8,0.2,1.1
			s0.3,0.6,0.6,0.9c0.3,0.2,0.6,0.4,0.9,0.6s0.7,0.2,1.1,0.2c0.4,0,0.8-0.1,1.1-0.2c0.4-0.1,0.7-0.3,1-0.6l0.6,0.8
			c-0.4,0.3-0.8,0.5-1.2,0.7C69.7,177.1,69.2,177.2,68.7,177.2z M70.4,176.2v-2.7h1v2.8L70.4,176.2z"/>
		<path class="st2" d="M76.4,176.2h4.2v0.9h-5.2v-7.2h5.1v0.9h-4V176.2z M76.3,173H80v0.9h-3.7V173z"/>
		<path class="st2" d="M84.3,177.1v-7.2h0.8l3.2,5.4h-0.5l3.2-5.4h0.8l0,7.2h-1l0-5.6h0.2l-2.8,4.8h-0.5l-2.8-4.8h0.3v5.6H84.3z"/>
		<path class="st2" d="M102,176.2h4.2v0.9H101v-7.2h5.1v0.9h-4V176.2z M101.9,173h3.7v0.9h-3.7V173z"/>
		<path class="st2" d="M114.7,177.1v-7.2h3c0.8,0,1.4,0.2,2,0.5c0.6,0.3,1,0.7,1.4,1.3c0.3,0.5,0.5,1.2,0.5,1.9s-0.2,1.3-0.5,1.9
			c-0.3,0.5-0.8,1-1.4,1.3c-0.6,0.3-1.3,0.5-2,0.5H114.7z M115.7,176.2h1.9c0.6,0,1.1-0.1,1.5-0.3s0.8-0.5,1-0.9
			c0.2-0.4,0.4-0.9,0.4-1.4c0-0.5-0.1-1-0.4-1.4s-0.6-0.7-1-0.9s-0.9-0.3-1.5-0.3h-1.9V176.2z"/>
		<path class="st2" d="M125.2,177.1v-7.2h1v7.2H125.2z"/>
		<path class="st2" d="M129.3,177.1l3.2-7.2h1l3.3,7.2h-1.1l-2.9-6.6h0.4l-2.9,6.6H129.3z M130.7,175.3l0.3-0.8h4l0.3,0.8H130.7z"/>
		<path class="st2" d="M143.1,177.2c-0.6,0-1.1-0.1-1.5-0.3c-0.5-0.2-0.9-0.4-1.2-0.8c-0.3-0.3-0.6-0.7-0.8-1.2s-0.3-0.9-0.3-1.5
			s0.1-1,0.3-1.5s0.5-0.8,0.8-1.2c0.3-0.3,0.8-0.6,1.2-0.8c0.5-0.2,1-0.3,1.5-0.3c0.6,0,1.1,0.1,1.6,0.3s0.9,0.5,1.2,0.8l-0.6,0.6
			c-0.3-0.3-0.6-0.5-1-0.6c-0.3-0.1-0.7-0.2-1.1-0.2c-0.4,0-0.8,0.1-1.1,0.2c-0.4,0.1-0.7,0.3-0.9,0.6c-0.3,0.2-0.5,0.5-0.6,0.9
			c-0.1,0.3-0.2,0.7-0.2,1.1c0,0.4,0.1,0.8,0.2,1.1c0.1,0.3,0.3,0.6,0.6,0.9c0.3,0.2,0.6,0.4,0.9,0.6c0.3,0.1,0.7,0.2,1.1,0.2
			c0.4,0,0.8-0.1,1.1-0.2c0.4-0.1,0.7-0.3,1-0.6l0.6,0.8c-0.4,0.3-0.8,0.5-1.2,0.7C144.1,177.1,143.6,177.2,143.1,177.2z
			 M144.9,176.2v-2.7h1v2.8L144.9,176.2z"/>
		<path class="st2" d="M149.8,177.1v-7.2h0.8l4.7,5.9H155v-5.9h1v7.2h-0.8l-4.7-5.9h0.4v5.9H149.8z"/>
		<path class="st2" d="M163.5,177.2c-0.5,0-1.1-0.1-1.5-0.3c-0.5-0.2-0.9-0.4-1.2-0.8c-0.3-0.3-0.6-0.7-0.8-1.2s-0.3-0.9-0.3-1.5
			s0.1-1,0.3-1.5s0.5-0.8,0.8-1.2c0.3-0.3,0.7-0.6,1.2-0.8s1-0.3,1.5-0.3c0.5,0,1.1,0.1,1.5,0.3c0.5,0.2,0.9,0.4,1.2,0.8
			c0.3,0.3,0.6,0.7,0.8,1.2c0.2,0.4,0.3,0.9,0.3,1.5c0,0.5-0.1,1-0.3,1.5c-0.2,0.4-0.5,0.8-0.8,1.2c-0.3,0.3-0.7,0.6-1.2,0.8
			C164.5,177.1,164,177.2,163.5,177.2z M163.4,176.3c0.4,0,0.8-0.1,1.1-0.2c0.3-0.1,0.6-0.3,0.9-0.6c0.2-0.2,0.4-0.5,0.6-0.9
			c0.1-0.3,0.2-0.7,0.2-1.1s-0.1-0.8-0.2-1.1c-0.1-0.3-0.3-0.6-0.6-0.9c-0.2-0.3-0.5-0.4-0.9-0.6c-0.3-0.1-0.7-0.2-1.1-0.2
			c-0.4,0-0.8,0.1-1.1,0.2c-0.3,0.1-0.6,0.3-0.9,0.6s-0.4,0.5-0.6,0.9c-0.1,0.3-0.2,0.7-0.2,1.1s0.1,0.8,0.2,1.1
			c0.1,0.3,0.3,0.6,0.6,0.9c0.3,0.2,0.5,0.4,0.9,0.6C162.7,176.2,163.1,176.3,163.4,176.3z M162.7,169.4l1.4-1.3h1.3l-1.7,1.3H162.7
			z"/>
		<path class="st2" d="M173,177.2c-0.5,0-1.1-0.1-1.6-0.3c-0.5-0.2-0.9-0.4-1.2-0.7l0.4-0.8c0.3,0.2,0.6,0.4,1,0.6s0.9,0.2,1.3,0.2
			c0.4,0,0.8,0,1-0.1s0.5-0.2,0.6-0.4c0.1-0.2,0.2-0.4,0.2-0.6c0-0.2-0.1-0.4-0.2-0.6c-0.2-0.2-0.4-0.3-0.6-0.4
			c-0.3-0.1-0.5-0.2-0.8-0.2c-0.3-0.1-0.6-0.1-0.9-0.2c-0.3-0.1-0.6-0.2-0.9-0.4c-0.3-0.1-0.5-0.3-0.6-0.6c-0.2-0.2-0.2-0.6-0.2-0.9
			c0-0.4,0.1-0.7,0.3-1c0.2-0.3,0.5-0.6,0.9-0.7c0.4-0.2,0.9-0.3,1.6-0.3c0.4,0,0.8,0.1,1.2,0.2s0.8,0.3,1.1,0.5l-0.3,0.8
			c-0.3-0.2-0.6-0.4-1-0.4c-0.3-0.1-0.7-0.1-1-0.1c-0.4,0-0.7,0.1-1,0.2s-0.4,0.2-0.6,0.4c-0.1,0.2-0.2,0.4-0.2,0.6
			c0,0.3,0.1,0.5,0.2,0.6c0.2,0.2,0.4,0.3,0.6,0.4c0.3,0.1,0.5,0.2,0.8,0.2c0.3,0.1,0.6,0.2,0.9,0.2c0.3,0.1,0.6,0.2,0.9,0.3
			c0.3,0.1,0.5,0.3,0.6,0.6c0.2,0.2,0.2,0.5,0.2,0.9c0,0.4-0.1,0.7-0.3,1c-0.2,0.3-0.5,0.6-0.9,0.7
			C174.1,177.1,173.6,177.2,173,177.2z"/>
		<path class="st2" d="M180.6,177.1v-6.3h-2.5v-0.9h5.9v0.9h-2.5v6.3H180.6z"/>
		<path class="st2" d="M187.3,177.1v-7.2h1v7.2H187.3z"/>
		<path class="st2" d="M195.7,177.2c-0.5,0-1.1-0.1-1.5-0.3c-0.5-0.2-0.9-0.4-1.2-0.8c-0.3-0.3-0.6-0.7-0.8-1.2s-0.3-0.9-0.3-1.5
			s0.1-1,0.3-1.5s0.5-0.8,0.8-1.2c0.3-0.3,0.7-0.6,1.2-0.8c0.5-0.2,1-0.3,1.5-0.3c0.6,0,1.1,0.1,1.5,0.3c0.5,0.2,0.9,0.5,1.2,0.8
			l-0.7,0.6c-0.3-0.3-0.6-0.5-0.9-0.6c-0.3-0.1-0.7-0.2-1.1-0.2c-0.4,0-0.8,0.1-1.1,0.2c-0.3,0.1-0.6,0.3-0.9,0.6s-0.4,0.5-0.6,0.9
			c-0.1,0.3-0.2,0.7-0.2,1.1s0.1,0.8,0.2,1.1c0.1,0.3,0.3,0.6,0.6,0.9s0.6,0.4,0.9,0.6c0.3,0.1,0.7,0.2,1.1,0.2
			c0.4,0,0.8-0.1,1.1-0.2c0.3-0.1,0.6-0.4,0.9-0.7l0.7,0.6c-0.3,0.4-0.7,0.6-1.2,0.8C196.8,177.1,196.3,177.2,195.7,177.2z"/>
		<path class="st2" d="M205,177.2c-0.5,0-1.1-0.1-1.5-0.3c-0.5-0.2-0.9-0.4-1.2-0.8c-0.3-0.3-0.6-0.7-0.8-1.2s-0.3-0.9-0.3-1.5
			s0.1-1,0.3-1.5s0.5-0.8,0.8-1.2c0.3-0.3,0.7-0.6,1.2-0.8s1-0.3,1.5-0.3c0.5,0,1.1,0.1,1.5,0.3c0.5,0.2,0.9,0.4,1.2,0.8
			c0.3,0.3,0.6,0.7,0.8,1.2c0.2,0.4,0.3,0.9,0.3,1.5c0,0.5-0.1,1-0.3,1.5c-0.2,0.4-0.5,0.8-0.8,1.2c-0.3,0.3-0.7,0.6-1.2,0.8
			C206.1,177.1,205.6,177.2,205,177.2z M205,176.3c0.4,0,0.8-0.1,1.1-0.2c0.3-0.1,0.6-0.3,0.9-0.6c0.2-0.2,0.4-0.5,0.6-0.9
			c0.1-0.3,0.2-0.7,0.2-1.1s-0.1-0.8-0.2-1.1c-0.1-0.3-0.3-0.6-0.6-0.9c-0.2-0.3-0.5-0.4-0.9-0.6c-0.3-0.1-0.7-0.2-1.1-0.2
			c-0.4,0-0.8,0.1-1.1,0.2c-0.3,0.1-0.6,0.3-0.9,0.6s-0.4,0.5-0.6,0.9c-0.1,0.3-0.2,0.7-0.2,1.1s0.1,0.8,0.2,1.1
			c0.1,0.3,0.3,0.6,0.6,0.9c0.3,0.2,0.5,0.4,0.9,0.6C204.3,176.2,204.6,176.3,205,176.3z"/>
	</g>
</g>
</svg>
