<?xml version="1.0" encoding="utf-8"?>
<!-- Generator: Adobe Illustrator 25.2.1, SVG Export Plug-In . SVG Version: 6.00 Build 0)  -->
<svg version="1.1" id="Camada_1" xmlns="http://www.w3.org/2000/svg" xmlns:xlink="http://www.w3.org/1999/xlink" x="0px" y="0px"
	 viewBox="0 0 247.2 202.1" style="enable-background:new 0 0 247.2 202.1;" xml:space="preserve">
<style type="text/css">
	.st0{fill:#000154;}
	.st1{fill:#FC6202;}
	.st2{fill:#FD6202;}
	.st3{fill:#FD6303;}
	.st4{fill:#FC6203;}
	.st5{fill:#FB6305;}
	.st6{fill:#0B093E;}
	.st7{fill:#F76409;}
	.st8{fill:#FEFEFE;}
	.st9{fill:#000153;}
	.st10{fill:#FD6203;}
	.st11{fill:#FC6102;}
	.st12{fill:#FC6103;}
	.st13{fill:#F4F5F7;}
	.st14{fill:#0B0A40;}
	.st15{fill:#F1F1F7;}
</style>
<g>
	<path class="st0" d="M117.3,24.7c26.2-0.1,47.8,21.3,47.8,47.5c0.1,26.6-21.3,48.1-47.8,48.2c-26.5,0-48-21.4-48-47.7
		C69.2,46.1,90.8,24.6,117.3,24.7z"/>
	<path class="st0" d="M20,149.2c-1.1,0-2.2,0-3.2,0c-1,0-1.5-0.4-1.4-1.5c0.9-6.6,1.8-13.2,2.8-19.8c0.2-1.6,0.5-1.8,2.2-1.8
		c1.3,0,2.6,0,3.9,0c0.9,0,1.6,0.2,1.9,1.1c0.3,1,0.8,0.8,1.5,0.4c2.2-1.2,4.5-2,7.1-2c2.2-0.1,4.1,0.5,5.5,2.3
		c0.5,0.6,0.8,0.3,1.3,0.1c2.4-1.2,4.8-2.3,7.5-2.3c0.8,0,1.6,0,2.4,0.1c3.4,0.6,5.1,2.6,5.2,6.1c0.1,3-0.7,5.9-1,8.9
		c-0.2,2.3-0.7,4.7-1,7c-0.1,1.2-0.8,1.7-1.9,1.7c-2.1,0-4.2,0-6.3,0c-1.4,0-1.6-0.3-1.4-1.7c0.5-3.9,1.1-7.7,1.6-11.6
		c0.5-3.3-0.1-3.7-3.2-2.5c-1.1,0.4-1.6,1-1.7,2.2c-0.5,3.9-1.1,7.9-1.6,11.8c-0.2,1.4-0.6,1.7-2,1.8c-2,0-4.1,0-6.1,0
		c-1.5,0-1.8-0.3-1.6-1.8c0.5-3.9,1.1-7.8,1.6-11.7c0.4-2.9-0.3-3.4-3-2.4c-1.2,0.4-1.8,1.1-2,2.4c-0.4,3.9-1.1,7.8-1.6,11.7
		c-0.2,1.5-0.6,1.8-2.1,1.8C22,149.2,21,149.2,20,149.2z"/>
	<path class="st0" d="M13.1,117.6c1.1,0,2.2,0,3.2,0c1.2,0,1.5,0.3,1.3,1.6c-0.5,3.4-0.9,6.8-1.4,10.2c-0.9,6.1-1.8,12.1-2.6,18.2
		c-0.2,1.1-0.6,1.6-1.8,1.6c-2.2,0-4.3,0-6.5,0c-1.2,0-1.5-0.4-1.4-1.6c1.3-9.5,2.7-19,4-28.5c0.1-1,0.6-1.5,1.7-1.5
		C10.8,117.7,12,117.6,13.1,117.6C13.1,117.6,13.1,117.6,13.1,117.6z"/>
	<path class="st0" d="M216.5,129.5c1.2-1.3,2.2-2.3,3.5-3.1c2.1-1.3,4.2-1.2,5.6,0.3c0.7,0.8,0.9,1.5,0.5,2.6
		c-0.8,1.7-1.4,3.4-2.1,5.1c-0.6,1.6-1.5,1.7-2.5,0.4c-1-1.2-1.6-1.3-2.8-0.4c-1.3,0.9-2.1,2-2.3,3.7c-0.3,3.2-0.9,6.3-1.3,9.5
		c-0.1,1.1-0.7,1.6-1.8,1.6c-1.9,0-3.8,0-5.7,0c-1.3,0-1.6-0.4-1.4-1.7c0.9-6.5,1.8-13,2.7-19.5c0.2-1.7,0.5-1.9,2.2-1.9
		c1.1,0,2.2,0,3.4,0c1,0,1.5,0.4,1.6,1.4C216.2,128.1,216.3,128.7,216.5,129.5z"/>
	<path class="st1" d="M60.3,177.1c-2.2,0-4.3,0-6.5,0c-1.1,0-1.2-0.3-1.1-1.3c0.9-6.3,1.7-12.5,2.5-18.8c0.1-0.8,0.4-1.2,1.3-1.2
		c4.3,0,8.6,0,12.9,0c0.9,0,1.2,0.3,1,1.2c-0.1,0.4-0.1,0.9-0.2,1.3c-0.4,2.5-0.4,2.5-3,2.5c-1.9,0-3.8,0.1-5.7,0
		c-1.6-0.1-1.3,1.1-1.4,1.9c-0.2,1.1,0.7,0.9,1.3,0.9c1.8,0,3.6,0,5.5,0c0.9,0,1.2,0.3,1.1,1.2c-0.2,0.9-0.3,1.9-0.3,2.8
		c-0.1,0.8-0.5,1.1-1.3,1.1c-1.9,0-3.9,0-5.8,0c-0.9,0-1.2,0.3-1.3,1.2c-0.3,2.4-0.7,2.3,2,2.3c2.1,0,4.2,0,6.3,0c0.8,0,1.1,0.3,1,1
		c-0.2,1-0.3,2-0.4,3.1c-0.1,0.7-0.5,0.9-1.2,0.9C64.7,177.1,62.5,177.1,60.3,177.1z"/>
	<path class="st2" d="M180.2,163c1.6-1.1,3-1.9,4.7-1.9c2.8,0,4.3,1.4,4.2,4.2c0,2.6-0.6,5.2-0.9,7.8c-0.1,1-0.3,2-0.4,3.1
		c-0.1,0.8-0.4,1-1.1,1c-1.1,0-2.2,0-3.4,0c-0.8,0-1-0.3-0.9-1.1c0.4-2.7,0.7-5.3,1-8c0.1-0.8,0.3-1.7-0.6-2.2
		c-1-0.6-1.9-0.2-2.9,0.2c-0.5,0.2-0.4,0.8-0.5,1.2c-0.4,2.9-0.8,5.8-1.2,8.7c-0.1,0.9-0.4,1.2-1.3,1.2c-1.1-0.1-2.2,0-3.2,0
		c-0.7,0-1-0.2-0.9-1c0.6-4.6,1.3-9.3,1.9-13.9c0.1-0.6,0.4-0.8,1-0.8c0.9,0,1.8,0,2.7,0C179.5,161.4,180.7,161,180.2,163z"/>
	<path class="st1" d="M90.9,161.4c3.2,0.1,2.7-0.5,2.3,2.7c-0.2,2.1-0.6,4.3-0.9,6.4c-0.1,0.8-0.2,1.8,0.6,2.2
		c0.9,0.5,1.9,0.2,2.9-0.3c0.4-0.2,0.4-0.7,0.5-1.1c0.4-2.9,0.8-5.7,1.1-8.6c0.1-1.2,0.6-1.5,1.7-1.4c0.9,0.1,1.9,0.1,2.9,0
		c0.8,0,1,0.2,0.9,1c-0.6,4.6-1.2,9.2-1.8,13.8c-0.1,0.7-0.4,0.9-1.1,0.9c-1,0-2.1,0-3.1,0c-0.7,0-1.2,0-1.3-0.9
		c-0.1-0.8-0.6-0.3-0.8-0.1c-1.2,0.9-2.6,1.3-4.1,1.2c-2.5-0.1-3.9-1.4-3.9-4c0-2.7,0.6-5.3,0.9-8c0.1-0.9,0.3-1.8,0.4-2.7
		c0-1,0.4-1.4,1.4-1.3C89.9,161.4,90.4,161.4,90.9,161.4z"/>
	<path class="st3" d="M113.1,161.2c1.5-0.1,3.1,0.1,4.5,0.5c0.7,0.2,0.9,0.5,0.6,1.2c0,0,0,0.1,0,0.1c-0.9,3.1-0.9,3.1-4,2.7
		c-0.5-0.1-1.1-0.1-1.6-0.1c-1.6,0-2.5,0.7-3,2.1c0,0.1-0.1,0.2-0.1,0.2c-1.1,4.6,0.2,5.5,3.9,5c2.8-0.4,2.8-0.3,3.1,2.4
		c0.1,1-0.1,1.4-1.1,1.6c-2.5,0.4-4.9,0.7-7.4,0.2c-2.8-0.5-4.4-2.2-4.6-5c-0.2-2.5,0.2-5,1.5-7.2c1.4-2.5,3.7-3.5,6.4-3.7
		C111.8,161.1,112.5,161.2,113.1,161.2z"/>
	<path class="st4" d="M142,177.3c-1.8,0-3.3-0.1-4.7-0.6c-1.5-0.6-2.7-1.6-3-3.2c-0.7-3.5-0.3-6.9,2-9.8c1.2-1.5,2.8-2.2,4.6-2.4
		c2.4-0.3,4.8-0.2,7.2,0.3c0.8,0.2,1,0.5,0.7,1.3c-1.1,3.1-1.1,3.1-4.3,2.7c-3.5-0.5-6,2.7-4.7,6c0.4,0.9,1.1,1.3,2,1.3
		c1.3,0,2.6-0.1,3.8-0.4c0.8-0.1,1.2,0.1,1.3,1c0.3,3.2,0.3,3.2-2.9,3.6C143.2,177.3,142.4,177.3,142,177.3z"/>
	<path class="st4" d="M210.9,155.1c2.7,0,2.7,0,2.3,2.7c-0.8,5.9-1.6,11.9-2.3,17.8c-0.1,1-0.5,1.5-1.5,1.4c-1-0.1-2,0-3,0
		c-0.8,0-1-0.3-0.9-1c0.7-5.6,1.5-11.1,2.2-16.7c0.1-0.9,0.4-1.9,0.4-2.8c0-1.1,0.5-1.5,1.5-1.4C210,155.2,210.5,155.1,210.9,155.1z
		"/>
	<path class="st5" d="M153,161.4c2.7,0,2.7,0,2.4,2.6c-0.5,4-1,8-1.5,12.1c-0.1,0.7-0.4,1-1.1,1c-1.1,0-2.2,0-3.4,0
		c-0.8,0-1-0.4-0.9-1.1c0.6-4.5,1.2-8.9,1.8-13.4c0.1-1,0.5-1.4,1.5-1.2C152.2,161.4,152.6,161.4,153,161.4z"/>
	<path class="st6" d="M243.2,126.8c0.5,3.8-3.2,6.7-6.4,6.7c-3.8,0-6.8-2.9-6.8-6.7c0-3.7,3-6.6,6.7-6.7
		C239.9,120.1,243.7,123,243.2,126.8z"/>
	<path class="st7" d="M154.1,155.1c2.7,0,2.7,0,2.3,2.7c-0.1,0.3-0.1,0.6-0.1,1c0,0.7-0.3,1-1.1,1c-1.2,0-2.3,0-3.5,0
		c-0.7,0-1-0.3-0.9-1c0-0.3,0.1-0.6,0.1-0.9C151.2,155.1,151.2,155.1,154.1,155.1z"/>
	<path class="st8" d="M152.9,52.5c-0.6,2.2-1.1,4.4-1.7,6.6c-1.4,5.6-2.9,11.3-4.3,16.9c-1.7,6.5-3.4,13-5,19.6
		c-0.3,1.1-0.8,1.3-1.8,1.3c-9.1,0-18.2,0-27.3,0c-6.3,0-12.7,0-19,0c-0.9,0-1.2-0.2-1.4-1.1c-2.4-9.5-4.8-19.1-7.3-28.6
		c-1.2-4.6-2.3-9.1-3.5-13.7c-0.1-0.3-0.3-0.6-0.1-1c1,0.4,1.7,1.2,2.5,1.9c5.7,5.3,11.6,10.2,17.3,15.4c0.8,0.7,1.1,0.5,1.6-0.2
		c3.3-4.9,6.4-9.9,9.6-14.9c1.2-1.9,2.5-3.7,3.7-5.6c0.6-0.9,0.9-0.9,1.5,0c3.4,5.2,6.8,10.4,10.2,15.6c1.1,1.7,2.4,3.4,3.5,5.1
		c0.5,0.7,0.8,0.7,1.4,0.2c4.3-3.6,8.2-7.4,12.4-11.1C147.7,56.7,150.1,54.4,152.9,52.5z"/>
	<path class="st0" d="M179.3,117.6c-1.9,0-3.9,0-5.8,0c-1.2,0-1.8,0.5-2,1.7c-0.3,2.3-0.6,4.7-1,7c-0.1,0-0.2,0.1-0.3,0
		c-0.3-0.1-0.5-0.2-0.8-0.3c-4.6-2-8.8-1.4-12.4,2c-4.3,4-5.5,9.3-4.4,14.9c0.8,4.5,4.2,6.8,8.8,6.9c2.9,0,5.5-0.9,7.8-2.7
		c0.5-0.4,0.9-0.6,1.1,0.2c0.3,1.8,1.5,2.2,3.1,2c0.5-0.1,1.1,0,1.6,0c1.2,0,1.8-0.5,2-1.7c0.4-3,0.8-5.9,1.2-8.8
		c0.9-6.4,1.8-12.9,2.7-19.3C181.1,117.9,180.8,117.6,179.3,117.6z M169.5,133.7c-0.3,2.2-0.6,4.4-0.9,6.6c-0.1,0.6-0.3,1.1-0.9,1.4
		c-0.3,0.2-0.6,0.4-1,0.5c-3.1,1.7-5.5,0.3-5.5-3.2c0-1.7,0.3-3.3,1.2-4.8c1.4-2.4,4.2-3.2,6.5-1.8
		C169.4,132.8,169.6,133.1,169.5,133.7z"/>
	<path class="st0" d="M128.4,141.6c-1,0.9-1.1,2-1.3,3.1c-0.1,0.3,0,0.7-0.4,0.7c-0.4,0-0.3-0.4-0.4-0.7c-0.6-1.1-0.5-2.2-0.1-3.3
		c0.4-0.9,0.3-2,1.3-2.7c0.6-0.4,1-0.6,1.6-0.5c0.9,0.2,1.9,0.4,2.7-0.4c0.2-0.2,0.6-0.3,0.6,0c0.1,0.6,0.9,1,0.4,1.7
		c-0.5,0.7-0.6,1.6-0.9,2.4c-0.3,0.8,0,1.5,0.9,2.1c1.4,0.9,2.8,1.1,4.4,0.7c0.9-0.3,1.5,0.4,2.2,0.5c1.1,0.2,1.5-0.1,1.6-1.2
		c0.1-0.9,0-1.8,0.2-2.7c0.3-0.9-0.7-1.4-0.9-2.2c-0.4-1.2,0.1-2.3,1.4-2.4c1-0.1,1.2-0.8,1-1.6c-0.2-0.7-0.6-1.4-0.7-2.2
		c0-0.4-0.3-0.7-0.7-0.8c-0.7-0.2-1.5-0.3-1.7-1.2c0-0.2-0.3-0.3-0.5-0.2c-0.7,0.3-1.2-0.1-1.6-0.5c-0.6-0.5-1.2-0.4-1.4,0.3
		c-0.2,0.8-0.8,1-1.4,1.2c-0.4,0.1-0.8,0.2-1.2,0.3c-1.8,0.5-1.8,0.5-2.4-1.1c0,0,0-0.1,0-0.1c0.1-0.7-1.4-0.7-0.8-1.5
		c0.3-0.4,1.2-0.2,1.8-0.6c0.1,0.7,0.7,1.3,0.1,2c-0.2,0.3,0.1,0.5,0.3,0.7c0.3,0.2,0.6,0,0.7-0.3c0.3-0.6,0.6-1.1,1.3-1.1
		c0.2,0,0.4-0.2,0.3-0.4c-0.1-0.4-0.3-0.6-0.6-0.7c-0.4-0.2-1.1-0.3-0.8-0.8c0.4-0.6,1.1-0.9,1.9-0.7c0.4,0.1,0.3,0.3,0.1,0.6
		c-0.2,0.2-0.4,0.5-0.1,0.8c0.3,0.2,0.7,0.2,1.1,0.1c0.3-0.1,0.5-0.4,0.4-0.7c-0.3-1,0.4-1,1-1c1,0,2,0,2.9,0.5
		c0.7,0.4,1.5,0.2,2.2,0.2c0.9,0,1.6,0.5,1.6,1.2c0,1.3,0.9,1.4,1.7,1.7c0.5,0.2,1.3-0.2,1.5,0.6c0.3,1.1,0.8,2.1,0.5,3.3
		c-0.5,2.2-1.8,4.2-1.6,6.6c0.1,1.3-0.4,2.8,0.8,3.9c0.3,0.3,0.3,0.6,0,0.9c-0.4,0.3-0.7,0.1-0.9-0.2c-0.1-0.2-0.2-0.4-0.4-0.7
		c-0.3,0.4-0.5,0.8-0.4,1.2c0.2,0.8,0.3,1.4-0.8,0.9c-0.3-0.1-0.4,0.2-0.3,0.5c0.2,0.7-0.2,0.9-0.8,1.1c0-0.7,0.3-1.3,0.2-2
		c-0.1-0.6-0.3-0.8-0.9-0.8c-0.7,0-1.4,0.1-2.2,0.4c-1.2,0.5-2.4,0.7-3.4-0.4c-0.5-0.5-0.7-0.1-0.9,0.3c-0.2,0.7-0.6,1.3-1.4,1.1
		c-0.9-0.2-1.8-0.4-2-1.6c-0.1-0.8-0.5-1.1-1.1-0.3c-0.3,0.4-0.7,0.4-1.1,0.4c-0.9,0.1-1.9,0.1-2.1,1.3c-0.1,0.3-0.3,0.4-0.6,0.3
		c-0.5-0.1-0.7-0.4-0.6-0.9c0.3-1.5-0.1-3.1,0.7-4.5C128.6,142,128.5,141.8,128.4,141.6z"/>
	<path class="st9" d="M149.3,144.2c-1-0.3-0.9-0.9-0.8-1.6c0.4-2.8,0.8-5.6,1.1-8.4c0.3-2.2,0-4.3-1.5-6.1c-1.6-1.8-3.8-2.2-6-2.5
		c-5-0.6-9.6,0.6-14,3.2c-0.2-2.2-2.4-3.7-4.6-3.1c-1.5,0.4-2.7,1.2-3.8,2.3c-0.5,0.5-0.9,1-1.3,1.6c-0.4-0.8-0.6-1.5-0.7-2.1
		c-0.1-1-0.6-1.4-1.5-1.3c-1.3,0.1-2.6,0-3.8,0c-1,0-1.6,0.4-1.7,1.4c-0.9,6.8-1.9,13.5-2.8,20.3c-0.2,1.1,0.3,1.5,1.4,1.5
		c1.9,0,3.9,0,5.8,0c1.1,0,1.6-0.5,1.8-1.6c0.4-3.2,1-6.4,1.3-9.6c0.2-1.8,1.1-2.8,2.4-3.7c1.1-0.8,1.7-0.7,2.6,0.3
		c1.3,1.5,2,1.4,2.8-0.5c0.6-1.5,1.2-3.1,1.9-4.7c0.4,1.3,0.7,2.4,1,3.5c0.5,1.6,0.8,1.7,2.3,1.1c2.3-0.9,4.6-2,7.3-1.8
		c1,0.1,1.8,0.3,2.2,1.3c0.3,0.6,0.3,1.2-0.7,1.1c-1.4-0.1-2.7-0.2-4.1-0.1c-3.6,0.2-6.8,1.3-9.3,4c-2,2.1-2.5,4.7-1.6,7.4
		c0.9,2.6,3,3.5,5.6,3.8c3,0.4,5.8-0.3,8.6-1.4c0.9-0.4,1.6-0.6,2.5,0.3c0.9,0.9,2.2,1.6,3.5,0.9c1.7-1,3.2-2.2,4.7-3.5
		C150.2,145.3,150.1,144.4,149.3,144.2z M139,142.6c-1.2,0.4-2.3,0.9-3.9,0.8c-0.5-0.1-1.6,0.4-1.8-0.8c-0.2-1.1,0.9-1.3,1.7-1.6
		c1.2-0.4,2.4-0.4,3.5-0.5c0.4,0,1.1-0.3,1.1,0.3C139.8,141.4,139.9,142.2,139,142.6z"/>
	<path class="st0" d="M134.9,138.1c-0.4-0.1-0.9-0.1-1-0.6c-0.1-0.3,0.1-0.6,0.5-0.6c0.5,0,1,0.2,1.2,0.7
		C135.6,138,135.2,138,134.9,138.1z"/>
	<path class="st0" d="M133.5,148.4c0,0.2-0.1,0.4-0.4,0.4c-0.3,0-0.5-0.1-0.5-0.4c0-0.2,0.2-0.3,0.5-0.3
		C133.4,148.1,133.5,148.2,133.5,148.4z"/>
	<path class="st0" d="M83.4,132.1c-0.6-2.9-2.4-5-5.1-6.1c-3.8-1.5-7.5-1-10.9,1.2c-0.7,0.4-1.1,0.6-1.4-0.4
		c-0.3-0.8-0.9-1.3-1.8-1.2c-0.5,0-1.1,0-1.6,0c-0.2,0-0.5,0-0.7,0c-2.4,0-2.5,0.1-2.9,2.5c-0.4,2.6-0.7,5.2-1.1,7.9
		c-0.8,5.3-1.5,10.6-2.3,16c-0.2,1.5,0.1,1.8,1.5,1.8c2,0,4.1,0,6.1,0c1,0,1.6-0.5,1.7-1.4c0.2-1.4,0.4-2.9,0.6-4.3
		c0.1-0.7,0.2-1,1-0.7c3.8,1.6,7.6,1.3,11.2-0.9C82.6,143.3,84.5,137.5,83.4,132.1z M74.7,136.7c0,0.2,0,0.7-0.1,1.3
		c-0.7,3.8-4.4,5.2-7.4,2.9c-0.4-0.3-0.5-0.7-0.5-1.2c0.3-1.8,0.5-3.7,0.8-5.5c0.1-0.8,0.7-1.1,1.3-1.4c1.4-0.8,2.9-1.1,4.4-0.3
		C74.5,133.3,74.7,134.8,74.7,136.7z"/>
	<path class="st0" d="M205.3,131.6c-1.4-3.4-4-5.1-7.5-5.8c-6.5-1.3-13.8,1.2-16.6,7.7c-1.1,2.6-1.5,5.3-1.1,8.1
		c0.6,4.5,3.9,7.3,9.1,8c9.5,1.2,16.7-4.9,16.7-14C205.9,134.2,205.9,132.9,205.3,131.6z M191.2,142.3c-0.9-0.2-1.7-0.7-2.1-1.5
		c-1.8-3.3,0.8-7.9,4.5-7.9c2.5,0,3.8,1.3,3.8,3.8C197.3,140.6,194.6,143,191.2,142.3z"/>
	<path class="st0" d="M107.6,134.5c-0.2-5.6-4-9.2-9.5-9c-8.4,0.2-14.3,8.2-12.6,16.8c0.6,2.8,2.2,4.9,4.7,6
		c4.9,2.3,9.8,1.7,14.7-0.4c0.4-0.2,0.5-0.5,0.7-0.8c0.8-1.4-0.1-2.6-0.4-3.9c-0.3-1.5-0.6-1.6-2.1-1.2c-1.9,0.6-3.9,0.9-5.9,0.6
		c-0.9-0.1-1.8-0.4-2.4-1.2c-0.2-0.2-0.5-0.4-0.3-0.7c0.1-0.4,0.5-0.2,0.8-0.2c1.7,0,3.4,0,5.1,0c0,0,0,0,0,0c1.7,0,3.5,0,5.2,0
		c0.9,0,1.5-0.4,1.6-1.4C107.4,137.6,107.6,136,107.6,134.5z M96.8,135.1c0,0-0.1,0-0.1,0c-0.6-0.2-1.5,0.5-1.8-0.4
		c-0.3-0.7,1.2-2.4,2-2.6c1.1-0.2,1.6,0.4,1.9,1.4C99.2,135,99.1,135.1,96.8,135.1z"/>
	<path class="st10" d="M86.1,155.1c-1,0-2,0.1-3,0c-1.1-0.1-1.5,0.4-1.5,1.4c-0.1,1.6-0.4,3.1-0.6,4.7c-0.1,0.9-0.2,1.5-1.3,0.6
		c-0.6-0.5-1.3-0.7-2.1-0.7c-2.8-0.2-5.1,1.2-6.3,3.9c-1.1,2.4-1.4,5-1.3,7.6c0.3,4.8,4.2,5.4,7.3,4.1c0.6-0.3,1.3-1.4,1.8,0.2
		c0,0.1,0.4,0.1,0.7,0.2c0.6,0,1.2,0,1.7,0c0.6,0,1.2,0,1.7,0c0.6,0,0.9-0.2,1-0.8c0.9-6.7,1.8-13.3,2.7-20
		C87.1,155.5,86.9,155.1,86.1,155.1z M80.3,166.6c-0.2,1.8-0.5,3.3-0.6,4.9c-0.1,1.2-0.9,1.3-1.8,1.4c-0.9,0.1-1.7-0.2-1.9-1.2
		c-0.3-1.8-0.3-3.6,0.8-5.2c0.7-1.1,2.1-1.3,3.2-0.6C80.4,166.1,80.3,166.5,80.3,166.6z"/>
	<path class="st4" d="M172.4,166c-0.3-2.5-1.8-4.1-4.2-4.6c-2.4-0.5-4.9-0.5-7.2,0.6c-1,0.5-1.9,1.1-2.6,2c-1.9,2.7-2.5,5.6-2,8.8
		c0.4,2.3,2,3.9,4.4,4.3c0.8,0.1,1.6,0.2,2.5,0.2c3.6,0,5.7-0.9,7.4-3.3C172.3,171.7,172.7,168.9,172.4,166z M166.2,171.4
		c-0.6,1.3-1.6,1.8-2.9,1.5c-1.4-0.3-1.3-1.4-1.3-2.6c0.1-1.1,0.2-2.3,0.7-3.5c0.5-1.1,1.6-1.6,2.8-1.3c1.2,0.2,1.4,1.1,1.4,2.2
		C166.8,169,166.7,170.2,166.2,171.4z"/>
	<path class="st11" d="M129.1,161.2c-2.1-0.2-4.1-0.2-6.2,0.2c-3.4,0.6-2.8-0.1-2.8,3.4c0,1.1,0.4,1.3,1.4,1.1
		c1.5-0.3,3-0.5,4.6-0.3c0.7,0.1,1.4,0.2,1.3,1.1c-0.1,0.9-0.8,0.7-1.3,0.7c-1.7,0-3.4,0.1-5,0.7c-2.6,1-4.1,4-3.3,6.7
		c0.5,1.6,1.7,2.5,3.4,2.6c1.8,0.1,3.4-0.3,5-1.6c-0.1,1.2,0.5,1.4,1.2,1.4c0.9,0,1.9-0.1,2.9,0c0.9,0.1,1.3-0.2,1.4-1.1
		c0.4-3.3,0.8-6.6,1.3-9.8C133.3,163.2,132,161.5,129.1,161.2z M125.9,173.1c-1.1,0.4-2.4,0.3-2.7-0.4c-0.3-0.7-0.2-1.5,0.5-2
		c0.5-0.4,1.2-0.3,1.9-0.3c0.4,0.2,1.2-0.4,1.3,0.5C126.9,171.7,127,172.7,125.9,173.1z"/>
	<path class="st12" d="M200.9,161.2c-2.1-0.2-4.1-0.1-6.2,0.2c-2.7,0.4-2.7,0.4-2.6,3.1c0.1,1.6,0.1,1.6,1.7,1.3
		c1.5-0.2,2.9-0.5,4.4-0.3c0.6,0.1,1.3,0.2,1.2,1.1c-0.1,0.9-0.8,0.7-1.3,0.7c-1.8,0-3.5,0.1-5.1,0.8c-2.7,1.1-4.1,4-3.2,6.7
		c0.5,1.5,1.7,2.4,3.2,2.5c1.8,0.1,3.5-0.1,5-1.5c0.3,0.6,0.1,1.3,1,1.3c1.2,0,2.5,0,3.7,0c0.5,0,0.8-0.2,0.9-0.8
		c0.4-3.5,1-7,1.3-10.6C205.2,162.7,203.9,161.4,200.9,161.2z M196.6,173.3c-0.9,0-1.6-0.3-1.6-1.3c0-1.1,0.8-1.6,2.5-1.6
		c0.5,0.1,1.4-0.4,1.4,0.9C198.9,172.7,198.2,173.3,196.6,173.3z"/>
	<path class="st13" d="M230.9,126.8c0-3.1,2.5-5.7,5.7-5.7c3.3,0,5.8,2.5,5.8,5.8c0,3.2-2.6,5.7-5.8,5.7
		C233.5,132.6,230.9,130,230.9,126.8z"/>
	<path class="st14" d="M237.8,127.1c1,0.9,1.6,2,2.2,3c-1,0.2-1,0.2-1.4-0.4c-0.3-0.5-0.7-1-1-1.6c-0.4-0.7-1.1-1-1.9-1
		c-0.7,0-1,0.1-0.9,0.9c0.1,0.6,0,1.2,0,1.9c0,0.3-0.1,0.5-0.4,0.5c-0.3,0-0.4-0.1-0.4-0.5c0-2.1,0-4.1,0-6.2c0-0.5,0.4-0.4,0.7-0.4
		c0.8,0,1.6,0,2.4,0c1.1,0,2.2,0.1,2.5,1.5C239.7,126.1,239,126.8,237.8,127.1z"/>
	<path class="st15" d="M236.4,124.1c0.9,0.1,2.2-0.3,2.1,1.2c-0.1,1.4-1.3,1-2.2,1.1c-1.1,0.2-1.6-0.1-1.6-1.4
		C234.8,123.5,235.8,124.3,236.4,124.1z"/>
</g>
</svg>
