<?xml version="1.0" encoding="utf-8"?>
<!-- Generator: Adobe Illustrator 25.2.1, SVG Export Plug-In . SVG Version: 6.00 Build 0)  -->
<svg version="1.1" id="Camada_1" xmlns="http://www.w3.org/2000/svg" xmlns:xlink="http://www.w3.org/1999/xlink" x="0px" y="0px"
	 viewBox="0 0 247.2 202.1" style="enable-background:new 0 0 247.2 202.1;" xml:space="preserve">
<style type="text/css">
	.st0{fill:#00B93E;}
	.st1{fill:#FEFEFE;}
</style>
<g>
	<path class="st0" d="M124,0C68.3,0,22.9,45.2,22.8,100.7c-0.1,56,45.2,101.4,101.2,101.4c55.7,0,101.1-45.2,101.2-100.7
		C225.3,45.4,180,0,124,0z M71.7,65.1c4.6-6.4,14.2-7.6,23.7-3.5c-26.5,26.9-32.1,70.7,13.7,99.8C68.5,154,43.8,103.9,71.7,65.1z
		 M183.4,102.6c-12.7-1.2-21.8,4.9-27.7,15.9c-1.8,3.3-3.6,6.7-5.6,9.9c-7.9,12.4-22,14-32.6,3.7c-6.1-5.9-9.7-13.4-12.7-21.1
		c-0.9-2.2-1.6-4.4-2.6-6.8c-11.4,19.5-6.6,36.7,16.4,58.5c-1.9,1.1-3.1,1.1-5-0.1c-23.5-16.1-26.5-52.6-5.8-72.3
		c3.3-3.2,7-5.7,12-4.8c2.7,0.5,5.1-0.4,7.5-1.4c7.9-3.3,16-3.9,24.4-2.2c5,1,15.1-7.4,14.9-12.5c-0.1-3.9-3.2-4.8-6.4-5.3
		c-5.6-1-11.2-1.8-16.8-2.9c-5.4-1-10.5-3-14.6-6.7c-4.7-4.3-10.2-5.6-15.8-3.1c-6.3,2.9-12.4,3.4-19,2c-3.1-0.6-6.6,0.3-10.8,0.5
		c19.6-19.2,55.5-20.5,78.8-3.6c15.4,11.2,24.2,26.2,27.3,44.8C190.1,99.9,190.3,103.3,183.4,102.6z"/>
	<path class="st1" d="M120.7,72.1c1.5-0.5,2.9-0.6,3.6,1.2c0.2,0.5-0.2,1.8-0.4,1.8C121.9,75.1,121.1,73.9,120.7,72.1z"/>
</g>
</svg>
