<?xml version="1.0" encoding="utf-8"?>
<!-- Generator: Adobe Illustrator 25.2.1, SVG Export Plug-In . SVG Version: 6.00 Build 0)  -->
<svg version="1.1" id="Camada_1" xmlns="http://www.w3.org/2000/svg" xmlns:xlink="http://www.w3.org/1999/xlink" x="0px" y="0px"
	 viewBox="0 0 247.2 202.1" style="enable-background:new 0 0 247.2 202.1;" xml:space="preserve">
<style type="text/css">
	.st0{display:none;}
	.st1{display:inline;fill:#FFBA26;}
	.st2{display:inline;fill:#EDD3A3;}
	.st3{display:inline;fill:#EDEAF1;}
	.st4{display:inline;fill:#EBF1EC;}
	.st5{display:inline;fill:#F6E8E3;}
	.st6{display:inline;fill:#29BF92;}
	.st7{display:inline;fill:#896CA1;}
	.st8{display:inline;fill:#FF1D37;}
	.st9{display:inline;fill:#FEFEFE;}
	.st10{display:inline;fill:#FDFEFD;}
	.st11{display:inline;fill:#FDFDFD;}
	.st12{display:inline;fill:#428F8D;}
	.st13{display:inline;fill:#43908E;}
	.st14{display:inline;fill:#283865;}
	.st15{display:inline;fill:#418F8D;}
	.st16{display:inline;fill:#438F8E;}
	.st17{display:inline;fill:#273765;}
	.st18{display:inline;fill:#233D6A;}
	.st19{display:inline;fill:#1F5B8C;}
	.st20{display:inline;fill:#225282;}
	.st21{display:inline;fill:#234573;}
	.st22{display:inline;fill:#44908E;}
	.st23{display:inline;fill:#3A4265;}
	.st24{display:inline;fill:#404867;}
	.st25{display:inline;fill:#3A435E;}
	.st26{display:inline;fill:#39415E;}
	.st27{display:inline;fill:#384160;}
	.st28{display:inline;fill:#3D4560;}
	.st29{display:inline;fill:#39415D;}
	.st30{display:inline;fill:#384163;}
	.st31{display:inline;fill:#404A68;}
	.st32{display:inline;fill:#3B4161;}
	.st33{display:inline;fill:#3C4461;}
	.st34{display:inline;fill:#3C4560;}
	.st35{display:inline;fill:#454C71;}
	.st36{display:inline;fill:#434A6D;}
	.st37{display:inline;fill:#2C4164;}
	.st38{display:inline;fill:#43496A;}
	.st39{display:inline;fill:#3F4765;}
	.st40{display:inline;fill:#3F456D;}
	.st41{display:inline;fill:#374059;}
	.st42{display:inline;fill:#3B4B6C;}
	.st43{display:inline;fill:#41476F;}
	.st44{display:inline;fill:#3F496A;}
	.st45{display:inline;fill:#234472;}
	.st46{display:inline;fill:#5C6172;}
	.st47{display:inline;fill:#FAFBFB;}
	.st48{display:inline;fill:#FDFDFC;}
	.st49{display:inline;fill:#EBF2F3;}
	.st50{display:inline;fill:#F3F7F8;}
	.st51{display:inline;fill:#F3F4F7;}
	.st52{display:inline;fill:#234D7E;}
	.st53{display:inline;fill:#1F6294;}
	.st54{display:inline;fill:#FAFBF9;}
	.st55{display:inline;fill:#FBFBF9;}
	.st56{display:inline;fill:#F6F6F6;}
	.st57{display:inline;fill:#E8ECF4;}
	.st58{display:inline;fill:#E3E6EF;}
	.st59{display:inline;fill:#E2E7EF;}
	.st60{display:none;fill:#EEF5F6;}
	.st61{fill:#EF7F0C;}
	.st62{fill:#212C55;}
	.st63{fill:#EF800C;}
	.st64{fill:#1E4F9C;}
	.st65{fill:#1B4C9B;}
	.st66{fill:#1C4D9B;}
	.st67{fill:#1B4D9B;}
	.st68{fill:#1A4C9B;}
	.st69{fill:#1A4B9A;}
	.st70{fill:#1D4E9C;}
	.st71{fill:#1C4D9C;}
	.st72{fill:#2E5BA4;}
	.st73{fill:#2C59A2;}
	.st74{fill:#184A9A;}
	.st75{fill:#2C5AA3;}
	.st76{fill:#4C73B1;}
	.st77{fill:#F5AC5F;}
	.st78{fill:#3863A8;}
	.st79{fill:#F4A451;}
	.st80{fill:#FEFEFE;}
	.st81{fill:#FDFEFE;}
	.st82{fill:#FDFDFD;}
	.st83{fill:#F3F5FA;}
	.st84{fill:#FAFBFD;}
	.st85{fill:#DB706E;}
	.st86{fill:#DE6E70;}
	.st87{fill:#B63537;}
	.st88{fill:#C45354;}
	.st89{fill:#9F171A;}
	.st90{fill:#E1AB01;}
	.st91{fill:#FDFDFC;}
	.st92{fill:#FDFCFB;}
	.st93{fill:#FCFCFB;}
	.st94{fill:#FDFBFB;}
	.st95{fill:#FCFBFA;}
	.st96{fill:#FDFBFA;}
	.st97{fill:#FDFCFC;}
	.st98{fill:#FCF8F8;}
	.st99{fill:#FDF9F8;}
	.st100{fill:#FDF8F8;}
	.st101{fill:#FDF9F9;}
	.st102{fill:#FEF9F9;}
	.st103{fill:#FBF6F6;}
	.st104{fill:#FDF8F7;}
	.st105{fill:#FCF8F7;}
	.st106{fill:#FBF3F3;}
	.st107{fill:#FDEDED;}
	.st108{fill:#FCF6F6;}
	.st109{fill:#FCECEE;}
	.st110{fill:#A0181B;}
	.st111{fill:#9A1B1E;}
	.st112{fill:#9D1B1D;}
	.st113{fill:#9A3D3E;}
	.st114{fill:#953533;}
	.st115{fill:#991B1E;}
	.st116{fill:#FBEDEE;}
	.st117{fill:#9A2B2C;}
</style>
<g class="st0">
	<path class="st1" d="M0,99.1c0.5-1,0.4-2.1,0.6-3.1c2.5-12.1,12-21,24.2-22.6c0.9-0.1,1.8-0.2,2.7-0.2c11.1,0,22.2,0,33.2,0
		c1.7,0,3,0.8,3.8,2.3c0.7,1.4,0.5,2.9-0.4,4.2c-0.9,1.2-2.2,1.6-3.7,1.7c-1.7,0-3.4,0-5,0c-9.1,0-18.2-0.1-27.2,0
		c-9.4,0-17.2,6.3-19.4,15.5c-3,12.3,6.4,24.6,19.1,24.8c10.8,0.1,21.6,0,32.4,0c2.6,0,4.2,1.2,4.7,3.4c0.4,2.2-1.2,4.4-3.4,4.7
		c-0.4,0-0.7,0-1.1,0c-10.6,0-21.1,0-31.7,0c-14.9-0.1-26.6-10.4-28.5-25.2c0-0.3,0.1-0.6-0.3-0.7c0-0.2,0-0.3,0-0.5
		c0.2-1.3,0.2-2.6,0-3.8C0,99.4,0,99.3,0,99.1z"/>
	<path class="st2" d="M0,99.6c0.4,1.3,0.4,2.6,0,3.8C0,102.1,0,100.9,0,99.6z"/>
	<path class="st3" d="M100.3,0.2c0-0.1,0-0.1,0-0.2c0.8,0,1.6,0,2.4,0c0,0.1,0,0.1,0,0.2C101.9,0.8,101.1,0.8,100.3,0.2z"/>
	<path class="st4" d="M247.2,100.5c0.1,0,0.1,0,0.2,0c0,0.7,0,1.4,0,2.2h-0.1h-0.1C246.6,102,246.6,101.3,247.2,100.5z"/>
	<path class="st5" d="M102.5,202.8c0,0.1,0,0.1,0,0.2c-0.7,0-1.4,0-2.2,0c0-0.1,0-0.1,0-0.2C101,202.2,101.7,202.2,102.5,202.8z"/>
	<path class="st6" d="M247.2,100.5c0,0.7,0,1.4,0,2.2c-0.8,8.8-4.3,16.1-11.4,21.6c-3.7,2.9-8,4.2-12.5,5c-4,0.8-8,0.7-12.1,0.7
		c-44.3,0-88.6,0-132.9,0c-3.4,0-5.1-1.7-5.1-5.1c0-8.4,0-16.8,0-25.2c0-7.1,0-14.2-0.1-21.3c-0.1-3,1.8-5.3,5.3-5.3
		c29.8,0.1,59.7,0,89.5,0c14.3,0,28.6,0,42.8,0c3,0,5.9,0,8.9,0.1c13.8,0.2,25.8,11,27.4,24.7C247,98.8,247.1,99.7,247.2,100.5z"/>
	<path class="st7" d="M100.3,0.2c0.8,0,1.6,0,2.4,0c13.4,1,23.6,9.7,26.5,22.6c0.4,1.8,0.6,3.6,0.6,5.5c0,10.8,0,21.5,0,32.3
		c0,1.8-0.7,3.3-2.4,4.1c-1.5,0.7-3,0.5-4.3-0.6c-1.1-0.9-1.5-2.1-1.5-3.5c0-10.7,0.1-21.4,0-32.1c-0.1-8.2-4-14.3-11.3-18
		c-12.5-6.3-27.5,2-29,15.9c-0.1,1.1-0.2,2.2-0.2,3.2c0,10.4,0,20.9,0,31.3c0,1.9-1,3.3-2.8,3.9c-1.6,0.6-3.3,0-4.4-1.3
		c-0.7-0.8-0.9-1.8-0.9-2.9c0-10.8-0.1-21.6,0-32.4C73.2,14.3,83.2,2.8,97,0.5C98.1,0.4,99.2,0.3,100.3,0.2z"/>
	<path class="st8" d="M102.5,202.8c-0.7,0-1.4,0-2.2,0c-13.8-0.7-23.8-10.4-26.5-21.9c-0.5-2.1-0.8-4.3-0.8-6.4c0-10.7,0-21.4,0-32
		c0-3.3,2.8-5.4,5.6-4.2c1.6,0.7,2.5,2.1,2.5,4.1c0,10.6-0.1,21.2,0,31.8c0.1,8.5,4,14.9,11.7,18.6c12.3,5.9,26.9-2.2,28.6-15.7
		c0.1-1.1,0.2-2.2,0.2-3.3c0-10.5,0-21,0-31.4c0-3.2,2.9-5.2,5.6-4c1.7,0.8,2.5,2.2,2.5,4c0,3.8,0,7.5,0,11.3c0,7.1,0.1,14.2,0,21.2
		c-0.2,12.8-8.8,23.8-21.2,27.1C106.6,202.4,104.5,202.7,102.5,202.8z"/>
	<path class="st6" d="M17.8,52c1.1,0,2.2,0.3,3.2,1c0.3,0.2,0.8,0.4,0.5,0.9s-0.7,0.3-1.1,0c-2.5-1.8-5.6-0.5-6.8,1.6
		c-1.1,2-0.9,4.4,0.7,6.1c1.6,1.7,3.9,2,5.9,0.8c0.1-0.1,0.2-0.1,0.3-0.2c0.3-0.2,0.7-0.5,1,0c0.4,0.5-0.1,0.8-0.4,1.1
		c-1.2,0.9-2.6,1.2-4.1,1c-3.2-0.4-5.6-3.4-5.4-6.6C11.8,54.4,14.4,52,17.8,52z"/>
	<path class="st6" d="M63.8,62.7c-2.2,1.8-4.7,1.8-6.2,0c-1.5-1.7-1.4-4.4,0.3-6c1.3-1.2,2.9-1.4,4.5-0.9c1.5,0.5,2.4,1.6,2.7,3.2
		c0.2,1.2,0.1,2.5,0.1,3.7c0,0.5,0.1,1.2-0.5,1.3C63.8,64.1,63.9,63.3,63.8,62.7z"/>
	<path class="st6" d="M32.7,59.8c0-1.1,0-2.2,0-3.2c0-0.4,0-0.8,0.4-0.9c0.4-0.1,0.7,0.1,0.8,0.5c0.1,0.5,0.4,0.2,0.6,0.1
		c3.4-1.7,6.1-0.1,6.1,3.7c0,1.1,0,2.2,0,3.2c0,0.4-0.1,0.8-0.7,0.8c-0.5,0-0.5-0.4-0.5-0.8c0-1.3,0-2.6,0-3.8c0-1.1-0.4-2-1.4-2.4
		c-1.1-0.5-2.2-0.4-3.2,0.3c-0.6,0.4-0.9,1.1-0.9,1.9c0,1.3,0,2.6,0,4c0,0.5,0,1-0.6,0.9c-0.5,0-0.6-0.5-0.6-0.9
		C32.7,62,32.7,60.9,32.7,59.8z"/>
	<path class="st6" d="M51.4,55.6c1-0.1,1.9,0.3,2.7,1.1c0.3,0.3,0.6,0.6,0.2,1c-0.3,0.3-0.6,0-0.9-0.2c-1.5-1.1-2.9-1.2-4-0.2
		c-1.1,0.9-1.3,2.9-0.5,4.2c0.8,1.4,2.7,1.9,4.3,1c0.4-0.2,0.8-0.6,1.1-0.1c0.4,0.6-0.2,0.8-0.5,1c-1.4,1-3.5,0.8-4.9-0.2
		c-1.4-1.1-1.9-3.1-1.3-4.9C48,56.6,49.5,55.6,51.4,55.6z"/>
	<path class="st6" d="M23.7,57.3c0-1.5,0-3,0-4.4c0-0.4,0-0.9,0.6-0.9s0.5,0.5,0.5,0.9c0,2.7,0,5.4,0,8c0,1,0.1,1.9,1.4,1.9
		c0.3,0,0.5,0.3,0.5,0.6c0,0.4-0.3,0.5-0.7,0.6c-1.1,0.2-2.2-0.8-2.2-2.2C23.6,60.4,23.7,58.9,23.7,57.3L23.7,57.3z"/>
	<path class="st6" d="M28.5,59.7c0-1.1,0-2.2,0-3.3c0-0.4,0.1-0.7,0.6-0.7s0.6,0.3,0.6,0.7c0,2.3,0,4.6,0,6.9c0,0.4-0.1,0.8-0.6,0.8
		s-0.6-0.4-0.6-0.8C28.5,62,28.5,60.9,28.5,59.7z"/>
	<path class="st6" d="M44.7,59.9c0,1.1,0,2.2,0,3.2c0,0.4,0,0.9-0.5,0.9s-0.7-0.4-0.7-0.8c0-2.2,0-4.5,0-6.7c0-0.4,0.1-0.8,0.6-0.8
		c0.6,0,0.6,0.5,0.6,0.9C44.7,57.6,44.7,58.7,44.7,59.9z"/>
	<path class="st6" d="M31.2,52.1c0,0.4-1.8,2.3-2.2,2.3c-0.3,0-0.4-0.1-0.6-0.4c-0.1-0.2-0.1-0.5,0.1-0.7c0.6-0.6,1.1-1.2,1.8-1.8
		C30.7,51.3,31.2,51.6,31.2,52.1z"/>
	<path class="st6" d="M45.1,53.2C45,53.6,44.8,54,44.2,54c-0.5,0-0.8-0.3-0.8-0.8s0.3-0.8,0.8-0.9C44.7,52.3,45,52.7,45.1,53.2z"/>
	<path class="st9" d="M143.8,93.8c-0.3-3.3-3.2-6.2-6.7-6.7c-3.6-0.5-7.1,1.7-8.4,5c-0.4,1-0.5,2-0.5,3.1c0,3.8,0,7.5,0,11.3
		c0,0.3,0,0.6,0,0.8c-0.1,1.2-0.8,2.1-1.9,2c-1,0-1.7-0.8-1.7-2.1c0-3,0-6.1,0-9.1c0-1.4,0.2-2.8-0.2-4.2l0,0c-0.2-3.2-2.7-6-6-6.8
		c-3.4-0.8-6.9,0.8-8.6,3.8c-0.7,1.3-1,2.7-1,4.1c0,3.8,0,7.7,0,11.5c0,0.4,0,0.7,0,1.1c-0.2,1-1,1.7-1.9,1.6
		c-1-0.1-1.6-0.7-1.6-1.7c0-4.8-0.2-9.5,0.1-14.3c0.3-4.3,3.8-8.3,8.2-9.4c4.8-1.3,8.9,0.1,12.1,3.9c0.6,0.7,0.8,0.8,1.5,0
		c4.2-5.5,13.5-6.5,18.8,0.9c2.4-3.3,5.5-5.3,9.7-5.2c4.1,0,7.4,1.8,9.8,5.2c0.6-0.6,1-1.2,1.6-1.7c3.2-3.1,7-4.2,11.3-3
		c4.4,1.2,7.1,4.3,8.2,8.7c0.2,0.9,0.2,1.7,0.2,2.6c0,3.9,0,7.8,0,11.6c0,1.6-0.6,2.5-1.8,2.5s-1.8-0.9-1.8-2.6c0-4,0-8,0-12
		c-0.1-3.9-2.9-7.1-6.8-7.7c-3.8-0.6-7.5,1.8-8.7,5.5c-0.1,0.4-0.2,0.8-0.2,1.2c0.1,0.1,0.1,0.1,0.1,0.1l-0.1,0.1
		c-0.3,0.5-0.2,1-0.2,1.5c0,3.8,0,7.7,0,11.5c0,1.5-0.7,2.4-1.8,2.3c-1.1,0-1.8-0.9-1.8-2.4c0-3.9,0-7.8,0-11.8
		c0-4.6-3.5-8.2-7.9-8.1c-4.5,0-7.9,3.6-7.9,8.2c0,3.9,0,7.8,0,11.8c0,1.5-0.7,2.3-1.8,2.3s-1.8-0.9-1.8-2.3c0-3.9,0-7.8,0-11.6
		C143.9,94.9,144.1,94.3,143.8,93.8L143.8,93.8z"/>
	<path class="st9" d="M214.3,95c-0.3-3.3-3.1-6.5-6.5-7.5c-3.7-1.1-7.7,0.2-10,3.2c-2.7,3.4-2.7,8-0.1,11.5c2.6,3.5,7,4.6,11.2,3
		c0.3-0.1,0.5-0.2,0.8-0.3c1.1-0.4,2-0.1,2.5,0.8c0.4,0.9,0.1,2-1,2.5c-4.2,1.9-8.4,2.1-12.4-0.3c-3.8-2.2-6-5.6-6.5-10
		c0-0.2-0.1-0.5-0.2-0.7c-0.2-0.4-0.2-0.7,0-1.1c0.3-1.7,0.7-3.3,1.4-4.9c2.3-5.8,9-8.1,13.4-7.6c5.4,0.6,10.1,5,11.2,10.4
		c0.3,1.5,0.2,2.9,0.2,4.4c0,2.9,0,5.8,0,8.8c0,1.6-0.6,2.4-1.9,2.4c-1.2,0-1.8-0.8-1.8-2.3c0-3.4,0-6.9,0-10.3
		c0-0.6,0.1-1.1-0.2-1.6C214.2,95.2,214.2,95.1,214.3,95C214.2,95,214.3,95,214.3,95z"/>
	<path class="st10" d="M95,96.6c0-3.4,0-6.9,0-10.3c0-1.6,0.6-2.4,1.8-2.4c1.2,0,1.8,0.8,1.8,2.3c0,6.9,0,13.9,0,20.8
		c0,1.7-1.2,2.7-2.6,2c-0.8-0.4-1.1-1.1-1-2C95,103.7,95,100.1,95,96.6z"/>
	<path class="st10" d="M109.8,124.1c-1.7,1.5-3.5,1.9-5.4,0.9c-1.6-0.8-2.6-2.7-2.4-4.5c0.2-2,1.4-3.5,3.3-4.1
		c2.9-0.9,5.9,1.2,6,4.2c0,1.2,0,2.3,0,3.5c0,0.6,0.3,1.3-0.6,1.4S110,124.7,109.8,124.1z"/>
	<path class="st10" d="M148.7,121.2c-1,0-1.9,0-2.9,0c-0.7,0-0.7,0.2-0.5,0.8c0.5,1.8,2.7,2.7,4.6,1.9c0.2-0.1,0.4-0.2,0.5-0.3
		c0.4-0.3,0.9-0.6,1.2,0c0.4,0.7-0.2,0.9-0.7,1.1c-1.7,1-3.9,0.9-5.4-0.2s-2.2-3.2-1.6-5.3c0.5-1.8,2.1-3.1,3.9-3.2
		c2-0.1,3.6,0.8,4.3,2.6c0.1,0.4,0.2,0.8,0.3,1.2c0.2,0.9-0.1,1.4-1.1,1.3C150.5,121.1,149.6,121.2,148.7,121.2z"/>
	<path class="st10" d="M212.2,120.8c0,2.8-1.9,4.7-4.6,4.7c-2.7,0-4.7-2-4.7-4.7s2-4.7,4.7-4.7C210.2,116.1,212.2,118.1,212.2,120.8
		z"/>
	<path class="st11" d="M168.2,125.5c-1.2,0-2.4-0.3-3.3-1.1c-0.4-0.3-0.7-0.6-0.3-1.1c0.4-0.4,0.8-0.4,1.1,0c1,0.9,2.2,1,3.4,0.8
		c0.7-0.1,1.2-0.4,1.3-1.2c0.1-0.7-0.5-1.1-1.1-1.3c-0.9-0.3-1.8-0.4-2.7-0.7c-1.1-0.4-1.9-1-1.9-2.3s0.8-1.9,2-2.3
		c1.6-0.5,3.1-0.3,4.4,0.9c0.3,0.3,0.7,0.7,0.3,1.1s-0.8,0.3-1.2-0.1c-0.8-0.8-1.8-0.8-2.8-0.7c-0.6,0.1-1.2,0.3-1.3,1.1
		c-0.1,0.7,0.4,1,1,1.2c0.5,0.2,1.1,0.3,1.6,0.4c2.2,0.5,3.2,1.4,3,2.9C171.7,124.5,170.2,125.5,168.2,125.5z"/>
	<path class="st11" d="M187.6,125.5c-1.5,0-2.7-0.3-3.6-1.1c-0.4-0.3-0.6-0.7-0.2-1.1c0.4-0.4,0.8-0.3,1.1,0c1,0.9,2.2,0.9,3.4,0.8
		c0.7-0.1,1.2-0.5,1.3-1.2c0-0.7-0.5-1.1-1.1-1.2c-0.8-0.2-1.7-0.4-2.5-0.7c-1.4-0.4-2-1.2-2-2.4c0-1.1,0.7-2,2.1-2.3
		c1.6-0.4,3.1-0.2,4.3,1c0.3,0.3,0.6,0.6,0.2,1c-0.3,0.3-0.8,0.3-1.1,0c-0.9-0.9-1.9-0.9-3-0.8c-0.6,0.1-1.1,0.4-1.1,1
		s0.3,1,0.9,1.1c0.6,0.2,1.1,0.4,1.7,0.5c0.6,0.1,1.1,0.3,1.6,0.5c0.9,0.4,1.4,1,1.4,2s-0.5,1.7-1.3,2.2
		C189,125.4,188.2,125.6,187.6,125.5z"/>
	<path class="st11" d="M128.3,125.5c-2,0-3.8-1.2-4.4-3.1c-0.7-2,0-4.2,1.6-5.4c1.5-1.1,3.6-1.2,5.2-0.1c0.2,0.2,0.4,0.3,0.6,0.5
		c0.3,0.3,0.6,0.7,0.2,1.1c-0.4,0.4-0.7,0.2-1-0.1c-0.5-0.5-1.1-0.8-1.8-0.9c-1.5-0.2-2.6,0.4-3.2,1.6c-0.7,1.4-0.5,3.1,0.6,4.1
		c0.9,0.9,2.5,1.2,3.8,0.6c0.2-0.1,0.4-0.2,0.5-0.3c0.4-0.2,0.8-0.4,1.1,0c0.4,0.5,0,0.8-0.4,1.1
		C130.2,125.2,129.3,125.5,128.3,125.5z"/>
	<path class="st11" d="M96.8,82.9c-1,0-1.9-0.8-1.9-1.9c0-1,0.8-1.8,1.8-1.8s1.9,0.8,1.9,1.9C98.6,82.1,97.8,82.9,96.8,82.9z"/>
	<path class="st6" d="M94.7,85.7c0,7.3,0,14.6,0,21.9h-0.1C94.6,100.3,94.6,93,94.7,85.7L94.7,85.7z"/>
	<path class="st6" d="M186.7,107.9c0-4.9,0-9.7,0-14.6h0.1c0,4.9,0,9.7,0,14.6C186.8,107.9,186.8,107.9,186.7,107.9z"/>
	<path class="st6" d="M124.3,94c0,4.6,0,9.2,0,13.9c-0.4-0.2-0.2-0.5-0.2-0.7c0-4,0-8.1,0-12.1C124.1,94.8,123.9,94.3,124.3,94
		L124.3,94z"/>
	<path class="st6" d="M167.2,94c0-0.1,0-0.1,0-0.2c0.3,0.2,0.2,0.6,0.2,0.9c0,4.2,0,8.4,0,12.6c0,0.2,0,0.3-0.3,0.4
		C167.2,103.1,167.2,98.6,167.2,94z"/>
	<path class="st6" d="M143.8,93.8c0,4.6,0,9.3,0,13.9c-0.4-0.2-0.3-0.5-0.3-0.7c0-4,0-8.1,0-12.1C143.5,94.5,143.4,94.1,143.8,93.8
		L143.8,93.8z"/>
	<path class="st6" d="M214.3,95c0,0.1,0.1,0.1,0,0.2c0,4.3,0,8.5,0,12.8c-0.1,0-0.2,0-0.3,0c0-2.5,0-5,0-7.5c0-1.4,0-2.9,0-4.3
		C214,95.7,213.9,95.3,214.3,95z"/>
	<path class="st6" d="M192,96c0,0.4,0,0.7,0,1.1c0,0.3-0.1,0.5-0.1,0.8h-0.1c0-0.8,0-1.6,0-2.3h0.1C191.9,95.7,192,95.9,192,96z"/>
	<path class="st9" d="M63.9,59.9c0,1.8-1.3,3.1-3.1,3.1s-3.2-1.5-3.1-3.3c0.1-1.7,1.5-3.1,3.2-3.1C62.6,56.6,63.9,58,63.9,59.9z"/>
	<path class="st6" d="M109.9,120.8c0,2-1.3,3.3-3.3,3.3c-1.8,0-3.2-1.4-3.2-3.3s1.4-3.4,3.3-3.4C108.7,117.5,110,118.9,109.9,120.8z
		"/>
	<path class="st6" d="M145.3,120c0.3-1.5,1.1-2.3,2.4-2.5c1.6-0.2,2.7,0.4,3.2,1.7c0.2,0.5,0.3,0.8-0.5,0.8
		C148.8,119.9,147.1,120,145.3,120z"/>
	<path class="st6" d="M210.7,120.9c0,2-1.3,3.3-3.3,3.3c-1.9,0-3.2-1.4-3.2-3.3c0-2,1.4-3.3,3.3-3.3
		C209.5,117.5,210.7,118.8,210.7,120.9z"/>
</g>
<g class="st0">
	<path class="st12" d="M115.1,44.1c-4.8-0.4-9.1,1.5-13.1,3.9c-4.6,2.7-8.6,6.3-13.1,9.3c-1.8,1.2-3.7,2.5-5.9,2.8
		c-0.7,0.1-1.6,0.5-2.1-0.3c-0.4-0.6,0.1-1.3,0.4-1.9c2.1-5,5.3-9.1,9.4-12.6c9-7.6,19.4-10.8,31.2-10c16.4,1.2,29.8,11.8,34.3,27.4
		c0.1,0.4,0.3,0.7,0,1.2c-2.4-1.5-4.9-3-7.3-4.6c-3.3-2-6.5-4.1-9.8-6.1c-5.7-3.6-11.8-3.9-18.2-2.3c-3.3,0.9-6.6,1.7-9.8,2.6
		c-1.5,0.4-3,0.4-4.5,0.1c-2.2-0.5-2.7-2-1.3-3.8c1.1-1.4,2.5-2.5,4.1-3.2C111.2,45.9,113.1,45.1,115.1,44.1z"/>
	<path class="st12" d="M81.1,84.8c4.4,2.8,8.7,5.4,12.9,8.1c3.4,2.1,6.7,4.3,10.6,5.3c4.7,1.2,9.4,0.3,14-0.9
		c2.7-0.7,5.4-1.6,8.2-2.3c1.3-0.3,2.6-0.2,3.9,0.1c2.4,0.6,2.9,2.1,1.3,4c-1.4,1.7-3.4,2.8-5.4,3.8c-1.4,0.7-2.8,1.3-4.2,2.1
		c2.9,0.4,5.7-0.1,8.3-1.2c4.4-1.9,8.2-4.9,12-7.8c3-2.2,5.9-4.6,9.3-6.1c1.4-0.7,3.3-1.7,4.4-0.6c0.9,0.9-0.5,2.5-1.1,3.7
		c-5.4,10.3-14.1,16.4-25,19.5c-11,3.1-21.7,1.8-31.6-3.8c-9-5-14.7-12.9-17.5-22.8C81,85.5,81.1,85.2,81.1,84.8z"/>
	<path class="st13" d="M221.4,135c0,4.3-0.1,8.7,0,13c0.1,1.7-0.8,2.5-2.2,2.7c-1.9,0.4-3.9,0.4-5.7-0.7c-0.6-0.4-1.1-0.5-1.9-0.1
		c-6.6,3-13-0.6-13.7-7.9c-0.4-3.7-0.3-7.5,2.4-10.5c2.2-2.5,5.2-3.5,8.4-3.8c3.3-0.3,3.3-0.2,3.3-3.4c0-4.6,0-4.6,4.6-4.6
		c4.7,0,4.7,0,4.7,4.6C221.4,127.9,221.4,131.4,221.4,135L221.4,135z"/>
	<path class="st14" d="M0,136.8c0.2-4.2,0.7-8.1,3.7-11c4.2-4,9.3-4.1,14.5-2.5c4.8,1.5,6.9,5.4,7.5,10.1c0.6,4,0.3,8-1.7,11.6
		c-2.6,4.8-8.9,7-15.1,5.4c-5.1-1.3-7.7-4.9-8.7-9.8C0.2,139.1,0.1,137.8,0,136.8z"/>
	<path class="st14" d="M51,129.9c2.6-1.8,5.1-2.6,8-2.2c3.5,0.4,5.6,2.5,5.7,5.9c0.1,5.1,0,10.2,0.1,15.3c0,0.8-0.3,1.3-1.1,1.5
		c-1.8,0.6-3.6,0.8-5.4,0.3c-1.7-0.5-2.8-1.5-2.8-3.5c0.1-2.9,0.1-5.8,0-8.7c-0.1-2.1-1.2-2.9-3.1-2.4c-1,0.3-1.4,0.7-1.4,1.8
		c0.1,3.5,0,7.1,0,10.6c0,1.1-0.4,1.7-1.5,2c-1.6,0.5-3.2,0.5-4.9,0.2c-2.1-0.4-3-1.5-3-3.8c0-8.5,0-17,0-25.5
		c0-0.9,0.2-1.3,1.2-1.4c2.3-0.3,4.5-0.3,6.8,0c1.1,0.1,1.3,0.6,1.3,1.6C51,124.3,51,126.9,51,129.9z"/>
	<path class="st15" d="M133.1,150.9c-2.8,0-5.4-0.3-7.7-1.4c-2.7-1.3-4-3.9-3.2-6.5c0.4-1.2,0.8-1.8,2.3-1c2.8,1.4,5.8,1.9,9,1.7
		c1-0.1,2-0.2,2.2-1.3c0.3-1.2-0.8-1.6-1.7-1.9c-1.9-0.7-3.8-1.3-5.7-2c-4.4-1.8-6-4.3-5.7-8.7c0.2-3.4,2.6-6,6.6-7.1
		c3.7-1,7.4-0.9,10.9,0.5c3.2,1.2,4.7,4,3.5,6.8c-0.5,1.2-1,1.7-2.4,0.9c-2.2-1.4-4.7-1.7-7.3-1.5c-0.9,0.1-2.1,0.2-2.2,1.3
		c-0.1,1,0.9,1.4,1.7,1.7c1.9,0.7,3.8,1.3,5.7,2c3.2,1.2,5.5,3.1,5.7,6.7c0.2,4-1.7,6.7-5.1,8.5C137.7,150.7,135.3,151,133.1,150.9z
		"/>
	<path class="st16" d="M195.2,139.2c0,3.2,0,6.4,0,9.6c0,1-0.3,1.4-1.3,1.8c-2.9,1-4.8,0.5-7-2.1c-0.7-0.7-1,0-1.4,0.2
		c-1.8,1.3-3.7,2.1-5.9,2.1c-4.2,0.1-6.7-2.1-7.2-6.3c-0.5-4.5-0.2-9.1-0.2-13.6c0-3.1,0-3.1,3.2-3.3c6.1-0.3,6.1-0.3,6.1,5.6
		c0,2.3,0,4.5,0,6.8c0,1.5,0.6,2.4,2.3,2.3c1.5-0.1,2.2-0.7,2.1-2.4c-0.2-3.5,0-6.9-0.1-10.4c0-1.3,0.4-2,1.8-1.9c1.9,0,3.9,0,5.9,0
		c1.2,0,1.8,0.5,1.7,1.8C195.2,132.8,195.2,136,195.2,139.2z"/>
	<path class="st13" d="M238.5,141.3c-1.3,0-2.6,0-4,0c-0.4,0-0.8-0.2-1,0.2c-0.2,0.5,0.2,0.8,0.6,1.1c2.1,1.6,4.6,1.5,7.1,1.2
		c1.2-0.1,2.5-0.5,3.6-0.9c1.2-0.4,1.6,0.1,1.9,1.1c0.5,2.1-0.6,4.7-2.9,5.5c-5.6,2.1-11.2,2.3-16.4-1.4c-3.6-2.6-4.8-8-3.3-13.1
		c1.2-4.1,4.8-6.9,9.3-7.3c4.6-0.4,8.8,0.1,12,3.9c1.6,1.9,2,4,1.7,6.4c-0.3,2-1.8,3.1-4.2,3.3C241.4,141.4,239.9,141.3,238.5,141.3
		L238.5,141.3z"/>
	<path class="st16" d="M160.2,147.5c-1.5,1.8-3.3,2.9-5.6,3.2c-3.6,0.5-6.8-1.3-7.6-4.3c-0.9-3.5,0.7-6.7,4.1-8.1
		c2.3-1,4.6-1.1,7-1.1c0.5,0,1.3,0.2,1.4-0.6c0.1-0.6-0.3-1.1-0.7-1.5c-0.6-0.6-1.4-0.8-2.3-0.9c-2.4-0.2-4.8,0-7,1.1
		c-1.6,0.8-2,0-2.4-1.2c-0.7-2.1,0.2-3.8,2.3-5c2-1.1,4.3-1.4,6.6-1.5c2.7-0.1,5.4,0,8,0.8c3,1,4.6,3.2,4.7,6.1
		c0.2,4.8,0.1,9.6,0.1,14.3c0,0.6-0.1,1.1-0.7,1.4C165,151.9,161.6,150.8,160.2,147.5z"/>
	<path class="st14" d="M80.8,147.4c-2.4,2.7-5.1,3.8-8.5,3.2c-2.7-0.5-4.4-2.3-4.9-4.9c-0.5-2.7,0.6-5.3,2.8-6.7
		c2.4-1.6,5.2-1.7,8-1.9c0.6,0,1.8,0.5,1.9-0.7c0.1-0.9-0.6-1.6-1.5-1.9c-2.9-0.9-5.8-0.5-8.4,0.8c-1.5,0.7-2,0-2.4-1.2
		c-0.6-1.8,0.1-3.6,1.8-4.7c1.3-0.9,2.8-1.3,4.2-1.5c3.3-0.5,6.5-0.5,9.8,0.2c3.6,0.9,5.7,3.3,5.8,7c0.1,4.6,0.1,9.2,0.1,13.8
		c0,0.5,0.1,0.9-0.5,1.3C86.1,152,82.1,150.7,80.8,147.4z"/>
	<path class="st17" d="M101.9,132.6c1.3-2.7,2.6-4.9,5.8-4.9c2.1,0,3.5,1,3.8,3.1c0.3,1.9-0.1,3.7-0.9,5.5c-0.3,0.7-0.7,0.8-1.5,0.7
		c-4.8-0.6-7,1.3-7.1,6.1c0,1.7-0.1,3.4,0,5.1c0,1.1-0.4,1.6-1.3,2c-1.8,0.7-3.7,0.7-5.5,0.1c-2-0.6-2.4-2.2-2.4-4c0-4,0-7.9,0-11.9
		c0-0.9,0-1.8,0-2.6c0-4,0-4,3.9-4c1.5,0,3.3-0.4,4.4,0.4C102.5,129.1,101.2,130.9,101.9,132.6z"/>
	<path class="st14" d="M38.2,135.1c0,4.3-0.1,8.7,0,13c0,1.3-0.4,1.9-1.6,2.3c-1.5,0.5-3,0.5-4.5,0.2c-2.1-0.4-3.2-1.6-3.2-3.6
		c-0.1-8.5,0-17.1-0.1-25.6c0-0.8,0.2-1.2,1.1-1.3c2.3-0.3,4.5-0.3,6.8,0c1.2,0.2,1.4,0.5,1.4,1.6C38.1,126.2,38.2,130.7,38.2,135.1
		L38.2,135.1z"/>
	<path class="st18" d="M110.4,61.3c-0.8-0.6-1.5-1.5-2.9-2c4.1-2.1,7.8-3.5,12.4-3.1c5.3,0.5,9.5,2.7,13,6.4
		c9.3,9.8,5,26.5-7.9,30.7c-8.4,2.8-17.4-0.1-22.4-7.3c-0.2-0.3-0.3-0.7-0.4-1c0.8-0.5,0.8-0.6,1.4-0.1c0.9,0.7,1.8,1.4,2.7,2.1
		c0.9,0.7,1.8,1.3,3,1.3c0.5,0,1,0.1,1.4,0.5c1.4,1.6,3.3,1.5,5.1,1.3c2.2-0.2,4.5-0.4,6.7-0.8c2.3-0.4,4.2-1.9,5.8-3.6
		c0.4-0.5,0.7-1,1.3-1.3c1.7-0.3,2.4-1.6,3-3c2.2-2.7,2.4-6.1,3.5-9.2c0.2-0.5-0.5-0.6-0.5-1.1c-0.1-0.4-0.3-0.9-0.4-1.3
		c0.1-1.7-0.4-3-2-4c-1.6-1.1-2.4-3.1-4-4.3c-1.8-1.2-3.4-3.2-5.7-3.1c-3.5,0.2-7.2-0.1-10.3,2.1c-0.4,0.2-0.8,0.3-1.2,0.4
		C111.3,60.7,111,61.5,110.4,61.3z"/>
	<path class="st19" d="M108.3,68.8c0.5-0.4,1-0.7,1.5-1.1c1.2-0.1,2.2-0.4,2.7-1.7c0.2-0.8,0.8-0.9,1.5-0.6c1,0.5,1.9,0.7,2.5-0.6
		c0.2-0.5,0.8-0.6,1.3-0.6c5-0.7,9.7,2.2,11.3,7c1.2,3.5-0.2,7.6-3.6,10.4c-1.6,1.3-3.4,2.2-5.3,2.8c-4.6,1.5-8.1-0.6-11.4-3.3
		c-1.4-1.2-1.8-2.9-1.7-4.8c0.1-1.1,0.4-2.2,0.4-3.4c0-0.4,0.1-1,0.5-1.2C110.2,70.9,109.1,69.9,108.3,68.8z"/>
	<path class="st20" d="M108.3,68.8c0.7,0,1,0.6,1.5,1c1.1,1,0.5,1.6-0.5,1.8c-1.3,0.2-1.5,0.9-1.4,2c0,0.5-0.1,1-0.2,1.5
		c-0.7,3.2,0.6,5.2,3.3,7.1c2.9,1.9,5.7,2.8,9,1.8c4.9-1.5,9-5,9.1-10.6c0-1.6-0.7-3.1-1.6-4.4c-1.7-2.2-3.3-4.6-6.8-4
		c-0.7,0.1-1.5-0.3-2.2-0.3c-0.9-0.1-1.7-0.2-1.9,1.2c-0.1,1.1-1.2,0.7-1.8,0.6c-0.5-0.1-0.9-0.6-1.5-1c-0.6,0.9-0.5,2.4-1.9,2.5
		c-0.5,0-1.2,0.8-1.5-0.3c0.4-0.5,0.7-1.1,1.1-1.6c1.2-0.2,0.5-1.5,1.1-2.1c1.2-1.5,3-1.8,4.7-1.9c1.2-0.1,2.5-0.2,3.7-0.1
		c7.3,0.3,12.7,5.8,11.1,13.9c-1.1,5.9-7.4,10.7-12.9,11.5s-11.8-2.8-13.9-8c-0.7-1.9-0.5-3.8-0.1-5.8c0.1-0.5,0.6-1-0.1-1.5
		c-0.9-1-0.2-1.7,0.5-2.4c0-0.1,0.1-0.3,0.2-0.4C106.3,69.1,107.3,69,108.3,68.8z"/>
	<path class="st21" d="M105.2,69.5c0.4,0.1,1.1,0.4,0.3,0.7c-1,0.3-1,0.9-1,1.6c0.4,0.5,0.1,0.8-0.2,1.2c-0.6,0.9-0.5,1.9-0.6,2.9
		c-0.3,4.2,1.8,7.3,4.7,9.8c1.7,1.4,4.1,2.4,6.5,2.2c2.3-0.2,4.5-0.3,6.8-0.5c2.3-0.3,4.2-1.4,5.6-3.2c1.5-1.8,3.5-3,4.6-5.2
		c1.7-3.4,1.4-6.9,0.5-10.3c-0.4-1.6-1.9-2.8-2.3-4.5c-0.1-0.7-0.9-0.5-1.5-0.6c-1.9-0.2-3.4-1.1-4.2-3c0.9-0.9,2-0.5,2.9-0.1
		c0.7,0.3,1.3,0.8,2.1,0.7c2,1.5,2.8,4.1,5.3,5.3c1.4,0.6,0.6,2.3,0.7,3.4c0.2,0.3-1,1.2,0.4,1.1c1.2,0.5,1,0.8,0.3,1.8
		s-0.5,2.5-0.8,3.8c-0.4,1.9-1.5,3.4-2.5,5c-0.9,1.1-1.7,2.3-3,3c-1.4,1.8-3,3.3-4.9,4.4c-1.4,0.8-2.8,0.9-4.3,1
		c-2.2,0.3-4.5,0.7-6.7,0.6c-1.3-0.1-2.7-0.1-3.4-1.5c-0.1-0.2-0.4-0.4-0.6-0.4c-3,0.2-4.6-2.1-6.6-3.7c-0.3-0.3-0.6-0.7-1.1-0.1
		c-1.4-2-2.1-4.3-2.5-6.7c0.7-0.7,0.4-1.5,0.4-2.3c0.1-0.8,0-1.6,0-2.4C100.1,69.2,100.8,68.6,105.2,69.5z"/>
	<path class="st22" d="M190,117.9c-0.2,1.3-0.6,2.4-1.6,3.2c-1.8,1.6-4,2.6-6.1,3.7c-1.2,0.6-1.7-0.3-2.3-1
		c-0.6-0.8-1.2-1.6-0.2-2.5c2.2-2.1,4.5-4.2,6.7-6.4c0.7-0.7,1.3-0.5,2,0.1C189.4,115.8,189.7,116.8,190,117.9z"/>
	<path class="st23" d="M176.4,165.3c0.9-2.6,1.8-4.7,2.5-6.9c0.3-0.7,0.5-1.3,1.4-1.1s0.5,0.9,0.6,1.3c0,2.3,0,4.7,0,7
		c0,0.4,0.1,1-0.5,1.1c-0.7,0.1-0.7-0.6-0.7-1.1c0-1.7,0-3.5-0.3-5.3c-0.7,1.8-1.3,3.6-2,5.4c-0.2,0.5-0.2,1-0.9,1.1s-0.9-0.5-1.1-1
		c-0.7-1.8-1.4-3.5-2.4-5.2c0,1.7,0,3.5,0,5.2c0,0.4,0.2,1-0.5,1c-0.6,0-0.7-0.5-0.7-1c0-2.5,0-5,0-7.5c0-0.5,0-0.9,0.7-0.9
		c0.6,0,1,0.1,1.3,0.8C174.5,160.3,175.4,162.6,176.4,165.3z"/>
	<path class="st24" d="M33.8,159.9c0,2,0,3.9,0,5.8c0,0.4,0.2,1-0.5,1c-0.6,0-0.7-0.4-0.7-0.9c0-2.6,0-5.2,0-7.7
		c0-0.4,0.1-0.7,0.6-0.8c0.6,0,0.9,0.4,1.2,0.8c1.2,2,2.4,4,3.9,6.5c0-2.4,0-4.2,0-6.1c0-0.4-0.2-1.1,0.5-1.2c1-0.1,0.7,0.7,0.7,1.2
		c0,2.2,0,4.4,0,6.6c0,0.5,0.3,1.3-0.4,1.5c-0.9,0.3-1.2-0.5-1.5-1.1c-1-1.6-1.9-3.1-2.8-4.7C34.5,160.5,34.5,160,33.8,159.9z"/>
	<path class="st25" d="M127.3,161.9c-0.1,1.8-0.2,3.4-1.8,4.4c-2,1.2-4.4,0.4-5.3-1.7c-0.5-1.3-0.6-2.7-0.3-4.1
		c0.5-2.3,1.7-3.4,3.9-3.3c2.1,0.1,3.3,1.3,3.5,3.6C127.2,161.2,127.3,161.6,127.3,161.9z"/>
	<path class="st25" d="M193.9,161.9c-0.1,1.8-0.2,3.4-1.8,4.4c-2,1.2-4.4,0.4-5.3-1.7c-0.5-1.3-0.6-2.7-0.3-4.1
		c0.5-2.3,1.7-3.4,3.9-3.3c2.1,0.1,3.3,1.3,3.5,3.6C193.8,161.2,193.9,161.6,193.9,161.9z"/>
	<path class="st26" d="M215.5,161.8c0,3.3-1.3,4.9-3.8,4.9c-1.6,0-2.8-0.6-3.4-2.2c-0.6-1.4-0.7-2.9-0.3-4.4c0.5-2.1,1.8-3.1,3.9-3
		c1.9,0.1,3.1,1.3,3.4,3.4C215.4,161,215.4,161.5,215.5,161.8z"/>
	<path class="st27" d="M92,161.6c0-0.4-0.1-0.9,0-1.3c0.2-1-0.5-2.2,0.5-3c0.9-0.7,4.1,0.1,5,0.9c1.3,1.2,1.7,4.2,0.8,6.2
		c-0.7,1.7-2.1,2.4-4.3,2.3c-1.4-0.1-2.1-0.7-1.9-2.1C92.1,163.6,92,162.6,92,161.6z"/>
	<path class="st28" d="M224.5,162.5c1-0.8,2-1.1,2.9-0.3c0.6,0.5,0,3.6-0.6,4c-1.4,1-4.2,0.5-5.4-0.8c-1.6-1.8-1.6-5.2,0-7
		c1.3-1.4,3.8-1.8,5.3-0.7c0.3,0.2,0.6,0.5,0.5,1c-0.7,0.5-1.1-0.3-1.6-0.4c-1.9-0.4-3.3,0.3-3.9,2c-0.7,1.9,0,4.4,1.4,5
		c1,0.4,2.4,1,3-0.3C226.7,163.9,226.4,162.6,224.5,162.5z"/>
	<path class="st29" d="M246.1,166c0,0.4,0,0.6-0.3,0.7c-0.4,0.1-0.8-0.1-0.9-0.5c-0.1-1.5-1.2-1.3-2.2-1.3s-2.1-0.2-2.2,1.3
		c0,0.4-0.4,0.6-0.9,0.5c-0.6-0.1-0.3-0.6-0.2-0.9c0.8-2.6,1.6-5.3,2.5-7.9c0.4-1.1,1.3-1,1.6-0.2
		C244.5,160.5,245.3,163.3,246.1,166z"/>
	<path class="st30" d="M69.8,166c0.1,0.3,0.1,0.6-0.4,0.7c-0.3,0-0.6-0.1-0.8-0.4c-1.5-2-3.3-2.1-4.5-0.1c-0.2,0.4-0.5,0.6-0.9,0.5
		c-0.8-0.2-0.3-0.7-0.2-1c0.8-2.5,1.5-5,2.3-7.5c0.1-0.4,0.2-0.9,0.8-0.9c0.5,0,0.9,0,1.1,0.5C68.1,160.5,68.9,163.3,69.8,166z"/>
	<path class="st31" d="M103.7,161.7c0-0.3,0-0.6,0-0.9c0-3.7,0.4-4.1,4.2-3.5c0.3,0,0.7,0,0.7,0.4c0,0.5-0.3,0.6-0.7,0.7
		c-0.4,0-0.8,0.1-1.1,0c-1.2-0.1-1.8,0-1.8,1.5s0.7,1.6,1.8,1.6c0.5,0,1.4-0.4,1.4,0.4c0,0.8-0.9,0.6-1.4,0.5
		c-1.6-0.2-1.8,0.5-1.9,1.9c0,1.7,1.1,1.3,2,1.4c0.4,0,0.8,0,1.1,0c0.3,0,0.5,0.1,0.5,0.4c0,0.4-0.2,0.6-0.5,0.6
		c-1.1,0-2.3,0.1-3.4,0c-0.8-0.1-0.9-0.8-0.9-1.4C103.7,164,103.7,162.8,103.7,161.7z"/>
	<path class="st32" d="M74,164.9c1.4,0.5,2.4,0.9,3.4,0.9c0.9,0,1.6-0.4,1.9-1.3c0.3-0.9-0.4-1.4-1.1-1.7c-0.8-0.4-1.7-0.7-2.6-1.2
		c-1-0.5-1.4-1.4-1.2-2.5c0.2-1.1,1-1.6,1.9-1.8c2-0.5,3.3,0,3.9,1.6c-1-0.3-1.9-0.6-2.8-0.7c-0.7-0.1-1.6,0.1-1.8,1
		c-0.3,0.9,0.3,1.4,1,1.8c0.8,0.4,1.6,0.6,2.4,1.1c1.2,0.6,1.8,1.6,1.3,2.9c-0.4,1.2-1.4,1.8-2.6,1.8C76.5,166.7,74.9,167,74,164.9z
		"/>
	<path class="st33" d="M10.9,159c-1.7-0.8-3.4-1.5-4.8,0.3c-1,1.2-0.9,4.1,0,5.3c1.4,1.8,3.1,0.9,5.2,0.1c-1,2.1-2.5,2-3.9,1.9
		c-2.1-0.2-3.3-2.2-3.3-5c0.1-2.4,1.4-4.2,3.5-4.5C9.6,157,10.6,157.5,10.9,159z"/>
	<path class="st34" d="M58.2,165.1c-0.4,1.4-1.4,1.9-3.5,1.6c-2-0.3-3.3-2.3-3.2-5c0-2.5,1.5-4.3,3.6-4.5c1.9-0.2,2.8,0.3,3.1,1.8
		c-1.7-0.8-3.3-1.5-4.7,0.3c-1,1.2-1,4.1,0,5.4C54.3,165.8,55.5,166,58.2,165.1z"/>
	<path class="st35" d="M143.9,162.4c0-0.6,0-1.3,0-1.9c0-1.2,0.2-2.5-1.7-2.2c-0.3,0.1-0.7-0.1-0.7-0.5c0-0.5,0.3-0.6,0.7-0.6
		c1.6,0,3.1,0,4.7,0c0.3,0,0.7,0,0.7,0.5s-0.4,0.7-0.8,0.6c-1.8-0.3-1.7,0.9-1.7,2.1c0,1.7,0,3.4,0,5.1c0,0.5,0.2,1.2-0.5,1.2
		c-0.8,0-0.8-0.7-0.8-1.2C143.9,164.4,143.9,163.4,143.9,162.4L143.9,162.4z"/>
	<path class="st36" d="M132.5,161.8c0-0.4,0-0.8,0-1.1c0-3.8,0-3.8,3.8-3.5c0.4,0,1-0.2,0.9,0.5c0,0.4-0.5,0.5-0.9,0.5
		s-0.8,0.1-1.1,0c-1.1-0.1-1.6,0.2-1.5,1.4c0,1.1,0.2,1.8,1.5,1.6c0.3-0.1,0.6,0,0.9,0c0.3,0,0.7,0.1,0.7,0.5s-0.3,0.6-0.6,0.6
		c-2.8-0.5-2.6,1.3-2.5,3.1c0,0.4,0.2,1-0.4,1.1c-0.7,0.1-0.8-0.5-0.8-1C132.5,164.4,132.5,163.1,132.5,161.8L132.5,161.8z"/>
	<path class="st37" d="M105.2,69.5c-4.6,0-4.5-0.5-4.5,4.7c0,1.1,0,2.3,0,3.4c0,0.7-0.2,1.1-1,0.7c-0.7-3.9-0.2-7.4,1.5-11.1
		c1.2,0.9,2.4,2,4,2.1C105.2,69.4,105.2,69.4,105.2,69.5z"/>
	<path class="st38" d="M17.5,161.4c0,0.6,0.1,1.3,0,1.9c-0.2,1.7,0.2,2.7,2.2,2.3c0.4-0.1,1.2-0.2,1.1,0.6c0,0.7-0.8,0.5-1.2,0.5
		c-3.3,0.2-3.3,0.1-3.3-3.1c0-1.8,0-3.5,0-5.3c0-0.5-0.2-1.1,0.6-1.1c0.8,0,0.6,0.7,0.6,1.1C17.6,159.4,17.5,160.4,17.5,161.4z"/>
	<path class="st39" d="M162.8,161.6c0-0.8-0.1-1.6,0-2.5c0.1-0.7-0.5-1.8,0.5-1.9c1.2-0.1,0.6,1.2,0.6,1.8c0.1,1.5,0.2,3,0,4.5
		c-0.1,1.5,0.3,2.2,1.9,2c0.5-0.1,1.4-0.3,1.4,0.5s-0.8,0.6-1.3,0.6c-3.2,0.1-3.2,0.1-3.2-3C162.7,163,162.7,162.3,162.8,161.6
		C162.7,161.6,162.7,161.6,162.8,161.6z"/>
	<path class="st39" d="M199.1,161.7c0-1.1,0-2.3,0-3.4c0-0.5-0.2-1.1,0.6-1.1s0.5,0.7,0.5,1.2c0,1.7,0.1,3.4,0,5.1
		c-0.1,1.6,0.2,2.4,2,2.1c0.5-0.1,1.4-0.3,1.3,0.6c0,0.7-0.9,0.5-1.4,0.5c-3.1,0.1-3.1,0.1-3.1-3.1
		C199.1,163,199.1,162.4,199.1,161.7L199.1,161.7z"/>
	<path class="st40" d="M152.6,161.4c0.3-1,0.5-1.9,0.8-2.9c0.2-0.5,0.1-1.3,1.1-1.3s1,0.8,1.2,1.4c0.4,1.4,0.8,2.9,1.3,4.3
		c-0.3,0.5-0.2,1.5-1.2,1c-0.5-1.1-0.7-2.2-1.1-3.4c-0.1-0.3-0.1-0.7-0.1-1.4c-0.1,2-0.5,3.5-1.2,5c-0.9,0.2-1-0.2-0.9-1
		C152.5,162.6,152.9,162,152.6,161.4z"/>
	<path class="st41" d="M155.9,164c0.4-0.4,0.7-0.7,1.1-1.1c0.3,1,0.6,1.9,0.9,2.9c0.1,0.3,0.4,0.8-0.2,0.9c-0.4,0.1-0.7-0.1-0.9-0.5
		c-1.1-1.9-3.3-1.9-4.4,0c-0.3,0.5-0.6,0.7-1,0.5c-0.5-0.2-0.1-0.6,0-1c0.4-1.4,0.9-2.9,1.3-4.3c0.5,0.6,0.4,1.2,0.1,1.8
		c-0.2,0.6,0,0.8,0.6,0.8C154.1,163.4,155,163.4,155.9,164z"/>
	<path class="st42" d="M25.8,161.9c0-1.2,0-2.4,0-3.6c0-0.5-0.1-1.1,0.7-1.1c0.7,0,0.6,0.5,0.6,1c0,2.5,0,5,0,7.5
		c0,0.4,0.1,1-0.6,0.9c-0.6-0.1-0.6-0.5-0.6-1C25.8,164.4,25.8,163.2,25.8,161.9z"/>
	<path class="st43" d="M46.3,162.1c0,1.3,0,2.5,0,3.8c0,0.4,0,0.8-0.5,0.8s-0.7-0.3-0.7-0.7c0-2.7,0-5.4,0-8.1
		c0-0.4,0.2-0.6,0.6-0.6c0.5,0,0.7,0.3,0.7,0.7C46.3,159.3,46.3,160.7,46.3,162.1L46.3,162.1z"/>
	<path class="st44" d="M234.4,162.1c0,1.2,0,2.4,0,3.6c0,0.4,0.1,1-0.6,0.9c-0.4,0-0.6-0.4-0.6-0.8c0-2.6,0-5.3,0-7.9
		c0-0.4,0.1-0.7,0.6-0.7s0.6,0.4,0.6,0.8C234.4,159.4,234.4,160.8,234.4,162.1L234.4,162.1z"/>
	<path class="st45" d="M112,64.2c0,0.5,0.1,1.1-0.1,1.6c-0.2,0.8-0.6,0.8-1.1,0.2c0.7-1.7,0.4-3.3-0.4-4.8c0.4-0.2,0.6-0.9,1.2-0.4
		C113,61.8,112.7,63,112,64.2z"/>
	<path class="st46" d="M26.4,156.5c-0.6,0.1-1-0.1-0.8-0.4c0.5-0.8,1.4-1.2,2.2-1.5c0.2-0.1,0.5,0.2,0.4,0.4
		C28.1,156.2,27,156.2,26.4,156.5z"/>
	<path class="st47" d="M212,139.2c0,1.2,0,2.4,0,3.6c0,1-0.5,1.3-1.4,1.2c-1.5-0.1-2.6-0.7-3.2-2.2c-1.4-3.2,0.1-6.8,3-7.3
		c1.1-0.2,1.8,0,1.7,1.4C212,137,212,138.1,212,139.2z"/>
	<path class="st48" d="M9.5,136.2c-0.1-1.5,0.3-3,0.8-4.5c0.4-1.2,1.1-2.1,2.5-2.2c1.5-0.1,2.4,0.7,2.9,2c1.2,3.2,1.2,6.4,0.2,9.6
		c-0.4,1.3-1.2,2.4-2.8,2.4c-1.7,0-2.4-1.2-2.9-2.6C9.6,139.5,9.5,137.9,9.5,136.2z"/>
	<path class="st49" d="M235.7,137.2c-0.8-0.5-2.3,0.7-2.6-0.9c-0.2-1.1,1.5-2.4,2.9-2.5c1.4,0,2.8,1.2,2.5,2.5
		C238.2,138,236.6,136.7,235.7,137.2z"/>
	<path class="st50" d="M157.9,141.3c0.7,0.2,1.9-0.5,1.8,1c-0.1,1.9-1.7,1.8-2.9,2c-0.9,0.2-2-0.2-1.9-1.3
		C155,140.9,156.8,141.5,157.9,141.3z"/>
	<path class="st51" d="M77.4,144.4c-1-0.2-2-0.2-2-1.4c-0.1-1.1,0.7-1.5,1.7-1.6c0.6-0.1,1.1-0.1,1.7-0.1c0.5,0,1.3-0.5,1.5,0.5
		c0.1,0.7,0.1,1.5-0.8,1.9C78.7,143.9,78,144.2,77.4,144.4z"/>
	<path class="st52" d="M112,64.2c-0.1-1.1,0.2-2.3-0.4-3.4c0.3-0.4,0.7-0.4,1.1-0.4c0.8-0.5,1,0.4,1.8,0.6c0-0.7-0.3-1.8,0.9-1.6
		c2.8,0.4,5.6-0.1,8.4,0.7c0.2,0.1,0.5,0.2,0.6,0.4c1.4,1.4,2.7,3,5.1,2.6c0.9-0.1,1.2,0.8,1.3,1.5c0.1,0.9,0.5,1.6,1.1,2.2
		c1.6,1.8,1.3,4.2,1.5,6.3c0.2,3.8-1,7.3-4.3,9.7c-1.2,0.9-1.9,2.3-3.1,3.2c-2,1.6-4.3,2.1-6.7,2c-2.4-0.1-4.7,0.7-7.1,0.1
		c-3.9-1-6.5-3.7-8.3-6.9c-1.2-2.2-1-5.1-0.7-7.7c0.1-0.8,1.1-0.8,1.1-1.7c1.1,0,1.6-0.1,0.9,1.4c-1.3,3-0.6,5.9,1.3,8.6
		c2.1,3.1,5.2,4,8.6,4.7c4.3,0.9,7.7-0.7,11-3.4c3.5-2.8,5.1-6.3,5.1-10.8c0-6.5-7.4-11.1-12.3-9.8c-1.5,0.4-3.2,0-4.8,0.5
		C113.4,63.4,112.9,64.2,112,64.2z"/>
	<path class="st45" d="M124.5,60.5c-3.1-0.6-6.4-0.1-9.8-0.9c0.5,0.9,1.7,1.5,0.3,2.2c-1,0.5-1.3-0.2-1.6-1
		c-0.1-0.2-0.4-0.2-0.6-0.3c1.2-1.8,3.2-1.6,4.9-2.2c1.6-0.6,3.5,0.3,5.3-0.6c0.6-0.3,2,0.3,2.7,0.9c1.1,1,2.6,1.5,3.7,2.6
		c-0.4,0.5-0.9,0.7-1.4,0.2C127,60.5,125.8,60.4,124.5,60.5z"/>
	<path class="st45" d="M129.8,84.7c0.9-1.2,1.9-2.2,3-3C132.2,83,131.7,84.6,129.8,84.7z"/>
	<path class="st45" d="M135.9,71.1c-0.6,0.2-0.1,1.1-0.9,1.3c-0.4-1-0.2-1.8,0.6-2.5C135.6,70.3,135.7,70.7,135.9,71.1z"/>
	<path class="st53" d="M111.7,75.6c0-4.7,4.9-8.7,9.3-7.5c2.4,0.7,4.1,2.6,4.5,5.3c0.3,2.1-0.5,3.9-2.2,5.2c-1.6,1.2-3.5,1.4-5.3,2
		c-2.7,1-3.9-0.4-5.5-1.8C111.4,77.9,111.7,76.7,111.7,75.6z"/>
	<path class="st54" d="M126,161.9c-0.1,0.8,0,1.5-0.3,2.1c-0.4,1.1-1.3,1.7-2.4,1.7c-1.2,0-1.8-0.8-2.1-1.8c-0.4-1.2-0.4-2.5,0-3.7
		c0.3-1.1,1-1.9,2.3-1.9c1.2,0,1.9,0.6,2.4,1.7C126,160.6,126,161.3,126,161.9z"/>
	<path class="st54" d="M192.6,161.9c0.1,1,0,1.9-0.6,2.7c-1,1.4-3.1,1.5-3.9,0c-0.9-1.7-0.9-3.5,0-5.2c0.8-1.6,3.1-1.5,4,0
		C192.6,160.2,192.7,161,192.6,161.9z"/>
	<path class="st55" d="M214.2,161.9c0,0.8-0.1,1.5-0.4,2.3c-0.5,1.1-1.3,1.6-2.4,1.5c-1,0-1.8-0.7-2.1-1.6c-0.4-1.2-0.4-2.3-0.2-3.5
		c0.3-1.4,1-2.4,2.5-2.3c1.5,0,2.2,1.1,2.4,2.4C214.2,161.1,214.2,161.6,214.2,161.9z"/>
	<path class="st56" d="M93.2,162c0-0.6,0-1.3,0-1.9c0-1.9,0.8-2.4,2.5-1.6c1.6,0.7,1.8,2.2,1.7,3.7c-0.1,1.6-0.4,3-2.3,3.5
		c-1.3,0.3-2.1,0.2-2-1.4C93.3,163.5,93.2,162.7,93.2,162L93.2,162z"/>
	<path class="st57" d="M242.7,158.7c0.5,1.6,0.9,2.8,1.2,4c0.1,0.4,0.4,1,0,1.2c-0.7,0.4-1.6,0.3-2.4,0c-0.6-0.2-0.1-0.8-0.1-1.1
		C241.8,161.5,242.2,160.3,242.7,158.7z"/>
	<path class="st58" d="M66.4,158.6c0.4,1.4,0.7,2.5,1,3.5c0.6,1.9,0.4,2.1-1.7,1.9c-0.9-0.1-0.9-0.4-0.7-1.1
		C65.5,161.6,65.9,160.3,66.4,158.6z"/>
	<path class="st59" d="M155.9,164c-0.9,0-1.7,0-2.6,0c-0.3-1.8,0.8-3.3,1.2-5C155,160.7,155.9,162.2,155.9,164z"/>
</g>
<rect x="-2720.6" y="-1255.6" class="st60" width="5669.3" height="2834.6"/>
<g>
	<g>
		<path class="st61" d="M41,108.3c4.1,2.5,8.2,5.1,12.4,7.5c8.2,4.5,16.6,8.4,25.4,11.4c8.8,3.1,17.8,5.3,27,6.6s18.5,1.6,27.7,1
			c9.4-0.6,18.6-2.2,27.6-4.8c10-2.9,19.6-7,28.7-12c8.3-4.6,16.1-10,23.4-15.9c7.2-5.8,14-12.1,20.4-18.8c0.4,0,0.5,0.1,0.3,0.5
			c-6,8.2-12.5,15.9-19.5,23.3c-5.4,5.6-11.2,10.9-17.3,15.7c-6.9,5.4-14.3,10-22.2,13.7c-5.2,2.5-10.7,4.4-16.3,6
			c-10.3,2.8-20.8,3.8-31.4,3.3c-11.8-0.5-23.5-2.5-34.8-6.1c-11.6-3.7-22.5-8.9-32.6-15.7c-6.4-4.3-12.5-9-18.1-14.2
			c-0.4-0.4-0.8-0.7-1.2-1.1C40.5,108.1,40.7,108,41,108.3z"/>
		<path class="st62" d="M40.2,57.4c4.1-0.1,7.7,1.1,11.2,2.6c0.6,0.3,0.8,0.7,0.7,1.3c-0.3,1.6-0.8,3.1-1.9,4.4
			c-0.6,0.7-1,0.8-1.9,0.5c-2.7-1.2-5.6-2.2-8.6-2.1c-0.5,0-1,0.1-1.5,0.2c-1.3,0.4-2.3,1.2-2.5,2.7c-0.1,1.4,0.8,2.4,2,2.9
			c2.6,1.2,5.3,2.3,7.9,3.5c2.3,1.1,4.4,2.5,5.8,4.6c3.3,5.1,1.3,12.2-4.2,14.8c-5.1,2.4-10.4,2.2-15.6,0.5c-1.6-0.5-3-1.3-4.5-2
			c-0.9-0.4-1.1-1-0.8-1.9c0.5-1.6,1.3-3,2.4-4.3c0.4-0.5,0.8-0.6,1.4-0.2c3.2,1.7,6.5,3.1,10.2,3c1.9-0.1,3.4-1,3.9-2.5
			c0.4-1.5-0.2-3.1-1.9-4.1c-2.1-1.3-4.5-2-6.8-3c-1.9-0.8-3.6-1.7-5.1-3.1c-4.8-4.3-3.9-11.9,1.8-15.5C34.6,58,37.5,57.3,40.2,57.4
			z"/>
		<path class="st62" d="M188.6,80.7c-0.1,2.4-0.3,4.6-1.2,6.8c-2.2,5.4-7,7.4-12,7c-6.5-0.5-9.9-4.9-10.7-10.7
			c-0.5-3.2-0.3-6.3,0.8-9.4c1.5-4.3,5.1-7,9.6-7.3c2.6-0.2,5.1,0.1,7.4,1.4c3.8,2.1,5.3,5.6,5.8,9.7
			C188.5,79,188.5,79.9,188.6,80.7z"/>
		<path class="st62" d="M55.9,80.9c0.2-2.4,0.3-4.5,1.2-6.6c2.1-5.1,6-7.5,11.5-7.3c6.6,0.2,10.3,4.5,11.3,10.6c0.5,3.1,0.2,6-0.7,9
			c-1.7,5.8-6.7,8.3-12.3,7.9c-6.6-0.5-10.1-5.1-10.7-11C56,82.5,56,81.6,55.9,80.9z"/>
		<path class="st62" d="M202.4,67c2.9,0,5.7,0.8,8.5,1.8c0.6,0.2,0.9,0.5,0.8,1.2c-0.1,1.6-0.7,3-1.7,4.3c-0.6,0.7-1.1,0.2-1.7,0
			c-2-0.9-4.1-1.5-6.3-1.5c-1.5,0-2.3,0.9-2,2.1c0.2,0.8,0.9,1.1,1.5,1.4c1.2,0.5,2.5,0.9,3.7,1.4c1.3,0.5,2.5,1,3.6,1.8
			c2.6,2,3.6,4.6,3.2,7.8c-0.4,3-2.2,5-5,6.1c-5.2,2-10.3,1.2-15.2-1.1c-0.5-0.2-0.7-0.6-0.6-1.1c0.3-1.5,0.9-2.8,1.7-4.1
			c0.5-0.8,1-0.3,1.5-0.1c1.7,0.9,3.5,1.5,5.5,1.7c0.6,0.1,1.3,0,1.9-0.1c0.9-0.1,1.7-0.5,1.9-1.5s-0.4-1.7-1.2-2.1
			c-1.2-0.6-2.5-1-3.7-1.5c-1.1-0.4-2.2-0.9-3.2-1.5c-5-3.3-4.9-10.4,0.3-13.5C197.8,67.3,200,67,202.4,67z"/>
		<path class="st62" d="M151.4,67c3.3,0,6.2,0.7,9,1.8c0.6,0.2,0.9,0.5,0.8,1.2c-0.1,1.6-0.7,3-1.6,4.3c-0.5,0.8-1.1,0.4-1.7,0.1
			c-1.8-0.9-3.7-1.4-5.7-1.5c-0.3,0-0.6,0-0.9,0c-0.8,0-1.5,0.4-1.7,1.2c-0.2,0.9,0.1,1.7,1,2c1.4,0.6,2.8,1.1,4.3,1.7
			c1.8,0.7,3.5,1.5,4.8,2.9c3.5,3.9,2.9,11.6-4.8,13.4c-4.6,1-9,0.4-13.2-1.6c-0.7-0.3-0.9-0.7-0.7-1.5c0.3-1.2,0.7-2.3,1.3-3.4
			c0.5-0.9,1-1.1,1.9-0.6c1.6,0.9,3.4,1.4,5.3,1.6c0.7,0.1,1.3,0,2-0.1c0.9-0.1,1.7-0.5,1.9-1.5s-0.4-1.7-1.3-2.1
			c-1.3-0.6-2.6-1.1-3.9-1.6c-2.5-1-4.8-2.3-5.9-4.9c-1.5-3.2-0.1-7.8,2.9-9.7C147.1,67.4,149.3,66.9,151.4,67z"/>
		<path class="st62" d="M92.3,72c1-1.9,2.2-3.5,4.2-4.2c1.7-0.6,3.4-0.4,5.1-0.1c0.5,0.1,0.6,0.4,0.6,0.8c-0.2,2.2-0.7,4.3-1.7,6.3
			c-0.2,0.5-0.5,0.4-1,0.3c-1.7-0.4-3.3-0.6-4.8,0.7c-0.9,0.8-1.5,1.6-1.4,2.9c0.1,4.6,0,9.3,0,13.9c0,0.9-0.2,1.1-1.1,1.2
			c-2,0.2-3.9,0.2-5.9,0c-0.9-0.1-1.2-0.4-1.2-1.3c0-4.9,0-9.8,0-14.6c0-2.2,0.1-4.5-1.7-6.3c-0.2-0.2-0.2-0.4-0.1-0.7
			c0.4-1.3,1.1-2.4,2-3.4c0.3-0.3,0.6-0.2,1-0.2c2.4,0.5,4.4,1.6,5.6,4C92,71.5,92.1,71.7,92.3,72z"/>
		<path class="st62" d="M113.1,72c0.9-2,2.1-3.4,4-4.2c1.8-0.7,3.6-0.4,5.3-0.1c0.4,0.1,0.6,0.3,0.5,0.7c-0.2,2.3-0.8,4.4-1.7,6.4
			c-0.2,0.5-0.5,0.4-1,0.3c-2.1-0.6-4-0.4-5.5,1.3c-0.5,0.5-0.7,1.1-0.7,1.9c0,4.8,0,9.5,0,14.3c0,0.9-0.3,1.1-1.1,1.2
			c-2,0.2-3.9,0.2-5.9,0c-0.9-0.1-1.1-0.4-1.1-1.2c0-4.9,0-9.9,0-14.8c0-2.2,0-4.4-1.7-6.2c-0.1-0.2-0.2-0.3-0.1-0.5
			c0.4-1.4,1.1-2.6,2.1-3.6c0.3-0.3,0.7-0.2,1-0.1c2.3,0.5,4.1,1.5,5.3,3.6C112.7,71.3,112.8,71.6,113.1,72z"/>
		<path class="st62" d="M8,85.2c0-0.9-0.1-1.7,0-2.6c0.1-1.1-0.3-1.4-1.4-1.3c-1.8,0.1-3.6,0-5.4,0c-0.7,0-1-0.2-1.1-1
			c-0.2-1.5-0.2-3,0-4.5c0.1-0.7,0.4-1,1.1-1c1.9,0.1,3.9,0,5.8,0.1c0.8,0,1-0.3,1-1c-0.1-2-0.1-4.1-0.1-6.1c0-0.7,0.2-0.9,0.9-1
			c1.7-0.2,3.3-0.2,4.9,0c1,0.1,1.1,0.5,1.1,1.3c-0.1,1.9,0,3.9-0.1,5.8c0,0.9,0.2,1.1,1.1,1.1c1.9-0.1,3.8,0,5.7-0.1
			c0.7,0,1,0.2,1,0.9c0.2,1.5,0.2,3,0,4.6c-0.1,0.7-0.3,0.9-1,0.9c-1.9,0-3.9,0-5.8,0c-0.9,0-1.1,0.3-1,1.1c0.1,2,0,3.9,0.1,5.9
			c0,0.7-0.2,1.1-0.9,1.2c-1.7,0.1-3.4,0.1-5.1,0c-0.7-0.1-1-0.4-1-1.2C8,87.3,7.9,86.3,8,85.2L8,85.2z"/>
		<path class="st62" d="M136.7,82.6c0,3.8,0,7,0,10.1c0,0.8-0.2,1.1-1.1,1.1c-2,0.2-3.9,0.2-5.9,0c-1-0.1-1.3-0.3-1.3-1.3
			c0-5.3,0-10.6,0-15.8c0-2.4-0.5-2.9-2.8-3.3c-0.4-0.1-0.5-0.2-0.6-0.6c-0.3-1.5-0.2-3,0-4.5c0-0.2,0.1-0.5,0.4-0.5
			c2.4-0.3,4.9-0.6,7.3,0c2.3,0.6,3.5,2.3,3.8,4.6C136.9,76,136.6,79.7,136.7,82.6z"/>
		<path class="st63" d="M247,79.4c0,1.2,0,2.4,0,3.6c-0.1,1.5-0.5,3-1.1,4.7c-0.2-0.8-0.3-1.4-0.4-1.9c-1.2-5.1-4.5-8.4-9-10.8
			c-2.8-1.5-5.7-2.5-8.7-3.2c-0.2-0.1-0.4-0.2-0.8-0.3c1.2-0.8,2.4-0.9,3.5-1.1c3.5-0.6,6.9-0.5,10.2,0.9
			C244.3,72.7,246.4,75.5,247,79.4z"/>
		<path class="st62" d="M131.3,64c-3.8,0-4.6-0.8-4.3-4.6c0.2-2.1,0.4-2.3,2.4-2.7c1.6-0.3,3.1-0.3,4.7,0.1c0.8,0.2,1.3,0.7,1.5,1.6
			c0.3,1.1,0.3,2.3,0.1,3.4c-0.2,1.6-0.9,2-2.9,2.2C132.3,64,131.8,64,131.3,64z"/>
		<path class="st64" d="M127.8,103c0,1.9,0,3.8,0,5.6c0,0.3,0.2,0.9-0.4,0.9c-0.7,0-0.6-0.5-0.6-0.9c0-2.2,0-4.3,0-6.5
			c0-0.4-0.3-0.9,0.4-1c0.5-0.1,0.9,0.1,1.2,0.6c1,1.7,2.1,3.3,3.1,5c0.2,0.3,0.3,0.6,0.6,0.7c0.4-0.3,0.2-0.7,0.2-1.1
			c0-1.5,0-3,0-4.5c0-0.3-0.1-0.7,0.5-0.8c0.5,0,0.6,0.3,0.6,0.7c0,2.4,0,4.7,0,7.1c0,0.3,0,0.6-0.3,0.7c-0.4,0.1-0.8,0-1.1-0.3
			c-0.5-0.8-1-1.5-1.5-2.3c-0.8-1.3-1.7-2.7-2.5-4C128,103,127.9,103,127.8,103z"/>
		<path class="st65" d="M160.6,109.7c-2.6,0-4.4-1.8-4.3-4.4c0-2.5,1.8-4.3,4.3-4.3s4.4,1.9,4.4,4.4
			C165,107.9,163.2,109.7,160.6,109.7z"/>
		<path class="st66" d="M121,109.7c-2.6,0-4.3-1.8-4.3-4.4c0-2.5,1.8-4.3,4.3-4.3s4.4,1.9,4.4,4.4
			C125.4,107.9,123.5,109.7,121,109.7z"/>
		<path class="st66" d="M107.4,105.4c0,2.6-1.8,4.4-4.4,4.4c-2.5,0-4.4-1.9-4.4-4.4c0-2.4,1.9-4.3,4.4-4.3
			C105.6,101,107.4,102.8,107.4,105.4z"/>
		<path class="st67" d="M145.2,109.7c-2.6,0-4.4-1.8-4.4-4.4c0-2.5,1.9-4.4,4.4-4.4s4.3,1.9,4.3,4.4
			C149.6,107.9,147.8,109.7,145.2,109.7z"/>
		<path class="st68" d="M74.4,107.4c0-1.8,0-3.6,0-5.4c0-0.4-0.2-1,0.5-0.9c0.7,0,0.4,0.5,0.4,0.9c0,2.2,0,4.4,0,6.6
			c0,0.3,0.2,0.8-0.4,0.9c-0.5,0.1-0.8-0.2-1.1-0.6c-1.2-1.9-2.4-3.8-3.5-5.7c-0.1-0.2-0.2-0.3-0.5-0.7c0,2.2,0,4.1,0,6
			c0,0.4,0.2,1-0.5,1s-0.4-0.6-0.4-1c0-2.2,0-4.3,0-6.5c0-0.3-0.2-0.8,0.4-0.9c0.5-0.1,0.9,0,1.2,0.5c1.1,1.8,2.2,3.5,3.3,5.3
			C74,107.1,74,107.4,74.4,107.4z"/>
		<path class="st65" d="M172.4,105.1c0.1,0,0.2,0,0.2,0c1.9,0,2.3,0.6,1.5,2.4c-0.6,1.3-1.7,2.1-3.3,2.2c-1.9,0.2-3.4-0.5-4.4-2.1
			s-0.7-4,0.7-5.4s3.8-1.7,5.5-0.7c0.3,0.2,0.9,0.3,0.6,0.8c-0.3,0.6-0.7,0.3-1.1,0.1c-1.5-0.8-3.3-0.6-4.3,0.6
			c-1,1-1.1,2.9-0.4,4.2c0.7,1.3,2.4,1.9,3.9,1.5c0.5-0.1,1-0.4,1.3-0.8c0.4-0.5,0.9-1.1,0.7-1.7c-0.2-0.4-0.9-0.1-1.4-0.2
			s-1.5,0.5-1.6-0.4c0-1,1-0.3,1.6-0.5C172.1,105.1,172.3,105.1,172.4,105.1z"/>
		<path class="st65" d="M108.8,105.3c0-1.1,0-2.3,0-3.4c0-0.4,0-0.8,0.6-0.8c0.9,0.1,1.9,0,2.8,0.1c2.3,0.4,3.5,1.9,3.5,4.2
			c0,2.4-1.4,3.8-3.7,4.1c-3.2,0.4-3.2,0.4-3.2-2.8C108.8,106.2,108.8,105.8,108.8,105.3z"/>
		<path class="st66" d="M94.8,109.6c-0.6,0-0.6-0.5-0.7-0.9c-0.2-1.2-0.9-1.5-2-1.4c-0.3,0-0.6,0.1-0.9,0c-1-0.2-1.6,0.3-1.8,1.2
			c-0.1,0.3-0.2,0.5-0.3,0.8c-0.2,0.4-0.5,0.3-0.8,0.2c-0.5-0.1-0.2-0.5-0.1-0.7c0.9-2.4,1.8-4.8,2.7-7.1c0.2-0.4,0.4-0.6,0.9-0.6
			c0.4,0,0.6,0.2,0.8,0.6c0.9,2.4,1.8,4.8,2.8,7.2C95.5,109.5,95.4,109.6,94.8,109.6z"/>
		<path class="st69" d="M194.1,109.2c0,0.3-0.1,0.3-0.3,0.3c-0.5,0.1-0.7-0.1-0.9-0.6c-0.2-0.6-0.2-1.5-0.8-1.6
			c-1-0.2-2.1-0.1-3.2-0.1c-0.3,0-0.4,0.3-0.5,0.6c-0.1,0.4-0.3,0.9-0.5,1.3s-0.6,0.4-0.9,0.3c-0.4-0.1-0.2-0.4-0.1-0.7
			c0.9-2.4,1.8-4.7,2.7-7.1c0.2-0.4,0.4-0.6,0.8-0.6c0.4,0,0.7,0.1,0.8,0.5c0.9,2.5,1.8,4.9,2.7,7.4
			C194,109.1,194,109.2,194.1,109.2z"/>
		<path class="st70" d="M55.4,109.7c-2,0-3.5-0.9-4.2-2.6s-0.3-3.7,1-4.9c1.2-1.2,3.3-1.6,4.9-0.8c0.3,0.1,0.6,0.3,0.8,0.5
			c0.3,0.2,0.5,0.4,0.2,0.8s-0.5,0.3-0.8,0c-1.1-0.9-2.4-0.9-3.7-0.2c-1.2,0.6-1.6,1.7-1.6,3s0.5,2.4,1.7,3c1.3,0.6,2.5,0.5,3.7-0.3
			c0.3-0.2,0.5-0.7,0.9-0.2c0.5,0.6,0,0.8-0.3,1C57.2,109.5,56.3,109.8,55.4,109.7z"/>
		<path class="st71" d="M84,109.7c-2.1,0-3.7-1.1-4.3-2.9c-0.6-1.8,0-3.8,1.5-5c1.4-1.1,3.6-1.2,5-0.2c0.3,0.2,0.9,0.3,0.6,0.9
			c-0.3,0.5-0.7,0.2-1.1,0c-1.4-0.9-3.3-0.7-4.3,0.5c-1.1,1.3-1.1,3.5,0,4.7s2.9,1.4,4.3,0.6c0.2-0.1,0.3-0.2,0.5-0.3
			c0.3-0.3,0.6-0.2,0.8,0.1c0.3,0.3,0.1,0.6-0.2,0.8C86,109.4,85,109.8,84,109.7z"/>
		<path class="st71" d="M182.6,109.7c-2,0-3.5-1-4.1-2.7c-0.7-1.8-0.2-3.8,1.1-5c1.3-1.1,3.4-1.4,5-0.6c0.2,0.1,0.4,0.2,0.6,0.4
			c0.2,0.2,0.6,0.4,0.2,0.8c-0.3,0.4-0.5,0.3-0.9,0.1c-1.5-0.9-3-0.9-4.2,0.1c-1.1,0.9-1.4,2.5-0.9,4c0.7,2,3.2,2.7,5.1,1.5
			c0.4-0.2,0.7-0.8,1.1-0.1c0.3,0.6-0.3,0.7-0.6,0.9C184.4,109.6,183.5,109.8,182.6,109.7z"/>
		<path class="st72" d="M60,105.3c0-1.1,0-2.3,0-3.4c0-0.4,0-0.8,0.6-0.8c0.5,0,0.5,0.4,0.5,0.7c0,1.9,0,3.8,0,5.8
			c0,0.8,0.2,1.1,1,1c0.7-0.1,1.4,0,2.1,0c0.4,0,0.6,0.1,0.6,0.5s-0.3,0.4-0.6,0.4c-1.2,0-2.4,0-3.7,0c-0.6,0-0.6-0.4-0.6-0.8
			C60,107.6,60,106.5,60,105.3z"/>
		<path class="st69" d="M137,105.8c0-0.6,0-1.1,0-1.7c0-1.9,0-1.9-1.8-2.1c-0.4,0-0.6-0.1-0.6-0.5c0-0.5,0.4-0.4,0.7-0.4
			c1.5,0,3,0,4.5,0c0.4,0,0.6,0,0.6,0.5s-0.3,0.4-0.7,0.5c-1.7,0.2-1.7,0.2-1.7,2c0,1.6,0,3.2,0,4.7c0,0.3,0.2,0.8-0.4,0.8
			c-0.6,0-0.5-0.4-0.6-0.8C137,107.8,137,106.8,137,105.8z"/>
		<path class="st66" d="M150.9,105.7c0-1.4,0-2.5,0-3.6c0-0.4-0.3-0.9,0.5-1c0.8,0,0.5,0.6,0.5,0.9c0,1.9,0,3.8,0,5.7
			c0,0.7,0.2,1,0.9,0.9c0.7,0,1.3,0,2,0c0.3,0,0.8-0.1,0.7,0.5c0,0.4-0.4,0.4-0.7,0.4c-0.1,0-0.2,0-0.2,0c-1.2-0.1-2.9,0.5-3.5-0.2
			C150.4,108.4,151.1,106.8,150.9,105.7z"/>
		<path class="st73" d="M67.1,105.3c0,1.1,0,2.3,0,3.4c0,0.4,0.1,0.8-0.5,0.9c-0.6,0-0.6-0.4-0.6-0.8c0-2.3,0-4.6,0-7
			c0-0.4,0-0.7,0.5-0.7c0.6,0,0.6,0.4,0.6,0.8C67.1,103,67.1,104.2,67.1,105.3z"/>
		<path class="st74" d="M176.9,105.4c0,1.2,0,2.4,0,3.5c0,0.3,0,0.6-0.5,0.7c-0.5,0-0.5-0.3-0.5-0.7c0-2.4,0-4.7,0-7.1
			c0-0.4-0.1-0.7,0.5-0.7s0.5,0.4,0.5,0.7C176.9,103,176.9,104.2,176.9,105.4z"/>
		<path class="st75" d="M77.2,105.3c0-1.1,0-2.3,0-3.4c0-0.4,0-0.7,0.5-0.7s0.5,0.3,0.5,0.7c0,2.4,0,4.7,0,7.1
			c0,0.4-0.1,0.7-0.6,0.7c-0.4,0-0.5-0.3-0.5-0.7C77.2,107.7,77.2,106.5,77.2,105.3z"/>
		<path class="st76" d="M67.8,99.2c-0.4,0.4-0.3,1.2-1.1,1.2c-0.2,0-0.5-0.1-0.4-0.4c0.2-0.5,0.2-1.2,1-1.2
			C67.5,98.8,67.7,98.9,67.8,99.2z"/>
		<path class="st77" d="M233.9,83.6c0-0.2-0.1-0.4-0.3-0.5c0.6-0.9,1.5-1.6,2.3-2.4C235.4,81.8,234.8,82.8,233.9,83.6z"/>
		<path class="st78" d="M161.8,99.2c-0.3,0.4-0.4,1.1-1.1,1.2c-0.3,0-0.4-0.2-0.3-0.5c0.2-0.5,0.2-1.1,1-1.1
			C161.6,98.9,161.9,98.8,161.8,99.2z"/>
		<path class="st79" d="M41,108.3c-0.2,0-0.3,0.1-0.4,0.2c-0.4-0.3-0.7-0.7-1.1-1C40.1,107.5,40.6,107.8,41,108.3z"/>
		<path class="st80" d="M172.8,80.6c-0.1-1.7,0-3.4,0.5-5.1c0.7-2,2-2.8,3.9-2.5c1.2,0.2,2,0.8,2.3,1.9c1.1,3.8,1.1,7.6,0,11.4
			c-0.7,2.4-3.6,2.5-5,1.5c-1-0.8-1.3-2-1.5-3.1C172.8,83.4,172.7,82,172.8,80.6z"/>
		<path class="st80" d="M71.6,80.7c0,1.8,0,3.5-0.5,5.2s-1.6,2.6-3.2,2.6s-2.7-0.7-3.1-2.5c-0.8-3.4-0.9-6.8-0.1-10.2
			c0.3-1.2,0.9-2.3,2.2-2.7c2-0.6,3.6,0.3,4.2,2.3C71.6,77.2,71.6,78.9,71.6,80.7z"/>
		<path class="st80" d="M160.6,108.8c-2,0-3.3-1.4-3.3-3.4s1.4-3.4,3.3-3.4c2,0,3.4,1.5,3.4,3.5C164,107.4,162.6,108.8,160.6,108.8z
			"/>
		<path class="st80" d="M121.1,108.8c-2,0-3.3-1.3-3.4-3.3c0-2.1,1.4-3.5,3.3-3.5s3.3,1.5,3.3,3.4
			C124.4,107.4,123,108.7,121.1,108.8z"/>
		<path class="st80" d="M103,108.8c-2,0-3.2-1.4-3.2-3.4s1.4-3.4,3.3-3.4s3.3,1.5,3.3,3.4C106.4,107.4,105,108.8,103,108.8z"/>
		<path class="st81" d="M145.2,108.8c-1.9,0-3.4-1.4-3.4-3.3c0-2,1.5-3.5,3.4-3.5c1.8,0,3.3,1.6,3.3,3.5
			C148.5,107.3,147.1,108.8,145.2,108.8z"/>
		<path class="st82" d="M109.8,105.4c0-0.7,0.1-1.5,0-2.2c-0.1-0.9,0.3-1,1.1-1c2.5,0,3.7,1.1,3.7,3.4s-2,3.8-4.3,3.2
			c-0.4-0.1-0.5-0.4-0.5-0.7C109.8,107.1,109.8,106.2,109.8,105.4z"/>
		<path class="st83" d="M91.8,102.4c0.5,1.3,0.9,2.3,1.3,3.3c0.1,0.3,0.1,0.6-0.4,0.6h-0.1c-2.3,0.3-2.4,0.2-1.6-2
			C91.2,103.8,91.4,103.2,91.8,102.4z"/>
		<path class="st84" d="M190.4,102.3c0.5,1.3,0.9,2.3,1.3,3.4c0.2,0.5,0,0.6-0.5,0.6c-2.3,0.2-2.3,0.1-1.6-1.9
			C189.9,103.8,190.1,103.2,190.4,102.3z"/>
	</g>
</g>
<g>
	<g>
		<path class="st85" d="M0.2,224.6c-0.1,0-0.2,0.1-0.2-0.1c0-0.3,0-0.5,0-0.8C0,141.9,0,60.2,0-21.6c0-0.3-0.2-0.7,0.2-0.9
			c0.1,0.1,0.2,0.2,0.2,0.3c0.2,0.3,0.2,0.6,0.2,0.9c0,0.5,0,0.9,0,1.4c0,80.6,0,161.2,0,241.8c0,0.8,0.1,1.5-0.2,2.3
			C0.4,224.4,0.3,224.5,0.2,224.6z"/>
		<path class="st86" d="M247-22.5c0.1,0,0.2-0.1,0.2,0.1c0,0.3,0,0.5,0,0.8c0,81.8,0,163.5,0,245.3c0,0.3,0.2,0.7-0.2,0.9
			c-0.1-0.1-0.2-0.2-0.2-0.3c-0.2-0.3-0.2-0.6-0.2-0.9c0-0.5,0-0.9,0-1.4c0-80.6,0-161.2,0-241.8c0-0.8-0.1-1.5,0.2-2.3
			C246.8-22.3,246.9-22.4,247-22.5z"/>
		<path class="st87" d="M247-22.5c0,0.1,0,0.1,0,0.2c-0.2,0.3-0.6,0.4-0.9,0.4c-0.5,0-1,0-1.4,0c-80.6,0-161.3,0-241.9,0
			c-0.8,0-1.7,0.3-2.4-0.4c0-0.1,0-0.1,0-0.2C82.5-22.5,164.7-22.5,247-22.5z"/>
		<path class="st88" d="M247,224.3c0,0.1,0,0.1,0,0.2c-82.3,0-164.5,0-246.8,0c0-0.1,0-0.1,0-0.2c0.3-0.3,0.6-0.4,1-0.4
			c0.5,0,1,0,1.4,0c80.6,0,161.3,0,241.9,0C245.4,224,246.2,223.7,247,224.3z"/>
		<path class="st89" d="M247,224.3c-0.7,0-1.4,0-2,0c-81.2,0-162.4,0-243.6,0c-0.4,0-0.7,0-1.1,0c0-0.7,0-1.4,0-2
			c0-81,0-162.1,0-243.1c0-0.5,0-1,0-1.4c1.3,0,2.6,0,4,0c80.5,0,161.1,0,241.6,0c0.4,0,0.8,0,1.2,0c0,0.4,0,0.8,0,1.3
			c0,81.4,0,162.9,0,244.3C247,223.6,247,224,247,224.3z"/>
		<path class="st80" d="M111.7,87c0.9-0.8,1.7-1.6,2.5-2.3c3.9-3.4,8.5-5.1,13.7-5.2c2.1,0,4.1,0.1,6.1,0.6c3.8,1,6.9,3,9.1,6.3
			c0.4,0.6,0.7,0.7,1.2,0.1c3.2-3.4,7-5.9,11.7-6.7c4.6-0.8,9.2-0.5,13.6,1.5c4.6,2.2,7.3,5.8,7.9,10.9c0.2,1.9,0.4,3.8,0.4,5.7
			c0,8.6,0,17.3,0,25.9c0,2.1-0.4,4.2-2.1,5.7c-2.2,2.1-4.9,2.4-7.7,1.5c-2.7-0.9-4.1-3-4.5-5.7c-0.1-0.9-0.2-1.9-0.2-2.8
			c0-7.8,0-15.6,0-23.5c0-1.5-0.1-3-0.5-4.5c-1.1-4.1-3.7-5.4-7.6-5.2c-3.6,0.2-6.4,2-8.2,5.1c-1.1,1.7-1.3,3.7-1.5,5.7
			c-0.5,7.6-0.1,15.2-0.3,22.9c0,1-0.1,2-0.3,3c-0.8,4.1-4.4,5.9-8.3,5.3c-3.9-0.7-5.7-3.3-5.8-7.9c0-7.1,0-14.2,0-21.2
			c0-2.3-0.1-4.5-0.4-6.7c-0.7-5.1-3.8-6.4-8.1-6.1c-1.1,0.1-2.3,0.3-3.4,0.6c-3,1-4.5,3.3-5.3,6.1c-0.8,2.6-1.1,5.2-1.2,7.9
			c-0.1,6.5,0,13.1,0,19.6c0,1-0.1,2.1-0.4,3c-1.1,3.9-4.5,5.3-8.1,4.7c-3.5-0.6-5.5-3-5.7-6.6c0-0.6-0.1-1.2-0.1-1.7
			c0-12,0-24.1,0-36.1c0-1,0.1-1.9,0.3-2.9c0.7-2.8,2.7-4.4,5.8-4.7c3.1-0.2,6.3,1.4,7,4.9C111.7,85.1,111.7,86,111.7,87z"/>
		<path class="st80" d="M71.1,105.3c0-6.5-0.1-13.1,0-19.6c0.1-4.5,3.8-6.9,7.8-6.3c3.9,0.6,6,3,6,7.2c0,12.4,0,24.8,0,37.2
			c0,3-0.9,5.6-3.9,7c-4.2,1.9-9.8,0.1-10-5.9C70.9,118.4,71.1,111.9,71.1,105.3z"/>
		<path class="st90" d="M95.4,73.2c0.4-2,0.4-3.9,0.4-5.9c0-1.3-0.1-2.5-0.4-3.7c-0.1-0.8-0.5-1.1-1.3-1c-2.5,0.1-4.9-0.5-6.9-2.2
			c-3.2-2.7-3.5-7.8-0.6-10.9c4.2-4.6,13.8-4.3,16.3,3.7c1.2,3.7,0.5,7.1-1,10.5c-1.5,3.4-3.6,6.4-5.9,9.2
			C95.9,73,95.8,73.2,95.4,73.2z"/>
		<path class="st80" d="M78.1,59.2c1,0,2,0.1,3,0.4c4.2,1.4,6,4.2,5.6,8.8c-0.3,3.4-3.3,6.2-7.1,6.7c-2.8,0.3-5.4-0.1-7.7-1.8
			c-3.9-2.9-3.9-8.9,0-12C73.8,59.8,75.7,59.2,78.1,59.2z"/>
		<path class="st91" d="M152.4,139.2c0,2,0,3.9,0,5.9c0,0.7-0.1,1-0.9,0.9c-1.7,0-1.7,0-1.7-1.7c0-2.4,0-4.8,0-7.2
			c0-0.7,0.1-1,0.9-0.9c1.1,0.1,2.4-0.4,3.2,0.2c0.7,0.6,0.7,1.9,1.1,2.9c0.3,1,0.7,2.1,1,3.1c0.4-0.1,0.3-0.4,0.4-0.7
			c0.6-1.6,1.1-3.2,1.6-4.8c0.2-0.5,0.4-0.8,1-0.7c0.9,0.1,1.7,0,2.6,0c0.5,0,0.7,0.1,0.7,0.6c0,2.9,0,5.7,0,8.6
			c0,0.5-0.1,0.6-0.6,0.7c-2,0.1-2,0.1-1.9-1.9c0-1.8,0-3.5-0.1-5.3c-0.6,1.8-1.2,3.5-1.8,5.3c0,0.1-0.1,0.2-0.1,0.4
			c-0.5,1.5-1.1,1.9-2.6,1.5c-0.4-0.1-0.4-0.4-0.5-0.7c-0.6-2-1.3-4.1-1.9-6.1C152.5,139.2,152.4,139.2,152.4,139.2z"/>
		<path class="st92" d="M78,139.5c0,2,0,3.8,0,5.6c0,0.7-0.1,1-0.9,0.9c-1.6-0.1-1.6,0-1.6-1.6c0-2.5,0-5,0-7.5
			c0-0.6,0.2-0.7,0.8-0.8c1.9-0.3,3.1,0.3,3.7,2.2c0.5,1.4,1.3,2.7,2,4.1c0.3-0.2,0.2-0.5,0.2-0.7c0-1.6,0-3.3,0-4.9
			c0-0.5,0.1-0.7,0.7-0.7c1.7-0.1,1.7-0.1,1.7,1.7c0,2.5,0,5,0,7.4c0,0.6-0.2,0.8-0.8,0.8c-2.5,0-2.5,0.1-3.6-2.2
			C79.6,142.4,78.8,141.1,78,139.5z"/>
		<path class="st93" d="M139,146.2c-3.1,0-4.9-1.9-4.9-5.1c0-3.2,1.9-5.1,5-5.1c3.2,0,5,1.9,5,5.2
			C143.9,144.4,142.1,146.2,139,146.2z"/>
		<path class="st94" d="M116,139.8c0-1,0-2,0-3c0-0.5,0.1-0.7,0.7-0.7c2-0.1,2-0.1,2,1.9c0,1.5,0,3,0.1,4.5c0.1,1.2,0.6,1.7,1.6,1.7
			c0.9,0,1.5-0.5,1.7-1.6c0.3-1.8,0.1-3.7,0.1-5.5c0-0.8,0.2-1,1-1c1.6,0.1,1.6,0,1.6,1.6c0,1.7,0,3.4-0.1,5.1
			c-0.1,1.7-1,2.7-2.6,3.1c-1,0.3-2,0.3-3,0.1c-1.9-0.4-2.9-1.6-3-3.6C116,141.6,116,140.7,116,139.8z"/>
		<path class="st93" d="M168.1,146c1-1.6,1.9-3.1,2.8-4.6c0.3-0.4,0.3-0.7,0-1.2c-0.8-1.3-1.6-2.6-2.5-4.1c1,0,1.9,0,2.8,0
			c0.4,0,0.4,0.3,0.6,0.6c0.4,0.8,0.8,1.6,1.3,2.6c0.5-0.9,0.9-1.7,1.3-2.5c0.3-0.6,0.6-0.8,1.2-0.8c0.6,0.1,1.3,0,2.1,0
			c-0.9,1.5-1.7,2.8-2.5,4c-0.3,0.5-0.3,0.8,0,1.3c0.9,1.4,1.8,2.9,2.8,4.5c-1.1,0-2,0-2.9,0c-0.4,0-0.5-0.3-0.6-0.5
			c-0.5-0.9-1-1.9-1.5-2.9c-0.7,0.8-1.1,1.7-1.5,2.6c-0.3,0.7-0.7,0.9-1.5,0.9C169.5,145.9,168.9,146,168.1,146z"/>
		<path class="st95" d="M89.2,146.2c-0.7,0-1.4-0.1-2.1-0.2c-0.4-0.1-0.6-0.2-0.5-0.7c0.1-0.5-0.1-1.1,0.2-1.4
			c0.4-0.4,0.8,0.2,1.3,0.2c0.7,0.1,1.4,0.3,2.1,0.1c0.4-0.1,0.8-0.2,0.9-0.7c0.1-0.5-0.2-0.9-0.7-1c-0.6-0.2-1.2-0.4-1.8-0.6
			c-1.5-0.6-2.2-1.4-2.1-2.8c0-1.3,0.8-2.2,2.3-2.7c1.3-0.4,2.6-0.3,3.9-0.1c0.6,0.1,0.8,1,0.5,1.8c-0.2,0.6-0.6,0.1-0.8,0.1
			c-0.8-0.1-1.5-0.2-2.3-0.1c-0.4,0.1-0.8,0.3-0.9,0.8c0,0.5,0.3,0.7,0.7,0.8c0.7,0.3,1.5,0.5,2.2,0.7c1.2,0.4,1.8,1.3,1.8,2.6
			c0,1.3-0.6,2.3-1.8,2.8C91.1,146.1,90.2,146.2,89.2,146.2z"/>
		<path class="st96" d="M109.9,142c0-1.1,0-2.2,0-3.3c0-0.6-0.2-0.8-0.7-0.7c-0.3,0-0.5,0-0.8,0c-0.8,0.1-1-0.2-1-1
			c0-0.8,0.2-1,1-0.9c1.9,0.1,3.9,0.1,5.8,0c0.8,0,0.8,0.4,0.8,0.9c0,0.5,0.2,1.1-0.8,1c-1.6,0-1.6,0-1.6,1.7c0,1.8,0,3.7,0,5.5
			c0,0.5-0.2,0.7-0.7,0.7c-2,0-2,0.1-2-1.9C109.9,143.4,109.9,142.7,109.9,142z"/>
		<path class="st92" d="M97.1,142c0-1.1,0-2.1,0-3.2c0-0.6-0.2-0.9-0.8-0.8c-0.2,0-0.3,0-0.5,0c-1.2,0-1.5-0.5-1.2-1.6
			c0.1-0.4,0.3-0.3,0.6-0.3c2.1,0,4.2,0,6.4,0c0.9,0,0.5,0.6,0.5,1c0,0.4,0.2,0.9-0.6,0.9c-0.6,0-1.4-0.3-1.7,0.2
			c-0.4,0.5-0.1,1.2-0.1,1.9c0,1.7,0,3.4,0,5.1c0,0.6-0.2,0.8-0.8,0.8c-1.9,0-1.9,0-1.9-1.9C97.1,143.4,97.1,142.7,97.1,142z"/>
		<path class="st94" d="M128.2,142c0-1.1,0-2.1,0-3.2c0-0.5-0.1-0.8-0.7-0.7c-0.2,0-0.5,0-0.7,0c-0.8,0.1-1.1-0.1-1.1-1
			c0-0.8,0.2-1,1-0.9c2,0.1,3.9,0.1,5.9,0c0.9,0,0.7,0.5,0.7,1c0,0.5,0.2,1-0.7,1c-1.8,0-1.8,0-1.8,1.8c0,1.7,0,3.5,0,5.2
			c0,0.6-0.1,0.9-0.8,0.9c-1.8,0-1.8,0-1.8-1.8C128.2,143.5,128.2,142.7,128.2,142z"/>
		<path class="st96" d="M166.8,141c0,1.4,0,2.8,0,4.2c0,0.5-0.1,0.7-0.7,0.7c-2,0-2,0.1-2-1.9c0-2.3,0-4.7,0-7c0-0.7,0.1-1,0.9-0.9
			c1.8,0,1.8,0,1.8,1.7C166.8,138.9,166.8,140,166.8,141z"/>
		<path class="st97" d="M106.1,141.1c0,1.4,0,2.8,0,4.1c0,0.5-0.1,0.7-0.7,0.7c-2,0-1.9,0.1-2-1.9c0-2.4,0-4.8,0-7.1
			c0-0.6,0.1-0.9,0.8-0.9c1.8,0,1.8,0,1.8,1.8C106.1,139,106.1,140.1,106.1,141.1z"/>
		<path class="st96" d="M70.8,141.1c0-1.4,0-2.8,0-4.1c0-0.6,0.2-0.8,0.8-0.8c1.8,0,1.8,0,1.8,1.8c0,2.4,0,4.8,0,7.2
			c0,0.6-0.1,0.8-0.8,0.8c-1.9,0-1.9,0-1.9-1.9C70.8,143.1,70.8,142.1,70.8,141.1z"/>
		<path class="st98" d="M70.8,152.8c0-0.7,0-1.5,0-2.2c0-0.5,0.1-0.7,0.6-0.7c0.8,0.1,1.7,0,2.5,0.1c1.5,0.2,2.2,1.1,2.3,2.6
			c0.1,1.4-0.7,2.5-2.1,2.8C71,156.1,70.8,156,70.8,152.8z"/>
		<path class="st99" d="M113.2,152.7c0-1.9,1-2.9,2.9-2.9c1.8,0,2.8,1,2.7,3c0,1.9-1,2.8-2.9,2.8
			C114.1,155.6,113.2,154.6,113.2,152.7z"/>
		<path class="st100" d="M157.9,155.6c-1.7,0-2.8-1-2.8-2.8c0-1.9,1-3,2.9-3c1.7,0,2.8,1.1,2.8,2.9
			C160.9,154.6,159.8,155.6,157.9,155.6z"/>
		<path class="st101" d="M109,155.5c-1.5,0.2-1.5,0.2-2-1.1c-0.1-0.3-0.2-0.5-0.4-0.8c-0.1-0.2-0.4-0.4-0.7-0.3
			c-0.4,0.1-0.3,0.4-0.3,0.6c0,0.3,0,0.6,0,0.9c0.1,0.5-0.1,0.8-0.7,0.8c-0.6,0-0.8-0.1-0.8-0.7c0-1.4,0-2.8,0-4.2
			c0-0.5,0.1-0.8,0.7-0.7c0.8,0,1.5,0,2.3,0c0.7,0,1.2,0.3,1.4,1c0.2,0.6,0.1,1.2-0.5,1.6c-0.3,0.2-0.3,0.3-0.1,0.6
			C108.4,153.9,108.7,154.7,109,155.5z"/>
		<path class="st99" d="M81.1,152.8c0-0.8,0-1.5,0-2.3c0-0.4,0.1-0.6,0.6-0.6c1,0,2,0,3,0c0.5,0,0.5,0.3,0.5,0.6
			c0,0.4-0.2,0.5-0.5,0.5c-0.4,0-0.9,0-1.3,0c-0.4,0-0.6,0.1-0.6,0.6c0,0.5,0.3,0.6,0.7,0.5c0.4,0,0.8,0,1.2,0
			c0.5,0,0.5,0.2,0.5,0.6c0,0.4-0.1,0.6-0.5,0.6c-0.4,0-0.7,0-1.1,0c-0.4,0-0.7,0-0.7,0.6c0,0.7,0.3,0.6,0.8,0.6c0.4,0,0.8,0,1.2,0
			c0.5,0,0.7,0.1,0.7,0.6c0,0.6-0.3,0.5-0.7,0.5c-0.2,0-0.4,0-0.6,0c-0.9-0.1-2.1,0.4-2.7-0.2C80.9,154.9,81.2,153.7,81.1,152.8
			C81.2,152.8,81.2,152.8,81.1,152.8z"/>
		<path class="st102" d="M165.3,152.8c0-0.8,0-1.5,0-2.3c0-0.4,0.1-0.6,0.6-0.6c1,0,1.9,0,2.9,0c0.4,0,0.6,0.1,0.6,0.6
			c0,0.5-0.2,0.5-0.6,0.5c-0.4,0-0.8,0-1.3,0c-0.5,0-0.7,0.1-0.7,0.6c0,0.6,0.3,0.5,0.7,0.5c0.4,0,0.8,0,1.2,0
			c0.5,0,0.5,0.3,0.5,0.6c0,0.4-0.1,0.5-0.5,0.5c-0.4,0-0.8,0-1.2,0c-0.4,0-0.7,0-0.7,0.6c0,0.6,0.2,0.6,0.7,0.6c0.4,0,0.8,0,1.3,0
			c0.5,0,0.6,0.2,0.6,0.6c0,0.5-0.2,0.6-0.6,0.5c-0.2,0-0.4,0-0.6,0c-0.9-0.1-2.1,0.4-2.7-0.2C165,154.9,165.4,153.7,165.3,152.8
			C165.4,152.8,165.3,152.8,165.3,152.8z"/>
		<path class="st103" d="M95.5,152.8c0-0.5,0-0.9,0-1.4c0-1.7-0.3-1.5,1.6-1.5c0.4,0,0.9,0,1.3,0.1c0.9,0.2,1.4,0.7,1.4,1.7
			c0,0.9-0.5,1.5-1.3,1.8c-0.2,0-0.3,0.1-0.5,0.1c-1-0.1-1.1,0.4-1,1.2c0.1,0.6,0,0.9-0.7,0.9c-0.7,0-0.8-0.2-0.8-0.8
			C95.5,154.1,95.5,153.5,95.5,152.8z"/>
		<path class="st104" d="M139.5,155.6c-0.4,0-0.8,0-1.1-0.1c-0.5-0.1-0.5-0.4-0.4-0.9c0.1-0.4,0.3-0.4,0.7-0.3
			c0.4,0.1,0.8,0.1,1.1,0.1c0.3,0,0.6-0.1,0.7-0.4c0.1-0.3-0.2-0.5-0.5-0.6c-0.4-0.1-0.8-0.2-1.2-0.4c-0.6-0.3-1-0.8-0.9-1.5
			c0-0.8,0.5-1.2,1.1-1.4c0.7-0.3,1.4-0.3,2.2-0.2c0.7,0.1,0.6,0.5,0.6,1c-0.1,0.6-0.5,0.1-0.7,0.2c-0.1,0-0.3,0-0.4,0
			c-0.4,0-1-0.1-1.1,0.4c-0.1,0.6,0.6,0.6,1,0.7c1.6,0.3,2,1.6,1.3,2.7C141.4,155.4,140.7,155.6,139.5,155.6z"/>
		<path class="st105" d="M148.2,155.7c-0.4,0-0.8-0.1-1.1-0.1c-0.5-0.1-0.5-0.4-0.4-0.8c0.1-0.4,0.3-0.5,0.7-0.3
			c0.4,0.1,0.9,0.1,1.3,0.1c0.3,0,0.4-0.2,0.5-0.4c0-0.2-0.1-0.5-0.3-0.5c-0.4-0.2-0.8-0.3-1.2-0.4c-0.7-0.3-1.2-0.8-1.1-1.6
			c0-0.8,0.5-1.2,1.2-1.5c0.7-0.2,1.4-0.2,2.1-0.1c0.5,0.1,0.6,0.4,0.6,0.9c-0.1,0.7-0.5,0.3-0.8,0.3c-0.2,0-0.3,0-0.5,0
			c-0.4,0-0.9-0.1-1,0.5c-0.1,0.5,0.5,0.5,0.8,0.6c1.5,0.5,1.9,1,1.8,2c-0.2,1.1-0.9,1.6-2.4,1.6
			C148.3,155.6,148.2,155.6,148.2,155.7C148.2,155.6,148.2,155.6,148.2,155.7z"/>
		<path class="st98" d="M175.4,155.6c-0.3,0-0.6,0-1-0.1c-0.6-0.1-0.5-0.6-0.4-1c0.1-0.5,0.4-0.2,0.7-0.2c0.4,0.1,0.8,0.1,1.2,0.1
			c0.3,0,0.5-0.1,0.6-0.4c0-0.3-0.1-0.5-0.4-0.6c-0.4-0.1-0.8-0.2-1.2-0.4c-0.7-0.3-1.1-0.8-1-1.6c0-0.8,0.5-1.2,1.2-1.5
			c0.7-0.2,1.4-0.2,2.1-0.1c0.5,0.1,0.6,0.3,0.6,0.8c-0.1,0.7-0.5,0.3-0.8,0.3c-0.1,0-0.3,0-0.4,0c-0.4,0-0.9-0.1-1,0.4
			c-0.1,0.6,0.5,0.6,0.9,0.7c0.9,0.3,1.7,0.6,1.7,1.7c0,0.8-0.4,1.4-1.2,1.7C176.4,155.7,176,155.6,175.4,155.6z"/>
		<path class="st106" d="M123.3,152.6c0.1-0.7-0.4-1.9,0.2-2.5c0.6-0.6,1.8-0.2,2.8-0.2c0.4,0,0.9-0.2,0.9,0.5
			c0,0.8-0.6,0.5-0.9,0.6c-0.5,0.1-1.2-0.5-1.3,0.6c0,0.4,0.1,0.6,0.5,0.6c0.4,0,0.8,0,1.2,0c0.4,0,0.5,0.2,0.5,0.5
			c0,0.3,0,0.6-0.4,0.6c-0.6,0-1.3-0.3-1.6,0.2c-0.3,0.4-0.1,1.1-0.1,1.7c0,0.7-0.5,0.4-0.8,0.4c-0.3,0-0.7,0.1-0.7-0.5
			C123.3,154.4,123.3,153.6,123.3,152.6z"/>
		<path class="st107" d="M174.1,82.2c-2.2,0-4-1.9-3.9-4c0-2.2,1.9-3.9,4.1-3.9c2.2,0,4,1.9,3.9,4C178.1,80.5,176.3,82.3,174.1,82.2
			z"/>
		<path class="st108" d="M131.7,152.7c0-0.6,0-1.3,0-1.9c0-0.5,0-0.9,0.7-0.9c0.7,0,0.8,0.3,0.8,0.9c0,1.4-0.1,2.8,0,4.1
			c0,0.7-0.4,0.6-0.8,0.7c-0.5,0-0.8-0.1-0.7-0.7C131.7,154.2,131.7,153.5,131.7,152.7z"/>
		<path class="st109" d="M158.4,149.6c-0.4-0.1-1-0.4-1.6,0c-0.2,0.2-0.4-0.1-0.3-0.4c0.2-0.5,0.5-0.8,1-0.7c0.6,0,1.1,0.4,1.7,0
			c0.3-0.2,0.3,0.2,0.3,0.4C159.3,149.4,159,149.6,158.4,149.6z"/>
		<path class="st110" d="M141.2,141.1c0,0.8-0.1,1.5-0.5,2.1c-0.8,1.4-2.7,1.4-3.4,0c-0.7-1.3-0.7-2.7-0.1-4.1
			c0.3-0.8,1-1.2,1.9-1.1c0.9,0,1.5,0.5,1.9,1.3C141.1,139.8,141.2,140.4,141.2,141.1z"/>
		<path class="st111" d="M72.4,152.7c0-0.2,0-0.4,0-0.6c0-1.1,0.4-1.4,1.4-0.9c0.7,0.3,1,1.3,0.7,2.2c-0.3,0.8-1,1-1.8,1
			c-0.4,0-0.4-0.2-0.4-0.5C72.4,153.5,72.4,153.1,72.4,152.7z"/>
		<path class="st112" d="M114.7,152.7c0-0.5,0.1-1,0.5-1.4c0.5-0.5,1-0.5,1.6,0c0.6,0.6,0.7,2.2,0.1,2.9c-0.5,0.5-1.1,0.5-1.6,0.1
			C114.8,153.9,114.7,153.3,114.7,152.7z"/>
		<path class="st111" d="M156.8,152.8c0-0.6,0-1.1,0.4-1.5c0.4-0.4,0.8-0.5,1.3-0.3c0.8,0.4,0.8,1.2,0.8,1.9c-0.1,0.6-0.2,1.3-1,1.5
			c-0.6,0.1-1-0.1-1.3-0.6C156.8,153.5,156.8,153.1,156.8,152.8z"/>
		<path class="st113" d="M106.3,152.3c-0.5,0.1-0.7-0.1-0.6-0.6c0-0.4,0-0.7,0.5-0.7c0.4,0,0.9,0.1,1,0.6
			C107.2,152.2,106.7,152.2,106.3,152.3z"/>
		<path class="st114" d="M97.5,151c0.5,0.1,0.8,0.3,0.8,0.8c0,0.5-0.4,0.7-0.8,0.7c-0.7,0-0.4-0.6-0.4-0.9
			C96.9,151.2,97.1,150.9,97.5,151z"/>
		<path class="st115" d="M177.5,78.3c0,1.9-1.5,3.3-3.3,3.3c-1.8,0-3.4-1.5-3.4-3.4c0-1.9,1.6-3.4,3.5-3.4
			C176.1,74.9,177.5,76.4,177.5,78.3z"/>
		<path class="st116" d="M176,80.6c-0.6,0.2-0.9,0.1-1.1-0.4c-0.1-0.2-0.1-0.4-0.3-0.5c-0.3-0.4-0.3-1.2-1.1-1
			c-0.7,0.2-0.2,0.8-0.3,1.2c-0.1,0.3,0.2,0.8-0.4,0.8c-0.5,0-0.3-0.5-0.3-0.8c0-1.1,0-2.3,0-3.4c0-0.5,0.1-0.7,0.7-0.7
			c0.5,0,1.1,0,1.6,0c1.1,0.1,1.6,1.5,0.8,2.2c-0.6,0.5-0.5,0.8-0.1,1.3C175.7,79.7,175.8,80.1,176,80.6z"/>
		<path class="st117" d="M174,76.4c0.7,0,1.2,0.1,1.2,0.8c0,0.7-0.6,0.7-1.1,0.7c-0.7,0.1-0.7-0.3-0.7-0.8
			C173.3,76.5,173.5,76.3,174,76.4z"/>
	</g>
</g>
</svg>
