<?xml version="1.0" encoding="utf-8"?>
<!-- Generator: Adobe Illustrator 25.2.1, SVG Export Plug-In . SVG Version: 6.00 Build 0)  -->
<svg version="1.1" id="Camada_1" xmlns="http://www.w3.org/2000/svg" xmlns:xlink="http://www.w3.org/1999/xlink" x="0px" y="0px"
	 viewBox="0 0 247.2 202.1" style="enable-background:new 0 0 247.2 202.1;" xml:space="preserve">
<style type="text/css">
	.st0{filter:url(#Adobe_OpacityMaskFilter);}
	.st1{fill:#FFFFFF;}
	.st2{mask:url(#SVGID_1_);}
	.st3{fill:#DB706E;}
	.st4{fill:#DE6E70;}
	.st5{fill:#B63537;}
	.st6{fill:#C45354;}
	.st7{fill:#9F171A;}
	.st8{fill:#FEFEFE;}
	.st9{fill:#E1AB01;}
	.st10{fill:#FDFDFC;}
	.st11{fill:#FDFCFB;}
	.st12{fill:#FCFCFB;}
	.st13{fill:#FDFBFB;}
	.st14{fill:#FCFBFA;}
	.st15{fill:#FDFBFA;}
	.st16{fill:#FDFCFC;}
	.st17{fill:#FCF8F8;}
	.st18{fill:#FDF9F8;}
	.st19{fill:#FDF8F8;}
	.st20{fill:#FDF9F9;}
	.st21{fill:#FEF9F9;}
	.st22{fill:#FBF6F6;}
	.st23{fill:#FDF8F7;}
	.st24{fill:#FCF8F7;}
	.st25{fill:#FBF3F3;}
	.st26{fill:#FDEDED;}
	.st27{fill:#FCF6F6;}
	.st28{fill:#FCECEE;}
	.st29{fill:#A0181B;}
	.st30{fill:#9A1B1E;}
	.st31{fill:#9D1B1D;}
	.st32{fill:#9A3D3E;}
	.st33{fill:#953533;}
	.st34{fill:#991B1E;}
	.st35{fill:#FBEDEE;}
	.st36{fill:#9A2B2C;}
</style>
<defs>
	<filter id="Adobe_OpacityMaskFilter" filterUnits="userSpaceOnUse" x="0" y="-22.5" width="247.2" height="247.1">
		<feColorMatrix  type="matrix" values="1 0 0 0 0  0 1 0 0 0  0 0 1 0 0  0 0 0 1 0"/>
	</filter>
</defs>
<mask maskUnits="userSpaceOnUse" x="0" y="-22.5" width="247.2" height="247.1" id="SVGID_1_">
	<g class="st0">
		<circle class="st1" cx="123.6" cy="101" r="101.1"/>
	</g>
</mask>
<g class="st2">
	<g>
		<path class="st3" d="M0.2,224.6c-0.1,0-0.2,0.1-0.2-0.1c0-0.3,0-0.5,0-0.8C0,141.9,0,60.2,0-21.6c0-0.3-0.2-0.7,0.2-0.9
			c0.1,0.1,0.2,0.2,0.2,0.3c0.2,0.3,0.2,0.6,0.2,0.9c0,0.5,0,0.9,0,1.4c0,80.6,0,161.2,0,241.8c0,0.8,0.1,1.5-0.2,2.3
			C0.4,224.4,0.3,224.5,0.2,224.6z"/>
		<path class="st4" d="M247-22.5c0.1,0,0.2-0.1,0.2,0.1c0,0.3,0,0.5,0,0.8c0,81.8,0,163.5,0,245.3c0,0.3,0.2,0.7-0.2,0.9
			c-0.1-0.1-0.2-0.2-0.2-0.3c-0.2-0.3-0.2-0.6-0.2-0.9c0-0.5,0-0.9,0-1.4c0-80.6,0-161.2,0-241.8c0-0.8-0.1-1.5,0.2-2.3
			C246.8-22.3,246.9-22.4,247-22.5z"/>
		<path class="st5" d="M247-22.5c0,0.1,0,0.1,0,0.2c-0.2,0.3-0.6,0.4-0.9,0.4c-0.5,0-1,0-1.4,0c-80.6,0-161.3,0-241.9,0
			c-0.8,0-1.7,0.3-2.4-0.4c0-0.1,0-0.1,0-0.2C82.5-22.5,164.7-22.5,247-22.5z"/>
		<path class="st6" d="M247,224.3c0,0.1,0,0.1,0,0.2c-82.3,0-164.5,0-246.8,0c0-0.1,0-0.1,0-0.2c0.3-0.3,0.6-0.4,1-0.4
			c0.5,0,1,0,1.4,0c80.6,0,161.3,0,241.9,0C245.4,224,246.2,223.7,247,224.3z"/>
		<path class="st7" d="M247,224.3c-0.7,0-1.4,0-2,0c-81.2,0-162.4,0-243.6,0c-0.4,0-0.7,0-1.1,0c0-0.7,0-1.4,0-2
			c0-81,0-162.1,0-243.1c0-0.5,0-1,0-1.4c1.3,0,2.6,0,4,0c80.5,0,161.1,0,241.6,0c0.4,0,0.8,0,1.2,0c0,0.4,0,0.8,0,1.3
			c0,81.4,0,162.9,0,244.3C247,223.6,247,224,247,224.3z"/>
		<path class="st8" d="M111.7,87c0.9-0.8,1.7-1.6,2.5-2.3c3.9-3.4,8.5-5.1,13.7-5.2c2.1,0,4.1,0.1,6.1,0.6c3.8,1,6.9,3,9.1,6.3
			c0.4,0.6,0.7,0.7,1.2,0.1c3.2-3.4,7-5.9,11.7-6.7c4.6-0.8,9.2-0.5,13.6,1.5c4.6,2.2,7.3,5.8,7.9,10.9c0.2,1.9,0.4,3.8,0.4,5.7
			c0,8.6,0,17.3,0,25.9c0,2.1-0.4,4.2-2.1,5.7c-2.2,2.1-4.9,2.4-7.7,1.5c-2.7-0.9-4.1-3-4.5-5.7c-0.1-0.9-0.2-1.9-0.2-2.8
			c0-7.8,0-15.6,0-23.5c0-1.5-0.1-3-0.5-4.5c-1.1-4.1-3.7-5.4-7.6-5.2c-3.6,0.2-6.4,2-8.2,5.1c-1.1,1.7-1.3,3.7-1.5,5.7
			c-0.5,7.6-0.1,15.2-0.3,22.9c0,1-0.1,2-0.3,3c-0.8,4.1-4.4,5.9-8.3,5.3c-3.9-0.7-5.7-3.3-5.8-7.9c0-7.1,0-14.2,0-21.2
			c0-2.3-0.1-4.5-0.4-6.7c-0.7-5.1-3.8-6.4-8.1-6.1c-1.1,0.1-2.3,0.3-3.4,0.6c-3,1-4.5,3.3-5.3,6.1c-0.8,2.6-1.1,5.2-1.2,7.9
			c-0.1,6.5,0,13.1,0,19.6c0,1-0.1,2.1-0.4,3c-1.1,3.9-4.5,5.3-8.1,4.7c-3.5-0.6-5.5-3-5.7-6.6c0-0.6-0.1-1.2-0.1-1.7
			c0-12,0-24.1,0-36.1c0-1,0.1-1.9,0.3-2.9c0.7-2.8,2.7-4.4,5.8-4.7c3.1-0.2,6.3,1.4,7,4.9C111.7,85.1,111.7,86,111.7,87z"/>
		<path class="st8" d="M71.1,105.3c0-6.5-0.1-13.1,0-19.6c0.1-4.5,3.8-6.9,7.8-6.3c3.9,0.6,6,3,6,7.2c0,12.4,0,24.8,0,37.2
			c0,3-0.9,5.6-3.9,7c-4.2,1.9-9.8,0.1-10-5.9C70.9,118.4,71.1,111.9,71.1,105.3z"/>
		<path class="st9" d="M95.4,73.2c0.4-2,0.4-3.9,0.4-5.9c0-1.3-0.1-2.5-0.4-3.7c-0.1-0.8-0.5-1.1-1.3-1c-2.5,0.1-4.9-0.5-6.9-2.2
			c-3.2-2.7-3.5-7.8-0.6-10.9c4.2-4.6,13.8-4.3,16.3,3.7c1.2,3.7,0.5,7.1-1,10.5c-1.5,3.4-3.6,6.4-5.9,9.2
			C95.9,73,95.8,73.2,95.4,73.2z"/>
		<path class="st8" d="M78.1,59.2c1,0,2,0.1,3,0.4c4.2,1.4,6,4.2,5.6,8.8c-0.3,3.4-3.3,6.2-7.1,6.7c-2.8,0.3-5.4-0.1-7.7-1.8
			c-3.9-2.9-3.9-8.9,0-12C73.8,59.8,75.7,59.2,78.1,59.2z"/>
		<path class="st10" d="M152.4,139.2c0,2,0,3.9,0,5.9c0,0.7-0.1,1-0.9,0.9c-1.7,0-1.7,0-1.7-1.7c0-2.4,0-4.8,0-7.2
			c0-0.7,0.1-1,0.9-0.9c1.1,0.1,2.4-0.4,3.2,0.2c0.7,0.6,0.7,1.9,1.1,2.9c0.3,1,0.7,2.1,1,3.1c0.4-0.1,0.3-0.4,0.4-0.7
			c0.6-1.6,1.1-3.2,1.6-4.8c0.2-0.5,0.4-0.8,1-0.7c0.9,0.1,1.7,0,2.6,0c0.5,0,0.7,0.1,0.7,0.6c0,2.9,0,5.7,0,8.6
			c0,0.5-0.1,0.6-0.6,0.7c-2,0.1-2,0.1-1.9-1.9c0-1.8,0-3.5-0.1-5.3c-0.6,1.8-1.2,3.5-1.8,5.3c0,0.1-0.1,0.2-0.1,0.4
			c-0.5,1.5-1.1,1.9-2.6,1.5c-0.4-0.1-0.4-0.4-0.5-0.7c-0.6-2-1.3-4.1-1.9-6.1C152.5,139.2,152.4,139.2,152.4,139.2z"/>
		<path class="st11" d="M78,139.5c0,2,0,3.8,0,5.6c0,0.7-0.1,1-0.9,0.9c-1.6-0.1-1.6,0-1.6-1.6c0-2.5,0-5,0-7.5
			c0-0.6,0.2-0.7,0.8-0.8c1.9-0.3,3.1,0.3,3.7,2.2c0.5,1.4,1.3,2.7,2,4.1c0.3-0.2,0.2-0.5,0.2-0.7c0-1.6,0-3.3,0-4.9
			c0-0.5,0.1-0.7,0.7-0.7c1.7-0.1,1.7-0.1,1.7,1.7c0,2.5,0,5,0,7.4c0,0.6-0.2,0.8-0.8,0.8c-2.5,0-2.5,0.1-3.6-2.2
			C79.6,142.4,78.8,141.1,78,139.5z"/>
		<path class="st12" d="M139,146.2c-3.1,0-4.9-1.9-4.9-5.1c0-3.2,1.9-5.1,5-5.1c3.2,0,5,1.9,5,5.2
			C143.9,144.4,142.1,146.2,139,146.2z"/>
		<path class="st13" d="M116,139.8c0-1,0-2,0-3c0-0.5,0.1-0.7,0.7-0.7c2-0.1,2-0.1,2,1.9c0,1.5,0,3,0.1,4.5c0.1,1.2,0.6,1.7,1.6,1.7
			c0.9,0,1.5-0.5,1.7-1.6c0.3-1.8,0.1-3.7,0.1-5.5c0-0.8,0.2-1,1-1c1.6,0.1,1.6,0,1.6,1.6c0,1.7,0,3.4-0.1,5.1
			c-0.1,1.7-1,2.7-2.6,3.1c-1,0.3-2,0.3-3,0.1c-1.9-0.4-2.9-1.6-3-3.6C116,141.6,116,140.7,116,139.8z"/>
		<path class="st12" d="M168.1,146c1-1.6,1.9-3.1,2.8-4.6c0.3-0.4,0.3-0.7,0-1.2c-0.8-1.3-1.6-2.6-2.5-4.1c1,0,1.9,0,2.8,0
			c0.4,0,0.4,0.3,0.6,0.6c0.4,0.8,0.8,1.6,1.3,2.6c0.5-0.9,0.9-1.7,1.3-2.5c0.3-0.6,0.6-0.8,1.2-0.8c0.6,0.1,1.3,0,2.1,0
			c-0.9,1.5-1.7,2.8-2.5,4c-0.3,0.5-0.3,0.8,0,1.3c0.9,1.4,1.8,2.9,2.8,4.5c-1.1,0-2,0-2.9,0c-0.4,0-0.5-0.3-0.6-0.5
			c-0.5-0.9-1-1.9-1.5-2.9c-0.7,0.8-1.1,1.7-1.5,2.6c-0.3,0.7-0.7,0.9-1.5,0.9C169.5,145.9,168.9,146,168.1,146z"/>
		<path class="st14" d="M89.2,146.2c-0.7,0-1.4-0.1-2.1-0.2c-0.4-0.1-0.6-0.2-0.5-0.7c0.1-0.5-0.1-1.1,0.2-1.4
			c0.4-0.4,0.8,0.2,1.3,0.2c0.7,0.1,1.4,0.3,2.1,0.1c0.4-0.1,0.8-0.2,0.9-0.7c0.1-0.5-0.2-0.9-0.7-1c-0.6-0.2-1.2-0.4-1.8-0.6
			c-1.5-0.6-2.2-1.4-2.1-2.8c0-1.3,0.8-2.2,2.3-2.7c1.3-0.4,2.6-0.3,3.9-0.1c0.6,0.1,0.8,1,0.5,1.8c-0.2,0.6-0.6,0.1-0.8,0.1
			c-0.8-0.1-1.5-0.2-2.3-0.1c-0.4,0.1-0.8,0.3-0.9,0.8c0,0.5,0.3,0.7,0.7,0.8c0.7,0.3,1.5,0.5,2.2,0.7c1.2,0.4,1.8,1.3,1.8,2.6
			c0,1.3-0.6,2.3-1.8,2.8C91.1,146.1,90.2,146.2,89.2,146.2z"/>
		<path class="st15" d="M109.9,142c0-1.1,0-2.2,0-3.3c0-0.6-0.2-0.8-0.7-0.7c-0.3,0-0.5,0-0.8,0c-0.8,0.1-1-0.2-1-1
			c0-0.8,0.2-1,1-0.9c1.9,0.1,3.9,0.1,5.8,0c0.8,0,0.8,0.4,0.8,0.9c0,0.5,0.2,1.1-0.8,1c-1.6,0-1.6,0-1.6,1.7c0,1.8,0,3.7,0,5.5
			c0,0.5-0.2,0.7-0.7,0.7c-2,0-2,0.1-2-1.9C109.9,143.4,109.9,142.7,109.9,142z"/>
		<path class="st11" d="M97.1,142c0-1.1,0-2.1,0-3.2c0-0.6-0.2-0.9-0.8-0.8c-0.2,0-0.3,0-0.5,0c-1.2,0-1.5-0.5-1.2-1.6
			c0.1-0.4,0.3-0.3,0.6-0.3c2.1,0,4.2,0,6.4,0c0.9,0,0.5,0.6,0.5,1c0,0.4,0.2,0.9-0.6,0.9c-0.6,0-1.4-0.3-1.7,0.2
			c-0.4,0.5-0.1,1.2-0.1,1.9c0,1.7,0,3.4,0,5.1c0,0.6-0.2,0.8-0.8,0.8c-1.9,0-1.9,0-1.9-1.9C97.1,143.4,97.1,142.7,97.1,142z"/>
		<path class="st13" d="M128.2,142c0-1.1,0-2.1,0-3.2c0-0.5-0.1-0.8-0.7-0.7c-0.2,0-0.5,0-0.7,0c-0.8,0.1-1.1-0.1-1.1-1
			c0-0.8,0.2-1,1-0.9c2,0.1,3.9,0.1,5.9,0c0.9,0,0.7,0.5,0.7,1c0,0.5,0.2,1-0.7,1c-1.8,0-1.8,0-1.8,1.8c0,1.7,0,3.5,0,5.2
			c0,0.6-0.1,0.9-0.8,0.9c-1.8,0-1.8,0-1.8-1.8C128.2,143.5,128.2,142.7,128.2,142z"/>
		<path class="st15" d="M166.8,141c0,1.4,0,2.8,0,4.2c0,0.5-0.1,0.7-0.7,0.7c-2,0-2,0.1-2-1.9c0-2.3,0-4.7,0-7c0-0.7,0.1-1,0.9-0.9
			c1.8,0,1.8,0,1.8,1.7C166.8,138.9,166.8,140,166.8,141z"/>
		<path class="st16" d="M106.1,141.1c0,1.4,0,2.8,0,4.1c0,0.5-0.1,0.7-0.7,0.7c-2,0-1.9,0.1-2-1.9c0-2.4,0-4.8,0-7.1
			c0-0.6,0.1-0.9,0.8-0.9c1.8,0,1.8,0,1.8,1.8C106.1,139,106.1,140.1,106.1,141.1z"/>
		<path class="st15" d="M70.8,141.1c0-1.4,0-2.8,0-4.1c0-0.6,0.2-0.8,0.8-0.8c1.8,0,1.8,0,1.8,1.8c0,2.4,0,4.8,0,7.2
			c0,0.6-0.1,0.8-0.8,0.8c-1.9,0-1.9,0-1.9-1.9C70.8,143.1,70.8,142.1,70.8,141.1z"/>
		<path class="st17" d="M70.8,152.8c0-0.7,0-1.5,0-2.2c0-0.5,0.1-0.7,0.6-0.7c0.8,0.1,1.7,0,2.5,0.1c1.5,0.2,2.2,1.1,2.3,2.6
			c0.1,1.4-0.7,2.5-2.1,2.8C71,156.1,70.8,156,70.8,152.8z"/>
		<path class="st18" d="M113.2,152.7c0-1.9,1-2.9,2.9-2.9c1.8,0,2.8,1,2.7,3c0,1.9-1,2.8-2.9,2.8
			C114.1,155.6,113.2,154.6,113.2,152.7z"/>
		<path class="st19" d="M157.9,155.6c-1.7,0-2.8-1-2.8-2.8c0-1.9,1-3,2.9-3c1.7,0,2.8,1.1,2.8,2.9
			C160.9,154.6,159.8,155.6,157.9,155.6z"/>
		<path class="st20" d="M109,155.5c-1.5,0.2-1.5,0.2-2-1.1c-0.1-0.3-0.2-0.5-0.4-0.8c-0.1-0.2-0.4-0.4-0.7-0.3
			c-0.4,0.1-0.3,0.4-0.3,0.6c0,0.3,0,0.6,0,0.9c0.1,0.5-0.1,0.8-0.7,0.8c-0.6,0-0.8-0.1-0.8-0.7c0-1.4,0-2.8,0-4.2
			c0-0.5,0.1-0.8,0.7-0.7c0.8,0,1.5,0,2.3,0c0.7,0,1.2,0.3,1.4,1c0.2,0.6,0.1,1.2-0.5,1.6c-0.3,0.2-0.3,0.3-0.1,0.6
			C108.4,153.9,108.7,154.7,109,155.5z"/>
		<path class="st18" d="M81.1,152.8c0-0.8,0-1.5,0-2.3c0-0.4,0.1-0.6,0.6-0.6c1,0,2,0,3,0c0.5,0,0.5,0.3,0.5,0.6
			c0,0.4-0.2,0.5-0.5,0.5c-0.4,0-0.9,0-1.3,0c-0.4,0-0.6,0.1-0.6,0.6c0,0.5,0.3,0.6,0.7,0.5c0.4,0,0.8,0,1.2,0
			c0.5,0,0.5,0.2,0.5,0.6c0,0.4-0.1,0.6-0.5,0.6c-0.4,0-0.7,0-1.1,0c-0.4,0-0.7,0-0.7,0.6c0,0.7,0.3,0.6,0.8,0.6c0.4,0,0.8,0,1.2,0
			c0.5,0,0.7,0.1,0.7,0.6c0,0.6-0.3,0.5-0.7,0.5c-0.2,0-0.4,0-0.6,0c-0.9-0.1-2.1,0.4-2.7-0.2C80.9,154.9,81.2,153.7,81.1,152.8
			C81.2,152.8,81.2,152.8,81.1,152.8z"/>
		<path class="st21" d="M165.3,152.8c0-0.8,0-1.5,0-2.3c0-0.4,0.1-0.6,0.6-0.6c1,0,1.9,0,2.9,0c0.4,0,0.6,0.1,0.6,0.6
			c0,0.5-0.2,0.5-0.6,0.5c-0.4,0-0.8,0-1.3,0c-0.5,0-0.7,0.1-0.7,0.6c0,0.6,0.3,0.5,0.7,0.5c0.4,0,0.8,0,1.2,0
			c0.5,0,0.5,0.3,0.5,0.6c0,0.4-0.1,0.5-0.5,0.5c-0.4,0-0.8,0-1.2,0c-0.4,0-0.7,0-0.7,0.6c0,0.6,0.2,0.6,0.7,0.6c0.4,0,0.8,0,1.3,0
			c0.5,0,0.6,0.2,0.6,0.6c0,0.5-0.2,0.6-0.6,0.5c-0.2,0-0.4,0-0.6,0c-0.9-0.1-2.1,0.4-2.7-0.2C165,154.9,165.4,153.7,165.3,152.8
			C165.4,152.8,165.3,152.8,165.3,152.8z"/>
		<path class="st22" d="M95.5,152.8c0-0.5,0-0.9,0-1.4c0-1.7-0.3-1.5,1.6-1.5c0.4,0,0.9,0,1.3,0.1c0.9,0.2,1.4,0.7,1.4,1.7
			c0,0.9-0.5,1.5-1.3,1.8c-0.2,0-0.3,0.1-0.5,0.1c-1-0.1-1.1,0.4-1,1.2c0.1,0.6,0,0.9-0.7,0.9c-0.7,0-0.8-0.2-0.8-0.8
			C95.5,154.1,95.5,153.5,95.5,152.8z"/>
		<path class="st23" d="M139.5,155.6c-0.4,0-0.8,0-1.1-0.1c-0.5-0.1-0.5-0.4-0.4-0.9c0.1-0.4,0.3-0.4,0.7-0.3
			c0.4,0.1,0.8,0.1,1.1,0.1c0.3,0,0.6-0.1,0.7-0.4c0.1-0.3-0.2-0.5-0.5-0.6c-0.4-0.1-0.8-0.2-1.2-0.4c-0.6-0.3-1-0.8-0.9-1.5
			c0-0.8,0.5-1.2,1.1-1.4c0.7-0.3,1.4-0.3,2.2-0.2c0.7,0.1,0.6,0.5,0.6,1c-0.1,0.6-0.5,0.1-0.7,0.2c-0.1,0-0.3,0-0.4,0
			c-0.4,0-1-0.1-1.1,0.4c-0.1,0.6,0.6,0.6,1,0.7c1.6,0.3,2,1.6,1.3,2.7C141.4,155.4,140.7,155.6,139.5,155.6z"/>
		<path class="st24" d="M148.2,155.7c-0.4,0-0.8-0.1-1.1-0.1c-0.5-0.1-0.5-0.4-0.4-0.8c0.1-0.4,0.3-0.5,0.7-0.3
			c0.4,0.1,0.9,0.1,1.3,0.1c0.3,0,0.4-0.2,0.5-0.4c0-0.2-0.1-0.5-0.3-0.5c-0.4-0.2-0.8-0.3-1.2-0.4c-0.7-0.3-1.2-0.8-1.1-1.6
			c0-0.8,0.5-1.2,1.2-1.5c0.7-0.2,1.4-0.2,2.1-0.1c0.5,0.1,0.6,0.4,0.6,0.9c-0.1,0.7-0.5,0.3-0.8,0.3c-0.2,0-0.3,0-0.5,0
			c-0.4,0-0.9-0.1-1,0.5c-0.1,0.5,0.5,0.5,0.8,0.6c1.5,0.5,1.9,1,1.8,2c-0.2,1.1-0.9,1.6-2.4,1.6
			C148.3,155.6,148.2,155.6,148.2,155.7C148.2,155.6,148.2,155.6,148.2,155.7z"/>
		<path class="st17" d="M175.4,155.6c-0.3,0-0.6,0-1-0.1c-0.6-0.1-0.5-0.6-0.4-1c0.1-0.5,0.4-0.2,0.7-0.2c0.4,0.1,0.8,0.1,1.2,0.1
			c0.3,0,0.5-0.1,0.6-0.4c0-0.3-0.1-0.5-0.4-0.6c-0.4-0.1-0.8-0.2-1.2-0.4c-0.7-0.3-1.1-0.8-1-1.6c0-0.8,0.5-1.2,1.2-1.5
			c0.7-0.2,1.4-0.2,2.1-0.1c0.5,0.1,0.6,0.3,0.6,0.8c-0.1,0.7-0.5,0.3-0.8,0.3c-0.1,0-0.3,0-0.4,0c-0.4,0-0.9-0.1-1,0.4
			c-0.1,0.6,0.5,0.6,0.9,0.7c0.9,0.3,1.7,0.6,1.7,1.7c0,0.8-0.4,1.4-1.2,1.7C176.4,155.7,176,155.6,175.4,155.6z"/>
		<path class="st25" d="M123.3,152.6c0.1-0.7-0.4-1.9,0.2-2.5c0.6-0.6,1.8-0.2,2.8-0.2c0.4,0,0.9-0.2,0.9,0.5c0,0.8-0.6,0.5-0.9,0.6
			c-0.5,0.1-1.2-0.5-1.3,0.6c0,0.4,0.1,0.6,0.5,0.6c0.4,0,0.8,0,1.2,0c0.4,0,0.5,0.2,0.5,0.5c0,0.3,0,0.6-0.4,0.6
			c-0.6,0-1.3-0.3-1.6,0.2c-0.3,0.4-0.1,1.1-0.1,1.7c0,0.7-0.5,0.4-0.8,0.4c-0.3,0-0.7,0.1-0.7-0.5
			C123.3,154.4,123.3,153.6,123.3,152.6z"/>
		<path class="st26" d="M174.1,82.2c-2.2,0-4-1.9-3.9-4c0-2.2,1.9-3.9,4.1-3.9c2.2,0,4,1.9,3.9,4C178.1,80.5,176.3,82.3,174.1,82.2z
			"/>
		<path class="st27" d="M131.7,152.7c0-0.6,0-1.3,0-1.9c0-0.5,0-0.9,0.7-0.9c0.7,0,0.8,0.3,0.8,0.9c0,1.4-0.1,2.8,0,4.1
			c0,0.7-0.4,0.6-0.8,0.7c-0.5,0-0.8-0.1-0.7-0.7C131.7,154.2,131.7,153.5,131.7,152.7z"/>
		<path class="st28" d="M158.4,149.6c-0.4-0.1-1-0.4-1.6,0c-0.2,0.2-0.4-0.1-0.3-0.4c0.2-0.5,0.5-0.8,1-0.7c0.6,0,1.1,0.4,1.7,0
			c0.3-0.2,0.3,0.2,0.3,0.4C159.3,149.4,159,149.6,158.4,149.6z"/>
		<path class="st29" d="M141.2,141.1c0,0.8-0.1,1.5-0.5,2.1c-0.8,1.4-2.7,1.4-3.4,0c-0.7-1.3-0.7-2.7-0.1-4.1c0.3-0.8,1-1.2,1.9-1.1
			c0.9,0,1.5,0.5,1.9,1.3C141.1,139.8,141.2,140.4,141.2,141.1z"/>
		<path class="st30" d="M72.4,152.7c0-0.2,0-0.4,0-0.6c0-1.1,0.4-1.4,1.4-0.9c0.7,0.3,1,1.3,0.7,2.2c-0.3,0.8-1,1-1.8,1
			c-0.4,0-0.4-0.2-0.4-0.5C72.4,153.5,72.4,153.1,72.4,152.7z"/>
		<path class="st31" d="M114.7,152.7c0-0.5,0.1-1,0.5-1.4c0.5-0.5,1-0.5,1.6,0c0.6,0.6,0.7,2.2,0.1,2.9c-0.5,0.5-1.1,0.5-1.6,0.1
			C114.8,153.9,114.7,153.3,114.7,152.7z"/>
		<path class="st30" d="M156.8,152.8c0-0.6,0-1.1,0.4-1.5c0.4-0.4,0.8-0.5,1.3-0.3c0.8,0.4,0.8,1.2,0.8,1.9c-0.1,0.6-0.2,1.3-1,1.5
			c-0.6,0.1-1-0.1-1.3-0.6C156.8,153.5,156.8,153.1,156.8,152.8z"/>
		<path class="st32" d="M106.3,152.3c-0.5,0.1-0.7-0.1-0.6-0.6c0-0.4,0-0.7,0.5-0.7c0.4,0,0.9,0.1,1,0.6
			C107.2,152.2,106.7,152.2,106.3,152.3z"/>
		<path class="st33" d="M97.5,151c0.5,0.1,0.8,0.3,0.8,0.8c0,0.5-0.4,0.7-0.8,0.7c-0.7,0-0.4-0.6-0.4-0.9
			C96.9,151.2,97.1,150.9,97.5,151z"/>
		<path class="st34" d="M177.5,78.3c0,1.9-1.5,3.3-3.3,3.3c-1.8,0-3.4-1.5-3.4-3.4c0-1.9,1.6-3.4,3.5-3.4
			C176.1,74.9,177.5,76.4,177.5,78.3z"/>
		<path class="st35" d="M176,80.6c-0.6,0.2-0.9,0.1-1.1-0.4c-0.1-0.2-0.1-0.4-0.3-0.5c-0.3-0.4-0.3-1.2-1.1-1
			c-0.7,0.2-0.2,0.8-0.3,1.2c-0.1,0.3,0.2,0.8-0.4,0.8c-0.5,0-0.3-0.5-0.3-0.8c0-1.1,0-2.3,0-3.4c0-0.5,0.1-0.7,0.7-0.7
			c0.5,0,1.1,0,1.6,0c1.1,0.1,1.6,1.5,0.8,2.2c-0.6,0.5-0.5,0.8-0.1,1.3C175.7,79.7,175.8,80.1,176,80.6z"/>
		<path class="st36" d="M174,76.4c0.7,0,1.2,0.1,1.2,0.8c0,0.7-0.6,0.7-1.1,0.7c-0.7,0.1-0.7-0.3-0.7-0.8
			C173.3,76.5,173.5,76.3,174,76.4z"/>
	</g>
</g>
</svg>
