<?xml version="1.0" encoding="utf-8"?>
<!-- Generator: Adobe Illustrator 25.2.1, SVG Export Plug-In . SVG Version: 6.00 Build 0)  -->
<svg version="1.1" id="Camada_1" xmlns="http://www.w3.org/2000/svg" xmlns:xlink="http://www.w3.org/1999/xlink" x="0px" y="0px"
	 viewBox="0 0 1000 1000" style="enable-background:new 0 0 1000 1000;" xml:space="preserve">
<style type="text/css">
	.st0{fill:#6B3231;}
	.st1{fill:#FEFEFE;}
	.st2{fill:#EDD5C4;}
	.st3{fill:#F0BCA4;}
	.st4{fill:#EFD3C4;}
	.st5{fill:#EFD2C5;}
	.st6{fill:#EED3C5;}
	.st7{fill:#EED2C4;}
	.st8{fill:#EFBCA5;}
	.st9{fill:#EFBBA6;}
	.st10{fill:#EED3C3;}
	.st11{fill:#EDD3C3;}
	.st12{fill:#EED3C4;}
	.st13{fill:#EDD2C3;}
	.st14{fill:#EDD1C3;}
	.st15{fill:#ECD1C1;}
	.st16{fill:#EBD1C1;}
	.st17{fill:#ECD1C2;}
	.st18{fill:#ECD0C1;}
	.st19{fill:#EBD3C2;}
	.st20{fill:#EECFC3;}
	.st21{fill:#F0CEC2;}
	.st22{fill:#F0CFC3;}
	.st23{fill:#F0CEC4;}
	.st24{fill:#F0CDC3;}
	.st25{fill:#F0CCC2;}
	.st26{fill:#EECCC2;}
	.st27{fill:#EFCFC4;}
	.st28{fill:#EECBC1;}
	.st29{fill:#EDCCC1;}
	.st30{fill:#EDCAC1;}
	.st31{fill:#EECBBF;}
	.st32{fill:#EDCBC0;}
	.st33{fill:#EACABE;}
	.st34{fill:#F2D0C4;}
	.st35{fill:#F2CFC3;}
	.st36{fill:#E4C4B9;}
	.st37{fill:#F3D2C6;}
	.st38{fill:#E6C4B8;}
	.st39{fill:#E4C1B9;}
	.st40{fill:#E6C8BB;}
	.st41{fill:#BF8683;}
	.st42{fill:#825A51;}
	.st43{fill:#CB9793;}
	.st44{fill:#C79692;}
	.st45{fill:#A06C68;}
	.st46{fill:#BB827E;}
	.st47{fill:#8E5554;}
	.st48{fill:#C88E8E;}
	.st49{fill:#9A7464;}
	.st50{fill:#6C3633;}
	.st51{fill:#693F37;}
	.st52{fill:#703C38;}
	.st53{fill:#6B433A;}
	.st54{fill:#6E453D;}
	.st55{fill:#693E36;}
</style>
<g>
	<g>
		<path class="st0" d="M1004.9-3.8c0,334.8,0,669.7,0.1,1004.5c0,3.5-0.8,4.3-4.3,4.3c-334.9-0.1-669.8-0.1-1004.7-0.1
			c-0.9-1.6-0.4-3.4-0.4-5c0-332.8,0-665.6,0-998.4c0-6.4-0.7-5.7,5.7-5.7c332.9,0,665.7,0,998.6,0
			C1001.6-4.3,1003.3-4.7,1004.9-3.8z"/>
		<path class="st1" d="M1004.9-3.8C670.7-3.8,336.4-3.8,2.2-4c-5.1,0-6.2,1.1-6.2,6.2C-3.9,336.5-4,670.7-4,1004.9
			c-0.3-0.2-1,0.5-0.9-0.5c0-1.2,0-2.5,0-3.7c0-333.7,0-667.4-0.1-1001c0-3.8,0.8-4.5,4.5-4.5C333.3-4.8,667-4.8,1000.7-4.7
			C1002.1-4.7,1003.9-5.8,1004.9-3.8z"/>
		<path class="st2" d="M358.6,396.8c16,8.9,32.7,6.8,49.3,2.6c5.7-1.4,11.2-3.7,16.7-5.6c0.8-1.4,1.9-2.5,3.4-3.2
			c9.3-3.8,18.5-8,27.4-12.7c3.9-1.6,7.7-3.5,12-3.5c6.8-0.1,11.2,3.4,12.5,10c1.9,9.2-0.7,17.9-3.5,26.5
			c-4.3,13.4-7.6,26.9-6.9,41.1c0.7,13.8,4.8,25.9,18.3,32.8c20.6,10.6,37-2.9,41.3-18.8c4.5-16.5,1.4-32.6-3.3-48.6
			c-2.2-7.3-4.5-14.5-5.5-22.1c-0.5-4-0.3-7.8,0.8-11.5c2-6.5,8-9.8,14.7-8.1c1.9,0.5,3.8,1.3,5.7,2c9.6,4.3,19.1,9,28.7,13.4
			c1.9,0.9,4.2,1.3,5,3.7c13.6,4.9,27.3,9.2,41.9,9.4c8.5,0.1,16.6-1.7,24.2-5.7c1-0.2,1.3,0.2,1.1,1.1c-12.6,8.7-26.7,9.5-41.2,7.9
			c-22.1-2.5-42.3-10.7-62-20.6c-1.1-0.6-2.2-1.2-3.3-1.7c-3.5-1.5-5.6-0.9-5.7,3.5c-0.2,7.6,2.1,14.7,4.6,21.7
			c5.4,15.2,8.9,30.8,7.6,47c-1.5,19.6-10.6,35-30.4,41.6c-20.2,6.8-46.1-9.1-51.6-31.6c-4.5-18.3-1.4-36.1,4.2-53.6
			c2.6-8.1,6-16,6.1-24.7c0-6.2-1.6-7.3-7.2-4.4c-15.7,7.9-31.8,14.9-49,18.9c-16.1,3.7-32.2,5.5-48.1-1c-3.2-1.3-6.3-2.8-8.9-5.1
			C357.5,396.9,357.6,396.5,358.6,396.8z"/>
		<path class="st3" d="M579,249.4c-25.3,29.3-45.5,61.7-58.2,98.5c-8.4,24.2-11.9,49.4-15.6,74.5c-0.4,2.6,0.3,4.5,2.5,6.4
			c9.7,8.6,12.7,29.1,6.1,40.2c-5.6,9.4-18.6,9.8-25,1c-7.3-10.1-6.8-33.9,3.7-41.9c1.1-0.9,1.6-1.7,1.6-3.1
			c1.2-64,29.2-116.4,70.5-163c4.2-4.8,8.9-9.1,13.4-13.6C578.9,248.1,579.3,248.4,579,249.4z"/>
		<path class="st4" d="M542.9,569c0-6.5,0.2-13.1-0.1-19.6c-0.1-3,0.5-4.2,3.8-4.1c7.9,0.2,15.9,0,23.8,0.1c2.9,0,5.9,0.4,8.8,0.9
			c12.9,2.4,20.3,10.4,20.3,21.8c0,11.9-7,20.2-19.9,22.7c-11.4,2.3-23,0.8-34.5,1.2c-2.8,0.1-2.3-1.8-2.3-3.5
			C542.9,582,542.9,575.5,542.9,569z"/>
		<path class="st5" d="M645.7,584.1c1.2,3.9-0.2,5.7-3.6,6.8c-7.9,2.4-15.8,3.2-23.9,0.9c-8.2-2.3-12.4-8.6-12.1-17.6
			c0.3-7.7,5.3-13.7,13.2-15.4c6.1-1.3,12-1.2,17.8,1.6c3.2,1.5,5.6,3.8,7.2,7c3.5,6.9,2.3,8.9-5.1,8.9c-7.8,0-15.5,0.1-23.3,0
			c-3.2-0.1-3.7,1-2.6,3.8c2.2,6,7.2,7.8,12.8,8.3C632.9,588.9,639.3,587.3,645.7,584.1z"/>
		<path class="st6" d="M494.4,593c-15.7-0.1-24.6-11.2-19.5-24.4c3.2-8.3,13.3-12.3,25.6-10.1c10.9,1.9,16.7,10.8,14.1,21.6
			C512.5,588.5,505.3,593.1,494.4,593z"/>
		<path class="st7" d="M278.5,558.5c4.9-0.1,9.6,0.7,14.3,1.6c3,0.6,3.1,2.5,2.7,4.4c-0.7,2.8-2.5,0.6-3.7,0.2c-6-2-12.1-3-18.4-2.1
			c-3.5,0.5-7.7,1.2-7.4,6.1c0.3,4.6,4.4,4.6,7.8,4.9c5.4,0.5,10.9,0.7,16.3,1.4c3.3,0.5,6.2,2.1,7,5.9c0.7,3.2,0,5.9-2.2,8.2
			c-1.4,1.5-3.3,2.4-5.3,2.8c-8.9,2.1-17.6,1.5-26.2-1.4c-2.3-0.8-3.6-2.1-2.8-4.4c1.1-3.1,2.8-0.4,3.9,0c6.9,2.4,13.9,3.3,21.1,1.8
			c2.9-0.6,5.6-1.9,5.3-5.4c-0.3-3.3-3-4.1-5.7-4.4c-3.9-0.4-7.8-0.5-11.6-0.9c-2.5-0.2-5-0.5-7.4-1.1c-3.8-0.9-6.3-3.3-6.6-7.4
			c-0.3-4.4,2.1-7,5.9-8.6C269.7,558.3,274.1,558.4,278.5,558.5z"/>
		<path class="st5" d="M807.3,565.7c-5.3-1.9-10.6-3.5-16.3-3.4c-2.3,0-4.7,0.3-6.9,0.7c-3.1,0.5-5.8,1.9-5.6,5.6
			c0.2,3.9,3.4,4.5,6.4,4.8c5.3,0.5,10.6,0.6,15.8,1.2c6.6,0.8,9.6,4,9,9.5c-0.4,4.4-3.5,6.6-7.2,7.6c-8.9,2.5-17.9,1.6-26.6-1.1
			c-3.2-1-3.3-3.1-2.2-6c6.5,3.1,13.3,4.4,20.4,3.9c1.8-0.1,3.7-0.5,5.5-1c2.4-0.8,4.1-2.3,3.8-5.1c-0.2-2.7-2.2-3.8-4.4-4
			c-4.2-0.5-8.4-0.7-12.5-1.1c-2.5-0.2-5-0.4-7.4-1c-3.9-1-6.7-3.2-6.8-7.7c-0.2-4.7,2.3-7.3,6.4-8.6c6.7-2.1,13.5-1.5,20.4-0.9
			c1.7,0.1,3.4,0.6,5,0.9C808.1,560.7,808.1,560.7,807.3,565.7z"/>
		<path class="st8" d="M575.3,394.9c-12.1-3.9-23.3-9.7-33.6-17.1c13.2,3.8,26.4,7.9,40,10.1c17.6,2.8,35.1,4.2,52.3-2.1
			c5.9-2.2,11-5.6,15.7-9.7c0.4-0.2,0.8-0.2,1.1,0.2c-8.6,11-20.7,15.4-33.8,17.7c-12.6,2.3-25.3,2.1-38,0.2
			C577.9,394.1,576.3,393.3,575.3,394.9z"/>
		<path class="st9" d="M455.6,378c-2.6,4.8-7.8,6-12,8c-4.9,2.4-9.6,5.6-15.3,6.3c-1.1,0.6-2.4,0.3-3.5,1
			c-9.9,0.8-19.8,1.3-29.7,0.8c-16.1-0.9-31.3-4.7-43.1-16.8c-0.2-0.9,0.1-1.3,1-1.1c13.7,11.7,30.2,13.4,47.2,12.7
			c17.7-0.8,34.9-4.9,51.7-10.1C453.1,378.4,454.4,378.2,455.6,378z"/>
		<path class="st10" d="M368.8,553.4c-1.1,4.1,0.8,5.8,5.6,5.1c2.7-0.4,5.6-0.3,8.4,0c1.6,0.2,4.7-1.7,4.5,1.9
			c-0.2,3.3-3.1,1.6-4.8,1.8c-3.2,0.3-6.5,0.2-9.8,0c-2.9-0.2-4.3,0.5-4.1,3.8c0.3,4.2-0.1,8.4,0,12.6c0.1,7.5,4.1,10.7,11.5,9.5
			c1.4-0.2,2.7-0.6,4.1-0.9c1-0.2,2.5-1.6,3,0.4c0.4,1.4,0.7,3.3-1.4,3.9c-5.8,1.6-11.6,2.8-17.3,0c-3.3-1.6-5.1-4.5-5.3-8.2
			c-0.2-5.3-0.5-10.6-0.3-15.8c0.2-4.1-1-5.7-5.2-5.2c-1.4,0.2-4.2,1.3-4.1-1.9c0.1-3.2,2.8-1.9,4.3-1.8c4,0.4,5.1-1.1,4.7-5
			c-0.2-2-1.7-4.8,1.2-6.2C368,545.3,368.9,546.3,368.8,553.4z"/>
		<path class="st11" d="M315.4,572.8c0,1.2,0,2.5,0,3.7c0,10.3,4,13.4,14.1,11.1c1.4-0.3,3.6-2.9,4.5,0.2c1,3-1.3,3.8-3.9,4.4
			c-2.8,0.6-5.5,0.8-8.3,0.8c-7.5-0.2-11.6-4-12-11.4c-0.3-4.8-0.4-9.6-0.2-14.4c0.2-3.9-1-5.3-4.9-5c-1.5,0.1-4.6,1.8-4.5-1.9
			c0.1-3.2,2.9-1.9,4.3-1.7c4.5,0.7,5.2-1.4,4.7-5.2c-0.2-1.9-1.2-4.3,0.7-5.6c1.3-0.9,3.4-1.3,4.9-0.8c1.5,0.4,0.7,2.5,0.7,3.8
			c0,7.8,0,7.8,7.8,7.8c2.8,0,5.6,0,8.4,0c1.3,0,2.5-0.1,2.5,1.8c0,1.8-1,2-2.4,2c-3.9,0-7.8,0.2-11.6-0.1c-3.5-0.3-5.3,0.7-4.8,4.5
			C315.6,568.8,315.4,570.8,315.4,572.8C315.4,572.8,315.4,572.8,315.4,572.8z"/>
		<path class="st12" d="M450,572.6c0,0.3,0,0.6,0,0.9c-0.1,14,2.7,16.3,16.2,13.5c0.9-0.2,2.2-1.2,2.5,0.6c0.2,1.5,0.4,2.9-1.5,3.9
			c-11.5,6-22.7-0.4-22.8-13.1c0-3.6-0.2-7.2,0-10.7c0.3-4-0.7-6.1-5.2-5.5c-1.4,0.2-4.2,1.3-4.2-1.9c0.1-3.2,2.9-1.9,4.3-1.8
			c4.3,0.5,5.5-1.2,4.8-5.2c-0.3-1.9-1.3-4.3,0.6-5.7c1.2-0.9,3.4-1.2,4.9-0.8c1.6,0.4,0.7,2.4,0.7,3.7c-0.1,7.9-0.1,7.9,7.8,7.9
			c2.8,0,5.6,0,8.4,0c1.3,0,2.5,0.1,2.4,2c0,1.8-1.2,1.9-2.5,1.9c-3.7,0-7.5,0.3-11.2-0.1c-4.3-0.5-5.6,1.3-5.1,5.2
			c0.2,1.7,0,3.4,0,5.1C450.1,572.6,450,572.6,450,572.6z"/>
		<path class="st13" d="M202.2,569.1c0,6.5-0.1,13.1,0.1,19.6c0.1,2.6-0.7,3.5-3.4,3.5c-2.6,0-3.9-0.3-3.8-3.5
			c0.2-13.2,0.2-26.4,0-39.6c0-3,1-3.6,3.7-3.6c2.7,0,3.4,0.9,3.4,3.5c-0.2,6.7-0.1,13.4-0.1,20
			C202.1,569.1,202.1,569.1,202.2,569.1z"/>
		<path class="st14" d="M423.1,580.9c-3,9.5-12.4,14.4-21.7,11.3c-5.1-1.7-7.4-5.7-7.7-10.6c-0.5-7-0.3-14-0.5-20.9
			c-0.1-2.9,2.1-1.9,3.6-2.3c2.2-0.5,2.7,0.7,2.6,2.5c0,4.8,0,9.6,0,14.4c0,5,0.8,9.8,6.2,11.9c5.2,2,11.5-0.1,15.3-5
			c0.4-0.5,0.8-0.9,1.2-1.4C422.4,580.6,422.7,580.6,423.1,580.9z"/>
		<path class="st7" d="M222.1,567.7c4.1-7.9,11.8-11.4,20.2-9.2c4.8,1.3,8.3,5.3,8.7,10.9c0.4,6.7,0.4,13.4,0.7,20
			c0.1,2.7-1.4,2.6-3.3,2.6c-1.9,0-3.4-0.1-3.3-2.7c0.1-4,0.1-8.1,0-12.1c-0.1-5.5-0.3-11.3-6.7-13.5c-6.2-2.2-11.2,0.1-15.2,5
			C222.2,569,221.7,568.8,222.1,567.7z"/>
		<path class="st14" d="M719.9,568.5c1.7-5.8,5.7-9.1,11.4-10.3c6.8-1.4,12.1,1.8,13.8,8.5c2,7.8,0.4,15.8,1.2,23.7
			c0.3,2.5-2.2,1.5-3.5,1.7c-2.1,0.3-3.1-0.5-3.1-2.8c0.2-4.6,0.2-9.3,0.2-14c-0.1-4.9-0.4-9.9-6.1-11.8c-5-1.7-9.3,0.4-13.1,6.1
			C720,569.6,719.5,569.4,719.9,568.5z"/>
		<path class="st14" d="M719.9,568.5c0.3,0.4,0.6,0.7,0.8,1.1c-1.5,5.6-1.4,11.3-1.3,17.1c0,2.2,2,5.4-2.9,5.5
			c-4.6,0.1-3.4-2.8-3.5-5.2c0-4.2,0.2-8.4,0-12.5c-0.2-4.2-0.6-8.6-5.2-10.6c-4.7-2.1-8.7-0.2-12.3,3c-1,0.1-1.5-0.2-1-1.3
			c3-5.8,8-8,14.2-7.4c5.5,0.5,8.6,3.9,9.4,9.3C718.5,568.4,719,568.7,719.9,568.5z"/>
		<path class="st15" d="M694.6,565.5c0.3,0.4,0.7,0.9,1,1.3c-4,6.5-3.3,13.7-3.1,20.8c0.1,2.4,0.6,4.5-3.2,4.6
			c-3.9,0.1-3.7-2-3.6-4.7c0.6-8.2,0.6-16.5,0-24.7c-0.2-3.1,0.5-4.4,3.9-4.5c4.2-0.1,2.6,2.4,2.5,4.3c0,2-0.2,3.9-0.4,7.1
			C693.2,567.7,693.9,566.6,694.6,565.5z"/>
		<path class="st16" d="M763,575.7c0,4.5-0.1,9,0,13.5c0.1,2.3-0.8,3-2.9,2.9c-1.8-0.1-3.7,0.3-3.7-2.7c0.1-9.5,0.1-18.9,0-28.4
			c0-3.1,1.9-2.4,3.7-2.6c2.2-0.2,3,0.6,2.9,2.9C762.9,566.1,763,570.9,763,575.7z"/>
		<path class="st17" d="M423.1,580.9c-0.4,0-0.7,0-1.1-0.1c1.9-6.1,1.4-12.3,1.2-18.5c-0.1-3.6,1.6-4,4.5-4.1
			c3.9-0.1,2.2,2.6,2.1,4.2c-0.4,8.5-0.4,17.1,0.3,25.6c0.3,3.1-0.7,4-3.8,4c-3.5,0-3.2-1.7-2.9-4.1
			C423.7,585.7,424.8,583.2,423.1,580.9z"/>
		<path class="st16" d="M222.1,567.7c0.4,0.4,0.7,0.7,1.1,1.1c-3.1,5.9-2.4,12.4-2.5,18.7c0,2.6,0.4,4.8-3.6,4.7
			c-4.1-0.1-3-2.7-2.9-4.8c0.6-7.9,0.5-15.8-0.2-23.7c-0.3-3.7,0.9-5,4.5-5.1c2.2-0.1,2.7,0.6,2.4,2.6c-0.4,2.7-0.5,5.4-0.9,9
			C221.2,568.8,221.6,568.3,222.1,567.7z"/>
		<path class="st18" d="M348,575.5c0,4.3-0.1,8.7,0,13c0.1,2.4-0.4,3.7-3.3,3.7c-2.6,0-3.5-0.8-3.4-3.4c0.1-9,0.1-18,0-27
			c0-2.7,0.9-3.3,3.5-3.4c2.9-0.1,3.3,1.2,3.3,3.6C347.9,566.5,348,571,348,575.5C348,575.5,348,575.5,348,575.5z"/>
		<path class="st19" d="M662.2,573.6c0,5.1-0.3,10.3-0.1,15.4c0.1,3-1.3,3.1-3.6,3.2c-2.7,0.1-3.4-0.6-3.3-3.4
			c0.6-8.8,0.5-17.7,0.1-26.5c-0.1-1.4-0.8-3.7,1.7-3.5c1.6,0.1,4.5-2.7,5,1.5c-1.3,3.8,0.6,7.5,0.5,11.2
			C662.6,572.2,662.6,572.9,662.2,573.6z"/>
		<path class="st20" d="M534.2,633.5c1.8-4.1,3.2-7.1,4.5-10.2c0.7-1.5,0.8-3.5,3.2-3.2c2.7,0.4,1.4,2.7,1.6,4.1
			c0.3,3.2,0.4,6.5,0.4,9.8c0,1.3,1.1,3.5-1.4,3.7c-2.7,0.2-1.6-2.1-1.8-3.4c-0.2-1.6-0.2-3.3-1.1-5.3c-1.1,2.2-2.2,4.5-3.3,6.7
			c-1.5,2.8-3,3-4.5,0c-1.1-2.2-2.2-4.4-4.3-6.6c0,2.2,0,4.4,0,6.5c0,1.3-0.4,2.1-1.9,2c-1.3-0.1-1.4-1.1-1.4-2
			c0.2-4.7,0.4-9.3,0.6-13.9c0-0.8,0.2-1.5,1.2-1.6c1.5-0.2,2.2,0.8,2.8,2C530.3,625.6,532,629,534.2,633.5z"/>
		<path class="st21" d="M507,630.3c0,2.3,0,3.8,0,5.4c0,1.2-0.1,2.2-1.7,2.1c-1.5,0-1.7-1-1.7-2.2c0-4.5,0-9,0-13.5
			c0-1,0.3-1.9,1.5-1.9c2.8,0,5.6-0.6,8.2,0.8c3.2,1.7,4,5.4,1.2,7.6c-4.4,3.4-0.8,4.6,1.4,6c1,0.6,2.7,0.6,2.1,2.3
			c-0.5,1.5-2.1,1-3.3,0.9C510.7,637.2,510.5,632.6,507,630.3z"/>
		<path class="st22" d="M461.2,628.9c0-0.5-0.1-1,0-1.4c1-2.4-2.4-6.3,2.1-7.4c6.1-1.4,11.6,1.1,13,5.3c1.6,4.5,0,9.1-4,11.2
			c-3.1,1.6-6.4,0.9-9.6,1c-1.6,0-1.6-1.2-1.6-2.3C461.2,633.3,461.2,631.1,461.2,628.9z"/>
		<path class="st23" d="M484.7,629.5c0-0.8,0-1.1,0-1.5c0-7.9,2.3-9.8,10-7.9c0.8,0.2,1.5,0.3,1.6,1.3c0.1,1.3-0.8,1.5-1.8,1.6
			c-1.2,0-2.5,0.1-3.7,0c-1.7-0.1-2.7,0.4-2.6,2.3c0,2,1.3,2.2,2.8,2.2c0.9,0,1.9,0,2.8,0c0.9,0,1.9,0,2,1.3
			c0.1,1.8-1.1,1.5-2.2,1.5c-1.1,0-2.2,0.1-3.3,0c-1.7-0.1-2.1,0.8-2.1,2.3c0,1.6,0.7,2,2.2,2.3c2.1,0.4,6.1-1.3,5.8,1.3
			c-0.3,3.3-4.3,1.2-6.6,1.5C481,638.8,486.3,631.9,484.7,629.5z"/>
		<path class="st24" d="M298,628.7c0-0.5,0-0.9,0-1.4c0.1-7,3.2-9.2,10.2-7.2c0.8,0.2,1.5,0.4,1.5,1.4c0,1-0.7,1.3-1.5,1.4
			c-1.5,0.1-3.1,0.1-4.6,0.1c-1.6,0-2.1,0.8-2.2,2.3c0,1.6,0.6,2.3,2.2,2.2c0.2,0,0.3,0,0.5,0c1.6,0.7,4.8-1.5,4.7,1.7
			c-0.1,2.4-3,0.9-4.6,1.2c-1.4,0.2-2.7,0-2.8,2.1c-0.1,2.2,1.2,2.3,2.9,2.6c1.9,0.2,5.3-1.3,5.2,1.5c-0.1,2.7-3.6,1.2-5.5,1.2
			C297.1,637.7,298.2,639.6,298,628.7z"/>
		<path class="st25" d="M355.9,629.8c0-1.2,0-1.5,0-1.8c0-8.5,1.2-9.4,9.7-8c0.9,0.2,2,0.2,1.9,1.5c0,1.2-1.1,1.2-2,1.5
			c-2,0.7-5.7-1.9-6,2c-0.3,4.4,3.6,1.7,5.6,2.4c0.9,0.3,1.9,0.3,1.9,1.5c0,1.3-1,1.4-2,1.4c-0.9,0-1.9,0.1-2.8,0
			c-1.8-0.1-3,0.2-2.9,2.5c0.1,2.1,1.4,1.9,2.8,2.2c1.9,0.3,5.3-1.4,5.2,1.5c-0.1,2.6-3.6,1.3-5.5,1.2
			C354.8,637.7,356.2,639.3,355.9,629.8z"/>
		<path class="st26" d="M566.2,637.8c-0.8,0-1.5-0.2-2.1-0.9c-3.7-4-6.1-4-9.9,0c-0.9,0.9-1.9,1.2-2.9,0.6c-1.1-0.7-0.2-1.7,0.1-2.4
			c1.7-4.2,3.4-8.3,5.2-12.4c0.5-1.2,0.8-2.8,2.8-2.6c1.6,0.1,1.9,1.4,2.3,2.5c1.7,4.1,3.4,8.3,5,12.5
			C567.3,636.1,568.5,637.5,566.2,637.8z"/>
		<path class="st27" d="M443,636.3c0.1,1.1-0.3,1.4-1,1.5c-1,0.1-1.6-0.3-2.4-1.1c-3.2-3.7-6.8-3.8-9.8,0c-0.9,1.1-1.8,1.3-2.7,1
			c-1.4-0.5-0.5-1.6-0.2-2.3c1.8-4.5,3.8-8.9,5.6-13.3c0.8-2,3-3,3.8-1.3C439,625.8,440.9,631.3,443,636.3z"/>
		<path class="st26" d="M676.2,637.4c2.1-5.1,4.3-10.2,6.4-15.3c0.4-1,0.8-2,2.2-2c1.6,0,2,1,2.5,2.2c1.7,4.3,3.5,8.6,5.2,12.9
			c0.3,0.8,1.2,1.8,0.1,2.4c-1.2,0.6-2.2,0.2-3.1-1.1c-2.6-3.5-6.7-3.5-9.5,0C679,638,678,638,676.2,637.4z"/>
		<path class="st26" d="M644.8,637.8c-1.6,0-3.1,0-4.4-1.1c-1.3-1-2.8-2.4-1.9-3.8c1.2-1.8,2.5-0.4,3.7,0.8c1.3,1.4,3,1.5,4.7,0.7
			c0.8-0.4,1.2-1.1,1-1.9c-0.5-1.9-2.4-1.7-3.8-2.2c-2.4-0.8-4.9-1.6-5-4.7c-0.1-2.3,1.1-3.9,3.1-4.8c2.4-1.2,4.9-1,7.1,0.5
			c1.1,0.8,2.5,2,1.4,3.4c-1,1.3-2.1,0.3-3.1-0.7c-1.1-1.1-2.4-1.3-3.8-0.5c-0.7,0.4-1.3,1-1.1,1.9c0.3,1.6,1.7,1.9,3.1,2.4
			c2.8,0.9,6.1,1.4,5.7,5.5C651.2,636,648.5,637.8,644.8,637.8z"/>
		<path class="st28" d="M322.3,637.8c-1.8,0-3.5-0.4-4.7-1.7c-0.9-1-2.1-2.3-0.8-3.6c1.1-1.1,2.2-0.2,3.1,0.9
			c1.1,1.3,2.6,1.6,4.2,1.3c1-0.2,1.7-0.7,1.7-1.9c0-0.9-0.4-1.5-1.2-1.8c-1.2-0.4-2.4-0.8-3.5-1.2c-2.4-0.8-4.1-2.1-3.9-5
			c0.3-3,2.2-4.4,4.8-4.8c2.6-0.4,5,0,6.5,2.5c0.4,0.6,0.9,1.4,0.1,2.1c-0.8,0.7-1.7,0.7-2.4-0.2c-0.9-1-1.8-1.7-3.2-1.6
			c-1,0.1-1.8,0.5-2.2,1.5c-0.4,1.2,0.1,2.1,1.2,2.7c0.7,0.3,1.5,0.5,2.2,0.7c2.8,0.8,5.7,1.7,5.1,5.4
			C328.7,637.1,325.6,637.8,322.3,637.8z"/>
		<path class="st29" d="M614.6,620.1c0.5,0.1,1.6,0.1,2.6,0.6c1.4,0.6,3.4,1.3,2.9,3c-0.8,2.4-2.4,0.7-3.7,0.1
			c-2.5-1.1-4.9-0.8-6.6,1.6c-1.6,2.3-1.9,5-0.2,7.3c1.7,2.3,4.2,2.4,6.7,1.2c1.3-0.6,2.8-2.4,3.7,0c0.6,1.8-1.4,2.6-2.8,3.1
			c-3.5,1.3-7,1.2-9.9-1.6c-2.9-2.9-2.9-6.4-1.6-9.9C607.1,621.8,610.1,620.2,614.6,620.1z"/>
		<path class="st30" d="M414.5,637.9c-4,0-7-1.4-8.3-5.1c-1.3-3.8-0.8-7.4,2.2-10.3c2.9-2.8,6.4-3,10-1.6c1.1,0.5,2.9,1.2,2.2,3
			c-0.8,2-2.2,0.7-3.4,0.1c-2.5-1.2-4.9-0.9-6.7,1.4c-1.8,2.3-2,5-0.3,7.3c1.5,2.1,3.9,2.3,6.3,1.5c1.4-0.5,3.2-2.9,4.1-0.1
			c0.8,2.3-2,2.7-3.6,3.4C416.1,637.9,415.1,637.8,414.5,637.9z"/>
		<path class="st31" d="M579.9,620.1c0.6,0,1.3-0.1,1.9,0c1.8,0.3,4.9-1.1,5.3,1c0.7,3-2.6,1.5-4,2c-1.6,0.6-1.3,1.9-1.3,3.1
			c-0.1,2.9,0,5.9-0.1,8.8c0,1.1,0.5,2.7-1.5,2.7c-2.2,0.1-1.9-1.5-2-2.9c0-2,0-4,0-6c0-2.9,1-6.6-4.2-5.9c-0.9,0.1-1.4-0.6-1.3-1.5
			c0.1-1,0.8-1.2,1.6-1.3C576.2,620.1,578,620.1,579.9,620.1z"/>
		<path class="st32" d="M378.9,630.7c0-1.5-0.1-3.1,0-4.6c0.1-2.1-0.6-3.2-2.9-3.1c-1.2,0.1-2.8,0.3-2.6-1.6
			c0.2-1.8,1.8-1.2,2.9-1.3c3.1-0.1,6.2-0.1,9.3,0c1,0,2.4-0.3,2.2,1.4c-0.1,1.2-1,1.6-2,1.5c-3.6-0.5-3.6,1.8-3.6,4.3
			c0.1,2.6,0,5.3,0,7.9c0,1.2,0.3,2.6-1.6,2.6c-1.9,0-1.8-1.3-1.8-2.5C378.9,633.7,378.9,632.2,378.9,630.7z"/>
		<path class="st33" d="M662.2,573.6c-0.1-0.8-0.1-1.6-0.2-2.4c-0.7-1.7-0.1-3.1,1.1-4.3c2.9-5,6.9-8.3,12.8-9
			c2.1-0.3,3.7-0.2,3.5,2.7c-0.2,2.1,0.3,3.8-3,3.5C669.1,563.3,664.6,567,662.2,573.6z"/>
		<path class="st34" d="M342,620.1c0.9,0,1.9-0.2,2.8,0c1.5,0.3,4-1.1,4.3,1.1c0.4,2.8-2.3,1.5-3.7,1.8c-1.7,0.4-1.6,1.6-1.6,2.9
			c0,3.2,0,6.5,0,9.7c0,1.1,0,2.2-1.6,2.2c-1.6,0-1.7-0.9-1.7-2.1c0-2.6-0.1-5.3,0-7.9c0.1-2.9,0.1-5.4-4-4.8
			c-1,0.1-1.8-0.5-1.7-1.6c0.1-0.9,0.8-1.2,1.7-1.2C338.2,620.1,340.1,620.1,342,620.1C342,620.1,342,620.1,342,620.1z"/>
		<path class="st35" d="M664.6,620.1c0.8,0,1.6-0.1,2.3,0c1.5,0.3,4-1.1,4.4,1c0.5,2.9-2.3,1.5-3.7,1.9c-1.7,0.4-1.7,1.5-1.7,2.8
			c0,3.1,0,6.2,0,9.3c0,1.1,0.4,2.7-1.6,2.6c-1.9-0.1-1.6-1.6-1.6-2.7c-0.1-2.2,0-4.3,0-6.5c0-2.8,0.9-6.4-4.1-5.5
			c-0.8,0.1-1.5-0.5-1.4-1.4c0-0.9,0.6-1.4,1.5-1.4C660.6,620.1,662.6,620.1,664.6,620.1C664.6,620.1,664.6,620.1,664.6,620.1z"/>
		<path class="st36" d="M397.7,628.7c0,2.3,0,4.6,0,7c0,1.2-0.2,2.1-1.8,2.1c-1.1,0-1.7-0.5-1.7-1.7c0-4.8,0-9.6,0-14.4
			c0-1.1,0.6-1.6,1.8-1.6c1.2,0,1.7,0.6,1.7,1.7C397.7,624.1,397.7,626.4,397.7,628.7C397.7,628.7,397.7,628.7,397.7,628.7z"/>
		<path class="st37" d="M597.4,629c0,2.3,0,4.6,0,6.9c0,1.4-0.7,1.9-2,1.9c-1.3,0-1.4-0.9-1.4-1.9c0-4.6,0-9.2,0-13.9
			c0-1,0.2-1.8,1.5-1.9c1.3,0,2,0.5,2,1.9C597.4,624.3,597.4,626.7,597.4,629z"/>
		<path class="st38" d="M630.9,629.1c0,2.2,0,4.3,0,6.5c0,1.1,0.1,2.2-1.5,2.2c-1.4,0-1.9-0.6-1.9-1.9c0-4.7,0-9.3,0-14
			c0-1,0.3-1.8,1.6-1.8c1.4,0,1.9,0.7,1.9,2C630.9,624.5,630.9,626.8,630.9,629.1C630.9,629.1,630.9,629.1,630.9,629.1z"/>
		<path class="st39" d="M759.9,551.9c-2.6-0.2-4.8-0.7-4.5-3.6c0.3-2.9,2.6-2.9,4.9-2.9c2.3,0,4.6,0.6,4.3,3.5
			C764.3,551.8,761.8,551.7,759.9,551.9z"/>
		<path class="st40" d="M344.2,551.8c-2.1-0.1-4.4-0.5-4.2-3.5c0.2-2.9,2.7-3,5-3c2.2,0,4.3,0.6,4.2,3.2
			C349.1,551.4,346.8,551.8,344.2,551.8z"/>
		<path class="st41" d="M353,376.2c-0.3,0.4-0.7,0.7-1,1.1c-2.1-1.7-3.5-3.8-3.9-6.8C349.7,372.4,351.3,374.3,353,376.2z"/>
		<path class="st42" d="M663,566.9c-0.4,1.4-0.7,2.8-1.1,4.3c-1.8-3.7-0.6-7.3,0-10.9C662.8,562.4,661.3,564.9,663,566.9z"/>
		<path class="st43" d="M358.6,396.8c-0.3,0.3-0.6,0.6-1,0.9c-2.6-1.2-4.2-3.4-5.9-5.6c0.4-0.3,0.8-0.3,1.2-0.1
			C354.8,393.6,356.7,395.2,358.6,396.8z"/>
		<path class="st44" d="M642.5,399.7c-0.4-0.4-0.7-0.7-1.1-1.1c1.6-1.2,3.2-2.4,4.8-3.6c0.9-0.2,1.2,0.1,1,1
			C645.7,397.4,644.5,399,642.5,399.7z"/>
		<path class="st45" d="M647.2,396c-0.3-0.3-0.6-0.6-1-1c1-1.3,2-2.7,4.2-3.2C649.9,393.9,648.5,394.9,647.2,396z"/>
		<path class="st46" d="M650.9,376.3c-0.4-0.1-0.8-0.1-1.1-0.2c0.8-1.6,1.7-3.1,3.9-4.2C653.1,374.1,652.3,375.4,650.9,376.3z"/>
		<path class="st47" d="M353,392.1c-0.4,0-0.8,0.1-1.2,0.1c-1.1-0.7-1.9-1.5-1.7-3.2C351.9,389.3,352.5,390.6,353,392.1z"/>
		<path class="st48" d="M579,249.4c-0.3-0.3-0.7-0.7-1-1c0.6-0.8,1.2-2.4,2.3-1.3C581.4,248.1,579.9,248.8,579,249.4z"/>
		<path class="st49" d="M424.8,393.3c0.8-1.5,2.2-1.1,3.5-1c-0.8,1.3-2.3,1.3-3.6,1.6C424.6,393.7,424.6,393.5,424.8,393.3z"/>
		<path class="st0" d="M549.8,568.7c0-5.3,0-10.6,0-15.8c0-1.8,0.2-3,2.5-2.9c8.2,0.4,16.4-0.7,24.6,0.9c9.7,1.9,15.5,8,15.9,16.7
			c0.4,8.7-4.4,15.2-13.7,18.1c-8.9,2.8-18.2,1.4-27.3,1.7c-2.4,0.1-2-1.9-2-3.3C549.9,578.9,549.9,573.8,549.8,568.7
			C549.9,568.7,549.9,568.7,549.8,568.7z"/>
		<path class="st50" d="M625.7,562.3c6.2,0,11.4,3.1,13.1,7.9c0.8,2.4,0.7,3.8-2.5,3.8c-7-0.1-14-0.1-21,0c-2.9,0.1-3-1.2-2.3-3.4
			C614.5,565.5,619.2,562.3,625.7,562.3z"/>
		<path class="st0" d="M494.1,588.8c-9.2-0.3-14.2-5.2-14.1-13.7c0.2-8.1,6-13,15.1-12.7c8.6,0.3,14,5.6,13.6,13.7
			C508.4,584.3,502.9,589,494.1,588.8z"/>
		<path class="st51" d="M509.6,627.5c-2.7,0.3-2.6-1.2-2.6-2.7c0-1.7,1-2.1,2.4-2c1.6,0.2,3.4,0.3,3.2,2.5
			C512.4,627.4,510.5,627.3,509.6,627.5z"/>
		<path class="st52" d="M464.3,628.9c1.1-2-1.8-6,3.2-5.8c3.7,0.2,6.2,1.9,6.1,6.1c-0.1,4.2-2.8,5.7-6.4,5.6
			C462.3,634.6,465.7,630.7,464.3,628.9z"/>
		<path class="st53" d="M558.9,625.2c1.8,2.1,2.2,3.8,2.5,5.7c-1.6,0.7-3,0.3-4.8,0.1C557.5,629.1,558.1,627.4,558.9,625.2z"/>
		<path class="st54" d="M434.8,625.5c1.3,1.8,2.7,3.5,1.8,5.4c-0.5,1-3.3,0.9-3.7,0.1C432.2,629.1,433.5,627.3,434.8,625.5z"/>
		<path class="st55" d="M684.9,625.4c1.2,1.7,2.6,3.6,2,5.3c-0.4,1.2-2.6,0.7-4.2,0.2C683,628.9,683.6,627.1,684.9,625.4z"/>
	</g>
</g>
</svg>
