<?xml version="1.0" encoding="utf-8"?>
<!-- Generator: Adobe Illustrator 25.2.1, SVG Export Plug-In . SVG Version: 6.00 Build 0)  -->
<svg version="1.1" id="Camada_1" xmlns="http://www.w3.org/2000/svg" xmlns:xlink="http://www.w3.org/1999/xlink" x="0px" y="0px"
	 viewBox="0 0 1000 1000" style="enable-background:new 0 0 1000 1000;" xml:space="preserve">
<style type="text/css">
	.st0{fill:#FEFEFE;}
	.st1{fill:#D2301E;}
	.st2{fill:#FE6115;}
	.st3{fill:#FE5F16;}
	.st4{fill:#D25B1F;}
	.st5{fill:#D35E24;}
	.st6{fill:#D35F24;}
	.st7{fill:#D36026;}
	.st8{fill:#D25C20;}
	.st9{fill:#D66A34;}
	.st10{fill:#D5662F;}
	.st11{fill:#D66932;}
	.st12{fill:#DB7849;}
	.st13{fill:#FEFCFC;}
	.st14{fill:#FDFCFB;}
	.st15{fill:#FEFDFC;}
	.st16{fill:#FCF6F4;}
	.st17{fill:#FAEAE4;}
	.st18{fill:#FBF1EC;}
	.st19{fill:#F9E8E0;}
	.st20{fill:#F6DED3;}
	.st21{fill:#F8E5DD;}
</style>
<image style="overflow:visible;" width="355" height="355" xlink:href="76930771_546980159450518_5217239887056470016_n.png"  transform="matrix(2.3365 0 0 2.3365 121.44 138.9956)">
</image>
<g>
	<path class="st0" d="M926,500c0,138.8-0.1,277.6,0.2,416.4c0,8.2-1.6,9.8-9.8,9.8c-277.6-0.3-555.2-0.3-832.9,0
		c-8.2,0-9.8-1.6-9.8-9.8c0.3-277.6,0.3-555.3,0-832.9c0-8.2,1.6-9.8,9.8-9.8c277.6,0.3,555.2,0.3,832.9,0c8.2,0,9.8,1.6,9.8,9.8
		C925.9,222.4,926,361.2,926,500z"/>
	<path class="st1" d="M325.5,309.8c0-38.6-0.1-77.3,0-115.9c0.1-33.9,21.4-55,55.3-55.1c15.5-0.1,31.1,0.4,46.6-0.2
		c6.9-0.3,9.6,2.1,11.7,8.4c2.5,7.5,5.9,14.9,10.4,21.3c4.8,6.8,3.1,10.3-2.7,15.1c-12,9.9-22.6,21.3-31.2,34.4
		c-19,28.8-18.9,56.1,0.4,84.6c13.3,19.7,31.2,35,49.4,49.9c26.8,22,55.2,41.8,80.8,65.3c6.4,5.9,6.8,8.4-0.8,13.6
		c-29,19.7-62.2,29.9-93.9,43.6c-27.1,11.7-54.8,9.1-82.2,7.2c-25.9-1.8-43.5-24.5-43.7-51.4C325.3,390.2,325.5,350,325.5,309.8z"/>
	<path class="st2" d="M693.4,343.2c0,37.9,0.1,75.8,0,113.7c-0.1,38.8-21.3,59.9-59.8,60c-19.5,0-19.4,0-26-17.6
		c-4.5-12-10.4-23.5-18.8-33.1c-6.3-7.1-4.5-10.7,2.2-15.8c14.6-11.2,27.6-24.2,38.2-39.3c22-31,20-58.7-5.9-86.3
		c-16.5-17.6-36.2-31.1-55.8-44.9c-26.4-18.6-53.2-36.6-75.8-60.1c-7.7-7.9-7.7-11.9,1.2-19.9c25.2-22.5,52.3-35.7,87.4-31.1
		c18.8,2.5,38.2,0.4,57.4,0.5c33.2,0.2,55.3,22,55.6,55.5C693.7,264.2,693.4,303.7,693.4,343.2z"/>
	<path class="st3" d="M446.6,286.2c0.4-25.5,13.5-45.1,29.4-63.5c2.5-2.9,4.4-3.8,7.4-0.2c22.2,27.2,52.4,45,79.2,66.8
		c11.4,9.3,22.5,19.1,31.7,30.7c18.9,24.1,21.8,49.6,6.7,76.7c-1.5,2.8-3.1,5.6-4.8,8.2c-6.1,9.4-11.9,21.9-21.4,24.8
		c-10.2,3.2-14.8-11.8-22.7-18c-21.9-17.2-43.1-35.3-64.3-53.3c-11.6-9.8-21.8-21-29.8-34C450.9,312.8,446.1,300.3,446.6,286.2z"/>
	<path class="st1" d="M365.9,744.9c-18.9,0-18.8,0-21.8-17.9c-6.5-38.4-13-76.8-19.9-115.2c-0.6-3.4,1-9.3-3.4-9.9
		c-3.2-0.4-3.7,5.4-5.1,8.5c-18.1,39.8-36.7,79.3-53.8,119.5c-5,11.7-10.8,16.1-23.5,15.3c-20.3-1.2-20.3-0.3-11.4-18.4
		c24.7-50.3,49.8-100.4,73.8-151c6.7-14,18.2-12.3,29.2-12.4c11.2-0.1,18.5,6.2,20.8,17.6c10.9,52.2,21.8,104.3,33.1,156.4
		c1.4,6.3-0.2,7.9-6,7.5C373.9,744.7,369.9,744.9,365.9,744.9z"/>
	<path class="st1" d="M780.8,744.9c-17.8,0-18.1,0-21.2-17.6c-7-39.6-13.6-79.2-20.4-118.8c-0.4-2.6,0.6-6.7-2.6-7.1
		c-2.8-0.3-3.2,4-4.3,6.3c-18.7,41.3-37.8,82.4-55.8,123.9c-4.5,10.4-10.1,14-21.3,13.5c-21.5-1-21.5-0.3-12.1-19.7
		c24.3-49.6,48.6-99.2,72.9-148.9c5.5-11.2,13.9-14.9,29.7-13.4c11.9,1.1,18.2,7.4,20.7,19.3c10.5,51,21.5,102,32.5,152.9
		c1.5,7,0.8,10.7-7.5,9.5C788,744.5,784.4,744.9,780.8,744.9z"/>
	<path class="st1" d="M631.7,593.2c-32.6,0.2-32.3,0.3-36.5,32.8c-1,7.7,0.6,9.8,8.2,9.5c13.1-0.5,26.3,0.2,39.5-0.3
		c7.1-0.3,8.7,2.2,8,9c-1.9,20.2-1.6,20.2-22.1,20.2c-9.6,0-19.2,0.5-28.7-0.1c-7.9-0.5-10.9,1.8-11.8,10.2
		c-2.2,21-6.1,41.8-8.5,62.7c-0.7,6.3-3.1,7.6-8.9,7.8c-28.5,0.9-29,1-25.3-26.9c6.3-47.8,13.3-95.4,19.6-143.1
		c1.1-8.2,3.9-11,12.7-10.8c30.7,0.7,61.4,0.8,92.1,0c10.4-0.3,11.4,4.2,9.5,11.9c-2.6,10.4-9.2,16.7-20.2,17.1
		C650,593.4,640.8,593.2,631.7,593.2z"/>
	<path class="st1" d="M460.7,744.9c-15.5,0-31.1-0.3-46.6,0.1c-6.4,0.2-8.3-1.9-7.4-8.2c7.9-55.5,15.7-111,23.4-166.5
		c0.6-4.4,2.5-5.6,6.6-6.4c20.4-4.1,30.6,4.8,27.8,25.4c-5.1,38.2-10.3,76.4-16,114.5c-1.3,8.6-0.6,12.2,9.4,11.6
		c14.7-0.9,29.5-0.3,44.2-0.2c9.4,0.1,16.3,3.7,17.1,14.3c0.9,12.3-1.8,15.3-14.2,15.3C490.1,744.9,475.4,744.9,460.7,744.9z"/>
	<path class="st4" d="M608.6,772.8c13.5,0.2,22.5,9.5,22,22.8c-0.5,14.5-12.2,25.3-26.7,24.8c-12.8-0.4-21.2-9.4-21.1-22.5
		C582.9,782.8,593.4,772.6,608.6,772.8z"/>
	<path class="st4" d="M433.3,796.2c-0.7,14.4-12.7,25.1-27.1,24.2c-12.6-0.8-21.2-10.3-20.8-23.1c0.5-14.7,11.8-25.1,26.6-24.6
		C425.6,773.3,433.9,782.4,433.3,796.2z"/>
	<path class="st5" d="M741.8,772.7c13.9,0,22.3,8.5,22.2,22.4c-0.1,14.7-11.2,25.5-26,25.3c-12.7-0.2-21.9-9.4-21.8-22
		C716.2,783.5,727.1,772.7,741.8,772.7z"/>
	<path class="st6" d="M350.6,818.9c-8.3,1.9-10.7-2-8.8-10.9c1.8-8.5,2.2-17.3,3.5-25.9c0.5-3.2-0.3-8,4.6-8.5
		c5.8-0.6,12.2-1.3,16.9,3.3c3.3,3.2,4.9,7.7,2.1,11.9c-2.9,4.5-3.2,7.6-0.5,12.9C373.2,811.2,365.4,818.6,350.6,818.9z"/>
	<path class="st5" d="M675.3,788.1c0.1,1.6-0.9,5.5-3.8,6.4c-13.1,4.3-4.9,10.1-1.7,15.9c1.4,2.4,5.6,5.6,2.8,7.6
		c-4.1,2.9-5.5-2.6-7.6-5.1c-0.5-0.6-0.8-1.4-1.3-2c-2.9-3.7-4.3-11.1-8.3-10.6c-4.8,0.6-1.9,8.1-4,12.1c-1.1,2.1,0.6,6.6-3.9,5.6
		c-2.9-0.6-1.6-4-1.3-6.2c1.2-9.5,3.3-18.8,3.7-28.3c0.4-8.3,3.4-11.2,11.6-10.1C669.6,774.4,675.4,776.9,675.3,788.1z"/>
	<path class="st7" d="M449.3,811c1.2-9.6,2.1-19.1,3.6-28.5c0.6-4,0.1-9.3,6.8-9c6.7,0.3,13.9-0.5,17.5,7.1c2.5,5.2,2,12-2.8,13.8
		c-11.4,4.4-6.4,9.3-2.4,15.3c1.7,2.5,6.9,5.8,3.2,8.5c-3.7,2.7-5.4-2.8-7.5-5.5c-0.7-0.9-1.2-2.1-1.9-3c-2.8-3.2-3.8-10.1-7.8-9.5
		c-4.5,0.8-2.4,7.4-3.4,11.4c-0.6,2.5,0.6,6.8-3.1,6.6C446,817.9,450.4,813.2,449.3,811z"/>
	<path class="st8" d="M326.6,816.9c-0.1-0.3-0.1,1.1-2.3,1.6c-1.8,0.4-2.8-0.6-3.8-2c-8.5-11.9-16.8-12.1-26.5-0.6
		c-1.4,1.6-2.8,3.6-4.8,2.7c-3.6-1.7-0.6-4.1,0.3-5.7c6.5-11.8,13.3-23.5,19.9-35.3c1.4-2.5,3-5.5,4.7-0.1
		C318.2,789.8,322.1,802.4,326.6,816.9z"/>
	<path class="st8" d="M526.7,814.4c0.4,1.6,0.8,3.3-1.1,4c-1.6,0.6-3.5,0.2-3.8-1.6c-1.2-7.2-5.3-9.4-12.5-9.1
		c-6.4,0.2-11.7,0.7-14.2,7.7c-0.8,2.3-2.9,4.6-5.4,2.8c-2.8-2,0.3-4.3,1.2-6c6.1-11.1,12.4-22.2,18.8-33.2c1-1.7,2.3-3.1,3.5-4.7
		c0.9,1.6,2.1,3.1,2.6,4.8C519.5,790.9,523,802.6,526.7,814.4z"/>
	<path class="st9" d="M557.8,773.3c2,0,4-0.2,5.9,0c2.5,0.3,6.5-1.3,7.1,2.2c0.7,4.2-3.5,3.7-5.9,3.5c-6-0.3-6.1,4.2-6.6,7.9
		c-1.3,8.6-2.2,17.3-3.3,25.9c-0.3,2.6,0.1,6.3-4.2,5.5c-3.5-0.7-1.6-3.8-1.4-5.8c0.7-7.1,2.1-14.1,2.6-21.2
		c0.3-5.1,4.2-12.6-6.5-12.4c-1.5,0-2.9-1.5-2.1-3.3c0.4-0.9,1.6-1.9,2.5-2c3.9-0.2,7.9-0.1,11.9-0.1
		C557.8,773.4,557.8,773.4,557.8,773.3z"/>
	<path class="st10" d="M268.4,818.3c-11.2,2.3-14.6-1-12.7-10.2c1.6-8.1,1.9-16.5,3.4-24.7c0.6-3.4-0.8-9.8,4.6-9
		c3.9,0.5,1.5,6.1,1.2,9.4c-0.7,7.5-1.9,14.9-3.2,22.3c-0.8,4.5-0.9,7.7,5.2,7.7c3.2,0,9.1-1.9,9,2.2
		C275.7,821.5,269.5,817.9,268.4,818.3z"/>
	<path class="st11" d="M691,807.1c1.2-9.4,2.4-18.8,3.7-28.2c0.3-2.3,0.9-5.3,3.9-4.9c3.4,0.4,2.4,3.5,2.1,5.6
		c-1.4,11-2.9,21.9-4.4,32.9c-0.4,2.5,0.3,6.4-3.8,5.9c-4.4-0.5-2.1-4.2-2.1-6.6c0-1.6,0.5-3.1,0.8-4.7
		C691.1,807.1,691.1,807.1,691,807.1z"/>
	<path class="st12" d="M615.1,761.2c-2.2,2.4-3.7,6.3-7.9,7.4c-0.3,0.1-1.6-2.1-1.4-2.3c2.5-2.7,2.9-7.7,7.9-7.8
		C614.8,758.5,616.2,758.9,615.1,761.2z"/>
	<path class="st13" d="M624.7,794.4c0.2,11.6-8.5,21-19.6,20.9c-9.4,0-16.5-6.8-16.9-16.3c-0.5-11.8,7.8-21,19.1-21.3
		C617.6,777.5,624.5,784.1,624.7,794.4z"/>
	<path class="st14" d="M408.6,815.3c-9.8,0.3-17.7-7.1-18-16.8c-0.3-10.6,8.5-20.2,19-20.8c10.2-0.5,17.7,6.1,18.3,16.1
		C428.5,805.2,419.7,814.9,408.6,815.3z"/>
	<path class="st15" d="M741.7,777.8c10.1,0.1,17,7.1,16.9,17.3c-0.1,11.3-9.1,20.4-20.3,20.6c-10.4,0.2-16.9-6.6-16.7-17.3
		C721.9,786.6,730.6,777.7,741.7,777.8z"/>
	<path class="st16" d="M353.9,813.9c-3.8,0.2-7.7,0.2-6.7-5.3c0.8-4.2-0.6-10.4,6.9-10.3c4.5,0.1,9.3,0.4,9.7,6.4
		C364.2,811.5,359.8,813.6,353.9,813.9z"/>
	<path class="st17" d="M364.8,785.5c-0.7,5.8-4.9,7.5-9.9,8c-3.9,0.4-6.1-1.2-5.2-5.4c0.8-3.9-0.6-9.6,5.8-9.6
		C360,778.4,364.1,779.9,364.8,785.5z"/>
	<path class="st18" d="M655,787.6c0.9-4.5-0.7-10.2,6.7-8.8c4.4,0.8,9,1.6,8.2,7.8c-0.8,6-5.3,7.3-10.4,7.5
		C653.9,794.4,654.1,790.9,655,787.6z"/>
	<path class="st19" d="M461.5,794.2c-2.9,0.3-5.2-1.6-4.2-5.6c1-4.1-0.8-10.7,6.9-10c4.4,0.4,9.3,1.6,8.7,7.6
		C472.4,792,467.9,793.8,461.5,794.2z"/>
	<path class="st20" d="M308.1,803.3c-2.1-0.8-7,1.6-5.4-3.3c1.6-4.6,3.6-11.3,8.3-11.6c3.8-0.3,4.2,6.7,4.6,10.7
		C316.3,805,311.1,802.6,308.1,803.3z"/>
	<path class="st21" d="M509.3,803.2c-2-1-6.9,1.5-5.7-3.1c1.3-4.6,3.6-11.3,8.1-11.8c4-0.5,4,6.6,4.7,10.4
		C517.7,804.7,512.3,802.5,509.3,803.2z"/>
</g>
</svg>
