<?xml version="1.0" encoding="utf-8"?>
<!-- Generator: Adobe Illustrator 25.2.1, SVG Export Plug-In . SVG Version: 6.00 Build 0)  -->
<svg version="1.1" id="Camada_1" xmlns="http://www.w3.org/2000/svg" xmlns:xlink="http://www.w3.org/1999/xlink" x="0px" y="0px"
	 viewBox="0 0 247.2 202.1" style="enable-background:new 0 0 247.2 202.1;" xml:space="preserve">
<style type="text/css">
	.st0{clip-path:url(#SVGID_2_);fill-rule:evenodd;clip-rule:evenodd;fill:#FFFFFF;}
	.st1{clip-path:url(#SVGID_2_);}
	.st2{clip-path:url(#SVGID_4_);}
	
		.st3{clip-path:url(#SVGID_2_);fill:none;stroke:#385E5D;stroke-width:0.7416;stroke-linecap:round;stroke-linejoin:round;stroke-miterlimit:22.9256;}
	.st4{clip-path:url(#SVGID_2_);fill-rule:evenodd;clip-rule:evenodd;fill:#426752;}
	.st5{clip-path:url(#SVGID_2_);fill:#FFFFFF;}
	.st6{clip-path:url(#SVGID_2_);fill:#426752;}
	.st7{clip-path:url(#SVGID_2_);fill:#001C56;}
</style>
<g>
	<g>
		<defs>
			<rect id="SVGID_1_" y="64" width="247.2" height="74.2"/>
		</defs>
		<clipPath id="SVGID_2_">
			<use xlink:href="#SVGID_1_"  style="overflow:visible;"/>
		</clipPath>
		<rect x="-0.1" y="64.1" class="st0" width="247.2" height="74.2"/>
		<g class="st1">
			<defs>
				<path id="SVGID_3_" d="M85.5,75C67.6,52.9,0.2,93.7,7.8,120.7C16.6,152.3,102.8,103.7,85.5,75"/>
			</defs>
			<clipPath id="SVGID_4_">
				<use xlink:href="#SVGID_3_"  style="overflow:visible;"/>
			</clipPath>
			<g class="st2">
				<g>
					<defs>
						<rect id="SVGID_5_" x="0.2" y="52.9" width="102.5" height="99.4"/>
					</defs>
					<clipPath id="SVGID_6_">
						<use xlink:href="#SVGID_5_"  style="overflow:visible;"/>
					</clipPath>
					<g style="clip-path:url(#SVGID_6_);">
						
							<image style="overflow:visible;" width="428" height="415" xlink:href="127A08F4.jpg"  transform="matrix(0.24 0 0 0.24 0.24 52.82)">
						</image>
					</g>
				</g>
			</g>
		</g>
		<path class="st0" d="M48.8,83c-5.7,4.7-11.3,22.7-8,28c0.4,0.6,1.7,0.7,2.8,0.4c3.4-0.8,8.2-4.8,12.2-7.7c0.7-0.5,1.5-0.4,1.4,0.4
			c-0.4,2.7-1.4,5.9-2.9,7.6c-2.8,3.3-10.3,7.1-15.2,6.6c-6.1-0.9-9.3-8.3-9-13.3C31.6,91,43,77.7,52.2,78.2
			c9.4,1.6,5.9,20.2-5.3,26.6c-1.5,0.4-2.3-0.4-1.9-1.9c3.1-5.8,4.8-12,4.8-18.6C49.7,83.1,49.4,82.6,48.8,83"/>
		<path class="st3" d="M51,83c-5.7,4.7-11.3,22.7-8,28c0.4,0.6,1.7,0.7,2.8,0.4c3.4-0.8,8.2-4.8,12.2-7.7c0.7-0.5,1.5-0.4,1.4,0.4
			c-0.4,2.7-1.4,5.9-2.9,7.6c-2.8,3.3-10.3,7.1-15.2,6.6c-6.1-0.9-9.3-8.3-9-13.3c1.5-13.9,12.9-27.1,22-26.7
			c9.4,1.6,5.9,20.2-5.3,26.6c-1.5,0.4-2.3-0.4-1.9-1.9c3.1-5.8,4.8-12,4.8-18.6C51.9,83.1,51.6,82.6,51,83z"/>
		<path class="st4" d="M51,83c-5.7,4.7-11.3,22.7-8,28c0.4,0.6,1.7,0.7,2.8,0.4c3.4-0.8,8.2-4.8,12.2-7.7c0.7-0.5,1.5-0.4,1.4,0.4
			c-0.4,2.7-1.4,5.9-2.9,7.6c-2.8,3.3-10.3,7.1-15.2,6.6c-6.1-0.9-9.3-8.3-9-13.3c1.5-13.9,12.9-27.1,22-26.7
			c9.4,1.6,5.9,20.2-5.3,26.6c-1.5,0.4-2.3-0.4-1.9-1.9c3.1-5.8,4.8-12,4.8-18.6C51.9,83.1,51.6,82.6,51,83"/>
		<path class="st5" d="M99.7,112.8c0.8,0,1.5-0.7,2.2-2c0.7-1.3,1-2.6,1-3.7c0-0.4-0.1-0.8-0.3-1c-0.2-0.2-0.5-0.4-0.8-0.4
			c-0.8,0-1.5,0.7-2.2,2c-0.7,1.3-1.1,2.6-1.1,3.7c0,0.4,0.1,0.8,0.3,1C99.1,112.7,99.4,112.8,99.7,112.8 M108.4,112.2
			c-1.3,1.2-2.2,2-2.7,2.3c-0.5,0.4-1.1,0.5-1.6,0.5c-1.2,0-1.8-1.1-1.8-3.3c-0.8,1.1-1.5,2-2.2,2.5c-0.7,0.5-1.4,0.8-2.1,0.8
			c-0.7,0-1.3-0.3-1.8-1c-0.5-0.6-0.7-1.4-0.7-2.4c0-1.2,0.3-2.3,1-3.4c0.6-1.1,1.5-1.9,2.5-2.6c1-0.7,1.9-1,2.7-1
			c1,0,1.7,0.5,2.1,1.4l2.4-1.3h0.7l-1,3.5c-0.5,1.7-0.8,2.9-0.8,3.6c0,0.7,0.2,1,0.7,1c0.3,0,0.6-0.2,1-0.5
			c0.4-0.3,0.9-0.8,1.6-1.5V112.2z M91.2,107.5c1-1.1,1.8-2.4,2.4-3.7c0.6-1.4,0.9-2.6,0.9-3.6c0-0.3,0-0.5-0.1-0.7
			c-0.1-0.2-0.2-0.3-0.3-0.3c-0.3,0-0.7,0.7-1.3,2.2C92.3,102.9,91.8,104.9,91.2,107.5z M95.7,112.2c-1.1,1-2,1.7-2.8,2.2
			c-0.8,0.5-1.6,0.7-2.3,0.7c-0.8,0-1.5-0.3-2-1c-0.5-0.7-0.8-1.5-0.8-2.6c0-1.7,0.4-3.6,1.1-6c0.7-2.3,1.6-4.5,2.6-6.4l3-1.1
			c0.1,0,0.2,0,0.2,0c0.2,0,0.4,0.2,0.6,0.5c0.1,0.3,0.2,0.8,0.2,1.4c0,1.6-0.4,3.2-1.1,4.7c-0.7,1.5-1.9,3.1-3.5,4.8
			c-0.1,0.8-0.1,1.4-0.1,1.7c0,0.7,0.1,1.2,0.4,1.6c0.3,0.4,0.6,0.6,1,0.6c0.4,0,0.9-0.2,1.4-0.5c0.5-0.3,1.2-0.9,2.2-1.9V112.2z
			 M87.9,112.2c-1,1-1.9,1.7-2.6,2.2c-0.7,0.5-1.3,0.7-1.9,0.7c-0.6,0-1.1-0.2-1.4-0.7c-0.3-0.5-0.5-1.2-0.5-2
			c-0.9,1-1.6,1.7-2.3,2.1c-0.7,0.5-1.4,0.7-2,0.7c-0.6,0-1.1-0.2-1.4-0.7c-0.4-0.5-0.5-1.2-0.5-2c0-1.6,0.6-4,1.7-6.9l3.1-0.6
			c-1.3,3.8-1.9,6.2-1.9,7.3c0,0.8,0.3,1.1,0.9,1.1c0.4,0,0.9-0.3,1.5-1c0.6-0.7,1-1.2,1.1-1.7l1.6-5l3.2-0.6c-0.7,2.4-1.3,4-1.5,5
			c-0.3,1-0.4,1.6-0.4,2c0,0.7,0.3,1.1,0.8,1.1c0.4,0,1-0.4,1.8-1.1l1-0.9V112.2z M70.8,107.5c1-1.1,1.8-2.4,2.4-3.7
			c0.6-1.4,0.9-2.6,0.9-3.6c0-0.3,0-0.5-0.1-0.7c-0.1-0.2-0.2-0.3-0.3-0.3c-0.3,0-0.7,0.7-1.3,2.2C71.8,102.9,71.3,104.9,70.8,107.5
			z M75.3,112.2c-1.1,1-2,1.7-2.8,2.2c-0.8,0.5-1.6,0.7-2.3,0.7c-0.8,0-1.5-0.3-2-1c-0.5-0.7-0.8-1.5-0.8-2.6c0-1.7,0.4-3.6,1.1-6
			c0.7-2.3,1.6-4.5,2.6-6.4l3-1.1c0.1,0,0.2,0,0.2,0c0.2,0,0.4,0.2,0.6,0.5c0.1,0.3,0.2,0.8,0.2,1.4c0,1.6-0.4,3.2-1.1,4.7
			c-0.7,1.5-1.9,3.1-3.5,4.8c-0.1,0.8-0.1,1.4-0.1,1.7c0,0.7,0.1,1.2,0.4,1.6c0.3,0.4,0.6,0.6,1,0.6c0.4,0,0.9-0.2,1.4-0.5
			c0.5-0.3,1.2-0.9,2.2-1.9V112.2z M68.2,99c-0.2,0.9-0.7,1.6-1.3,2.3c-0.7,0.7-1.7,1.4-3.1,2.1l-0.7-0.2c1.2-1.4,2-2.7,2.4-3.9
			L68.2,99z M61.3,110c2-0.6,3-1.6,3-3.1c0-0.8-0.3-1.1-0.8-1.1c-0.5,0-1,0.4-1.5,1.2C61.5,107.7,61.3,108.7,61.3,110z M67.5,112.2
			c-1,1-1.9,1.7-2.7,2.2c-0.8,0.5-1.7,0.7-2.6,0.7c-1.1,0-1.9-0.3-2.6-1c-0.7-0.7-1-1.6-1-2.7c0-1.7,0.6-3.2,1.7-4.5
			c1.2-1.4,2.4-2,3.9-2c0.7,0,1.3,0.2,1.8,0.6c0.4,0.4,0.7,0.9,0.7,1.5c0,1.6-1.7,3-5.2,4c0.3,1.5,1.1,2.3,2.5,2.3
			c0.5,0,1-0.1,1.5-0.4c0.5-0.3,1.2-0.9,2.1-1.9V112.2z"/>
		<path class="st3" d="M100.5,111.6c0.8,0,1.5-0.7,2.2-2c0.7-1.3,1-2.6,1-3.7c0-0.4-0.1-0.8-0.3-1c-0.2-0.2-0.5-0.4-0.8-0.4
			c-0.8,0-1.5,0.7-2.2,2c-0.7,1.3-1.1,2.6-1.1,3.7c0,0.4,0.1,0.8,0.3,1C99.9,111.5,100.2,111.6,100.5,111.6z M109.2,111
			c-1.3,1.2-2.2,2-2.7,2.3c-0.5,0.4-1.1,0.5-1.6,0.5c-1.2,0-1.8-1.1-1.8-3.3c-0.8,1.1-1.5,2-2.2,2.5c-0.7,0.5-1.4,0.8-2.1,0.8
			c-0.7,0-1.3-0.3-1.8-1c-0.5-0.6-0.7-1.4-0.7-2.4c0-1.2,0.3-2.3,1-3.4c0.6-1.1,1.5-1.9,2.5-2.6c1-0.7,1.9-1,2.7-1
			c1,0,1.7,0.5,2.1,1.4l2.4-1.3h0.7l-1,3.5c-0.5,1.7-0.8,2.9-0.8,3.6c0,0.7,0.2,1,0.7,1c0.3,0,0.6-0.2,1-0.5
			c0.4-0.3,0.9-0.8,1.6-1.5V111z M92,106.4c1-1.1,1.8-2.4,2.4-3.7c0.6-1.4,0.9-2.6,0.9-3.6c0-0.3,0-0.5-0.1-0.7
			c-0.1-0.2-0.2-0.3-0.3-0.3c-0.3,0-0.7,0.7-1.3,2.2C93.1,101.7,92.6,103.8,92,106.4z M96.6,111c-1.1,1-2,1.7-2.8,2.2
			c-0.8,0.5-1.6,0.7-2.3,0.7c-0.8,0-1.5-0.3-2-1c-0.5-0.7-0.8-1.5-0.8-2.6c0-1.7,0.4-3.6,1.1-6c0.7-2.3,1.6-4.5,2.6-6.4l3-1.1
			c0.1,0,0.2,0,0.2,0c0.2,0,0.4,0.2,0.6,0.5c0.1,0.3,0.2,0.8,0.2,1.4c0,1.6-0.4,3.2-1.1,4.7c-0.7,1.5-1.9,3.1-3.5,4.8
			c-0.1,0.8-0.1,1.4-0.1,1.7c0,0.7,0.1,1.2,0.4,1.6c0.3,0.4,0.6,0.6,1,0.6c0.4,0,0.9-0.2,1.4-0.5c0.5-0.3,1.2-0.9,2.2-1.9V111z
			 M88.7,111c-1,1-1.9,1.7-2.6,2.2c-0.7,0.5-1.3,0.7-1.9,0.7c-0.6,0-1.1-0.2-1.4-0.7c-0.3-0.5-0.5-1.2-0.5-2c-0.9,1-1.6,1.7-2.3,2.1
			c-0.7,0.5-1.4,0.7-2,0.7c-0.6,0-1.1-0.2-1.4-0.7c-0.4-0.5-0.5-1.2-0.5-2c0-1.6,0.6-4,1.7-6.9l3.1-0.6c-1.3,3.8-1.9,6.2-1.9,7.3
			c0,0.8,0.3,1.1,0.9,1.1c0.4,0,0.9-0.3,1.5-1c0.6-0.7,1-1.2,1.1-1.7l1.6-5l3.2-0.6c-0.7,2.4-1.3,4-1.5,5c-0.3,1-0.4,1.6-0.4,2
			c0,0.7,0.3,1.1,0.8,1.1c0.4,0,1-0.4,1.8-1.1l1-0.9V111z M71.6,106.4c1-1.1,1.8-2.4,2.4-3.7c0.6-1.4,0.9-2.6,0.9-3.6
			c0-0.3,0-0.5-0.1-0.7c-0.1-0.2-0.2-0.3-0.3-0.3c-0.3,0-0.7,0.7-1.3,2.2C72.7,101.7,72.1,103.8,71.6,106.4z M76.1,111
			c-1.1,1-2,1.7-2.8,2.2c-0.8,0.5-1.6,0.7-2.3,0.7c-0.8,0-1.5-0.3-2-1c-0.5-0.7-0.8-1.5-0.8-2.6c0-1.7,0.4-3.6,1.1-6
			c0.7-2.3,1.6-4.5,2.6-6.4l3-1.1c0.1,0,0.2,0,0.2,0c0.2,0,0.4,0.2,0.6,0.5c0.1,0.3,0.2,0.8,0.2,1.4c0,1.6-0.4,3.2-1.1,4.7
			c-0.7,1.5-1.9,3.1-3.5,4.8c-0.1,0.8-0.1,1.4-0.1,1.7c0,0.7,0.1,1.2,0.4,1.6c0.3,0.4,0.6,0.6,1,0.6c0.4,0,0.9-0.2,1.4-0.5
			c0.5-0.3,1.2-0.9,2.2-1.9V111z M69.1,97.9c-0.2,0.9-0.7,1.6-1.3,2.3c-0.7,0.7-1.7,1.4-3.1,2.1l-0.7-0.2c1.2-1.4,2-2.7,2.4-3.9
			L69.1,97.9z M62.1,108.8c2-0.6,3-1.6,3-3.1c0-0.8-0.3-1.1-0.8-1.1c-0.5,0-1,0.4-1.5,1.2C62.3,106.5,62.1,107.5,62.1,108.8z
			 M68.3,111c-1,1-1.9,1.7-2.7,2.2c-0.8,0.5-1.7,0.7-2.6,0.7c-1.1,0-1.9-0.3-2.6-1c-0.7-0.7-1-1.6-1-2.7c0-1.7,0.6-3.2,1.7-4.5
			c1.2-1.4,2.4-2,3.9-2c0.7,0,1.3,0.2,1.8,0.6c0.4,0.4,0.7,0.9,0.7,1.5c0,1.6-1.7,3-5.2,4c0.3,1.5,1.1,2.3,2.5,2.3
			c0.5,0,1-0.1,1.5-0.4c0.5-0.3,1.2-0.9,2.1-1.9V111z"/>
		<path class="st6" d="M100.5,111.6c0.8,0,1.5-0.7,2.2-2c0.7-1.3,1-2.6,1-3.7c0-0.4-0.1-0.8-0.3-1c-0.2-0.2-0.5-0.4-0.8-0.4
			c-0.8,0-1.5,0.7-2.2,2c-0.7,1.3-1.1,2.6-1.1,3.7c0,0.4,0.1,0.8,0.3,1C99.9,111.5,100.2,111.6,100.5,111.6 M109.2,111
			c-1.3,1.2-2.2,2-2.7,2.3c-0.5,0.4-1.1,0.5-1.6,0.5c-1.2,0-1.8-1.1-1.8-3.3c-0.8,1.1-1.5,2-2.2,2.5c-0.7,0.5-1.4,0.8-2.1,0.8
			c-0.7,0-1.3-0.3-1.8-1c-0.5-0.6-0.7-1.4-0.7-2.4c0-1.2,0.3-2.3,1-3.4c0.6-1.1,1.5-1.9,2.5-2.6c1-0.7,1.9-1,2.7-1
			c1,0,1.7,0.5,2.1,1.4l2.4-1.3h0.7l-1,3.5c-0.5,1.7-0.8,2.9-0.8,3.6c0,0.7,0.2,1,0.7,1c0.3,0,0.6-0.2,1-0.5
			c0.4-0.3,0.9-0.8,1.6-1.5V111z M92,106.4c1-1.1,1.8-2.4,2.4-3.7c0.6-1.4,0.9-2.6,0.9-3.6c0-0.3,0-0.5-0.1-0.7
			c-0.1-0.2-0.2-0.3-0.3-0.3c-0.3,0-0.7,0.7-1.3,2.2C93.1,101.7,92.6,103.8,92,106.4z M96.6,111c-1.1,1-2,1.7-2.8,2.2
			c-0.8,0.5-1.6,0.7-2.3,0.7c-0.8,0-1.5-0.3-2-1c-0.5-0.7-0.8-1.5-0.8-2.6c0-1.7,0.4-3.6,1.1-6c0.7-2.3,1.6-4.5,2.6-6.4l3-1.1
			c0.1,0,0.2,0,0.2,0c0.2,0,0.4,0.2,0.6,0.5c0.1,0.3,0.2,0.8,0.2,1.4c0,1.6-0.4,3.2-1.1,4.7c-0.7,1.5-1.9,3.1-3.5,4.8
			c-0.1,0.8-0.1,1.4-0.1,1.7c0,0.7,0.1,1.2,0.4,1.6c0.3,0.4,0.6,0.6,1,0.6c0.4,0,0.9-0.2,1.4-0.5c0.5-0.3,1.2-0.9,2.2-1.9V111z
			 M88.7,111c-1,1-1.9,1.7-2.6,2.2c-0.7,0.5-1.3,0.7-1.9,0.7c-0.6,0-1.1-0.2-1.4-0.7c-0.3-0.5-0.5-1.2-0.5-2c-0.9,1-1.6,1.7-2.3,2.1
			c-0.7,0.5-1.4,0.7-2,0.7c-0.6,0-1.1-0.2-1.4-0.7c-0.4-0.5-0.5-1.2-0.5-2c0-1.6,0.6-4,1.7-6.9l3.1-0.6c-1.3,3.8-1.9,6.2-1.9,7.3
			c0,0.8,0.3,1.1,0.9,1.1c0.4,0,0.9-0.3,1.5-1c0.6-0.7,1-1.2,1.1-1.7l1.6-5l3.2-0.6c-0.7,2.4-1.3,4-1.5,5c-0.3,1-0.4,1.6-0.4,2
			c0,0.7,0.3,1.1,0.8,1.1c0.4,0,1-0.4,1.8-1.1l1-0.9V111z M71.6,106.4c1-1.1,1.8-2.4,2.4-3.7c0.6-1.4,0.9-2.6,0.9-3.6
			c0-0.3,0-0.5-0.1-0.7c-0.1-0.2-0.2-0.3-0.3-0.3c-0.3,0-0.7,0.7-1.3,2.2C72.7,101.7,72.1,103.8,71.6,106.4z M76.1,111
			c-1.1,1-2,1.7-2.8,2.2c-0.8,0.5-1.6,0.7-2.3,0.7c-0.8,0-1.5-0.3-2-1c-0.5-0.7-0.8-1.5-0.8-2.6c0-1.7,0.4-3.6,1.1-6
			c0.7-2.3,1.6-4.5,2.6-6.4l3-1.1c0.1,0,0.2,0,0.2,0c0.2,0,0.4,0.2,0.6,0.5c0.1,0.3,0.2,0.8,0.2,1.4c0,1.6-0.4,3.2-1.1,4.7
			c-0.7,1.5-1.9,3.1-3.5,4.8c-0.1,0.8-0.1,1.4-0.1,1.7c0,0.7,0.1,1.2,0.4,1.6c0.3,0.4,0.6,0.6,1,0.6c0.4,0,0.9-0.2,1.4-0.5
			c0.5-0.3,1.2-0.9,2.2-1.9V111z M69.1,97.9c-0.2,0.9-0.7,1.6-1.3,2.3c-0.7,0.7-1.7,1.4-3.1,2.1l-0.7-0.2c1.2-1.4,2-2.7,2.4-3.9
			L69.1,97.9z M62.1,108.8c2-0.6,3-1.6,3-3.1c0-0.8-0.3-1.1-0.8-1.1c-0.5,0-1,0.4-1.5,1.2C62.3,106.5,62.1,107.5,62.1,108.8z
			 M68.3,111c-1,1-1.9,1.7-2.7,2.2c-0.8,0.5-1.7,0.7-2.6,0.7c-1.1,0-1.9-0.3-2.6-1c-0.7-0.7-1-1.6-1-2.7c0-1.7,0.6-3.2,1.7-4.5
			c1.2-1.4,2.4-2,3.9-2c0.7,0,1.3,0.2,1.8,0.6c0.4,0.4,0.7,0.9,0.7,1.5c0,1.6-1.7,3-5.2,4c0.3,1.5,1.1,2.3,2.5,2.3
			c0.5,0,1-0.1,1.5-0.4c0.5-0.3,1.2-0.9,2.1-1.9V111z"/>
		<path class="st7" d="M156.3,126.1c0,0.1,0,0.3-0.1,0.6c-0.1,0.3-0.1,0.5-0.2,0.5c-0.2-0.1-0.3-0.2-0.5-0.2
			c-0.2-0.1-0.4-0.1-0.6-0.1c-0.5,0-0.9,0.2-1.2,0.5c-0.3,0.4-0.5,0.8-0.5,1.3c0,0.5,0.2,0.9,0.5,1.3c0.3,0.4,0.7,0.6,1.2,0.6
			c0.3,0,0.5-0.1,0.7-0.2c0.2-0.1,0.4-0.2,0.3-0.2c0,0,0.1,0.2,0.2,0.5c0.1,0.3,0.1,0.5,0.1,0.6c0,0.1-0.2,0.2-0.7,0.4
			c-0.4,0.1-0.6,0.1-0.8,0.1c-0.8,0-1.4-0.3-2-0.9c-0.5-0.6-0.8-1.3-0.8-2.2c0-0.8,0.3-1.6,0.8-2.2c0.5-0.6,1.2-0.9,2-0.9
			c0.5,0,1,0.1,1.5,0.4C156.3,126,156.3,126.1,156.3,126.1 M151.2,126c0,0.3,0,0.8-0.1,1.4c0,0.6-0.1,1.1-0.1,1.4c0,0.3,0,0.7,0,1.3
			c0,0.6,0,1,0,1.3c0,0.1,0,0.1-0.1,0.1H150c-0.1,0-0.1-0.1-0.1-0.2c0-0.3,0-0.7,0-1.2c0-0.6,0-1,0-1.3c0-0.3,0-0.8-0.1-1.4
			c0-0.6-0.1-1.1-0.1-1.4c0-0.1,0-0.1,0.1-0.1c0.1,0,0.2,0,0.3,0c0.1,0,0.2,0,0.3,0c0.1,0,0.2,0,0.3,0c0.1,0,0.2,0,0.3,0
			C151.2,125.9,151.2,125.9,151.2,126z M151.3,124.4c0,0.5-0.3,0.7-0.8,0.7c-0.5,0-0.8-0.2-0.8-0.7c0-0.2,0.1-0.4,0.2-0.5
			c0.2-0.1,0.3-0.2,0.5-0.2c0.2,0,0.4,0.1,0.5,0.2C151.2,124,151.3,124.1,151.3,124.4z M147.4,128.4c0-0.4-0.1-0.8-0.3-1.1
			c-0.3-0.3-0.6-0.5-1-0.5c-0.4,0-0.7,0.2-1,0.5c-0.2,0.3-0.3,0.7-0.3,1.1c0,0.4,0.1,0.8,0.4,1.1c0.3,0.3,0.6,0.5,1,0.5
			c0.4,0,0.7-0.2,1-0.5C147.3,129.2,147.4,128.9,147.4,128.4z M148.8,126c0,0.5,0,1.2,0,2.2c0,1,0,1.7,0,2.2c0,1-0.2,1.7-0.6,2.1
			c-0.4,0.5-1.1,0.7-1.9,0.7c-0.9,0-1.5-0.2-2.1-0.5c-0.1-0.1-0.1-0.1-0.1-0.1c0,0,0.1-0.3,0.2-0.9c0-0.1,0-0.1,0.1-0.1
			c0,0,0,0,0.1,0c0.6,0.3,1.1,0.5,1.7,0.5c0.4,0,0.7-0.1,0.9-0.3c0.3-0.2,0.4-0.5,0.4-0.9c0-0.1,0-0.3,0-0.6c-0.4,0.5-1,0.8-1.6,0.8
			c-0.7,0-1.3-0.3-1.7-0.8c-0.4-0.5-0.6-1.1-0.6-1.9c0-0.8,0.2-1.4,0.6-1.9c0.4-0.6,1-0.9,1.7-0.9c0.6,0,1.1,0.3,1.5,0.8
			c0.1,0.1,0.1,0.1,0.1,0.1c0,0,0,0,0-0.1c0-0.1,0-0.1,0-0.2c0-0.1,0-0.2,0-0.3c0-0.2,0-0.4,0.1-0.4c0,0,0.2,0,0.6,0.1
			c0.4,0.1,0.6,0.1,0.6,0.1C148.7,125.8,148.8,125.9,148.8,126z M142,123.6c-0.1,0.2-0.5,0.5-1.3,0.9c-0.8,0.4-1.2,0.7-1.4,0.7
			c-0.1,0-0.1-0.1-0.2-0.3c0-0.2-0.1-0.3-0.1-0.4c0,0,0-0.1,0.1-0.1c0.6-0.3,1.3-0.8,1.9-1.3c0,0,0,0,0.1-0.1c0,0,0,0,0.1,0.1
			C141.4,123.2,141.6,123.4,142,123.6C141.9,123.5,141.9,123.6,142,123.6z M141.8,128.6c0-0.5-0.1-0.9-0.4-1.2
			c-0.3-0.4-0.7-0.5-1.1-0.5c-0.5,0-0.8,0.2-1.1,0.5c-0.3,0.3-0.4,0.8-0.4,1.3c0,0.5,0.1,0.9,0.4,1.2c0.3,0.4,0.7,0.6,1.1,0.6
			c0.5,0,0.8-0.2,1.1-0.6C141.6,129.5,141.8,129.1,141.8,128.6z M143,128.6c0,0.8-0.3,1.6-0.8,2.1c-0.5,0.6-1.2,0.9-2,0.9
			c-0.8,0-1.4-0.3-2-0.9c-0.5-0.6-0.8-1.3-0.8-2.1c0-0.8,0.3-1.6,0.8-2.1c0.5-0.6,1.2-0.9,2-0.9c0.8,0,1.4,0.3,2,0.9
			C142.7,127.1,143,127.8,143,128.6z M136.7,123.2L136.7,123.2c-0.1,1.6-0.1,2.8-0.1,3.9c0,0.5,0,1.2,0,2.1c0,1,0,1.7,0,2.1
			c0,0.1,0,0.1-0.1,0.1h-1.1c-0.1,0-0.1,0-0.1-0.1c0-0.5,0-1.2,0-2.1c0-1,0-1.7,0-2.1c0-0.4,0-1.1-0.1-2c0-0.9-0.1-1.5-0.1-1.9
			c0-0.1,0-0.1,0.1-0.1c0.1,0,0.2,0,0.3,0c0.1,0,0.2,0,0.3,0c0.1,0,0.2,0,0.3,0C136.4,123.1,136.6,123.1,136.7,123.2
			C136.7,123.1,136.7,123.2,136.7,123.2z M133.3,128.6c0-0.5-0.1-0.9-0.4-1.2c-0.3-0.4-0.7-0.5-1.1-0.5c-0.5,0-0.8,0.2-1.1,0.5
			c-0.3,0.3-0.4,0.8-0.4,1.3c0,0.5,0.1,0.9,0.4,1.2c0.3,0.4,0.7,0.6,1.1,0.6c0.5,0,0.8-0.2,1.1-0.6
			C133.1,129.5,133.3,129.1,133.3,128.6z M134.5,128.6c0,0.8-0.3,1.6-0.8,2.1c-0.5,0.6-1.2,0.9-2,0.9c-0.8,0-1.4-0.3-2-0.9
			c-0.5-0.6-0.8-1.3-0.8-2.1c0-0.8,0.3-1.6,0.8-2.1c0.5-0.6,1.2-0.9,2-0.9c0.8,0,1.4,0.3,2,0.9C134.2,127.1,134.5,127.8,134.5,128.6
			z M128.5,130.4c0,0.1,0,0.2,0,0.4c0,0.2,0,0.3,0,0.4c0,0.1,0,0.1,0,0.1c0,0-0.1,0.1-0.1,0.1c-0.3,0.2-0.8,0.2-1.5,0.2
			c-0.9,0-1.3-0.4-1.3-1.3c0-0.3,0-0.9,0-1.5c0-0.7,0-1.2,0-1.5c0-0.2-0.1-0.3-0.2-0.3c-0.1,0-0.3,0-0.4,0c-0.1,0-0.1-0.2-0.1-0.5
			c0-0.1,0-0.2,0-0.4c0-0.1,0.1-0.2,0.2-0.2c0.1,0,0.2,0,0.3,0c0.2,0,0.3-0.1,0.3-0.2c0-0.2,0-0.4,0-0.7c0-0.3,0-0.6,0-0.7
			c0-0.3,0.1-0.4,0.2-0.4c0,0,0.4,0.1,1.1,0.2c0.1,0,0.1,0.1,0.1,0.1c0,0.2,0,0.4,0,0.8c0,0.4,0,0.6,0,0.8c0,0.1,0.1,0.2,0.2,0.2
			h1.4c0.1,0,0.1,0,0.1,0.1c0,0,0,0.1,0,0.2c0,0.1,0,0.2,0,0.2c0,0.1,0,0.2,0,0.3c0,0.1,0,0.2,0,0.3c0,0.1-0.1,0.1-0.2,0.1
			c-0.2,0-0.4,0-0.7,0c-0.3,0-0.5,0-0.7,0c0,0-0.1,0.1-0.1,0.3c0,0.3,0,0.7,0,1.2v0.9c0,0.3,0,0.6,0.1,0.7c0.1,0.2,0.3,0.3,0.6,0.3
			c0.1,0,0.3,0,0.5-0.1c0.2-0.1,0.4-0.1,0.5-0.1C128.5,130.3,128.5,130.4,128.5,130.4z M123,128.6c0-0.5-0.1-0.9-0.4-1.3
			c-0.3-0.4-0.7-0.6-1.1-0.6c-0.5,0-0.8,0.2-1.1,0.6c-0.3,0.4-0.4,0.8-0.4,1.3c0,0.5,0.1,0.9,0.4,1.3c0.3,0.4,0.7,0.6,1.1,0.6
			c0.4,0,0.8-0.2,1.1-0.6C122.9,129.5,123,129.1,123,128.6z M124.5,126.1c0,0,0,0.1,0,0.1c-0.1,0.9-0.2,1.7-0.2,2.4
			c0,0,0,0.9,0.1,2.7l0,0.1c0,0.1,0,0.2-0.2,0.2c-0.1,0-0.3,0-0.5,0c-0.2,0-0.4,0-0.5,0c-0.1,0-0.1-0.1-0.2-0.4
			c0-0.3-0.1-0.4-0.1-0.4c0,0-0.1,0.1-0.3,0.2c-0.2,0.2-0.4,0.3-0.6,0.4c-0.3,0.2-0.6,0.2-0.9,0.2c-0.7,0-1.3-0.3-1.9-0.9
			c-0.5-0.6-0.7-1.3-0.7-2.1c0-0.9,0.2-1.6,0.7-2.2c0.5-0.6,1.2-0.9,2-0.9c0.6,0,1.1,0.2,1.5,0.6c0.1,0.1,0.2,0.2,0.3,0.3
			c0,0,0,0,0,0c0,0,0.1-0.1,0.1-0.4c0-0.3,0.1-0.4,0.2-0.4c0.1,0,0.3,0,0.6,0.1C124.3,126,124.5,126.1,124.5,126.1z M116.7,126.3
			c0-0.6-0.2-1.1-0.5-1.4c-0.3-0.4-0.8-0.6-1.3-0.6c-0.2,0-0.5,0-0.9,0c-0.5,0-0.8,0.1-0.8,0.1c0,0,0,0.7,0,2.1c0,0.2,0,0.4,0,0.8
			c0,0.3,0,0.6,0,0.8c0,0,0,0.1,0.1,0.1c0.2,0,0.8,0.1,1.7,0.1c0.5,0,0.9-0.2,1.2-0.5C116.6,127.3,116.7,126.9,116.7,126.3z
			 M118.1,126.2c0,0.9-0.2,1.7-0.7,2.3c-0.5,0.6-1.2,0.9-2.1,0.9c-0.2,0-0.5,0-1,0c-0.4,0-0.8,0-1,0c-0.1,0-0.2,0.1-0.2,0.2
			c0,0.2,0,0.5,0,1c0,0.4,0,0.7,0,1c0,0.1,0,0.1-0.1,0.1c-0.1,0-0.2,0-0.4,0c-0.2,0-0.3,0-0.4,0c-0.1,0-0.2,0-0.3,0
			c-0.1,0-0.2,0-0.3,0c-0.1,0-0.1-0.1-0.1-0.2c0-0.4,0-1.1,0.1-2c0-0.9,0.1-1.5,0.1-2c0-1.3,0-2.6-0.1-4l0-0.1c0-0.1,0-0.1,0.1-0.1
			c0.2,0,0.5,0,0.9,0c0.4,0,0.7,0,0.9,0c0.2,0,0.4,0,0.8,0c0.4,0,0.6,0,0.8,0c0.8,0,1.5,0.3,2.1,0.9
			C117.9,124.6,118.1,125.4,118.1,126.2z M106.4,128.6c0-0.5-0.1-0.9-0.4-1.3c-0.3-0.4-0.7-0.6-1.1-0.6c-0.5,0-0.8,0.2-1.1,0.6
			c-0.3,0.4-0.4,0.8-0.4,1.3c0,0.5,0.1,0.9,0.4,1.3c0.3,0.4,0.7,0.6,1.1,0.6c0.4,0,0.8-0.2,1.1-0.6
			C106.3,129.5,106.4,129.1,106.4,128.6z M107.9,126.1c0,0,0,0.1,0,0.1c-0.1,0.9-0.2,1.7-0.2,2.4c0,0,0,0.9,0.1,2.7l0,0.1
			c0,0.1,0,0.2-0.2,0.2c-0.1,0-0.3,0-0.5,0c-0.2,0-0.4,0-0.5,0c-0.1,0-0.1-0.1-0.2-0.4c0-0.3-0.1-0.4-0.1-0.4c0,0-0.1,0.1-0.3,0.2
			c-0.2,0.2-0.4,0.3-0.6,0.4c-0.3,0.2-0.6,0.2-0.9,0.2c-0.7,0-1.3-0.3-1.9-0.9c-0.5-0.6-0.7-1.3-0.7-2.1c0-0.9,0.2-1.6,0.7-2.2
			c0.5-0.6,1.2-0.9,2-0.9c0.6,0,1.1,0.2,1.5,0.6c0.1,0.1,0.2,0.2,0.3,0.3c0,0,0,0,0,0c0,0,0.1-0.1,0.1-0.4c0-0.3,0.1-0.4,0.2-0.4
			c0.1,0,0.3,0,0.6,0.1C107.7,126,107.9,126.1,107.9,126.1z M101.3,126c0,0.3,0,0.8-0.1,1.4c0,0.6-0.1,1.1-0.1,1.4
			c0,0.3,0,0.7,0,1.3c0,0.6,0,1,0,1.3c0,0.1,0,0.1-0.1,0.1H100c-0.1,0-0.1-0.1-0.1-0.2c0-0.3,0-0.7,0-1.2c0-0.6,0-1,0-1.3
			c0-0.3,0-0.8-0.1-1.4c0-0.6-0.1-1.1-0.1-1.4c0-0.1,0-0.1,0.1-0.1c0.1,0,0.2,0,0.3,0c0.1,0,0.2,0,0.3,0c0.1,0,0.2,0,0.3,0
			c0.1,0,0.2,0,0.3,0C101.2,125.9,101.3,125.9,101.3,126z M101.3,124.4c0,0.5-0.3,0.7-0.8,0.7c-0.5,0-0.8-0.2-0.8-0.7
			c0-0.2,0.1-0.4,0.2-0.5c0.2-0.1,0.3-0.2,0.5-0.2c0.2,0,0.4,0.1,0.5,0.2C101.2,124,101.3,124.1,101.3,124.4z M98.7,131.3
			c0,0.2,0,0.2-0.1,0.2c-0.1,0-0.1,0-0.3,0c-0.1,0-0.2,0-0.3,0c-0.1,0-0.2,0-0.3,0c-0.1,0-0.2,0-0.3,0c-0.1,0-0.1-0.1-0.1-0.3
			c0-0.2,0-0.5,0-0.8c0-0.4,0-0.6,0-0.8c0-1,0-1.6,0-1.7c0-0.4-0.1-0.7-0.2-0.9c-0.1-0.2-0.4-0.3-0.8-0.3c-0.2,0-0.5,0.1-0.8,0.4
			c-0.3,0.3-0.5,0.5-0.5,0.7c0,0.3,0,0.9,0,1.7c0,0.2,0,0.5,0,0.9c0,0.4,0,0.7,0,0.9c0,0.1,0,0.2-0.1,0.2c-0.1,0-0.2,0-0.3,0
			c-0.1,0-0.2,0-0.3,0c-0.1,0-0.1,0-0.3,0c-0.1,0-0.2,0-0.3,0c-0.1,0-0.1-0.1-0.1-0.2c0-0.2,0-0.5,0-0.9c0-0.4,0-0.7,0-0.9v-1.4
			c0-0.5-0.1-0.8-0.2-1c-0.1-0.3-0.4-0.4-0.8-0.4c-0.2,0-0.5,0.1-0.8,0.3c-0.4,0.2-0.5,0.5-0.5,0.7v1.8c0,0.2,0,0.5,0,0.9
			c0,0.4,0,0.7,0,0.9c0,0.1,0,0.2-0.1,0.2h-1.1c-0.1,0-0.1-0.1-0.1-0.2c0-0.3,0-0.8,0-1.5c0-0.7,0-1.1,0-1.5c0-0.7-0.1-1.5-0.2-2.2
			c0-0.1,0-0.1,0-0.1c0-0.1,0-0.1,0.1-0.1c0.1,0,0.3,0,0.6-0.1c0.1,0,0.3-0.1,0.6-0.1l0,0c0,0,0.1,0.1,0.1,0.4
			c0,0.3,0.1,0.4,0.1,0.4c0,0,0.1-0.1,0.3-0.3c0.2-0.2,0.4-0.4,0.7-0.5c0.3-0.2,0.6-0.3,1-0.3c0.9,0,1.4,0.4,1.7,1.1
			c0.2-0.3,0.5-0.6,0.9-0.8c0.4-0.2,0.7-0.3,1.1-0.3c0.7,0,1.2,0.2,1.5,0.6c0.2,0.3,0.3,0.8,0.3,1.5c0,0.1,0,0.3,0,0.6
			c0,0.3,0,0.5,0,0.6c0,0.3,0,0.6,0,1.1C98.7,130.7,98.7,131.1,98.7,131.3z M88.1,128.6c0-0.5-0.1-0.9-0.4-1.2
			c-0.3-0.4-0.7-0.5-1.1-0.5c-0.5,0-0.8,0.2-1.1,0.5c-0.3,0.3-0.4,0.8-0.4,1.3c0,0.5,0.1,0.9,0.4,1.2c0.3,0.4,0.7,0.6,1.1,0.6
			c0.5,0,0.8-0.2,1.1-0.6C88,129.5,88.1,129.1,88.1,128.6z M89.3,128.6c0,0.8-0.3,1.6-0.8,2.1c-0.5,0.6-1.2,0.9-2,0.9
			c-0.8,0-1.4-0.3-2-0.9c-0.5-0.6-0.8-1.3-0.8-2.1c0-0.8,0.3-1.6,0.8-2.1c0.5-0.6,1.2-0.9,2-0.9c0.8,0,1.4,0.3,2,0.9
			C89,127.1,89.3,127.8,89.3,128.6z M83.4,130.4c0,0.1,0,0.2,0,0.4c0,0.2,0,0.3,0,0.4c0,0.1,0,0.1,0,0.1c0,0-0.1,0.1-0.1,0.1
			c-0.3,0.2-0.8,0.2-1.5,0.2c-0.9,0-1.3-0.4-1.3-1.3c0-0.3,0-0.9,0-1.5c0-0.7,0-1.2,0-1.5c0-0.2-0.1-0.3-0.2-0.3c-0.1,0-0.3,0-0.4,0
			c-0.1,0-0.1-0.2-0.1-0.5c0-0.1,0-0.2,0-0.4c0-0.1,0.1-0.2,0.2-0.2c0.1,0,0.2,0,0.3,0c0.2,0,0.3-0.1,0.3-0.2c0-0.2,0-0.4,0-0.7
			c0-0.3,0-0.6,0-0.7c0-0.3,0.1-0.4,0.2-0.4c0,0,0.4,0.1,1.1,0.2c0.1,0,0.1,0.1,0.1,0.1c0,0.2,0,0.4,0,0.8c0,0.4,0,0.6,0,0.8
			c0,0.1,0.1,0.2,0.2,0.2h1.4c0.1,0,0.1,0,0.1,0.1c0,0,0,0.1,0,0.2c0,0.1,0,0.2,0,0.2c0,0.1,0,0.2,0,0.3c0,0.1,0,0.2,0,0.3
			c0,0.1-0.1,0.1-0.2,0.1c-0.2,0-0.4,0-0.7,0c-0.3,0-0.5,0-0.7,0c0,0-0.1,0.1-0.1,0.3c0,0.3,0,0.7,0,1.2v0.9c0,0.3,0,0.6,0.1,0.7
			c0.1,0.2,0.3,0.3,0.6,0.3c0.1,0,0.3,0,0.5-0.1c0.2-0.1,0.4-0.1,0.5-0.1C83.3,130.3,83.4,130.4,83.4,130.4z M77.8,128.6
			c0-0.5-0.1-0.9-0.4-1.3c-0.3-0.4-0.7-0.6-1.1-0.6c-0.5,0-0.8,0.2-1.1,0.6c-0.3,0.4-0.4,0.8-0.4,1.3c0,0.5,0.1,0.9,0.4,1.3
			c0.3,0.4,0.7,0.6,1.1,0.6c0.4,0,0.8-0.2,1.1-0.6C77.7,129.5,77.8,129.1,77.8,128.6z M79.3,126.1c0,0,0,0.1,0,0.1
			c-0.1,0.9-0.2,1.7-0.2,2.4c0,0,0,0.9,0.1,2.7l0,0.1c0,0.1,0,0.2-0.2,0.2c-0.1,0-0.3,0-0.5,0c-0.2,0-0.4,0-0.5,0
			c-0.1,0-0.1-0.1-0.2-0.4c0-0.3-0.1-0.4-0.1-0.4c0,0-0.1,0.1-0.3,0.2c-0.2,0.2-0.4,0.3-0.6,0.4c-0.3,0.2-0.6,0.2-0.9,0.2
			c-0.7,0-1.3-0.3-1.9-0.9c-0.5-0.6-0.7-1.3-0.7-2.1c0-0.9,0.2-1.6,0.7-2.2c0.5-0.6,1.2-0.9,2-0.9c0.6,0,1.1,0.2,1.5,0.6
			c0.1,0.1,0.2,0.2,0.3,0.3c0,0,0,0,0,0c0,0,0.1-0.1,0.1-0.4c0-0.3,0.1-0.4,0.2-0.4c0.1,0,0.3,0,0.6,0.1
			C79.1,126,79.3,126.1,79.3,126.1z M72.7,131.4c0,0.1,0,0.1-0.1,0.1c-0.1,0-0.3,0-0.6,0c-0.2,0-0.4,0-0.6,0c-0.1,0-0.1-0.1-0.1-0.2
			c0-0.2,0-0.5,0-0.9c0-0.4,0-0.7,0-0.9c0-0.2,0-0.4,0-0.7c0-0.3,0-0.6,0-0.7c0-0.5-0.1-0.8-0.2-1c-0.2-0.2-0.4-0.3-0.8-0.3
			c-0.2,0-0.5,0.1-0.8,0.3c-0.4,0.2-0.5,0.4-0.5,0.6v3.6c0,0.1,0,0.1-0.1,0.1c-0.1,0-0.3,0-0.5,0c-0.2,0-0.4,0-0.5,0
			c-0.1,0-0.1,0-0.1-0.1c0-0.3,0-0.8,0-1.4c0-0.6,0-1.1,0-1.4c0-0.9-0.1-1.6-0.3-2.4c0,0,0-0.1,0-0.1c0,0,0-0.1,0.1-0.1
			c0,0,0.2,0,0.6-0.1c0.4-0.1,0.6-0.1,0.6-0.1c0,0,0,0,0,0.1c0,0.2,0.1,0.5,0.1,0.8c0.2-0.2,0.5-0.4,0.8-0.6
			c0.4-0.3,0.8-0.4,1.2-0.4c0.7,0,1.2,0.2,1.5,0.7c0.2,0.3,0.3,0.8,0.3,1.6c0,0.1,0,0.3,0,0.6c0,0.3,0,0.4,0,0.6c0,0.3,0,0.7,0,1.2
			C72.7,130.8,72.7,131.2,72.7,131.4z M64.4,128.2c0-0.1-0.2-0.6-0.5-1.6c-0.3-0.9-0.6-1.5-0.7-1.8c-0.8,2.1-1.2,3.2-1.2,3.3
			c0,0.1,0.1,0.2,0.4,0.2c0,0,0.2,0,0.6,0h0.6C64.2,128.4,64.4,128.3,64.4,128.2z M67.1,131.5c0,0,0,0.1-0.1,0.1c-0.1,0-0.2,0-0.3,0
			c-0.1,0-0.2,0-0.3,0c-0.1,0-0.2,0-0.3,0c-0.1,0-0.3,0-0.3,0c-0.1,0-0.2-0.3-0.4-0.9c-0.2-0.6-0.3-0.9-0.5-0.9c-0.1,0-0.5,0-1.1,0
			h-0.9c-0.6,0-1,0-1.1,0c-0.1,0-0.3,0.3-0.4,0.9c-0.2,0.6-0.3,0.9-0.4,0.9h-1.3c-0.1,0-0.1,0-0.1-0.1c0,0,0-0.1,0.1-0.3l1.4-4
			c0.1-0.3,0.5-1.3,1.1-2.8c0.1-0.3,0.2-0.6,0.4-1.2c0-0.2,0.1-0.2,0.1-0.2c0.1,0,0.2,0,0.3,0c0.1,0,0.2,0,0.3,0c0.1,0,0.2,0,0.3,0
			c0.1,0,0.2,0,0.3,0c0,0,0.1,0.1,0.1,0.2c0.1,0.2,0.5,1.4,1.3,3.6C66.5,129.9,67.1,131.5,67.1,131.5z"/>
		<path class="st7" d="M238.2,128.6c0-0.5-0.1-0.9-0.4-1.3c-0.3-0.4-0.7-0.6-1.1-0.6c-0.5,0-0.8,0.2-1.1,0.6
			c-0.3,0.4-0.4,0.8-0.4,1.3c0,0.5,0.1,0.9,0.4,1.3c0.3,0.4,0.7,0.6,1.1,0.6c0.4,0,0.8-0.2,1.1-0.6
			C238.1,129.5,238.2,129.1,238.2,128.6 M239.6,126.1c0,0,0,0.1,0,0.1c-0.1,0.9-0.2,1.7-0.2,2.4c0,0,0,0.9,0.1,2.7l0,0.1
			c0,0.1,0,0.2-0.2,0.2c-0.1,0-0.3,0-0.5,0c-0.2,0-0.4,0-0.5,0c-0.1,0-0.1-0.1-0.2-0.4c0-0.3-0.1-0.4-0.1-0.4c0,0-0.1,0.1-0.3,0.2
			c-0.2,0.2-0.4,0.3-0.6,0.4c-0.3,0.2-0.6,0.2-0.9,0.2c-0.7,0-1.3-0.3-1.9-0.9c-0.5-0.6-0.7-1.3-0.7-2.1c0-0.9,0.2-1.6,0.7-2.2
			c0.5-0.6,1.2-0.9,2-0.9c0.6,0,1.1,0.2,1.5,0.6c0.1,0.1,0.2,0.2,0.3,0.3c0,0,0,0,0,0c0,0,0.1-0.1,0.1-0.4c0-0.3,0.1-0.4,0.2-0.4
			c0.1,0,0.3,0,0.6,0.1C239.5,126,239.6,126.1,239.6,126.1z M233,126c0,0.3,0,0.8-0.1,1.4c0,0.6-0.1,1.1-0.1,1.4c0,0.3,0,0.7,0,1.3
			c0,0.6,0,1,0,1.3c0,0.1,0,0.1-0.1,0.1h-1.1c-0.1,0-0.1-0.1-0.1-0.2c0-0.3,0-0.7,0-1.2c0-0.6,0-1,0-1.3c0-0.3,0-0.8-0.1-1.4
			c0-0.6-0.1-1.1-0.1-1.4c0-0.1,0-0.1,0.1-0.1c0.1,0,0.2,0,0.3,0c0.1,0,0.2,0,0.3,0c0.1,0,0.2,0,0.3,0c0.1,0,0.2,0,0.3,0
			C233,125.9,233,125.9,233,126z M233.1,124.4c0,0.5-0.3,0.7-0.8,0.7c-0.5,0-0.8-0.2-0.8-0.7c0-0.2,0.1-0.4,0.2-0.5
			c0.2-0.1,0.3-0.2,0.5-0.2c0.2,0,0.4,0.1,0.5,0.2C233,124,233.1,124.1,233.1,124.4z M229.2,128.4c0-0.4-0.1-0.8-0.3-1.1
			c-0.3-0.3-0.6-0.5-1-0.5c-0.4,0-0.7,0.2-1,0.5c-0.2,0.3-0.3,0.7-0.3,1.1c0,0.4,0.1,0.8,0.4,1.1c0.3,0.3,0.6,0.5,1,0.5
			c0.4,0,0.7-0.2,1-0.5C229.1,129.2,229.2,128.9,229.2,128.4z M230.5,126c0,0.5,0,1.2,0,2.2c0,1,0,1.7,0,2.2c0,1-0.2,1.7-0.6,2.1
			c-0.4,0.5-1.1,0.7-1.9,0.7c-0.9,0-1.5-0.2-2.1-0.5c-0.1-0.1-0.1-0.1-0.1-0.1c0,0,0.1-0.3,0.2-0.9c0-0.1,0-0.1,0.1-0.1
			c0,0,0,0,0.1,0c0.6,0.3,1.1,0.5,1.7,0.5c0.4,0,0.7-0.1,0.9-0.3c0.3-0.2,0.4-0.5,0.4-0.9c0-0.1,0-0.3,0-0.6c-0.4,0.5-1,0.8-1.6,0.8
			c-0.7,0-1.3-0.3-1.7-0.8c-0.4-0.5-0.6-1.1-0.6-1.9c0-0.8,0.2-1.4,0.6-1.9c0.4-0.6,1-0.9,1.7-0.9c0.6,0,1.1,0.3,1.5,0.8
			c0.1,0.1,0.1,0.1,0.1,0.1c0,0,0,0,0-0.1c0-0.1,0-0.1,0-0.2c0-0.1,0-0.2,0-0.3c0-0.2,0-0.4,0.1-0.4c0,0,0.2,0,0.6,0.1
			c0.4,0.1,0.6,0.1,0.6,0.1C230.5,125.8,230.5,125.9,230.5,126z M223.5,128.6c0-0.5-0.1-0.9-0.4-1.2c-0.3-0.4-0.7-0.5-1.1-0.5
			c-0.5,0-0.8,0.2-1.1,0.5c-0.3,0.3-0.4,0.8-0.4,1.3c0,0.5,0.1,0.9,0.4,1.2c0.3,0.4,0.7,0.6,1.1,0.6c0.5,0,0.8-0.2,1.1-0.6
			C223.4,129.5,223.5,129.1,223.5,128.6z M224.7,128.6c0,0.8-0.3,1.6-0.8,2.1c-0.5,0.6-1.2,0.9-2,0.9c-0.8,0-1.4-0.3-2-0.9
			c-0.5-0.6-0.8-1.3-0.8-2.1c0-0.8,0.3-1.6,0.8-2.1c0.5-0.6,1.2-0.9,2-0.9c0.8,0,1.4,0.3,2,0.9C224.5,127.1,224.7,127.8,224.7,128.6
			z M218.5,123.2L218.5,123.2c-0.1,1.6-0.1,2.8-0.1,3.9c0,0.5,0,1.2,0,2.1c0,1,0,1.7,0,2.1c0,0.1,0,0.1-0.1,0.1h-1.1
			c-0.1,0-0.1,0-0.1-0.1c0-0.5,0-1.2,0-2.1c0-1,0-1.7,0-2.1c0-0.4,0-1.1-0.1-2c0-0.9-0.1-1.5-0.1-1.9c0-0.1,0-0.1,0.1-0.1
			c0.1,0,0.2,0,0.3,0c0.1,0,0.2,0,0.3,0c0.1,0,0.2,0,0.3,0C218.2,123.1,218.3,123.1,218.5,123.2
			C218.5,123.1,218.5,123.2,218.5,123.2z M215.1,128.6c0-0.5-0.1-0.9-0.4-1.2c-0.3-0.4-0.7-0.5-1.1-0.5c-0.5,0-0.8,0.2-1.1,0.5
			c-0.3,0.3-0.4,0.8-0.4,1.3c0,0.5,0.1,0.9,0.4,1.2c0.3,0.4,0.7,0.6,1.1,0.6c0.5,0,0.8-0.2,1.1-0.6
			C214.9,129.5,215.1,129.1,215.1,128.6z M216.3,128.6c0,0.8-0.3,1.6-0.8,2.1c-0.5,0.6-1.2,0.9-2,0.9c-0.8,0-1.4-0.3-2-0.9
			c-0.5-0.6-0.8-1.3-0.8-2.1c0-0.8,0.3-1.6,0.8-2.1c0.5-0.6,1.2-0.9,2-0.9c0.8,0,1.4,0.3,2,0.9C216,127.1,216.3,127.8,216.3,128.6z
			 M210.3,130.4c0,0.1,0,0.2,0,0.4c0,0.2,0,0.3,0,0.4c0,0.1,0,0.1,0,0.1c0,0-0.1,0.1-0.1,0.1c-0.3,0.2-0.8,0.2-1.5,0.2
			c-0.9,0-1.3-0.4-1.3-1.3c0-0.3,0-0.9,0-1.5c0-0.7,0-1.2,0-1.5c0-0.2-0.1-0.3-0.2-0.3c-0.1,0-0.3,0-0.4,0c-0.1,0-0.1-0.2-0.1-0.5
			c0-0.1,0-0.2,0-0.4c0-0.1,0.1-0.2,0.2-0.2c0.1,0,0.2,0,0.3,0c0.2,0,0.3-0.1,0.3-0.2c0-0.2,0-0.4,0-0.7c0-0.3,0-0.6,0-0.7
			c0-0.3,0.1-0.4,0.2-0.4c0,0,0.4,0.1,1.1,0.2c0.1,0,0.1,0.1,0.1,0.1c0,0.2,0,0.4,0,0.8c0,0.4,0,0.6,0,0.8c0,0.1,0.1,0.2,0.2,0.2
			h1.4c0.1,0,0.1,0,0.1,0.1c0,0,0,0.1,0,0.2c0,0.1,0,0.2,0,0.2c0,0.1,0,0.2,0,0.3c0,0.1,0,0.2,0,0.3c0,0.1-0.1,0.1-0.2,0.1
			c-0.2,0-0.4,0-0.7,0c-0.3,0-0.5,0-0.7,0c0,0-0.1,0.1-0.1,0.3c0,0.3,0,0.7,0,1.2v0.9c0,0.3,0,0.6,0.1,0.7c0.1,0.2,0.3,0.3,0.6,0.3
			c0.1,0,0.3,0,0.5-0.1c0.2-0.1,0.4-0.1,0.5-0.1C210.3,130.3,210.3,130.4,210.3,130.4z M204.8,128.6c0-0.5-0.1-0.9-0.4-1.3
			c-0.3-0.4-0.7-0.6-1.1-0.6c-0.5,0-0.8,0.2-1.1,0.6c-0.3,0.4-0.4,0.8-0.4,1.3c0,0.5,0.1,0.9,0.4,1.3c0.3,0.4,0.7,0.6,1.1,0.6
			c0.4,0,0.8-0.2,1.1-0.6C204.6,129.5,204.8,129.1,204.8,128.6z M206.2,126.1c0,0,0,0.1,0,0.1c-0.1,0.9-0.2,1.7-0.2,2.4
			c0,0,0,0.9,0.1,2.7l0,0.1c0,0.1,0,0.2-0.2,0.2c-0.1,0-0.3,0-0.5,0c-0.2,0-0.4,0-0.5,0c-0.1,0-0.1-0.1-0.2-0.4
			c0-0.3-0.1-0.4-0.1-0.4c0,0-0.1,0.1-0.3,0.2c-0.2,0.2-0.4,0.3-0.6,0.4c-0.3,0.2-0.6,0.2-0.9,0.2c-0.7,0-1.3-0.3-1.9-0.9
			c-0.5-0.6-0.7-1.3-0.7-2.1c0-0.9,0.2-1.6,0.7-2.2c0.5-0.6,1.2-0.9,2-0.9c0.6,0,1.1,0.2,1.5,0.6c0.1,0.1,0.2,0.2,0.3,0.3
			c0,0,0,0,0,0c0,0,0.1-0.1,0.1-0.4c0-0.3,0.1-0.4,0.2-0.4c0.1,0,0.3,0,0.6,0.1C206.1,126,206.2,126.1,206.2,126.1z M198.5,128.6
			c0-0.5-0.1-0.9-0.4-1.3c-0.3-0.4-0.7-0.6-1.1-0.6c-0.4,0-0.8,0.2-1.1,0.6c-0.3,0.4-0.4,0.8-0.4,1.3c0,0.5,0.1,0.9,0.4,1.3
			c0.3,0.4,0.7,0.6,1.1,0.6c0.4,0,0.8-0.2,1.1-0.6C198.4,129.5,198.5,129.1,198.5,128.6z M199.8,128.7c0,0.8-0.2,1.5-0.7,2.1
			c-0.5,0.6-1.1,0.9-1.9,0.9c-0.5,0-0.9-0.2-1.2-0.5c-0.2-0.2-0.3-0.3-0.5-0.5c0,0,0,0,0,0.1c0,0,0,0.2,0,0.7l0,1.7
			c0,0.1,0,0.2-0.1,0.2c-0.6,0-0.9,0-1,0c-0.1,0-0.1-0.1-0.1-0.2c0-0.5,0-1.3,0-2.3c0-1,0-1.8,0-2.3c0-0.9-0.1-1.8-0.2-2.7
			c0,0,0-0.1,0-0.1c0,0,0-0.1,0.1-0.1c0.1,0,0.4,0,0.6-0.1c0.4-0.1,0.6-0.1,0.6-0.1c0.1,0,0.1,0.1,0.1,0.4c0,0.2,0,0.3,0,0.5
			c0,0,0,0.1,0,0.1c0,0,0.1,0,0.1-0.1c0.5-0.6,1.1-0.9,1.6-0.9c0.7,0,1.4,0.3,1.9,0.9C199.6,127.2,199.8,127.9,199.8,128.7z
			 M192.2,128.6c0-0.5-0.1-0.9-0.4-1.2c-0.3-0.4-0.7-0.5-1.1-0.5c-0.5,0-0.8,0.2-1.1,0.5c-0.3,0.3-0.4,0.8-0.4,1.3
			c0,0.5,0.1,0.9,0.4,1.2c0.3,0.4,0.7,0.6,1.1,0.6c0.5,0,0.8-0.2,1.1-0.6C192,129.5,192.2,129.1,192.2,128.6z M193.4,128.6
			c0,0.8-0.3,1.6-0.8,2.1c-0.5,0.6-1.2,0.9-2,0.9c-0.8,0-1.4-0.3-2-0.9c-0.5-0.6-0.8-1.3-0.8-2.1c0-0.8,0.3-1.6,0.8-2.1
			c0.5-0.6,1.2-0.9,2-0.9c0.8,0,1.4,0.3,2,0.9C193.1,127.1,193.4,127.8,193.4,128.6z M187.4,130.4c0,0.1,0,0.2,0,0.4
			c0,0.2,0,0.3,0,0.4c0,0.1,0,0.1,0,0.1c0,0-0.1,0.1-0.1,0.1c-0.3,0.2-0.8,0.2-1.5,0.2c-0.9,0-1.3-0.4-1.3-1.3c0-0.3,0-0.9,0-1.5
			c0-0.7,0-1.2,0-1.5c0-0.2-0.1-0.3-0.2-0.3c-0.1,0-0.3,0-0.4,0c-0.1,0-0.1-0.2-0.1-0.5c0-0.1,0-0.2,0-0.4c0-0.1,0.1-0.2,0.2-0.2
			c0.1,0,0.2,0,0.3,0c0.2,0,0.3-0.1,0.3-0.2c0-0.2,0-0.4,0-0.7c0-0.3,0-0.6,0-0.7c0-0.3,0.1-0.4,0.2-0.4c0,0,0.4,0.1,1.1,0.2
			c0.1,0,0.1,0.1,0.1,0.1c0,0.2,0,0.4,0,0.8c0,0.4,0,0.6,0,0.8c0,0.1,0.1,0.2,0.2,0.2h1.4c0.1,0,0.1,0,0.1,0.1c0,0,0,0.1,0,0.2
			c0,0.1,0,0.2,0,0.2c0,0.1,0,0.2,0,0.3c0,0.1,0,0.2,0,0.3c0,0.1-0.1,0.1-0.2,0.1c-0.2,0-0.4,0-0.7,0c-0.3,0-0.5,0-0.7,0
			c0,0-0.1,0.1-0.1,0.3c0,0.3,0,0.7,0,1.2v0.9c0,0.3,0,0.6,0.1,0.7c0.1,0.2,0.3,0.3,0.6,0.3c0.1,0,0.3,0,0.5-0.1
			c0.2-0.1,0.4-0.1,0.5-0.1C187.4,130.3,187.4,130.4,187.4,130.4z M183.2,126c0,0.3,0,0.8-0.1,1.4c0,0.6-0.1,1.1-0.1,1.4
			c0,0.3,0,0.7,0,1.3c0,0.6,0,1,0,1.3c0,0.1,0,0.1-0.1,0.1h-1.1c-0.1,0-0.1-0.1-0.1-0.2c0-0.3,0-0.7,0-1.2c0-0.6,0-1,0-1.3
			c0-0.3,0-0.8-0.1-1.4c0-0.6-0.1-1.1-0.1-1.4c0-0.1,0-0.1,0.1-0.1c0.1,0,0.2,0,0.3,0c0.1,0,0.2,0,0.3,0c0.1,0,0.2,0,0.3,0
			c0.1,0,0.2,0,0.3,0C183.1,125.9,183.2,125.9,183.2,126z M183.2,124.4c0,0.5-0.3,0.7-0.8,0.7c-0.5,0-0.8-0.2-0.8-0.7
			c0-0.2,0.1-0.4,0.2-0.5c0.2-0.1,0.3-0.2,0.5-0.2c0.2,0,0.4,0.1,0.5,0.2C183.1,124,183.2,124.1,183.2,124.4z M181.1,130.2
			c0,0,0,0.1-0.1,0.2c-0.7,0.9-1.6,1.4-2.7,1.4c-1.1,0-2-0.4-2.7-1.3c-0.6-0.8-1-1.8-1-3.1c0-1.2,0.3-2.3,1-3.1
			c0.7-0.9,1.6-1.3,2.7-1.3c1.1,0,2,0.4,2.7,1.2c0.1,0.1,0.1,0.2,0.1,0.2c0,0.1-0.1,0.3-0.3,0.6c-0.2,0.3-0.3,0.5-0.4,0.5
			c0,0-0.2-0.1-0.3-0.3c-0.2-0.2-0.4-0.4-0.6-0.5c-0.3-0.2-0.7-0.3-1.1-0.3c-0.7,0-1.3,0.3-1.7,0.9c-0.4,0.5-0.6,1.2-0.6,2
			c0,0.8,0.2,1.5,0.5,2.1c0.4,0.6,1,0.9,1.7,0.9c0.4,0,0.7-0.1,1.1-0.3c0.2-0.1,0.5-0.3,0.7-0.5c0.2-0.2,0.3-0.3,0.3-0.3
			c0,0,0.1,0.2,0.4,0.5C181,130,181.1,130.1,181.1,130.2z M169.8,128c0-0.3-0.1-0.6-0.4-0.9c-0.2-0.3-0.5-0.4-0.8-0.4
			c-0.3,0-0.7,0.1-0.9,0.4c-0.3,0.3-0.4,0.6-0.4,1c0,0.1,0.1,0.1,0.2,0.1c0.6,0,1.2-0.1,2-0.2C169.7,128,169.8,128,169.8,128z
			 M171.2,128.3c0,0.3-0.1,0.5-0.4,0.6c-0.2,0.1-1.3,0.2-3.5,0.4c0.1,0.4,0.2,0.7,0.5,0.9c0.3,0.2,0.6,0.4,1,0.4
			c0.6,0,1.1-0.2,1.6-0.6c0.1-0.1,0.1-0.1,0.2-0.2c0,0,0.1,0,0.1,0c0,0,0.1,0.1,0.2,0.4c0.1,0.3,0.2,0.4,0.2,0.4c0,0,0,0.1-0.1,0.1
			c-0.6,0.6-1.3,0.9-2.1,0.9c-0.9,0-1.6-0.3-2.1-0.8c-0.5-0.6-0.8-1.3-0.8-2.2c0-0.8,0.2-1.5,0.7-2.2c0.5-0.6,1.2-1,1.9-1
			c0.7,0,1.3,0.3,1.8,0.8C170.9,126.9,171.2,127.6,171.2,128.3z M161.1,128.6c0-0.5-0.1-0.9-0.4-1.3c-0.3-0.4-0.7-0.6-1.1-0.6
			c-0.5,0-0.8,0.2-1.1,0.6c-0.3,0.4-0.4,0.8-0.4,1.3c0,0.5,0.1,0.9,0.4,1.3c0.3,0.4,0.7,0.6,1.1,0.6c0.4,0,0.8-0.2,1.1-0.6
			C160.9,129.5,161.1,129.1,161.1,128.6z M162.5,126.1c0,0,0,0.1,0,0.1c-0.1,0.9-0.2,1.7-0.2,2.4c0,0,0,0.9,0.1,2.7l0,0.1
			c0,0.1,0,0.2-0.2,0.2c-0.1,0-0.3,0-0.5,0c-0.2,0-0.4,0-0.5,0c-0.1,0-0.1-0.1-0.2-0.4c0-0.3-0.1-0.4-0.1-0.4c0,0-0.1,0.1-0.3,0.2
			c-0.2,0.2-0.4,0.3-0.6,0.4c-0.3,0.2-0.6,0.2-0.9,0.2c-0.7,0-1.3-0.3-1.9-0.9c-0.5-0.6-0.7-1.3-0.7-2.1c0-0.9,0.2-1.6,0.7-2.2
			c0.5-0.6,1.2-0.9,2-0.9c0.6,0,1.1,0.2,1.5,0.6c0.1,0.1,0.2,0.2,0.3,0.3c0,0,0,0,0,0c0,0,0.1-0.1,0.1-0.4c0-0.3,0.1-0.4,0.2-0.4
			c0.1,0,0.3,0,0.6,0.1C162.4,126,162.5,126.1,162.5,126.1z"/>
	</g>
</g>
</svg>
