<?xml version="1.0" encoding="utf-8"?>
<!-- Generator: Adobe Illustrator 25.2.1, SVG Export Plug-In . SVG Version: 6.00 Build 0)  -->
<svg version="1.1" id="Camada_1" xmlns="http://www.w3.org/2000/svg" xmlns:xlink="http://www.w3.org/1999/xlink" x="0px" y="0px"
	 viewBox="0 0 247.2 202.1" style="enable-background:new 0 0 247.2 202.1;" xml:space="preserve">
<style type="text/css">
	.st0{fill:#616BB1;}
	.st1{fill:#B75BA0;}
	.st2{fill:#46216D;}
	.st3{fill:#A5C774;}
	.st4{fill:#7D4549;}
	.st5{fill:#616BB2;}
	.st6{fill:#646DB3;}
	.st7{fill:#646EB3;}
	.st8{fill:#636CB2;}
	.st9{fill:#6069B0;}
</style>
<g>
	<path class="st0" d="M40,83.2c2.3-1.4,4.7-2.6,7.3-3c1.5-0.2,3-0.3,4.4-0.1c2.7,0.5,4.4,2.5,4.5,5.7c0.4,6.5-1.8,12.1-5.8,17.2
		c-3,3.7-6.7,6.7-10.5,9.4c-2.2,1.6-4.4,3.3-6.2,5.5c-0.7,0.8-1.3,1.7-1.7,2.7c-0.1,0.2-0.3,0.4-0.2,0.8c0.9-1.2,1.8-2.3,2.7-3.3
		c4.1-4.2,9-6.9,14.7-8.2c1.7-0.4,3.4-0.7,5.2-0.3c2,0.4,3.1,1.7,3.3,3.7c0.2,2.8-0.6,5.3-1.9,7.7c-1.5,3-3.4,5.7-6,7.8
		c-2.8,2.3-6,2.5-9.3,1.8c-3.3-0.7-6.2-2.2-9.1-3.9c-0.2-0.1-0.4-0.2-0.7-0.4c0.7,1,1.7,1.8,4.2,3.1c-5.6-0.5-8.7-2.8-10-7.1
		c-0.4-1.3-0.8-2.7-1.3-4c-0.2-0.7-0.5-1.5-0.9-2.2c0.7,0,1,0.6,1.6,1c-0.1-2.4,0-4.7,0.1-7c0-0.1,0.1-0.2,0.2-0.3
		c1.5-0.1,2.9-0.2,4.4-0.4c0.2,0,0.5-0.1,0.5,0.2c0.1,0.2-0.2,0.3-0.4,0.4c-0.9,0.4-1.9,0.8-2.8,0.7c0.8,0,1.7,0.3,2.7,0.3
		c2.4,0,4.4-1,5.9-2.8c1.1-1.3,2-2.6,3.2-3.8c-0.3,0-0.6,0.3-0.9,0c-0.2-0.3,0-0.6,0.1-0.9c1.1-2.6,1.9-5.2,2.5-7.9
		c0.4-2,0.5-4,0.6-6.1c0-1.7-0.1-3.4-0.5-5.1c-0.1-0.3-0.2-0.7-0.1-1C39.9,83.3,40,83.2,40,83.2z"/>
	<path class="st1" d="M27.8,97.3c-3-4.6-5.8-9.3-6.7-14.8c-0.7-4.1-0.2-8,1.7-11.7c1.3-2.6,3.3-3.4,6.1-2.4c3,1.1,5.2,3.1,7,5.6
		c1.9,2.6,3.2,5.6,4.1,8.7c0,0.2,0.1,0.3,0.2,0.5c0,0,0,0.1,0,0.1c-0.5,0.8-1.4,1.1-2.1,1.7c-3.9,3-6.9,6.7-9.2,11.1
		C28.5,96.5,28.4,97.2,27.8,97.3z"/>
	<path class="st2" d="M27.8,97.3c1.2-2.3,2.4-4.6,4.1-6.6c2.3-2.9,5-5.5,8.1-7.5c0.8,3.2,0.9,6.5,0.6,9.8c-0.4,3.9-1.6,7.6-3.1,11.2
		c0.5,0,0.9-0.4,1.5-0.3c-0.5,0.6-1,1.1-1.5,1.7c-0.8,0.9-1.5,1.9-2.3,2.8c-2.1,2.4-4.8,3.1-7.9,2.4c-0.4-0.1-0.9-0.2-1.3-0.3
		c1.3-0.2,2.5-0.4,3.8-1.2c-1.8,0.2-3.5,0.5-5.1,0.5c-0.3-0.3-0.2-0.6-0.2-1c0.4-3.3,1.1-6.6,2.4-9.7c0.1-0.3,0.2-0.7,0.5-0.8
		c0.3,0,0.4,0.2,0.5,0.4c1.1,2,2.1,4,2.5,6.2c0,0.1,0,0.2,0,0.3c-0.3-2.4-1-4.7-2.2-6.9c-0.2-0.3-0.3-0.6-0.3-0.9
		C27.8,97.4,27.8,97.4,27.8,97.3z"/>
	<path class="st3" d="M22.4,109.9c-0.6,3.1-2.8,4.4-5.9,5c1-0.6,1.8-1.2,2.3-2c-1.1,0.8-2.2,1.6-3.5,2.2c-1.3,0.7-2.7,1.2-4.2,1.3
		c-1.5,0.1-2.8-0.3-4-1.2c-2.6-2-4.6-4.6-5.4-7.9c-0.5-2.3,0.6-3.7,2.9-3.7c3.7,0,7.1,1.2,10.1,3.2c0.2,0.1,0.4,0.5,0.7,0.3
		c0.2,0,0.4,0.1,0.5,0.2c1.6,1.5,3.5,2,5.5,2.3C22,109.7,22.3,109.7,22.4,109.9z"/>
	<path class="st3" d="M14.7,106c-3.1-1.9-6.3-3.7-8.9-6.3C3,96.8,1.2,93.4,1.1,89.2c0-2.4,1.3-3.7,3.6-3.8c3.3-0.2,6,1.1,8.6,2.9
		c0.6,0.4,1.2,0.8,1.6,1.3c0.1,0.2-0.1,0.3-0.2,0.4c-1.1,0.8-1.6,1.9-1.9,3.2c-0.8,4.1,0,8,1.7,11.8C14.6,105.4,14.9,105.6,14.7,106
		z"/>
	<path class="st4" d="M14.7,106c-1.8-3.2-2.5-6.6-2.5-10.2c0-1.1,0.2-2.2,0.5-3.3c0.4-1.2,1-2.2,2.2-2.8c0.1,0,0.1,0,0.2,0
		c1,0.5,1.7,1.4,2.3,2.2c2,2.4,3.4,5.2,4.2,8.2c0.5,1.9,0.8,3.9,1.1,5.9c0.8-0.2,0.9-0.1,0.6,0.7c-0.3,1.1-0.3,2.2-0.9,3.2
		c0,0,0,0,0,0c-2.6-0.2-4.9-0.9-6.8-2.8C15.3,106.8,15,106.4,14.7,106z"/>
	<path class="st1" d="M219,111.5c-2,0-4.7-0.6-7-2.4c-0.6-0.4-1.1-1-1.5-1.6c-0.2-0.3-0.2-0.5,0-0.7c0,0,0,0,0.1-0.1
		c1.1-1.1,1-1.1,2.1-0.1c2.4,2.2,5.2,2.8,8.3,2.6c1.1-0.1,2.3-0.4,3.3-0.9c1.4-0.7,2.1-1.8,2.1-3.3c0-1.5-1-2.4-2.4-2.9
		c-1.7-0.7-3.6-0.9-5.4-1.2c-1.5-0.3-3.1-0.6-4.5-1.2c-1.7-0.7-2.8-1.9-3-3.8c-0.3-2.2,0.5-4,2.3-5.2c1.9-1.3,4-1.6,6.2-1.6
		c2.5,0,5,0.5,7.1,2.1c0.3,0.2,0.9,0.5,0.8,0.8c-0.2,0.5-0.7,0.8-1.1,1.2c-0.2,0.2-0.4-0.1-0.5-0.2c-3.2-2.3-6.6-2.4-10.2-1.3
		c-0.4,0.1-0.8,0.4-1.2,0.6c-1.9,1.4-1.9,3.9,0.2,5.1c1.4,0.9,3,1.1,4.6,1.4c1.5,0.3,3.1,0.5,4.6,0.9c0.6,0.2,1.1,0.4,1.6,0.6
		c1.7,0.8,2.9,2.1,3,4c0.2,2.3-0.6,4.2-2.6,5.4C224.1,111.2,222,111.5,219,111.5z"/>
	<path class="st0" d="M109.3,111.5c-3.2-0.1-6.2-0.8-8.5-3.1c-1.2-1.1-1.1-1.7,0.4-2.5c0.3-0.2,0.4,0,0.5,0.2
		c2.6,3.4,8.2,4.1,11.9,2.6c1.9-0.8,2.8-2.5,2.4-4.2c-0.3-0.9-0.9-1.5-1.7-2c-1.6-0.8-3.3-1-5-1.3c-1.7-0.3-3.4-0.5-5-1.2
		c-1.9-0.7-3.4-1.9-3.6-4.1c-0.2-2.4,0.8-4.2,2.9-5.4c3.7-2,9.7-1.6,13,1.1c0.3,0.2,0.9,0.3,0.4,0.9c-0.9,1-0.9,1.1-1.6,0.6
		c-3.2-2.3-6.7-2.3-10.3-1c-1.7,0.6-2.6,2.1-2.3,3.6c0.2,1.2,1,1.8,2,2.3c1.6,0.7,3.3,1,5,1.3c1.9,0.3,3.8,0.7,5.6,1.5
		c3.7,1.8,3.2,6.8,1,8.6C114.3,111.1,111.9,111.4,109.3,111.5z"/>
	<path class="st1" d="M173,101.5c0,3,0,5.9,0,8.9c0,0.6-0.1,0.8-0.8,0.8c-1.4,0-1.4,0-1.4-1.5c0-5.8,0-11.5,0-17.3
		c0-0.6-0.1-0.8-0.8-0.8c-1,0.1-2,0-3,0c-0.5,0-0.7-0.1-0.7-0.7c0,0,0-0.1,0-0.1c0-1.4-0.2-1.2,1.1-1.2c0.8,0,1.7,0,2.5,0
		c0.6,0,0.8-0.1,0.8-0.7c-0.1-1.5,0-3,0.4-4.5c0.7-2.4,2.5-3.8,5-4c1.7-0.1,3.3,0.1,4.8,1.1c0.4,0.3,0.4,0.5,0.2,0.9
		c-0.7,1-0.7,1.1-1.8,0.5c-1-0.5-2-0.7-3-0.5c-2.1,0.3-3.3,1.8-3.4,4.2c0,0.8,0,1.6,0,2.4c0,0.6,0.1,0.8,0.7,0.8c1.9,0,3.7,0,5.6,0
		c0.9,0,0.8,0.5,0.8,1c0,0.6,0,1-0.8,0.9c-1.9-0.1-3.7,0-5.6,0c-0.6,0-0.8,0.2-0.7,0.7C173,95.4,173,98.5,173,101.5z"/>
	<path class="st1" d="M238.3,98.8c0,2.1,0,4.1,0,6.2c0,0.6,0.1,1.3,0.2,1.9c0.5,2.1,2.3,3.1,4.7,2.5c0.6-0.1,1.2-0.3,1.7-0.5
		c0.5-0.3,0.7-0.1,0.9,0.4c0.5,1.2,0.5,1.2-0.7,1.6c-1.6,0.6-3.2,0.7-4.8,0.4c-2.4-0.5-3.8-2.4-4-5.1c-0.3-3.9-0.1-7.9-0.1-11.8
		c0-0.7,0-1.4,0-2.1c0-0.6-0.1-0.8-0.8-0.8c-1,0.1-2.1,0-3.1,0c-0.5,0-0.7-0.1-0.7-0.7c0-1.1,0-1.1,1.1-1.1c0.9,0,1.9,0,2.8,0
		c0.5,0,0.6-0.2,0.6-0.6c0-1.7,0-3.3,0-5c0-0.5,0.2-0.7,0.7-0.7c1.5-0.1,1.5-0.1,1.5,1.4c0,1.5,0,2.9,0,4.4c0,0.5,0.1,0.6,0.6,0.6
		c2,0,4,0,6,0c0.8,0,0.7,0.5,0.7,1c0,0.5,0,0.9-0.7,0.9c-2-0.1-3.9,0-5.9,0c-0.6,0-0.7,0.2-0.7,0.7
		C238.3,94.3,238.3,96.5,238.3,98.8z"/>
	<path class="st1" d="M22.5,109.9c0.2-1.3,0.5-2.6,0.9-3.9c-0.4,0-0.5,0.4-0.8,0.5c-0.2-1.6-0.3-3.2-0.7-4.7
		c-0.7-3.5-2.1-6.8-4.4-9.6c-0.7-0.9-1.6-1.7-2.3-2.5c1.2-0.4,2.3-0.1,3.4,0.4c3,1.4,5.4,3.6,7.4,6.1c0.5,0.7,1,1.4,1.5,2.1
		c0,0,0.1,0.1,0,0.1c0,0,0,0.1,0,0.1c-1,1.9-1.5,4-2,6c-0.4,1.8-0.8,3.6-0.8,5.4c0,0-0.1,0.1-0.1,0.1
		C23.8,110,23.1,109.9,22.5,109.9z"/>
	<path class="st0" d="M150.8,93.3c1.8-3.1,4.5-4,7.6-4c1.1,0,2.2-0.1,3.4,0c1.5,0.2,1.6,0.3,1.6,1.8c0,0.2,0,0.4,0,0.6
		c-2-0.6-4-0.4-6-0.2c-3.9,0.4-6.5,3.4-6.5,7.5c0,3.8,0,7.5,0,11.3c0,0.7-0.2,1-0.9,0.9c-0.2,0-0.3,0-0.5,0
		c-0.6,0.1-0.8-0.1-0.8-0.8c0-6.7,0-13.3,0-20c0-0.4-0.1-0.8,0.6-0.8c1.3,0,1.4,0,1.5,0.8C150.9,91.3,150.8,92.2,150.8,93.3z"/>
	<path class="st0" d="M68.6,95.9c0,4.8,0,9.6,0,14.3c0,0.6-0.1,0.9-0.8,0.9c-1.4-0.1-1.4,0-1.4-1.4c0-9.4,0-18.9,0-28.3
		c0-0.8,0.2-1,1-0.9c0.2,0,0.3,0,0.5,0c0.6-0.1,0.8,0.2,0.8,0.8C68.6,86.2,68.6,91.1,68.6,95.9z"/>
	<path class="st5" d="M134.1,120.4c1.2,0,2.2,0.3,3.1,1c0.2,0.1,0.6,0.2,0.3,0.6c-0.2,0.3-0.5,0.4-0.9,0.1c-1.3-1-2.8-1.1-4.3-0.5
		c-2.1,0.9-3,3.6-1.9,5.8c1,2,3.8,2.7,5.8,1.4c0.2-0.1,0.4-0.2,0.5-0.4c0.4-0.4,0.5,0.1,0.8,0.2c0.3,0.3,0,0.4-0.2,0.5
		c-0.8,0.6-1.7,1.1-2.7,1.1c-0.5,0-0.6,0.2-0.7,0.6c-0.1,0.6,0.4,0.3,0.6,0.4c0.6,0.2,1.1,0.5,1.2,1.1c0.1,0.7,0,1.3-0.5,1.8
		c-0.8,0.8-2.5,0.7-3.3-0.1c-0.2-0.2-0.3-0.4-0.1-0.7c0.3-0.3,0.4-0.2,0.6,0.1c0.4,0.4,0.8,0.5,1.4,0.5c0.6-0.1,1.1-0.4,1.1-1
		c0-0.7-0.6-1-1.2-0.9c-1,0.2-0.9-0.3-0.7-0.9c0.1-0.4,0.2-0.7-0.4-0.9c-2.6-0.7-4-2.9-3.6-5.7C129.4,122.1,131.4,120.4,134.1,120.4
		z"/>
	<path class="st6" d="M111.5,123.3c0-2.1,0-4.2,0-6.3c0-0.4,0-0.7,0.6-0.7c0.5,0,0.5,0.3,0.5,0.7c0,4.3,0,8.5,0,12.8
		c0,0.3,0.1,0.7-0.5,0.7c-0.6,0-0.6-0.3-0.6-0.7C111.5,127.6,111.5,125.4,111.5,123.3z"/>
	<path class="st7" d="M106.7,125.4c0-1.4,0-2.9,0-4.3c0-0.3-0.1-0.7,0.5-0.7c0.5,0,0.6,0.2,0.6,0.6c0,2.9,0,5.9,0,8.8
		c0,0.4-0.1,0.6-0.6,0.6c-0.5,0-0.5-0.3-0.5-0.7C106.8,128.3,106.7,126.8,106.7,125.4z"/>
	<path class="st8" d="M146.4,118.1c-0.4,0-0.8-0.2-1.3-0.5c-0.5-0.3-1-0.4-1.4,0.1c-0.2,0.3-0.4,0.2-0.6,0.1
		c-0.3-0.1-0.1-0.4-0.1-0.5c0.2-0.7,1.1-1.1,1.9-0.8c0.4,0.1,0.7,0.3,1.1,0.5c0.4,0.2,0.8,0.2,1.1-0.2c0.2-0.3,0.4-0.2,0.6-0.1
		c0.3,0.2,0.1,0.4,0.1,0.6C147.5,117.8,147.1,118.1,146.4,118.1z"/>
	<path class="st9" d="M27.5,98.4c0-0.1,0-0.1,0-0.2c0.1-0.3,0.2-0.5,0.4-0.8c1.5,2.4,2.6,5,2.6,8C29.8,103,28.8,100.6,27.5,98.4z"/>
	<path class="st7" d="M108.1,117.4c0,0.4-0.2,0.7-0.8,0.7c-0.5,0-0.8-0.2-0.8-0.7c0-0.5,0.3-0.8,0.8-0.9
		C107.7,116.5,108,116.8,108.1,117.4z"/>
	<path class="st0" d="M141.2,92.9c-3.3-4.2-10.5-5-15-1.7c-3.7,2.7-4.9,6.5-4.4,11c0.3,2.9,1.7,5.3,4,7.1c4.3,3.2,10.8,2.8,15-0.8
		c1.2-1.1,1.2-1.2-0.1-2.2c-0.3-0.2-0.5-0.2-0.7,0.1c-1.3,1.5-3.1,2.2-5,2.7c-5.5,1.2-10.1-1.6-11.1-6.8c-0.1-0.7,0.1-0.8,0.7-0.8
		c3,0,5.9,0,8.9,0c3,0,6,0,9,0c0.4,0,0.7,0,0.8-0.5C143.4,98,143.1,95.2,141.2,92.9z M140.6,99.4c-2.7,0-5.4,0-8.1,0
		c-2.6,0-5.2,0-7.8,0c-0.7,0-0.9-0.1-0.8-0.9c1.4-7.8,9.7-8.9,14.2-5.8c2.1,1.5,2.9,3.7,3.1,6.1C141.3,99.5,140.9,99.4,140.6,99.4z"
		/>
	<path class="st1" d="M205.8,91.1c0-1.5,0-1.5-1.5-1.5c-0.5,0-0.7,0.2-0.7,0.7c0,1.2,0,2.4,0,3.8c-3.7-5.9-12-5.9-16.5-1.8
		c-4.1,3.8-4.4,11.5-0.4,15.8c2,2.2,4.6,3.3,7.6,3.4c3.9,0.2,7-1.4,9.3-4.8c0,1.2,0,2.1,0,3.1c0,1.4,0,1.3,1.3,1.4
		c0.7,0,0.9-0.2,0.9-0.9C205.8,103.9,205.8,97.5,205.8,91.1z M195,109.4c-5.2,0-9-3.8-9-9.1c0-5.1,3.7-8.9,8.7-8.9c5.3,0,9,3.7,9,9
		C203.8,105.5,200,109.4,195,109.4z"/>
	<path class="st0" d="M95.3,91c0-1.4,0-1.4-1.4-1.4c-0.6,0-0.8,0.2-0.8,0.8c0,1.2,0,2.3,0,3.5c-3.5-5.5-11.2-5.8-15.7-2.3
		c-4.7,3.7-5.5,11.3-1.6,16c1.9,2.3,4.4,3.6,7.4,3.8c4.1,0.3,7.4-1.2,9.8-4.6c0,0.2,0.1,0.2,0.1,0.2c0,0.9,0,1.8,0,2.7
		c0,1.3,0,1.3,1.4,1.4c0.7,0,0.8-0.2,0.8-0.8C95.3,103.9,95.3,97.4,95.3,91z M84.4,109.4c-5.4-0.1-8.8-4-8.8-9c0-5.1,3.7-9,8.6-9
		c5.4,0,9.1,3.6,9.2,9C93.3,105.6,89.5,109.4,84.4,109.4z"/>
	<path class="st0" d="M76.5,117.1c0-0.4,0.1-0.7-0.5-0.7c-0.6,0-0.5,0.4-0.5,0.8c0,1.7,0,3.4,0,5.3c-2.1-2.4-5.4-2.7-7.5-0.9
		c-1.9,1.7-2.1,5.5-0.4,7.4c1,1.1,2.2,1.6,3.6,1.6c1.7,0,3.1-0.6,4.3-2.2c0,0.6,0,1,0,1.4c0,0.4,0,0.7,0.5,0.6
		c0.6,0,0.5-0.3,0.5-0.7C76.5,125.5,76.5,121.3,76.5,117.1z M71.3,129.5c-2.4,0-3.9-1.6-3.9-4.1c0-2.5,1.6-4.1,4.1-4.1
		c2.3,0,4,1.8,4,4.1C75.4,127.9,73.8,129.5,71.3,129.5z"/>
	<path class="st0" d="M101.9,121.7c-2.1-2-5.3-1.7-7.6,0.9c0-0.6,0-1.1,0-1.6c0-0.3-0.1-0.5-0.5-0.5c-0.4,0-0.5,0.2-0.5,0.6
		c0,1.2,0,2.4,0,3.6c0,3,0,6.1,0,9.1c0,0.4,0,0.8,0.6,0.7c0.5,0,0.4-0.4,0.4-0.7c0-1.8,0-3.5,0-5.4c2.6,2.6,5.6,2.8,7.8,0.6
		C103.9,127.2,103.8,123.4,101.9,121.7z M98.4,129.6c-2.3,0-4-1.7-4-4.1c0-2.4,1.7-4.1,4-4.1c2.5,0,4,1.6,4,4.1
		C102.4,128,100.8,129.6,98.4,129.6z"/>
	<path class="st5" d="M149.6,120.5c-0.4,0-0.5,0.2-0.5,0.5c0,0.4,0,0.8,0,1.4c-2.1-2.7-5.6-2.4-7.4-0.8c-2,1.8-2.2,5.3-0.3,7.3
		c2,2.2,5.1,2.1,7.7-0.4c0,0.5,0,0.9,0,1.4c0,0.4,0.2,0.5,0.5,0.5c0.3,0,0.5-0.1,0.5-0.5c0-3,0-6,0-8.9
		C150.2,120.6,150,120.5,149.6,120.5z M145.2,129.5c-2.3,0-4-1.7-4.1-4c0-2.4,1.7-4.2,4.1-4.1c2.3,0,4.1,1.7,4.1,4.1
		C149.3,127.8,147.6,129.5,145.2,129.5z"/>
	<path class="st5" d="M84.7,120.4c-2.3,0.1-4.2,1.7-4.6,3.8c-0.6,2.5,0.4,4.8,2.4,5.8c2,1,5,0.6,6.4-1c0.2-0.2,0.4-0.4,0-0.6
		c-0.2-0.2-0.4-0.4-0.7-0.1c-0.6,0.7-1.5,1-2.4,1.2c-2.2,0.4-4.3-0.8-4.8-2.9c-0.1-0.5,0-0.7,0.5-0.7c1.3,0,2.5,0,3.8,0s2.5,0,3.8,0
		c0.6,0,0.7-0.2,0.7-0.8C89.9,122.1,87.8,120.2,84.7,120.4z M87.9,125c-1,0-2,0-3,0c-1.1,0-2.2,0-3.4,0c-0.4,0-0.6,0-0.5-0.5
		c0.2-1.7,1.7-3.1,3.6-3.2c2.1-0.2,3.7,0.8,4.2,2.5C89.1,124.9,89,125,87.9,125z"/>
	<path class="st0" d="M125.2,120.5c-0.4,0-0.5,0.1-0.5,0.5c0,0.4,0,0.9,0,1.4c-2.4-2.4-5.5-2.6-7.6-0.6c-1.9,1.9-2,5.3-0.1,7.2
		c2,2.2,5,2,7.7-0.5c0,0.6,0,1,0,1.4c0,0.4,0.2,0.5,0.5,0.5c0.4,0,0.5-0.1,0.5-0.5c0-3,0-6,0-8.9
		C125.7,120.6,125.6,120.5,125.2,120.5z M120.7,129.5c-2.4,0-4-1.7-4-4.1c0-2.4,1.7-4.1,4-4.1c2.4,0,4.1,1.7,4.1,4.1
		C124.8,127.8,123.1,129.5,120.7,129.5z"/>
	<path class="st0" d="M158.4,120.3c-3,0-5,2.1-5,5.2c0,3,2,5,5,5c3,0,5-2,5-5C163.4,122.4,161.4,120.4,158.4,120.3z M158.4,129.5
		c-2.3,0-4-1.7-4-4.1c0-2.4,1.7-4.2,4.1-4.2c2.3,0,4,1.8,4,4.1C162.4,127.8,160.7,129.5,158.4,129.5z"/>
</g>
</svg>
