<?xml version="1.0" encoding="utf-8"?>
<!-- Generator: Adobe Illustrator 25.2.1, SVG Export Plug-In . SVG Version: 6.00 Build 0)  -->
<svg version="1.1" id="Camada_1" xmlns="http://www.w3.org/2000/svg" xmlns:xlink="http://www.w3.org/1999/xlink" x="0px" y="0px"
	 viewBox="0 0 247.2 202.1" style="enable-background:new 0 0 247.2 202.1;" xml:space="preserve">
<style type="text/css">
	.st0{fill:#C23D47;}
	.st1{fill:#5EA099;}
	.st2{fill:#CE757D;}
	.st3{fill:#ADADB2;}
	.st4{fill:#AEADB3;}
	.st5{fill:#AEADB2;}
	.st6{fill:#AEAEB3;}
	.st7{fill:#AFAEB4;}
</style>
<g>
	<path class="st0" d="M150.4,61.5c6,11.7,11.9,23.2,17.7,34.8c0,0,0.1,0,0.1,0c0-11.5,0-23,0-34.6c9.8,7.5,19.4,15,29.1,22.4
		c0.1-0.3,0.1-0.5,0.1-0.7c0-6.9,0-13.7,0-20.6c0-0.6,0.1-0.7,0.7-0.7c2,0,4,0,6.1,0c0.5,0,0.7,0.1,0.7,0.7c0,11,0,22,0,33.1
		c0,0.2,0,0.4,0,0.5c0,0,0.1,0,0.1,0.1c5.9-11.6,11.8-23.2,17.8-34.9c6.3,12.4,12.6,24.7,18.9,37c-0.2,0.1-0.3,0.1-0.5,0.1
		c-2.4,0-4.8,0-7.2,0c-0.4,0-0.6-0.2-0.8-0.5c-3.4-6.6-6.7-13.2-10.1-19.8c-0.1-0.2-0.1-0.4-0.4-0.5c-0.7,1.4-1.5,2.8-2.2,4.2
		c-2.7,5.4-5.5,10.7-8.2,16.1c-0.2,0.4-0.4,0.5-0.9,0.5c-2.3,0-4.5,0-6.8,0c-0.4,0-0.7-0.1-1-0.4c-9.1-7-18.3-14.1-27.4-21.1
		c-0.2-0.1-0.3-0.2-0.5-0.4c-0.1,0.2-0.1,0.5-0.1,0.7c0,6.8,0,13.6,0,20.4c0,0.6-0.2,0.7-0.8,0.7c-4.4,0-8.8,0-13.2,0
		c-0.5,0-0.7-0.2-1-0.6c-3.3-6.6-6.7-13.1-10.1-19.7c-0.1-0.2-0.2-0.3-0.3-0.5c-0.3,0.1-0.3,0.4-0.4,0.6
		c-3.4,6.6-6.7,13.1-10.1,19.7c-0.2,0.4-0.4,0.5-0.8,0.5c-4.5,0-9,0-13.5,0c-0.5,0-0.6-0.1-0.6-0.6c0-11.8,0-23.5,0-35.3
		c0-0.5,0.1-0.6,0.6-0.6c2.1,0,4.1,0,6.2,0c0.5,0,0.6,0.1,0.6,0.6c0,10.9,0,21.8,0,32.7c0,0.3,0,0.6,0,1c0,0,0.1,0,0.1,0
		C138.5,84.8,144.4,73.2,150.4,61.5z"/>
	<path class="st1" d="M45.4,140.2c-13.1-0.1-25.1-4-35.6-11.9c-1.1-0.9-2.2-1.8-3.3-2.7c-1.2-1.1-1.3-2.1-0.5-3.4
		c1.2-1.9,2.4-3.8,3.6-5.8c0.2-0.4,0.4-0.4,0.7-0.1c2,1.9,4.1,3.7,6.4,5.4c5.6,4,11.7,6.7,18.4,8.1c3.8,0.8,7.7,1.2,11.6,1.1
		c12-0.3,22.5-4.3,31.6-12.2c0.9-0.8,1.8-1.6,2.7-2.5c0.3-0.3,0.4-0.3,0.6,0.1c1.2,2,2.5,4,3.7,6.1c0.7,1.1,0.4,2.2-0.6,3.1
		c-3.2,2.9-6.8,5.4-10.6,7.5c-5.3,2.9-10.9,4.9-16.9,6.1C53.4,139.8,49.4,140.2,45.4,140.2z"/>
	<path class="st0" d="M20,100.9c-0.1,0.4-0.2,0.7-0.2,1c-0.4,2.3,0.5,4.2,2.2,5.6c2,1.6,4.2,1.9,6.6,1c3.2-1.2,4.6-4.1,3.7-7.4
		c-0.3-0.9-0.6-1.8-1.2-2.6c-0.3-0.5-0.5-1.1-0.1-1.6c0.3-0.6,0.9-0.7,1.5-0.7c3.7,0,7.3,0,11,0c0.6,0,0.7,0.2,0.7,0.7
		c0,3.8,0,7.7,0,11.5c0,1.2,1,2.5,2.2,2.7c0.8,0.1,1.6,0.1,2.4-0.4c0.8-0.5,1.6-0.9,2.5-1.2c1.2-0.4,2.2-0.2,3.2,0.4
		c2.4,1.5,3.1,4.9,1.5,7.3c-1.2,1.8-3,2.3-5.3,1.6c-0.7-0.3-1.4-0.6-2.1-1c-1.6-0.9-3.6-0.2-4.3,1.5c-0.1,0.3-0.1,0.5-0.1,0.8
		c0,2.3,0,4.6,0,7c0,0.5-0.1,0.6-0.6,0.6c-11.2-0.5-20.8-4.7-29.1-12.2c-0.6-0.6-1.3-1.2-1.9-1.8c-0.2-0.2-0.3-0.3-0.1-0.6
		c2.5-4,5-8.1,7.5-12.1C19.9,101,20,100.9,20,100.9z"/>
	<path class="st2" d="M45.9,102.7c0-1.9,0-3.9,0-5.8c0-0.5,0.1-0.6,0.6-0.6c3.4,0,6.9,0,10.3,0c0.9,0,1.7,0,2.5-0.5
		c0.3-0.2,0.3,0.1,0.3,0.2c0,0.6-0.1,1.2,0,1.9c0.2,3.5,3,6.6,6.7,7.3c1.6,0.3,3.1,0.2,4.6-0.4c0.5-0.2,1-0.4,1.6-0.2
		c0.6,0.1,1,0.4,1.3,0.9c1.5,2.5,3.1,5,4.6,7.5c0.2,0.2,0.3,0.4,0,0.7c-3,2.9-6.3,5.6-9.9,7.8c-4.9,2.9-10.1,4.8-15.7,5.7
		c-2,0.3-4.1,0.5-6.1,0.6c-0.7,0-0.7,0-0.7-0.7c0-2.3,0-4.5,0-6.8c0-1.1,0.8-1.6,1.8-1c1.1,0.6,2.2,1.1,3.4,1.4c4,0.8,7.3-2,7.4-6
		c0.1-2.9-1.9-5.8-4.7-6.5c-1.4-0.4-2.8-0.2-4.1,0.4c-0.7,0.3-1.3,0.6-2,1c-1,0.5-1.8,0.1-1.8-1.1C45.9,106.4,45.9,104.6,45.9,102.7
		C45.9,102.7,45.9,102.7,45.9,102.7z"/>
	<path class="st0" d="M93.5,75.2c0-4.1,0-8.3,0-12.4c0-0.5,0.1-0.7,0.6-0.6c2.1,0,4.1,0,6.2,0c0.5,0,0.6,0.2,0.6,0.6c0,8,0,16,0,24
		c0,2.5,2.3,4.5,4.4,4.4c5.9-0.1,11.9,0,17.8,0c0.5,0,0.7,0.1,0.6,0.6c0,2.1,0,4.1,0,6.2c0,0.5-0.2,0.6-0.6,0.6
		c-5.9,0-11.9,0-17.8,0c-5.9,0-10.8-4.3-11.7-10.1c-0.1-0.6-0.1-1.3-0.1-1.9C93.5,82.8,93.5,79,93.5,75.2z"/>
	<path class="st0" d="M45.6,88.2c0-1.9,0-3.7,0-5.6c0-1.9-1.9-3.2-3.7-2.5c-1,0.4-1.9,1-2.9,1.4c-2.5,0.9-4.5-0.6-5.4-2.1
		c-0.1-0.2-0.1-0.4,0-0.5c1.4-2.2,2.7-4.4,4.1-6.6c0.2-0.3,0.4-0.3,0.7-0.2c1.1,0.2,2,0.7,2.9,1.2c1.1,0.6,2.1,0.6,3.1-0.1
		c0.7-0.5,1.2-1.2,1.2-2.1c0-2.9,0-5.8,0-8.6c0-0.5,0.2-0.6,0.6-0.5c0.5,0.2,1,0.5,1.3,1c2.9,4.6,5.7,9.2,8.3,13.9
		c0.8,1.5,0.4,2.9-1.1,3.8c-2.3,1.3-3.6,3.3-3.7,6c-0.1,3.3,2.5,6.2,5.8,6.8c0.6,0.1,1.2,0.2,1.7,0.5c0.3,0.2,0.3,0.3,0,0.5
		c-0.2,0.2-0.5,0.3-0.8,0.3c-3.9,0-7.8,0-11.7,0c-0.4,0-0.5-0.1-0.5-0.5C45.6,92.2,45.5,90.2,45.6,88.2
		C45.6,88.2,45.6,88.2,45.6,88.2z"/>
	<path class="st2" d="M44.1,88.4c0,1.9,0,3.8,0,5.7c0,0.5-0.2,0.6-0.6,0.6c-3.7,0-7.4,0.1-11.1,0c-2-0.1-4,2.1-2.6,4.4
		c0.7,1.1,1.2,2.3,1.3,3.7c0.2,2.6-1.7,4.2-3.7,4.6c-2.7,0.5-5.1-1.1-5.9-3.2c-0.4-1-0.3-2,0.1-3.1c0.3-0.7,0.7-1.4,1-2
		c0.4-0.7,0.5-1.5,0.3-2.3c-0.1-0.4,0-0.6,0.2-0.9c2.2-3.6,4.5-7.2,6.7-10.8c0.9-1.4,1.7-2.8,2.6-4.2c0.2-0.3,0.3-0.3,0.5,0
		c1,1.3,2.3,2.2,4,2.4c1.2,0.2,2.3-0.2,3.3-0.6c0.6-0.3,1.2-0.6,1.8-0.9c1-0.6,2.3,0,2.2,1.2C44,84.7,44.1,86.6,44.1,88.4
		C44.1,88.4,44.1,88.4,44.1,88.4z"/>
	<path class="st0" d="M116,105.4c-0.4,0.7-0.8,1.4-1.3,2.2c-2.8,4.8-5.6,9.6-8.4,14.5c-0.4,0.7-1,0.7-1.4,0
		c-3.1-5.4-6.3-10.8-9.4-16.2c-0.1-0.1-0.2-0.3-0.3-0.5c0,0.4,0,0.6,0,0.8c0,6.3,0,12.6,0,18.9c0,0.6-0.1,0.8-0.7,0.7
		c-1-0.1-1,0-1-1c0-7.4,0-14.7,0-22.1c0-0.3-0.2-0.7,0.2-0.8c0.6-0.2,1.3,0,1.6,0.5c1.9,3.3,3.8,6.5,5.7,9.8
		c1.6,2.7,3.2,5.5,4.8,8.2c1.1-1.9,2.2-3.8,3.3-5.6c2.4-4.1,4.8-8.3,7.2-12.4c0.2-0.4,1.3-0.6,1.6-0.4c0.2,0.1,0.1,0.4,0.1,0.6
		c0,3.9,0,7.9,0,11.8c0,3.6,0,7.3,0,10.9c0,0.5-0.1,0.6-0.6,0.6c-1.1,0-1.1,0-1.1-1.1c0-6.2,0-12.4,0-18.6c0-0.2,0-0.4,0-0.6
		C116.1,105.4,116,105.4,116,105.4z"/>
	<path class="st0" d="M203.7,113.7c0-3.8,0-7.6,0-11.4c0-0.5,0.1-0.6,0.6-0.6c4.9,0,9.9,0,14.8,0c0.5,0,0.7,0.1,0.6,0.6
		c0,0.1,0,0.3,0,0.4c0.1,0.5-0.1,0.6-0.6,0.6c-3.6,0-7.2,0-10.8,0c-0.8,0-1.7,0-2.5,0c-0.3,0-0.4,0.1-0.4,0.4c0,2.9,0,5.8,0,8.6
		c0,0.5,0.3,0.4,0.6,0.4c3.8,0,7.6,0,11.4,0c0.2,0,0.6-0.2,0.7,0.1c0.1,0.4,0.1,0.9,0,1.3c0,0.2-0.4,0.1-0.6,0.1
		c-3.8,0-7.7,0-11.5,0c-0.6,0-0.7,0.1-0.7,0.7c0,2.8,0,5.6,0,8.5c0,0.5,0.1,0.7,0.7,0.7c4.5,0,9,0,13.5,0c0.5,0,0.8,0.1,0.7,0.7
		c0,0.2,0,0.3,0,0.5c0,0.4-0.1,0.5-0.5,0.4c-0.1,0-0.1,0-0.2,0c-5.1,0-10.2,0-15.3,0c-0.5,0-0.6-0.1-0.6-0.6
		C203.7,121.3,203.7,117.5,203.7,113.7z"/>
	<path class="st0" d="M225,121.3c1.5,1.4,3.2,2.3,5.2,2.7c2.5,0.5,4.9,0.5,7.2-0.6c2.3-1.1,2.9-3.4,2.1-5.4
		c-0.4-1.2-1.5-1.8-2.5-2.3c-1.6-0.7-3.3-1-5-1.5c-1.2-0.3-2.4-0.6-3.6-1.1c-2.3-1-3.6-2.6-3.6-5.3c0.1-2.7,1.4-4.4,3.8-5.5
		c2.5-1.1,5.1-1.1,7.6-0.5c1.3,0.3,2.6,0.8,3.7,1.5c0.4,0.2,0.6,0.5,0.3,0.9c0,0-0.1,0.1-0.1,0.2c-0.2,0.6-0.4,0.6-0.9,0.3
		c-3-1.7-6.2-2.2-9.5-1.1c-2,0.7-3.2,2.4-3.2,4.4c0,1.7,1,2.8,2.5,3.6c1.5,0.7,3.1,1.1,4.6,1.5c1.4,0.4,2.8,0.7,4.1,1.2
		c3,1.3,4,3.2,3.7,5.7c-0.2,2.5-1.7,4.2-4,5c-4.4,1.5-8.6,1-12.5-1.6c-1-0.7-0.9-0.7-0.3-1.7C224.8,121.6,224.9,121.5,225,121.3z"/>
	<path class="st3" d="M190.2,132.5c0,2.6,0,5.1,0,7.6c0,0.4-0.1,0.5-0.5,0.6c-0.5,0-0.5-0.2-0.5-0.6c0-2.3,0-4.5,0-6.8
		c0-0.7,0-1.4,0-2.1c0-0.2-0.2-0.5,0.2-0.6c0.3-0.1,0.7-0.1,0.9,0.3c0.8,1.1,1.7,2.1,2.5,3.2c1.1,1.4,2.2,2.8,3.4,4.3
		c0,0.1,0.1,0.1,0.3,0.2c0-0.8,0-1.5,0-2.3c0-1.7,0-3.5,0-5.2c0-0.4,0.1-0.5,0.5-0.5c0.4,0,0.5,0.1,0.5,0.6c0,3,0,5.9,0,8.9
		c0,0.2,0.1,0.5-0.2,0.6c-0.3,0.1-0.6,0.1-0.9-0.2c-0.7-0.9-1.5-1.9-2.2-2.8c-1.3-1.6-2.5-3.2-3.8-4.8
		C190.5,132.7,190.4,132.6,190.2,132.5z"/>
	<path class="st3" d="M101.3,138.5c0-2,0-3.9,0-5.9c0-0.5,0-1,0-1.5c0-0.4,0.1-0.6,0.5-0.6c0.4,0,0.5,0.2,0.5,0.6c0,2.9,0,5.9,0,8.8
		c0,0.2,0.1,0.5-0.2,0.6c-0.3,0.1-0.7,0.1-0.9-0.3c-0.6-0.8-1.3-1.6-1.9-2.4c-1.3-1.7-2.6-3.3-3.9-5c-0.1-0.1-0.1-0.2-0.3-0.2
		c0,0.3,0,0.7,0,1c0,2.1,0,4.2,0,6.3c0,0.4-0.1,0.6-0.5,0.6c-0.5,0-0.6-0.1-0.6-0.6c0-2.9,0-5.9,0-8.8c0-0.2-0.2-0.5,0.2-0.6
		c0.3-0.1,0.7,0,0.9,0.3c0.8,1.1,1.7,2.1,2.5,3.2c1.2,1.5,2.4,3,3.6,4.5C101.2,138.5,101.3,138.5,101.3,138.5z"/>
	<path class="st2" d="M38.7,70.5c1.8-2.8,3.4-5.6,5.2-8.3c0.3,0.2,0.2,0.4,0.2,0.5c0,2.7,0,5.4,0,8.1c0,0.9-0.8,1.5-1.6,1.2
		c-0.1,0-0.3-0.1-0.4-0.2C41,71.3,40,70.8,38.7,70.5z"/>
	<path class="st3" d="M116.6,134.2c-0.1,0.9,0.1,2.1-0.1,3.3c-0.5,2.1-1.9,3.2-4.1,3.1c-1.6-0.1-2.9-0.6-3.6-2.2
		c-0.3-0.6-0.4-1.2-0.4-1.9c0-1.8,0-3.7,0-5.5c0-0.4,0.2-0.5,0.6-0.5c0.4,0,0.5,0.1,0.5,0.6c0,1.8,0,3.7,0,5.5c0,2.6,2.4,4,4.7,2.8
		c0.9-0.5,1.3-1.3,1.4-2.2c0.2-1.7,0.1-3.4,0.1-5.1c0-0.3,0-0.6,0-0.9c0-0.4,0.1-0.6,0.5-0.6c0.4,0,0.5,0.2,0.5,0.6
		C116.6,132.1,116.6,133,116.6,134.2z"/>
	<path class="st4" d="M210.3,138.6c1.4,1.1,2.9,1.4,4.6,1c0.6-0.1,1-0.4,1.3-1c0.4-0.8,0.1-1.6-0.8-2c-0.8-0.4-1.6-0.5-2.5-0.8
		c-0.4-0.1-0.7-0.2-1.1-0.4c-1.2-0.5-1.7-1.2-1.7-2.3c0-1.1,0.6-2,1.8-2.4c1.6-0.6,3.2-0.4,4.7,0.3c0.4,0.2,0.3,0.4,0.2,0.7
		c-0.2,0.4-0.4,0.2-0.6,0.1c-1.1-0.5-2.2-0.7-3.4-0.4c-1,0.2-1.5,0.8-1.5,1.6c0,0.8,0.5,1.4,1.4,1.7c1,0.3,1.9,0.5,2.9,0.8
		c1.1,0.4,1.8,1.2,1.8,2.2c0,1.1-0.6,2.1-1.7,2.5c-1.7,0.6-3.4,0.5-5.1-0.4C209.8,139.4,209.8,139.4,210.3,138.6z"/>
	<path class="st5" d="M158.4,140.6c-2.5,0.2-4.6-1.6-5.1-3.7c-0.8-3.1,1.2-6.1,4.3-6.4c1.5-0.2,2.8,0.1,4,1c0.2,0.1,0.6,0.3,0.2,0.6
		c-0.2,0.2-0.3,0.5-0.8,0.2c-2.1-1.6-5.1-1-6.4,1.3c-1.3,2.5,0.2,5.5,2.9,6c1.3,0.2,2.5,0,3.6-0.9c0.4-0.3,0.5,0.1,0.7,0.2
		c0.3,0.2,0.1,0.4-0.1,0.6C160.7,140.3,159.6,140.6,158.4,140.6z"/>
	<path class="st5" d="M225.4,136c0,1.3,0,2.6,0,3.9c0,0.4,0.1,0.7-0.5,0.7c-0.6,0-0.6-0.3-0.6-0.7c0-2.6,0-5.2,0-7.7
		c0-0.5-0.2-0.7-0.7-0.7c-0.8,0-1.6,0-2.4,0c-0.4,0-0.4-0.1-0.4-0.5c0-0.3,0-0.5,0.4-0.5c2.4,0,4.9,0,7.3,0c0.4,0,0.4,0.2,0.4,0.5
		c0,0.3,0,0.5-0.4,0.5c-0.9,0-1.7,0-2.6,0c-0.4,0-0.5,0.1-0.5,0.5C225.4,133.3,225.4,134.6,225.4,136z"/>
	<path class="st3" d="M125.4,136c0,1.3,0,2.7,0,4c0,0.4,0,0.5-0.5,0.6c-0.4,0-0.5-0.2-0.5-0.6c0-2.6,0-5.3,0-7.9
		c0-0.5-0.1-0.6-0.6-0.6c-0.8,0-1.7,0-2.5,0c-0.3,0-0.5-0.1-0.5-0.5c0-0.4,0.2-0.5,0.5-0.5c2.4,0,4.8,0,7.1,0c0.3,0,0.5,0.1,0.5,0.4
		c0,0.3-0.1,0.5-0.5,0.5c-0.8,0-1.7,0-2.5,0c-0.4,0-0.5,0.1-0.5,0.5C125.5,133.3,125.4,134.7,125.4,136z"/>
	<path class="st4" d="M146.7,135.5c0-1.5,0-3,0-4.5c0-0.4,0.2-0.5,0.6-0.5c0.4,0,0.5,0.1,0.5,0.6c0,3,0,6,0,8.9
		c0,0.4-0.1,0.6-0.5,0.6c-0.5,0-0.6-0.1-0.6-0.6C146.8,138.5,146.7,137,146.7,135.5z"/>
	<path class="st6" d="M168.2,135.5c0,1.5,0,3,0,4.5c0,0.4-0.1,0.6-0.5,0.6c-0.4,0-0.6-0.1-0.6-0.5c0-3,0-6,0-8.9
		c0-0.5,0.2-0.6,0.6-0.6c0.4,0,0.5,0.2,0.5,0.6C168.2,132.6,168.2,134,168.2,135.5z"/>
	<path class="st3" d="M203.7,135.5c0-1.5,0-3,0-4.5c0-0.3,0-0.6,0.5-0.6c0.4,0,0.5,0.2,0.5,0.6c0,3,0,6,0,8.9c0,0.3,0,0.6-0.5,0.6
		c-0.4,0-0.5-0.2-0.5-0.6C203.7,138.5,203.7,137,203.7,135.5z"/>
	<path class="st0" d="M146.1,105.9c-3.5-4-7.9-5.1-12.9-3.9c-7.9,1.8-11.2,10-8.2,16.8c2.2,4.8,6.2,6.9,11.1,7.1
		c1.3-0.1,2.4-0.1,3.5-0.4c5.7-1.4,9.1-6.1,9.2-11.3C148.9,111.1,148.2,108.3,146.1,105.9z M138.6,124.1c-0.7,0.1-1.5,0.2-2.1,0.2
		c-5,0-8.9-2.8-10.3-7.3c-1.9-6.1,1.6-12.3,8-13.6c5.2-1,10.1,1.3,12.1,5.9C148.8,115.3,145.7,122.7,138.6,124.1z"/>
	<path class="st0" d="M173.1,125.1c-1.8-2.5-3.5-4.9-5.3-7.4c-0.2-0.3-0.3-0.5,0.2-0.6c0.8-0.2,1.5-0.6,2.1-1.1c2-1.5,2.9-3.5,3-5.9
		c0.1-3.1-1-5.6-3.9-7.2c-1.7-0.9-3.5-1.2-5.4-1.2c-2.7,0-5.5,0-8.2,0c-0.6,0-0.7,0.1-0.7,0.7c0,7.4,0,14.7,0,22.1
		c0,1.2,0,1.2,1.2,1.2c0.4,0,0.5-0.1,0.5-0.5c0-2.2,0-4.5,0-6.7c0-0.5,0.2-0.6,0.6-0.6c2.1,0,4.2,0,6.2,0c0.6,0,1.2,0.1,1.8-0.1
		c0.4-0.1,0.6,0,0.8,0.3c1.5,2.1,3,4.2,4.5,6.2c1,1.4,1,1.4,2.9,1.3C173.4,125.4,173.3,125.3,173.1,125.1z M165.8,116.1
		c-1.8,0.3-3.7,0.2-5.5,0.2c-1.1,0-2.1,0-3.2,0c-0.4,0-0.5-0.1-0.5-0.5c0-4,0-8.1,0-12.1c0-0.4,0.2-0.5,0.5-0.5c1.2,0,2.3,0,3.5,0
		c1.8,0,3.5-0.1,5.3,0.2c2.2,0.4,4,1.4,4.9,3.5C172.7,111.2,170.3,115.5,165.8,116.1z"/>
	<path class="st0" d="M199.2,125.4c-3.6-7.8-7.1-15.5-10.7-23.3c-0.1-0.3-0.3-0.4-0.6-0.3c-0.2,0-0.4,0-0.7,0
		c-0.5-0.1-0.8,0.1-1,0.6c-3.5,7.6-6.9,15.1-10.4,22.7c-0.1,0.2-0.2,0.4-0.2,0.7c0.4,0,0.8,0,1.3,0c0.4,0,0.6-0.1,0.8-0.5
		c0.8-1.9,1.7-3.8,2.6-5.8c0.2-0.4,0.3-0.5,0.8-0.5c4.3,0,8.5,0,12.8,0c0.4,0,0.6,0.1,0.8,0.5c0.9,1.9,1.8,3.9,2.7,5.8
		c0.1,0.2,0.1,0.5,0.5,0.5c0.5,0,1,0,1.6,0C199.3,125.5,199.3,125.4,199.2,125.4z M181.2,117.4c2.1-4.6,4.1-9.1,6.2-13.7
		c2.1,4.6,4.2,9.2,6.3,13.7C189.5,117.4,185.4,117.4,181.2,117.4z"/>
	<path class="st6" d="M139.1,137.1c0.1-0.1,0.2-0.1,0.3-0.1c1.4-0.7,2.1-1.8,2-3.4c-0.1-1.5-1-2.5-2.6-2.9c-1.6-0.4-3.3-0.1-5-0.2
		c-0.4,0-0.3,0.2-0.3,0.5c0,3,0,6.1,0,9.1c0,0.4,0.2,0.5,0.5,0.4c0.3,0,0.6,0,0.6-0.5c0-0.7,0-1.5,0-2.2c0-0.4,0.1-0.5,0.5-0.5
		c0.9,0,1.7,0,2.6,0c0.3,0,0.5,0,0.6,0.3c0.5,0.8,1.2,1.5,1.6,2.3c0.4,0.6,0.9,0.7,1.6,0.5C140.7,139.4,139.9,138.3,139.1,137.1z
		 M137.3,136.4c-0.9,0-1.7,0.1-2.6-0.1c-0.1-0.8,0-1.7-0.1-2.5c0-0.6,0-1.2,0-1.8c0-0.5,0.1-0.7,0.6-0.6c0.4,0,0.8,0,1.3,0
		c0.9,0,1.7-0.1,2.6,0.3c1,0.5,1.3,1.4,1.3,2.4c0,0.9-0.6,1.6-1.5,2C138.3,136.4,137.8,136.5,137.3,136.4z"/>
	<path class="st5" d="M178.7,130.4c-3.1,0-5.2,2.3-5.3,5.1c0,2.8,2.4,5.2,5.3,5c2.9,0.2,5.3-2.3,5.2-5
		C183.9,132.7,181.8,130.4,178.7,130.4z M178.7,139.7c-2.4,0-4.2-1.8-4.2-4.1c0-2.4,1.8-4.2,4.2-4.2c2.4,0,4.2,1.8,4.2,4.1
		C182.9,137.9,181,139.7,178.7,139.7z"/>
	<path class="st7" d="M241.4,140.2c-1.4-3.1-2.8-6.1-4.2-9.2c-0.2-0.3-0.4-0.4-0.7-0.4c-0.4,0-0.6,0.1-0.7,0.4c-1,2.1-2,4.3-2.9,6.4
		c-0.4,0.9-0.8,1.8-1.2,2.8c-0.1,0.1-0.3,0.4,0,0.4c0.4,0.1,0.9,0.2,1.1-0.4c0.2-0.6,0.5-1.2,0.8-1.8c0.1-0.3,0.3-0.4,0.6-0.4
		c1.6,0,3.2,0,4.8,0c0.3,0,0.4,0.1,0.6,0.3c0.2,0.5,0.5,1.1,0.7,1.6c0.4,0.8,0.4,0.8,1.4,0.7C241.5,140.4,241.5,140.3,241.4,140.2z
		 M238.4,137c-1.3,0-2.7,0-4,0c-0.2,0-0.4,0-0.3-0.3c0.7-1.7,1.5-3.3,2.3-5.1c0.8,1.8,1.5,3.4,2.2,5C238.9,137,238.8,137,238.4,137z
		"/>
</g>
</svg>
