<?xml version="1.0" encoding="utf-8"?>
<!-- Generator: Adobe Illustrator 25.2.1, SVG Export Plug-In . SVG Version: 6.00 Build 0)  -->
<svg version="1.1" id="Camada_1" xmlns="http://www.w3.org/2000/svg" xmlns:xlink="http://www.w3.org/1999/xlink" x="0px" y="0px"
	 viewBox="0 0 1000 1000" style="enable-background:new 0 0 1000 1000;" xml:space="preserve">
<style type="text/css">
	.st0{fill:#231F20;}
	.st1{fill:#FEFEFE;}
	.st2{fill:#D3AB53;}
	.st3{fill:#D3AB51;}
	.st4{fill:#FDFDFD;}
	.st5{fill:#FEFDFD;}
	.st6{fill:#D2AB52;}
	.st7{fill:#FCFCFC;}
	.st8{fill:#252122;}
	.st9{fill:#D0A852;}
	.st10{fill:#C5A04E;}
	.st11{fill:#C49F4E;}
	.st12{fill:#2E2A2B;}
	.st13{fill:#252020;}
	.st14{fill:#242021;}
	.st15{fill:#262324;}
	.st16{fill:#C09C4D;}
</style>
<g>
	<path class="st0" d="M500,900c-91.1,0-182.2,0-273.2,0c-82.2,0-148.9-66.6-148.9-148.9C78,573,78,394.9,77.9,216.8
		c0-82.2,66.6-148.9,148.9-148.9C408.9,68,591.1,68,773.2,68c82.2,0,148.9,66.6,148.9,148.9c-0.1,178.1-0.1,356.2,0,534.3
		c0,82.2-66.6,148.9-148.9,148.9C682.2,900,591.1,900,500,900z"/>
	<path class="st1" d="M335.9,649.4c20.9,4.3,41.2,10.9,62.5,11.5c10.4,0.3,19.4-3.1,25.1-12.6c0.8-1.4,1-4.1,3.3-3.2
		c1.4,0.5,2.5,2.5,3.2,4c5.9,12.9-2.5,27.6-17.6,30.8c-16.7,3.5-32.6-0.2-48.4-5.3c-10.1-3.3-19.6-8.1-29.1-12.8
		c-4.4-2.2-7.8-2.5-12.3,0.6c-8.9,6.1-19.3,7.3-29.8,5.4c-6.4-1.2-11.8-4.4-11.8-11.7c0-7.1,5.5-9.6,11.4-11.2
		c5.8-1.5,11.6-1.1,17.3-0.1c5,0.9,6.6-1,7.3-5.7c1.9-13.1,2.1-26.2,1.5-39.4c-1.4-32.8-4.2-65.7-2.3-98.6
		c0.9-14.9,2.9-29.7,9.1-43.5c10.5-23.2,32.5-33.7,56.1-26.9c23.2,6.7,31.5,35.9,15.1,52.9c-7.3,7.5-19.9,10-29.5,6
		c-10.2-4.3-12.8-15.8-4.8-26c0.9,9.2,6.3,11.2,13.7,9.7c6.5-1.3,10.9-7.3,11.5-15.1c0.7-8.8-4.1-17.4-11.5-20.5
		c-9.1-3.8-22.8-0.3-29,7.6C337.3,458,337,473.1,337,488c0.1,25.6,3.4,50.9,5.8,76.4c2.1,22.2,3.8,44.4-0.5,66.5
		C341.1,637.2,338.7,643,335.9,649.4z"/>
	<path class="st2" d="M534.6,273.8c5-9,9.4-16.9,13.9-24.7c0.9-1.6,1.3-4.7,3.8-3.6c2.6,1.1,2.9,4.1,1.7,6.6
		c-3,5.9-6.1,11.6-9.2,17.4c-7.4,14.1-6.6,19.9,4.5,30.3c4.4-11,8.6-21.9,13-32.9c4.3,2.4,4.6,5.1,3.4,8.7c-2.8,8.1-4.9,16.5-9.1,24
		c-3.3,5.9-3.9,12.2-0.7,18.2c9,17,18.9,33.4,31.5,48.1c4,4.7,8.6,7,14.6,5.7c23.3-5.2,48,24.2,35.7,48.9c-2.2,4.5-2.9,8.6,1.8,12.1
		c1.8,1.3,2.6,3.2,0.7,5.1c-1.7,1.7-3.4,0.6-4.6-0.6c-3.9-3.8-8-4.3-13.1-2c-12.4,5.6-23.7,2.8-33.8-5.7
		c-10.4-8.7-14.9-19.8-12-33.1c1.8-8.4,0.4-15.2-4.6-22c-7.8-10.6-14.9-21.6-25.5-29.9c-10-7.8-16-8-25.7-0.1
		c-9.7,7.9-17.6,17.4-24.5,27.7c-5.3,7.9-6.4,16.7-5.5,26.1c2.1,21.6-14.6,38.7-36.3,37.6c-16.4-0.8-29.9-16.9-27.8-33.3
		c2.6-21.2,16.4-33.2,37.1-32.3c7.6,0.3,13.8-2.3,18.9-7.9c12.1-13.4,20.9-29.1,29.9-44.6c3.2-5.4,2.7-11,0.5-16.8
		c-15.3-38.5-27.1-78.2-39.3-117.8c-1.1-3.7-1-6.7,2.6-8.3c4.4-1.9,6.8,0.5,8.8,4.5c15,29.2,30.1,58.3,45.3,87.5
		C531.4,268.6,532.7,270.5,534.6,273.8z"/>
	<path class="st2" d="M548,151.9c-13.5,17.4-24.5,34.5-34.8,52.2c-1.3,2.2-1.8,6.5-5.5,4.5c-3.8-2-1.3-5.3,0.2-7.8
		c11.5-19,23.1-38,36.9-55.5c2-2.6,3.9-5.3,5.5-8.1c1.7-2.8,1.9-5.8-0.6-8.4c-2.8-2.8-6-2.3-9-0.4c-1.9,1.2-3.7,2.7-5.3,4.3
		c-13.4,13.5-25.6,28-36.7,43.4c-1.5,2.1-2.3,7.1-6.2,4.4c-4-2.8-0.1-5.9,1.6-8.3c10.1-14.2,20.7-28.1,33.5-40.1
		c5.5-5.1,7.4-10.5,4-17.5c-2.1-4.5-1.8-9.4-1.1-14.2c0.3-1.9,1.3-3.5,3.5-3.2c1.7,0.2,2.3,1.8,2.4,3.4c0.1,2,0,4,0.2,6.1
		c0.7,10.5,2.8,12.7,13.3,14.4c6.9,1.1,11,9.3,7.2,16.8c-3.5,6.9-2.1,12.3,1.1,18.5c28.2,54.5,56.3,109.1,84.4,163.6
		c6,11.7,5.6,12.9-6.4,18.7c-4.5,2.2-8.9,4.7-13.4,7.1c-8.2,4.4-9.2,4.2-13.4-4c-13.3-25.8-26.6-51.7-39.9-77.5
		c-5.1-9.9-10.4-19.7-15.4-29.6c-4.1-7.9-3.4-9.6,4.5-13.3c8.1-3.8,10.9-9.4,9.3-19.3C565,184.4,556.6,168.9,548,151.9z"/>
	<path class="st1" d="M238.9,723.6c16.8,13.6,17.6,30.7,1.9,45.6c0.4,0.3,0.7,0.8,1.1,1c22.4,5.4,24.3,21.5,22.3,36.1
		c-2.1,15.6-13.5,24.5-31.8,25.5c-0.8,0-1.5,0.2-2.3,0.1c-5.6-0.7-8.7,1.3-11.2,6.9c-7.5,16.9-31.8,23.6-47.6,13.8
		c-10.7-6.6-15.1-19.4-10.9-31.9c3.5-10.6,13.7-17.4,24.6-16.3c8.6,0.9,14.6,7.1,14.9,15.4c0.3,7.6-3.2,11.6-11.7,13.1
		c0.2-1.5,0.5-2.9,0.6-4.3c0.3-4.4,0.3-8.9-4.9-10.6c-5.3-1.7-10-0.5-13.4,4.3c-4.9,6.8-3.9,17.4,2.3,23.7c6,6.1,15.6,6.8,22.9,1.5
		c6.7-4.9,11.2-11.7,11.3-19.8c0.4-34.9,0.2-69.8,0.2-104.7c-22.4,3.8-36.8,25.1-31.6,46.4c2,8.4,6.9,14.5,15,17.9
		c1.6,0.7,4.7,0,4.2,3.1c-0.4,2.1-2.5,2.9-4.5,3.6c-7.7,2.7-17.2-1.1-21.5-9.9c-7.2-14.8-5.6-29.5,2.7-43.3
		c6.6-10.9,16.5-17.7,29-20.3c5.4-1.1,8.1-3.5,10.3-8.9c4.2-10.6,11.1-19.2,23.5-21.1c1.5-0.9,2.8-0.8,3.7,0.9c0,2.9-2.4,4.3-4.1,6
		c-3,2.9-4.7,6.5-6,10.4c-1.7,5.3-1.5,9.4,5,11C235.4,719.3,237.9,720.7,238.9,723.6z"/>
	<path class="st1" d="M483.4,545.9c6.4-7.3,12.8-11,21.3-10.8c14.8,0.4,23.9,8.4,24.3,23.3c0.5,19.2,0.3,38.4,0.3,57.6
		c0,4.9-0.3,9.8,5.3,12.2c1.4,0.6,2.1,1.6,1.4,2.9c-0.4,0.7-1.6,1.3-2.4,1.3c-10.4,0.1-20.7,0.1-31.1,0c-1,0-2.1-0.2-2.4-1.4
		c-0.3-1.3-0.1-2.4,1.4-3c5.2-2.2,5.3-6.7,5.3-11.4c-0.1-16.9,0-33.9-0.1-50.8c0-3-0.2-6.1-0.7-9.1c-0.7-5.1-2.8-9.5-8.6-10
		c-5.9-0.5-10.2,2.4-12.4,8c-1.3,3.3-1.7,6.8-1.6,10.4c0.1,17.2,0.1,34.4,0,51.6c0,4.7-0.2,9.2,5.2,11.4c1.3,0.5,2.1,1.5,1.4,2.9
		c-0.6,1.3-1.9,1.4-3.2,1.4c-9.9,0-19.7,0-29.6,0c-1.3,0-2.7-0.1-3.1-1.6c-0.5-1.9,0.8-2.6,2.3-3.2c3.8-1.7,4.4-5,4.4-8.8
		c-0.1-37.2-0.1-74.3,0-111.5c0-3.8-0.6-7-4.6-8.6c-1.2-0.5-2.3-1.4-2.2-2.8c0.3-2.1,2.1-1.8,3.6-1.8c9.6,0,19.2,0,28.8,0
		c1.5,0,3.3-0.3,3.7,1.6c0.3,1.8-1.4,2.4-2.7,3.1c-2.4,1.3-3.9,3.3-3.9,6C483.4,518.2,483.4,531.2,483.4,545.9z"/>
	<path class="st1" d="M616.5,709.3c0.3,6,1.6,10.3,8.1,10.3c5.8,0,9-3.3,10.2-8.4c1.4-6.3-0.3-11.8-6.4-14.6
		c-6.8-3.2-13.5-2-19.3,2.3c-6.3,4.7-8.3,11.4-6.7,18.9c2.1,10.3,9.3,17.1,16.9,23.5c9.9,8.2,20.3,15.9,29.9,24.5
		c16.5,14.8,24.6,33,17.8,55c-6.5,21-22.5,31.7-43.5,35c-19.5,3.1-36.5-1.5-47.5-19.2c-9.2-14.8-9.3-30.5,0.5-45
		c9-13.5,22.7-16.9,38.1-14.7c14,2.1,23.5,15.4,21.9,29.9c-1.8,15.4-12.5,24.4-27,23.7c-10.6-0.6-19.9-11.1-14-23.2
		c4.2,6.9,9.9,9.7,17.5,6.4c6.4-2.8,9.5-8,10.1-14.8c0.6-7.2-1.6-13.5-8.4-16.3c-7.8-3.2-15.6-1.7-21.9,4.1
		c-9.4,8.9-12,20.3-10.1,32.7c2.9,17.8,14.2,28.5,29.8,29c17.7,0.5,32.2-10.8,36.3-28.2c4.2-17.6-0.8-32.8-11.7-46.7
		c-7.7-9.9-18-17.1-26.4-26.1c-4-4.2-8-8.5-11.3-13.3c-7.7-11.2-6.1-26.7,3.2-35.4c8.9-8.4,26.6-9.3,36.7-2
		c8.4,6.1,10.7,18.4,5.3,28c-4.7,8.4-14.9,12-23.5,8.3C611.2,728.6,608.3,716.8,616.5,709.3z"/>
	<path class="st1" d="M415.6,623.9c-6.6,6.9-14.6,10.1-24.3,8.2c-11.4-2.3-17.2-8-19-19.5c-2.3-14.8-0.6-29.8-1.1-44.7
		c-0.2-6.6-0.1-13.1,0-19.7c0-3.5-0.5-6.5-4.1-8.2c-1.3-0.6-2.9-1.4-2.2-3.3c0.6-1.6,2.1-1.1,3.3-1.1c9.6-0.1,19.2-0.1,28.8,0
		c1.4,0,3.3-0.5,3.8,1.5c0.5,2-1.4,2.4-2.7,3.1c-3.6,2-4.4,5.2-4.3,9c0.1,18.5,0,36.9,0.1,55.4c0,2,0.4,4,0.7,6
		c1,6,3.2,10.8,10.5,10.4c6.4-0.4,11.3-5.5,11.4-12.7c0.2-10.9,0.1-21.7,0.1-32.6c0-8.3,0-16.7,0-25c0-4.4,0.3-8.7-4.8-10.8
		c-1.2-0.5-2.2-1.6-1.3-3c0.4-0.6,1.6-1.1,2.5-1.1c10.1-0.1,20.2-0.1,30.3,0c1.3,0,2.7,0.1,3,1.7c0.2,1.5-1.2,2.1-2.2,2.7
		c-4.1,1.9-4.8,5.4-4.8,9.4c0.1,23,0.1,46,0,69c0,4.3,0.6,8.1,5.1,10c1.2,0.5,2.3,1.4,1.9,2.8c-0.4,1.3-1.7,1.6-3.1,1.6
		c-7.8,0-15.7,0.3-23.5-0.1C413.8,632.2,418.3,626.6,415.6,623.9z"/>
	<path class="st1" d="M591,569.7c-0.4-10,3.1-21.2-7.4-27.8c-6.3-4-13.6-2.8-21.4,1.9c1.9,1.5,3.8,2.3,4.8,3.7
		c2.9,4.2,2.9,8.6-0.3,12.6c-3,3.7-7,4.9-11.5,2.9c-4.7-2.1-6.8-6-6.1-11c1.2-8.3,7-12.7,14.4-14.8c10.2-2.9,20.6-2.7,30.7,0.3
		c12.7,3.8,19.5,13.4,19.6,27.3c0.2,17.2,0,34.4,0,51.5c0,4.8-0.8,9.9,5.2,12c1.2,0.4,1.5,1.5,1.3,2.4c-0.3,1.4-1.5,1.8-2.9,1.8
		c-7.8,0-16.5,2-23.3-0.6c-6.5-2.5-11.2,0.3-16.7,0.5c-14.1,0.5-25.9-4.3-33.6-16.5c-6.8-10.8-6.7-22.1,0.1-32.9
		c7.8-12.2,19.5-17.1,33.6-16.2C582,567.2,586.3,568.7,591,569.7z"/>
	<path class="st3" d="M849.7,579.1c-1.4,0.1-2.9,0.2-4.3,0.2c-37.6,0-75.3-0.1-112.9,0.1c-5.7,0-7.3-1.6-7.3-7.2
		c0-19.8-0.2-19.8,19.6-19.8c34.9,0,69.7,0,106.7,0c-9.9,8.9-13.1,17.4,0.4,25.5C851.2,578.3,850.5,578.7,849.7,579.1z"/>
	<path class="st3" d="M170.8,579.4c3.9-5.3,8.7-9.1,9.2-13.5c0.6-4.5-5.8-7.6-8.1-12.1c1.3-2.4,3.6-1.3,5.4-1.3
		c37.4-0.1,74.8,0,112.1-0.2c5.4,0,7.4,1,7.4,6.9c-0.2,20,0.1,20-20,20C241.9,579.4,207.1,579.4,170.8,579.4z"/>
	<path class="st4" d="M646.3,494.5c4.6,0,9.1,0,13.7,0c1.4,0,3.3-0.3,3.6,1.7c0.3,1.5-1.1,2.2-2.2,2.7c-4.4,2.1-4.7,6.1-4.7,10.3
		c0,35.9,0.1,71.8,0,107.8c0,4.8,0.4,9.2,5.5,11.4c1.1,0.5,1.6,1.2,1.4,2.3c-0.3,1.5-1.5,1.9-2.8,1.9c-10.1,0-20.2,0-30.4,0
		c-1.3,0-2.6-0.2-2.9-1.8c-0.2-1.4,0.5-2.2,1.9-2.8c4.7-1.9,4.7-6,4.7-10.2c0-36.2,0-72.3,0-108.5c0-4.4,0.3-8.8-5-10.7
		c-1.2-0.5-2.1-1.7-1.2-3c0.4-0.6,1.6-1,2.5-1C635.7,494.4,641,494.5,646.3,494.5z"/>
	<path class="st1" d="M690.5,494.5c4.6,0,9.1-0.1,13.7,0c1.4,0,3.3-0.6,3.8,1.4c0.5,1.9-1.1,2.5-2.5,3.2c-3.4,1.8-3.9,4.9-3.9,8.4
		c0,37.2,0,74.3,0,111.5c0,3.8,0.8,7.1,4.5,8.8c1.3,0.6,2.2,1.3,2,2.7c-0.3,2.1-2,1.9-3.5,1.9c-9.6,0-19.2,0-28.8,0
		c-1.6,0-3.3-0.1-3.7-1.9c-0.5-2,1.4-2.3,2.7-3c3.6-2,4.2-5.3,4.2-9c0-36.9,0-73.8,0-110.8c0-4.1-0.9-7.5-5.1-9.3
		c-1.1-0.5-2.3-1.2-1.8-2.8c0.6-1.6,2-1.3,3.2-1.3C680.3,494.4,685.4,494.5,690.5,494.5z"/>
	<path class="st4" d="M696.2,823.8c-7.6,0-15.3,0-25,0c6.6-3.9,6.2-8.9,6.1-13.8c-0.1-21.5-0.1-42.9,0-64.4c0-4.6,0.3-9.2-6.9-12.7
		c10.3,0,18,0,26.2,0c-8.2,10.1-2.6,21.2-4.5,32.4c3.6-2.1,6-3.9,8.7-4.8c11.8-4,21.5,3.1,22,16.3c0.4,11.1,0.1,22.2,0.1,33.3
		c0,4.9-1,10.1,6.5,13.8c-10.2,0-17.9,0-26.8,0c6.7-5.1,5.1-11.7,5.2-18c0.1-9.6,0.3-19.2-0.1-28.8c-0.2-4.4-0.7-9.7-7.2-9.6
		c-6.2,0.2-8,4.6-8.1,9.9c-0.2,12.6,0,25.3-0.2,37.9C692.3,818.6,694,820.8,696.2,823.8z"/>
	<path class="st5" d="M797.2,822.6c2.4,9.7-3.8,19.7,5.8,28.3c-8.9,0-16.7,0-27.2,0c7.6-3.4,6.8-8.3,6.7-13
		c0-22.2-0.1-44.4,0.1-66.6c0-4.3-0.2-8.1-4.6-10.1c1.5-2.6,3.7-1.7,5.6-1.9c7.8-0.9,15.6,1.2,23.5,0.4c7.5-0.8,13.2,4.4,17,10.8
		c6.8,11.3,7.6,23.4,3.4,35.7C822.8,820.5,813.2,825.7,797.2,822.6z"/>
	<path class="st1" d="M377.5,733c1.2-0.2,2.3-0.5,3.5-0.5c6.5,0,13.1,0,20.9,0c-9,9-3.5,19-5.3,28.4c16.9-2.7,26.4,3.3,30.8,19.2
		c2.7,9.8,2.3,19.5-1.7,28.9c-4.1,9.6-14.6,17.2-26,14.8c-6.8-1.4-14.6,0.7-23.5,0.2c6-4,5.6-9.1,5.6-14.3
		c-0.1-21.2,0-42.5-0.1-63.7C381.7,741.3,383.3,736.1,377.5,733z"/>
	<path class="st4" d="M304.2,782.5c0-3.5,0.3-6.8,0-10c-0.8-8.1-8-12.3-15.5-9c-1.8,0.8-3.2,1.4-1.1,3.6c3.2,3.7,3,7.5-1.1,10.4
		c-3.1,2.3-6.5,1.5-8.6-1.6c-2.8-4.2-1.8-8.6,2-11.5c8.7-6.7,18.5-5.7,28.1-2.5c8.6,2.9,11.6,9.8,11.5,18.5
		c-0.1,10.1-0.1,20.2,0,30.3c0,4.6-1.3,9.7,5,12.6c-7.3,0.9-13.8,2-20,0c-1.6-0.5-2.8-0.3-4.1,0c-12.5,2.3-21.8-0.8-27.3-9.6
		c-4.7-7.6-4.6-15.3,0.4-22.8c5.7-8.6,15.3-11.7,27.5-9.1C301.8,781.9,302.7,782.1,304.2,782.5z"/>
	<path class="st6" d="M419.1,329.6c1.4-9.4,5.3-19.3,9-29.2c11.4-30.8,24.7-60.8,41-89.4c1.2-2.1,1.9-5.9,4.9-4.5
		c3.4,1.6,2,5.2,0.5,8c-6.4,12.6-13.3,25-19.4,37.7c-10.9,22.8-20.3,46.2-28.2,70.2c-1.4,4.2-3,8.7-0.8,12.5
		c2.4,4.2,2.6,11.1,9.9,10.8c8.3-0.3,14.1-4.8,16-12.5c7-27.7,16.9-54.5,28.9-80.4c1.2-2.7,1.8-8.5,5-7.1c4.7,2,2,7.1,0.4,10.6
		c-9.1,20-17.1,40.5-23.5,61.5c-1.9,6.3-3.9,12.6-5.3,19c-1.7,7.9-6.4,12.2-14.3,13.7c-3,0.5-5.9,1.3-8.8,2.2
		c-1.8,0.5-3.9,1-4.9-0.5C425.3,345.5,418.9,339.8,419.1,329.6z"/>
	<path class="st4" d="M475.5,812.4c-1.4-0.8-2.8-1.3-4-2.2c-2.8-2.1-3.6-4.8-2.1-8c1.5-3.2,4-4.5,7.4-3.8c3.4,0.7,5,2.9,5.2,6.5
		c0.9,12-11.9,21.7-25.3,19c-7.6-1.6-13.5-5.8-17.1-12.7c-6.9-13.3-6.7-26.8,0.7-39.8c4.8-8.4,12.3-12.5,22.2-11.4
		c9.4,1,14.8,6.8,17.9,15.3c0.1,0.2,0.2,0.5,0.2,0.7c6.1,17.2,4.7,19.3-12.8,19.3c-3,0-6.1,0-9.1,0c-10,0-10.2,0.4-7,10.1
		C455.8,817,466,820.3,475.5,812.4z"/>
	<path class="st4" d="M776.5,795.8c-0.1,6.6-2.7,16.1-10.9,23.3c-7.7,6.8-17.5,6.7-25.4,0c-14.8-12.7-14.6-42.4,0.3-55
		c7.5-6.3,17.3-6.3,24.8,0C772.5,770.2,776.5,780.2,776.5,795.8z"/>
	<path class="st4" d="M369.4,766.8c-7.6-2.9-12.5-1.3-16.5,5c-3.5,5.6-4.1,11.9-4.2,18.2c-0.2,6.8,0,13.6,0,20.5
		c0,4.7-0.9,9.6,5.4,12.4c-0.5,0.5-0.9,1-1.4,1.5c-3.9,0-7.8,0-11.7,0c-3.7,0-7.5,0-11.6,0c6-8.7,6-56.5-1-65.3
		c7.8,3,14.9-3.5,20.7,4.3c1.2,1.7,4-1.2,6.1-2c11.7-4.5,22.9,1.7,21.7,12.3c-0.4,3.5-1.9,6.4-5.6,7.3c-2.7,0.6-5-0.4-6.5-2.7
		c-2-2.9-1.7-5.8,0.6-8.3C366.2,768.7,367.6,768,369.4,766.8z"/>
	<path class="st4" d="M487.2,824.1c7.2-7.4,7.2-57-0.3-64.8c8.1,2.4,15.3-4.1,21.2,4c1.2,1.7,3.5-1,5.2-1.7
		c9.5-3.9,18.9-1.5,21.5,5.9c1.6,4.7,2.1,9.6-3.1,12.7c-3.1,1.8-6.2,0.8-8-2c-3.2-5.3-0.1-8.7,5.3-11.7c-7.2-2.7-12.2-1.2-16.2,3.9
		c-3.7,4.8-4.9,10.5-5.1,16.4c-0.3,9.3,0.1,18.7-0.2,28c-0.1,3.8,2,5.9,5.6,8.7C504.1,824.8,496.4,824,487.2,824.1z"/>
	<path class="st7" d="M237.4,691.8c-1.1-0.5-2.2-0.9-3.3-1.4c12-3.5,23.8,1.2,27.2,10.9c4.6,13.1-4.9,22.7-20.8,21.1
		c-6-1.1-8.4-5-8.2-10.8c0.2-5.2,2.9-7.1,7.8-5c3.3,1.4,5.9,1.9,7.4-1.9c1.3-3.3,0.6-6.4-2.4-8.7C242.7,694.2,239,694.8,237.4,691.8
		z"/>
	<path class="st8" d="M237.4,691.8c5.1-0.1,10.6-0.3,13.1,5.2c2.3,4.9,1.8,10-3.3,13.3c-5.4,3.5-8-1-10.7-5.1
		c-4.4,7.5-1.7,12.7,4,17.1c-0.5,0.4-1,0.9-1.6,1.3c-3-1.1-6-3-9.1-3.3c-7.4-0.8-7.1-4.9-5.5-10.4
		C226.5,702.3,229.3,695.2,237.4,691.8z"/>
	<path class="st9" d="M590.5,203.3c-8.6-9.2-9-17.8-1.5-25.7c1.8-1.9,3.8-3.6,6.5-2c2.4,1.4,2.3,3.9,1.6,6.1
		C595,188.7,592.8,195.8,590.5,203.3z"/>
	<path class="st10" d="M547,135.3c-0.3,2.3-1.6,3.8-3.8,3.8c-2.3,0-3.7-1.5-3.6-3.9c0.1-1.9,1.3-3.3,3.3-3.4
		C545.3,131.8,546.6,133.1,547,135.3z"/>
	<path class="st11" d="M437.4,330.7c2,0,3.4,0.8,3.6,2.9c0.3,2.4-0.9,3.9-3.3,4c-2,0.1-3.1-1.2-3.2-3.2
		C434.4,332.3,435.3,331,437.4,330.7z"/>
	<path class="st12" d="M311.7,653.1c-4,6.6-10.5,9.3-16.3,7.2c-1.8-0.7-3.2-1.5-3.5-3.5c-0.3-2.4,1.1-3.8,3.1-4.6
		C300.7,649.9,306.2,651.3,311.7,653.1z"/>
	<path class="st0" d="M582.2,403.4c0-15.6,10.1-25.8,25.5-25.6c15.3,0.2,26.3,12.2,26.5,29.1c0.1,12.4-11.2,25.1-22.6,25.4
		C596.6,432.7,582.2,418.5,582.2,403.4z"/>
	<path class="st0" d="M434.1,403.4c-0.6-13.7,10.6-26.4,23.4-26.7c15.8-0.4,26.4,8.3,27.1,22.3c0.8,15.8-11.1,29.4-26.4,30.2
		C443.7,429.8,434.8,420.3,434.1,403.4z"/>
	<path class="st0" d="M496.5,222.6c3.8,2.1,4.4,4.7,5.5,6.9c11.8,22,23.5,44.1,35.2,66.1c3.4,6.5,6.7,12.9,8.7,20
		c2.2,7.8,6.7,14.6,12.1,20.8c9.7,11,17.8,23.2,26.5,35c1.4,2,3.8,4.4,0.6,6.4c-2.8,1.8-4.5-0.9-6-2.9c-10.3-14-19.7-28.7-32.4-40.9
		c-1.1-1-1.7-2.7-3-3.3c-12.7-5.5-17.3-16.6-21.1-28.7c-7.5-23.8-15.8-47.4-23.8-71C498.1,228.6,497.5,226.2,496.5,222.6z"/>
	<path class="st13" d="M484.2,376.8c-4.3-1.2-4.3-3.5-2.1-6.3c4.8-6.1,9.8-12.1,14.6-18.3c6.1-8,12.3-15.9,17-24.9
		c1.7-3.3,3.7-5.6,7.6-2.7c3.6,2.7,6.3,6.7,2.2,10c-14.3,11.5-24.9,26.2-36.4,40.2C486.3,375.7,485.1,376.2,484.2,376.8z"/>
	<path class="st14" d="M222.2,798.7c0-7.3,0.2-14.7-0.1-22c-0.2-4.1,1.5-4.5,4.9-3.9c11.9,2.2,18.8,11.4,18.9,25.6
		c0,14.4-7.6,24.8-19.6,27c-3.6,0.7-4.3-0.7-4.2-3.9C222.4,813.9,222.2,806.3,222.2,798.7z"/>
	<path class="st8" d="M222.2,746.2c0-6.3,0.1-12.6,0-18.9c-0.1-4,1.5-4.3,4.5-2.5c7.7,4.7,10.1,12.2,10.5,20.6
		c0.4,8.3-1.4,16.2-8.7,21.3c-3.5,2.4-6.6,3-6.3-3.2C222.4,757.8,222.2,752,222.2,746.2z"/>
	<path class="st0" d="M591.2,599.2c-0.5,6.4,1,12.7-1.8,18.8c-2.6,5.8-6.7,9.3-13.3,9.4c-6.6,0.1-9.3-4.3-11.2-9.4
		c-4.4-12-4.5-24.2-0.1-36.2c1.9-5.3,4.5-10.2,11.6-9.9c7.1,0.2,10.8,4.3,13.3,10.3C592.1,587.8,590.6,593.6,591.2,599.2z"/>
	<path class="st8" d="M797.7,791.6c0-5.8-0.1-11.6,0-17.4c0.1-4.4,1.7-8.3,6.1-9.4c4.9-1.3,6.3,3.2,7.6,6.7
		c5.3,13.7,5.2,27.6-0.2,41.2c-1.3,3.2-3,7.3-7.3,6.3c-4.3-1-6.2-4.7-6.2-9.2C797.7,803.7,797.7,797.6,797.7,791.6z"/>
	<path class="st0" d="M396.8,792.3c0-5.8,0-11.6,0-17.4c0-4.6,1.4-9,6.2-10c4.8-1,6.2,3.5,7.5,7c5,13.5,4.9,27.1-0.1,40.5
		c-1.3,3.4-3,7.9-7.7,6.6c-4.3-1.1-6-4.9-5.8-9.5C396.9,803.8,396.8,798.1,396.8,792.3z"/>
	<path class="st14" d="M304.4,801.3c-0.5,5.5,0.6,9.8-1.5,13.9c-1.9,3.7-4.7,5.9-8.9,5.8c-3.9-0.1-5.7-2.9-6.9-6.1
		c-3.2-8.1-3.2-16.2-0.2-24.3c1.4-3.7,3.4-6.8,8.1-6.5c4.7,0.3,7.5,3.1,8.6,7.3C304.4,794.9,304.2,798.7,304.4,801.3z"/>
	<path class="st15" d="M459.8,790.3c-10.8,0-10.7,0-8.9-10.1c0.8-4.5,1.7-9,4.4-12.7c3.1-4.3,7.1-4.1,9.4,0.6
		c2.9,6,3.9,12.6,3.3,19.2C467.3,793.8,461.4,787.8,459.8,790.3z"/>
	<path class="st14" d="M761.4,791.7c0.2,7.6-0.5,15.2-3.4,22.3c-1,2.3-2.1,5-4.9,5.2c-3,0.2-4.4-2.6-5.1-4.8
		c-5.1-15.1-5.1-30.2,0.1-45.3c0.7-2.1,2-4.4,4.6-4.5c3-0.1,4.3,2.5,5.2,4.8C760.9,776.5,761.6,784,761.4,791.7z"/>
	<path class="st16" d="M537.9,309.5c-0.2,2.4-1.7,3.5-4,3.3c-1.9-0.2-3.3-1.3-3.4-3.3c-0.1-2.5,1.6-3.8,3.7-3.9
		C536.5,305.4,537.8,306.9,537.9,309.5z"/>
</g>
</svg>
