<?xml version="1.0" encoding="utf-8"?>
<!-- Generator: Adobe Illustrator 25.2.1, SVG Export Plug-In . SVG Version: 6.00 Build 0)  -->
<svg version="1.1" id="Camada_1" xmlns="http://www.w3.org/2000/svg" xmlns:xlink="http://www.w3.org/1999/xlink" x="0px" y="0px"
	 viewBox="0 0 247.2 202.1" style="enable-background:new 0 0 247.2 202.1;" xml:space="preserve">
<style type="text/css">
	.st0{fill:#FEFEFE;}
	.st1{fill:#201A6C;}
	.st2{fill:#F9F9FA;}
	.st3{fill:#F6F6F7;}
	.st4{fill:#201B6E;}
	.st5{fill:#6F284F;}
	.st6{fill:#70274E;}
	.st7{fill:#292469;}
	.st8{fill:#A9B2D2;}
	.st9{fill:#ED9799;}
	.st10{fill:#3E3976;}
	.st11{fill:#29236D;}
	.st12{fill:#2B266D;}
	.st13{fill:#802B50;}
	.st14{fill:#292363;}
	.st15{fill:#2D276B;}
	.st16{fill:#292463;}
	.st17{fill:#9593B4;}
	.st18{fill:#908EAF;}
	.st19{fill:#D13339;}
	.st20{fill:#D13237;}
	.st21{fill:#2D276A;}
	.st22{fill:#CD2127;}
	.st23{fill:#2D2868;}
	.st24{fill:#8D8BAE;}
	.st25{fill:#837FA7;}
	.st26{fill:#555278;}
	.st27{fill:#6D6A87;}
	.st28{fill:#8785AC;}
	.st29{fill:#9A9EBD;}
	.st30{fill:#858CAE;}
	.st31{fill:#A7A9CE;}
	.st32{fill:#3E3864;}
	.st33{fill:#383563;}
	.st34{fill:#59557C;}
	.st35{fill:#9694AF;}
	.st36{fill:#9B98AB;}
	.st37{fill:#A4ACCB;}
	.st38{fill:#8F8C9F;}
	.st39{fill:#302B6A;}
	.st40{fill:#29226B;}
	.st41{fill:#28226B;}
	.st42{fill:#2F2A69;}
	.st43{fill:#2A226A;}
	.st44{fill:#EC8E8F;}
	.st45{fill:#2F2B6C;}
	.st46{fill:#EE9493;}
	.st47{fill:#7E7CA1;}
	.st48{fill:#282365;}
	.st49{fill:#CF242B;}
	.st50{fill:#CD1F26;}
	.st51{fill:#CE2028;}
	.st52{fill:#CD3034;}
	.st53{fill:#292368;}
	.st54{fill:#CD2327;}
	.st55{fill:#CC242A;}
	.st56{fill:#8C8BB0;}
	.st57{fill:#918EB1;}
	.st58{fill:#706B89;}
	.st59{fill:#85829D;}
	.st60{fill:#605981;}
	.st61{fill:#4D4775;}
	.st62{fill:#6D6A8C;}
	.st63{fill:#793559;}
	.st64{fill:#545074;}
	.st65{fill:#5A547F;}
	.st66{fill:#383264;}
	.st67{fill:#34315D;}
	.st68{fill:#ADAACA;}
	.st69{fill:#58576D;}
	.st70{fill:#696788;}
	.st71{fill:#FCFCFB;}
	.st72{fill:#D4181F;}
	.st73{fill:#A8B2D0;}
	.st74{fill:#BCC4DA;}
	.st75{fill:#929CBB;}
	.st76{fill:#A3AFCA;}
	.st77{fill:#6B2D59;}
	.st78{fill:#7883A0;}
	.st79{fill:#971B45;}
	.st80{fill:#D5181F;}
	.st81{fill:#D21821;}
	.st82{fill:#AAB4D2;}
	.st83{fill:#B91C34;}
	.st84{fill:#BFC3DC;}
	.st85{fill:#B01E3B;}
	.st86{fill:#737FA0;}
	.st87{fill:#707E9F;}
	.st88{fill:#8895B3;}
	.st89{fill:#A0A6C0;}
	.st90{fill:#5F2F54;}
	.st91{fill:#9FA2BC;}
	.st92{fill:#F7F8F9;}
	.st93{fill:#6E2549;}
	.st94{fill:#D11822;}
	.st95{fill:#CACEE2;}
	.st96{fill:#6F7C9A;}
	.st97{fill:#AB1E42;}
	.st98{fill:#8F97B2;}
	.st99{fill:#F8F8F8;}
	.st100{fill:#7986A5;}
	.st101{fill:#6D7999;}
	.st102{fill:#737F9D;}
	.st103{fill:#8893B1;}
	.st104{fill:#CD1E22;}
	.st105{fill:#CD2027;}
	.st106{fill:#D01923;}
	.st107{fill:#F8F8F9;}
	.st108{fill:#2C2669;}
	.st109{fill:#292366;}
	.st110{fill:#E9E6F8;}
	.st111{fill:#A8B1D1;}
	.st112{fill:#9B1F46;}
	.st113{fill:#AF1D34;}
	.st114{fill:#473F73;}
	.st115{fill:#66144F;}
	.st116{fill:#707C9F;}
	.st117{fill:#6F7F9B;}
	.st118{fill:#9297B4;}
	.st119{fill:#CB2024;}
	.st120{fill:#DAD8E9;}
	.st121{fill:#9B1F43;}
	.st122{fill:#7C3D5C;}
	.st123{fill:#DADDE9;}
	.st124{fill:#C4CADD;}
	.st125{fill:#B0B7CC;}
	.st126{fill:#737F9B;}
	.st127{fill:#74819F;}
	.st128{fill:#76829F;}
	.st129{fill:#6F7B9A;}
	.st130{fill:#98A3B7;}
	.st131{fill:#78869E;}
	.st132{fill:#7785A1;}
	.st133{fill:#7783A2;}
	.st134{fill:#72809E;}
	.st135{fill:#DDE0EB;}
	.st136{fill:#727F9F;}
	.st137{fill:#6D7D98;}
	.st138{fill:#96A0BA;}
	.st139{fill:#677392;}
	.st140{fill:#646F8A;}
	.st141{fill:#BFC7DD;}
	.st142{fill:#717E99;}
	.st143{fill:#6D7995;}
	.st144{fill:#6C7997;}
	.st145{fill:#6F7B9E;}
	.st146{fill:#637291;}
	.st147{fill:#667592;}
	.st148{fill:#AAB8D4;}
	.st149{fill:#677592;}
	.st150{fill:#909BB3;}
	.st151{fill:#9AA2C2;}
	.st152{fill:#99A0BA;}
	.st153{fill:#A7AFC6;}
	.st154{fill:#71264B;}
	.st155{fill:#B31F35;}
	.st156{fill:#6B2F54;}
	.st157{fill:#6D3055;}
	.st158{fill:#8A2A4B;}
	.st159{fill:#E4E7EF;}
	.st160{fill:#C6CCDF;}
	.st161{fill:#7D89A3;}
	.st162{fill:#BEC6DB;}
	.st163{fill:#677590;}
	.st164{fill:#707D9E;}
	.st165{fill:#8C96AE;}
	.st166{fill:#687592;}
	.st167{fill:#8B97B0;}
	.st168{fill:#667191;}
	.st169{fill:#683052;}
	.st170{fill:#8F9AB2;}
	.st171{fill:#FCFCFC;}
	.st172{fill:#673159;}
	.st173{fill:#A1A7BE;}
	.st174{fill:#9D1F39;}
	.st175{fill:#99A2B7;}
	.st176{fill:#75809E;}
	.st177{fill:#642F57;}
	.st178{fill:#76809E;}
	.st179{fill:#6C7894;}
	.st180{fill:#8591AE;}
	.st181{fill:#717B9A;}
	.st182{fill:#647192;}
	.st183{fill:#582D5B;}
	.st184{fill:#A4A8BC;}
	.st185{fill:#687694;}
	.st186{fill:#AAB8D5;}
	.st187{fill:#C6CEEA;}
	.st188{fill:#5C2B59;}
	.st189{fill:#291D69;}
	.st190{fill:#8E9BB6;}
	.st191{fill:#66385B;}
	.st192{fill:#F9FAFA;}
	.st193{fill:#C8CEDF;}
	.st194{fill:#95A0B8;}
	.st195{fill:#CED3E3;}
	.st196{fill:#A3ACC2;}
	.st197{fill:#ADAAC8;}
	.st198{fill:#ABAFC7;}
	.st199{fill:#E3E4EE;}
	.st200{fill:#989FB7;}
	.st201{fill:#929BB3;}
	.st202{fill:#747EA0;}
	.st203{fill:#ADB6CC;}
	.st204{fill:#9BA3BA;}
	.st205{fill:#7C84A1;}
	.st206{fill:#A5AFC5;}
	.st207{fill:#A9B3CF;}
	.st208{fill:#7884A1;}
	.st209{fill:#79869F;}
	.st210{fill:#7985A0;}
	.st211{fill:#727E9D;}
</style>
<g>
	<g>
		<path class="st0" d="M123.6,198.3c53.8,0,97.2-43.3,97.3-97.1c0-53.4-43.4-97.1-96.5-97.1c-54.1-0.1-97.9,43.1-98,96.4
			C26.4,154.9,69.5,198.2,123.6,198.3z"/>
		<path class="st1" d="M123.6,198.3c-54.1,0-97.3-43.4-97.2-97.8c0-53.3,43.9-96.5,98-96.4c53.2,0.1,96.6,43.7,96.5,97.1
			C220.9,155,177.4,198.3,123.6,198.3z M85.9,20c-8,3.2-14.9,7.9-21.2,13.7c-4.7,3.7-8.7,8-12.2,12.9c-0.1,0.2-0.3,0.4-0.4,0.6
			c-0.5,0.7-1,1.4-1.5,2.1c-0.6,0.7-1.2,1.3-1.7,2C21,92.5,32.8,149.7,74.8,176.5c18.5,11.8,38.6,16.6,60.5,13.6
			c0.5,0,1.1,0.1,1.6,0c67.3-9.7,99.8-89.3,58.2-143.2c-14.5-18.8-33.5-30.5-57.2-34.1C119.8,9.5,102.5,12,85.9,20L85.9,20z"/>
		<path class="st2" d="M137.9,12.8c-1.5,3.6-3.9-0.9-5.8,0.6c-0.6,0.4-1.9-0.2-2.3,0.8c-0.4,1.1,0.7,1.5,1.4,1.9
			c3.3,1.8,3.1,4.1,0.9,6.7c-1.8-6.4-3.8-7.5-13.7-7.5c-2.1,0-4.3-0.5-3.2,3.1c0.7,2.2-0.5,4.7,0.6,6.9c0.1-2.3,0.1-4.6,0.2-6.8
			c0-0.3,0.2-0.7,0.3-1c0.1,0.3,0.2,0.6,0.2,1c-0.1,4.6,0.7,9.4-1.9,13.6c1.5,0.2,3.1,0.5,4.6,0.7c-1.2,2.2-3.2,2.7-5,1.6
			c-1.6-1-2.8-2.8-1.7-5.1c2.3-4.5,2.9-8.8-0.6-13c-0.7-0.9-1.3-1.6-2.4-1.2c-1.2,0.4-0.6,1.4-0.7,2.2c-0.8,5.6,0.1,11,1.1,16.4
			c0.4,1.9-0.5,2.9-2.7,3.3c-2.2,0.4-4.6,0.2-6.6,1.8c-1,0.8-2.6,1.3-1.7,3c0.8,1.6,2.7,1.5,3.4,0.4c2-3.2,5.6-3,8-2.9
			c5.4,0.4,11.3-2.7,16.3,1.6c-5.3-0.5-10.7-1.5-16,0.4c-3.5,0.4-6.4,2.3-9.2,4.2c-1.4-0.4-2.7-0.9-4.1-1.3
			c-1.2-1.7-2.4-0.4-3.4,0.1c-8.3,4.4-15.3,10.4-21,18C62.8,75.8,59,91.1,60.2,107.8c-1.1-4.1-3-4.1-5.6-1.1c-0.1,0.1-0.5-0.1-0.6,0
			c-2.4,1.8-8.5,0.1-5.9,6.4c0.2,0.8-3.1,0.1-0.9,1.7c2,1.4,2.6,3.3,2.7,5.5c-0.8,0.2-1.7,0.5-2.5,0.7c-3.9,0.4-5.2-2.1-3.6-6.4
			c0.3-0.9,1.8-1.5,0.9-2.7c-0.1-0.2-1.2,0.3-1.8,0.6c-1.3,0.5-2.2,1.2-1.7,3c0.8,2.6,1.4,5.2,2.1,7.8c0.1,0.6,0.1,1.2,0.2,1.8
			c0,1.6-0.4,2.7,2.2,1.5c3.8-1.7,8.1-3.3,12.1-3c5.3,0.4,2.5-2.3,2.4-4.1c-0.1-0.6-0.5-1.2-0.8-1.7c-2.2,0.7-4.5,1.3-6.7,2
			c-3.1-1-2.1-3.5-1.4-5.3c0.7-1.7,0.5-2.1-1.2-1.9c2.1-3,3.4-0.9,4.7,0.7c0.7,0.9,1.4,1.5,2.7,1.2s1.8-0.9,2-2.1
			c0.2-1.4,0.4-2.8,0.6-4.2c0.2,0.3,0.4,0.6,0.4,0.9c3,19.5,13.1,34.3,29.4,45.1c1.2,1.3,2.1,1.3,2.6-0.5l0,0
			c1.5,1.8,4.3-5.3,5.3,0.7c0,1,0,2.1,0,3.1c0,1.6,0,3.2,0,4.7c-0.4-0.5-1.3-1.1-1.2-1.4c1.6-5.6-1.8-4.6-5-3.9
			c-0.5,0.1-1.1,0-1.7,0c-1.8,0-3.5-2.8-5.3-0.2c-1.8,2.7-0.6,5.4,0.4,7.9c2.2,5.2,0.9,7.5-4.5,7.6c-1.5,0-3.7-0.7-3.9,1.8
			c-0.2,2.3,1.4,3.4,3.5,3.5c2.8,0.2,4.7,2.2,6.9,3.6c5.6,3.3,12,4.1,18,6.2c7.8,2.8,16,2.9,24.1,2.8c1.9,0,3.8-3.8,5.7-0.1
			c-21.9,3.1-42-1.7-60.5-13.6C32.8,149.7,21,92.5,49,51.3c0.5-0.7,1.1-1.4,1.7-2c1.1-0.3,1.5-1,1.5-2.1c0.1-0.2,0.3-0.4,0.4-0.6
			c0.7-0.2,1.4-0.5,2.1-0.7c0.7-0.3,0.7-2,1.9-1.3c1.2,0.7,0.8,1.9,0.3,3c-0.2,0.6-0.5,1.2-0.7,1.8c-5.4-1.9-5.3,3.5-7.1,5.8
			c-1.6,2.1,2,0.9,2.4,2.3c0.3,0.9,1,1.7,1.5,2.5c1.1,1.9,2.8,3,5,3.5c0.4,0.1,0.8,0,1.1-0.1c-0.1-0.3-0.1-0.8-0.4-0.9
			c-2.9-1.5-1.7-4.2-1.8-6.5l0.2-0.2c5.7,7.1,14.1,6.5,17.3-1.1c1.8-3.2,1.1-6.2-1.1-8.8c-2.7-3.3-6.2-4.3-10.3-3.2
			c-0.7,0.2-1.3,0.5-2,0.7c-0.2,0.2-0.5,0.4-0.7,0.6c-1.2,0.1-2.3-0.2-2.7-1.4c-0.4-1.1,0.9-1.3,1.4-2c2-2.3,4-4.6,5.9-6.9
			C71,27.9,78,23.2,85.9,20c-1,1.3-1.7,3-2.9,3.8c-2,1.4-2,2.5-1.5,4.9c1.1,5.4,6.6,3.9,9.4,6.4c0.7,0.7,0.6-0.7,0.4-1.4
			c-0.9-3.6-3.5-6.9-2.7-10.9c3.3,2.4,3.2,6.4,4.3,9.7c1.5,4.5,4.2,5.5,8.3,4.3l0,0c0.7-0.2,1.3-0.4,2-0.7l0,0
			c4.4-1.1,5.3-4.1,4.4-8.1c-0.7-3.3-2.6-6.4-1.8-9.9c0.3-0.6,0.7-1.4-0.5-1.2c-1.5,0.3-2.8,1-4.2,1.5c0.4,0.4,0.7,0.7,1.1,1.1
			c0.8,0.9,1.6,1.7,2.4,2.6c0.5,1.6,0.9,3.1,1.4,4.7c1,3.5,1.5,6.8-3.3,7.8c-0.4-0.8-1.8-1.7,0.5-2.1c1.3-0.2,3-1,2.7-2.8
			c-0.8-3.8-2.8-6.9-6.4-8.5c-3.1-1.3-1.3,3.4-3.6,3.5c-0.1-5-2.6-4.7-5.9-2.7c-0.5,0.2-0.9,0.4-1.4,0.7c-0.9-0.9-1.9-1.9-2.8-2.8
			C102.5,12,119.8,9.5,137.9,12.8z M72.1,167.6c0.5,0.7,1.2,0.8,2,0.6l0.3,0l0.3-0.1c0.5-0.2,1-0.4,1.4-0.6l0,0
			c-0.2,1,0.3,1.4,1.2,1.4c6.1,1.9,6.1,1.9,5.4-4.6c0-0.2-0.1-0.4-0.1-0.6c-0.3-2.9,1.3-6.1-1.2-8.7c-0.7-0.2-1.3-0.5-2-0.7
			c-0.7-0.2-1.3-0.4-2-0.6l-0.1,0c-1.3-0.5-2.6-1-3.9-1.4c1-2.7,0.7-5.3-0.7-7.8c-0.9-0.3-1.7-0.6-2.6-0.8c-0.5-0.7-1.2-0.8-2-0.6
			l-0.1,0c-0.9-1.2-2.2-0.5-3.3-0.7c-1.3-0.5-2.7-0.9-4-1.4c-0.9-0.8-2.4-1.3-2.8-0.3c-1,2.3-0.5,4.8,0.9,6.9l0,0
			c0,0.4-0.1,0.8-0.1,1.3c0.4,3.2-1.3,7.4,4.1,8.1c1.3,1.3,3,1.1,4.7,1.3c-0.1,2.7-0.6,5.4,0.6,8c0.4,0.2,0.9,0.4,1.3,0.7
			C70.2,167.8,71.1,167.7,72.1,167.6L72.1,167.6z M45.4,105.3L45.4,105.3c1.9,1.4,4,0.6,6,0.5c5.1-1.6,7.8-7,5.9-11.8
			c-2.3-7.3-9.1-9-15.8-3.8c-1.2-1.7,0-3,1.1-4c1.2-1.1,2.5-1.2,3.9-0.2c1.1,0.8,2.5,1.1,3.3,0c0.8-1.2,1.3-2.9,1.2-4.3
			c-0.1-1.3-1.7-1-2.8-1.1c-1.6-0.2-3.3-0.2-4.9-0.7c-1.8-0.6-4-1.3-2.2-4.1c0.8-1.3,1.2-2.8,1.8-4.2c0.3-0.8,1.5-1.7,0.5-2.3
			c-1.1-0.7-1.3,0.8-1.6,1.5c-2.8,4.9-2.9,10.5-4.7,15.7c-1.2,3.4-4.1,8.3,3.7,4.8c-0.5,2.2-2.3,4.2-0.6,6.6c0,0.9,0,1.8,0,2.7
			c-1.5-0.2-2.4-1-2.7-2.5c-0.1-0.7,0.3-1.8-0.9-1.7c-0.4,0.1-0.9,1.2-1,1.9c-1.6,7.8-0.4,15.4,2.1,22.8c0.2,0.5,0.9,1.1,1.4,1.1
			c1.1,0.1,1.1-0.9,1.1-1.6c-0.2-2-1.2-4.3-0.6-5.9c1.6-4.3,2.1-8.4,1.3-12.9c1.3,0.7,2.6,1.4,3.9,2.1
			C43.8,104.9,44.3,105.2,45.4,105.3z M58.9,79.9L58.9,79.9c-3.9,0.4-7-1.9-10.5-2.8c-0.1-1.7,1.3-1.5,2.2-1.8
			c3.9-1.5,7.9-2.8,11.8-4.3c0.9-0.3,2.9-0.2,1.7-2.3c-0.7-0.2-1.3-0.5-2-0.7c-1.1-0.5-2.2-0.9-3.3-1.4c-2.8-1.9-6.9-2-8.7-5.5
			c-0.1-0.2-0.9-0.1-1,0c-0.6,1.3-1,2.6-1.5,3.9c0.5,0.1,0.9,0.2,1.4,0.1c2.8-0.2,5.5-0.1,7.2,2.8c-4,1.9-8.9,2.2-12.1,5.9
			c-0.8,1.2-1.6,3.7-0.9,3.7c4.7-0.4,8.1,2.8,12.2,3.8c1.4,1.4,2.9,4.5,4-0.2c0.2-0.4,0.7-1,0.6-1.2C59.7,79.2,59.2,79.5,58.9,79.9z
			 M80.1,48.7c4.5-2.2-1.6-2.4-0.7-3.9c-0.5-2.6,0.5-4.5,2.9-5.5c2.1-0.9,3.9,0.6,4.5,1.8c1.4,3.4,2.6,1.6,3.9,0.2
			c1-0.8,2-1.6,3.1-2.4c-0.3-0.2-0.6-0.5-0.9-0.6c-4.9-2.5-9.8-5-14.7-7.5c-4.6-1.2-0.7,2.5-1.9,3.3c-4.1-2.1-8.1-3.8-10,2.7
			c-0.1,0.5-1.6,0.5-2.3,0.9c-1,0.6-2.5,1.3-2,2.7c0.5,1.7,1.9,0.9,3,0.4c2.5-1.2,4.7-0.3,6.9,0.8c1.3,0.6,1.9,3.1,3.7,2.3
			c2-1,1.1-3.3,1.4-5.1c0.9,3,1.3,6.1,1.2,9.3c0,0.6,0,1.5,0.3,1.7C79.2,50.1,79.7,49.3,80.1,48.7z M56.7,143.4
			c0.1-0.5-2.2-3.5,1.5-4.1c1.7-0.3,3.6,0.2,5.4,0.4c4.4,0.7,5.8-0.9,4.4-5.3c-2.1-6.3-10.9-11.7-14.8-8.6c-3,2.3-6.6,2.2-9.8,3.2
			c-0.8,0.3-2.1-0.7-2.4,0.8c-0.3,1.2-0.2,2.5,1.1,3.1c1.8,0.9,2.6,2.6,2.6,4.3c0.1,6.5,6.1,9.5,8.3,14.8c0.4,0.9,1.7,1.7,2.8,1.2
			c1.4-0.7,1.1-2.1,0.7-3.2C56,148.3,56.1,146.6,56.7,143.4z M63.4,160.5c-1.3,0.3-2,0.9-1.9,2.3c0.1,1.3,0.6,2.1,2,2.1
			c1.4,0,2-0.8,1.9-2.1C65.3,161.6,64.6,160.8,63.4,160.5z M61.7,72.8c-1.1,1.1-3.4,0.5-3.9,2.4c-0.3,1,0.9,1.5,1.8,1.2
			c1.3-0.5,3.3-0.1,3.6-2.2C63.4,73.2,62.7,72.8,61.7,72.8z M76.3,172.2c-0.7-0.5-1-1-1.5-1.1c-0.2-0.1-0.6,0.4-0.9,0.6
			c0.3,0.3,0.6,0.8,1,0.9C75.2,172.9,75.6,172.5,76.3,172.2z M58.9,88c-0.4-0.1-0.6-0.2-0.8-0.2c-0.1,0-0.4,0.4-0.3,0.5
			c0.1,0.2,0.3,0.4,0.5,0.6C58.4,88.6,58.6,88.4,58.9,88z M45.6,61.8c-0.2,0.6-0.4,0.9-0.5,1.2c0,0.2,0.1,0.4,0.2,0.5
			c0.2-0.2,0.5-0.3,0.7-0.6C46,62.8,45.8,62.6,45.6,61.8z M120.2,14c-0.3,0-0.6-0.1-0.9-0.1c-0.1,0-0.2,0.3-0.3,0.5
			c0.3,0.1,0.6,0.2,0.9,0.2C120,14.6,120.1,14.3,120.2,14z"/>
		<path class="st3" d="M56.1,49.3c0.3-0.6,0.5-1.2,0.7-1.8c0.4-1.1,0.8-2.3-0.3-3c-1.2-0.7-1.2,1-1.9,1.3c-0.7,0.3-1.4,0.5-2.1,0.7
			c3.5-4.8,7.4-9.2,12.2-12.9c-2,2.3-3.9,4.7-5.9,6.9c-0.5,0.6-1.8,0.9-1.4,2c0.4,1.2,1.5,1.5,2.7,1.4c-3.5,3.3-2.7,7.7-3.1,11.8
			L56.8,56C55.5,53.9,55.8,51.6,56.1,49.3z"/>
		<path class="st3" d="M52.1,47.2c0.1,1.1-0.3,1.8-1.5,2.1C51.1,48.6,51.6,47.9,52.1,47.2z"/>
		<path class="st4" d="M151.1,44.6c1.2-3.2,2.9-0.9,4.1-0.2c32.9,17.2,43.6,60.2,22.7,91.1c-4.8,7.1-10.8,13.1-18,17.8
			c-1,0.6-1.9,2.1-3.5,1c-2.2-3.8-4.2-7.7-6.5-11.5c-1-1.7-0.8-2.5,0.9-3.7c5.5-3.7,10.5-8,13.6-14.1c0.2-0.7,0.4-1.3,0.7-2
			c1.7-0.8,2-2.5,2.7-4c4-8.3,5.1-17,3.4-26c-0.2-1.1-0.4-2.2-0.6-3.3c-0.2-0.9-0.4-1.8-0.6-2.7c-3.1-9.6-8.1-18-16.7-23.7
			c0-0.7,0-1.3,0-2c0.9-1.3,1.8-2.6,2.7-3.9c1.6-0.6,2.7-1.7,2.9-3.5c0-0.1-0.9-0.5-1-0.5c-2.5,2.6-4.9-0.2-7.3-0.1l0,0
			c-0.2-1.7-1.5-1.3-2.6-1.4l0,0c0.2-0.4,0.4-0.7,0.5-1.1C149.8,48.9,150.8,47,151.1,44.6z"/>
		<path class="st5" d="M98.1,157.5c0-1,0-2.1,0-3.1c0.4-6.5,2.7-12.2,6.9-17.3c1.7-2.1,3.5-4.4,3.6-7.4c1.8-3,1-5.6-1.2-7.9
			c-0.7-0.2-1.3-0.5-2-0.7c-0.7,0-1.3,0.1-2,0.1c-1.7,0.1-2.5,1.4-3.3,2.6l0,0.1c-0.2,0.4-0.5,0.8-0.7,1.2c-0.8,1.3-1.9,1.6-3.2,0.7
			l-0.1-0.1c-0.2-0.9-0.5-1.7-0.7-2.6c0.2-0.3,0.4-0.5,0.6-0.8l0.2,0l0.2,0c0.3,0,0.6,0.1,1,0.1c1,2.4,1.7,0.1,2.1-0.3
			c1.3-0.9,2.1-2.4,4-2.5c5.3-0.3,6.9,1.7,7.2,9.5c-0.1,0.8-0.1,1.7-0.2,2.5c-0.8,0.1-1.2,0.6-1.2,1.5c-7,10-12.8,20.3-7.9,33.1
			c3.3,7.5,9,12.8,16.9,14.4c4.9,1,10.4,1.4,14.8-2.4c0.4,0,0.8,0,1.3,0c0.6,0.1,1.1,0.1,1.7,0.2c-12.1,8.9-30.7,2.7-36.3-12
			c-0.5-1.3-0.9-2.7-1.3-4.1C98.4,160.7,98.2,159.1,98.1,157.5z"/>
		<path class="st6" d="M136.2,178.4c-0.6-0.1-1.1-0.1-1.7-0.2c0.5-0.5,0.9-0.9,1.4-1.4c0.9,0,1.3-0.4,1.3-1.3l0,0
			c0.9,0,1.3-0.4,1.3-1.3l0,0c0.9,0,1.3-0.5,1.3-1.3c0.5-0.6,0.9-1.2,1.4-1.8c5.7-7.9,7.8-17,6.3-26.4c-1.5-9.5-6.5-17.8-10.9-26.3
			c-2.3-4.5-6-8.2-7.3-13.3c2.6-2.6,5.7-3.2,9.1-2.6c0.5,0.8,1,1.6,1.5,2.4c0,0.5,0,1-0.1,1.5c-0.4-0.4-0.7-0.8-1.1-1.2
			c-1.8-1.9-3.6-3.2-6.2-1.1c-2.7,2.1-0.4,3.6,0.5,5.2c1.9,3.3,3.9,6.6,5.9,9.8c0.7,1.3,1.5,2.6,2.2,3.9c0.7,1.3,1.3,2.7,2,4
			c0.5,1.1,0.9,2.2,1.4,3.3c0.2,0.4,0.5,0.8,0.7,1.3c0.4,1.1,0.8,2.3,1.2,3.4c2.3,2.7,1.1,6.4,2.8,9.2c0,2.9,0,5.8,0,8.6
			C148.2,163.1,145.1,172.2,136.2,178.4z"/>
		<path class="st7" d="M114.7,32c2.6-4.3,1.9-9,1.9-13.6c0-0.3-0.1-0.6-0.2-1c-0.1,0.3-0.3,0.7-0.3,1c-0.1,2.3-0.1,4.6-0.2,6.8
			c-1.1-2.3,0.1-4.7-0.6-6.9c-1.1-3.5,1.1-3.1,3.2-3.1c9.9,0,11.9,1.1,13.7,7.5c0,4-1.1,7.3-5.4,8.8c-0.5-0.3-1.1-0.7-1.6-1
			c2.6-3.5,2.4-7.5,1.2-11.4c-0.8-2.5-2.9-3.3-5.3-2.9c-2.5,0.4-1,2.5-1.1,3.7c-0.1,3.3,0,6.6,0,9.9c-0.1,1,0.2,1.5,1.3,1.4l0,0
			C119.2,32.7,116.8,31.6,114.7,32z"/>
		<path class="st8" d="M149.3,144.3c-1.8-2.8-0.5-6.6-2.8-9.2c1.8-0.5,2.7,1.1,4,1.6c1.1,0.4,2.1,0.3,2.6-0.6
			c0.9-1.5-0.8-1.7-1.4-1.9c-2.1-1-4.3-1.6-6.5-2.4c-0.2-0.4-0.5-0.8-0.7-1.3c2-1.1,3.1,1.1,4.7,1.2c1.6,0.7,3.2,1.4,4.7,2.2
			c1.2,0.6,2.2,0.3,2.8-0.8c0.8-1.5-0.8-1.5-1.5-1.8c-1.7-0.6-3.5-1-5.3-1.5c-1.9-1.8-4.6-1.6-6.8-2.6c-0.7-1.3-1.3-2.7-2-4
			c3.1,0.9,6.3,1.7,9.4,2.6c-1,0.3-2.7,0.8-1,1.8c2.4,1.5,5.2,2.4,7.8,3.4c1.2,0.5,2.3-0.3,2.7-1.4c0.5-1.6-1.2-1.2-1.9-1.6
			c-1.4-0.7-2.8-1.1-4.3-1.6c0.2-0.2,0.4-0.4,0.6-0.6c0.3-0.1,0.5-0.1,0.8-0.2c2.4-0.3,5.4,5.6,7.4-0.6c0.6,0,1.2,0,1.9,0
			c-3.1,6.1-8.1,10.3-13.6,14.1c-1.7,1.1-1.9,1.9-0.9,3.7c2.3,3.8,4.3,7.6,6.5,11.5c-1.1-0.6-2.6-0.5-3.4-1.9
			C153.3,149.1,150.9,146.9,149.3,144.3z"/>
		<path class="st9" d="M189,147.7c0.7,1.3,1.1,2.7,0.1,4c-0.6-0.8,0.9-3.7-2.1-2.1h0c-0.7,0.2-1.4,0.4-2.1,0.6
			c-4.3,0.5-2.7,4.1-2.7,6.2c0,1.8,1.8,0.2,2.8-0.1c0.9,0,1.8,0,2.6-0.1c-6.1,0.5-7.6,4.8-8,9.8c0.1-1.3,0-2.6,0.2-3.9
			c0.3-2.3-0.6-2.2-2.6-2c-5.5,0.7-3.8,4.8-4.1,7.9c-0.5,0-1,0-1.5-0.1c0.2-6.8,0.2-6.8-6.4-4.4c0-3-0.6-6.1,1.1-8.9
			c0.1,0.1,0.2,0.2,0.3,0.3c-0.1,0.8-0.2,1.6-0.3,2.4c0.1,1.6-2.7,4.9,2.1,3.5c0.2,0,0.4,0,0.6-0.1c0.7-0.2,1.3-0.4,2-0.6
			c2.4-1.5,1.7-4,1.1-5.8c-0.5-1.6-2.4,0.2-3.7-0.1c-0.1-0.1-0.2-0.2-0.3-0.3c2.6-1.1,6.4-0.6,6.1-5.1c0.1,1.3,0.3,2.5,2.1,2
			c2.3-0.6,5.1-0.6,5-4c0-1.5,1.3-3.7-1.8-3.9c1-1.1,2.2-0.5,3.4-0.6c0,1.3,0,2.6,0,3.9c0,0.4,0,0.8-0.1,1.3
			c1.3,2.8,2.8,0.3,4.2,0.1c0.2,0,0.4,0,0.6-0.1C188.2,147.6,188.6,147.7,189,147.7z M175.6,152.9c-2.4,1.6-2.4,4.6-1.3,5.9
			c1.2,1.5,3.7-0.3,5.5-1.1c0.2-0.7,0.4-1.4,0.6-2c0.1-0.2,0.1-0.4,0-0.6c0.6-1.1,0.9-2.3-0.1-3.4c-0.2,0-0.4,0-0.7,0
			C178.4,152.1,177,152.5,175.6,152.9z"/>
		<path class="st10" d="M139.1,17.7c-0.1,0.1-1.7-1.2-0.5-1.3c1.7-0.2,3.6,0.2,5.1,0.9c1.3,0.6-0.5,1.2-0.7,2
			c-0.7,4.3-1.9,8.6-1.9,13c0,0.6,0.9,1.8-0.5,1.6c-1.8-0.1-3.7-0.4-5.4-1.1c-0.8-0.3,0.5-0.9,0.7-1.4
			C136.9,27.2,137.9,22.9,139.1,17.7z"/>
		<path class="st11" d="M199,58c1.5,4.8-0.1,8.4-4.4,10.8c-4.4,2.5-8.2,1.3-11.5-2.3c0.1-0.4,0.3-0.8,0.4-1.1
			c4.4,2.4,10.9-0.7,14.1-6.7C198.2,58.4,198.6,58.2,199,58z"/>
		<path class="st12" d="M161.7,22.8c4.1,3,5.4,6.9,3.4,11.6c-2,4.7-5.9,5.9-10.6,5c0.5-0.4,0.9-0.9,1.4-1.3
			c4.8-3.4,7.2-9.4,5.3-14.1C161.4,23.6,161.5,23.2,161.7,22.8z"/>
		<path class="st13" d="M148.4,50.8c-0.2,0.4-0.4,0.7-0.5,1.1c-12.2-6-24-13.2-38.6-9.2c0.4-0.5,0.8-1,1.3-1.6
			c5.3-2,10.6-0.9,16-0.4c6,1.8,11.8,4,17.2,7.3C145.4,49,146.9,49.9,148.4,50.8z"/>
		<path class="st14" d="M201.1,97.2c2.4-0.2,4.8-0.3,7.2-0.6c0.6-0.1,1.2-0.3,1.2,0.5c0.1,1.5,0.2,3.1,0,4.6c-0.1,0.9-0.8,0-1.3,0
			c-4.7-0.4-9.4,0-14.1,0.6c-0.5,0.1-1.4,1.1-1.5,0.1c-0.3-1.8-0.4-3.8,0-5.6c0.2-1.1,1.1,0.6,1.8,0.4c1.7,3.6,4.7,1.3,7.1,1.4
			c2,0.1,4.2,0.7,6.2-0.6c-1.9-0.1-3.9-0.2-5.8-0.3C201.6,97.7,201.3,97.4,201.1,97.2z"/>
		<path class="st15" d="M176.4,32.7c2.3,1.4,4.1,2.4,0.6,5.1c-2.9,2.3-4.9,5.8-7.3,8.8c-0.5,0.5-1,0.9-1.5,1.4
			c-0.9-0.7-1.7-1.3-2.6-2c0-0.6-0.7-1.1,0.3-1.6C170.9,41.8,173.7,37.3,176.4,32.7z"/>
		<path class="st16" d="M206.3,117.8c1.7,1,1.2,1.5-0.4,1.9c-5.4,1.5-11,2.2-16.2,4.3c-1.8,0.7-0.9-0.8-0.8-1.4
			c0.2-1.2,0.6-2.3,0.9-3.5c4.9,1.4,9.4-0.6,13.9-2C204.5,117.3,205.4,117.6,206.3,117.8z"/>
		<path class="st17" d="M155.9,38.1c-0.5,0.4-0.9,0.9-1.4,1.3c-4.3-0.5-6.7-3.4-7.6-7.2c-0.9-3.8,0.6-7.2,3.9-9.5
			c3.6-2.6,7.4-2.3,11,0.2c-0.2,0.4-0.3,0.8-0.5,1.2c-1.2-0.8-2.5-1.4-4.1-1.3c-4.8-1.2-9.3,3.7-8.5,9.3c0.2,1.2,1,2.3,1.5,3.5
			c0.3-1,0.6-1.9,1-2.9C151.1,35.8,152,38.3,155.9,38.1z"/>
		<path class="st18" d="M191,87.3c-2.3-3.8-2-7.7,0.5-11.2c2.4-3.4,6.2-4.2,10.1-3c4.3,1.3,6.3,4.6,6.6,8.9
			c-0.4,0.4-0.8,0.9-1.2,1.3c0-1.7-0.5-3.2-1.5-4.6c-1.5-4.7-5.3-4.6-8.8-3.8c-2.9,0.7-5.9,2.2-5,6.4c-0.7,1.5-0.4,3.1-0.1,4.6
			C191.4,86.4,191.2,86.8,191,87.3z"/>
		<path class="st19" d="M179.8,143c3,0.2,1.8,2.4,1.8,3.9c0.1,3.4-2.7,3.5-5,4c-1.8,0.4-2-0.7-2.1-2
			C173.8,144.8,176.2,143.4,179.8,143z"/>
		<path class="st20" d="M165.2,163.7c6.6-2.4,6.6-2.4,6.4,4.4c-1.9,1.5-4.6,2.9-6.2,2C163.3,168.8,165.4,165.9,165.2,163.7z"/>
		<path class="st21" d="M191.8,81.3c-1-4.1,2-5.7,5-6.4c3.6-0.9,7.4-1,8.8,3.8C200.5,76.9,195.8,77.5,191.8,81.3z"/>
		<path class="st22" d="M173.2,168.2c0.3-3.2-1.4-7.3,4.1-7.9c2-0.2,2.9-0.3,2.6,2c-0.2,1.3-0.1,2.6-0.2,3.9
			c-0.4,0.3-0.8,0.5-1.2,0.8c-1-0.2-1.9-0.1-2.6,0.7l0,0c-0.7,0.2-1.3,0.4-2,0.6h-0.3L173.2,168.2z"/>
		<path class="st23" d="M191,87.3c0.2-0.4,0.4-0.9,0.7-1.3c2.4,1.6,4.6,0.6,6.7-0.7c0.4-0.4,0.8-0.8,1.2-1.2
			c0.1,0.2,0.1,0.3,0.1,0.5c0.2,0.9,0.5,1.8,0.7,2.6c-0.1,1.2,1,3.7,0.2,3.4c-2.7-1-5.3,2.8-7.7-0.2C192.2,89.4,191.6,88.3,191,87.3
			z"/>
		<path class="st24" d="M181.7,64.6c-2.2-4.4-1.7-8.4,2-11.5c4.3-3.7,8.6-2.8,12.6,0.8c-0.5,0.3-1.1,0.6-1.6,0.9
			c-0.5,0-1-0.1-1.5-0.1c-0.4-0.1-0.7-0.1-1.1-0.2c0.2-0.7,2.5-0.5,1.4-1.2c-2.6-1.7-5.6-1-8,0.8c-2.1,1.6-4.6,3.3-2.5,6.6
			c0.1,0.2,0.1,0.4,0,0.6C182.6,62.4,182.2,63.5,181.7,64.6z"/>
		<path class="st25" d="M176.4,32.7c-2.7,4.6-5.5,9.1-10.4,11.7c-1,0.5-0.3,1.1-0.3,1.6c-1.5-0.9-3.9-1.1-0.3-3.2
			c3.8-2.2,6.8-6,8.7-10.2C175.3,30.2,175.7,31.9,176.4,32.7z"/>
		<path class="st26" d="M168.3,48.1c0.5-0.5,1-0.9,1.5-1.4c0.7,3.5,3.5,3.5,6.2,3.7c1.2,0.1,2.5-0.9,3.6,0.4c0,0-0.7,1-1.3,1.3
			c-1.4,0.7-2.6,2.8-4.6,0.9C171.9,51.3,170.1,49.7,168.3,48.1z"/>
		<path class="st27" d="M206.3,117.8c-0.9-0.2-1.7-0.5-2.6-0.7c-0.5-0.4-1.1-0.8-1.6-1.2c-0.8-0.7-1.6-1.4-2.5-2.1
			c-0.4,0.8-0.8,1.7-1.1,2.5c-0.1,0.5-0.1,0.9-0.2,1.4c-0.4-0.2-0.8-0.5-1.3-0.7c1.2-2.9,1.1-5.5-2.1-7.1c0.3-0.3,0.6-0.6,0.9-0.9
			C199.3,112,202.8,114.9,206.3,117.8z"/>
		<path class="st28" d="M202,115.9c0.5,0.4,1.1,0.8,1.6,1.2c-4.5,1.4-9,3.4-13.9,2c-0.1-1.2-0.4-2.3,1.5-1.6
			c1.9,0.7,3.8,0.3,5.7-0.5c0.4,0.2,0.8,0.5,1.3,0.7c0.1-0.5,0.1-0.9,0.2-1.4C199.7,116.5,200.9,116.7,202,115.9z"/>
		<path class="st29" d="M148.4,50.8c-1.5-0.9-3.1-1.8-4.6-2.7c3.2,0.5,4.1-3.9,7.3-3.4C150.8,47,149.8,48.9,148.4,50.8z"/>
		<path class="st30" d="M149.3,144.3c1.6,2.6,4,4.7,3.8,8.1c-1.4-0.6-3-3.3-3.8,0.5C149.3,150.1,149.3,147.2,149.3,144.3z"/>
		<path class="st31" d="M201.1,97.2c0.3,0.2,0.5,0.5,0.8,0.5c1.9,0.1,3.9,0.2,5.8,0.3c-2,1.2-4.2,0.7-6.2,0.6
			c-2.4-0.1-5.4,2.2-7.1-1.4C196.6,97.2,198.8,97.2,201.1,97.2z"/>
		<path class="st32" d="M207.1,83.3c0.4-0.4,0.8-0.9,1.2-1.3c-0.9,2.1,2.8,6.5-3,6.2c-0.7,0-1.3-0.4-2-0.6c0.5-0.4,1-0.8,1.4-1.2
			C205.5,85.3,206.3,84.3,207.1,83.3z"/>
		<path class="st19" d="M189,147.7c-0.4,0-0.9,0-1.3,0c0.9-1.6,2.2-3.5,1.1-5.2c-1.3-1.9-3.2,0.3-4.8,0.1c-0.1-0.1-0.2-0.2-0.3-0.3
			c1.9-1.1,4.7-2.5,5.9-1.3C191.1,142.5,189.9,145.4,189,147.7z"/>
		<path class="st33" d="M195.7,109.1c-0.3,0.3-0.6,0.6-0.9,0.9c-1-0.7-2.4,1.3-2.9,0c-0.4-1,0.2-3.4,0.8-3.6
			C194.5,106,194.6,108.3,195.7,109.1z"/>
		<path class="st34" d="M125.1,30.5c0.5,0.3,1.1,0.7,1.6,1c-2.3,1.6-5,0.5-7.5,1.2c-1.5-0.2-3.1-0.5-4.6-0.7
			c2.2-0.5,4.5,0.6,6.6-0.7C122.6,31.1,123.9,30.8,125.1,30.5z"/>
		<path class="st19" d="M187.7,156.3c-0.9,0-1.8,0-2.6,0.1c3.8-1.9,4.5-4.2,2-6.7c3-1.6,1.5,1.3,2.1,2.1
			C188.7,153.3,189.7,155.2,187.7,156.3z"/>
		<path class="st35" d="M194.8,54.8c0.5-0.3,1.1-0.6,1.6-0.9c1.6,0.9,2.5,2.2,2.6,4.1c-0.4,0.2-0.8,0.5-1.3,0.7
			C197.5,56.8,196.6,55.4,194.8,54.8z"/>
		<path class="st36" d="M181.7,64.6c0.4-1.1,0.9-2.2,1.3-3.3c0.2,1.4,0.4,2.7,0.5,4.1c-0.1,0.4-0.3,0.8-0.4,1.1
			C182.7,65.9,182.2,65.2,181.7,64.6z"/>
		<path class="st37" d="M98.1,157.5c0.2,1.6,0.4,3.2,0.5,4.8c-0.2,0-0.4,0-0.5,0C98.1,160.7,98.1,159.1,98.1,157.5z"/>
		<path class="st19" d="M183.1,146.3c0-1.3,0-2.6,0-3.9c0.1-0.2,0.3-0.2,0.5-0.2c0.1,0.1,0.2,0.2,0.3,0.3
			C183.4,143.8,184.2,145.3,183.1,146.3z"/>
		<path class="st38" d="M199.6,84c-0.4,0.4-0.8,0.8-1.2,1.2c0.2-0.8-0.2-1.8,1-2C199.4,83.2,199.5,83.7,199.6,84z"/>
		<path class="st38" d="M200.4,87.2c-0.2-0.9-0.5-1.8-0.7-2.6C200.5,85.2,200.5,86.2,200.4,87.2z"/>
		<path class="st9" d="M175.8,167.6c0.7-0.8,1.6-0.9,2.6-0.7C177.7,167.9,176.7,167.7,175.8,167.6z"/>
		<path class="st9" d="M173.8,168.2c0.7-0.2,1.3-0.4,2-0.6C175.3,168.3,174.6,168.5,173.8,168.2z"/>
		<path class="st9" d="M166.3,154.8c0.7-0.2,1.3-0.5,2-0.7c0.1,0.1,0.2,0.2,0.3,0.3c-0.6,0.2-1.3,0.5-1.9,0.7
			C166.5,155.1,166.4,154.9,166.3,154.8z"/>
		<path class="st4" d="M90.1,154.2c-16.3-10.8-26.4-25.7-29.4-45.1c0-0.3-0.3-0.6-0.4-0.9l0.1-0.2l-0.1-0.2
			c-1.3-16.7,2.5-32,12.6-45.6c5.6-7.6,12.6-13.6,21-18c1-0.6,2.2-1.9,3.4-0.1c0.5,1.1,1,2.2,1.5,3.4c0,0.6-0.1,1.2-0.1,1.8l0,0.2
			c-1.9,0.6-2.4,2.2-2.8,3.8l0,0c-1.5,0.3-2,1.6-2.6,2.7c-1.7,0.3-1.3,1.6-1.3,2.7c0,0.4,0,0.8-0.1,1.2c-1.8,0.6-1.1,2.2-1.2,3.4
			c0,0.6-0.1,1.2-0.1,1.9c-2,0.9-0.8,2.8-1.3,4.1c-0.4,0.2-0.8,0.5-1.2,0.7C78.9,81.6,74.9,94.4,78,109.1c1.5,10.2,6.5,18.5,14,25.4
			c1.7,1.4,3.3,3,5.2,4c2.4,1.4,2.9,2.6,1.2,5.1c-2.2,3.1-3.8,6.7-5.6,10l0,0C91.9,153.9,91,154.1,90.1,154.2z"/>
		<path class="st37" d="M92.8,153.7c1.8-3.4,3.4-6.9,5.6-10c1.7-2.5,1.2-3.7-1.2-5.1c-1.9-1.1-3.5-2.7-5.2-4c0-0.3,0.1-0.6,0.1-1
			c2.3,1.5,4-0.7,5.9-1.1c0.2,0.2,0.5,0.5,0.7,0.7c-0.6,1.5-4.4,0.6-3.1,2.8c1.5,2.6,3.5-0.2,5.2-0.9c0.4-0.2,0.7-0.5,1-0.8
			c1.9-0.7,4.7-0.5,4.1-3.9c0.9-0.2,1.7-0.5,2.6-0.7c-0.1,3-1.9,5.3-3.6,7.4c-4.1,5.1-6.5,10.8-6.9,17.3
			C97.1,148.4,94.3,155.5,92.8,153.7z"/>
		<path class="st39" d="M57,55.9c0.4-4.1-0.4-8.5,3.1-11.8c0.2-0.2,0.5-0.4,0.7-0.6c0.6-0.1,1.3-0.1,1.9-0.2c-0.8,1.5,1,1.4,1.4,2.3
			c-2-0.2-4.2-0.4-5.3,1.7c-1.2,2.2,0.1,4.1,1.6,5.6c1.7,1.7,3.6,3.2,5.6,4.6c1.6,1,3.4,1.6,5.3,0.4c1.9-1.3,1.7-3.2,1.3-5.1
			c0.5,0.7,1.1,1.3,1.6,2C71.1,62.4,62.6,62.9,57,55.9z"/>
		<path class="st40" d="M40.8,91.2c0.3-0.4,0.5-0.7,0.8-1.1c6.7-5.1,13.5-3.5,15.8,3.8c-0.2,0.5-0.5,0.9-0.7,1.4
			c-0.5-0.5-0.9-1-1.4-1.4c-3.8-2.5-8-2.2-12.1-1c-2.3,0.7-3.2,2.6-3,4.9l0.1-0.1C38.5,95.4,40.3,93.4,40.8,91.2z"/>
		<path class="st41" d="M64.1,45.4c-0.4-0.8-2.2-0.8-1.4-2.3c0-0.2,0.1-0.3,0.1-0.5c4.1-1.1,7.6-0.1,10.3,3.2
			c2.2,2.6,2.9,5.6,1.1,8.8c-0.5-0.7-1.1-1.3-1.6-2C70.5,49.5,67.5,47.2,64.1,45.4z"/>
		<path class="st42" d="M95.9,24.8c0.9,3.5,1.4,7.2,4.1,9.9c1.1,0.5,2.2,0.9,3.3,1.4l0,0c-0.8-0.2-1.5-0.1-2,0.7c0,0,0,0,0,0
			c-3.9,0-5.7-2.1-6.8-5.7c-1-3.1-0.8-7.1-4.5-9C93.3,20.1,95.8,19.8,95.9,24.8z"/>
		<path class="st43" d="M44.1,73.8c3.2-3.6,8-3.9,12.1-5.9c0.9-0.4,1.8-0.9,2.6-1.3c1.1,0.5,2.2,0.9,3.3,1.4c0,0.4,0,0.8,0,1.3
			c-5.7,2-11.5,4.1-17.2,6.1C44.7,74.8,44.4,74.3,44.1,73.8z"/>
		<path class="st44" d="M58.8,148.9c0-0.4,0.1-0.8,0.1-1.3c5.6,2.3,7.2,0.2,5.9-5.2c1.1,0.2,2.4-0.5,3.3,0.7c-3.5,1.3-1.3,4.1-1,5.8
			c0.4,2.1,3.3,2.2,5.1,2c2.4-0.3,0.6-2.4,0.7-3.7c0.1-0.9-0.1-1.7-0.2-2.6c1.4,2.5,1.8,5.1,0.7,7.8c0,0.3,0,0.5-0.1,0.8
			c-1.9-0.3-4.2-2.3-5.5-1c-1.4,1.5-0.7,4.1,0.4,6.1c-0.3,0-0.5,0.1-0.8,0.1c-1.6-0.2-3.3,0-4.7-1.3c2.6,0.4,3.2-0.5,3-3.2
			C65.4,148.8,61.2,150.4,58.8,148.9z"/>
		<path class="st45" d="M78.1,30.7c4.9,2.5,9.8,5,14.7,7.5c0.3,0.2,0.6,0.4,0.9,0.6c-1,0.8-2,1.6-3.1,2.4c-1,0.1-1.5-0.7-2.2-1.2
			c-3.7-2.5-7-5.6-11.8-6v0C77.3,33,75.7,31.1,78.1,30.7z"/>
		<path class="st46" d="M67.5,158.3c0.3,0,0.5-0.1,0.8-0.1c6.3,1.3,6.3,1.3,5.1-5.1c0-0.3,0-0.5,0.1-0.8c1.3,0.5,2.6,1,3.9,1.4
			c-3.7,0.4-2,3.2-1.8,4.8c0.3,3,3.4,2.8,5.3,2.8c2.2,0.1,0.9-2.2,1-3.4c0.1-0.9-0.3-2-0.4-2.9c2.6,2.6,0.9,5.8,1.2,8.7
			c-3.9-1.6-7.5-2.8-6.5,3.9c-0.5,0.2-1,0.4-1.4,0.6c0-1.2-0.1-2.4,0-3.6c0.4-4.2-3-4.5-5.4-4.4c-2.8,0.1-0.5,2.7-1,4.2
			c-0.2,0.6-0.1,1.3-0.1,1.9C66.9,163.7,67.4,161,67.5,158.3z"/>
		<path class="st47" d="M76.7,34.1c4.7,0.4,8.1,3.6,11.8,6c0.7,0.5,1.1,1.3,2.2,1.2c-1.4,1.4-2.5,3.1-3.9-0.2
			c-0.5-1.2-2.4-2.7-4.5-1.8c-2.4,1-3.4,2.9-2.9,5.5c-0.4,1.4-1.8,3.1,0.7,3.9c-0.4,0.6-0.9,1.4-1.8,1C78,49.4,78,48.5,78,47.9
			c0.1-3.2-0.3-6.3-1.2-9.3C76.8,37.1,76.8,35.6,76.7,34.1z M81.5,37.9c-1-0.7-1.6-1.2-2.3-1.6c-0.7-0.4-1,0.2-1,0.8
			c0.1,0.8,0,2,1.1,2C79.9,39.2,80.5,38.5,81.5,37.9z"/>
		<path class="st48" d="M43.6,125c-0.1-0.6-0.1-1.2-0.2-1.8c1.3-0.7,2.7-1.5,4-2.2c0.8-0.2,1.7-0.5,2.5-0.7c1,0,2,0.4,2.8-0.5
			c2.2-0.7,4.5-1.3,6.7-2c-0.9,1.3,1.6,4-0.3,4C53.7,121.8,48.8,123.9,43.6,125z"/>
		<path class="st49" d="M58.8,148.9c2.4,1.5,6.7-0.1,7,4.8c0.2,2.8-0.4,3.6-3,3.2C57.4,156.3,59.2,152.1,58.8,148.9z"/>
		<path class="st50" d="M76.1,167.6c-1-6.6,2.6-5.5,6.5-3.9c0,0.2,0.1,0.4,0.1,0.6c0.7,6.5,0.7,6.5-5.4,4.6
			C77,168.5,76.5,168,76.1,167.6L76.1,167.6z"/>
		<path class="st51" d="M68.1,166.3c0-0.7-0.1-1.4,0.1-1.9c0.5-1.4-1.7-4.1,1-4.2c2.4-0.1,5.8,0.2,5.4,4.4c-0.1,1.2,0,2.4,0,3.6
			l-0.3,0.1c0,0-0.3,0-0.3,0c-0.7-0.2-1.3-0.4-2-0.6h0c-0.7-0.8-1.6-0.9-2.6-0.7C69,166.7,68.6,166.5,68.1,166.3z"/>
		<path class="st52" d="M64.8,142.4c1.3,5.5-0.4,7.5-5.9,5.2l0,0c1.4-2-3.7-5.9,2-6.6C62.1,141.5,63.5,141.9,64.8,142.4z"/>
		<path class="st53" d="M40.9,101.8c-0.2-0.4-0.4-0.8-0.6-1.3c0-0.9,0-1.8,0-2.7l-0.1,0.1c4.1,3.9,8.9,3.8,14,2.6
			c2.5,0.5,0.7,1.5,0.1,2c-1.9,1.7-4.3,2.1-6.7,1.8c-0.9-0.1-1.8-0.3-2.7-0.4C43.5,103.2,42.2,102.5,40.9,101.8z"/>
		<path class="st54" d="M72.7,144.5c0.1,0.9,0.2,1.8,0.2,2.6c-0.1,1.3,1.7,3.4-0.7,3.7c-1.7,0.2-4.6,0.1-5.1-2
			c-0.3-1.7-2.5-4.5,1-5.8l0.1,0c0.5,0.7,1.2,0.8,2,0.6C71,143.9,71.9,144.2,72.7,144.5z"/>
		<path class="st55" d="M81.4,155c0.2,1,0.5,2,0.4,2.9c-0.1,1.2,1.2,3.4-1,3.4c-1.9,0-4.9,0.2-5.3-2.8c-0.2-1.6-1.9-4.4,1.8-4.8
			l0.1,0c0.7,0.2,1.3,0.4,2,0.6C80.1,154.5,80.7,154.8,81.4,155z"/>
		<path class="st56" d="M43.6,125c5.2-1.1,10.1-3.2,15.6-3.3c1.9,0-0.6-2.7,0.3-4c0.3,0.6,0.7,1.1,0.8,1.7c0.1,1.8,2.9,4.5-2.4,4.1
			c-3.9-0.3-8.3,1.3-12.1,3C43.2,127.7,43.6,126.6,43.6,125z"/>
		<path class="st57" d="M44.9,75.3c5.7-2,11.5-4.1,17.2-6.1c0.7-0.2,1.3-0.4,2-0.6c1.2,2.1-0.9,2-1.7,2.3c-3.9,1.5-7.8,2.8-11.8,4.3
			c-0.9,0.3-2.4,0.2-2.2,1.8C47.2,76.5,46.1,75.9,44.9,75.3z"/>
		<path class="st28" d="M90.1,22.1c3.7,1.9,3.5,5.8,4.5,9c1.2,3.6,2.9,5.8,6.8,5.7c-4.2,1.2-6.8,0.1-8.3-4.3c-1.1-3.3-1-7.3-4.3-9.7
			l0,0C89.2,22.5,89.6,22.3,90.1,22.1z"/>
		<path class="st58" d="M103.4,36.1c-1.1-0.5-2.2-0.9-3.3-1.4c0.9,0,1.8,0,2.6,0c4.8-1.1,4.3-4.3,3.3-7.8c-0.5-1.6-0.9-3.1-1.4-4.7
			c0.4-1.3,0.9-2.7,1.3-4c-0.8,3.6,1.1,6.6,1.8,9.9C108.6,32,107.8,35,103.4,36.1z"/>
		<path class="st59" d="M47.5,104.3c2.5,0.3,4.8-0.1,6.7-1.8c0.6-0.5,2.4-1.5-0.1-2c1.7-1.3,3.1-2.7,2.6-5.2
			c0.2-0.5,0.5-0.9,0.7-1.4c1.8,4.8-0.9,10.2-5.9,11.8c-1.9-1.1-4-0.2-6-0.6l0,0.1C45.8,104.2,46.8,104.5,47.5,104.3z"/>
		<path class="st60" d="M58.8,66.6c-0.9,0.4-1.8,0.9-2.6,1.3C54.5,65,51.8,65,49,65.2c-0.5,0-0.9-0.1-1.4-0.1c0.5-1.3,1-2.6,1.5-3.9
			c0.1-0.1,0.9-0.1,1,0C52,64.6,56,64.6,58.8,66.6z"/>
		<path class="st61" d="M47.5,121c-1.3,0.7-2.7,1.5-4,2.2c-0.7-2.6-1.3-5.3-2.1-7.8c-0.5-1.7,0.3-2.4,1.7-3c0.6-0.2,1.6-0.7,1.8-0.6
			c0.9,1.2-0.5,1.8-0.9,2.7C42.2,118.9,43.6,121.4,47.5,121z"/>
		<path class="st62" d="M44.9,75.3c1.2,0.6,2.3,1.2,3.5,1.8c3.5,1,6.6,3.2,10.4,2.9c-1.1,0.4-2.3,0.9-3.4,1.3
			c-4.1-1-7.5-4.3-12.2-3.8c-0.7,0.1,0.1-2.5,0.9-3.7C44.4,74.3,44.7,74.8,44.9,75.3z"/>
		<path class="st63" d="M98.7,49.2c0-0.6,0.1-1.2,0.1-1.8c0.9-0.7,1.7-1.4,2.6-2.1c2.9-1.8,5.7-3.7,9.2-4.2c-0.4,0.5-0.8,1-1.3,1.6
			c-2.2,1.3-4.4,2.6-6.6,3.9c-0.9,0-1.3,0.4-1.4,1.3l0,0c-0.9,0-1.3,0.4-1.4,1.3C99.5,49.2,99.1,49.2,98.7,49.2z"/>
		<path class="st64" d="M52.8,119.8c-0.8,0.9-1.8,0.6-2.8,0.5c-0.2-2.2-0.8-4.1-2.7-5.5c-2.2-1.6,1.1-0.9,0.9-1.7
			c0.7-0.2,1.4-0.3,2-0.5c1.8-0.2,1.9,0.2,1.2,1.9C50.8,116.3,49.7,118.7,52.8,119.8z"/>
		<path class="st65" d="M105.9,18.1c-0.4,1.3-0.9,2.7-1.3,4c-0.8-0.9-1.6-1.8-2.4-2.6c-0.3-0.4-0.7-0.7-1.1-1.1
			c1.4-0.5,2.8-1.2,4.2-1.5C106.6,16.7,106.2,17.5,105.9,18.1z"/>
		<path class="st66" d="M55.4,81.3c1.1-0.4,2.3-0.9,3.4-1.3l0,0c0.2,0.4,0.4,0.7,0.6,1.1C58.4,85.8,56.9,82.7,55.4,81.3z"/>
		<path class="st44" d="M60.8,141c-5.6,0.7-0.6,4.6-2,6.6c-1.4-2.2-1.9-4.6-0.9-6.9C58.4,139.7,59.9,140.2,60.8,141z"/>
		<path class="st67" d="M80.1,48.7c-2.5-0.9-1.1-2.5-0.7-3.9C78.5,46.2,84.6,46.5,80.1,48.7z"/>
		<path class="st68" d="M101.4,45.4c-0.9,0.7-1.7,1.4-2.6,2.1c-0.5-1.1-1-2.2-1.5-3.4C98.6,44.5,100,44.9,101.4,45.4z"/>
		<path class="st69" d="M45.5,105.2c2,0.4,4.1-0.5,6,0.6C49.4,105.9,47.3,106.6,45.5,105.2z"/>
		<path class="st47" d="M78.1,30.7c-2.4,0.3-0.7,2.3-1.3,3.3l-0.3,0c0,0-0.3-0.1-0.3-0.1C77.3,33.2,73.4,29.5,78.1,30.7z"/>
		<path class="st69" d="M47.5,104.3c-0.8,0.2-1.7-0.1-2.1,0.9c-1.1,0-1.7-0.4-0.6-1.4C45.7,104,46.6,104.2,47.5,104.3z"/>
		<path class="st70" d="M64.1,68.7c-0.7,0.2-1.3,0.4-2,0.6c0-0.4,0-0.8,0-1.3C62.8,68.2,63.4,68.4,64.1,68.7z"/>
		<path class="st37" d="M90.1,154.2c0.9-0.2,1.8-0.3,2.6-0.5C92.2,155.6,91.3,155.6,90.1,154.2z"/>
		<path class="st62" d="M59.4,81c-0.2-0.4-0.4-0.7-0.6-1.1c0.4-0.5,0.9-0.8,1.2-0.1C60.1,80.1,59.6,80.6,59.4,81z"/>
		<g>
			<path class="st71" d="M195.1,46.8c-14.5-18.8-33.5-30.5-57.2-34.1c-1.5,3.6-3.9-0.9-5.8,0.6c-0.6,0.4-1.9-0.2-2.3,0.8
				c-0.4,1.1,0.7,1.5,1.4,1.9c3.3,1.8,3.1,4.1,0.9,6.7c0,4-1.1,7.3-5.4,8.8c-2.3,1.6-5,0.5-7.5,1.2c-1.2,2.2-3.2,2.7-5,1.6
				c-1.6-1-2.8-2.8-1.7-5.1c2.3-4.5,2.9-8.8-0.6-13c-0.7-0.9-1.3-1.6-2.4-1.2c-1.2,0.4-0.6,1.4-0.7,2.2c-0.8,5.6,0.1,11,1.1,16.4
				c0.4,1.9-0.5,2.9-2.7,3.3c-2.2,0.4-4.6,0.2-6.6,1.8c-1,0.8-2.6,1.3-1.7,3c0.8,1.6,2.7,1.5,3.4,0.4c2-3.2,5.6-3,8-2.9
				c5.4,0.4,11.3-2.7,16.3,1.6c6,1.8,11.8,4,17.2,7.3c3.2,0.5,4.1-3.9,7.3-3.4c1.2-3.2,2.9-0.9,4.1-0.2
				c32.9,17.2,43.6,60.2,22.7,91.1c-4.8,7.1-10.8,13.1-18,17.8c-1,0.6-1.9,2.1-3.5,1c-1.1-0.6-2.6-0.5-3.4-1.9
				c-1.4-0.6-3-3.3-3.8,0.5c-1,10.2-4.2,19.3-13.1,25.4c-12.1,8.9-30.7,2.7-36.3-12c-0.5-1.3-0.9-2.7-1.3-4.1c-0.2,0-0.4,0-0.5,0
				c-0.4-0.5-1.3-1.1-1.2-1.4c1.7-5.7-1.8-4.6-5-3.9c-0.5,0.1-1.1,0-1.7,0c-1.8,0-3.5-2.8-5.3-0.2c-1.8,2.7-0.6,5.4,0.4,7.9
				c2.2,5.2,0.9,7.5-4.5,7.6c-1.5,0-3.7-0.7-3.9,1.8c-0.2,2.3,1.4,3.4,3.5,3.5c2.8,0.2,4.7,2.2,6.9,3.6c5.6,3.3,12,4.1,18,6.2
				c7.8,2.8,16,2.9,24.1,2.8c1.9,0,3.8-3.8,5.7-0.1c0.5,0,1.1,0.1,1.6,0C204.2,180.3,236.6,100.7,195.1,46.8z M143.1,19.3
				c-0.7,4.3-1.9,8.6-1.9,13c0,0.6,0.9,1.8-0.5,1.6c-1.8-0.1-3.7-0.4-5.4-1.1c-0.8-0.3,0.5-0.9,0.7-1.4c1-4.3,2-8.5,3.2-13.7
				c-0.1,0.1-1.7-1.2-0.5-1.3c1.7-0.2,3.6,0.2,5.1,0.9C145,17.9,143.2,18.5,143.1,19.3z M208.2,82c-0.9,2.1,2.8,6.5-3,6.2
				c-0.7,0-1.3-0.4-2-0.6c0.5-0.4,1-0.8,1.4-1.2c0.8-1,1.6-2,2.4-3c0-1.7-0.5-3.2-1.5-4.6c-5.1-1.7-9.8-1.2-13.8,2.6
				c-0.7,1.5-0.4,3.1-0.1,4.6c2.4,1.6,4.6,0.6,6.7-0.7c0.2-0.8-0.2-1.8,1-2c0,0,0.1,0.5,0.2,0.8c0.1,0.2,0.1,0.3,0.1,0.5
				c0.8,0.7,0.8,1.7,0.7,2.6c-0.1,1.2,1,3.7,0.2,3.4c-2.7-1-5.3,2.8-7.7-0.2c-0.7-0.9-1.3-2-1.9-3.1c-2.3-3.8-2-7.7,0.5-11.2
				c2.4-3.4,6.2-4.2,10.1-3C205.9,74.3,207.8,77.6,208.2,82z M154.4,39.4c-4.3-0.5-6.7-3.4-7.6-7.2c-0.9-3.8,0.6-7.2,3.9-9.5
				c3.6-2.6,7.4-2.3,11,0.2c4.1,3,5.4,6.9,3.4,11.6C163,39.1,159.2,40.3,154.4,39.4z M178.3,52c-1.4,0.7-2.6,2.8-4.6,0.9
				c-1.7-1.7-3.6-3.2-5.4-4.9c-0.9-0.7-1.7-1.3-2.6-2c-1.5-0.9-3.9-1.1-0.3-3.2c3.8-2.2,6.8-6,8.7-10.2c1.2-2.5,1.5-0.9,2.2,0
				c2.3,1.4,4.1,2.4,0.6,5.1c-2.9,2.3-4.9,5.8-7.3,8.8c0.7,3.5,3.5,3.5,6.2,3.7c1.2,0.1,2.5-0.9,3.6,0.4
				C179.6,50.8,178.8,51.8,178.3,52z M183.2,66.5c-0.5-0.6-1-1.3-1.4-1.9c-2.2-4.4-1.7-8.4,2-11.5c4.3-3.7,8.6-2.8,12.6,0.8
				c1.6,0.9,2.5,2.2,2.6,4.1c1.5,4.8-0.1,8.4-4.4,10.8C190.3,71.3,186.4,70.2,183.2,66.5z M189.1,151.7c-0.4,1.6,0.6,3.5-1.4,4.6
				c-6.1,0.5-7.6,4.8-8,9.8c-0.4,0.3-0.8,0.5-1.2,0.8c-0.7,0.9-1.7,0.8-2.6,0.7l0,0c-0.5,0.7-1.2,0.9-2,0.6h-0.3l-0.3-0.1
				c-0.5,0-1,0-1.5-0.1c-1.9,1.5-4.6,2.9-6.2,2c-2.1-1.2,0-4.2-0.2-6.4c0-3-0.6-6.1,1.1-8.9c0.7-0.2,1.3-0.5,2-0.7
				c2.6-1.1,6.4-0.6,6.1-5.1c-0.6-4.1,1.8-5.6,5.4-5.9c1-1.1,2.2-0.5,3.4-0.6c0.1-0.2,0.3-0.2,0.5-0.2c1.9-1.1,4.7-2.5,5.9-1.3
				c1.5,1.6,0.4,4.5-0.5,6.7C189.8,149,190.1,150.3,189.1,151.7z M205.9,119.7c-5.4,1.5-11,2.2-16.2,4.3c-1.8,0.7-0.9-0.8-0.8-1.4
				c0.2-1.2,0.6-2.3,0.9-3.5c-0.1-1.2-0.4-2.3,1.5-1.6c1.9,0.7,3.8,0.3,5.7-0.5c1.2-2.9,1.1-5.5-2.1-7.1c-1-0.7-2.4,1.3-2.9,0
				c-0.4-1,0.2-3.4,0.8-3.6c1.7-0.4,1.8,1.9,3,2.7c3.5,2.9,7,5.8,10.5,8.7C208,118.8,207.4,119.3,205.9,119.7z M208.2,101.7
				c-4.7-0.4-9.4-0.1-14.1,0.6c-0.5,0.1-1.4,1.1-1.5,0.1c-0.3-1.8-0.4-3.8,0-5.6c0.2-1.1,1.1,0.6,1.8,0.4c2.2,0,4.5,0,6.7,0
				c2.4-0.2,4.8-0.3,7.2-0.6c0.6-0.1,1.2-0.3,1.2,0.5c0.1,1.5,0.2,3.1,0,4.6C209.3,102.6,208.6,101.7,208.2,101.7z"/>
			<path class="st71" d="M53.2,125.8c-3,2.3-6.6,2.2-9.8,3.2c-0.8,0.3-2.1-0.7-2.4,0.8c-0.3,1.2-0.2,2.5,1.1,3.1
				c1.8,0.9,2.6,2.6,2.6,4.3c0.1,6.5,6.1,9.5,8.3,14.8c0.4,0.9,1.7,1.7,2.8,1.2c1.4-0.7,1.1-2.1,0.7-3.2c-0.6-1.8-0.5-3.5,0.1-6.6
				c0.1-0.5-2.2-3.5,1.5-4.1c1.7-0.3,3.6,0.2,5.4,0.4c4.4,0.7,5.8-0.9,4.4-5.3C66,128.1,57.2,122.7,53.2,125.8z"/>
			<path class="st71" d="M40.8,91.2c0.3-0.4,0.5-0.7,0.8-1.1c-1.2-1.7,0-3,1.1-4c1.2-1.1,2.5-1.2,3.9-0.2c1.1,0.8,2.5,1.1,3.3,0
				c0.8-1.2,1.3-2.9,1.2-4.3c-0.1-1.3-1.7-1-2.8-1.1c-1.6-0.2-3.3-0.2-4.9-0.7c-1.8-0.6-4-1.3-2.2-4.1c0.8-1.3,1.2-2.8,1.8-4.2
				c0.3-0.8,1.5-1.7,0.5-2.3c-1.1-0.7-1.3,0.8-1.6,1.5c-2.8,4.9-2.9,10.5-4.7,15.7C35.9,89.8,33,94.7,40.8,91.2z"/>
			<path class="st71" d="M39.6,114.6c1.6-4.3,2.1-8.4,1.3-12.9c-0.2-0.4-0.4-0.8-0.6-1.3c-1.5-0.2-2.4-1-2.7-2.5
				c-0.1-0.7,0.3-1.8-0.9-1.7c-0.4,0.1-0.9,1.2-1,1.9c-1.6,7.8-0.4,15.4,2.1,22.8c0.2,0.5,0.9,1.1,1.4,1.1c1.1,0.1,1.1-0.9,1.1-1.6
				C40,118.6,39,116.3,39.6,114.6z"/>
			<path class="st71" d="M76.7,34.1L76.7,34.1l-0.3,0L76.2,34c-4.1-2.1-8.1-3.8-10,2.7c-0.1,0.5-1.6,0.5-2.3,0.9
				c-1,0.6-2.5,1.3-2,2.7c0.5,1.7,1.9,0.9,3,0.4c2.5-1.2,4.7-0.3,6.9,0.8c1.3,0.6,1.9,3.1,3.7,2.3c2-1,1.1-3.3,1.4-5.1
				C76.8,37.1,76.8,35.6,76.7,34.1z"/>
			<path class="st71" d="M85.9,20C85.9,20,85.9,20,85.9,20C85.9,20,85.9,20,85.9,20C85.9,20,85.9,20,85.9,20z"/>
			<path class="st71" d="M91,35.1c0.7,0.7,0.6-0.7,0.4-1.4c-0.9-3.6-3.5-6.9-2.7-10.9l0,0c-0.9-0.9-1.9-1.8-2.8-2.8
				c-0.9,1.3-1.7,3-2.9,3.8c-2,1.4-2,2.5-1.5,4.9C82.7,34.1,88.1,32.5,91,35.1z"/>
			<path class="st71" d="M102.7,34.6c-0.4-0.8-1.8-1.7,0.5-2.1c1.3-0.2,3-1,2.7-2.8c-0.8-3.8-2.8-6.9-6.4-8.5
				c-3.1-1.3-1.3,3.4-3.6,3.5c0.9,3.5,1.4,7.2,4.1,9.9C100.9,34.7,101.8,34.7,102.7,34.6z"/>
			<path class="st71" d="M54.7,106.7c-0.1,0.1-0.5-0.1-0.6,0c-2.4,1.8-8.5,0.1-5.9,6.4c0.7-0.2,1.4-0.3,2-0.5c2.1-3,3.4-0.9,4.7,0.7
				c0.7,0.9,1.4,1.5,2.7,1.2c1.4-0.3,1.8-0.9,2-2.1c0.2-1.4,0.4-2.8,0.6-4.2l0.1-0.2l-0.1-0.2C59.1,103.7,57.2,103.7,54.7,106.7z"/>
			<path class="st71" d="M51.3,57.4c0.3,0.9,1,1.7,1.5,2.5c1.1,1.9,2.8,3,5,3.5c0.4,0.1,0.7,0,1.1-0.1c-0.1-0.3-0.1-0.8-0.4-0.9
				c-2.9-1.5-1.7-4.2-1.8-6.5c-1.2-2.1-1-4.4-0.7-6.7c-5.4-1.9-5.3,3.5-7.1,5.8C47.3,57.3,50.9,56.1,51.3,57.4z"/>
			<path class="st71" d="M63.4,160.5c-1.3,0.3-2,0.9-1.9,2.3c0.1,1.3,0.6,2.1,2,2.1c1.4,0,2-0.8,1.9-2.1
				C65.3,161.6,64.6,160.8,63.4,160.5z"/>
			<path class="st71" d="M63.2,74.2c0.1-0.9-0.5-1.4-1.5-1.3c-1.1,1.1-3.4,0.5-3.9,2.4c-0.3,1,0.9,1.5,1.8,1.2
				C60.9,75.9,62.9,76.2,63.2,74.2z"/>
			<path class="st71" d="M73.9,171.8c0.3,0.3,0.6,0.8,1,0.9c0.2,0.1,0.7-0.2,1.3-0.5c-0.7-0.5-1-1-1.5-1.1
				C74.6,171.1,74.2,171.6,73.9,171.8z"/>
			<path class="st71" d="M58.9,88c-0.4-0.1-0.6-0.2-0.8-0.2c-0.1,0-0.4,0.4-0.3,0.5c0.1,0.2,0.3,0.4,0.5,0.6
				C58.4,88.6,58.6,88.4,58.9,88z"/>
			<path class="st71" d="M46,62.9c0.1-0.1-0.1-0.3-0.4-1.1c-0.2,0.6-0.4,0.9-0.5,1.2c0,0.2,0.1,0.4,0.2,0.5
				C45.5,63.3,45.8,63.1,46,62.9z"/>
			<path class="st71" d="M120.2,14c-0.3,0-0.6-0.1-0.9-0.1c-0.1,0-0.2,0.3-0.3,0.5c0.3,0.1,0.6,0.2,0.9,0.2
				C120,14.6,120.1,14.3,120.2,14z"/>
		</g>
		<path class="st46" d="M69.5,166.9c1-0.2,1.9-0.1,2.6,0.7C71.1,167.7,70.2,167.8,69.5,166.9z"/>
		<path class="st46" d="M79.4,154.3c-0.7-0.2-1.3-0.4-2-0.6C78.1,153.9,78.7,154.1,79.4,154.3z"/>
		<path class="st46" d="M72.1,167.6c0.7,0.2,1.3,0.4,2,0.6C73.3,168.4,72.6,168.3,72.1,167.6z"/>
		<path class="st46" d="M76.1,167.6c0.4,0.5,0.8,0.9,1.2,1.4C76.4,169,75.9,168.6,76.1,167.6z"/>
		<path class="st58" d="M101.4,36.7c0.5-0.8,1.2-0.9,2-0.7C102.7,36.3,102,36.5,101.4,36.7z"/>
		<path class="st44" d="M70.1,143.6c-0.8,0.2-1.5,0.2-2-0.6C68.9,142.8,69.6,142.9,70.1,143.6z"/>
		<path class="st3" d="M62.8,42.7c0,0.2-0.1,0.3-0.1,0.5c-0.6,0.1-1.3,0.1-1.9,0.2C61.5,43.1,62.1,42.9,62.8,42.7z"/>
		<path class="st72" d="M102.7,46.7c2.2-1.3,4.4-2.6,6.6-3.9c14.5-4.1,26.4,3.1,38.6,9.2l0,0c0.2,1.7,1.5,1.4,2.6,1.4l0,0
			c0.4,3.3,4.5,1.5,5.4,4.1c-0.9,1.3-1.8,2.6-2.7,3.9c-0.8,0.6-2.1,1.1-2.4,1.9c-1.6,4.5-4,2.5-6,0.7c-2.4-2-4.6-4.2-7.5-5.5
			c-0.1-0.8-0.6-1.3-1.5-1.2c-0.4,0-0.8,0-1.2,0c-1.8-0.2-1.7-3.3-4.1-2.7c-3.3-1.4-6.6-2.7-9.9-4.1c-3.3-2.5-16-1.6-19.4,1.3
			c-0.5,0.4-0.9,0.8-1.4,1.3c-1.4,0.3-2.3,1.3-2.7,2.6c-0.4-0.9-0.8-1.7-1.3-2.6c0,0,0,0,0,0c2.1-0.4,2.9-1.8,2.8-3.8l0-0.2
			c0.4,0,0.8,0,1.2,0c0.9,0.1,1.4-0.4,1.4-1.3l0,0C102.2,48,102.6,47.5,102.7,46.7z"/>
		<path class="st73" d="M153.2,63.4c8.6,5.8,13.6,14.1,16.7,23.7c-1.3,2.5-3.8,0.3-5.5,1.3c0-0.2,0.1-0.4,0.1-0.5
			c0.5-0.2,1-0.4,1.5-0.6c0.8-0.4,2.7,0.5,2.3-1.4c-0.4-1.6-1.9-0.7-2.8-0.6c-2.1,0.3-4.1,0.9-6.1,1.4c-1.2,0.2-2.4,0.3-3.5,0.5
			c-1.8-1.6-3.5,0.3-5.3,0c-0.9-0.1-2.4,0.1-0.7-1.3c2-0.5,3.9-0.9,5.9-1.4c1.8,2,4,0.7,5.9,0.3c1.8-0.4,5.6,0.1,5.1-1.9
			c-0.7-2.4-3.6,0.3-5.6,0.2c-0.6-0.2-1.3-0.4-1.9-0.6c1.2-0.2,2.3-0.4,3.4-0.8c1.1-0.4,3.3,0,3-1.7c-0.4-1.7-2.1-0.7-3.3-0.3
			c-1.7,0.5-3.4,1-5.1,1.4c-0.7-0.2-1.3-0.5-2-0.7c1.2-0.4,2.5-0.7,3.7-1.1c1.9-0.6,5.6-0.3,5-2.5c-0.6-2-3.4,0.9-5.3,0.8
			c-0.4-0.2-0.9-0.4-1.3-0.6c1.2-1.8,5.5-0.3,4.8-2.9c-0.5-1.7-3.4,1.1-5.4,0.9c-0.2-0.2-0.4-0.4-0.7-0.6c1.6-0.7,3.2-1.3,4.8-2
			c-0.2-0.4-0.5-1.2-0.7-1.2c-3,0.1-5.6,1.6-8.1,3.3c-0.5,0.4,0.9,0.3,1.3,0.6c-2.9,0.5-5.3,3.6-8.6,1.3c0.7-0.3,1.3-0.7,2-1
			c-0.6,0-1.1,0.1-1.7,0.1c-1,0.1-2.1,0.3-3.1,0.5c0.7-0.8,1.4-1.5,2.1-2.3l0,0c1.1,0,2.2-0.2,3-1.1c-1,0.2-1.9,0.3-2.9,0.5
			c-0.2-0.5-0.5-0.9-0.7-1.4l0.3,0l0.3,0c0.9-0.4,1.9-0.8,2.8-1.3c1.1,1.2,2.4,0.5,3.3-0.1c1.9-1.4,5.1-0.7,6.2-3.5
			c-2.9-1-4.5,1.7-6.9,2.3c-2.7-0.9-4.5,1.1-6.7,2c-0.2,0-0.4,0.1-0.6,0.1c0.2-2.5,3.1-2.5,4-4.2C149.1,68.8,152.4,67.1,153.2,63.4z
			 M150.8,73.6c2-2.2,5.7-1.1,7.4-4c0.2-0.4-0.8-1.1-1.5-0.7c-2.4,1.4-5.5,1.6-7.3,4.1C149.8,73.1,150.1,73.3,150.8,73.6z"/>
		<path class="st74" d="M167.8,119.1c-0.7,1.5-1,3.2-2.7,4l0,0c-1.4-4.1-5.3-2.3-8-3.3c-2.9-0.2-5.8-2.8-8.7,0
			c-1.6-0.1-4.1,0-4.2-1.6c-0.2-2,2.2-0.8,3.4-1.1c0.5-0.1,1.3,0,0.3-0.7c-2-1.4,2.8-1.8,0.5-3.3c0.5,0,1.1,0.1,1.6,0
			c0.8-0.2,1.6-0.4,2.4-0.7c2.9,0.4,5.8,0.9,8.7,1.3c0.4,0.1,0.8,0.1,1.2,0.2c0.7,0.2,1.4,0.3,2.1,0.5c0.4,0.1,0.8,0.1,1.2,0.2
			c-1.1,0.2-2.2,0.4-3.3,0.6c-0.4,0-0.9,0-1.3,0c-0.4-0.2-0.8-0.6-1.2-0.5c-2.5,0.4-5-1.7-7.5-0.2c2.2,1.5,4.9,1.4,7.4,2
			c2.4,0.5,4.8,0.9,7.2,1.4C167.3,118.2,167.5,118.6,167.8,119.1z M158,117c-1.1,0.1-1.9,0.2-2.7,0.3c0.2,0.2,0.4,0.6,0.7,0.6
			c2.9,0.8,5.9,1.6,8.8,2.3c0.6,0.2,1.4,0.1,1.6-0.8c0.2-0.9-0.5-1.1-1.2-1.2C162.7,117.9,160.2,117.5,158,117z"/>
		<path class="st75" d="M162.5,115.1c1.1-0.2,2.2-0.4,3.3-0.6c0.8-0.2,1.6-0.4,2.4-0.7c-0.4-1.2-1.5-0.5-2.2-0.8
			c-0.5-0.2-1-0.4-1.5-0.6c1.1-0.2,2.2-0.4,3.3-0.6c1.2-0.2,1.6-0.9,1.3-2c0.4,0,0.7,0.1,1.1,0.1c-0.1-0.3-0.3-0.6-0.4-0.9
			c-2.1-3.4-4.6-2.3-7.1-0.7c-2.3-0.2-4.5-0.4-6.8-0.5c-0.6,0-1.3,0-1.9-0.1c0.3-1.8,1.8-1.1,2.9-1.2c3.6-0.4,7.3,0.6,10.9-0.6
			c1.3-0.2,3.1,0.3,2.7-2.1c0.6-0.3,0.5-0.6,0-0.8c0-0.8,0-1.6,0-2.4c0.5-0.3,0.6-0.6,0-1c0-0.8,0-1.6,0-2.4c0.5-0.3,0.6-0.6,0-0.9
			c0-0.6,0-1.3,0-1.9c0.2-0.5,0.5-1,0.7-1.4c1.7,9,0.6,17.7-3.4,26c-0.2-0.5-0.5-0.9-0.7-1.4C167.3,113.7,163.4,117.1,162.5,115.1z"
			/>
		<path class="st76" d="M171.2,93.1c-0.2,0.5-0.5,1-0.7,1.4c-2.6,0.1-5.3-0.3-7.9,0.7c-0.9,0-1.9-0.1-2.8-0.1
			c-1.3-1.1-2.8-0.3-4.1-0.6c-1.5-0.3-3.3,0.7-4.6-0.7c1.4-0.4,2.9-0.8,4.3-1.2c0.6-0.2,1.2-0.4,1.8-0.5c-0.7-0.1-1.3-0.2-2-0.2
			c-1.6-0.1-3.3-0.1-4.9-0.2c1.3-1.9,3.6-1.1,5.3-1.8c0.5-0.2,1.1,0,1.6,0c0,0.9,0.6,1.2,1.4,1.4c0.9,1.1,2.2,0.3,3.3,0.7
			c-0.7,0.5-1.5,1-2.2,1.5c0.9,0.1,1.9,0.4,2.8,0.3c2.5-0.2,6.9,0.7,6.8-1.5c-0.1-2.5-4,0.1-6.2-0.4c-0.2-0.2-0.4-0.4-0.6-0.7
			c2.7-0.4,5.4-0.9,8.1-1.3C170.7,90.9,170.9,92,171.2,93.1z"/>
		<path class="st77" d="M153.2,63.4c-0.8,3.7-4.1,5.4-7.3,3.7c-0.7-0.6-1.4-1.2-2.1-1.8c-1.5-1.2-2.9-2.3-4.4-3.5
			c-2.9-3-5.5-2.8-7.8,0.8c-0.6,1-1.6,1.8-2.3,2.7c-0.3-4.1,4.2-4.9,5.3-7.9c0.4,0,0.8,0,1.2,0c0.1,0.8,0.6,1.2,1.5,1.2
			c2.9,1.3,5.2,3.4,7.5,5.5c2.1,1.8,4.4,3.8,6-0.7c0.3-0.8,1.6-1.3,2.4-1.9C153.2,62,153.2,62.7,153.2,63.4z"/>
		<path class="st78" d="M158.5,91.2c-0.8-0.1-1.4-0.4-1.4-1.4c1.3-0.2,2.6-0.5,3.9-0.7c0.7-0.2,1.4-0.4,2.1-0.6
			c0.4,0,0.8-0.1,1.2-0.1c1.7-1.1,4.2,1.2,5.5-1.3c0.2,0.9,0.4,1.8,0.6,2.7c-2.7,0.4-5.4,0.9-8.1,1.3
			C161.1,91.1,159.8,91.2,158.5,91.2z"/>
		<path class="st79" d="M155.9,57.4c-0.9-2.6-5.1-0.8-5.4-4.1c2.4-0.1,4.8,2.7,7.3,0.1c0.1-0.1,1,0.3,1,0.5
			C158.7,55.7,157.6,56.8,155.9,57.4z"/>
		<path class="st74" d="M164.4,125.1c-0.6,0-1.2,0-1.9,0c-2-0.4-4-0.9-6.1-1.3c-1.3-0.4-2.7-0.9-4-1.3c-1.1-0.4-2.2-0.9-3.3-1.3
			c0-0.2,0-0.5,0-0.7c2,0.4,4,0.9,6,1.3c3.3,0.3,6.2,3.9,9.9,1.4l0,0C164.9,123.7,164.7,124.4,164.4,125.1z"/>
		<path class="st13" d="M150.5,53.3c-1.1,0-2.4,0.3-2.6-1.4C149,52,150.3,51.6,150.5,53.3z"/>
		<path class="st80" d="M129.3,105.1c1.3,5,4.9,8.8,7.3,13.3c4.4,8.5,9.5,16.8,10.9,26.3c1.5,9.4-0.6,18.5-6.3,26.4
			c-0.4,0.6-0.9,1.2-1.4,1.8c-0.8,0.1-1.2,0.5-1.3,1.3l0,0c-0.8,0-1.3,0.5-1.3,1.3l0,0c-0.8,0-1.3,0.5-1.3,1.3
			c-0.5,0.5-0.9,0.9-1.4,1.4c-0.4,0-0.8,0-1.3,0c-0.8-0.1-1.2-0.4-1.2-1.2c0.4-0.4,0.8-0.8,1.2-1.2c2.1-0.6,3-2.5,4.1-4.1
			c0.8-0.1,1.2-0.6,1.2-1.4c5.5-11.4,2.7-22.5-2.1-33c-3.7-8-9-15.4-13.3-23.1c-4.3-7.6-8.8-15-8.5-24.3c0.1-3.6,2.2-6.6,2.8-10
			c0.8-0.1,1.2-0.6,1.2-1.4c0-0.4,0.1-0.8,0.1-1.2c0.8-0.1,1.2-0.6,1.2-1.4v0c1.3,0.1,1.3,1.1,1.4,2.1c0,0.2,0,0.4,0,0.6
			c-2.2,3.6-2.1,7.1-0.1,10.7c1.3,5.3,3.3,10.3,6.8,14.6C128,104.7,128.5,105.1,129.3,105.1z"/>
		<path class="st81" d="M110.6,131.6c0.1-0.8,0.1-1.7,0.2-2.5c2.4,1.8,0.7,4.4,1.3,6.6c-0.3,1.2-0.5,2.3-0.8,3.5
			c-1.4,4.8-5.1,8.6-6,13.6c-0.8,0.2-1.3,0.6-1.2,1.5c-0.1,0.6-0.1,1.3-0.2,1.9c-2.5,2.6-0.7,5.8-1.2,8.7c-0.4,0.4-0.8,0.9-1.3,1.3
			c-4.8-12.8,0.9-23.1,7.9-33.1C110.2,133,110.7,132.5,110.6,131.6z"/>
		<path class="st82" d="M92.1,133.6c0,0.3-0.1,0.6-0.1,1c-7.5-6.9-12.5-15.2-14-25.4c0.3,0,0.5,0,0.8,0c3.4-1.2,7.5,0.8,10.4-2.5
			c2.5,0.4,5.3-1.4,7.4,1.2c-1.1,0.1-2.1,0.3-3.2,0.4c1,0.1,2,0.2,3.1,0.3c0.7,0,1.3,0,2,0.1c0.5,0.1,1.3,0,0.9,0.8
			c-0.1,0.3-0.9,0.3-1.4,0.5c-1.8,0.2-3.6,0.4-5.4,0.6c-2.5-2.4-5.2-1.2-7.9-0.6c-1.1,0-2.2,0-3.3,0.1c-0.7,0-1.8-0.1-1.9,0.9
			c-0.1,1.4,1.1,1,1.9,1.2c0.2,0.2,0.4,0.4,0.6,0.5c-0.4,0.7-2.1,0.3-1.8,1.5c0.3,1.2,1.4,0.6,2.2,0.5c1.6-0.2,3.3-0.4,4.9-0.7
			c0.4,0.2,0.9,0.4,1.3,0.6c-0.2,0.2-0.5,0.4-0.7,0.7c-0.9,0-1.7,0.1-2.6,0.1c-1-0.1-1.9-0.4-2.7,0.5c-0.6,0.2-1.8-0.2-1.4,1.2
			c0.2,0.8,0.9,0.9,1.6,0.7c1.7-0.4,3.4-0.9,5.1-1.3c1.4-0.2,2.7-0.4,4.1-0.5c0.4,0.2,0.7,0.5,1.1,0.6c1.9,0.4,3.7-1.4,5.6-0.2
			c-1.8,1.8-4.2,1.7-6.4,2.2c-0.1,0-0.2,0-0.3,0c-0.5-2.7-2.2-0.4-3.2-0.5c-2.2-0.3-4.5-0.1-6.4,1.5c2.2,2.1,4.2-0.5,6.3-0.2
			c0,0.2,0,0.5,0,0.7c0,0.2,0,0.4,0,0.6c-1.7,0.4-3.3,0.8-5,1.2c0.3,0.7,0.3,1.6,0.8,2c1.8,1.2,3.2-0.5,4.9-0.7
			c0.6-0.1,1.2-0.4,1.9-0.6c1.6,0.2,3.1-1.8,4.6,0c-0.2,0.3-0.4,0.5-0.6,0.8c-2.3,0.5-4.5,0.8-6.8,1.4c-1,0.3-2.9,0-2.2,2
			c0.6,1.7,1.9,1.3,3.3,0.8c2.1-0.7,4.2-1.1,6.3-1.6l0.1,0.1c-0.5,0.4-1.1,0.7-1.5,1.2c-1.6,1.4-6.2,0.1-5,3.1
			c1.2,3,4.2-0.5,6.5-0.8c0.4,0.2,0.9,0.4,1.3,0.6c-1.1,0.5-2.3,0.8-3.2,1.4C93.3,131.8,90.6,131,92.1,133.6z"/>
		<path class="st83" d="M101.5,166.2c0.4-0.4,0.8-0.9,1.3-1.3c0.4,0,0.8,0.1,1.2,0.1c0.8,5.4,7.1,11.8,11.9,12
			c0.5,1.6,1.8,1.3,3,1.3c4.4,0.1,8.9,0.5,13.1-1.4l0.1,0.1c0,0.8,0.5,1.2,1.2,1.2c-4.5,3.7-9.9,3.4-14.8,2.4
			C110.4,179,104.8,173.7,101.5,166.2z"/>
		<path class="st84" d="M97.4,129.7c-0.4-0.2-0.9-0.4-1.3-0.6c1.1-0.5,2.1-1,3.2-1.5c0.5-0.1,1.2-0.1,1.6-0.4c1.3-1,4.3-0.9,3.9-2.6
			c-0.6-2.1-2.6,0.2-4,0.1c-0.3,0-0.5-0.6-0.7-1l0-0.1c1.6-0.3,2.4-1.5,3.3-2.6c0.7,0,1.3-0.1,2-0.1c0.7,0.2,1.3,0.5,2,0.7
			c2.3,2.4,3.1,4.9,1.2,7.9c-0.9,0.2-1.7,0.5-2.6,0.7c-2,0.9-4,1.8-6,2.6c-0.4,0-0.8,0.1-1.2,0.1c-0.2-0.2-0.5-0.5-0.7-0.7
			c0.7-0.4,1.3-0.9,2-1.3c2.2-0.6,5.5-0.8,5.3-3.4c-0.1-1.2-3.5,0.7-5.4,1c-0.7,0.1-1.4,0.6-2,0.9C97.8,129.7,97.6,129.7,97.4,129.7
			z"/>
		<path class="st85" d="M112,135.7c-0.6-2.2,1.1-4.8-1.3-6.6c-0.3-7.7-1.9-9.7-7.2-9.5c-1.9,0.1-2.8,1.5-4,2.5
			c-0.5,0.3-1.2,2.6-2.1,0.3c0.8-1.9,2.2-3.2,3.9-4.1c5.8-3.2,8.5,0.8,10.7,4.9C114.2,127.3,114.3,131.6,112,135.7z"/>
		<path class="st86" d="M99.3,127.7c-1.1,0.5-2.1,1-3.2,1.5c-2.3,0.3-5.3,3.8-6.5,0.8c-1.2-3,3.4-1.7,5-3.1c0.5-0.4,1-0.8,1.5-1.2
			c1.3,1,2.4,0.7,3.2-0.7C99.3,125.9,99.3,126.8,99.3,127.7z"/>
		<path class="st87" d="M96.1,125.6c-2.1,0.5-4.3,0.9-6.3,1.6c-1.4,0.5-2.7,0.9-3.3-0.8c-0.7-2,1.2-1.7,2.2-2c2.2-0.6,4.5-1,6.8-1.4
			C95.6,123.9,95.8,124.8,96.1,125.6z"/>
		<path class="st88" d="M96,122.3c-1.6-1.7-3.1,0.2-4.6,0.1c-0.1-1.7-1.3-1.9-2.6-1.9c0-0.2,0-0.4,0-0.6c3.3-0.5,6.5-1,9.8-1.5
			c-0.7,1.3-1.4,2.6-2.1,4l-0.2,0L96,122.3z"/>
		<path class="st89" d="M99.3,127.7c0-0.9,0-1.8,0.1-2.6c0.2-0.4,0.5-0.8,0.7-1.2c0.2,0.3,0.4,0.9,0.7,1c1.4,0.1,3.4-2.2,4-0.1
			c0.5,1.7-2.6,1.6-3.9,2.6C100.5,127.6,99.8,127.5,99.3,127.7z"/>
		<path class="st90" d="M96.4,122.3c0.7-1.3,1.4-2.6,2.1-4c0.9-0.4,1.9-0.9,2.8-1.3c0,0.4,0,0.9,0,1.3c-1.8,0.9-3.2,2.2-3.9,4.1
			C97.1,122.4,96.7,122.3,96.4,122.3z"/>
		<path class="st91" d="M103.4,121.1c-0.8,1.2-1.7,2.3-3.3,2.6C100.9,122.5,101.7,121.3,103.4,121.1z"/>
		<path class="st85" d="M110.6,131.6c0.1,0.9-0.3,1.3-1.2,1.5C109.3,132.2,109.7,131.8,110.6,131.6z"/>
		<path class="st91" d="M107.3,121.8c-0.7-0.2-1.3-0.5-2-0.7C106,121.3,106.6,121.5,107.3,121.8z"/>
		<path class="st92" d="M139,119.2c-2-3.3-4-6.5-5.9-9.8c-0.9-1.6-3.2-3.1-0.5-5.2c2.6-2,4.4-0.8,6.2,1.1c0.4,0.4,0.7,0.8,1.1,1.2
			c1.6,2.3,3.1,1.9,4.5-0.1c1.2,0.2,2.3,0.5,3.5,0.7l0,0c-0.9,0.5-2.6,0.8-2.7,1.4c-0.9,4-4,6.9-5.3,10.6
			C139.6,119.2,139.3,119.2,139,119.2z"/>
		<path class="st93" d="M144.4,106.4c-1.5,2-2.9,2.4-4.5,0.1c0-0.5,0-1,0.1-1.5c0.4,0.1,0.8,0.1,1.2,0.2c0.2,0.3,0.4,0.6,0.6,1
			c0.3-0.3,0.6-0.7,0.9-1l0,0c0.9-0.1,1.3-0.5,1.3-1.4c0.8-1,1.6-2,2.4-3c0.8-1.1,2.7-2.5,0.9-3.5c-2.8-1.5-4.5-4.7-8-5.2
			c-0.1,0-0.4,0.3-0.4,0.4c-1,3-4.1,4.6-5.6,7.3c-1.8,1.3-3.5,2.6-5.3,4c-3.5-4.3-5.5-9.3-6.8-14.6c0-3.6,0-7.1,0.1-10.7
			c0-0.2,0.1-0.4,0-0.6c0.9-1.4,1.7-2.7,2.6-4.1c0.1,0.3,0.1,0.7,0.2,1c-3.5,8.3-1.7,16.1,2.3,23.8c1.4,2.7,2.4,3.7,4.9,1
			c2.8-3,5.6-6,7.3-9.7c1.1,0,2.1,0.1,3.2,0.1c0.2,1.2,0.9,1.9,1.9,2.5c1.5,2.2,4.1,2.1,6.2,3.2c0,1.3-0.1,2.6-0.1,4
			c-0.5,0.4-1,0.8-1.4,1.3C146.2,102.3,145.2,104.3,144.4,106.4z"/>
		<path class="st94" d="M141.2,105.2c-0.4-0.1-0.8-0.1-1.2-0.2c-0.5-0.8-1-1.6-1.5-2.5c-0.5-3.2-4.6,0.3-5.2-2.7
			c1.5-2.7,4.5-4.2,5.6-7.3c0.1-0.2,0.3-0.5,0.4-0.4c3.4,0.5,5.1,3.7,8,5.2c1.8,0.9-0.1,2.4-0.9,3.5c-0.8,1-1.6,2-2.4,3
			c-0.8,0.1-1.3,0.5-1.3,1.4c0,0,0,0,0,0C142.1,105.2,141.6,105.2,141.2,105.2z"/>
		<path class="st95" d="M139,119.2c0.3,0,0.6-0.1,0.9-0.1c1.7,2,4.3-0.4,6,1.3c-1.1,4.5,3.1,2.6,4.6,3.9c1.3,0.5,2.6,1,3.9,1.5
			c-0.2,0.2-0.4,0.4-0.6,0.6c-1.1-0.2-2.2-0.5-3.3-0.7c-3.1-0.9-6.3-1.7-9.4-2.6C140.4,121.8,139.7,120.5,139,119.2z"/>
		<path class="st96" d="M145.2,131.7c2.2,0.8,4.4,1.5,6.5,2.4c0.6,0.3,2.3,0.4,1.4,1.9c-0.6,0.9-1.5,1-2.6,0.6
			c-1.4-0.5-2.3-2.1-4-1.6C146,134,145.6,132.8,145.2,131.7z"/>
		<path class="st97" d="M133.2,99.8c0.6,3,4.7-0.5,5.2,2.7c-3.5-0.7-6.6,0-9.1,2.6c-0.8,0-1.4-0.4-1.4-1.3
			C129.7,102.5,131.5,101.2,133.2,99.8z"/>
		<path class="st98" d="M143.1,127.1c2.2,1,4.9,0.8,6.8,2.6c-0.2,0.6-0.4,1.3-0.6,1.9c-1.6-0.2-2.8-2.4-4.7-1.2
			C144,129.3,143.6,128.2,143.1,127.1z"/>
		<path class="st83" d="M137.2,175.5c0.1-0.8,0.5-1.3,1.3-1.3C138.5,175.1,138.1,175.5,137.2,175.5z"/>
		<path class="st83" d="M135.9,176.8c0.1-0.8,0.5-1.2,1.3-1.3C137.2,176.4,136.7,176.9,135.9,176.8z"/>
		<path class="st83" d="M138.5,174.2c0-0.8,0.5-1.3,1.3-1.3C139.8,173.8,139.4,174.2,138.5,174.2z"/>
		<path class="st99" d="M125.1,30.5c-1.3,0.3-2.6,0.6-3.8,0.8l0,0c-0.4-0.5-0.8-1-1.3-1.4c0-3.3-0.2-6.6,0-9.9
			c0.1-1.3-1.4-3.3,1.1-3.7c2.4-0.4,4.5,0.4,5.3,2.9C127.6,23.1,127.7,27,125.1,30.5z"/>
		<path class="st34" d="M120,29.9c0.4,0.5,0.8,1,1.3,1.4C120.3,31.4,119.9,30.9,120,29.9z"/>
		<path class="st100" d="M150.5,125.7c1.1,0.2,2.2,0.5,3.3,0.7c1.4,0.5,2.9,0.9,4.3,1.6c0.7,0.4,2.4,0,1.9,1.6
			c-0.4,1.1-1.5,1.8-2.7,1.4c-2.7-1-5.5-1.9-7.8-3.4C147.9,126.5,149.5,126,150.5,125.7z"/>
		<path class="st101" d="M156.5,123.7c2,0.4,4,0.9,6.1,1.3c-1.9,6.2-4.9,0.3-7.4,0.6C155.2,124.7,155.7,124.1,156.5,123.7z"/>
		<path class="st102" d="M149.2,131.6c0.2-0.6,0.4-1.3,0.6-1.9c1.8,0.5,3.6,0.9,5.3,1.5c0.7,0.3,2.3,0.3,1.5,1.8
			c-0.5,1.1-1.5,1.4-2.8,0.8C152.4,133,150.8,132.4,149.2,131.6z"/>
		<path class="st103" d="M156.5,123.7c-0.8,0.4-1.3,1-1.3,2c-0.3,0.1-0.5,0.1-0.8,0.2c-1.3-0.5-2.6-1-3.9-1.5c-0.9-2.2,0.8-1.8,2-2
			C153.8,122.9,155.2,123.3,156.5,123.7z"/>
		<path class="st104" d="M179.8,157.7c-1.8,0.8-4.2,2.7-5.5,1.1c-1.1-1.3-1.1-4.3,1.3-5.9c1.6,0.2,3,0,4.1-1.2c0.2,0,0.4,0,0.7,0
			c0,1.1,0,2.2,0.1,3.4c0,0.2,0,0.4,0,0.6C180.2,156.3,180,157,179.8,157.7z"/>
		<path class="st105" d="M166.6,155.2c0.6-0.2,1.3-0.5,1.9-0.7c1.3,0.3,3.2-1.5,3.7,0.1c0.6,1.8,1.3,4.3-1.1,5.8
			c-0.7,0.2-1.3,0.4-2,0.6c-0.2,0.1-0.4,0.1-0.6,0.1c-2.7,0.1-1.8-2-2.1-3.5C166.5,156.7,166.6,156,166.6,155.2z"/>
		<path class="st51" d="M187,149.6c2.5,2.5,1.8,4.8-2,6.7c-1,0.2-2.8,1.8-2.8,0.1c0-2.1-1.6-5.7,2.7-6.2
			C185.7,150.3,186.5,150.4,187,149.6L187,149.6z"/>
		<path class="st106" d="M183.1,146.3c1.2-1.1,0.4-2.6,0.8-3.8c1.7,0.3,3.6-1.9,4.8-0.1c1.1,1.7-0.2,3.5-1.1,5.2
			c-0.2,0.1-0.4,0.1-0.6,0.1c-1.4-0.6-2.8,1.1-4.2-0.1C183,147.2,183,146.8,183.1,146.3z"/>
		<path class="st20" d="M166.4,157.5c0.3,1.4-0.6,3.5,2.1,3.5C163.6,162.4,166.4,159.1,166.4,157.5z"/>
		<path class="st19" d="M183,147.6c1.3,1.2,2.8-0.5,4.2,0.1C185.8,147.9,184.3,150.4,183,147.6z"/>
		<path class="st19" d="M179.7,151.7c-1.1,1.2-2.6,1.4-4.1,1.2C177,152.5,178.4,152.1,179.7,151.7z"/>
		<path class="st19" d="M180.5,155.1c0-1.1,0-2.2-0.1-3.4C181.4,152.8,181,153.9,180.5,155.1z"/>
		<path class="st19" d="M187,149.6c-0.5,0.8-1.3,0.7-2.1,0.6C185.6,150,186.3,149.8,187,149.6z"/>
		<path class="st20" d="M169.1,160.9c0.7-0.2,1.3-0.4,2-0.6C170.5,160.5,169.8,160.7,169.1,160.9z"/>
		<path class="st19" d="M179.8,157.7c0.2-0.7,0.4-1.4,0.6-2C180.2,156.3,180,157,179.8,157.7z"/>
		<path class="st107" d="M183.6,65.4c-0.2-1.4-0.4-2.7-0.5-4.1c0.1-0.2,0.1-0.4,0-0.6c1.8-2.6,4.5-4.1,7.3-5.3
			c1-0.2,1.9-0.4,2.9-0.6c0.5,0,1,0.1,1.5,0.1c1.8,0.6,2.8,2,3,3.9C194.5,64.7,188,67.8,183.6,65.4z"/>
		<path class="st3" d="M155.9,38.1c-3.9,0.2-4.7-2.2-4.8-5.4c0.9-4,2.4-7.6,6-9.9c1.5-0.1,2.8,0.4,4.1,1.3
			C163,28.6,160.7,34.7,155.9,38.1z"/>
		<path class="st108" d="M157.1,22.7c-3.6,2.3-5.1,6-6,9.9c-0.3,1-0.6,1.9-1,2.9c-0.5-1.2-1.4-2.3-1.5-3.5
			C147.8,26.4,152.4,21.5,157.1,22.7z"/>
		<path class="st109" d="M190.4,55.4c-2.8,1.3-5.5,2.7-7.3,5.3c-2.1-3.3,0.4-5,2.5-6.6c2.4-1.8,5.4-2.4,8-0.8
			c1.1,0.7-1.1,0.5-1.4,1.2C191.6,54.8,191,55.1,190.4,55.4z"/>
		<path class="st35" d="M190.4,55.4c0.6-0.3,1.2-0.5,1.8-0.8c0.4,0.1,0.7,0.1,1.1,0.2C192.3,54.9,191.4,55.2,190.4,55.4z"/>
		<path class="st110" d="M202,115.9c-1.1,0.8-2.4,0.6-3.6,0.4c0.4-0.8,0.8-1.7,1.1-2.5C200.4,114.5,201.2,115.2,202,115.9z"/>
		<path class="st111" d="M78.8,109.1c-0.3,0-0.5,0-0.8,0C74.9,94.4,78.9,81.6,88.1,70c0.6,1.3,0.7,2.7,0,3.7
			c-0.9,1.4-1.1,1.3,0.6,2.1c-0.3,0.4-0.6,1-0.9,1c-1,0.1-2.5-1.2-2.8,0.3c-0.3,1.6,1.8,1.1,2.7,1.7c0.4,0.3,1.1,0.2,1.6,0.3
			c0.2,0.4,0.4,0.8,0.6,1.3c-1.5-0.4-2.9-0.8-4.4-1.1c-1-0.2-2.2-0.5-2.5,0.8c-0.3,1.4,1.1,1,1.8,1.2c1.9,0.5,3.8,0.8,5.7,1.2
			c0.2,0.4,0.5,0.8,0.7,1.2c-2.5-0.6-5.1-1.2-7.6-1.8c-0.8-0.2-1.6-0.2-1.9,0.7c-0.4,1.3,0.7,1.1,1.4,1.2c2.9,0.5,5.8,0.9,8.7,1.3
			c0.3,0.2,0.5,0.5,0.8,0.7c-1.5,2.7-3.5-0.5-5.2,0.5c-1.2-0.4-2.5-1-3.7-1.2c-1-0.1-2.6-0.8-2.8,0.6c-0.3,1.8,1.6,0.9,2.4,1.3
			c2.2,0.4,4.5,0.8,6.7,1.2c-0.7,0.2-1.3,0.5-2,0.7c-2.2-0.4-4.3-0.7-6.5-1.1c-0.8-0.1-1.6-0.1-1.9,0.8c-0.3,1.3,0.9,1.1,1.5,1.2
			c3.1,0.4,6.3,0.7,9.5,1c1.9,1,3.8,1.4,5.4-0.6c0-0.3,0-0.5,0.1-0.8c1.8,1.3,3.3,3.1,5.9,2.7c0,0.3,0,0.5,0,0.8
			c-2.4,2-5.2,1.6-8.1,1.4c-1.3-0.1-2.7-0.5-3.8,0.5c-3.4-0.2-6.8-0.3-10.2-0.5c-1.2,0.1-1.1,0.9-1,1.8c-2.2,0.5-1.4,2.2-1.5,3.5
			c0,0.4,0,0.8,0,1.2c0,0.7,0,1.4,0,2.1c0.3,0.2,0.5,0.5,0.8,0.7c-0.4,2.2,1.2,1.9,2.5,2c2,0.2,4,0.4,6.1,0.6
			c-1.6,0.2-3.2,0.3-4.7,0.5C80.8,107.3,78.5,106.1,78.8,109.1z M85.4,93.8c1.8-0.5,3.8,0.8,5.5-0.7c-1.9-0.4-3.7-1-5.6-1.2
			c-2.1-0.2-5.8-2-6,0.2C79.1,94.5,83.1,93.5,85.4,93.8z"/>
		<path class="st112" d="M89.3,69.3c0.5-1.4-0.7-3.3,1.3-4.1c0.2,0.9,0,2,1.4,2.1c0.7,3.8-1.4,7.9,1.3,11.4c-0.3,3.2,1.3,5.2,4,6.6
			c0.4,2.2,4.4,3.2,3.2,4.8c-1.3,1.6-3.2-2.2-5.4-2.1c-0.1,0-0.2,0-0.3,0l0,0c0.1-0.8-0.3-1.3-1.2-1.4c-0.1-0.1-0.2-0.2-0.2-0.4
			c-1.3-3-2.6-6-3.9-9c0-0.4-0.1-0.8-0.1-1.2C89.3,73.7,89.3,71.5,89.3,69.3z"/>
		<path class="st113" d="M92,67.2c-1.4-0.1-1.2-1.2-1.4-2.1c0-0.6,0.1-1.2,0.1-1.9c1.5-0.7,1.3-2.1,1.2-3.4c0-0.4,0-0.8,0.1-1.2
			c0.4-0.9,0.9-1.8,1.3-2.7c0.6-1.2,1.1-2.4,2.6-2.7c0.4,0.9,0.8,1.7,1.3,2.6l0.2,0.1c-0.9,1.3-1.8,2.6-2.8,4
			c-0.9,0.1-1.2,0.6-1.2,1.4c0,0.4,0.1,0.9,0.1,1.3c-0.1,0.4-0.2,0.9-0.2,1.3c-0.8,0-1.2,0.5-1.2,1.3C92,65.9,92,66.6,92,67.2z"/>
		<path class="st114" d="M89.3,69.3c0,2.2,0,4.4,0,6.7c-0.2-0.1-0.4-0.1-0.6-0.1c-1.7-0.8-1.5-0.7-0.6-2.1c0.7-1.1,0.6-2.5,0-3.7
			C88.5,69.8,88.9,69.5,89.3,69.3z"/>
		<path class="st113" d="M98.7,49.4c0.1,2-0.7,3.4-2.8,3.8C96.3,51.6,96.9,50,98.7,49.4z"/>
		<path class="st112" d="M92,59.9c0.1,1.3,0.2,2.7-1.2,3.4C90.9,62,90.2,60.5,92,59.9z"/>
		<path class="st115" d="M93.3,55.9c-0.4,0.9-0.9,1.8-1.3,2.7C92.1,57.5,91.7,56.2,93.3,55.9z"/>
		<path class="st116" d="M100.1,131.1c-0.7,0.4-1.3,0.9-2,1.3c-2,0.4-3.6,2.6-5.9,1.1c-1.5-2.6,1.2-1.8,2.1-2.4
			c0.9-0.7,2.1-1,3.2-1.4c0.2,0,0.4,0,0.6,0C99,129.8,99.7,130.2,100.1,131.1z"/>
		<path class="st117" d="M98.8,133.1c0.4,0,0.8-0.1,1.2-0.1c0.9,0.1,1.6,0.4,1.9,1.3c-0.3,0.3-0.6,0.6-1,0.8
			c-1.7,0.7-3.7,3.5-5.2,0.9C94.4,133.7,98.2,134.7,98.8,133.1z"/>
		<path class="st118" d="M101.9,134.3c-0.3-0.9-1-1.2-1.9-1.3c2-0.9,4-1.8,6-2.6C106.6,133.8,103.8,133.6,101.9,134.3z"/>
		<path class="st3" d="M64.1,45.4c3.4,1.8,6.3,4.1,8.6,7.3c0.3,1.9,0.6,3.8-1.3,5.1c-1.8,1.2-3.7,0.6-5.3-0.4
			c-2-1.3-3.9-2.9-5.6-4.6c-1.5-1.5-2.8-3.4-1.6-5.6C59.9,45,62.1,45.2,64.1,45.4z"/>
		<path class="st2" d="M56.7,95.3c0.5,2.4-0.9,3.9-2.6,5.2c-5,1.2-9.9,1.3-14-2.6c-0.2-2.4,0.7-4.3,3-4.9c4.1-1.2,8.2-1.5,12.1,1
			C55.8,94.3,56.2,94.8,56.7,95.3z"/>
		<path class="st119" d="M73.4,153.1c1.2,6.4,1.2,6.4-5.1,5.1c-1-2-1.8-4.6-0.4-6.1C69.2,150.7,71.5,152.7,73.4,153.1z"/>
		<path class="st120" d="M81.5,37.9c-1,0.6-1.6,1.3-2.2,1.3c-1.1-0.1-1-1.2-1.1-2c-0.1-0.6,0.2-1.1,1-0.8
			C79.9,36.7,80.5,37.2,81.5,37.9z"/>
		<path class="st113" d="M102.7,46.7c-0.1,0.8-0.5,1.3-1.4,1.3C101.4,47.1,101.8,46.7,102.7,46.7z"/>
		<path class="st113" d="M101.3,48c-0.1,0.9-0.5,1.3-1.4,1.3C100,48.4,100.5,48,101.3,48z"/>
		<path class="st113" d="M101.3,51.9c3.3-2.9,16-3.8,19.4-1.3c-1.6,0-3.3,0.1-4.9,0.1c-3.8-0.3-7.6-0.4-11.2,1.2c-1,0.1-2,0.2-3,0.2
			C101.4,52.1,101.3,52,101.3,51.9z"/>
		<path class="st121" d="M134.6,57.4c-1.1,3.1-5.6,3.9-5.3,7.9l0,0c-0.5,0-0.9,0-1.4-0.1c0-0.8-0.4-1.2-1.2-1.3c0-0.4,0-0.8-0.1-1.2
			c1.1-0.9,2.3-1.7,3.1-2.8c0.9-1.1,3.8-2,0.9-4.1c0-0.4-0.1-0.8-0.1-1.3C132.9,54.1,132.8,57.2,134.6,57.4z"/>
		<path class="st122" d="M130.5,54.7c0,0.4,0.1,0.8,0.1,1.3c-0.1,0.1-0.2,0.1-0.3,0.2c-4.7-1.9-9.3-4.1-14.4-4.9
			c0-0.2-0.1-0.4-0.2-0.5c1.6,0,3.3-0.1,4.9-0.1C123.9,52,127.2,53.3,130.5,54.7z"/>
		<path class="st113" d="M97.2,55.8c0.4-1.4,1.2-2.3,2.7-2.6l0.2,0.2c-0.5,1.3-1.4,2.2-2.7,2.6L97.2,55.8z"/>
		<path class="st121" d="M137.3,58.5c-0.8,0.1-1.3-0.3-1.5-1.2C136.7,57.3,137.2,57.7,137.3,58.5z"/>
		<path class="st113" d="M99.9,53.2c0.5-0.4,0.9-0.8,1.4-1.3c0.1,0.1,0.2,0.2,0.2,0.3c-0.1,0.8-0.7,1.2-1.5,1.2L99.9,53.2z"/>
		<path class="st123" d="M149.8,95.8c-2.1-1.1-4.7-1-6.2-3.2c4.1-2.5-0.7-3.2-1.1-4.6c-2.7-8.1-8.4-13.8-16.1-17.5
			c0.5-0.6,1-1.3,1.5-1.9c1.5-0.9,3.1-1.8,4.6-2.7c0.5,2.2-2.5,2-2.7,3.7c2.2,0.1,4.5,1.3,6.7-0.3c0.2-0.1,0.4-0.1,0.6-0.1
			c-0.3,0.6-0.6,1.2-0.8,1.7c0.6-0.1,1.2-0.3,1.9-0.2c0.6,0,1.2-1.4,1.6-0.1c0.2,0.6-2.3,0.7-0.9,1.8c0.7,0.6,2.1-0.3,2.9-1.1
			c0.2,0,0.4,0,0.6-0.1c0.4,0.2,0.8,0.4,1.2,0.6l-0.3,0l-0.3,0c-1.4,1-3.4,1-4.1,2.9c1.5-0.3,2.9-0.6,4.4-0.9c0.1,0,0.2,0,0.3,0
			c-0.7,0.8-1.4,1.5-2.1,2.3c1-0.2,2.1-0.3,3.1-0.5c0.6-0.1,1.1-0.1,1.7-0.1c-0.7,0.3-1.3,0.7-2,1c-0.9,0.7-1.9,1.4-2.8,2.1
			c0.9,1.1,1.7-0.3,2.6-0.1c0.3,0.1,0.6,0.2,0.9,0.3c-0.3,0.3-0.6,0.6-1,0.8c-0.6,0.4-1.2,0.7-1.8,1.1c0.7,0.8,1.6,0.4,2.4,0.2
			c0.8-0.2,1.7-0.7,2.4,0.2c-0.2,0-0.4,0-0.6,0c-0.7,0.6-2.6,0.4-2.2,1.4c0.5,1.3,1.8,0.3,2.8-0.1c0.7,0,1.3,0,2,0
			c0.2,0.2,0.4,0.5,0.7,0.7c-0.6,0.2-1.3,0.5-1.9,0.7c-0.8,0.1-1.8-0.3-2.1,0.9c0.9,0.1,1.8,0.2,2.8,0.3c0.2,0,0.4,0,0.6,0
			c0.2,0.2,0.5,0.5,0.7,0.7c-1.8,1.5-0.3,1.2,0.7,1.3c1.8,0.2,3.5-1.6,5.3,0c-0.7,0.2-1.5,0.2-2.2,0.5c-0.8,0.4-2.1-0.2-2.4,1.1
			c0.9,0.1,1.8,0.3,2.7,0.4c2.4,0.3,4.8-1.6,7.2,0c-1.3,0.2-2.6,0.5-3.9,0.7c-0.6,0-1.2-0.2-1.6,0c-1.7,0.7-4-0.1-5.3,1.8
			c1.6,0.1,3.3,0.1,4.9,0.2c0.7,0,1.3,0.1,2,0.2c-0.6,0.2-1.2,0.4-1.8,0.5c-1.4,0.4-2.9,0.8-4.3,1.2c1.3,1.4,3.1,0.4,4.6,0.7
			c1.4,0.2,2.9-0.5,4.1,0.6c-1.1,0.1-2.1,0.1-3.2,0.2C154.3,95.4,152.1,95.6,149.8,95.8z"/>
		<path class="st124" d="M147.2,81.2c-0.7-0.9-1.5-0.4-2.4-0.2c-0.8,0.2-1.7,0.6-2.4-0.2c0.6-0.4,1.2-0.7,1.8-1.1
			c0.3-0.2,0.7-0.5,1-0.8c-0.3-0.1-0.6-0.2-0.9-0.3c-0.9-0.2-1.7,1.2-2.6,0.1c0.9-0.7,1.9-1.4,2.8-2.1c3.3,2.3,5.8-0.8,8.6-1.3
			c0.9-0.2,1.7-0.5,2.6-0.7c0.2,0.2,0.4,0.4,0.7,0.6c-0.6,0.3-1.3,0.5-1.9,0.8c-2,1-4.7,0.7-6.1,3c2.5,0.5,4.6-0.6,6.7-1.7
			c0.6,0,1.3,0,1.9-0.1c0.4,0.2,0.9,0.4,1.3,0.6c-1.7,0.5-3.4,1-5.1,1.5C151.3,80,149.2,80.6,147.2,81.2z"/>
		<path class="st125" d="M141.9,71.3c-0.8,0.8-2.1,1.7-2.9,1.1c-1.4-1.1,1.1-1.1,0.9-1.8c-0.4-1.3-1.1,0.1-1.6,0.1
			c-0.6,0-1.2,0.2-1.9,0.2c0.3-0.6,0.6-1.2,0.8-1.7c0.7-0.2,1.9,0,1.3-1.4c1.5-1.4,3.3-2.3,5.3-2.5c0.7,0.6,1.4,1.2,2.1,1.8
			C144.9,68.9,142.1,68.8,141.9,71.3z"/>
		<path class="st126" d="M161.1,83.1c2,0,4.9-2.6,5.6-0.2c0.6,2-3.3,1.5-5.1,1.9c-1.8,0.4-4,1.7-5.9-0.3
			C157.5,84,159.3,83.6,161.1,83.1z"/>
		<path class="st127" d="M153.3,79.3c1.7-0.5,3.4-1,5.1-1.5c1.9,0,4.7-2.9,5.3-0.8c0.6,2.2-3.1,1.9-5,2.5c-1.2,0.4-2.5,0.7-3.7,1.1
			c-0.2,0-0.4,0-0.6,0C153.8,80.4,153.2,80.2,153.3,79.3z"/>
		<path class="st128" d="M157.1,81.2c1.7-0.5,3.4-1,5.1-1.4c1.2-0.3,3-1.4,3.3,0.3c0.4,1.7-1.8,1.3-3,1.7c-1.1,0.4-2.3,0.5-3.4,0.8
			c-0.4,0-0.9,0.1-1.3,0.1c-0.9-0.3-1.8-0.5-2.7-0.8C155.8,81.6,156.4,81.4,157.1,81.2z"/>
		<path class="st129" d="M159.3,86.6c2-0.5,4.1-1,6.1-1.4c0.9-0.2,2.5-1,2.8,0.6c0.4,1.9-1.4,1-2.3,1.4c-0.5,0.2-1,0.4-1.5,0.6
			c-0.6,0-1.3,0-1.9,0C161.4,87.6,159.9,88.2,159.3,86.6z"/>
		<path class="st130" d="M159.3,86.6c0.6,1.6,2.1,1,3.2,1.2c0.2,0.2,0.4,0.4,0.6,0.7c-0.7,0.2-1.4,0.4-2.1,0.6
			c-2.4-1.6-4.8,0.3-7.2,0c-0.9-0.1-1.8-0.3-2.7-0.4c0.4-1.3,1.6-0.7,2.4-1.1c0.7-0.3,1.5-0.3,2.2-0.5C157,87,158.1,86.8,159.3,86.6
			z"/>
		<path class="st131" d="M150.8,73.6c-0.7-0.3-1-0.4-1.3-0.6c1.8-2.5,4.9-2.7,7.3-4.1c0.7-0.4,1.7,0.3,1.5,0.7
			C156.5,72.4,152.8,71.4,150.8,73.6z"/>
		<path class="st132" d="M155.8,74.6c-0.9,0.2-1.7,0.5-2.6,0.7c-0.5-0.3-1.9-0.3-1.3-0.6c2.4-1.6,5-3.1,8.1-3.3
			c0.2,0,0.5,0.8,0.7,1.2C159,73.2,157.4,73.9,155.8,74.6z"/>
		<path class="st133" d="M149.2,69.3c2.3-0.6,4-3.2,6.9-2.3c-1.1,2.8-4.3,2.1-6.2,3.5c-0.9,0.7-2.1,1.3-3.3,0.1
			C147.5,70.2,148.3,69.7,149.2,69.3z"/>
		<path class="st134" d="M157.1,77.2c-0.6,0-1.3,0-1.9,0.1c-0.2-0.4-0.4-0.9-0.6-1.3c0.6-0.3,1.3-0.5,1.9-0.8c2,0.2,5-2.6,5.4-0.9
			C162.6,76.9,158.3,75.4,157.1,77.2z"/>
		<path class="st124" d="M157.8,82.7c0.4,0,0.9-0.1,1.3-0.1c0.6,0.2,1.3,0.4,1.9,0.6c-1.8,0.5-3.5,0.9-5.3,1.4
			c-2,0.5-3.9,0.9-5.9,1.4c-0.2-0.2-0.5-0.5-0.7-0.7C152,84.3,154.9,83.5,157.8,82.7z"/>
		<path class="st124" d="M157.1,81.2c-0.7,0.2-1.4,0.5-2,0.7c-1.8,0.4-3.5,0.9-5.3,1.3c-0.2-0.2-0.4-0.5-0.7-0.7
			c1.8-0.7,3.6-1.3,5.3-2c0.2,0,0.4,0,0.6,0C155.8,80.7,156.4,80.9,157.1,81.2z"/>
		<path class="st125" d="M143.9,73.9c-0.1,0-0.2,0-0.3,0c-1.5,0.3-2.9,0.6-4.4,0.9c0.7-2,2.7-2,4.1-2.9c0.2,0.5,0.5,0.9,0.7,1.4
			C143.9,73.5,143.9,73.7,143.9,73.9L143.9,73.9z"/>
		<path class="st125" d="M149.2,69.3c-0.9,0.4-1.7,0.9-2.6,1.3c-0.9,0.4-1.9,0.8-2.8,1.3c-0.4-0.2-0.8-0.4-1.2-0.6
			C144.7,70.4,146.5,68.4,149.2,69.3z"/>
		<path class="st123" d="M143.9,73.9c0-0.2,0-0.4,0.1-0.7c1-0.2,1.9-0.3,2.9-0.5C146,73.7,145,73.9,143.9,73.9z"/>
		<path class="st123" d="M163.1,88.5c-0.2-0.2-0.4-0.4-0.6-0.7c0.6,0,1.3,0,1.9,0c0,0.2,0,0.4-0.1,0.5
			C164,88.5,163.6,88.5,163.1,88.5z"/>
		<path class="st135" d="M145.9,120.5c-1.7-1.8-4.4,0.7-6-1.3c1.3-3.7,4.4-6.6,5.3-10.6c0.1-0.6,1.8-0.9,2.7-1.4c2,0.2,4,0.4,6,0.6
			c0.6,0,1.3,0,1.9,0.1c-1.4,1.2-3.2,0.4-4.7,0.7c-0.7,0.1-2,0.4-2,0.6c0.1,1.1,1.1,0.6,1.8,0.8c1.6,0.5,3.3,0.9,4.9,1.3
			c-1.1,0-2.2,0-3.3,0c-1.4,0.4-2.8-1.1-4.3-0.2c1.2,1.2,2.7,1.3,4.3,1.4h0c-0.8,0.2-1.6,0.5-2.4,0.7c-0.5,0.1-1.1,0-1.6,0
			c2.3,1.5-2.5,1.8-0.5,3.3c1,0.7,0.2,0.6-0.3,0.7c-1.2,0.3-3.6-0.9-3.4,1.1c0.1,1.6,2.6,1.5,4.2,1.6c0.2,0.2,0.5,0.4,0.7,0.6
			c0,0.2,0,0.5,0,0.7C148.1,120.9,147,120.7,145.9,120.5z"/>
		<path class="st136" d="M165.1,123.1c-3.7,2.6-6.6-1-9.9-1.4c0.4-0.9,0.7-1.9,2-2C159.8,120.8,163.7,119,165.1,123.1z"/>
		<path class="st137" d="M158,117c2.2,0.4,4.7,0.9,7.2,1.3c0.7,0.1,1.4,0.3,1.2,1.2c-0.2,0.9-0.9,0.9-1.6,0.8
			c-3-0.7-5.9-1.5-8.8-2.3c-0.3-0.1-0.4-0.4-0.7-0.6C156.1,117.3,156.9,117.2,158,117z"/>
		<path class="st138" d="M157.2,119.7c-1.2,0.1-1.6,1.1-2,2c-2-0.4-4-0.9-6-1.3c-0.2-0.2-0.5-0.4-0.7-0.6
			C151.3,116.9,154.3,119.5,157.2,119.7z"/>
		<path class="st75" d="M152.5,111.2c1.1,0,2.2,0,3.3,0c2,0.4,4,0.8,6,1.3c-0.2,0.4-0.4,0.8-0.6,1.3c-2.9-0.4-5.8-0.9-8.7-1.3h0
			C152.5,112,152.5,111.6,152.5,111.2z"/>
		<path class="st75" d="M159.9,116.3c-2.5-0.5-5.2-0.5-7.4-2c2.5-1.5,5,0.6,7.5,0.2c0.4-0.1,0.8,0.3,1.2,0.5
			C160.5,115.2,159.9,115.4,159.9,116.3z"/>
		<path class="st139" d="M159.9,116.3c-0.1-0.9,0.6-1.1,1.3-1.2c0.4,0,0.9,0,1.3,0c0.9,2,4.8-1.4,4.6,2.6
			C164.7,117.2,162.3,116.8,159.9,116.3z"/>
		<path class="st140" d="M161.2,113.7c0.2-0.4,0.4-0.8,0.6-1.3c0.9,0,1.7,0.1,2.6,0.1c0.5,0.2,1,0.4,1.5,0.6
			c0.7,0.3,1.8-0.5,2.2,0.8c-0.8,0.2-1.6,0.4-2.4,0.7c-0.4-0.1-0.8-0.1-1.2-0.2c-0.7-0.2-1.4-0.3-2.1-0.5
			C162,113.8,161.6,113.7,161.2,113.7z"/>
		<path class="st75" d="M162.4,113.9c0.7,0.2,1.4,0.3,2.1,0.5C163.8,114.2,163.1,114,162.4,113.9z"/>
		<path class="st141" d="M153.9,107.7c-2-0.2-4-0.4-6-0.6l0,0c0.9-2.4,3-0.9,4.5-1.3c0.8-0.2,1.7-0.2,2.6-0.2
			c-0.9-0.1-1.8-0.2-2.6-0.4c-1-0.2-2.7,0.6-2.7-0.9c0-1.4,1.6-1,2.7-1.1c1.8-0.2,3.7,0.5,5.4-0.6c0.9-0.1,1.8-0.1,2.8-0.2
			c3.3,0.2,6.6,0.4,9.8,0.6c0.5,0.3,0.6,0.5,0,0.8c-4,0-8,0-11.9,0.1c-0.5,0-0.9,0.4-1.4,0.6c0.5,0.2,0.9,0.6,1.4,0.6
			c3.1,0.3,6.1,0.5,9.2,0.8c-3.6,1.2-7.3,0.2-10.9,0.6C155.7,106.6,154.2,105.9,153.9,107.7z"/>
		<path class="st74" d="M164.4,112.5c-0.9,0-1.7-0.1-2.6-0.1c-2-0.4-4-0.9-6-1.3c-1.6-0.4-3.3-0.9-4.9-1.3c-0.6-0.2-1.7,0.4-1.8-0.8
			c0-0.1,1.3-0.4,2-0.6c1.6-0.3,3.3,0.5,4.7-0.7c2.3,0.2,4.5,0.4,6.8,0.5c2.4,0.2,4.8,0.5,7.1,0.7c0.1,0.3,0.3,0.6,0.4,0.9
			c-0.4,0-0.7-0.1-1.1-0.1c-2-0.1-3.9-0.3-5.9-0.4c-1.8-0.1-3.7-0.8-5.3,0.6c1.6,0.4,3.1,0.7,4.7,1c1.7,0.3,3.5,0.5,5.2,0.8
			C166.6,112.1,165.5,112.3,164.4,112.5z"/>
		<path class="st141" d="M148.3,101c0.5-0.4,1-0.8,1.4-1.3c0.3-0.4,0.5-0.9,0.8-1.3c0.7,0,1.3,0,2,0.1c2.6,2.7,5.8,0.8,8.7,1.2
			c3.1,0,6.1,0,9.1,0c0.6,0.3,0.5,0.6,0,1c-0.4,0-0.8-0.1-1.2-0.1c-2.7,0.1-5.4-0.7-8,0.5c-0.2,0-0.4,0-0.6,0
			c-2.2,0.5-4.8-1.4-6.6,1.3C151.9,102.5,149.8,102.9,148.3,101z"/>
		<path class="st142" d="M167.7,105.9c-3.1-0.2-6.2-0.5-9.2-0.8c-0.5,0-0.9-0.4-1.4-0.6c0.5-0.2,0.9-0.6,1.4-0.6c4-0.1,8,0,11.9-0.1
			C170.8,106.2,168.9,105.7,167.7,105.9z"/>
		<path class="st143" d="M170.4,99.7c-3.1,0-6.1,0-9.1,0c-0.5-0.5-1.5-0.8-0.7-1.8c1.1-0.1,2.1-0.1,3.2-0.2c2.2-0.2,4.4-0.3,6.6-0.5
			C170.4,98.1,170.4,98.9,170.4,99.7z"/>
		<path class="st144" d="M167.7,111.9c-1.7-0.3-3.5-0.5-5.2-0.8c-1.6-0.3-3.1-0.7-4.7-1c1.6-1.4,3.5-0.7,5.3-0.6
			c2,0.1,3.9,0.3,5.9,0.4C169.3,111,168.9,111.7,167.7,111.9z"/>
		<path class="st145" d="M169.1,100.6c0.4,0,0.8,0.1,1.2,0.1c0,0.8,0,1.6,0,2.4c-3.3-0.2-6.6-0.4-9.9-0.6c0-0.4,0-0.8,0-1.2
			c0.2,0,0.4,0,0.6,0C163.8,101,166.5,101.7,169.1,100.6z"/>
		<path class="st146" d="M162.5,95.2c2.6-1,5.3-0.6,7.9-0.7c0,0.6,0,1.3,0,1.9c-2.6,0-5.2,0-7.9,0.1C162.5,96,162.5,95.6,162.5,95.2
			z"/>
		<path class="st147" d="M169.7,109.1c-2.4-0.2-4.8-0.5-7.1-0.7C165.1,106.7,167.6,105.6,169.7,109.1z"/>
		<path class="st148" d="M162.5,96.5c2.6,0,5.2,0,7.9-0.1c0.6,0.3,0.5,0.6,0,0.9c-2.2,0.2-4.4,0.3-6.6,0.5c-0.6-0.2-1.3-0.4-1.9-0.6
			C162,96.9,162.3,96.7,162.5,96.5z"/>
		<path class="st149" d="M163,91.8c2.2,0.5,6.1-2.1,6.2,0.4c0.1,2.2-4.3,1.3-6.8,1.5c-0.9,0.1-1.9-0.2-2.8-0.3
			c0.7-0.5,1.5-1,2.2-1.5C162.2,91.8,162.6,91.8,163,91.8z"/>
		<path class="st150" d="M162.5,96.5c-0.2,0.2-0.5,0.5-0.7,0.7c-1.8,0-3.5-0.1-5.3-0.1c0-0.6,0-1.2,0-1.8c1.1-0.1,2.1-0.1,3.2-0.2
			c0.9,0,1.9,0.1,2.8,0.1C162.5,95.6,162.5,96,162.5,96.5z"/>
		<path class="st123" d="M163,91.8c-0.4,0-0.8,0.1-1.2,0.1c-1.1-0.3-2.4,0.4-3.3-0.7c1.3,0,2.6-0.1,3.9-0.1
			C162.6,91.3,162.8,91.5,163,91.8z"/>
		<path class="st151" d="M132.6,65.9c-1.5,0.9-3.1,1.8-4.6,2.7c0.4-1.1,0.9-2.2,1.3-3.3l0,0c0.8-0.9,1.7-1.7,2.3-2.7
			c2.3-3.6,4.8-3.9,7.8-0.8c-0.1,0.1-0.2,0.2-0.3,0.2C136.4,62.4,134.6,64.3,132.6,65.9z"/>
		<path class="st152" d="M143.8,65.3c-2.1,0.2-3.8,1.2-5.3,2.5c-0.7,0.1-1.4,0.2-2.1,0.3c0.4-0.5,0.8-1,1.2-1.4
			c0.7-0.6,1.5-1,2.2-1.5c0.3-0.3,0.5-0.7,0.8-1.1c-0.4,0.1-0.9,0-1.2,0.2c-1.4,0.7-2.5,2.1-4.3,1.8c1.2-1.1,2.4-2.2,3.6-3.3
			c0.2-0.2,0.3-0.5,0.5-0.8c0.1-0.1,0.2-0.2,0.3-0.2C140.9,63,142.4,64.1,143.8,65.3z"/>
		<path class="st153" d="M145.9,120.5c1.1,0.2,2.2,0.4,3.3,0.7c1.1,0.4,2.2,0.9,3.3,1.3c-1.1,0.2-2.9-0.3-2,2
			C149,123.1,144.8,124.9,145.9,120.5z"/>
		<path class="st154" d="M117.4,79.9c-0.6,3.4-2.6,6.4-2.8,10c-0.4,9.2,4.2,16.7,8.5,24.3c4.4,7.8,9.6,15.1,13.3,23.1
			c4.9,10.5,7.6,21.6,2.1,33c-0.8,0.1-1.3,0.5-1.2,1.4c-1.1,1.6-2,3.5-4.1,4.1l0-0.3c0-0.4,0-0.9,0-1.3c8.1-9.6,8.9-23.6,2-34.4
			c-1.1-3.9-3.2-7.4-5.2-10.8c-3.6-6.2-7.2-12.4-10.9-18.6c-6.7-11.1-8-22.5-1.7-34.3c0.9-1.6,1.7-3.2,2.6-4.8
			c0.4-0.7,0.9-1.4,1.3-2.1c0.5-0.6,0.9-1.3,1.4-1.9c0.3-0.3,0.7-0.6,1-0.9c0.1,0.1,0.2,0.2,0.3,0.3c-0.4,3.5-4.3,5.4-4.2,9.1v0
			c-0.9,0.1-1.3,0.6-1.2,1.4c0,0.4-0.1,0.8-0.1,1.2C117.7,78.6,117.3,79.1,117.4,79.9z"/>
		<path class="st155" d="M119.9,75.9c-0.1-3.7,3.8-5.6,4.2-9.1c1.3-0.5,2.1-1.5,2.6-2.8c0.8,0,1.2,0.5,1.2,1.3c-0.6,3.2-4.3,5-4,8.6
			c-0.9,1.4-1.7,2.7-2.6,4.1C121.2,77,121.2,76,119.9,75.9z"/>
		<path class="st155" d="M121.3,78.5c0,3.6,0,7.1-0.1,10.7C119.1,85.7,119.1,82.1,121.3,78.5z"/>
		<path class="st83" d="M133.2,175.8c-0.4,0.4-0.8,0.8-1.2,1.2l-0.1-0.1c0.1-0.8,0.6-1.2,1.4-1.4L133.2,175.8z"/>
		<path class="st155" d="M118.7,77.3c-0.1-0.9,0.3-1.4,1.2-1.4C120,76.7,119.5,77.2,118.7,77.3z"/>
		<path class="st155" d="M117.4,79.9c-0.1-0.9,0.3-1.3,1.2-1.4C118.6,79.3,118.2,79.8,117.4,79.9z"/>
		<path class="st83" d="M137.4,171.6c-0.1-0.9,0.3-1.3,1.2-1.4C138.6,171.1,138.2,171.5,137.4,171.6z"/>
		<path class="st156" d="M101.3,118.3c0-0.4,0-0.9,0-1.3c1.9-1.5,4-0.5,6-0.7c4.1,1.8,5.9,5.5,7.2,9.4c0,0.6,0.1,1.3,0.1,1.9
			c0,1.1,0,2.2,0.1,3.4c0,0.4,0,0.8,0,1.2c-0.7,2.7-1.4,5.4-2.1,8.1c-2.4,4.7-4.7,9.4-7.1,14.1l-0.2-0.2c0-0.5,0-0.9-0.1-1.4
			c0.9-5,4.6-8.8,6-13.6c0.3-1.1,0.5-2.3,0.8-3.5c2.3-4.2,2.2-8.5,0-12.5C109.8,119.1,107.1,115.2,101.3,118.3z"/>
		<path class="st157" d="M115.8,177c-4.7-0.2-11.1-6.6-11.9-12c0-2.9,0-5.8,0-8.8c0.1-0.6,0.1-1.3,0.2-1.9c0.4,0,0.8,0,1.2-0.1
			l0.2,0.2c-2.6,10.9,0.4,16.9,11.3,22.4C116.5,176.9,116.2,176.9,115.8,177z"/>
		<path class="st158" d="M103.9,156.2c0,2.9,0,5.8,0,8.8c-0.4,0-0.8-0.1-1.2-0.1C103.2,162,101.4,158.8,103.9,156.2z"/>
		<path class="st158" d="M105.3,154.3c-0.4,0-0.8,0-1.2,0.1c-0.1-0.9,0.3-1.3,1.2-1.5C105.3,153.3,105.3,153.8,105.3,154.3z"/>
		<path class="st159" d="M90.1,95.1c1.1-1,2.6-0.6,3.8-0.5c2.8,0.2,5.6,0.6,8.1-1.4l0.1,0.1c2.8,1.4,1.3,3.7,1,5.7
			c-0.7,6,1.7,11.3,3.5,16.7c-2.1-0.1-4.1-1.4-6.3-0.6c-0.3,0.1-0.6-0.1-1-0.1c0.3-0.2,0.6-0.3,0.9-0.5c0.8-0.5,2.4-0.3,2.2-1.3
			c-0.3-1.2-1.6-0.3-2.6-0.2c-1.1,0.1-2.2,0-3.2-0.1c1-0.3,2-0.7,3-1c0.6-0.2,1.7,0.3,1.7-0.9c0-0.2-1.1-0.3-1.7-0.5
			c-0.6-0.2-1.2-0.4-1.8-0.7c0.5-0.1,1.3-0.1,1.4-0.5c0.4-0.8-0.4-0.8-0.9-0.8c-0.7-0.1-1.3,0-2-0.1c-1-0.1-2-0.2-3.1-0.3
			c1.1-0.1,2.1-0.3,3.2-0.4c1.2-0.5,2.8,0,3.5-1.5c-1.2-0.2-2.5-0.3-3.7-0.5c-1.2-0.2-2.6,0.4-3.7-0.6c0.6,0,1.3-0.1,1.9-0.1
			c0.4,0,0.9,0.1,1.3,0.1c1.2-0.2,3.2,0.6,3.5-0.9c0.3-1.8-1.7-0.7-2.6-1.1c-0.2-0.1-0.4-0.1-0.6-0.2c0.1-0.1,0.2-0.3,0.3-0.4
			c0.9-0.5,4.5,1.2,1.5-2.3c-0.9-1,0-1.8-2.6-1.8c-0.4,0-0.9,0-1.3-0.1c-0.7-0.9-1.7-0.6-2.7-0.6c-1.3,0-2.7,0-4,0
			c-0.4,0-0.8-0.1-1.3-0.1c0-0.2,0-0.4,0-0.6c2.9,0,5.7,0,8.6-0.1c0.7,0,1.3,0.1,2,0.1c1.2,0.9,2.4,0.8,3.6,0.1
			c0.2-0.1,0.2-0.8,0-0.9c-1.2-0.9-2.5-0.7-3.7-0.1c-0.7-0.1-1.3-0.3-2-0.4C93.3,94.9,91.7,95.2,90.1,95.1z"/>
		<path class="st160" d="M98,109.8c0.6,0.2,1.2,0.5,1.8,0.7c0.6,0.2,1.7,0.3,1.7,0.5c0,1.2-1.1,0.7-1.7,0.9c-1,0.4-2,0.7-3,1
			c1.1,0,2.2,0.2,3.2,0.1c0.9-0.1,2.2-1,2.6,0.2c0.3,1-1.4,0.8-2.2,1.3c-0.3,0.2-0.6,0.3-0.9,0.5c0.3,0.1,0.7,0.2,1,0.1
			c2.2-0.8,4.2,0.5,6.3,0.6c0.2,0.2,0.4,0.5,0.6,0.7c-2,0.2-4.2-0.8-6,0.7c-0.9,0.4-1.9,0.9-2.8,1.3c-3.3,0.5-6.5,1-9.8,1.5
			c0-0.2,0-0.5,0-0.7c1.1-0.3,2.2-0.5,3.2-0.8c0.1,0,0.2,0,0.3,0c2.2-0.5,4.7-0.4,6.4-2.2c-1.9-1.2-3.7,0.6-5.6,0.2
			c-0.4-0.1-0.7-0.4-1.1-0.6c1.5-0.2,3-0.2,4-1.6c-1.5-0.8-2.9-0.2-4.4,0c-1,0.2-2,0.2-2.9,0.2c-0.4-0.2-0.9-0.4-1.3-0.6
			c1.4-0.3,2.8-0.5,4.2-0.8c0.7-0.1,1.7,0.3,1.7-0.9c0-0.1-1.1-0.4-1.7-0.3c-3.2,0.2-6.3,0.4-9.5,0.7c-0.2-0.2-0.4-0.4-0.6-0.5
			c1.7-0.3,3.5-0.6,5.2-0.9c2-0.2,4-0.4,6-0.7C94.4,110.2,96.2,110,98,109.8z"/>
		<path class="st161" d="M82.1,112.5c3.2-0.2,6.3-0.5,9.5-0.7c0.6,0,1.7,0.2,1.7,0.3c0,1.2-1,0.8-1.7,0.9c-1.4,0.3-2.8,0.5-4.2,0.8
			c-1.6,0.2-3.3,0.5-4.9,0.7c-0.8,0.1-2,0.7-2.2-0.5C80,112.8,81.7,113.2,82.1,112.5z"/>
		<path class="st144" d="M88.7,120.4c1.3,0,2.5,0.2,2.6,1.9c-0.6,0.2-1.2,0.5-1.9,0.6c-1.6,0.2-3.1,2-4.9,0.7
			c-0.5-0.4-0.6-1.3-0.8-2C85.4,121.3,87.1,120.8,88.7,120.4z"/>
		<path class="st162" d="M92.7,105.2c1.1,1,2.5,0.5,3.7,0.6c1.2,0.2,2.5,0.3,3.7,0.5c-0.7,1.5-2.3,1-3.5,1.5c-2.1-2.6-5-0.8-7.4-1.2
			c-0.8,0-1.6,0-2.4,0c-2-0.2-4-0.4-6.1-0.6c2-0.1,3.9-0.2,5.9-0.3C88.7,105.5,90.7,105.3,92.7,105.2z"/>
		<path class="st163" d="M86.8,106.6c0.8,0,1.6,0,2.4,0c-2.9,3.3-7,1.3-10.4,2.5c-0.3-3,1.9-1.8,3.3-2
			C83.7,106.8,85.3,106.7,86.8,106.6z"/>
		<path class="st164" d="M92,118.4c-1.1,0.3-2.2,0.5-3.2,0.8c-2.1-0.3-4.1,2.4-6.3,0.2c1.8-1.7,4.2-1.8,6.4-1.5
			C89.8,118,91.5,115.6,92,118.4z"/>
		<path class="st165" d="M88.7,114.5c1-0.1,2-0.1,2.9-0.2c1.5-0.3,2.9-0.8,4.4,0c-1,1.4-2.5,1.4-4,1.6c-1.4,0.2-2.7,0.4-4.1,0.5
			c0-0.4,0-0.8,0.1-1.2C88.3,114.9,88.5,114.7,88.7,114.5z"/>
		<path class="st166" d="M86.6,111c-1.7,0.3-3.5,0.6-5.2,0.9c-0.8-0.2-2,0.2-1.9-1.2c0.1-1,1.1-0.9,1.9-0.9c1.1,0,2.2,0,3.3-0.1
			C85.6,109.8,86.3,110.1,86.6,111z"/>
		<path class="st167" d="M86.6,111c-0.3-0.9-1.1-1.2-1.9-1.3c2.7-0.6,5.4-1.8,7.9,0.6C90.6,110.6,88.6,110.8,86.6,111z"/>
		<path class="st168" d="M88,115.1c0,0.4,0,0.8-0.1,1.2c-1.7,0.4-3.4,0.9-5.1,1.3c-0.7,0.2-1.3,0.1-1.6-0.7
			c-0.4-1.4,0.8-0.9,1.4-1.2c0.9-0.2,1.8-0.3,2.7-0.5C86.3,115.2,87.2,115.2,88,115.1z"/>
		<path class="st165" d="M85.4,115.2c-0.9,0.2-1.8,0.3-2.7,0.5C83.5,114.9,84.5,115.2,85.4,115.2z"/>
		<path class="st169" d="M115.8,177c0.3-0.1,0.7-0.1,1-0.2c5.8,1.3,11.4,1,16.4-2.6c0,0.4,0,0.9,0,1.3c-0.8,0.2-1.3,0.5-1.4,1.4
			c-4.2,1.8-8.7,1.5-13.1,1.4C117.7,178.2,116.3,178.6,115.8,177z"/>
		<path class="st170" d="M100.1,131.1c-0.4-0.9-1.1-1.3-2.1-1.4c0.7-0.3,1.3-0.8,2-0.9c1.9-0.4,5.3-2.2,5.4-1
			C105.5,130.3,102.3,130.5,100.1,131.1z"/>
		<path class="st135" d="M148.3,101c1.5,1.9,3.6,1.5,5.6,1.4c1.3,0,2.6,0.1,3.9,0.1c-1.7,1.1-3.6,0.3-5.4,0.6
			c-1,0.1-2.7-0.2-2.7,1.1c0,1.5,1.7,0.7,2.7,0.9c0.9,0.2,1.7,0.3,2.6,0.4c-0.9,0.1-1.7,0-2.6,0.2c-1.5,0.4-3.6-1.1-4.5,1.3
			c-1.2-0.2-2.3-0.5-3.5-0.7C145.2,104.3,146.2,102.3,148.3,101z"/>
		<path class="st171" d="M126.4,70.5c7.7,3.7,13.4,9.4,16.1,17.5c0.5,1.4,5.3,2.1,1.1,4.6c-0.9-0.6-1.7-1.4-1.9-2.5
			c-1-1.4-2.1-1.2-3.2-0.1c-1.8,3.7-4.6,6.7-7.3,9.7c-2.5,2.7-3.5,1.8-4.9-1c-4-7.7-5.8-15.5-2.3-23.8
			C124.8,73.4,125.6,72,126.4,70.5z"/>
		<path class="st172" d="M126.4,70.5c-0.8,1.5-1.6,2.9-2.4,4.4c-0.1-0.3-0.1-0.7-0.2-1c-0.3-3.6,3.4-5.4,4-8.6c0.5,0,0.9,0,1.4,0.1
			c-0.4,1.1-0.9,2.2-1.3,3.3C127.4,69.2,126.9,69.9,126.4,70.5z"/>
		<path class="st173" d="M156.5,95.3c0,0.6,0,1.2,0,1.8c-1.9,0.8-4.5-1.4-6,1.4c-0.3,0.4-0.5,0.9-0.8,1.3c0-1.3,0.1-2.6,0.1-4
			C152.1,95.6,154.3,95.4,156.5,95.3z"/>
		<path class="st123" d="M138.6,89.9c1.1-1.1,2.2-1.2,3.2,0.1C140.7,90,139.6,90,138.6,89.9z"/>
		<path class="st174" d="M141.2,105.2c0.5,0,0.9,0,1.4,0c-0.3,0.3-0.6,0.7-0.9,1C141.5,105.9,141.3,105.5,141.2,105.2z"/>
		<path class="st174" d="M142.6,105.2c0-0.9,0.4-1.3,1.3-1.4C143.9,104.6,143.5,105.1,142.6,105.2z"/>
		<path class="st159" d="M120,71.3c-0.9,1.6-1.7,3.2-2.6,4.8c-0.8-1.2-1.4-0.4-2.1,0.1c-4.8,3.6-7.8,8.4-9.9,13.9
			c-0.6,1.6-1.1,3.2-3.2,3.2l-0.1-0.1c0-0.3,0-0.5,0-0.8c0.2-0.6,0.5-1.3,0.7-1.9c4-1-4-5,1.4-5.7c-3.3-1.8,0-1.1,0.4-1.8
			c1.7-2.9,4.9-4.4,6.4-7.2c1.3-2.4,4.5-2.2,5.6-4.6C117.8,67.9,118.9,70.2,120,71.3z"/>
		<path class="st162" d="M95.3,98.5c2.6,0,1.7,0.7,2.6,1.8c3,3.5-0.6,1.8-1.5,2.3c-0.1,0.1-0.2,0.2-0.3,0.4c0.2,0.1,0.4,0.1,0.6,0.2
			c0.9,0.4,2.9-0.7,2.6,1.1c-0.2,1.5-2.2,0.7-3.5,0.9c-0.4,0.1-0.9,0-1.3-0.1c-2.3-2.6-5.3-0.7-8-1.2c-2.8,0-5.6,0-8.4,0.1
			c-0.3-0.2-0.5-0.5-0.8-0.7c0.2-0.1,0.5-0.1,0.7-0.2c4.3-0.2,8.5-0.4,12.8-0.7c0.4,0,0.8-0.3,1.2-0.4c-0.3-0.2-0.6-0.7-0.9-0.7
			c-4.4,0.3-8.8-1.8-13.3-0.2c-0.2,0-0.3,0-0.5-0.1c0-0.4,0-0.8,0-1.2c0.3-0.1,0.5-0.1,0.8-0.2c2.8,0,5.6,0,8.4,0
			C89.6,99.4,92.8,101.1,95.3,98.5z"/>
		<path class="st175" d="M90.1,95.1c1.5,0.1,3.2-0.2,4.5,0.8c0,0.4,0,0.8,0,1.2c-2.9,0-5.7,0-8.6,0.1c-0.7,0-1.3,0-2,0
			c-1.4-1.3-3.3-0.3-4.8-0.8c0.2-0.6,0.4-1.2,0.7-1.8C83.3,94.8,86.7,94.9,90.1,95.1z"/>
		<path class="st176" d="M85.4,93.8c-2.3-0.4-6.3,0.7-6.1-1.7c0.1-2.2,3.9-0.4,6-0.2c1.9,0.2,3.8,0.8,5.6,1.2
			C89.2,94.6,87.2,93.3,85.4,93.8z"/>
		<path class="st177" d="M102.7,90.5c-0.2,0.6-0.5,1.3-0.7,1.9c-2.6,0.4-4.1-1.4-5.9-2.7c-0.2-0.2-0.5-0.4-0.7-0.6
			c-0.2-0.4-0.5-0.9-0.7-1.3c0.1,0,0.2,0,0.3,0c2.2-0.1,4.1,3.7,5.4,2.1c1.3-1.5-2.8-2.6-3.2-4.8l0.1-0.1
			C99.2,86.9,102.7,87,102.7,90.5z"/>
		<path class="st178" d="M90.7,91.1c-3.2-0.3-6.3-0.6-9.5-1c-0.6-0.1-1.8,0-1.5-1.2c0.3-0.9,1.1-1,1.9-0.8c2.2,0.4,4.3,0.8,6.5,1.1
			c0.6,0.1,1.2,0.1,1.9,0.2C90.2,89.9,90.4,90.5,90.7,91.1z"/>
		<path class="st126" d="M91.9,85.3c-2.9-0.4-5.8-0.8-8.7-1.3c-0.7-0.1-1.8,0.1-1.4-1.2c0.3-0.9,1.1-0.9,1.9-0.7
			c2.5,0.6,5.1,1.2,7.6,1.8C91.5,84.3,91.7,84.8,91.9,85.3z"/>
		<path class="st179" d="M78.3,103.9c2.8,0,5.6,0,8.4-0.1c0,0.6,0,1.2,0,1.8c-2,0.1-3.9,0.2-5.9,0.3
			C79.5,105.8,77.8,106.2,78.3,103.9z"/>
		<path class="st180" d="M94.7,87.9c0.2,0.4,0.5,0.9,0.7,1.3c-1.8-0.2-3.5-0.5-5.3-0.7c-2.2-0.4-4.5-0.8-6.7-1.2
			c1.4-0.2,2.8-0.5,4.1-0.7c1.6-1,3.7,2.2,5.2-0.5l0.3,0l0.3,0.1c0,0.1,0.1,0.3,0.2,0.4C93.9,87,94.3,87.4,94.7,87.9L94.7,87.9z"/>
		<path class="st181" d="M90.6,82.6c-1.9-0.4-3.8-0.7-5.7-1.2c-0.7-0.2-2.1,0.2-1.8-1.2c0.3-1.3,1.5-1,2.5-0.8
			c1.5,0.3,2.9,0.7,4.4,1.1C90.2,81.2,90.4,81.9,90.6,82.6z"/>
		<path class="st182" d="M87.5,86.5c-1.4,0.2-2.8,0.5-4.1,0.7c-0.9-0.4-2.7,0.5-2.4-1.3c0.2-1.5,1.9-0.8,2.8-0.6
			C85,85.5,86.3,86.1,87.5,86.5z"/>
		<path class="st183" d="M90.6,82.6c-0.2-0.7-0.4-1.4-0.7-2.1c-0.2-0.4-0.4-0.8-0.6-1.3c0-0.7,0-1.4,0-2.1c1.3,3,2.6,6,3.9,9L93,86
			l-0.3,0c-0.3-0.2-0.5-0.5-0.8-0.7c-0.2-0.5-0.4-1-0.6-1.5C91.1,83.4,90.8,83,90.6,82.6z"/>
		<path class="st184" d="M90.7,91.1c-0.2-0.6-0.5-1.2-0.7-1.8c2,0.4,4,0.8,6.1,1.2C94.4,92.5,92.6,92.1,90.7,91.1z"/>
		<path class="st185" d="M89.4,77.1c0,0.7,0,1.4,0,2.1c-0.5-0.1-1.2,0-1.6-0.3c-1-0.5-3-0.1-2.7-1.7c0.3-1.5,1.8-0.3,2.8-0.3
			c0.3,0,0.6-0.7,0.9-1c0.2,0,0.4,0,0.6,0.1C89.4,76.4,89.4,76.8,89.4,77.1z"/>
		<path class="st186" d="M79.2,96.4c1.6,0.6,3.4-0.5,4.8,0.8c0,0.2,0,0.4,0,0.6c-1.6,1.7-5.4-3.5-5.8,1.9c-0.3,0.1-0.5,0.1-0.8,0.2
			c0.1-1.3-0.7-3,1.5-3.5C79,96.4,79.2,96.4,79.2,96.4z"/>
		<path class="st187" d="M96,90.5c-2-0.4-4-0.8-6.1-1.2c-0.6-0.1-1.2-0.1-1.9-0.2c0.7-0.2,1.3-0.5,2-0.7c1.8,0.2,3.5,0.5,5.3,0.7
			c0.2,0.2,0.5,0.4,0.7,0.6C96.1,90,96,90.3,96,90.5z"/>
		<path class="st4" d="M79.2,96.4l-0.3,0c-0.2-0.9-0.2-1.6,1-1.8C79.7,95.2,79.5,95.8,79.2,96.4z"/>
		<path class="st186" d="M77.5,101.1c0.2,0,0.3,0.1,0.5,0.1c0.1,0.6,0.1,1.3,0.2,1.9c-0.2,0.1-0.5,0.1-0.7,0.2
			C77.5,102.5,77.5,101.8,77.5,101.1z"/>
		<path class="st188" d="M92,67.2c0-0.7,0-1.3,0.1-2c0.4,0,0.8-0.1,1.3-0.1c0,1.4,0,2.7-0.1,4.1c0.1,0.2,0.1,0.4,0.2,0.5
			c-0.2,0.7-0.4,1.4-0.6,2.1c0,0.2,0,0.3,0.1,0.5c0,1.2-0.6,2.4,0.4,3.5c0,0.9,0,1.7,0.1,2.6l-0.1,0.1C90.6,75.1,92.7,71,92,67.2z"
			/>
		<path class="st188" d="M97.3,85.3c-2.7-1.4-4.3-3.4-4-6.6l0.1-0.1c0.2,0.1,0.4,0.1,0.6,0.1l0,0c0.5,1.1,0.9,2.2,1.4,3.3
			c0.7,1.1,1.4,2.2,2.1,3.2L97.3,85.3z"/>
		<path class="st183" d="M94.7,87.9c-0.4-0.5-0.8-0.9-1.2-1.4C94.4,86.5,94.7,87,94.7,87.9z"/>
		<path class="st189" d="M100,53.3c0.8,0,1.3-0.3,1.5-1.2c1-0.1,2-0.2,3-0.2c-0.6,1-2.4,0.4-2.5,2c2,3.5,0.4,5.3-2.8,6.7
			c-1.8,0.8-3.4,2.2-5.1,3.4c-0.2-0.1-0.4-0.1-0.5,0l-0.3-0.1c0.1-0.4,0.2-0.9,0.2-1.3c0.8-0.1,1.2-0.6,1.1-1.4c0-0.4,0-0.9,0-1.3
			c0.9-1.3,1.8-2.6,2.8-4C98.7,55.5,99.5,54.6,100,53.3z"/>
		<path class="st112" d="M94.6,59.9c0,0.4,0,0.9,0,1.3c-0.4,0-0.8,0.1-1.2,0.1C93.4,60.5,93.7,60,94.6,59.9z"/>
		<path class="st188" d="M93.4,61.4c0.4,0,0.8-0.1,1.2-0.1c0.1,0.8-0.2,1.3-1.1,1.4C93.5,62.2,93.4,61.8,93.4,61.4z"/>
		<path class="st112" d="M93.3,65.2c-0.4,0-0.8,0-1.3,0.1c0-0.8,0.4-1.3,1.2-1.3l0.3,0.1C93.5,64.4,93.4,64.8,93.3,65.2z"/>
		<path class="st190" d="M102,54c0.1-1.6,1.9-1,2.5-2c3.6-1.6,7.4-1.5,11.3-1.2c0.1,0.2,0.2,0.4,0.2,0.5c-1.6,0-3.2,0-4.8,0
			c-3.4,0.1-3.4,0.1,0.2,3.9c0.1,3.2,3.4,5.4,2.6,8.8c-2.7-1.6-5.3-3.2-8-4.8C104.6,57.5,103.3,55.7,102,54z"/>
		<path class="st191" d="M130.7,55.9c2.9,2-0.1,2.9-0.9,4.1c-0.8,1.1-2.1,1.9-3.1,2.8l-0.1-0.2c0.7-2.5,4.2-3.3,3.9-6.4
			C130.5,56.1,130.6,56,130.7,55.9z"/>
		<path class="st154" d="M126.7,64c-0.5,1.3-1.3,2.2-2.6,2.8c-0.1-0.1-0.2-0.2-0.3-0.3c0.9-1.3,1.9-2.6,2.8-3.9l0.1,0.2
			C126.7,63.2,126.7,63.6,126.7,64z"/>
		<path class="st192" d="M126.5,62.5c-0.9,1.3-1.9,2.6-2.8,3.9c-0.3,0.3-0.7,0.6-1,0.9c-2.2,0.9-2.1-1.3-2.4-2.1
			c-1.7-4.5-4.8-7.7-8.9-10c-3.6-3.9-3.6-3.9-0.2-3.9c1.6,0,3.2,0,4.8,0c5.1,0.8,9.7,2.9,14.4,4.9C130.7,59.2,127.2,60,126.5,62.5z"
			/>
		<path class="st193" d="M139.1,62c-0.2,0.3-0.3,0.6-0.5,0.8c-1.2,1.1-2.4,2.2-3.6,3.3c1.8,0.2,2.9-1.1,4.3-1.8
			c0.3-0.2,0.8-0.1,1.2-0.2c-0.3,0.4-0.4,0.8-0.8,1.1c-0.7,0.6-1.5,1-2.2,1.5c-0.5,0.4-0.8,0.9-1.2,1.4c0.7-0.1,1.4-0.2,2.1-0.3
			c0.7,1.4-0.5,1.2-1.3,1.4c-0.2,0-0.5,0-0.6,0.1c-2.2,1.5-4.5,0.4-6.7,0.3c0.2-1.8,3.2-1.5,2.7-3.7C134.6,64.3,136.4,62.4,139.1,62
			z"/>
		<path class="st73" d="M149.8,83.2c1.8-0.4,3.5-0.9,5.3-1.3c0.9,0.3,1.8,0.5,2.7,0.8c-2.9,0.8-5.8,1.7-8.7,2.5c-0.2,0-0.4,0-0.6,0
			c-0.2-0.4-0.4-0.8-0.7-1.3C148.5,83.7,149.2,83.4,149.8,83.2z"/>
		<path class="st73" d="M154.5,80.5c-1.8,0.7-3.6,1.3-5.3,2c-0.7,0-1.3,0-2,0c-0.2-0.4-0.4-0.9-0.6-1.3c0.2,0,0.4,0,0.6,0
			c2-0.6,4.1-1.3,6.1-1.9C153.2,80.2,153.8,80.4,154.5,80.5z"/>
		<path class="st124" d="M146.6,81.2c0.2,0.4,0.4,0.9,0.6,1.3c-1,0.4-2.3,1.4-2.8,0.1C144,81.7,145.9,81.8,146.6,81.2z"/>
		<path class="st124" d="M147.9,83.9c0.2,0.4,0.4,0.8,0.7,1.3c-0.9-0.1-1.8-0.2-2.8-0.3C146.1,83.6,147.1,84,147.9,83.9z"/>
		<path class="st194" d="M154.6,76c0.2,0.4,0.4,0.9,0.6,1.3c-2.1,1.1-4.2,2.2-6.7,1.7C149.9,76.7,152.5,77,154.6,76z"/>
		<path class="st74" d="M152.5,111.2c0,0.4,0,0.8,0,1.2c-1.6-0.1-3.1-0.2-4.3-1.4C149.7,110.1,151.1,111.5,152.5,111.2z"/>
		<path class="st75" d="M157.8,102.6c-1.3,0-2.6-0.1-3.9-0.1c1.8-2.6,4.4-0.8,6.6-1.3c0,0.4,0,0.8,0,1.2
			C159.6,102.5,158.7,102.5,157.8,102.6z"/>
		<path class="st173" d="M160.5,97.9c-0.8,1,0.2,1.3,0.7,1.8c-2.9-0.4-6.1,1.5-8.7-1.2C155.2,98.3,157.9,98.1,160.5,97.9z"/>
		<path class="st123" d="M160.5,97.9c-2.7,0.2-5.3,0.4-8,0.6c-0.7,0-1.3,0-2-0.1c1.4-2.8,4.1-0.6,6-1.4c1.8,0,3.5,0.1,5.3,0.1
			c0.6,0.2,1.3,0.4,1.9,0.6C162.7,97.8,161.6,97.9,160.5,97.9z"/>
		<path class="st75" d="M169.1,100.6c-2.6,1.1-5.3,0.4-8,0.5C163.7,99.9,166.5,100.7,169.1,100.6z"/>
		<path class="st0" d="M102.2,93.3c2.1,0,2.6-1.6,3.2-3.2c2.1-5.5,5.2-10.3,9.9-13.9c0.7-0.5,1.4-1.3,2.1-0.1
			c-6.4,11.8-5.1,23.1,1.7,34.3c3.7,6.2,7.3,12.4,10.9,18.6c-0.7,4.8,2.9,7.5,5.2,10.8c6.9,10.8,6.1,24.9-2,34.4
			c-5,3.6-10.6,3.9-16.4,2.6c-10.9-5.4-13.9-11.5-11.3-22.4c2.4-4.7,4.7-9.4,7.1-14.1c3.5-1.9,4.1-6,6.5-8.7c0.4-3.5-2-4.8-4.6-5.9
			c-1.3-3.9-3.1-7.6-7.2-9.4c-0.2-0.2-0.4-0.5-0.6-0.7c-1.8-5.4-4.2-10.8-3.5-16.7C103.4,96.9,105,94.7,102.2,93.3z"/>
		<path class="st195" d="M106,59.2c2.7,1.6,5.3,3.2,8,4.8c2.4,1.8,4.9,3.5,7.3,5.3c-0.4,0.7-0.9,1.4-1.3,2.1
			c-1.1-1.2-2.2-3.4-3.5-0.2c-1,2.4-4.2,2.2-5.6,4.6c-1.5,2.8-4.7,4.3-6.4,7.2c-0.4,0.7-3.8,0.1-0.4,1.8c-5.4,0.7,2.6,4.7-1.4,5.7
			c0-3.5-3.4-3.6-5.3-5.3c-0.7-1.1-1.4-2.2-2.1-3.2c0.5-0.7,1.1-0.3,1.7-0.3c1.5,0.2,3,0.2,4.5,0.2c-0.8-1.8-2.7-1.1-4-1.8
			c-1.1-0.6-2.4-1-3.7-1.4l0,0c0.7-0.8,1.4-0.3,2.1-0.2c2,0.4,3.9,1.6,6,1.2c-0.9-2.1-3.6-1.4-4.7-3c2,0.5,4,0.9,6.1,1.4
			c0.5,0.1,1.3,0.9,1.6-0.2c0.1-0.3-0.6-0.8-1-1.1c-0.7-0.4-1.7-0.2-1.8-1.3c0.7,0.1,1.5,0.2,2.2,0.3c1,0.2,2.1,0.4,3.1,0.5
			c-0.6-0.5-1.3-1.1-1.9-1.6c-0.1-0.1-0.2-0.3-0.2-0.5c0.4,0,0.8-0.1,1.3-0.1c0.7,0,1.4,0.2,2.2,0.3c-0.1-1.2-1.2-1.2-1.9-1.5
			c-1.1-0.6-2.4-1-3.6-1.4c-0.6-0.4-1.3-0.9-1.9-1.3c0.2-0.2,0.5-0.5,0.7-0.7c0.7,0.2,1.3,0.5,2,0.7c1.4,0.8,2.8,1.7,4.3,2.3
			c0.6,0.3,1.4,0.1,2.1,0.2c-0.4-0.4-0.9-0.9-1.3-1.3c-0.6-0.6-1.8-0.4-1.8-1.6c0.8,0.2,1.7,0.2,2.4,0.6c1.7,1,1.9-2.4,3.6-1.1
			c0.1-0.3,0.2-0.8,0.2-0.8c-1.2-0.7-1.9-2.6-3.9-1.7c-0.6-0.6-1.1-1.3-1.7-1.9c0.3-0.3,0.5-0.5,0.8-0.8c0.4,0.3,0.8,0.5,1.3,0.8
			c1.4,1.1,2.9,2.1,4.8,2.3c-0.6-1.7-2.3-2.1-3.5-2.9c-1.7-1.3-3.5-2.7-5.2-4C106,59.7,106,59.5,106,59.2z"/>
		<path class="st196" d="M121.3,69.3c-2.4-1.8-4.9-3.5-7.3-5.3c0.8-3.4-2.6-5.6-2.6-8.8c4.1,2.3,7.2,5.5,8.9,10
			c0.3,0.9,0.2,3,2.4,2.1C122.2,68,121.8,68.6,121.3,69.3z"/>
		<path class="st197" d="M135.2,139.8c-2.4-3.3-5.9-6-5.2-10.8C132.1,132.4,134.1,135.8,135.2,139.8z"/>
		<path class="st198" d="M119.1,131.7c-2.4,2.7-3,6.8-6.5,8.7c0.7-2.7,1.4-5.4,2.1-8.1C116.3,133,117.3,129.3,119.1,131.7z"/>
		<path class="st199" d="M119.1,131.7c-1.9-2.4-2.8,1.4-4.4,0.7c0-0.4,0-0.8,0-1.2c0.8-1.1,0.7-2.3-0.1-3.4c0-0.6-0.1-1.3-0.1-1.9
			C117.1,126.9,119.5,128.2,119.1,131.7z"/>
		<path class="st198" d="M114.7,127.7c0.8,1.1,0.9,2.2,0.1,3.4C114.7,130,114.7,128.8,114.7,127.7z"/>
		<path class="st179" d="M78.3,99.7c0.4-5.4,4.2-0.2,5.8-1.9c0.7,0,1.3,0,2,0c0.4,0,0.8,0.1,1.3,0.1c-0.2,0.6-0.5,1.2-0.7,1.8
			C83.9,99.7,81.1,99.7,78.3,99.7z"/>
		<path class="st200" d="M86.7,99.7c0.2-0.6,0.5-1.2,0.7-1.8c1.3,0,2.7,0,4,0c0.9,0.2,1.8,0.4,2.7,0.6c0.4,0,0.9,0,1.3,0.1
			C92.8,101.1,89.6,99.4,86.7,99.7z"/>
		<path class="st201" d="M86.6,105.7c0-0.6,0-1.2,0-1.8c2.6,0.5,5.7-1.4,8,1.2c-0.6,0-1.3,0.1-1.9,0.1
			C90.7,105.3,88.7,105.5,86.6,105.7z"/>
		<path class="st162" d="M96.7,96.3c1.3-0.6,2.5-0.7,3.7,0.1c0.1,0.1,0.1,0.8,0,0.9c-1.2,0.8-2.5,0.8-3.6-0.1
			C96.7,96.9,96.7,96.6,96.7,96.3z"/>
		<path class="st111" d="M96.7,96.3c0,0.3,0,0.6,0,0.9c-0.7,0-1.3-0.1-2-0.1c0-0.4,0-0.8,0-1.2C95.3,96,96,96.1,96.7,96.3z"/>
		<path class="st162" d="M94,98.5c-0.9-0.2-1.8-0.4-2.7-0.6C92.3,97.8,93.3,97.6,94,98.5z"/>
		<path class="st162" d="M86.1,97.8c-0.7,0-1.3,0-2,0c0-0.2,0-0.4,0-0.6c0.7,0,1.3,0,2,0C86.1,97.4,86.1,97.6,86.1,97.8z"/>
		<path class="st202" d="M78.2,103c-0.1-0.6-0.1-1.3-0.2-1.9c4.4-1.6,8.8,0.5,13.3,0.2c0.3,0,0.6,0.4,0.9,0.7
			c-0.4,0.1-0.8,0.4-1.2,0.4C86.7,102.6,82.5,102.8,78.2,103z"/>
		<path class="st203" d="M103.3,71.3c1.2,0.5,2.5,0.8,3.6,1.4c0.7,0.4,1.8,0.4,1.9,1.5c-0.7-0.1-1.4-0.2-2.2-0.3
			c-0.4,0-0.8,0.1-1.3,0.1c0.1,0.2,0.1,0.4,0.2,0.5c0.6,0.6,1.2,1.1,1.9,1.6c-1-0.2-2.1-0.4-3.1-0.5c-0.7-0.1-1.5-0.2-2.2-0.3
			c0.2,1.1,1.2,0.9,1.8,1.3c0.4,0.2,1.1,0.8,1,1.1c-0.3,1.1-1,0.3-1.6,0.2c-2-0.4-4-0.9-6.1-1.4l0,0c0-0.2,0-0.5,0-0.7
			c0.4-0.1,1,0,1.2-0.2c0.6-0.7-0.2-0.9-0.6-1c-1.7-0.8-3.4-1.5-5.1-2.2c-0.1-0.1-0.1-0.3-0.1-0.5c0.5,0,1.1-0.1,1.6-0.1
			c2,0,3.6,2.1,5.8,1.4c-1.9-1.8-4.3-2.9-6.9-3.4c-0.1-0.2-0.1-0.4-0.2-0.5c1.2-1.2,2.2,0,3.3,0.3C98.8,70.2,100.7,71.8,103.3,71.3z
			"/>
		<path class="st204" d="M97.3,76.6c1.2,1.7,3.9,0.9,4.7,3c-2.2,0.4-4-0.7-6-1.2c-0.7-0.2-1.5-0.6-2.1,0.2c-0.2,0-0.4,0-0.6-0.1
			c0-0.9,0-1.7-0.1-2.6c0.1-0.6,0.2-1.4,1.1-1.2c0.4,0.1,0.6,0.7,0.9,1.1C96,76.1,96.7,76.3,97.3,76.6L97.3,76.6z"/>
		<path class="st205" d="M103.3,71.3c-2.5,0.5-4.5-1.1-6.7-1.7c-1-0.3-2.1-1.5-3.3-0.3c0-1.4,0-2.7,0.1-4.1c0.1-0.4,0.2-0.8,0.2-1.2
			c0.2,0,0.4,0,0.5,0c0.1,4.9,4.6,4.2,7.2,5.9C102,70.4,102.6,70.8,103.3,71.3z"/>
		<path class="st205" d="M93.4,69.9c2.6,0.5,4.9,1.6,6.9,3.4c-2.2,0.7-3.8-1.4-5.8-1.4c-0.5,0-1.1,0.1-1.6,0.1
			C93,71.3,93.2,70.6,93.4,69.9z"/>
		<path class="st205" d="M95.3,75.8c-0.3-0.4-0.6-1-0.9-1.1c-0.9-0.2-1,0.6-1.1,1.2c-1-1.1-0.4-2.3-0.4-3.5c1.7,0.7,3.4,1.4,5.1,2.2
			c0.4,0.2,1.2,0.3,0.6,1c-0.2,0.2-0.8,0.2-1.2,0.2C96.7,75.9,96,75.8,95.3,75.8z"/>
		<path class="st206" d="M94,78.6c1.2,0.5,2.5,0.8,3.7,1.4c1.3,0.7,3.2,0.1,4,1.8c-1.5-0.1-3-0.1-4.5-0.2c-0.6-0.1-1.3-0.5-1.7,0.3
			C94.9,80.8,94.4,79.7,94,78.6z"/>
		<path class="st207" d="M101.3,69.9c-2.6-1.7-7.2-1.1-7.2-5.9c1.7-1.1,3.3-2.6,5.1-3.4c3.2-1.4,4.8-3.2,2.8-6.7
			c1.3,1.8,2.7,3.5,4,5.3c0,0.2,0,0.5,0,0.7c-0.8-0.2-1.8-1.3-2.3-0.2c-0.6,1.1,0.8,1.3,1.5,1.8c1.2,0.8,2.4,1.6,3.6,2.3
			c-0.3,0.3-0.5,0.5-0.8,0.8c-1.8-1.2-3.7-2.4-5.6-3.5c-0.5-0.3-1.4-0.3-1.7,0c-0.7,0.8,0.2,1.1,0.7,1.4c2.8,1.4,5.5,2.7,8.3,4
			c1.9-0.9,2.6,1,3.9,1.7c0.1,0-0.1,0.5-0.2,0.8c-1.7-1.4-2,2.1-3.6,1.1c-0.7-0.4-1.6-0.4-2.4-0.6c0,1.2,1.2,1,1.8,1.6
			c0.4,0.4,0.9,0.9,1.3,1.3c-0.7,0-1.5,0.1-2.1-0.2c-1.5-0.7-2.9-1.5-4.3-2.3c-0.8-3.3-4.3-3.2-6.4-4.9c-0.7-0.5-1.9-1-2.4-0.1
			c-0.6,1.2,0.9,1.2,1.5,1.6c1.7,1,3.5,1.8,5.3,2.7C101.8,69.5,101.6,69.7,101.3,69.9z M99.1,62.6c-1,0.2-2,0.6-1.2,1.1
			c2.2,1.4,4.6,2.4,7,3.4c0.5,0.2,0.7-0.5,0.3-0.8C103.1,65,101,63.7,99.1,62.6z"/>
		<path class="st208" d="M102,69.2c-1.8-0.9-3.6-1.7-5.3-2.7c-0.6-0.4-2.1-0.4-1.5-1.6c0.4-0.9,1.7-0.5,2.4,0.1
			c2.1,1.7,5.6,1.5,6.4,4.9C103.3,69.7,102.7,69.5,102,69.2z"/>
		<path class="st209" d="M109.6,66.6c-2.8-1.3-5.5-2.6-8.3-4c-0.5-0.3-1.4-0.6-0.7-1.4c0.3-0.3,1.3-0.3,1.7,0
			c1.9,1.1,3.7,2.3,5.6,3.5C108.5,65.3,109.1,66,109.6,66.6z"/>
		<path class="st210" d="M108.7,63.9c-1.2-0.8-2.4-1.5-3.6-2.3c-0.7-0.5-2-0.7-1.5-1.8c0.6-1.1,1.5,0,2.3,0.2c1.7,1.3,3.5,2.7,5.2,4
			c-0.4,0.2-0.8,0.4-1.2,0.7C109.5,64.4,109.1,64.1,108.7,63.9z"/>
		<path class="st207" d="M110,64.7c0.4-0.2,0.8-0.4,1.2-0.7c1.3,0.8,3,1.2,3.5,2.9C112.9,66.8,111.4,65.8,110,64.7z"/>
		<path class="st195" d="M95.3,75.8c0.7,0,1.3,0.1,2,0.1c0,0.2,0,0.5,0,0.7C96.7,76.3,96,76.1,95.3,75.8z"/>
		<path class="st211" d="M99.1,62.6c1.9,1.1,4,2.4,6.1,3.7c0.4,0.3,0.3,1-0.3,0.8c-2.4-1-4.8-2-7-3.4C97,63.2,98.1,62.7,99.1,62.6z"
			/>
	</g>
</g>
</svg>
