<?xml version="1.0" encoding="utf-8"?>
<!-- Generator: Adobe Illustrator 25.2.1, SVG Export Plug-In . SVG Version: 6.00 Build 0)  -->
<svg version="1.1" id="Camada_1" xmlns="http://www.w3.org/2000/svg" xmlns:xlink="http://www.w3.org/1999/xlink" x="0px" y="0px"
	 viewBox="0 0 653.86 380.18" style="enable-background:new 0 0 653.86 380.18;" xml:space="preserve">
<style type="text/css">
	.st0{fill:#3B644B;}
	.st1{fill:#1F7D58;}
	.st2{fill:#3E4241;}
	.st3{fill:#3E4341;}
	.st4{fill:#3F4442;}
	.st5{fill:#3C644C;}
	.st6{fill:#3F4342;}
	.st7{fill:#404543;}
	.st8{fill:#414644;}
	.st9{fill:#414544;}
	.st10{fill:#3E664D;}
	.st11{fill:#474B4A;}
	.st12{fill:#424644;}
	.st13{fill:#565A58;}
	.st14{fill:#535755;}
	.st15{fill:#849D8E;}
	.st16{fill:#97AB9F;}
	.st17{fill:#8DA496;}
	.st18{fill:#FEFEFE;}
	.st19{fill:#FDFDFD;}
	.st20{fill:#FCFCFC;}
	.st21{fill:#F6F6F6;}
</style>
<g>
	<path class="st0" d="M641.87,219.04c0.55-2.52-0.89-4.73-1.19-7.13c-0.4-3.14,2.71-8.4,5.75-8.42c1.74-0.01,2.65,1.57,3.44,3.14
		c3.72,7.44,3.5,15.51,3.9,23.49c-1.08,1.93,0,4.11-0.72,6.07c-1.41,5.73-2.29,11.57-3.91,17.28
		c-4.71,16.63-16.79,26.14-31.58,32.55c-25.19,10.92-52.11,15.21-79.06,19.1c-3.23,0.47-6.47,0.88-9.71,1.31
		c-1.6,0.74-3.47-0.32-5.02,0.76c-1.33,0.08-2.65,0.16-3.98,0.24c-1.66,0.7-3.54-0.25-5.16,0.72c-1.61,0.08-3.22,0.17-4.84,0.25
		c-1.96,0.83-4.17-0.34-6.09,0.77c-1.98,0.1-3.96,0.21-5.93,0.31c-2,0.63-4.18-0.34-6.14,0.66c-2.28,0.1-4.57,0.2-6.85,0.31
		c-2.62,0.78-5.43-0.46-8.01,0.74c-2.66,0.09-5.32,0.18-7.98,0.26c-3.05,0.75-6.23-0.38-9.25,0.67c-3.58,0.09-7.16,0.18-10.73,0.27
		c-4.64,0.97-9.41-0.51-14.03,0.79c-5.33,0.09-10.66,0.17-15.98,0.26c-7.34,0.84-14.75-0.5-22.07,0.72
		c-10.64,0.09-21.28,0.17-31.91,0.26c-12.9,0.62-25.81,0.08-38.71,0.29c-1.79,0.03-3.64-0.45-5.37,0.45c-12.25,0-24.5,0-36.75,0
		c-6.66-1.19-13.39,0.08-20.06-0.69c-3.95-0.11-7.9-0.22-11.86-0.34c-2.98-1.14-6.16,0.14-9.16-0.75c-2.28-0.08-4.56-0.17-6.84-0.25
		c-1.96-1.02-4.15,0-6.15-0.69c-1.95-0.1-3.9-0.2-5.85-0.31c-1.62-0.97-3.5-0.03-5.16-0.72c-14.91-0.96-29.68-3.21-44.23-6.34
		c-26.84-5.78-53.07-13.69-76.12-29.23c-19.18-12.93-33.27-30.22-38.99-52.98c-1.43-5.7-4.29-7.97-8.73-10.28
		c-14.15-7.35-25.63-17.35-31.04-32.98c-1.53-4.42-3.19-8.86-0.88-13.54c2.97-0.58,5.94-0.39,8.91-0.09
		c2.61,1.62,3.36,4.2,4.12,7.01c3.14,11.61,9.81,20.91,19.79,27.52c10.08,6.68,20.05,3.96,28.69-3.29
		c8.99-7.54,13.44-17.93,18.23-28.13c1.08-2.3,2.32-4.36,5.06-4.81c4.85-0.78,6.98,1.67,6.34,6.5c-2.9,21.9-16.8,34.73-35.71,43.28
		c-2.56,1.16-2.6,2.54-2.52,4.56c0.42,11.2,5.97,20.12,13.1,28.1c17.95,20.09,41.01,31.98,66.4,39.39
		c38.5,11.24,77.99,16.38,118.04,17.56c45.62,1.35,91.26,1.1,136.88,0.26c51.97-0.96,103.71-5.25,155.02-13.79
		c17.6-2.93,34.9-7.21,51.17-14.8c16.28-7.6,27.42-19.18,28.38-38.24c0.1-1.94,1.84-3.59,1.05-5.69
		C642.59,227.3,642.59,223.17,641.87,219.04z"/>
	<path class="st0" d="M152.09,101.23c-0.08,2.66-0.16,5.32-0.24,7.98c-1.22,2.93,0.08,6.06-0.76,9.02
		c-0.08,2.66-0.16,5.32-0.24,7.98c-0.6,1.28-0.93,2.74-2.93,2.56c-3.67-0.33-7.4,0.53-11.04-0.51c0.02-2.6,0.04-5.2,0.05-7.8
		c1.12-2.64-0.12-5.5,0.75-8.16c0.08-2.3,0.15-4.61,0.23-6.91c1.18-2.61-0.12-5.45,0.77-8.09c0.08-2.3,0.15-4.61,0.23-6.91
		c1.18-2.61-0.12-5.45,0.77-8.09c0.07-2.32,0.14-4.65,0.21-6.97c1.2-2.58-0.07-5.4,0.76-8.02c0.08-2.33,0.16-4.65,0.24-6.98
		c1.2-2.58-0.07-5.4,0.76-8.02c0.1-2.58,0.2-5.16,0.3-7.74c0.99-2.35-0.03-4.88,0.67-7.25c0.11-2.58,0.22-5.16,0.33-7.75
		c0.99-2.35-0.03-4.88,0.67-7.25c0.1-2.56,0.21-5.12,0.31-7.68c6.28-1.58,12.59-1.01,18.91-0.28c6.15,18.74,12.41,37.44,18.39,56.24
		c3.67,11.51,6.9,23.16,10.37,34.86c2.5-0.64,1.4-3.08,1.8-4.48c4.33-15.44,9.18-30.7,14.73-45.76
		c4.53-12.29,8.68-24.72,12.79-37.16c0.53-1.6,1.49-2.82,2.13-4.28c4.48,0.03,8.98,0.28,13.43-0.07c3.98-0.31,5.49,1.05,4.89,4.96
		c-0.15,0.96-0.15,1.99,0.4,2.9c0.11,2.92,0.22,5.83,0.33,8.75c0.73,2.71-0.35,5.57,0.67,8.25c0.11,2.92,0.22,5.83,0.33,8.75
		c0.73,2.71-0.35,5.57,0.67,8.25c0.12,2.92,0.24,5.84,0.36,8.76c0.69,2.68-0.41,5.5,0.66,8.14c0.11,2.95,0.22,5.9,0.34,8.86
		c0.69,2.68-0.41,5.5,0.66,8.14c0.11,2.95,0.22,5.9,0.34,8.86c0.69,2.68-0.41,5.5,0.66,8.14c0.08,2.61,0.17,5.22,0.25,7.83
		c0.91,2.97-0.43,6.14,0.77,9.09c0,1.59,0.01,3.17,0.01,4.76c-4.65,1.05-9.3,0.88-13.96,0.07c-0.07-0.33-0.15-0.66-0.22-1
		c-0.83-3,0.41-6.17-0.72-9.15c-0.08-2.94-0.17-5.89-0.25-8.83c-0.92-3.29,0.45-6.76-0.79-10.03c-0.09-2.99-0.17-5.99-0.26-8.98
		c-0.77-2.98,0.43-6.12-0.72-9.07c-0.1-3.31-0.21-6.62-0.31-9.93c-0.7-3.35,0.42-6.82-0.66-10.14c-0.09-4.28-0.19-8.56-0.28-12.84
		c-0.61-4.18-0.06-8.4-0.31-12.58c-0.05-0.84,0.86-2.43-1.2-2.31c-5.03,14.94-9.41,30.09-14.78,44.93
		c-5.85,16.17-11.03,32.59-16.51,48.9c-3.99,0.79-7.97,1.22-11.92-0.19c-6.41-20.19-12.68-40.42-19.3-60.54
		c-3.38-10.27-6.34-20.64-8.9-31.13c-0.29-0.33-0.52-0.7-0.68-1.11c-0.13-0.39-0.05-0.81-0.23-1.2c0.04,0.49,0,0.98-0.07,1.49
		c-0.78,2.21-0.06,4.53-0.6,6.74c-0.1,4.33-0.2,8.66-0.29,12.99c-1.22,3.6,0.05,7.37-0.71,11c-0.1,3.31-0.21,6.62-0.31,9.93
		c-1.18,2.95,0.09,6.1-0.74,9.08c-0.08,2.66-0.16,5.32-0.24,7.98C151.64,95.13,152.94,98.27,152.09,101.23z"/>
	<path class="st0" d="M604.87,127.68c0.13-1.81,0.38-3.62,0.38-5.43c0.02-35.98,0.08-71.96-0.07-107.94
		c-0.02-3.89,0.92-5.26,4.92-4.95c4.47,0.34,8.99,0.02,13.48-0.02c1.34,1.42,0.68,3.18,0.68,4.76c0.04,36.45,0.04,72.91,0.03,109.36
		c0,5.27-0.03,5.49-5.49,5.21C614.16,128.43,609.36,129.99,604.87,127.68z"/>
	<path class="st0" d="M94.95,11.35c6.48,2.21,13.35,3.1,19.55,6.28c9.7,4.99,13.79,13.29,14.6,23.68c0.41,1.64,0.41,3.28,0,4.92
		c-1.36,14.48-5.47,28.48-7.54,42.85c-3.01,20.88-8.69,41.33-10.17,62.47c-0.16,2.34-0.53,4.62-3.39,5.39
		c-4.35,1.17-7.1-1.4-5.84-6.04c2.34-8.6,3.44-17.42,5.03-26.16c2.63-14.47,4.9-29.02,8.01-43.39c2.33-10.75,6.02-21.28,6.07-32.38
		c0.08-18.64-8.95-25.98-25.58-29.17c-4.98-0.96-9.73,0.83-14.67,0.26c-6.23-0.72-8.96-5.09-6.28-10.95
		c0.27-0.6,0.52-1.26,0.95-1.73c2.09-2.31,1.99-6.83,6.19-6.93c4.28-0.1,10.43,5.25,11.85,9.72C93.66,10.32,94.27,11.2,94.95,11.35z
		"/>
	<path class="st0" d="M422.85,128.22c0-26.8,0.07-53.59-0.1-80.39c-0.02-3.73,0.87-5.02,4.64-4.62c3.29,0.35,6.67,0.31,9.97,0.01
		c3.56-0.33,4.41,0.97,4.39,4.43c-0.15,24.8-0.08,49.6-0.08,74.4c0,2,0.07,3.99,0.1,5.99C435.48,129.32,429.17,128.95,422.85,128.22
		z"/>
	<path class="st0" d="M35.89,17.08c-5.68,3.01-11.78,4.98-17.7,7.37c-5.95,2.4-9.09,7.89-9.41,14.6c-0.68,14.2,2.02,28.02,4.6,41.86
		c4.5,24.13,8.93,48.28,13.35,72.43c0.25,1.38,0.81,3.2-1.5,3.5c-2.58,0.33-5.24,1.12-6.95-2.05c-1.61-2.98-1.45-6.34-1.98-9.43
		c-3.25-18.99-6.95-37.92-9.98-56.92C3.73,72.3-0.66,56.3,0.08,39.64C0.54,29.55,7.12,18.79,18.72,15.7
		c5.3-1.41,10.62-2.86,15.25-6.02C36.75,11.59,37.25,14.1,35.89,17.08z"/>
	<path class="st1" d="M387.74,146.23c-7.36,7.86-14.91,15.55-22,23.64c-3.26,3.71-6.67,5.53-11.62,4.99
		c-3.43-0.37-6.92-0.07-11.4-0.07c7.03-10.81,15.15-19.82,22.15-29.63c7.16-0.86,14.34-0.2,21.51-0.36
		C387.29,144.79,387.97,145.1,387.74,146.23z"/>
	<path class="st0" d="M432.26,30.28c-8.56,0.01-12.63-3.81-12.4-11.65c0.22-7.45,4.55-12.02,11.25-11.87
		c8.75,0.19,12.63,3.72,12.72,11.59C443.93,26.54,440.31,30.27,432.26,30.28z"/>
	<path class="st2" d="M453.93,368.73c0.35-0.78,0.63-1.85-0.09-2.26c-1.21-0.71-1.16,0.75-1.38,1.3c-1.27,3.19-2.61,6.37-3.53,9.67
		c-0.45,1.59-0.57,2.77-2.63,2.81c-1.95,0.04-2.72-1.34-3.17-2.61c-1.41-4-2.53-8.1-4.07-13.16c-0.34,4.1-1.04,7.12-0.35,10.22
		c-0.87,1.74,0.21,3.8-0.91,5.49c-4.33,0.54-5.32-1.14-4.35-5.36c1.05-4.58,1.52-9.36,1.6-14.06c0.04-2.35,0.41-3.72,2.74-3.49
		c1.87,0.19,4.67-1.69,5.2,2.51c0.46,3.65,2.12,7.15,3.52,11.56c2.58-4.2,3.93-8.08,4.42-11.95c0.53-4.11,3.17-1.65,4.75-2.12
		c1.83-0.54,2.98,0.17,3.06,2.55c0.18,5.47,0.81,10.93,1.02,16.4c0.05,1.43,1.33,3.74-1.97,4.04c-3.24,0.29-3.03-1.58-2.98-3.66
		c0.01-0.49-0.16-0.98-0.24-1.47C454,373.04,454.78,370.81,453.93,368.73z"/>
	<path class="st3" d="M383.3,369.13c0-7.79,4.01-12.37,10.9-12.47c6.22-0.08,11.03,4.8,11.18,11.33
		c0.18,7.94-4.62,12.67-12.94,12.76C386.7,380.82,383.3,376.49,383.3,369.13z"/>
	<path class="st3" d="M288.7,356.67c6.6,2.24,9.9,7.12,9.04,13.35c-0.84,6.02-4.98,10.42-10.59,10.66
		c-6.88,0.3-10.03-1.58-12.2-10.36c-1.08-4.37,3.69-11.7,8.16-13.09c0.62-0.19,1.17-0.6,1.75-0.9
		C286.24,355.24,287.57,354.86,288.7,356.67z"/>
	<path class="st4" d="M103.99,359.73c0.22-2,1.26-2.79,3.33-2.54c2.56,0.31,1.49,2.21,1.51,3.43c0.11,5.32,0.12,10.65,0,15.98
		c-0.03,1.24,1.02,3.2-1.33,3.57c-1.69,0.27-3.32,0.06-4.39-1.61c-2.45-3.8-4.92-7.58-7.83-12.04c-1.6,3.85-0.1,7.09-0.55,10.18
		c-0.21,1.48,0.72,3.47-2.11,3.55c-2.77,0.08-2.28-1.76-2.28-3.35c-0.02-5.46-0.05-10.92,0.03-16.38c0.02-1.16-0.79-3.04,1.25-3.2
		c1.59-0.12,3.35-0.89,4.61,1.56c1.87,3.64,4.48,6.89,6.77,10.31c2.16,0.47,1.35-1.25,1.35-2.05
		C104.33,364.66,104.77,362.16,103.99,359.73z"/>
	<path class="st5" d="M35.89,17.08c-0.32-2.55-0.8-5.05-1.92-7.39c2.31-5.85,7.7-7.39,12.87-9.35c2.4-0.91,3.47,0.12,3.94,2.11
		c1.12,4.79,2.02,9.63,3.12,14.42c0.58,2.51-0.55,3.08-2.79,3.29C45.7,20.65,41.07,17.55,35.89,17.08z"/>
	<path class="st3" d="M643.02,371.17c-1.8,5.12-4.49,8.93-10.59,9.68c-5.4,0.67-8.18-2.33-10.57-6.13
		c-2.05-3.27-1.01-11.53,1.87-14.75c3.05-3.4,7.08-3.7,11.32-2.78c4.42,0.96,6.53,4.13,7.93,8.04
		C643.48,367.21,643.43,369.19,643.02,371.17z"/>
	<path class="st2" d="M69.16,371.16c-1.91,5.23-4.69,9.11-11.02,9.72c-4.46,0.43-7.06-1.74-9.43-4.64
		c-2.71-3.32-2.2-11.99,0.95-15.99c3.17-4.02,7.65-4.01,12.07-2.93c4.04,0.99,6.12,4.17,7.4,7.93
		C69.53,367.21,69.47,369.18,69.16,371.16z"/>
	<path class="st3" d="M520.87,380.48c-1.45-0.38-3.19,0.04-3.05-2.69c0.3-5.98,0.13-11.98,0.13-17.97c0-0.94-0.38-1.92,0.82-2.55
		c6.13-3.19,16.85,1.81,18.01,8.44c1.26,7.14-2.31,12.4-10.01,14.77C524.81,380.8,522.84,380.8,520.87,380.48z"/>
	<path class="st3" d="M336.91,379.73c-3.72,1.33-5.79,0.26-6.67-3.12c-0.37-1.42-0.84-2.82-2.12-3.78
		c-1.03-0.78-1.86-2.07-3.41-1.51c-1.8,0.65-0.79,2.26-0.98,3.44c-0.15,0.97-0.03,1.99,0.06,2.98c0.15,1.53-0.08,2.6-2.02,2.48
		c-1.49-0.09-2.99,0.25-2.96-2.13c0.09-6.31,0.03-12.62,0.04-18.92c0-0.83,0.04-1.9,1.09-1.86c4.1,0.14,8.37-1.14,12.26,0.87
		c4.07,2.1,3.59,6.86-1.17,10.45C334.07,371.66,335.38,375.6,336.91,379.73z"/>
	<path class="st6" d="M166.91,357.21c3.9-0.72,5.47,0.84,4.82,4.78c-0.6,3.64-0.32,7.3,0.11,10.94c0.26,2.26,1.65,4.05,3.68,4.05
		c1.89-0.01,3.76-0.88,4.6-3.5c1.36-4.27,0.69-8.49,0.76-12.74c0.03-1.72-0.62-3.73,2.49-3.61c2.64,0.1,2.36,1.69,2.35,3.35
		c-0.01,3.16,0.14,6.34-0.04,9.49c-0.43,7.49-3.35,10.51-10.16,10.77c-6.16,0.24-7.7-1.43-8.84-9.58
		C166.35,366.51,165.93,361.85,166.91,357.21z"/>
	<path class="st3" d="M143.85,357.06c1.63,2.64,0.75,3.91-2.21,3.96c-1.32,0.02-2.64-0.17-3.96-0.09c-1.19,0.07-2.4,0.49-2.65,1.84
		c-0.25,1.38,0.77,2.01,1.91,2.49c1.81,0.77,3.67,1.47,5.36,2.46c2.87,1.68,4.04,4.39,3.47,7.59c-0.52,2.9-2.55,4.33-5.46,5.03
		c-2.66,0.64-5.3,0.11-7.92,0.52c-1.77,0.28-2.39-0.67-2.3-2.28c0.11-1.85,1-2.73,2.92-2.21c0.95,0.26,1.93,0.8,2.85,0.73
		c1.96-0.16,4.31-0.45,4.91-2.61c0.63-2.27-2.02-2.14-3.22-3.01c-1.01-0.73-2.29-1.11-3.46-1.62c-3.63-1.56-4.15-4.65-3.83-8.03
		c0.31-3.34,2.88-4.28,5.65-4.9C138.58,356.66,141.22,356.45,143.85,357.06z"/>
	<path class="st4" d="M481.98,368.69c0-0.5,0-1,0-1.49c0-10.7,1.21-11.69,11.83-10.03c1.39,0.22,2.05,0.52,2.04,2.05
		c-0.01,1.53-0.62,2.08-2.06,2c-1.49-0.08-2.99-0.06-4.47-0.17c-1.81-0.13-2.68,0.42-2.7,2.46c-0.02,2.1,0.56,3.16,2.8,2.86
		c0.33-0.04,0.68-0.07,0.99,0.01c1.47,0.37,4.09-1.29,3.91,2.04c-0.15,2.83-2.35,1.49-3.77,1.68c-1.12,0.15-2.62-0.16-3.27,0.46
		c-1.13,1.07-0.33,2.81-0.38,4.25c-0.06,1.78,1.37,1.53,2.48,1.53c1.33,0.01,2.66-0.21,3.97-0.11c1.42,0.11,3.54-0.92,3.5,2.01
		c-0.04,2.93-2.19,1.89-3.57,1.93C481.98,380.54,481.98,380.51,481.98,368.69z"/>
	<path class="st7" d="M599.78,357.04c1.47,2.98,0.63,4.14-2.77,4.14c-5.44,0-7.63,2.28-7.64,7.35c0,5.32,2.48,7.68,7.83,7.91
		c1.38,0.06,3.85-1.78,4.15,1.41c0.3,3.18-2.47,2.56-4.15,2.85c-7.98,1.35-11.87-3.3-12.96-9.14c-1.33-7.11,2.5-12.89,9.62-14.61
		C595.84,356.66,597.82,356.5,599.78,357.04z"/>
	<path class="st4" d="M25.86,357.03c1.39,2.88,0.78,4.16-2.7,4.16c-5.49,0-7.73,2.32-7.7,7.33c0.03,5.16,2.75,7.72,8.01,7.9
		c1.41,0.05,3.92-1.67,4.09,1.57c0.14,2.81-2.36,2.42-3.93,2.66c-6.64,1.03-12.5-2.65-13.49-8.26c-1.35-7.64,2.47-13.66,9.81-15.47
		C21.92,356.65,23.9,356.51,25.86,357.03z"/>
	<path class="st8" d="M250.76,378.66c-0.79,2.2-2.7,1.72-4.19,1.43c-2.18-0.43-1.17-2.42-1.22-3.7c-0.14-3.8-0.2-7.61,0-11.4
		c0.15-2.87-0.51-4.46-3.77-3.91c-1.27,0.22-2.64,0.47-2.75-1.66c-0.13-2.3,1.24-2.25,2.82-2.23c3.97,0.03,7.94-0.04,11.9,0.04
		c1.28,0.03,3.12-0.73,3.18,1.82c0.06,2.38-1.4,2.11-2.94,2.07c-0.97-0.02-1.95,0.19-2.92,0.29
		C249.97,367.15,250.15,372.91,250.76,378.66z"/>
	<path class="st9" d="M207.9,357.21c3.73-0.58,5.33,0.46,4.66,4.72c-0.59,3.72,0.26,7.65-0.26,11.39c-0.44,3.14,0.96,3.19,3.15,3.04
		c1.15-0.08,2.31-0.15,3.47-0.15c1.42,0.01,3.03-0.42,3,2.04c-0.03,2.51-1.74,1.93-3.09,1.95c-3.64,0.05-7.28,0.01-10.93,0
		C207.05,372.53,207.05,364.87,207.9,357.21z"/>
	<path class="st10" d="M641.88,193.27c1.51,0.26,3.37-1.65,4.52,1.04c0.93,2.18,2.01,4.04,0.09,6.28c-1.78,2.07-3.92,3.68-6.34,4.68
		c-1.9,0.78-4.01,2.68-6.23-0.03c-2.28-2.79-1.99-4.94,0.75-7.06c0.78-0.6,1.41-1.41,2.11-2.12
		C637.76,193.83,639.98,193.83,641.88,193.27z"/>
	<path class="st11" d="M362.73,378.63c-0.9,2.49-3.04,1.74-4.62,1.41c-1.87-0.39-0.78-2.22-0.8-3.35
		c-0.13-4.95,0.26-9.93-0.14-14.84c-0.4-4.96,1.53-5.71,5.58-4.03C362.06,364.76,362.08,371.7,362.73,378.63z"/>
	<path class="st12" d="M563.04,363.17c-0.01,3.35-0.02,6.71-0.03,10.06c0.31,2.33,0.71,4.67-0.22,6.96
		c-3.88,0.71-5.36-0.79-4.88-4.77c0.54-4.46,0.69-8.98,0.03-13.44c-0.59-3.98,0.97-5.48,4.85-4.77
		C563.68,359.16,563.35,361.17,563.04,363.17z"/>
	<path class="st13" d="M285.73,354.23c2.44-4.09,2.44-4.09,7.32-3.5c-0.64,2.28-2.92,3.08-4.18,4.74
		C287.64,355.5,286.04,356.49,285.73,354.23z"/>
	<path class="st14" d="M487.55,354.26c2.11-3.98,2.11-3.98,7-3.7c-0.2,2.48-2.54,3.29-3.79,4.92
		C489.51,355.57,487.97,356.39,487.55,354.26z"/>
	<path class="st15" d="M334.8,68.22c0.41,2.19,0.02,4.23-1.23,6.29c-1.56-1.3,0.61-3.13-0.66-4.33
		C334.23,70.2,333.98,68.69,334.8,68.22z"/>
	<path class="st16" d="M523.88,109.31c-0.25-1.37,0.5-2.33,1.28-3.52c1.11,1.22,0.6,2.42,0.59,3.54
		C525.12,109.33,524.5,109.32,523.88,109.31z"/>
	<path class="st17" d="M156.81,34.35c-0.58-0.29-1.17-0.58-1.75-0.86c0-1.09,0-2.19,0-3.49C156.65,31.23,157.06,32.66,156.81,34.35z
		"/>
	<path class="st18" d="M604.87,127.68c5.72,1.58,11.55,0.51,17.32,0.65c2.74,0.07,1.73-2.4,1.73-3.8
		c0.07-15.13,0.05-30.26,0.05-45.4c0-21.28,0.01-42.57-0.02-63.85c0-1.98-0.24-3.96-0.38-5.94c1.99,1.28,1.2,3.3,1.2,5.01
		c0.05,36.56-0.03,73.12,0.12,109.68c0.02,4.13-1.12,5.69-5.3,5.3c-3.46-0.32-6.98-0.01-10.46-0.09
		C607.58,129.2,605.68,129.85,604.87,127.68z"/>
	<path class="st18" d="M582.89,127.95c15.08,2.33,15.08,2.33,15.08-12.41c0-15.74,0.02-31.49,0.03-47.23c1.2,1.24,0.8,2.81,0.8,4.26
		c0.02,17.26-0.11,34.51,0.1,51.77c0.05,4.02-1.24,5.54-5.1,4.92C590.19,128.67,586.27,130.6,582.89,127.95z"/>
	<path class="st18" d="M274.24,94.28c3.03-1.18,6.19-0.49,9.28-0.51c14.74-0.09,29.49-0.06,44.23-0.01c1.6,0.01,3.31-0.53,4.82,0.51
		C313.13,94.27,293.69,94.27,274.24,94.28z"/>
	<path class="st18" d="M343.76,246.53c-1.02-8.78-0.26-17.59-0.43-26.38c-0.2-10.3-0.25-20.61-0.36-30.91
		c1.12,1.05,0.88,2.42,0.87,3.72C343.83,210.82,343.79,228.67,343.76,246.53z"/>
	<path class="st18" d="M320.73,315.18c14.68-0.87,29.38-0.84,44.08-0.74c-1.26,1.16-2.82,0.77-4.27,0.77
		C347.27,315.21,334,315.19,320.73,315.18z"/>
	<path class="st18" d="M318.73,189.23c0,8.36,0,16.72,0,26.53c-0.85-2.4-1.24-3.49-1.63-4.58c1.68-5.34,0.27-10.83,0.76-16.23
		C318.04,193.04,317.2,190.95,318.73,189.23z"/>
	<path class="st18" d="M161.87,252.27c-0.76-0.01-1.35,0.38-1.34,1.11c0.1,8.27-0.75,16.56,0.47,24.82
		c-2.07-1.88-1.01-4.34-1.07-6.52c-0.16-5.76-0.1-11.52-0.02-17.28C159.93,253.33,159.17,251.08,161.87,252.27z"/>
	<path class="st18" d="M241.78,21.58c-1.36-7.75-1.36-7.75-9.37-7.76c-3.11,0-6.23-0.02-9.34-0.04c5.39-1.13,10.83-0.24,16.24-0.47
		c1.94-0.08,2.59,1.06,2.55,2.82C241.81,17.95,241.8,19.77,241.78,21.58z"/>
	<path class="st18" d="M387.74,146.23c-1.14-2.23-3.19-1.03-4.76-1.07c-6.04-0.15-12.08-0.02-18.12,0
		c7.54-1.94,15.19-0.64,22.78-0.66C388.75,144.5,388.49,145.59,387.74,146.23z"/>
	<path class="st18" d="M240.39,179.18c1.21-8.28,0.65-16.58,0.32-24.88c2.58,5.54,0.78,11.37,1.03,17.06
		C241.86,173.9,243.32,177.03,240.39,179.18z"/>
	<path class="st18" d="M207.9,357.21c0,7.66,0,15.32,0,22.98C206.22,372.53,206.22,364.87,207.9,357.21z"/>
	<path class="st18" d="M396.72,314.18c7.34-0.82,14.7-0.88,22.07-0.72C411.48,315.15,404.07,313.8,396.72,314.18z"/>
	<path class="st18" d="M362.73,378.63c-1.14-6.94-1.13-13.87,0.01-20.81C362.74,364.76,362.74,371.7,362.73,378.63z"/>
	<path class="st18" d="M263.92,314.49c6.7-0.12,13.39-0.1,20.06,0.69C277.3,314.82,270.56,316.12,263.92,314.49z"/>
	<path class="st18" d="M162.86,14.38c-6.31-0.71-12.63-1.22-18.91,0.27C150.22,12.3,156.53,12.74,162.86,14.38z"/>
	<path class="st18" d="M524.55,97.27c-4.22,1.18-8.52,0.26-12.78,0.53c-1.78,0.11-3.71-0.35-4.93,1.53
		c0.28-2.49,2.19-2.04,3.78-2.05C515.27,97.25,519.91,97.27,524.55,97.27z"/>
	<path class="st18" d="M219.81,149.98c-6.3,0.03-12.61,0.06-18.91,0.08C207.2,148.67,213.51,148.83,219.81,149.98z"/>
	<path class="st18" d="M228.14,33.34c0.16-0.44,0.19-1.1,0.51-1.29c1.27-0.77,0.72,0.48,0.73,0.82c0.12,5.12,0.19,10.24,0.27,15.37
		c-1.59-3.11-0.43-6.44-0.79-9.65C228.67,36.83,229.38,34.95,228.14,33.34z"/>
	<path class="st18" d="M422.85,128.22c6.31,0.22,12.63,0.56,18.93-0.19C435.49,130.12,429.17,129.81,422.85,128.22z"/>
	<path class="st18" d="M572.78,42.09c-6.31-0.02-12.61-0.04-18.92-0.05C560.17,40.81,566.48,40.71,572.78,42.09z"/>
	<path class="st18" d="M496.77,42.01c-5.97,0.03-11.94,0.06-17.91,0.09C484.83,40.75,490.8,40.87,496.77,42.01z"/>
	<path class="st18" d="M302.8,42.01c-5.63,0.01-11.27,0.02-16.9,0.03C291.53,40.77,297.17,40.82,302.8,42.01z"/>
	<path class="st18" d="M250.76,378.66c-1-5.76-1.4-11.52,0.11-17.26C250.83,367.16,250.79,372.91,250.76,378.66z"/>
	<path class="st18" d="M136.89,128.26c3.42,0.05,6.85,0.02,10.26,0.2c1.87,0.1,3.13-0.42,3.71-2.26c0.02,1.57-0.14,3.04-2.22,3.03
		c-3.89-0.03-7.78-0.09-11.67-0.16c-0.08,0-0.21-0.22-0.22-0.35C136.73,128.57,136.83,128.41,136.89,128.26z"/>
	<path class="st18" d="M579.58,243.18c0.17-5.3,0.34-10.59,0.5-15.89C581.04,232.62,581.83,237.95,579.58,243.18z"/>
	<path class="st18" d="M375.8,42.04c-4.97-0.01-9.93-0.02-14.9-0.03C365.87,40.83,370.84,40.78,375.8,42.04z"/>
	<path class="st18" d="M397.9,128.53c4.96-0.17,9.93-0.34,14.89-0.5C407.9,130.4,402.89,129.36,397.9,128.53z"/>
	<path class="st18" d="M233.87,128.22c4.65-0.02,9.31-0.05,13.96-0.07C243.19,129.99,238.54,129.87,233.87,128.22z"/>
	<path class="st18" d="M434.78,313.2c4.64-0.9,9.33-0.85,14.03-0.79C444.21,314.09,439.45,312.85,434.78,313.2z"/>
	<path class="st18" d="M166.91,357.21c-0.08,4.65-0.15,9.31-0.23,13.96C165.48,366.5,165.14,361.84,166.91,357.21z"/>
	<path class="st18" d="M103.99,359.73c1.44,3.26,0.43,6.7,0.7,10.05c0.04,0.53,0.23,1.56-0.54,1.38c-0.51-0.12-0.77-1.28-1.14-1.97
		C104.8,366.18,103.41,362.85,103.99,359.73z"/>
	<path class="st18" d="M184.93,126.98c3.95,1.26,7.93,0.96,11.92,0.19C192.85,128.82,188.87,129.14,184.93,126.98z"/>
	<path class="st18" d="M641.87,219.04c1.2,4.13,1.03,8.26,0,12.39C641.87,227.3,641.87,223.17,641.87,219.04z"/>
	<path class="st18" d="M204.75,171.21c4.1-1.29,8.21-1.08,12.31-0.02C212.96,171.19,208.85,171.2,204.75,171.21z"/>
	<path class="st18" d="M154.15,65.22c-0.15-3.69-0.18-7.38,0.71-11C154.51,57.88,155.71,61.64,154.15,65.22z"/>
	<path class="st18" d="M229.93,61.08c0.77,3.34,0.91,6.73,0.66,10.14C229.14,67.92,230.13,64.46,229.93,61.08z"/>
	<path class="st18" d="M231.89,99.21c0.98,3.29,0.82,6.66,0.79,10.03C231.04,106,232.21,102.54,231.89,99.21z"/>
	<path class="st18" d="M153.09,84.23c-0.1-3.06-0.1-6.1,0.74-9.08C153.55,78.18,154.69,81.32,153.09,84.23z"/>
	<path class="st18" d="M242.9,313.4c3.08-0.08,6.15-0.07,9.16,0.75C249.01,313.9,245.84,315.05,242.9,313.4z"/>
	<path class="st18" d="M152.09,101.23c-0.09-3.04-0.12-6.07,0.76-9.02C152.53,95.21,153.7,98.34,152.09,101.23z"/>
	<path class="st18" d="M27.84,165.99c-2.97,0.03-5.94,0.06-8.91,0.09C21.89,164.74,24.86,164.86,27.84,165.99z"/>
	<path class="st18" d="M230.91,81.15c0.84,2.98,0.86,6.02,0.72,9.07C230.08,87.3,231.19,84.17,230.91,81.15z"/>
	<path class="st18" d="M155.15,41.23c-0.03-2.58-0.06-5.16-0.09-7.74c1.11-0.79,1.28,0.34,1.75,0.86c0.06,0.33,0.03,0.65-0.08,0.96
		C154.92,36.94,156.78,39.55,155.15,41.23z"/>
	<path class="st18" d="M459.54,312.13c3.05-0.74,6.14-0.84,9.25-0.67C465.8,313,462.62,311.93,459.54,312.13z"/>
	<path class="st18" d="M232.93,118.07c0.81,3.01,0.86,6.07,0.72,9.15C232.06,124.28,233.18,121.12,232.93,118.07z"/>
	<path class="st18" d="M247.82,123.38c-0.87-2.98-0.84-6.03-0.77-9.09C248.7,117.21,247.52,120.36,247.82,123.38z"/>
	<path class="st18" d="M151.09,118.22c-0.09-3.04-0.12-6.07,0.76-9.02C151.53,112.2,152.7,115.33,151.09,118.22z"/>
	<path class="st18" d="M641.88,193.27c-1.7,0.93-3.4,1.87-5.1,2.8c-0.38-0.3-0.76-0.6-1.13-0.9c1.4-0.92,2.8-1.83,4.2-2.75
		C640.52,192.71,641.2,192.99,641.88,193.27z"/>
	<path class="st18" d="M560.12,74.36c-2.75,0.24-5.51,0.48-8.26,0.73C554.48,73.46,557.36,74.57,560.12,74.36z"/>
	<path class="st18" d="M245.8,89.46c-0.82-2.66-0.83-5.39-0.66-8.14C246.6,83.94,245.58,86.75,245.8,89.46z"/>
	<path class="st18" d="M139.69,82.3c0.03,2.72,0.15,5.45-0.77,8.09C139.21,87.7,138.06,84.87,139.69,82.3z"/>
	<path class="st18" d="M138.69,97.3c0.03,2.72,0.15,5.45-0.77,8.09C138.21,102.69,137.06,99.86,138.69,97.3z"/>
	<path class="st18" d="M246.8,106.46c-0.82-2.66-0.83-5.39-0.66-8.14C247.6,100.93,246.58,103.75,246.8,106.46z"/>
	<path class="st18" d="M137.69,112.3c0.05,2.75,0.15,5.5-0.75,8.16C137.19,117.74,136.06,114.89,137.69,112.3z"/>
	<path class="st18" d="M625.78,135.09c-2.64-0.04-5.28-0.07-7.91-0.11C620.52,133.87,623.16,133.73,625.78,135.09z"/>
	<path class="st18" d="M143.85,357.06c-2.64-0.04-5.28-0.08-7.92-0.13C138.59,355.83,141.23,355.66,143.85,357.06z"/>
	<path class="st18" d="M284.82,187.03c-2.64-0.01-5.28-0.02-7.92-0.03C279.55,185.81,282.19,185.77,284.82,187.03z"/>
	<path class="st18" d="M542.79,187.06c-2.64-0.01-5.29-0.02-7.93-0.03C537.51,185.79,540.15,185.76,542.79,187.06z"/>
	<path class="st18" d="M476.77,311.2c2.62-0.8,5.3-0.92,8.01-0.74C482.23,311.99,479.44,310.89,476.77,311.2z"/>
	<path class="st18" d="M242.78,38.58c-0.79-2.7-0.81-5.47-0.67-8.25C243.63,32.97,242.59,35.83,242.78,38.58z"/>
	<path class="st18" d="M243.78,55.57c-0.79-2.7-0.81-5.47-0.67-8.25C244.63,49.97,243.59,52.82,243.78,55.57z"/>
	<path class="st18" d="M141.66,52.32c0.11,2.71,0.12,5.41-0.76,8.02C141.21,57.67,140.08,54.86,141.66,52.32z"/>
	<path class="st18" d="M244.8,72.47c-0.82-2.66-0.83-5.39-0.66-8.14C245.6,66.94,244.58,69.76,244.8,72.47z"/>
	<path class="st18" d="M140.66,67.31c0.11,2.71,0.12,5.41-0.76,8.02C140.21,72.66,139.08,69.86,140.66,67.31z"/>
	<path class="st18" d="M143.64,22.33c0.17,2.45,0.08,4.88-0.67,7.25C143.13,27.16,142.16,24.63,143.64,22.33z"/>
	<path class="st18" d="M447.78,186.97c-2.3,0.02-4.61,0.04-6.91,0.06C443.17,185.81,445.47,185.88,447.78,186.97z"/>
	<path class="st18" d="M562.8,380.2c0.07-2.32,0.15-4.64,0.22-6.96C564.2,375.59,564.49,377.93,562.8,380.2z"/>
	<path class="st18" d="M142.64,37.33c0.17,2.45,0.08,4.88-0.67,7.25C142.13,42.15,141.16,39.63,142.64,37.33z"/>
	<path class="st18" d="M643.02,371.17c-0.01-1.98-0.02-3.96-0.04-5.94C644.26,367.2,644.22,369.18,643.02,371.17z"/>
	<path class="st18" d="M599.78,357.04c-1.97-0.04-3.94-0.07-5.92-0.11C595.86,355.85,597.83,355.73,599.78,357.04z"/>
	<path class="st18" d="M503.71,309.18c1.95-0.85,4.02-0.83,6.09-0.77C507.92,309.9,505.74,308.97,503.71,309.18z"/>
	<path class="st18" d="M491.63,310.15c1.99-0.79,4.05-0.84,6.14-0.66C495.85,310.84,493.69,310,491.63,310.15z"/>
	<path class="st18" d="M453.93,368.73c1.18,2.05,0.66,4.26,0.63,6.43C453.19,373.12,454.06,370.88,453.93,368.73z"/>
	<path class="st18" d="M229.91,312.46c2.09-0.13,4.16-0.1,6.15,0.69C234,312.99,231.83,313.87,229.91,312.46z"/>
	<path class="st18" d="M578.84,68.21c0.78,1.91,0.87,3.81-0.03,5.71C578.82,72.02,578.83,70.12,578.84,68.21z"/>
	<path class="st18" d="M187.76,188.62c-1.22-2.22-1.21-4.43,0.03-6.63C187.78,184.2,187.77,186.41,187.76,188.62z"/>
	<path class="st18" d="M563.04,363.17c-0.08-1.99-0.16-3.97-0.25-5.96C564.41,359.13,564.16,361.13,563.04,363.17z"/>
	<path class="st18" d="M520.87,380.48c1.97,0,3.93,0,5.9,0C524.81,381.59,522.84,381.59,520.87,380.48z"/>
	<path class="st18" d="M528.61,63.31c0.43,1.96-0.64,4.01,0.38,5.93C527.11,67.38,527.52,65.37,528.61,63.31z"/>
	<path class="st18" d="M25.86,357.03c-1.97-0.03-3.94-0.07-5.92-0.1C21.94,355.85,23.91,355.74,25.86,357.03z"/>
	<path class="st18" d="M653.05,236.19c-0.06-2.06-0.08-4.11,0.72-6.07C653.57,232.15,654.45,234.3,653.05,236.19z"/>
	<path class="st18" d="M69.16,371.16c-0.01-1.97-0.03-3.94-0.04-5.91C70.31,367.21,70.27,369.18,69.16,371.16z"/>
	<path class="st18" d="M523.76,307.2c1.58-0.87,3.29-0.86,5.02-0.76C527.28,307.78,525.45,307.02,523.76,307.2z"/>
	<path class="st18" d="M514.63,308.15c1.64-0.78,3.38-0.87,5.16-0.72C518.22,308.79,516.37,308.04,514.63,308.15z"/>
	<path class="st18" d="M218.91,311.43c1.77-0.15,3.51-0.06,5.16,0.72C222.33,312.04,220.47,312.79,218.91,311.43z"/>
	<path class="st18" d="M285.73,354.23c0.51,1.75,2,1.05,3.13,1.24c-0.05,0.4-0.11,0.8-0.16,1.21c-1.28-0.11-2.56-0.22-3.84-0.33
		C284.87,355.52,284.97,354.74,285.73,354.23z"/>
	<path class="st18" d="M447.59,73.32c0.05,1.72,0.08,3.43-0.74,5.01C447.02,76.65,446.29,74.83,447.59,73.32z"/>
	<path class="st18" d="M487.55,354.26c0.57,1.73,2.07,0.98,3.21,1.22C489.2,356.37,487.61,357.32,487.55,354.26z"/>
	<path class="st18" d="M545.59,69.22c0.4-1.67,0.81-3.33,1.21-5C546.53,65.91,547.65,67.95,545.59,69.22z"/>
	<path class="st18" d="M129.1,46.24c0-1.64,0-3.28,0-4.92C130.27,42.96,130.27,44.6,129.1,46.24z"/>
	<path class="st18" d="M255.65,73.31c-0.23,1.75-0.47,3.5-0.7,5.25C255.04,76.8,254.28,74.91,255.65,73.31z"/>
	<path class="st18" d="M254.9,93.15c0.77,1.62,0.78,3.34,0.72,5.07C254.31,96.68,255.04,94.85,254.9,93.15z"/>
	<path class="st18" d="M437.8,380.19c0.65-1.77-0.48-3.84,0.91-5.49C438.59,376.56,439.59,378.61,437.8,380.19z"/>
	<path class="st18" d="M274.56,205.15c1.83-0.67,3.66-0.73,5.49,0.03C278.22,205.17,276.39,205.16,274.56,205.15z"/>
	<path class="st1" d="M521.12,243.01c19.49,0.16,38.98,0.13,58.47,0.17c1.45-5.25,0.54-10.58,0.5-15.89
		c-2.94-25.15-14.48-37.6-37.3-40.23c-2.64-0.49-5.28-0.45-7.93-0.03c-18.49,1.4-30.75,11.5-39.03,27.65c0-1.6,0-3.21,0-4.81
		c0-20.31-0.11-40.61,0.1-60.92c0.04-3.82-1.04-4.85-4.73-4.62c-5.31,0.32-10.66,0.29-15.97,0.01c-3.46-0.19-4.55,0.79-4.48,4.37
		c0.23,11.31,0.09,22.63,0.09,33.95c0,5.39,0,10.79,0,17.79c-6.36-8.82-13.9-12.67-23.05-13.48c-2.31-0.31-4.61-0.4-6.91,0.06
		c-17.5,1.43-28.81,11.15-35.61,27.07c-0.43-7.16-0.58-13.96-0.36-20.73c0.1-3.14-0.61-4.4-4.04-4.21c-5.31,0.3-10.66,0.32-15.97,0
		c-3.85-0.23-5.06,0.83-5,4.86c0.25,15.97,0.2,31.95,0.06,47.93c-0.06,6.99-1.58,13.98-6.97,18.63c-5.69,4.9-12.83,6.84-20.14,3.27
		c-7.08-3.46-9.29-9.85-9.09-17.32c-0.96-5.45-0.29-10.94-0.41-16.4c-0.29-13.63,0.43-27.27-0.39-40.89c-8.08,0-16.16,0-24.24,0
		c-0.82,6.21-0.11,12.45-0.38,18.67c-0.06,1.38,0.47,2.9-0.7,4.1c-0.08-0.14-0.16-0.29-0.25-0.43c-0.09-0.14-0.2-0.26-0.3-0.39
		c-4.67-16.2-16.52-22.79-32.28-24.16c-2.64-0.45-5.28-0.4-7.92-0.03c-9.48,1.16-18.9,2.6-27.81,6.34c-1.67,0.7-3.19,1.16-3.12,3.57
		c0.16,5.77,0.05,11.54,0.05,17.94c9.22-5.2,18.04-10.06,28.53-9.7c1.83-0.61,3.66-0.71,5.49,0.03c9.29,1.6,12.25,5.11,14.14,14.31
		c0.64,3.11-0.49,2.9-2.31,3.16c-6.18,0.88-12.37,1.72-18.55,2.61c-8.69,1.24-17.69,1.93-24.99,7.33c-2.79,2.06-3.48,2.02-4.91-0.86
		c-3.71-7.49-9.74-12.77-16.78-17.07c-8.71-5.33-18.49-8.51-27.3-13.59c-5.05-2.91-10.62-5.61-11.6-12.44
		c-0.58-2.21-0.68-4.43,0.03-6.63c1.42-6.15,8.04-10.35,16.96-10.78c4.1-0.79,8.21-0.71,12.31-0.02c8.65,0.12,16.08,3.78,23.33,7.99
		c1.81-8.27,1.17-16.58,0.32-24.88c-6.82-2.14-13.85-3.23-20.89-4.31c-6.31-0.3-12.61-0.46-18.91,0.08
		c-12.08,1.92-23.6,4.59-32.52,14.29c-8.4,9.14-9.78,19.81-7.74,30.94c2.39,13.04,11.75,21.03,23.05,26.89
		c9.27,4.81,19.15,8.34,27.98,14.13c5.18,3.39,8.11,7.9,7.97,13.53c-0.16,6.51-4.83,10.63-10.81,12.39
		c-17.35,5.09-32.97,1.21-46.97-9.95c-0.76-0.14-1.41,0.18-1.39,0.93c0.21,8.33-0.82,16.69,0.52,25c9.66,4.38,19.9,6.46,30.4,6.75
		c17.58,0.49,34.66-1.17,48.2-14.94c5.79,11.07,15.42,14.95,27,15.03c11.67,0.09,20.8-5.08,28.11-15.76c0,4.39,0.14,7.06-0.04,9.7
		c-0.17,2.64,0.45,3.96,3.5,3.85c5.66-0.21,11.33-0.19,16.99-0.01c2.93,0.09,3.67-1.07,3.6-3.81c-0.17-6.09-0.05-12.19-0.05-18.29
		c4.19,13.79,12.56,22.4,27.28,24.06c14.17,1.59,25.24-3.55,34.04-16.42c0,4.54,0.17,7.65-0.05,10.73c-0.2,2.85,0.85,3.8,3.67,3.72
		c5.83-0.16,11.67-0.24,17.49,0.03c3.27,0.15,3.88-1.13,3.78-4.05c-0.2-6.11-0.06-12.22-0.06-18.34
		c6.15,13.05,15.23,22.11,30.04,24.11c14.61,1.98,26.7-2.36,35.95-15.53c0,4.15,0.19,6.99-0.05,9.8c-0.26,3,0.63,4.14,3.82,4
		c5.82-0.25,11.67-0.26,17.49,0c3.24,0.14,3.9-1.08,3.81-4.03c-0.2-6.54-0.06-13.09-0.06-19.64c4.01,7.7,8.72,14.59,16.18,18.73
		c19.45,10.8,39.16,8.94,58.81,0.28c1.2-0.53,1.82-1.35,1.82-2.64c0-5.57,0-11.13,0-16.94c-1.58,0.44-2.65,0.48-3.4,0.98
		c-8.56,5.75-18.08,7.26-28.16,6.8c-12.52-0.57-20.73-7.43-23.11-19.53C517.44,244.17,517.99,242.98,521.12,243.01z M294.86,243.07
		c-0.11,15.15-8.96,24.17-22.28,23.3c-5.91-0.39-10.52-4-11.65-9.13c-1.37-6.2,1.09-12.05,6.74-14.59
		c8.01-3.61,16.8-3.69,25.34-4.37C297.09,237.95,293.25,242.15,294.86,243.07z M467.97,252.99c-4.52,8.72-11.56,13.01-20.89,12.26
		c-9.47-0.76-15.28-6.4-17.87-14.99c-3.1-10.28-2.84-20.71,1.55-30.7c4.43-10.09,13.52-14.73,23.85-12.51
		c9.68,2.08,16.22,10.46,16.38,21.01c0.03,2.16,0,4.32,0,7.73C471.19,240.89,471.01,247.13,467.97,252.99z M541.63,204.96
		c9.16,1.09,16.38,10.73,14.98,19.82c-0.28,1.8-1.4,1.59-2.48,1.6c-11.96,0.03-23.91,0.02-35.92,0.02
		C520.03,211.9,529.38,203.5,541.63,204.96z"/>
	<path class="st0" d="M411.68,10.26c-2.96-2.72-8.91-0.41-13.52-0.87c-3.56-0.35-4.47,0.94-4.4,4.41
		c0.22,10.82,0.06,21.64,0.1,32.46c0.01,2.56-0.13,4.08-3.12,1.85c-4.42-3.3-9.61-4.91-14.94-6.08c-4.97-0.42-9.93-0.35-14.9-0.03
		c-14.77,2.29-22.9,8.15-26.1,26.21c-0.86,1.13-0.27,2.65-0.75,3.77c0.02-0.1,0.02-0.22-0.01-0.36c-0.16-0.64-0.6-1.08-1.13-1.44
		c-3.37-16.51-13.35-25.96-30.11-28.18c-5.63-0.32-11.27-0.39-16.9,0.03c-5.62,1.06-11.4,1.87-16.26,5.07
		c-9.34,6.15-12.6,15.72-13.99,26.21c-0.67,1.69,0.19,3.59-0.7,5.26c-0.02,4.86-0.03,9.72-0.05,14.58c1.03,1.58,0.05,3.44,0.72,5.07
		c0.49,2.87,0.68,5.83,1.51,8.59c3.05,10.2,8.9,17.68,19.55,21.2c8.22,2.72,16.51,2.32,24.8,2.06c14.68-0.47,26.2-10.57,29.11-24.87
		c0.43-2.11,0.11-3.22-2.31-2.94c-6.79,0.77-15.62-3.52-18.36,7.37c-0.07,0.28-0.42,0.5-0.65,0.75c-6.18,6.77-15.46,8.53-24.33,4.62
		c-6.48-2.85-11.48-12.52-10.71-20.73c1.35-0.95,2.89-0.5,4.34-0.5c16.55-0.03,33.1-0.03,49.65,0c1.45,0,2.99-0.42,4.35,0.49
		c0.34,2.71,1.13,5.34,1.61,8.02c1.6,9,4.4,17.85,12.89,22.86c13.46,7.95,27.22,6.83,41.03,0.46c2.53-1.17,3.82-5.19,6.84-4.07
		c2.56,0.95,0.66,5.13,2.95,7c4.97,0.02,9.97,1.01,14.89-0.5c-0.04-34.79-0.03-69.58-0.16-104.37
		C412.61,19.07,414.72,13.05,411.68,10.26z M315.9,79.7c-0.5,2.44-2.13,1.68-3.41,1.7c-6,0.08-12,0.04-17.99,0.04
		c-5.83,0-11.66,0.01-17.49-0.01c-1.62,0-3.36,0.41-3.19-2.37c1.06-16.89,8.49-27.23,28.2-23.11
		C311.16,57.85,317.86,70.17,315.9,79.7z M391.75,101.86c-2.69,8.54-8.68,12.61-18.58,12.84c-9.68,0.22-16.31-3.71-18.99-12.2
		c-3.49-11.05-3.45-22.33,0.1-33.37c2.58-8.03,8.81-11.79,18.21-11.84c9.9-0.05,15.79,3.57,18.84,11.67
		c2.08,5.53,2.46,11.33,2.54,17.16C393.89,91.46,393.36,96.75,391.75,101.86z"/>
	<path class="st0" d="M598,68.31c-0.93-5.51-1.99-10.9-5.29-15.69c-4.86-7.05-12.4-8.7-19.93-10.53
		c-6.31-0.52-12.61-0.42-18.92-0.05c-1.78,0.36-3.55,0.78-5.34,1.08c-12.06,2.04-18.63,7.92-19.91,20.19c-0.26,2-0.8,4.02,0.38,5.93
		c5.53-0.01,11.07-0.02,16.6-0.03c1.62-1.37-0.07-3.55,1.21-5c-0.31-3.19,1.38-5.55,3.74-7.12c6.08-4.05,12.87-3.79,19.46-1.82
		c6.12,1.84,8.41,6.9,8.84,12.94c0.76,1.91,0.83,3.81-0.03,5.71c-6.21,1.08-12.46,0.3-18.7,0.43c-2.68,1.05-5.56-0.12-8.26,0.73
		c-2.58,0.49-5.21,0.83-7.74,1.5c-7.91,2.11-14.52,5.76-17.14,14.34c-0.65,2.14-0.4,4.7-2.41,6.34c-4.24,1.07-8.57,0.25-12.84,0.52
		c-1.74,0.11-3.76-0.6-4.87,1.54c-0.14,0.3-0.31,0.58-0.4,0.89c-2.99,9.71-10.33,15.44-19.15,14.94
		c-11.57-0.66-17.87-5.72-20.5-16.36c-1.83-7.38-1.49-14.91-0.81-22.29c1.02-10.9,6.72-17.17,16.9-18.87
		c8.17-1.36,19.01,0.41,21.97,10.14c1.94,6.35,6.19,7.11,11.68,6.36c1.47-0.2,3.01-0.19,4.49,0c4.39,0.57,5.3-1.04,4.45-5.33
		c-3.15-15.96-12.78-24.67-28.7-26.8c-5.97-0.29-11.94-0.45-17.91,0.08c-20.07,2.36-29.16,13.68-31.27,31.23
		c-0.68,1.61,0.34,3.47-0.74,5.01c0.4,7.73-0.76,15.55,1.15,23.19c2.1,8.44,4.61,16.54,12.47,21.91c9.65,6.59,20.39,7.1,31.42,6.75
		c14.89-0.48,26.47-6.02,31.99-20.86c0.63-0.75,1.28-2.42,1.87,0.03c-0.61,7.98,3.26,14.06,9.97,17.01
		c14.31,6.31,28.76,6.36,42.15-2.93c2.6-1.8,3.32-0.99,4.04,1.34c0.33,1.06,0.66,2.13,0.99,3.19c4.48,1.78,9.12,0.46,13.69,0.69
		c1.93,0.1,1.72-1.66,1.71-2.96C598.12,106.56,598.68,87.43,598,68.31z M579.54,95.45c-0.32,3.12-0.87,6.25-1.69,9.28
		c-1.53,5.67-5.54,8.97-11.11,10.25c-4.58,1.05-9.27,0.98-13.86,0.06c-5.85-1.18-8.81-5.05-9.06-11.41
		c-0.33-8.23,2.6-13.12,9.17-15.29c4.84-1.6,9.86-1.2,14.83-1.23c1.33,0,2.66,0,3.99,0C580.31,87.11,580.39,87.12,579.54,95.45z"/>
	<path class="st19" d="M400.29,368.86c-0.01,4.54-2.5,7.81-5.9,7.75c-3.39-0.06-5.95-3.38-6-7.78c-0.05-4.48,2.38-7.91,5.68-8.01
		C397.65,360.7,400.3,364.14,400.29,368.86z"/>
	<path class="st20" d="M280.71,368.54c0.04-4.43,2.67-7.77,6.05-7.71c3.33,0.07,6.02,3.53,6.08,7.82c0.06,4.21-2.65,7.88-5.89,7.97
		C283.41,376.72,280.67,373.16,280.71,368.54z"/>
	<path class="st20" d="M637.97,368.98c-0.07,4.61-2.55,7.75-6.02,7.61c-3.37-0.14-5.97-3.58-5.97-7.9c0-4.33,2.65-7.87,5.92-7.9
		C635.45,360.75,638.03,364.23,637.97,368.98z"/>
	<path class="st20" d="M64.05,369.06c-0.08,4.57-2.62,7.72-6.08,7.53c-3.26-0.18-5.95-3.81-5.91-8c0.04-4.31,2.75-7.8,6.05-7.78
		C61.7,360.84,64.13,364.22,64.05,369.06z"/>
	<path class="st19" d="M522.67,368.28c0-0.83-0.15-1.69,0.03-2.48c0.37-1.58-1.22-3.97,1.32-4.63c2.34-0.6,4.58,0.16,6.24,2.14
		c2.93,3.5,2.02,10.27-1.68,12.34c-3.34,1.87-5.59,0.75-5.76-2.91c-0.07-1.49-0.01-2.98-0.01-4.47
		C522.76,368.28,522.71,368.28,522.67,368.28z"/>
	<path class="st21" d="M323.76,364.58c-0.28-2.6-0.07-4.27,2.71-3.92c2.2,0.27,4.03,0.97,3.83,3.58c-0.21,2.81-2.45,3.34-4.69,3.44
		C322.66,367.81,324.19,365.33,323.76,364.58z"/>
	<g>
		<path class="st0" d="M649.66,156.88c-3.83-11.5-12.43-18.35-23.88-21.79c-2.63-0.56-5.27-0.39-7.91-0.11
			c-2.44,0.46-4.93,0.75-7.32,1.4c-6.61,1.78-12.47,4.51-16.8,10.39c-6.47,8.8-8.25,18.52-5.55,28.63
			c2.64,9.91,8.46,17.82,18.96,21.16c9.69,3.08,19.13,1.97,28.49-1.39c1.77-0.35,3.52-0.73,4.2-2.75
			C650.08,182.5,654.25,170.71,649.66,156.88z M617.43,190.25c-13.28-0.03-22.74-9.37-22.78-22.49
			c-0.05-14.36,11.16-25.49,25.69-25.5c12.27-0.01,22.89,11.23,22.89,24.23C643.25,180.45,632.57,190.28,617.43,190.25z"/>
		<path class="st0" d="M619.48,149.26c-11.39-0.01-17.75,6-17.79,16.81c-0.04,10.71,6.65,17.6,17.19,17.72
			c10.37,0.12,17.78-7.13,17.75-17.37C636.59,156,629.86,149.26,619.48,149.26z"/>
	</g>
</g>
</svg>
