<?xml version="1.0" encoding="utf-8"?>
<!-- Generator: Adobe Illustrator 25.2.1, SVG Export Plug-In . SVG Version: 6.00 Build 0)  -->
<svg version="1.1" id="Camada_1" xmlns="http://www.w3.org/2000/svg" xmlns:xlink="http://www.w3.org/1999/xlink" x="0px" y="0px"
	 viewBox="0 0 247.2 202.1" style="enable-background:new 0 0 247.2 202.1;" xml:space="preserve">
<style type="text/css">
	.st0{fill:#0A4F4E;}
	.st1{fill:#9ED124;}
	.st2{enable-background:new    ;}
	.st3{fill:#E8BE14;}
	.st4{fill:#F4E7C3;}
	.st5{fill:#C77A20;}
	.st6{fill:#71AA6A;}
	.st7{fill:#A4A788;}
	.st8{fill:#68A948;}
</style>
<g>
	<g>
		<path class="st0" d="M213,104.8c-2.9-0.8-5.1,0.8-7.3,2.3c-8.7-4.4-16.8-3.9-21.4,1.2c-3.9,4.3-3.6,9,1.1,16.5
			c-4.1,3.7-4.2,7.8-0.7,12c-7,5.5-4.5,13.5,1.1,15c6.4,1.7,12.7,1.8,18.9-0.8c5.4-2.2,8.2-6.8,7.3-11.5c-0.9-4.9-4.1-7.1-10.6-7.6
			c-3.9-0.3-7.9,0.4-11.6-0.8c-0.8-1.6-0.7-3,0.6-4.3c10.7,1,19.7-0.7,18.7-14.6c1.3-1,3.1,0.2,4.2-1.1
			C213.6,108.9,214.1,106.8,213,104.8z M192.1,138.5c1.3-0.1,2.6,0,4.3,0c2.3,0.6,6.9-1.5,6.8,3.4c-0.1,4.2-4.2,4.2-7.5,4.4
			c-1.3,0.1-2.6,0.1-3.9-0.2c-2.1-0.4-3.7-1.5-3.5-4C188.4,139.8,189.9,138.7,192.1,138.5z M195.3,121.1c-3.5-0.1-4.9-2.2-4.9-5.5
			c0.1-3.4,1.4-5.8,5.2-5.7c3.7,0.1,4.4,2.8,4.7,5.4C200.1,118.9,198.9,121.2,195.3,121.1z"/>
		<path class="st0" d="M57.1,42.6c-3.8-0.5-7.2-0.9-10.6,0.2c-4.7,15-9.4,29.8-14.1,44.8c3.2,0.6,5.9,0.7,8.8-0.1
			c0.9-2.8,1.9-5.6,2.8-8.5h14.9c0.9,3,1.8,5.7,2.7,8.5c3.2,0.7,6.1,0.7,9.5,0C66.4,72.5,61.8,57.5,57.1,42.6z M46.1,70.9
			c1.8-6.2,3.4-11.8,5.4-18.7c1.9,6.9,3.5,12.6,5.2,18.7H46.1z"/>
		<path class="st0" d="M158.7,87.6c-3.4,0.5-6,0.7-9.1-0.1c0-4.3,0-8.8,0-13.1c0-2.3-0.1-4.6-0.3-6.9c-0.2-2.6-0.9-4.9-4.2-5.1
			c-3.3-0.1-5.3,1.5-6,4.7c-0.9,4.6-0.3,9.2-0.5,13.8c-0.1,2.1,0,4.2,0,6.6c-3,0.9-5.7,0.6-8.7,0.4c0-10.9,0-21.5,0-32.3
			c3.6-1,7.1-1.9,8.4,3.2c1.4-1.1,2.5-2.1,3.8-2.8c6.8-4,14.7-0.4,16.1,7.4c0.3,1.6,0.5,3.3,0.5,4.9
			C158.7,74.5,158.7,80.9,158.7,87.6z"/>
		<path class="st0" d="M97.7,137.1c-3,0.6-5.6,0.7-8.8-0.1c0-4.5,0-9,0-13.6c0-2.1-0.1-4.3-0.3-6.4c-0.2-2.7-1-5-4.2-5.1
			c-3-0.1-5,1.4-5.8,4.3c-1.1,3.6-0.6,7.2-0.7,10.8c-0.1,3.3,0,6.5,0,9.8c-3,1.3-5.7,0.6-8.8,0.5c0-10.8,0-21.4,0-32.3
			c3.4-0.9,6.8-2.1,8.4,3c1.5-1.1,2.7-2.1,4.1-2.9c6.9-3.7,15.2,0.2,15.8,8C98.2,121,97.7,128.9,97.7,137.1z"/>
		<path class="st0" d="M231.6,103.9c-9.8-0.1-15.8,6.6-15.8,17.3c0.1,10.4,6.1,16.9,15.7,16.9c9.6-0.1,15.5-6.5,15.5-17.1
			C247.1,110.5,241.2,104,231.6,103.9z M238,123.3c-0.5,5.1-2.7,7.9-6.4,7.9c-3.9,0.1-6.3-2.9-6.5-8.2c-0.1-2.1-0.1-4.3,0.3-6.3
			c0.6-3.4,2.4-5.8,6.2-5.7c3.5,0.1,5.2,2.4,5.9,5.5c0.3,1.4,0.4,2.9,0.4,3C238,121.7,238,122.5,238,123.3z"/>
		<path class="st0" d="M121.5,65.4c-0.4-6.2-3.6-9.5-9.7-10.6c-4.9-0.9-9.7-0.4-14.4,1.5c-0.3,2.4-0.1,4.4,1.5,6.1
			c12.2-1.3,12.7-1.1,13.6,4.2c-2.8,0.2-5.5,0.3-8.2,0.7c-6.1,1-9.8,5.3-9.6,10.6c0.2,5.8,3.8,9.4,10,10.1
			c5.6,0.6,11.1,0.4,16.8-1.7C121.6,79.1,121.9,72.2,121.5,65.4z M112.9,80.8c-3.2,0.9-6.3,1.4-8.9-1c-1.4-1.3-1.4-3.6-0.2-5
			c2.3-2.6,5.4-2.6,9-1.7V80.8z"/>
		<path class="st0" d="M174.6,116.2c-0.2-7.1-3.6-11-10.6-12.1c-4.8-0.7-9.4-0.2-13.8,1.8c-0.3,2.4,0.3,4.2,1.5,5.7
			c13.2-0.7,13.2-0.7,13.8,4.4c-3.1,0.3-6.3,0.3-9.3,1c-5.9,1.4-8.6,4.9-8.4,10.4c0.1,5.4,3.2,8.7,9.1,9.9c6,1.2,11.7,0,17.5-1.4
			c0.1-0.8,0.2-1.5,0.2-2.1C174.7,128.1,174.8,122.1,174.6,116.2z M165.7,130.3c-3.2,1.4-6.1,1.4-8.7-1c-1.3-1.2-1.5-3-0.5-4.5
			c2.2-3.3,5.5-2.6,9.2-2.3L165.7,130.3L165.7,130.3z"/>
		<path class="st0" d="M60.9,114.2c-0.2-4.4-2.7-7.8-7-9.2c-5.8-1.9-11.6-1.3-17.2,1c-0.1,2.3,0.4,4.1,1.6,5.7
			c4.9,0.8,11.4-4,14.4,4.6c-3.8,0.3-7-0.1-10,0.8c-5.7,1.7-8.6,5.2-8.4,10.6c0.2,5.3,3.4,8.6,9.2,9.8c6,1.2,11.7,0.1,17.5-1.5
			C61,128.6,61.2,121.4,60.9,114.2z M52.1,130.3c-3.2,1.5-6.2,1.3-8.7-1.1c-1.3-1.3-1.2-3.2-0.2-4.6c2.2-3.1,5.4-2.5,9-2.2V130.3
			L52.1,130.3z"/>
		<path class="st0" d="M124.1,130.6c0.3,1.1,0.7,2.2,0.8,3.3c0.1,0.8,0,1.6,0,2.3c-10.2,4.3-17.6-0.2-17.9-10.9
			c-0.1-4.2,0-8.5,0-12.5c-0.9-1.9-2.9-0.6-4.5-2.4c3.9-5.1,8-10.2,12.3-15.8c2,3.5,0.3,6.7,1.6,9.9c2.1,0.1,4.4,0.2,6.6,0.3
			c1.3,2.1,0.7,4.1,0.5,6.1c-2.4,1.3-4.8,0.1-7.5,1.1c-0.3,4.8-0.5,9.8,0.1,14.8C116.8,131.9,121.1,130,124.1,130.6z"/>
		<path class="st0" d="M91.5,81.6c0.2,1.9,0.8,3.8,0.1,5.7C80.7,89.5,76.1,85.9,76,75.2c-0.1-11,0-21.9,0-33.1
			c2.9-0.9,5.6-0.7,8.8-0.3c0,8.3,0,16.4,0,24.5c0,2.1,0,4.3,0,6.4C84.9,79.8,85,79.9,91.5,81.6z"/>
		<path class="st0" d="M140.4,137.2c-2.5,0.6-5,0.4-8.1,0.1c0-8.3,0-16.6,0-24.3c-1.4-2.1-3.4-0.6-4.6-2.4c-0.6-1.5-0.4-3.4,0.1-5.6
			c4.3,0,8.4,0,13.1,0c0,9.1,0,18.1,0,27.1C140.9,133.7,141.3,135.4,140.4,137.2z"/>
		<path class="st1" d="M5.5,102.3c0.1-0.6,0.2-2.2,0.4-3.8c12.2,0.8,15,2.9,18,12.8C17.1,110.1,10.1,109.9,5.5,102.3z"/>
		<path class="st1" d="M27.8,125.4c-9.5-1.4-9.6-1.5-14.2-5.5c-0.1-1.9,2.1-3.9-0.8-5.8C23.6,112.7,29.2,117.1,27.8,125.4z"/>
		<path class="st1" d="M16.1,96.2C10,94.2,3,95.6,0.2,87.8c0.4-0.9,0.9-2.2,1.5-3.4C7.2,82,14.1,87.3,16.1,96.2z"/>
		<path class="st1" d="M-0.4,74.5c2.5-4.4,6.1-3.8,9.5-2.2c4.1,1.9,2.9,5.5,2.8,8.8C4,81.6,1.6,80.3-0.4,74.5z"/>
		<path class="st1" d="M28.2,130.8c-0.1,2.6,1.2,5.7-2.2,7.2c-3.3,1.5-7.4-1.2-10.2-6.4c0.9-1.2,2-2.4,2.9-3.6
			C24.2,128.6,24.3,128.6,28.2,130.8z"/>
		<path class="st1" d="M24.6,143c-3.3,7.8-4.2,8.3-11.5,5.9c-0.5-1.5-1-3.2-1.5-4.8C15.6,140,19.9,140.3,24.6,143z"/>
		<path class="st0" d="M130.8,98.9c-0.6-3-0.7-5.3,0-7.7c2.9-1.3,5.9-1,9-0.1c0.5,2.6,0.6,5.2-0.1,7.8
			C136.7,100,133.8,99.9,130.8,98.9z"/>
		<path class="st1" d="M4.8,66.7c0-2,0-3.7,0-5.7c3.4-2.3,7.1-2.2,11.1-0.7c0.3,3.2-1.8,5.3-2.6,7.9C10.1,68.6,7.6,67.4,4.8,66.7z"
			/>
		<path class="st1" d="M23.5,49.1c-3.2,7.8-4.4,8.5-11.1,5.8c0.6-1.7,1.3-3.4,1.9-5.2C20.1,47.6,20.1,47.6,23.5,49.1z"/>
		<path class="st1" d="M15.9,154.5c-4.4,2.4-6.6,7.4-12.3,5.5C6.9,152.4,8.4,151.6,15.9,154.5z"/>
		<path class="st1" d="M24.4,44.8c1.5-2.3,3.3-3.1,5.4-3.4C28.9,43.2,28.5,45.9,24.4,44.8z"/>
	</g>
	<g class="st2">
		<path class="st0" d="M42,147h-4.2v3.3h3.9v2.4h-3.9v5.2h-2.7v-13.4H42V147z"/>
		<path class="st0" d="M45.1,146.9c-0.4,0-0.8-0.1-1.1-0.4c-0.3-0.3-0.4-0.7-0.4-1.1c0-0.4,0.1-0.8,0.4-1.1c0.3-0.3,0.7-0.4,1.1-0.4
			c0.5,0,0.8,0.1,1.1,0.4c0.3,0.3,0.4,0.6,0.4,1.1c0,0.4-0.1,0.8-0.4,1.1C45.9,146.7,45.5,146.9,45.1,146.9z M46.4,157.9h-2.6v-9.5
			h2.6V157.9z"/>
		<path class="st0" d="M48,157.7v-2.4c0.4,0.3,0.9,0.5,1.3,0.7c0.4,0.1,0.8,0.2,1.2,0.2c0.5,0,0.8-0.1,1.1-0.2
			c0.3-0.1,0.4-0.4,0.4-0.7c0-0.2-0.1-0.3-0.2-0.5c-0.1-0.1-0.3-0.2-0.5-0.3c-0.2-0.1-0.4-0.2-0.6-0.3c-0.2-0.1-0.4-0.2-0.7-0.3
			c-0.3-0.1-0.6-0.3-0.9-0.5c-0.3-0.2-0.5-0.4-0.7-0.6c-0.2-0.2-0.3-0.5-0.4-0.8c-0.1-0.3-0.1-0.6-0.1-1c0-0.5,0.1-1,0.3-1.4
			c0.2-0.4,0.5-0.7,0.8-0.9c0.3-0.2,0.7-0.4,1.2-0.5c0.4-0.1,0.9-0.2,1.4-0.2c0.4,0,0.8,0,1.2,0.1c0.4,0.1,0.8,0.2,1.2,0.3v2.3
			c-0.3-0.2-0.7-0.4-1.1-0.5c-0.4-0.1-0.8-0.2-1.1-0.2c-0.2,0-0.3,0-0.5,0.1c-0.2,0-0.3,0.1-0.4,0.1c-0.1,0.1-0.2,0.1-0.3,0.3
			c-0.1,0.1-0.1,0.2-0.1,0.3c0,0.2,0.1,0.3,0.2,0.4c0.1,0.1,0.2,0.2,0.4,0.3c0.2,0.1,0.3,0.2,0.5,0.2c0.2,0.1,0.4,0.1,0.6,0.2
			c0.4,0.1,0.7,0.3,1,0.4c0.3,0.2,0.5,0.4,0.7,0.6c0.2,0.2,0.4,0.5,0.5,0.8c0.1,0.3,0.2,0.6,0.2,1c0,0.6-0.1,1-0.3,1.4
			c-0.2,0.4-0.5,0.7-0.9,1c-0.4,0.3-0.8,0.4-1.3,0.5c-0.5,0.1-1,0.2-1.5,0.2C49.7,158.1,48.8,158,48,157.7z"/>
		<path class="st0" d="M57.5,146.9c-0.4,0-0.8-0.1-1.1-0.4c-0.3-0.3-0.4-0.7-0.4-1.1c0-0.4,0.1-0.8,0.4-1.1c0.3-0.3,0.7-0.4,1.1-0.4
			c0.5,0,0.8,0.1,1.1,0.4c0.3,0.3,0.4,0.6,0.4,1.1c0,0.4-0.1,0.8-0.4,1.1C58.3,146.7,57.9,146.9,57.5,146.9z M58.8,157.9h-2.6v-9.5
			h2.6V157.9z"/>
		<path class="st0" d="M65.1,158.1c-1.4,0-2.6-0.4-3.4-1.3c-0.8-0.9-1.2-2.1-1.2-3.6c0-1.6,0.4-2.8,1.3-3.7c0.8-0.9,2-1.3,3.4-1.3
			c1.4,0,2.5,0.4,3.4,1.3c0.8,0.9,1.2,2.1,1.2,3.5c0,1.6-0.4,2.8-1.3,3.8C67.7,157.7,66.6,158.1,65.1,158.1z M65.2,150.4
			c-0.6,0-1.1,0.2-1.5,0.7c-0.3,0.5-0.5,1.2-0.5,2c0,1.8,0.7,2.7,2,2.7c1.3,0,1.9-0.9,1.9-2.8C67.1,151.3,66.5,150.4,65.2,150.4z"/>
		<path class="st0" d="M76.7,157.8c-0.4,0.2-1,0.3-1.8,0.3c-1.9,0-2.8-1.1-2.8-3.2v-4.4h-1.4v-2.2h1.4v-2.1l2.6-0.8v2.9h1.9v2.2
			h-1.9v3.9c0,1,0.4,1.5,1.1,1.5c0.3,0,0.6-0.1,0.9-0.3V157.8z"/>
		<path class="st0" d="M85.9,154h-5.6c0.1,1.4,0.9,2.1,2.4,2.1c0.9,0,1.8-0.2,2.5-0.7v2.1c-0.8,0.5-1.8,0.7-3.1,0.7
			c-1.4,0-2.5-0.4-3.2-1.3c-0.8-0.9-1.1-2-1.1-3.6c0-1.6,0.4-2.8,1.2-3.8c0.8-0.9,1.8-1.4,3.1-1.4c1.3,0,2.2,0.4,2.9,1.2
			s1,1.9,1,3.4V154z M83.5,152.2c0-1.4-0.5-2-1.5-2c-0.4,0-0.8,0.2-1.1,0.6c-0.3,0.4-0.5,0.9-0.6,1.5H83.5z"/>
		<path class="st0" d="M93.1,151c-0.3-0.2-0.7-0.3-1.1-0.3c-0.6,0-1,0.2-1.3,0.7c-0.3,0.5-0.5,1.1-0.5,1.9v4.6h-2.6v-9.5h2.6v1.8h0
			c0.4-1.3,1.2-1.9,2.3-1.9c0.3,0,0.5,0,0.7,0.1V151z"/>
		<path class="st0" d="M101.5,157.9H99v-1.4h0c-0.6,1.1-1.4,1.6-2.6,1.6c-0.8,0-1.5-0.3-2-0.8c-0.5-0.5-0.7-1.2-0.7-2.1
			c0-1.9,1-2.9,3-3.2l2.3-0.3c0-1-0.5-1.6-1.5-1.6c-1,0-2,0.3-2.9,1v-2.2c0.4-0.2,0.9-0.4,1.5-0.6c0.6-0.2,1.2-0.2,1.7-0.2
			c2.4,0,3.7,1.4,3.7,4.1V157.9z M99,154v-0.6l-1.6,0.2c-0.9,0.1-1.3,0.6-1.3,1.3c0,0.3,0.1,0.6,0.3,0.8c0.2,0.2,0.5,0.3,0.9,0.3
			c0.5,0,0.9-0.2,1.2-0.6C98.8,155.1,99,154.6,99,154z"/>
		<path class="st0" d="M106.2,156.8L106.2,156.8l0,5.5h-2.6v-13.9h2.6v1.4h0c0.7-1.1,1.6-1.7,2.8-1.7c1.1,0,2,0.4,2.6,1.3
			c0.6,0.8,0.9,2,0.9,3.5c0,1.6-0.4,2.9-1.1,3.8c-0.7,1-1.6,1.4-2.8,1.4C107.6,158.1,106.8,157.7,106.2,156.8z M106.2,152.9v0.8
			c0,0.7,0.2,1.2,0.5,1.6c0.3,0.4,0.7,0.6,1.2,0.6c0.6,0,1.1-0.3,1.4-0.8c0.3-0.5,0.5-1.3,0.5-2.2c0-1.7-0.6-2.5-1.8-2.5
			c-0.5,0-1,0.2-1.3,0.7C106.3,151.5,106.2,152.1,106.2,152.9z"/>
		<path class="st0" d="M121.9,154h-5.6c0.1,1.4,0.9,2.1,2.4,2.1c0.9,0,1.8-0.2,2.5-0.7v2.1c-0.8,0.5-1.8,0.7-3.1,0.7
			c-1.4,0-2.5-0.4-3.2-1.3c-0.8-0.9-1.1-2-1.1-3.6c0-1.6,0.4-2.8,1.2-3.8c0.8-0.9,1.8-1.4,3.1-1.4c1.3,0,2.2,0.4,2.9,1.2
			s1,1.9,1,3.4V154z M119.5,152.2c0-1.4-0.5-2-1.5-2c-0.4,0-0.8,0.2-1.1,0.6c-0.3,0.4-0.5,0.9-0.6,1.5H119.5z"/>
		<path class="st0" d="M131.7,157.9H129v-1.5h0c-0.7,1.1-1.5,1.7-2.6,1.7c-2,0-3-1.3-3-4v-5.8h2.6v5.5c0,1.3,0.5,2,1.4,2
			c0.5,0,0.9-0.2,1.1-0.6c0.3-0.4,0.4-0.9,0.4-1.5v-5.5h2.6V157.9z"/>
		<path class="st0" d="M139.1,157.8c-0.4,0.2-1,0.3-1.8,0.3c-1.9,0-2.8-1.1-2.8-3.2v-4.4h-1.4v-2.2h1.4v-2.1l2.6-0.8v2.9h1.9v2.2
			h-1.9v3.9c0,1,0.4,1.5,1.1,1.5c0.3,0,0.6-0.1,0.9-0.3V157.8z"/>
		<path class="st0" d="M147.7,157.9h-2.5v-1.4h0c-0.6,1.1-1.4,1.6-2.6,1.6c-0.8,0-1.5-0.3-2-0.8c-0.5-0.5-0.7-1.2-0.7-2.1
			c0-1.9,1-2.9,3-3.2l2.3-0.3c0-1-0.5-1.6-1.5-1.6c-1,0-2,0.3-2.9,1v-2.2c0.4-0.2,0.9-0.4,1.5-0.6c0.6-0.2,1.2-0.2,1.7-0.2
			c2.4,0,3.7,1.4,3.7,4.1V157.9z M145.2,154v-0.6l-1.6,0.2c-0.9,0.1-1.3,0.6-1.3,1.3c0,0.3,0.1,0.6,0.3,0.8c0.2,0.2,0.5,0.3,0.9,0.3
			c0.5,0,0.9-0.2,1.2-0.6C145.1,155.1,145.2,154.6,145.2,154z"/>
	</g>
</g>
<g>
	<g>
		<path class="st3" d="M247.1,3.3c0,66.1,0,132.3,0.1,198.4c0,3.1-0.6,3.8-3.8,3.7c-80.1-0.1-160.2-0.1-240.3,0
			c-3.2,0-3.8-0.6-3.8-3.7c0.1-67.1,0.1-134.1,0-201.2c0-3.1,0.6-3.8,3.8-3.7c79.2,0.1,158.3,0.1,237.5,0.1
			C242.8-1,245,1.2,247.1,3.3z M218.5,54.2c0-7.9,0.1-15.8,0-23.8c0-3.9-2.1-6.6-6-6.9c-10.6-0.8-21.2-2-31.7-1.6
			c-19.9,0.8-39.5,3.6-59.6,2.1c-16-1.2-32.6-0.3-49.1,1.3c-11.9,1.1-26.2-0.6-39.3-2.1c-6.6-0.7-11.8,1.8-15,7.6
			c-7.8,14.5-0.1,30.3-2.6,44.2c-5.4,30.5-0.8,60.7-3.4,90.9c-1.2,14.2,7.2,23.1,21.6,23.7c18.3,0.8,36.7-0.8,55,0.2
			c11.9,0.7,17.4-3.8,19.1-14.8c0.8-5.2,7-3.2,9.8-6c1.4,1.4,3.4,2.5,4.2,4.2c5.8,13,15.8,17.1,30,17.2c9.8,0.1,19.7-6.5,28.3-2.7
			c16.3,7.1,29.7,0.5,29.8-16.7c0-6.4,0.1-12.8,0.1-19.2c0-3.1,1.5-5.8,4.2-6.5c7.5-2,8.1-8,7.2-13.4C216.3,106,219,80.1,218.5,54.2
			z"/>
		<path class="st3" d="M246.9,3.5c-2.2-2.1-4.3-4.3-6.5-6.4C245.9-4.1,248.1-1.9,246.9,3.5z"/>
		<path class="st4" d="M218.3,54.3c0.5,25.8-2.2,51.7,2.4,77.5c1,5.4,0.3,11.4-7.2,13.4c-2.7,0.7-4.2,3.4-4.2,6.5
			c0,6.4-0.1,12.8-0.1,19.2c-0.1,17.2-13.5,23.8-29.7,16.7c-8.6-3.7-18.4,2.8-28.2,2.7c-14.2-0.1-24.1-4.2-29.9-17.2
			c-0.8-1.7-2.7-2.8-4.1-4.2c-2.7,2.8-8.9,0.8-9.7,6c-1.7,11.1-7.1,15.5-19,14.8c-18.3-1-36.6,0.6-54.9-0.2
			c-14.4-0.6-22.7-9.5-21.5-23.6c2.5-30.2-2-60.4,3.4-90.8c2.5-13.9-5.2-29.6,2.6-44.1c3.1-5.8,8.3-8.4,14.9-7.6
			c13.1,1.5,27.3,3.2,39.2,2.1c16.4-1.5,32.9-2.4,49-1.3c20.1,1.5,39.7-1.3,59.5-2.1c10.5-0.4,21.1,0.8,31.7,1.6
			c3.9,0.3,5.9,3,6,6.9C218.3,38.5,218.3,46.4,218.3,54.3z M127.4,150.4c-1.6,22,12.4,34.3,32.4,28.4c4.7-1.4,9.9-3.1,7.9-9.4
			c-1.8-5.7-5.9-6.6-11.6-4c-3.8,1.8-8.2,1.1-11.8-1.5c-0.5-0.3-0.4-1.3-0.6-2c2.7-0.6,5.4-1.6,8.1-1.8c5.8-0.6,14.1,3.5,16.3-4.8
			c3-11.4,0.7-22.9-10.2-29.2C143.1,117.5,129,129.1,127.4,150.4z M82.1,56.7c0.1,0,0.2,0,0.3,0c0,5-0.1,10,0,15
			c0.1,3.8,1.2,6.8,6.1,6.8c4.9,0,5.3-3.3,5.5-6.7c0.4-6.4,0.5-12.7,1.1-19.1c0.1-1.6,1.6-3,2.4-4.5c1.1,1.3,2.9,2.4,3.1,3.8
			c0.7,5.5,0.8,11.1,1.2,16.7c0.2,2.8-0.2,6.5,3.8,6.6c4.3,0.2,5.7-2.7,5.8-6.9c0.1-5.4,1-10.8,1.8-16.2c0.2-1.4,1.6-2.6,2.5-3.9
			c0.7,1.3,2.1,2.7,2.2,4c0.3,6.8,0.3,13.7,0.5,20.5c0.1,3.2,0.8,5.7,4.8,5.7c4,0.1,5.6-2.1,5.7-5.6c0.1-7.7,0.6-15.5-0.1-23.2
			c-1.1-11.7-4.7-20.4-19.2-12.1c-1.1,0.7-3.7-0.6-5.4-1.4c-6.5-3.2-13.7-2.2-19.8-0.7c-4,1-1.9,7.8-2.3,12
			C81.8,50.6,82.1,53.7,82.1,56.7z M122.8,138.9c0.4-5.1-2.1-12.3-9.9-13.4c-9.7-1.4-19.7,0-29.6,0.5c-0.4,0-1,3.6-0.9,5.4
			c0.2,13.5,0.7,27,0.7,40.5c0,4.6,0.1,8.4,6.1,8.3c5.8-0.1,8.5-2.6,8.1-8.7c-0.3-4.1-1.6-9.5,5.9-9.9
			C115.8,160.8,122.5,154,122.8,138.9z M72.1,151.2c3.2-17.6-9.9-16.9-21.8-16.9c-15,0-28.1,1.6-26.9,22.2c1.1,19.7,4.5,22.1,32,23
			C79.3,180.5,72.5,164.7,72.1,151.2z M56.9,40.9c-7.9,4.9-5.1,10-0.3,12.9c9.9,6,8.6,10.7,0,16.3c-1.5,1-2,3.4-3,5.1
			c1.7,0.6,3.4,1.9,5,1.8c5.6-0.1,13.1,0.4,13.4-7c0.5-11.5,5.9-26.3-6.1-33.4c-22.3-13.3-42.6-0.5-41.4,24.6
			c0.2,4.3-0.5,11.8,4.6,11.7c5.1-0.1,8.3-6.3,8.4-12.5c0.1-6.6,0.7-13.1,1.1-19.6c1,4.3,0.1,8.9,7.4,7
			C50.4,46.7,49.9,39.9,56.9,40.9z M133.4,56.3c-0.1,16.3,8.7,24.5,23.6,22.1c3.9-0.6,10.9,0.8,9.9-6.3c-0.9-6.6-5.9-6.6-11.5-4.5
			c-2.1,0.8-5-0.3-7.5-0.8c-0.2,0-0.3-1.9-0.2-2c2.1-0.7,4.2-1.8,6.3-1.7c5.1,0.2,11.5,2.4,13.2-4.5c1.8-7.3,1-15.2-4.8-20.8
			c-5.1-4.9-11.5-5.7-18.2-2.5C134.4,39.8,134.4,48.6,133.4,56.3z M23.9,106.3c0,2.4-0.2,4.9,0.1,7.3c0.2,1.9,1.1,3.8,1.7,5.7
			c3.3-1,6.8-1.7,9.8-3.3c0.9-0.5,1.1-4.7,0.1-5.6c-10.8-10,0-11.2,5.8-14.1c4.2-2.1,11-6.5,12.9-5.1c13.7,10.3,12.7,18.2-1.6,27.1
			c-2.2,1.4-3.3,4.7-4.5,7.4c-0.2,0.4,2.2,2.7,3.4,2.7c7-0.3,16.8,3.3,19.8-5.1c4.1-11.7,6.9-27.1-2.9-35.2
			c-9.5-7.9-25.1-6.9-37.5-2.5C21.3,88.7,24.4,98.6,23.9,106.3z M207.3,56.4c0,0-0.1,0-0.1,0c0-5.9,0-11.9,0-17.8
			c0-3.6-1.1-5.9-5.3-5.6c-4,0.2-5.7,2-5.6,6.1c0.3,7.4,0.9,14.9-2.2,22c-1.2,2.7-1.9,5.8-5.8,5.4c-3.9-0.4-4.9-3.5-5-6.6
			c-0.3-6.8-0.2-13.7-0.3-20.5c0-3.2-1.5-5.1-5-5.3c-3.6-0.2-4.8,1.6-5.2,4.9c-1,8.4-0.1,16.6,0.5,24.9c1.6,21.5,19,13.7,29.3,14.4
			c9.3,0.6,2.8-10.4,4.6-16C207.8,60.5,207.3,58.4,207.3,56.4z M192.3,123.8c-4.6,0-8,0-11.4,0c-3.9,0-7.9-0.2-8.4,5.3
			c-0.4,5.3,1.7,8.1,7.2,8.1c3.1,0,4.1,2,4.1,4.8c0.2,9.4,0.7,18.8,0.7,28.2c0,5.1-0.1,9.3,7.3,9c7.3-0.3,4.9-5.3,6.2-9.2
			c3.9-11.4-10.7-28,9.8-34.8c0.6-0.2,0.8-1.9,0.9-2.9C209.3,116.4,196.6,127.4,192.3,123.8z M111.9,106.5c0.7,1.4-4.8,8.3,2.1,10.1
			c5.3,1.4,3.5-5,4.7-8c1.7-4-1.9-11.8,2.8-11.8c4.1,0,2,8.1,2.9,12.5c0.5,2.3,0.4,5,3.5,4.8c1.2-0.1,2.9-2,3.3-3.4
			c1.5-4.6-1-14,3-13.4c5.2,0.8,0.9,9.2,2,14.1c0.5,2.2-0.6,5.5,3,5.7c3.6,0.2,6.1-2.8,4.9-5.6c-3.5-8.7,10-24.6-15.5-24.7
			C111.2,86.8,108.4,88.9,111.9,106.5z M108.1,102.5c-3.1-5.6,4.4-15.3-6.6-16.8c-10.2-1.4-18.1,2.5-18.6,14.6
			c-0.6,13.7,6.5,18.7,19.3,16.8C112.6,115.6,104.5,107,108.1,102.5z M180.4,99.2c0-2.2,0.1-2.9,0-3.7c-0.5-4.2,1.9-10.1-6-10.3
			c-7.5-0.2-15-1.1-15.7,9.5c-0.5,6.8,2,10.9,9.6,10.5c0.7,0,1.4,1.1,2.1,1.7c-1.4,0.4-2.7,1-4.1,1.2c-2.6,0.4-6.1-0.6-6.3,3.5
			c-0.2,3.7,3,4.3,5.7,4.8C181.8,119,179.3,106.9,180.4,99.2z M207.2,100.5c-1.6-5.4,0.5-14.5-10.3-15.1
			c-12.2-0.8-13.1,8.2-13.4,16.7c-0.3,7.5,2.8,13.8,11.2,14.4C205.2,117.2,206.8,109.8,207.2,100.5z M150.7,85.1
			c-0.8,0.7-3,1.8-3,2.8c-0.3,8.9-0.2,17.8,0.1,26.7c0,0.8,2.7,2.4,3.3,2c1.6-0.9,3.9-2.6,4-4.1c0.3-6.3,2-12.7-0.8-18.8
			C153,91,157.4,86.4,150.7,85.1z M53.7,108.7c1-2.1,1.5-2.7,1.4-3.3c-0.1-0.6-0.9-1-1.4-1.5c-0.5,0.6-1.2,1.2-1.3,1.9
			C52.4,106.4,53,107.2,53.7,108.7z"/>
		<path class="st5" d="M127.4,150.4c1.6-21.3,15.7-32.9,30.5-24.3c11,6.3,13.3,17.8,10.2,29.2c-2.2,8.3-10.4,4.2-16.3,4.8
			c-2.7,0.3-5.4,1.2-8.1,1.8c0.2,0.7,0.2,1.7,0.6,2c3.6,2.6,8.1,3.2,11.8,1.5c5.7-2.7,9.8-1.8,11.6,4c2,6.4-3.3,8-7.9,9.4
			C139.8,184.7,125.8,172.3,127.4,150.4z M149,148.5c2.7-0.9,7.2,0.7,7.3-4c0.1-4.2-2.9-7.3-7.1-7.5c-4.3-0.2-6.2,3.4-6.5,7.3
			C142.4,148.7,146.2,147.9,149,148.5z"/>
		<path class="st5" d="M82.1,56.7c0-3-0.3-6.1,0.1-9.1c0.5-4.2-1.7-11.1,2.3-12c6.1-1.5,13.3-2.5,19.8,0.7c1.7,0.8,4.2,2.1,5.4,1.4
			c14.5-8.3,18.1,0.4,19.2,12.1c0.7,7.7,0.2,15.4,0.1,23.2c0,3.5-1.7,5.6-5.7,5.6c-4.1-0.1-4.8-2.6-4.8-5.7
			c-0.2-6.8-0.2-13.7-0.5-20.5c-0.1-1.4-1.4-2.7-2.2-4c-0.9,1.3-2.3,2.5-2.5,3.9c-0.8,5.4-1.7,10.8-1.8,16.2
			c-0.1,4.2-1.6,7.1-5.8,6.9c-4-0.2-3.6-3.8-3.8-6.6c-0.4-5.6-0.6-11.2-1.2-16.7c-0.2-1.4-2-2.5-3.1-3.8c-0.8,1.5-2.3,3-2.4,4.5
			c-0.6,6.3-0.7,12.7-1.1,19.1c-0.2,3.5-0.6,6.7-5.5,6.7c-4.9,0-6-2.9-6.1-6.8c-0.1-5,0-10,0-15C82.3,56.7,82.2,56.7,82.1,56.7z"/>
		<path class="st5" d="M122.8,138.9c-0.3,15.2-7,21.9-19.6,22.7c-7.5,0.4-6.1,5.8-5.9,9.9c0.4,6.2-2.4,8.7-8.1,8.7
			c-6,0.1-6.1-3.7-6.1-8.3c0-13.5-0.5-27-0.7-40.5c0-1.9,0.5-5.4,0.9-5.4c9.9-0.5,19.9-1.9,29.6-0.5
			C120.7,126.6,123.2,133.8,122.8,138.9z M109.4,141.7c0.3-3.3-1.8-4.4-4.5-4.3c-4.1,0.2-7.2,2.2-7.5,6.5c-0.2,2.9,1.3,5.4,4.6,5
			C106,148.4,109,146.3,109.4,141.7z"/>
		<path class="st3" d="M72.1,151.2c0.4,13.5,7.2,29.2-16.8,28.4c-27.5-1-30.8-3.3-32-23c-1.2-20.7,11.9-22.2,26.9-22.2
			C62.2,134.3,75.3,133.6,72.1,151.2z M36.1,157.5c-2.1,5.8,0,11.7,3,15.6c3.4,4.4,4.5-2.6,7.1-3.8c0.6-0.3,2.3,0,2.5,0.4
			c3.1,6.8,8.7,3.8,13.5,3.5c2.1-0.1,5,1.3,5.8-1.8c0.1-0.5-3.2-1.9-5-2.6c-5.7-2.2-3.2-6.6-2.1-9.9c1.5-4.5,1.1-7.9-1.8-11.8
			c-9.2-11.9-16.8-2.7-24.7,1.7c-1.8,1-3.6,3.7-3.7,5.7C30.5,157.6,34.1,156.5,36.1,157.5z"/>
		<path class="st6" d="M56.9,40.9c-6.9-1-6.4,5.9-10.8,7c-7.3,1.8-6.5-2.8-7.4-7c-0.4,6.5-1,13.1-1.1,19.6
			c-0.1,6.2-3.3,12.4-8.4,12.5c-5,0.1-4.4-7.5-4.6-11.7c-1.2-25.1,19.1-37.9,41.4-24.6C77.8,43.7,72.5,58.5,72,70
			c-0.3,7.5-7.8,6.9-13.4,7c-1.7,0-3.3-1.2-5-1.8c1-1.7,1.5-4.1,3-5.1c8.6-5.6,9.9-10.3,0-16.3C51.8,50.9,48.9,45.7,56.9,40.9z
			 M62.7,71.5c0,0.4,0,0.8,0,1.2c1.1-0.1,2.2-0.1,3.3-0.2c0-0.3,0-0.7,0-1C64.8,71.5,63.8,71.5,62.7,71.5z"/>
		<path class="st5" d="M133.4,56.3c1.1-7.7,1.1-16.5,10.6-20.9c6.8-3.1,13.2-2.4,18.2,2.5c5.8,5.6,6.6,13.5,4.8,20.8
			c-1.7,6.8-8.1,4.7-13.2,4.5c-2.1-0.1-4.2,1-6.3,1.7c-0.2,0.1,0,1.9,0.2,2c2.5,0.4,5.4,1.6,7.5,0.8c5.6-2.1,10.6-2.1,11.5,4.5
			c1,7.1-6,5.7-9.9,6.3C142.1,80.8,133.3,72.6,133.4,56.3z M151.5,44.8c-2.9,0.2-4.9,1.4-5.1,4.6c-0.2,3.3,1.8,4.1,4.6,4.2
			c2.6,0,5-0.4,5.1-3.7C156.1,46.7,154.8,44.9,151.5,44.8z"/>
		<path class="st5" d="M23.9,106.2c0.5-7.6-2.6-17.5,6.9-20.8c12.5-4.3,28-5.4,37.5,2.5c9.8,8.1,7,23.5,2.9,35.2
			c-3,8.4-12.8,4.8-19.8,5.1c-1.1,0.1-3.5-2.3-3.4-2.7c1.2-2.6,2.3-6,4.5-7.4c14.3-8.9,15.3-16.8,1.6-27.1
			c-1.9-1.4-8.6,2.9-12.9,5.1c-5.8,2.9-16.6,4.2-5.8,14.1c1,0.9,0.8,5.1-0.1,5.6c-3,1.6-6.5,2.3-9.8,3.3c-0.6-1.9-1.4-3.8-1.7-5.7
			C23.7,111.1,23.9,108.7,23.9,106.2z"/>
		<path class="st5" d="M207.3,56.4c0,2,0.5,4.1-0.1,5.9c-1.8,5.5,4.7,16.6-4.6,16c-10.3-0.6-27.7,7.2-29.3-14.4
			c-0.6-8.4-1.4-16.6-0.5-24.9c0.4-3.2,1.6-5.1,5.2-4.9c3.5,0.2,5,2,5,5.3c0.1,6.8,0,13.7,0.3,20.5c0.1,3.1,1.1,6.3,5,6.6
			c3.8,0.4,4.6-2.7,5.8-5.4c3.1-7.1,2.5-14.6,2.2-22c-0.2-4.1,1.6-5.9,5.6-6.1c4.2-0.2,5.4,2.1,5.3,5.6c0,5.9,0,11.9,0,17.8
			C207.2,56.4,207.3,56.4,207.3,56.4z"/>
		<path class="st5" d="M192.3,123.8c4.3,3.7,17-7.3,16.5,8.5c0,1-0.3,2.7-0.9,2.9c-20.5,6.8-5.9,23.4-9.8,34.8
			c-1.3,3.9,1.1,8.9-6.2,9.2c-7.4,0.3-7.2-3.9-7.3-9c-0.1-9.4-0.6-18.8-0.7-28.2c-0.1-2.9-1-4.8-4.1-4.8c-5.6,0-7.7-2.8-7.2-8.1
			c0.4-5.5,4.4-5.3,8.4-5.3C184.3,123.8,187.7,123.8,192.3,123.8z"/>
		<path class="st5" d="M111.9,106.5c-3.4-17.6-0.6-19.7,16.7-19.6c25.5,0.1,12.1,16,15.5,24.7c1.1,2.8-1.4,5.8-4.9,5.6
			c-3.6-0.2-2.5-3.4-3-5.7c-1.2-5,3.1-13.4-2-14.1c-4-0.6-1.5,8.7-3,13.4c-0.5,1.4-2.1,3.3-3.3,3.4c-3.1,0.2-3-2.6-3.5-4.8
			c-0.9-4.4,1.2-12.5-2.9-12.5c-4.8,0-1.1,7.7-2.8,11.8c-1.3,3,0.5,9.4-4.7,8C107.1,114.8,112.5,107.8,111.9,106.5z"/>
		<path class="st5" d="M108.1,102.5c-3.5,4.4,4.5,13.1-5.9,14.6c-12.8,1.9-19.9-3.1-19.3-16.8c0.5-12.1,8.4-16,18.6-14.6
			C112.4,87.2,105,96.9,108.1,102.5z M99.4,99.5c-0.6-2.6,1.1-7.2-4-6.8c-5.1,0.3-4.7,4.8-4.7,8.4c0,3.3,0.4,8,4.5,7.7
			C100.3,108.5,99.1,103.3,99.4,99.5z"/>
		<path class="st5" d="M180.4,99.2c-1.1,7.7,1.5,19.8-14.8,17.1c-2.7-0.4-5.9-1-5.7-4.8c0.3-4.1,3.7-3.1,6.3-3.5
			c1.4-0.2,2.7-0.8,4.1-1.2c-0.7-0.6-1.4-1.7-2.1-1.7c-7.7,0.4-10.1-3.7-9.6-10.5c0.7-10.6,8.3-9.7,15.7-9.5c7.9,0.2,5.5,6,6,10.3
			C180.5,96.2,180.4,97,180.4,99.2z M172.1,94.2c-1.1-1-1.9-1.8-2.7-2.5c-0.8,1-2.1,2-2.2,3.2c-0.1,0.8,1.4,1.8,2.2,2.7
			C170.2,96.6,171,95.6,172.1,94.2z"/>
		<path class="st5" d="M207.2,100.5c-0.5,9.2-2.1,16.7-12.4,16c-8.5-0.6-11.6-6.9-11.2-14.4c0.3-8.5,1.2-17.5,13.4-16.7
			C207.7,86.1,205.7,95.1,207.2,100.5z M199.9,100.7c-0.3-3,0.4-7.2-4.2-7.1c-4.6,0-4.6,4.2-4.5,7.5c0,3.3,0.3,7.7,4.5,7.6
			C200.1,108.5,199.5,103.9,199.9,100.7z"/>
		<path class="st5" d="M150.7,85.1c6.7,1.4,2.3,5.9,3.5,8.6c2.8,6.2,1.1,12.6,0.8,18.8c-0.1,1.5-2.3,3.2-4,4.1
			c-0.6,0.3-3.3-1.3-3.3-2c-0.3-8.9-0.3-17.8-0.1-26.7C147.7,86.8,149.9,85.8,150.7,85.1z"/>
		<path class="st7" d="M53.7,108.7c-0.7-1.6-1.3-2.3-1.2-2.9c0.1-0.7,0.8-1.3,1.3-1.9c0.5,0.5,1.3,0.9,1.4,1.5
			C55.2,106,54.6,106.7,53.7,108.7z"/>
		<path class="st4" d="M149,148.5c-2.8-0.7-6.6,0.2-6.3-4.2c0.3-3.9,2.2-7.4,6.5-7.3c4.2,0.2,7.2,3.2,7.1,7.5
			C156.1,149.2,151.6,147.6,149,148.5z"/>
		<path class="st4" d="M109.4,141.7c-0.4,4.6-3.4,6.7-7.5,7.2c-3.3,0.4-4.8-2.1-4.6-5c0.4-4.3,3.4-6.3,7.5-6.5
			C107.6,137.2,109.7,138.4,109.4,141.7z"/>
		<path class="st4" d="M36.1,157.5c-2-1-5.7,0.1-5.5-3c0.1-2,1.9-4.7,3.7-5.7c7.8-4.3,15.5-13.6,24.7-1.7c3,3.9,3.3,7.3,1.8,11.8
			c-1.1,3.3-3.6,7.6,2.1,9.9c1.8,0.7,5.1,2.2,5,2.6c-0.8,3.1-3.7,1.7-5.8,1.8c-4.8,0.3-10.5,3.4-13.5-3.5c-0.2-0.4-1.8-0.7-2.5-0.4
			c-2.6,1.2-3.6,8.3-7.1,3.8C36.2,169.3,34,163.3,36.1,157.5z M48.3,157.3c2.2-1.1,6.5,1.3,6.5-2.6c0-2.5-3-6-6.4-5.1
			c-3,0.7-7.9,3.5-7.8,4.9C41.1,158.2,45.5,156.5,48.3,157.3z"/>
		<path class="st8" d="M62.7,71.5c1.1,0,2.1,0,3.2,0c0,0.3,0,0.7,0,1c-1.1,0.1-2.2,0.1-3.3,0.2C62.7,72.2,62.7,71.9,62.7,71.5z"/>
		<path class="st4" d="M151.5,44.8c3.3,0.1,4.6,1.9,4.5,5c-0.1,3.4-2.4,3.8-5.1,3.7c-2.7,0-4.8-0.8-4.6-4.2
			C146.6,46.2,148.5,44.9,151.5,44.8z"/>
		<path class="st4" d="M99.4,99.5c-0.3,3.8,0.9,8.9-4.2,9.3c-4.1,0.3-4.4-4.4-4.5-7.7c0-3.6-0.4-8.1,4.7-8.4
			C100.6,92.4,98.8,96.9,99.4,99.5z"/>
		<path class="st4" d="M172.1,94.2c-1.1,1.4-1.9,2.4-2.7,3.3c-0.8-0.9-2.3-1.9-2.2-2.7c0.1-1.1,1.4-2.1,2.2-3.2
			C170.2,92.4,171,93.2,172.1,94.2z"/>
		<path class="st4" d="M199.9,100.7c-0.5,3.2,0.2,7.8-4.2,7.9c-4.2,0.1-4.5-4.3-4.5-7.6c0-3.2-0.1-7.4,4.5-7.5
			C200.3,93.6,199.6,97.7,199.9,100.7z"/>
		<path class="st3" d="M48.3,157.3c-2.8-0.8-7.2,0.9-7.6-2.8c-0.2-1.4,4.8-4.2,7.8-4.9c3.4-0.8,6.4,2.6,6.4,5.1
			C54.8,158.6,50.5,156.2,48.3,157.3z"/>
	</g>
</g>
</svg>
