<?xml version="1.0" encoding="utf-8"?>
<!-- Generator: Adobe Illustrator 25.2.1, SVG Export Plug-In . SVG Version: 6.00 Build 0)  -->
<svg version="1.1" id="Camada_1" xmlns="http://www.w3.org/2000/svg" xmlns:xlink="http://www.w3.org/1999/xlink" x="0px" y="0px"
	 viewBox="0 0 247.2 202.1" style="enable-background:new 0 0 247.2 202.1;" xml:space="preserve">
<style type="text/css">
	.st0{fill:#092746;}
	.st1{fill:#CF3528;}
	.st2{fill:#092846;}
	.st3{fill:#092845;}
	.st4{font-family:'MyriadPro-Regular';}
	.st5{font-size:14.9505px;}
	.st6{letter-spacing:1;}
</style>
<g>
	<path class="st0" d="M211.3,128.6c6.3,3.7,12.1,4.5,18.2,3.2c3.5-0.8,6.5-2.4,6.9-6.4c0.4-3.8-2.3-5.6-5.2-6.9
		c-3.7-1.6-7.5-2.9-11.2-4.5c-4-1.7-7.1-4.4-8.1-8.8c-1.3-5.7,1.1-10.5,6.6-13.1c6.9-3.2,13.9-2.9,20.9-0.6c3.6,1.2,5.2,3.5,3.9,7.6
		c-3.2-2.1-6.5-3.7-10.3-4.3c-2.5-0.4-4.9-0.7-7.4,0c-2.7,0.8-5.3,2.1-5.7,5.2c-0.5,3.2,1.8,5.1,4.3,6.3c4.1,2,8.4,3.5,12.5,5.5
		c4.5,2.2,8,5.3,8.2,10.9c0.2,7.2-4.7,12.5-13.2,13.8c-5.7,0.9-11.4,0.2-17.1-1C211,134.6,212.5,131.7,211.3,128.6z"/>
	<g>
		<path class="st1" d="M109.8,133c0-17.6-0.1-35.3-0.1-52.9c0-0.9,0.1-1.9-0.2-2.6c-0.2-0.5-0.8,0.1-1,0.6c-0.6,0.8-1.2,1.6-1.8,2.3
			h0c-7.2,4.7-11.6,4.6-18.6-0.8c-0.3-0.8-0.5-1.6-1.5-1.8c0,18.6,0,37.1,0,55.5c-1,3.8,1.5,3.4,3.8,3.1c2.8,0.3,1.6-1.9,1.6-2.9
			c0-15.6,0-31.2-0.1-46.8c3.1,0,6.3,0.1,9.4-0.2c2.7-0.2,3.2,0.9,3.2,3.3c-0.1,14.4,0.1,28.8,0.1,43.2c0,2-0.3,3.7,2.8,3.7
			C110.5,136.6,109.8,134.7,109.8,133z"/>
		<path class="st1" d="M106.3,61.8c0.8,1,1.6,2.1,3.1,3.9c0-4.5,0-8,0-11.4c0-1-0.6-1.3-1.5-1.3c-6.5-2.2-13-1.7-19.6-0.4
			c-0.8,0.2-2.1,0.2-2.1,1.3c-0.1,3.6,0,7.2,0,11.7C92.6,57.8,98.2,56.9,106.3,61.8z"/>
	</g>
	<path class="st2" d="M158.4,112.1c-0.6-12.3-6.3-18.7-18-20.7c-2.9-0.3-5.7-0.3-8.6,0h0c0,0,0,0,0,0c-11.1,1.6-16.9,7.3-18.7,18.6
		c-0.7,6.3-0.2,12.6-0.3,19c-0.1,7.7,0,7.6,7.7,7.6c2.3,0,2.8-0.7,2.8-2.8c-0.1-8.9,0-17.8,0-26.7l0,0c0.4-1.2,0.9-2.4,1.3-3.6
		c2.2-5.4,6.1-7.4,13.3-6.8c5.3,0.4,8.3,3.2,9.4,8.7c0.3,1.6,0,3.4,0.8,4.9c0,8.1,0,16.3,0,24.4c0,0.7-0.3,1.6,0.9,1.7c0,0,0,0,0,0
		c0,0,0,0,0,0c2.3,0,4.7,0,7,0.1c1.7,0.1,2.5-0.3,2.5-2.3C158.5,126.9,158.7,119.5,158.4,112.1z M117.8,136.2c0.5,0,1,0,1.6,0
		C118.8,136.2,118.3,136.2,117.8,136.2z"/>
	<path class="st2" d="M83.1,112.1c-0.5-8.7-3.3-16.5-12.7-19.4c-9.2-2.8-18.3-2.7-26.1,4c-1.1,0.9-1.7,1.1-2.8,0.1
		c-4.9-4.5-11.1-5.5-17.5-5.2c-12.9,0.7-20.3,7.7-21.5,20.1c-0.1,7.9-0.1,15.7-0.2,23.6c0,0.6,0,1.3,0.9,1.4c0,0,0,0,0,0
		c0,0,0,0,0,0c1,0.3,2.1,0.4,3.1,0c0.6,0.1,1.3,0.1,1.9,0.2c3.9,0.8,4.7-0.9,4.6-4.6c-0.3-7.9-0.1-15.8-0.1-23.7l0,0
		c1.2-5.1,3-9.7,8.6-11.5c2.8,0,5.7,0,8.5,0c0,0,0,0,0,0c0,0,0,0,0,0c2.8,1.2,5.2,2.9,6.2,5.9c0.7,2.3,1.2,4.7,1.7,7.1
		c0,6.5,0,12.9-0.1,19.4c0,7.3,0,7.2,7.3,7.3c2.7,0,3.2-0.9,3.1-3.3c-0.1-8.8-0.1-17.6-0.1-26.4l0,0c1.5-4.6,3-9.1,8.8-10.3
		c8.2-1.6,12.1,0.3,15.4,7.8c0.9,8.1,0.4,16.3,0.7,24.5c0.1,2.5-1.7,6,1.1,7.3c2.2,1.1,5.4,0.2,8.1,0.2c1.1,0,1.2-0.7,1-1.6
		C83.2,127.3,83.5,119.7,83.1,112.1z"/>
	<path class="st3" d="M208.4,74.9c0-7.6,0-7.4-7.7-7.4c-2.4,0-3.1,0.7-3,3.1c0.2,7.4,0.1,14.7,0.1,22.4c-2.3-0.8-4.2-1.6-6.2-2
		c-8.8-1.8-17.5-1.7-24,5.4c-7.1,7.9-7.3,17.5-4.3,27.1c2.8,8.6,9.6,12.2,18.2,12.8c12.3,0.9,21.7-2.7,25.4-13
		c1.3-3.7,1.7-7.6,1.7-11.5C208.5,99.5,208.5,87.2,208.4,74.9z M197,122.6c-1.9,6.3-5.7,8.7-13.5,8.4c-5.9-0.2-9.5-3.3-10.9-9.2
		c-0.3-1.1-0.5-2.2-0.8-3.4c0-3.5,0-7,0.1-10.5c0.9-2.4,1.1-5,2.4-7.3c1.7-3,4.6-4.4,7.8-5.4c2,0,4,0,6,0c6.8,2.2,9.4,7.2,9.6,13.9
		C197.9,113.6,198.4,118.2,197,122.6z"/>
	<text transform="matrix(1 0 0 1 112.7578 153.2256)" class="st1 st4 st5 st6">english school</text>
</g>
</svg>
