<?xml version="1.0" encoding="utf-8"?>
<!-- Generator: Adobe Illustrator 25.2.1, SVG Export Plug-In . SVG Version: 6.00 Build 0)  -->
<svg version="1.1" id="Camada_1" xmlns="http://www.w3.org/2000/svg" xmlns:xlink="http://www.w3.org/1999/xlink" x="0px" y="0px"
	 viewBox="0 0 247.2 202.1" style="enable-background:new 0 0 247.2 202.1;" xml:space="preserve">
<style type="text/css">
	.st0{fill:#78B0D2;}
	.st1{fill:#605F61;}
	.st2{fill:#606061;}
	.st3{fill:#E2E7EB;}
	.st4{fill:#DDE8EE;}
	.st5{fill:#7CB0CD;}
	.st6{fill:#7BB0CF;}
	.st7{fill:#7DAFCE;}
	.st8{fill:#E5E5E6;}
	.st9{fill:#7DB1D0;}
	.st10{fill:#7AB1CD;}
	.st11{fill:#E4E3E5;}
	.st12{fill:#DAE8F0;}
	.st13{fill:#E5E4E5;}
	.st14{fill:#E5E4E6;}
	.st15{fill:#E3E2E3;}
	.st16{fill:#7DB1CC;}
	.st17{fill:#DEE7EC;}
	.st18{fill:#E4E4E6;}
	.st19{fill:#E1E8EA;}
	.st20{fill:#E1E1E2;}
	.st21{fill:#7BB0CE;}
	.st22{fill:#DDE8EB;}
	.st23{fill:#7AB1D0;}
	.st24{fill:#DDE7ED;}
	.st25{fill:#DFE7EB;}
	.st26{fill:#E1E6EB;}
	.st27{fill:#E0E0E1;}
	.st28{fill:#E0E7EB;}
	.st29{fill:#DCE7EF;}
	.st30{fill:#E4E4E4;}
	.st31{fill:#E0E7EC;}
	.st32{fill:#DEE6E9;}
	.st33{fill:#E2E9EC;}
	.st34{fill:#E4E7EA;}
	.st35{fill:#DAE8EE;}
	.st36{fill:#DBE6EB;}
	.st37{fill:#DBDBDD;}
	.st38{fill:#88B4CD;}
	.st39{fill:#DEE4EA;}
	.st40{fill:#9EBECD;}
	.st41{fill:#9DBCCD;}
	.st42{fill:#C2DAE9;}
	.st43{fill:#E3E2E4;}
	.st44{fill:#DCE7ED;}
	.st45{fill:#7BB0D0;}
	.st46{fill:#7CB0CF;}
	.st47{fill:#7BB1CF;}
	.st48{fill:#F7FBF9;}
	.st49{fill:#D9E3EC;}
	.st50{fill:#F7FAF6;}
	.st51{fill:#DAE4ED;}
	.st52{fill:#DBE7EB;}
</style>
<g>
	<path class="st0" d="M4.7,61c2.6-5.3,5.8-10.3,10-14.5c5.6-5.6,11.5-6.7,18.7-3.2c3.2,1.5,6.4,2.4,9.9,1.4c1.4-0.4,2.5-1.1,3.7-1.7
		c0.6-0.2,1.1-0.5,1.3,0.4c-1.4,1.9-2.9,3.6-5,4.7c-3.2,2-6.7,1.5-10.1,1.2c-1.9-0.2-3.8-0.6-5.8-0.6c-2.4,0-4.7,0.7-6.7,1.9
		c-2.8,1.9-3.7,4.9-4.1,7.9c-1.7,10.9-2.3,21.9-1,32.9c0.7,6.6,1.7,13.1,3.5,19.5c0.6,2.1,1.2,4.2,2.5,5.9c0.7,1,1.5,1.5,2.5,0.4
		c1.3-1.6,1.5-3.6,1.9-5.5c1.3-5.4,1.9-10.8,2.6-16.3c0.6-5.2,1.4-10.4,4-15.1c0.7-1,1.2-2,2-2.9c2-2.5,4.6-2.3,6.3,0.4
		c2.1,3.3,3,7.1,3.3,10.9c1.6,20.2-3.3,38.8-14.6,55.6c-0.1,0.2-0.3,0.3-0.4,0.5c-1.4-0.1-1.4-1.4-1.7-2.2
		c-3.1-8.6-6.8-16.8-11-24.9c-2.9-5.6-6.5-10.7-9.3-16.4C3.4,93.9,1.1,86,0.9,77.8C0.8,72,1.8,66.3,4.7,61z"/>
	<path class="st0" d="M69.3,28.4c3.6-1,7.2-1.4,10.9-1.3c10.3,0.3,17.6,6.9,18.9,17.2c1,8.2-1,15.9-4.1,23.4
		c-6.5,15.2-16.8,27.7-29,38.7c-2.6,2.3-5.1,4.7-8.3,7c1-3.6,3.1-6.3,4.1-9.4c2.9-6.7,5.6-13.6,7.9-20.6c3.3-10.3,6-20.8,6.8-31.7
		c0.3-4.4,0.1-8.7-0.9-13c-0.8-3.7-2.7-6.5-6.4-7.9C68.3,29.7,67.6,29,69.3,28.4z"/>
	<path class="st1" d="M116.3,58.5c0.9-2.2,3.9-3.3,5.9-2.2c0.8,0.5,0.8,1.1,0.7,1.9c-2,11.9-0.4,23.3,3.8,34.5
		c0.6,1.6,1.5,3.1,2.8,4.4c2.2,2.3,4.8,2.5,7.3,0.4c2-1.6,3.4-3.7,4.4-6c2.5-5.8,4.4-11.7,5.5-17.9c0.9-5.7,1.8-11.3-0.8-16.8
		c-0.3-0.7-0.5-1.5-0.1-2.2c1.9-1.9,2.2-1.9,3.9,0.1c2.5,2.8,3.5,6.3,3.4,9.9c-0.5,12.1-4.1,23.1-11.6,32.8c-1.3,1.7-2.9,3-4.6,4.2
		c-4.3,2.7-9.8,1.6-13.2-2.7c-3.1-3.9-4.7-8.5-5.7-13.3c-0.8-3.6-1.3-7.2-1.4-11c-0.4,0.9-0.7,1.8-1.6,2.3c-2.6,5.8-5.3,11.6-8.7,17
		c-3.2,5-6.8,9.5-11.8,12.8c-2.5,1.4-5,2.2-7.9,1.8c-2.6-0.3-4.5-1.7-5.6-4c-0.4-0.8-0.4-1.6,0-2.4c0.6-1.5,1.3-1.5,2.1-0.2
		c1.9,3.1,4.4,4,7.9,2.7c2.9-1.1,5.2-3,7.2-5.2c3.6-4.1,6.4-8.6,8.5-13.6c1.1-3.1,2.5-6,3.6-9.1c1.9-5.3,3.5-10.7,5.1-16.1
		C115.7,59.9,116,59.2,116.3,58.5z"/>
	<path class="st1" d="M165,94.6c-1.4,1.6-2.9,3.2-4.6,4.6c-0.7,0.6-1.6,0.9-2.4,1.3c-1.6,0.8-3.1,0.8-4.5-0.3
		c-1.4-1.1-1.8-2.7-1.3-4.3c0.8-3.4,1.9-6.7,3.1-9.9c0.6-1.6,1-3.3,1.3-5c-1.5-0.1-2,1.1-2.8,1.7c-1.9,0.4-2.1,0.1-1.6-1.8
		c1.5-1.5,2.9-3.3,4.8-4.3c1.5-0.8,3.2-1.4,4.7-0.3c1.6,1.2,1.4,2.9,0.9,4.6c-1.4,4.4-2.9,8.7-4.3,13.1c-0.3,0.8-0.9,1.8-0.2,2.3
		c0.9,0.6,1.9-0.2,2.6-0.8c3.9-3.6,7-7.8,8.9-12.8c0.7-1.8,1.2-3.6,1.8-5.3c0.4-1.1,4.3-1.8,4.9-0.8c0.4,0.6,0,1.3-0.2,2
		c-1.6,5.5-3.2,11-4.9,16.4c-0.1,0.4-0.4,0.8-0.1,1.2c0.7-0.3,0.9-1,1.3-1.5c0.4-0.5,0.6-1.4,1.5-0.9c1,0.6,0.7,1.3,0.2,2.1
		c-1,1.6-2.3,3-3.8,4.2c-1.3,0.9-2.6,1.4-4,0.2c-2.2-1.9-0.8-4.2-0.4-6.3c0.3-0.2-0.2-0.4,0.1-0.2c0,0,0,0.1-0.1,0.2
		C165.8,94.3,165.4,94.4,165,94.6z"/>
	<path class="st1" d="M179.2,77.4c2.7-0.5,5.5-1,8.2-1.6c1.5-0.3,1.7,0.3,1.3,1.6c-0.6,2.1-1.2,4.3-2,7c1.4-1.7,2.4-2.9,3.5-4.1
		c1.6-1.8,3.4-3.5,5.8-4.3c3.8-1.2,6.6,1.1,5.7,5c-1.1,4.7-2.8,9.2-4.4,13.7c-0.1,0.4-0.8,0.8-0.2,1.2c0.7,0.5,0.7-0.5,1.1-0.7
		c0.9-0.5,1.4-2.7,2.8-1.3c1.1,1.1-0.7,2-1.3,2.8c-1,1.6-2.6,2.7-4.2,3.7c-2.4,1-4.1-0.1-4.3-2.6c-0.1-1.9,0.7-3.7,1.3-5.4
		c0.9-2.9,2.1-5.7,2.8-8.7c0.2-0.9,0.8-1.9,0.1-2.6c-0.7-0.7-1.6,0.3-2.5,0.4c-5,4.6-8.6,10.1-10.3,16.7c-0.2,0.7-0.3,1.4-1,1.8
		c-0.4,0.4-1,0.5-1.5,0.6c-2.5,0.4-3.4-0.5-2.8-3c1.2-4.9,2.9-9.7,4.1-14.6c0.4-1.7,0.8-3.2-1.7-3.5C178.7,79.3,179,78.2,179.2,77.4
		z"/>
	<path class="st2" d="M230.9,79.9c2.4-4,5.5-5.2,9.9-3.6c1.2,0.4,2.2,0.9,3.2-0.3c0.4-0.5,1.1-0.4,1.6-0.1c0.5,0.3,0.3,0.9,0.2,1.3
		c-0.5,2.5-1,4.9-1.5,7.4c-2.1,0.4-2.2,0.3-2.7-1.9c-0.6-2.9-1.4-3.6-3.7-3.8c-1.1-0.1-1.9,0.2-2.5,1.1c-0.4,1.3,0.3,2.3,1,3.2
		c1.1,1.3,2.2,2.5,3.3,3.8c3.1,3.8,4.5,7.8-0.5,12.2c-2.6,2.1-5.4,2.3-8.5,1.3c-1.3-0.4-2.6-0.4-3.9,0.1c-1.1,0.4-2.1,0-1.9-1.3
		c0.3-2.3,0.3-4.7,1.6-6.8c0.2-0.7,0.3-1.5,1.4-1.4c1.1,0.1,0.9,1,1.1,1.7c0.7,4.4,2.3,5.8,6,5.2c2.1-1.1,2.5-3.2,1.1-5.4
		c-1.3-2.1-3-3.9-4.4-5.8C230.3,84.6,229.8,82.4,230.9,79.9z"/>
	<path class="st3" d="M4.7,61c-0.8,3.2-2.1,6.3-2.6,9.6c-1.5,8.6,0.1,16.7,3,24.8c2.5,7,6.6,13.2,10.3,19.6
		c4.1,7.2,7.5,14.8,10.7,22.5c1,2.4,1.5,5.1,3,7.3c-1.9,1.7-1.8,1.7-2.6-0.5c-2.8-7.5-5.8-14.8-9.4-21.9c-2.8-5.4-6.3-10.5-9.2-15.8
		c-5.1-9.3-8.4-19.2-7.7-30.1c0.3-4.8,1.3-9.6,3.4-14C3.8,61.9,4,61.3,4.7,61z"/>
	<path class="st4" d="M69.3,30.1c5.8,1.9,7,6.8,7.5,11.9c1.3,11.8-1.5,23.2-4.6,34.5c-2.3,8.5-5.6,16.6-8.9,24.7
		c-0.4,1-0.7,2-1.5,2.7c0.4-2.6,1.5-5.1,2.6-7.4c1.5-3.2,2.3-6.6,3.7-9.9c1.9-4.5,2.9-9.4,4.3-14.1c1.2-3.8,1.9-7.8,2.4-11.8
		c0.6-4.3,1.1-8.7,0.9-13.1c-0.1-4-0.8-7.8-2.4-11.4c-1-2.3-2.8-3.6-5-4.4c-0.9-0.3-1.8-0.5-2.8-0.7c0-0.7,0.6-0.6,0.9-0.9
		c-0.4-0.5-1.2,0.1-1.5-0.7c0.5-0.7,1.1-0.8,1.9-0.7C67.4,29.7,68.6,29.3,69.3,30.1z"/>
	<path class="st5" d="M144.9,117.3c1.7-2.4,3.9-3.7,6.9-3.4c2.5,0.3,3.9,1.7,4,4.2c0.1,3.4-1.4,6-4.2,7.9c-1.6,1-3.4,0.8-5.1,0.4
		c-2.5-0.7-3.7-3.5-2.8-6.5C144,119,144.3,118,144.9,117.3z"/>
	<path class="st6" d="M209.5,121.4c-0.9,1.6-1.7,3.2-3.3,4.3c-1.6,1.2-3.5,1.2-5.4,0.8c-2-0.4-3.1-1.9-3.2-4.3
		c-0.1-1.5,0.3-2.9,1-4.2c1.3-1.9,2.6-3.7,5.2-4.1c4.3-0.7,6.1,1,6.1,5.8C209.4,120.2,210.2,121,209.5,121.4z"/>
	<path class="st7" d="M159.2,114.3c0.9,0.1,2.1-0.9,2.5,0.9c0.1,0.7,0.5,0.1,0.7,0c0.2-0.1,0.5-0.3,0.7-0.5c1.4-0.9,2.8-1.3,4.3-0.4
		c1.3,0.8,1.7,2.1,1.3,3.6c-0.1,0.5-0.1,1-0.2,1.4c-0.3,1.8-0.7,3.5-1,5.3c-0.1,0.6-0.2,1.3-1.1,1.3c-2.1,0.6-2.8,0.1-2.4-1.9
		c0.2-1.4,0.6-2.8,0.8-4.3c0.3-2.5,0.2-2.6-2.2-1.8c-1.7,1.5-1.5,3.8-2,5.7c-0.2,0.9,0,2-1.3,2.3c-2.1,0.6-2.8,0.2-2.4-2
		C157.3,120.8,157.6,117.4,159.2,114.3z"/>
	<path class="st8" d="M115,76.9c0.5-1.3,1.1-2.5,1.6-3.8c0.1,0,0.2,0,0.4,0c0.2,2.2,0.4,4.4,0.6,6.6c0.7,5.6,1.8,11.2,4.6,16.1
		c2.4,4.2,5.7,7,10.9,6.8c1.4-0.1,2.5-0.7,3.8-1c-3.5,3.8-9,3.3-12.7,0.1c-3.7-3.3-5.5-7.6-6.6-12.4c-0.8-3.7-1.5-7.4-1.8-11.2
		C115.9,77.6,115.5,77.2,115,76.9z"/>
	<path class="st9" d="M175.1,118.1c-0.2,1.5-0.9,3-0.8,4.6c0.4,0.9,1.1,0.6,1.8,0.6c0.7,0.1,1.1,0.3,0.7,1c-0.4,0.6-0.4,1.4-1.3,1.7
		c-1.3,0.8-2.7,0.8-3.9-0.1c-1.1-0.9-1.3-2.1-1-3.6c0.3-2,1.2-4,0-6c-0.3-0.4,0-1.1,0.3-1.6c0.9-0.8,2.1-1.1,2.4-2.6
		c0.2-1.1,1.4-0.8,2.3-0.8c1.1,0.1,0.7,0.9,0.6,1.6c-0.2,0.8,0,1.3,1,1.3c2,0,1.5,1,1,2.2C177,116.9,175.5,116.5,175.1,118.1z"/>
	<path class="st2" d="M212,90.4c2-0.3,4.1-0.6,5.9-1.8c2.8-1.3,5.6-2.7,7.3-5.4c2.4-3.7,0.6-7.3-3.8-7.6c-2.6-0.2-5,0.3-7.3,1.5
		c-3.5,1.7-6,4.5-8,7.8c-1.2,1.7-1.7,3.6-2.2,5.6c-1.3,5.3,2.6,10.4,8,10.5c2.7,0.1,5-0.8,7.2-2.4c1.3-1.1,2.7-2.1,4-3.3
		c0.7-0.6,1.8-1.2,0.8-2.4c-0.9-1-1.5,0.2-2.1,0.6c-1.9,1.2-3.6,2.6-5.9,3c-2.8,0.5-4.9-0.6-6-3.2C209.5,90.8,209.5,90.9,212,90.4z
		 M210.5,86.6c1.1-2.7,2.2-5.2,4.9-6.7c0.6-0.3,1.2-0.6,1.9-0.7c2.6-0.1,3.5,1,2.7,3.6c-2,3.1-5.3,4-8.6,4.8
		C210.5,87.8,210.1,87.5,210.5,86.6z"/>
	<path class="st10" d="M194.7,110.1c0.3-1.5,1.4-1.3,2.4-1.1c1,0.2,0.6,1.1,0.5,1.7c-0.9,4.7-1.9,9.3-2.8,14
		c-0.1,0.6-0.3,1.1-0.9,1.3c-1.9,0.6-2.8,0.2-2.6-1.5c0.7-4.6,1.6-9.1,2.8-13.6C194.3,110.7,194.6,110.4,194.7,110.1z"/>
	<path class="st11" d="M145.7,54.8c0.5,1.7,1.1,3.3,1.6,5c1.5,4.9,0.6,9.8-0.4,14.7c-1.2,6-2.7,11.9-5.9,17.3
		c-0.2-1.5,0.7-2.7,1.2-3.9c2.6-6.7,4-13.6,4.3-20.8c0.1-2.8-0.6-5.4-1.5-7.9C144.4,57.3,144.3,56,145.7,54.8z"/>
	<path class="st12" d="M32.4,80.4c-1.3,4-2.5,8.1-3,12.3c-0.8,6.3-1.3,12.7-2.9,18.9c-0.5,1.9-0.6,4.2-2.5,5.6
		c1.9-6.5,2.8-13.1,3.4-19.8c0.5-5.3,1.6-10.5,3.8-15.5C31.4,81.3,31.6,80.6,32.4,80.4z"/>
	<path class="st13" d="M206.1,84.9c-0.9,2.2-1.8,4.4-2,6.8c-0.5,5.7,4.4,9.8,10.2,8.6c1.6-0.4,3.2-1.1,4.7-1.6
		c-2.2,2.5-5.2,3.2-8.4,3.4c-2.5,0.2-4.4-0.8-6-2.5c-2-2.2-2.5-5-1.8-7.6C203.6,89.5,203.9,86.7,206.1,84.9z"/>
	<path class="st14" d="M179.2,77.4c0,1,0,1.9,1.5,1.8c2.1-0.1,2.3,0.3,1.7,2.4c-1.4,5.1-2.9,10.1-4.3,15.2c-0.9,3.2-0.9,3.2,2.4,3.1
		c0.4,0,0.8,0,1.2,0c-1.2,2.1-3.4,1.1-5.1,1.5c-0.8,0.2-0.7-1-0.5-1.8c1.7-5.6,3.2-11.3,4.9-16.9c0.4-1.4,0-2-1.4-2
		c-0.7,0-1.5,0.2-1.9-0.6c-0.4-0.9,0.4-1.2,0.9-1.7C178.9,78.2,179,77.7,179.2,77.4z"/>
	<path class="st14" d="M230.9,79.9c-0.7,3.3,0.6,6,2.7,8.4c1.2,1.4,2.4,2.8,3.3,4.3c1.5,2.4,0.8,4.6-1.8,5.4c1.5-1.2,1-2.4,0.3-3.8
		c-1.5-2.8-4.1-4.7-5.5-7.5C228.7,84.3,229,81.6,230.9,79.9z"/>
	<path class="st15" d="M153.8,82.4c0.6-1,1.5-1.7,2.3-2.3c0.3-0.3,0.7-0.6,1.1-0.3c0.4,0.3,0.1,0.8,0,1.1c-1.3,3.8-2.5,7.7-3.8,11.5
		c-0.3,1.1-0.6,2.1-0.8,3.2c-0.7,3.6,1.5,5.6,5,4.5c0.9-0.3,1.8-0.7,2.7-1.1c-3.2,2.7-5.2,4.1-7.9,2.2c-1.1-0.8-1.6-1.6-1.3-3
		c0.7-4.3,2.2-8.4,3.7-12.5c0.6-1.5,0.4-3,1.2-4.4c-1-0.1-1.2,0.7-1.8,0.9C154,82.6,153.9,82.6,153.8,82.4z"/>
	<path class="st16" d="M229.3,114.3c0,3.9-1.2,7.5-1.9,11.2c0,0.2-0.4,0.4-0.6,0.5c-1.9,0.6-2.8,0.2-2.6-1.5c0.4-3.1,0.6-6.2,2.1-9
		c0-0.3,0.1-0.5,0.1-0.8C227.1,113.3,228.2,114,229.3,114.3z"/>
	<path class="st17" d="M20.6,50.6c2.5-3,6-2.9,9.3-2.4c4.5,0.7,8.9,1.1,13.4-0.1c-1.5,1.8-3.7,2.3-5.8,2.4c-2.3,0.1-4.6,0.2-6.8-0.3
		C27.3,49.3,23.9,49.6,20.6,50.6z"/>
	<path class="st18" d="M193,81.5c0.9-0.8,2-2.1,3.2-1.4c1.1,0.7,0.2,2.2-0.2,3.2c-1.1,3.6-2.3,7.1-3.5,10.7
		c-0.2,0.7-0.5,1.5-0.6,2.2c-0.6,3.2,0.4,4.3,3.7,4.2c-0.8,1.8-2.5,2.1-4,1.5c-1.8-0.7-1.7-2.5-1.2-4.1c1.4-4.5,2.9-8.9,4.3-13.4
		C195.4,82.7,195.2,81.5,193,81.5z"/>
	<path class="st8" d="M226.7,92.5c-0.4,2-0.7,4.1-1.1,6.1c-0.1,0.6-0.4,1.3,0.2,1.7c0.6,0.3,1.2,0.2,1.7-0.4
		c0.7-0.7,1.5-0.6,2.3-0.3c3.2,1.2,6.4,1.2,9.5-0.5c-2.7,2.7-7.8,3.9-11.1,2.2c-1-0.5-1.6-0.6-2.3,0.3c-0.4,0.5-1,0.5-1.5,0.2
		c-0.5-0.3-0.4-0.8-0.3-1.3c0.2-2.4,0.7-4.7,1.3-6.9C225.6,93,225.8,92.4,226.7,92.5z"/>
	<path class="st19" d="M115.5,114.7c-0.6,2.1-1.3,4.2-1.2,6.5c0.1,2.8,1.9,4.7,4.7,4.9c1.8,0.1,3.6,0,5.4-0.4
		c-1.4,2.3-5.4,2.5-8.2,1.8c-2.2-0.6-3.2-2.2-3.2-5C112.9,119.6,113.4,116.9,115.5,114.7z"/>
	<path class="st20" d="M81,102.1c0.4,3.7,2.7,5.8,6.4,6c2.5,0.2,4.7-0.8,7.1-1.4c-2.8,2.3-6.1,3.2-9.7,3c-3.1-0.2-5.3-3-5-6
		C79.9,102.8,80.4,102.5,81,102.1z"/>
	<path class="st21" d="M123.6,109.8c-3.7,0-6.3,1.9-8.2,5c-1,1.5-1.5,3.3-1.8,5.1c-0.5,3.1,1.1,5.8,3.9,6.5c2.3,0.5,4.6,0.6,6.7-0.7
		c3.3-2,4.8-5.1,5.3-8.8C130.3,112.6,128,109.8,123.6,109.8z M123.1,122.8c-1.2,1.1-2.6,1-3.8,0.4c-1.3-0.6-1.7-1.9-1.5-3.2
		c0.2-2,0.5-4.1,2-5.7c3.5-1.7,5.7-0.4,5.6,3.5C125.3,119.8,124.5,121.4,123.1,122.8z"/>
	<path class="st22" d="M209.5,121.4c0.1-0.6,0-1.2,0.5-1.6c0.2,0.9,0.7,0.7,0.8,0c0.1-0.9,0.5-1.4,1.3-1.7c-0.2,1.6-1,3-0.7,4.7
		c0.5,3.2,2.5,4.2,5.4,2.9c0.4-0.2,0.9-0.4,1.3-0.6c0,2.6-1.5,3.7-4.2,2.9c-1.1-0.3-2-0.6-2.6,0.6
		C210.2,126.3,210,123.8,209.5,121.4z"/>
	<path class="st23" d="M190.3,117.4c-0.2-2.1-1.7-3.3-3.8-3.4c-3.4-0.3-5.7,1.2-7.3,4.1c-1.4,2.7-1.4,5.8,0.1,7.2
		c2,1.9,4.3,1.6,6.6,0.7C189.4,124.1,190.8,121.1,190.3,117.4z M186.4,120.1c-0.1,1.1-0.5,2.1-1.1,3.1c-0.9,0.7-1.9,0.7-2.7,0.1
		c-0.9-0.6-0.8-1.7-0.6-2.7c0.1-0.7,0.5-1.4,0.7-2.1c0.6-0.7,1.1-1.5,2.2-0.9C185.8,118.1,186.4,118.9,186.4,120.1z"/>
	<path class="st24" d="M176.8,124.4c-0.1-0.8-0.6-0.8-1.2-0.8c-0.6,0-1.3,0.1-1.3-0.9c2.3,0.8,2.8,0.7,3.1-1.5
		c0.2-1.3,0.7-2.3,1.8-3.1c-0.4,1.4-0.5,2.9-0.4,4.3c0.1,2.4,1.3,3.6,3.6,3.7c1.2,0,2.4,0,3.6,0
		C182.9,129.1,179.7,128.5,176.8,124.4z"/>
	<path class="st25" d="M170.9,114.7c0.2,0.7-0.4,1.7,0.8,2.1c0.6,0.2,0.4,0.7,0.3,1.2c-0.3,1.4-0.5,2.7-0.7,4.1
		c-0.6,3,0.2,4,3.2,3.9c0.3,0,0.7,0,1,0c-0.9,1.9-2.6,1.8-4.3,1.6c-1-0.1-1.5-0.8-1.6-1.8c-0.1-1.5,0.1-3,0.5-4.5
		c0.3-1.3,0.6-2.3-0.6-3.6C168.4,116.6,170.4,115.8,170.9,114.7z"/>
	<path class="st26" d="M144.9,117.3c-0.4,1.4-1,2.9-0.9,4.4c0.1,2.9,1.4,4.3,4.3,4.4c1.1,0,2.2,0,3.3-0.1c-1.4,1.8-5.2,2.4-7.2,1.2
		c-1.8-1.1-2.5-3.5-1.5-6.1C143.4,119.8,143.5,118.2,144.9,117.3z"/>
	<path class="st27" d="M116.3,58.5c-1.7,7.2-4.1,14.2-6.7,21c-0.8,2.1-1.5,4.3-2.9,6.2c-0.3-0.1-0.5-0.4-0.3-0.7
		c3.8-7.6,5.5-15.9,8.5-23.8C115.3,60.3,115,59,116.3,58.5z"/>
	<path class="st28" d="M198.6,118.1c-0.2,1.4-0.5,2.7-0.5,4.1c0.1,2.6,1.3,3.8,3.9,3.9c1.4,0.1,2.8,0,4.1-0.4c-2,2.2-6.3,2.9-8,1.4
		C196.3,125.3,195.8,120.7,198.6,118.1z"/>
	<path class="st29" d="M194.7,110.1c-0.9,4.5-1.7,9-2.7,13.5c-0.4,1.8,0,2.7,1.9,2.5c-0.5,0.5-0.9,1.1-1.4,1.5
		c-0.5,0.4-1.2,0.3-1.8,0c-0.5-0.3-0.5-0.7-0.4-1.3c1.1-4.9,1.8-9.8,3.2-14.6C193.7,110.8,194.1,110.4,194.7,110.1z"/>
	<path class="st30" d="M235.5,79.9c1.1-2.3,4.1-2.4,5.6-0.3c0.7,1,1.1,2.1,1.1,3.3c0,1.5,0.7,1.9,2.1,1.6c-0.1,0.1-0.1,0.3-0.2,0.3
		c-2.9,1.8-2.9,1.8-3.6-1.7C240,80.4,237.7,78.9,235.5,79.9z"/>
	<path class="st31" d="M231.4,118.1c-0.2,1.4-0.5,2.7-0.5,4.1c0.1,3.2,0.9,4,4,3.9c0.3,0,0.7,0,1,0c-1,2.1-3,2-4.7,1.5
		c-1.7-0.5-2.3-2-2.1-3.9C229.5,121.6,229.6,119.6,231.4,118.1z"/>
	<path class="st32" d="M131.5,117.7c-0.4,1.5-0.9,2.9-0.8,4.5c0.1,3.1,1.3,4,5,3.9c-0.9,1.7-2.4,2-4.1,1.4c-1.7-0.6-2.2-1.9-2.2-3.6
		C129.4,121.6,129.7,119.4,131.5,117.7z"/>
	<path class="st33" d="M159.2,114.3c-0.6,3.2-1.1,6.4-1.9,9.5c-0.5,1.9,0.1,2.4,1.8,2.2c-0.3,0.4-0.6,1-1,1.3
		c-0.6,0.6-1.4,0.4-2.2,0.2c-0.7-0.3-0.4-0.9-0.3-1.4c0.2-3.2,1.4-6.2,1.9-9.3C157.7,115.9,158.7,115.2,159.2,114.3z"/>
	<path class="st8" d="M165,94.6c0.6-0.8,1.2-1.5,2.2-2.8c-0.4,1.7-0.8,2.9-1,4c-0.9,3.9,0.6,5.3,4.4,4.2c-0.6,1.2-2,1.5-3,2.2
		c-1.2,0.8-3.1-0.7-3.2-2.3c0-1.4,0.1-2.7,0.7-4C165.2,95.4,165.6,95,165,94.6z"/>
	<path class="st34" d="M226.2,115.5c-0.5,2.6-1,5.1-1.5,7.7c-0.5,2.4-0.2,2.7,2,2.8c-0.3,0.7-0.8,1.2-1.4,1.5
		c-1.3,0.7-2.6-0.1-2.3-1.5c0.6-3.1,1.3-6.2,2-9.3C225.2,116.1,225.5,115.6,226.2,115.5z"/>
	<path class="st35" d="M162.4,118c0.6-0.8,1.3-1.7,2.4-1.2c1.2,0.5,0.6,1.7,0.5,2.6c-0.2,1.4-0.3,2.9-0.8,4.3
		c-0.6,1.9-0.1,2.6,1.8,2.4c-0.2,0.2-0.3,0.5-0.5,0.7c-0.6,0.6-1.2,1.3-2.2,0.9c-1.1-0.5-0.8-1.5-0.6-2.4c0.2-1.5,0.5-3,0.9-4.5
		C164.4,119.1,164.1,118.3,162.4,118z"/>
	<path class="st36" d="M211.2,129c0.3,1.1,1.2,1.2,2.1,1.3c1.5,0.1,3.1,0,4.6,0c-1.6,2.3-4,1.7-6.3,1.6c-0.6,0-1.6-0.1-1.7-1.2
		C209.8,129.7,210.5,129.3,211.2,129z"/>
	<path class="st37" d="M209.9,93.4c-0.9-2.6-0.6-3,1.9-3.4c2-0.4,4.1-0.8,6.1-1.3c-1.6,2-3.9,2.2-6.2,2.5
		C210.2,91.4,209.7,91.9,209.9,93.4z"/>
	<path class="st38" d="M227.1,110.5c0.5-1.1,1.5-1.3,2.6-1.2c0.6,0.1,0.8,0.4,0.9,1c0.1,1.1-0.2,1.9-1.3,2.3
		C227,113.2,226.6,112.9,227.1,110.5z"/>
	<path class="st39" d="M227.1,110.5c-0.2,1.6,0.5,2.3,2.1,2.1c-0.7,0.6-0.8,1.1,0,1.7c-1,0.1-2-0.2-2.9,0.5
		C225,113.1,225.8,111.7,227.1,110.5z"/>
	<path class="st32" d="M136,126c0.8-0.6,1.4-2,2.4-0.2c0.1,0.3,0.9,0.2,1.4,0.2C138,128.4,137.4,128.4,136,126z"/>
	<path class="st31" d="M236,126c0.8-0.5,1.6-2.3,2.6-0.1c0.1,0.2,0.8,0.1,1.2,0.1C238.1,128,238.1,128,236,126z"/>
	<path class="st30" d="M153.8,82.4c0.1,0,0.3,0,0.4,0c-0.2,0.2-0.5,0.7-0.7,0.7c-1,0.1-2,1.7-2.7,0.7c-0.8-1.2,0.4-2.2,1.4-3
		C151.8,82.2,152,83,153.8,82.4z"/>
	<path class="st40" d="M69.3,30.1c-0.9-0.2-1.8-0.2-2.6-0.5c-0.8-0.3,0.2-0.5,0.1-0.8c0.8-0.1,1.7-0.3,2.5-0.4
		C68.4,28.9,68.7,29.5,69.3,30.1z"/>
	<path class="st41" d="M48.3,43.4C48,42.9,47.5,43.1,47,43c0.6-0.8,1.4-1.2,2.5-1.7C49.4,42.4,49.1,43,48.3,43.4z"/>
	<path class="st42" d="M175.1,118.1c0-2.2,1.7-1.5,2.9-1.7C177.3,117.3,175.9,117.2,175.1,118.1z"/>
	<path class="st43" d="M220,82.8c-0.5-3.5-0.1-3.3-4.7-2.9c0.5-0.9,1.4-1.1,2.2-1.4c1.3-0.4,2.8-0.9,3.6,0.5
		C221.8,80.4,221.4,81.9,220,82.8z"/>
	<path class="st44" d="M123.1,122.8c1-1.6,1.8-3.2,1.7-5.3c-0.2-2.9-1.1-3.8-4-3.3c-0.3,0.1-0.7,0-1,0c1.1-1.9,2.9-1.8,4.8-1.6
		c0.7,0.1,1.1,0.5,1.4,1.1C126.9,116,125.8,121.6,123.1,122.8z"/>
	<path class="st45" d="M223,114.4c-0.5-0.3-1.3-0.4-1.8,0c-0.8,0.7-1.3,0.4-2-0.1c-0.7-0.5-1.6-0.5-2.4-0.4
		c-2.6,0.2-3.7,2.1-4.8,4.1c-0.6,0.7-0.8,1.6-1,2.5c-1.1,4.1,1.4,6.8,5.6,5.7c0.2-0.1,0.5-0.3,0.9,0.1c-0.9,1.4-2.3,1.4-3.7,1
		c-1.3-0.4-2.2-0.2-2.5,1.2c0,0.1,0,0.3,0,0.4c-0.3,1.4,0.8,1.6,1.7,1.8c1.7,0.3,3.4,0.3,5.1-0.5c1.7-1.1,2.9-2.5,3.3-4.6
		c0.6-3.2,1.3-6.4,1.9-9.6C223.3,115.5,223.6,114.8,223,114.4z M219.4,119.3c-0.3,1.1-0.8,2-1.5,3c-0.6,0.9-1.3,1.5-2.4,1.2
		c-1.2-0.3-0.9-1.4-1-2.3c-0.1-1.4,0.4-2.6,1.2-3.7c0.8-1,1.8-1,2.8-0.6C219.6,117.4,219.7,118.3,219.4,119.3z"/>
	<path class="st46" d="M142.8,109c-0.9-0.2-1.9-0.2-2.2,1c-0.3,1.2-0.6,2.4-0.8,3.6c-0.1,0.6-0.2,1.1-1,0.8
		c-3.5-1.4-5.7,0.3-7.3,3.3c-0.8,1.2-1.3,2.6-1.4,4.1c-0.2,3.6,2.2,5.5,5.5,4.3c0.1-0.1,0.2-0.1,0.4-0.1c0.7-0.2,1.4-0.4,2.1,0.1
		c0.5,0.4,1.1,0.3,1.7-0.1c0.7-0.3,0.8-0.8,1-1.5c0.9-4.6,1.9-9.3,2.8-13.9C143.7,110,143.8,109.2,142.8,109z M138.7,119.5
		c-0.3,1-0.8,1.9-1.4,2.8c-0.6,0.9-1.3,1.5-2.4,1.3c-1.3-0.3-1-1.5-1-1.9c-0.1-1.8,0.4-3,1.2-4c0.7-1,1.8-1.1,2.8-0.6
		C139,117.5,139.1,118.4,138.7,119.5z"/>
	<path class="st47" d="M241,114.3c-1.2,0.8-1.9,0.3-2.9-0.2c-0.8-0.4-1.8-0.3-2.7,0c-2.1,0.6-3.1,2.2-4.1,4c-0.9,1.4-1.1,2.9-1,4.6
		c0.2,3.5,2.4,4.8,5.6,3.4l0,0c0.9-0.3,1.7-0.9,2.5,0.2c0.2,0.4,0.9,0.1,1.3-0.2c0.5-0.1,0.9-0.4,1-0.9c0.6-3.2,1.3-6.4,1.9-9.6
		C242.9,114.1,241.7,113.9,241,114.3z M235.4,123.5c-1.4,0-1.5-1-1.5-2c0-2.3,1.4-4.6,3-4.7c1.3-0.1,2,0.6,2,1.3
		C238.9,120.7,236.9,123.6,235.4,123.5z"/>
	<path class="st48" d="M150.8,122.7c-0.6,0.8-1.2,1.5-2.4,1c-1.1-0.4-1.1-1.4-1.2-2.2c-0.1-1,0.2-2.1,0.7-3c0.6-1,1.5-1.3,2.5-0.8
		c1.1,0.6,1.7,1.6,1.5,2.9C151.7,121.4,151.3,122.1,150.8,122.7z"/>
	<path class="st49" d="M150.8,122.7c0-0.9,0.9-1.6,0.7-2.6c-0.4-2.1-1.6-2.6-3.7-1.6c0.2-1.4,1.3-1.9,2.5-2.1
		c1.2-0.1,2.2,0.3,2.1,1.8C152.3,119.9,152.7,121.7,150.8,122.7z"/>
	<path class="st50" d="M204.9,123.1c-0.9,0.7-2,0.8-2.9,0.2c-1.1-0.7-0.9-1.8-0.7-2.8c0.1-0.7,0.5-1.3,0.7-1.9
		c1.5-1.6,2.9-1.4,3.6,0.6C206.1,120.6,205.7,121.8,204.9,123.1z"/>
	<path class="st51" d="M204.9,123.1c0-1.1,0.6-2.1,0.4-3.2c-0.4-2.1-1.4-2.5-3.3-1.3c0.4-1.6,1.6-2.3,3.1-2c1.7,0.3,1.6,1.8,1.4,3
		C206.4,120.8,206.2,122.2,204.9,123.1z"/>
	<path class="st52" d="M185.2,123.2c0.2-1,0.2-2,0.6-2.8c0.5-1.2-0.4-1.7-1-2.3c-0.8-0.9-1.5,0.2-2.2,0.4c0.5-1.7,1.8-2.4,3.4-1.9
		c1.7,0.5,1.3,2.1,1.1,3.4C186.9,121.2,186.6,122.5,185.2,123.2z"/>
</g>
</svg>
