<?xml version="1.0" encoding="utf-8"?>
<!-- Generator: Adobe Illustrator 25.2.1, SVG Export Plug-In . SVG Version: 6.00 Build 0)  -->
<svg version="1.1" id="Camada_1" xmlns="http://www.w3.org/2000/svg" xmlns:xlink="http://www.w3.org/1999/xlink" x="0px" y="0px"
	 viewBox="0 0 247.2 202.1" style="enable-background:new 0 0 247.2 202.1;" xml:space="preserve">
<style type="text/css">
	.st0{fill:#003D88;}
	.st1{fill:#FEFEFE;}
	.st2{fill:#FBC302;}
	.st3{fill:#FAC302;}
	.st4{fill:#FBC503;}
	.st5{fill:#ECF3F7;}
	.st6{fill:#E7EFF4;}
	.st7{fill:#ECF3F6;}
	.st8{fill:#EDF5F8;}
	.st9{fill:#E4EFF5;}
	.st10{fill:#737C44;}
	.st11{fill:#EEF8FB;}
	.st12{fill:#D4E2EB;}
	.st13{fill:#84A8C5;}
	.st14{fill:#013E87;}
	.st15{fill:#0A3D82;}
	.st16{fill:#003E88;}
	.st17{fill:#013C87;}
</style>
<g>
	<g>
		<path class="st0" d="M-29-1.9c101.4,0,202.8,0,304.2,0c1.1,0,1.4,0.3,1.4,1.4c0,67.1,0,134.2,0,201.3c0,1.1-0.3,1.4-1.4,1.4
			c-101.4,0-202.8,0-304.2,0c-0.3-0.5-0.1-1.1-0.1-1.6c0-66.9,0-133.9,0-200.8C-29.1-0.9-29.3-1.4-29-1.9z"/>
		<path class="st1" d="M-29-1.9c0,68,0,136,0,204c-0.1-0.1-0.3,0.2-0.3-0.1c0-0.4,0-0.8,0-1.2c0-67.1,0-134.2,0-201.3
			C-29.3-1-29.6-1.6-29-1.9z"/>
		<path class="st2" d="M155,114.7c0,1.6,0.1,3.3,0,4.9c-0.5,4.3-4.1,7.3-8.6,7.3c-4.5,0-8.1-3-8.6-7.3c-0.3-3.1-0.3-6.3,0-9.4
			c0.4-4.4,3.9-7.4,8.6-7.4c4.7,0,8.3,3,8.7,7.5C155.1,111.7,155,113.2,155,114.7C155,114.7,155,114.7,155,114.7z"/>
		<path class="st3" d="M112.5,126.6c-2.3,0-2.4,0-3-2.3c-0.4-1.5-1.2-2.1-2.8-1.9c-1.6,0.1-3.3,0.1-4.9,0c-1.1-0.1-1.7,0.4-1.9,1.4
			c0,0,0,0.1,0,0.1c-0.9,2.5-2.3,3.3-4.9,2.6c-0.9-0.3-0.6-0.8-0.4-1.4c2-5.6,4.1-11.2,6.1-16.8c0.5-1.4,1.1-2.9,1.6-4.3
			c0.4-1.5,1.5-1.1,2.5-1.2c1-0.1,1.6,0.1,2,1.2c2.5,7.1,5.1,14.1,7.7,21.1c0.4,1.1,0,1.5-1,1.4
			C113.2,126.6,112.8,126.6,112.5,126.6z"/>
		<path class="st2" d="M80.3,114.8c-0.1,1.5-0.2,3.1,0.2,4.6c0.4,1.8,1.5,2.9,3.1,3.2c1.9,0.3,3.4-0.4,4.3-2c0.6-1,3.7-1.8,4.7-1.1
			c0.5,0.4,0.3,0.9,0.1,1.4c-1.1,4.2-5.5,6.8-9.9,6c-4.3-0.8-6.9-3.7-7.1-8.1c-0.1-2.8-0.2-5.7,0.1-8.5c0.4-4,3.5-7,7.4-7.4
			c4.8-0.4,8.4,1.8,9.6,6c0.3,1,0.2,1.5-1,1.5c-0.6,0-1.2,0-1.8,0c-1,0.1-1.6-0.3-2.1-1.2c-0.8-1.7-2.4-2.4-4.2-2.1
			c-1.5,0.3-2.7,1.5-3.1,3.2c-0.1,0.3-0.1,0.7-0.2,1C80.3,112.4,80.3,113.6,80.3,114.8z"/>
		<path class="st4" d="M159.2,114.7c0-3.4,0-6.9,0-10.3c0-1.1,0.3-1.6,1.5-1.6c3.7,0.1,3.1-0.3,3.1,3c0,5,0,10,0,14.9
			c0,1.3,0.4,1.8,1.7,1.7c2.5-0.1,5.1,0,7.6,0c1.2,0,1.6,0.4,1.5,1.6c0,0.3,0,0.7,0,1c0.1,1.2-0.4,1.5-1.6,1.5
			c-4.1,0-8.2-0.1-12.2,0c-1.4,0-1.7-0.5-1.7-1.8C159.2,121.5,159.2,118.1,159.2,114.7z"/>
		<path class="st5" d="M75.2,86.9c0.1-1.6,0.1-3.5,0.3-5.4c0.4-3.7,3.7-6.4,7.7-6.5c4-0.1,7.4,2.5,8,6.2c0.6,3.7,0.4,7.5,0.1,11.3
			c-0.3,4.9-6.8,8.7-12.2,5.5c-2.2-1.3-3.5-3.2-3.7-5.8C75.3,90.5,75.3,88.8,75.2,86.9z"/>
		<path class="st6" d="M151.4,98.1c0,0.5-0.1,0.7-0.5,0.8c-0.6,0.1-1.1,0-1.4-0.6c-0.4-1.1-0.9-2.2-1.2-3.4c-0.4-1.5-1.2-2-2.7-1.9
			c-2.5,0.1-5,0.1-7.5,0c-1.2,0-1.8,0.4-2.2,1.5c-0.3,1.1-0.8,2.2-1.2,3.4c-0.3,0.8-0.8,1.2-1.6,0.9c-0.9-0.3-0.3-1-0.1-1.5
			c2.5-6.8,5-13.6,7.5-20.5c0.1-0.3,0.2-0.6,0.3-0.8c0.2-0.6,0.5-1,1.2-1c0.7,0,0.9,0.5,1.1,1c1.4,3.9,2.9,7.7,4.3,11.6
			c1.2,3.3,2.4,6.5,3.6,9.8C151.2,97.7,151.3,98,151.4,98.1z"/>
		<path class="st7" d="M160.2,99.2c-2.5,0-4.8-0.7-6.8-2.3c-0.5-0.4-0.9-0.8-0.3-1.5c0.6-0.6,1-0.4,1.5,0.1c2.6,2.3,5.5,2.6,8.7,1.6
			c2.4-0.7,3.5-2.6,3.3-5c-0.2-2.2-1.5-3.5-4-3.9c-1.6-0.3-3.2-0.5-4.8-0.9c-3.1-0.8-4.7-2.9-4.7-5.8c0-3.1,1.8-5.4,4.9-6.1
			c2.9-0.7,5.7-0.3,8.3,1.5c0.4,0.3,1.1,0.6,0.6,1.3c-0.4,0.6-0.9,0.6-1.5,0.1c-2-1.6-4.2-1.9-6.6-1.4c-2.2,0.4-3.6,2-3.8,4.2
			c-0.2,2.5,0.7,3.8,3,4.7c1.4,0.5,2.9,0.6,4.4,0.9c2.1,0.3,4.1,0.9,5.3,2.9c2.3,4,0.2,8.4-4.6,9.5C162,99,161.1,99.1,160.2,99.2z"
			/>
		<path class="st8" d="M118.7,96.3c-1.1-1.2-1.7-2.7-1.8-4.3c-0.2-3.2,0-6.5-0.1-9.7c0-4.6,4.9-8.6,10.5-7c1.1,0.3,2.1,0.9,3,1.6
			c0.4,0.3,1.3,0.6,0.7,1.5c-0.7,0.9-1.2,0.3-1.7-0.2c-2.2-1.9-4.7-2.3-7.3-1c-2.1,1-3.3,2.9-3.4,5.2c-0.1,2.8,0,5.7,0,8.5
			c0,2.7,1.1,4.8,3.5,5.9c2.5,1.2,4.8,0.8,7-0.8c0.1-0.1,0.2-0.2,0.4-0.3c0.4-0.3,0.8-0.8,1.4-0.2c0.5,0.6,0.1,1-0.3,1.3
			c-2.1,1.9-5.6,2.9-8.7,1.6C120.7,97.9,119.7,97.2,118.7,96.3z"/>
		<path class="st9" d="M100.8,87.9c0,3.2,0,6.4,0,9.6c0,0.6,0.1,1.4-0.8,1.5c-1,0.1-1-0.8-1-1.5c0-6.3,0-12.6,0-19
			c0-1.4-0.4-1.9-1.8-1.8c-1.4,0.1-2.9,0-4.3,0c-0.6,0-1-0.2-1-0.8c0-0.6,0.4-0.8,0.9-0.8c4.7,0,9.4,0,14.2,0c0.5,0,0.8,0.3,0.8,0.8
			c0,0.6-0.4,0.8-0.9,0.8c-1.6,0-3.3,0-4.9,0c-1,0-1.3,0.3-1.3,1.3C100.8,81.3,100.8,84.6,100.8,87.9z"/>
		<path class="st10" d="M117,114.7c0-3.5,0-7,0-10.4c0-1.2,0.4-1.7,1.6-1.6c2.8,0.1,5.7,0,8.5,0c3.3,0.1,6.1,2.1,7.1,5
			c1.1,3.3,0.2,6.2-2.7,8.3c-0.9,0.7-0.9,1.2-0.4,2.1c1.3,2.4,2.5,4.8,3.7,7.1c0.7,1.3,0.5,1.7-1,1.7c-4.9-0.1-3.6,0.7-5.8-3.5
			c-0.8-1.6-1.7-3.3-2.4-4.9c-0.5-1.2-1.5-1.2-2.5-1c-1.1,0.2-0.8,1.1-0.8,1.8c0,2-0.1,4,0,6c0,1.3-0.5,1.7-1.8,1.7
			c-4-0.1-3.5,0.3-3.5-3.5C116.9,120.5,117,117.6,117,114.7z"/>
		<path class="st11" d="M111.3,86.9c0-3.4,0-6.9,0-10.3c0-0.6-0.2-1.5,0.9-1.5c1,0,0.8,0.8,0.8,1.4c0,7,0,13.9,0,20.9
			c0,0.6,0.2,1.4-0.8,1.4c-1.1,0-0.9-0.8-0.9-1.5C111.2,93.9,111.3,90.4,111.3,86.9C111.3,86.9,111.3,86.9,111.3,86.9z"/>
		<path class="st12" d="M86.9,68.5c-0.1,0.2-0.3,0.4-0.5,0.6c-0.8,1.1-1.6,2.2-2.4,3.2c-0.5,0.6-1.1,0.8-1.7,0.3
			c-0.5-0.4,0.1-0.9,0.3-1.3c0.6-0.9,1.2-1.8,1.8-2.7c0.5-0.7,1.1-0.9,1.9-0.8C86.7,67.9,87,68,86.9,68.5z"/>
		<path class="st13" d="M118.7,96.3c1.6,1.1,3.2,2.3,5.3,2.5c2.3,0.2,4.4-0.4,6.2-1.8c0.4-0.3,1-0.6,0.6-1.2
			c-0.4-0.6-0.8-0.1-1.2,0.1c-0.1,0.1-0.3,0.1-0.4,0.1c0.3-0.3,0.5-0.6,0.8-0.9c0.5-0.5,0.9-0.1,1.3,0.3c0.3,0.4,0.4,0.7,0.1,1.2
			C128.6,100.3,121.3,100.1,118.7,96.3z"/>
		<path class="st14" d="M150.6,114.9c-0.1,1.5-0.1,3-0.3,4.5c-0.3,2.1-1.9,3.3-3.9,3.3c-2.1,0-3.6-1.3-3.8-3.4c-0.4-3-0.4-6.1,0-9.1
			c0.2-1.9,1.8-3.3,3.6-3.3c2.1-0.1,3.7,1.1,4.1,3.2C150.6,111.6,150.5,113.2,150.6,114.9z"/>
		<path class="st15" d="M104.6,118.5c-3.5,0-3,0-2-2.8c0.4-1.2,0.8-2.4,1.3-3.7c0.2-0.4,0.1-1.2,0.7-1.2c0.6,0,0.6,0.7,0.7,1.1
			c0.6,1.7,1.1,3.4,1.7,5.1c0.5,1.2,0,1.5-1.1,1.4C105.5,118.5,105.1,118.5,104.6,118.5z"/>
		<path class="st16" d="M77,87.1c0.1-1.7,0.1-3.4,0.3-5c0.3-3.2,2.8-5.5,6-5.5c3.3-0.1,5.9,2.1,6.3,5.3c0.4,3.5,0.4,7,0,10.4
			c-0.4,3.2-3,5.3-6.2,5.2c-3.2,0-5.7-2.3-6.1-5.4C77.1,90.4,77.1,88.8,77,87.1z"/>
		<path class="st17" d="M142,91.5c-1.2,0-2.4,0-3.6,0c-0.9,0-1.3-0.2-0.9-1.2c1.4-3.7,2.7-7.5,4-11.2c0.1-0.3,0.2-0.8,0.6-0.8
			c0.4,0,0.4,0.5,0.5,0.8c1.3,3.7,2.6,7.4,4,11.1c0.4,1.1,0,1.4-1,1.4C144.4,91.5,143.2,91.5,142,91.5z"/>
		<path class="st2" d="M117.5,114.7c0-3.4,0-6.8,0-10.2c0-1.1,0.4-1.5,1.5-1.5c2.8,0.1,5.6,0,8.4,0.1c3.2,0.1,5.6,2,6.4,4.8
			c0.9,3.2,0,5.7-2.8,7.6c-1,0.7-1,1.2-0.5,2.2c1.3,2.4,2.5,4.9,3.8,7.3c0.5,1,0.4,1.3-0.8,1.3c-4-0.1-3.2,0.6-5-3.1
			c-0.9-1.8-1.8-3.7-2.7-5.5c-0.5-0.9-2.7-1.4-3.6-0.8c-0.6,0.4-0.5,0.9-0.5,1.5c0,2.1,0,4.3,0,6.4c0,1.1-0.4,1.6-1.5,1.5
			c-0.3,0-0.7,0-1,0c-1.3,0.2-1.7-0.4-1.7-1.7C117.6,121.4,117.5,118.1,117.5,114.7z"/>
		<path class="st17" d="M121.9,110.2c0-3.7-0.2-3.1,3.2-3.2c0.7,0,1.5-0.1,2.2,0.2c1.5,0.5,2.3,1.6,2.3,3.1c0,1.5-1,2.7-2.5,2.9
			c-1.4,0.2-2.8,0.1-4.1,0.1c-0.8,0-1-0.4-1-1.1C122,111.5,121.9,110.9,121.9,110.2z"/>
	</g>
</g>
</svg>
