<?xml version="1.0" encoding="utf-8"?>
<!-- Generator: Adobe Illustrator 25.2.1, SVG Export Plug-In . SVG Version: 6.00 Build 0)  -->
<svg version="1.1" id="Camada_1" xmlns="http://www.w3.org/2000/svg" xmlns:xlink="http://www.w3.org/1999/xlink" x="0px" y="0px"
	 viewBox="0 0 247.2 202.1" style="enable-background:new 0 0 247.2 202.1;" xml:space="preserve">
<style type="text/css">
	.st0{fill:#A9CF46;}
	.st1{fill:#008FD3;}
	.st2{fill:#0177B3;}
	.st3{fill:#006B98;}
	.st4{fill:#70A347;}
	.st5{fill:#0376B0;}
	.st6{fill:#8D8E90;}
</style>
<g>
	<path class="st0" d="M114.2,107.7c-10.3-0.9-20.2-3.4-29.6-7.6c-7.3-3.3-13.9-7.6-19.7-13.2c-3.7-3.5-6.8-7.5-9.3-11.9
		c-0.8-1.5-0.7-1.7,1-1.7c13.3,0.1,26.6,0.3,39.9,0.3c1.4,0,1.6,0.6,1.8,1.8c1.2,10.6,8.8,18.7,19.2,20.8
		c12.9,2.6,25.7-6.3,27.8-19.3c0.1-0.5,0.2-1,0.2-1.5c0-1,0.5-1.4,1.5-1.4c5.7,0.3,11.3,0.2,17,0.3c1.1,0,1.2,0.7,1.2,1.5
		c0,2.7,0,5.4-0.1,8.2c-1,2.7-3.2,4.3-5.2,6.1c-8.8,7.6-19,12.4-30.1,15.5c-4.9,1.3-9.8,2.2-14.8,2
		C114.7,107.5,114.4,107.5,114.2,107.7z"/>
	<path class="st1" d="M124.5,35.7c7.5,0.1,14.8,1.3,22,3.2c5.8,1.5,11.4,3.7,16.8,6.3c1.1,0.5,1.5,1.2,1.5,2.4c-0.1,3.1,0,6.2,0,9.3
		l0,0c-3.6,0-7.2,0.1-10.8,0c-1.4,0-1.8,0.5-1.8,1.8c0.1,2.9,0,5.9,0,8.8c0,1.2-0.4,1.7-1.6,1.7c-1.1-0.1-2.2-0.1-3.3,0
		c-1.3,0.1-1.7-0.4-1.8-1.7c-0.7-10-7.4-18.2-17.2-21.1c-14.3-4.2-29.2,6.1-30.2,21c-0.1,1.4-0.6,1.8-1.9,1.8c-13.3,0-26.6,0-39.8,0
		c-0.5,0-1.1,0.1-1.6-0.3c0.8-0.7,1.8-0.8,2.8-0.8c3.6,0,7.1,0,10.7,0c1.7,0,2.8-0.6,3.7-2c5.9-8.9,13.7-15.8,23.1-21
		c7.4-4.1,15.2-6.8,23.4-8.5c1.8-0.4,3.6-0.4,5.4-0.6C124.1,36.1,124.6,36.4,124.5,35.7z"/>
	<path class="st2" d="M24,140.6c3.6-1,4.2-3.5,4-6.3c0-0.4,0-0.9,0-1.3c0-4.5-1.6-6.2-6.1-6.2c-6.6,0-13.1,0-19.7,0
		c-1.4,0-1.9,0.3-1.9,1.8c0.1,8.3,0.1,16.7,0,25c0,1.5,0.5,1.9,1.9,1.9c6.1-0.1,12.1,0,18.2,0c1.1,0,2.2-0.1,3.3-0.3
		c3-0.6,4.4-2.3,4.4-5.3c0-0.9,0-1.8,0-2.7C28.3,144.1,27.5,141.7,24,140.6z M6.2,132.9c-0.1-1.2,0.5-1.5,1.6-1.5
		c4.1,0,8.1,0,12.2,0c2,0,2.4,0.5,2.5,2.5c0.1,4.1,0,4.2-4.1,4.2c-1.5,0-3,0-4.5,0c-2,0-4,0-6,0c-1.2,0-1.8-0.3-1.7-1.6
		C6.3,135.4,6.3,134.1,6.2,132.9z M18.5,150.1c-1.5,0-3,0-4.5,0c-2.1,0-4.1,0-6.2,0c-1.1,0-1.7-0.3-1.6-1.5c0.1-1.4,0-2.9,0-4.3
		c0-0.9,0.3-1.5,1.3-1.4c4.2,0,8.3,0,12.5,0.1c2.1,0.1,2.6,0.7,2.7,2.8C22.8,149.8,22.5,150.1,18.5,150.1z"/>
	<path class="st3" d="M124.5,35.7c0.6,0.1,1.3,0.3,2.2,0.5c-6.7,0.9-13,2.2-19.1,4.4c-11.1,3.9-20.8,9.8-28.8,18.4
		c-2.4,2.6-4.6,5.4-6.5,8.5c-0.7,1.2-1.6,1.7-3,1.7c-4.8-0.1-9.7,0-14.5,0c3.3-6,7.8-11.1,13.1-15.4c10.9-9.1,23.6-14.2,37.5-16.6
		C111.7,35.9,118.1,35.5,124.5,35.7z"/>
	<path class="st2" d="M84.8,132.6c0-4.2-1.7-5.8-5.9-5.9c-3.2,0-6.5,0-9.7,0c-3.3,0-6.7,0-10,0c-4.2,0.1-5.8,1.6-5.8,5.8
		c-0.1,5.7-0.1,11.3,0,17c0,4.1,1.4,5.7,5.5,5.8c6.8,0.2,13.6,0.2,20.4,0c4.1-0.1,5.6-1.7,5.6-5.8C84.8,143.9,84.8,138.2,84.8,132.6
		z M78.8,148.5c0,1.2-0.4,1.6-1.5,1.5c-5.5,0-11,0-16.5,0c-1.1,0-1.6-0.3-1.6-1.5c0-5.1,0-10.1,0-15.2c0-1.2,0.4-1.6,1.6-1.5
		c2.8,0.1,5.6,0,8.3,0c2.7,0,5.4,0,8.2,0c1.1,0,1.6,0.3,1.6,1.5C78.8,138.4,78.8,143.4,78.8,148.5z"/>
	<path class="st2" d="M247,131.1c-0.1-2.5-1.3-3.6-3.8-4.2c-1.8-0.4-3.7-0.2-5.5-0.2c-5.4,0-10.9,0-16.3,0c-3.6,0-5.2,1.2-5.5,4.5
		c-0.5,6.5-0.4,13.1,0,19.6c0,0.4,0.1,0.8,0.2,1.1c0.4,1.6,1.4,2.6,3,3c1.1,0.2,2.3,0.4,3.5,0.4c2.9,0,5.9,0,9.6,0
		c3.2-0.2,7.1,0.3,10.9-0.3c2.5-0.4,3.8-1.6,3.9-4.2C247.3,144.3,247.3,137.7,247,131.1z M239.6,150c-2.7-0.1-5.4,0-8.2,0
		c-2.8,0-5.6,0-8.3,0c-1,0-1.5-0.3-1.5-1.4c0-5.1,0-10.2,0-15.3c0-1.1,0.4-1.5,1.4-1.5c5.6,0,11.1,0,16.7,0c1.2,0,1.5,0.5,1.5,1.6
		c0,5,0,10,0,15C241.3,149.6,240.8,150,239.6,150z"/>
	<path class="st2" d="M156.2,155.4c-3.3-0.2-6.7,0.3-10-0.3c-3-0.5-5.1-3.8-4.2-6.8c0.1-0.5,0.4-0.6,0.8-0.7
		c0.6-0.2,1.2-0.3,1.8-0.4c2.4-0.6,2.4-0.6,2.7,1.8c0.1,0.7,0.4,1,1,1c5.3,0,10.7,0,16,0c0.8,0,1-0.5,1-1.2c0-1.3-0.1-2.6,0-3.8
		c0.1-1.2-0.4-1.5-1.5-1.5c-4.6,0.1-9.2,0-13.9,0c-5.4,0-6.8-1.4-6.9-6.8c0-2-0.1-4,0.3-6c0.4-2,1.4-3.3,3.5-3.7
		c1-0.2,2.1-0.3,3.1-0.3c4.9,0,9.8-0.1,14.7,0c3.9,0.1,5.7,2,5.6,5.7c0,0.8-0.2,1.3-1,1.4c-0.5,0.1-1.1,0.3-1.6,0.4
		c-0.8,0.2-1.6,0.6-2.2,0.4c-0.9-0.3-0.3-1.4-0.4-2.1c-0.1-0.6-0.4-0.9-1-0.9c-4.9,0-9.8,0-14.7,0c-0.7,0-1.1,0.3-1,1
		c0,0.1,0,0.2,0,0.3c-0.2,4.8-0.2,4.8,4.6,4.8c4.3,0,8.6-0.2,12.8,0.1c3.2,0.3,4.3,1.3,4.7,4.5c0.3,2.9,0.4,5.9-0.1,8.8
		c-0.4,2.4-1.4,3.4-3.8,3.8C163.1,155.7,159.6,155.2,156.2,155.4z"/>
	<path class="st4" d="M114.2,107.7c3.2-0.5,6.4-0.9,9.5-1.6c15.3-3,28.9-9.2,39.9-20.6c0.5-0.5,1.1-1,1.6-1.5
		c0.1,2.5,0.1,2.5,2.8,2.5c2.6,0,5.2-0.1,7.8,0c1.3,0,1.8-0.5,1.7-1.8c-0.1-2.8,0.1-5.6-0.1-8.3c-0.1-1.7,0.6-2.2,2.2-2.1
		c2.9,0.2,5.8,0.1,8.7,0.2c1.7,0,1.8,0.2,0.8,1.7c-5.6,8.8-13.1,15.7-22.1,20.8c-11.1,6.3-23.1,9.7-35.8,10.7
		C125.5,108.2,119.9,108.2,114.2,107.7z"/>
	<path class="st2" d="M209.4,153.3c-3.9-7.6-7.8-15.2-11.7-22.8c-2-3.9-2-3.8-6.3-3.8c-1,0-1.5,0.4-1.9,1.2c-1.1,2.4-2.4,4.7-3.5,7
		c-3.2,6.3-6.4,12.6-9.6,18.9c-0.6,1.1-0.6,1.6,0.9,1.6c4.2,0,4.2,0.1,6-3.7c0.2-0.4,0.4-0.8,0.6-1.2c0.4-1.1,1.1-1.4,2.3-1.4
		c3.3,0.1,6.7,0.3,10,0c3.5-0.4,5.7,0.6,6.6,4.2c0.5,1.9,1.7,2.5,3.6,2.2c0.2,0,0.4,0,0.7,0h1.2
		C210.4,155.4,210.5,155.4,209.4,153.3z M197,143.9c-2.9,0-5.9,0-8.8,0c-0.7,0-1-0.3-0.6-1.1c1.7-3.4,3.3-6.8,5.2-10.6
		c1.8,3.8,3.4,7.2,5,10.6C198.1,143.7,197.7,143.9,197,143.9z"/>
	<path class="st2" d="M106.1,147c2.3-4.7,4.5-9.3,6.7-13.9c0.8-1.7,1.7-3.3,2.3-5c0.5-1.1,1.1-1.5,2.3-1.4c0.9,0.1,1.8,0.1,2.7,0
		c1.3-0.1,1.6,0.2,1,1.5c-2.4,4.8-4.7,9.6-7.1,14.3c-1.9,3.8-3.8,7.7-5.6,11.5c-0.5,1.1-1.3,1.4-2.4,1.3c-1.2-0.1-2.3,0.2-3.1-1.3
		c-4.4-8.7-8.9-17.3-13.4-25.9c-0.6-1.1-0.4-1.3,0.9-1.5c3.8-0.6,6,0.8,7.5,4.5c2,4.9,4.6,9.5,7,14.2
		C105.2,145.9,105.3,146.5,106.1,147z"/>
	<path class="st2" d="M132.2,141.2c0,4.2,0,8.4,0,12.7c0,1.1-0.4,1.5-1.5,1.6c-4.5,0.1-4.5,0.1-4.5-4.4c0-7.4,0-14.9,0-22.3
		c0-1.5,0.4-2,2-2c4.1,0.1,4.1,0,4.1,4.1C132.2,134.3,132.2,137.7,132.2,141.2z"/>
	<path class="st2" d="M43.2,141.1c0,4.2,0,8.3,0,12.5c0,1.3-0.4,1.8-1.8,1.8c-4.1,0-4.1,0-4.1-4c0-7.5,0-15.1,0-22.6
		c0-1.6,0.4-2.1,2-2.1c3.9,0.1,3.9,0,3.9,3.9C43.2,134.1,43.2,137.6,43.2,141.1z"/>
	<path class="st5" d="M171,44.3c-1.6,0-3.2,0-4.8,0c-0.8,0-1.2-0.3-1.2-1.2c0-3.3,0-6.7,0-10c0-0.8,0.3-1.1,1.1-1.1
		c3.3,0,6.7,0,10,0c0.8,0,1.2,0.3,1.2,1.2c0,3.3,0,6.5,0,9.8c0,0.9-0.3,1.3-1.3,1.3C174.3,44.3,172.6,44.3,171,44.3z"/>
	<path class="st5" d="M215,38.3c0,1.6,0,3.1,0,4.7c0,1-0.2,1.4-1.3,1.4c-3.2,0-6.4,0-9.6,0c-1.1,0-1.3-0.5-1.3-1.4
		c0-3.2,0-6.3,0-9.5c0-1.1,0.5-1.4,1.5-1.4c3.1,0,6.2,0,9.3,0c1.1,0,1.5,0.3,1.5,1.4C214.9,35.1,215,36.7,215,38.3z"/>
	<path class="st5" d="M164.9,57c3.5,0,7,0.1,10.5,0c1.2,0,1.6,0.4,1.6,1.6c-0.1,3-0.1,6,0,9c0,1.2-0.3,1.7-1.6,1.7c-3-0.1-6-0.1-9,0
		c-1.1,0-1.6-0.3-1.6-1.5C164.9,64.2,164.9,60.6,164.9,57C164.9,57,164.9,57,164.9,57z"/>
	<path class="st4" d="M190.5,65.8c0-1.6,0-3.2,0-4.8c0-0.9,0.4-1.3,1.3-1.3c3.2,0,6.4,0,9.7,0c0.9,0,1.2,0.4,1.2,1.2
		c0,3.3,0,6.5,0,9.8c0,0.8-0.3,1.2-1.2,1.2c-3.2,0-6.4,0-9.7,0c-0.9,0-1.3-0.4-1.3-1.3C190.6,69,190.5,67.4,190.5,65.8z"/>
	<path class="st5" d="M189.6,50.6c0,1.6,0,3.1,0,4.7c0,0.9-0.2,1.4-1.3,1.4c-3.2,0-6.3,0-9.5,0c-1,0-1.4-0.4-1.4-1.4
		c0-3.1,0-6.2,0-9.3c0-0.9,0.3-1.4,1.3-1.4c3.2,0,6.3,0,9.5,0c1,0,1.4,0.4,1.3,1.4C189.6,47.5,189.6,49.1,189.6,50.6z"/>
	<path class="st2" d="M195.4,122.1c-1.3,0-2.4-0.6-3.5-0.9c-1.4-0.4-2.6-0.5-3.5,1c-0.5,0.9-1.4,0.6-2.1,0.4c-0.7-0.2-0.3-1-0.2-1.5
		c0.9-3.7,2.9-4.9,6.6-3.8c0.7,0.2,1.5,0.5,2.2,0.6c1.1,0.2,2,0,2.6-1c0.4-0.7,0.9-0.9,1.6-0.9c0.8,0,1.2,0.2,1,1.2
		C199.5,120.4,197.8,122.1,195.4,122.1z"/>
	<path class="st6" d="M129.5,165.1c-1.6-1.2-3.7-1.3-5.4-0.7c-1.2,0.4-0.3,2.2-0.5,3.3c0,0.2,0,0.4,0,0.7v2.3c0,2.2,0,2.2,2.2,2.2
		c0.5,0,1,0,1.5-0.1c2-0.2,3.5-1.6,3.8-3.6C131.3,167.6,130.9,166.1,129.5,165.1z M129.2,170.5c-0.9,1.1-2.3,1.4-3.6,1.2
		c-1.1-0.1-0.7-1.1-0.8-1.7c-0.1-0.5,0-1,0-1.5c0-0.1,0-0.2,0-0.3c0.2-0.9-0.7-2.3,0.8-2.7c1.4-0.4,2.8-0.2,3.7,1.2
		C130.1,167.9,130.2,169.3,129.2,170.5z"/>
	<path class="st6" d="M224.8,164c-2.6,0-4.5,1.9-4.5,4.5c0,2.6,2,4.6,4.5,4.6c2.6,0,4.5-1.9,4.5-4.6
		C229.3,165.9,227.5,164,224.8,164z M224.8,172c-1.9,0-3.2-1.5-3.2-3.5c0-2,1.3-3.3,3.2-3.4c1.9,0,3.3,1.4,3.3,3.4
		C228.1,170.5,226.7,172,224.8,172z"/>
	<path class="st6" d="M170.4,164c-2.7,0-4.5,1.8-4.6,4.4c0,2.7,1.8,4.6,4.4,4.6c2.6,0,4.6-1.9,4.6-4.5
		C174.9,166,173.1,164.1,170.4,164z M170.4,172c-1.9,0-3.3-1.4-3.2-3.5c0-2,1.4-3.4,3.3-3.4c1.9,0,3.2,1.5,3.2,3.5
		C173.6,170.6,172.2,172,170.4,172z"/>
	<path class="st6" d="M54.4,170.7c0-1.8,0-3.5,0-5.3c0-0.4-0.2-1.2,0.6-1.1c0.6,0,0.5,0.6,0.5,1.1c0,2.1,0,4.1,0,6.2
		c0,0.5,0.1,1.1-0.6,1.2c-0.6,0.2-1-0.1-1.4-0.6c-1.3-1.9-2.6-3.8-4-5.9c-0.6,0.9-0.3,1.6-0.4,2.4c-0.1,1.1,0,2.2,0,3.3
		c0,0.3,0,0.7-0.5,0.7c-0.6,0-0.6-0.4-0.6-0.8c0-2,0-4,0-6c0-0.6-0.4-1.4,0.6-1.7c0.9-0.2,1.3,0.5,1.7,1.1c1,1.5,2,3,3,4.4
		C53.5,170.1,53.7,170.6,54.4,170.7z"/>
	<path class="st6" d="M142.5,168.5c0-0.2,0-0.3,0-0.5c0-4.1,0.6-4.6,4.7-3.9c0.4,0.1,0.8,0.1,0.8,0.6c0,0.4-0.4,0.5-0.7,0.5
		c-0.4,0-0.9,0-1.3,0c-0.9,0.1-2.3-0.5-2.3,1.3c0,1.7,1.3,1,2.2,1.2c0.4,0.1,0.8,0,1.2,0c0.4,0,0.7,0.1,0.7,0.6
		c0,0.4-0.3,0.6-0.7,0.6c-0.6,0-1.2,0.1-1.8,0c-1,0-1.6,0.2-1.6,1.4c0,1.1,0.5,1.5,1.5,1.4c0.8-0.1,1.7,0,2.5,0
		c0.3,0,0.6,0.1,0.5,0.5c0,0.3-0.3,0.5-0.6,0.5c-1.4,0-2.9,0-4.3,0c-0.7,0-0.7-0.6-0.7-1.1C142.5,170.6,142.5,169.6,142.5,168.5
		C142.5,168.5,142.5,168.5,142.5,168.5z"/>
	<path class="st6" d="M105.8,172.3c0-0.1,0-0.2-0.1-0.3c-1-2.4-2-4.8-3.1-7.2c-0.5-1.1-1.2-0.7-1.6,0.2c-1,2.2-1.9,4.4-2.9,6.5
		c-0.2,0.4-0.6,0.9,0,1.1c0.6,0.3,0.9-0.2,1.1-0.7c0.2-0.5,0.3-1.2,1-1.2c1,0,2.1-0.1,3.2,0c0.8,0.1,0.8,0.9,1.1,1.5
		c0.2,0.4,0.5,0.5,1,0.5C105.8,172.7,105.9,172.5,105.8,172.3z M101.9,169.8c-1.4,0-1.8-0.4-1.1-1.6c0.3-0.6,0.4-1.4,1.2-2
		c0.4,0.8,0.6,1.5,0.9,2.1C103.5,169.5,103.1,169.7,101.9,169.8z"/>
	<path class="st6" d="M209,168.5c0,1.2,0,2.3,0,3.5c0,0.3-0.1,0.7-0.5,0.7c-0.4,0-0.5-0.4-0.5-0.7c0-0.2,0-0.3,0-0.5
		c0.2-2.9,0-2.6-2.9-2.7c-1.4,0-1.7,0.5-1.7,1.8c0,0.7,0.4,2-0.5,2c-1.1,0-0.6-1.3-0.6-2c-0.1-1.8,0-3.5,0-5.3c0-0.4,0-0.9,0.5-0.9
		c0.7-0.1,0.5,0.5,0.6,0.9c0.1,0.8-0.4,1.9,0.4,2.3c1,0.5,2.3,0.2,3.4,0.2c0.6,0,0.7-0.4,0.7-0.9c0-0.6,0-1.2,0.1-1.8
		c0-0.3,0.1-0.7,0.5-0.7c0.4,0,0.5,0.4,0.5,0.7C209,166.2,209,167.3,209,168.5z"/>
	<path class="st6" d="M243.2,164c0.3,0,0.6,0,0.9,0.1c0.5,0.2,1.4,0.2,1.1,1c-0.2,0.8-0.9,0.3-1.4,0.1c-0.9-0.3-1.9-0.3-2.3,0.8
		c-0.4,1.2,0.5,1.5,1.4,1.8c0.4,0.1,0.7,0.2,1.1,0.4c1,0.4,1.6,1.1,1.6,2.3c-0.1,1.1-0.6,1.9-1.6,2.3c-1,0.4-2.1,0.4-3.1-0.1
		c-0.4-0.2-1.1-0.4-0.7-1.1c0.3-0.5,0.7-0.3,1.1-0.1c0.6,0.4,1.2,0.5,1.9,0.2c0.6-0.2,1-0.6,1-1.2c0-0.6-0.3-0.9-0.8-1.2
		c-0.5-0.2-0.9-0.4-1.4-0.5c-1.4-0.5-2.2-1.4-1.9-2.9C240.6,164.5,241.8,164.1,243.2,164z"/>
	<path class="st6" d="M0.3,169.1c0-4,3.5-6.3,6.4-4.7c0.4,0.2,1.1,0.4,0.7,1.1c-0.3,0.5-0.7,0.2-1.1,0.1c-1.7-0.8-3-0.5-4,0.8
		c-0.9,1.2-0.9,3.4,0,4.5c1,1.2,2.5,1.4,4.2,0.5c0.4-0.2,0.8-0.5,1.1,0c0.4,0.6-0.3,0.9-0.6,1.1c-1.5,0.9-3,0.9-4.4,0.1
		C1,171.7,0.3,170.3,0.3,169.1z"/>
	<path class="st6" d="M84.4,164c0.8,0,1.7,0.1,2.4,0.6c0.3,0.2,0.6,0.4,0.4,0.8c-0.2,0.3-0.5,0.4-0.8,0.3c-0.2-0.1-0.3-0.2-0.4-0.2
		c-1.7-0.7-3.1-0.4-4,0.9c-1,1.3-0.9,3.3,0.1,4.5c1,1.2,2.5,1.4,4.1,0.5c0.5-0.3,0.9-0.6,1.2,0c0.3,0.6-0.4,0.8-0.7,1.1
		c-1.5,0.9-3.6,0.7-5-0.4c-1.5-1.3-2-3.4-1.3-5.3C80.8,165,82.4,164,84.4,164z"/>
	<path class="st6" d="M20.3,167.9c0,0.2,0,0.4,0,0.7c0,2.9,0,2.9,2.9,3.2c0.4,0,0.9-0.1,0.9,0.5c0,0.7-0.5,0.5-1,0.6
		c-0.1,0-0.2,0-0.3,0c-4.6-0.1-3.7,0.5-3.8-3.6c0-1.3,0-2.7,0-4c0-0.4-0.1-1,0.6-1c0.6,0,0.6,0.6,0.6,1
		C20.3,166.2,20.3,167,20.3,167.9C20.3,167.9,20.3,167.9,20.3,167.9z"/>
	<path class="st6" d="M186.2,168.4c0-1,0-2,0-3c0-0.5-0.2-1.2,0.6-1.1c0.7,0,0.5,0.8,0.5,1.2c0,1.5,0.1,3,0,4.5
		c-0.1,1.4,0.4,1.9,1.8,1.8c0.7,0,2-0.4,2,0.4c0,1.1-1.3,0.4-2,0.6c-0.3,0.1-0.7,0-1,0c-1.3,0.2-2-0.3-1.8-1.7
		C186.3,170.2,186.2,169.3,186.2,168.4z"/>
	<path class="st6" d="M35,168.4c0-1.1,0-2.2,0-3.3c0-0.4,0-0.8,0.6-0.8c0.4,0,0.5,0.4,0.5,0.7c0,2.3,0,4.7,0,7
		c0,0.3-0.1,0.7-0.6,0.7c-0.4,0-0.5-0.4-0.5-0.7C35,170.8,35,169.6,35,168.4C35,168.4,35,168.4,35,168.4z"/>
	<path class="st6" d="M68.5,168.6c0,1.1,0,2.2,0,3.3c0,0.4-0.1,0.8-0.6,0.8c-0.4-0.1-0.4-0.5-0.4-0.8c0-2.3,0-4.5,0-6.8
		c0-0.3,0-0.7,0.4-0.8c0.6-0.1,0.6,0.4,0.6,0.8C68.5,166.2,68.5,167.4,68.5,168.6C68.5,168.6,68.5,168.6,68.5,168.6z"/>
	<path class="st6" d="M36.5,161.9c0.3,0,0.7,0.1,0.6,0.4c-0.3,0.6-0.8,1.2-1.5,1.3c-0.2,0.1-0.5-0.2-0.4-0.4
		C35.4,162.6,35.8,162,36.5,161.9z"/>
</g>
</svg>
