<?xml version="1.0" encoding="utf-8"?>
<!-- Generator: Adobe Illustrator 25.2.1, SVG Export Plug-In . SVG Version: 6.00 Build 0)  -->
<svg version="1.1" id="Camada_1" xmlns="http://www.w3.org/2000/svg" xmlns:xlink="http://www.w3.org/1999/xlink" x="0px" y="0px"
	 viewBox="0 0 247.2 202.1" style="enable-background:new 0 0 247.2 202.1;" xml:space="preserve">
<style type="text/css">
	.st0{fill:#5A9BDB;}
	.st1{fill:#06325E;}
	.st2{enable-background:new    ;}
</style>
<g>
	<g>
		<g>
			<path d="M204.6,48.7c12.4,0,24.7,0,37.1,0c1.3,0,2.6,0.5,3.9,0.9c0.3,0.1,0.5,0.7,0.5,1c-0.1,0.3-0.5,0.7-0.8,0.8
				c-1.1,0.2-2.2,0.2-3.3,0.2c-21.7,0-43.4,0-65.1,0c-0.6,0-1.1,0.1-1.7,0c-2.5-0.5-3.4,1.3-4.3,3c-1.1,2.2-2,4.5-3.3,6.6
				c-3.6,5.6-9,8.2-15.6,8.7c-7.1,0.6-12.7-2.6-17.2-7.4c-2.5-2.6-4.3-6.1-4.4-10.1c0-0.6,0-1.1,0-1.7c-0.3-4.6-4.3-6.7-8.5-5
				c-2.3,0.9-3.1,2.2-3.2,4.6c-0.2,8.2-5.9,15.3-13.5,18.1c-8,3-14.8,1.2-21.2-3.8c-2.6-2-4-4.9-5.3-7.8c-2.2-5.3-2.2-5.3-8.1-5.3
				c-21.3,0-42.5,0-63.8,0.1c-0.4,0-0.8,0.1-1.2,0c-1.1-0.2-2.9,0.4-2.9-1.3c0-0.5,1.9-1.3,3-1.6c1-0.3,2.2-0.1,3.3-0.1
				c19.7,0,39.5,0,59.2,0c1.9,0,3.8,0.2,5.8,0.2c2.6,0,2.6-0.1,3.1-2.7c1.7-8.6,6.6-14.6,15-17.2c10.3-3.1,20.7,2,25,12
				c0.7,1.7,1.7,2.4,3.5,2.2c2.3-0.1,4.7-0.4,7-0.1c2.1,0.2,3.2-0.3,4.1-2.3c2.4-5.6,6.6-9.4,12.4-11.5c7.5-2.7,17.7,0,22.4,6
				c0.5,0.6,0.2,1.7,0.3,2.6c-0.9-0.1-1.9,0-2.5-0.4c-2-1.3-3.6-3.1-5.7-4.2c-10-5.4-22,1-24.9,11c-1.1,3.9-0.9,7.4,0.4,10.8
				c1.3,3.3,3.3,6.4,6.4,8.5c10.4,6.8,22.6,2.3,27.2-8.6c0.8-1.8,0-2.9-1.9-3.2c-1.2-0.2-2.5,0-3.7-0.2c-0.5-0.1-1-0.8-1.4-1.2
				c0.5-0.5,1-1.4,1.6-1.4c4.3-0.2,8.6-0.2,12.8-0.3C184.9,48.7,194.7,48.7,204.6,48.7L204.6,48.7z M97.8,66.8
				c9.9,0.6,17.9-9.1,18-17.5c0.1-9.7-8-18-18-18c-8.9-0.1-17.4,8-17.7,17.4C79.9,58.2,88.9,67.5,97.8,66.8z"/>
			<path d="M100.6,101.8c3.1,0,6.1,0,9.2,0c1.7,0,2.5,0.8,2.5,2.5c0.4,9.3-3.7,17.9-13,22c-5.6,2.5-11.4,3.1-17.7,1.2
				c-5.2-1.6-9.5-4-12.5-8.2c-5.4-7.3-6.6-15.8-3.4-24.1c2.7-7.2,9.8-14.6,20.5-15.1c6.5-0.3,12.5,0.6,17.5,4.9
				c1.8,1.5,3.4,3.3,4.7,5.1c0.5,0.7,0.5,2.1,0.3,3.2c-0.2,1.4-1.4,1.7-2.4,0.8c-0.9-0.9-1.7-1.8-2.4-2.8
				c-4.4-5.9-10.4-7.8-17.5-7.2c-7.5,0.6-12.7,4.6-16,10.9c-4.1,7.8-1.7,19.4,5.4,25.3c3.5,2.9,7.6,4.1,11.7,4.6
				c7.5,0.9,17.6-4.7,19.8-13.2c0.2-0.9,0.7-1.8,0.9-2.8c0.7-2.5-0.1-3.7-2.8-3.8c-4.2-0.1-8.3,0-12.5,0c-1,0-2,0.1-2.9-0.2
				c-0.5-0.1-1.1-0.9-1.1-1.4s0.5-1.4,1-1.5c0.9-0.3,1.9-0.3,2.9-0.3C95.3,101.8,98,101.8,100.6,101.8L100.6,101.8z"/>
			<path d="M122.2,104.8c0-6.4,0-12.8,0-19.2c0-3.5,0.3-3.8,3.9-3.8c6.3,0,12.5-0.1,18.8,0.1c9,0.2,16.3,9.3,12,19.4
				c-1,2.2-3.5,3.8-5.4,5.6c-0.7,0.6-1.7,1-2.5,1.4c-1.1,0.5-1.3,1.3-0.7,2.3c1.7,2.7,3.3,5.4,5,8.1c1.1,1.8,2.4,3.4,3.4,5.2
				c0.4,0.7,0.1,1.7,0.1,2.6c-1,0-2.2,0.2-3.1-0.1c-0.6-0.2-1.1-1.2-1.5-1.9c-2.4-3.8-4.8-7.4-7-11.3c-1.9-3.2-4.3-4.8-8.1-4.5
				c-2.2,0.2-4.4,0-6.7,0.1c-3.5,0.1-3.7,0.3-3.7,3.9c-0.1,3.6-0.1,7.2-0.1,10.8c0,0.7,0.1,1.5-0.2,2c-0.4,0.6-1.2,1.2-1.8,1.2
				c-0.6,0-1.6-0.6-1.8-1.2c-0.3-0.8-0.2-1.9-0.2-2.9C122.2,116.8,122.2,110.8,122.2,104.8L122.2,104.8z M136.4,105.1L136.4,105.1
				c2.6,0,5.3,0.2,7.9-0.1c7-0.9,10.4-5.9,9.5-11.6c-0.7-4.5-5.2-7.5-10-8c-4.7-0.4-9.4-0.1-14.1,0c-2.3,0-3.1,0.7-3.2,2.9
				c-0.2,4.7-0.1,9.4-0.1,14.1c0,1.9,1,2.7,2.9,2.6C131.7,105.1,134,105.1,136.4,105.1z"/>
			<path d="M183.4,81.8c2.1-0.3,3.2,0.8,4,2.9c2.5,6.7,5.3,13.3,8,20c2.1,5.3,4,10.6,6,15.9c0.4,1.2,0.9,2.4,1,3.6
				c0.1,0.8,0,2.2-0.5,2.4c-1.2,0.7-2.4,0.3-3.1-1.1c-0.6-1.1-1.1-2.3-1.6-3.4s-1-2.3-1.6-3.4c-0.6-1.2-1.5-1.9-3-1.9
				c-6.4,0.1-12.8,0-19.2,0c-1.6,0-2.7,0.6-3.2,2.1c-0.5,1.4-1.1,2.8-1.7,4.2c-0.3,0.8-0.7,1.5-1.1,2.2c-0.8,1.4-2.1,1.9-3.5,1.1
				c-1.3-0.7-0.6-2-0.3-3c2.3-6.1,4.6-12.2,6.9-18.3c2.6-6.8,5.4-13.6,8-20.4C179.9,81.9,180.1,81.8,183.4,81.8z M183.2,113.7
				L183.2,113.7c2.5,0.1,5,0.1,7.5,0c3.1-0.1,3.4-0.6,2.3-3.5c-2.6-6.7-5.3-13.4-8-20c-0.4-1-1.3-1.7-2-2.6
				c-0.6,0.8-1.4,1.6-1.8,2.5c-2.8,7-5.6,14-8.4,21.1c-0.6,1.6-0.2,2.4,1.6,2.5C177.4,113.8,180.3,113.7,183.2,113.7z"/>
			<path d="M214.9,98.7c0.2,4.7,0.3,9.4,0.6,14.1c0.4,5,3.3,8.5,7.7,10.6c7.7,3.6,15.8,0,18.5-8.2c0.9-2.9,1.3-6,1.4-9
				c0.2-6.5,0.1-13.1,0.1-19.6c0-1.1,0.1-2.2,0.4-3.3c0.2-0.6,0.9-1.4,1.3-1.3c0.7,0.1,1.5,0.6,1.9,1.2s0.4,1.6,0.4,2.4
				c0,8.5,0.1,17-0.1,25.4c-0.2,6.2-4.9,13.7-11.6,16.2c-11,4.2-21.4-2.5-23.7-11.9c-0.7-2.7-1.2-5.4-1.2-8.2
				c-0.2-6.9-0.1-13.9-0.1-20.8c0-0.7,0-1.4,0.1-2.1c0.1-1.3,0.4-2.6,2.2-2.4c1.6,0.1,2.6,1,2.6,2.7c0,4.7,0,9.4,0,14.1
				C215.1,98.7,215,98.7,214.9,98.7z"/>
			<path d="M24.9,92.1c-0.1,0-0.2,0-0.3,0c0.2,0.7,0.3,1.3,0.3,2.1c0,4.1-3.4,7.5-7.5,7.5c-1.5,0-2.9-0.4-4.1-1.2
				c-0.4,1.2-0.6,2.5-0.6,3.9c0,6.7,5.5,12.2,12.2,12.2s12.2-5.5,12.2-12.2C37.1,97.6,31.7,92.1,24.9,92.1z"/>
			<path class="st0" d="M24.9,89.4c-0.5,0-1.1,0-1.6,0.1c0.6,0.8,1,1.6,1.3,2.6c0.1,0,0.2,0,0.3,0c6.7,0,12.2,5.5,12.2,12.2
				s-5.5,12.2-12.2,12.2s-12.2-5.5-12.2-12.2c0-1.3,0.2-2.6,0.6-3.9c-0.8-0.5-1.5-1.2-2.1-2c-0.8,1.8-1.2,3.8-1.2,5.9
				c0,8.2,6.7,14.9,14.9,14.9s14.9-6.7,14.9-14.9C39.8,96.1,33.1,89.4,24.9,89.4z"/>
			<path d="M24.9,83.9c11.3,0,20.4,9.1,20.4,20.4s-9.1,20.4-20.4,20.4s-20.4-9.1-20.4-20.4S13.6,83.9,24.9,83.9 M24.9,79.4
				C11.2,79.4,0,90.6,0,104.3s11.2,24.9,24.9,24.9s24.9-11.2,24.9-24.9S38.7,79.4,24.9,79.4L24.9,79.4z"/>
		</g>
	</g>
	<g>
		<g>
			<rect x="3.4" y="154.6" class="st1" width="81.8" height="2.1"/>
		</g>
		<g>
			<rect x="164.6" y="154.8" class="st1" width="81.8" height="2.1"/>
		</g>
	</g>
	<g>
		<g>
			<rect x="3.4" y="159.3" class="st0" width="81.8" height="2.1"/>
		</g>
		<g>
			<rect x="164.6" y="159.5" class="st0" width="81.8" height="2.1"/>
		</g>
	</g>
	<g class="st2">
		<path d="M98.6,166.3c-1.4,0-2.7-0.3-3.9-1c-1.1-0.7-2-1.6-2.7-2.7c-0.7-1.1-1-2.4-1-3.8c0-1.4,0.3-2.7,1-3.9
			c0.7-1.1,1.6-2,2.7-2.7c1.1-0.7,2.4-1,3.9-1c1.4,0,2.7,0.3,3.9,1c1.1,0.7,2,1.6,2.7,2.7c0.7,1.1,1,2.4,1,3.9c0,1.4-0.3,2.7-1,3.8
			c-0.7,1.1-1.6,2-2.7,2.7C101.3,166,100,166.3,98.6,166.3z M98.6,164.8c1.1,0,2.1-0.3,3-0.8c0.9-0.5,1.6-1.2,2.1-2.2
			s0.8-1.9,0.8-3.1c0-1.1-0.3-2.2-0.8-3.1s-1.2-1.6-2.1-2.2c-0.9-0.5-1.9-0.8-3-0.8c-1.1,0-2.1,0.3-3,0.8c-0.9,0.5-1.6,1.2-2.1,2.2
			c-0.5,0.9-0.8,1.9-0.8,3.1c0,1.1,0.3,2.2,0.8,3.1c0.5,0.9,1.2,1.6,2.1,2.2C96.4,164.6,97.5,164.8,98.6,164.8z M98.2,149.2
			c-0.2,0-0.4-0.1-0.6-0.2c-0.2-0.2-0.2-0.4-0.2-0.6c0-0.2,0.1-0.4,0.2-0.5l3.3-3.3c0.2-0.2,0.4-0.2,0.6-0.2c0.2,0,0.4,0.1,0.6,0.2
			c0.2,0.2,0.2,0.4,0.2,0.6c0,0.1,0,0.2-0.1,0.3s-0.1,0.2-0.2,0.3l-3.3,3.3C98.6,149.2,98.4,149.2,98.2,149.2z"/>
		<path d="M109,153.4c-0.2,0-0.4-0.1-0.5-0.2c-0.1-0.1-0.2-0.3-0.2-0.5s0.1-0.4,0.2-0.5c0.1-0.1,0.3-0.2,0.5-0.2h7.3
			c0.2,0,0.4,0.1,0.5,0.2s0.2,0.3,0.2,0.5s-0.1,0.4-0.2,0.5c-0.1,0.1-0.3,0.2-0.5,0.2H109z M116.2,166.2c-1,0-1.9-0.2-2.6-0.7
			c-0.8-0.4-1.4-1.1-1.8-1.8c-0.4-0.8-0.6-1.7-0.6-2.7v-13.4c0-0.3,0.1-0.5,0.2-0.6c0.2-0.2,0.3-0.2,0.6-0.2c0.3,0,0.5,0.1,0.6,0.2
			c0.2,0.2,0.2,0.4,0.2,0.6V161c0,1,0.3,1.9,1,2.5c0.6,0.7,1.5,1,2.5,1h0.6c0.3,0,0.5,0.1,0.6,0.2c0.2,0.2,0.2,0.4,0.2,0.6
			c0,0.2-0.1,0.4-0.2,0.6c-0.2,0.2-0.4,0.2-0.6,0.2H116.2z"/>
		<path d="M122.3,148.3c-0.3,0-0.6-0.1-0.9-0.4c-0.2-0.2-0.4-0.5-0.4-0.9c0-0.4,0.1-0.7,0.4-0.9c0.3-0.2,0.6-0.3,0.9-0.3
			c0.3,0,0.6,0.1,0.8,0.3c0.3,0.2,0.4,0.5,0.4,0.9c0,0.4-0.1,0.7-0.4,0.9C123,148.2,122.7,148.3,122.3,148.3z M122.4,166.2
			c-0.2,0-0.4-0.1-0.6-0.2c-0.2-0.2-0.2-0.3-0.2-0.6v-13.1c0-0.3,0.1-0.4,0.2-0.6c0.2-0.1,0.3-0.2,0.6-0.2c0.3,0,0.4,0.1,0.6,0.2
			c0.1,0.1,0.2,0.3,0.2,0.6v13.1c0,0.2-0.1,0.4-0.2,0.6C122.8,166.1,122.6,166.2,122.4,166.2z"/>
		<path d="M135.1,166.3c-1.4,0-2.7-0.3-3.8-1c-1.1-0.7-2-1.6-2.6-2.7c-0.6-1.1-1-2.4-1-3.8c0-1.4,0.3-2.7,0.9-3.9
			c0.6-1.1,1.4-2,2.5-2.7c1-0.7,2.2-1,3.6-1c1.2,0,2.2,0.2,3.2,0.7s1.8,1.1,2.5,2c0.1,0.2,0.2,0.4,0.2,0.6c0,0.2-0.2,0.4-0.4,0.5
			c-0.2,0.1-0.3,0.2-0.5,0.1c-0.2,0-0.4-0.1-0.5-0.3c-1.2-1.4-2.6-2.1-4.4-2.1c-1.1,0-2,0.3-2.8,0.8c-0.8,0.5-1.4,1.2-1.9,2.1
			c-0.4,0.9-0.7,1.9-0.7,3.1c0,1.1,0.2,2.2,0.7,3.1c0.5,0.9,1.2,1.6,2,2.2c0.9,0.5,1.8,0.8,3,0.8c0.7,0,1.4-0.1,2.1-0.3
			c0.7-0.2,1.2-0.5,1.7-1c0.2-0.1,0.3-0.2,0.5-0.2c0.2,0,0.4,0,0.5,0.2c0.2,0.2,0.3,0.3,0.3,0.6c0,0.2-0.1,0.4-0.2,0.5
			C138.7,165.7,137.1,166.3,135.1,166.3z"/>
		<path d="M151.3,166.3c-1.4,0-2.7-0.3-3.9-1c-1.1-0.7-2-1.6-2.7-2.7c-0.7-1.1-1-2.4-1-3.8c0-1.4,0.3-2.7,1-3.9
			c0.7-1.1,1.6-2,2.7-2.7c1.1-0.7,2.4-1,3.9-1c1.4,0,2.7,0.3,3.9,1c1.1,0.7,2,1.6,2.7,2.7s1,2.4,1,3.9l-0.7,1.1
			c0,1.2-0.3,2.3-0.9,3.3c-0.6,1-1.4,1.7-2.4,2.3C153.8,166.1,152.6,166.3,151.3,166.3z M151.3,164.8c1.1,0,2.1-0.3,3-0.8
			c0.9-0.5,1.6-1.2,2.1-2.2s0.8-1.9,0.8-3.1c0-1.2-0.3-2.2-0.8-3.1s-1.2-1.6-2.1-2.2c-0.9-0.5-1.9-0.8-3-0.8c-1.1,0-2.1,0.3-3,0.8
			c-0.9,0.5-1.6,1.2-2.1,2.2s-0.8,1.9-0.8,3.1c0,1.1,0.3,2.2,0.8,3.1s1.2,1.6,2.1,2.2C149.2,164.6,150.2,164.8,151.3,164.8z
			 M158.1,166.2c-0.3,0-0.5-0.1-0.6-0.2c-0.2-0.2-0.2-0.3-0.2-0.6v-4.9l0.5-1.6h1.1v6.6c0,0.2-0.1,0.4-0.2,0.6
			C158.5,166.1,158.3,166.2,158.1,166.2z"/>
	</g>
</g>
</svg>
