<?xml version="1.0" encoding="utf-8"?>
<!-- Generator: Adobe Illustrator 25.2.1, SVG Export Plug-In . SVG Version: 6.00 Build 0)  -->
<svg version="1.1" id="Camada_1" xmlns="http://www.w3.org/2000/svg" xmlns:xlink="http://www.w3.org/1999/xlink" x="0px" y="0px"
	 viewBox="0 0 247.2 202.1" style="enable-background:new 0 0 247.2 202.1;" xml:space="preserve">
<style type="text/css">
	.st0{fill:#131921;}
	.st1{fill:#BCAA4E;}
	.st2{fill:#A4A6A5;}
	.st3{fill:#ABADAB;}
	.st4{enable-background:new    ;}
	.st5{fill:#F9FAF8;}
	.st6{fill:#F9E167;}
	.st7{fill:#FFFFFF;}
</style>
<g>
	<g>
		<rect x="0.1" y="67.2" class="st0" width="247.1" height="67.7"/>
	</g>
	<g>
		<g>
			<path class="st1" d="M46.1,72.9c8.7,0,17.3,0,26,0c5.3,0,7.9,2.6,7.9,7.9c0.1,12,0.1,24,0.1,36c0,5.3-2.7,8.1-8,8.1
				c-17.4,0-34.8,0-52.1,0c-5.1,0-8-2.8-8-7.8c0-12.4,0.1-24.9,0.2-37.3c0-4.2,2.9-6.9,7.1-6.9C28.2,72.8,37.2,72.9,46.1,72.9
				C46.1,72.9,46.1,72.9,46.1,72.9z M51.1,99.9c0.2-0.1,0.3-0.2,0.5-0.3c-0.3-0.7-0.5-1.4-0.8-2.1c-1.1-3-0.7-4.4,2.3-5.1
				c5.3-1.3,10.7-2.1,16-2.9c2.3-0.3,3.2,0.7,3.3,3c0.1,1,0.1,1.9,0.2,2.9c0.3,0.1,0.5,0.2,0.8,0.2c0.4-0.7,1-1.4,1.2-2.1
				c0.2-1,0-2,0.1-3c0.1-1.8-0.6-2.6-2.4-2.4c-7.8,0.7-15.6,1.7-23,4.7c-2,0.8-4.4,1.2-6.5,0.8c-8-1.3-15.8,0.2-23.6,1.4
				c-1.3,0.2-1.6,0.9-1.5,2.1c0.3,3.6,2.6,5.8,5,8c0.2,0.2,0.6,0.1,0.5,0.1c-0.9-1.8-1.9-3.6-2.6-5.6c-0.8-2.4-0.2-3.5,2.4-4.1
				c5.4-1.4,10.9-1.8,16.5-1.3c2.9,0.2,3.6,1.3,3.3,4.2c-0.1,1-0.2,2-0.3,2.9c1.7-1.5,1-4.3,3.9-4.9C49.3,95.8,49.7,98.5,51.1,99.9z
				 M63.2,100c0-0.1-0.1-0.3-0.1-0.4c-13.8,2.7-27.7,5.5-41.5,8.2c3.7,1,7.2,2.1,11,0.6c2.3-0.9,4.7-1.4,7.1-2
				C47.5,104.3,55.4,102.1,63.2,100z"/>
		</g>
		<g>
			<path d="M51.1,99.9c-1.4-1.4-1.8-4.1-4.8-3.5c-2.9,0.6-2.2,3.4-3.9,4.9c0.1-1,0.2-2,0.3-2.9c0.3-2.9-0.5-4-3.3-4.2
				c-5.5-0.4-11,0-16.5,1.3c-2.6,0.6-3.2,1.7-2.4,4.1c0.7,2,1.8,3.8,2.6,5.6c0.1,0-0.3,0.1-0.5-0.1c-2.4-2.2-4.8-4.5-5-8
				c-0.1-1.2,0.3-1.9,1.5-2.1c7.8-1.2,15.6-2.6,23.6-1.4c2.1,0.3,4.5,0,6.5-0.8c7.4-3,15.1-4,23-4.7c1.8-0.2,2.5,0.7,2.4,2.4
				c-0.1,1,0.1,2.1-0.1,3c-0.2,0.8-0.8,1.4-1.2,2.1c-0.3-0.1-0.5-0.2-0.8-0.2c-0.1-1-0.1-1.9-0.2-2.9c-0.2-2.3-1-3.3-3.3-3
				c-5.4,0.8-10.8,1.6-16,2.9c-3.1,0.7-3.4,2.1-2.3,5.1c0.3,0.7,0.5,1.4,0.8,2.1C51.4,99.7,51.3,99.8,51.1,99.9z"/>
		</g>
		<g>
			<path d="M63.2,100c-7.8,2.1-15.7,4.3-23.5,6.4c-2.4,0.7-4.8,1.1-7.1,2c-3.8,1.5-7.3,0.4-11-0.6c13.8-2.7,27.7-5.5,41.5-8.2
				C63.1,99.7,63.2,99.8,63.2,100z"/>
		</g>
	</g>
	<g>
		<path class="st2" d="M93,92.4c-4.3,0-7.8-3.5-7.8-7.8s3.5-7.8,7.8-7.8c4.3,0,7.8,3.5,7.8,7.8S97.3,92.4,93,92.4z M93,78.9
			c-3.2,0-5.8,2.6-5.8,5.8s2.6,5.8,5.8,5.8c3.2,0,5.8-2.6,5.8-5.8S96.2,78.9,93,78.9z"/>
	</g>
	<g>
		<path class="st2" d="M97.8,84.7c0,2.7-2.1,4.8-4.8,4.8c-2.7,0-4.8-2.1-4.8-4.8c0-2.7,2.1-4.8,4.8-4.8c0.3,0,0.7,0,1,0.1
			c-0.2,0.2-0.3,0.5-0.3,0.8c0,0.7,0.6,1.2,1.3,1.2c0.6,0,1.1-0.3,1.2-0.8C97.2,82,97.8,83.3,97.8,84.7z"/>
	</g>
	<g>
		<ellipse class="st2" cx="95" cy="80.5" rx="0.7" ry="0.5"/>
	</g>
	<g>
		<g>
			<g>
				<path class="st3" d="M106.3,79.3H101v-0.9h11.7v0.9h-5.2v11.9h-1.2L106.3,79.3L106.3,79.3z"/>
			</g>
			<g>
				<path class="st3" d="M116.2,78.4v12.8H115V78.4H116.2z"/>
			</g>
			<g>
				<path class="st3" d="M132.3,87.8c-0.7,2-2.6,3.6-5.8,3.6c-4.5,0-6.8-2.9-6.8-6.5c0-3.5,2.3-6.6,6.8-6.6c3.4,0,5.3,1.5,5.8,3.7
					h-1.2c-0.7-1.7-2-2.8-4.7-2.8c-3.9,0-5.5,2.9-5.5,5.7c0,2.7,1.6,5.6,5.6,5.6c2.5,0,3.8-1.1,4.6-2.7L132.3,87.8L132.3,87.8z"/>
			</g>
			<g>
				<path class="st3" d="M137.1,86.8l-2,4.4h-1.2l5.7-12.8h1.4l6,12.8h-1.3l-2-4.4H137.1z M143.2,85.9c-1.7-3.8-2.6-5.6-2.9-6.5h0
					c-0.4,1-1.4,3.2-2.8,6.5H143.2z"/>
			</g>
		</g>
	</g>
	<g class="st4">
		<path class="st5" d="M96,113c-3.1,0-5.6-0.9-7.3-2.8s-2.6-4.1-2.6-6.9c0-2.7,0.9-5,2.8-6.8c1.9-1.8,4.3-2.7,7.3-2.7
			c3.1,0,5.5,0.9,7.3,2.7c1.8,1.8,2.7,4.1,2.7,6.8c0,2.9-0.9,5.2-2.8,7C101.5,112.1,99.1,113,96,113z M96.1,110.3
			c1.5,0,2.8-0.5,3.9-1.5c1.1-1,1.6-2.8,1.6-5.4c0-2.1-0.4-3.8-1.3-5c-0.9-1.2-2.2-1.8-4.1-1.8c-3.6,0-5.5,2.3-5.5,6.9
			c0,2.2,0.5,3.9,1.4,5.1C93,109.8,94.3,110.3,96.1,110.3z"/>
		<path class="st5" d="M126.3,94.1v11.9c0,1.6-0.2,2.9-0.7,3.7c-0.5,0.9-1.4,1.6-2.7,2.3c-1.3,0.6-2.9,0.9-4.8,0.9
			c-1.9,0-3.5-0.3-4.7-0.8s-2.1-1.3-2.7-2.2c-0.5-0.9-0.8-2.2-0.8-3.6V94.1h4.3v11.9c0,1.6,0.4,2.7,1.3,3.2s1.9,0.8,3,0.8
			c1.3,0,2.4-0.3,3.2-0.8c0.8-0.5,1.2-1.6,1.2-3.2V94.1H126.3z"/>
		<path class="st5" d="M146.7,109.9v2.9h-17.4v-2.6l12.1-13.3h-11.2v-2.7h16.2v2.7l-11.9,13H146.7z"/>
		<path class="st5" d="M168.5,112.7H164l-1.9-4.4H153l-1.8,4.4h-3.6l7.8-18.6h5.2L168.5,112.7z M160.9,105.6l-3.4-8.3l-3.4,8.3
			H160.9z"/>
		<path class="st5" d="M171.2,112.7V94.1h8.7c3.2,0,5.8,0.9,7.7,2.7c1.9,1.8,2.9,4,2.9,6.6s-1,4.8-3,6.6c-2,1.8-4.9,2.7-8.6,2.7
			H171.2z M175.6,110h3.5c1.9,0,3.5-0.6,4.8-1.7c1.3-1.1,2-2.8,2-5c0-1.8-0.6-3.4-1.7-4.6s-2.7-1.9-4.6-1.9h-4V110z"/>
		<path class="st5" d="M198.8,112.7h-4.2V94.1h4.2V112.7z"/>
		<path class="st5" d="M222.5,112.7h-4.5l-1.9-4.4H207l-1.8,4.4h-3.6l7.8-18.6h5.2L222.5,112.7z M214.9,105.6l-3.4-8.3l-3.4,8.3
			H214.9z"/>
	</g>
	<g>
		<g>
			<path class="st6" d="M230.9,124.9H83.9v-1h147.1c3.6,0,6.5-2.9,6.5-6.5V80.4c0-3.4-2.8-6.2-6.2-6.2H83v-1h148.3
				c4,0,7.2,3.2,7.2,7.2v36.9C238.5,121.5,235.1,124.9,230.9,124.9z"/>
		</g>
	</g>
	<g class="st4">
		<path class="st7" d="M93.8,118.1l-1.4,0.3c-0.3-0.4-0.8-0.6-1.6-0.6c-0.5,0-0.8,0.1-1.1,0.2c-0.3,0.1-0.4,0.3-0.4,0.5
			c0,0.1,0.1,0.3,0.3,0.3c0.2,0.1,0.5,0.2,0.9,0.2l1.1,0.2c0.3,0.1,0.6,0.1,0.9,0.2s0.5,0.3,0.7,0.4c0.1,0.2,0.2,0.3,0.2,0.5
			c0,0.4-0.3,0.8-0.8,1.1c-0.6,0.3-1.4,0.5-2.5,0.5c-1.7,0-2.7-0.4-3.2-1.2l1.4-0.3c0.3,0.5,1,0.7,2,0.7c0.6,0,1-0.1,1.3-0.2
			s0.4-0.3,0.4-0.5c0-0.1-0.1-0.2-0.2-0.3s-0.2-0.1-0.4-0.2c-0.2,0-0.5-0.1-0.9-0.2c-0.7-0.1-1.2-0.2-1.5-0.3
			c-0.3-0.1-0.6-0.2-0.8-0.4c-0.2-0.2-0.3-0.4-0.3-0.6c0-0.4,0.3-0.8,0.8-1s1.3-0.4,2.2-0.4C92.3,117.1,93.2,117.5,93.8,118.1z"/>
		<path class="st7" d="M99.1,121.9h-1.3l0.2-0.8c-0.5,0.5-1.2,0.8-2.1,0.8c-0.5,0-0.9-0.1-1.1-0.3c-0.3-0.2-0.4-0.4-0.4-0.6
			c0-0.1,0.1-0.3,0.2-0.7l0.6-2h1.4l-0.6,2.2c-0.1,0.2-0.1,0.3-0.1,0.4c0,0.1,0.1,0.2,0.2,0.3c0.1,0.1,0.3,0.1,0.5,0.1
			c0.3,0,0.6-0.1,0.9-0.2c0.3-0.1,0.5-0.3,0.6-0.5c0.1-0.2,0.2-0.4,0.3-0.8l0.4-1.5h1.4L99.1,121.9z"/>
		<path class="st7" d="M105.9,121.9h-1.3c0-0.1,0-0.1,0-0.2c0-0.2,0-0.4,0.1-0.6c-0.2,0.3-0.5,0.5-0.9,0.6c-0.4,0.1-0.8,0.2-1.3,0.2
			c-0.5,0-1-0.1-1.3-0.3c-0.3-0.2-0.5-0.4-0.5-0.7c0-0.4,0.3-0.7,0.9-0.9s1.6-0.3,2.9-0.3c0.2,0,0.4,0,0.6,0c0-0.1,0-0.2,0-0.2
			c0-0.2-0.1-0.3-0.3-0.4c-0.2-0.1-0.5-0.1-0.9-0.1c-0.7,0-1.1,0.2-1.4,0.5l-1.2-0.2c0.5-0.6,1.4-0.8,2.7-0.8c0.8,0,1.4,0.1,1.8,0.3
			c0.4,0.2,0.7,0.5,0.7,0.8c0,0.1-0.1,0.5-0.3,1.1c-0.2,0.6-0.3,1-0.3,1.2C105.8,121.8,105.9,121.8,105.9,121.9z M104.9,120.1
			c-1.1,0-1.8,0.1-2.2,0.2c-0.4,0.1-0.6,0.3-0.6,0.5c0,0.1,0.1,0.3,0.2,0.3c0.2,0.1,0.4,0.1,0.7,0.1c0.4,0,0.8-0.1,1.1-0.3
			C104.5,120.9,104.8,120.6,104.9,120.1z"/>
		<path class="st7" d="M113.2,121.9H112l-1.3-3.5h1.5l0.8,2.4l2-2.4h1.2L113.2,121.9z"/>
		<path class="st7" d="M117.5,121.9h-1.4l1-3.5h1.4L117.5,121.9z M118.6,118h-1.4l0.2-0.8h1.4L118.6,118z"/>
		<path class="st7" d="M119.9,120.9c0.2,0.3,0.7,0.5,1.5,0.5c0.4,0,0.7,0,0.9-0.1c0.2-0.1,0.3-0.2,0.3-0.3c0-0.1-0.1-0.2-0.2-0.2
			s-0.4-0.1-0.7-0.2c-0.6-0.1-1-0.2-1.2-0.2c-0.3-0.1-0.5-0.2-0.7-0.3c-0.2-0.2-0.3-0.3-0.3-0.5c0-0.3,0.2-0.6,0.6-0.8
			s1-0.3,1.7-0.3c1.2,0,2.1,0.3,2.5,0.8l-1.2,0.2c-0.3-0.3-0.7-0.5-1.3-0.5c-0.3,0-0.5,0-0.7,0.1c-0.2,0.1-0.3,0.2-0.3,0.3
			c0,0.1,0,0.2,0.1,0.2c0.1,0.1,0.3,0.1,0.6,0.2c0.7,0.1,1.1,0.2,1.5,0.3c0.3,0.1,0.6,0.2,0.8,0.3c0.2,0.1,0.3,0.3,0.3,0.5
			c0,0.3-0.2,0.6-0.7,0.8s-1.1,0.3-2,0.3c-1.4,0-2.3-0.3-2.7-0.9L119.9,120.9z"/>
		<path class="st7" d="M129.9,121.9h-1.3c0-0.1,0-0.1,0-0.2c0-0.2,0-0.4,0.1-0.6c-0.2,0.3-0.5,0.5-0.9,0.6c-0.4,0.1-0.8,0.2-1.3,0.2
			c-0.6,0-1-0.1-1.3-0.3c-0.3-0.2-0.5-0.4-0.5-0.7c0-0.4,0.3-0.7,0.9-0.9c0.6-0.2,1.6-0.3,2.9-0.3c0.2,0,0.4,0,0.6,0
			c0-0.1,0-0.2,0-0.2c0-0.2-0.1-0.3-0.3-0.4c-0.2-0.1-0.5-0.1-0.8-0.1c-0.7,0-1.1,0.2-1.4,0.5l-1.2-0.2c0.5-0.6,1.4-0.8,2.7-0.8
			c0.8,0,1.4,0.1,1.8,0.3c0.4,0.2,0.7,0.5,0.7,0.8c0,0.1-0.1,0.5-0.3,1.1c-0.2,0.6-0.3,1-0.3,1.2
			C129.9,121.8,129.9,121.8,129.9,121.9z M129,120.1c-1.1,0-1.8,0.1-2.2,0.2c-0.4,0.1-0.6,0.3-0.6,0.5c0,0.1,0.1,0.3,0.2,0.3
			c0.2,0.1,0.4,0.1,0.7,0.1c0.4,0,0.8-0.1,1.1-0.3S128.8,120.6,129,120.1z M130.2,117.1l0.3,0.3c-0.4,0.3-0.8,0.4-1.3,0.4
			c-0.2,0-0.5-0.1-0.9-0.2c-0.3-0.1-0.5-0.1-0.6-0.1c-0.2,0-0.5,0.1-0.8,0.3l-0.3-0.3c0.5-0.3,0.9-0.4,1.3-0.4c0.2,0,0.5,0,0.8,0.1
			c0.3,0.1,0.6,0.1,0.7,0.1C129.7,117.3,129.9,117.2,130.2,117.1z"/>
		<path class="st7" d="M134.2,122c-0.5,0-0.9-0.1-1.3-0.2c-0.4-0.1-0.8-0.3-1-0.5c-0.2-0.2-0.3-0.5-0.3-0.9c0-0.6,0.3-1,0.9-1.4
			c0.6-0.4,1.3-0.6,2.3-0.6c0.8,0,1.4,0.1,1.8,0.4c0.5,0.3,0.7,0.7,0.7,1.2c0,0.5-0.3,1-0.8,1.4C135.9,121.8,135.1,122,134.2,122z
			 M134.2,121.4c0.5,0,1-0.2,1.2-0.5c0.3-0.3,0.4-0.7,0.4-1c0-0.6-0.4-0.9-1.2-0.9c-0.6,0-1,0.2-1.2,0.5c-0.3,0.3-0.4,0.7-0.4,1
			c0,0.3,0.1,0.5,0.4,0.6C133.6,121.3,133.9,121.4,134.2,121.4z"/>
		<path class="st7" d="M146.3,120.9c-0.6,0.7-1.5,1.1-2.6,1.1c-0.7,0-1.3-0.1-1.8-0.4c-0.5-0.3-0.7-0.7-0.7-1.2c0-0.6,0.3-1,0.8-1.5
			s1.3-0.6,2.1-0.6c0.6,0,1.2,0.1,1.6,0.3c0.4,0.2,0.7,0.5,0.8,0.9l-1.2,0.1c-0.2-0.5-0.6-0.7-1.2-0.7c-0.5,0-0.9,0.2-1.2,0.5
			c-0.3,0.3-0.4,0.7-0.4,1.1c0,0.3,0.1,0.5,0.3,0.6c0.2,0.1,0.5,0.2,0.8,0.2c0.6,0,1.1-0.2,1.4-0.7L146.3,120.9z"/>
		<path class="st7" d="M149.8,122c-0.5,0-0.9-0.1-1.3-0.2c-0.4-0.1-0.8-0.3-1-0.5c-0.2-0.2-0.3-0.5-0.3-0.9c0-0.6,0.3-1,0.9-1.4
			c0.6-0.4,1.3-0.6,2.3-0.6c0.8,0,1.4,0.1,1.8,0.4c0.5,0.3,0.7,0.7,0.7,1.2c0,0.5-0.3,1-0.8,1.4C151.4,121.8,150.7,122,149.8,122z
			 M149.8,121.4c0.5,0,1-0.2,1.2-0.5c0.3-0.3,0.4-0.7,0.4-1c0-0.6-0.4-0.9-1.2-0.9c-0.6,0-1,0.2-1.2,0.5c-0.3,0.3-0.4,0.7-0.4,1
			c0,0.3,0.1,0.5,0.4,0.6C149.1,121.3,149.4,121.4,149.8,121.4z"/>
		<path class="st7" d="M162.5,121.9H161l0.6-2.1c0.1-0.2,0.1-0.3,0.1-0.4c0-0.3-0.3-0.5-0.9-0.5c-0.9,0-1.5,0.5-1.8,1.4l-0.5,1.5
			h-1.4l0.6-2c0.1-0.2,0.1-0.4,0.1-0.5c0-0.3-0.3-0.4-0.8-0.4c-0.4,0-0.8,0.1-1.1,0.3c-0.3,0.2-0.6,0.7-0.8,1.4l-0.4,1.2h-1.4l1-3.5
			h1.4l-0.2,0.8c0.2-0.3,0.5-0.5,0.8-0.6c0.4-0.2,0.8-0.2,1.2-0.2c0.9,0,1.5,0.3,1.6,0.8c0.6-0.5,1.3-0.8,2.2-0.8
			c0.5,0,0.9,0.1,1.2,0.3s0.5,0.4,0.5,0.7c0,0.1,0,0.4-0.1,0.7L162.5,121.9z"/>
		<path class="st7" d="M176.1,121.9h-1.4l0.6-2.1c0.1-0.2,0.1-0.3,0.1-0.4c0-0.3-0.3-0.5-0.9-0.5c-0.9,0-1.5,0.5-1.8,1.4l-0.5,1.5
			H171l0.6-2c0.1-0.2,0.1-0.4,0.1-0.5c0-0.3-0.3-0.4-0.8-0.4c-0.4,0-0.8,0.1-1.1,0.3c-0.3,0.2-0.6,0.7-0.8,1.4l-0.4,1.2h-1.4l1-3.5
			h1.4l-0.2,0.8c0.2-0.3,0.5-0.5,0.8-0.6c0.4-0.2,0.8-0.2,1.2-0.2c0.9,0,1.5,0.3,1.6,0.8c0.6-0.5,1.3-0.8,2.2-0.8
			c0.5,0,0.9,0.1,1.2,0.3s0.5,0.4,0.5,0.7c0,0.1,0,0.4-0.1,0.7L176.1,121.9z"/>
		<path class="st7" d="M182.9,121.9h-1.3c0-0.1,0-0.1,0-0.2c0-0.2,0-0.4,0.1-0.6c-0.2,0.3-0.5,0.5-0.9,0.6c-0.4,0.1-0.8,0.2-1.3,0.2
			c-0.5,0-1-0.1-1.3-0.3c-0.3-0.2-0.5-0.4-0.5-0.7c0-0.4,0.3-0.7,0.9-0.9s1.6-0.3,2.9-0.3c0.2,0,0.4,0,0.6,0c0-0.1,0-0.2,0-0.2
			c0-0.2-0.1-0.3-0.3-0.4c-0.2-0.1-0.5-0.1-0.9-0.1c-0.7,0-1.1,0.2-1.4,0.5l-1.2-0.2c0.5-0.6,1.4-0.8,2.7-0.8c0.8,0,1.4,0.1,1.8,0.3
			s0.7,0.5,0.7,0.8c0,0.1-0.1,0.5-0.3,1.1c-0.2,0.6-0.3,1-0.3,1.2C182.9,121.8,182.9,121.8,182.9,121.9z M182,120.1
			c-1.1,0-1.8,0.1-2.2,0.2c-0.4,0.1-0.6,0.3-0.6,0.5c0,0.1,0.1,0.3,0.2,0.3c0.2,0.1,0.4,0.1,0.7,0.1c0.4,0,0.8-0.1,1.1-0.3
			S181.8,120.6,182,120.1z"/>
		<path class="st7" d="M185.9,121.9h-1.4l1-3.5h1.4L185.9,121.9z M187,118h-1.4l0.2-0.8h1.4L187,118z"/>
		<path class="st7" d="M188.3,120.9c0.2,0.3,0.7,0.5,1.5,0.5c0.4,0,0.7,0,0.9-0.1c0.2-0.1,0.3-0.2,0.3-0.3c0-0.1-0.1-0.2-0.2-0.2
			s-0.4-0.1-0.7-0.2c-0.6-0.1-1-0.2-1.2-0.2c-0.3-0.1-0.5-0.2-0.7-0.3c-0.2-0.2-0.3-0.3-0.3-0.5c0-0.3,0.2-0.6,0.6-0.8
			s1-0.3,1.7-0.3c1.2,0,2.1,0.3,2.5,0.8l-1.2,0.2c-0.3-0.3-0.7-0.5-1.3-0.5c-0.3,0-0.5,0-0.7,0.1c-0.2,0.1-0.3,0.2-0.3,0.3
			c0,0.1,0,0.2,0.1,0.2c0.1,0.1,0.3,0.1,0.6,0.2c0.7,0.1,1.1,0.2,1.5,0.3c0.3,0.1,0.6,0.2,0.8,0.3c0.2,0.1,0.3,0.3,0.3,0.5
			c0,0.3-0.2,0.6-0.7,0.8s-1.1,0.3-2,0.3c-1.4,0-2.3-0.3-2.7-0.9L188.3,120.9z"/>
		<path class="st7" d="M201.7,120.9c-0.6,0.7-1.5,1.1-2.7,1.1c-0.8,0-1.4-0.1-1.9-0.4c-0.5-0.3-0.7-0.7-0.7-1.1
			c0-0.6,0.3-1.1,0.9-1.5c0.6-0.4,1.3-0.6,2.3-0.6c0.8,0,1.4,0.1,1.9,0.4s0.6,0.7,0.6,1.2c0,0.1,0,0.2,0,0.3h-4.2c0,0.1,0,0.2,0,0.3
			c0,0.3,0.1,0.5,0.3,0.6s0.5,0.2,1,0.2c0.6,0,1.1-0.2,1.5-0.6L201.7,120.9z M200.8,119.8c0-0.6-0.4-0.9-1.2-0.9
			c-0.8,0-1.4,0.3-1.6,0.9H200.8z"/>
		<path class="st7" d="M203.5,120.9c0.2,0.3,0.7,0.5,1.5,0.5c0.4,0,0.7,0,0.9-0.1c0.2-0.1,0.3-0.2,0.3-0.3c0-0.1-0.1-0.2-0.2-0.2
			s-0.4-0.1-0.7-0.2c-0.6-0.1-1-0.2-1.2-0.2c-0.3-0.1-0.5-0.2-0.7-0.3c-0.2-0.2-0.3-0.3-0.3-0.5c0-0.3,0.2-0.6,0.6-0.8
			s1-0.3,1.7-0.3c1.2,0,2.1,0.3,2.5,0.8l-1.2,0.2c-0.3-0.3-0.7-0.5-1.3-0.5c-0.3,0-0.5,0-0.7,0.1c-0.2,0.1-0.3,0.2-0.3,0.3
			c0,0.1,0,0.2,0.1,0.2c0.1,0.1,0.3,0.1,0.6,0.2c0.7,0.1,1.1,0.2,1.5,0.3c0.3,0.1,0.6,0.2,0.8,0.3c0.2,0.1,0.3,0.3,0.3,0.5
			c0,0.3-0.2,0.6-0.7,0.8s-1.1,0.3-2,0.3c-1.4,0-2.3-0.3-2.7-0.9L203.5,120.9z"/>
		<path class="st7" d="M211.4,121.9c-0.4,0-0.7,0.1-0.9,0.1c-0.6,0-1-0.1-1.3-0.2c-0.3-0.1-0.4-0.3-0.4-0.5c0-0.1,0-0.3,0.1-0.6
			l0.5-1.5h-0.9l0.2-0.6h0.9l0.4-0.9l1.2,0l-0.3,1h1.3l-0.2,0.6h-1.3l-0.5,1.5c-0.1,0.2-0.1,0.3-0.1,0.4c0,0.2,0.3,0.3,0.9,0.3
			c0.1,0,0.3,0,0.4,0L211.4,121.9z"/>
		<path class="st7" d="M213.9,121.9h-1.4l1-3.5h1.4L213.9,121.9z M215.1,118h-1.4l0.2-0.8h1.4L215.1,118z"/>
		<path class="st7" d="M217,121.9h-1.4l1.4-4.7h1.4L217,121.9z"/>
		<path class="st7" d="M221.4,122c-0.5,0-0.9-0.1-1.3-0.2c-0.4-0.1-0.8-0.3-1-0.5c-0.2-0.2-0.3-0.5-0.3-0.9c0-0.6,0.3-1,0.9-1.4
			c0.6-0.4,1.3-0.6,2.3-0.6c0.8,0,1.4,0.1,1.8,0.4c0.5,0.3,0.7,0.7,0.7,1.2c0,0.5-0.3,1-0.8,1.4C223.1,121.8,222.3,122,221.4,122z
			 M221.4,121.4c0.5,0,1-0.2,1.2-0.5c0.3-0.3,0.4-0.7,0.4-1c0-0.6-0.4-0.9-1.2-0.9c-0.6,0-1,0.2-1.2,0.5c-0.3,0.3-0.4,0.7-0.4,1
			c0,0.3,0.1,0.5,0.4,0.6C220.8,121.3,221.1,121.4,221.4,121.4z"/>
	</g>
</g>
</svg>
