<?xml version="1.0" encoding="utf-8"?>
<!-- Generator: Adobe Illustrator 25.2.1, SVG Export Plug-In . SVG Version: 6.00 Build 0)  -->
<svg version="1.1" id="Camada_1" xmlns="http://www.w3.org/2000/svg" xmlns:xlink="http://www.w3.org/1999/xlink" x="0px" y="0px"
	 viewBox="0 0 247.2 202.1" style="enable-background:new 0 0 247.2 202.1;" xml:space="preserve">
<style type="text/css">
	.st0{fill:#FEFEFE;}
	.st1{fill:#FF7700;}
</style>
<g>
	<path class="st0" d="M2.8-20.3c0,79.3,0,158.6,0,237.9c0,4.8-0.6,4.2,4.2,4.2c79.3,0,158.6,0,237.9,0c0,0.2,0,0.6,0,0.6
		c-0.8,0-1.6,0-2.4,0c-79.3,0-158.7,0-238,0c-0.6,0-1.2,0-1.8,0c-0.5,0.1-0.6-0.1-0.6-0.6c0.1-0.7,0-1.4,0-2.1
		c0-79.1,0-158.3,0-237.4c0-0.9,0-1.8,0-2.6C2.3-20.3,2.6-20.3,2.8-20.3z"/>
	<path class="st1" d="M116.8,74.2c-0.8-0.4-1.8-0.2-2.3-1.1c0.8-0.4,1.3-1.1,1.8-1.8c0.4-0.5,0.6-1.1-0.2-1.4
		c-0.7-0.3-1.6-1.3-2.3-0.3c-0.9,1.2-2.1,2.4-1.1,4.2c-4.1,0.9-6.3,3.8-5.7,7.5c0.6,3.8,3.6,5.9,7.7,5.5c2.9-0.3,5.1-2.3,5.6-5.1
		C120.9,78.3,119.5,75.6,116.8,74.2z M113.8,83.6c-1.7,0-3.2-1.6-3.1-3.5c0.1-1.8,1.5-3.3,3.1-3.3c1.8,0,3.2,1.6,3.1,3.5
		C116.8,82.1,115.4,83.5,113.8,83.6z M132.7,75.4c0-1.4-0.2-1.7-1.5-1.7c-2.5-0.1-5.1,0-7.6,0c-1,0-1.3,0.6-1.3,1.5
		c0,1,0.3,1.6,1.4,1.8c2,0.4,2,0.5,2,2.4c0,2,0,3.9,0,5.8c0,1.2,0.8,1.4,1.8,1.4c1,0,1.7-0.2,1.7-1.4c0-2,0-3.9,0-5.8
		c0-1.9,0-2,2-2.3C132.5,76.9,132.8,76.4,132.7,75.4z M139.6,75.2c0-1.3-0.3-1.5-1.9-1.5c-1.6,0-1.9,0.2-1.9,1.5c-0.1,1.7,0,3.3,0,5
		c0,1.7-0.1,3.3,0,5c0.1,1.3,0.4,1.5,1.9,1.5c1.5,0,1.9-0.2,1.9-1.5C139.7,81.9,139.7,78.5,139.6,75.2z M139.8,128.2
		c0-0.4,0-0.8,0-1.2c0-10.7,0-21.3,0-32c0-0.6,0-1.2,0-1.8c0-0.7-0.4-1.1-1.1-1.1c-2.2,0-4.5,0-6.7,0c-0.5,0-0.9,0.4-0.9,0.9
		c0,0.7-0.1,1.4-0.1,2.1c0,3.2,0,6.5,0,9.7c0,2.3,0,2.3-2.2,2.3c-2.8,0-5.7,0-8.5,0c-3.5,0-3.3,0.2-3.3-3.4c0-3.2,0-6.5,0-9.7
		c0-1.9-0.2-2-2-2c-1.6,0-3.1,0-4.7,0c-2.1,0.1-2.1,0.1-2.1,2.2c0,5.6,0,11.2,0,16.7c0,3.9,0,7.8,0,11.7c0,1.9,0,3.7,0,5.6
		c0,1.1,0.4,1.6,1.6,1.6c1.7,0,3.3,0,5,0c2.2,0,2.3-0.1,2.3-2.3c0-3.5,0-7,0-10.6c0-2.1,0.1-2.2,2.1-2.2c2.4,0,4.9,0,7.3,0
		c5.3,0.1,4.5-0.7,4.6,4.4c0,3,0,6.1,0,9.1c0,1.1,0.5,1.6,1.6,1.6c1.9,0,3.7,0,5.6,0C139.4,130,139.9,129.4,139.8,128.2z
		 M154.6,83.5c-0.2-0.8-1-1.1-1.7-1.5c-0.8-0.4-1.2,0.4-1.7,0.8c-1.5,0.9-2.6,0.9-3.7-0.1c-1.3-1.2-1.4-3.4-0.3-4.8
		c1.1-1.3,2.5-1.4,4.1-0.3c0.5,0.3,0.8,1,1.5,0.7c0.6-0.3,1.4-0.6,1.7-1.1c0.6-1.1-0.4-1.7-1.1-2.4c-0.2-0.2-0.5-0.3-0.7-0.5
		c-2.2-1.2-5.5-0.8-7.5,0.8c-2.2,1.8-3,4.6-2.1,7.1c0.9,2.6,3.4,4.4,6.4,4.4c1.5,0.1,2.9-0.4,4.2-1.4
		C154.1,84.8,154.8,84.2,154.6,83.5z M169.5,84.7c-1.2-3.2-2.6-6.3-3.8-9.5c-0.4-1-0.9-1.6-2.1-1.6c-1.2,0-1.7,0.6-2.1,1.6
		c-1.1,2.9-2.3,5.8-3.5,8.7c-0.3,0.6-0.5,1.3-0.7,1.9c-0.1,0.3,0,0.6,0.3,0.7c1,0.4,2.8-0.1,3.6-1c1.3-1.6,3.6-1.7,4.8,0
		c0.6,0.9,1.2,1.1,2.1,1.1C170,86.7,170.2,86.5,169.5,84.7z M173.3,128.2c-1.8-2.7-3.6-5.4-5.4-8c-1.3-1.9-1.3-2,0.4-3.5
		c3.1-2.8,4.8-6.3,4.7-10.4c-0.2-9-7.2-13.8-13.5-13.8c-4.4,0-8.8,0-13.2,0c-2.3,0-2.4,0.1-2.4,2.5c0,5.4,0,10.8,0,16.2v16.4
		c0,0.1,0,0.2,0,0.3c0.1,1.9,0.1,2,2,2.1c1.6,0,3.1,0,4.7,0c2.1-0.1,2.1-0.1,2.2-2.2c0-2,0-3.9,0-5.9c0-0.6-0.1-1.2,0.5-1.6
		c1-0.8,4.6-0.1,5.3,1c1.6,2.3,3.2,4.7,4.7,7.1c0.7,1.1,1.6,1.7,2.9,1.6c2.1-0.1,4.1,0,6.2,0C173.9,129.9,174.1,129.4,173.3,128.2z
		 M163.7,108.6c-0.6,2.2-2.2,3.5-4.4,3.7c-2,0.2-4.5,0.9-5.9-0.3c-1.5-1.3-0.3-3.9-0.6-5.5c0-1.7,0-3.1,0-4.4c0.1-1.8,0.2-1.9,2.1-2
		c1.5,0,2.9-0.1,4.4,0c2.3,0.2,3.8,1.3,4.4,3.6C164.1,105.3,164.1,107,163.7,108.6z M173.3,128.2c-1.8-2.7-3.6-5.4-5.4-8
		c-1.3-1.9-1.3-2,0.4-3.5c3.1-2.8,4.8-6.3,4.7-10.4c-0.2-9-7.2-13.8-13.5-13.8c-4.4,0-8.8,0-13.2,0c-2.3,0-2.4,0.1-2.4,2.5
		c0,5.4,0,10.8,0,16.2v16.4c0,0.1,0,0.2,0,0.3c0.1,1.9,0.1,2,2,2.1c1.6,0,3.1,0,4.7,0c2.1-0.1,2.1-0.1,2.2-2.2c0-2,0-3.9,0-5.9
		c0-0.6-0.1-1.2,0.5-1.6c1-0.8,4.6-0.1,5.3,1c1.6,2.3,3.2,4.7,4.7,7.1c0.7,1.1,1.6,1.7,2.9,1.6c2.1-0.1,4.1,0,6.2,0
		C173.9,129.9,174.1,129.4,173.3,128.2z M163.7,108.6c-0.6,2.2-2.2,3.5-4.4,3.7c-2,0.2-4.5,0.9-5.9-0.3c-1.5-1.3-0.3-3.9-0.6-5.5
		c0-1.7,0-3.1,0-4.4c0.1-1.8,0.2-1.9,2.1-2c1.5,0,2.9-0.1,4.4,0c2.3,0.2,3.8,1.3,4.4,3.6C164.1,105.3,164.1,107,163.7,108.6z
		 M157.6,86.5c1,0.4,2.8-0.1,3.6-1c1.3-1.6,3.6-1.7,4.8,0c0.6,0.9,1.2,1.1,2.1,1.1c2,0.1,2.2-0.1,1.5-1.9c-1.2-3.2-2.6-6.3-3.8-9.5
		c-0.4-1-0.9-1.6-2.1-1.6c-1.2,0-1.7,0.6-2.1,1.6c-1.1,2.9-2.3,5.8-3.5,8.7c-0.3,0.6-0.5,1.3-0.7,1.9
		C157.2,86.2,157.3,86.4,157.6,86.5z M149.4,86.7c1.5,0.1,2.9-0.4,4.2-1.4c0.5-0.4,1.2-1,1-1.7c-0.2-0.8-1-1.1-1.7-1.5
		c-0.8-0.4-1.2,0.4-1.7,0.8c-1.5,0.9-2.6,0.9-3.7-0.1c-1.3-1.2-1.4-3.4-0.3-4.8c1.1-1.3,2.5-1.4,4.1-0.3c0.5,0.3,0.8,1,1.5,0.7
		c0.6-0.3,1.4-0.6,1.7-1.1c0.6-1.1-0.4-1.7-1.1-2.4c-0.2-0.2-0.5-0.3-0.7-0.5c-2.2-1.2-5.5-0.8-7.5,0.8c-2.2,1.8-3,4.6-2.1,7.1
		C143.9,84.9,146.4,86.7,149.4,86.7z M139.8,127c0-10.7,0-21.3,0-32c0-0.6,0-1.2,0-1.8c0-0.7-0.4-1.1-1.1-1.1c-2.2,0-4.5,0-6.7,0
		c-0.5,0-0.9,0.4-0.9,0.9c0,0.7-0.1,1.4-0.1,2.1c0,3.2,0,6.5,0,9.7c0,2.3,0,2.3-2.2,2.3c-2.8,0-5.7,0-8.5,0c-3.5,0-3.3,0.2-3.3-3.4
		c0-3.2,0-6.5,0-9.7c0-1.9-0.2-2-2-2c-1.6,0-3.1,0-4.7,0c-2.1,0.1-2.1,0.1-2.1,2.2c0,5.6,0,11.2,0,16.7c0,3.9,0,7.8,0,11.7
		c0,1.9,0,3.7,0,5.6c0,1.1,0.4,1.6,1.6,1.6c1.7,0,3.3,0,5,0c2.2,0,2.3-0.1,2.3-2.3c0-3.5,0-7,0-10.6c0-2.1,0.1-2.2,2.1-2.2
		c2.4,0,4.9,0,7.3,0c5.3,0.1,4.5-0.7,4.6,4.4c0,3,0,6.1,0,9.1c0,1.1,0.5,1.6,1.6,1.6c1.9,0,3.7,0,5.6,0c1.2,0,1.8-0.5,1.7-1.8
		C139.8,127.8,139.8,127.4,139.8,127z M135.7,85.2c0.1,1.3,0.4,1.5,1.9,1.5c1.5,0,1.9-0.2,1.9-1.5c0.1-3.3,0.1-6.6,0-10
		c0-1.3-0.3-1.5-1.9-1.5c-1.6,0-1.9,0.2-1.9,1.5c-0.1,1.7,0,3.3,0,5C135.7,81.8,135.7,83.5,135.7,85.2z M123.7,77.1
		c2,0.4,2,0.5,2,2.4c0,2,0,3.9,0,5.8c0,1.2,0.8,1.4,1.8,1.4c1,0,1.7-0.2,1.7-1.4c0-2,0-3.9,0-5.8c0-1.9,0-2,2-2.3
		c1.2-0.2,1.5-0.7,1.4-1.7c0-1.4-0.2-1.7-1.5-1.7c-2.5-0.1-5.1,0-7.6,0c-1,0-1.3,0.6-1.3,1.5C122.3,76.2,122.6,76.8,123.7,77.1z
		 M114.8,86.7c2.9-0.3,5.1-2.3,5.6-5.1c0.5-3.3-0.8-5.9-3.6-7.3c-0.8-0.4-1.8-0.2-2.3-1.1c0.8-0.4,1.3-1.1,1.8-1.8
		c0.4-0.5,0.6-1.1-0.2-1.4c-0.7-0.3-1.6-1.3-2.3-0.3c-0.9,1.2-2.1,2.4-1.1,4.2c-4.1,0.9-6.3,3.8-5.7,7.5
		C107.7,85,110.7,87.1,114.8,86.7z M113.7,76.8c1.8,0,3.2,1.6,3.1,3.5c-0.1,1.8-1.4,3.2-3.1,3.3c-1.7,0-3.2-1.6-3.1-3.5
		C110.7,78.3,112.1,76.8,113.7,76.8z M229.8,93.9c-0.7-7.5-2.1-14.9-4.6-22.1c-6.8-19.9-18.9-35.9-36-48.1
		c-15.6-11.1-33.2-17-52.3-18.2c-6.6-0.4-13.3,0-19.9,1c-17.8,2.6-33.9,9.4-47.9,20.7c-2.7,2.2-5.2,3.6-8.7,2.4
		c-0.3-0.1-0.6,0-0.9-0.1C46.4,29,35.2,33.2,26.3,42.9c-8.6,9.4-11.8,20.6-9.7,33.1c1.6,9.5,6.4,17.4,13.8,23.5
		c1.3,1.1,1.9,2.2,1.9,3.9c0.1,7.3,0.9,14.4,2.6,21.5c5.2,21.4,16.4,39,33.5,52.8c17.2,13.9,36.9,20.9,58.9,22
		c7.1,0.4,14.1-0.3,21-1.5c24.8-4.4,45.1-16.3,60.8-35.9c14-17.4,20.8-37.4,21.1-59.7C230.2,99.8,230,96.9,229.8,93.9z M56.4,84.4
		C48.5,84.3,41.1,78,41.1,69c0-8.5,7.6-15.4,15.7-14.9c7.3-0.5,15.4,6.1,15.3,14.9C71.9,79.2,63.6,84.5,56.4,84.4z M185.6,145.6
		c-11,13.5-25.2,21.8-42.5,24.6c-21.4,3.5-40.6-1.6-57.3-15.5c-13-10.7-20.6-24.6-23.5-41.2c-0.3-1.5-0.9-3.4-0.3-4.6
		c0.6-1.2,2.8-0.9,4.3-1.3c16.8-4.4,28.1-18.2,30.1-33.6c1.1-8.6-0.7-16.5-4.7-24.1c-0.3-0.5-0.6-1-0.9-1.5
		c-0.5-0.7-0.3-1.3,0.4-1.7c0.4-0.3,0.8-0.6,1.2-0.8c9.1-6,19.1-9.8,30-11.1c3-0.4,6-0.5,9.1-0.6c21.2,0.3,39,8.3,53.1,24.2
		c8.8,10,14.2,21.7,15.9,35.1C202.9,112.9,198,130.4,185.6,145.6z M167.9,120.1c-1.3-1.9-1.3-2,0.4-3.5c3.1-2.8,4.8-6.3,4.7-10.4
		c-0.2-9-7.2-13.8-13.5-13.8c-4.4,0-8.8,0-13.2,0c-2.3,0-2.4,0.1-2.4,2.5c0,5.4,0,10.8,0,16.2v16.4c0,0.1,0,0.2,0,0.3
		c0.1,1.9,0.1,2,2,2.1c1.6,0,3.1,0,4.7,0c2.1-0.1,2.1-0.1,2.2-2.2c0-2,0-3.9,0-5.9c0-0.6-0.1-1.2,0.5-1.6c1-0.8,4.6-0.1,5.3,1
		c1.6,2.3,3.2,4.7,4.7,7.1c0.7,1.1,1.6,1.7,2.9,1.6c2.1-0.1,4.1,0,6.2,0c1.5,0,1.8-0.5,0.9-1.8C171.5,125.5,169.7,122.8,167.9,120.1
		z M163.7,108.6c-0.6,2.2-2.2,3.5-4.4,3.7c-2,0.2-4.5,0.9-5.9-0.3c-1.5-1.3-0.3-3.9-0.6-5.5c0-1.7,0-3.1,0-4.4
		c0.1-1.8,0.2-1.9,2.1-2c1.5,0,2.9-0.1,4.4,0c2.3,0.2,3.8,1.3,4.4,3.6C164.1,105.3,164.1,107,163.7,108.6z M157.6,86.5
		c1,0.4,2.8-0.1,3.6-1c1.3-1.6,3.6-1.7,4.8,0c0.6,0.9,1.2,1.1,2.1,1.1c2,0.1,2.2-0.1,1.5-1.9c-1.2-3.2-2.6-6.3-3.8-9.5
		c-0.4-1-0.9-1.6-2.1-1.6c-1.2,0-1.7,0.6-2.1,1.6c-1.1,2.9-2.3,5.8-3.5,8.7c-0.3,0.6-0.5,1.3-0.7,1.9
		C157.2,86.2,157.3,86.4,157.6,86.5z M149.4,86.7c1.5,0.1,2.9-0.4,4.2-1.4c0.5-0.4,1.2-1,1-1.7c-0.2-0.8-1-1.1-1.7-1.5
		c-0.8-0.4-1.2,0.4-1.7,0.8c-1.5,0.9-2.6,0.9-3.7-0.1c-1.3-1.2-1.4-3.4-0.3-4.8c1.1-1.3,2.5-1.4,4.1-0.3c0.5,0.3,0.8,1,1.5,0.7
		c0.6-0.3,1.4-0.6,1.7-1.1c0.6-1.1-0.4-1.7-1.1-2.4c-0.2-0.2-0.5-0.3-0.7-0.5c-2.2-1.2-5.5-0.8-7.5,0.8c-2.2,1.8-3,4.6-2.1,7.1
		C143.9,84.9,146.4,86.7,149.4,86.7z M139.8,127c0-10.7,0-21.3,0-32c0-0.6,0-1.2,0-1.8c0-0.7-0.4-1.1-1.1-1.1c-2.2,0-4.5,0-6.7,0
		c-0.5,0-0.9,0.4-0.9,0.9c0,0.7-0.1,1.4-0.1,2.1c0,3.2,0,6.5,0,9.7c0,2.3,0,2.3-2.2,2.3c-2.8,0-5.7,0-8.5,0c-3.5,0-3.3,0.2-3.3-3.4
		c0-3.2,0-6.5,0-9.7c0-1.9-0.2-2-2-2c-1.6,0-3.1,0-4.7,0c-2.1,0.1-2.1,0.1-2.1,2.2c0,5.6,0,11.2,0,16.7c0,3.9,0,7.8,0,11.7
		c0,1.9,0,3.7,0,5.6c0,1.1,0.4,1.6,1.6,1.6c1.7,0,3.3,0,5,0c2.2,0,2.3-0.1,2.3-2.3c0-3.5,0-7,0-10.6c0-2.1,0.1-2.2,2.1-2.2
		c2.4,0,4.9,0,7.3,0c5.3,0.1,4.5-0.7,4.6,4.4c0,3,0,6.1,0,9.1c0,1.1,0.5,1.6,1.6,1.6c1.9,0,3.7,0,5.6,0c1.2,0,1.8-0.5,1.7-1.8
		C139.8,127.8,139.8,127.4,139.8,127z M135.7,85.2c0.1,1.3,0.4,1.5,1.9,1.5c1.5,0,1.9-0.2,1.9-1.5c0.1-3.3,0.1-6.6,0-10
		c0-1.3-0.3-1.5-1.9-1.5c-1.6,0-1.9,0.2-1.9,1.5c-0.1,1.7,0,3.3,0,5C135.7,81.8,135.7,83.5,135.7,85.2z M123.7,77.1
		c2,0.4,2,0.5,2,2.4c0,2,0,3.9,0,5.8c0,1.2,0.8,1.4,1.8,1.4c1,0,1.7-0.2,1.7-1.4c0-2,0-3.9,0-5.8c0-1.9,0-2,2-2.3
		c1.2-0.2,1.5-0.7,1.4-1.7c0-1.4-0.2-1.7-1.5-1.7c-2.5-0.1-5.1,0-7.6,0c-1,0-1.3,0.6-1.3,1.5C122.3,76.2,122.6,76.8,123.7,77.1z
		 M114.8,86.7c2.9-0.3,5.1-2.3,5.6-5.1c0.5-3.3-0.8-5.9-3.6-7.3c-0.8-0.4-1.8-0.2-2.3-1.1c0.8-0.4,1.3-1.1,1.8-1.8
		c0.4-0.5,0.6-1.1-0.2-1.4c-0.7-0.3-1.6-1.3-2.3-0.3c-0.9,1.2-2.1,2.4-1.1,4.2c-4.1,0.9-6.3,3.8-5.7,7.5
		C107.7,85,110.7,87.1,114.8,86.7z M113.7,76.8c1.8,0,3.2,1.6,3.1,3.5c-0.1,1.8-1.4,3.2-3.1,3.3c-1.7,0-3.2-1.6-3.1-3.5
		C110.7,78.3,112.1,76.8,113.7,76.8z M116.8,74.2c-0.8-0.4-1.8-0.2-2.3-1.1c0.8-0.4,1.3-1.1,1.8-1.8c0.4-0.5,0.6-1.1-0.2-1.4
		c-0.7-0.3-1.6-1.3-2.3-0.3c-0.9,1.2-2.1,2.4-1.1,4.2c-4.1,0.9-6.3,3.8-5.7,7.5c0.6,3.8,3.6,5.9,7.7,5.5c2.9-0.3,5.1-2.3,5.6-5.1
		C120.9,78.3,119.5,75.6,116.8,74.2z M113.8,83.6c-1.7,0-3.2-1.6-3.1-3.5c0.1-1.8,1.5-3.3,3.1-3.3c1.8,0,3.2,1.6,3.1,3.5
		C116.8,82.1,115.4,83.5,113.8,83.6z M132.7,75.4c0-1.4-0.2-1.7-1.5-1.7c-2.5-0.1-5.1,0-7.6,0c-1,0-1.3,0.6-1.3,1.5
		c0,1,0.3,1.6,1.4,1.8c2,0.4,2,0.5,2,2.4c0,2,0,3.9,0,5.8c0,1.2,0.8,1.4,1.8,1.4c1,0,1.7-0.2,1.7-1.4c0-2,0-3.9,0-5.8
		c0-1.9,0-2,2-2.3C132.5,76.9,132.8,76.4,132.7,75.4z M139.6,75.2c0-1.3-0.3-1.5-1.9-1.5c-1.6,0-1.9,0.2-1.9,1.5c-0.1,1.7,0,3.3,0,5
		c0,1.7-0.1,3.3,0,5c0.1,1.3,0.4,1.5,1.9,1.5c1.5,0,1.9-0.2,1.9-1.5C139.7,81.9,139.7,78.5,139.6,75.2z M139.8,128.2
		c0-0.4,0-0.8,0-1.2c0-10.7,0-21.3,0-32c0-0.6,0-1.2,0-1.8c0-0.7-0.4-1.1-1.1-1.1c-2.2,0-4.5,0-6.7,0c-0.5,0-0.9,0.4-0.9,0.9
		c0,0.7-0.1,1.4-0.1,2.1c0,3.2,0,6.5,0,9.7c0,2.3,0,2.3-2.2,2.3c-2.8,0-5.7,0-8.5,0c-3.5,0-3.3,0.2-3.3-3.4c0-3.2,0-6.5,0-9.7
		c0-1.9-0.2-2-2-2c-1.6,0-3.1,0-4.7,0c-2.1,0.1-2.1,0.1-2.1,2.2c0,5.6,0,11.2,0,16.7c0,3.9,0,7.8,0,11.7c0,1.9,0,3.7,0,5.6
		c0,1.1,0.4,1.6,1.6,1.6c1.7,0,3.3,0,5,0c2.2,0,2.3-0.1,2.3-2.3c0-3.5,0-7,0-10.6c0-2.1,0.1-2.2,2.1-2.2c2.4,0,4.9,0,7.3,0
		c5.3,0.1,4.5-0.7,4.6,4.4c0,3,0,6.1,0,9.1c0,1.1,0.5,1.6,1.6,1.6c1.9,0,3.7,0,5.6,0C139.4,130,139.9,129.4,139.8,128.2z
		 M154.6,83.5c-0.2-0.8-1-1.1-1.7-1.5c-0.8-0.4-1.2,0.4-1.7,0.8c-1.5,0.9-2.6,0.9-3.7-0.1c-1.3-1.2-1.4-3.4-0.3-4.8
		c1.1-1.3,2.5-1.4,4.1-0.3c0.5,0.3,0.8,1,1.5,0.7c0.6-0.3,1.4-0.6,1.7-1.1c0.6-1.1-0.4-1.7-1.1-2.4c-0.2-0.2-0.5-0.3-0.7-0.5
		c-2.2-1.2-5.5-0.8-7.5,0.8c-2.2,1.8-3,4.6-2.1,7.1c0.9,2.6,3.4,4.4,6.4,4.4c1.5,0.1,2.9-0.4,4.2-1.4
		C154.1,84.8,154.8,84.2,154.6,83.5z M169.5,84.7c-1.2-3.2-2.6-6.3-3.8-9.5c-0.4-1-0.9-1.6-2.1-1.6c-1.2,0-1.7,0.6-2.1,1.6
		c-1.1,2.9-2.3,5.8-3.5,8.7c-0.3,0.6-0.5,1.3-0.7,1.9c-0.1,0.3,0,0.6,0.3,0.7c1,0.4,2.8-0.1,3.6-1c1.3-1.6,3.6-1.7,4.8,0
		c0.6,0.9,1.2,1.1,2.1,1.1C170,86.7,170.2,86.5,169.5,84.7z M173.3,128.2c-1.8-2.7-3.6-5.4-5.4-8c-1.3-1.9-1.3-2,0.4-3.5
		c3.1-2.8,4.8-6.3,4.7-10.4c-0.2-9-7.2-13.8-13.5-13.8c-4.4,0-8.8,0-13.2,0c-2.3,0-2.4,0.1-2.4,2.5c0,5.4,0,10.8,0,16.2v16.4
		c0,0.1,0,0.2,0,0.3c0.1,1.9,0.1,2,2,2.1c1.6,0,3.1,0,4.7,0c2.1-0.1,2.1-0.1,2.2-2.2c0-2,0-3.9,0-5.9c0-0.6-0.1-1.2,0.5-1.6
		c1-0.8,4.6-0.1,5.3,1c1.6,2.3,3.2,4.7,4.7,7.1c0.7,1.1,1.6,1.7,2.9,1.6c2.1-0.1,4.1,0,6.2,0C173.9,129.9,174.1,129.4,173.3,128.2z
		 M163.7,108.6c-0.6,2.2-2.2,3.5-4.4,3.7c-2,0.2-4.5,0.9-5.9-0.3c-1.5-1.3-0.3-3.9-0.6-5.5c0-1.7,0-3.1,0-4.4c0.1-1.8,0.2-1.9,2.1-2
		c1.5,0,2.9-0.1,4.4,0c2.3,0.2,3.8,1.3,4.4,3.6C164.1,105.3,164.1,107,163.7,108.6z M173.3,128.2c-1.8-2.7-3.6-5.4-5.4-8
		c-1.3-1.9-1.3-2,0.4-3.5c3.1-2.8,4.8-6.3,4.7-10.4c-0.2-9-7.2-13.8-13.5-13.8c-4.4,0-8.8,0-13.2,0c-2.3,0-2.4,0.1-2.4,2.5
		c0,5.4,0,10.8,0,16.2v16.4c0,0.1,0,0.2,0,0.3c0.1,1.9,0.1,2,2,2.1c1.6,0,3.1,0,4.7,0c2.1-0.1,2.1-0.1,2.2-2.2c0-2,0-3.9,0-5.9
		c0-0.6-0.1-1.2,0.5-1.6c1-0.8,4.6-0.1,5.3,1c1.6,2.3,3.2,4.7,4.7,7.1c0.7,1.1,1.6,1.7,2.9,1.6c2.1-0.1,4.1,0,6.2,0
		C173.9,129.9,174.1,129.4,173.3,128.2z M163.7,108.6c-0.6,2.2-2.2,3.5-4.4,3.7c-2,0.2-4.5,0.9-5.9-0.3c-1.5-1.3-0.3-3.9-0.6-5.5
		c0-1.7,0-3.1,0-4.4c0.1-1.8,0.2-1.9,2.1-2c1.5,0,2.9-0.1,4.4,0c2.3,0.2,3.8,1.3,4.4,3.6C164.1,105.3,164.1,107,163.7,108.6z
		 M169.5,84.7c-1.2-3.2-2.6-6.3-3.8-9.5c-0.4-1-0.9-1.6-2.1-1.6c-1.2,0-1.7,0.6-2.1,1.6c-1.1,2.9-2.3,5.8-3.5,8.7
		c-0.3,0.6-0.5,1.3-0.7,1.9c-0.1,0.3,0,0.6,0.3,0.7c1,0.4,2.8-0.1,3.6-1c1.3-1.6,3.6-1.7,4.8,0c0.6,0.9,1.2,1.1,2.1,1.1
		C170,86.7,170.2,86.5,169.5,84.7z M154.6,83.5c-0.2-0.8-1-1.1-1.7-1.5c-0.8-0.4-1.2,0.4-1.7,0.8c-1.5,0.9-2.6,0.9-3.7-0.1
		c-1.3-1.2-1.4-3.4-0.3-4.8c1.1-1.3,2.5-1.4,4.1-0.3c0.5,0.3,0.8,1,1.5,0.7c0.6-0.3,1.4-0.6,1.7-1.1c0.6-1.1-0.4-1.7-1.1-2.4
		c-0.2-0.2-0.5-0.3-0.7-0.5c-2.2-1.2-5.5-0.8-7.5,0.8c-2.2,1.8-3,4.6-2.1,7.1c0.9,2.6,3.4,4.4,6.4,4.4c1.5,0.1,2.9-0.4,4.2-1.4
		C154.1,84.8,154.8,84.2,154.6,83.5z M139.8,128.2c0-0.4,0-0.8,0-1.2c0-10.7,0-21.3,0-32c0-0.6,0-1.2,0-1.8c0-0.7-0.4-1.1-1.1-1.1
		c-2.2,0-4.5,0-6.7,0c-0.5,0-0.9,0.4-0.9,0.9c0,0.7-0.1,1.4-0.1,2.1c0,3.2,0,6.5,0,9.7c0,2.3,0,2.3-2.2,2.3c-2.8,0-5.7,0-8.5,0
		c-3.5,0-3.3,0.2-3.3-3.4c0-3.2,0-6.5,0-9.7c0-1.9-0.2-2-2-2c-1.6,0-3.1,0-4.7,0c-2.1,0.1-2.1,0.1-2.1,2.2c0,5.6,0,11.2,0,16.7
		c0,3.9,0,7.8,0,11.7c0,1.9,0,3.7,0,5.6c0,1.1,0.4,1.6,1.6,1.6c1.7,0,3.3,0,5,0c2.2,0,2.3-0.1,2.3-2.3c0-3.5,0-7,0-10.6
		c0-2.1,0.1-2.2,2.1-2.2c2.4,0,4.9,0,7.3,0c5.3,0.1,4.5-0.7,4.6,4.4c0,3,0,6.1,0,9.1c0,1.1,0.5,1.6,1.6,1.6c1.9,0,3.7,0,5.6,0
		C139.4,130,139.9,129.4,139.8,128.2z M139.6,75.2c0-1.3-0.3-1.5-1.9-1.5c-1.6,0-1.9,0.2-1.9,1.5c-0.1,1.7,0,3.3,0,5
		c0,1.7-0.1,3.3,0,5c0.1,1.3,0.4,1.5,1.9,1.5c1.5,0,1.9-0.2,1.9-1.5C139.7,81.9,139.7,78.5,139.6,75.2z M132.7,75.4
		c0-1.4-0.2-1.7-1.5-1.7c-2.5-0.1-5.1,0-7.6,0c-1,0-1.3,0.6-1.3,1.5c0,1,0.3,1.6,1.4,1.8c2,0.4,2,0.5,2,2.4c0,2,0,3.9,0,5.8
		c0,1.2,0.8,1.4,1.8,1.4c1,0,1.7-0.2,1.7-1.4c0-2,0-3.9,0-5.8c0-1.9,0-2,2-2.3C132.5,76.9,132.8,76.4,132.7,75.4z M116.8,74.2
		c-0.8-0.4-1.8-0.2-2.3-1.1c0.8-0.4,1.3-1.1,1.8-1.8c0.4-0.5,0.6-1.1-0.2-1.4c-0.7-0.3-1.6-1.3-2.3-0.3c-0.9,1.2-2.1,2.4-1.1,4.2
		c-4.1,0.9-6.3,3.8-5.7,7.5c0.6,3.8,3.6,5.9,7.7,5.5c2.9-0.3,5.1-2.3,5.6-5.1C120.9,78.3,119.5,75.6,116.8,74.2z M113.8,83.6
		c-1.7,0-3.2-1.6-3.1-3.5c0.1-1.8,1.5-3.3,3.1-3.3c1.8,0,3.2,1.6,3.1,3.5C116.8,82.1,115.4,83.5,113.8,83.6z"/>
	<path class="st1" d="M116.8,74.2c-0.8-0.4-1.8-0.2-2.3-1.1c0.8-0.4,1.3-1.1,1.8-1.8c0.4-0.5,0.6-1.1-0.2-1.4
		c-0.7-0.3-1.6-1.3-2.3-0.3c-0.9,1.2-2.1,2.4-1.1,4.2c-4.1,0.9-6.3,3.8-5.7,7.5c0.6,3.8,3.6,5.9,7.7,5.5c2.9-0.3,5.1-2.3,5.6-5.1
		C120.9,78.3,119.5,75.6,116.8,74.2z M113.8,83.6c-1.7,0-3.2-1.6-3.1-3.5c0.1-1.8,1.5-3.3,3.1-3.3c1.8,0,3.2,1.6,3.1,3.5
		C116.8,82.1,115.4,83.5,113.8,83.6z"/>
	<path class="st1" d="M122.3,75.2c0-0.9,0.3-1.5,1.3-1.5c2.5,0,5.1,0,7.6,0c1.3,0,1.5,0.3,1.5,1.7c0.1,0.9-0.2,1.5-1.4,1.7
		c-2,0.3-2,0.4-2,2.3c0,1.9,0,3.9,0,5.8c0,1.2-0.7,1.4-1.7,1.4c-1,0-1.8-0.2-1.8-1.4c0-1.9,0-3.9,0-5.8c0-1.9,0-1.9-2-2.4
		C122.6,76.8,122.3,76.2,122.3,75.2z"/>
	<path class="st1" d="M135.7,80.2c0-1.7-0.1-3.3,0-5c0.1-1.3,0.4-1.5,1.9-1.5c1.6,0,1.9,0.2,1.9,1.5c0.1,3.3,0.1,6.6,0,10
		c0,1.3-0.4,1.5-1.9,1.5c-1.5,0-1.9-0.2-1.9-1.5C135.7,83.5,135.7,81.8,135.7,80.2z"/>
	<path class="st1" d="M139.8,128.2c0.1,1.2-0.5,1.8-1.7,1.8c-1.9,0-3.7,0-5.6,0c-1.1,0-1.6-0.5-1.6-1.6c0-3,0-6.1,0-9.1
		c-0.1-5.2,0.7-4.4-4.6-4.4c-2.4,0-4.9,0-7.3,0c-2,0-2.1,0.1-2.1,2.2c0,3.5,0,7,0,10.6c0,2.2-0.1,2.3-2.3,2.3c-1.7,0-3.3,0-5,0
		c-1.1,0-1.6-0.5-1.6-1.6c0-1.9,0-3.7,0-5.6c0-3.9,0-7.8,0-11.7c0-5.6,0-11.2,0-16.7c0-2.1,0.1-2.2,2.1-2.2c1.6,0,3.1,0,4.7,0
		c1.9,0.1,2,0.2,2,2c0,3.2,0,6.5,0,9.7c0,3.6-0.2,3.4,3.3,3.4c2.8,0,5.7,0,8.5,0c2.2,0,2.2-0.1,2.2-2.3c0-3.2,0-6.5,0-9.7
		c0-0.7,0-1.4,0.1-2.1c0-0.6,0.4-0.9,0.9-0.9c2.3,0,4.5,0,6.7,0c0.7,0,1.1,0.4,1.1,1.1c0,0.6,0,1.2,0,1.8c0,10.7,0,21.3,0,32
		C139.8,127.4,139.8,127.8,139.8,128.2z"/>
	<path class="st1" d="M143,82.3c-0.9-2.6-0.1-5.3,2.1-7.1c1.9-1.6,5.2-2,7.5-0.8c0.3,0.1,0.5,0.3,0.7,0.5c0.7,0.6,1.7,1.2,1.1,2.4
		c-0.3,0.5-1,0.9-1.7,1.1c-0.7,0.3-1-0.4-1.5-0.7c-1.7-1.1-3.1-1-4.1,0.3c-1.2,1.4-1,3.6,0.3,4.8c1.1,1,2.3,1.1,3.7,0.1
		c0.5-0.4,0.9-1.2,1.7-0.8c0.7,0.3,1.5,0.7,1.7,1.5c0.2,0.7-0.5,1.3-1,1.7c-1.3,1.1-2.7,1.5-4.2,1.4C146.4,86.7,143.9,84.9,143,82.3
		z"/>
	<path class="st1" d="M157.3,85.9c0.2-0.6,0.5-1.3,0.7-1.9c1.2-2.9,2.3-5.8,3.5-8.7c0.4-1,0.9-1.6,2.1-1.6c1.2,0,1.7,0.6,2.1,1.6
		c1.2,3.2,2.5,6.3,3.8,9.5c0.7,1.8,0.6,2-1.5,1.9c-0.8,0-1.5-0.2-2.1-1.1c-1.2-1.7-3.4-1.7-4.8,0c-0.8,1-2.6,1.5-3.6,1
		C157.3,86.4,157.2,86.2,157.3,85.9z"/>
	<path class="st1" d="M173.3,128.2c-1.8-2.7-3.6-5.4-5.4-8c-1.3-1.9-1.3-2,0.4-3.5c3.1-2.8,4.8-6.3,4.7-10.4
		c-0.2-9-7.2-13.8-13.5-13.8c-4.4,0-8.8,0-13.2,0c-2.3,0-2.4,0.1-2.4,2.5c0,5.4,0,10.8,0,16.2v16.4c0,0.1,0,0.2,0,0.3
		c0.1,1.9,0.1,2,2,2.1c1.6,0,3.1,0,4.7,0c2.1-0.1,2.1-0.1,2.2-2.2c0-2,0-3.9,0-5.9c0-0.6-0.1-1.2,0.5-1.6c1-0.8,4.6-0.1,5.3,1
		c1.6,2.3,3.2,4.7,4.7,7.1c0.7,1.1,1.6,1.7,2.9,1.6c2.1-0.1,4.1,0,6.2,0C173.9,129.9,174.1,129.4,173.3,128.2z M163.7,108.6
		c-0.6,2.2-2.2,3.5-4.4,3.7c-2,0.2-4.5,0.9-5.9-0.3c-1.5-1.3-0.3-3.9-0.6-5.5c0-1.7,0-3.1,0-4.4c0.1-1.8,0.2-1.9,2.1-2
		c1.5,0,2.9-0.1,4.4,0c2.3,0.2,3.8,1.3,4.4,3.6C164.1,105.3,164.1,107,163.7,108.6z"/>
	<path class="st1" d="M173.3,128.2c-1.8-2.7-3.6-5.4-5.4-8c-1.3-1.9-1.3-2,0.4-3.5c3.1-2.8,4.8-6.3,4.7-10.4
		c-0.2-9-7.2-13.8-13.5-13.8c-4.4,0-8.8,0-13.2,0c-2.3,0-2.4,0.1-2.4,2.5c0,5.4,0,10.8,0,16.2v16.4c0,0.1,0,0.2,0,0.3
		c0.1,1.9,0.1,2,2,2.1c1.6,0,3.1,0,4.7,0c2.1-0.1,2.1-0.1,2.2-2.2c0-2,0-3.9,0-5.9c0-0.6-0.1-1.2,0.5-1.6c1-0.8,4.6-0.1,5.3,1
		c1.6,2.3,3.2,4.7,4.7,7.1c0.7,1.1,1.6,1.7,2.9,1.6c2.1-0.1,4.1,0,6.2,0C173.9,129.9,174.1,129.4,173.3,128.2z M163.7,108.6
		c-0.6,2.2-2.2,3.5-4.4,3.7c-2,0.2-4.5,0.9-5.9-0.3c-1.5-1.3-0.3-3.9-0.6-5.5c0-1.7,0-3.1,0-4.4c0.1-1.8,0.2-1.9,2.1-2
		c1.5,0,2.9-0.1,4.4,0c2.3,0.2,3.8,1.3,4.4,3.6C164.1,105.3,164.1,107,163.7,108.6z"/>
	<path class="st1" d="M138.1,130c-1.9,0-3.7,0-5.6,0c-1.1,0-1.6-0.5-1.6-1.6c0-3,0-6.1,0-9.1c-0.1-5.2,0.7-4.4-4.6-4.4
		c-2.4,0-4.9,0-7.3,0c-2,0-2.1,0.1-2.1,2.2c0,3.5,0,7,0,10.6c0,2.2-0.1,2.3-2.3,2.3c-1.7,0-3.3,0-5,0c-1.1,0-1.6-0.5-1.6-1.6
		c0-1.9,0-3.7,0-5.6c0-3.9,0-7.8,0-11.7c0-5.6,0-11.2,0-16.7c0-2.1,0.1-2.2,2.1-2.2c1.6,0,3.1,0,4.7,0c1.9,0.1,2,0.2,2,2
		c0,3.2,0,6.5,0,9.7c0,3.6-0.2,3.4,3.3,3.4c2.8,0,5.7,0,8.5,0c2.2,0,2.2-0.1,2.2-2.3c0-3.2,0-6.5,0-9.7c0-0.7,0-1.4,0.1-2.1
		c0-0.6,0.4-0.9,0.9-0.9c2.3,0,4.5,0,6.7,0c0.7,0,1.1,0.4,1.1,1.1c0,0.6,0,1.2,0,1.8c0,10.7,0,21.3,0,32c0,0.4,0,0.8,0,1.2
		C139.9,129.4,139.4,130,138.1,130z"/>
	<path class="st1" d="M116.8,74.2c-0.8-0.4-1.8-0.2-2.3-1.1c-1-1.1-1.3,0-1.8,0.6c-4.1,0.9-6.3,3.8-5.7,7.5c0.6,3.8,3.6,5.9,7.7,5.5
		c2.9-0.3,5.1-2.3,5.6-5.1C120.9,78.3,119.5,75.6,116.8,74.2z M113.8,83.6c-1.7,0-3.2-1.6-3.1-3.5c0.1-1.8,1.5-3.3,3.1-3.3
		c1.8,0,3.2,1.6,3.1,3.5C116.8,82.1,115.4,83.5,113.8,83.6z"/>
	<path class="st1" d="M168,86.6c-0.8,0-1.5-0.2-2.1-1.1c-1.2-1.7-3.4-1.7-4.8,0c-0.8,1-2.6,1.5-3.6,1c-0.3-0.1-0.4-0.4-0.3-0.7
		c0.2-0.6,0.5-1.3,0.7-1.9c1.2-2.9,2.3-5.8,3.5-8.7c0.4-1,0.9-1.6,2.1-1.6c1.2,0,1.7,0.6,2.1,1.6c1.2,3.2,2.5,6.3,3.8,9.5
		C170.2,86.5,170,86.7,168,86.6z"/>
	<path class="st1" d="M153.6,85.2c-1.3,1.1-2.7,1.5-4.2,1.4c-3,0-5.5-1.8-6.4-4.4c-0.9-2.6-0.1-5.3,2.1-7.1c1.9-1.6,5.2-2,7.5-0.8
		c0.3,0.1,0.5,0.3,0.7,0.5c0.7,0.6,1.7,1.2,1.1,2.4c-0.3,0.5-1,0.9-1.7,1.1c-0.7,0.3-1-0.4-1.5-0.7c-1.7-1.1-3.1-1-4.1,0.3
		c-1.2,1.4-1,3.6,0.3,4.8c1.1,1,2.3,1.1,3.7,0.1c0.5-0.4,0.9-1.2,1.7-0.8c0.7,0.3,1.5,0.7,1.7,1.5C154.8,84.2,154.1,84.8,153.6,85.2
		z"/>
	<path class="st1" d="M131.3,77.1c-2,0.3-2,0.4-2,2.3c0,1.9,0,3.9,0,5.8c0,1.2-0.7,1.4-1.7,1.4c-1,0-1.8-0.2-1.8-1.4
		c0-1.9,0-3.9,0-5.8c0-1.9,0-1.9-2-2.4c-1.1-0.2-1.4-0.9-1.4-1.8c0-0.9,0.3-1.5,1.3-1.5c2.5,0,5.1,0,7.6,0c1.3,0,1.5,0.3,1.5,1.7
		C132.8,76.4,132.5,76.9,131.3,77.1z"/>
	<path class="st1" d="M139.6,85.2c0,1.3-0.4,1.5-1.9,1.5c-1.5,0-1.9-0.2-1.9-1.5c-0.1-1.7,0-3.3,0-5c0-1.7-0.1-3.3,0-5
		c0.1-1.3,0.4-1.5,1.9-1.5c1.6,0,1.9,0.2,1.9,1.5C139.7,78.5,139.7,81.9,139.6,85.2z"/>
	<path class="st1" d="M116.3,71.3c-0.5,0.7-1,1.4-1.8,1.8c-0.6,0.3-1.1,0.6-1.8,0.6c-0.9-1.7,0.3-3,1.1-4.2c0.7-1,1.6,0,2.3,0.3
		C116.9,70.2,116.7,70.8,116.3,71.3z"/>
</g>
</svg>
