<?xml version="1.0" encoding="utf-8"?>
<!-- Generator: Adobe Illustrator 25.2.1, SVG Export Plug-In . SVG Version: 6.00 Build 0)  -->
<svg version="1.1" id="Camada_1" xmlns="http://www.w3.org/2000/svg" xmlns:xlink="http://www.w3.org/1999/xlink" x="0px" y="0px"
	 viewBox="0 0 247.2 202.1" style="enable-background:new 0 0 247.2 202.1;" xml:space="preserve">
<style type="text/css">
	.st0{fill:#20689E;}
</style>
<g>
	<path class="st0" d="M123.5,141.9c17.6,0,35.2,0,52.8,0c0.4,0,1-0.2,1.2,0.2c0.2,0.5-0.3,0.8-0.5,1.2c-6.6,8.3-14.6,14.8-24.1,19.3
		c-5.8,2.8-11.8,4.7-18.2,5.7c-5.8,1-11.5,1.2-17.3,0.7c-10.4-0.9-20.2-4.1-29.1-9.7c-7-4.4-13.3-9.6-18.3-16.2
		c-0.2-0.3-0.7-0.5-0.5-1c0.2-0.4,0.7-0.2,1.1-0.2C88.2,141.9,105.8,141.9,123.5,141.9z"/>
	<path class="st0" d="M123.6,60.2c-17.6,0-35.1,0-52.7,0c-0.4,0-1,0.2-1.3-0.3c-0.2-0.5,0.3-0.8,0.6-1.2C76.4,50.8,84,44.6,93,40.1
		c5.2-2.6,10.7-4.6,16.5-5.8c5.6-1.1,11.2-1.7,16.8-1.4c7.1,0.4,14,1.7,20.7,4.2c6,2.3,11.6,5.3,16.8,9c5,3.6,9.4,7.9,13.2,12.8
		c0.2,0.3,0.8,0.6,0.5,1.1c-0.2,0.4-0.8,0.2-1.2,0.2C158.7,60.2,141.1,60.2,123.6,60.2C123.6,60.2,123.6,60.2,123.6,60.2z"/>
	<path class="st0" d="M121.9,195.3c-5.7-0.1-13-0.7-20.2-2.4c-5.1-1.2-10.1-2.8-14.9-4.9c-12.4-5.4-23.3-12.9-32.4-22.9
		c-6.1-6.6-11.2-14-15.2-22.1c-0.5-0.9-0.2-1.1,0.7-1.1c1.7,0,3.5,0.1,5.2,0c0.9-0.1,1.4,0.3,1.8,1c2,3.8,4.3,7.4,7,10.8
		c6.2,8.1,13.5,15,22.1,20.6c7.5,4.9,15.5,8.5,24.1,10.9c5.6,1.6,11.2,2.5,17,3c5.9,0.5,11.7,0.3,17.5-0.5
		c11.3-1.4,21.9-5,31.8-10.6c6.8-3.9,13-8.6,18.6-14.1c6-6,11-12.6,15.1-20.1c0.4-0.8,0.9-1.2,1.9-1.1c1.7,0.1,3.4,0,5.1,0
		c1.3,0,1.3,0,0.7,1.2c-2.5,5.2-5.5,10-9,14.6c-6.3,8.4-13.8,15.5-22.5,21.4c-9,6.1-18.9,10.6-29.5,13.3
		C139.2,194.4,131.5,195.3,121.9,195.3z"/>
	<path class="st0" d="M124.1,6.8c3.9-0.1,8.3,0.2,12.7,0.8c9.1,1.3,17.8,3.9,26.1,7.8c6.3,2.9,12.2,6.5,17.7,10.7
		c7.9,6.1,14.7,13.2,20.4,21.4c2.5,3.6,4.8,7.4,6.7,11.4c0.6,1.1,0.5,1.3-0.7,1.3c-1.8,0-3.6,0-5.5,0c-0.7,0-1.1-0.3-1.5-0.9
		c-6.2-11.5-14.7-21.1-25.2-28.9c-7.2-5.3-15.1-9.5-23.7-12.3c-5.6-1.9-11.4-3.2-17.3-3.9c-6.4-0.8-12.9-0.9-19.3-0.2
		c-7.2,0.7-14.2,2.3-21,4.8c-11.9,4.4-22.4,11-31.4,19.9c-6.2,6.1-11.4,12.9-15.5,20.6c-0.3,0.5-0.6,0.9-1.2,0.9c-2,0-3.9,0-5.9,0
		c-0.8,0-1-0.3-0.6-1C42.7,52,47,45.4,52.3,39.4c5.9-6.8,12.5-12.6,20-17.5c4.8-3.2,9.9-5.8,15.3-8c6.4-2.6,13-4.5,19.7-5.7
		C112.7,7.2,118.1,6.8,124.1,6.8z"/>
	<path class="st0" d="M83.8,75.9c3.4,0,6.8,0.1,10.2,0c3-0.1,5.1,1.8,5.7,4.3c0.9,4,0.9,8,0,12c-0.4,2.1-2,3.3-4.1,3.5
		c-0.9,0.1-1,0.4-0.6,1.1c1.6,3.4,3.2,6.9,4.8,10.3c0.4,0.8,0.4,1.1-0.7,1.1c-4,0-4,0.1-5.6-3.6c-1.2-2.7-2.5-5.4-3.8-8.1
		c-0.3-0.6-0.7-0.8-1.3-0.8c-3.8,0-7.6,0-11.4,0c-0.8,0-1.1,0.3-1.1,1.1c0,3.4,0,6.8,0,10.2c0,1-0.3,1.2-1.3,1.2
		c-3.4,0-3.4,0-3.4-3.3c0-5.2,0-10.4,0-15.6c0-1,0.3-1.3,1.3-1.3c7.2,0,14.3,0,21.5,0c1.1,0,1.4-0.4,1.4-1.4c0-2.3,0-2.3-2.4-2.4
		c-6.8,0-13.6,0-20.4,0c-1.1,0-1.3-0.4-1.3-1.3c0.1-1.9,0.1-3.9,0-5.8c0-1,0.2-1.4,1.3-1.4C76.3,75.9,80.1,75.8,83.8,75.9
		C83.8,75.8,83.8,75.9,83.8,75.9z"/>
	<path class="st0" d="M155.9,75.9c3.1,0,6.3,0.1,9.4,0c4.5-0.2,6.1,1.9,6.8,5.4c0.6,3.4,0.6,6.9-0.1,10.4c-0.6,2.6-1.8,3.6-4.5,4
		c-0.9,0.1-0.7,0.5-0.4,1c1.5,3.3,3.1,6.7,4.6,10c0.6,1.4,0.6,1.4-0.9,1.5c-3.3,0.1-3.3,0.1-4.8-2.9c-1.3-2.8-2.7-5.7-4-8.5
		c-0.3-0.8-0.8-1.1-1.7-1.1c-3.7,0-7.4,0-11.1,0c-0.9,0-1.1,0.3-1.1,1.1c0,3.4,0,6.7,0,10.1c0,0.9-0.1,1.4-1.2,1.3
		c-0.8-0.1-1.6,0-2.4,0c-0.7,0-0.9-0.3-0.9-1c0-6,0-12.1,0-18.1c0-1,0.5-1,1.3-1c7.2,0,14.4,0,21.6,0c1,0,1.3-0.3,1.2-1.3
		c-0.1-2.9,0.5-2.4-2.5-2.5c-6.8,0-13.5,0-20.3,0c-0.9,0-1.3-0.2-1.3-1.2c0.1-2.1,0-4.1,0-6.2c0-0.9,0.3-1.1,1.1-1.1
		C148.4,75.9,152.1,75.8,155.9,75.9C155.9,75.8,155.9,75.9,155.9,75.9z"/>
	<path class="st0" d="M19.6,75.9c3.3,0,6.6,0,9.9,0c3.8,0,6.1,2,6.4,5.8c0.3,3,0.3,6.1,0,9.1c-0.3,3-2.1,4.9-5.1,4.9
		c-5.8,0-11.7,0-17.5,0c-1.1,0-1.4,0.3-1.4,1.4c0.1,3.3,0,6.6,0,9.9c0,1-0.4,1.3-1.3,1.3c-3.3,0-3.3,0-3.3-3.3c0-5.2,0-10.4,0-15.6
		c0-1,0.3-1.2,1.3-1.2c7,0,14,0,21,0c1.8,0,1.8,0,1.8-1.8c0-2.4,0.2-2-2-2c-6.9,0-13.9,0-20.8,0c-1,0-1.3-0.3-1.3-1.2
		c0.1-2.1,0.1-4.1,0-6.2c0-0.9,0.3-1.1,1.2-1.1C12.1,75.9,15.8,75.8,19.6,75.9C19.6,75.9,19.6,75.9,19.6,75.9z"/>
	<path class="st0" d="M55.9,108.2c-3.4,0-6.8-0.1-10.2,0c-2.5,0.1-4.1-1.1-5.3-3.1c-0.7-1.3-1.2-2.7-1.2-4.2c0-3.9,0-7.7,0-11.6
		c0-0.9,0.3-1.2,1.2-1.2c8.9,0,17.7,0,26.6,0c0.8,0,1.1,0.3,1,1.1c0,1.8-0.1,3.6,0,5.3c0,1-0.3,1.2-1.3,1.2c-7.2,0-14.3,0-21.5,0
		c-1.2,0-1.5,0.4-1.5,1.5c0.1,2.5-0.2,2.2,2.3,2.2c6.9,0,13.8,0,20.7,0c0.9,0,1.3,0.2,1.3,1.2c-0.1,2.1-0.1,4.2,0,6.3
		c0,1-0.2,1.3-1.3,1.3C63.2,108.1,59.5,108.2,55.9,108.2z"/>
	<path class="st0" d="M231.9,98.7c0-0.8,0-1.8,0-2.7c0-6.2,0-12.5,0-18.7c0-1.2,0.3-1.5,1.5-1.5c3.2,0.1,3.2,0,3.2,3.2
		c0,9.2,0,18.4,0,27.7c0,1-0.2,1.3-1.4,1.5c-2.6,0.4-4.1-0.8-5.6-2.7c-5.4-6.7-10.9-13.3-16.4-20c-0.7-0.9-1.5-1.2-2.7-1.2
		c-2.9,0.1-2.9,0-2.9-2.9c0-1.5,0-2.9,0-4.4c0-0.9,0.3-1.2,1.2-1.1c0.5,0,0.9,0.1,1.4,0c1.8-0.3,2.9,0.5,3.9,1.9
		c1.8,2.7,3.9,5.1,5.9,7.4c3.9,4.4,7.4,9.1,11.4,13.4C231.4,98.6,231.5,98.8,231.9,98.7z"/>
	<path class="st0" d="M125.8,75.8c4.4,0,8.7,0,13.1,0c1,0,1.4,0.2,1.3,1.3c-0.1,2-0.1,4,0,6c0,1-0.3,1.2-1.2,1.2c-3.2,0-6.3,0-9.5,0
		c-1.5,0-1.5,0-1.5,1.6c0,6.9,0,13.9,0,20.8c0,1.2-0.4,1.6-1.5,1.5c-0.2,0-0.3,0-0.5,0c-3.2,0-2.6,0.4-2.7-2.7
		c-0.1-6.6-0.1-13.2,0-19.9c0-1-0.3-1.2-1.3-1.2c-3.2,0-6.4,0-9.6,0c-0.9,0-1.2-0.4-1.2-1.2c0-2.1,0.1-4.1,0-6.2
		c0-0.9,0.3-1.2,1.2-1.2C117,75.9,121.4,75.8,125.8,75.8z"/>
	<path class="st0" d="M187.3,88.4c1.1,0,2.2,0,3.4,0c0.6,0,0.8-0.2,0.6-0.8c-1.2-3.3-1.2-3.3-4.7-3.3c-0.2,0-0.4,0-0.6,0
		c-1.5,0-1.6-0.1-1.1-1.5c0.8-2.1,1.6-4.1,2.4-6.2c0.2-0.6,0.6-0.9,1.2-0.8c0,0,0.1,0,0.1,0c1.2,0,2.5-0.4,3.5,0.2
		c1,0.6,1,2.1,1.4,3.2c3.5,9.3,7,18.5,10.5,27.8c0.3,0.9,0.2,1.2-0.8,1.2c-3.3,0.1-3.4,0.1-4.7-3c-1.2-2.8-2.4-5.6-3.5-8.5
		c-0.3-0.8-0.7-1.1-1.6-1.1c-2.3,0.1-4.6,0.1-6.8,0c-0.8,0-1.2,0.3-1.5,1c-1.4,3.5-2.9,6.9-4.3,10.4c-0.4,0.9-0.8,1.2-1.7,1.1
		c-0.7-0.1-1.4,0-2.1,0c-0.9,0.1-1.3-0.2-0.9-1.2c1.1-2.8,2.1-5.6,3.1-8.4c1.1-3,2.3-6.1,3.4-9.1c0.3-0.8,0.7-1.2,1.6-1.1
		C185.2,88.5,186.2,88.4,187.3,88.4z"/>
	<path class="st0" d="M53.6,84.3c-4.4,0-8.7,0-13.1,0c-1,0-1.3-0.4-1.2-1.3c0.1-1.6,0.5-3.2,1.5-4.6c1.1-1.8,2.6-2.7,4.8-2.6
		c5.8,0.1,11.5,0,17.3,0.1c1.4,0,2.9,0,4.3,0c0.7,0,0.9,0.2,0.9,1c0,2.1-0.1,4.2,0,6.3c0,1-0.3,1.3-1.3,1.3
		C62.4,84.3,58,84.3,53.6,84.3z"/>
	<path class="st0" d="M103.4,92.1c0-5,0-9.9,0-14.9c0-1,0.2-1.5,1.3-1.4c0.7,0.1,1.4,0.1,2.1,0c1-0.1,1.3,0.2,1.3,1.3
		c0,4.5,0,8.9,0,13.4c0,5.4,0,10.9,0,16.3c0,1.1-0.3,1.6-1.4,1.4c-0.7-0.1-1.4-0.1-2.1,0c-0.9,0.1-1.2-0.3-1.2-1.2
		C103.4,102,103.4,97,103.4,92.1C103.4,92.1,103.4,92.1,103.4,92.1z"/>
	<path class="st0" d="M207.6,98.2c0-2.9,0-5.9,0-8.8c0-1,0.3-1.3,1.3-1.2c0.7,0.1,1.5,0.1,2.2,0c0.9-0.1,1.2,0.3,1.2,1.2
		c0,2.6,0,5.2,0,7.8c0,3.3,0,6.5,0,9.8c0,1.1-0.3,1.4-1.3,1.3c-0.6-0.1-1.2,0-1.7,0c-1.6,0-1.6,0-1.6-1.6
		C207.6,103.8,207.6,101,207.6,98.2C207.6,98.2,207.6,98.2,207.6,98.2z"/>
	<path class="st0" d="M76.6,121.8c-0.8,0.9-0.9,2-1.3,3c-0.2,0.7-0.4,1.3-1.4,1.3c-0.9,0-1.2-0.5-1.4-1.3c-0.3-1-0.6-2.1-0.9-3.1
		c-0.1,0-0.2,0-0.3,0c0,1,0,2.1,0,3.1c0,0.9-0.3,1.3-1.2,1.3c-1,0-1-0.5-1-1.3c0-1.6,0-3.3,0-4.9c0-0.8,0.3-1,1-1
		c2.5-0.1,2.5-0.1,3.3,2.3c0.1,0.4,0.1,0.9,0.6,1.2c0.5-0.7,0.8-1.6,1-2.5c0.2-0.8,0.6-1.2,1.5-1.1c0.3,0,0.7,0,1,0
		c0.9-0.1,1.2,0.3,1.2,1.2c-0.1,1.6,0,3.2,0,4.8c0,0.8-0.2,1.2-1.1,1.2c-0.9,0-1-0.4-1-1.2C76.6,123.9,76.6,122.8,76.6,121.8z"/>
	<path class="st0" d="M27.9,125.2c-0.4-0.6-0.7-1.2-1.2-1.7c-0.4-0.4-0.4-0.7,0.1-1c0.8-0.5,1.1-1.3,0.8-2.2
		c-0.3-0.9-1.1-1.2-1.9-1.3c-1.6-0.1-3.2-0.1-4.9-0.1c-0.6,0-0.8,0.3-0.8,0.9c0,0.8,0,1.7,0,2.5h0c0,0.8,0.1,1.6,0,2.4
		c-0.1,1.1,0.4,1.4,1.4,1.4c0.9-0.1,1.5-0.3,1.3-1.4c0-0.3,0-0.6,0-0.9c0-0.2-0.1-0.5,0.2-0.6c0.3-0.2,0.5,0.1,0.7,0.3
		c0.5,0.6,0.9,1.3,1.4,2c0.4,0.5,2.2,0.9,2.8,0.5C28.2,125.7,28,125.5,27.9,125.2z M23.4,121.8c-0.2,0-0.6-0.1-0.6-0.8
		c0-0.7,0.5-0.7,0.9-0.7c0.6,0,1.2,0,1.2,0.7C24.9,121.7,24.2,121.7,23.4,121.8z"/>
	<path class="st0" d="M94.4,119.1c-1-0.3-2-0.2-3-0.2c-2.8,0-2.4-0.2-2.4,2.3c0,0.4,0,0.9,0,1.3c0,0,0,0,0,0c0,0.9,0,1.8,0,2.7
		c0,0.6,0.2,0.9,0.8,0.9c1.4,0,2.8,0.2,4.3-0.1c1.7-0.4,2.6-1.4,2.6-3.2C96.8,120.8,96,119.5,94.4,119.1z M94,123.2
		c-0.3,0.9-1.2,1.4-2.1,1.1c-0.3-0.1-0.4-0.4-0.4-0.6c0-0.4,0-0.9,0-1.3h0c0-0.2,0-0.5,0-0.7c0-1.2,0.3-1.3,1.4-1.1
		C93.9,120.8,94.3,122,94,123.2z"/>
	<path class="st0" d="M200.8,119.2c-1.5-0.5-3-0.7-4.5,0c-0.8,0.4-1.4,0.9-1.8,1.7c-1.2,2.8,0.6,5.2,4,5.3c0.8,0,1.6-0.1,2.4-0.4
		c1.5-0.6,2-1.8,2.1-3.3C203,120.9,202.2,119.6,200.8,119.2z M200.3,122.5c0,1.3-0.6,2-1.7,2c-1.1,0-1.8-1-1.8-2.3
		c0-1.1,0.8-1.8,1.9-1.7C199.9,120.6,200.3,121.1,200.3,122.5z"/>
	<path class="st0" d="M184.5,120.2c-1.4-1.7-3.3-1.7-5.2-1.3c-1.4,0.3-2.3,1.2-2.7,2.5c0,0.1,0,0.3-0.1,0.5
		c-0.2,2.7,1.3,4.2,4.8,4.2c1.2,0,2.7-0.3,3.5-2C185.5,122.8,185.5,121.4,184.5,120.2z M180.8,124.5c-1.1,0-1.8-0.8-1.8-2.1
		c0-1.2,0.7-1.9,1.7-1.9c1.2,0,1.8,0.7,1.8,2.1C182.5,123.8,181.9,124.5,180.8,124.5z"/>
	<path class="st0" d="M133.5,122.4c0-0.9,0-1.8,0-2.7c0-0.6,0.2-0.8,0.8-0.8c1.8,0,3.6,0,5.3,0c0.6,0,0.9,0.2,0.8,0.8
		c0,0.6-0.4,0.7-0.9,0.7c-0.7,0-1.5,0-2.2,0c-0.5,0-1.2-0.2-1.2,0.5c0,0.8,0.8,0.5,1.2,0.6c0.6,0.1,1.2,0,1.9,0
		c0.6,0,0.9,0.2,0.9,0.8c0,0.7-0.4,0.8-0.9,0.7c-0.8,0-1.5,0-2.3,0c-0.4,0-0.8,0.1-0.8,0.6c0,0.6,0.3,0.7,0.8,0.7c0.9,0,1.9,0,2.8,0
		c0.6,0,1,0.2,0.9,0.9c-0.1,0.6-0.4,0.8-0.9,0.8c-1.7,0-3.5,0-5.2,0c-0.7,0-1-0.3-1-1C133.6,124.2,133.5,123.3,133.5,122.4
		C133.5,122.4,133.5,122.4,133.5,122.4z"/>
	<path class="st0" d="M210.8,121.9c0.5,0.1,1.4-0.3,1.6,0.2c0.4,0.8,0.2,1.7,0.1,2.6c0,0.3-0.4,0.5-0.6,0.6
		c-1.7,0.9-3.4,1.1-5.3,0.6c-1.7-0.5-2.6-1.7-2.6-3.4c0-1.6,0.9-3,2.5-3.5c1.5-0.4,3-0.5,4.4,0.1c0.6,0.2,1.6,0.7,1.1,1.4
		c-0.4,0.6-1.4,0.8-2.2,0.3c-0.3-0.2-0.6-0.5-1-0.5c-0.9-0.1-1.6,0.1-2,1c-0.4,0.9-0.2,2.4,0.5,2.9c0.9,0.6,1.7,0.5,2.6,0
		c0.2-0.1,0.3-0.3,0.2-0.5c-0.1-0.3-0.3-0.3-0.6-0.3c-0.4,0-0.9,0.1-1-0.5c-0.1-0.6,0-1.1,0.8-1.1
		C209.9,121.9,210.3,121.9,210.8,121.9z"/>
	<path class="st0" d="M84,126.1c-0.8,0-1.7,0-2.6,0c-0.7,0-1-0.3-1-1c0-1.8,0-3.6,0-5.3c0-0.6,0.3-0.9,0.9-0.9c1.7,0,3.4,0,5.1,0
		c0.5,0,0.9,0.1,0.9,0.8c0,0.7-0.4,0.7-0.9,0.7c-0.8,0-1.6,0-2.4,0c-0.4,0-0.8,0-0.8,0.6c0,0.6,0.5,0.5,0.8,0.5c0.7,0,1.5,0,2.2,0
		c0.5,0,0.8,0.2,0.8,0.7c0,0.6-0.4,0.7-0.9,0.7c-0.8,0-1.5,0-2.3,0c-0.5,0-0.8,0.2-0.8,0.7c0,0.5,0.4,0.7,0.8,0.7c0.9,0,1.9,0,2.8,0
		c0.6,0,0.9,0.2,0.8,0.8c0,0.6-0.4,0.8-0.9,0.8C85.7,126.1,84.9,126.1,84,126.1C84,126.1,84,126.1,84,126.1z"/>
	<path class="st0" d="M10.2,120.9c-0.1-1.1-0.9-1.9-2.2-2c-0.7-0.1-1.5,0-2.2,0v0c-0.7,0-1.4,0-2.1,0c-0.5,0-0.8,0.2-0.8,0.7
		c-0.1,1.9-0.1,3.9,0,5.8c0,0.7,0.5,0.7,1,0.7c0.6-0.1,1.7,0.3,1.6-0.5c-0.2-2,0.9-2.2,2.3-2.2c0.2,0,0.4-0.1,0.5-0.2
		C9.6,122.8,10.3,121.9,10.2,120.9z M6.5,121.8c-0.5,0.1-0.8-0.2-0.8-0.7c0-0.6,0.3-0.7,0.8-0.7c0.5,0,0.9,0.1,0.9,0.7
		C7.4,121.7,6.9,121.8,6.5,121.8z"/>
	<path class="st0" d="M11.6,122.5c0-0.9,0-1.8,0-2.7c0-0.7,0.2-1,0.9-1c1.7,0,3.4,0,5.1,0c0.5,0,0.9,0.1,1,0.7c0,0.8-0.5,0.8-1,0.8
		c-0.8,0-1.6,0-2.4,0c-0.4,0-0.8,0-0.8,0.6c0,0.6,0.4,0.5,0.8,0.5c0.8,0,1.6,0,2.4,0c0.5,0,0.7,0.2,0.7,0.7c0,0.5-0.2,0.8-0.8,0.8
		c-0.8,0-1.6,0-2.4,0c-0.5,0-0.8,0.1-0.8,0.7c0,0.5,0.3,0.8,0.8,0.7c0.9,0,1.9,0,2.8,0c0.6,0,0.8,0.2,0.8,0.8c0,0.6-0.3,0.9-0.8,0.8
		c-1.8-0.1-3.6-0.1-5.4,0c-0.6,0-0.8-0.3-0.8-0.9C11.6,124.3,11.5,123.4,11.6,122.5C11.6,122.5,11.6,122.5,11.6,122.5z"/>
	<path class="st0" d="M119.5,124.5c-0.6-1.5-1.3-2.9-1.9-4.4c-0.4-0.9-0.9-1.5-1.7-1.2c-1.6,0-1.7,0-2.2,0.9
		c-0.8,1.8-1.6,3.5-2.4,5.3c-0.1,0.3-0.2,0.6,0.1,0.8c0.3,0.3,2,0.1,2.3-0.2c1.1-1.3,2.5-1.2,3.7,0c0.6,0.6,1.6,0.5,2.3,0.2
		C120.3,125.7,119.8,125,119.5,124.5z M116.1,123.2c-0.2,0.3-0.9,0.2-1.1,0c-0.5-0.7,0.3-1.3,0.5-1.9
		C115.9,121.9,116.6,122.5,116.1,123.2z"/>
	<path class="st0" d="M60.1,118.8c1.1,0,2.2,0,3,0.9c0.2,0.2,0.5,0.6,0.4,0.9c-0.1,0.3-0.5,0.2-0.8,0.3c-0.7,0.2-1.3,0.3-1.9-0.5
		c-0.2-0.3-0.8-0.4-1.2-0.2c-0.2,0.1-0.4,0.2-0.5,0.5c0,0.3,0.2,0.4,0.4,0.4c0.9,0.2,1.8,0.4,2.7,0.7c0.9,0.3,1.6,0.8,1.6,1.9
		c0,1-0.7,1.7-1.6,2.1c-1.6,0.7-3.2,0.5-4.7-0.1c-0.6-0.2-1-0.8-1.2-1.5c-0.1-0.3,0.2-0.4,0.4-0.5c0.7-0.1,1.5-0.5,2.1,0.3
		c0.4,0.5,0.9,0.7,1.5,0.7c0.4,0,0.7-0.1,0.8-0.5c0.1-0.4-0.2-0.6-0.5-0.8c-0.4-0.1-0.8-0.3-1.2-0.4c-0.2-0.1-0.5-0.1-0.7-0.1
		c-1.5-0.4-2.3-1.2-2.2-2.1c0.1-1,1.3-1.9,2.7-1.9C59.6,118.8,59.9,118.8,60.1,118.8z"/>
	<path class="st0" d="M151.5,119c-0.7-0.1-1.3-0.2-2-0.1c-1.1,0-2.5-0.5-3.3,0.2c-0.8,0.8-0.2,2.2-0.3,3.1v1.3c0,0.3,0,0.7,0,1
		c0,1.5,0.1,1.5,1.6,1.6c1.1,0,1.2-0.6,1.1-1.4c-0.1-1,0.3-1.4,1.3-1.3c0.6,0.1,1.1-0.1,1.7-0.3c1.1-0.3,1.6-1.1,1.5-2.2
		C153.1,119.8,152.5,119.3,151.5,119z M149.4,121.9c-0.6,0-0.8-0.3-0.7-0.8c0-0.6,0.2-0.9,0.9-0.8c0.5,0.1,1.1,0.1,1.1,0.8
		C150.5,121.8,149.9,121.8,149.4,121.9z"/>
	<path class="st0" d="M235.8,124.8c-0.7-1.5-1.3-3-2-4.6c-0.4-1-1-1.6-1.9-1.3c-0.8,0-1.5-0.2-1.8,0.5c-0.9,1.9-1.7,3.8-2.5,5.7
		c-0.1,0.3-0.2,0.8,0.2,0.8c0.8,0.1,1.7,0.5,2.2-0.6c0.4-0.7,2.9-0.9,3.2-0.2c0.4,0.8,1,0.8,1.7,0.8
		C236.2,126.1,236.3,125.9,235.8,124.8z M231.7,123.3c-0.4,0.1-0.8,0-0.7-0.6c0.1-0.5,0.4-1,0.6-1.5c0.7,0.5,0.7,1.2,0.9,1.8
		C232.6,123.5,232,123.3,231.7,123.3z"/>
	<path class="st0" d="M171.7,126.2c-3.3-0.1-5-2.2-4.1-5c0.1-0.3,0.2-0.6,0.4-0.8c1.4-2,5.5-2.1,7-0.3c0.5,0.6,0.5,1-0.4,1.1
		c-0.7,0.1-1.3,0.1-1.9-0.4c-1-0.8-2.4-0.2-2.6,1.1c0,0.3,0,0.6,0,0.9c0,0.8,0.3,1.3,1.1,1.6c0.8,0.2,1.3,0,1.8-0.7
		c0.3-0.4,2-0.5,2.3,0c0.2,0.3,0.1,0.6-0.1,0.9C174.3,125.9,173,126.2,171.7,126.2z"/>
	<path class="st0" d="M240.5,118.8c1.2,0.1,2.3,0,3.1,1.1c0.3,0.5,0.4,0.8-0.3,1c-0.8,0.2-1.5,0.3-2.1-0.4c-0.3-0.3-0.7-0.3-1.1-0.3
		c-0.3,0-0.5,0.2-0.6,0.5c0,0.4,0.2,0.4,0.5,0.5c0.9,0.2,1.9,0.3,2.8,0.7c0.8,0.3,1.4,0.8,1.4,1.7c0.1,0.9-0.4,1.7-1.2,2.1
		c-1.7,0.8-3.4,0.7-5.2,0c-0.1,0-0.2-0.1-0.3-0.2c-0.4-0.4-1-0.8-0.7-1.5c0.2-0.5,2-0.5,2.3,0.1c0.5,0.7,1.2,0.8,1.9,0.7
		c0.3-0.1,0.5-0.2,0.5-0.5c0-0.3-0.1-0.5-0.4-0.6c-0.5-0.2-0.9-0.4-1.4-0.5c-0.6-0.1-1.2-0.3-1.8-0.5c-0.7-0.3-1.1-0.9-1.1-1.6
		c0-0.8,0.4-1.4,1.2-1.7C239,118.9,239.8,118.8,240.5,118.8z"/>
	<path class="st0" d="M55.6,125.3c-0.7-2-1.7-3.9-2.6-5.8c-0.4-0.9-1.3-0.5-1.9-0.5c-0.5,0-1.1-0.2-1.4,0.6
		c-0.8,1.9-1.7,3.8-2.5,5.7c-0.1,0.2-0.3,0.5,0.1,0.7c0.5,0.3,2.1,0,2.5-0.5c0.5-0.7,2.9-0.9,3.3-0.1c0.4,0.7,0.8,0.8,1.7,0.7
		C54.8,125.6,56.1,126.5,55.6,125.3z M51.9,123.2c-0.1,0.3-1,0.3-1.1,0c-0.4-0.7,0.2-1.3,0.5-2.2C51.8,121.8,52.2,122.5,51.9,123.2z
		"/>
	<path class="st0" d="M124.5,118.8c0.7,0,1.5,0,2.2,0.3c0.6,0.2,1,0.6,1.1,1.2c0.1,0.2-0.1,0.4-0.3,0.4c-0.7,0-1.4,0.6-2,0
		c-0.4-0.4-0.8-0.7-1.4-0.6c-0.3,0-0.6,0.2-0.6,0.5c0,0.3,0.3,0.4,0.6,0.5c0.9,0.2,1.8,0.4,2.7,0.7c0.9,0.3,1.5,0.9,1.5,1.8
		c0,1-0.6,1.6-1.4,2c-1.6,0.7-3.3,0.7-5,0c-0.1,0-0.1-0.1-0.2-0.1c-0.5-0.4-0.9-0.8-0.9-1.4c0-0.4,0.2-0.5,0.5-0.5
		c0.6,0,1.4-0.6,1.9,0.3c0.4,0.7,1.1,0.8,1.8,0.7c0.3,0,0.5-0.2,0.6-0.5c0-0.3-0.1-0.6-0.4-0.7c-0.6-0.3-1.2-0.4-1.9-0.6
		c-1.6-0.4-2.4-1.1-2.3-2.1c0.1-1,1.2-1.8,2.7-1.9C123.9,118.8,124.2,118.8,124.5,118.8z"/>
	<path class="st0" d="M37.9,118.8c1.3-0.1,2.4,0.3,3.3,1.3c0.4,0.5,0.3,0.9-0.4,1c-0.7,0.1-1.3,0.2-1.9-0.4
		c-0.7-0.6-1.8-0.4-2.3,0.2c-0.6,0.8-0.5,2.6,0.2,3.1c0.8,0.6,1.6,0.5,2.4-0.3c0.4-0.5,1.9-0.6,2.3-0.1c0.2,0.2,0.2,0.4,0.1,0.6
		c-0.2,0.4-0.5,0.8-0.9,1.1c-1.5,1.1-4.5,1.1-5.9-0.2c-1.2-1.1-1.5-2.4-1.1-3.9c0.4-1.5,1.5-2.2,2.9-2.4
		C37,118.8,37.4,118.8,37.9,118.8z"/>
	<path class="st0" d="M106.9,118.8c1,0,2.2,0.2,3,1.2c0.5,0.6,0.6,1-0.4,1.2c-0.7,0.1-1.3,0.2-1.9-0.4c-0.6-0.7-1.7-0.4-2.3,0.3
		c-0.6,0.8-0.5,2.6,0.2,3.1c0.8,0.6,1.7,0.6,2.2-0.3c0.7-1,1.6-0.5,2.3-0.2c0.7,0.3,0.1,0.9-0.2,1.2c-1.3,1.4-3,1.5-4.7,1.1
		c-2.1-0.5-3.1-2.1-2.8-4.1C102.7,119.8,104,118.8,106.9,118.8z"/>
	<path class="st0" d="M157.9,118.8c1.2,0,2.3,0,3,1c0.4,0.5,0.6,1-0.4,1.1c-0.7,0-1.4,0.4-2-0.5c-0.1-0.2-0.5-0.3-0.8-0.3
		c-0.4,0-0.8,0-0.8,0.5c-0.1,0.5,0.3,0.5,0.7,0.6c0.8,0.2,1.6,0.3,2.4,0.6c0.9,0.3,1.6,0.8,1.7,1.8c0.1,1-0.5,1.6-1.3,2
		c-1.7,0.9-3.4,0.7-5.1,0c-0.4-0.2-0.7-0.6-0.9-1c-0.2-0.4-0.2-0.8,0.4-0.8c0.8,0,1.6-0.5,2.1,0.6c0.4,0.6,1.2,0.5,1.8,0.4
		c0.2,0,0.4-0.3,0.4-0.5c0-0.3-0.1-0.5-0.4-0.7c-0.6-0.3-1.2-0.4-1.8-0.5c-1.8-0.4-2.6-1.2-2.5-2.3c0.1-1.1,1.2-1.7,2.9-1.8
		C157.5,118.8,157.8,118.8,157.9,118.8z"/>
	<path class="st0" d="M223.1,118.8c0.6,0,1.5,0,2.2,0.6c0.5,0.4,1.1,0.7,0.9,1.5c-0.1,0.4-1.8,0.4-2.2,0.1c-0.3-0.2-0.5-0.5-0.9-0.5
		c-0.8-0.1-1.6,0-1.9,1c-0.4,1.1-0.1,2.5,0.6,2.8c0.9,0.5,1.6,0.3,2.2-0.5c0.3-0.4,1.8-0.5,2.1,0c0.6,0.7-0.1,1.1-0.4,1.5
		c-1.1,1.1-3.7,1.4-5.3,0.6c-1.4-0.7-2.1-2-2-3.8C218.7,120,220.3,118.8,223.1,118.8z"/>
	<path class="st0" d="M186.6,122.4c0-0.8,0.1-1.6,0-2.3c-0.1-1,0.4-1.2,1.2-1.2c0.8,0,1.6,0,1.5,1.2c-0.1,1,0,2.1,0,3.1
		c0,0.8,0.3,1.1,1.1,1.1c0.7,0,1.3,0,2,0c0.7,0,1,0.2,1,0.9c0,0.7-0.3,1-1,1c-1.5,0-3.1,0-4.6,0c-0.9,0-1.2-0.4-1.1-1.2
		C186.6,124.1,186.6,123.2,186.6,122.4C186.6,122.4,186.6,122.4,186.6,122.4z"/>
	<path class="st0" d="M216.9,122.5c0,0.9,0,1.8,0,2.7c0.1,0.9-0.4,1.1-1.1,1c-0.6-0.1-1.6,0.4-1.6-0.9c0-1.8,0-3.6,0-5.4
		c0-1.2,0.9-0.9,1.6-0.9c0.7-0.1,1.2,0.1,1.2,1C216.9,120.7,216.9,121.6,216.9,122.5C216.9,122.5,216.9,122.5,216.9,122.5z"/>
	<path class="st0" d="M165.8,122.5c0,0.9,0,1.8,0,2.7c0,0.9-0.6,0.9-1.3,0.9c-0.6,0-1.4,0.2-1.4-0.9c0-1.8,0-3.6,0-5.5
		c0-1.1,0.8-0.8,1.4-0.8c0.6,0,1.3-0.1,1.3,0.8C165.8,120.7,165.8,121.6,165.8,122.5C165.8,122.5,165.8,122.5,165.8,122.5z"/>
	<path class="st0" d="M32,122.6c0,0.8,0,1.7,0,2.6c0.1,1.2-0.8,0.9-1.4,1c-0.7,0-1.3,0.1-1.3-1c0-1.7,0.1-3.5,0-5.2
		c0-1.2,0.7-1,1.5-1c0.9,0,1.3,0.2,1.3,1.2C31.9,120.9,32,121.7,32,122.6C32,122.6,32,122.6,32,122.6z"/>
	<path class="st0" d="M45.8,122.5c0,0.9,0,1.8,0,2.7c0,0.8-0.4,1-1.1,1c-0.6-0.1-1.5,0.2-1.5-0.9c0-1.8,0-3.6,0-5.4
		c0-1.1,0.8-0.8,1.4-0.9c0.7,0,1.3,0,1.2,0.9C45.7,120.7,45.7,121.6,45.8,122.5C45.8,122.5,45.8,122.5,45.8,122.5z"/>
	<path class="st0" d="M100.9,122.5c0,0.9,0,1.8,0,2.7c0,1.1-0.8,0.8-1.4,0.8c-0.6,0-1.3,0.2-1.3-0.8c0-1.8,0-3.6,0-5.4
		c0-1.1,0.8-0.8,1.4-0.8c0.6,0,1.3-0.2,1.3,0.8C100.8,120.7,100.9,121.6,100.9,122.5C100.9,122.5,100.9,122.5,100.9,122.5z"/>
	<path class="st0" d="M199.2,117.1c0.2,0,0.8,0,0.7,0.3c-0.3,0.5-0.8,1-1.5,1.1c-0.3,0-0.6-0.1-0.5-0.5
		C198,117.4,198.5,117,199.2,117.1z"/>
	<path class="st0" d="M84.5,117.1c0.2,0.1,0.8-0.1,0.6,0.3c-0.3,0.5-0.8,1-1.5,1.1c-0.2,0-0.5-0.1-0.4-0.4
		C83.3,117.4,83.7,117,84.5,117.1z"/>
	<path class="st0" d="M31.9,117.3c-0.1,0.3-1.6,1.3-1.8,1.1c-0.1-0.1-0.2-0.3-0.2-0.4c0.1-0.4,0.2-0.8,0.6-0.9
		c0.4-0.2,0.8-0.2,1.2,0C31.9,117.2,31.9,117.3,31.9,117.3z"/>
</g>
</svg>
