<?xml version="1.0" encoding="utf-8"?>
<!-- Generator: Adobe Illustrator 25.2.1, SVG Export Plug-In . SVG Version: 6.00 Build 0)  -->
<svg version="1.1" id="Camada_1" xmlns="http://www.w3.org/2000/svg" xmlns:xlink="http://www.w3.org/1999/xlink" x="0px" y="0px"
	 viewBox="0 0 247.2 202.1" style="enable-background:new 0 0 247.2 202.1;" xml:space="preserve">
<style type="text/css">
	.st0{fill:#F29800;}
	.st1{fill:#2873B6;}
</style>
<g>
	<g>
		<path class="st0" d="M60.9,169.4c2.7,0.3,5.4,0.6,8.1,0.9c22.9,3,45.6,2.4,67.9-4.4c14.8-4.5,28.1-11.9,39.6-22.4
			c3.5-3.2,6.4-7.1,9.5-10.8c1.4-1.7,1.1-3.2-0.4-4.9c-9-9.9-19.4-18.1-31.9-23c-8.3-3.3-16.8-6.5-25.4-8.6
			c-10.8-2.7-21.9-3.4-33.1-3c-2.1,0.1-2.8,1-2.8,3c0.4,12.2,6.9,20.4,17.3,25.7c7.3,3.7,16.1,5.1,24.6,1.5c-1.7,1.9-3.1,4.1-5,5.8
			c-9,8.3-19.8,11.6-31.8,11c-21.2-1.1-36.8-14.8-41.1-35.5c-0.8-3.6-0.8-3.7-4.3-2.4c-13.3,5-25.4,12.1-36.2,21.2
			c-5.3,4.4-10.2,9.2-15.4,13.8c-0.2-0.1-0.5-0.3-0.7-0.4c2.3-4.2,4.4-8.5,6.8-12.6c8.7-15,20.6-27.3,34.6-37.4
			c12-8.7,25.2-15,39.4-19.2c14.9-4.4,30.2-5.9,45.7-4.9c14.6,1,28.5,4.7,41.8,10.8c13.8,6.4,26.1,15,37,25.7
			c7.9,7.8,14.7,16.6,21.1,25.7c0.3,0.5,0.4,1.2,0.7,1.7c4.6,6.4,2.6,5.8-1.8,10.9c-8.3,9.6-17.5,18.3-28.2,25.1
			c-8.5,5.4-17.7,10.2-27.1,14c-19.9,8.1-40.7,9.5-61.9,6.8c-16-2-31.3-6.7-46.1-12.9c-0.4-0.2-0.9-0.4-1.3-0.6
			C60.8,169.9,60.9,169.6,60.9,169.4z"/>
		<path class="st1" d="M57.5,75.6c2.1-6.9,5-12.5,8.7-17.6C78.4,40.9,95,29.9,114.7,23.4c31.6-10.5,62.3-7.2,92.2,6.8
			c14.7,6.9,27.7,16.4,39.7,27.2c0.3,0.3,0.5,0.6,0.6,1.3c-1.8-1-3.6-2-5.3-3c-23.6-13.5-48.8-21.9-76.3-21
			c-20.5,0.6-39.1,6.7-54.3,21.3c-0.9,0.8-2.3,1.4-3.5,1.6C91,59.9,75.3,65.4,60.7,73.9C59.9,74.3,59.1,74.7,57.5,75.6z"/>
	</g>
	<g>
		<path class="st1" d="M134.9,122.6c-7.1,12-20,20.2-34.8,20.8c-0.2,0-0.5,0-0.7,0c-22.7,0.5-42.5-19.5-44-41.9
			c5.4-7.8,15.2-10.5,25.3-10.5c4.4,0,8.6,1.4,12.3,3.1c0,0.6-0.1,0.8-0.1,1.4c0,12.1,7.2,22.5,17.5,27.1c3.7,1.7,7.9,2.6,12.3,2.6
			C127.1,125.2,131.2,124.2,134.9,122.6z"/>
	</g>
</g>
</svg>
