<?xml version="1.0" encoding="utf-8"?>
<!-- Generator: Adobe Illustrator 25.2.1, SVG Export Plug-In . SVG Version: 6.00 Build 0)  -->
<svg version="1.1" id="Camada_1" xmlns="http://www.w3.org/2000/svg" xmlns:xlink="http://www.w3.org/1999/xlink" x="0px" y="0px"
	 viewBox="0 0 247.2 202.1" style="enable-background:new 0 0 247.2 202.1;" xml:space="preserve">
<style type="text/css">
	.st0{fill:#5D9AAF;}
	.st1{fill:#5D9BAF;}
	.st2{fill:#365A69;}
	.st3{fill:#3A5D6D;}
	.st4{fill:#395C6B;}
	.st5{fill:#375B69;}
	.st6{fill:#395B6A;}
	.st7{fill:#385C6B;}
	.st8{fill:#385B69;}
	.st9{fill:#375A68;}
	.st10{fill:#365B6A;}
	.st11{fill:#395C6C;}
	.st12{fill:#355A69;}
	.st13{fill:#365A6A;}
	.st14{fill:#3B5E6E;}
	.st15{fill:#385B6C;}
	.st16{fill:#355B6B;}
	.st17{fill:#EBF1F1;}
	.st18{fill:#FCFDFC;}
	.st19{fill:#77868C;}
	.st20{fill:#728288;}
	.st21{fill:#677A81;}
	.st22{fill:#FCFCFC;}
	.st23{fill:#6D7B7E;}
	.st24{fill:#526972;}
	.st25{fill:#7A8B92;}
	.st26{fill:#839297;}
	.st27{fill:#78888F;}
	.st28{fill:#77878B;}
	.st29{fill:#6F8189;}
	.st30{fill:#687B81;}
	.st31{fill:#335A6B;}
	.st32{fill:#ACBBC1;}
	.st33{fill:#A0B2B9;}
	.st34{fill:#ADCDD7;}
	.st35{fill:#EFF4F5;}
	.st36{fill:#FEFEFE;}
	.st37{fill:#FDFDFD;}
	.st38{fill:#F9FCFC;}
	.st39{fill:#F7FAFC;}
	.st40{fill:#F5FBFC;}
</style>
<g>
	<path class="st0" d="M64.2,113.9c3.3,0.4,6.4-0.1,9.6,0c1.6,0,3.1,0.2,4.6,0.5c4.8,1.2,6.5,4.4,5.1,9.3c-1,3.6-3.8,5.7-7,7.2
		c-3.2,1.5-6.6,2.1-10.1,2.2c-0.9,0-1.3,0.3-1.5,1.3c-0.6,2.6-1.3,5.1-1.9,7.6c-0.5,2-0.1,2.7,2,3.1c0.3,0.1,0.7,0.1,0.7,0.6
		c0,0.5-0.4,0.5-0.8,0.5c-4.3-0.2-8.6-0.2-12.9,0c-0.3,0-0.7,0.2-0.8-0.4c0-0.5,0.3-0.6,0.7-0.6c0.2,0,0.4,0,0.6,0
		c1.7,0,2.6-0.9,3.1-2.4c1.2-4.2,2.3-8.4,3.4-12.6c1-3.6,1.9-7.3,2.9-10.9c0.2-0.6,0.3-1.3,0.4-1.9c0.1-1.7-0.3-2.2-2-2.4
		c-0.3,0-0.8,0.1-0.8-0.4c0-0.6,0.4-0.5,0.8-0.5C61.5,113.9,63,113.9,64.2,113.9z"/>
	<path class="st0" d="M132.1,140.6c-1.1,1.6-1.9,3.1-3.1,4.3c-2.3,2.2-5.9,2.4-8.1,0.4c-1.1-1-1.4-2.3-1.7-3.7
		c-1-6.6,3.6-15.7,9.6-18.7c1.6-0.8,3.2-1.1,5-1c1,0.1,2,0.3,2.6,1c0.7,0.9,1.5,0.8,2.5,0.6c1.3-0.3,2.4-0.8,3.6-1.4
		c0.4-0.2,0.7-0.3,1.1,0c0.3,0.3,0,0.6-0.1,0.9c-1.1,2.9-1.7,5.9-2.5,8.9c-1.6,5.8-3.1,11.7-4.7,17.5c-0.7,2.5-0.4,3,2,3.8
		c0.3,0.1,0.5,0.2,0.5,0.5c0,0.3-0.2,0.6-0.6,0.6c-0.5,0-1-0.1-1.5-0.1c-3.7-0.1-7.3-0.1-11,0c-0.3,0-0.7,0.3-0.7-0.3
		c0-0.4,0.2-0.7,0.6-0.7c2.7,0.1,3.7-1.6,4.3-3.9c0.7-2.7,1.4-5.3,2.1-7.9C132.1,141.3,132.1,141.1,132.1,140.6z"/>
	<path class="st0" d="M160.2,136.8c-1.1,2.4-2.1,4.6-3.6,6.5c-1.6,2-3.4,3.4-6.1,3.4c-3.4,0-5-1.8-4.2-5.2c0.7-2.7,1.6-5.2,2.4-7.8
		c0.8-2.5,1.7-5,2.4-7.5c0.2-0.6,0.5-1.4-0.2-1.8c-0.8-0.5-1.4,0.1-2,0.7c-0.8,0.9-1.1,2.2-1.6,3.3c-0.1,0.2-0.1,0.4-0.2,0.5
		c-0.2,0.4-0.2,1.2-0.8,1c-0.7-0.3-0.1-0.8,0-1.2c0.4-1.3,0.8-2.6,1.4-3.7c1.4-2.4,4.3-3.6,7-2.8c1.5,0.4,2.3,1.6,2.4,3.1
		c0.1,1.5-0.3,2.9-0.8,4.3c-1.2,3.8-2.5,7.5-3.8,11.3c-0.2,0.7-0.6,1.4-0.6,2.2c0,0.4-0.2,1,0.3,1.2c0.5,0.3,1.1,0.2,1.5-0.2
		c0.8-0.5,1.4-1.3,2-2.1c3-4.5,4.9-9.4,6.6-14.5c0.4-1.4,0.8-2.8,1.2-4.2c0.1-0.4,0.2-0.8,0.8-0.8c1.8,0.1,3.6-0.2,5.3-0.5
		c0.8-0.1,0.6,0.2,0.5,0.7c-1.5,5.4-3,10.8-4.5,16.2c-0.4,1.4-0.7,2.8-1.1,4.2c-0.1,0.4-0.3,0.9,0.2,1.1c0.5,0.3,1,0.2,1.5-0.1
		c0.5-0.3,0.8-0.8,1.1-1.3c0.6-1.2,1-2.4,1.4-3.6c0.1-0.3,0.3-0.7,0.7-0.6c0.5,0.1,0.2,0.5,0.1,0.8c-0.5,1.6-0.9,3.2-1.9,4.6
		c-1.5,2.2-4.5,3.3-6.9,2.3c-1.2-0.5-1.8-1.3-1.9-2.6c-0.1-1.8,0.4-3.5,0.8-5.2C160,138.1,160.3,137.7,160.2,136.8z"/>
	<path class="st0" d="M180.3,146.7c-1,0.1-2-0.1-2.9-0.4c-2.6-0.8-4.4-3.2-4.2-6c0.5-7.3,3.8-12.9,10.1-16.7
		c2.7-1.6,5.7-2.3,8.8-1.2c1.9,0.7,2.6,2.1,2.3,4.1c-0.4,2.3-1.7,4-3.6,5.2c-2.9,2-6,3.5-9.4,4.5c-0.7,0.2-1,0.5-1.1,1.3
		c-0.1,1.1-0.2,2.1-0.1,3.2c0.3,3.5,2.9,3.7,5.4,3c1.5-0.5,2.8-1.4,3.9-2.5c0.2-0.2,0.3-0.3,0.5-0.5c0.2-0.2,0.5-0.3,0.7-0.1
		c0.3,0.3,0,0.5-0.1,0.7c-1.8,2.3-3.9,4.2-6.7,5C182.6,146.6,181.4,146.8,180.3,146.7z"/>
	<path class="st0" d="M89.8,146.7c-1.8,0-3.6-0.2-5.2-1.1c-1.9-1-2.8-3.2-2.3-5.2c0.4-1.4,1.4-2.3,2.5-2.2c1.2,0.1,2.3,1.2,2.4,2.5
		c0.1,1.3,0.1,2.5-0.5,3.7c-0.4,0.8-0.2,1.2,0.8,1.3c3.5,0.2,5.2-2.4,4.1-6c-0.7-2.2-2.1-4.1-3.3-6.1c-1.3-2-2.1-4.2-1.5-6.6
		c0.6-2.6,2.5-4.1,5-4.7c2.8-0.7,5.5-0.6,8.1,0.8c2,1.1,2.6,4.2,1.1,6c-0.8,0.9-1.7,1.1-2.8,0.8c-1-0.3-1.5-1.2-1.6-2.2
		c-0.2-1.3,0-2.6,0.8-3.7c0.6-0.9,0-1-0.6-1.1c-2.3-0.3-4.1,1.6-4,4c0.1,2,1.2,3.5,2.2,5.1c1.2,1.9,2.5,3.9,3,6.1
		c0.8,3.7-1.1,7-4.7,8.1C92.1,146.6,90.9,146.8,89.8,146.7z"/>
	<path class="st0" d="M108.4,146.7c-3.3,0-4.9-2.1-3.9-5.4c1.2-4.2,2.7-8.3,4.1-12.5c0.3-1,0.7-2.1,1-3.2c0.1-0.4,0.2-1-0.3-1.3
		c-0.5-0.3-1-0.1-1.5,0.2c-0.9,0.7-1.3,1.8-1.7,2.8c-0.3,0.8-0.6,1.6-0.9,2.3c-0.1,0.3-0.3,0.4-0.6,0.3c-0.4-0.1-0.2-0.4-0.1-0.6
		c0.6-1.6,1.1-3.2,2-4.6c1.4-2.3,4.5-3.4,7.1-2.6c1.8,0.6,2.7,2.5,2.1,4.8c-0.9,3.5-2.3,6.8-3.4,10.2c-0.6,1.8-1.2,3.6-1.8,5.4
		c-0.2,0.6-0.5,1.3,0.3,1.7c0.7,0.4,1.4,0,1.9-0.6c1-1.2,1.4-2.8,2-4.2c0.1-0.2,0.1-0.4,0.3-0.6c0.1-0.2,0.4-0.2,0.5-0.1
		c0.1,0.1,0.2,0.3,0.1,0.4c-0.8,2.2-1.2,4.5-3,6.2C111.4,146.4,110,146.8,108.4,146.7z"/>
	<path class="st1" d="M196.9,117.9c-0.1,0.5-0.4,0.3-0.7,0.3c-2.3-0.5-4.5-1.2-6.5-2.4c-1-0.6-1.7-0.6-2.7-0.1
		c-1.8,1-3.8,1.8-5.8,2.3c-0.3,0.1-0.9,0.6-1.1-0.1c-0.2-0.5,0.4-0.5,0.7-0.7c2.9-1.4,5.4-3.3,7.6-5.6c0.7-0.7,1.2-1.5,1.8-2.2
		c0.2-0.3,0.5-0.6,0.9-0.6c0.5,0.1,0.5,0.5,0.6,0.9c0.6,3.1,2,5.7,4.6,7.5C196.6,117.4,196.8,117.6,196.9,117.9z"/>
	<path class="st1" d="M119.1,113.7c0,1.7-0.7,2.8-2,3.6c-1.5,0.8-3,1.1-4.6,0.2c-1.6-0.9-1.7-3.5-0.4-5c1.3-1.5,3.9-2,5.7-1.1
		C118.8,111.9,119.2,112.8,119.1,113.7z"/>
	<path class="st2" d="M125.7,176.9c-0.1,0.4,0.5,0.4,0.5,0.8c-1,0-2.1,0-3.1,0c0.9-1,0.8-7.5,0-8.3c1.5,0,3-0.1,4.5,0
		c1,0.1,1.9,0.5,2.1,1.7c0.1,1.1-0.3,1.8-1.6,2.4c-0.1,0-0.2,0.1-0.4,0.2c1.3,0.3,1.8,1.3,1.9,2.5c0.1,0.6,0.2,1.2,1,1.1
		c-1.5,1-2.6,0.5-3-1.1c-0.2-0.8,0-1.7-0.8-2.3c-0.2,0.1-0.5,0.1-0.6-0.1c-0.1-0.2,0.1-0.4,0.3-0.5c1.1-0.6,1-1.6,0.8-2.6
		c-0.1-0.4-0.3-0.8-0.8-0.8c-0.5,0-0.6,0.5-0.7,0.9c-0.1,0.7-0.1,1.4,0,2.2c0,0.4,0.2,0.8-0.2,1.1l0,0
		C125.5,175,125.5,175.9,125.7,176.9z"/>
	<path class="st3" d="M59.4,169.2c1.8,0.1,3.4-0.2,5,0.2c1.1,0.2,1.8,0.8,1.9,2c0.1,1.1-0.4,2-1.5,2.5c-0.4,0.2-0.9,0.2-1.3,0.4
		c-0.5,0.2-1.4-0.4-1.3,0.7c0.1,1-0.6,2.3,1.1,2.7c-1.2,0-2.3,0-3.5,0C60.6,176.6,60.5,170,59.4,169.2z"/>
	<path class="st2" d="M145.4,177c0.1,0.4,0.6,0.3,1.1,0.6c-1.3,0-2.5,0-3.6,0c0.8-1.2,0.7-7.6-0.2-8.4c1.7,0.1,3.3-0.2,4.9,0.2
		c1,0.2,1.7,0.8,1.8,1.8c0.1,1-0.2,1.9-1.2,2.4c-0.6,0.3-1.1,0.7-1.9,0.6c-0.8,0-1.2,0.4-1,1.2C145.3,176,145.1,176.5,145.4,177z"/>
	<path class="st4" d="M119.7,175c0.5,2.7,0.5,2.7-2.1,2.7c-1.3,0-2.6,0-3.9,0c0.9-1,0.9-7.5,0-8.4c1.8,0,3.5,0,5.2,0
		c0.7,0,1,0.2,0.9,0.9c-0.1,0.5,0,0.9,0,1.5c-0.5-0.3-0.4-0.7-0.6-1.1c-0.5-0.9-1.6-1.4-2.5-1c-0.2,0.1-0.4,0.2-0.4,0.4
		c0,1-0.1,2.1,0,3.1c0,0.5,0.5,0.4,0.8,0.2c0.6-0.2,0.8-0.8,1.1-1.3c0,1,0,2,0,3c0,0-0.1,0-0.1,0c-0.3-0.7-0.6-1.5-1.5-1.3
		c-0.8,0.2-0.2,1.1-0.4,1.7c0,0.1,0,0.2,0,0.3c0.1,0.6-0.4,1.5,0.7,1.8c1.1,0.2,2.1-0.3,2.5-1.4C119.5,175.7,119.6,175.4,119.7,175z
		"/>
	<path class="st5" d="M96.2,172.4c0.5,2-0.2,3.7-2.1,5c-0.3,0.3-0.5,0.5-1,0.4c-0.6-0.1-1.3,0-1.9,0c-1.3,0.1-2.6-1.1-3-2.7
		c-0.5-2.3-0.1-4.3,2-5.7c1.6-0.9,3.1-0.9,4.6,0.3C95.5,170.5,96.2,171.3,96.2,172.4c-0.8,0.2-0.8-0.7-1.3-0.9
		c-0.1,1.2-0.1,2.3,0,3.7c0.6-0.6,0.7-1.2,0.7-1.7C95.7,173,95.8,172.6,96.2,172.4z"/>
	<path class="st6" d="M41.5,177.7c1-1.1,0.9-7.6-0.1-8.4c1.9,0,3.7,0,5.5,0c0.6,0,0.7,0.2,0.6,0.7c-0.1,0.5-0.1,1.1-0.1,1.9
		c-0.2-0.6-0.3-0.8-0.4-1.1c-0.4-1.1-1.4-1.6-2.5-1.2c-0.3,0.1-0.5,0.3-0.5,0.6c0,1-0.1,1.9,0,2.9c0,0.7,0.6,0.4,0.9,0.3
		c0.5-0.2,0.6-0.8,1-1.4c0,1.2,0,2.2,0,3.3c-0.2-0.4-0.4-0.7-0.6-0.9c-0.2-0.4-0.6-0.6-1.1-0.5c-0.6,0.1-0.3,0.6-0.3,1
		c0,0.4-0.1,0.8,0,1.1c0.1,0.6-0.4,1.5,0.6,1.7c1.1,0.3,2.1-0.3,2.5-1.3c0.1-0.4,0.2-0.7,0.4-1.3c0.3,1,0.2,1.8,0.2,2.6
		c0,0.4-0.5,0.3-0.8,0.3C45.2,177.7,43.5,177.7,41.5,177.7z"/>
	<path class="st7" d="M109.2,177.6c-1.3,0-2.6,0-4.3,0c1.3-0.3,1.3-1.1,1.3-1.9c0-1.7,0-3.5,0-5.2c0-0.3,0.2-0.8-0.2-0.9
		c-0.5-0.2-0.9,0-1.2,0.4c-0.5,0.5-0.6,1.3-0.9,1.9c-0.1-0.1-0.2-0.1-0.2-0.2c-0.1-2.4-0.1-2.4,2.3-2.4c1.3,0,2.7,0,4,0
		c0.6,0,0.9,0.1,0.8,0.8c-0.1,0.6,0,1.2,0,2c-0.5-0.4-0.5-0.8-0.6-1.2c-0.2-0.6-0.6-1-1.1-1.2c-0.5-0.2-0.9-0.1-0.9,0.6
		c0,2.1,0,4.1,0,6.2C108.2,177,108.5,177.5,109.2,177.6z"/>
	<path class="st8" d="M171.3,172.1c-0.1-2.8-0.1-2.8,2.4-2.8c1.3,0,2.7,0,4,0c0.6,0,0.8,0.2,0.7,0.8c-0.1,0.6,0,1.2-0.1,1.9
		c-0.4-0.6-0.5-1.3-0.9-1.8c-0.4-0.4-0.8-0.7-1.3-0.6c-0.6,0.2-0.3,0.7-0.3,1.1c0,1.8,0,3.7,0,5.5c0,0.7,0.1,1.3,1,1.5
		c-1.3,0-2.6,0-4.2,0c1.3-0.2,1.4-0.9,1.4-1.8c0-1.8,0-3.6,0-5.4c0-0.3,0.1-0.8-0.3-0.9c-0.4-0.1-0.7,0-1.1,0.3
		C171.9,170.3,171.9,171.2,171.3,172.1z"/>
	<path class="st9" d="M152.7,177c0-2.1,0-4.3,0-6.4c0-0.5,0-1.1-0.6-1.4c1.8,0,3.7,0,5.5,0c0.5,0,0.6,0.2,0.6,0.6
		c-0.1,0.6-0.1,1.1-0.3,1.7c-0.2-0.4-0.3-0.9-0.5-1.2c-0.5-1-1.4-1-2.3-0.8c-0.8,0.2-0.5,0.9-0.5,1.4c0,0.5,0,0.9,0,1.4
		c0,0.3-0.2,0.9,0.3,1c0.5,0.1,0.9-0.1,1.1-0.6c0.1-0.3,0.3-0.5,0.6-1.1c0,1.3,0,2.3,0,3.5c-0.3-0.4-0.4-0.8-0.6-1.1
		c-0.2-0.3-0.6-0.4-1-0.4c-0.5,0.1-0.3,0.5-0.3,0.9c0,0.8,0,1.7,0,2.5c0.2,0.9-0.6,0.6-0.9,0.6C153.3,177.6,152.6,177.9,152.7,177z"
		/>
	<path class="st10" d="M81.5,169.5c-0.7,0.3-1.1,1-1.3,1.7c-0.4,1.6-0.5,3.1,0,4.7c0.3,0.8,0.7,1.6,1.7,1.7c0.2,0.1,0.2,0.3,0,0.5
		c0,0.7,0.5,0.3,0.9,0.4c0.3,0,0.7,0.1,0.8,0.5c0.1,0.5-0.2,0.7-0.6,0.8c-0.7,0.2-1.3,0.2-2,0c0.3,0,0.6-0.1,0.9-0.1
		c0.2,0,0.4-0.1,0.4-0.3c0.1-0.3-0.2-0.4-0.4-0.4c-0.1,0-0.4-0.1-0.4-0.2c0.5-1.2-0.6-0.9-1.1-1.1c-1.8-0.7-2.7-2.1-2.7-4.4
		c0.1-2.1,1.2-3.4,3.2-4C81.3,169.2,81.5,169,81.5,169.5z"/>
	<path class="st11" d="M166.4,177.5c-2.8,0.9-4.6-0.2-4.5-2.9c0-1.3,0-2.6,0-3.9c0-0.6,0-1.1-0.6-1.5c1.1,0,2.2,0,3.3,0
		c-0.7,0.3-0.8,0.8-0.8,1.4c0,1.4,0,2.8,0,4.2c0,2.2,0.4,2.5,2.6,2.3C166.5,177.3,166.5,177.3,166.4,177.5
		C166.5,177.5,166.4,177.5,166.4,177.5z"/>
	<path class="st12" d="M54.1,177.5c1-0.9,1-1.9,0-2.7c-0.7-0.6-1.4-1-2.1-1.6c-0.8-0.6-1.1-1.4-0.9-2.4c0.2-1,0.9-1.5,1.8-1.6
		c0.2,0,0.3,0.1,0.3,0.3c-0.7,1-0.7,1.6,0.1,2.3c0.6,0.5,1.3,1,2,1.5c1,0.7,1.6,1.5,1.3,2.8c-0.3,1.2-1.2,1.5-2.3,1.7
		C54.1,177.8,54,177.7,54.1,177.5z"/>
	<path class="st13" d="M70.6,171.3c0.1-0.4,0.2-0.9,0.4-1.3c0.1-0.3,0.1-0.8,0.7-0.8c0.5,0,0.6,0.4,0.7,0.8c0.8,2,1.6,4,2.4,6.1
		c0.2,0.5,0.4,1.1,1,1.6c-1.3,0-2.3,0-3.4,0c1-1.2-0.1-2.1-0.5-3.1c-0.1-0.1-0.1-0.2-0.2-0.2c-0.4-0.8-0.6-1.6-0.9-2.4
		C70.7,171.7,70.6,171.5,70.6,171.3z"/>
	<path class="st10" d="M135.5,170.6c0.1-0.2,0.1-0.4,0.2-0.5c0.2-0.4,0.2-0.8,0.8-0.8c0.5,0,0.5,0.5,0.7,0.8
		c0.8,2.1,1.6,4.1,2.4,6.2c0.2,0.5,0.4,0.9,0.8,1.4c-1.2,0-2.2,0-3.2,0c0.6-0.7,0.4-1.7-0.6-3c-0.1-0.1-0.1-0.2-0.2-0.3
		c-0.3-0.9-0.8-1.7-1-2.7C135.6,171.3,135.3,170.9,135.5,170.6z"/>
	<path class="st14" d="M181.2,169.3c1.1,0,2.2,0,3.3,0c-0.7,0.2-0.7,0.8-0.7,1.4c0,1.8,0,3.6,0,5.4c0,0.6-0.1,1.2,0.9,1.6
		c-1.4,0-2.4,0-3.4,0C182.2,176.6,182.2,170.2,181.2,169.3z"/>
	<path class="st15" d="M200,169.5c3.3-1.3,6.2,1,5.7,4.6c-0.1,0.6-0.3,1.2-0.5,1.8c-0.4,1.3-1.5,2.1-2.8,2c-0.5,0-0.9,0-1.4,0.1
		c-0.4,0.1-0.8,0.1-1.1-0.3c0-0.3,0.2-0.4,0.5-0.5c2.3,0,2.9-0.6,2.9-3c0-0.7,0.1-1.5,0-2.2c-0.3-1.9-1.4-2.6-3.1-1.8
		C199.7,170.1,200,169.7,200,169.5z"/>
	<path class="st16" d="M190.9,169.5c-1.9,1.4-1.7,3.4-1.5,5.4c0.1,1.1,0.5,2.1,1.5,2.7c0.1,0.1,0.1,0.2,0,0.3
		c-2.3-0.2-3.6-1.6-3.7-3.8c-0.1-2.6,1.1-4.3,3.4-4.7C190.9,169.1,191,169.2,190.9,169.5z"/>
	<path class="st13" d="M200,169.5c0.3,0.2,0,0.5,0.1,0.8c0.1,0.2,0.1,0.4,0,0.7c-0.6,2-0.6,4,0.4,5.9c0.1,0.1,0,0.3,0,0.4
		c-0.1,0.2-0.3,0.3-0.5,0.3c-1,0.3-1.2-0.6-1.8-1c-1.3-2.5-1.1-4.8,0.5-6.3C199.1,169.8,199.5,169.5,200,169.5z"/>
	<path class="st17" d="M125.7,174c0-1.2-0.1-2.3-0.1-3.5c0-0.4,0-0.9,0.5-1c0.6-0.1,1.1,0,1.4,0.5c0.7,1.1,0.3,2.8-0.8,3.4
		c-0.6,0.3,0.1,0.3,0.1,0.5C126.4,174,126,174,125.7,174z"/>
	<path class="st18" d="M198.3,176.5c0.6,0.4,1,1,1.8,1c2.5,0.7,3.9,0.1,5.3-1.7c0.2,1.4-1,2.6-2.3,2.3c-0.6-0.1-1.1-0.2-1.7,0.2
		C200.2,178.9,199.1,178.2,198.3,176.5z"/>
	<path class="st19" d="M136.6,174.2c0,0.1,0,0.2,0,0.3c-0.4,0-0.8,0-1.1,0c-1.2,0-2,1-1.8,2.2c0.1,0.5,0.6,0.4,0.8,0.8
		c-0.7,0.3-1.4,0.2-2.2,0.1c1.6-2.2,2-4.8,3.2-7.1c0.1,0.3,0.2,0.6,0.2,0.9c-0.1,0.1-0.2,0.3-0.2,0.4c-0.1,0.6-0.7,1.1-0.5,1.7
		C135.3,174.3,136.2,173.8,136.6,174.2z"/>
	<path class="st20" d="M71.9,174.3c0,0.1,0,0.2,0,0.3c-0.3,0-0.7,0-1,0c-1.3,0-1.9,0.7-2,2c0,0.7,0.6,0.6,1,1.1c-0.9,0-1.5,0-2.4,0
		c1.5-1.9,1.8-4.4,3-6.3c0.2,0,0.4,0,0.4,0.2c-0.1,0.1-0.2,0.2-0.2,0.3c0,0.6-0.6,1.2-0.5,1.8C70.5,174.3,71.5,173.8,71.9,174.3z"/>
	<path class="st21" d="M152.7,177c0.6,0.7,1.3,0.7,1.9,0c1.5,1,2.3,0.5,3.8-1.9c0,0.7,0,1.5,0,2.2c0,0.4-0.3,0.5-0.6,0.5
		c-1.9,0-3.9,0-5.9,0C152.1,177.2,152.5,177.3,152.7,177z"/>
	<path class="st22" d="M88.2,175.2c1.1,2.5,3.2,3.1,5.9,2.3c0,0.6-0.3,0.8-0.9,0.6c-0.7-0.2-1.4-0.2-2.2,0.2
		c-0.9,0.4-2.6-1.1-2.8-2.3C88.1,175.7,88.2,175.4,88.2,175.2z"/>
	<path class="st23" d="M166.4,177.5c0-0.1,0-0.2,0-0.3c0.6-0.5,1-1.1,1-1.8c0.2-1.7,0.1-3.3,0.1-5c0-0.6-0.6-0.7-1.2-1.1
		c1,0,1.6,0,2.5,0c-0.9,0.6-0.9,1.4-0.9,2.2c0,1.3,0,2.5,0,3.8C167.8,176.2,167.6,177.2,166.4,177.5z"/>
	<path class="st24" d="M157.5,168.5c-1.5-0.2-3.1-1-4.6,0.1c0.7-0.7,1.5-1.1,2-1.8c0.2-0.3,0.5-0.2,0.7,0.1
		C156,167.6,156.8,167.9,157.5,168.5z"/>
	<path class="st25" d="M54.1,177.5c0.1,0.1,0.2,0.2,0.2,0.2c-0.5,0.3-0.9,0.1-1.4,0c-0.7,0-1.3-0.5-2-0.3c0-1,0-1.9,0-2.9
		c0.1,0,0.2-0.1,0.3-0.1C51.5,176.1,51.8,177.9,54.1,177.5z"/>
	<path class="st26" d="M53.2,169.5c-0.1-0.1-0.2-0.2-0.3-0.3c0.6-0.3,1.2-0.2,1.9,0c0.4,0.1,0.7,0.4,1.2,0.2c0.3-0.2,0.4,0,0.4,0.3
		c-0.1,0.7,0.1,1.5-0.2,2.3C55,169.5,54.9,169.4,53.2,169.5z"/>
	<path class="st27" d="M190.9,169.5c-0.1-0.1-0.2-0.2-0.3-0.3c0.9-0.4,1.7-0.1,2.5,0.3c0.4,0.2,0.8,0.5,1.2-0.6c0,1.3,0,2.1,0,3
		C193.7,170.3,192.9,169.1,190.9,169.5z"/>
	<path class="st28" d="M81.5,169.5c-0.2-0.1-0.3-0.2-0.5-0.2c1-0.5,2-0.1,2.8,0.4c0.5,0.3,0.7,0.1,1.1-0.4c0,1,0,1.8,0,2.7
		C84.3,170.3,83.5,169.1,81.5,169.5z"/>
	<path class="st29" d="M82,178c0-0.2,0-0.3,0-0.5c1.9,0.1,2.4-1.2,2.9-2.7c0,0.9,0,1.8,0,2.6C83.8,176.8,83,178,82,178z"/>
	<path class="st30" d="M190.9,177.7c0-0.1,0-0.2,0-0.3c2.1,0.3,2.9-0.8,3.4-2.6c0,0.9,0,1.8,0,3.1c-0.3-1-0.7-0.9-1.1-0.6
		C192.5,177.8,191.7,177.8,190.9,177.7z"/>
	<path class="st22" d="M94.8,169.8c-1.5-0.8-3-0.9-4.6-0.3C91.7,168.2,93.8,168.3,94.8,169.8z"/>
	<g>
		<path class="st0" d="M119.3,69.2c-1.7,3.4-3.2,6.8-5.5,9.8c-1.4,1.7-3.2,3-5.4,3.4c-0.1-0.5,0.3-0.6,0.6-0.7c3-1.2,5-3.4,6.4-6.3
			c0.3-0.7,0.7-1.3,1.1-2c-3.3,2.4-6.8,2.5-10.3,0.7c-3.6-1.9-4.9-6.2-3.3-10c0.2-0.3,0.4-0.7,0.5-1c0.9-1.8,0.9-1.9-1-2.7
			c-1.6-0.7-3-1.6-4-3.1c-3.8-5.2,0-11.1,5-12.2c1.9-0.4,3-0.3,6.1,0.6c-0.5-0.7-1-1.3-1.4-2c-2.5-4.3-0.5-10.4,4-12.3
			c3.3-1.4,6.4-0.9,9.1,1.6c0.6,0.5,1.1,1.1,1.6,1.6c0.6,0.6,1.2,0.6,1.8,0c0.6-0.7,1.2-1.3,1.9-1.8c2.6-2.3,5.7-2.7,8.8-1.4
			c3.3,1.5,5.1,4.2,5.2,8c0.1,2.5-0.9,4.5-2.4,6.4c1.6-0.6,3.1-0.7,4.8-0.7c3.1,0.1,5.4,1.5,6.9,4.1c2.5,4.2,0.3,8.9-3.8,10.9
			c-0.5,0.2-1,0.4-1.4,0.7c-1,0.6-1.2,0.9-0.5,1.9c1,1.6,1.4,3.2,1.4,5.1c-0.1,2.5-1.2,4.4-3.2,5.8c-3.4,2.4-7.7,2.2-11.1-0.4
			c1.4,2.7,2.7,5.2,5.2,7c0.2,0.2,0.4,0.4,0.3,0.7c-0.2,0.1-0.3,0.1-0.5,0c-2-1.2-3.3-3.1-4.4-5.1c-1.9-3.3-3.4-6.7-5.1-10.1
			c-0.3-0.6-0.7-1.1-1.1-1.6c0.4,2.3,0.4,4.7,0.3,7c-0.2,7.8-2.1,15.1-6.1,21.8c-0.8,1.4-1.7,2.8-3,3.8c-1,0.8-2.2,1.1-3.4,0.7
			c-2-0.7-2.3-3-0.6-4.3c1.8-1.4,3.6-3,4.9-4.9c0.7-1,1.3-2.1,1.9-3.2l0,0c1.9-4.1,2.9-8.5,3.2-13c0.2-2.5,0.2-5.1,0.1-7.6
			c0-0.3,0.1-0.7-0.3-0.8c-0.4-0.1-0.5,0.3-0.7,0.6C120.8,66,120.1,67.6,119.3,69.2z"/>
		<path class="st31" d="M136.4,81.1c-2.9-2-4.4-5.1-6-8.1c0,0,0-0.1,0.1-0.4c0.8,0.6,1.5,1.2,2.4,1.7c4.2,2.2,10.5,0.3,11.9-4.6
			c0.6-2.1,0.3-4.2-0.8-6.1c-0.2-0.3-0.3-0.6-0.5-0.9c-0.5-0.8-0.3-1.3,0.6-1.7c1.8-0.8,3.7-1.6,4.9-3.3c2.7-3.6,1.7-8.1-1.7-10.5
			c-2.8-2-5.7-1.8-8.8-0.8c-0.3,0.1-0.7,0.5-1,0.1c-0.3-0.4,0.3-0.6,0.5-0.9c4.2-4.5,2.4-11.4-2.9-13.7c-3.3-1.4-6.5-0.5-9.1,2.1
			c-0.4,0.4-0.8,0.9-1.2,1.3c-0.7,0.7-1.3,0.8-2,0c-1.1-1.2-2.1-2.4-3.6-3.1c-1.7-0.8-3.4-1.1-5.4-0.6c-3.4,0.8-5.3,3-6.2,6
			c-0.9,2.9-0.1,5.7,2,8c0.2,0.2,0.3,0.4,0.5,0.6c0,0,0,0.1,0,0.3c-0.7,0-1.3-0.4-1.9-0.6c-3-0.8-5.7-0.6-8.2,1.4
			c-2.1,1.7-3.3,4-2.8,6.7c0.4,2.6,1.9,4.7,4.4,5.8c0.8,0.4,1.6,0.7,2.4,1.1c0.6,0.3,0.7,0.6,0.4,1.2c-0.8,1.4-1.6,2.8-1.8,4.5
			c-0.4,3.9,2.3,7.4,6.3,8.2c3.1,0.6,5.7-0.1,8.2-2.3c-0.2,1.1-0.8,1.7-1.2,2.5c-1.5,3.3-3.7,5.9-7.3,7.1c-0.1,0-0.2,0.2-0.2,0.2
			c-3.3,0.9-6.4,0.3-9.4-1.4c-1.6-1-3-2.3-3.9-4.1c-1.7-3.1-1.6-6.2-0.1-9.3c0.5-1,1-2,1.6-3c0.4-0.6,0.2-1-0.4-1.2
			c-0.6-0.2-1.2-0.5-1.8-0.7c-2.3-1-4.5-2.1-6-4.2c-3.7-4.8-2.6-11.1,2.5-14.5c4.1-2.7,8.4-2.9,12.8-0.9c0.2,0.1,0.5,0.2,0.7,0.3
			c0.2,0.1,0.4,0.1,0.6,0.1c-0.4-0.8-1-1.2-1.5-1.8c-5.9-6.5-2.8-17,5.9-19.2c4.5-1.1,8,0.4,11.2,3.3c0.8,0.7,1.6,1.5,2.3,2.4
			c0.6,0.6,1,0.6,1.6,0c1.5-1.4,2.7-3,4.5-4.1c2-1.2,4.1-2,6.5-2c3.4,0.1,6.2,1.4,8.4,3.9c4.1,4.4,4.1,11.4-0.1,15.8
			c-0.4,0.5-1,0.8-1.2,1.5c0.6,0.2,1-0.1,1.4-0.3c4.5-2,8.8-1.7,12.9,1c3.4,2.3,5.1,6.6,4.2,10.3c-1,3.9-3.5,6.4-7.1,7.9
			c-0.3,0.1-0.7,0.2-0.9,0.4l0,0c-2.7,0.9-2.7,1-1.4,3.4c1.3,2.4,2.2,4.8,1.8,7.5c-0.5,3.2-2.3,5.6-5,7.4c-2,1.3-4.3,2-6.7,1.9
			c-1.8-0.1-3.5-0.7-5.2-1.5C136.5,81.4,136.4,81.2,136.4,81.1z"/>
		<path class="st32" d="M153.2,62.8c0.7-0.7,1.6-0.9,2.5-1.4c3.7-2.1,5.6-5.2,5.6-9.5c0-3.5-3.3-7.7-6.6-8.8c-1.5-0.5-2.9-0.9-4.5-1
			c-2.6-0.1-4.9,0.6-7.1,1.7c-0.3,0.1-0.7,0.4-0.9,0c-0.2-0.3,0.2-0.5,0.4-0.7c2.8-2.6,4.4-5.7,4.3-9.6c-0.1-5.1-4.1-9.8-9.1-10.8
			c-0.7-0.1-1.5-0.3-2.2-0.5c4.4-0.2,7.6,2,9.9,5.6c3.1,4.9,2.3,10.6-1.8,14.7c-0.2,0.2-0.4,0.3-0.6,0.5c0.6,0.2,1.1-0.1,1.5-0.3
			c1.6-0.9,3.5-1.2,5.2-1.2c2.9,0.1,5.7,0.8,8,2.8c1.8,1.6,3.3,3.4,3.7,5.9c0.5,3,0.1,5.9-1.9,8.4C157.8,60.7,155.7,62.2,153.2,62.8
			z"/>
		<path class="st33" d="M136.4,81.1c2.3,1.2,4.7,1.8,7.3,1.4c3.9-0.5,6.7-2.4,8.6-5.8c1.8-3.3,1.4-6.5-0.3-9.7
			c-0.5-0.8-0.9-1.7-1.4-2.5c-0.3-0.5-0.2-0.8,0.3-1c0.7-0.3,1.4-0.9,2.2-0.8c-0.2,0.3-0.5,0.4-0.8,0.6c-1.5,0.7-1.5,0.7-0.7,2.2
			c0.9,1.6,1.8,3.2,2.1,5c0.6,3.1-0.2,5.8-2.2,8.2c-2.6,3.1-6,4.7-10.1,4.4c-1.9-0.1-3.9-0.6-5.4-2
			C136.1,81.1,136.3,81.1,136.4,81.1z"/>
		<path class="st34" d="M119.3,69.2c0.3-1.6,1.4-2.9,2-4.4c0.1-0.2,0.2-0.4,0.3-0.6c0.2-0.4,0.4-0.9,0.8-0.8c0.6,0.1,0.3,0.7,0.3,1
			c0.5,4.8,0.1,9.6-1,14.3c-0.4,1.9-1.1,3.8-1.8,5.6c-0.1,0.4-0.2,0.7-0.6,0.9c0.1-1.1,0.7-2,1-3c1-3.1,1.6-6.3,2-9.6
			c0.2-2.5,0.2-5,0.2-7.5c0-0.4,0.1-0.8-0.3-1.2c-0.7,1.5-1.5,2.9-2.1,4.3C119.8,68.6,119.7,68.9,119.3,69.2z"/>
		<path class="st34" d="M119.3,85.2c-0.3,1.2-0.9,2.3-1.9,3.2C117.9,87.3,118.5,86.2,119.3,85.2z"/>
	</g>
	<path class="st35" d="M145.4,177c-0.4-0.8-0.2-1.6-0.2-2.3c0-0.7,0.7-0.4,1.1-0.4c-0.8,0.2-1,0.7-0.9,1.5
		C145.4,176.2,145.4,176.6,145.4,177z"/>
	<path class="st17" d="M125.7,176.9c-0.2-0.9-0.2-1.9,0-2.8C125.7,175,125.7,175.9,125.7,176.9z"/>
	<path class="st36" d="M76.3,120.1c-0.1,3.9-1,7.4-4.1,10c-1.7,1.4-3.6,2-5.8,2.1c-0.9,0.1-0.9-0.2-0.7-1c1-3.7,2-7.5,3-11.2
		c0.3-1,0.5-1.9,0.8-2.9c0.7-2.4,2.8-3.1,5-1.8c1.1,0.7,1.6,1.7,1.8,2.9C76.3,118.9,76.3,119.5,76.3,120.1z"/>
	<path class="st36" d="M125.8,140.5c0.4-5.1,1.8-9.9,4.7-14.3c0.7-1.2,1.6-2.2,3-2.7c0.7-0.3,1.3-0.3,2,0c0.9,0.3,1.3,0.8,0.9,1.9
		c-1.2,3.7-1.9,7.5-3.3,11c-0.9,2.2-1.9,4.4-3.5,6.2c-0.3,0.4-0.7,0.7-1.1,1c-1.2,0.9-2.4,0.4-2.6-1.1
		C125.9,141.9,125.9,141.3,125.8,140.5z"/>
	<path class="st37" d="M180.4,135.4c1.2-4.4,2.8-8.6,6.2-11.7c0.1-0.1,0.2-0.2,0.3-0.2c0.6-0.3,1.2-0.8,1.9-0.5
		c0.8,0.4,0.5,1.2,0.5,1.9c-0.4,4.9-3.2,8-7.3,10.1C181.5,135.1,181.1,135.5,180.4,135.4z"/>
	<path class="st38" d="M62.1,172c0-0.5,0-1,0-1.5c0-0.4,0.1-0.8,0.5-0.9c0.4-0.1,0.7-0.1,1.1,0.2c1,0.7,0.8,3.5-0.3,4.1
		c-0.9,0.5-1.3,0.3-1.3-0.8C62.1,172.7,62.1,172.3,62.1,172C62.1,172,62.1,172,62.1,172z"/>
	<path class="st35" d="M145.2,171.9c0-0.5,0-1,0-1.5c0.1-0.9,0.8-1.3,1.5-0.7c0.9,0.6,0.7,1.6,0.7,2.5c0,0.7-0.2,1.4-1,1.7
		c-0.8,0.3-1.3,0.2-1.2-0.8C145.2,172.7,145.2,172.3,145.2,171.9C145.2,171.9,145.2,171.9,145.2,171.9z"/>
	<path class="st22" d="M94.4,173.5c0,1-0.1,2.1-0.6,3c-0.8,1.3-2.2,1.4-3,0.1c-1-1.5-1-4.9-0.1-6.4c0.8-1.3,2.2-1.3,3,0.1
		C94.3,171.3,94.4,172.4,94.4,173.5z"/>
	<path class="st10" d="M96.2,172.4c-0.5,0.7-0.1,1.6-0.5,2.4c-0.2,0.4-0.3,0.7-0.7,0.7c-0.6,0-0.4-0.5-0.4-0.9c0-1.1,0-2.3,0.1-3.4
		c0-0.2,0-0.4,0.2-0.5c0.2-0.1,0.3,0.2,0.4,0.3C95.5,171.6,95.6,172.2,96.2,172.4C96.2,172.4,96.2,172.4,96.2,172.4z"/>
	<path class="st39" d="M71.9,174.3c-2.7,0.1-2.2,0.2-1.4-2.1c0.1-0.3,0.1-0.6,0.5-0.6C71.3,172.4,71.6,173.4,71.9,174.3z"/>
	<path class="st40" d="M136.6,174.2c-2.8,0.1-2.1,0.2-1.4-2.1c0.1-0.2,0.1-0.6,0.5-0.6C136.1,172.4,136.4,173.3,136.6,174.2z"/>
	<path class="st18" d="M200.5,177.2c-1.5-2.2-1.5-4.6-0.5-7c1.3-1.3,2.5-1.2,3.2,0.6c0.7,1.7,0.7,3.5,0.1,5.2
		C202.9,177.5,202,177.8,200.5,177.2z"/>
</g>
</svg>
