<?xml version="1.0" encoding="utf-8"?>
<!-- Generator: Adobe Illustrator 25.2.1, SVG Export Plug-In . SVG Version: 6.00 Build 0)  -->
<svg version="1.1" id="Camada_1" xmlns="http://www.w3.org/2000/svg" xmlns:xlink="http://www.w3.org/1999/xlink" x="0px" y="0px"
	 viewBox="0 0 247.2 202.1" style="enable-background:new 0 0 247.2 202.1;" xml:space="preserve">
<style type="text/css">
	.st0{fill:#8FB445;}
	.st1{fill:#90B446;}
	.st2{fill:#4E4E4E;}
	.st3{fill:#4F4F4F;}
	.st4{fill:#525252;}
	.st5{fill:#8DB341;}
	.st6{fill:#B5DE61;}
	.st7{fill:#8BB23C;}
	.st8{fill:#769D2A;}
	.st9{fill:#82A33F;}
	.st10{fill:#739B23;}
	.st11{fill:#70991E;}
	.st12{fill:#C9D0BD;}
	.st13{fill:#9BBA5F;}
	.st14{fill:#8EAA55;}
	.st15{fill:#B3E05B;}
	.st16{fill:#759C26;}
	.st17{fill:#C7CBBF;}
	.st18{fill:#B3E159;}
	.st19{fill:#94B64E;}
	.st20{fill:#BBDE74;}
	.st21{fill:#94B74D;}
	.st22{fill:#BADA79;}
	.st23{fill:#87B034;}
	.st24{fill:#6D9718;}
	.st25{fill:#B9C5A1;}
	.st26{fill:#B1E150;}
	.st27{fill:#A9B988;}
	.st28{fill:#A0BB68;}
	.st29{fill:#BED88D;}
	.st30{fill:#BDC5AB;}
	.st31{fill:#BED88A;}
	.st32{fill:#96AF65;}
	.st33{fill:#B0C28D;}
	.st34{fill:#C6D2AC;}
	.st35{fill:#AABF7F;}
	.st36{fill:#A7BF78;}
	.st37{fill:#81A43C;}
	.st38{fill:#B2BE9A;}
	.st39{fill:#A0B479;}
	.st40{fill:#BDC4AF;}
	.st41{fill:#B7C0A6;}
	.st42{fill:#C2D59A;}
	.st43{fill:#9FBB67;}
	.st44{fill:#C4D5A3;}
	.st45{fill:#9AB16E;}
	.st46{fill:#EBF0E3;}
	.st47{fill:#D8D9D5;}
	.st48{fill:#C3C8BA;}
	.st49{fill:#9DB274;}
	.st50{fill:#B3BE9E;}
	.st51{fill:#FAFBFA;}
	.st52{fill:#FEFEFE;}
	.st53{fill:#F4F7ED;}
	.st54{fill:#CBCEC5;}
	.st55{fill:#F6F7F2;}
	.st56{fill:#C9CCC4;}
	.st57{fill:#AABD82;}
	.st58{fill:#F9F9F9;}
	.st59{fill:#DCE1D0;}
	.st60{fill:#F6F6F5;}
	.st61{fill:#E9EBE4;}
	.st62{fill:#F8F8F7;}
	.st63{fill:#D1DBBF;}
	.st64{fill:#B7DF66;}
	.st65{fill:#DEE1DB;}
	.st66{fill:#CCD8B5;}
	.st67{fill:#9C9C9C;}
	.st68{fill:#F1F1F0;}
	.st69{fill:#FBFBFB;}
	.st70{fill:#F7F8F6;}
	.st71{fill:#C6D4AA;}
	.st72{fill:#EEF0EB;}
	.st73{fill:#CDDDB0;}
	.st74{fill:#EAECE5;}
	.st75{fill:#CBD4B7;}
	.st76{fill:#C1D1A1;}
	.st77{fill:#D9DFCD;}
	.st78{fill:#DFE0DD;}
	.st79{fill:#DDE2D5;}
	.st80{fill:#9BB270;}
	.st81{fill:#E9EBE5;}
	.st82{fill:#EEEFEB;}
	.st83{fill:#EFF1ED;}
	.st84{fill:#F4F4F2;}
	.st85{fill:#F2F3F1;}
	.st86{fill:#F4F5F2;}
	.st87{fill:#F7F7F6;}
	.st88{fill:#F7F9F5;}
	.st89{fill:#C0D29E;}
	.st90{fill:#C2D2A2;}
	.st91{fill:#D7DECA;}
	.st92{fill:#CFD6C4;}
	.st93{fill:#789D2C;}
	.st94{fill:#E1E4DA;}
	.st95{fill:#9EB968;}
	.st96{fill:#BFDD83;}
	.st97{fill:#C1DD8A;}
	.st98{fill:#E3E8DA;}
	.st99{fill:#C1DC8C;}
	.st100{fill:#CAD1BC;}
	.st101{fill:#C7CEBA;}
	.st102{fill:#C3DB92;}
	.st103{fill:#F4F5F3;}
	.st104{fill:#C3D996;}
	.st105{fill:#D6D9D2;}
	.st106{fill:#C6D5A9;}
	.st107{fill:#B3C58F;}
	.st108{fill:#9BB26D;}
	.st109{fill:#B0C18E;}
	.st110{fill:#ACBB8F;}
	.st111{fill:#ABBC8A;}
	.st112{fill:#A8BA85;}
	.st113{fill:#9AB46A;}
	.st114{fill:#B7C599;}
	.st115{fill:#F1F4EB;}
	.st116{fill:#C5D89F;}
	.st117{fill:#CBDAAC;}
	.st118{fill:#C1D39A;}
	.st119{fill:#C4D1A8;}
	.st120{fill:#C7D1B0;}
	.st121{fill:#D1D8C4;}
	.st122{fill:#D7DCCA;}
	.st123{fill:#EFF0EC;}
	.st124{fill:#E0E7D2;}
	.st125{fill:#EAEEE0;}
	.st126{fill:#DEEBC3;}
	.st127{fill:#CAE29B;}
	.st128{fill:#BFDD84;}
	.st129{fill:#B7CE87;}
	.st130{fill:#B9CE8B;}
	.st131{fill:#BBCF91;}
	.st132{fill:#F9FAF8;}
	.st133{fill:#A1B678;}
	.st134{fill:#A4B87E;}
	.st135{font-family:'ArialMT';}
	.st136{font-size:13.6013px;}
</style>
<g>
	<g>
		<path class="st0" d="M25.1,93.1c-2.3-4.4-3.9-9.2-6.9-13.2c-1.6-2.1-2.2-3.1,0.7-4.7c4-2.3,4.9-6.4,3.9-10.7
			c-1-4.3-4.2-6.2-8.5-6.9C10.9,57,7.3,57.2,3.8,57c-2.8-0.2-3.3,1.1-3.2,3.5c0.1,5.1,0,10.3,0,15.4c0,5.3,0,10.6,0,15.9
			c0,1.9,0,3.4,2.7,3.4c2.8,0,2.6-1.7,2.6-3.6c0-3.2,0-6.4,0-9.6c0.1-3.9,1.7-4.8,5.2-3.1c1.8,0.9,2.6,2.4,3.3,4
			c1.5,3,3.1,6,4.3,9.1c1,2.7,2.7,3.3,5.3,3.1C25.7,95,25.7,94.3,25.1,93.1z M12.4,73.8C11.2,74,9.9,73.9,8.7,74
			c-2,0.2-3-0.6-2.8-2.7c0.1-1.2,0-2.5,0-3.7c0-0.9,0.1-1.8,0-2.7c-0.2-2.3,0.8-3.3,3.1-3.1c1.1,0.1,2.1,0,3.2,0.1
			c3.8,0.4,5.4,1.9,5.6,5.1C18,70.5,15.9,73.2,12.4,73.8z"/>
		<path class="st1" d="M88.2,74.8c0-5.8,0-11.7,0-17.5c0-2-0.6-2.9-2.7-2.9c-2.3,0-2.6,1.3-2.5,3.1c0.1,1.8-0.1,3.5,0,5.3
			c0.2,2.6-0.2,3.6-3.5,3.1c-9-1.4-15.5,4.4-15.9,13.5c-0.1,1.9-0.1,3.9,0.1,5.8c0.4,4.1,1.9,7.8,5.9,9.5c4,1.7,8.1,1,11.3-2.2
			c1.4-1.5,2.3-1.5,2.6,0.7c0.3,1.9,1.5,2.1,3.1,2c1.9-0.2,1.6-1.6,1.6-2.8C88.2,86.4,88.2,80.6,88.2,74.8z M78.5,89.5
			c-3.9,3-8.3,1.7-9.3-3.2c-0.7-3.5-0.8-7.1,0-10.5c1.2-5,7.8-7.7,12.4-5.2c1.2,0.6,1.3,1.5,1.3,2.6c0,1.8,0,3.5,0,6.1
			C84,83.2,82.2,86.7,78.5,89.5z"/>
		<path class="st2" d="M111.7,137.7c-2.5-0.2-5-0.1-7.5-0.3c-1.8-0.2-3.8-0.6-3.3-3.2c0.5-2.8,2.4-1.1,3.7-0.9
			c8.4,1.1,13.2-3.4,12-11.5c-0.2-1.2-0.6-2,1-2.1c1.2-0.1,2-0.5,1.9-1.9c-0.2-1.8-1.6-1.6-2.8-1.6c-3,0-6-0.2-9-0.6
			c-4.8-0.6-8.7,2-10.3,6c-1.2,2.9,0.3,5.4,0.8,8.1c0.5,2.6-3.1,5.4-1.3,8.4c1.2,1.9,0.6,2.8-0.4,4.4c-2.5,4-1.1,7.5,3.3,9.3
			c2.2,0.9,4.5,0.9,6.8,1c2.3-0.1,4.6,0,6.8-0.9c4.4-1.8,6.4-4.4,6-8.3C119.1,140.1,116.5,138.1,111.7,137.7z M107.3,118.9
			c2.9,0.1,5.4,2.7,5.4,5.6c0,2.9-2.5,5.5-5.3,5.7c-3.1,0.1-5.9-2.5-5.9-5.6C101.4,121.4,104.2,118.7,107.3,118.9z M112.9,147.9
			c-2.4,1.8-8.7,1.9-11.2,0.3c-2.4-1.5-2-4.9,0.7-6.4c1.1-0.6,2.4-0.5,3.6-0.5c1.9,0.2,3.9,0.4,5.8,0.6c1.5,0.2,2.7,0.9,3,2.5
			C115.1,146,114.1,147,112.9,147.9z"/>
		<path class="st1" d="M51.1,66.9c-5.4-2.5-10.7-1.7-16,0.4c-1.4,0.6-1.3,2.1-1,3.3c0.5,1.5,1.7,0.6,2.6,0.4
			c1.7-0.4,3.4-0.9,5.2-1.1c2.3-0.4,4.7-0.1,6.6,1.3c1.9,1.4,2.6,3.4,2,5.6C50.1,79,48,77.9,46.6,78c-3.2,0.2-6.4-0.1-9.4,1.3
			c-3.6,1.6-5.8,5.2-5.4,8.9c0.4,3.9,3,6.3,7.3,7.2c3.3,0.7,6.3-0.2,9.1-1.7c1.2-0.7,2.4-2.6,3.2,0.6c0.3,1.4,2.1,0.9,3.3,0.8
			c1.4-0.2,1.4-1.4,1.4-2.4c0-3,0-6,0-9c0-2.1,0-4.2,0-6.4C56,73,55.6,68.9,51.1,66.9z M48.2,89.1c-1.3,0.6-2.4,1.5-3.8,1.9
			c-3.6,1-6.7-0.3-7.2-3.2c-0.5-2.7,1.7-5.1,5.1-5.6c1-0.1,2.1,0,3.2,0v-0.1c0.2,0,0.4,0,0.5,0c1.6,0.4,3.9-1,4.7,1.3
			C51.4,85.7,50.7,87.8,48.2,89.1z"/>
		<path class="st3" d="M37.1,128.9c0-3.5,0-7.1,0-10.6c0-0.9,0.2-1.8,1.3-2c0.9-0.2,2.2-0.1,2.4,0.6c0.5,2.4,0.7,2.5,2.5,0.6
			c3-3.2,5.2-2.8,7.4,1.2c1.1,2.1,1.3,0.6,1.7-0.1c1.5-1.9,3-3.7,5.8-2.8c2.9,0.9,3.5,3.3,3.5,5.9c0.1,5.9,0,11.7,0.1,17.6
			c0,1.5-0.1,2.7-2.2,2.8c-2,0-2.3-1.1-2.3-2.7c0-5.7,0-11.4,0-17c0-1,0.2-2.3-1.2-2.6c-1.3-0.3-1.8,0.8-2.4,1.7
			c-1.2,2-2,4.1-1.9,6.5c0.1,3.7,0,7.4,0,11.2c0,1.5,0.1,2.8-2.1,2.9c-2.5,0.1-2.4-1.4-2.4-3.1c0-4.3,0-8.5,0-12.8
			c0-1.2,0-2.5-0.1-3.7c-0.1-1.1-0.2-2.4-1.3-2.7c-1.5-0.4-2.1,1-2.7,2.1c-1.1,2-1.9,4.1-1.8,6.6c0.1,3.7,0,7.5,0,11.2
			c0,1.4-0.2,2.4-2,2.4c-1.8,0-2.6-0.6-2.5-2.5C37.1,136,37.1,132.4,37.1,128.9z"/>
		<path class="st2" d="M153.4,128.9c0-3.5,0-7.1,0-10.6c0-0.9,0.1-1.8,1.3-2c0.9-0.1,2-0.1,2.1,1c0.4,2.7,1.1,1.6,2.4,0.5
			c3.5-3.2,4.3-3.1,7.6,0.7c1.2,1.4,1.4,0.7,2.1-0.3c1.3-1.8,3-3.1,5.5-2.3c2.6,0.8,3.5,3,3.6,5.4c0.2,6.2,0.1,12.4,0.1,18.6
			c0,1.5-0.6,2.2-2.2,2.2c-1.5,0-2.3-0.5-2.3-2.1c0-4.6,0-9.2,0-13.8c0-1.4,0-2.8-0.1-4.3c-0.1-0.9-0.4-1.9-1.3-2.1
			c-1-0.2-1.6,0.5-2.1,1.3c-1.4,2.3-2.5,4.6-2.4,7.5c0.1,3.7,0,7.4,0,11.2c0,1.4-0.3,2.3-2.1,2.4c-1.9,0-2.5-0.8-2.5-2.5
			c0.1-5.7,0-11.4,0-17c0-1,0.3-2.3-1.1-2.7c-1.3-0.3-1.9,0.7-2.4,1.7c-1.2,2-2.1,4-2,6.5c0.1,3.9,0,7.8,0,11.7c0,1.4-0.2,2.3-2,2.4
			c-1.9,0-2.5-0.7-2.5-2.5C153.4,136,153.4,132.4,153.4,128.9z"/>
		<path class="st1" d="M150.1,68.4c-1.1-0.9-2.3-1.6-3.7-2.1c-7.6-3-19.4,1.3-18.8,14.7c0,7.3,2.9,12.6,8.4,13.8
			c6.8,1.5,13.1,0.7,16.6-5.8C156.3,82.3,155.1,72.5,150.1,68.4z M148,87.5c-2,3-4.6,4-8.1,3.7c-3.5-0.4-5.5-2.4-6.4-5.5
			c-0.9-3.3-0.9-6.7,0-9.9c0.9-3.7,4.1-6.1,7.7-6.1c3.8,0,7.1,2.6,8,6.5c0.3,1.4,0.3,2.8,0.4,3.8C149.3,82.8,149.4,85.3,148,87.5z"
			/>
		<path class="st4" d="M20,142c-2.5,0-5,0-7.5,0c-1.5,0-2.3-0.3-2.3-2.1c0.1-1.7,1-2.1,2.4-2c0.9,0,1.8-0.1,2.7,0
			c1.8,0.1,2.6-0.6,2.6-2.4c-0.1-6.9-0.1-13.8,0-20.8c0-2.2-1-2.5-2.9-2.7c-1.7-0.2-5,1.7-4.7-2.1c0.3-3.5,3.4-1.6,5.2-1.7
			c4.1-0.3,8.2-0.1,12.3-0.1c1.3,0,2.5,0.1,2.6,1.8c0.1,2.1-1.2,2.2-2.7,2.2c-0.9,0-1.8,0-2.7,0c-1.5-0.1-2.3,0.6-2.3,2.2
			c0,7.1,0.1,14.2,0,21.3c0,2.4,1.6,2.2,3.2,2.4c1.7,0.2,4.5-1.2,4.4,2.1c-0.1,3.3-2.9,1.7-4.5,1.9C23.9,142.1,21.9,142,20,142z"/>
		<path class="st3" d="M78.4,115.5c-1.6,0-3.2,0.3-4.7,0.6c-2,0.4-5,0.3-4.2,3.4c0.7,2.7,2.9,0.5,4.4,0.3c2.3-0.3,4.6-0.6,6.9,0
			c2.3,0.7,3.7,3.3,3.2,5.5c-0.6,2.3-2.6,1.3-4,1.4c-2.6,0.2-5.3-0.1-7.9,1.1c-3.7,1.7-5.5,4.7-4.8,8.5c0.7,3.8,2.8,5.6,7.1,5.9
			c3.1,0.2,6-0.3,8.5-2.5c2.2-1,1.2,1.7,2.3,2c2,0.4,3.4,0.2,3.3-2.5c-0.2-4.6-0.3-9.2,0-13.8C89,117.7,84.2,115.6,78.4,115.5z
			 M81.7,136.6c-1.4,0.7-2.8,1.6-4.3,1.9c-2.7,0.7-4.9-0.7-5.3-2.9c-0.4-2.4,0.9-4.5,3.4-5.1c1.3-0.3,2.8-0.3,4.1-0.4
			c1.5,0.5,3.6-0.9,4.2,1.2C84.5,133.4,84.1,135.5,81.7,136.6z"/>
		<path class="st3" d="M140.5,116.2c-5.4-1.8-11,0.3-13.6,5.3c-1.9,3.5-2.4,7.3-1.5,11.3c1.8,8.1,12.6,13,19.9,8.8
			c1.1-0.6,1.3-1.6,1-2.7c-0.3-1.2-1.3-1-2.1-0.7c-2.2,0.7-4.6,0.7-6.9,0.6c-3-0.2-5.5-1.4-6.8-4.3c-1.2-2.7-0.6-3.9,2.4-4
			c2-0.1,3.9,0,5.9,0v0c2.3,0,4.6,0,6.9,0c1.4,0,2.2-0.5,2.4-2.1C148.6,122.9,145.4,117.8,140.5,116.2z M140.2,127
			c-1.4,0.1-2.8,0-4.2,0c-0.5,0-1.1,0.1-1.6,0c-1.4-0.3-3.6,0.9-4.2-0.9c-0.7-1.9,0.7-3.7,2.1-5.1c3.2-3.2,9-1.8,10.4,2.4
			C143.5,125.9,142.9,126.8,140.2,127z"/>
		<path class="st0" d="M112,79c0,1.4-0.1,2.8,0,4.3c0.1,2.3-0.8,4.9,0.5,6.7c1.3,1.9,4,0.7,6,0.8c1.6,0.1,2.2,0.8,2.1,2.4
			c0,1.4-0.8,1.9-2,1.9c-6.2,0-12.5,0-18.7,0c-1.2,0-2.1-0.3-2.1-1.7c0-1.4,0.2-2.5,2-2.5c0.5,0,1.1,0,1.6,0c6-0.2,6-0.2,6-6
			c0-3.7-0.1-7.5,0-11.2c0.1-2.6-0.9-3.6-3.4-3.3c-1.1,0.1-2.1,0-3.2,0c-1.3-0.1-1.9-0.7-1.9-2c0-1.3,0.5-2.1,1.8-2.1
			c3.2,0,6.4,0,9.6,0c1.8,0,1.8,1.4,1.8,2.6C112,72.3,112,75.6,112,79C112,79,112,79,112,79z"/>
		<path class="st5" d="M184.6,48.6c-0.1,0.6-0.2,1.2-0.3,1.9c-0.7,3.5-0.7,7.1,0,10.6c1.8,10.1,4.4,20,7.7,29.7
			c0.5,1.7,1.4,3.3,1.7,4.9c0.3,1.7,1.3,3.9-1.6,4.7c-3.4-5.8-6.6-11.6-8.6-18c-2.7-14-3.3-28.2-5-42.3c-0.1-0.9,0-1.7,0.4-2.5
			c0.4-0.4,0.8-0.7,1.3-1c0.3-0.1,0.5-0.1,0.8-0.2c0.4,0,0.7,0,1.1,0c0.7-0.3,1.2-0.1,1.7,0.4C186,40.6,186,44.5,184.6,48.6z"/>
		<path class="st6" d="M195.3,86.6c-0.2-0.3-0.2-0.5-0.2-0.8c-0.3-0.6-0.4-1.2-0.4-1.9c-2.8-9.9-2.5-20.2-4-30.2
			c-0.4-2.9-0.7-6,1.3-8.6c1.4-1.8,2.9,0.5,4.4-0.1c0.3,0.1,0.5,0.3,0.8,0.4c0.5,0.4,0.8,0.9,1.1,1.5c0.9,2.7,0.7,5.4-0.8,7.9l0,0
			c-0.5,0.3-0.8,0.7-1,1.3c-1.7,4.7-1.1,9.7-1.1,14.5c0.8,1,0.1,2.3,0.8,3.3c0.1,1,0.2,2,0.3,3c0.4,0.7,0.3,1.6,0.8,2.3
			c0.1,0.6,0.2,1.3,0.2,1.9c0.8,1.2,0,2.7,0.9,3.9c0.5,0.5,0.7,1.2,1.1,1.7c0.1,0.3,0.2,0.5,0.1,0.8c0.2,0.5,0.5,0.9,0.8,1.3
			c0.2,0.3,0.2,0.7,0.2,1c0.2,2.5,3.5,4.9,0.1,7.4c-0.2-0.2-0.2-0.5-0.2-0.8c-0.2-0.5-0.6-0.8-0.9-1.2c-0.2-0.2-0.2-0.5-0.2-0.8
			c-0.2-0.5-0.5-0.9-0.9-1.3c-0.1-0.2-0.2-0.5-0.2-0.8c-0.1-0.6-0.5-1-0.9-1.4c-0.1-0.2-0.2-0.5-0.1-0.8c-0.1-0.6-0.5-1-0.9-1.4
			c-0.2-0.2-0.2-0.5-0.2-0.8C196,87.4,195.7,87,195.3,86.6z"/>
		<path class="st7" d="M178.9,38.6c2.3,3.5,1.8,7.6,2.3,11.4c0.8,6.2,1.3,12.4,2,18.6c0.5,4.5,0.9,9.1,0.4,13.7
			c-0.2-0.2-0.3-0.5-0.2-0.8c-0.2-0.4-0.5-0.8-0.7-1.2c-0.1-0.6-0.3-1.2-0.4-1.8c0-0.6-0.4-1-0.7-1.4c-0.2-0.3-0.3-0.6-0.2-1
			c-0.6-0.6-0.4-1.5-0.9-2.2c-0.2-0.3-0.3-0.6-0.2-1c-0.6-0.6-0.4-1.5-0.9-2.2c-0.1-0.6-0.2-1.2-0.3-1.8c0-0.6-0.5-0.9-0.7-1.4
			c-0.1-0.4-0.1-0.8-0.2-1.1c-0.5-7.1-0.8-14.2-2.1-21.2c0-0.7-0.1-1.4-0.1-2.1c1.1-1.2-0.3-3.3,1.6-4.3
			C178,38.5,178.5,38.5,178.9,38.6z"/>
		<path class="st8" d="M176.1,89.8c-0.2-0.2-0.3-0.5-0.2-0.8c-0.1-0.5-0.5-0.9-0.7-1.3c-0.3-0.3-0.3-0.6-0.3-1
			c-0.6-0.8-0.4-1.7-0.5-2.6c-1.8-7.9-2.7-16-2.9-24.1c0.1-0.6,0.3-1.2,0.6-1.7c0.4-0.6,0.9-0.7,1.6-0.4c0.8,4.6,1.6,9.1,2.4,13.7
			c0.5,0.7,0.4,1.6,0.8,2.3c0.1,0.7,0.2,1.3,0.3,2c0.5,0.7,0.4,1.6,0.8,2.2c0.1,0.6,0.2,1.3,0.3,1.9c0.4,0.7,0.3,1.7,0.8,2.3
			c0.2,0.3,0.3,0.6,0.2,1c0.5,0.7,0.3,1.6,0.9,2.2c0.2,0.3,0.3,0.6,0.2,1c0.5,0.6,0.3,1.6,0.9,2.2c0.2,0.3,0.3,0.5,0.2,0.9
			c0.5,0.7,0.3,1.7,0.9,2.4l0,0c0,2.9,3.5,6.2-1,8.5l0,0c-0.6-0.6-0.4-1.6-1.1-2.1l0,0c-0.6-0.6-0.4-1.6-1.1-2.1l0,0
			c-0.6-0.6-0.4-1.6-1.1-2.1v0c-0.6-0.6-0.4-1.5-1-2.1c-0.2-0.2-0.3-0.4-0.2-0.7C176.8,90.6,176.4,90.2,176.1,89.8z"/>
		<path class="st9" d="M181.3,100.4c2.2-2.6,0.5-5.7,1-8.5c3.3,6.6,6.5,13.3,9.8,19.9c0.2,0.5,0.5,0.9,0.9,1.3l0,0.1
			c0.4,1.9,2.6,4.1-1,5.3l0,0c-0.3-0.4-0.6-0.7-0.8-1.1C187.4,112.1,183.8,106.5,181.3,100.4z"/>
		<path class="st10" d="M172.7,58.9c0.3,6.4,0.9,12.9,2,19.2c0.4,2.1,0.1,4.2,0.2,6.3c-0.3,0.5-0.7,0.5-1,0
			c-0.2-0.2-0.3-0.4-0.2-0.7c-0.1-0.6-0.4-1-0.7-1.4c-0.2-0.3-0.3-0.6-0.2-1c-0.6-0.6-0.4-1.6-0.9-2.2c-0.2-0.2-0.3-0.5-0.2-0.9
			c-0.5-0.8-0.4-1.8-0.4-2.7c-2.2-12.6-3.4-25.2-3.8-38c0.1-0.3,0.2-0.7,0.4-1c0.2-0.4,0.4-0.7,0.8-0.9l0.1-0.1
			c0.6-0.3,1.2-0.2,1.7,0.3c3.2,6.6,2.1,13.7,2.4,20.6C172.7,57.2,172,58.1,172.7,58.9z"/>
		<path class="st11" d="M167.3,37.6c2.4,2.6,1.5,6.1,1.8,9c0.6,5,1.7,10.1,1.4,15.2c-0.2,4.8,1.8,9.4,1.1,14.2c-0.3,0.5-0.7,0.5-1,0
			c-0.2-0.2-0.3-0.5-0.2-0.8c-0.4-0.7-0.3-1.7-0.9-2.4c-0.2-0.3-0.3-0.6-0.2-0.9c-0.5-0.7-0.3-1.6-0.8-2.3c-0.4-1.4-1.4-2.7-1.1-4.3
			c-0.2-7.1-1.1-14.2-2.1-21.2c0-0.4,0-0.8,0.1-1.1c0.4-0.7,0.4-1.6,0.7-2.4c-0.1-0.3-0.1-0.6,0.2-0.8
			C167,39.1,166.8,38.2,167.3,37.6L167.3,37.6z"/>
		<path class="st12" d="M232.7,110c3.6,4.4,4.8,9.6,3.9,15.1c-0.4,2.5-1.9,4.6-5.1,4.1c-1-2.4-3.3-3.8-4.2-6.3
			c5.1-0.5,5.2-0.6,5.4-5.1c0.1-2.7-0.3-5.2-1-7.8C232,109.5,232.4,109.5,232.7,110z"/>
		<path class="st13" d="M192.2,100.3c1.5-2,1-4.1,0.3-6.2c-0.4-1.2-0.5-2.3-0.4-3.5c2.4,3.3,3.5,7.2,5.2,10.9
			c0.7,0.5,0.4,1.6,1.1,2.1l0,0c0.3,0.3,0.6,0.7,0.8,1c0.2,0.3,0.3,0.6,0.3,1c0.3,0.4,0.6,0.8,0.8,1.2c0.2,0.2,0.3,0.5,0.3,0.8
			c0.2,0.5,0.6,0.9,0.9,1.3l0,0c0.7,0.5,0.4,1.6,1.2,2l0,0c0.5,1.7,1.8,3.5-1.1,4.3l0,0c-0.3-0.3-0.6-0.6-0.8-1
			c-0.2-0.2-0.3-0.5-0.3-0.9c-0.2-0.5-0.6-0.9-1-1.3l0,0c-0.3-0.3-0.6-0.6-0.8-1c-0.2-0.2-0.3-0.5-0.3-0.9c-0.2-0.5-0.6-0.9-1-1.3
			l0,0c-0.3-0.3-0.6-0.6-0.8-1C195,105.4,193.1,103.2,192.2,100.3z"/>
		<path class="st14" d="M192,118.6c2-1.4,0.7-3.5,1-5.3c2.9,4.2,5.7,8.5,8.6,12.7c0.4,0.3,0.6,0.6,0.8,1c0.2,0.2,0.4,0.5,0.4,0.8
			c0.6,1.7,1.4,3.4-0.3,5c-0.3-0.4-0.7-0.8-1-1.2c-0.2-0.6-0.6-1-1.1-1.3C197.2,126.7,194.1,122.9,192,118.6z"/>
		<path class="st15" d="M192,45c-0.1,8,1.2,15.9,1.9,23.9c0.4,5.2,1.6,10.3,1.3,15.6c-0.3,0.3-0.6,0.3-0.9,0
			c-0.2-0.3-0.2-0.6-0.2-0.9c-0.3-0.4-0.5-0.8-0.8-1.2c-0.4-1.1-0.8-2.2-1.2-3.3c-1.6-10.6-2.7-21.2-3.4-31.9c0.1-0.6,0.4-1,1-1.1
			c0.4-0.3,0.8-0.5,1.2-0.9C191.3,45.1,191.6,45.1,192,45z"/>
		<path class="st16" d="M172.7,58.9c-0.9-0.5-1.2-1.3-1.1-2.2c0.7-5.6-1.6-11-1.2-16.7c0.1-1.5-0.6-3-1-4.5
			c-0.3-0.2-0.4-0.5-0.3-0.7c0.1-0.2,0.2-0.3,0.3-0.3l0.1-0.1c0.2-0.4,0.5-0.6,0.9-0.8c0.4-0.1,0.7-0.2,1.1-0.4
			c4.9-1.6,4.3,1.8,4.4,4.7c-0.1,0.5-0.3,1-0.5,1.5c-0.8,0.7-1.3,1.6-1.6,2.6c-0.1,0.6-0.2,1.2-0.3,1.9c-1.2,4.5,0.4,9.3-0.9,13.8
			C172.7,58.2,172.7,58.5,172.7,58.9z"/>
		<path class="st17" d="M242.2,122.8c1.6,5,1.7,10-0.1,15c-0.7,1.9-1.3,4.2-4.1,4.3c-1.7-1.5-1.5-3.5-1.2-5.5
			c2.9-4.1,4.7-8.6,4.3-13.8C241.5,122.4,241.8,122.4,242.2,122.8z"/>
		<path class="st18" d="M188.7,47.2c2,1.4,1.7,3.9,1.9,5.7c0.5,4.3,0.7,8.7,1.3,13c0.4,3.1-0.2,6.3,1,9.4c0.4,1.1,0.7,2.8-0.8,3.8
			c-0.2-0.3-0.2-0.6-0.2-0.9c-0.6-0.6-0.3-1.6-0.9-2.2c-0.2-0.3-0.2-0.6-0.2-0.9c-0.5-0.7-0.3-1.7-0.9-2.3c-0.5-1-1.3-2-1-3.3
			c0.3-6.8-2.1-13.4-1.3-20.2C187.7,48.4,187.8,47.6,188.7,47.2z"/>
		<path class="st19" d="M184.6,48.6c0.5-4-1.5-7.9-1.2-11.9c0.3-0.7,0.9-0.6,1.5-0.8c0.6-0.2,1.2-0.3,1.8-0.3
			c1.3-0.1,2.2,0.7,3.2,1.3c0.4,0.2,0.8,0.4,1,0.8l0,0c1.6,1.9,1.9,3.4-1.1,4.1C187,43.2,186.3,46.2,184.6,48.6z"/>
		<path class="st20" d="M200.7,97.1c1.5-1.2,1-2.7,0.4-4c-0.5-1.1-0.6-2.2-0.5-3.4c2.3,3.3,3.5,7.1,5.3,10.6
			c0.3,0.4,0.6,0.8,0.9,1.1c0.1,0.3,0.2,0.6,0.2,0.9c0.2,0.5,0.6,0.9,1,1.3l0,0c0.3,0.3,0.6,0.7,0.9,1c0.2,0.3,0.3,0.6,0.3,0.9
			c0.3,0.5,0.6,0.8,1,1.2l0,0c0.3,0.4,0.5,0.8,0.5,1.3c0,0.7,0.2,1.4-0.3,2.1c-0.5,0.3-0.9,0.2-1.3-0.1l0,0c-0.3-0.4-0.6-0.7-1-1.1
			l0-0.1c-0.4-0.2-0.7-0.6-0.8-1c-0.2-0.3-0.3-0.6-0.3-1c-0.3-0.4-0.6-0.8-1-1.2l0,0c-0.4-0.3-0.6-0.6-0.8-1
			C203.7,102.2,201.6,100,200.7,97.1z"/>
		<path class="st21" d="M109.2,61.9c-2,0.1-4-1.9-4-4c0-2.1,1.9-4.3,3.9-4.1c2.1,0.2,3.5,1.5,3.8,3.7
			C113,59.6,111.1,61.8,109.2,61.9z"/>
		<path class="st22" d="M197.4,54.7c0-2.8-0.1-5.7-0.1-8.5c0.1-0.1,0.2-0.3,0.4-0.4c0.4-0.1,0.7-0.2,1.1-0.2
			c0.4,0.1,0.7,0.2,1.1,0.4c0.5,0.3,0.9,0.6,1.3,1c0.3,0.2,0.6,0.5,0.8,0.7c0.2,0.1,0.3,0.2,0.5,0.3c0.3,0.2,0.7,0.4,1,0.6
			c0.2,0.1,0.3,0.2,0.5,0.3c0.2,0.1,0.3,0.2,0.5,0.3c0.3,0.3,0.7,0.5,1,0.9c0.2,0.2,0.3,0.3,0.4,0.5c0.4,0.6,0.7,1.2,0.8,1.9
			c-0.2,1.1,0.2,2.7-1.9,2.2C202.3,54,199.8,52.7,197.4,54.7z"/>
		<path class="st23" d="M176.1,45.1c0.8,0.4,1.8,1,1.8,1.8c-0.3,6.3,2.1,12.4,1.1,18.7c0,0.3-0.5,0.5-0.7,0.7
			c-0.2-0.3-0.3-0.6-0.2-0.9c-0.9-0.9-0.1-2.3-0.9-3.3c-0.1-0.6-0.2-1.3-0.2-1.9c-0.7-1-0.1-2.4-0.8-3.4
			C175.6,52.9,175.4,49,176.1,45.1z"/>
		<path class="st24" d="M165.4,44c2.8,6.9,3.5,13.9,2.1,21.2c-0.1-0.6-0.2-1.1-0.3-1.7c-0.3-0.8-0.3-1.7-0.7-2.5
			c-0.1-0.9-0.2-1.9-0.3-2.8c-0.6-1.1-0.1-2.4-0.7-3.6C164.9,51.1,164.8,47.6,165.4,44z"/>
		<path class="st25" d="M232.6,142.9c-3,0.1-5.4-1.2-7.5-3.1c0-1.5-0.3-3,1-4.1c1.8,0.7,3.6,1.3,5.4,2
			C233.1,139.2,234.3,140.8,232.6,142.9z"/>
		<path class="st26" d="M187.7,49.3c1.3,6.6,3,13.1,1.6,19.9c0,0.1-0.3,0.2-0.4,0.3c-0.1-0.6-0.2-1.2-0.3-1.8
			c-0.4-0.7-0.3-1.6-0.8-2.3c-0.1-0.7-0.1-1.4-0.2-2.1c-1-1.3,0-3-0.9-4.3c-0.3-2.2-0.3-4.3,0-6.5C187.5,51.5,186.8,50.2,187.7,49.3
			L187.7,49.3z"/>
		<path class="st27" d="M223.1,147.2c0.3,0,0.7,0.1,1,0.3c0.4,0.2,0.7,0.5,1,0.8c0.9,0,1.7,0.1,2.2,1c0.9,2.2,1.4,4.1-2.2,3.3
			c-0.9,0-1.7-0.2-2.1-1.1c-0.4-0.4-0.8-0.8-1.3-1c-1.4-0.1-2.4-0.9-3.1-2.1c-0.1-1.3,0.1-2.6,1.3-3.4c0.7,0.4,1.4,0.8,2.1,1.2
			C222.3,146.6,222.7,147,223.1,147.2z"/>
		<path class="st28" d="M201.6,115.3c1.8-1.1,0.7-2.9,1.1-4.3c0.6,0.2,0.9,0.6,1,1.2c0.3,0.3,0.6,0.6,0.8,1c0.2,0.3,0.3,0.6,0.4,0.9
			c0.2,0.5,0.6,0.9,1,1.3l0,0c0.3,0.3,0.6,0.6,0.8,1c0.2,0.2,0.3,0.5,0.3,0.8c0.2,0.5,0.6,0.9,1,1.3l0,0c0.3,0.4,0.7,0.7,1,1.1l0,0
			c0.6,1.6,1.8,3.4-1,4.1l0,0c-0.3-0.3-0.7-0.6-0.9-1c-0.4-0.6-0.9-1.3-1.3-1.9c-0.2-0.5-0.6-0.9-1-1.3l0,0c-0.3-0.4-0.6-0.8-1-1.1
			l-0.1-0.1c-0.4-0.2-0.6-0.5-0.8-0.9C202.5,116.8,202.1,116,201.6,115.3z"/>
		<path class="st29" d="M210.2,110c0-0.7,0-1.4,0-2.1c0.3-0.3,0.6-0.3,0.9,0c0.1,0.3,0.2,0.5,0.2,0.8c0.2,0.5,0.6,0.9,1,1.3l0,0
			c0.3,0.4,0.7,0.8,1,1.1l0,0c0.3,0.3,0.7,0.7,0.9,1c0.4,0.7,0.8,1.3,1.3,2c0.3,0.5,0.6,0.9,1.1,1.2l0,0c0.3,0.5,0.7,0.8,1.1,1.1
			c0.6,0.1,0.9,0.5,1,1c0.7,1.4,1.4,2.7-1,3.2c-0.6-0.2-1-0.5-1.2-1.1c-0.4-0.2-0.7-0.5-0.9-0.9c-0.8-1-1.6-2.1-2.4-3.1
			c-0.3-0.5-0.6-0.9-1.1-1.2l0,0c-0.3-0.4-0.7-0.7-1-1.1l0,0c-0.3-0.3-0.7-0.6-0.9-1c-0.2-0.3-0.2-0.6-0.3-0.9
			C209.7,110.8,209.8,110.4,210.2,110z"/>
		<path class="st30" d="M232.6,142.9c0.4-1.9-1.1-3.4-1.1-5.3c1,0,2.1,0,3.1,0c0.4-0.3,0.8-0.6,1.2-0.9c0.3-0.1,0.6-0.2,1-0.2
			c2.1,1.4,0.7,3.7,1.2,5.5l0,0c-0.4,0.3-0.8,0.6-1.1,0.9C235.5,142.9,234,142.9,232.6,142.9z"/>
		<path class="st31" d="M204.8,54.6c1.5-0.7,1-2,1.1-3.2c-0.1-0.2-0.3-0.4-0.4-0.5c0.1-0.2,0.2-0.4,0.3-0.6c2-0.5,1.8,1.6,2.8,2.3
			c0.2,0.3,0.5,0.7,0.7,1c0.1,0.2,0.3,0.3,0.4,0.5c0.3,0.3,0.5,0.6,0.8,0.9c0.1,0.1,0.3,0.3,0.4,0.4c0.3,0.3,0.6,0.6,0.8,0.9
			c0.4,0.4,0.8,0.9,1.3,1.3c0.4,0.4,0.8,1,1.1,1.5c0.5,0.6,1.2,1.2,1.4,2.1c0,0.3,0.1,0.7,0.1,1c0.1,0.2,0.3,0.4,0.4,0.6
			c-0.1,0.2-0.2,0.4-0.3,0.7c-0.4,0.3-0.8,0.2-1.2-0.1l0,0c-0.4-0.3-0.7-0.7-1-1c-0.4-0.4-0.8-0.8-1.1-1.2c-0.4-0.3-0.7-0.6-0.9-1
			C209.2,58.2,207,56.4,204.8,54.6z"/>
		<path class="st32" d="M202.5,132.8c0.1-1.7,0.2-3.3,0.3-5c0.9,0.6,1.6,1.3,2,2.4c0.3,0.4,0.7,0.8,1,1.1l0,0c0.4,0.3,0.7,0.6,0.9,1
			c0.5,0.6,0.9,1.2,1.4,1.9c0.2,0.6,0.5,1,1.1,1.3l0,0c0.6,1.5,1.2,3-1.3,3.4l0,0c-0.2-0.5-0.6-0.8-1.1-1.1l0,0
			c-0.3-0.5-0.6-0.8-1.1-1.1l0,0c-0.3-0.4-0.7-0.8-1.1-1.1l0,0c-0.3-0.4-0.7-0.7-1-1.1C203,134.2,202.6,133.6,202.5,132.8z"/>
		<path class="st33" d="M226.2,135.7c-0.2,1.4,0.7,3.1-1,4.1h0c-0.3-0.4-0.8-0.7-1.3-1c-0.3,0-0.6-0.1-0.9-0.3
			c-0.4-0.3-0.7-0.5-1-0.9l0,0c-0.4-0.3-0.7-0.7-1.1-1l0,0c-0.3-0.4-0.7-0.8-1.2-1.1c-0.5-0.1-0.8-0.4-1-0.9c-0.7-1.5-1.3-3,0.1-4.5
			c0.6,0.1,1,0.4,1.1,1c0.3,0.4,0.7,0.8,1.1,1.1l0,0c0.3,0.5,0.7,0.8,1.3,1.1c0.3,0,0.6,0.1,0.8,0.2c0.4,0.3,0.7,0.6,1.1,0.9l0,0
			c0.3,0.4,0.7,0.8,1.3,1C225.6,135.5,225.9,135.5,226.2,135.7z"/>
		<path class="st34" d="M227.3,122.9c4.2,1.7,4.2,1.7,4.2,6.3c-0.7,0-1.4-0.1-2.1-0.1c-0.4-0.3-0.8-0.6-1.2-0.9
			c-0.9,0-1.7-0.1-2.1-1.1c-0.4-1.4-1.4-2.9,0.1-4.3C226.6,122.8,226.9,122.9,227.3,122.9z"/>
		<path class="st35" d="M218.7,130.3c0,1.5,0,3-0.1,4.5c-0.7-0.5-1.4-1-2.1-1.5c-0.4-0.2-0.7-0.5-0.9-0.9l-0.1-0.1
			c-0.4-0.2-0.7-0.6-1-1l-0.1-0.1c-0.4-0.2-0.7-0.5-1-0.9c-0.2-0.2-0.3-0.5-0.3-0.7c-0.6-1.5-1.3-3.1,0.1-4.6
			c0.6,0.1,0.9,0.5,1.1,1.1c0.3,0.4,0.7,0.7,1,1.1l0,0c0.4,0.3,0.7,0.7,1,1.1l0,0c0.4,0.3,0.7,0.7,1,1l0,0
			C218,129.5,218.4,129.9,218.7,130.3L218.7,130.3z"/>
		<path class="st36" d="M213.4,124.9c0,1.5-0.1,3.1-0.1,4.6c-2-1.7-4-3.3-5.2-5.7c1.8-1,0.8-2.7,1-4.1c1.5,1.1,2.3,2.6,3.3,4.1
			C212.6,124.2,212.9,124.6,213.4,124.9L213.4,124.9z"/>
		<path class="st37" d="M174.9,39.7c0-1.2-0.1-2.4,0-3.6c0.2-2.5-1.3-2.8-3.2-2.7c2.9-2,5.7-0.9,8.5,0.1c0.4,0.2,0.5,0.4,0.4,0.6
			s-0.2,0.3-0.3,0.3l0,0c-0.4,0.4-0.7,0.8-1.1,1.2c-0.2,0.3-0.5,0.5-0.8,0.8c-0.2,0.3-0.4,0.6-0.6,1c-0.2,0.4-0.4,0.7-0.6,1
			C176.5,39.1,176.3,40.4,174.9,39.7z"/>
		<path class="st38" d="M225.1,152.6c2.4,0,2.2-1.7,2.2-3.3c1.6-0.1,2.9,0.4,4.2,1.1c1,1.1,1.2,2.4,0.6,3.7
			c-0.2,0.2-0.4,0.4-0.6,0.6C229.1,154.8,227,154.2,225.1,152.6z"/>
		<path class="st39" d="M219.8,145.1c-0.2,1.2,0.3,2.7-1.3,3.4c-0.3,0-0.6-0.2-0.9-0.4c-0.4-0.2-0.7-0.5-1-0.9l-0.1-0.1
			c-0.4-0.3-0.8-0.6-1.1-0.9l0,0c-0.3-0.4-0.7-0.7-1.2-1c-0.6-0.1-0.9-0.4-1-1c0.1-1.2-0.1-2.6,1.3-3.4c0.7,0.5,1.4,1,2,1.4
			c0.4,0.2,0.7,0.5,0.9,0.8l0.1,0.1c0.4,0.3,0.8,0.6,1.1,0.9l0,0C219.1,144.4,219.4,144.9,219.8,145.1L219.8,145.1z"/>
		<path class="st40" d="M235.8,150.4c0.5-0.9,1.3-1,2.2-1c0.3-0.3,0.7-0.6,1.1-0.9c0.3-0.1,0.6-0.2,0.9-0.2c0.5-0.3,0.9-0.6,1.2-1.1
			l0,0c2.6,0.3,1.6,1.9,1.2,3.3l0,0c-0.5,0.3-0.8,0.7-1,1.2c-1,1.6-2.2,3-4.4,3C236.2,153.3,236.3,151.8,235.8,150.4z"/>
		<path class="st41" d="M235.8,150.4c3.8,0.5,1.7,2.6,1.1,4.2c-1.8-0.1-3.5,2.3-5.4,0.1l0.1-0.1c1.4-1,0.7-3.1,2.1-4.1
			C234.4,150.5,235.1,150.5,235.8,150.4z"/>
		<path class="st42" d="M217.8,120.6c1.4-0.7,0.8-2.1,1-3.2c1.4,1.1,2.8,2.2,4.2,3.4c0.6,1.5,1.5,3-1.2,3.2
			C220.3,122.9,218.4,122.6,217.8,120.6z"/>
		<path class="st43" d="M189.9,41.8c1.7-1,1.4-2.6,1.1-4.1c2.5,0.8,4.6,2.4,6.5,4.2c-0.3,0.4-0.6,0.8-1.1,1
			C194.3,41.7,192.1,41.8,189.9,41.8z"/>
		<path class="st44" d="M221.8,123.9c1.6-0.6,1.2-2,1.2-3.2c0.6,0,0.9,0.4,1.1,0.9c0.3,0.4,0.8,0.8,1.3,1c0.3,0,0.6,0,0.9,0.1
			c-0.8,1.4,1.5,2.9-0.1,4.3c-0.3,0-0.7-0.1-1-0.2c-0.4-0.3-0.7-0.6-1-0.9l0,0c-0.4-0.4-0.7-0.7-1.2-1
			C222.5,124.6,222.1,124.3,221.8,123.9z"/>
		<path class="st45" d="M207.9,138.9c1.6-0.7,1-2.2,1.3-3.4c1,0.4,1.7,1.1,2.1,2.1c0.3,0.5,0.6,0.9,1.1,1.2l0,0
			c0.5,1.5,1.4,3.1-1.2,3.4l0,0c-0.3-0.5-0.7-0.9-1.3-1.1C209,140.5,208.3,139.9,207.9,138.9z"/>
		<path class="st37" d="M172.7,57.8c0-3.5,0-7,0-10.5c0-1.2-0.3-2.5,0.9-3.3c0,4.6,0,9.2,0,13.8C173.3,57.8,173,57.8,172.7,57.8z"/>
		<path class="st46" d="M208.1,53.4c-0.7-1.1-0.9-2.4-2.1-3.1c-0.7-0.6-0.7-1.3-0.2-2c2.9,1.8,4.4,4.9,6.6,7.3c0,0-0.3,0.4-0.3,0.4
			s-0.5,0.2-0.5,0.2l-0.5-0.1c-0.3-0.1-0.6-0.3-0.8-0.5l0,0c-0.4-0.4-0.7-0.7-1.1-1.1l0,0C208.7,54.3,208.4,53.9,208.1,53.4z"/>
		<path class="st47" d="M244.4,140.9c-0.1-2.9,1.7-5.6,1-8.5c0.4-0.5,0.7-0.5,1.1,0c-0.5,3.2,1.1,6.6-1,9.7
			C244.8,142,244.7,141.3,244.4,140.9z"/>
		<path class="st48" d="M242.3,150.5c-0.2-1.2,0.4-2.6-1.2-3.3c0.7-1.1,1-2.4,2.2-3.1c2-0.1,1.7,1,1.1,2.2
			C244.3,148,243.7,149.5,242.3,150.5z"/>
		<path class="st19" d="M184.4,61c-1.4-3.5-1.5-7.1,0-10.6C184.4,53.9,184.4,57.5,184.4,61z"/>
		<path class="st49" d="M211.1,142.1c1.6-0.7,1.1-2.2,1.2-3.4c0.6,0.1,0.9,0.4,1.1,1c0.2,0.5,0.6,0.9,1.1,1.2l0-0.1
			c-0.3,1.2,0.3,2.7-1.3,3.4l0,0c-0.3-0.5-0.7-0.8-1.2-1.1C211.5,143,211.2,142.6,211.1,142.1z"/>
		<path class="st50" d="M233.7,150.5c-0.4,1.5,1.1,4-2.1,4.1c0-1.4,0-2.8,0-4.2C232.3,150.5,233,150.5,233.7,150.5z"/>
		<path class="st51" d="M240.1,104.7c1.5,0.7,1,2,1.2,3.2c0.2,1.2,1.8,2.2,0.4,3.6c-1-1-1.6-2.2-1.6-3.6c0-0.3,0-0.7,0-1
			C239.5,106.1,239.5,105.4,240.1,104.7z"/>
		<path class="st52" d="M176.9,37.5c0.1-0.3,0.1-0.6,0.2-0.9c0.4-0.4,0.7-0.8,1.1-1.1l0,0c0.5-0.6,1.1-0.6,1.7-0.2
			c0.6,0.1,1.1,0.4,1.4,1.1l0.1,0.4c-0.5,0.1-0.8,0.6-1.3,0.8c-0.6,0.1-0.9,0.5-1.1,1c-0.3,0-0.5,0.1-0.8,0.1c0,0-0.5-0.1-0.5-0.1
			c-0.3-0.1-0.5-0.4-0.7-0.6C177,38,176.9,37.5,176.9,37.5z"/>
		<path class="st53" d="M174.9,39.7c0.7-0.7,1.3-1.4,2-2.2l0.3,0.2c0.2,0.3,0.5,0.6,0.8,0.8l0.1,0.2c-0.8,1.4-0.9,3.1-2.1,4.3
			c-0.1-0.8,0-1.7-0.9-2.2c-0.4-0.2-0.5-0.4-0.5-0.7C174.6,39.9,174.7,39.7,174.9,39.7C174.8,39.7,174.9,39.7,174.9,39.7z"/>
		<path class="st54" d="M244.4,146.3c-0.1-0.9,0-1.8-1.1-2.2c-0.1-1.2,0.7-2.1,1.1-3.2c0.6,0.1,0.9,0.6,1.1,1.1
			C245.3,143.5,246.1,145.2,244.4,146.3z"/>
		<path class="st55" d="M215.4,61.1c-1-0.4-1.6-1.3-2.1-2.2c-0.3-0.3-0.4-0.7-0.5-1.1c0-0.2,0.1-0.4,0.1-0.6
			c0.1-0.1,0.3-0.3,0.5-0.4C214.4,58,216.3,58.9,215.4,61.1z"/>
		<path class="st56" d="M242.2,122.8h-0.5l-0.5,0c-1.6-1.1-0.8-2.8-1-4.3c0.4-0.5,0.7-0.5,1.1,0
			C241.5,119.9,241.8,121.4,242.2,122.8z"/>
		<path class="st31" d="M205.7,48.4c0.1,0.7,0.1,1.3,0.2,2l-0.1,0.1c-0.3,0.3-0.7,0.2-1-0.1l0,0c-0.3-0.4-0.7-0.7-1.1-1.1l0,0
			c-0.3-0.3-0.6-0.5-1-0.6c-0.3-0.3-0.5-0.6-0.7-1c-0.1-0.6,0.1-1.2,0.6-1.6C203.7,46.9,204.7,47.6,205.7,48.4z"/>
		<path class="st57" d="M202.7,46.1c0,0.7,0,1.4,0,2.1c-0.4,0.4-0.7,0.4-1.1,0l0,0c-0.2-0.3-0.4-0.6-0.6-0.9
			c-0.2-0.3-0.4-0.6-0.7-0.9c-0.1-0.1-0.3-0.3-0.4-0.4c-0.3-0.3-0.5-0.6-0.8-0.8c0-0.2-0.1-0.4-0.1-0.6c0-0.4,0.2-0.7,0.6-0.9
			C201,44.1,202.1,44.8,202.7,46.1z"/>
		<path class="st58" d="M235.8,103.6c-1.6-1-1-3-2.1-4.3c0.3-0.3,0.6-0.5,1.1-0.6c0.2,0,0.4,0.1,0.6,0.1c0.2,0.1,0.3,0.3,0.5,0.4
			C235.8,100.8,235.8,102.2,235.8,103.6L235.8,103.6z"/>
		<path class="st59" d="M225.2,77c1,0.4,1.7,1.1,2,2.2c-0.2,0.3-0.4,0.5-0.5,0.9l-0.5,0.2c-1.3-0.7-1.5-2.1-2.1-3.2
			C224.5,76.5,224.9,76.5,225.2,77z"/>
		<path class="st60" d="M234.8,99.4c-0.4,0-0.7,0-1.1,0c0-1.1,0-2.1,0-3.2c0,0,0.3-0.4,0.3-0.4c0.3-0.2,0.6-0.3,1-0.2
			c0.4,0.1,0.6,0.3,0.8,0.6c0.6,0.1,0.9,0.5,1.1,1.1c-0.3,0.3-0.6,0.6-0.9,0.8C235.6,98.5,235.2,98.9,234.8,99.4z"/>
		<path class="st61" d="M229.4,87.6c-0.3-0.7-0.7-1.4-1-2.1c0.7-0.6,1.4-0.6,2.1,0c1,0.4,1.1,1.2,1.1,2.1
			C230.8,88.3,230.1,88.2,229.4,87.6z"/>
		<path class="st62" d="M240.1,104.7c0,0.7,0,1.4,0,2.1c-1.5-1-2-2.6-2.1-4.3c0.4-0.4,0.7-0.4,1.1,0
			C239.4,103.3,239.7,104,240.1,104.7z"/>
		<path class="st63" d="M222.9,73.8c-1-0.4-1.7-1.1-2-2.2c0.4-0.5,0.7-0.5,1.1,0c1,0.4,1.7,1.1,1.9,2.2
			C223.6,74.3,223.2,74.3,222.9,73.8z"/>
		<path class="st18" d="M186.8,58.9c1.6,1.2,0.7,2.9,0.9,4.3C186.3,62,186.7,60.4,186.8,58.9z"/>
		<path class="st64" d="M198.4,85.5c-1.8-1.2-0.8-3-1-4.5c1.2,0.8,1,2.1,1.1,3.2C198.8,84.7,198.8,85.1,198.4,85.5z"/>
		<path class="st65" d="M239,114.3c1.3,0.7,1.4,2.1,2.1,3.2c-0.4,0.4-0.7,0.4-1.1,0C238.6,116.8,239.2,115.4,239,114.3L239,114.3z"
			/>
		<path class="st66" d="M219.9,68.4c1,0.4,1.6,1.1,1.9,2.2c-0.4,0.4-0.7,0.4-1.1,0c-1-0.4-1.7-1.1-2-2.2
			C219.1,68,219.5,67.9,219.9,68.4z"/>
		<path class="st67" d="M82.9,139.8c1.9-1.2,1.9-1.2,2.3,2C83.8,141.9,84.2,139.9,82.9,139.8z"/>
		<path class="st68" d="M245.4,129.2c-0.4-1.1-1.3-1.9-1.1-3.2c0.4-0.5,0.7-0.5,1.1,0c0.4,1.1,1.3,1.9,1.1,3.2
			C246.2,129.7,245.8,129.7,245.4,129.2z"/>
		<path class="st69" d="M243.3,114.8c-0.1,0.4,0,1-0.7,0.8c-0.2,0-0.3-0.5-0.3-0.8c0-0.4,0-1,0.6-0.8
			C243.1,114,243.2,114.5,243.3,114.8z"/>
		<path class="st64" d="M196.1,73.8c-1.3-0.8-0.8-2.1-0.8-3.3C196.4,71.4,196.2,72.6,196.1,73.8z"/>
		<path class="st70" d="M232.6,94c-0.6-0.1-0.9-0.5-1.1-1.1c0.4-0.4,0.6-1.1,1.1-1.4c0.4-0.1,0.8,0,1,0.4l0,0c0.6,0.6,0.6,1.3,0.2,2
			C233.5,94.2,233.1,94.3,232.6,94z"/>
		<path class="st71" d="M186.6,35.6c-0.1,0.6-0.5,0.9-1.1,0.9c-0.4-0.3-1-0.4-1.2-1C185.2,34.2,186,34.1,186.6,35.6z"/>
		<path class="st72" d="M229.4,87.6c0.7,0,1.4,0,2.1,0c0.6,0.1,0.9,0.5,1,1.1c-0.7,0.7-1.4,0.6-2.1,0
			C229.9,88.6,229.6,88.2,229.4,87.6z"/>
		<path class="st73" d="M184.3,35.4c0.6,0.1,1,0.4,1.2,1c-0.7,0.1-1.4,0.2-2.1,0.3c-0.4-0.1-0.8-0.2-1.1-0.3
			C182.7,35.5,183.5,35.4,184.3,35.4z"/>
		<path class="st74" d="M230.5,88.7c0.7,0,1.4,0,2.1,0c0,0.4,0,0.7,0,1.1c0,0-0.1,0.4-0.1,0.4c-0.1,0.2-0.3,0.4-0.6,0.6
			c0,0-0.4,0.1-0.4,0.1C230.5,90.5,230.5,89.6,230.5,88.7z"/>
		<path class="st7" d="M176.1,56.8c1.4,0.9,0.8,2.2,0.8,3.4C175.9,59.2,176,58,176.1,56.8z"/>
		<path class="st75" d="M225.2,77c-0.4,0-0.7,0-1.1,0c-0.4-0.7-0.7-1.4-1.1-2.1c0.3-0.4,0.7-0.4,1,0C225.1,75.2,225.1,76.1,225.2,77
			z"/>
		<path class="st76" d="M217.7,65.3c0.6,0.1,0.9,0.5,1,1.1c0.3,0.3,0.4,0.5,0.3,0.8c-0.1,0.3-0.2,0.4-0.3,0.4
			c-1-0.4-1.7-1.2-2.1-2.3C216.9,64.9,217.3,64.9,217.7,65.3z"/>
		<path class="st18" d="M187.7,49.3c-0.1,1.1,0.4,2.4-0.9,3.2C186.7,51.3,186.5,50.1,187.7,49.3z"/>
		<path class="st69" d="M235.8,103.6c0.9,0.4,1.2,1.1,0.9,2.1c0,0.2-0.4,0.3-0.6,0.4C236,105.2,235.9,104.4,235.8,103.6L235.8,103.6
			z"/>
		<path class="st77" d="M229.4,104.7c1.1,0.3,1.7,1.1,2.1,2.1c-0.4,0.5-0.7,0.5-1.1,0C229.4,106.4,229.4,105.6,229.4,104.7
			L229.4,104.7z"/>
		<path class="st11" d="M165.5,54.7c1.4,1,0.8,2.3,0.7,3.6C165.2,57.2,165.3,55.9,165.5,54.7z"/>
		<path class="st7" d="M177.2,62.1c1.4,0.8,0.8,2.1,0.9,3.3C177,64.5,177,63.3,177.2,62.1z"/>
		<path class="st78" d="M245.4,129.2c0.4,0,0.7,0,1.1,0c0,1.1,0,2.1,0,3.2H246c0,0-0.5,0-0.5,0C245.5,131.3,245.4,130.2,245.4,129.2
			z"/>
		<path class="st79" d="M228.3,82.3c1,0.4,1.1,1.2,1.1,2.1c-0.4,0.4-0.7,0.4-1.1,0c-0.4-0.7-0.7-1.4-1.1-2.1
			C227.6,81.8,228,81.8,228.3,82.3z"/>
		<path class="st80" d="M199.6,43.7c-0.1,0.5-0.1,0.9-0.2,1.4c-0.4,0.3-0.8,0.3-1.3,0.1c-0.3-0.4-0.4-0.8-0.3-1.3
			c0-0.2,0.1-0.5,0.2-0.7c0.2-0.1,0.4-0.3,0.5-0.4C198.9,43.1,199.3,43.4,199.6,43.7z"/>
		<path class="st81" d="M233.7,91.9c-0.4,0-0.7,0-1.1,0c-0.3-0.3-0.5-0.6-0.5-1c0.1-0.4,0.2-0.8,0.5-1.1l0,0
			C233.6,90.2,233.7,91,233.7,91.9z"/>
		<path class="st82" d="M232.6,90.8c0,0.4,0,0.7,0,1.1c-0.1,0.6-0.5,0.9-1.1,1.1c0-0.7,0-1.4,0-2.1l0,0
			C231.9,90.5,232.2,90.5,232.6,90.8z"/>
		<path class="st9" d="M177.1,91.9c1,0.4,1.1,1.2,1,2.1C177.3,93.5,177,92.8,177.1,91.9z"/>
		<path class="st83" d="M233.7,94c0-0.7,0-1.4,0-2.1c1,0.4,1.1,1.2,1.1,2.1c0,0-0.3,0.3-0.3,0.3H234C234,94.3,233.7,94,233.7,94z"/>
		<path class="st9" d="M178.1,94c1,0.4,1.1,1.2,1.1,2.1C178.3,95.7,178,94.9,178.1,94z"/>
		<path class="st84" d="M232.6,94c0.4,0,0.7,0,1.1,0v0c0.6,0.7,0.6,1.4,0,2.1l0,0C232.7,95.8,232.6,94.9,232.6,94z"/>
		<path class="st9" d="M179.1,96.2c1,0.4,1.1,1.2,1.1,2.1C179.4,97.8,179.1,97.1,179.1,96.2z"/>
		<path class="st85" d="M235.8,97.2c0.4,0,0.7,0,1.1,0c0,0.7,0,1.4,0,2.1l0,0c-0.4,0-0.7,0-1.1,0l0,0
			C235.2,98.6,235.2,97.9,235.8,97.2z"/>
		<path class="st9" d="M180.2,98.3c1,0.4,1.1,1.2,1.1,2.1C180.5,100,180.2,99.2,180.2,98.3z"/>
		<path class="st86" d="M238,101.5c-1-0.4-1.1-1.2-1.1-2.1l0,0C237.9,99.7,238,100.6,238,101.5L238,101.5z"/>
		<path class="st28" d="M198.4,103.6c-1-0.4-1.1-1.2-1.1-2.1C198.2,102,198.4,102.7,198.4,103.6z"/>
		<path class="st87" d="M245.4,126h-0.5l-0.5,0c0.2-0.5-0.3-1.4,0.7-1.4C245.2,124.6,245.3,125.5,245.4,126z"/>
		<path class="st11" d="M166.5,61.1c1.1,0.6,0.9,1.5,0.7,2.5C166.4,62.9,166.4,62,166.5,61.1z"/>
		<path class="st88" d="M228.3,103.6c-0.4-0.1-0.8-0.5-0.5-0.7c0.8-0.6,1.3,0,1.6,0.7C229,104,228.7,104,228.3,103.6z"/>
		<path class="st89" d="M217.7,65.3c-0.4,0-0.8,0-1.2,0.1c-0.6-0.1-0.9-0.5-1-1.1c0.4-0.5,0.8-0.5,1.3-0.1
			C217.1,64.5,217.4,64.9,217.7,65.3z"/>
		<path class="st18" d="M187.9,65.3c1,0.5,0.9,1.4,0.8,2.3C187.9,67.1,187.7,66.2,187.9,65.3z"/>
		<path class="st90" d="M218.7,67.6c0-0.4,0-0.8,0.1-1.2c1,0.4,1.1,1.2,1.2,2.1c-0.4,0-0.8,0-1.2,0
			C218.7,68.2,218.6,67.9,218.7,67.6z"/>
		<path class="st16" d="M168.6,69.6c1,0.5,0.9,1.4,0.8,2.3C168.7,71.3,168.5,70.5,168.6,69.6z"/>
		<path class="st5" d="M179.3,70.6c0.9,0.5,0.9,1.3,0.9,2.2C179.4,72.3,179.2,71.5,179.3,70.6z"/>
		<path class="st9" d="M176.8,73.8c-0.9-0.5-0.9-1.4-0.8-2.3C176.8,72.1,177,72.9,176.8,73.8z"/>
		<path class="st16" d="M169.6,72.8c1.1,0.5,1,1.4,0.9,2.4C169.7,74.5,169.5,73.7,169.6,72.8z"/>
		<path class="st5" d="M180.4,73.8c1,0.5,0.9,1.3,0.9,2.2C180.5,75.5,180.3,74.7,180.4,73.8z"/>
		<path class="st16" d="M170.7,75.9c0.3,0,0.7,0,1,0c0,0.8-0.1,1.6-0.1,2.4C170.8,77.7,170.6,76.9,170.7,75.9z"/>
		<path class="st9" d="M177.9,78c-0.9-0.5-0.9-1.4-0.8-2.2C177.8,76.4,178,77.1,177.9,78z"/>
		<path class="st15" d="M191,76c1,0.4,1,1.3,0.9,2.2C191.1,77.7,190.9,76.9,191,76z"/>
		<path class="st64" d="M197.2,79.1c-1-0.5-0.9-1.4-0.8-2.3C197.2,77.4,197.3,78.2,197.2,79.1z"/>
		<path class="st16" d="M171.8,79.2c1,0.5,0.9,1.3,0.9,2.2C171.9,80.8,171.7,80.1,171.8,79.2z"/>
		<path class="st9" d="M179,82.3c-1-0.5-1-1.4-0.8-2.3C179,80.6,179.2,81.4,179,82.3z"/>
		<path class="st91" d="M227.3,81.3c-0.6-0.1-0.9-0.5-1.1-1.1l0.1,0c0.4-0.4,0.7-0.3,1,0c0.6,0.1,0.9,0.5,1,1.1
			C228,81.7,227.6,81.7,227.3,81.3z"/>
		<path class="st15" d="M189.9,72.8c1.1,0.5,1,1.4,0.9,2.3C190,74.5,189.8,73.7,189.9,72.8z"/>
		<path class="st19" d="M180.2,34.4c0-0.3,0-0.6,0-0.9c0.5,0.1,1.4,0.2,1.4,0.3C181.5,34.7,180.8,34.3,180.2,34.4z"/>
		<path class="st92" d="M231.5,109c-0.6-0.1-0.9-0.5-1-1.1c0.4-0.4,0.7-0.4,1.1,0c0.6,0.1,0.9,0.5,1,1.1
			C232.2,109.4,231.9,109.4,231.5,109z"/>
		<path class="st9" d="M180.1,85.5c-1-0.5-1-1.3-0.9-2.2C180,83.8,180.2,84.6,180.1,85.5z"/>
		<path class="st93" d="M173.9,84.4c0.3,0,0.7,0,1,0c0,0.7,0,1.5,0,2.2C174,86.1,173.8,85.4,173.9,84.4z"/>
		<path class="st20" d="M198.4,85.5c0-0.4,0.1-0.8,0.1-1.3c0.9,0.5,1,1.4,0.9,2.3C198.9,86.4,198.5,86.1,198.4,85.5z"/>
		<path class="st94" d="M228.4,84.4c0.4,0,0.7,0,1.1,0c0.6,0.1,0.9,0.5,1,1.1c-0.7,0-1.4,0-2.1,0C228.3,85.2,228.3,84.8,228.4,84.4z
			"/>
		<path class="st9" d="M181.2,88.7c-1-0.5-1-1.3-0.9-2.2C181.1,87,181.3,87.8,181.2,88.7z"/>
		<path class="st19" d="M179.8,35.3c-0.6,0.1-1.1,0.2-1.7,0.2c0.3-1.1,1.2-1.2,2.1-1.1C180.1,34.7,180,35,179.8,35.3z"/>
		<path class="st28" d="M202.8,111c-1.1-0.3-1.2-1.2-1.2-2C202.5,109.4,202.7,110.2,202.8,111z"/>
		<path class="st10" d="M167.4,37.5c0,0.9,0,1.7-1,2.2C166.3,38.8,166.5,38,167.4,37.5z"/>
		<path class="st9" d="M182.3,91.9c-1.1-0.5-1.1-1.4-0.9-2.4C182.3,90.1,182.4,91,182.3,91.9z"/>
		<path class="st37" d="M174.8,39.7c0.1,0.4,0.1,0.7,0.2,1.1c-0.4,0.4-0.7,0.9-1.1,1.3C173.8,41.2,173.7,40.2,174.8,39.7z"/>
		<path class="st10" d="M166.2,40.5c0.1,0.9,0.3,1.8-0.7,2.4C165.3,42,165.4,41.1,166.2,40.5z"/>
		<path class="st95" d="M196.3,42.8c0.2-0.6,0.5-0.9,1.1-1c0.6,0.1,1,0.4,1.1,1l-0.2,0.2c-0.4,0.6-0.9,0.6-1.4,0.1
			C196.7,43.1,196.5,43,196.3,42.8z"/>
		<path class="st87" d="M239,102.6c-0.4,0-0.7,0-1.1,0c0-0.4,0-0.7,0-1.1l0,0C238.5,101.6,238.9,102,239,102.6z"/>
		<path class="st96" d="M208,103.6c-0.6-0.2-0.9-0.6-1-1.3C207.6,102.6,207.9,103,208,103.6z"/>
		<path class="st28" d="M199.2,104.6c-0.3-0.3-0.5-0.7-0.8-1C198.9,103.8,199.2,104.1,199.2,104.6z"/>
		<path class="st97" d="M208.9,104.7c-0.3-0.3-0.6-0.7-0.9-1C208.5,103.8,208.9,104.1,208.9,104.7z"/>
		<path class="st98" d="M228.3,103.6c0.3,0,0.7,0,1,0c0,0.4,0,0.7,0,1.1l0,0C228.8,104.6,228.5,104.2,228.3,103.6z"/>
		<path class="st96" d="M205.1,104.7c0.3,0.3,0.5,0.6,0.8,1C205.4,105.5,205.1,105.3,205.1,104.7z"/>
		<path class="st28" d="M200.4,106.8c-0.6-0.2-0.8-0.6-0.8-1.2C200,105.8,200.4,106.2,200.4,106.8z"/>
		<path class="st96" d="M205.9,105.7c0.6,0.2,0.9,0.6,1,1.2C206.4,106.7,206,106.3,205.9,105.7z"/>
		<path class="st97" d="M210.1,106.8c-0.6-0.2-0.9-0.6-1-1.2C209.7,105.8,210.1,106.2,210.1,106.8z"/>
		<path class="st99" d="M211.1,107.9c-0.3,0-0.6,0-0.9,0c0-0.3,0-0.7,0-1C210.7,107,211,107.3,211.1,107.9z"/>
		<path class="st100" d="M231.5,107.9c-0.4,0-0.7,0-1.1,0c0-0.4,0-0.7,0-1.1c0.4,0,0.7,0,1.1,0C231.5,107.2,231.5,107.5,231.5,107.9
			z"/>
		<path class="st28" d="M196.6,107.9c0.3,0.3,0.5,0.7,0.8,1C196.9,108.7,196.5,108.5,196.6,107.9z"/>
		<path class="st28" d="M201.6,109c-0.6-0.2-0.9-0.7-0.9-1.3C201.2,107.9,201.5,108.3,201.6,109z"/>
		<path class="st97" d="M207.2,107.9c0.3,0.3,0.6,0.6,0.8,1C207.5,108.7,207.2,108.5,207.2,107.9z"/>
		<path class="st28" d="M197.4,108.9c0.6,0.2,0.9,0.7,1,1.3C197.8,110,197.4,109.6,197.4,108.9z"/>
		<path class="st97" d="M208.1,108.9c0.6,0.2,0.9,0.5,1,1.1C208.5,109.9,208.2,109.5,208.1,108.9z"/>
		<path class="st99" d="M212.4,110c-0.7-0.2-1-0.6-1-1.3C211.7,109.1,212,109.6,212.4,110z"/>
		<path class="st101" d="M231.5,109c0.4,0,0.7,0,1.1,0c0.1,0.3,0.1,0.7,0.1,1c-0.4,0-0.7,0-1.1,0C231.5,109.7,231.5,109.3,231.5,109
			z"/>
		<path class="st99" d="M210.2,110c0,0.4-0.1,0.9-0.1,1.3c-0.3-0.4-0.7-0.8-1-1.3C209.4,110,209.8,110,210.2,110z"/>
		<path class="st102" d="M213.3,111.1c-0.6-0.2-0.9-0.5-1-1.1C212.9,110.1,213.2,110.5,213.3,111.1z"/>
		<path class="st28" d="M198.6,111.1c0.3,0.3,0.6,0.7,0.8,1C199,112,198.6,111.7,198.6,111.1z"/>
		<path class="st102" d="M214.3,112.1c-0.3-0.3-0.6-0.7-0.9-1C213.9,111.2,214.3,111.5,214.3,112.1z"/>
		<path class="st14" d="M193,113.2c-0.6-0.3-0.9-0.7-0.9-1.3C192.7,112.1,193,112.6,193,113.2z"/>
		<path class="st28" d="M199.5,112.1c0.6,0.2,1,0.6,1,1.3C199.9,113.2,199.5,112.8,199.5,112.1z"/>
		<path class="st36" d="M204.5,113.2c-0.3-0.3-0.5-0.6-0.8-1C204.2,112.3,204.6,112.6,204.5,113.2z"/>
		<path class="st99" d="M210.3,112.2c0.3,0.3,0.6,0.7,0.9,1C210.7,113,210.4,112.7,210.3,112.2z"/>
		<path class="st102" d="M211.3,113.2c0.6,0.2,0.9,0.5,1,1.1C211.7,114.1,211.4,113.8,211.3,113.2z"/>
		<path class="st103" d="M239.1,114.3c-0.2-0.2-0.4-0.4-0.6-0.6c0.1,0,0.3,0,0.4,0.1C238.9,113.9,239,114.1,239.1,114.3L239.1,114.3
			z"/>
		<path class="st28" d="M200.8,114.3c0.3,0.3,0.5,0.7,0.8,1C201.1,115.1,200.8,114.9,200.8,114.3z"/>
		<path class="st36" d="M205.9,115.3c-0.6-0.2-0.9-0.6-1-1.3C205.4,114.3,205.8,114.7,205.9,115.3z"/>
		<path class="st102" d="M212.3,114.3c0.6,0.1,1,0.5,1.1,1.2C213,115.1,212.6,114.7,212.3,114.3z"/>
		<path class="st104" d="M216.6,115.3c-0.7-0.1-1-0.5-1.1-1.2C215.9,114.5,216.3,114.9,216.6,115.3z"/>
		<path class="st36" d="M206.7,116.4c-0.3-0.3-0.6-0.7-0.8-1C206.4,115.5,206.7,115.8,206.7,116.4z"/>
		<path class="st104" d="M217.7,116.4c-0.6-0.1-1-0.5-1.1-1.1C217.2,115.4,217.6,115.8,217.7,116.4z"/>
		<path class="st14" d="M191.1,117.5c0.5,0.2,0.8,0.5,0.8,1.1C191.4,118.4,191.1,118.1,191.1,117.5z"/>
		<path class="st36" d="M203,117.5c0.3,0.3,0.5,0.6,0.8,0.9C203.3,118.3,202.9,118,203,117.5z"/>
		<path class="st36" d="M208.1,118.5c-0.7-0.2-1-0.6-1-1.3C207.6,117.5,208,117.9,208.1,118.5z"/>
		<path class="st105" d="M240.1,117.5c0.4,0,0.7,0,1.1,0c0,0.4,0,0.7,0,1.1c-0.4,0-0.7,0-1.1,0C240.1,118.2,240.1,117.8,240.1,117.5
			z"/>
		<path class="st36" d="M203.8,118.5c0.6,0.2,0.9,0.6,1,1.1C204.2,119.5,203.9,119.1,203.8,118.5z"/>
		<path class="st36" d="M209,119.6c-0.5-0.2-0.9-0.6-1-1.1C208.6,118.6,209,119,209,119.6z"/>
		<path class="st104" d="M215.7,118.5c0.3,0.3,0.6,0.6,0.9,0.9C216.1,119.4,215.7,119.1,215.7,118.5z"/>
		<path class="st36" d="M204.8,119.6c0.7,0.2,1,0.6,1,1.3C205.2,120.6,204.9,120.2,204.8,119.6z"/>
		<path class="st106" d="M225.3,122.7c-0.7,0-1.1-0.4-1.3-1C224.5,122,224.9,122.4,225.3,122.7z"/>
		<path class="st36" d="M207.1,122.8c0.3,0.3,0.6,0.7,0.9,1C207.5,123.7,207.1,123.4,207.1,122.8z"/>
		<path class="st35" d="M213.4,124.9c-0.6-0.2-1-0.5-1.1-1.2C212.9,123.9,213.3,124.3,213.4,124.9z"/>
		<path class="st106" d="M222.9,124.9c0.6,0.1,1,0.4,1.2,1C223.5,125.9,223.1,125.5,222.9,124.9z"/>
		<path class="st32" d="M202.4,127c-0.3-0.3-0.6-0.7-0.8-1C202.1,126.2,202.5,126.4,202.4,127z"/>
		<path class="st107" d="M215.5,127c-0.6-0.1-0.9-0.5-1-1.1C215,126.1,215.4,126.5,215.5,127z"/>
		<path class="st106" d="M224.1,126c0.3,0.3,0.7,0.6,1,0.9C224.5,126.9,224.2,126.5,224.1,126z"/>
		<path class="st107" d="M216.5,128.1c-0.6-0.1-0.9-0.5-1-1.1C216.1,127.2,216.4,127.5,216.5,128.1z"/>
		<path class="st107" d="M217.6,129.2c-0.6-0.1-0.9-0.5-1-1C217.1,128.3,217.5,128.6,217.6,129.2z"/>
		<path class="st12" d="M228.2,128.2c0.6,0,1,0.3,1.2,0.9C228.8,129,228.4,128.7,228.2,128.2z"/>
		<path class="st33" d="M218.7,130.2c-0.6-0.1-0.9-0.5-1.1-1C218.2,129.3,218.6,129.7,218.7,130.2z"/>
		<path class="st32" d="M200.4,130.3c0.7,0.1,1.1,0.6,1.1,1.3C200.9,131.3,200.5,130.9,200.4,130.3z"/>
		<path class="st108" d="M205.8,131.3c-0.6-0.2-0.9-0.6-1-1.1C205.4,130.4,205.7,130.7,205.8,131.3z"/>
		<path class="st107" d="M213.5,130.2c0.3,0.3,0.6,0.6,1,0.9C213.9,131.1,213.6,130.8,213.5,130.2z"/>
		<path class="st108" d="M206.8,132.3c-0.3-0.3-0.6-0.6-0.9-1C206.4,131.5,206.7,131.8,206.8,132.3z"/>
		<path class="st107" d="M214.6,131.3c0.3,0.3,0.6,0.6,1,1C215,132.2,214.6,131.8,214.6,131.3z"/>
		<path class="st109" d="M220.9,132.3c-0.6-0.1-1-0.5-1.1-1.1C220.4,131.4,220.8,131.7,220.9,132.3z"/>
		<path class="st107" d="M215.7,132.3c0.3,0.3,0.6,0.6,0.9,0.9C216,133.2,215.7,132.9,215.7,132.3z"/>
		<path class="st48" d="M241.3,151.7c0-0.7,0.4-1.1,1-1.2C241.9,150.9,241.6,151.3,241.3,151.7z"/>
		<path class="st110" d="M221.6,150.6c0.7,0,1.1,0.3,1.3,1C222.4,151.5,221.9,151.1,221.6,150.6z"/>
		<path class="st48" d="M239,148.5c-0.2,0.5-0.5,0.9-1.1,0.9C238.1,148.9,238.4,148.5,239,148.5z"/>
		<path class="st48" d="M241.1,147.2c-0.1,0.6-0.5,1-1.2,1.1C240.3,147.9,240.7,147.6,241.1,147.2z"/>
		<path class="st110" d="M225.1,148.3c-0.3-0.3-0.7-0.6-1-0.8C224.7,147.5,225,147.8,225.1,148.3z"/>
		<path class="st111" d="M216.7,147.2c0.3,0.3,0.6,0.6,1,0.9C217,148.1,216.8,147.8,216.7,147.2z"/>
		<path class="st110" d="M223.1,147.2c-0.6-0.1-1-0.4-1.2-0.9C222.5,146.4,222.9,146.7,223.1,147.2z"/>
		<path class="st112" d="M215.5,146.2c0.6,0.1,0.9,0.4,1.1,0.9C216,147.1,215.7,146.8,215.5,146.2z"/>
		<path class="st112" d="M214.3,145.2c0.6,0.1,1,0.4,1.2,1C214.9,146.1,214.5,145.7,214.3,145.2z"/>
		<path class="st37" d="M169.6,34.5c0,0.3,0,0.7-0.1,1c-0.3,0-0.6,0-1,0C168.6,34.9,169,34.6,169.6,34.5z"/>
		<path class="st111" d="M219.9,145.1c-0.6-0.1-1-0.4-1.1-1C219.3,144.2,219.7,144.5,219.9,145.1z"/>
		<path class="st37" d="M168.5,35.6c-0.3,0.3-0.5,0.6-0.8,0.9C167.7,36,168,35.7,168.5,35.6z"/>
		<path class="st111" d="M218.7,144.1c-0.6-0.1-0.9-0.4-1.1-0.9C218.2,143.2,218.6,143.5,218.7,144.1z"/>
		<path class="st43" d="M190.9,37.6c-0.3-0.3-0.7-0.5-1-0.8C190.5,36.8,190.7,37.1,190.9,37.6z"/>
		<path class="st39" d="M212.1,143.1c0.7,0,1.1,0.4,1.2,1.1C212.7,144,212.3,143.7,212.1,143.1z"/>
		<path class="st17" d="M236.9,142.9c0.2-0.5,0.5-0.9,1.1-0.9C237.9,142.6,237.5,142.9,236.9,142.9z"/>
		<path class="st112" d="M217.5,143.1c-0.3-0.3-0.6-0.6-0.9-0.8C217.2,142.2,217.4,142.5,217.5,143.1z"/>
		<path class="st49" d="M209.9,141c0.7,0,1.1,0.4,1.3,1.1C210.5,141.9,210.2,141.5,209.9,141z"/>
		<path class="st39" d="M214.5,140.8c-0.7-0.1-1-0.5-1.1-1.2C214,139.8,214.4,140.2,214.5,140.8z"/>
		<path class="st25" d="M223.9,138.8c0.6,0,1.1,0.4,1.3,1C224.5,139.7,224.1,139.4,223.9,138.8z"/>
		<path class="st113" d="M197,43.1c0.5,0,0.9,0,1.4-0.1c0,0.4,0,0.7,0,1.1c-0.2,0.1-0.4,0.2-0.6,0.3c-0.2-0.1-0.4-0.2-0.6-0.3
			C197.2,43.7,197.1,43.4,197,43.1z"/>
		<path class="st114" d="M222,137.7c0.3,0.3,0.7,0.6,1,0.9C222.4,138.6,222.1,138.2,222,137.7z"/>
		<path class="st49" d="M212.4,138.7c-0.7-0.1-1-0.5-1.1-1.2C211.9,137.7,212.2,138.1,212.4,138.7z"/>
		<path class="st45" d="M206.9,137.7c0.6,0.1,1,0.5,1.1,1.1C207.4,138.7,207,138.3,206.9,137.7z"/>
		<path class="st52" d="M196.3,44.9c0.1-0.5,0.4-0.8,0.9-0.8l0.1-0.1c0.3,0.2,0.4,0.5,0.4,0.8c0,0.3-0.1,0.4-0.2,0.4
			c-0.4,0.3-0.8,0.3-1.3,0.1L196.3,44.9z"/>
		<path class="st17" d="M235.8,136.8c-0.2,0.6-0.6,0.9-1.2,0.9C234.9,137.1,235.2,136.8,235.8,136.8z"/>
		<path class="st114" d="M220.8,136.7c0.6,0.1,1,0.4,1.1,1C221.3,137.6,221,137.2,220.8,136.7z"/>
		<path class="st108" d="M205.8,136.7c0.6,0.1,1,0.5,1.1,1.1C206.3,137.6,205.9,137.3,205.8,136.7z"/>
		<path class="st109" d="M219.6,135.6c0.7,0.1,1.1,0.4,1.2,1.1C220.4,136.3,220,136,219.6,135.6z"/>
		<path class="st108" d="M204.8,135.6c0.6,0.1,1,0.5,1.1,1.1C205.3,136.5,204.9,136.2,204.8,135.6z"/>
		<path class="st25" d="M225.3,135.5c-0.7,0-1.1-0.4-1.3-1C224.7,134.6,225.1,134.9,225.3,135.5z"/>
		<path class="st6" d="M190.9,45.2c-0.2,0.6-0.6,0.8-1.2,0.9C189.9,45.5,190.3,45.2,190.9,45.2z"/>
		<path class="st22" d="M196.4,55.9c0-0.7,0.3-1.1,1-1.3C197,55.1,196.7,55.5,196.4,55.9z"/>
		<path class="st115" d="M212.3,55.7c0.6,0.1,0.9,0.5,1.1,1.1l0,0c-0.2,0.1-0.4,0.3-0.6,0.4c-0.2-0.1-0.4-0.2-0.7-0.3
			C211.9,56.5,211.9,56.1,212.3,55.7L212.3,55.7z"/>
		<path class="st116" d="M211.4,59.9c0.3,0.3,0.6,0.6,0.9,1C211.7,60.8,211.4,60.5,211.4,59.9z"/>
		<path class="st117" d="M213.4,62.1c0.6,0.1,0.9,0.5,1,1C213.9,63,213.5,62.7,213.4,62.1z"/>
		<path class="st45" d="M209.2,135.5c-0.7-0.1-1.1-0.6-1.1-1.3C208.7,134.5,209.1,134.9,209.2,135.5z"/>
		<path class="st117" d="M215.5,63.2c0-0.4,0-0.7,0-1.1c0.6,0.2,0.9,0.5,1,1.1C216.2,63.6,215.8,63.6,215.5,63.2z"/>
		<path class="st118" d="M215.5,63.2c0.4,0,0.7,0,1.1,0c0.1,0.3,0.2,0.6,0.2,1c-0.4,0-0.8,0-1.3,0.1l0,0c-0.2-0.2-0.3-0.5-0.2-0.7
			C215.4,63.3,215.4,63.1,215.5,63.2L215.5,63.2z"/>
		<path class="st5" d="M178.4,67.5c0.6,0.3,0.7,0.8,0.7,1.4C178.5,68.5,178.3,68.1,178.4,67.5z"/>
		<path class="st119" d="M220.7,70.6c0.4,0,0.7,0,1.1,0c0.1,0.3,0.2,0.7,0.2,1c-0.4,0-0.7,0-1.1,0C220.8,71.3,220.8,71,220.7,70.6z"
			/>
		<path class="st37" d="M170.6,33.7c-0.3,0.2-0.6,0.5-0.9,0.8C169.8,34,170,33.6,170.6,33.7z"/>
		<path class="st120" d="M224.1,74.9h-0.5l-0.5,0c-0.1-0.3-0.1-0.7-0.2-1c0.4,0,0.7,0,1.1,0C224,74.2,224.1,74.5,224.1,74.9z"/>
		<path class="st5" d="M181.5,77c0.6,0.3,0.8,0.8,0.7,1.4C181.7,78.1,181.4,77.7,181.5,77z"/>
		<path class="st121" d="M227.3,80.2c-0.3,0-0.7,0-1,0c0.1-0.6,0.4-0.9,0.9-1C227.3,79.5,227.3,79.8,227.3,80.2z"/>
		<path class="st5" d="M182.6,80.2c0.5,0.2,0.7,0.7,0.7,1.2C182.9,81.2,182.5,80.8,182.6,80.2z"/>
		<path class="st122" d="M227.3,81.3c0.4,0,0.7,0,1.1,0c0,0.4,0,0.7,0,1.1c-0.4,0-0.7,0-1.1,0C227.3,82,227.3,81.6,227.3,81.3z"/>
		<path class="st93" d="M172.9,82.3c0.6,0.3,0.8,0.8,0.7,1.4C173.1,83.5,172.9,83,172.9,82.3z"/>
		<path class="st64" d="M193.3,82.4c0.5,0.2,0.8,0.6,0.8,1.2C193.6,83.3,193.2,83,193.3,82.4z"/>
		<path class="st64" d="M194.3,84.4c0.3,0,0.6,0,0.9,0c0,0.4-0.1,0.9-0.1,1.3C194.6,85.5,194.3,85.1,194.3,84.4z"/>
		<path class="st64" d="M195.3,86.6c0.6,0.2,0.9,0.7,0.9,1.3C195.6,87.7,195.3,87.2,195.3,86.6z"/>
		<path class="st93" d="M175.1,87.7c0.6,0.3,0.8,0.7,0.7,1.3C175.3,88.7,175,88.3,175.1,87.7z"/>
		<path class="st20" d="M200.4,88.7c-0.6-0.2-0.8-0.7-0.8-1.3C200.1,87.7,200.4,88.1,200.4,88.7z"/>
		<path class="st64" d="M196.3,88.7c0.6,0.2,0.9,0.7,0.9,1.4C196.7,89.8,196.4,89.4,196.3,88.7z"/>
		<path class="st9" d="M176.1,89.8c0.6,0.3,0.9,0.8,0.8,1.5C176.3,90.9,176,90.4,176.1,89.8z"/>
		<path class="st20" d="M197.4,90.8c0.6,0.2,0.9,0.7,0.9,1.4C197.7,91.9,197.4,91.5,197.4,90.8z"/>
		<path class="st108" d="M203.8,134.5c0.6,0.2,0.9,0.5,1,1.1C204.2,135.4,203.9,135.1,203.8,134.5z"/>
		<path class="st20" d="M198.5,93c0.6,0.2,0.9,0.7,0.9,1.3C198.8,94,198.5,93.6,198.5,93z"/>
		<path class="st114" d="M224.1,134.5c-0.5-0.1-0.9-0.4-1.1-0.9C223.6,133.6,223.9,133.9,224.1,134.5z"/>
		<path class="st84" d="M234.8,94c0.6,0.1,0.9,0.5,1.1,1.1c-0.4,0.4-0.8,0.4-1.2,0.1C234.3,94.8,234.4,94.4,234.8,94L234.8,94z"/>
		<path class="st109" d="M222.2,133.4c-0.7,0-1.1-0.4-1.3-1.1C221.3,132.6,221.7,133,222.2,133.4z"/>
		<path class="st20" d="M199.6,95.1c0.6,0.2,0.9,0.6,0.9,1.2C199.9,96.1,199.6,95.7,199.6,95.1z"/>
		<path class="st123" d="M234.8,95.1c0.4,0,0.7,0,1.1,0c0,0.4,0,0.7,0,1.1c-0.4,0-0.7,0-1.1,0c-0.3-0.2-0.4-0.5-0.3-0.7
			C234.6,95.2,234.7,95.1,234.8,95.1z"/>
		<path class="st117" d="M215.5,63.1c0,0.4,0,0.7,0,1.1c-0.6-0.2-0.9-0.5-1-1.1C214.8,63.1,215.2,63.1,215.5,63.1z"/>
		<path class="st96" d="M206.8,101.5c-0.6-0.2-0.9-0.6-0.9-1.1C206.4,100.5,206.8,100.9,206.8,101.5z"/>
		<path class="st19" d="M180.1,37.5c0.3-0.5,0.6-0.9,1.3-0.8C181.1,37.3,180.6,37.5,180.1,37.5z"/>
		<path class="st22" d="M196.2,45.2c0.4,0,0.7-0.1,1.1-0.1c0.3,0.2,0.4,0.4,0.3,0.6c-0.1,0.2-0.2,0.3-0.3,0.3l-0.1,0.1
			C196.9,45.9,196.6,45.5,196.2,45.2z"/>
		<path class="st124" d="M197.4,46.1c0-0.3-0.1-0.6,0-0.9c0-0.4,0-0.8,0-1.1c0.4,0,0.7,0,1,0.1c0,0.3,0,0.6,0,0.9
			c0.4,0.2,0.5,0.5,0.4,0.7c-0.1,0.2-0.2,0.3-0.4,0.3C198.1,46.1,197.7,46.1,197.4,46.1z"/>
		<path class="st125" d="M198.4,46c0-0.3,0-0.7,0-1c0.3,0,0.7,0.1,1,0.1l0,0c0.2,0.2,0.3,0.3,0.5,0.5c-0.1,0.2-0.3,0.4-0.4,0.5
			l-0.5,0L198.4,46z"/>
		<path class="st126" d="M200.5,47.2c-0.6-0.1-0.9-0.5-1-1.1l0,0c0.4-0.3,0.7-0.3,1.1,0l0,0c0.1,0.2,0.3,0.3,0.4,0.5
			C200.8,46.8,200.7,47,200.5,47.2z"/>
		<path class="st127" d="M201.6,47.2c0,0.4,0,0.7,0,1.1c-0.6-0.1-0.9-0.5-1.1-1.1l0,0C200.9,46.9,201.2,46.8,201.6,47.2z"/>
		<path class="st128" d="M201.6,48.2c0.4,0,0.7,0,1.1,0l0,0c0.2,0.2,0.3,0.5,0.2,0.7c-0.1,0.2-0.1,0.4-0.2,0.4
			C202.1,49.2,201.8,48.8,201.6,48.2z"/>
		<path class="st57" d="M202.7,49.3c0-0.4,0-0.7,0-1.1c0.6,0.1,0.9,0.5,1.1,1.1C203.4,49.3,203,49.3,202.7,49.3z"/>
		<path class="st57" d="M203.7,49.3c0.6,0.1,0.9,0.5,1.1,1.1C204.2,50.2,203.9,49.9,203.7,49.3z"/>
		<path class="st57" d="M204.8,50.4c0.3,0,0.7,0,1,0.1c0,0.3,0,0.7,0,1C205.3,51.3,204.9,51,204.8,50.4z"/>
		<path class="st129" d="M208.1,53.4c0.4,0.4,0.7,0.8,1.1,1.2C208.5,54.5,208.1,54.1,208.1,53.4z"/>
		<path class="st130" d="M209.1,54.6c0.6,0.2,0.9,0.5,1.1,1.1C209.6,55.6,209.2,55.2,209.1,54.6z"/>
		<path class="st131" d="M210.2,55.7c0.3,0,0.7,0,1.1,0c0.2,0.2,0.3,0.4,0.5,0.6c-0.2,0.2-0.3,0.3-0.5,0.5
			C210.6,56.6,210.3,56.3,210.2,55.7z"/>
		<path class="st116" d="M212.2,57.9c-0.4-0.4-0.7-0.7-1.1-1.1l0.1,0c0.4-0.4,0.7-0.4,1.1,0l0,0c0.2,0.2,0.3,0.4,0.5,0.6
			C212.6,57.5,212.4,57.7,212.2,57.9z"/>
		<path class="st116" d="M213.4,57.9c0,0.3,0,0.7-0.1,1c-0.3-0.3-0.7-0.7-1-1l0.1-0.1C212.7,57.5,213,57.5,213.4,57.9z"/>
		<path class="st19" d="M178.2,35.5c-0.4,0.4-0.7,0.7-1.1,1.1C177.2,36,177.5,35.6,178.2,35.5z"/>
		<path class="st88" d="M212.3,56.8l-0.5,0h-0.5c0-0.4,0-0.7,0-1.1c0.4,0,0.7,0,1.1,0C212.3,56.1,212.3,56.4,212.3,56.8z"/>
		<path class="st52" d="M178,38.5c-0.6,0-0.8-0.3-0.8-0.8C177.6,37.7,177.9,38,178,38.5z"/>
		<path class="st132" d="M213.4,57.9c-0.3,0-0.7,0-1,0c0-0.3,0-0.7,0-1c0.4,0,0.7,0,1.1,0C213.4,57.1,213.4,57.5,213.4,57.9z"/>
		<path class="st133" d="M200.5,46.2c-0.4,0-0.7,0-1.1,0c0-0.3,0-0.7,0-1C200,45.2,200.4,45.6,200.5,46.2z"/>
		<path class="st134" d="M201.6,47.2c-0.4,0-0.7,0-1.1,0c0-0.3,0-0.7,0-1C201.1,46.3,201.5,46.6,201.6,47.2z"/>
		<path class="st52" d="M235.8,97.2c0,0.7,0,1.4,0,2.1c-0.4,0-0.7,0-1.1,0C234.8,98.5,234.8,97.6,235.8,97.2z"/>
		<path class="st52" d="M234.8,95.1c0,0.4,0,0.7,0,1.1c-0.4,0-0.7,0-1.1,0c0-0.7,0-1.4,0-2.1c0.4,0,0.7,0,1.1,0
			C234.8,94.4,234.8,94.7,234.8,95.1z"/>
		<path class="st52" d="M232.6,90.8c-0.4,0-0.7,0-1.1,0c0.1-0.6,0.5-0.9,1.1-1.1C232.6,90.1,232.6,90.5,232.6,90.8z"/>
	</g>
	<text transform="matrix(1 0 0 1 10.0305 165.4238)" class="st135 st136">Radiologia Odontolgica Digital </text>
</g>
</svg>
