<?xml version="1.0" encoding="utf-8"?>
<!-- Generator: Adobe Illustrator 25.2.1, SVG Export Plug-In . SVG Version: 6.00 Build 0)  -->
<svg version="1.1" id="Camada_1" xmlns="http://www.w3.org/2000/svg" xmlns:xlink="http://www.w3.org/1999/xlink" x="0px" y="0px"
	 viewBox="0 0 247.2 202.1" style="enable-background:new 0 0 247.2 202.1;" xml:space="preserve">
<style type="text/css">
	.st0{fill:#FFFFFF;}
</style>
<g>
	<path d="M247,127c-2.8,3-5.7,6.1-8.5,9.2c2.9,3.1,5.7,6.1,8.7,9.4c-0.6,0-0.9,0.1-1.2,0.1c-10.3,0.1-20.5,0.1-30.8,0.2
		c-0.5,0-1,0-1.5-0.1c-0.9,0-1.6-0.4-1.5-1.4c0.1-1-0.5-1.3-1.4-1.3c-1,0-2,0-3,0c-56.4,0-112.8,0-169.2,0c-0.5,0-1,0-1.5,0
		c-1.2-0.1-2,0.1-2.1,1.6c0,0.4-0.9,1-1.5,1c-3,0.1-6,0-9.1,0c-7.7,0-15.4,0-23.1,0c-0.3,0-0.7,0-1.3-0.1c3-3.2,5.8-6.3,8.7-9.4
		C6,133.1,3.1,130,0,126.7c6.1,0,11.8,0,17.6,0c0-1.1,0-1.9,0-2.9c70.7,0,141.3,0,212,0c0,0.9,0,1.8,0,2.9c5.8,0,11.5,0,17.2,0
		C246.9,126.7,247,126.9,247,127z M139,137.9c0-3.6,0-7.1,0-10.9c-1.4,0.2-2.8,0-3.8,0.6c-1,0.6-1.7,1.9-2.6,3
		c-1.6-2.3-3-4.5-6.2-3.2c0,3.4,0,6.9,0,10.5c0.9,0,1.7,0,2.6,0c0-2.4,0-4.6,0-6.9c0.1-0.1,0.3-0.1,0.4-0.2c0.4,0.5,0.7,1,1.1,1.4
		c2.3,2.4,2.3,2.4,4.4,0c0.4-0.5,0.8-0.9,1.5-1.7c0,2.8,0,5.1,0,7.5C137.3,137.9,138.1,137.9,139,137.9z M40.1,140
		c-1.9-2-3.7-3.9-5.6-5.9c0.2-0.1,0.3-0.2,0.5-0.3c1.9-0.9,2.5-1.9,2.3-3.6c-0.2-1.5-1.2-2.6-3.1-2.8c-2.4-0.2-4.8,0-7.3,0
		c0,3.5,0,6.9,0,10.4c1,0,1.9,0,2.9,0c0-1.3,0-2.4,0-4c0.8,0.4,1.5,0.6,1.9,1c1.1,1,2.2,2.1,3,3.3C36.1,140.1,37.7,140.6,40.1,140z
		 M169.5,134.1c2.2-0.9,3-1.9,2.9-3.5c-0.1-1.6-0.9-2.7-2.4-2.9c-2.6-0.4-5.3-0.4-8-0.5c0,3.8,0,7.2,0,10.7c0.5,0,0.8,0,1.1,0.1
		c1.4,0.2,1.9-0.3,1.8-1.7c-0.1-0.7,0-1.4,0-2.5c0.9,0.5,1.5,0.7,1.9,1.1c1.2,1.2,2.4,2.3,3.3,3.7c1.3,1.8,3,1.9,5,1.5
		C173.3,138,171.5,136.1,169.5,134.1z M70.5,138.1c2.6-0.1,5.2,0,7.7-0.4c2.5-0.4,3.8-2.4,3.8-5c0-2.6-1.3-4.7-3.8-5
		c-2.5-0.4-5.1-0.3-7.7-0.4C70.5,130.9,70.5,134.4,70.5,138.1z M52.1,138c0.3-1.9,0.3-1.9-1.5-1.9c-1.7,0-3.4,0-5.1,0
		c0-0.9,0-1.6,0-2.5c1.7,0,3.4,0,5,0c0-0.8,0-1.5,0-2.3c-1.7,0-3.4,0-5,0c0-0.7,0-1.3,0-2c2.1,0,4.1,0,6.1,0c0-0.7,0-1.3,0-1.9
		c-3,0-5.9,0-8.8,0c0,3.6,0,7.1,0,10.7C45.9,138,49,138,52.1,138z M220.5,130.9c-0.1-2-0.9-3.1-2.1-3.2c-1.8-0.3-3.8-0.3-5.6-0.1
		c-1.4,0.2-2.5,1.2-2.4,2.8c0,1.6,1.2,2.2,2.5,2.6c0.9,0.3,1.8,0.4,2.6,0.6c0.6,0.2,1.3,0.3,1.9,0.6c0.9,0.5,0.9,1.1,0.1,1.8
		c-0.9,0.7-3.5,0.6-4.1-0.2c-0.9-1.3-2.1-1.1-3.8-1.3c0.6,1,0.9,1.9,1.5,2.4c1.9,1.7,6.8,1.7,8.8,0.1c1.6-1.3,1.4-3.5-0.4-4.5
		c-0.7-0.4-1.5-0.5-2.3-0.8c-1.1-0.3-2.2-0.5-3.2-0.8c-0.3-0.1-0.7-0.5-0.7-0.8c0-0.3,0.4-0.9,0.6-0.9c1,0,2.1-0.1,3.1,0.2
		C218.1,129.7,219.2,130.3,220.5,130.9z M105.2,134.2c-0.3,2,0.5,3,1.8,3.3c1.7,0.4,3.5,0.6,5.2,0.5c2.4-0.2,3.6-1.5,3.7-3.1
		c0-1.6-1.1-2.5-3.5-3c-1.1-0.2-2.3-0.5-3.4-0.8c-0.3-0.1-0.7-0.5-0.7-0.8c0-0.3,0.4-0.9,0.6-0.9c1.1,0,2.4-0.3,3.1,0.3
		c1.1,0.9,2.2,0.9,3.6,0.7c-0.4-0.8-0.9-1.8-1.6-2.2c-2.3-1.2-4.8-1.3-7.1,0c-0.8,0.4-1.5,1.6-1.5,2.5c0,0.7,1,1.6,1.7,2.1
		c0.6,0.4,1.4,0.5,2.1,0.6c1,0.3,2,0.4,2.9,0.8c1,0.4,1,1.3,0.2,1.8c-1,0.6-3.3,0.3-4.2-0.3C107.2,135,106.2,134.6,105.2,134.2z
		 M204.9,137.9c-1.6-3.4-3.1-6.7-4.7-10.1c-0.4-0.8-2.8-0.8-3.1,0c-1.6,3.3-3,6.7-4.6,10.2c1.7,0.2,3.1,0.4,3.5-1.6
		c0.1-0.3,0.6-0.6,1-0.6c1.2-0.1,2.3-0.1,3.5,0c0.3,0,0.8,0.3,0.9,0.6C201.8,138.2,203.1,138.4,204.9,137.9z M99.6,138
		c-1.4-3.1-2.8-6.1-4.1-9.1c-0.4-1-0.8-1.6-2.1-1.6c-1.3,0-1.7,0.7-2.1,1.7c-0.7,1.6-1.4,3.1-2.1,4.7c-0.6,1.4-1.3,2.9-1.9,4.4
		c1.8,0.4,3.1,0.3,3.5-1.6c0.1-0.3,0.6-0.6,1-0.6c1.1-0.1,2.2-0.1,3.3,0c0.4,0,0.9,0.3,1,0.6C96.5,138.2,97.8,138.3,99.6,138z
		 M156.6,138c-1.6-3.4-3.1-6.8-4.6-10.1c-0.4-0.9-2.8-0.9-3.2,0c-1.5,3.3-3,6.7-4.5,10c1.7,0.3,3,0.4,3.5-1.6
		c0.1-0.3,0.6-0.6,0.9-0.7c1.2-0.1,2.3-0.1,3.5,0c0.3,0,0.8,0.3,0.9,0.6C153.5,138.2,154.8,138.3,156.6,138z M187.2,127.8
		c-3-0.9-5.6-0.7-7.9,1.3c-2.1,1.8-2.3,4.6-0.6,6.6c2.2,2.7,6.7,3.2,9.7,1.1c-0.3-0.7-0.7-1.4-1-2.1c-2.4,1.5-4.4,1.5-5.9,0.2
		c-1-0.9-1.4-2-0.8-3.2c1.3-2.3,3.4-2.3,5.6-1.7C186.6,129.2,186.9,128.6,187.2,127.8z M56.9,138c1,0,1.9,0,2.8,0
		c0-3.6,0-7.1,0-10.6c-1,0-1.8,0-2.8,0C56.9,131,56.9,134.4,56.9,138z"/>
	<path d="M97.6,119.4c-4.6,0-9.2,0-13.9,0c-0.4,0-1-0.6-1.3-1c-2.3-3.5-4.6-7.1-6.9-10.6c-0.8-1.3-1.8-2.4-2.8-3.6
		c-0.6-0.7-1.3-1.3-2.2-0.5c-0.7,0.7-0.9,1.5-0.2,2.4c1.1,1.5,2.2,3,3.4,4.6c-3.9,0.6-7.5,0-11-1.4c-5.4-2.2-9.6-5.9-13.2-10.2
		c-1.4-1.7-2.8-2.5-5-2.2C43.1,97,41.2,96.4,40,97c-1.1,0.6-1.5,2.5-2.2,3.8c-2.2,3.9-5.5,6.6-9.4,8.6c-1.4,0.8-1.9,2-1.4,3.8
		c0.4,1.4,1.3,1.8,2.7,1.8c2.1-0.1,4.2-0.3,6.2,0c1.2,0.1,2.5,0.9,3.6,1.6c0.4,0.3,0.4,1.4,0.3,2.1c0,0.2-1,0.5-1.5,0.5
		c-3.5,0-7,0-10.4-0.1c-0.7,0-1.5-0.5-1.9-1c-2.1-2.7-4-5.5-6.1-8.3c-0.5-0.7-1.5-1.2-2-1.9c-0.3-0.5-0.5-1.5-0.3-1.9
		c0.8-1.4,1.9-2.6,2.8-3.9c0.4-0.6,0.8-1.3,0.9-1.9c0.4-4.8,0.8-9.7,1.1-14.6c0.3-4.2,3.1-7.4,7.3-7.7c4.5-0.3,9.1-0.2,13.6-0.2
		c3.1,0,6.1,0,9.1,0c1.9,6.6-1.6,11.3-8.3,11.3c-4.7-0.1-9.5-0.2-14.2-0.2c-0.6,0-1.5,0-1.9,0.4c-0.6,0.5-1.1,1.4-1.1,2
		c0,0.6,0.9,1.1,1.6,1.5c0.4,0.2,1,0.1,1.5,0.1c8.5,0.1,16.9,0.1,25.4,0.1c4.4,0,6.4-2,6.6-6.4c0.1-2.6,0.2-5.2,0.6-7.8
		c0.4-2.4,1.7-4.3,4.1-5.3c1.4-0.6,1.3-2-0.2-2.9c-0.7-0.4-1.2-0.8-0.9-1.7c0.3-1,1-0.9,1.8-0.9c6,0,12.1,0,18.1,0
		c0.7,0,1.5,0.2,2.1,0.6c2.5,1.5,4.9,3.1,7.4,4.6c1.6,0.9,2.1,2.2,1.9,3.9c-0.3,2-0.7,3.9-1.1,6.3c-3.3-0.3-6.6-0.6-9.9-0.9
		c-0.4,0-1.2,0.1-1.3,0.3c-0.2,0.5-0.2,1.3,0,1.8c0.3,0.7,0.9,1.3,1.3,2c4.6,7,4.4,13.2-0.4,20c-0.7,0.9-1.4,1.8-2.2,2.7
		c-1.2,1.6-1.2,3.2,0.6,4.3c1.1,0.7,2.5,1.2,3.9,1.4c1.9,0.2,3.9,0,5.9,0.1C96.1,115,97.6,116.7,97.6,119.4z"/>
	<path d="M172.7,110.6c1.1-1.5,2-2.8,3-4.1c1-1.4,1.1-2.4,0.2-3c-1.3-0.8-2,0.3-2.5,1.2c-2.4,3.4-4.7,6.9-7.1,10.3
		c-1,1.4-1.7,3.4-3,4.2c-1.3,0.7-3.3,0.2-5,0.2c-3.1,0-6.1,0-9.2,0c-0.2-2.5,1.4-4.3,3.7-4.4c2-0.1,3.9,0.1,5.9-0.1
		c1.2-0.1,2.5-0.5,3.5-1.1c2.1-1.2,2.3-3,0.7-4.9c-1.2-1.5-2.4-3-3.3-4.6c-3-5.1-3.1-10.3-0.3-15.5c0.8-1.4,1.8-2.7,2.5-4.1
		c0.3-0.6,0.1-1.4,0.1-2.1c-0.6,0-1.2,0-1.8,0c-0.3,0-0.6,0.3-0.8,0.3c-2.9,0-5.7,0-8.7,0c-0.3-2.1-0.8-4.2-1-6.4
		c-0.2-1.4,0.4-2.6,1.7-3.4c2.6-1.6,5.1-3.2,7.7-4.8c0.6-0.3,1.3-0.5,2-0.5c6.1,0,12.2,0,18.3,0c0.8,0,1.4,0.1,1.7,1
		c0.3,0.9-0.3,1.2-0.9,1.6c-0.5,0.4-1,1.1-1.1,1.8c0,0.4,0.7,1,1.2,1.3c2.1,0.9,3.2,2.6,3.6,4.7c0.4,2,0.5,4.2,0.7,6.3
		c0.1,1.1,0,2.3,0.2,3.4c0.5,3.3,2.3,4.9,5.6,4.9c8.9,0,17.8-0.1,26.7-0.2c0.7,0,1.6-0.3,2.1-0.8c0.4-0.4,0.5-1.5,0.2-1.9
		c-0.6-0.6-1.5-1.3-2.3-1.3c-3-0.1-5.9,0-8.9,0c-2.1,0-4.1,0.3-6.2,0.1c-5.8-0.4-9.5-3.9-8.2-10.1c0.2-0.9,0.6-1.1,1.4-1.1
		c6.6,0,13.2-0.1,19.8,0c5.8,0.1,8.7,2.8,9.2,8.5c0.4,4.6,0.7,9.2,1.1,13.8c0.1,0.7,0.4,1.4,0.8,2c0.9,1.3,2,2.5,2.9,3.9
		c0.6,0.9,0.6,1.8-0.7,2.3c-0.4,0.1-0.8,0.6-1,1c-2.2,3-4.3,5.9-6.4,8.9c-0.6,0.8-1.2,1.1-2.1,1.1c-3.5,0-7,0-10.6,0.1
		c-1.4,0-1.9-0.7-1.3-2c0.7-1.6,2.2-2.2,3.8-2.2c2.2,0,4.4,0,6.6,0.1c1.4,0.1,2-0.6,2.3-1.8c0.4-1.6,0.1-2.9-1-3.5
		c-3.7-2-7.1-4.4-9.3-8.1c-0.7-1.2-1.2-2.6-1.8-3.8c-0.2-0.4-0.8-0.6-1.2-0.9c-0.1,0-0.2,0-0.3,0c-2.2,0-4.6-0.6-6.4,0.2
		c-1.8,0.7-3,2.8-4.5,4.3c-4,4-8.3,7.4-14,8.8C178.3,110.9,175.7,111.2,172.7,110.6z"/>
	<path d="M109.4,92.9c-0.3-0.4-0.8-0.7-0.8-1c0-6.3,0-12.6,0-19.1c10,0,19.7,0,29.6,0c0,1.6,0,3.1,0,4.6c0,4.7,0,9.3,0,14
		c0,0.4-0.3,0.9-0.5,1.5c1,0.8,0.9,4-0.5,5c-4.7,3.2-9.5,6.4-14.3,9.7c-2.8-2.1-5.5-4.2-8.3-6.3c-1.7-1.3-3.5-2.4-5.3-3.7
		C108.1,96.8,108.2,93.4,109.4,92.9z M124.2,80.7c0-1,0.2-2-0.1-3c-0.2-0.7-0.8-1.5-1.4-1.9c-0.6-0.3-1.5-0.2-2.2-0.1
		c-1.2,0.1-2,0.8-2,2.1c0,1.9,0,3.8,0.1,5.7c0,1.2,0.7,1.8,1.8,2c0.7,0.1,1.5,0.3,2.1-0.1c0.7-0.4,1.5-1.1,1.7-1.9
		C124.5,82.8,124.2,81.7,124.2,80.7z M131.6,89c0.1,0.1,0.2,0.3,0.3,0.4c-0.9,2.7-1.9,5.4-2.9,8.2c1.4,0,2.4,0,3.2,0
		c0.3-1.8,0.5-3.4,0.8-5c0.2-0.9,0.6-1.7,0.8-2.6c0.2-0.9,0.3-1.8,0.5-2.8c-2.3,0-4.3,0-6.4,0c-0.1,0.2-0.1,0.4-0.2,0.6
		c0,0.3,0,0.6,0,0.9c0,1,0.7,1.3,1.6,0.9C130,89.4,130.9,89.2,131.6,89z M114.2,83.8c1-1.1,1.7-2.1,2.5-2.8c1.2-1.1,1.3-2.4,0.8-3.7
		c-0.5-1.5-1.9-1.5-3.3-1.5c-1.6,0.1-2.4,1.1-1.9,3c0.5-0.2,1.2-0.2,1.3-0.5c0.4-1,1.2-1.2,1.7-0.7c0.3,0.3,0.2,1.5-0.1,2
		c-0.7,1.1-1.6,2.1-2.5,3.1c-0.7,0.8-0.9,1.7-0.5,2.8c1.4,0,2.7-0.1,4.1,0c1.5,0.1,1.5-0.7,1.2-1.8
		C116.5,83.8,115.6,83.8,114.2,83.8z M112.3,98.3c0.9-0.5,1.9-0.9,2.5-1.5c2.2-2,4.3-4.1,6.3-6.2c0.5-0.5,0.6-1.2,1-1.9
		c-0.2-0.2-0.4-0.4-0.5-0.6c-0.8,0.4-1.8,0.6-2.4,1.2c-2,1.8-3.8,3.7-5.8,5.5C112.5,95.7,111.9,96.5,112.3,98.3z M127.6,97.7
		c-0.2-1.2-0.5-2.2-0.6-3.3c-0.1-2,0-4-0.1-6c0-0.4-0.5-1.1-0.6-1.1c-0.6,0.1-1.4,0.3-1.7,0.8c-0.3,0.5-0.4,1.4-0.2,1.9
		c1,1.9,0.4,3.9,0.3,5.9c0,0.6-0.3,1.2-0.5,1.8C125.4,97.7,126.4,97.7,127.6,97.7z M134.5,76.3c-0.2-0.2-0.4-0.3-0.5-0.5
		c-0.6,0.3-1.3,0.5-1.8,0.9c-2,2-3.9,4-5.8,6.1c-0.4,0.5-0.4,1.3-0.6,2c0.7-0.2,1.6-0.1,2.1-0.6c1.9-1.8,3.8-3.8,5.5-5.8
		C134,77.9,134.2,77.1,134.5,76.3z M115.9,97.8c0.9,0.2,1.9,0.2,2.8-0.8c0.7-0.8,1.5-1.6,2.4-2.3c1.1-0.9,1.1-1.9,0.8-2.9
		C119.8,93.8,117.9,95.8,115.9,97.8z M136.6,74.4c-8.9,0-17.6,0-26.4,0c0,4.2,0,8.3,0,12.3c0.1,0,0.2,0,0.2,0c0-4,0-8.1,0-12.1
		c8.8,0,17.3,0,26,0c0,1.4,0,2.7,0,3.9c0.1,0,0.1,0,0.2,0C136.6,77.2,136.6,75.8,136.6,74.4z M118.2,88.5c-3.4-0.4-6.6,3-5.8,5.4
		C114.2,92.2,116.1,90.5,118.2,88.5z M131.4,76.1c-3-0.2-6.2,3.2-5.5,5.9C127.8,80.1,129.5,78.2,131.4,76.1z M128.9,84.9
		c3,0.3,5.8-2.9,5-5.5C132.3,81.2,130.7,82.9,128.9,84.9z M136.8,95.9C136.8,95.9,136.8,95.9,136.8,95.9c0.1-2.4,0.1-4.7,0.1-7.1
		c0,0-0.1,0-0.1,0C136.8,91.2,136.8,93.6,136.8,95.9z M112.2,90.1c0.1,0.1,0.2,0.2,0.3,0.3c0.5-0.6,1-1.2,1.6-1.8
		c-0.8,0-1.4,0-1.9,0C112.2,89.1,112.2,89.6,112.2,90.1z"/>
	<path d="M46.6,113.9c2.6,0.3,5,0.6,7.4,1c2.4,0.4,4.1,1.7,5.2,4.2c-3.3,0-6.3-0.3-9.2,0.1c-3.9,0.5-6.4-0.8-8.2-4.2
		c-1.3-2.5-3.1-4.7-4.7-7c-0.7-1-0.8-1.9-0.1-2.9c1.2-2,2.3-4,3.6-5.9c0.3-0.4,0.9-0.6,1.4-0.8c0.2-0.1,0.4,0,0.6,0
		c4.3-1,5.9,2.4,8,4.9c0.5,0.6-0.2,2.3-0.6,3.4c-0.2,0.6-1,1.3-1.6,1.5c-2.1,0.6-2.1,2.1-1.8,3.7C46.5,112.5,46.5,113.2,46.6,113.9z
		"/>
	<path d="M187.3,119.2c1.1-2.6,2.9-3.9,5.3-4.3c2.4-0.4,4.8-0.7,7.3-1c0.1-1.4,0.3-2.8,0.2-4.2c0-0.4-0.6-0.8-1-1
		c-2-1-3.2-2.4-3.3-4.6c0-0.4,0.2-1,0.5-1.3c1.2-1.3,2.3-2.6,3.6-3.8c0.4-0.4,1-0.5,1.6-0.6c3-0.6,5,0.5,6.1,3.4
		c0.4,1.2,1.3,2.3,2,3.4c0.6,1,0.6,1.8-0.1,2.8c-2.4,3.5-4.8,7-7.3,10.5c-0.2,0.3-0.7,0.7-1,0.7
		C196.7,119.2,192.1,119.2,187.3,119.2z"/>
	<path d="M140.1,72.9c1.7,0.1,2.7,1,3.2,2.3c0.7,1.9,1.2,3.9,1.5,5.9c0.3,2,0.3,4.1,0.2,6.2c0,1.1,0.4,1.7,1.3,2.1
		c1.4,0.6,2.9,1.2,4.4,1.6c1.4,0.3,3,0.4,4.6,0.5c0,3.1,0,6.2,0,9.5c-0.4-0.1-0.6-0.2-0.8-0.3c-4.9-3-9.4-6.5-13.4-10.7
		c-0.5-0.6-0.9-1.6-0.9-2.4C140,82.8,140.1,78,140.1,72.9z"/>
	<path d="M106.4,72.9c0,5.3,0,10.3,0,15.4c0,0.4-0.2,0.9-0.4,1.2c-4.2,4.6-9.1,8.3-14.6,11.7c0-3.3,0-6.5,0-9.6
		c1.4-0.2,2.9-0.3,4.3-0.5c0.7-0.1,1.4-0.3,2-0.5c3.7-1.2,3.7-1.4,3.9-5.2c0.2-2.9,0.5-5.9,1.1-8.8C103,74.8,104.1,73.2,106.4,72.9z
		"/>
	<path d="M114.9,64.5c-0.5,1.1-1.2,2-1.2,2.9c0.1,1.3,1.3,1.8,2.5,2.1c1.8,0.4,3.5,0.1,4.9-1c0.6-0.5,1.1-1.4,1-2.1
		c-0.1-0.6-0.9-1.2-1.6-1.5c-0.6-0.3-1.4-0.3-2.2-0.8c0.9-0.2,1.8-0.4,2.7-0.6c-0.1-0.1-0.1-0.1-0.2-0.2c0.9-0.8,1.8-2,2.8-2.1
		c1.3-0.2,1.9,1.1,2,2.3c1.2,0.1,2.4,0.3,3.7,0.4c0,0.1,0,0.2,0,0.3c-0.8,0.3-1.8,0.4-2.5,0.9c-0.7,0.5-1.4,1.3-1.5,2
		c0,0.6,0.7,1.6,1.3,2c1.9,1.1,4,0.8,5.9-0.1c1-0.5,1.1-1.4,0.6-2.3c-0.3-0.7-0.8-1.3-1.4-2.2c2.6,0.5,5,0.1,7.2-1
		c-2.4,2.2-4.4,4.6-5.1,7.8c-6.9,0-13.7,0-20.6,0c-0.6-3.6-3.1-5.8-5.8-7.9c0.1-0.1,0.1-0.2,0.2-0.4c1.3,0.6,2.5,1.3,3.8,1.6
		C112.6,64.8,113.9,64.5,114.9,64.5z"/>
	<path class="st0" d="M139,137.9c-0.9,0-1.7,0-2.6,0c0-2.4,0-4.7,0-7.5c-0.7,0.8-1.1,1.2-1.5,1.7c-2.1,2.4-2.1,2.4-4.4,0
		c-0.4-0.4-0.7-0.9-1.1-1.4c-0.1,0.1-0.3,0.1-0.4,0.2c0,2.3,0,4.5,0,6.9c-1,0-1.7,0-2.6,0c0-3.5,0-7.1,0-10.5
		c3.2-1.3,4.6,0.9,6.2,3.2c0.9-1.1,1.5-2.4,2.6-3c1-0.6,2.4-0.4,3.8-0.6C139,130.7,139,134.2,139,137.9z"/>
	<path class="st0" d="M40.1,140c-2.4,0.6-4,0-5.3-1.8c-0.9-1.2-2-2.3-3-3.3c-0.4-0.4-1.1-0.6-1.9-1c0,1.6,0,2.7,0,4
		c-1,0-1.9,0-2.9,0c0-3.5,0-6.9,0-10.4c2.5,0,4.9-0.1,7.3,0c1.9,0.1,2.9,1.3,3.1,2.8c0.2,1.7-0.5,2.7-2.3,3.6
		c-0.1,0.1-0.2,0.1-0.5,0.3C36.3,136.1,38.2,138,40.1,140z M29.9,132.4c1.2-0.1,2.4-0.1,3.5-0.3c0.4-0.1,0.9-0.9,1-1.4
		c0-0.4-0.5-1.2-1-1.3c-1.1-0.2-2.3-0.2-3.5-0.3C29.9,130.4,29.9,131.3,29.9,132.4z"/>
	<path class="st0" d="M169.5,134.1c1.9,2,3.8,3.9,5.7,6c-2.1,0.4-3.8,0.3-5-1.5c-0.9-1.3-2.2-2.5-3.3-3.7c-0.4-0.4-1-0.6-1.9-1.1
		c0,1.1-0.1,1.8,0,2.5c0.2,1.4-0.4,1.9-1.8,1.7c-0.3-0.1-0.7,0-1.1-0.1c0-3.5,0-6.9,0-10.7c2.7,0.2,5.4,0.2,8,0.5
		c1.4,0.2,2.3,1.4,2.4,2.9C172.5,132.2,171.7,133.2,169.5,134.1z M165,132.4c1.1-0.1,2.2,0.1,3.2-0.2c0.5-0.2,1.2-1,1.2-1.5
		c0-0.4-0.7-1.2-1.2-1.3c-1-0.3-2-0.2-3.2-0.2C165,130.3,165,131.2,165,132.4z"/>
	<path class="st0" d="M70.5,138.1c0-3.7,0-7.2,0-10.9c2.6,0.1,5.2,0.1,7.7,0.4c2.5,0.4,3.8,2.4,3.8,5c0,2.6-1.4,4.7-3.8,5
		C75.7,138,73.1,138,70.5,138.1z M73.5,136c1.9-0.1,3.9,0.6,5.1-1.4c0.8-1.3,0.7-2.8-0.1-4c-1.2-1.8-3.2-1.3-5-1.2
		C73.5,131.6,73.5,133.7,73.5,136z"/>
	<path class="st0" d="M52.1,138c-3.1,0-6.2,0-9.4,0c0-3.6,0-7.1,0-10.7c3,0,5.9,0,8.8,0c0,0.6,0,1.2,0,1.9c-2,0-4,0-6.1,0
		c0,0.7,0,1.3,0,2c1.7,0,3.3,0,5,0c0,0.8,0,1.5,0,2.3c-1.7,0-3.3,0-5,0c0,0.9,0,1.6,0,2.5c1.7,0,3.4,0,5.1,0
		C52.4,136.1,52.4,136.1,52.1,138z"/>
	<path class="st0" d="M220.5,130.9c-1.4-0.6-2.4-1.3-3.5-1.5c-1-0.3-2-0.2-3.1-0.2c-0.2,0-0.6,0.6-0.6,0.9c0,0.3,0.4,0.7,0.7,0.8
		c1,0.3,2.1,0.5,3.2,0.8c0.8,0.2,1.6,0.4,2.3,0.8c1.8,1,2,3.2,0.4,4.5c-2,1.6-6.9,1.6-8.8-0.1c-0.6-0.5-0.9-1.4-1.5-2.4
		c1.7,0.2,2.9,0,3.8,1.3c0.6,0.9,3.3,0.9,4.1,0.2c0.8-0.6,0.8-1.3-0.1-1.8c-0.6-0.3-1.2-0.4-1.9-0.6c-0.9-0.2-1.8-0.4-2.6-0.6
		c-1.3-0.4-2.5-1-2.5-2.6c0-1.6,1-2.7,2.4-2.8c1.8-0.2,3.8-0.2,5.6,0.1C219.6,127.9,220.5,128.9,220.5,130.9z"/>
	<path class="st0" d="M105.2,134.2c1,0.5,2,0.9,3,1.5c0.9,0.6,3.2,0.9,4.2,0.3c0.8-0.5,0.8-1.4-0.2-1.8c-0.9-0.4-1.9-0.5-2.9-0.8
		c-0.7-0.2-1.6-0.2-2.1-0.6c-0.7-0.5-1.7-1.4-1.7-2.1c0-0.8,0.7-2.1,1.5-2.5c2.3-1.3,4.8-1.2,7.1,0c0.7,0.4,1.2,1.3,1.6,2.2
		c-1.4,0.2-2.4,0.2-3.6-0.7c-0.7-0.5-2.1-0.3-3.1-0.3c-0.2,0-0.6,0.6-0.6,0.9c0,0.3,0.4,0.7,0.7,0.8c1.1,0.3,2.2,0.5,3.4,0.8
		c2.4,0.5,3.6,1.5,3.5,3c0,1.6-1.3,2.9-3.7,3.1c-1.7,0.1-3.5-0.1-5.2-0.5C105.7,137.1,104.9,136.1,105.2,134.2z"/>
	<path class="st0" d="M204.9,137.9c-1.8,0.5-3.1,0.3-3.6-1.6c-0.1-0.3-0.6-0.6-0.9-0.6c-1.2-0.1-2.3-0.1-3.5,0c-0.3,0-0.9,0.4-1,0.6
		c-0.4,2-1.8,1.9-3.5,1.6c1.5-3.4,3-6.8,4.6-10.2c0.4-0.8,2.8-0.8,3.1,0C201.8,131.2,203.3,134.6,204.9,137.9z M198.6,130
		c-0.6,1.5-1.1,2.6-1.5,3.8c1.1,0,2,0,3.1,0C199.7,132.6,199.2,131.5,198.6,130z"/>
	<path class="st0" d="M99.6,138c-1.8,0.4-3.1,0.3-3.6-1.6c-0.1-0.3-0.6-0.6-1-0.6c-1.1-0.1-2.2-0.1-3.3,0c-0.4,0-0.9,0.3-1,0.6
		c-0.5,1.9-1.7,2-3.5,1.6c0.7-1.5,1.3-2.9,1.9-4.4c0.7-1.6,1.4-3.1,2.1-4.7c0.4-1,0.7-1.7,2.1-1.7c1.3,0,1.7,0.7,2.1,1.6
		C96.8,131.9,98.2,134.9,99.6,138z M93.3,130c-0.6,1.4-1.1,2.5-1.6,3.7c1.2,0,2.1,0,3.2,0C94.4,132.5,93.9,131.4,93.3,130z"/>
	<path class="st0" d="M156.6,138c-1.8,0.4-3.1,0.2-3.6-1.7c-0.1-0.3-0.6-0.5-0.9-0.6c-1.2-0.1-2.3-0.1-3.5,0c-0.3,0-0.9,0.4-0.9,0.7
		c-0.4,2-1.8,1.9-3.5,1.6c1.5-3.4,3-6.7,4.5-10c0.4-0.9,2.8-0.9,3.2,0C153.6,131.2,155.1,134.6,156.6,138z M148.8,133.7
		c1.2,0,2.1,0,3.1,0c-0.5-1.2-1-2.3-1.6-3.7C149.8,131.4,149.3,132.5,148.8,133.7z"/>
	<path class="st0" d="M187.2,127.8c-0.3,0.8-0.6,1.4-0.9,2.1c-2.2-0.7-4.4-0.7-5.6,1.7c-0.7,1.2-0.2,2.3,0.8,3.2
		c1.5,1.3,3.5,1.3,5.9-0.2c0.3,0.7,0.7,1.4,1,2.1c-3,2.1-7.5,1.6-9.7-1.1c-1.7-2-1.5-4.8,0.6-6.6C181.6,127,184.2,126.8,187.2,127.8
		z"/>
	<path class="st0" d="M56.9,138c0-3.6,0-7,0-10.6c1,0,1.8,0,2.8,0c0,3.5,0,7,0,10.6C58.8,138,57.9,138,56.9,138z"/>
	<path class="st0" d="M124.2,80.7c0,1,0.2,2.1-0.1,3c-0.2,0.8-1,1.5-1.7,1.9c-0.5,0.3-1.4,0.2-2.1,0.1c-1.1-0.2-1.8-0.8-1.8-2
		c0-1.9,0-3.8-0.1-5.7c0-1.3,0.8-2,2-2.1c0.7-0.1,1.6-0.2,2.2,0.1c0.6,0.3,1.2,1.1,1.4,1.9C124.4,78.6,124.2,79.7,124.2,80.7z
		 M122.6,80.7C122.6,80.7,122.6,80.7,122.6,80.7c0-0.7,0.2-1.4,0-2.1c-0.1-0.5-0.7-0.8-1.1-1.3c-0.4,0.4-1.2,0.8-1.2,1.3
		c-0.1,1.4-0.1,2.9,0.1,4.3c0,0.4,0.8,1.1,1.1,1.1c0.5-0.1,1.1-0.6,1.2-1.1C122.8,82.3,122.6,81.5,122.6,80.7z"/>
	<path class="st0" d="M131.6,89c-0.8,0.2-1.6,0.4-2.3,0.7c-0.9,0.4-1.5,0.1-1.6-0.9c0-0.3,0-0.6,0-0.9c0-0.2,0.1-0.4,0.2-0.6
		c2.1,0,4.1,0,6.4,0c-0.2,1-0.2,1.9-0.5,2.8c-0.2,0.9-0.6,1.7-0.8,2.6c-0.3,1.6-0.5,3.2-0.8,5c-0.8,0-1.8,0-3.2,0
		c1-2.8,1.9-5.5,2.9-8.2C131.8,89.3,131.7,89.1,131.6,89z"/>
	<path class="st0" d="M114.2,83.8c1.3,0,2.3,0,3.4,0c0.3,1.2,0.2,1.9-1.2,1.8c-1.3-0.1-2.7,0-4.1,0c-0.4-1.1-0.2-2,0.5-2.8
		c0.9-1,1.8-2,2.5-3.1c0.3-0.5,0.5-1.7,0.1-2c-0.5-0.5-1.4-0.3-1.7,0.7c-0.1,0.3-0.9,0.4-1.3,0.5c-0.5-1.9,0.3-2.9,1.9-3
		c1.4-0.1,2.7,0,3.3,1.5c0.5,1.3,0.4,2.6-0.8,3.7C115.9,81.7,115.2,82.7,114.2,83.8z"/>
	<path class="st0" d="M112.3,98.3c-0.4-1.8,0.2-2.6,1.1-3.4c2-1.8,3.8-3.7,5.8-5.5c0.7-0.6,1.6-0.8,2.4-1.2c0.2,0.2,0.4,0.4,0.5,0.6
		c-0.3,0.6-0.5,1.4-1,1.9c-2.1,2.1-4.2,4.2-6.3,6.2C114.2,97.4,113.2,97.7,112.3,98.3z"/>
	<path class="st0" d="M127.6,97.7c-1.2,0-2.2,0-3.4,0c0.2-0.7,0.5-1.2,0.5-1.8c0.1-2,0.7-3.9-0.3-5.9c-0.3-0.5-0.1-1.4,0.2-1.9
		c0.3-0.5,1.1-0.6,1.7-0.8c0.1,0,0.6,0.7,0.6,1.1c0.1,2,0,4,0.1,6C127,95.4,127.3,96.4,127.6,97.7z"/>
	<path class="st0" d="M134.5,76.3c-0.3,0.7-0.5,1.6-1.1,2.2c-1.8,2-3.6,3.9-5.5,5.8c-0.5,0.4-1.4,0.4-2.1,0.6c0.2-0.7,0.2-1.5,0.6-2
		c1.9-2.1,3.8-4.1,5.8-6.1c0.4-0.5,1.2-0.6,1.8-0.9C134.1,76,134.3,76.2,134.5,76.3z"/>
	<path class="st0" d="M115.9,97.8c2-2,3.9-4,5.9-6c0.3,1.1,0.3,2.1-0.8,2.9c-0.9,0.7-1.7,1.5-2.4,2.3C117.8,98,116.8,98,115.9,97.8z
		"/>
	<path class="st0" d="M136.6,74.4c0,1.4,0,2.8,0,4.1c-0.1,0-0.1,0-0.2,0c0-1.3,0-2.6,0-3.9c-8.7,0-17.3,0-26,0c0,4.1,0,8.1,0,12.1
		c-0.1,0-0.2,0-0.2,0c0-4.1,0-8.1,0-12.3C118.9,74.4,127.7,74.4,136.6,74.4z"/>
	<path class="st0" d="M118.2,88.5c-2.1,1.9-4,3.7-5.8,5.4C111.5,91.5,114.8,88.1,118.2,88.5z"/>
	<path class="st0" d="M131.4,76.1c-1.9,2.1-3.7,3.9-5.5,5.9C125.3,79.3,128.5,75.9,131.4,76.1z"/>
	<path class="st0" d="M128.9,84.9c1.8-2,3.4-3.7,5-5.5C134.7,82,131.9,85.2,128.9,84.9z"/>
	<path class="st0" d="M136.8,95.9c0-2.4,0-4.7,0-7.1c0,0,0.1,0,0.1,0C136.8,91.2,136.8,93.6,136.8,95.9
		C136.8,95.9,136.8,95.9,136.8,95.9z"/>
	<path class="st0" d="M112.2,90.1c0-0.5,0-1,0-1.6c0.6,0,1.1,0,1.9,0c-0.6,0.7-1.1,1.3-1.6,1.8C112.4,90.2,112.3,90.1,112.2,90.1z"
		/>
	<path d="M29.9,132.4c0-1.1,0-2.1,0-3.3c1.2,0.1,2.4,0,3.5,0.3c0.4,0.1,1,0.8,1,1.3c0,0.5-0.5,1.3-1,1.4
		C32.3,132.4,31.1,132.3,29.9,132.4z"/>
	<path d="M165,132.4c0-1.1,0-2.1,0-3.3c1.1,0.1,2.2,0,3.2,0.2c0.5,0.1,1.3,0.9,1.2,1.3c-0.1,0.6-0.7,1.4-1.2,1.5
		C167.2,132.5,166.2,132.3,165,132.4z"/>
	<path d="M73.5,136c0-2.3,0-4.4,0-6.6c1.8,0,3.7-0.5,5,1.2c0.9,1.2,0.9,2.7,0.1,4C77.4,136.6,75.4,135.9,73.5,136z"/>
	<path d="M198.6,130c0.6,1.5,1.1,2.6,1.6,3.8c-1.1,0-2,0-3.1,0C197.6,132.6,198,131.5,198.6,130z"/>
	<path d="M93.3,130c0.6,1.4,1.1,2.5,1.6,3.7c-1.1,0-2,0-3.2,0C92.3,132.5,92.7,131.4,93.3,130z"/>
	<path d="M148.8,133.7c0.5-1.2,1-2.3,1.5-3.7c0.6,1.4,1.1,2.5,1.6,3.7C150.9,133.7,150,133.7,148.8,133.7z"/>
	<path d="M122.6,80.7c0,0.7,0.2,1.5-0.1,2.2c-0.1,0.5-0.7,1-1.2,1.1c-0.3,0.1-1-0.6-1.1-1.1c-0.2-1.4-0.2-2.9-0.1-4.3
		c0-0.5,0.8-0.9,1.2-1.3c0.4,0.4,1,0.8,1.1,1.3C122.8,79.3,122.6,80,122.6,80.7C122.6,80.7,122.6,80.7,122.6,80.7z"/>
</g>
</svg>
