<?xml version="1.0" encoding="utf-8"?>
<!-- Generator: Adobe Illustrator 25.2.1, SVG Export Plug-In . SVG Version: 6.00 Build 0)  -->
<svg version="1.1" id="Camada_1" xmlns="http://www.w3.org/2000/svg" xmlns:xlink="http://www.w3.org/1999/xlink" x="0px" y="0px"
	 viewBox="0 0 247.2 202.1" style="enable-background:new 0 0 247.2 202.1;" xml:space="preserve">
<style type="text/css">
	.st0{fill:#51CFA6;}
	.st1{fill:#3B3B3B;}
	.st2{fill:#3E3E3E;}
	.st3{fill:#3D3D3D;}
	.st4{fill:#3C3C3C;}
	.st5{fill:#4B4B4B;}
	.st6{fill:#424242;}
	.st7{fill:#434343;}
	.st8{fill:#4A4A4A;}
	.st9{fill:#F3F3F3;}
	.st10{fill:#515151;}
	.st11{fill:#FCFDFD;}
	.st12{fill:#F8FCFB;}
	.st13{fill:#F9FDFB;}
	.st14{fill:#FAFDFC;}
	.st15{fill:#F7FCFA;}
	.st16{fill:#F9FCFB;}
	.st17{fill:#DFF5ED;}
	.st18{fill:#F0F0F0;}
	.st19{fill:#F7F7F7;}
	.st20{fill:#EDEDED;}
	.st21{fill:#F5F5F5;}
	.st22{fill:#E4E4E4;}
	.st23{fill:#51CFA7;}
	.st24{fill:#52CFA7;}
	.st25{fill:#60D3AD;}
	.st26{fill:#53D0A7;}
</style>
<g>
	<path class="st0" d="M125.8,143c-36.4-0.1-65.5-29.5-65.4-66.2c0.1-35.6,29.8-64.8,66-64.7c36.2,0.1,65.4,29.6,65.3,66
		C191.5,113.9,161.9,143.1,125.8,143z"/>
	<path class="st1" d="M92.6,167.6c0,0.9,0,1.8,0,2.7c-0.1,5.1-3.9,7.4-8.6,5.1c-0.6-0.3-1.1-0.4-0.6-1.2c0.4-0.6,0.6-1.5,1.7-1.3
		c1,0.2,1.9,0.3,2.9,0.4c0.5,0,1-0.3,1-0.8c0-0.7-0.6-0.7-1.1-0.7c-0.5,0-1,0-1.5,0c-2.5-0.3-4.4-2.3-4.6-4.7
		c-0.2-2.3,1.7-4.6,4.1-5.1c0.4-0.1,0.8-0.2,1.2-0.2C92.6,161.7,92.6,161.7,92.6,167.6z"/>
	<path class="st2" d="M18.7,164.6c0-0.7-0.1-1.4,0-2.1c0.4-1.5-1.1-3.5,0.8-4.6c2-1.1,7.8,0.1,9.1,1.5c2.1,2.4,0.4,6.3-3.2,6.5
		c-3,0.2-4.1,1-3.6,3.9c0.2,1-0.1,1.7-1.4,1.7c-1.2,0-1.8-0.3-1.8-1.6C18.7,168.2,18.7,166.4,18.7,164.6z"/>
	<path class="st2" d="M136,171.6c-3.8,0.1-6.6-1.7-7.6-4.6c-1.1-2.8-0.4-5.3,1.8-7.3c2.2-2.1,5.9-2.6,8.7-1.4
		c1.1,0.5,0.9,1.1,0.7,1.9c-0.2,1-0.7,1.3-1.7,0.8c-0.3-0.2-0.8-0.2-1.1-0.3c-2-0.6-3.5,0-4.7,1.6c-1.1,1.5-1.2,3.1-0.2,4.7
		c1.1,1.7,2.7,2.2,4.6,2c0.6-0.1,1.1-0.3,1.7-0.5c0.6-0.2,1.3-1,1.6,0.2c0.2,0.8,0.5,1.9-0.7,2.2C137.8,171.2,136.6,171.5,136,171.6
		z"/>
	<path class="st3" d="M116.4,167.9c1.8,1.7,3.2,1.5,4.5,1.1c0.8-0.3,1.1,0.2,1.3,0.7c0.4,0.6,0.1,1-0.5,1.4
		c-1.9,1.2-5.6,0.6-7.4-1.2c-1.8-1.8-1.9-3.8-0.5-5.9c1.3-2,4.3-2.8,6.6-1.8c0.9,0.4,1.7,1,2.2,1.9c1.5,2.4,0.9,3.7-1.9,3.8
		C119.6,167.9,118.4,167.9,116.4,167.9z"/>
	<path class="st1" d="M75.8,171.6c-3,0-5.5-2.4-5.4-5.1c0.1-2.7,2.4-4.7,5.4-4.7c3.2,0,5.5,2.1,5.5,4.9
		C81.3,169.5,78.9,171.7,75.8,171.6z"/>
	<path class="st1" d="M60.2,171.6c-2.9-0.1-5.3-2.3-5.3-4.9c0-2.8,2.3-5,5.5-4.9c3.2,0,5.5,2.2,5.4,5
		C65.8,169.6,63.2,171.7,60.2,171.6z"/>
	<path class="st1" d="M200.5,171.6c-3,0-5.5-2.4-5.4-5.1c0.1-2.7,2.4-4.7,5.4-4.7c3.2,0,5.5,2.1,5.5,4.9
		C206.1,169.5,203.6,171.7,200.5,171.6z"/>
	<path class="st1" d="M145.5,171.6c-2.9-0.1-5.3-2.3-5.3-4.9c0-2.9,2.3-5,5.5-5c3.2,0,5.5,2.1,5.5,5
		C151.1,169.6,148.6,171.7,145.5,171.6z"/>
	<path class="st1" d="M104.5,165.5c-0.9-1.9-2.2-1.4-3.2-1c-1.1,0.5-1.7,0.1-2.1-0.8c-0.7-1.5,0.8-1.4,1.4-1.6c4.7-1.5,7,0.2,7,5.1
		c0,0.9-0.1,1.8,0,2.7c0.1,1.3-0.4,1.7-1.7,1.7c-1.1-0.1-2.1-0.2-3.2,0c-2.2,0.3-4-0.6-4.2-3c-0.2-2.4,1.7-2.9,3.6-3
		C102.8,165.4,103.5,165.5,104.5,165.5z"/>
	<path class="st1" d="M226.2,165.5c-1-1.9-2.3-1.4-3.3-1c-1.2,0.5-1.7,0-2-0.9c-0.6-1.5,0.8-1.3,1.5-1.5c4.7-1.4,6.9,0.2,6.9,5.2
		c0,0.9-0.1,1.8,0,2.7c0.1,1.3-0.5,1.7-1.7,1.6c-1.1-0.1-2.1-0.2-3.2,0c-2.1,0.3-3.9-0.5-4.2-2.8c-0.3-2.5,1.5-3.1,3.6-3.3
		C224.5,165.4,225.2,165.5,226.2,165.5z"/>
	<path class="st2" d="M161.8,171.6c-2.4,0.5-3.5-0.4-3-2.9c0.1-0.4,0.1-0.8,0-1.2c-0.2-1.2,0.8-3.1-1.6-3.1c-2.2,0-1.6,1.8-1.7,3.1
		c-0.1,1,0,2,0,3c0,1.2-0.8,1.1-1.6,1.2c-0.9,0-1.6-0.1-1.5-1.2c0-2.4,0-4.7,0-7.1c0-0.7,0.3-1.2,1-1.2c3,0.1,6.2-1.2,8.6,1.8
		C163.1,166.4,163,169,161.8,171.6z"/>
	<path class="st4" d="M182,166.9c-0.5,1.3,1,3.7-0.8,4.3c-2.1,0.7-4.6,0.9-6.9-0.2c-1.2-0.6-1.9-1.4-1.9-2.7c0-1.6,0.1-3.2,0-4.7
		c-0.1-1.4,0.8-1.5,1.8-1.6c1.3-0.1,1.5,0.6,1.4,1.6c0,1.4,0,2.8,0,4.2c0,1.1,0.5,1.6,1.6,1.6c1.1,0,1.7-0.5,1.7-1.6
		c0-1.3,0-2.6,0-3.9c0-1.1,0-1.9,1.5-1.9c1.3,0,1.7,0.6,1.6,1.8C181.9,164.7,182,165.6,182,166.9z"/>
	<path class="st3" d="M162.9,163.8c2-2.2,4.4-2.3,7.1-1.7c0.6,0.1,1.5,0.3,1.3,1.2c-0.2,0.8-0.7,1.4-1.7,1c-1.1-0.4-2.3-0.5-3.5,0.5
		c0.8,1,2,0.6,2.9,0.7c1.5,0.2,2.8,0.8,3.1,2.2c0.3,1.5-0.9,2.5-2.2,3.1c-2.3,1.1-4.6,0.8-6.9,0c-0.4-2.7,0.1-3,3.3-2.3
		C162.7,167.3,162.3,166.6,162.9,163.8z"/>
	<path class="st3" d="M35.7,168.4c-1.2-0.9-2.5-0.3-3.6-0.7c-1.3-0.5-2.3-1.2-2.4-2.7c-0.1-1.4,0.8-2.2,2-2.7
		c1.8-0.8,3.7-0.8,5.5-0.1c0.5,0.2,1.3,0.3,0.9,1.2c-0.2,0.6-0.5,1.3-1.5,1c-1.2-0.4-2.5-0.7-3.7,0.6c1.1,0.9,2.3,0.5,3.4,0.7
		c1.3,0.2,2.3,0.8,2.5,2.2c0.2,1.3-0.4,2.3-1.6,3c-2,1.1-4.2,1.2-6.3,0.5c-0.7-0.2-1.6-0.5-1-1.6c0.4-0.8,0.9-1.2,1.9-0.7
		C33.1,169.5,34.4,169.4,35.7,168.4z"/>
	<path class="st2" d="M50.8,171.7c-2.8-0.1-4.8-1.1-5.6-3.5c-0.7-2.2-0.1-4.1,1.9-5.4c2.2-1.5,4.5-1,6.8-0.2
		c0.7,0.2,0.6,0.7,0.3,1.2c-0.4,0.6-0.6,1.5-1.7,1.2c-0.6-0.2-1.3-0.4-2-0.5c-1.5-0.1-2.2,0.9-2.3,2.2c-0.1,1.5,0.6,2.5,2.2,2.6
		c0.6,0,1.2-0.1,1.7-0.3c1.3-0.6,1.9,0.2,2.2,1.2c0.4,1.3-0.9,1-1.5,1.2C52.1,171.5,51.2,171.6,50.8,171.7z"/>
	<path class="st5" d="M188.1,164.3c-1.7,1.5-0.6,3.5-0.8,5.2c-0.2,1.1,0.1,2.1-1.6,2.1c-1.6,0-1.7-0.8-1.7-2c0-3.4,0.1-6.7,0-10.1
		c0-1.3,0.4-2,1.8-2.1c1.8-0.1,1.4,1.2,1.5,2.2c0.1,0.9-0.4,2.1,0.9,2.6C188.7,162.8,188.7,163.5,188.1,164.3z"/>
	<path class="st2" d="M188.1,164.3c0-0.7,0-1.4,0-2.2c0.7-0.2,1.3-0.4,1.3-1.3c-0.1-1.4,1.1-1.1,1.9-1.3c0.9-0.2,1.3,0.3,1.3,1.1
		c0,0.3,0.1,0.8,0.2,0.8c2.5,1.1,4,2,0.1,3.3c-0.9,0.3-0.2,3.5,0.9,3.9c0.9,0.3,1.3,1.1,1.4,1.7c0.1,1-1,1-1.7,1.2
		c-2.6,0.6-3.9-0.8-4.2-3.9C189.1,166.5,190.4,164.7,188.1,164.3z"/>
	<path class="st6" d="M69.6,164.6c0,1.8,0,3.6,0,5.3c0,1-0.1,1.7-1.4,1.7c-1.2,0-1.8-0.3-1.8-1.6c0.1-3.6,0.1-7.1,0-10.7
		c0-1.5,0.7-1.9,2-1.9c1.4,0,1.2,1,1.2,1.9C69.6,161,69.6,162.8,69.6,164.6z"/>
	<path class="st7" d="M206.5,166.7c0-0.2,0-0.4,0-0.6c0.3-1.3-0.7-3.3,0.6-3.8c1.8-0.7,4-0.6,6.1-0.3c0.7,0.1,1.4,0.5,1,1.4
		c-0.3,0.7-0.5,1.6-1.7,1.2c-2.8-1-2.7,0.8-2.9,2.7c-0.2,1.4,1.7,4.1-1.4,4.1c-3.3,0.1-0.9-2.9-1.8-4.2
		C206.5,167.1,206.6,166.9,206.5,166.7z"/>
	<path class="st8" d="M43.6,166.8c0,1,0,2,0,3c0.1,1.1-0.1,1.9-1.6,1.8c-1.3,0-1.8-0.4-1.7-1.7c0.1-2.1,0.1-4.1,0-6.2
		c0-1.3,0.6-1.7,1.8-1.7c1.6-0.1,1.5,0.8,1.5,1.9C43.5,164.8,43.6,165.8,43.6,166.8z"/>
	<path class="st8" d="M97.3,166.8c0,1.1-0.1,2.2,0,3.2c0.1,1.2-0.4,1.5-1.6,1.5c-1,0-1.7-0.1-1.7-1.4c0.1-2.2,0.1-4.3,0-6.5
		c0-1.3,0.6-1.6,1.8-1.7c1.6-0.1,1.5,0.9,1.5,1.9C97.3,164.8,97.3,165.8,97.3,166.8z"/>
	<path class="st8" d="M219,166.9c0,1.1-0.1,2.2,0,3.3c0.1,1.3-0.6,1.4-1.7,1.4c-1.1,0-1.6-0.3-1.6-1.5c0.1-2.2,0.1-4.3,0-6.5
		c0-1.4,0.8-1.6,1.9-1.6c1.3-0.1,1.4,0.7,1.4,1.7C219,164.7,219,165.8,219,166.9z"/>
	<path class="st9" d="M162.9,163.8c-0.5,4.6,3.3,3.7,5.9,4.3c-1,1.5-2.4,1.3-3.5,0.9c-2.1-0.8-2.4,0.2-2.3,1.9
		c-0.4,0.2-0.8,0.4-1.2,0.6c0.4-2.6,0.2-5.2,0.1-7.7C162.2,163.8,162.6,163.8,162.9,163.8z"/>
	<path class="st10" d="M219.1,158.5c0,1.1-0.7,1.6-1.7,1.7c-1,0.1-1.8-0.5-1.8-1.5c-0.1-1.1,0.6-1.6,1.7-1.6
		C218.2,157,219,157.3,219.1,158.5z"/>
	<path class="st10" d="M95.6,160.2c-1-0.2-1.8-0.6-1.7-1.7c0-1.1,0.8-1.6,1.8-1.5c1,0.1,1.7,0.5,1.7,1.6
		C97.3,159.7,96.5,160,95.6,160.2z"/>
	<path class="st10" d="M42,157c1,0.2,1.7,0.5,1.7,1.7c-0.1,1.1-0.9,1.5-1.8,1.5c-1,0-1.7-0.6-1.7-1.7C40.2,157.4,41,157,42,157z"/>
	<path class="st11" d="M87.3,92.9c-2.7,0-4.8,0-6.9,0c2-2.3,2-14.6,0-17.1c2.2,0,4.3,0,6.4,0c2.8-0.1,5.2,0.6,6,3.7
		c0.7,2.8-1.1,4.4-3.6,5.6c3.6,1.5,2.5,5.9,5.7,7.7c-4.3,0.8-4.6,0.6-6.2-3.1c-0.6-1.5-0.5-4.5-2.5-4c-1.8,0.4-0.5,3.3-0.8,5
		C85,91.8,86.4,92,87.3,92.9z"/>
	<path class="st12" d="M148.6,86.8c0,3.5-2.4,6.1-5.5,6.2c-3.2,0-5.7-2.7-5.7-6.3c0-3.6,2.6-6.3,5.8-6.2
		C146.3,80.6,148.6,83.4,148.6,86.8z"/>
	<path class="st13" d="M119.8,82.9c1.9-2.3,3.9-2.9,6.2-2c2.1,0.8,2.3,2.6,2.4,4.6c0.1,2.3-0.9,4.9,1.2,7.2c-1.6,0.2-3,1.1-4.3-0.6
		c-0.6-0.8-0.9,0.2-1.4,0.4c-1.9,0.9-3.5,0.8-4.6-1.1c-1.1-2.1,0.1-3.4,1.9-4.3c0.7-0.4,1.5-0.5,2.2-0.8c1.1-0.3,2.2-0.6,1.8-2.1
		c-0.3-1.4-1.2-2-2.6-1.9C121.9,82.4,121.1,82.6,119.8,82.9z"/>
	<path class="st14" d="M105.8,90.1c-2.3,3-5.1,3.6-7.5,2c-2.6-1.7-3.5-5.9-1.8-8.8c1.6-2.6,4.7-3.7,7.2-2.4c1.1,0.6,1.8,1.5,2.2,2.7
		c0.5,1.7,0.1,2.5-1.8,2.3c-0.6,0-1.2-0.1-1.8,0c-1.1,0.2-2.6-0.7-3.2,0.7c-0.5,1.1,0,2.3,0.8,3.3c0.9,1.2,2.1,1.4,3.4,1.1
		C104,91.1,104.6,90.7,105.8,90.1z"/>
	<path class="st14" d="M169.3,90.6c-1.9,2.6-4.7,3.2-7.2,1.6c-2.6-1.7-3.5-5.9-1.8-8.8c1.5-2.6,4.7-3.7,7.2-2.4
		c1.1,0.6,1.8,1.4,2.2,2.7c0.5,1.6,0.1,2.5-1.7,2.3c-0.6,0-1.2-0.1-1.8,0c-1.1,0.2-2.6-0.7-3.2,0.7c-0.5,1.1,0,2.3,0.8,3.3
		c1,1.3,2.3,1.4,3.7,1.1C168.1,91,168.5,90.2,169.3,90.6z"/>
	<path class="st15" d="M131.5,75.8c-0.2,0.1,0.1-0.1,0.5-0.2c2.1-0.6,3.5-1,3.1,2.3c-0.4,3.6-0.1,7.3-0.1,10.9c0,1.4-0.5,3,1.2,4.1
		c-1.7,0-3.3,0-4.8,0C132.5,87.3,132.4,81.7,131.5,75.8z"/>
	<path class="st16" d="M154.5,82.5c0.7-0.6,1.4-1.4,2.3-1.8c0.9-0.4,1.8-0.1,2,1.1c0.1,1-0.5,1.7-1.4,1.4c-2.6-0.6-3,1.4-3,2.9
		c0,2.3-1.8,5.2,1.7,6.8c-1.9,0-3.9,0-5.8,0c1.5-2.7,1.4-9.4-0.3-11.6C151.7,81.4,153.8,78.8,154.5,82.5z"/>
	<path class="st14" d="M114.7,90.7c-0.2,1.1-0.1,2.3-1.6,2.4c-1.4,0.1-1.4-1.2-1.8-2c-0.7-1.7-1.2-3.5-2-5.3
		c-0.7-1.7-0.9-3.6-3.2-5.1c2.5,0,4.3,0,6.2,0c-1.8,3,1.1,5.3,1.2,8.1C113.7,89.5,115.1,89.5,114.7,90.7z"/>
	<path class="st17" d="M114.7,90.7c-0.4-0.6-1.4-0.9-1.2-1.9c2.2-1.7,2.9-5.6,1.3-8c1.5-0.4,2.9-0.3,4.5-0.1
		C116,83.4,116.4,87.5,114.7,90.7z"/>
	<path class="st18" d="M89.3,166.8c0.1,1.5,0,2.5-1.7,2.5c-1.6,0-2.4-0.9-2.5-2.3c0-1.3,0.5-2.5,2.2-2.5
		C89.1,164.5,89.6,165.3,89.3,166.8z"/>
	<path class="st19" d="M23.5,163.7c-1.4,0.2-1.8-0.5-1.7-1.7c0-1,0.2-1.8,1.5-1.6c1.1,0.2,2.7,0,2.8,1.5
		C26.2,163.4,24.7,163.5,23.5,163.7z"/>
	<path class="st20" d="M116.6,165.6c0.9-1.6,1.8-1.4,3.3-0.5C118.7,166.1,117.7,165.6,116.6,165.6z"/>
	<path class="st21" d="M78.2,166.7c-0.1,1.4-0.7,2.5-2.3,2.5c-1.4,0-2.2-1-2.2-2.3c0-1.5,0.7-2.5,2.3-2.5
		C77.4,164.3,78,165.3,78.2,166.7z"/>
	<path class="st21" d="M60.2,169.2c-1.4-0.4-2.3-1.2-2.1-2.7c0.2-1.3,0.9-2.2,2.4-2.1c1.6,0.1,2.2,1.2,2.1,2.7
		C62.5,168.3,61.7,169.1,60.2,169.2z"/>
	<path class="st21" d="M202.9,166.8c-0.2,1.3-0.8,2.3-2.2,2.3c-1.5,0-2.4-1-2.4-2.5c0.1-1.5,0.9-2.4,2.5-2.3
		C202.3,164.4,202.8,165.5,202.9,166.8z"/>
	<path class="st21" d="M148,166.8c-0.2,1.3-0.7,2.3-2.2,2.3c-1.5,0-2.4-1-2.4-2.5c0-1.5,0.9-2.4,2.5-2.3
		C147.4,164.4,147.9,165.5,148,166.8z"/>
	<path class="st22" d="M104.5,168c0.2,1.1-0.5,1.3-1.1,1.3c-0.7,0-1.5,0.1-1.7-0.8c-0.1-0.8,0.7-0.9,1.2-1
		C103.6,167.4,104.3,167.4,104.5,168z"/>
	<path class="st22" d="M226.3,168.4c0,0.8-0.6,0.9-1.2,0.9c-0.7,0-1.6,0-1.6-0.9c0-0.8,0.9-0.9,1.6-0.9
		C225.7,167.4,226.2,167.7,226.3,168.4z"/>
	<path class="st23" d="M89.2,80.4c0,1,0,2-0.6,2.8c-0.6,0.8-1.4,1-2.4,0.9c-1.1-0.2-0.9-1.1-0.9-1.9c0-0.9-0.1-1.8,0-2.7
		c0.1-1-0.7-2.6,1.3-2.7c1.8-0.1,2.4,1.1,2.6,2.6C89.1,79.8,89.1,80.1,89.2,80.4z"/>
	<path class="st24" d="M145.3,86.7c-0.4,1.9,0.7,5-2.1,5.1c-3.2,0.1-2.3-3.1-2.4-5.1c0-1.9-0.6-4.9,2.2-4.9
		C146,81.7,144.9,84.8,145.3,86.7z"/>
	<path class="st25" d="M125.3,88.5c-0.3,1.1-0.3,2.7-2,2.7c-1.1,0-1-1-1-1.8c0-1.6,0.9-2.4,2.3-2.5
		C125.7,86.8,125.1,87.9,125.3,88.5z"/>
	<path class="st26" d="M101.1,85.3c-0.9-0.2-2.3,0.4-2-1.3c0.2-1.3,0.9-2.5,2.4-2.4c1.4,0.1,1.6,1.1,1.7,2.3
		C103.4,85.7,102,85.2,101.1,85.3z"/>
	<path class="st26" d="M165,85.3c-0.7-0.3-2.1,0.6-2-1.1c0.1-1.3,0.8-2.5,2.3-2.5c1.4,0,1.7,1,1.8,2.2
		C167.3,85.5,166.1,85.3,165,85.3z"/>
</g>
</svg>
