<?xml version="1.0" encoding="utf-8"?>
<!-- Generator: Adobe Illustrator 25.2.1, SVG Export Plug-In . SVG Version: 6.00 Build 0)  -->
<svg version="1.1" id="Camada_1" xmlns="http://www.w3.org/2000/svg" xmlns:xlink="http://www.w3.org/1999/xlink" x="0px" y="0px"
	 viewBox="0 0 247.2 202.1" style="enable-background:new 0 0 247.2 202.1;" xml:space="preserve">
<style type="text/css">
	.st0{fill:#162B84;}
</style>
<g>
	<path class="st0" d="M241.9,85.5c-9.3-7.4-19.6-12.8-31.2-16.1c-30.3-8.6-61.4-11.2-92.7-10.9c-31.6,0.3-62.8,3.6-92.8,14.2
		c-7,2.5-13.5,6.1-19,11.2C-2,91.6-2,99.6,5.9,107.4c5.6,5.5,12.4,8.9,19.6,11.5c31.6,11.3,64.5,13.8,96.5,14.7
		c31.4-0.8,61.3-3.3,90.4-11.9c10.7-3.2,20.5-8.4,29.3-15.3C248,101.4,248.3,90.6,241.9,85.5z M211.5,115.9
		c-42.8,11.7-86.3,12.9-130.2,8.9c-19-1.7-37.5-5.3-55.5-11.5c-6-2.1-11.5-4.9-16-9.5c-3.7-3.8-5.2-8.1-2.1-13.2
		c3.5-5.8,7.7-7.7,13.6-6.5c20.8,4.5,41.8,4.5,62.9,1.9c10.6-1.3,21.1-3.1,31.6-4.6c2.2-0.3,4.4-0.3,6.5-0.4
		c-18.6,7.2-35.7,20.5-57.4,14.7c-0.5,7.4,4.2,12.6,13.1,14.5c9,1.9,18,0.8,26.9-0.7c10.9-1.9,21.8-4.4,32.6-6.7
		c25.4-5.4,50.6-4.5,75.6,2.4c3.7,1,7.5,2.2,11,5C220.2,113.6,215.8,114.7,211.5,115.9z M235.5,102.9c-2.7,3.6-5.4,1.4-8,0.4
		c-34.5-12-69.6-13.7-105.3-5.7c-8.9,2-17.9,4.6-27.4,3.9c23.3-8,44.2-24.2,71.5-20.8c-3.9-7.6-10.6-8.9-17.5-9.3
		c-15.6-0.9-30.9,2.4-46.1,4.8c-16.2,2.6-32.4,5.4-49,5c-7.4-0.2-14.7-0.9-21.7-4.1c14.6-6.1,29.9-8.3,45.2-9.8
		c45-4.5,89.7-3.7,133.6,8.3c7.4,2,14.4,5.1,20.7,9.5c2.5,1.8,4.6,4,5.8,6.8C239.3,95.9,238.1,99.4,235.5,102.9z"/>
	<path class="st0" d="M57.4,54.9c-2.6-0.5-4.7-1.8-7-3.6c1.3-2.2,3.4-2.1,4.9-3.1c1.6-1.1,4.4-1.2,4.3-3.9c-0.1-3.1-3-3.3-5.1-3.7
		c-11.2-2.1-22.6-0.7-33.9-0.8c-1.8,0-3.5,2.5-1.6,3.1c6.6,2.3,1.9,5.6,0.8,7.9C15.1,60.3,11.1,70.1,2.3,77
		c10.1-5.5,20.4-9.7,31.3-13.7c-3.9-1.1-5.1-2.3-3.1-5.8c2.4-4.2,4.7-4.2,8.3-1.6c7.9,5.8,16.4,4.7,25,1.8
		C61.7,56.3,59.6,55.4,57.4,54.9z M42.8,48.6c-2.3,1.4-4.8,2.5-8.1,1.4c1.1-3.8,0.4-8.6,6.8-7.7c1.7,0.3,3.2,0.9,3.7,2.5
		C45.7,46.8,44.1,47.9,42.8,48.6z"/>
	<path class="st0" d="M190.4,39.9c7,0,13.9,0,22.2,0c-4.6,3-5,5.8-1,8.5c0.7,0.5,1,1.6,1.2,2.5c2.6,10.8,12.5,13.4,20.4,18
		c2.1,1.2,5.6,0.4,8.1,1.8c4.6,2.7,7,6.3,5.3,12.9C232,70.5,216.6,60.5,194.8,60c7.9-3.8,3.5-7.3,2.5-10.4c-1.2-3.7-1.9-8.1-8.2-8.1
		C189.5,41,190,40.4,190.4,39.9z"/>
	<path class="st0" d="M165.8,49.5c-0.3,3.9,0.9,5.4,4.2,5.3c5.5-0.1,11,0.8,16.5-0.7c1.1-0.3,3.7-0.6,3.8,1.8
		c0.1,2.4-1.7,2.9-3.8,2.6c-12.2-1.6-24.4-1.2-36.7-1.6c-0.6,0-1.2-0.4-1.9-0.7c0.7-2.7,5.8-0.2,4.8-4.3c-1.2-4.7-0.6-10.7-8.2-11.7
		c12.3-0.3,24.2-1.9,35.9,1.5c-5.4,3.7-10.9-1.7-16.3,1c-1.1,3.5,1.1,4.2,3.9,4.1c3.7-0.1,7.3-0.4,11-0.6c2.2-0.1,4.6,0.2,4.4,3
		c-0.2,3.4-3.1,2.3-4.7,1.8C174.5,49.6,170.2,50.1,165.8,49.5z"/>
	<path class="st0" d="M100.7,40.2c9.4,0,18.8-0.1,28.2,0c2.3,0,4.6,0.4,6.8,0.9c1.7,0.4,4,1.1,4,3.2c0,2.1-2.1,2.9-3.8,3.6
		c-4,1.5-8.1,1.2-12.5,0.5c-0.1-2.9,3.9-1.3,3.9-4.5c-3.2-2.4-6.5-1.7-10.8,0.4c4.1,3.2-0.1,11,8.2,11.4c-7.7,2.4-15.3,1.4-23.3,1.5
		c3.3-2.1,4.4-4.8,4.1-8.5c-0.3-3.6-1-6.5-5.8-7.1C100.1,41.1,100.4,40.6,100.7,40.2z"/>
	<path class="st0" d="M94.2,56.1c-8,0.7-16.1,1.5-24.1,2.2c-0.2-0.4-0.4-0.9-0.6-1.3c2.9-1.8,6.9-2.6,6.8-7.1
		c-0.1-3.4,2.8-7.8-4.5-8.2c5-2.3,13.9-2.8,24.3-1.6c-2.9,2-6.9,2.5-5.7,7.2C91.2,50.4,89.3,54.5,94.2,56.1z"/>
	<path class="st0" d="M222.2,145L222.2,145c0.1,0,0.1,0.1,0.2,0.1L222.2,145z M213.9,132.8c-1-1.5-2.2-2.2-4-2
		c-1.6,0.2-2.6,0.8-2.7,2.5c-0.1,5.6-2.3,11.1-1,16.8c3.2,0.1,4.6-2.5,6.8-3.5c2.6-1.2,4.8,0.8,7.2,0.9c1.4,0,1.6-1.4,2-2.5
		C218.3,141.7,216.7,136.9,213.9,132.8z M214.4,142.8c-0.1,0.3-1.3,0.8-1.7,0.6c-2.5-1.3-0.4-3.5-1-5.4
		C213.7,139.1,214.8,140.6,214.4,142.8z"/>
	<path class="st0" d="M54,142.4c2.1-2.7,1.7-5.6-1.1-7.1c-3.3-1.7-7.2-4.3-10.7-0.2c0,0.1-0.1,0.1-0.1,0.2l0.2-0.2
		c0.5,3.7-1,7.2-1.5,10.8c-0.2,1.6-1.7,4.1,0.8,4.8c2.7,0.8,2.5-2,2.9-3.6c0.4-1.6,0.4-3.4,2.9-2.8c1.7,0.4,3,1.3,2.8,3.3
		c-0.1,0.9-0.2,1.9-0.2,2.8c0,1.2,0.2,2.4,1.7,2.6c2.2,0.3,1.5-1.6,2.1-2.7C55.1,147.7,52,145,54,142.4z M49.1,141.6
		c-1.3,0.1-2.9-0.1-3-2c0-0.2,0-0.5,0-0.7c0,0,0-0.1,0-0.1c0-0.1,0-0.2,0-0.3c0,0,0-0.1,0-0.1c0-0.1,0-0.2,0.1-0.3c0,0,0-0.1,0-0.1
		c0,0,0-0.1,0-0.1c0,0,0-0.1,0.1-0.1c0,0,0-0.1,0.1-0.1c0-0.1,0.1-0.2,0.2-0.2c0,0,0,0,0,0c0,0,0.1-0.1,0.1-0.1
		c0.1,0,0.1-0.1,0.2-0.1c0.1,0,0.2-0.1,0.2-0.1c0,0,0.1,0,0.1-0.1c0.1,0,0.2-0.1,0.2-0.1c0.2,0,0.4-0.1,0.6-0.1c0.1,0,0.2,0,0.3,0
		c0.2,0,0.4,0.1,0.5,0.1c0.1,0,0.2,0,0.3,0.1c0.1,0,0.2,0,0.3,0.1c0.1,0,0.2,0,0.3,0.1c0,0,0.1,0,0.1,0c0,0,0.1,0,0.1,0
		c0.1,0,0.2,0.1,0.2,0.1c0.3,0.2,0.6,0.4,0.8,0.6c0,0.1,0.1,0.1,0.1,0.2c0,0.1,0.1,0.1,0.1,0.2c0,0,0,0.1,0.1,0.2
		c0,0.1,0.1,0.2,0.1,0.4C51.6,140.5,50.5,141.4,49.1,141.6z"/>
	<path class="st0" d="M104.6,139.9c-4.6,0.2-7.2,3.8-7.2,9.9c0,5.5,2.8,8.8,7.5,8.6c4.6-0.1,7.2-3.5,7.2-9.1
		C112.1,143.4,109.2,139.7,104.6,139.9z M104.8,155.2c-3.4,0.4-3.8-2.8-3.6-5.4c0.2-2.6-0.4-6.2,3.5-6.6c3.5-0.3,3.7,2.7,3.6,5.7
		C108.4,151.5,108.3,154.8,104.8,155.2z"/>
	<path class="st0" d="M95.8,145.5c-4.1-0.1-6.2-6.7-9.9-2.3c-2.2,2.6-3,6.5-0.8,9.7c3.3,4.8,6.1-1.4,10-1c-0.6,4.2-3.3,7-5.6,9.7
		c-0.9,1.1-5,2.4-3.4-2.3c1-2.8-1.6-2.2-2.6-3.1c-4.7-3.9-3.3-8.8-1.7-13.3c1.5-4.4,5.6-4.3,9.3-3.7
		C93.9,139.8,95.8,141.5,95.8,145.5z"/>
	<path class="st0" d="M114,154c2.6-1.5,4.5-0.2,6.3,1.2c1.5,1.2,3.3,0.9,4.3-0.6c1.3-2-0.6-2.8-1.9-3.6c-0.6-0.4-1.3-0.5-1.9-0.7
		c-2.7-1-6.4-1.2-6.2-5.3c0.1-2.9,2.4-4.1,5.2-4.4c3.7-0.4,7.3-0.7,8.6,4.3c-0.9,0.2-1.6,0.7-2.1,0.5c-2.1-1-4.6-4.2-6.1-0.7
		c-1.2,2.8,2.9,2.8,4.7,3.7c2.8,1.4,4.7,3.3,3.8,6.5c-0.9,3.2-3.7,4.1-6.6,3.7C118.9,158.3,115,158.7,114,154z"/>
	<path class="st0" d="M189.8,152.6c-4.8,2.2-9.1,2.9-13.6,1.9c-0.9-0.2-2.9-14.9-2.4-16.1c0.8-1.9,6.4-2.7,13-1.7
		c-1.6,2.4-4.1,2.1-6.1,2.5c-1.6,0.4-3.3,0.3-2.9,2.7c0.4,2.3,2,2,3.7,2c1.7-0.1,3.5-0.8,4.9,0.4c-0.4,4.1-7.8,0.4-5.9,5.7
		c1.5,4.2,5.4-0.2,7.9,1.2C188.4,151.4,188.6,151.6,189.8,152.6z"/>
	<path class="st0" d="M150.9,140.1c-2.4,3.1-4.7,2.1-6.6,2.3c-1.6,0.2-3.4,0-3.5,2.3c-0.1,2.7,1.6,2.9,3.7,2.8
		c1.4-0.1,2.8-0.2,4,0.8c-0.1,0.3-0.2,0.7-0.4,1c-1.6,2.4-7.4-1-6.4,3.9c0.9,4.1,5.1,0.7,7.7,1.7c0.6,0.2,1.2,0.4,1.9,1.6
		c-4.2,1.1-10.2,3.8-12.5,0.9c-3.1-4-2.9-11.2-0.9-15.8C139.6,137.5,145.6,139.7,150.9,140.1z"/>
	<path class="st0" d="M42.2,135.1c-1.6-0.3-3.1-0.5-4.7-0.8c-2-0.3-4.4-1.5-5,1.6c-0.7,3.4,2.5,2.5,4,3.3c0.8,0.4,1.8,0.4,2,1.6
		c-0.6,1.9-2,1.2-3.3,1.1c-1.6-0.2-3.7-1.8-4.4,1.2c-0.8,3.4,1.9,2.9,3.8,3.5c1.3,0.4,2.8,0.3,3.3,2.6c-4.6,1.6-8.5-1.4-13.4-1.6
		c1.4-6.4,5-11.5,5.4-18.3c4.4,2.5,10.1,0,12.1,5.9L42.2,135.1z"/>
	<path class="st0" d="M24.9,133.7c-3.7,1.5-4.9-6.5-7.9-2.2c-1.9,2.7,3.1,3.7,4.7,5.7c1.3,1.7,2.3,3.4,1.3,5.6
		c-1.1,2.5-3.3,3.4-5.6,3c-3.8-0.7-7.5-2-7.5-7.3c4.1-0.6,4.9,6.9,9.5,3c0.4-2.7-1.8-3.5-3.4-4.6c-2.3-1.7-4.5-3.7-2.9-6.8
		c1.3-2.5,3.7-3.4,6.5-2.6C22.6,128.3,25.5,129.6,24.9,133.7z"/>
	<path class="st0" d="M222.4,145.1c0.4-2.8,0.4-5.9,4.7-3.3c1.9,1.2,4,0.2,4.5-1.7c0.4-1.9-1.7-2.3-3.3-2.7
		c-0.4-0.1-0.9-0.2-1.4-0.2c-2.8-0.3-5.7-0.6-6.4-4c-0.6-2.7,1.2-4.3,3.3-5.4c3.1-1.7,5.3-1.2,8.9,2.3c-2.2,3.1-6.9-3.3-8.4,2.2
		c1.2,2.7,3.9,1.8,6,2.2c3,0.6,5.4,1.8,5.3,5.2c-0.1,3.3-2.6,4.8-5.5,5.3c-2.6,0.4-5.2,0-7.8,0L222.4,145.1z"/>
	<path class="st0" d="M171.4,142.3c-1.9-5-5.9-4.1-9.9-4c-4.1,0.2-3.3,3.1-3.1,5.5c0.4,4.3,0,8.7,2.3,14.9c2.2-4.8,4.1-7.6,8.4-8.7
		C172.2,149.2,172.6,145.5,171.4,142.3z M164.7,148.4c-2.9,0.1-2.2-2.4-2.6-4c-0.4-1.8,0-3.3,2.2-3.4c2.7-0.1,3.4,1.7,3.8,3.2
		C168.2,147.3,166.8,148.3,164.7,148.4z"/>
	<path class="st0" d="M203.1,144.8c-0.3,4.8-1.5,8.7-4.6,14.1c-0.9-4.3-1.1-6.6-4.7-7.6c-5.2-1.4-6.7-11.5-3-15.4
		c2.6-2.7,7.6-2.9,9.9-0.4c0.8,0.8,1.6,1.7,0.7,3c-0.7,0.9-1.7,0.9-2.4,0.3c-2-1.8-4.3-3.8-5.9,0c-1.3,3.3-0.8,7.2,2,9.5
		c3.5,2.9,4.2-1.6,6.1-3.1C201.3,145.1,201.6,145.1,203.1,144.8z"/>
	<path class="st0" d="M58.9,134.6c6.3,3.5,2.4,10,5.6,13.4c3.1-3.1,2.5-9,8.4-12c-1.1,7.4-4.4,12.4-7.2,17.5c-1.3,2.3-3.8,2-4.5-0.9
		C60.1,147.1,59.1,141.5,58.9,134.6z"/>
	<path class="st0" d="M78.1,144.8c-0.3,2.7-0.5,5.5-0.9,8.2c-0.2,1.2-0.1,3-2,3c-2-0.1-1.8-1.7-1.6-3c0.5-4.1,1-8.2,1.5-12.2
		c0.2-1.3,0-3,2.1-2.6c2,0.4,1.3,2,1.2,3.3C78.3,142.6,78.2,143.7,78.1,144.8C78.1,144.8,78.1,144.8,78.1,144.8z"/>
	<path class="st0" d="M48.1,136.6c0.1,0,0.2,0,0.3,0C48.2,136.7,48.1,136.7,48.1,136.6c-0.2,0-0.4,0.1-0.6,0.1
		C47.7,136.7,47.9,136.7,48.1,136.6z"/>
</g>
</svg>
