<?xml version="1.0" encoding="utf-8"?>
<!-- Generator: Adobe Illustrator 25.2.1, SVG Export Plug-In . SVG Version: 6.00 Build 0)  -->
<svg version="1.1" id="Camada_1" xmlns="http://www.w3.org/2000/svg" xmlns:xlink="http://www.w3.org/1999/xlink" x="0px" y="0px"
	 viewBox="0 0 247.2 202.1" style="enable-background:new 0 0 247.2 202.1;" xml:space="preserve">
<style type="text/css">
	.st0{fill:#F04E22;}
</style>
<g>
	<g>
		<g>
			<path class="st0" d="M19,78.3c2,33.8,8.9,65.5,31.8,91c51.2,56.9,142.6,36.6,166.8-36.6c3.8-11.4,6.7-23,7.2-35.1
				c0.2-5.2-1.2-9.9-7.2-10.4c-6-0.5-8.3,3.7-8.9,9c-1.8,16.1-5.4,31.6-13,46.2c-14.2,27.6-37,41.8-68.4,42.7
				C95.3,186,70,173.7,53.7,145.9c-17.6-30-20.9-62.6-14.9-96.1c3.1-17.4,15-28.3,32.5-32.2c17.8-4,32.1,2.1,43.3,15.8
				c9.1,11.1,11.3,11.2,19.9,0.3C146,19.3,163.7,13.3,180.7,18c17.3,4.9,28.6,18.4,30.9,37c0.7,5.7,1.7,11.4,9.1,10.7
				c7.2-0.7,8-6.6,7.3-12.2c-2.7-22.4-14.1-39-35.3-48.2C171.5-3.9,151.1-1,133,12.9c-6.5,5-9.9,5.4-16.6,0
				C80.7-15.8,29,6,21.5,52.7C20.1,61.4,19.8,70.2,19,78.3z"/>
			<path class="st0" d="M124.4,151.4c31.7-0.2,57.6-26.9,56.5-58.3c-0.2-4.9-1.4-9-7-9.6c-5.6-0.6-8,3-8.8,7.9
				c-0.5,2.8-0.9,5.6-1.5,8.4c-5,23.1-18.5,35.4-39.2,35.8c-20.6,0.4-35.8-12.3-41.5-34.8c-0.8-3-1.3-6.2-1.9-9.2
				c-1-4.8-3.2-8.7-8.8-7.9c-6,0.8-7.2,5.4-7.1,10.6C65.5,125.6,92.5,151.6,124.4,151.4z"/>
		</g>
	</g>
</g>
</svg>
