<?xml version="1.0" encoding="utf-8"?>
<!-- Generator: Adobe Illustrator 25.2.1, SVG Export Plug-In . SVG Version: 6.00 Build 0)  -->
<svg version="1.1" id="Camada_1" xmlns="http://www.w3.org/2000/svg" xmlns:xlink="http://www.w3.org/1999/xlink" x="0px" y="0px"
	 viewBox="0 0 247.2 202.1" style="enable-background:new 0 0 247.2 202.1;" xml:space="preserve">
<style type="text/css">
	.st0{fill:#35B299;}
	.st1{fill:#818181;}
	.st2{fill:#828282;}
	.st3{fill:#7F7F7F;}
	.st4{fill:#868686;}
	.st5{fill:#848484;}
</style>
<g>
	<path class="st0" d="M80.1,94.9c-21.1-1.1-35.7,15.4-35.4,32.6c-0.6,17.7,13.9,33.4,33.6,33.2c18-0.2,31.7-13.9,32.5-32
		C111.6,109.5,94.9,95.7,80.1,94.9z M78.3,153.1c-15.8,0.1-25.6-11.9-26.2-25.5c-0.6-13.5,12.7-26.1,26.1-25.3
		c14.2,0.8,25,11,25,25.4C103.9,139.5,93.1,153,78.3,153.1z"/>
	<path class="st0" d="M37.3,112.8c-1.6,0.7-3.7-0.4-5.6,0.9c-1.8-2-1.6-4.5-3-6.4c-3.2-4.5-7.7-5-12.5-4.5c-4.2,0.4-6.5,3.7-8.1,7.1
		c-1.9,4.2,0.3,10.6,4.3,12.6c2.7,1.4,6,1.8,9.1,1.7c2.5-0.1,4.9,0.5,7.3,1.5c5.2,2.1,8,6.1,8.9,11.2c0.7,4.1,0.9,8.3-0.8,12.4
		c-1.6,4-4.3,6.8-8,8.8c-9.5,5.2-20,2.4-25.9-5.6c-2-2.6-3.5-6-2.6-9.7c1.1-1.2,2.6-0.6,4-0.7c2-0.2,3.2,0.6,3.4,2.8
		c0.6,5,9,9.6,13.5,8.1c7.1-2.5,10.4-7,8.8-14.3c-1-4.6-3.9-6.9-8.6-7c-3,0-6-0.6-8.8-1.2c-7.9-1.6-12.8-8.9-12.5-14.9
		c0-0.5,0.1-1,0-1.4C-1.1,106.8,3.1,102,8.4,98c3.7-2.8,8.3-3.2,13-3c8,0.4,14.8,7.2,16.3,13.4c0.2,0.7,0.3,1.5,0.4,2.3
		C38.1,111.3,38.1,112,37.3,112.8z"/>
	<path class="st0" d="M114.6,142.8c1.3-1,2.6-0.6,3.9-0.7c2-0.1,3.3,0.5,3.6,2.7c0.6,5.3,6.8,8.8,11.5,8.2
		c8.1-0.9,12.4-5.1,10.9-14.1c-0.8-4.8-4-7.1-8.9-7.3c-5-0.2-9.9-0.7-14.3-3.6c-4.3-2.9-6.6-7-6.8-12.1c-0.1-1.9-0.1-3.8,0-5.6
		c0.4-7.9,9.9-14.7,16.1-15.3c8.4-0.8,14.6,2.6,19.6,8.8c1.9,2.4,2.5,5.3,2,8.5c-2.2,1.3-4.5,0.3-6.9,0.7c-0.7-2.9-1.4-5.4-3.5-7.4
		c-5.4-5.1-15.7-3.9-19.1,2.7c-1.5,2.9-1.3,6.7-0.1,9.6c1.1,2.5,3.2,4.8,6.6,5.4c2,0.3,4,0.8,6,0.8c9.2-0.2,16.3,5.6,17.2,15.4
		c0.7,8.1-2.1,14.4-9.2,18.4c-11.2,6.3-24.5,0.9-28.3-10.4C114.3,145.9,114.2,144.3,114.6,142.8z"/>
	<path class="st0" d="M157.2,109.8c4.7-1.1,8.6-0.5,12.4-0.6c3.9-0.1,7.8,0,11.8,0c3.9,0,7.8,0,11.8,0s7.8,0,11.8,0
		c3.9,0,7.8,0,12.1,0c-3.4-5.5-6.5-10.6-8.9-16c-1.8-4-3.2-8-3.4-12.5c-0.2-5.1,1.1-9.8,4-13.7c4-5.4,8.6-10.4,15.2-12.8
		c0.6-0.2,1.2-0.4,1.8-0.4c0.4,0,0.9,0.2,1.7,0.4c-3.9,2.8-7.5,5.6-10.7,8.7c-7.3,7.1-8.8,15.4-6.1,24.9c2,7.1,5.5,13.5,10,19.4
		c1.2,1.6,2.5,2.1,4.3,2.1c6,0,11.9,0,17.9,0c1.4,0,2.8-0.4,4.1,0.5c0.2,1.6-1,1.3-1.8,1.3c-5.3,0-10.7,0-16,0c-1.6,0-3.1,0-4.7,0
		c-0.1,1.9,2.2,2.4,1.8,4.4c-2.2,0.6-4.2,0.8-5.5-1.8c-1.1-2.2-3.1-2.6-5.5-2.6c-17.4,0.1-34.8,0.1-52.3,0
		C161.4,111,159.6,111.5,157.2,109.8z"/>
	<path class="st1" d="M224.5,111.2c1.6,0,3.2,0,4.7,0c5.3,0,10.7,0,16,0c0.8,0,2,0.2,1.8-1.3c-1.3-0.9-2.7-0.5-4.1-0.5
		c-6,0-11.9,0-17.9,0l-20.1,0c-3.9,0-7.8,0-11.8,0s-7.8,0-11.8,0c-3.9,0-7.8-0.1-11.8,0c-3.8,0.1-7.7-0.5-12.4,0.6
		c2.4,1.7,4.2,1.2,5.8,1.2c17.4,0,34.8,0.1,52.3,0"/>
	<path class="st1" d="M229.6,119.4c-6.6-0.7-14.4,4.6-14.3,14.5c0,8.2,6.8,13.9,14.1,13.8c8.4-0.1,14.3-6.1,14.2-14.6
		C243.6,125.1,237.7,119.4,229.6,119.4z M229.4,144.1c-5.8-0.4-10.4-4.7-10.3-10.6c0.1-6.1,4.5-10.6,10.3-10.8
		c6.7-0.2,11.1,5.2,10.6,10.6C240.9,138.7,234.4,144.4,229.4,144.1z"/>
	<path class="st1" d="M181.2,43c2.5-1,3.6,0.3,4.5,1.5c1.5,2,2.9,4.1,4.3,6.1c3.8,5.6,7,11.4,9.6,17.6c4.4,10.9,2.4,20.4-5.5,28.8
		c-2.2,2.4-4.6,4.7-7.4,6.5c-1.3,0.8-2.5,1.3-4.1,0.5c3-3,6.1-5.8,8.8-9c4.8-5.6,6.8-11.8,5.5-19.4c-1.5-9.3-5.8-17-10.8-24.5
		C184.3,48.6,182.1,46.3,181.2,43z"/>
	<path class="st1" d="M203.2,125.8c-1.5,0-2.1-1.3-3.1-1.9c-2-1.2-4.9-0.9-6.1,0.5c-2,2.5-1,6,2.2,7.1c0.6,0.2,1.2,0.1,1.9,0.2
		c5.3,0.9,7.8,4.7,6.8,10.3c-0.7,3.8-4.9,6.4-9.4,5.7c-2.7-0.4-4.2-2.4-5.6-4.6c0.9-1.9,2.1-2.4,3.7-1.2c0.4,0.3,0.7,0.6,1,0.9
		c1.4,1.4,3,1.6,4.7,0.6c1.9-1.2,2-3,1.8-5c-0.2-2-1.6-2.6-3.2-2.9c-3.6-0.5-6.4-1.7-8.2-5.3c-1.3-2.8-0.8-5.3,0.5-7.6
		c2.2-3.9,10.2-4.9,13-0.6C204.2,123.4,204.5,124.6,203.2,125.8z"/>
	<path class="st2" d="M171.2,118.5c0,3.2,0,5.5,0,7.8c1.7,1.8,5.6-0.7,5.9,3.3c-1.3,2.3-3.8,0.5-6,2c0,3.3,0,7,0,10.7
		c0,1.4,0,2.8-0.2,4.2c-0.1,0.9-0.9,1.1-2.1,0.9c-3-5-0.5-10.8-1.8-16c-1.3-1.1-2.9-0.2-4.1-1c-0.6-0.3-0.9-0.8-1-1.5
		c-0.1-0.7,0.4-1.3,0.9-1.5c1.3-0.4,2.7-0.6,4.6-0.9c0-2.3-0.1-4.6,0-6.9c0.2-3.9,1.2-4.8,5.2-4.9c2,0,4.1,0,6.1,0.2
		c0.7,0.1,1.5,0.7,1.5,1.5c0.1,1.1-0.7,1.8-1.7,1.9C176.2,118.6,173.9,118.5,171.2,118.5z"/>
	<path class="st3" d="M247.2,152.1c-0.5,1-1.1,1.1-1.7,1.1c-28.7-0.1-57.4-0.1-86.2-0.2c-0.4,0-0.7-0.5-1-0.7c0-0.3,0-0.4,0.1-0.5
		c0.1-0.1,0.3-0.3,0.4-0.3c28.4,0,56.8-0.1,85.2-0.1c0.8,0,1.6,0,2.3,0.1C246.6,151.6,246.8,151.9,247.2,152.1z"/>
	<path class="st1" d="M210.6,49.1c0.1,2.4-0.1,4.6-2.1,6.4c-2.9,2.6-6.1,2.5-8.4-0.6c-2.1-2.8-2.2-7.8-0.2-10.6
		c1.6-2.2,3.7-3.3,6.5-2.7c2.6,0.6,3.6,2.8,4.2,5.2C210.7,47.5,210.6,48.3,210.6,49.1z"/>
	<path class="st4" d="M208.7,147.5c0-9.1,0-18,0-26.9c0-0.6,0.4-1.2,1.4-1.6c1.6,0.6,2.3,1.9,2.3,3.8c0,7.2,0,14.4,0,21.6
		C212.4,146.3,211.9,147.8,208.7,147.5z"/>
	<path class="st5" d="M186.1,120.1c0,9,0,18.1,0,27.2c-2.5,0.7-3.6,0-3.7-2c-0.1-1.9,0-3.7,0-5.6c0-5.9,0-11.8,0-17.7
		C182.4,119.6,182.5,119.6,186.1,120.1z"/>
</g>
</svg>
