<?xml version="1.0" encoding="utf-8"?>
<!-- Generator: Adobe Illustrator 25.2.1, SVG Export Plug-In . SVG Version: 6.00 Build 0)  -->
<svg version="1.1" id="Camada_1" xmlns="http://www.w3.org/2000/svg" xmlns:xlink="http://www.w3.org/1999/xlink" x="0px" y="0px"
	 viewBox="0 0 247.2 202.1" style="enable-background:new 0 0 247.2 202.1;" xml:space="preserve">
<style type="text/css">
	.st0{fill:#2E4A57;}
	.st1{fill:#0CB3B6;}
</style>
<g>
	<path class="st0" d="M213.2,158.7c-0.5-2.9-2.2-4.1-5.3-4.1c-3,0-4.6,1.2-5.2,4.1c-0.4,2.4-0.3,4.7-0.2,7.1c0.2,3,1.3,5.3,4.7,5.8
		h1.6c0.1,0,0.2-0.1,0.4-0.1c2.4-0.4,3.7-1.8,4.1-4.1C213.7,164.6,213.8,161.6,213.2,158.7z M209.8,167.5c-0.2,1.1-0.9,1.6-1.8,1.6
		c-1,0-1.6-0.7-1.7-1.6c-0.5-2.9-0.5-5.9,0-8.8c0.2-1.1,0.8-1.5,1.8-1.6c1,0,1.6,0.6,1.8,1.5c0.3,1.5,0.3,3,0.4,4.5
		C210.1,164.6,210.1,166.1,209.8,167.5z"/>
	<path class="st0" d="M190.7,158.8c-0.5-2.9-2.2-4.2-5.4-4.2c-3.1,0-4.7,1.4-5.2,4.2c-0.4,2.4-0.4,4.9-0.1,7.3
		c0.3,3.5,1.2,4.5,4.6,5.5c0,0,0.1,0,0.1,0.1h1.4c0.1,0,0.2-0.1,0.4-0.1c2.7-0.6,3.8-1.6,4.2-4.4
		C191.1,164.4,191.1,161.6,190.7,158.8z M187.3,167.2c-0.2,1.3-0.9,1.9-1.9,1.9c-1,0-1.6-0.6-1.8-1.9c-0.4-2.7-0.4-5.5,0-8.2
		c0.2-1.3,0.9-1.9,1.9-1.8c1,0,1.5,0.6,1.8,1.9c0.3,1.3,0.2,2.6,0.2,3.8C187.5,164.4,187.5,165.8,187.3,167.2z"/>
	<path class="st0" d="M246.6,170.1c-1.3-4.7-2.6-9.3-3.8-14c-0.3-1-0.6-1.5-1.7-1.3c-0.5,0.1-1.1,0.1-1.7,0c-1-0.1-1.5,0.2-1.8,1.3
		c-1.2,4.4-2.4,8.9-3.7,13.3c-0.6,2.1-0.6,2,1.5,2.1c1,0,1.5-0.3,1.7-1.3c0.4-2.1,0.5-2.1,2.6-2.1c0.9,0,1.9-0.2,2.5,0.1
		c0.7,0.4,0.6,1.6,0.8,2.4c0.2,0.6,0.5,0.8,1,0.8c0.9,0,1.9,0,2.8,0.1v-0.4C246.7,170.9,246.7,170.5,246.6,170.1z M240.3,165.6
		c-1.9,0-1.9,0-1.5-1.8c0.4-1.8,0.9-3.6,1.3-5.3h0.2c0.4,1.9,0.9,3.7,1.3,5.6C241.9,165.6,241.9,165.6,240.3,165.6z"/>
	<path class="st0" d="M220.1,171.7C220.1,171.7,220.1,171.7,220.1,171.7c-3.7-1-4.4-1.8-4.8-5.6c-0.3-2.6-0.3-5.2,0.2-7.8
		c0.4-2,1.7-3.2,3.7-3.5c1.3-0.2,2.5-0.2,3.7,0.1c1.9,0.5,3.2,2.2,3.2,4.2c0,0.5-0.2,0.8-0.7,0.8c-0.4,0-0.8,0-1.2,0
		c-1,0.1-1.5-0.1-1.6-1.3c0-1.1-0.8-1.6-1.8-1.6c-1,0-1.7,0.4-1.9,1.5c-0.6,3.1-0.6,6.1,0,9.2c0.3,1.4,2.6,2.2,3.8,1.4
		c0.1-0.1,0.2-0.3,0.2-0.4c0-1,0-1.9,0-2.9c0-0.6-0.5-0.4-0.9-0.4c-0.9,0.1-1.1-0.3-1-1.1c0.1-2-0.2-1.7,1.8-1.7
		c1,0,2.4-0.5,3.1,0.2c0.6,0.6,0.2,2,0.2,3c0,1.5,0,3,0,4.5c0,0.7-0.2,0.9-0.9,1c-0.9,0.1-1.8,0.3-2.7,0.4
		C221.7,171.7,220.9,171.7,220.1,171.7z"/>
	<path class="st0" d="M116.4,96.6c-3.4,7.8-6.8,15.5-10.2,23.3c-6.3,14.4-12.6,28.7-19,43.1c-1.1,2.5-2.2,5.1-3.3,7.7
		c-0.2,0.5-0.5,0.7-1.1,0.7c-9.9,0-19.8,0-29.7,0c-0.7,0-0.9-0.3-1.1-0.8c-5.8-13.2-11.5-26.5-17.3-39.7
		c-4.9-11.3-9.9-22.6-14.9-33.9c0-0.1-0.1-0.2-0.1-0.3c-0.1-0.5,0.3-0.6,0.7-0.7c0.4-0.1,0.8,0,1.2,0c3.1,0,6.2-0.1,9.2,0
		c7.5,0.1,14.1,2.6,19.9,7.4c3,2.5,5.4,5.5,7,9c1.9,4.4,3.8,8.7,5.8,13.1c1.3,3.1,2.7,6.1,4,9.2c0.1,0.2,0.2,0.5,0.5,0.9
		c3.4-7.7,6.7-15.2,10-22.8c2.2-5.1,5.9-8.8,10.5-11.7c4.5-2.8,9.4-4.5,14.7-4.9c3.9-0.3,7.9-0.1,11.8-0.1
		C115.6,95.9,116.3,95.7,116.4,96.6z"/>
	<path class="st0" d="M246.2,95.3c0,1-0.2,1.3-1.3,1.3c-11.6,0-23.2,0-34.8,0c-1.3,0-1.3,0-1.3,1.3c-0.3,11.7-0.1,23.3-0.2,35
		c0,0.8-0.2,1.1-1.1,1.1c-8.9,0-17.7,0-26.6,0c-0.8,0-1-0.3-1-1c0-12.1,0-24.2,0-36.3c0.5-0.7,1.2-0.6,1.9-0.7
		c6-0.3,11.4-2.4,16-6.3c5.5-4.6,8.8-10.4,9.8-17.5c0.3-2.1,0.5-4.3,0.4-6.4c0-2.1,0-4.2,0-6.4c0.1-3.3-0.2-6.6,0.1-9.8
		c0.1-0.6,0.2-1.1,0.2-1.7c-0.1,0.6-0.1,1.1-0.2,1.7c-0.5,3-1.9,5.6-3.7,8.1c-4.4,6.2-10.5,9.7-18.1,10.6c-1.8,0.2-3.7,0.1-5.6,0
		c-0.5,0-0.9-0.2-0.9-0.8c0.1-4.2-0.1-8.4,0.1-12.6c0-7.8,0-15.6,0-23.5c0-0.8,0.3-1,1-1c8.8,0,17.6,0,26.4,0c1,0,1.2,0.3,1.2,1.2
		c0,11.6,0.1,23.3,0.1,34.9c0,1,0.2,1.3,1.2,1.3c11.6,0,23.2,0,34.8,0c1.4,0,1.4,0,1.4,1.3C246.2,77.8,246.2,86.6,246.2,95.3z"/>
	<path class="st0" d="M208.4,47.8c0,0.6-0.1,1.1-0.2,1.7C208.3,49,208.3,48.4,208.4,47.8z"/>
	<path class="st1" d="M208.2,49.5c-0.3,3.3-0.1,6.6-0.1,9.8c0,2.1,0,4.2,0,6.4c0,2.2-0.1,4.3-0.4,6.4c-1,7.1-4.3,13-9.8,17.5
		c-4.6,3.8-10,5.9-16,6.3c-0.6,0-1.4-0.1-1.9,0.7c-7.2,0-14.3,0-21.5,0c-4.9,0-9.8,0-14.7,0c-0.9,0-1.3-0.3-1.2-1.2
		c0-8.8,0-17.6,0-26.3c0-1.1,0.4-1.2,1.3-1.2c11.5,0,23.1,0,34.6,0l1.5-1.5c0-3.4,0-6.9,0.1-10.3c0-0.4,0.1-0.7,0.1-1.1
		c-0.2,4.2,0,8.4-0.1,12.6c0,0.6,0.4,0.8,0.9,0.8c1.9,0.1,3.7,0.2,5.6,0c7.6-0.9,13.6-4.4,18.1-10.6
		C206.3,55.1,207.7,52.5,208.2,49.5z"/>
	<path class="st1" d="M208.4,47.8c0,0.6-0.1,1.1-0.2,1.7C208.3,49,208.3,48.4,208.4,47.8z"/>
	<path class="st1" d="M57.8,112.3c-1.2-1.6-2.2-3.4-3.6-5c-5-5.8-11.3-9.3-18.8-10.5c-4.5-0.7-9.1-0.3-13.6-0.4
		c-0.7,0-1.4-0.2-2,0.2c-0.4-0.3-0.9-0.2-1.3-0.2c-5.6,0-11.3,0-16.9,0c-1,0-1.3-0.3-1.3-1.3c0-8.7,0-17.5,0-26.2
		c0-1,0.3-1.3,1.3-1.3c6.2,0,12.5-0.1,18.7,0c6.6,0.2,12.6,2.4,17.7,6.7c3.8,3.2,6.6,7.2,8.6,11.8c3.6,8.4,7.3,16.7,10.9,25
		C57.6,111.5,57.7,111.9,57.8,112.3z"/>
	<path class="st1" d="M116.4,96.6c-0.4-0.2-0.8-0.2-1.3-0.2c-4.1,0.1-8.2-0.2-12.3,0.2c-6.3,0.6-11.9,2.9-16.9,6.8
		c-3.1,2.5-5.6,5.4-7.5,8.9c-0.1,0.1-0.2,0.2-0.3,0.4c0.8-2.2,1.9-4.4,2.8-6.6c3.1-7.1,6.2-14.2,9.4-21.3c1.6-3.7,4-6.7,6.9-9.5
		c4.6-4.5,10.2-6.9,16.5-7.5c4.9-0.5,9.9-0.2,14.8-0.2c2.1,0,4.2,0.1,6.3,0.1c0.9,0,1.2,0.2,1.2,1.2c0,8.8,0,17.6,0,26.4
		c0,0.9-0.3,1.1-1.1,1.1c-5.6,0-11.3,0-16.9,0C117.4,96.4,116.9,96.4,116.4,96.6z"/>
	<path class="st0" d="M169.5,166.6c0.6-2.5,1.1-4.7,1.7-6.9c0.3-1.4,0.7-2.8,1-4.1c0.1-0.5,0.3-0.7,0.9-0.7c1.3,0,2.7,0,4,0
		c0.6,0,0.7,0.2,0.7,0.8c0,5,0,10,0,15c0,0.6-0.2,0.8-0.8,0.8c-2.6,0.1-2.6,0.1-2.6-2.4c0-3.2,0-6.4-0.2-9.6c-0.3,1.4-0.7,2.7-1,4.1
		c-0.6,2.4-1.2,4.7-1.8,7.1c-0.1,0.6-0.4,0.8-1.1,0.9c-2.5,0-2.5,0-3.1-2.4c-0.8-3.3-1.6-6.5-2.6-9.8c0,0.3,0,0.5,0,0.8
		c0,3.4,0,6.8,0,10.2c0,0.8-0.2,1.2-1.1,1.2c-2.3,0-2.3,0-2.3-2.3c0-4.4,0-8.7,0-13.1c0-1,0.3-1.3,1.2-1.2c1,0.1,2.1,0.1,3.1,0
		c0.8,0,1.2,0.2,1.4,1c0.7,3.2,1.5,6.4,2.3,9.6C169.2,165.7,169.3,166,169.5,166.6z"/>
	<path class="st0" d="M114.7,158.6c-0.4-2.4-1.9-3.8-4.4-4c-0.6-0.1-1.2-0.1-1.8,0c-2.4,0.2-3.8,1.4-4.3,3.8c-0.3,1.5-0.3,3-0.4,4.5
		c0.1,1.5,0.1,3,0.4,4.4c0.5,2.8,2.2,4.2,5.3,4.2c3,0,4.8-1.4,5.2-4.2C115.2,164.5,115.2,161.5,114.7,158.6z M111.4,166.7
		c-0.1,0.4-0.1,0.9-0.3,1.2c-0.3,0.7-0.8,1.1-1.6,1.1c-0.8,0-1.3-0.3-1.6-1.1c-0.1-0.3-0.2-0.6-0.2-0.9c-0.3-2.7-0.4-5.4,0-8.1
		c0-0.2,0.1-0.4,0.2-0.7c0.3-0.8,0.9-1.2,1.7-1.2c0.9,0,1.4,0.5,1.7,1.3c0.4,1.5,0.4,3.1,0.4,4.8
		C111.6,164.2,111.6,165.5,111.4,166.7z"/>
	<path class="st0" d="M148.7,170.2c-0.2-0.6-0.3-1.2-0.5-1.8c-1.1-4.2-2.3-8.3-3.4-12.5c-0.2-0.9-0.6-1.2-1.5-1.1
		c-0.9,0.1-1.7,0-2.6,0c-0.4,0-0.7,0.1-0.8,0.6c-1.4,5.1-2.9,10.3-4.3,15.4c-0.1,0.5,0,0.6,0.5,0.6c0.7,0,1.4,0,2.1,0
		c0.5,0,0.7-0.2,0.9-0.6c0.3-0.9,0.1-2.2,0.9-2.6c0.8-0.4,1.9-0.1,2.8-0.1h0.1c2,0,1.6-0.2,2.1,1.6c0.5,2,0,1.7,2.1,1.7
		c0.2,0,0.5,0,0.7,0C149.1,171.4,149.1,171.4,148.7,170.2z M143.4,165.5c-0.8,0-1.5,0-2.3,0c-0.4,0-0.7-0.1-0.6-0.6
		c0.5-2.1,1-4.3,1.5-6.4c0.1,0,0.2,0,0.3,0c0.5,2.2,1,4.4,1.5,6.6C144,165.5,143.7,165.5,143.4,165.5z"/>
	<path class="st0" d="M117.2,163c0-2.4,0-4.8,0-7.3c0-0.8,0.3-1,1-1c2.1,0,4.2,0.1,6.4,0c1,0,0.9,0.7,0.9,1.3c0,0.6,0.2,1.3-0.9,1.3
		c-1-0.1-2.1,0-3.1,0c-0.6,0-0.8,0.2-0.8,0.8c-0.2,3.1-0.2,3.1,3,3.1c0.1,0,0.3,0,0.4,0c1.4,0,1.4,0,1.4,1.5c0,1-0.3,1.4-1.3,1.3
		c-0.8-0.1-1.6,0-2.4,0c-0.8-0.1-1.1,0.2-1.1,1.1c0,1.8,0,3.6,0,5.4c0,0.8-0.2,1-1,1c-2.5,0-2.5,0-2.5-2.5
		C117.2,166.9,117.2,165,117.2,163C117.2,163,117.2,163,117.2,163z"/>
	<path class="st0" d="M193.1,163.1c0-2.4,0-4.8,0-7.1c0-0.8,0.2-1.2,1.1-1.2c2.5,0,2.5,0,2.5,2.5c0,3.3,0,6.7,0,10
		c0,1.7-0.3,1.6,1.6,1.6c0.8,0,1.6,0,2.4,0c0.8-0.1,1.1,0.3,1,1c0,0.3,0,0.5,0,0.8c0,0.4-0.2,0.7-0.6,0.7c-2.4,0-4.8,0-7.3,0
		c-0.7,0-0.7-0.5-0.7-1C193.1,168,193.1,165.5,193.1,163.1C193.1,163.1,193.1,163.1,193.1,163.1z"/>
	<path class="st0" d="M130.5,164.3c0-2,0-4,0-6.1c0-0.7-0.2-1.1-1-1c-0.1,0-0.3,0-0.4,0c-1.5,0-1.9-0.5-1.5-2
		c0.1-0.3,0.3-0.4,0.6-0.4c2.7,0,5.4,0,8.2,0c0.4,0,0.6,0.2,0.6,0.6c0,0.3,0,0.7,0,1c0.1,0.7-0.3,0.9-0.9,0.9c-2,0-2,0-2,2
		c0,3.6,0,7.3,0,10.9c0,0.8-0.2,1.2-1.1,1.1c-2.4,0-2.4,0-2.4-2.4C130.5,167.4,130.5,165.9,130.5,164.3
		C130.5,164.3,130.5,164.3,130.5,164.3z"/>
	<path class="st0" d="M150.6,163.1c0-2.4,0-4.8,0-7.3c0-0.8,0.3-1.1,1.1-1.1c2.4,0,2.4,0,2.4,2.4c0,3.5,0,7,0,10.5
		c0,0.9,0.2,1.2,1.1,1.1c1-0.1,2,0,3,0c0.7,0,0.9,0.2,0.9,0.9c0,1.6,0,1.6-1.6,1.6c-2,0-3.9,0-5.9,0c-0.9,0-1.1-0.3-1.1-1.1
		C150.5,167.9,150.5,165.5,150.6,163.1C150.5,163.1,150.5,163.1,150.6,163.1z"/>
	<path class="st0" d="M228.3,163.1c0-2.4,0-4.9,0-7.3c0-0.7,0.2-0.9,0.9-0.9c2.7,0,2.7-0.1,2.7,2.6c0,4.3,0,8.6,0,12.9
		c0,0.8-0.2,1.2-1.1,1.2c-2.4,0-2.4,0-2.4-2.4C228.3,167.1,228.3,165.1,228.3,163.1z"/>
</g>
</svg>
