<?xml version="1.0" encoding="utf-8"?>
<!-- Generator: Adobe Illustrator 25.2.1, SVG Export Plug-In . SVG Version: 6.00 Build 0)  -->
<svg version="1.1" id="Camada_1" xmlns="http://www.w3.org/2000/svg" xmlns:xlink="http://www.w3.org/1999/xlink" x="0px" y="0px"
	 viewBox="0 0 247.2 202.1" style="enable-background:new 0 0 247.2 202.1;" xml:space="preserve">
<style type="text/css">
	.st0{fill:#EEB456;}
	.st1{fill:#606060;}
	.st2{enable-background:new    ;}
</style>
<g>
	<g>
		<g>
			<g>
				<polygon class="st0" points="128.4,116.9 118.9,64.6 116.4,79.9 96.2,79.9 96.2,74.5 111.8,74.5 118.6,32.9 128.7,88.5 
					131.9,73.2 152.8,73.2 152.8,78.6 136.3,78.6 				"/>
			</g>
		</g>
		<g>
			<g>
				<rect x="78.8" y="74.5" class="st1" width="13.6" height="5.4"/>
			</g>
		</g>
		<g>
			<g>
				<ellipse class="st1" cx="162.6" cy="76.2" rx="6" ry="6.2"/>
			</g>
		</g>
	</g>
	<g class="st2">
		<path class="st0" d="M27.5,136.8l-11.8,31.9h-4.1L0,136.8h4.2l8.8,25.3c0.3,0.8,0.5,1.8,0.6,2.8h0.1c0.1-0.9,0.4-1.8,0.7-2.9
			l9-25.3H27.5z"/>
		<path class="st0" d="M39,136.8v3.2h-3.1v25.5H39v3.2H29v-3.2h3.1V140H29v-3.2H39z"/>
		<path class="st0" d="M69,168.7h-4.1l-3.4-9H47.9l-3.2,9h-4.2l12.2-31.9h3.9L69,168.7z M60.2,156.4l-5-13.6
			c-0.2-0.4-0.3-1.2-0.5-2.1h-0.1c-0.1,0.9-0.3,1.6-0.5,2.1l-5,13.6H60.2z"/>
		<path class="st0" d="M118.7,168.7H115v-21.4c0-1.7,0.1-3.8,0.3-6.2h-0.1c-0.4,1.4-0.7,2.5-1,3.1l-10.9,24.5h-1.8l-10.9-24.4
			c-0.3-0.7-0.6-1.8-1-3.3h-0.1c0.1,1.3,0.2,3.4,0.2,6.3v21.4h-3.6v-31.9h4.9l9.8,22.3c0.8,1.7,1.2,3,1.5,3.8h0.1
			c0.6-1.8,1.2-3.1,1.5-3.9l10-22.2h4.7V168.7z"/>
		<path class="st0" d="M144,168.7h-16.9v-31.9h16.2v3.4h-12.5v10.6h11.5v3.4h-11.5v11.2H144V168.7z M140.8,126.5l-5.8,7.3h-2.8
			l5-7.3H140.8z"/>
		<path class="st0" d="M150.2,168.7v-31.9h8.8c11.3,0,16.9,5.2,16.9,15.6c0,4.9-1.6,8.9-4.7,11.9c-3.1,3-7.3,4.5-12.5,4.5H150.2z
			 M153.9,140.1v25.2h4.8c4.2,0,7.4-1.1,9.8-3.4c2.3-2.2,3.5-5.4,3.5-9.5c0-8.2-4.3-12.3-13-12.3H153.9z"/>
		<path class="st0" d="M189,136.8v3.2h-3.1v25.5h3.1v3.2h-10v-3.2h3.1V140H179v-3.2H189z"/>
		<path class="st0" d="M216,167.4c-2.4,1.2-5.3,1.9-8.8,1.9c-4.5,0-8.2-1.5-10.9-4.4c-2.7-2.9-4.1-6.8-4.1-11.5
			c0-5.1,1.5-9.2,4.6-12.4c3.1-3.1,7-4.7,11.7-4.7c3,0,5.5,0.4,7.5,1.3v4c-2.3-1.3-4.8-1.9-7.6-1.9c-3.7,0-6.6,1.2-8.9,3.7
			c-2.3,2.4-3.4,5.7-3.4,9.8c0,3.9,1.1,7,3.2,9.3c2.1,2.3,4.9,3.5,8.4,3.5c3.2,0,6-0.7,8.3-2.1V167.4z"/>
		<path class="st0" d="M247.2,168.7h-4.1l-3.4-9h-13.5l-3.2,9h-4.2l12.2-31.9h3.9L247.2,168.7z M238.5,156.4l-5-13.6
			c-0.2-0.4-0.3-1.2-0.5-2.1h-0.1c-0.1,0.9-0.3,1.6-0.5,2.1l-5,13.6H238.5z"/>
	</g>
</g>
</svg>
