<?xml version="1.0" encoding="utf-8"?>
<!-- Generator: Adobe Illustrator 25.2.1, SVG Export Plug-In . SVG Version: 6.00 Build 0)  -->
<svg version="1.1" id="Camada_1" xmlns="http://www.w3.org/2000/svg" xmlns:xlink="http://www.w3.org/1999/xlink" x="0px" y="0px"
	 viewBox="0 0 247.2 202.1" style="enable-background:new 0 0 247.2 202.1;" xml:space="preserve">
<style type="text/css">
	.st0{fill:#6286A1;}
	.st1{fill:#818185;}
	.st2{fill:#FEFEFE;}
	.st3{enable-background:new    ;}
</style>
<g>
	<g>
		<g>
			<path class="st0" d="M177.2,34.7c-17.2-11.3-30.4-7.7-43.6-4.9c-3-8.9-9.7-14.2-16.8-20.8c19.4-7.3,35.7-3.4,50,8.6
				c15.5,13,19.4,30.4,13.6,49.2c-3.4,11.2-7.5,24.8-21.9,25.4c-13.3,0.6-22.4-8.6-26.1-21.2c-4.4-15.1,1.6-27.5,13.9-35.9
				C153.7,30.1,163.1,31.9,177.2,34.7z M143.6,20.9c2.9-3.6,3.2-7.2-0.7-9.9c-1.5-1-4.7-1-6.4,0c-2.3,1.2-3.7,3.8-2.5,6.8
				C135.9,22.6,139.5,22.2,143.6,20.9z"/>
			<path class="st1" d="M151.7,97.1c-20.3,11.4-49.3,0.1-60.4-22.9C80,51,90.6,20.7,114.1,11.3c8.9,9.8,15.4,19.3,7.3,33.9
				C109.7,66.6,121.7,86.8,151.7,97.1z"/>
			<path class="st2" d="M143.6,20.9c-4,1.3-7.6,1.7-9.6-3.1c-1.2-3,0.2-5.6,2.5-6.8c1.7-0.9,4.9-1,6.4,0
				C146.7,13.7,146.4,17.3,143.6,20.9z"/>
		</g>
	</g>
	<g class="st3">
		<path class="st0" d="M20.4,161.2h-8.9l-7.7-43.4h8.7l1.7,15c0.4,3.4,0.7,6.7,1,9.9c0.3,3.2,0.5,6.3,0.7,9.5h0.5
			c0.3-4.4,0.6-8.2,0.9-11.4c0.3-3.2,0.6-5.7,0.8-7.7l2.2-15.2h8.1L20.4,161.2z"/>
		<path class="st0" d="M40.8,161.2h-8.4v-43.4h8.4V161.2z"/>
		<path class="st0" d="M51.7,161.2V125H45v-7.3h21.7v7.3h-6.7v36.1H51.7z"/>
		<path class="st0" d="M65.5,161.2l9.8-43.4h9.1l9.6,43.4h-8.8l-1.2-7h-8.6l-1.4,7H65.5z M76.6,147.5h6.1l-2-13.7
			c-0.1-1.1-0.3-2.5-0.4-4.2c-0.1-1.7-0.3-3.6-0.3-5.6h-0.5c-0.2,2.5-0.4,4.6-0.5,6.5c-0.2,1.8-0.3,3-0.4,3.5L76.6,147.5z"/>
		<path class="st0" d="M98.7,161.2v-43.4h8.4v36.4h9.8v7H98.7z"/>
		<path class="st0" d="M159.8,149.5c-0.6,4.1-2,7.2-4.2,9.3c-2.2,2.1-5,3.2-8.5,3.2c-4.3,0-7.5-1.8-9.6-5.5
			c-2.1-3.7-3.1-9.3-3.1-16.8c0-7.8,1.1-13.6,3.3-17.3c2.2-3.7,5.6-5.5,10.3-5.5c3.3,0,5.9,0.9,7.9,2.7c2,1.8,3.3,4.6,4,8.4
			l-7.8,2.6c-0.2-2.3-0.6-4-1.3-5.1c-0.7-1.1-1.7-1.6-2.9-1.6c-1.7,0-2.9,1.1-3.6,3.4c-0.7,2.3-1.1,6.4-1.1,12.4c0,5.8,0.3,9.8,1,12
			c0.7,2.2,1.9,3.3,3.5,3.3c1.2,0,2.2-0.7,3-2c0.7-1.3,1.3-3.4,1.6-6.1L159.8,149.5z"/>
		<path class="st0" d="M161.5,161.2l9.8-43.4h9.1l9.6,43.4h-8.8l-1.2-7h-8.6l-1.4,7H161.5z M172.6,147.5h6.1l-2-13.7
			c-0.1-1.1-0.3-2.5-0.4-4.2c-0.1-1.7-0.3-3.6-0.3-5.6h-0.5c-0.2,2.5-0.4,4.6-0.5,6.5c-0.2,1.8-0.3,3-0.4,3.5L172.6,147.5z"/>
		<path class="st0" d="M194.7,161.2v-43.4h10.5c4.6,0,8,1,10.4,3.1c2.3,2.1,3.5,5.1,3.5,9.1c0,2.8-0.6,5.1-1.8,7
			c-1.2,1.9-3,3.2-5.2,4l7.8,20.3h-8.7l-7.3-20.4H203v20.4H194.7z M203,136.3c0.1,0,0.3,0,0.5,0c0.2,0,0.4,0,0.5,0
			c2.1,0,3.8-0.5,5-1.6c1.2-1.1,1.8-2.6,1.8-4.6c0-2-0.6-3.4-1.7-4.5c-1.2-1-2.9-1.5-5.1-1.5H203V136.3z"/>
		<path class="st0" d="M225.2,161.2v-43.4h18.2v6.8h-9.8V135h9.8v6.7h-9.8v12.5h9.8v7H225.2z"/>
	</g>
	<g class="st3">
		<path class="st1" d="M16.7,191.9c-0.9,0.5-2.2,0.7-3.7,0.7c-2,0-3.5-0.6-4.7-1.9c-1.1-1.2-1.7-2.9-1.7-5c0-2.2,0.6-4,1.9-5.4
			c1.3-1.4,2.9-2.1,5-2.1c1.3,0,2.3,0.2,3.2,0.5v3c-0.9-0.6-1.8-0.8-2.9-0.8c-1.2,0-2.2,0.4-2.9,1.2c-0.7,0.8-1.1,1.9-1.1,3.3
			c0,1.3,0.4,2.4,1.1,3.2c0.7,0.8,1.6,1.2,2.8,1.2c1.1,0,2.2-0.3,3.1-0.9V191.9z"/>
		<path class="st1" d="M26.7,192.4h-7.7v-13.8h7.4v2.5h-4.5v3.1H26v2.5h-4.2v3.2h4.8V192.4z"/>
		<path class="st1" d="M40.3,192.4h-2.9l-5.3-8.7c-0.3-0.5-0.5-0.9-0.6-1.1h0c0,0.5,0.1,1.2,0.1,2.2v7.6h-2.7v-13.8h3.1L37,187
			c0.2,0.4,0.4,0.8,0.6,1.1h0c0-0.3-0.1-1-0.1-1.9v-7.6h2.7V192.4z"/>
		<path class="st1" d="M52.3,181.1h-3.7v11.3h-2.9v-11.3h-3.7v-2.5h10.2V181.1z"/>
		<path class="st1" d="M64.8,192.4h-3.3l-2-3.6c-0.1-0.3-0.3-0.5-0.4-0.7c-0.1-0.2-0.3-0.4-0.4-0.5c-0.1-0.2-0.3-0.3-0.4-0.3
			c-0.2-0.1-0.3-0.1-0.5-0.1h-0.8v5.3H54v-13.8h4.6c3.1,0,4.7,1.3,4.7,3.8c0,0.5-0.1,0.9-0.2,1.3c-0.1,0.4-0.3,0.8-0.6,1.1
			c-0.3,0.3-0.6,0.6-0.9,0.8c-0.4,0.2-0.8,0.4-1.2,0.6v0c0.2,0.1,0.4,0.2,0.6,0.3c0.2,0.1,0.4,0.3,0.5,0.5c0.2,0.2,0.3,0.4,0.5,0.6
			c0.2,0.2,0.3,0.4,0.4,0.6L64.8,192.4z M56.9,180.9v3.8h1.3c0.6,0,1.1-0.2,1.5-0.6c0.4-0.4,0.6-0.9,0.6-1.5c0-1.2-0.7-1.8-2-1.8
			H56.9z"/>
		<path class="st1" d="M71.5,192.6c-1.8,0-3.3-0.6-4.5-1.9c-1.2-1.3-1.7-3-1.7-5c0-2.2,0.6-3.9,1.8-5.3c1.2-1.3,2.7-2,4.7-2
			c1.8,0,3.3,0.6,4.5,1.9c1.1,1.3,1.7,3,1.7,5.1c0,2.2-0.6,3.9-1.8,5.2C74.9,191.9,73.4,192.6,71.5,192.6z M71.6,181
			c-1,0-1.8,0.4-2.4,1.2c-0.6,0.8-0.9,1.9-0.9,3.2c0,1.4,0.3,2.4,0.9,3.2c0.6,0.8,1.4,1.2,2.4,1.2c1,0,1.8-0.4,2.4-1.2
			c0.6-0.8,0.9-1.8,0.9-3.2c0-1.4-0.3-2.5-0.9-3.3C73.4,181.4,72.6,181,71.6,181z"/>
		<path class="st1" d="M85.1,192.4v-13.8h4.6c4.6,0,6.9,2.2,6.9,6.7c0,2.1-0.6,3.9-1.9,5.1c-1.2,1.3-2.9,1.9-5,1.9H85.1z M88,181.1
			v8.8h1.4c1.3,0,2.2-0.4,3-1.2c0.7-0.8,1.1-1.9,1.1-3.3c0-1.3-0.4-2.4-1.1-3.1c-0.7-0.8-1.7-1.1-3-1.1H88z"/>
		<path class="st1" d="M106.3,192.4h-7.7v-13.8h7.4v2.5h-4.5v3.1h4.2v2.5h-4.2v3.2h4.8V192.4z"/>
		<path class="st1" d="M124.3,192.4H121l-2-3.6c-0.1-0.3-0.3-0.5-0.4-0.7c-0.1-0.2-0.3-0.4-0.4-0.5c-0.1-0.2-0.3-0.3-0.4-0.3
			c-0.2-0.1-0.3-0.1-0.5-0.1h-0.8v5.3h-2.9v-13.8h4.6c3.1,0,4.7,1.3,4.7,3.8c0,0.5-0.1,0.9-0.2,1.3c-0.1,0.4-0.3,0.8-0.6,1.1
			c-0.3,0.3-0.6,0.6-0.9,0.8c-0.4,0.2-0.8,0.4-1.2,0.6v0c0.2,0.1,0.4,0.2,0.6,0.3c0.2,0.1,0.4,0.3,0.5,0.5c0.2,0.2,0.3,0.4,0.5,0.6
			c0.2,0.2,0.3,0.4,0.4,0.6L124.3,192.4z M116.4,180.9v3.8h1.3c0.6,0,1.1-0.2,1.5-0.6c0.4-0.4,0.6-0.9,0.6-1.5c0-1.2-0.7-1.8-2-1.8
			H116.4z"/>
		<path class="st1" d="M133.2,192.4h-7.7v-13.8h7.4v2.5h-4.5v3.1h4.2v2.5h-4.2v3.2h4.8V192.4z"/>
		<path class="st1" d="M146.6,192.4h-3.2l-0.9-3.1H138l-0.9,3.1h-3.1l4.7-13.8h3.4L146.6,192.4z M141.9,186.9l-1.4-4.6
			c-0.1-0.3-0.2-0.8-0.2-1.2h-0.1c0,0.4-0.1,0.8-0.2,1.2l-1.4,4.7H141.9z"/>
		<path class="st1" d="M148.2,192.4v-13.8h4.7c1.4,0,2.5,0.3,3.3,0.8c0.8,0.6,1.2,1.4,1.2,2.4c0,0.7-0.2,1.4-0.7,2
			c-0.5,0.6-1.1,0.9-1.8,1.2v0c0.9,0.1,1.6,0.5,2.2,1.1c0.5,0.6,0.8,1.3,0.8,2.2c0,1.3-0.4,2.3-1.3,3c-0.8,0.7-2,1.1-3.5,1.1H148.2z
			 M151.1,180.8v3.3h1.3c0.6,0,1.1-0.2,1.4-0.5c0.3-0.3,0.5-0.7,0.5-1.3c0-1-0.7-1.5-2.1-1.5H151.1z M151.1,186.4v3.6h1.6
			c0.7,0,1.2-0.2,1.6-0.5c0.4-0.3,0.6-0.8,0.6-1.4c0-0.6-0.2-1-0.6-1.3c-0.4-0.3-0.9-0.5-1.6-0.5H151.1z"/>
		<path class="st1" d="M164,178.6v2.4h-1.1v9h1.1v2.4h-5.1V190h1.1v-9h-1.1v-2.4H164z"/>
		<path class="st1" d="M173.5,192.4h-7.7v-13.8h2.9v11.3h4.8V192.4z"/>
		<path class="st1" d="M179.2,178.6v2.4h-1.1v9h1.1v2.4h-5.1V190h1.1v-9h-1.1v-2.4H179.2z"/>
		<path class="st1" d="M190.1,181.1h-3.7v11.3h-2.9v-11.3h-3.7v-2.5h10.2V181.1z"/>
		<path class="st1" d="M203.2,192.4H200l-0.9-3.1h-4.6l-0.9,3.1h-3.1l4.7-13.8h3.4L203.2,192.4z M198.4,186.9l-1.4-4.6
			c-0.1-0.3-0.2-0.8-0.2-1.2h-0.1c0,0.4-0.1,0.8-0.2,1.2l-1.4,4.7H198.4z"/>
		<path class="st1" d="M214,191.9c-0.9,0.5-2.2,0.7-3.7,0.7c-2,0-3.5-0.6-4.7-1.9c-1.1-1.2-1.7-2.9-1.7-5c0-2.2,0.6-4,1.9-5.4
			c1.3-1.4,2.9-2.1,5-2.1c1.3,0,2.3,0.2,3.2,0.5v3c-0.9-0.6-1.8-0.8-2.9-0.8c-1.2,0-2.2,0.4-2.9,1.2c-0.7,0.8-1.1,1.9-1.1,3.3
			c0,1.3,0.4,2.4,1.1,3.2c0.7,0.8,1.6,1.2,2.8,1.2c1.1,0,2.2-0.3,3.1-0.9V191.9z M208.8,196.7v-1.3c0.2,0,0.4,0.1,0.6,0.1
			c0.7,0,1.1-0.2,1.1-0.7c0-0.4-0.3-0.6-1-0.6c-0.1,0-0.2,0-0.3,0v-1.8h1.5v0.8c1.1,0.1,1.7,0.6,1.7,1.6c0,1.3-1,2-2.9,2
			C209.3,196.7,209,196.7,208.8,196.7z"/>
		<path class="st1" d="M227.6,192.4h-3.2l-0.9-3.1h-4.6l-0.9,3.1h-3.1l4.7-13.8h3.4L227.6,192.4z M224.5,174.3
			c0,0.9-0.2,1.6-0.5,2.1c-0.3,0.5-0.8,0.7-1.4,0.7c-0.5,0-1-0.1-1.5-0.4c-0.5-0.3-0.9-0.5-1.1-0.5c-0.5,0-0.7,0.3-0.7,1H218
			c0-0.9,0.2-1.6,0.5-2.1c0.3-0.5,0.8-0.7,1.4-0.7c0.5,0,1,0.2,1.5,0.5c0.5,0.3,0.8,0.4,1.1,0.4c0.5,0,0.7-0.4,0.7-1.1H224.5z
			 M222.8,186.9l-1.4-4.6c-0.1-0.3-0.2-0.8-0.2-1.2h-0.1c0,0.4-0.1,0.8-0.2,1.2l-1.4,4.7H222.8z"/>
		<path class="st1" d="M234.6,192.6c-1.8,0-3.3-0.6-4.5-1.9c-1.2-1.3-1.7-3-1.7-5c0-2.2,0.6-3.9,1.8-5.3c1.2-1.3,2.7-2,4.7-2
			c1.8,0,3.3,0.6,4.5,1.9c1.1,1.3,1.7,3,1.7,5.1c0,2.2-0.6,3.9-1.8,5.2C238.1,191.9,236.5,192.6,234.6,192.6z M234.8,181
			c-1,0-1.8,0.4-2.4,1.2c-0.6,0.8-0.9,1.9-0.9,3.2c0,1.4,0.3,2.4,0.9,3.2c0.6,0.8,1.4,1.2,2.4,1.2c1,0,1.8-0.4,2.4-1.2
			c0.6-0.8,0.9-1.8,0.9-3.2c0-1.4-0.3-2.5-0.9-3.3C236.5,181.4,235.7,181,234.8,181z"/>
	</g>
	<g class="st3">
	</g>
</g>
</svg>
