<?xml version="1.0" encoding="utf-8"?>
<!-- Generator: Adobe Illustrator 25.2.1, SVG Export Plug-In . SVG Version: 6.00 Build 0)  -->
<svg version="1.1" id="Camada_1" xmlns="http://www.w3.org/2000/svg" xmlns:xlink="http://www.w3.org/1999/xlink" x="0px" y="0px"
	 viewBox="0 0 862.4 172.8" style="enable-background:new 0 0 862.4 172.8;" xml:space="preserve">
<style type="text/css">
	.st0{fill:#002CFC;}
	.st1{fill:#00DB89;}
	.st2{fill:#FFFFFF;}
</style>
<g>
	<g>
		<path class="st0" d="M54.7,102.5c0-21.3,16.5-37.3,37.4-37.3c11.4,0,21.3,4.8,28.1,12.4c1.3,1.4,1.1,3-0.4,4.2l-1.9,1.5
			c-1.5,1.2-3,0.9-4.4-0.7c-5.4-5.8-12.6-9.3-21.1-9.3c-16,0-28.5,12.2-28.5,29.1s12.5,29.1,28.5,29.1c8.5,0,15.8-3.5,21.1-9.3
			c1.4-1.5,2.9-1.9,4.4-0.7l1.9,1.5c1.5,1.2,1.8,2.8,0.4,4.1c-6.7,7.7-16.7,12.5-28.1,12.5C71.2,139.8,54.7,123.9,54.7,102.5z"/>
		<path class="st0" d="M187.7,138.5h-4.3c-2,0-2.4-1.1-3.4-3.1l-5.8-12.8h-38.2l-5.9,12.8c-0.9,2-1.3,3.1-3.3,3.1h-4.1
			c-2,0-2.9-1.1-1.9-3.1l31.4-67.2c0.4-1.1,1.2-2.1,2.7-2.1h0.8c1.4,0,2.2,1,2.8,2.1l31.1,67.2C190.6,137.3,189.7,138.5,187.7,138.5
			z M170.9,115l-15.7-34.9L139.4,115H170.9z"/>
		<path class="st0" d="M248.6,135.1c1.1,2.1,0.1,3.3-1.5,3.3h-4c-2.1,0-2.5-0.7-3.6-2.5l-15.4-27.5h-18.2v26.8c0,2-1.1,3.3-3.1,3.3
			H200c-2,0-3.1-1.3-3.1-3.3V69.9c0-2.1,1.2-3.3,3.3-3.3h24.1c16.7,0,25.5,7.9,25.5,21c0,10.5-5.9,17.5-16.6,19.9L248.6,135.1z
			 M205.8,101h20.3c9.2,0,14.5-5.6,14.5-13.3c0-7.7-5.3-13.3-14.5-13.3h-20.3V101z"/>
		<path class="st0" d="M273.4,135.1V74.4h-20.5c-2,0-3.2-1.1-3.2-3.1v-1.7c0-2,1.2-3.1,3.2-3.1h49.9c2.1,0,3.3,1.1,3.3,3.1v1.7
			c0,2-1.2,3.1-3.3,3.1h-20.5v60.7c0,2-1,3.3-3,3.3h-2.9C274.5,138.5,273.4,137.1,273.4,135.1z"/>
		<path class="st0" d="M363.4,138.5h-4.3c-2,0-2.4-1.1-3.4-3.1l-5.8-12.8h-38.2l-5.9,12.8c-0.9,2-1.3,3.1-3.3,3.1h-4.1
			c-2,0-2.9-1.1-1.9-3.1L328,68.1c0.4-1.1,1.2-2.1,2.7-2.1h0.8c1.4,0,2.2,1,2.8,2.1l31.1,67.2C366.3,137.3,365.4,138.5,363.4,138.5z
			 M311.4,57.3c0-7.2,4.4-11.5,10.2-11.5c7.4,0,12.5,7.4,18.4,7.4c2.2,0,4-1.8,4-4.8c0-1.9,1.2-2.9,2.9-2.9h0.9c1.7,0,3,1,3,2.9
			c0,7.3-4.4,11.5-10.2,11.5c-8.5,0-13.2-7.4-18.2-7.4c-2.3,0-4.1,1.8-4.1,4.8c0,2-1.2,2.9-2.9,2.9h-0.9
			C312.8,60.2,311.4,59.3,311.4,57.3z M346.6,115l-15.7-34.9L315.1,115H346.6z"/>
		<path class="st0" d="M365.3,102.5c0-21.3,16.5-37.3,38-37.3s38.2,15.9,38.2,37.3s-16.6,37.3-38.2,37.3S365.3,123.9,365.3,102.5z
			 M432.4,102.5c0-16.9-12.6-29.1-29.1-29.1c-16.4,0-29,12.2-29,29.1s12.6,29.1,29,29.1C419.8,131.6,432.4,119.4,432.4,102.5z"/>
		<path class="st0" d="M467.7,129.9c-2.9-2.4-3.4-5.2-1.1-8l4.6-5.8c2.4-2.8,5.1-3.2,8-1.1c4.3,3.2,11.2,6.3,16.7,6.3
			c5.3,0,8.6-1.7,8.6-4.3c0-3.9-4.8-4.1-11.8-6.1c-11.2-3.1-24.2-9.3-24.2-23.6c0-13.2,11.8-22.2,29-22.2c10.1,0,18.8,3.2,24.8,7.7
			c3,2.3,3.9,5,1.5,7.9l-4.4,5.5c-2.3,2.9-5.1,3.2-8,1.1c-3.4-2.4-8.1-5-13.5-5c-4.2,0-6.9,1.5-6.9,4c0,3.5,5,5.2,9.7,6.5
			c12.4,3.5,26.4,7.7,26.4,24.1c0,14.9-13.9,22.7-30,22.7C485.1,139.8,474.5,135.8,467.7,129.9z"/>
		<path class="st0" d="M596.5,138.5h-13.9c-3.8,0-4.4-2-5.9-5.6l-1.9-5.1h-25.7l-2,5.1c-1.4,3.6-2.1,5.6-6,5.6h-12.9
			c-3.8,0-5.8-2.1-4.1-5.6l29.3-61.3c1.8-3.8,4.4-5.6,8.2-5.6h1.3c3.9,0,6.5,1.9,8.3,5.6l29.3,61.3
			C602.3,136.4,600.3,138.5,596.5,138.5z M569.3,113.2l-7-18.5l-7.4,18.5H569.3z"/>
		<path class="st0" d="M598.8,104.5V72.2c0-3.6,2-5.6,5.6-5.6h10.7c3.6,0,5.6,2,5.6,5.6v33.7c0,8.5,5.3,14.2,13,14.2
			c7.9,0,13-5.6,13-14.2V72.2c0-3.6,2-5.6,5.6-5.6H663c3.8,0,5.8,2,5.8,5.6v32.3c0,21.2-13.9,35.3-34.8,35.3
			C612.9,139.8,598.8,125.7,598.8,104.5z M617.7,53.2c-2-3.1-1.3-5.1,1.9-7l18.8-11.4c5-3,6.1-2.1,8,1.2l3.5,6.2
			c2.3,4.3,1.4,5.5-3.3,7.4l-20,8.2c-4,1.5-5.8,0.7-7.3-1.9L617.7,53.2z"/>
		<path class="st0" d="M676,132.8V72.2c0-3.6,2-5.6,5.6-5.6h27.9c23.6,0,38,14.4,38,35.8c0,21.7-14.5,36-38,36h-27.9
			C678,138.5,676,136.5,676,132.8z M708.6,120.6c9.5,0,16.5-6.5,16.5-18.1c0-11.6-7-18.1-16.5-18.1H698v36.3H708.6z"/>
		<path class="st0" d="M752.5,132.8V72.2c0-3.6,2-5.6,5.6-5.6h43.5c3.6,0,5.6,2,5.6,5.6v6.5c0,3.6-2,5.6-5.6,5.6h-27.1v9.7h19.2
			c3.6,0,5.8,2.1,5.8,5.8v5.3c0,3.8-2.1,5.8-5.8,5.8h-19.2v9.7H802c3.6,0,5.8,2,5.8,5.6v6.5c0,3.6-2.1,5.6-5.8,5.6h-43.8
			C754.5,138.5,752.5,136.5,752.5,132.8z"/>
	</g>
</g>
<g>
	<path class="st0" d="M51.9,414.7c0-19.4,0-38.9,0-58.3c0.7-2.2,1.1-4.5,2-6.6c4.4-9.2,11.6-14.6,22.1-15c3-0.1,6,0,9.2,0
		c0-1.2,0-2,0-2.9c0-22.2,0.1-44.5-0.1-66.7c-0.1-7.7,5.5-13.7,13.7-13.7c28.4,0.2,56.7,0,85.1,0.1c9,0,16.7,3.3,23.2,9.6
		c6.1,6,12.1,12,18.1,18.1c6.3,6.5,9.6,14.3,9.7,23.3c0.1,9.9,0,19.7,0,29.6c0,0.8,0,1.5,0,2.6c1,0,1.8,0,2.7,0
		c3.3,0.1,6.7-0.2,9.9,0.4c12,2,20.7,12.3,20.7,24.6c0.1,17.5,0,34.9,0,52.4c0,4.4-1.4,5.8-5.8,5.8c-8.3,0-16.6,0-24.9,0
		c-0.8,0-1.6,0.1-2.3,0.1c-0.1,0.4-0.2,0.5-0.2,0.6c0,6.4,0,12.8,0,19.2c-0.1,8.1-5,13.2-13.2,13.2c-41.1,0-82.2,0-123.3,0
		c-8.1,0-13.1-5.1-13.1-13.2c0-5.8,0-11.7,0-17.5c0-0.8,0-1.5,0-2.5c-1.1,0-2,0-2.8,0c-8.3,0-16.6,0-24.9,0
		C54.9,417.9,53,417.2,51.9,414.7z M101.9,268.2c0,27.8,0,55.3,0,83c38.8,0,77.6,0,116.3,0c0-16.6,0-33,0-49.7c-0.8,0-1.6,0-2.4,0
		c-5.9,0-11.8,0-17.7,0c-7.9-0.1-13-5.3-13.1-13.2c0-5.9,0-11.8,0-17.7c0-0.7,0-1.5,0-2.3C157.2,268.2,129.6,268.2,101.9,268.2z
		 M218.2,401.4c-38.9,0-77.6,0-116.3,0c0,11.1,0,22.1,0,33c38.8,0,77.5,0,116.3,0C218.2,423.4,218.2,412.5,218.2,401.4z
		 M243.1,367.9c4.6,0,8.4-3.7,8.4-8.2c0-4.5-3.8-8.3-8.3-8.3c-4.4,0-8.2,3.7-8.3,8.2C234.8,364,238.6,367.9,243.1,367.9z"/>
</g>
<g>
	<path class="st0" d="M761.5,251.5c2,0.3,4.1,0.5,6.1,0.8c21.2,3.3,37.7,13.9,49.2,32c8,12.6,11.2,26.4,10.3,41.2
		c-0.6,9.8-3.3,19.1-6.8,28.2c-7.1,18.6-17.2,35.7-28.3,52.2c-9.7,14.4-20.3,28.1-31.4,41.3c-1,1.1-1.9,2.2-3.1,3.5
		c-0.6-0.6-1.1-1.2-1.6-1.7c-19.5-23-37.4-47.1-51.5-73.9c-6.4-12.1-11.6-24.5-14.8-37.9c-6.6-28.1,4.7-57.7,28.7-73.8
		c10.2-6.9,21.5-10.8,33.8-11.6c0.5,0,1-0.2,1.5-0.3C756.3,251.5,758.9,251.5,761.5,251.5z M757.6,346.1c14,0,24.9-10.9,24.9-24.9
		c0-13.9-11.1-25-25-24.9c-13.8,0.1-24.8,11-24.8,24.9C732.7,335.1,743.6,346.1,757.6,346.1z"/>
</g>
<g>
	<path class="st0" d="M435.5,251.5c4,0,8,0,12,0c2.8,0.4,5.6,0.7,8.4,1.1c25.5,3.9,46.5,15.8,62.6,35.9c18.7,23.3,25.6,50,20.6,79.5
		c-4.1,24.4-15.8,44.8-35.3,60c-29.9,23.5-63.5,29.1-98.9,15.2c-34-13.3-54.3-39.1-61.5-75c-0.7-3.7-1.1-7.4-1.6-11.1
		c0-4.1,0-8.3,0-12.4c0.5-3.6,0.9-7.3,1.5-10.9c6.9-40.3,38.5-72.6,78.5-80.3C426.4,252.6,430.9,252.1,435.5,251.5z M450.3,309
		c0.4-3.7,0.8-7.5,1.2-11.3c0.2-1.7-0.6-2.8-2.3-3c-2.4-0.2-4.8-0.2-7.1-0.1c-1.5,0-2.3,0.8-2.4,2.5c-0.3,3.5-0.8,6.9-1,10.4
		c-0.1,1.4-0.6,1.8-1.9,2c-5.2,0.8-10.1,2.5-14.4,5.8c-10,7.8-11.3,28.4,4,36.3c3.8,2,7.8,3.4,11.7,5.1c3.3,1.5,6.9,2.7,9.9,4.8
		c6.1,4.4,4.9,12.9-2.1,15.7c-2.4,1-5.1,1.4-7.7,1.5c-7.1,0.5-13.6-1.7-19.8-5.2c-2.8-1.6-4.3-0.8-4.5,2.4c-0.1,2.3,0,4.6,0,7
		c0,2.1,1,3.6,2.9,4.5c2.2,1,4.5,1.9,6.8,2.7c2.1,0.7,4.4,1,6.7,1.6c-0.4,4.2-0.8,8.3-1.3,12.4c-0.2,1.9,0.7,2.9,2.4,3
		c2.2,0.2,4.5,0.2,6.8,0.1c1.7-0.1,2.5-1,2.6-2.7c0.3-4.2,0.8-8.5,1.2-12.2c4.5-1.3,8.9-2.1,12.9-3.8c9.1-3.9,14.1-11,14.4-21.1
		c0.3-10-4.5-16.8-13.4-20.9c-4.2-1.9-8.5-3.4-12.7-5.2c-2.6-1.2-5.3-2.4-7.7-4c-3.1-2.2-4.1-5.5-3.1-9.1c0.9-3.5,3.6-5.1,6.8-5.8
		c4.2-0.9,8.5-0.8,12.7,0.5c3,1,5.9,2.2,8.8,3.5c2.6,1.1,3.6,0.7,3.8-2.2c0.1-1.9,0-3.8,0.1-5.6c0.1-3.1-1.1-5.3-4.1-6.3
		C456.9,311,453.7,310,450.3,309z"/>
</g>
<g>
	<path class="st0" d="M-264.7,266.3c0.2-0.7,0.5-1.4,0.7-2.2c2.6-8.5,10.8-13.7,19.6-12.4c8.8,1.3,15.2,8.8,15.2,17.5
		c0,8.9-6.5,16.2-15.5,17.6c-8.2,1.3-16.6-4.1-19.2-12.4c-0.3-0.8-0.5-1.6-0.8-2.4C-264.7,270.1-264.7,268.2-264.7,266.3z"/>
	<path class="st0" d="M-264.7,430.1c1.4-2.9,2.4-6.2,4.4-8.6c5.2-6.5,14-8.1,21.3-4.4c7.3,3.6,11.1,11.7,9.4,19.7
		c-1.7,7.8-8.6,13.6-16.8,13.9c-7.9,0.3-15.3-5.1-17.6-12.9c-0.2-0.6-0.4-1.3-0.7-1.9C-264.7,433.9-264.7,432-264.7,430.1z"/>
	<path class="st0" d="M-264.7,347.9c0.3-0.7,0.6-1.4,0.8-2.1c2.7-8.6,11.1-13.7,19.9-12.3c8.4,1.4,14.9,9,14.8,17.6
		c-0.1,8.6-6.4,16-14.8,17.4c-8.8,1.4-17.2-3.7-19.9-12.3c-0.2-0.7-0.5-1.4-0.8-2.1C-264.7,352.1-264.7,350-264.7,347.9z"/>
	<path class="st0" d="M-101.9,364.3c-28.9,0-57.9,0-86.8,0c-3.6,0-7-0.6-9.9-3c-4.3-3.7-5.7-8.3-4.3-13.7c1.3-5.2,5.7-8.9,11.1-9.5
		c1.1-0.1,2.2-0.2,3.3-0.2c57.9,0,115.7,0,173.6,0c8,0,13.2,3.9,14.6,10.8c1.5,7.1-3.5,14.3-10.7,15.4c-1.5,0.2-3.1,0.3-4.6,0.3
		C-44.4,364.3-73.1,364.3-101.9,364.3z"/>
	<path class="st0" d="M-101.6,281.3c-29.3,0-58.6,0-87.8,0c-8.8,0-14.6-6.3-13.8-14.7c0.6-6.3,5.9-11.3,12.4-11.7
		c0.9-0.1,1.9,0,2.8,0c57.5,0,115.1,0,172.6,0c2.1,0,4.3,0.1,6.4,0.7c6.1,1.8,9.9,8.2,8.9,14.3c-1,6.6-6.3,11.3-13.1,11.3
		c-22.7,0.1-45.5,0-68.2,0C-88.2,281.3-94.9,281.3-101.6,281.3z"/>
	<path class="st0" d="M-101.5,420.8c29.1,0,58.2,0,87.3,0c6.8,0,11.9,3.6,13.6,9.4c2.4,8.2-3.3,16.3-11.8,17c-0.9,0.1-1.7,0-2.6,0
		c-57.8,0-115.6,0-173.4,0c-2,0-4.2-0.2-6.1-0.8c-6.2-2-9.8-8.3-8.7-14.9c1-6.1,6.5-10.7,13.1-10.7
		C-160.6,420.7-131,420.8-101.5,420.8C-101.5,420.8-101.5,420.8-101.5,420.8z"/>
</g>
<g>
	<path class="st0" d="M-383.8,251.5c3.4,0.6,6.9,1.1,10.2,2c24.6,6.6,41.1,29.4,39.7,54.8c-0.2,3.3-0.9,6.7-1.5,10
		c-0.5,2.7-2.6,4.1-5.1,3.5c-2.3-0.5-3.6-2.7-2.9-5.5c1.1-4.9,1.5-9.8,1.2-14.8c-1.4-20.1-17.7-38-37.6-41
		c-24.7-3.8-46.8,11.2-52.3,35.5c-1.5,6.7-1.3,13.5,0.3,20.2c0.7,2.9-0.5,5.1-2.8,5.7c-2.5,0.6-4.5-0.8-5.2-3.9
		c-7.3-29.2,12.1-59.5,41.7-65.3c2.2-0.4,4.4-0.8,6.6-1.1C-389,251.5-386.4,251.5-383.8,251.5z"/>
	<path class="st0" d="M-400,367.7c0-0.7,0-1.4,0-2.1c0-18.4,0-36.9,0-55.3c0-6.1,3.1-10.7,8.3-12.6c7.8-2.8,16.4,3.1,16.5,11.6
		c0.2,9.4,0.1,18.8,0.1,28.2c0,0.7,0,1.4,0.1,2.2c1.2-3.3,3-6.1,6.1-7.8c3.1-1.8,6.4-2.2,9.7-1.1c8.4,2.8,9.5,9.6,9.1,17.2
		c0.2-0.5,0.4-1,0.6-1.5c2.2-5.5,7.9-8.8,13.5-7.8c6.1,1.1,10.3,5.8,10.4,12c0.1,3.2,0,6.4,0.3,9.7c0.2-0.6,0.5-1.1,0.7-1.7
		c2.2-5.3,7.8-8.5,13.1-7.7c5.9,1,10.7,5.9,10.7,11.6c0.1,12.7,0.5,25.4-0.1,38c-1.1,21.7-18.8,41-40.2,44.6
		c-2.8,0.5-5.6,0.8-8.5,0.8c-9.1,0.1-18.1,0.2-27.2,0c-25.1-0.5-46.4-20.7-47.8-45.7c-0.7-12.4-0.4-24.8-0.3-37.3
		c0.1-6.1,5-9.3,11.6-7.8C-406.5,356.9-402.2,361.1-400,367.7z"/>
	<path class="st0" d="M-387.6,272c20,0.3,35.3,17.6,33,37.4c-0.3,2.5-2.1,4.1-4.5,3.9c-2.2-0.2-3.9-2-3.7-4.4
		c0.4-4.7,0-9.2-1.9-13.5c-4.9-11-17.1-17.1-28.7-14.1c-12,3.1-19.9,14-18.8,26.2c0.3,4-0.9,6-3.7,6.2c-2.8,0.2-4.3-1.7-4.6-5.7
		c-1.2-15.5,8.9-30.1,23.9-34.3C-393.8,272.8-390.7,272.5-387.6,272z"/>
</g>
<g>
	<path class="st1" d="M1071,337.2h108.6c3.6,0,6.9-2.1,8.4-5.3c1.5-3.3,2.9-6.6,4.2-9.8c0.2-0.6,0.5-1.3,0.7-2
		c3.4-9.5,5.1-19.8,4.5-30.7c-2.1-37.6-32-68.5-69.5-71.9c-25.2-2.3-48.1,7.7-63.6,24.5c-1.6,1.7-2.5,4-2.5,6.3V328
		C1061.8,333,1065.9,337.2,1071,337.2z"/>
	<path class="st0" d="M931.6,323.7c1.2,3.2,2.6,6.4,4.2,9.7c1.1,2.3,3.4,3.8,6,3.8h99.3c3.6,0,6.6-2.9,6.6-6.6v-73.1
		c0-1.6-0.5-3.1-1.6-4.3c-17.6-19.7-46.4-29.1-76.4-18.1c-18.3,6.7-32.6,21.7-38.8,40.2c-5.5,16.5-4.9,32.6,0.2,46.6
		C931.2,322.5,931.4,323.1,931.6,323.7z"/>
	<path class="st0" d="M1061.8,358.8l0,117.4c0,7.9,9.3,12.2,15.3,7c36.8-31.4,82.6-74,115.8-119c4.5-6.1,0.1-14.8-7.5-14.8H1071
		C1065.9,349.6,1061.8,353.7,1061.8,358.8z"/>
	<path class="st0" d="M1038.3,349.6h-77.5c-7.6,0-12,8.8-7.4,14.8c23.1,30.3,53.5,58.9,78.9,80.9c6,5.2,15.3,0.9,15.3-7v-79.4
		C1047.6,353.7,1043.4,349.6,1038.3,349.6z"/>
</g>
<g>
	<path class="st2" d="M1608.4,485.5c-9.7,0.1-18.3-3.6-26.9-7.3c-84.2-36.6-143.9-97.5-179.5-182.1c-7-16.7-7.1-32.9,4.2-48
		c1.5-2,3.1-4,4.9-5.7c7.8-6.7,15.4-13.6,23.6-19.7c12.3-9.1,25.7-7,35.2,5c2.2,2.8,4.1,5.9,5.8,9.1c8.9,15.9,17.8,31.8,26.4,47.8
		c2.3,4.3,4.1,9,5.1,13.7c1.9,8.8-1.7,16.7-9.5,21.1c-3.4,2-7.4,3.2-11.2,4.4c-5.5,1.7-7.9,6.4-5.5,11.7c0.5,1.2,1.3,2.3,2.1,3.3
		c17.7,22.3,37.8,42.3,60.1,59.9c1.4,1.1,3.1,2.2,4.8,2.8c5.1,1.8,9.4-0.7,10.7-5.9c0.5-2.1,1.1-4.2,1.9-6.2c4.8-12,15-17,27.5-13.4
		c2.9,0.8,5.8,2,8.4,3.5c17.4,9.6,34.7,19.2,52,29c7.9,4.4,13.2,11,15.2,20c1.6,7.1,0.5,13.9-4,19.6c-6.7,8.6-13.6,17.1-21.1,24.9
		C1630.6,481.3,1620.2,485.4,1608.4,485.5z"/>
</g>
<g>
	<path class="st2" d="M1493.4,571.5c-9.7,0.1-18.3-3.6-26.9-7.3c-84.2-36.6-143.9-97.5-179.5-182.1c-7-16.7-7.1-32.9,4.2-48
		c1.5-2,3.1-4,4.9-5.7c7.8-6.7,15.4-13.6,23.6-19.7c12.3-9.1,25.7-7,35.2,5c2.2,2.8,4.1,5.9,5.8,9.1c8.9,15.9,17.8,31.8,26.4,47.8
		c2.3,4.3,4.1,9,5.1,13.7c1.9,8.8-1.7,16.7-9.5,21.1c-3.4,2-7.4,3.2-11.2,4.4c-5.5,1.7-7.9,6.4-5.5,11.7c0.5,1.2,1.3,2.3,2.1,3.3
		c17.7,22.3,37.8,42.3,60.1,59.9c1.4,1.1,3.1,2.2,4.8,2.8c5.1,1.8,9.4-0.7,10.7-5.9c0.5-2.1,1.1-4.2,1.9-6.2c4.8-12,15-17,27.5-13.4
		c2.9,0.8,5.8,2,8.4,3.5c17.4,9.6,34.7,19.2,52,29c7.9,4.4,13.2,11,15.2,20c1.6,7.1,0.5,13.9-4,19.6c-6.7,8.6-13.6,17.1-21.1,24.9
		C1515.6,567.2,1505.2,571.4,1493.4,571.5z"/>
</g>
<g>
	<path class="st2" d="M1839.5,211.7c4.9,1,9.8,1.6,14.6,3c27.8,8.6,43.9,27.9,50,56c4.2,19.3,1.1,37.8-6.2,55.8
		c-8,19.7-18.6,38-30.9,55.2c-8.4,11.8-17.4,23.2-26.4,34.5c-4.3,5.5-9.6,5.4-14.1,0c-20.3-24.4-38.7-50.1-52.4-78.8
		c-5.9-12.3-11-25-12.2-38.7c-2.5-29.2,4.7-54.9,29.1-73.6c10-7.6,21.5-11.7,33.9-13.1c0.6-0.1,1.2-0.3,1.7-0.5
		C1830.9,211.7,1835.2,211.7,1839.5,211.7z M1833.7,307.9c13.3-0.1,24-10.8,24-24.1c0-13.3-10.9-24.1-24.2-24
		c-13.3,0.1-24,10.9-24,24.2C1809.6,297.3,1820.4,308,1833.7,307.9z"/>
	<path class="st2" d="M1697,474.8c1.4-3.1,2.8-6.3,4.3-9.4c0.5-1,1.4-2.1,2.4-2.6c22.3-11.5,44.7-22.9,67.1-34.4
		c1.3-0.7,2.2-0.9,3.4,0.4c17.3,17.4,34.7,34.7,52.1,52c0.4,0.4,0.8,0.9,1.3,1.5c-2.5,1.6-4.7,2.7-7.7,2.7c-37.3-0.1-74.7-0.1-112,0
		c-5,0-8.6-1.3-10.8-6C1697,477.7,1697,476.3,1697,474.8z"/>
	<path class="st2" d="M1787.8,419.8c4.9-2.5,9.6-4.9,14.3-7.3c4.3,5.2,8.4,10.4,12.7,15.5c10.3,12,27.2,12,37.5,0
		c4-4.7,8-9.5,11.8-14.5c13.5-17.4,26-35.6,36.6-55c0.5-0.8,1.6-1.7,2.5-1.7c3.6-0.2,7.3-0.1,10.9,0c3.2,0.1,5.7,1.6,7,4.6
		c8.5,19.7,17,39.5,25.6,59.4c-7.1,3.7-14.1,7.3-21.1,11c-26.9,13.9-53.8,27.9-80.6,41.8c-1.5,0.8-2.5,1.1-3.9-0.3
		c-17.3-17.4-34.7-34.7-52.1-52.1C1788.7,420.8,1788.4,420.5,1787.8,419.8z"/>
	<path class="st2" d="M1792.5,399.4c-26.8,13.7-53.2,27.2-80.3,41c0.5-1.3,0.7-2.1,1-2.8c10.7-25,21.5-49.9,32.1-74.9
		c1.8-4.1,4.6-6.2,9-6.1c3.6,0.1,7.9-1.1,10.7,0.5c2.7,1.5,3.7,5.8,5.6,8.7c6.6,10.3,13.3,20.6,20,30.9
		C1791.2,397.6,1791.7,398.3,1792.5,399.4z"/>
	<path class="st2" d="M1953,435.5c0.4,0.9,0.8,1.5,1.1,2.3c4.9,11.5,9.9,23,14.8,34.5c3.2,7.5-0.3,12.7-8.5,12.7
		c-33.1,0-66.2,0-99.2,0c-0.8,0-1.6,0-2.4,0c-0.1-0.2-0.1-0.3-0.2-0.5C1890.1,468.2,1921.5,451.9,1953,435.5z"/>
	<path class="st2" d="M1833.5,291.9c-4.4,0-7.9-3.6-7.9-8c0-4.3,3.7-8,8-8c4.4,0,8.1,3.8,8,8.2
		C1841.5,288.5,1837.9,291.9,1833.5,291.9z"/>
</g>
<g>
	<path class="st2" d="M1420.1,298.9c4.9,1,9.8,1.6,14.6,3c27.8,8.6,43.9,27.9,50,56c4.2,19.3,1.1,37.8-6.2,55.8
		c-8,19.7-18.6,38-30.9,55.2c-8.4,11.8-17.4,23.2-26.4,34.5c-4.3,5.5-9.6,5.4-14.1,0c-20.3-24.4-38.7-50.1-52.4-78.8
		c-5.9-12.3-11-25-12.2-38.7c-2.5-29.2,4.7-54.9,29.1-73.6c10-7.6,21.5-11.7,33.9-13.1c0.6-0.1,1.2-0.3,1.7-0.5
		C1411.5,298.9,1415.8,298.9,1420.1,298.9z M1414.3,395.1c13.3-0.1,24-10.8,24-24.1c0-13.3-10.9-24.1-24.2-24
		c-13.3,0.1-24,10.9-24,24.2C1390.2,384.5,1401,395.2,1414.3,395.1z"/>
	<path class="st2" d="M1277.6,562.1c1.4-3.1,2.8-6.3,4.3-9.4c0.5-1,1.4-2.1,2.4-2.6c22.3-11.5,44.7-22.9,67.1-34.4
		c1.3-0.7,2.2-0.9,3.4,0.4c17.3,17.4,34.7,34.7,52.1,52c0.4,0.4,0.8,0.9,1.3,1.5c-2.5,1.6-4.7,2.7-7.7,2.7c-37.3-0.1-74.7-0.1-112,0
		c-5,0-8.6-1.3-10.8-6C1277.6,564.9,1277.6,563.5,1277.6,562.1z"/>
	<path class="st2" d="M1368.4,507c4.9-2.5,9.6-4.9,14.3-7.3c4.3,5.2,8.4,10.4,12.7,15.5c10.3,12,27.2,12,37.5,0
		c4-4.7,8-9.5,11.8-14.5c13.5-17.4,26-35.6,36.6-55c0.5-0.8,1.6-1.7,2.5-1.7c3.6-0.2,7.3-0.1,10.9,0c3.2,0.1,5.7,1.6,7,4.6
		c8.5,19.7,17,39.5,25.6,59.4c-7.1,3.7-14.1,7.3-21.1,11c-26.9,13.9-53.8,27.9-80.6,41.8c-1.5,0.8-2.5,1.1-3.9-0.3
		c-17.3-17.4-34.7-34.7-52.1-52.1C1369.3,508,1369.1,507.7,1368.4,507z"/>
	<path class="st2" d="M1373.1,486.6c-26.8,13.7-53.2,27.2-80.3,41c0.5-1.3,0.7-2.1,1-2.8c10.7-25,21.5-49.9,32.1-74.9
		c1.8-4.1,4.6-6.2,9-6.1c3.6,0.1,7.9-1.1,10.7,0.5c2.7,1.5,3.7,5.8,5.6,8.7c6.6,10.3,13.3,20.6,20,30.9
		C1371.8,484.8,1372.3,485.5,1373.1,486.6z"/>
	<path class="st2" d="M1533.6,522.8c0.4,0.9,0.8,1.5,1.1,2.3c4.9,11.5,9.9,23,14.8,34.5c3.2,7.5-0.3,12.7-8.5,12.7
		c-33.1,0-66.2,0-99.2,0c-0.8,0-1.6,0-2.4,0c-0.1-0.2-0.1-0.3-0.2-0.5C1470.7,555.4,1502.1,539.1,1533.6,522.8z"/>
	<path class="st2" d="M1414.1,379.1c-4.4,0-7.9-3.6-7.9-8c0-4.3,3.7-8,8-8c4.4,0,8.1,3.8,8,8.2
		C1422.1,375.7,1418.5,379.1,1414.1,379.1z"/>
</g>
</svg>
