<?xml version="1.0" encoding="utf-8"?>
<!-- Generator: Adobe Illustrator 25.2.1, SVG Export Plug-In . SVG Version: 6.00 Build 0)  -->
<svg version="1.1" id="Camada_1" xmlns="http://www.w3.org/2000/svg" xmlns:xlink="http://www.w3.org/1999/xlink" x="0px" y="0px"
	 viewBox="0 0 561.6 28.4" style="enable-background:new 0 0 561.6 28.4;" xml:space="preserve">
<style type="text/css">
	.st0{fill:#374893;}
	.st1{fill:#FFFFFF;}
	.st2{fill:#FFFFFF;stroke:#374893;stroke-width:0.5;stroke-miterlimit:10;}
</style>
<path class="st0" d="M549.6,0H12C5.4,0,0,5.4,0,12v16.4h561.6V12C561.6,5.4,556.2,0,549.6,0z"/>
<g>
	<path class="st1" d="M239.9,18.3c-0.2,1-1,1.7-1.8,2.3c-0.3,0.2-0.6,0.3-0.9,0.3c-0.9,0.1-1.7-0.1-2.5-0.4
		c-1.4-0.5-2.6-1.3-3.7-2.3c-1.4-1.2-2.7-2.6-3.7-4.2c-0.6-1-1.1-2-1.3-3.1c-0.1-0.5-0.2-1,0-1.6c0.1-0.2,0.2-0.5,0.4-0.7
		c0.3-0.3,0.6-0.7,1-1c0.7-0.5,1.4-0.5,2.1,0c0.7,0.6,1.2,1.3,1.5,2.1c0.3,0.7,0.1,1.4-0.3,2c-0.1,0.1-0.2,0.3-0.3,0.4
		c-0.1,0.1-0.2,0.3-0.1,0.5c0.1,0.3,0.2,0.5,0.4,0.7c0.6,0.8,1.3,1.5,2,2.2c0.4,0.4,0.8,0.7,1.3,1c0.1,0.1,0.3,0.1,0.5,0.2
		c0.2,0.1,0.3,0,0.4-0.1c0.2-0.2,0.5-0.4,0.7-0.6c0.7-0.6,1.5-0.6,2.4-0.3c0.5,0.2,1,0.6,1.4,1c0.2,0.3,0.4,0.6,0.5,0.9c0,0,0,0,0,0
		C239.9,18,239.9,18.1,239.9,18.3z"/>
</g>
<g>
	<path class="st1" d="M251.5,17.5c-2,0-3.3-1.6-3.3-4c0-2.4,1.3-4,3.3-4s3.3,1.6,3.3,4C254.8,15.8,253.4,17.5,251.5,17.5z
		 M251.5,16.1c1,0,1.7-1.1,1.7-2.7c0-1.6-0.7-2.7-1.7-2.7s-1.7,1.1-1.7,2.7C249.8,15,250.5,16.1,251.5,16.1z"/>
	<path class="st1" d="M261.9,15c0,1.4-1.3,2.5-3.1,2.5c-1.8,0-3.1-1-3.1-2.5c0-0.9,0.6-1.7,1.5-2c-0.6-0.3-0.9-0.9-0.9-1.5
		c0-1.2,1.1-2.1,2.6-2.1s2.6,0.9,2.6,2.1c0,0.7-0.3,1.2-0.9,1.5C261.4,13.3,261.9,14.1,261.9,15z M260.3,14.9c0-0.8-0.6-1.4-1.5-1.4
		s-1.5,0.6-1.5,1.4c0,0.8,0.6,1.3,1.5,1.3S260.3,15.7,260.3,14.9z M257.8,11.5c0,0.6,0.5,1,1.1,1s1.1-0.4,1.1-1
		c0-0.5-0.5-0.9-1.1-0.9S257.8,11,257.8,11.5z"/>
	<path class="st1" d="M266.2,17.5c-2,0-3.3-1.6-3.3-4c0-2.4,1.3-4,3.3-4s3.3,1.6,3.3,4C269.5,15.8,268.2,17.5,266.2,17.5z
		 M266.2,16.1c1,0,1.7-1.1,1.7-2.7c0-1.6-0.7-2.7-1.7-2.7s-1.7,1.1-1.7,2.7C264.5,15,265.2,16.1,266.2,16.1z"/>
	<path class="st1" d="M273.9,17.5c-2,0-3.3-1.6-3.3-4c0-2.4,1.3-4,3.3-4s3.3,1.6,3.3,4C277.2,15.8,275.9,17.5,273.9,17.5z
		 M273.9,16.1c1,0,1.7-1.1,1.7-2.7c0-1.6-0.7-2.7-1.7-2.7s-1.7,1.1-1.7,2.7C272.2,15,272.9,16.1,273.9,16.1z"/>
	<path class="st1" d="M284.2,17.5c-2,0-3.3-1.6-3.3-4c0-2.4,1.3-4,3.3-4s3.3,1.6,3.3,4C287.6,15.8,286.2,17.5,284.2,17.5z
		 M284.2,16.1c1,0,1.7-1.1,1.7-2.7c0-1.6-0.7-2.7-1.7-2.7s-1.7,1.1-1.7,2.7C282.5,15,283.2,16.1,284.2,16.1z"/>
	<path class="st1" d="M290.5,17.2c-0.2-0.2-0.3-0.5,0-0.7c0.6-0.6,1-1.1,1.8-2.1l0,0c-0.3,0.2-0.7,0.3-1.1,0.3
		c-1.6,0-2.9-1.1-2.9-2.7c0-1.6,1.3-2.7,3.1-2.7c1,0,1.8,0.3,2.4,0.9c0.5,0.5,0.7,1.2,0.7,1.9c0,1.9-1.2,3.5-2.8,5.1
		c-0.3,0.3-0.6,0.3-0.8,0.1L290.5,17.2z M292.9,12.1c0-0.8-0.6-1.4-1.5-1.4c-0.8,0-1.5,0.6-1.5,1.4c0,0.8,0.6,1.4,1.5,1.4
		C292.2,13.5,292.9,12.9,292.9,12.1z"/>
	<path class="st1" d="M301.5,15c0,1.4-1.3,2.5-3.1,2.5c-1.8,0-3.1-1-3.1-2.5c0-0.9,0.6-1.7,1.5-2c-0.6-0.3-0.9-0.9-0.9-1.5
		c0-1.2,1.1-2.1,2.6-2.1s2.6,0.9,2.6,2.1c0,0.7-0.3,1.2-0.9,1.5C301,13.3,301.5,14.1,301.5,15z M299.9,14.9c0-0.8-0.6-1.4-1.5-1.4
		s-1.5,0.6-1.5,1.4c0,0.8,0.6,1.3,1.5,1.3S299.9,15.7,299.9,14.9z M297.4,11.5c0,0.6,0.5,1,1.1,1s1.1-0.4,1.1-1
		c0-0.5-0.5-0.9-1.1-0.9S297.4,11,297.4,11.5z"/>
	<path class="st1" d="M311.2,14.8c0,1.6-1.3,2.7-3.1,2.7c-1.1,0-2.1-0.4-2.7-1.1c-0.2-0.2-0.3-0.4-0.1-0.6l0.3-0.3
		c0.2-0.2,0.4-0.2,0.6,0c0.5,0.4,1.2,0.8,1.8,0.8c0.9,0,1.6-0.6,1.6-1.4c0-0.9-0.6-1.4-1.6-1.4c-0.5,0-1,0.2-1.3,0.4
		c-0.3,0.2-0.5,0.2-0.7,0.1l-0.3-0.1c-0.3-0.1-0.3-0.4-0.3-0.7l0.5-3c0-0.3,0.2-0.5,0.5-0.5h3.7c0.3,0,0.5,0.2,0.5,0.5v0.4
		c0,0.3-0.2,0.5-0.5,0.5h-3l-0.2,1.5c0.4-0.2,0.9-0.3,1.4-0.3C310,12.1,311.2,13.1,311.2,14.8z"/>
	<path class="st1" d="M314,17.2c-0.2-0.2-0.3-0.5,0-0.7c0.6-0.6,1-1.1,1.8-2.1l0,0c-0.3,0.2-0.7,0.3-1.1,0.3c-1.6,0-2.9-1.1-2.9-2.7
		c0-1.6,1.3-2.7,3.1-2.7c1,0,1.8,0.3,2.4,0.9c0.5,0.5,0.7,1.2,0.7,1.9c0,1.9-1.2,3.5-2.8,5.1c-0.3,0.3-0.6,0.3-0.8,0.1L314,17.2z
		 M316.4,12.1c0-0.8-0.6-1.4-1.5-1.4s-1.5,0.6-1.5,1.4c0,0.8,0.6,1.4,1.5,1.4C315.8,13.5,316.4,12.9,316.4,12.1z"/>
	<path class="st1" d="M318.8,14.6c0-1.8,1.2-3.4,2.8-5c0.3-0.3,0.6-0.3,0.8-0.1l0.3,0.3c0.2,0.2,0.3,0.4,0,0.7
		c-0.6,0.6-1.3,1.3-1.8,2.1l0,0c0.4-0.3,0.9-0.4,1.4-0.4c1.5,0,2.6,1.1,2.6,2.6c0,1.6-1.3,2.7-3.1,2.7
		C320.1,17.5,318.9,16.4,318.8,14.6z M323.4,14.8c0-0.8-0.6-1.4-1.5-1.4c-0.8,0-1.5,0.6-1.5,1.4c0,0.8,0.6,1.4,1.5,1.4
		C322.7,16.3,323.4,15.7,323.4,14.8z"/>
	<path class="st1" d="M327.6,17.2c-0.2-0.2-0.3-0.5,0-0.7c0.6-0.6,1-1.1,1.8-2.1l0,0c-0.3,0.2-0.7,0.3-1.1,0.3
		c-1.6,0-2.9-1.1-2.9-2.7c0-1.6,1.3-2.7,3.1-2.7c1,0,1.8,0.3,2.4,0.9c0.5,0.5,0.7,1.2,0.7,1.9c0,1.9-1.2,3.5-2.8,5.1
		c-0.3,0.3-0.6,0.3-0.8,0.1L327.6,17.2z M330,12.1c0-0.8-0.6-1.4-1.5-1.4c-0.8,0-1.5,0.6-1.5,1.4c0,0.8,0.6,1.4,1.5,1.4
		C329.3,13.5,330,12.9,330,12.1z"/>
</g>
<g>
	<g>
		<path class="st2" d="M33.2,7.4c0.3,0,0.6,0,1,0c0.2,0,0.3,0,0.5,0.1C36,7.6,37.2,8.1,38.2,9c1.2,1.1,2,2.4,2.3,4
			c0,0.2,0.1,0.5,0.1,0.7c0,0.3,0,0.6,0,0.9c0,0,0,0.1,0,0.1c0,0.2-0.1,0.5-0.1,0.7c-0.3,1.7-1.2,3-2.5,4.1c-1.5,1.1-3.1,1.6-5,1.4
			c-0.8-0.1-1.6-0.3-2.3-0.7c-0.1,0-0.2-0.1-0.3,0c-0.5,0.2-1.1,0.3-1.6,0.5c-0.6,0.2-1.2,0.4-1.9,0.6c-0.1,0-0.2,0-0.2,0
			c0,0,0-0.1,0-0.2c0,0,0,0,0-0.1c0.4-1.1,0.7-2.1,1.1-3.2c0-0.1,0-0.3,0-0.4c-0.8-1.5-1-3.1-0.7-4.7c0.6-2.7,2.9-4.8,5.6-5.2
			C32.8,7.4,33,7.4,33.2,7.4z M28.8,19.2c0.1,0,0.1,0,0.1,0c0.5-0.2,1.1-0.3,1.6-0.5c0.1,0,0.2,0,0.3,0c0.7,0.4,1.4,0.7,2.3,0.8
			c0.8,0.1,1.6,0,2.4-0.2c0.9-0.3,1.7-0.8,2.4-1.6c0.8-0.9,1.2-1.9,1.3-3.1c0.1-1.2-0.2-2.3-0.8-3.3c-0.8-1.2-1.8-2-3.2-2.3
			c-1-0.3-2.1-0.3-3.1,0.1c-1.1,0.4-2,1-2.7,2c-0.8,1.1-1.1,2.3-1,3.6c0.1,0.9,0.4,1.8,0.9,2.6c0.1,0.1,0.1,0.3,0.1,0.4
			C29.1,18.1,28.9,18.7,28.8,19.2z"/>
		<path class="st2" d="M37.3,15.9c0,1-0.8,1.5-1.5,1.6c-0.5,0.1-0.9-0.1-1.3-0.2c-1.4-0.4-2.4-1.3-3.2-2.4c-0.3-0.4-0.6-0.8-0.8-1.2
			c-0.2-0.6-0.3-1.2,0-1.8c0.2-0.4,0.5-0.7,1-0.7c0.1,0,0.2,0,0.3,0c0.2,0,0.4,0,0.5,0.2c0.2,0.5,0.4,1,0.6,1.4
			c0.1,0.2,0,0.4-0.1,0.5c-0.1,0.1-0.2,0.3-0.3,0.4c0,0,0,0.1,0,0.1c0.6,0.8,1.2,1.4,2.1,1.8c0.1,0,0.1,0,0.2,0
			c0.1-0.2,0.3-0.4,0.5-0.6c0.2-0.2,0.3-0.3,0.5-0.2c0.5,0.2,1,0.5,1.5,0.7C37.3,15.5,37.3,15.7,37.3,15.9z"/>
	</g>
</g>
<g>
	<path class="st1" d="M53.9,17.2c-0.2-0.2-0.3-0.5,0-0.7c0.6-0.6,1-1.1,1.8-2.1l0,0c-0.3,0.2-0.7,0.3-1.1,0.3
		c-1.6,0-2.9-1.1-2.9-2.7c0-1.6,1.3-2.7,3.1-2.7c1,0,1.8,0.3,2.4,0.9c0.5,0.5,0.7,1.2,0.7,1.9c0,1.9-1.2,3.5-2.8,5.1
		c-0.3,0.3-0.6,0.3-0.8,0.1L53.9,17.2z M56.2,12.1c0-0.8-0.6-1.4-1.5-1.4c-0.8,0-1.5,0.6-1.5,1.4c0,0.8,0.6,1.4,1.5,1.4
		C55.6,13.6,56.2,13,56.2,12.1z"/>
	<path class="st1" d="M64.9,15.1c0,1.4-1.3,2.5-3.1,2.5c-1.8,0-3.1-1-3.1-2.5c0-0.9,0.6-1.7,1.5-2c-0.6-0.3-0.9-0.9-0.9-1.5
		c0-1.2,1.1-2.1,2.6-2.1c1.5,0,2.6,0.9,2.6,2.1c0,0.7-0.3,1.2-0.9,1.5C64.3,13.4,64.9,14.2,64.9,15.1z M63.3,15
		c0-0.8-0.6-1.4-1.5-1.4c-0.9,0-1.5,0.6-1.5,1.4c0,0.8,0.6,1.3,1.5,1.3C62.6,16.3,63.3,15.7,63.3,15z M60.7,11.6c0,0.6,0.5,1,1.1,1
		c0.6,0,1.1-0.4,1.1-1c0-0.5-0.5-0.9-1.1-0.9C61.2,10.6,60.7,11,60.7,11.6z"/>
	<path class="st1" d="M70.5,17.2c-0.2-0.2-0.3-0.5,0-0.7c0.6-0.6,1-1.1,1.8-2.1l0,0c-0.3,0.2-0.7,0.3-1.1,0.3
		c-1.6,0-2.9-1.1-2.9-2.7c0-1.6,1.3-2.7,3.1-2.7c1,0,1.8,0.3,2.4,0.9c0.5,0.5,0.7,1.2,0.7,1.9c0,1.9-1.2,3.5-2.8,5.1
		c-0.3,0.3-0.6,0.3-0.8,0.1L70.5,17.2z M72.8,12.1c0-0.8-0.6-1.4-1.5-1.4c-0.8,0-1.5,0.6-1.5,1.4c0,0.8,0.6,1.4,1.5,1.4
		C72.2,13.6,72.8,13,72.8,12.1z"/>
	<path class="st1" d="M81.5,15.1c0,1.4-1.3,2.5-3.1,2.5c-1.8,0-3.1-1-3.1-2.5c0-0.9,0.6-1.7,1.5-2c-0.6-0.3-0.9-0.9-0.9-1.5
		c0-1.2,1.1-2.1,2.6-2.1c1.5,0,2.6,0.9,2.6,2.1c0,0.7-0.3,1.2-0.9,1.5C80.9,13.4,81.5,14.2,81.5,15.1z M79.9,15
		c0-0.8-0.6-1.4-1.5-1.4c-0.9,0-1.5,0.6-1.5,1.4c0,0.8,0.6,1.3,1.5,1.3C79.3,16.3,79.9,15.7,79.9,15z M77.3,11.6c0,0.6,0.5,1,1.1,1
		c0.6,0,1.1-0.4,1.1-1c0-0.5-0.5-0.9-1.1-0.9C77.8,10.6,77.3,11,77.3,11.6z"/>
	<path class="st1" d="M88.1,15.2c0,1.4-1.2,2.3-3,2.3c-1.1,0-2.1-0.5-2.7-1.1c-0.2-0.2-0.3-0.4-0.1-0.6l0.3-0.3
		c0.2-0.2,0.4-0.3,0.6,0c0.4,0.4,1.1,0.8,1.8,0.8c0.8,0,1.4-0.5,1.4-1.1c0-0.8-0.7-1.2-1.6-1.2h-0.3c-0.3,0-0.5-0.2-0.5-0.5v-0.2
		c0-0.3,0.2-0.5,0.5-0.5h0.3c0.8,0,1.4-0.4,1.4-1c0-0.6-0.5-1-1.2-1c-0.6,0-1,0.2-1.5,0.6c-0.2,0.2-0.5,0.2-0.7,0l-0.2-0.3
		c-0.2-0.2-0.1-0.5,0.1-0.6c0.7-0.6,1.5-0.9,2.5-0.9c1.5,0,2.6,0.9,2.6,2.1c0,0.8-0.4,1.3-1.1,1.7C87.6,13.6,88.1,14.3,88.1,15.2z"
		/>
	<path class="st1" d="M94.7,15.2c0,1.4-1.2,2.3-3,2.3c-1.1,0-2.1-0.5-2.7-1.1c-0.2-0.2-0.3-0.4-0.1-0.6l0.3-0.3
		c0.2-0.2,0.4-0.3,0.6,0c0.4,0.4,1.1,0.8,1.8,0.8c0.8,0,1.4-0.5,1.4-1.1c0-0.8-0.7-1.2-1.6-1.2h-0.3c-0.3,0-0.5-0.2-0.5-0.5v-0.2
		c0-0.3,0.2-0.5,0.5-0.5h0.3c0.8,0,1.4-0.4,1.4-1c0-0.6-0.5-1-1.2-1c-0.6,0-1,0.2-1.5,0.6c-0.2,0.2-0.5,0.2-0.7,0l-0.2-0.3
		c-0.2-0.2-0.1-0.5,0.1-0.6c0.7-0.6,1.5-0.9,2.5-0.9c1.5,0,2.6,0.9,2.6,2.1c0,0.8-0.4,1.3-1.1,1.7C94.2,13.6,94.7,14.3,94.7,15.2z"
		/>
	<path class="st1" d="M100.8,10v0.3c0,0.1-0.1,0.3-0.1,0.5L98,16.9c-0.1,0.3-0.3,0.5-0.6,0.5h-0.6c-0.3,0-0.6-0.2-0.4-0.6l2.6-5.9
		h-3.2c-0.3,0-0.5-0.2-0.5-0.5V10c0-0.3,0.2-0.5,0.5-0.5h4.6C100.7,9.6,100.8,9.7,100.8,10z"/>
	<path class="st1" d="M100.8,16.5c0-0.6,0.5-1,1-1c0.6,0,1,0.5,1,1c0,0.6-0.5,1-1,1C101.3,17.5,100.8,17.1,100.8,16.5z"/>
	<path class="st1" d="M109.9,14.8c0,1.6-1.3,2.7-3.1,2.7c-1.1,0-2.1-0.4-2.7-1.1c-0.2-0.2-0.3-0.4-0.1-0.6l0.3-0.3
		c0.2-0.2,0.4-0.2,0.6,0c0.5,0.4,1.2,0.8,1.8,0.8c0.9,0,1.6-0.6,1.6-1.4c0-0.9-0.6-1.4-1.6-1.4c-0.5,0-1,0.2-1.3,0.4
		c-0.3,0.2-0.5,0.2-0.7,0.1l-0.3-0.1c-0.3-0.1-0.3-0.4-0.3-0.7l0.5-3c0-0.3,0.2-0.5,0.5-0.5h3.7c0.3,0,0.5,0.2,0.5,0.5v0.4
		c0,0.3-0.2,0.5-0.5,0.5h-3l-0.2,1.5c0.4-0.2,0.9-0.3,1.4-0.3C108.7,12.1,109.9,13.2,109.9,14.8z"/>
	<path class="st1" d="M112.7,17.2c-0.2-0.2-0.3-0.5,0-0.7c0.6-0.6,1-1.1,1.8-2.1l0,0c-0.3,0.2-0.7,0.3-1.1,0.3
		c-1.6,0-2.9-1.1-2.9-2.7c0-1.6,1.3-2.7,3.1-2.7c1,0,1.8,0.3,2.4,0.9c0.5,0.5,0.7,1.2,0.7,1.9c0,1.9-1.2,3.5-2.8,5.1
		c-0.3,0.3-0.6,0.3-0.8,0.1L112.7,17.2z M115.1,12.1c0-0.8-0.6-1.4-1.5-1.4c-0.8,0-1.5,0.6-1.5,1.4c0,0.8,0.6,1.4,1.5,1.4
		C114.5,13.6,115.1,13,115.1,12.1z"/>
	<path class="st1" d="M122.7,10v0.3c0,0.1-0.1,0.3-0.1,0.5l-2.7,6.1c-0.1,0.3-0.3,0.5-0.6,0.5h-0.6c-0.3,0-0.6-0.2-0.4-0.6l2.6-5.9
		h-3.2c-0.3,0-0.5-0.2-0.5-0.5V10c0-0.3,0.2-0.5,0.5-0.5h4.6C122.6,9.6,122.7,9.7,122.7,10z"/>
	<path class="st1" d="M125.4,17.2c-0.2-0.2-0.3-0.5,0-0.7c0.6-0.6,1-1.1,1.8-2.1l0,0c-0.3,0.2-0.7,0.3-1.1,0.3
		c-1.6,0-2.9-1.1-2.9-2.7c0-1.6,1.3-2.7,3.1-2.7c1,0,1.8,0.3,2.4,0.9c0.5,0.5,0.7,1.2,0.7,1.9c0,1.9-1.2,3.5-2.8,5.1
		c-0.3,0.3-0.6,0.3-0.8,0.1L125.4,17.2z M127.7,12.1c0-0.8-0.6-1.4-1.5-1.4c-0.8,0-1.5,0.6-1.5,1.4c0,0.8,0.6,1.4,1.5,1.4
		C127.1,13.6,127.7,13,127.7,12.1z"/>
</g>
<g>
	<path class="st1" d="M426,8.9c1.9,0,3.7,0,5.6,0c0,0,0,0,0.1,0c0.1,0,0.3,0.1,0.4,0.1c1.1,0.4,1.8,1.3,1.8,2.5c0,0.4,0,0.8,0,1.2
		c0,1.3,0,2.5,0,3.8c0,0.4-0.1,0.7-0.2,1c-0.5,1-1.3,1.5-2.4,1.5c-1.7,0-3.3,0-5,0c-0.4,0-0.8-0.1-1.2-0.3c-0.7-0.4-1.2-1-1.3-1.8
		c0-0.1,0-0.1,0-0.2c0-1.9,0-3.7,0-5.6c0,0,0,0,0-0.1c0-0.4,0.2-0.7,0.4-1c0.4-0.6,1-1,1.7-1.2C425.8,8.9,425.9,8.9,426,8.9z
		 M424.6,13.9C424.6,13.9,424.6,13.9,424.6,13.9c0,0.8,0,1.7,0,2.5c0,0.1,0,0.2,0,0.3c0.1,0.8,0.8,1.4,1.6,1.4c1.7,0,3.5,0,5.2,0
		c0.1,0,0.2,0,0.2,0c0.8-0.1,1.4-0.8,1.4-1.6c0-1.7,0-3.5,0-5.2c0-0.1,0-0.1,0-0.2c-0.1-0.8-0.8-1.4-1.6-1.4c-1.7,0-3.5,0-5.2,0
		c-0.1,0-0.2,0-0.2,0c-0.8,0.1-1.4,0.8-1.4,1.6C424.5,12.2,424.6,13.1,424.6,13.9z"/>
	<path class="st1" d="M428.8,16.5c-1.4,0-2.5-1.1-2.5-2.5c0-1.4,1.1-2.5,2.5-2.5c1.4,0,2.5,1.1,2.5,2.5
		C431.3,15.4,430.2,16.5,428.8,16.5z M430.5,13.9c0-0.9-0.8-1.7-1.7-1.7c-0.9,0-1.7,0.8-1.7,1.7c0,0.9,0.8,1.7,1.7,1.7
		C429.7,15.6,430.5,14.9,430.5,13.9z"/>
	<path class="st1" d="M431.6,11.8c-0.4,0-0.6-0.3-0.6-0.6c0-0.4,0.3-0.6,0.6-0.6c0.3,0,0.6,0.3,0.6,0.6
		C432.2,11.5,431.9,11.8,431.6,11.8z"/>
</g>
<g>
	<path class="st1" d="M446,14.3c0-1.8,1.4-3.2,3.2-3.2c0.9,0,1.7,0.3,2.4,0.9c0.1,0.1,0.2,0.3,0,0.6l-0.4,0.4
		c-0.2,0.1-0.3,0.2-0.6,0c-0.5-0.4-0.9-0.5-1.3-0.5c-1,0-1.7,0.8-1.7,1.8c0,1,0.7,1.8,1.7,1.8c0.4,0,0.8-0.1,1.3-0.5
		c0.3-0.2,0.4-0.2,0.6,0l0.4,0.4c0.2,0.2,0.1,0.4,0,0.6c-0.6,0.6-1.5,0.9-2.4,0.9C447.4,17.4,446,16.1,446,14.3z"/>
	<path class="st1" d="M458,13.6v3.2c0,0.3-0.2,0.5-0.4,0.5h-0.4c-0.3,0-0.5-0.2-0.5-0.5v-0.2c-0.5,0.5-1.2,0.8-2,0.8
		c-1.4,0-2.4-0.8-2.4-1.9c0-1.2,1-2,2.6-2c0.6,0,1.1,0.1,1.6,0.3v-0.3c0-0.7-0.5-1.1-1.3-1.1c-0.6,0-1.1,0.2-1.5,0.5
		c-0.2,0.1-0.4,0.1-0.6-0.2l-0.1-0.2c-0.2-0.3-0.1-0.5,0.1-0.7c0.7-0.5,1.5-0.7,2.2-0.7C456.8,11.1,458,11.9,458,13.6z M456.6,15.3
		v-0.4c-0.3-0.1-0.8-0.3-1.4-0.3c-0.8,0-1.3,0.4-1.3,1c0,0.5,0.5,0.9,1.2,0.9C455.9,16.3,456.6,15.9,456.6,15.3z"/>
	<path class="st1" d="M463.6,11.7l-0.2,0.6c-0.1,0.3-0.3,0.3-0.5,0.3c-0.2-0.1-0.4-0.1-0.5-0.1c-0.8,0-1.2,0.6-1.2,1.5v2.9
		c0,0.3-0.2,0.5-0.4,0.5H460c-0.3,0-0.5-0.2-0.5-0.5v-5.1c0-0.3,0.2-0.5,0.5-0.5h0.5c0.3,0,0.5,0.2,0.5,0.5V12
		c0.4-0.6,0.9-0.9,1.6-0.9c0.3,0,0.5,0,0.8,0.1C463.5,11.3,463.6,11.4,463.6,11.7z"/>
	<path class="st1" d="M468.3,17c-0.3,0.2-0.8,0.4-1.3,0.4c-1.1,0-2.1-0.7-2.1-2.2v-2.9h-0.6c-0.3,0-0.5-0.2-0.5-0.5v-0.3
		c0-0.3,0.2-0.4,0.5-0.4h0.6V9.7c0-0.3,0.2-0.4,0.5-0.5l0.6-0.1c0.3-0.1,0.5,0.1,0.5,0.5v1.7h1.3c0.3,0,0.5,0.2,0.5,0.4V12
		c0,0.3-0.2,0.5-0.5,0.5h-1.3v2.7c0,0.7,0.3,0.9,0.8,0.9c0.2,0,0.4-0.1,0.6-0.2c0.3-0.2,0.4,0,0.5,0.2l0.2,0.5
		C468.6,16.8,468.5,16.9,468.3,17z"/>
	<path class="st1" d="M474.6,13.6v3.2c0,0.3-0.2,0.5-0.4,0.5h-0.4c-0.3,0-0.5-0.2-0.5-0.5v-0.2c-0.5,0.5-1.2,0.8-2,0.8
		c-1.4,0-2.4-0.8-2.4-1.9c0-1.2,1-2,2.6-2c0.6,0,1.1,0.1,1.6,0.3v-0.3c0-0.7-0.5-1.1-1.3-1.1c-0.6,0-1.1,0.2-1.5,0.5
		c-0.2,0.1-0.4,0.1-0.6-0.2l-0.1-0.2c-0.2-0.3-0.1-0.5,0.1-0.7c0.7-0.5,1.5-0.7,2.2-0.7C473.4,11.1,474.6,11.9,474.6,13.6z
		 M473.1,15.3v-0.4c-0.3-0.1-0.8-0.3-1.4-0.3c-0.8,0-1.3,0.4-1.3,1c0,0.5,0.5,0.9,1.2,0.9C472.4,16.3,473.1,15.9,473.1,15.3z"/>
	<path class="st1" d="M475.7,14.3c0-1.8,1.4-3.2,3.3-3.2c1.9,0,3.3,1.4,3.3,3.2c0,1.8-1.4,3.2-3.3,3.2
		C477.1,17.4,475.7,16.1,475.7,14.3z M480.7,14.3c0-1-0.7-1.8-1.7-1.8s-1.7,0.8-1.7,1.8S478,16,479,16C480,16,480.7,15.3,480.7,14.3
		z"/>
	<path class="st1" d="M483.2,16.5c-0.2-0.2-0.3-0.4,0-0.7l0.2-0.2c0.2-0.3,0.4-0.2,0.7,0c0.4,0.4,0.9,0.6,1.5,0.6
		c0.5,0,0.9-0.2,0.9-0.6c0-0.5-0.5-0.6-1-0.9c-1-0.3-2-0.7-2-1.9c0-1.1,0.9-1.8,2.3-1.8c0.8,0,1.6,0.3,2,0.7c0.2,0.2,0.3,0.4,0,0.7
		l-0.2,0.2c-0.2,0.2-0.4,0.2-0.7,0.1c-0.4-0.3-0.8-0.5-1.2-0.5c-0.5,0-0.8,0.2-0.8,0.5c0,0.4,0.5,0.5,1.2,0.8c1,0.4,1.8,0.8,1.8,2
		c0,1.1-1,1.8-2.4,1.8C484.6,17.4,483.7,17.1,483.2,16.5z"/>
	<path class="st1" d="M494.3,13.6v3.2c0,0.3-0.2,0.5-0.4,0.5h-0.4c-0.3,0-0.5-0.2-0.5-0.5v-0.2c-0.5,0.5-1.2,0.8-2,0.8
		c-1.4,0-2.4-0.8-2.4-1.9c0-1.2,1-2,2.6-2c0.6,0,1.1,0.1,1.6,0.3v-0.3c0-0.7-0.5-1.1-1.3-1.1c-0.6,0-1.1,0.2-1.5,0.5
		c-0.2,0.1-0.4,0.1-0.6-0.2l-0.1-0.2c-0.2-0.3-0.1-0.5,0.1-0.7c0.7-0.5,1.5-0.7,2.2-0.7C493.1,11.1,494.3,11.9,494.3,13.6z
		 M492.9,15.3v-0.4c-0.3-0.1-0.8-0.3-1.4-0.3c-0.8,0-1.3,0.4-1.3,1c0,0.5,0.5,0.9,1.2,0.9C492.2,16.3,492.9,15.9,492.9,15.3z"/>
	<path class="st1" d="M501.4,11.7v5.1c0,0.3-0.2,0.5-0.5,0.5h-0.4c-0.3,0-0.5-0.2-0.5-0.5v-0.3c-0.4,0.6-1,0.9-1.8,0.9
		c-1.5,0-2.4-1-2.4-2.5v-3.3c0-0.3,0.2-0.5,0.4-0.5h0.7c0.3,0,0.5,0.2,0.5,0.5v3.1c0,0.8,0.5,1.3,1.2,1.3c0.8,0,1.2-0.5,1.2-1.3
		v-3.1c0-0.3,0.2-0.5,0.4-0.5h0.7C501.2,11.2,501.4,11.4,501.4,11.7z"/>
	<path class="st1" d="M509,9.2v7.6c0,0.3-0.2,0.5-0.5,0.5h-0.5c-0.3,0-0.4-0.2-0.4-0.5v-0.3c-0.5,0.5-1.2,0.9-2,0.9
		c-1.8,0-3-1.4-3-3.2c0-1.8,1.3-3.2,3-3.2c0.7,0,1.3,0.2,1.8,0.6V9.3c0-0.3,0.2-0.4,0.4-0.5l0.7-0.1C508.9,8.7,509,8.9,509,9.2z
		 M507.5,14.3c0-1.1-0.7-1.8-1.7-1.8c-1,0-1.7,0.8-1.7,1.8s0.7,1.8,1.7,1.8C506.8,16,507.5,15.4,507.5,14.3z"/>
	<path class="st1" d="M513.7,16.2c0.5,0,1-0.1,1.5-0.5c0.2-0.2,0.4-0.2,0.6,0l0.3,0.3c0.2,0.2,0.1,0.4,0,0.6
		c-0.6,0.6-1.7,0.9-2.5,0.9c-1.8,0-3.3-1.2-3.3-3.2c0-1.8,1.3-3.2,3.1-3.2c0.9,0,1.7,0.3,2.2,0.8c0.6,0.6,0.9,1.3,0.9,2.2
		c0,0.3-0.1,0.5-0.5,0.5h-4.1C512,15.7,512.8,16.2,513.7,16.2z M511.9,13.7h3.1c-0.1-0.4-0.2-0.7-0.4-0.9c-0.3-0.3-0.6-0.4-1.1-0.4
		C512.6,12.3,512,12.8,511.9,13.7z"/>
	<path class="st1" d="M527.4,13.7v3.1c0,0.3-0.2,0.5-0.5,0.5h-0.7c-0.3,0-0.4-0.2-0.4-0.5v-3c0-0.8-0.4-1.3-1.2-1.3
		c-0.8,0-1.3,0.5-1.3,1.3v3c0,0.3-0.2,0.5-0.4,0.5h-0.7c-0.3,0-0.5-0.2-0.5-0.5v-3c0-0.8-0.4-1.3-1.2-1.3s-1.3,0.5-1.3,1.3v3
		c0,0.3-0.2,0.5-0.4,0.5h-0.7c-0.3,0-0.5-0.2-0.5-0.5v-5.1c0-0.3,0.2-0.5,0.5-0.5h0.5c0.3,0,0.5,0.2,0.5,0.5v0.4c0.4-0.6,1-1,1.9-1
		c0.9,0,1.6,0.4,2,1c0.4-0.6,1.1-1,2.1-1C526.5,11.1,527.4,12.2,527.4,13.7z"/>
	<path class="st1" d="M534.2,13.6v3.2c0,0.3-0.2,0.5-0.4,0.5h-0.4c-0.3,0-0.5-0.2-0.5-0.5v-0.2c-0.5,0.5-1.2,0.8-2,0.8
		c-1.4,0-2.4-0.8-2.4-1.9c0-1.2,1-2,2.6-2c0.6,0,1.1,0.1,1.6,0.3v-0.3c0-0.7-0.5-1.1-1.3-1.1c-0.6,0-1.1,0.2-1.5,0.5
		c-0.2,0.1-0.4,0.1-0.6-0.2l-0.1-0.2c-0.2-0.3-0.1-0.5,0.1-0.7c0.7-0.5,1.5-0.7,2.2-0.7C533,11.1,534.2,11.9,534.2,13.6z
		 M532.7,15.3v-0.4c-0.3-0.1-0.8-0.3-1.4-0.3c-0.8,0-1.3,0.4-1.3,1c0,0.5,0.5,0.9,1.2,0.9C532,16.3,532.7,15.9,532.7,15.3z"/>
</g>
</svg>
