<?xml version="1.0" encoding="utf-8"?>
<!-- Generator: Adobe Illustrator 25.0.0, SVG Export Plug-In . SVG Version: 6.00 Build 0)  -->
<svg version="1.1" id="Camada_1" xmlns="http://www.w3.org/2000/svg" xmlns:xlink="http://www.w3.org/1999/xlink" x="0px" y="0px"
	 viewBox="0 0 4175.8 1086.7" style="enable-background:new 0 0 4175.8 1086.7;" xml:space="preserve">
<style type="text/css">
	.st0{display:none;fill:#EEF5F6;}
	.st1{clip-path:url(#SVGID_2_);fill-rule:evenodd;clip-rule:evenodd;fill:#008E89;}
	.st2{clip-path:url(#SVGID_2_);fill-rule:evenodd;clip-rule:evenodd;fill:#FFFFFF;}
</style>
<rect x="-750.5" y="-874" class="st0" width="5669.3" height="2834.6"/>
<g>
	<defs>
		<rect id="SVGID_1_" x="-746.8" y="-856" width="5669.3" height="2834.6"/>
	</defs>
	<clipPath id="SVGID_2_">
		<use xlink:href="#SVGID_1_"  style="overflow:visible;"/>
	</clipPath>
	<path class="st1" d="M383.5,1002.1c-20.7,0-46.4-14.9-56.3-32.3L92.7,572.1c-9.9-17.4-9.9-46.4,0-63.8l234.4-398.5
		c9.9-17.4,35.6-31.5,56.3-31.5h468.9c19.9,0,45.6,14.1,56.3,31.5l233.6,398.5c10.8,17.4,10.8,46.4,0,63.8L908.7,969.7
		c-10.8,17.4-36.5,32.3-56.3,32.3H383.5z"/>
	<path class="st2" d="M767.8,394.8c-37.3-63-12.4-124.3-55.5-145c-10.8,23.2-18.2,43.1-28.2,69.6c0,0-22.4,52.2-16.6,88.6
		c4.1,29.8,18.2,55.5,37.3,75.4c53.8,54.7,135.9,125.9,148.3,206.3c14.1,96.9-53,186.4-151.6,200.5c-97.8,14.1-188-53-203-149.1
		c-4.1-29.8-0.8-59.6,9.1-86.2c0,0.8-0.8,1.7-0.8,2.5c25.7-68.8,65.4-144.1,106.9-220.4l15.7-29c18.2-34,26.5-73.7,19.9-115.1
		c-1.7-13.3-5-26.5-9.9-38.9c-19.1-49.7-58-87.8-106.9-106.9l-20.7,40.6c-58.8,107.7-116,213.7-150.8,311.5
		C323,603.6,308.9,698,341.2,771.8c14.9,34.8,35.6,63.8,59.6,87c25.7,24,55.5,43.1,88.6,55.5c50.5,20.7,106.9,25.7,160.7,18.2
		c27.3-4.1,54.7-11.6,79.5-22.4c24.9-9.9,48.9-23.2,69.6-39.8c27.3-21.5,50.5-48,67.9-78.7c16.6-29,27.3-63,31.5-100.2
		c6.6-52.2-9.1-106.9-38.9-163.2C844,498.4,776.9,409.7,767.8,394.8"/>
	<path class="st2" d="M524.3,615.2L524.3,615.2l0.8-2.5c0.8-1.7,1.7-3.3,2.5-5.8c4.1-9.9,9.1-19.9,13.3-29.8l0.8-0.8l0.8-1.7
		l0.8-1.7l0.8-0.8l0.8-3.3c21.5-42.2,44.7-87,68.8-131.7l15.7-29c18.2-34,26.5-73.7,19.9-115.1c-1.7-13.3-5-26.5-9.9-38.9
		c-19.1-49.7-58-87.8-106.9-106.9L511,187.7c-58,107.7-115.1,213.7-149.9,311.5C323,603.6,308.9,698,341.2,771.8
		c14.9,34.8,35.6,63.8,59.6,87c25.7,24,55.5,43.1,87.8,55.5c51.4,20.7,107.7,25.7,161.5,18.2c27.3-4.1,54.7-11.6,79.5-22.4
		c21.5-8.3,40.6-19.9,59.6-32.3C767,891,743,900.2,715.6,904.3c-103.6,14.9-201.3-58-217-162.4v-2.5c-0.8-5-1.7-9.9-1.7-14.9
		c-0.8-24,2.5-48,10.8-69.6c-0.8,0.8-0.8,1.7-0.8,2.5C511.9,644.2,517.7,630.1,524.3,615.2"/>
	<polygon class="st1" points="1275.6,824.8 1308.8,824.8 1308.8,976.4 1368.4,976.4 1368.4,1002.9 1275.6,1002.9 	"/>
	<path class="st1" d="M1568.1,824.8h37.3l57.2,178.1h-34l-12.4-43.1h-63.8l-12.4,43.1h-32.3L1568.1,824.8z M1585.5,853.8l-24.9,81.2
		h48L1585.5,853.8z"/>
	<path class="st1" d="M1812.4,824.8h47.2c19.9,0,34.8,3.3,43.9,10.8c9.9,8.3,14.1,19.1,14.1,34.8c0,10.8-2.5,19.1-8.3,26.5
		c-5.8,6.6-13.3,10.8-24,13.3c12.4,2.5,21.5,6.6,27.3,14.1c6.6,6.6,9.1,16.6,9.1,29c0,17.4-5,29.8-15.7,37.3
		c-10.8,8.3-27.3,12.4-49.7,12.4h-43.9V824.8z M1843.1,849.6v50.5h13.3c9.9,0,17.4-2.5,22.4-6.6c5-4.1,7.5-10.8,7.5-19.1
		c0-9.1-2.5-14.9-7.5-19.1c-5-4.1-13.3-5.8-24.9-5.8H1843.1z M1843.1,922.5V978h13.3c11.6,0,19.9-2.5,25.7-6.6
		c5-4.1,7.5-10.8,7.5-20.7c0-9.9-2.5-17.4-7.5-21.5c-5-4.1-13.3-6.6-25.7-6.6H1843.1z"/>
	<path class="st1" d="M2144.6,822.3c23.2,0,41.4,7.5,53.8,24c12.4,15.7,19.1,38.1,19.1,67.1s-6.6,52.2-19.1,67.9
		c-12.4,15.7-30.7,24-53.8,24c-22.4,0-40.6-8.3-53-24c-12.4-15.7-19.1-38.1-19.1-67.9c0-29,6.6-51.4,19.1-67.1
		C2104,829.7,2122.3,822.3,2144.6,822.3 M2144.6,846.3c-11.6,0-21.5,5.8-27.3,17.4c-6.6,11.6-9.9,28.2-9.9,49.7
		c0,22.4,3.3,38.9,9.9,50.5c5.8,11.6,15.7,16.6,27.3,16.6c12.4,0,22.4-5,28.2-16.6c6.6-11.6,9.9-28.2,9.9-50.5
		c0-21.5-3.3-38.1-9.9-49.7C2166.2,852.1,2157.1,846.3,2144.6,846.3"/>
	<path class="st1" d="M2378.2,824.8h37.3c26.5,0,45.6,3.3,56.3,10.8c9.9,7.5,15.7,19.1,15.7,36.4c0,10.8-3.3,19.9-9.1,27.3
		c-5.8,6.6-14.9,11.6-26.5,14.9c5.8,0.8,9.9,3.3,13.3,6.6c3.3,3.3,7.5,9.9,10.8,19.9l20.7,62.1h-34l-17.4-53.8
		c-2.5-9.1-5.8-15.7-9.1-18.2c-3.3-2.5-8.3-4.1-15.7-4.1h-9.9v76.2h-32.3V824.8z M2410.5,849.6v52.2h9.1c13.3,0,22.4-2.5,27.3-6.6
		c5-4.1,7.5-11.6,7.5-21.5c0-9.1-2.5-14.9-7.5-19.1c-5-3.3-14.1-5-26.5-5H2410.5z"/>
	<path class="st1" d="M2694.7,824.8h38.1l57.2,178.1h-34l-12.4-43.1h-63.8l-12.4,43.1H2635L2694.7,824.8z M2712.9,853.8l-24.9,81.2
		h48L2712.9,853.8z"/>
	<polygon class="st1" points="2915.9,824.8 3029.4,824.8 3029.4,850.5 2988.8,850.5 2988.8,1002.9 2955.6,1002.9 2955.6,850.5 
		2915.9,850.5 	"/>
	<path class="st1" d="M3248.1,822.3c23.2,0,40.6,7.5,53,24c13.3,15.7,19.1,38.1,19.1,67.9c0,29-5.8,51.4-19.1,67.1
		c-12.4,15.7-29.8,24-53,24c-23.2,0-40.6-8.3-53.8-24c-12.4-15.7-18.2-38.1-18.2-67.1c0-29.8,5.8-52.2,18.2-67.9
		C3207.5,829.7,3224.9,822.3,3248.1,822.3 M3248.1,846.3c-12.4,0-21.5,5.8-28.2,17.4c-6.6,11.6-9.1,28.2-9.1,50.5
		c0,21.5,2.5,38.1,9.1,49.7c6.6,10.8,15.7,16.6,28.2,16.6c12.4,0,21.5-5.8,28.2-16.6c5.8-11.6,9.1-28.2,9.1-49.7
		c0-22.4-3.3-38.9-9.1-50.5C3269.6,852.1,3260.5,846.3,3248.1,846.3 M3254.7,763.5h28.2l-38.1,44.7h-16.6L3254.7,763.5z"/>
	<path class="st1" d="M3481.7,824.8h37.3c26.5,0,45.6,3.3,55.5,10.8c10.8,7.5,15.7,19.1,15.7,36.4c0,10.8-2.5,19.9-8.3,27.3
		c-6.6,6.6-14.9,11.6-26.5,14.9c5.8,0.8,9.9,3.3,13.3,6.6c3.3,3.3,6.6,9.9,9.9,19.9l21.5,62.1h-34.8l-16.6-53.8
		c-3.3-9.1-5.8-15.7-9.9-18.2c-2.5-2.5-8.3-4.1-14.9-4.1h-9.9v76.2h-32.3V824.8z M3514,849.6v52.2h9.1c13.3,0,21.5-2.5,27.3-6.6
		c5-4.1,7.5-11.6,7.5-21.5c0-9.1-2.5-14.9-7.5-19.1c-5-3.3-14.1-5-26.5-5H3514z"/>
	<rect x="3752.5" y="824.8" class="st1" width="33.1" height="178.1"/>
	<path class="st1" d="M4018.5,822.3c23.2,0,40.6,7.5,53,24c13.3,15.7,19.1,38.1,19.1,67.1s-5.8,52.2-19.1,67.9
		c-12.4,15.7-29.8,24-53,24c-23.2,0-40.6-8.3-53.8-24c-12.4-15.7-18.2-38.1-18.2-67.9c0-29,5.8-51.4,18.2-67.1
		C3977.9,829.7,3995.3,822.3,4018.5,822.3 M4018.5,846.3c-12.4,0-21.5,5.8-28.2,17.4c-6.6,11.6-9.1,28.2-9.1,49.7
		c0,22.4,2.5,38.9,9.1,50.5c6.6,11.6,15.7,16.6,28.2,16.6c12.4,0,21.5-5,28.2-16.6c5.8-11.6,9.1-28.2,9.1-50.5
		c0-21.5-3.3-38.1-9.1-49.7C4040,852.1,4030.9,846.3,4018.5,846.3"/>
	<path class="st1" d="M1482.7,709.6c-31.5,0-58.8-3.3-82.8-10.8c-24.9-6.6-46.4-14.9-63.8-24.9c-17.4-9.9-31.5-19.9-42.2-29.8
		c-10.8-9.9-16.6-18.2-19.1-24l2.5-2.5c5-7.5,11.6-14.1,18.2-19.1c5.8-3.3,12.4-5,19.1-5c4.1,0,8.3,0.8,12.4,1.7
		c3.3,1.7,8.3,3.3,13.3,5c4.1,0.8,9.1,2.5,14.1,5c5,1.7,10.8,4.1,16.6,7.5c11.6,4.1,26.5,8.3,43.1,12.4c15.7,4.1,35.6,6.6,58.8,7.5
		h9.9c22.4,0,41.4-2.5,57.2-7.5c15.7-5,28.2-11.6,38.1-19.1c9.9-8.3,16.6-17.4,20.7-27.3c4.1-9.1,6.6-19.1,6.6-27.3
		c0-15.7-4.1-29.8-14.1-42.2c-9.9-13.3-24-24.9-41.4-37.3c-17.4-11.6-38.1-24-62.1-36.4c-23.2-12.4-48-25.7-75.4-39.8
		c-43.1-24-75.4-51.4-96.9-81.2c-21.5-29.8-29.8-61.3-27.3-94.4c2.5-24.9,9.1-46.4,20.7-64.6c11.6-18.2,26.5-34,43.1-45.6
		c17.4-12.4,37.3-21.5,58.8-27.3c21.5-5,43.1-8.3,64.6-8.3c37.3,0,69.6,5,96.9,14.1c28.2,9.9,52.2,19.9,71.2,31.5
		c22.4,13.3,41.4,27.3,57.2,43.9l-1.7,3.3c-7.5,8.3-13.3,14.1-18.2,17.4c-5.8,4.1-12.4,5.8-19.9,5.8c-6.6,0-14.9-1.7-24.9-5.8
		c-5-1.7-9.9-3.3-14.9-5.8c-5-2.5-10.8-4.1-16.6-6.6c-18.2-6.6-36.4-11.6-56.3-15.7c-19.9-3.3-37.3-5-52.2-5
		c-7.5,0-15.7,0.8-24.9,2.5c-9.1,0.8-18.2,2.5-26.5,5.8c-7.5,3.3-14.9,7.5-21.5,12.4c-6.6,5.8-10.8,12.4-13.3,20.7
		c-5,17.4-1.7,33.1,11.6,47.2c13.3,13.3,30.7,26.5,52.2,39.8c22.4,13.3,47.2,25.7,73.7,38.1c27.3,13.3,52.2,27.3,76.2,43.1
		c32.3,22.4,57.2,45.6,72.9,68.8c15.7,23.2,25.7,46.4,29.8,68.8c3.3,22.4,2.5,43.9-4.1,65.4c-5.8,20.7-14.1,38.9-24.9,54.7
		c-19.9,29.8-48,52.2-87,67.9C1571.4,702.2,1529.1,709.6,1482.7,709.6"/>
	<path class="st1" d="M1859.7,452c20.7-5,42.2-7.5,64.6-7.5c31.5,0,61.3,4.1,90.3,13.3c-1.7-18.2-5.8-34.8-12.4-48.9
		c-7.5-18.2-19.1-31.5-34.8-39.8c-5.8-3.3-12.4-5-19.9-6.6c-6.6-1.7-14.9-2.5-24-2.5h-9.9c-8.3,0.8-16.6,1.7-25.7,4.1
		c-8.3,2.5-16.6,5-24.9,7.5c-8.3,3.3-17.4,5.8-25.7,7.5c-8.3,2.5-16.6,3.3-24.9,3.3c-8.3,0-16.6-1.7-24-5
		c-7.5-5-14.1-11.6-19.1-20.7l-2.5-3.3l2.5-2.5c18.2-19.1,38.9-34.8,63.8-46.4c24.9-11.6,51.4-18.2,80.4-19.9c3.3,0,5.8-0.8,7.5-0.8
		h8.3c28.2,0,53,5,76.2,14.9c23.2,9.9,43.1,23.2,59.6,39.8c34.8,37.3,53,85.3,53.8,145v6.6c0,62.1-15.7,111.8-48,150.8
		c-15.7,19.1-34.8,34-57.2,45.6c-21.5,12.4-46.4,19.9-73.7,22.4c-3.3,0.8-7.5,0.8-10.8,0.8h-11.6c-13.3,0-26.5-0.8-40.6-2.5
		c-13.3-2.5-27.3-6.6-40.6-12.4c-14.1-5-27.3-12.4-38.1-20.7c-11.6-8.3-21.5-19.9-29-33.1c-11.6-17.4-18.2-38.1-18.2-63v-5.8
		c0-23.2,5-42.2,14.1-58c8.3-14.9,21.5-28.2,39.8-39.8C1820.7,464.4,1839,457,1859.7,452 M1843.9,204.3c15.7,0,30.7,2.5,43.9,6.6
		c14.1,5,29,9.9,43.9,14.9c14.1,5.8,32.3,8.3,53.8,8.3c28.2,0,49.7-5.8,63.8-17.4c14.1-11.6,24-24,29-37.3
		c5.8-16.6,8.3-34.8,5.8-55.5c-6.6,8.3-13.3,15.7-21.5,21.5c-7.5,5.8-17.4,9.9-28.2,12.4c-11.6,2.5-24.9,2.5-39.8,0
		c-15.7-2.5-34-8.3-55.5-17.4c-25.7-10.8-47.2-14.9-64.6-12.4c-17.4,1.7-32.3,7.5-43.9,17.4c-12.4,9.9-21.5,21.5-28.2,35.6
		c-6.6,14.1-11.6,27.3-14.1,39.8C1810,210.1,1828.2,204.3,1843.9,204.3 M1965.7,513.3c-9.9-0.8-19.9-1.7-30.7-1.7
		c-8.3,0-16.6,0.8-24,1.7c-8.3,0.8-14.9,2.5-21.5,5c-15.7,4.1-26.5,11.6-34.8,22.4c-3.3,3.3-5.8,7.5-7.5,11.6s-3.3,9.1-3.3,14.9
		c-0.8,1.7-1.7,4.1-1.7,8.3c0,5.8,1.7,11.6,3.3,18.2c1.7,7.5,5.8,13.3,10.8,19.1c5,6.6,12.4,11.6,21.5,15.7
		c9.1,4.1,21.5,5.8,37.3,5.8c5,0,9.1,0,11.6-0.8c16.6,0,31.5-5,43.9-14.1c6.6-3.3,11.6-8.3,15.7-12.4c4.1-5,7.5-10.8,10.8-16.6
		c6.6-11.6,11.6-23.2,13.3-34.8c2.5-11.6,4.1-23.2,4.1-33.1c-0.8,0-0.8,0-1.7-0.8h-0.8c-2.5-0.8-5.8-1.7-8.3-1.7
		c-3.3-0.8-6.6-1.7-10.8-2.5C1984.7,515.8,1975.6,515,1965.7,513.3"/>
	<path class="st1" d="M2492.6,347.6c18.2,19.1,33.1,41.4,43.9,67.1c10.8,25.7,15.7,53.8,15.7,82.8c0,29.8-5,57.2-14.1,82.8
		c-9.9,26.5-24,48.9-41.4,67.1c-17.4,19.9-38.9,35.6-63.8,46.4c-25.7,11.6-53.8,16.6-84.5,16.6c-27.3,0-53.8-5-78.7-16.6
		c-24-10.8-45.6-26.5-64.6-46.4c-18.2-18.2-33.1-40.6-43.1-67.1c-10.8-25.7-15.7-53-15.7-82.8c0-29,4.1-57.2,13.3-82.8
		c9.9-25.7,23.2-48,40.6-67.1c17.4-19.1,38.9-34.8,64.6-46.4c24.9-10.8,53-16.6,83.7-16.6c29,0,54.7,5.8,79.5,16.6
		C2452.8,312.8,2474.3,328.6,2492.6,347.6 M2348.4,634.2c8.3,0,17.4-1.7,27.3-5c11.6-3.3,21.5-9.9,30.6-20.7
		c9.9-9.9,18.2-24,24.9-41.4c6.6-18.2,9.9-40.6,9.9-69.6c0-28.2-3.3-51.4-9.9-69.6c-6.6-17.4-14.9-31.5-24.9-41.4
		c-9.1-9.9-19.1-16.6-30.6-19.9c-9.9-4.1-19.1-5.8-27.3-5.8c-7.5,0-16.6,1.7-27.3,5.8c-10.8,3.3-20.7,9.9-30.6,19.9
		c-9.9,9.9-18.2,24-24,41.4c-7.5,18.2-10.8,41.4-10.8,69.6c0,29,3.3,51.4,10.8,69.6c5.8,17.4,14.1,31.5,24,41.4
		c9.9,10.8,19.9,17.4,30.6,20.7C2331.8,632.6,2341,634.2,2348.4,634.2"/>
	<path class="st1" d="M2764.3,165.4c-0.8-18.2-0.8-32.3-0.8-43.1c0-11.6-0.8-19.9-0.8-26.5c-0.8-7.5-1.7-12.4-1.7-15.7
		c73.7,0,110.2,34.8,110.2,103.6l1.7,225.3c0,38.9,1.7,70.4,5,96.9c3.3,25.7,10.8,47.2,20.7,63c10.8,15.7,26.5,27.3,45.6,34.8
		c19.9,6.6,46.4,9.9,78.7,9.9c15.7,0,29,0,41.4-0.8c12.4,0,23.2-0.8,31.5-0.8c9.9-0.8,19.1-1.7,27.3-3.3v5.8
		c0,9.1-2.5,19.1-6.6,29.8c-5,9.9-11.6,19.1-21.5,27.3c-9.1,9.1-20.7,15.7-34.8,21.5c-14.1,5-31.5,8.3-51.4,8.3
		c-48.9,0-88.6-5-120.1-14.9c-31.5-9.9-56.3-26.5-74.6-48.9c-19.1-23.2-31.5-53.8-38.9-92c-7.5-38.1-10.8-85.3-10.8-141.7V165.4z"/>
	<path class="st1" d="M3524.7,518.3c0,39.8-5.8,72.1-17.4,96.9c-12.4,24.9-28.2,43.9-47.2,58c-19.1,14.9-40.6,24-63.8,29.8
		c-24,5-47.2,7.5-70.4,7.5c-23.2,0-46.4-2.5-69.6-7.5c-24-5.8-45.6-14.9-64.6-29.8c-19.1-14.1-34-33.1-46.4-58
		c-11.6-24.9-17.4-57.2-17.4-96.9l0.8-125.1c0-35.6,9.9-61.3,29.8-76.2c19.9-14.9,48-22.4,85.3-22.4c0,3.3-0.8,9.1-1.7,15.7
		c0,6.6-0.8,15.7-0.8,26.5c-0.8,11.6-0.8,25.7-0.8,43.9l0.8,137.5c0,24.9,2.5,44.7,7.5,59.6c5,14.9,11.6,27.3,19.9,34.8
		c8.3,9.1,16.6,14.1,27.3,17.4c9.1,3.3,19.9,4.1,29.8,4.1c10.8,0,20.7-0.8,30.7-4.1c9.9-3.3,19.1-8.3,27.3-17.4
		c8.3-7.5,14.1-19.9,19.1-34.8c5-14.9,7.5-34.8,7.5-59.6l0.8-125.1c0-35.6,9.9-61.3,30.6-76.2c19.9-14.9,48.9-22.4,86.2-22.4
		c-0.8,3.3-1.7,9.1-1.7,15.7c-0.8,6.6-1.7,15.7-1.7,26.5c0,11.6-0.8,25.7-0.8,43.9L3524.7,518.3z"/>
	<path class="st1" d="M3515.6,225.8c9.9-11.6,21.5-23.2,33.1-34c9.1-10.8,19.9-21.5,32.3-32.3c12.4-11.6,24-23.2,36.4-34
		c14.9-12.4,29-21.5,42.2-26.5c13.3-5,24.9-8.3,34.8-9.1c11.6-1.7,22.4-0.8,32.3,2.5c5,20.7,2.5,38.9-8.3,55.5
		c-10.8,15.7-27.3,29.8-48,41.4c-20.7,10.8-44.7,19.9-72.9,26.5C3570.3,221.7,3543,225.8,3515.6,225.8 M3747.6,621
		c0.8,15.7,0,29.8-3.3,42.2c-3.3,10.8-9.1,20.7-18.2,30.7c-9.1,9.1-24,14.9-43.1,15.7c-19.1,1.7-35.6,0-48.9-5.8
		c-14.1-5-25.7-13.3-35.6-23.2c-9.1-9.9-15.7-21.5-20.7-35.6c-4.1-13.3-6.6-27.3-6.6-42.2l0.8-209.6c0-35.6,9.9-61.3,29-76.2
		c19.9-15.7,48-23.2,85.3-23.2c0,4.1-0.8,9.9-1.7,16.6c-0.8,6.6-0.8,15.7-0.8,26.5c-0.8,10.8-0.8,24.9-0.8,43.1V592
		c0,14.1,2.5,24,8.3,30.7c5.8,5.8,11.6,9.9,19.1,10.8c7.5,1.7,14.9,0.8,21.5-1.7C3739.3,628.4,3744.3,625.1,3747.6,621"/>
	<path class="st1" d="M3977,597c0.8-9.9-1.7-18.2-9.1-24.9c-6.6-7.5-16.6-13.3-29.8-19.9c-12.4-5.8-28.2-13.3-45.6-19.9
		c-17.4-7.5-36.4-16.6-55.5-28.2c-14.9-8.3-26.5-18.2-35.6-29.8c-9.9-11.6-16.6-24-20.7-37.3c-4.1-13.3-5.8-26.5-5.8-40.6
		c0.8-14.1,4.1-28.2,9.9-41.4c6.6-13.3,14.1-24,24-33.1c9.9-9.1,20.7-15.7,32.3-21.5c11.6-5.8,23.2-9.9,35.6-12.4
		c12.4-1.7,23.2-3.3,34-3.3h10.8c32.3,1.7,61.3,9.1,87.8,23.2c26.5,13.3,49.7,31.5,67.9,53.8l3.3,2.5l-3.3,4.1
		c-5.8,8.3-12.4,14.1-19.9,18.2c-6.6,4.1-14.1,6.6-22.4,6.6s-16.6-1.7-24.9-5c-7.5-3.3-15.7-6.6-24.9-10.8
		c-11.6-4.1-22.4-8.3-32.3-11.6c-9.9-3.3-19.9-5-30.7-5c-13.3,0-23.2,2.5-29.8,8.3c-6.6,5.8-10.8,12.4-12.4,19.9
		c-0.8,11.6,2.5,21.5,10.8,28.2c9.1,7.5,21.5,14.9,38.1,21.5c18.2,7.5,38.9,15.7,59.6,24.9c21.5,9.1,39.8,20.7,56.3,34
		c16.6,13.3,29,29,37.3,48c8.3,18.2,9.1,40.6,2.5,67.9c-2.5,9.9-8.3,21.5-14.9,33.1c-7.5,11.6-17.4,21.5-30.7,31.5
		c-13.3,9.1-29,17.4-47.2,23.2c-18.2,6.6-39.8,9.1-65.4,9.1c-4.1,0-8.3,0-11.6-0.8c-29-0.8-57.2-8.3-85.3-21.5
		c-28.2-14.1-52.2-32.3-70.4-54.7l-3.3-2.5l3.3-3.3c2.5-5,5.8-8.3,9.9-11.6c3.3-3.3,6.6-5.8,9.9-8.3c6.6-3.3,14.1-5,21.5-5
		c8.3,0,16.6,1.7,24,5c8.3,3.3,16.6,6.6,25.7,9.9c9.1,4.1,18.2,7.5,29,10.8c9.9,3.3,22.4,5,34.8,5.8c22.4,0,37.3-4.1,47.2-12.4
		C3970.4,613.5,3975.4,605.3,3977,597"/>
</g>
</svg>
