<?xml version="1.0" encoding="utf-8"?>
<!-- Generator: Adobe Illustrator 25.0.0, SVG Export Plug-In . SVG Version: 6.00 Build 0)  -->
<svg version="1.1" id="Camada_1" xmlns="http://www.w3.org/2000/svg" xmlns:xlink="http://www.w3.org/1999/xlink" x="0px" y="0px"
	 viewBox="0 0 510.82 384.53" style="enable-background:new 0 0 510.82 384.53;" xml:space="preserve">
<style type="text/css">
	.st0{fill:#494949;}
</style>
<g>
	<path class="st0" d="M510.82,35.3c-1.13,2.93-1.92,6.06-3.47,8.76c-5.06,8.85-12.85,13.14-23.07,13.13
		c-38.33-0.02-76.66-0.01-114.99-0.01c-74.99,0-149.98,0.01-224.97-0.01c-12.13,0-21.55-6.34-25.23-16.79
		c-5.67-16.12,5.5-32.53,23.01-33.75c1.99-0.14,4-0.08,6-0.08c109.82,0,219.64,0,329.46,0c20.39,0,25.65,3.44,33.25,21.76
		C510.82,30.63,510.82,32.96,510.82,35.3z"/>
	<path class="st0" d="M510.82,356.32c-0.87,2.31-1.56,4.7-2.64,6.91c-4.47,9.22-12.03,13.92-22.12,14.77
		c-1.33,0.11-2.66,0.07-4,0.07c-111.99,0-223.97,0.01-335.96,0c-14.13,0-23.74-6.41-27.32-18.11c-4.81-15.72,6.63-31.86,23.04-32.48
		c2.16-0.08,4.33-0.04,6.5-0.04c109.99,0,219.98,0,329.96,0c20,0,25.19,3.5,32.53,21.88C510.82,351.65,510.82,353.98,510.82,356.32z
		"/>
	<path class="st0" d="M510.82,196.31c-0.61,1.51-1.27,3-1.83,4.53c-3.57,9.75-11.97,16.01-22.26,16.52
		c-1.83,0.09-3.67,0.09-5.5,0.09c-111.5,0-222.99,0.01-334.49-0.03c-3.48,0-7.08,0.01-10.41-0.84
		c-12.38-3.15-19.74-14.49-18.39-27.77c1.18-11.63,11.52-21.01,23.8-21.58c1-0.05,2-0.06,3-0.06c112.83,0,225.66-0.01,338.49,0.01
		c14.43,0,22.28,5.96,26.73,19.94c0.14,0.44,0.56,0.79,0.86,1.18C510.82,190.97,510.82,193.64,510.82,196.31z"/>
	<path class="st0" d="M-1.18,188.31c0.4-1.25,0.87-2.49,1.18-3.76c3.58-14.99,16.85-25.87,31.92-26.14
		c16.27-0.29,29.57,9.43,33.91,24.79c5.08,17.98-5.63,37.05-23.54,41.89c-18.56,5.01-37.59-6.05-42.21-24.52
		c-0.36-1.43-0.84-2.84-1.26-4.25C-1.18,193.64-1.18,190.97-1.18,188.31z"/>
	<path class="st0" d="M-1.18,29.3c0.43-1.22,0.94-2.42,1.26-3.66C4.61,8.17,21.23-2.46,39.46,0.49
		c16.71,2.7,28.61,18.44,27.41,36.28c-1.15,17.15-15.58,30.77-33.1,31.24C18.21,68.43,3.85,57.34,0.05,41.99
		c-0.31-1.26-0.81-2.47-1.22-3.7C-1.18,35.3-1.18,32.3-1.18,29.3z"/>
	<path class="st0" d="M-1.18,346.32c0.39-1.07,0.88-2.11,1.14-3.21c3.89-16.43,19.78-28.15,35.8-26.38
		c18.2,2.01,31.04,15.83,31.25,33.6c0.19,16.95-12.37,31.87-28.54,33.89c-18.16,2.27-33.95-8.13-38.38-25.24
		c-0.32-1.25-0.84-2.44-1.26-3.66C-1.18,352.32-1.18,349.32-1.18,346.32z"/>
</g>
</svg>
