<?xml version="1.0" encoding="utf-8"?>
<!-- Generator: Adobe Illustrator 25.0.0, SVG Export Plug-In . SVG Version: 6.00 Build 0)  -->
<svg version="1.1" id="Camada_1" xmlns="http://www.w3.org/2000/svg" xmlns:xlink="http://www.w3.org/1999/xlink" x="0px" y="0px"
	 viewBox="0 0 762.9 233" style="enable-background:new 0 0 762.9 233;" xml:space="preserve">
<style type="text/css">
	.st0{fill:#0176CE;}
	.st1{fill:#0076CE;}
	.st2{fill:#00C063;}
</style>
<g id="Camada_2_1_">
</g>
<g id="Camada_1_1_">
	<g>
		<g>
			<path class="st0" d="M613.3,186.5c0-11.6,0-23.2,0-34.8c0-0.7,0-1.4,0-2.1c0.1-3,0.2-2.5,2.6-2.5c19.4,0,38.8,0,58.1,0
				c0.3,0,0.7,0,1,0c1.2-0.1,1.5,0.5,1.4,1.5c0,0.5,0,1,0,1.6c0,4.1,0,8.1,0,12.2c0,3.6,0.4,3.2-3.1,3.2c-11.7,0-23.3,0-35,0
				c-4,0-3.4-0.4-3.4,3.5c0,2.3,0,4.7,0,7c0,1,0.3,1.5,1.3,1.4c0.7,0,1.4,0,2.1,0c10.3,0,20.6,0,30.9,0c0.6,0,1.2,0,1.8,0
				c1.2-0.1,1.7,0.4,1.7,1.6c0,4.7,0,9.3,0,14c0,1.1-0.4,1.6-1.5,1.5c-0.6,0-1.2,0-1.8,0c-10.4,0-20.8,0-31.1,0c-0.7,0-1.4,0-2.1,0
				c-0.9,0-1.2,0.4-1.2,1.2c0,3.4,0,6.8,0,10.1c0,0.8,0.4,1.1,1.1,1.1c0.7,0,1.4,0,2.1,0c11.8,0,23.7,0,35.5,0c0.7,0,1.4,0,2.1,0
				c1,0,1.3,0.4,1.3,1.4c0,5.2,0,10.4,0,15.6c0,1.2-0.5,1.5-1.6,1.5c-0.5,0-1,0-1.6,0c-19.2,0-38.4,0-57.6,0c-0.3,0-0.5,0-0.8,0
				c-2.2,0-2.3,0-2.3-2.3C613.3,211.1,613.3,198.8,613.3,186.5z"/>
			<path class="st0" d="M514.5,172.1c0,6.5,0,13,0,19.5c0,4.1-0.5,8.1-1.5,12.1c-2.9,11.3-10,18.6-21.2,21.7
				c-9,2.5-18.1,2.6-27.2,0.2c-12.5-3.2-19.8-11.4-22.3-23.9c-0.7-3.2-1-6.5-1-9.8c0-14.1,0-28.2,0-42.3c0-0.3,0-0.7,0-1
				c-0.1-1,0.3-1.5,1.3-1.4c0.3,0,0.7,0,1,0c5.8,0,11.6,0,17.4,0c2.4,0,2.4,0,2.4,2.4c0,13.5,0,27,0,40.5c0,2.3,0,4.7,0.6,7
				c1.7,6.7,6.3,10.4,13.3,10.5c1.4,0,2.8,0,4.1-0.2c6.1-1.3,9.9-5.6,10.6-12.1c0.2-2.1,0.3-4.3,0.3-6.5c0-12.9,0-25.8,0-38.7
				c0-3.1-0.2-2.8,2.8-2.8c5.7,0,11.4,0,17.1,0c2.1,0,2.2,0,2.2,2.1C514.5,156.9,514.5,164.5,514.5,172.1
				C514.5,172.1,514.5,172.1,514.5,172.1z"/>
			<path class="st0" d="M345.2,156.2c-3.4,4.8-6.8,9.5-10,14.2c-0.8,1.1-1.4,0.9-2.3,0.3c-3.2-2.2-6.7-3.9-10.5-5.1
				c-3.5-1.1-7-1.8-10.7-1.7c-1.8,0-3.5,0.4-5,1.3c-3,1.8-3.2,5.7-0.4,7.8c1.2,0.9,2.6,1.4,4,1.8c3.9,1.3,8,2,12,3.1
				c4.9,1.2,9.6,2.8,14,5.2c4.8,2.7,8.5,6.3,10,11.8c2.5,9.1,0.3,21.5-11.5,27.9c-4.9,2.7-10.2,3.9-15.6,4.2
				c-12.1,0.7-23.6-1.6-34-8c-1.8-1.1-3.5-2.3-5.1-3.6c-0.5-0.4-1-0.7-1.3-1.5c3.9-4.6,7.8-9.3,11.9-14.2c0.9,0.6,1.7,1.2,2.6,1.8
				c7.2,5,15.2,7.8,24.1,7.5c1.7,0,3.3-0.3,4.8-1c1.8-0.8,3-2.1,3.1-4.1c0.2-2-0.8-3.5-2.5-4.5c-2-1.1-4.1-1.8-6.3-2.4
				c-4.7-1.2-9.4-2.4-14-3.7c-3.2-0.9-6.4-2.2-9.3-3.8c-8.7-4.8-11.9-12.4-10.4-22.3c1.5-10,7.6-16.5,17-19.3
				c16-4.6,31-2.1,44.6,7.7C344.6,155.7,344.8,155.9,345.2,156.2z"/>
			<path class="st0" d="M354,94.9c-4.8,6.8-10.6,12.1-18.4,14.9c-12.5,4.4-24.9,4.1-36.6-2.4c-11.2-6.2-17.8-16-19.8-28.6
				c-1.9-12,0.6-23.1,8.2-32.7c6.8-8.5,15.7-13.3,26.5-14.8c8.3-1.1,16.4-0.3,24.1,3.1c6.2,2.8,11.2,7.1,15.3,12.8
				c-5.5,4.2-10.8,8.4-16.2,12.5c-1.3-1.3-2.5-2.5-3.8-3.7c-6.4-5.9-15.3-7.1-22.5-3c-3.9,2.2-6.6,5.6-8.2,9.7
				c-2.4,6.4-2.3,12.8,0.5,18.9c5.8,12.7,20,13.2,28,7.5c2.1-1.5,3.8-3.2,5.5-5.1c0.5-0.6,0.9-1,1.7-0.4
				C343.7,87.6,348.8,91.2,354,94.9z"/>
			<path class="st0" d="M563,32.5c10.3,0,20.6,0,30.9,0c0.6,0,1.2,0,1.8,0c1.3-0.1,1.7,0.5,1.7,1.7c0,5.2,0,10.4,0,15.6
				c0,1.8-0.1,1.9-2,1.9c-4.8,0-9.7,0-14.5,0c-1.7,0-3.5,0-5.2,0c-1.9,0-2,0-2,2.1c0,9.4,0,18.9,0,28.3c0,8.8,0,17.6,0,26.5
				c0,2.6,0,2.7-2.7,2.7c-5.5,0-11.1,0-16.6,0c-2.4,0-2.5,0-2.5-2.4c0-11.2,0-22.5,0-33.7c0-7,0-14,0-21c0-2.3,0-2.4-2.4-2.4
				c-6.2,0-12.5,0-18.7,0c-2.3,0-2.4,0-2.4-2.5c0-4.9,0-9.7,0-14.5c0-2.1,0-2.1,2.2-2.1C541.4,32.5,552.2,32.5,563,32.5z"/>
			<path class="st0" d="M625,7.4c3.2,0,6.3,1,9.3,1.9c2.2,0.7,4.4,1.5,6.7,2.1c3.6,1,5.5,0.1,7.2-3.2c0.7-1.3,1.3-1.5,2.6-1.1
				c2.4,0.7,4.8,1.4,7.2,2c0.8,0.2,1.1,0.6,0.9,1.5c-0.9,3.9-2,7.7-4.5,10.9c-2.1,2.9-5,4.4-8.6,4.5c-3.2,0.1-6.2-0.6-9.2-1.5
				c-2.6-0.8-5.2-1.7-7.9-2.4c-3.6-1-5.6-0.2-7.2,3.2c-0.7,1.4-1.2,1.8-2.8,1.2c-2.3-0.8-4.7-1.3-7-1.9c-0.8-0.2-1.3-0.6-1.1-1.6
				c0.9-3.2,1.8-6.5,3.6-9.4C616.8,9.2,620,7.4,625,7.4z"/>
			<path class="st0" d="M469.6,141.7c1.4-2.1,2.4-3.7,3.5-5.2c2.5-3.8,5.1-7.6,7.6-11.4c0.6-0.9,1.1-1.5,2.3-1.1
				c6,1.9,12,3.7,18,5.6c0.1,0,0.3,0.2,0.4,0.3c-0.3,0.8-1,1.1-1.7,1.6c-4.2,3-8.4,6-12.6,9.1c-1.2,0.9-2.3,1.3-3.8,1.2
				C478.9,141.7,474.5,141.7,469.6,141.7z"/>
			<path class="st0" d="M505.6,83.8c1.5-0.8,2.7-1.4,3.9-2.1c6-3.6,9.9-8.8,11.5-15.6c0.7-2.8,0.8-5.6,0.6-8.5
				c-0.5-9.8-5.1-17.1-14-21.4c-5.3-2.6-11-3.5-16.9-3.6c-12.1-0.1-24.2,0-36.3,0c-2.4,0-2.5,0-2.5,2.6c0,17.2,0,34.4,0,51.7
				c0,7.4,0,14.7,0,22.1c0,1.1,0,2.3,0,2.3s13.7,0,19.4,0c1.2,0,2.4,0,2.4,0s0-1.3,0-2.5c0-6-0.3-21.1-0.3-21.1l10-0.1l15.8,23.7
				l24.9-0.1C524.3,111.1,511.8,92.8,505.6,83.8z M499.4,63.6c-0.8,2.7-2.6,4.4-5.1,5.5c-1.8,0.8-3.8,1.1-5.8,1.1
				c-2.2,0-4.3,0-6.5,0c0,0,0,0,0,0c-2.2,0-4.5,0-6.7,0c-1.1,0-1.5-0.4-1.5-1.5c0-5.4,0-10.7,0-16c0-1,0.4-1.4,1.4-1.4
				c5.4,0.1,10.9-0.4,16.3,0.4C497.9,52.6,501.2,57.6,499.4,63.6z"/>
			<path class="st0" d="M601.8,180.9c-1.6-13.5-8.6-23.3-21-29.1c-6.5-3.1-13.5-4.5-20.6-4.5c-10.2-0.1-20.4,0-30.6-0.1
				c-0.3,0-0.5,0-0.8,0c-1-0.1-1.4,0.4-1.4,1.4c0,0.6,0,1.2,0,1.8c0,12,0,24,0,36.1c0,12.4,0,24.7,0,37.1c0,2.1,0,2.2,2.1,2.2
				c9.9,0,19.7,0,29.6,0c3.7,0,7.2-0.4,10.8-1.2c9.6-2,18-6.2,24.1-14.1C600.9,201.7,603.1,191.7,601.8,180.9z M579.6,189.2
				c-1.3,11.8-9.9,16.4-18.9,17.1c-3.1,0.2-6.2,0.1-9.3,0.1c-2.1,0-2.2,0-2.2-2.1c0-6,0-11.9,0-17.9s0-11.9,0-17.9c0-2,0-2.1,2-2
				c4,0.1,7.9-0.2,11.9,0.4C575.4,168.8,580.8,178.1,579.6,189.2z"/>
			<path class="st0" d="M762.7,67.7c-1.1-11.1-5.9-20.5-14.7-27.3c-13-10.1-27.6-12.2-42.8-6.6c-26.8,9.7-33.6,39.9-20.7,60
				c8.3,12.9,20.7,18.6,35.8,19c2.6-0.3,5.3-0.3,7.9-0.7C749.3,108.6,765,89.9,762.7,67.7z M735.6,86.3c-7.9,9.3-22.6,8.9-30.2-0.6
				c-7-8.8-6.2-22.1,1.7-29.8c3.5-3.4,8.2-5.2,13.4-5.3c9.8,0,17.9,6.8,19.8,16.5C741.6,74.2,740.3,80.8,735.6,86.3z"/>
			<path class="st0" d="M677.2,108.3C672,96,666.8,83.7,661.6,71.5c-5.2-12.4-10.5-24.8-15.7-37.3c-0.7-1.7-1.5-2.4-3.4-2.3
				c-5.4,0.1-10.7,0.1-16.1,0c-2,0-2.8,0.7-3.6,2.5c-9.9,23.5-19.8,47-29.7,70.5c-0.8,2-1.6,3.9-2.6,6.4c7.4,0,14.5,0,21.5,0
				c1.2,0,1.6-0.8,2-1.7c1.4-3.5,2.9-7,4.2-10.6c0.5-1.3,1.1-1.9,2.6-1.9c8.9,0.1,17.8,0,26.7,0c1.3,0,2,0.5,2.5,1.7
				c1.4,3.5,3,7,4.2,10.6c0.6,1.5,1.4,1.9,2.9,1.9c6-0.1,12.1,0,18.2,0c1.5,0,3.2,0,3.2,0S677.8,109.8,677.2,108.3z M625.6,80
				c2.7-7.3,5.6-14.4,8.7-22.1c3,7.7,5.8,14.7,8.7,22.1C637,80,631.5,80,625.6,80z"/>
			<path class="st0" d="M443.9,110c-0.2-0.4-0.3-0.8-0.5-1.2c-10.6-25-21.1-50-31.6-75c-0.6-1.5-1.4-1.9-2.9-1.9
				c-5.5,0.1-10.9,0.1-16.3,0c-1.9,0-2.8,0.5-3.6,2.4c-8.7,20.8-17.5,41.6-26.3,62.3c-2,4.7-3.9,9.4-6,14.3c0.6,0.2,0.9,0.3,1.1,0.3
				c6.7,0,13.5,0,20.2,0.1c1.2,0,1.7-0.6,2-1.6c1.4-3.5,2.9-7,4.2-10.6c0.5-1.4,1.2-2,2.8-2c8.8,0.1,17.6,0.1,26.5,0
				c1.5,0,2.1,0.6,2.6,1.9c1.3,3.3,2.7,6.5,3.9,9.9c0.7,1.8,1.7,2.5,3.6,2.5c6.1-0.1,12.3,0,18.4,0c0.3,0,0.7,0,1,0
				C443.8,111.1,444.1,110.7,443.9,110z M391.4,80c2.9-7.3,5.7-14.4,8.5-21.5c0.2,0,0.4,0,0.6,0c2.8,7.1,5.6,14.1,8.4,21.5
				C402.9,80,397.3,80,391.4,80z"/>
			<g>
				<g>
					<g>
						<path class="st0" d="M436.9,223.4c-3.5-8.4-7.1-16.7-10.6-25.1c-7-16.5-14-33.1-20.9-49.7c-0.7-1.6-1.5-2.2-3.2-2.1
							c-4.7,0.1-11.7-0.1-16.4,0c-1.5,0-2.5,0.2-3.1,1.7c-10.1,23.9-21.3,50.6-31.3,74.5c-0.4,0.9-1,1.8-0.9,3c7.2,0,14.2,0,21.3,0
							c1.1,0,1.4-0.7,1.8-1.5c1.4-3.6,3-7.2,4.3-10.8c0.5-1.2,1.1-1.7,2.4-1.7c8.9,0.1,17.8,0,26.7,0c1.3,0,2,0.4,2.5,1.7
							c1,2.8,2.2,5.5,3.3,8.2c0.6,1.3,0.8,3.1,1.9,3.9c1.1,0.9,3,0.3,4.5,0.3c6,0,12.1,0,18.3,0
							C437.5,224.6,437.1,224.1,436.9,223.4z M386.5,194.8c-0.5,0-1.7,0-1.7,0s0.4-0.9,0.6-1.4c2.7-6.8,5.4-13.6,8.4-21
							c3,7.7,5.8,14.8,8.8,22.4C396.8,194.8,391.6,194.8,386.5,194.8z"/>
					</g>
				</g>
			</g>
		</g>
	</g>
	<g>
		<g>
			<path class="st1" d="M125.9,59.5c-16.4,0-32.2,0-48.1,0c-9.6,0-11.8,2.3-11.8,11.8c0,15.9,0,31.7,0,47.6
				c0,9.7,1.9,11.6,11.8,11.6c15.9,0,31.8,0,48.1,0c0,6.8,0,13.5,0,20.1c0,9.8,0,19.5,0,29.2c0,8.1,2.2,10.4,10.1,10.5
				c15.5,0.1,31,0,47.3,0c-2.3,2.3-4.3,4.5-6.4,6.4c-13.2,11.7-26.4,23.2-39.5,34.9c-2.5,2.2-4.3,1.7-6.5-0.2
				c-7.9-6.9-16.1-13.5-23.8-20.6c-17.3-15.7-34.7-31.2-50.7-48.2C38.1,143.1,21,122.8,9.6,98.4c-6.9-14.6-10.8-30-9.2-46.2
				c1.5-14.4,8.5-26.1,19.4-35.5C29.1,8.6,39.9,2.5,52,1.3C66.3-0.2,81-1.4,95,4.1C107.2,9,116.6,17.4,124.2,28
				c1.3,1.9,1.8,3.6,1.8,5.8C125.9,42.2,125.9,50.6,125.9,59.5z"/>
			<path class="st2" d="M257.8,100.3c0-11.6,0.2-22.5-0.1-33.3c-0.2-5.5-3.8-7.9-10.4-8c-15.3,0-30.6,0-45.9,0c-1.1,0-2.2,0-3.4,0
				c0-16.4,0-32.4,0-48.3c0-3.8-0.2-7.5-4-9.8c16.7-1.8,32.2,0.4,46.2,9.5c20,13,30.2,31.1,28.1,55.1
				C267.1,77.6,263.5,89,257.8,100.3z"/>
			<path class="st0" d="M197.4,130.6c13.9,0,27.3,0,41.5,0c-12.5,16.9-26.7,31.3-41.5,46.8C197.4,161.2,197.4,146.1,197.4,130.6z"/>
		</g>
	</g>
</g>
</svg>
