<?xml version="1.0" encoding="utf-8"?>
<!-- Generator: Adobe Illustrator 25.2.1, SVG Export Plug-In . SVG Version: 6.00 Build 0)  -->
<svg version="1.1" id="Camada_1" xmlns="http://www.w3.org/2000/svg" xmlns:xlink="http://www.w3.org/1999/xlink" x="0px" y="0px"
	 viewBox="0 0 762.9 233" style="enable-background:new 0 0 762.9 233;" xml:space="preserve">
<style type="text/css">
	.st0{fill:#61D98B;}
	.st1{fill:#0030F6;}
	.st2{fill:#0231F6;}
	.st3{fill:#0836F6;}
	.st4{fill:#0131F6;}
</style>
<g id="Camada_2_1_">
</g>
<g>
	<path class="st0" d="M143.3,107.5c-12.4,0-24.8-0.1-37.2,0c-5.8,0.1-8.5-2.4-8.5-8.2c0.1-18,0.1-36,0-54c0-3.2,1.1-5.6,3.3-7.8
		c15.8-15.8,35.1-19.7,55.8-13.9c20.9,5.9,33.5,20.8,38.3,41.9c2.8,12.3,0.5,24-4.4,35.5c-2,4.7-4.8,6.7-10,6.6
		C168.2,107.3,155.8,107.5,143.3,107.5z"/>
	<path class="st1" d="M46.4,107.6c-11.2,0-22.3,0-33.5,0c-3.2,0-5.7-0.5-7.3-3.7C-4.3,84-1.7,56.2,18.3,40.8
		c18.8-14.5,47-13.3,64.5,2.8c3.3,3.1,4.8,6.3,4.7,10.9c-0.3,14.7-0.1,29.3-0.1,44c0,8.7-0.5,9.1-9.4,9.1
		C67.5,107.6,56.9,107.6,46.4,107.6z"/>
	<path class="st1" d="M97.6,165.3c0-13.2,0-26.4,0-39.6c0-6.9,2-9.1,9.1-9.1c26.1-0.1,52.3,0,78.4,0c3.3,0,6.5,0.4,8.1,3.7
		c1.6,3.2,0.5,6-1.6,8.7c-23.8,31.3-52.2,58-81.9,83.6c-2.7,2.4-5.9,2.4-8.9,1.2c-2.8-1.2-3.3-4-3.3-6.9
		C97.6,192.9,97.6,179.1,97.6,165.3z"/>
	<path class="st1" d="M87.4,152c0,9,0,18,0,27c0,3.4-0.8,6.2-4.2,7.7c-3.5,1.6-6.1,0-8.5-2.2c-19.2-16.7-37.6-34.2-53.5-54.2
		c-2.4-3.1-4.9-6.1-2.9-10.2c1.9-3.8,5.7-3.8,9.3-3.8c16.6,0,33.3,0,49.9,0c7.7,0,9.7,2.1,9.8,9.7C87.5,134.8,87.4,143.4,87.4,152z"
		/>
	<path class="st1" d="M662.1,107.9c0,3.4,0.1,6.7,0,10.1c-0.3,15.5-9.5,25.3-24.2,25.7c-15.1,0.5-25.6-8.9-26.5-24.2
		c-0.5-7.7-0.1-15.5-0.1-23.3c0-6.9,5.2-5.1,9.1-5.3c3.9-0.2,7.2,0.2,7.1,5.4c-0.1,7.3-0.1,14.7,0,22c0.1,6.9,3.6,11.1,9.2,11.3
		c5.8,0.2,9.7-4.2,9.8-11.4c0.1-7.1,0.2-14.3,0-21.4c-0.2-6,3.4-6.1,7.8-6.1c4.1,0.1,8.4-0.5,8,5.8
		C661.9,100.4,662.1,104.2,662.1,107.9z"/>
	<path class="st1" d="M537.9,143.8c-8.2-0.4-14.9-1.9-20.8-6.1c-2.6-1.8-4.9-4-2-7.1c2.4-2.6,3.8-7.9,9.3-4.4
		c3.9,2.5,8.1,4.6,13,4.2c2-0.2,4.7-0.2,5.1-2.8c0.4-2.9-2.4-3.1-4.3-3.6c-4.7-1.2-9.4-2.5-13.6-4.9c-5.5-3.2-8.8-7.9-8.4-14.4
		c0.5-6.5,4.3-10.8,10.3-13.1c9.7-3.7,19-2.7,27.8,2.8c2.5,1.5,4.7,3.5,2.1,6.5c-2.2,2.7-3.7,7.3-8.8,4.6c-3.3-1.8-6.6-3.7-10.6-3.4
		c-1.8,0.1-3.6,0.5-4.1,2.2c-0.6,2.3,1.3,3.3,3.1,4c3.6,1.3,7.2,2.2,10.7,3.6c9.2,3.5,13.1,9,12.4,16.7c-0.7,7.1-5.9,12.1-14.9,14.1
		C541.9,143.4,539.3,143.6,537.9,143.8z"/>
	<path class="st1" d="M723.5,116.4c0-6.5,0.1-13,0-19.5c-0.1-4.2,1.4-6.2,5.9-6.1c9.5,0.2,19,0.2,28.4,0c5.2-0.1,5,2.9,5.1,6.5
		c0,3.7-0.1,6.7-5.2,6.4c-4.8-0.3-9.7,0-14.5-0.1c-2.3,0-3.4,0.7-3.5,3.2c0,2.6,1.1,3.3,3.4,3.1c2.5-0.1,5.1,0.1,7.6,0
		c4.4-0.2,7.2,0.8,7.1,6.2c0,5.3-2.5,6.5-7.1,6.2c-2.5-0.2-5.1,0.1-7.6-0.1c-2.9-0.2-3.5,1.1-3.5,3.7c0,2.6,0.7,3.8,3.6,3.7
		c5.1-0.2,10.1,0.1,15.2-0.1c5.1-0.2,4.5,3.2,4.4,6.4c-0.1,3,1,6.6-4.2,6.5c-9.9-0.1-19.8-0.1-29.7,0c-4.2,0-5.5-2.1-5.4-5.9
		C723.6,129.9,723.5,123.2,723.5,116.4z"/>
	<path class="st2" d="M216.2,116.7c0.3-11.4,5.4-20.1,16.1-24.7c10.3-4.4,20.2-3,28.9,4.3c1.5,1.3,4.5,2.6,2,5.4
		c-2.2,2.5-3.9,0.8-5.8-0.7c-9.4-7.5-21.7-7.1-29,0.9c-7.5,8.2-7.4,21.8,0.2,29.8c7.3,7.7,19.6,8.1,28.6,0.8c2.1-1.7,4-3.6,6.2-0.6
		c2.2,2.9-1,4.1-2.5,5.4c-8.8,7.2-18.6,8.5-28.9,3.9C221.5,136.6,216.6,128.1,216.2,116.7z"/>
	<path class="st1" d="M375.8,119.4c0-5.9-0.3-11.7,0.1-17.6c0.3-4.6-1.4-5.9-5.7-5.4c-2.5,0.3-5,0-7.6,0c-2.1,0-3.9-0.2-3.7-3
		c0.1-2.2,1.6-2.6,3.5-2.6c11.1,0,22.3,0,33.4,0c2,0,3.3,0.7,3.4,2.7c0.1,2.2-1.4,2.8-3.3,2.8c-0.6,0-1.3,0-1.9,0
		c-12,0.4-12,0.4-12,12.2c0,9.6,0,19.3,0,28.9c0,2.3,0.5,4.9-3.1,5c-3.5,0-3.2-2.5-3.2-4.9C375.8,131.5,375.8,125.4,375.8,119.4z"/>
	<path class="st2" d="M642.8,66.5c3.9,1.5,4.8,4.9,6.1,7.8c1.2,2.6-0.9,3.6-3,4.5c-4.6,1.9-9.3,3.7-13.9,5.6
		c-3.1,1.3-5.1,0.2-6.7-2.6c-1.9-3.3-0.2-4.9,2.4-6.5C632.9,72.4,637.9,69.4,642.8,66.5z"/>
	<path class="st3" d="M409.7,75.6c3.4,0,5.8,1.7,8.4,3.1c3.2,1.7,6.9,4.8,8.5-1.7c0.4-1.4,1.8-1.7,3.1-1.1c1.4,0.6,1.5,1.8,1.4,3.1
		c-0.4,4.9-5.8,8.3-10.7,6.6c-2.1-0.8-4-2.3-6-3.4c-2.9-1.6-5.9-3.3-7,1.9c-0.4,1.7-1.4,2.6-3.2,1.9c-1.4-0.5-1.8-1.8-1.5-3.1
		C403.5,78.8,405.4,75.9,409.7,75.6z"/>
	<path class="st1" d="M694.8,91c-6.9-0.4-13.9,0.1-20.8-0.1c-4.8-0.2-6.3,2-6.1,6.5c0.2,6.5,0.1,13,0.1,19.4c0,6.7,0.1,13.4,0,20.1
		c0,3.5,1.1,5.7,4.9,5.7c7.8-0.1,15.6,0.4,23.3-0.3c14.8-1.3,24.1-12.1,23.6-26.5C719.3,101.6,709.4,91.7,694.8,91z M701.7,123.9
		c-2.7,4.7-10.1,7.3-15.5,5.8c-2.8-0.8-1.9-2.9-2-4.5c-0.1-2.9,0-5.9,0-8.8c0-1.3-0.2-2.5,0-3.8c0.5-2.9-1.8-7.5,1.4-8.5
		c4.7-1.4,10.1-1.1,14.2,2.8C703.8,110.9,704.6,118.7,701.7,123.9z"/>
	<path class="st1" d="M612.3,137.1c-6.6-13.7-13.4-27.4-20-41.1c-1.5-3.1-3.5-5.1-7.2-5.1c-3.5,0-5.3,2.1-6.7,4.9
		c-6.7,13.7-13.3,27.4-20,41.2c-0.7,1.5-1.7,3-0.3,4.6c2.2,2.5,14.7,0.9,15.7-2.4c1.2-3.9,3.6-4.5,7.1-4.2c3.3,0.2,6.7,0.1,10.1,0
		c1.7,0,3.6-0.2,4,2c1.3,5.7,5.3,6.3,9.2,5.6C613.8,142.5,614.6,141.9,612.3,137.1z M580,124.5c1.9-4.6,3.4-8.2,5-12.2
		c2.7,3.8,4,7.8,4.8,12.2C586.7,124.5,583.8,124.5,580,124.5z"/>
	<path class="st4" d="M469.9,89.6c-15.5,0-27.2,11.5-27.3,26.8c-0.1,15.4,11.4,27.1,26.8,27.3c15.8,0.3,27.9-11.3,28-26.8
		C497.5,101.4,485.7,89.6,469.9,89.6z M470.2,137.7c-12.2,0.1-21-8.7-21-21c0-12,8.6-20.9,20.4-21c12.3-0.1,21.2,8.5,21.3,20.7
		C491,128.6,482.4,137.6,470.2,137.7z"/>
	<path class="st1" d="M348.4,124.1c-1.5-2.5-1.5-3.5,1.5-4.9c6.8-3.1,9.1-8.1,8.3-15.3c-0.8-6.5-4.4-10.4-11.7-12.2
		c-7.1-1.7-14.3-0.3-21.4-0.9c-4-0.3-5.1,1.5-5,5.2c0.2,6.9,0.1,13.8,0.1,20.8c0,7.1,0,14.3,0,21.4c0,2.3,0.2,4.3,3.2,4.3
		c3,0,3.1-2.1,3.1-4.4c0-4.4-0.1-8.8,0-13.2c0-1.3-0.6-2.9,1.3-3.7c4.5-2,12.4,0.7,14.9,5.2c2.7,4.7,5.3,9.5,8.1,14.2
		c1.4,2.5,4,2.7,6,1.5c2-1.2,0-3-0.7-4.3C353.6,133.1,351.1,128.5,348.4,124.1z M328.9,115.3c-5.7-2.9-1.3-10.4-2.3-15.8
		c-0.6-3.2,1.8-3.1,4-3.1c1.9,0,3.8,0,5.7,0c0-0.1,0-0.2,0-0.3c2.9,0.3,5.9,0.3,8.7,1c4.4,1.1,6.7,4.2,6.8,8.7
		c0.1,4.4-1.9,7.7-6.2,9.1C340,116.7,333.2,117.5,328.9,115.3z"/>
	<path class="st4" d="M441.5,140c-0.3-0.8-0.8-2-1.3-3.1c-6.6-14-13.2-28-19.8-42c-0.8-1.7-1.2-3.9-3.5-3.9c-2.3,0-2.7,2.4-3.4,4
		c-6.7,14-13.3,27.9-19.9,42c-0.7,1.6-3.4,3.8-0.4,5.2c2.3,1.1,5.2,0.4,5.9-2.8c1.8-7.7,7-9.4,14-8.3c2.3,0.3,4.6,0.2,6.9,0
		c7-0.7,12.9,0,14.5,8.5c0.5,2.8,3,3.1,5.5,2.9C441.3,142.3,441.8,141.6,441.5,140z M405.4,125.7c3.8-8.3,7.4-16.2,11.4-24.8
		c3.9,8.5,7.5,16.2,11.4,24.8C420.3,125.7,413.4,125.7,405.4,125.7z"/>
	<path class="st4" d="M314.8,140.4c-0.3-0.6-0.5-1.2-0.8-1.7c-7-14.9-14-29.9-21-44.8c-0.6-1.3-1.1-2.9-3-2.8
		c-2.2,0.1-2.4,2.1-3.1,3.5c-6.7,14.1-13.5,28.3-20.1,42.5c-0.7,1.5-3.5,3.7-0.4,5.2c2.5,1.2,5.1,0.1,5.8-2.9
		c1.8-7.9,7.2-9.1,14.1-8.2c2.1,0.3,4.2,0.2,6.3,0c7.1-0.8,13.4-0.3,15.1,8.6c0.5,2.8,3.1,3,5.6,2.7
		C314.5,142.2,315.1,141.7,314.8,140.4z M278.7,125.7c3.7-8.1,7.2-15.8,11.3-24.8c4.1,9,7.6,16.7,11.3,24.8
		C293.6,125.7,286.7,125.7,278.7,125.7z"/>
</g>
</svg>
