<?xml version="1.0" encoding="utf-8"?>
<!-- Generator: Adobe Illustrator 25.0.0, SVG Export Plug-In . SVG Version: 6.00 Build 0)  -->
<svg version="1.1" id="Camada_1" xmlns="http://www.w3.org/2000/svg" xmlns:xlink="http://www.w3.org/1999/xlink" x="0px" y="0px"
	 viewBox="0 0 512 512" style="enable-background:new 0 0 512 512;" xml:space="preserve">
<style type="text/css">
	.st0{fill:#0076CE;}
</style>
<g>
	<path class="st0" d="M240,0c10.67,0,21.33,0,32,0c1.28,0.28,2.56,0.62,3.85,0.83c13.14,2.04,26.47,3.25,39.4,6.21
		c98.6,22.54,176.16,105.07,192.87,204.83c1.56,9.33,2.6,18.75,3.88,28.13c0,10.67,0,21.33,0,32c-0.28,1.29-0.65,2.56-0.84,3.87
		c-1.74,11.85-2.84,23.82-5.26,35.52c-20.53,99.25-105.4,180.46-205.3,196.66c-9.5,1.54-19.07,2.64-28.6,3.95c-10.67,0-21.33,0-32,0
		c-1.11-0.27-2.21-0.63-3.34-0.8c-11.68-1.71-23.48-2.83-35.03-5.15C102.36,486.18,20.1,400.79,4,301.11
		c-1.56-9.67-2.68-19.4-4-29.11c0-10.67,0-21.33,0-32c1.63-11.34,2.86-22.75,4.96-34C23.98,104.08,109.14,20.76,211.39,3.94
		C220.88,2.38,230.46,1.3,240,0z M409.66,421c62.11-56.02,92.18-151.97,58.2-243.53C433.29,84.33,339.88,20.73,233.52,31.14
		c-97.44,9.53-178.91,81.93-198.84,179.45c-9.73,47.62-4.62,93.79,15.33,138.16c12.4,27.6,29.74,51.68,52.22,72.56
		c15.35-48.94,46.07-83.28,92.71-104.13c-29.04-20.4-46.43-47.63-49.7-82.68c-3.27-35.05,7.91-65.42,33.01-90.22
		c43.1-42.58,112.76-42.41,155.86,0.34c21.56,21.39,32.94,47.44,33.1,77.89c0.21,40.16-17.51,71.24-50.01,94.71
		C363.72,338.04,394.43,372.38,409.66,421z M248.12,481.97c50.96,0.18,93.81-12.53,130.61-36.16c4.19-2.69,4.77-5.23,3.71-9.73
		c-13.29-56.17-58.92-95.54-116.59-100.35c-64.15-5.35-123.12,38.54-136.63,101.56c-0.82,3.85,0.12,5.92,3.47,8.07
		C170.07,469.43,210.97,481.55,248.12,481.97z M174.7,223.51c-0.22,44.97,35.98,81.48,80.95,81.66
		c45.01,0.18,81.42-35.92,81.65-80.96c0.23-44.92-35.87-81.38-80.95-81.75C211.63,142.09,174.91,178.54,174.7,223.51z"/>
</g>
</svg>
