<?xml version="1.0" encoding="utf-8"?>
<!-- Generator: Adobe Illustrator 25.0.0, SVG Export Plug-In . SVG Version: 6.00 Build 0)  -->
<svg version="1.1" id="Camada_1" xmlns="http://www.w3.org/2000/svg" xmlns:xlink="http://www.w3.org/1999/xlink" x="0px" y="0px"
	 viewBox="0 0 24 24" style="enable-background:new 0 0 24 24;" xml:space="preserve">
<style type="text/css">
	.st0{fill:#021A4F;}
</style>
<path class="st0" d="M12,7.6c-2.4,0-4.4,2-4.4,4.4c0,1,0.3,1.7,0.8,2.5L8,16.1l1.7-0.4c0.7,0.4,1.5,0.7,2.4,0.7c2.4,0,4.4-2,4.4-4.4
	C16.4,9.5,14.4,7.6,12,7.6z M14.6,13.8c-0.1,0.3-0.6,0.6-0.9,0.6c-0.2,0-0.5,0-0.8-0.1c-0.2-0.1-0.4-0.1-0.8-0.3
	c-1.3-0.6-2.2-1.9-2.3-2s-0.5-0.7-0.5-1.4c0-0.6,0.3-1,0.5-1.1s0.3-0.2,0.4-0.2h0.3c0.1,0,0.2,0,0.3,0.2c0.1,0.3,0.4,0.9,0.4,1
	s0.1,0.1,0,0.2c0,0.1-0.1,0.1-0.1,0.2l-0.2,0.2c-0.1,0.1-0.1,0.1-0.1,0.3c0.1,0.1,0.3,0.6,0.7,0.9c0.5,0.4,0.9,0.6,1.1,0.7
	c0.1,0.1,0.2,0.1,0.3,0s0.3-0.4,0.4-0.5c0.1-0.1,0.2-0.1,0.3-0.1s0.8,0.4,0.9,0.4c0.1,0.1,0.2,0.1,0.3,0.2
	C14.7,13.3,14.7,13.5,14.6,13.8z M12,0C5.4,0,0,5.4,0,12s5.4,12,12,12s12-5.4,12-12S18.6,0,12,0z M12,17.2c-0.9,0-1.8-0.2-2.5-0.6
	l-2.8,0.7l0.7-2.7C7,13.8,6.7,12.9,6.7,12c0-3,2.4-5.3,5.3-5.3c1.4,0,2.7,0.6,3.7,1.5c1,1,1.5,2.3,1.5,3.7
	C17.3,14.9,14.9,17.2,12,17.2z"/>
</svg>
