<?xml version="1.0" encoding="utf-8"?>
<!-- Generator: Adobe Illustrator 25.0.0, SVG Export Plug-In . SVG Version: 6.00 Build 0)  -->
<svg version="1.1" id="Camada_1" xmlns="http://www.w3.org/2000/svg" xmlns:xlink="http://www.w3.org/1999/xlink" x="0px" y="0px"
	 viewBox="0 0 24 24" style="enable-background:new 0 0 24 24;" xml:space="preserve">
<style type="text/css">
	.st0{fill:#075F77;}
</style>
<path class="st0" d="M12,6.2c-3.2,0-5.8,2.6-5.8,5.8c0,1.3,0.4,2.3,1,3.3l-0.6,2.1l2.2-0.6c1,0.6,1.9,0.9,3.1,0.9
	c3.2,0,5.8-2.6,5.8-5.8C17.8,8.8,15.2,6.2,12,6.2z M15.4,14.4c-0.1,0.4-0.8,0.8-1.2,0.8c-0.3,0-0.7,0.1-1.1-0.1
	c-0.3-0.1-0.6-0.2-1-0.4c-1.7-0.8-2.9-2.5-3-2.6c-0.1-0.1-0.7-0.9-0.7-1.8S9,9.1,9.1,9s0.3-0.2,0.5-0.2l0.3,0c0.1,0,0.2,0,0.4,0.3
	c0.1,0.3,0.5,1.2,0.5,1.3s0.1,0.2,0,0.3s-0.1,0.2-0.2,0.3l-0.3,0.3c-0.1,0.1-0.2,0.2-0.1,0.4s0.4,0.7,1,1.2c0.7,0.6,1.2,0.8,1.4,0.9
	s0.3,0.1,0.4,0c0.1-0.1,0.4-0.5,0.5-0.7c0.1-0.2,0.2-0.1,0.4-0.1s1,0.5,1.2,0.6s0.3,0.1,0.3,0.2C15.6,13.7,15.6,14,15.4,14.4z M12,0
	C5.4,0,0,5.4,0,12s5.4,12,12,12s12-5.4,12-12S18.6,0,12,0z M12,18.9c-1.2,0-2.3-0.3-3.3-0.8L5,19l1-3.6c-0.6-1.1-0.9-2.2-0.9-3.5
	C5.1,8.1,8.2,5,12,5c1.9,0,3.6,0.7,4.9,2c1.3,1.3,2,3.1,2,4.9C19,15.8,15.9,18.9,12,18.9z"/>
</svg>
